<?xml version="1.0" encoding="utf-8"?>
<!-- Generator: Adobe Illustrator 21.0.0, SVG Export Plug-In . SVG Version: 6.00 Build 0)  -->
<svg version="1.1" xmlns="http://www.w3.org/2000/svg" xmlns:xlink="http://www.w3.org/1999/xlink" x="0px" y="0px"
	 viewBox="0 0 99.7 31.3" style="enable-background:new 0 0 99.7 31.3;" xml:space="preserve">
<style type="text/css">
	.st0{fill:#999999;}
</style>
<g id="Layer_2">
</g>
<g id="Layer_1">
	<path class="st0" d="M72.2,13.5c-0.3-0.2-0.6-0.2-0.9-0.2c-0.2,0-0.5,0-0.7,0.1c-0.2,0.1-0.4,0.2-0.5,0.4c-0.1,0.2-0.3,0.4-0.3,0.7
		c-0.1,0.3-0.1,0.6-0.1,0.9c0,0.3,0,0.6,0.1,0.9c0.1,0.3,0.2,0.5,0.4,0.7c0.2,0.2,0.3,0.3,0.5,0.4c0.2,0.1,0.4,0.1,0.7,0.1
		c0.3,0,0.6-0.1,0.9-0.2c0.3-0.2,0.5-0.4,0.6-0.7s0.2-0.7,0.2-1.2c0-0.4-0.1-0.8-0.2-1.1C72.7,13.9,72.5,13.7,72.2,13.5z"/>
	<path class="st0" d="M17.7,16.4C17.7,16.4,17.7,16.4,17.7,16.4L17.7,16.4C17.6,16.5,17.7,16.4,17.7,16.4z"/>
	<path class="st0" d="M82.1,17.4c0.1,0,0.2,0,0.4-0.1c0.1,0,0.2-0.1,0.3-0.2c0.4-0.3,0.6-0.9,0.6-1.8c0-0.6-0.1-1-0.3-1.3
		s-0.4-0.5-0.7-0.6c-0.3-0.1-0.6-0.1-0.9-0.1h-0.8v4h0.9C81.8,17.4,82,17.4,82.1,17.4z"/>
	<path class="st0" d="M69.9,24.3c0,0.3,0.3,0.5,0.7,0.5c0.2,0,0.5-0.1,0.6-0.2c-0.3-0.2-0.6-0.5-1-0.9
		C70.1,23.9,69.9,24.1,69.9,24.3z"/>
	<path class="st0" d="M90.8,22.4c-0.2,0-0.4,0-0.4,0v1h0.4c0.5,0,0.8-0.2,0.8-0.5C91.5,22.6,91.2,22.4,90.8,22.4z"/>
	<path class="st0" d="M91.1,17c0.2,0.2,0.3,0.3,0.5,0.4c0.2,0.1,0.4,0.1,0.7,0.1c0.3,0,0.6-0.1,0.9-0.2c0.3-0.2,0.5-0.4,0.6-0.7
		s0.2-0.7,0.2-1.2c0-0.4-0.1-0.8-0.2-1.1c-0.1-0.3-0.3-0.6-0.6-0.7s-0.6-0.2-0.9-0.2c-0.2,0-0.5,0-0.7,0.1c-0.2,0.1-0.4,0.2-0.5,0.4
		c-0.1,0.2-0.3,0.4-0.3,0.7c-0.1,0.3-0.1,0.6-0.1,0.9c0,0.3,0,0.6,0.1,0.9C90.8,16.6,91,16.8,91.1,17z"/>
	<path class="st0" d="M50,13.6c-0.3-0.2-0.6-0.2-0.9-0.2c-0.2,0-0.5,0-0.7,0.1c-0.2,0.1-0.4,0.2-0.5,0.4c-0.1,0.2-0.3,0.4-0.4,0.7
		s-0.1,0.6-0.1,0.9c0,0.3,0,0.6,0.1,0.9c0.1,0.3,0.2,0.5,0.4,0.7c0.2,0.2,0.3,0.3,0.5,0.4c0.2,0.1,0.4,0.1,0.7,0.1
		c0.3,0,0.6-0.1,0.9-0.2c0.3-0.2,0.5-0.4,0.6-0.7c0.2-0.3,0.2-0.7,0.2-1.2c0-0.4-0.1-0.8-0.2-1.1C50.5,14,50.3,13.8,50,13.6z"/>
	<path class="st0" d="M71.1,22.7c0-0.2-0.1-0.3-0.4-0.3c-0.2,0-0.4,0.2-0.4,0.4c0,0.2,0.1,0.3,0.3,0.5C70.9,23,71.1,22.9,71.1,22.7z
		"/>
	<path class="st0" d="M37.1,22.5L37.1,22.5c-0.1,0.2-0.1,0.5-0.2,0.7l-0.3,0.7h0.9l-0.3-0.7C37.2,22.9,37.2,22.7,37.1,22.5z"/>
	<path class="st0" d="M17.7,16.4l0.2-0.1C17.8,16.2,17.8,16.3,17.7,16.4z"/>
	<path class="st0" d="M16.8,16.5c-0.4-0.3-0.5-0.7-0.4-1.1c0.1-0.1,0.1-0.2,0.2-0.3c0-0.1,0-0.2,0.1-0.4c0.4-0.1,0.8-0.3,1.2,0
		c0.1,0,0.2,0,0.2,0c0,0,0-0.1,0.1-0.1c0.3,0,0.6,0,0.8,0.2c0.1-0.1,0.2,0,0.2,0c0,0,0.1,0.1,0.1,0.1l0.3-0.2c0,0,0-0.1,0.1-0.1
		c0.1-0.1,0.2-0.1,0.3-0.2l0.6-0.5c0-0.1-0.1-0.2,0-0.2c0,0,0,0,0.1,0c0-0.1,0.2-0.2,0.2-0.3c0.2-0.1,0.4-0.1,0.5-0.2l0,0
		c0-0.1,0-0.2,0.1-0.2c0.2,0,0.4-0.1,0.5-0.2l0.1-0.1c-0.1-0.1-0.1-0.2-0.2-0.2c0,0,0.1-0.1,0.1-0.1c0,0-0.1,0-0.1-0.1
		c-0.1,0.1-0.2,0-0.2,0c0,0,0,0,0-0.1c0.1-0.1,0.2-0.1,0.3-0.1c0.3,0.1,0.7,0,0.9-0.1c0,0,0,0,0-0.1c-0.1-0.1-0.2-0.2-0.3-0.2
		c0,0,0,0,0-0.1c-0.2,0-0.3-0.1-0.5-0.2c-0.1-0.1-0.2-0.3-0.4-0.4c0,0.1-0.1,0.2-0.2,0.2c-0.3-0.2-0.5-0.5-0.7-0.6
		c0,0-0.1-0.1-0.2,0c0,0.2,0.2,0.4,0.3,0.7c0,0-0.1,0-0.1,0c0,0.1-0.1,0.2-0.3,0.2c0,0.1,0,0.2,0,0.2c-0.1,0.1-0.2,0.1-0.3,0.1
		c-0.2-0.1-0.3-0.3-0.2-0.5c-0.3-0.1-0.5-0.2-0.7-0.4c-0.1,0-0.2-0.1-0.3-0.1c-0.1-0.2-0.2-0.3-0.1-0.5c0.2-0.1,0.3-0.2,0.5-0.3
		c0.1-0.1,0.2-0.2,0.4-0.2c-0.1-0.1-0.2-0.2-0.2-0.3c0,0-0.1,0-0.1,0c-0.1,0.1-0.2,0.1-0.3,0.2c-0.3-0.1-0.6-0.1-0.8-0.3
		c0,0.1-0.1,0-0.2,0.1c-0.1,0-0.2-0.1-0.3-0.1c-0.1,0-0.3,0-0.4,0c0,0,0,0-0.1,0c0,0-0.1,0-0.1,0c-0.8,0.1-1.5,0.2-2.2,0.4
		c0,0.1,0,0.2,0,0.3c-0.2,0.1,0,0.4-0.3,0.5c0.1,0.1,0,0.2,0.1,0.2c0-0.1,0.1-0.1,0.1-0.1c0.1,0.1,0.1,0.3-0.1,0.3c0,0,0,0-0.1-0.1
		c-0.2,0.2-0.3,0.5-0.7,0.6c0,0.2-0.2,0.4-0.3,0.7c0.1,0.2,0,0.4,0,0.6c0.1,0.1,0.2,0.2,0.3,0.3c-0.1,0.3,0,0.5,0.1,0.8
		c-0.1,0-0.1,0.1-0.1,0.1c0.1,0.1,0.2,0.2,0.3,0.4c-0.1,0-0.1,0.1-0.1,0.1c0.1,0.1,0.2,0.2,0.2,0.3c0-0.2-0.1-0.4-0.1-0.6
		c-0.2-0.2-0.1-0.4-0.2-0.6c0.1-0.1,0.1-0.2,0.2-0.2c0.2,0.2,0.1,0.4,0.2,0.5c0.3,0.4,0.5,0.9,0.7,1.3c0,0.1,0,0.2,0,0.4
		c0.1,0.2,0.2,0.3,0.3,0.4c0.3,0.2,0.6,0.4,0.9,0.6c0.2,0.1,0.3,0,0.5,0c0.1,0,0.1,0.1,0.2,0.1l0.6-0.5
		C17.4,16.6,17.1,16.6,16.8,16.5z"/>
	<path class="st0" d="M30.6,5.7l-4.7,3.9c1.3,1.2,2.3,2.6,3.1,4.2l-2.2,0.6c-1.6-3-4.5-5.4-7.8-6.1c-0.5-0.1-0.9-0.2-1.4-0.2
		c-1.7-0.1-3.2,0.3-4.5,1.1L11.8,10c0,0,0,0,0,0c1.2-0.7,2.7-1.1,4.4-1c2.5,0.1,4.9,1.3,6.9,3l-1,0.8c0.1,0.1,0.2,0.1,0.3,0.1
		c-0.1,0.1-0.3,0.1-0.3,0.2c-0.1,0-0.1,0-0.1,0c0-0.1,0.1-0.1,0.1-0.1c0,0,0-0.1,0-0.1c0,0-0.1,0-0.1,0l-1.4,1.2c0,0,0,0.1,0,0.1
		c-0.2,0.2-0.4,0.3-0.6,0.4l-0.4,0.3c-0.1,0.3,0.2,0.6,0.1,0.9c-0.1,0-0.1,0-0.2,0c-0.2-0.2-0.1-0.5-0.3-0.7l-1.4,1.2
		c0.1,0,0.3,0,0.4,0.1c-0.1,0.2-0.2,0.4-0.3,0.6c-0.1,0.1-0.2,0.1-0.1,0.2c0.3,0.1,0.8,0,1,0.2c0,0.2-0.1,0.4-0.2,0.6
		c0.2,0.2,0.5,0.7,0.8,0.4c-0.1,0.1-0.2,0.1-0.3,0.2c-0.1-0.1-0.2-0.2-0.4-0.2c-0.1-0.1-0.2-0.2-0.3-0.3c0,0,0,0-0.1,0
		c0.1-0.1,0.1-0.3,0-0.4c-0.2-0.1-0.3-0.1-0.5-0.2c0,0-0.1,0-0.1,0c-0.2-0.1-0.4-0.2-0.6-0.3c-0.1-0.1-0.2-0.2-0.3-0.3l-5.5,4.6
		c2,3.1,5.4,5.3,8.9,5.5c0.5,0,1,0,1.5-0.1l1.1,2.5c-0.7,0.1-1.4,0.1-2.2,0.1c-4.3-0.2-8.5-2.8-11-6.6c-0.6-0.9-1.1-1.8-1.5-2.8
		c0-0.1-0.1-0.2-0.1-0.3c-0.1-0.4-0.3-0.7-0.4-1.1c0-0.1-0.1-0.2-0.1-0.4c-0.1-0.5-0.2-1-0.3-1.5c-0.1-0.4-0.1-0.9-0.1-1.3
		c0-0.1,0-0.2,0-0.3c0-0.3,0-0.6,0-0.9c0-0.1,0-0.2,0-0.3c0-0.3,0.1-0.6,0.1-0.9c0-0.1,0-0.1,0-0.2c0.1-0.3,0.1-0.7,0.2-1
		c0,0,0-0.1,0-0.1c0.8-2.5,2.5-4.5,4.8-5.6c-0.3-1.4,0.1-2.7,0.9-3.6c0.5-0.2,1-0.3,1.6-0.3c2.3-0.1,4.7,1.6,5.7,3.8
		c1,0.3,1.9,0.8,2.8,1.3l0.5-0.3c0-0.3-0.1-0.6-0.2-1c-0.8-3.5-4.3-6.3-7.8-6.2c-1.2,0-2.2,0.4-3,1c0,0,0.1-0.1,0.1-0.1l-1.3,0.9
		C9.9,3,9.1,5,9.6,7.4c0,0.1,0.1,0.3,0.1,0.4c-2.2,1.5-3.7,3.9-4,6.8c-0.1,1-0.1,2.1,0.1,3.2C6.3,20,7.2,22.2,8.5,24l-8.8,7.3h100
		V5.7H30.6z M86.2,14.5c0.2-0.2,0.5-0.3,0.8-0.3c0.3,0,0.6,0.1,0.8,0.3c0.2,0.2,0.3,0.5,0.3,0.8c0,0.4-0.1,0.6-0.3,0.9
		c-0.2,0.2-0.5,0.3-0.8,0.3c-0.3,0-0.6-0.1-0.8-0.3c-0.2-0.2-0.3-0.5-0.3-0.9C85.9,15,86,14.7,86.2,14.5z M79.5,13.2
		c0-0.3,0.1-0.4,0.2-0.6c0.1-0.1,0.3-0.2,0.6-0.2h1.6c0.4,0,0.8,0,1.1,0.1c0.3,0.1,0.6,0.2,0.8,0.4c0.6,0.5,0.9,1.3,0.9,2.4
		c0,0.4,0,0.7-0.1,1c-0.1,0.3-0.2,0.6-0.3,0.8s-0.3,0.5-0.5,0.6c-0.2,0.1-0.3,0.3-0.5,0.3c-0.2,0.1-0.4,0.1-0.6,0.2
		s-0.5,0.1-0.7,0.1h-1.6c-0.2,0-0.4,0-0.5-0.1s-0.2-0.2-0.2-0.3c0-0.1-0.1-0.3-0.1-0.5V13.2z M65.2,14.5c0.2-0.2,0.5-0.3,0.8-0.3
		c0.3,0,0.6,0.1,0.8,0.3c0.2,0.2,0.3,0.5,0.3,0.8c0,0.4-0.1,0.6-0.3,0.9c-0.2,0.2-0.5,0.3-0.8,0.3c-0.3,0-0.6-0.1-0.8-0.3
		c-0.2-0.2-0.3-0.5-0.3-0.9C64.9,15,65,14.7,65.2,14.5z M35.9,14.2c0.1-0.4,0.3-0.7,0.6-1c0.3-0.3,0.6-0.5,0.9-0.6
		c0.4-0.1,0.7-0.2,1.1-0.2c0.5,0,0.9,0.1,1.3,0.3c0.4,0.2,0.7,0.4,0.9,0.7c0.2,0.3,0.3,0.6,0.3,0.8c0,0.1,0,0.3-0.1,0.4
		c-0.1,0.1-0.2,0.2-0.4,0.2c-0.2,0-0.3,0-0.3-0.1c-0.1-0.1-0.2-0.2-0.3-0.4c-0.2-0.3-0.3-0.5-0.6-0.7s-0.5-0.2-0.8-0.2
		c-0.5,0-0.9,0.2-1.2,0.6c-0.3,0.4-0.4,0.9-0.4,1.6c0,0.5,0.1,0.8,0.2,1.2c0.1,0.3,0.3,0.5,0.6,0.7c0.2,0.2,0.5,0.2,0.8,0.2
		c0.3,0,0.6-0.1,0.9-0.3c0.2-0.2,0.4-0.4,0.5-0.8c0.1-0.2,0.1-0.3,0.2-0.4c0.1-0.1,0.2-0.1,0.4-0.1c0.1,0,0.3,0.1,0.4,0.2
		c0.1,0.1,0.2,0.2,0.2,0.4c0,0.2,0,0.4-0.1,0.6c-0.1,0.2-0.2,0.4-0.4,0.7s-0.5,0.4-0.8,0.5s-0.7,0.2-1.1,0.2c-0.3,0-0.6,0-0.9-0.1
		c-0.3-0.1-0.5-0.2-0.7-0.3c-0.2-0.1-0.4-0.3-0.6-0.5c-0.2-0.2-0.3-0.4-0.4-0.6c-0.1-0.2-0.2-0.5-0.2-0.7c-0.1-0.3-0.1-0.5-0.1-0.8
		C35.7,15,35.7,14.6,35.9,14.2z M22.9,20.5c0-0.1-0.1-0.1-0.2-0.2c-0.3-0.2-0.6-0.6-1-0.7c-0.1-0.2,0-0.3,0-0.4
		c-0.1,0-0.2-0.1-0.2-0.1c0-0.2,0-0.4,0.1-0.5c0,0,0,0,0-0.1c0-0.2,0.2-0.3,0.1-0.5c-0.1-0.1-0.2-0.3-0.3-0.5c-0.1,0-0.1-0.1-0.1,0
		c0,0,0,0,0-0.1c-0.1,0-0.1,0-0.2-0.1c0.1,0,0.2,0,0.3,0c0-0.1,0.2-0.2,0.1-0.4c0.1-0.2,0.3-0.3,0.4-0.5l0.1,0c0,0.2,0,0.3,0.2,0.4
		c0,0,0,0,0.1,0c0-0.1,0-0.1,0-0.1c0-0.1-0.1-0.1-0.1-0.1c0-0.1,0.1-0.2,0.2-0.2c0.1,0,0.1,0,0.2,0.1c0.1,0,0.2-0.1,0.3-0.1
		c0.1,0,0.2,0,0.3-0.1c0-0.1,0.1,0,0.1-0.1c0.1,0,0.2-0.1,0.2,0c0,0,0.1,0,0.1,0c0.1,0,0.2,0.1,0.3,0.1c0,0,0.1,0,0.1,0
		c0.2,0,0.6,0.3,0.7,0c0.2-0.1,0.5-0.1,0.7,0.1c0,0,0,0,0,0.1c0.1,0.1,0.2,0.2,0.2,0.3c0,0.2,0.2,0,0.3,0.1c0,0.1,0,0.1-0.1,0.2
		c0,0,0,0.1,0.1,0.1c0.1,0,0.1-0.2,0.1-0.3c0.1,0,0.2-0.1,0.2-0.1c0.1,0,0.1,0,0.2,0c0.1,0.6,0.2,1.2,0.2,1.9c0,1.2-0.2,2.4-0.7,3.4
		c0,0,0,0-0.1,0c0,0.1,0,0.1,0,0.1c0,0,0,0,0,0.1c-0.1,0.2-0.2,0.3-0.2,0.5c-0.1,0.1-0.1,0.1-0.2,0.1C25.3,22.8,25.2,23,25,23
		c0,0.1,0,0.1,0,0.1c0,0,0,0,0,0.1c-0.1,0.2-0.3,0.4-0.2,0.6c-0.2,0.3-0.4,0.5-0.6,0.7c0,0-0.1,0-0.1,0c0,0,0-0.1-0.1-0.1
		c0.1-0.1,0-0.1,0-0.2c0-0.2,0.3-0.6,0-0.8c0-0.1,0-0.1,0-0.1c-0.1-0.1,0-0.2,0-0.2c0.1-0.3,0.2-0.5,0.1-0.8c0-0.1,0-0.2,0-0.3
		c0.1-0.1,0-0.1,0.1-0.2c0,0,0-0.1,0-0.1c0.1-0.1,0-0.3,0-0.4c0-0.2,0-0.5-0.2-0.7c-0.1-0.1-0.2-0.1-0.4-0.1
		C23.3,20.6,23.1,20.5,22.9,20.5z M25.6,28.4l-1.9-2c3.1-1.2,5-4.5,4.3-8.5c-0.1-0.5-0.2-1.1-0.4-1.6l2.3-0.4
		c0.2,0.7,0.4,1.4,0.5,2.1C31.3,23.1,29.2,27,25.6,28.4z M38,25.3l-0.3-0.9h-1.2l-0.3,0.9h-1l1.3-3.5h1.3l1.3,3.5H38z M42.8,23.8
		c0,1.1-0.7,1.6-1.8,1.6c-1.1,0-1.7-0.5-1.7-1.6v-1.9h1v2c0,0.6,0.3,0.9,0.8,0.9c0.5,0,0.8-0.3,0.8-0.9v-2h1V23.8z M42.7,15.4
		c0-0.3,0.1-0.6,0.3-0.8c0.2-0.2,0.5-0.3,0.8-0.3c0.3,0,0.6,0.1,0.8,0.3s0.3,0.5,0.3,0.8c0,0.4-0.1,0.6-0.3,0.9
		c-0.2,0.2-0.5,0.3-0.8,0.3c-0.3,0-0.6-0.1-0.8-0.3C42.8,16.1,42.7,15.8,42.7,15.4z M46.6,22.5h-1.2v2.8h-1v-2.8h-1.1v-0.7h3.2V22.5
		z M50.6,25.3h-1v-1.5H48v1.5h-1v-3.5h1v1.3h1.6v-1.3h1V25.3z M50.4,18.4c-0.4,0.1-0.8,0.2-1.2,0.2c-0.5,0-0.9-0.1-1.3-0.2
		c-0.4-0.2-0.7-0.4-0.9-0.6c-0.2-0.3-0.4-0.6-0.6-1c-0.1-0.4-0.2-0.8-0.2-1.2c0-0.5,0.1-0.9,0.2-1.3c0.1-0.4,0.3-0.7,0.6-1
		c0.2-0.3,0.6-0.5,0.9-0.6c0.4-0.1,0.8-0.2,1.2-0.2c0.6,0,1.1,0.1,1.6,0.4c0.4,0.3,0.8,0.6,1,1.1c0.2,0.5,0.3,1,0.3,1.6
		c0,0.5-0.1,0.9-0.2,1.3s-0.3,0.7-0.6,1C51.1,18,50.8,18.2,50.4,18.4z M54.1,25.3h-2.7v-3.5H54v0.6h-1.6v0.7h1.6v0.6h-1.6v0.8h1.7
		V25.3z M53.8,15.3c0-0.3,0.1-0.6,0.3-0.8c0.2-0.2,0.5-0.3,0.8-0.3s0.6,0.1,0.8,0.3c0.2,0.2,0.3,0.5,0.3,0.8c0,0.4-0.1,0.6-0.3,0.9
		c-0.2,0.2-0.5,0.3-0.8,0.3c-0.3,0-0.6-0.1-0.8-0.3C53.9,16,53.8,15.7,53.8,15.3z M58.2,25.3h-1L56.3,24c-0.2-0.4-0.5-0.8-0.7-1.2
		l0,0c0,0.5,0,0.9,0,1.5v1h-0.9v-3.5h1.1l0.9,1.3c0.2,0.4,0.5,0.8,0.7,1.2h0c-0.1-0.5-0.1-0.9-0.1-1.4v-1h0.9V25.3z M62,22.5h-1.2
		v2.8h-1v-2.8h-1.1v-0.7H62V22.5z M62,17.8v-4.1l-1,3.8c-0.1,0.2-0.1,0.4-0.2,0.5c0,0.1-0.1,0.2-0.2,0.3c-0.1,0.1-0.3,0.1-0.4,0.1
		c-0.1,0-0.3,0-0.4-0.1c-0.1-0.1-0.2-0.1-0.2-0.2c-0.1-0.1-0.1-0.2-0.1-0.3s-0.1-0.2-0.1-0.4l-1-3.8v4.1c0,0.2-0.1,0.4-0.2,0.5
		c-0.1,0.1-0.2,0.2-0.4,0.2c-0.2,0-0.3-0.1-0.4-0.2c-0.1-0.1-0.2-0.3-0.2-0.5v-4.7c0-0.3,0.1-0.4,0.2-0.5s0.3-0.1,0.5-0.1h0.4
		c0.2,0,0.4,0,0.5,0.1c0.1,0,0.2,0.1,0.2,0.2c0,0.1,0.1,0.3,0.2,0.5l0.9,3.3l0.9-3.3c0.1-0.2,0.1-0.4,0.2-0.5c0-0.1,0.1-0.2,0.2-0.2
		c0.1,0,0.3-0.1,0.5-0.1h0.4c0.2,0,0.4,0,0.5,0.1s0.2,0.3,0.2,0.5v4.7c0,0.2-0.1,0.4-0.2,0.5c-0.1,0.1-0.2,0.2-0.4,0.2
		c-0.2,0-0.3-0.1-0.4-0.2C62.1,18.2,62,18,62,17.8z M63.4,25.3h-1v-3.5h1V25.3z M66.4,24.8c0.3,0,0.6-0.1,0.8-0.1l0.1,0.6
		c-0.2,0.1-0.6,0.1-1.1,0.1c-1.5,0-2.2-0.7-2.2-1.7c0-1.2,1-1.8,2.3-1.8c0.5,0,0.9,0.1,1,0.2l-0.2,0.6c-0.2-0.1-0.5-0.1-0.8-0.1
		c-0.8,0-1.3,0.4-1.3,1.1C65,24.3,65.6,24.8,66.4,24.8z M71.9,25.3c-0.1-0.1-0.2-0.2-0.3-0.2c-0.3,0.2-0.7,0.3-1.2,0.3
		c-1,0-1.5-0.5-1.5-1c0-0.5,0.3-0.8,0.8-1v0c-0.2-0.2-0.3-0.4-0.3-0.7c0-0.4,0.4-0.9,1.3-0.9c0.7,0,1.1,0.3,1.1,0.8
		c0,0.4-0.2,0.6-0.8,0.9l0,0c0.2,0.2,0.5,0.5,0.7,0.6c0.2-0.2,0.3-0.5,0.4-0.8H73c-0.1,0.5-0.3,1-0.7,1.3c0.2,0.2,0.5,0.4,0.7,0.7
		H71.9z M74.1,16.6c-0.1,0.4-0.3,0.7-0.6,1c-0.2,0.3-0.6,0.5-0.9,0.6c-0.4,0.1-0.8,0.2-1.2,0.2c-0.5,0-0.9-0.1-1.3-0.2
		s-0.7-0.4-0.9-0.6c-0.2-0.3-0.4-0.6-0.6-1c-0.1-0.4-0.2-0.8-0.2-1.2c0-0.5,0.1-0.9,0.2-1.3c0.1-0.4,0.3-0.7,0.6-1
		c0.2-0.3,0.6-0.5,0.9-0.6s0.8-0.2,1.2-0.2c0.6,0,1.1,0.1,1.6,0.4c0.4,0.3,0.8,0.6,1,1.1c0.2,0.5,0.3,1,0.3,1.6
		C74.2,15.8,74.2,16.3,74.1,16.6z M75.8,25.4c-0.5,0-1-0.1-1.2-0.2l0.2-0.6c0.3,0.1,0.7,0.2,1.1,0.2c0.4,0,0.7-0.2,0.7-0.4
		c0-0.2-0.2-0.3-0.7-0.5c-0.7-0.2-1.2-0.5-1.2-1c0-0.6,0.6-1,1.6-1c0.5,0,0.8,0.1,1.1,0.2l-0.2,0.6c-0.2-0.1-0.5-0.2-0.9-0.2
		s-0.6,0.2-0.6,0.3c0,0.2,0.2,0.3,0.8,0.5c0.7,0.2,1.1,0.5,1.1,1C77.5,24.9,76.9,25.4,75.8,25.4z M77.7,16.2
		c-0.2,0.2-0.5,0.3-0.8,0.3c-0.3,0-0.6-0.1-0.8-0.3c-0.2-0.2-0.3-0.5-0.3-0.9c0-0.3,0.1-0.6,0.3-0.8c0.2-0.2,0.5-0.3,0.8-0.3
		c0.3,0,0.6,0.1,0.8,0.3S78,15,78,15.3C78,15.7,77.9,16,77.7,16.2z M80.8,25.3h-2.7v-3.5h2.6v0.6h-1.6v0.7h1.6v0.6h-1.6v0.8h1.7
		V25.3z M83.6,24.8c0.3,0,0.6-0.1,0.8-0.1l0.1,0.6c-0.2,0.1-0.6,0.1-1.1,0.1c-1.5,0-2.2-0.7-2.2-1.7c0-1.2,1-1.8,2.3-1.8
		c0.5,0,0.9,0.1,1,0.2l-0.2,0.6c-0.2-0.1-0.5-0.1-0.8-0.1c-0.8,0-1.3,0.4-1.3,1.1C82.2,24.3,82.7,24.8,83.6,24.8z M88.6,23.8
		c0,1.1-0.7,1.6-1.8,1.6c-1.1,0-1.7-0.5-1.7-1.6v-1.9h1v2c0,0.6,0.3,0.9,0.8,0.9c0.5,0,0.8-0.3,0.8-0.9v-2h1V23.8z M89.6,14.1
		c0.1-0.4,0.3-0.7,0.6-1c0.2-0.3,0.6-0.5,0.9-0.6s0.8-0.2,1.2-0.2c0.6,0,1.1,0.1,1.6,0.4c0.4,0.3,0.8,0.6,1,1.1
		c0.2,0.5,0.3,1,0.3,1.6c0,0.5-0.1,0.9-0.2,1.3s-0.3,0.7-0.6,1c-0.2,0.3-0.6,0.5-0.9,0.6c-0.4,0.1-0.8,0.2-1.2,0.2
		c-0.5,0-0.9-0.1-1.3-0.2s-0.7-0.4-0.9-0.6c-0.2-0.3-0.4-0.6-0.6-1c-0.1-0.4-0.2-0.8-0.2-1.2C89.4,14.9,89.5,14.5,89.6,14.1z
		 M91.6,25.3c-0.1-0.1-0.2-0.4-0.3-0.8C91.2,24.1,91,24,90.6,24h-0.3v1.4h-0.9v-3.4c0.3,0,0.8-0.1,1.3-0.1c0.6,0,1.1,0.1,1.4,0.3
		c0.2,0.2,0.4,0.4,0.4,0.7c0,0.4-0.4,0.7-0.7,0.9v0c0.3,0.1,0.5,0.3,0.6,0.7c0.1,0.4,0.3,0.8,0.3,1H91.6z M95.8,25.3h-2.7v-3.5h2.6
		v0.6h-1.6v0.7h1.6v0.6h-1.6v0.8h1.7V25.3z"/>
</g>
</svg>
