<?xml version="1.0" encoding="utf-8"?>
<!-- Generator: Adobe Illustrator 16.0.0, SVG Export Plug-In . SVG Version: 6.00 Build 0)  -->
<!DOCTYPE svg PUBLIC "-//W3C//DTD SVG 1.1//EN" "http://www.w3.org/Graphics/SVG/1.1/DTD/svg11.dtd">
<svg version="1.1" id="Layer_1" xmlns="http://www.w3.org/2000/svg" xmlns:xlink="http://www.w3.org/1999/xlink" x="0px" y="0px"
	 width="50px" height="50.687px" viewBox="125.719 1224.65 50 50.687" enable-background="new 125.719 1224.65 50 50.687"
	 xml:space="preserve">
<path fill="#999999" d="M155.914,1264.35H145.54v6.781c0.046,0.123,0.803,1.634,2.257,2.645c1.952,1.354,2.967,1.555,3.008,1.562
	c0.09-0.007,1.032-0.208,2.984-1.562c1.455-1.011,2.21-2.521,2.241-2.586l0.015-6.84H155.914L155.914,1264.35z M151.487,1265.053
	c0.588,0,1.065,0.479,1.065,1.067c0.014,0.589-0.453,1.078-1.042,1.092s-1.078-0.453-1.092-1.042c0-0.017,0-0.033,0-0.05
	C150.418,1265.53,150.896,1265.053,151.487,1265.053C151.486,1265.053,151.486,1265.053,151.487,1265.053z M147.949,1269.029h1.837
	l-1.84,1.804L147.949,1269.029z M150.792,1272.254l-1.005,0.003l1.005-1.005V1272.254z M154.321,1267.143l-1.865,1.862v3.352h-1.22
	v-2.132l-2.137,2.136h-1.95l3.547-3.547h-2.642v-1.237h3.877l2.389-2.388V1267.143z M161.34,1261.145c0,0-1.817,0.927-2.511,2.018
	c-0.696,1.089-0.729,1.473-0.959,2.379c-0.231,0.904-0.363,1.168-0.495,1.365c-0.134,0.201-0.232,0.399-0.232,0.399
	s0.628,0,1.488,0.494c0.858,0.495,1.652,0.966,2.741,0.933c1.091-0.032,1.818-0.403,2.248-0.767c0.429-0.364,1.091-1.06,1.091-1.06
	s-1.719-0.574-2.546-0.607c-0.825-0.032-1.486,0.066-2.346,0.312c-0.664,0.19-1.123,0.296-1.353,0.296h-0.333
	c0,0,1.62-1.267,2.216-1.729c0.595-0.462,0.99-1.751,0.99-2.146V1261.145z"/>
<path fill="#999999" d="M161.34,1261.145c0,0-1.817,0.927-2.511,2.018c-0.696,1.089-0.729,1.473-0.959,2.379
	c-0.231,0.904-0.363,1.168-0.495,1.365c-0.134,0.201-0.232,0.399-0.232,0.399s0.628,0,1.488,0.494
	c0.858,0.495,1.652,0.966,2.741,0.933c1.091-0.032,1.818-0.403,2.248-0.767c0.429-0.364,1.091-1.06,1.091-1.06
	s-1.719-0.574-2.546-0.607c-0.825-0.032-1.486,0.066-2.346,0.312c-0.664,0.19-1.123,0.296-1.353,0.296h-0.333
	c0,0,1.62-1.267,2.216-1.729c0.595-0.462,0.99-1.751,0.99-2.146V1261.145z M165.579,1257.979c0,0-1.322,1.276-1.634,2.401
	c-0.312,1.125-0.238,1.465-0.199,2.306c0.039,0.843-0.004,1.106-0.067,1.312c-0.062,0.207-0.095,0.404-0.095,0.404
	s0.542-0.166,1.415,0.036c0.871,0.199,1.679,0.395,2.613,0.08c0.931-0.318,1.461-0.828,1.736-1.256
	c0.274-0.426,0.661-1.201,0.661-1.201s-1.634-0.042-2.356,0.149c-0.721,0.189-1.266,0.449-1.942,0.886
	c-0.523,0.338-0.891,0.555-1.09,0.613c-0.201,0.062-0.286,0.089-0.286,0.089s1.062-1.521,1.453-2.078
	c0.392-0.558,0.395-1.774,0.291-2.117L165.579,1257.979L165.579,1257.979z"/>
<path fill="#999999" d="M165.579,1257.979c0,0-1.322,1.276-1.634,2.401c-0.312,1.125-0.238,1.465-0.199,2.306
	c0.039,0.843-0.004,1.106-0.067,1.312c-0.062,0.207-0.095,0.404-0.095,0.404s0.542-0.166,1.415,0.036
	c0.871,0.199,1.679,0.395,2.613,0.08c0.931-0.318,1.461-0.828,1.736-1.256c0.274-0.426,0.661-1.201,0.661-1.201
	s-1.634-0.042-2.356,0.149c-0.721,0.189-1.266,0.449-1.942,0.886c-0.523,0.338-0.891,0.555-1.09,0.613
	c-0.201,0.062-0.286,0.089-0.286,0.089s1.062-1.521,1.453-2.078c0.392-0.558,0.395-1.774,0.291-2.117L165.579,1257.979
	L165.579,1257.979z M168.997,1253.594c0,0-0.928,1.376-0.993,2.427c-0.063,1.052,0.065,1.337,0.257,2.075
	c0.193,0.734,0.203,0.976,0.188,1.168c-0.016,0.193-0.008,0.376-0.008,0.376s0.446-0.249,1.255-0.235
	c0.807,0.014,1.558,0.034,2.321-0.419c0.764-0.456,1.135-1.006,1.298-1.433c0.162-0.43,0.359-1.184,0.359-1.184
	s-1.45,0.268-2.052,0.571c-0.602,0.303-1.033,0.634-1.548,1.146c-0.4,0.396-0.685,0.655-0.85,0.747
	c-0.165,0.092-0.234,0.132-0.234,0.132s0.653-1.544,0.894-2.108c0.242-0.564,0.014-1.64-0.142-1.922L168.997,1253.594z"/>
<path fill="#999999" d="M168.997,1253.594c0,0-0.928,1.376-0.993,2.427c-0.063,1.052,0.065,1.337,0.257,2.075
	c0.193,0.734,0.203,0.976,0.188,1.168c-0.016,0.193-0.008,0.376-0.008,0.376s0.446-0.249,1.255-0.235
	c0.807,0.014,1.558,0.034,2.321-0.419c0.764-0.456,1.135-1.006,1.298-1.433c0.162-0.43,0.359-1.184,0.359-1.184
	s-1.45,0.268-2.052,0.571c-0.602,0.303-1.033,0.634-1.548,1.146c-0.4,0.396-0.685,0.655-0.85,0.747
	c-0.165,0.092-0.234,0.132-0.234,0.132s0.653-1.544,0.894-2.108c0.242-0.564,0.014-1.64-0.142-1.922L168.997,1253.594z
	 M170.456,1248.598c0,0-0.515,1.492-0.315,2.472c0.2,0.979,0.387,1.211,0.745,1.837c0.358,0.629,0.427,0.848,0.459,1.029
	c0.033,0.18,0.084,0.345,0.084,0.345s0.349-0.338,1.094-0.522c0.744-0.188,1.439-0.353,2.028-0.956
	c0.589-0.606,0.796-1.201,0.838-1.634c0.043-0.435,0.039-1.175,0.039-1.175s-1.266,0.602-1.745,1.029
	c-0.476,0.426-0.792,0.836-1.138,1.434c-0.268,0.462-0.465,0.769-0.595,0.894c-0.127,0.125-0.184,0.178-0.184,0.178
	s0.22-1.577,0.301-2.153c0.083-0.577-0.389-1.509-0.602-1.728C171.256,1249.426,170.456,1248.598,170.456,1248.598z"/>
<path fill="#999999" d="M170.456,1248.598c0,0-0.515,1.492-0.315,2.472c0.2,0.979,0.387,1.211,0.745,1.837
	c0.358,0.629,0.427,0.848,0.459,1.029c0.033,0.18,0.084,0.345,0.084,0.345s0.349-0.338,1.094-0.522
	c0.744-0.188,1.439-0.353,2.028-0.956c0.589-0.606,0.796-1.201,0.838-1.634c0.043-0.435,0.039-1.175,0.039-1.175
	s-1.266,0.602-1.745,1.029c-0.476,0.426-0.792,0.836-1.138,1.434c-0.268,0.462-0.465,0.769-0.595,0.894
	c-0.127,0.125-0.184,0.178-0.184,0.178s0.22-1.577,0.301-2.153c0.083-0.577-0.389-1.509-0.602-1.728
	C171.256,1249.426,170.456,1248.598,170.456,1248.598z M170.703,1243.797c0,0-0.001,1.423,0.458,2.201
	c0.458,0.776,0.685,0.918,1.176,1.35c0.49,0.431,0.612,0.597,0.693,0.741c0.082,0.146,0.175,0.271,0.175,0.271
	s0.198-0.391,0.778-0.768c0.581-0.378,1.125-0.722,1.449-1.412c0.325-0.688,0.325-1.258,0.236-1.641
	c-0.09-0.382-0.312-1.013-0.312-1.013s-0.902,0.886-1.186,1.39c-0.282,0.503-0.43,0.948-0.55,1.558
	c-0.093,0.473-0.17,0.794-0.246,0.938c-0.071,0.143-0.104,0.205-0.104,0.205s-0.275-1.409-0.375-1.925
	c-0.101-0.517-0.775-1.172-1.023-1.298C171.627,1244.267,170.703,1243.797,170.703,1243.797L170.703,1243.797z"/>
<path fill="#999999" d="M170.703,1243.797c0,0-0.001,1.423,0.458,2.201c0.458,0.776,0.685,0.918,1.176,1.35
	c0.49,0.431,0.612,0.597,0.693,0.741c0.082,0.146,0.175,0.271,0.175,0.271s0.198-0.391,0.778-0.768
	c0.581-0.378,1.125-0.722,1.449-1.412c0.325-0.688,0.325-1.258,0.236-1.641c-0.09-0.382-0.312-1.013-0.312-1.013
	s-0.902,0.886-1.186,1.39c-0.282,0.503-0.43,0.948-0.55,1.558c-0.093,0.473-0.17,0.794-0.246,0.938
	c-0.071,0.143-0.104,0.205-0.104,0.205s-0.275-1.409-0.375-1.925c-0.101-0.517-0.775-1.172-1.023-1.298
	C171.627,1244.267,170.703,1243.797,170.703,1243.797L170.703,1243.797z M169.727,1239.078c0,0,0.281,1.323,0.859,1.955
	c0.581,0.632,0.82,0.72,1.36,1.023c0.541,0.304,0.687,0.433,0.792,0.552c0.104,0.119,0.214,0.216,0.214,0.216
	s0.107-0.401,0.574-0.867c0.464-0.465,0.899-0.893,1.067-1.598c0.165-0.706,0.053-1.234-0.106-1.571
	c-0.158-0.338-0.49-0.882-0.49-0.882s-0.664,1.003-0.826,1.526c-0.163,0.524-0.213,0.964-0.205,1.558
	c0.007,0.457-0.001,0.77-0.041,0.918c-0.041,0.147-0.058,0.211-0.058,0.211s-0.535-1.254-0.73-1.716
	c-0.193-0.46-0.951-0.936-1.205-1.004C170.679,1239.333,169.727,1239.078,169.727,1239.078L169.727,1239.078z"/>
<path fill="#999999" d="M169.727,1239.078c0,0,0.281,1.323,0.859,1.955c0.581,0.632,0.82,0.72,1.36,1.023
	c0.541,0.304,0.687,0.433,0.792,0.552c0.104,0.119,0.214,0.216,0.214,0.216s0.107-0.401,0.574-0.867
	c0.464-0.465,0.899-0.893,1.067-1.598c0.165-0.706,0.053-1.234-0.106-1.571c-0.158-0.338-0.49-0.882-0.49-0.882
	s-0.664,1.003-0.826,1.526c-0.163,0.524-0.213,0.964-0.205,1.558c0.007,0.457-0.001,0.77-0.041,0.918
	c-0.041,0.147-0.058,0.211-0.058,0.211s-0.535-1.254-0.73-1.716c-0.193-0.46-0.951-0.936-1.205-1.004
	C170.679,1239.333,169.727,1239.078,169.727,1239.078L169.727,1239.078z M168.345,1235.376c0,0,0.45,1.068,1.042,1.505
	c0.592,0.436,0.807,0.47,1.312,0.638c0.505,0.167,0.648,0.252,0.755,0.335c0.107,0.082,0.216,0.148,0.216,0.148
	s0.024-0.357,0.34-0.824c0.315-0.468,0.613-0.9,0.638-1.519c0.025-0.621-0.156-1.048-0.345-1.306
	c-0.189-0.258-0.556-0.661-0.556-0.661s-0.396,0.951-0.447,1.42c-0.052,0.465-0.02,0.846,0.084,1.342
	c0.081,0.385,0.125,0.649,0.113,0.78c-0.007,0.132-0.011,0.188-0.011,0.188s-0.657-0.969-0.894-1.326
	c-0.24-0.355-0.955-0.63-1.181-0.646L168.345,1235.376L168.345,1235.376z"/>
<path fill="#999999" d="M168.345,1235.376c0,0,0.45,1.068,1.042,1.505c0.592,0.436,0.807,0.47,1.312,0.638
	c0.505,0.167,0.648,0.252,0.755,0.335c0.107,0.082,0.216,0.148,0.216,0.148s0.024-0.357,0.34-0.824
	c0.315-0.468,0.613-0.9,0.638-1.519c0.025-0.621-0.156-1.048-0.345-1.306c-0.189-0.258-0.556-0.661-0.556-0.661
	s-0.396,0.951-0.447,1.42c-0.052,0.465-0.02,0.846,0.084,1.342c0.081,0.385,0.125,0.649,0.113,0.78
	c-0.007,0.132-0.011,0.188-0.011,0.188s-0.657-0.969-0.894-1.326c-0.24-0.355-0.955-0.63-1.181-0.646L168.345,1235.376
	L168.345,1235.376z M166.031,1232.615c0,0,0.646,0.893,1.287,1.171c0.64,0.278,0.848,0.263,1.35,0.31
	c0.503,0.047,0.655,0.095,0.772,0.149c0.118,0.055,0.231,0.09,0.231,0.09s-0.053-0.335,0.139-0.835s0.376-0.963,0.265-1.542
	c-0.109-0.581-0.368-0.936-0.597-1.135c-0.231-0.198-0.657-0.493-0.657-0.493s-0.162,0.967-0.11,1.41
	c0.051,0.443,0.162,0.789,0.362,1.226c0.158,0.338,0.255,0.575,0.274,0.698l0.028,0.177c0,0-0.814-0.757-1.111-1.035
	c-0.297-0.278-1.019-0.381-1.231-0.347L166.031,1232.615L166.031,1232.615z"/>
<path fill="#999999" d="M166.031,1232.615c0,0,0.646,0.893,1.287,1.171c0.64,0.278,0.848,0.263,1.35,0.31
	c0.503,0.047,0.655,0.095,0.772,0.149c0.118,0.055,0.231,0.09,0.231,0.09s-0.053-0.335,0.139-0.835s0.376-0.963,0.265-1.542
	c-0.109-0.581-0.368-0.936-0.597-1.135c-0.231-0.198-0.657-0.493-0.657-0.493s-0.162,0.967-0.11,1.41
	c0.051,0.443,0.162,0.789,0.362,1.226c0.158,0.338,0.255,0.575,0.274,0.698l0.028,0.177c0,0-0.814-0.757-1.111-1.035
	c-0.297-0.278-1.019-0.381-1.231-0.347L166.031,1232.615L166.031,1232.615z M163.5,1230.24c0,0,0.713,0.691,1.328,0.838
	c0.611,0.146,0.793,0.101,1.248,0.065c0.455-0.038,0.598-0.019,0.708,0.01c0.113,0.03,0.221,0.044,0.221,0.044
	s-0.1-0.29-0.007-0.765c0.092-0.475,0.182-0.915-0.007-1.412c-0.188-0.498-0.473-0.774-0.708-0.915
	c-0.238-0.139-0.663-0.334-0.663-0.334s0.008,0.884,0.125,1.269c0.114,0.387,0.266,0.675,0.514,1.033
	c0.193,0.275,0.316,0.47,0.353,0.578c0.037,0.106,0.053,0.152,0.053,0.152s-0.842-0.545-1.15-0.746
	c-0.309-0.201-0.965-0.18-1.147-0.118C164.185,1230.003,163.5,1230.24,163.5,1230.24L163.5,1230.24z"/>
<path fill="#999999" d="M163.5,1230.24c0,0,0.713,0.691,1.328,0.838c0.611,0.146,0.793,0.101,1.248,0.065
	c0.455-0.038,0.598-0.019,0.708,0.01c0.113,0.03,0.221,0.044,0.221,0.044s-0.1-0.29-0.007-0.765
	c0.092-0.475,0.182-0.915-0.007-1.412c-0.188-0.498-0.473-0.774-0.708-0.915c-0.238-0.139-0.663-0.334-0.663-0.334
	s0.008,0.884,0.125,1.269c0.114,0.387,0.266,0.675,0.514,1.033c0.193,0.275,0.316,0.47,0.353,0.578
	c0.037,0.106,0.053,0.152,0.053,0.152s-0.842-0.545-1.15-0.746c-0.309-0.201-0.965-0.18-1.147-0.118
	C164.185,1230.003,163.5,1230.24,163.5,1230.24L163.5,1230.24z M161.155,1228.384c0,0,0.735,0.515,1.301,0.559
	c0.567,0.044,0.724-0.023,1.124-0.119c0.399-0.097,0.529-0.102,0.633-0.09c0.104,0.01,0.202,0.007,0.202,0.007
	s-0.129-0.243-0.114-0.679c0.015-0.437,0.033-0.841-0.203-1.26c-0.24-0.416-0.534-0.622-0.763-0.714
	c-0.231-0.091-0.638-0.205-0.638-0.205s0.132,0.787,0.29,1.114c0.157,0.328,0.333,0.564,0.606,0.848
	c0.21,0.218,0.347,0.375,0.396,0.465c0.047,0.09,0.067,0.129,0.067,0.129s-0.827-0.367-1.129-0.503s-0.886-0.023-1.039,0.059
	C161.733,1228.075,161.155,1228.384,161.155,1228.384L161.155,1228.384z"/>
<path fill="#999999" d="M161.155,1228.384c0,0,0.735,0.515,1.301,0.559c0.567,0.044,0.724-0.023,1.124-0.119
	c0.399-0.097,0.529-0.102,0.633-0.09c0.104,0.01,0.202,0.007,0.202,0.007s-0.129-0.243-0.114-0.679
	c0.015-0.437,0.033-0.841-0.203-1.26c-0.24-0.416-0.534-0.622-0.763-0.714c-0.231-0.091-0.638-0.205-0.638-0.205
	s0.132,0.787,0.29,1.114c0.157,0.328,0.333,0.564,0.606,0.848c0.21,0.218,0.347,0.375,0.396,0.465
	c0.047,0.09,0.067,0.129,0.067,0.129s-0.827-0.367-1.129-0.503s-0.886-0.023-1.039,0.059
	C161.733,1228.075,161.155,1228.384,161.155,1228.384L161.155,1228.384z M158.214,1227.097c0,0,0.729,0.355,1.241,0.315
	c0.512-0.042,0.641-0.122,0.983-0.266c0.344-0.143,0.459-0.164,0.554-0.169c0.094-0.005,0.18-0.021,0.18-0.021
	s-0.15-0.199-0.199-0.59c-0.047-0.392-0.089-0.754-0.36-1.092c-0.271-0.338-0.562-0.48-0.78-0.531
	c-0.218-0.049-0.596-0.093-0.596-0.093s0.228,0.684,0.416,0.954c0.188,0.269,0.377,0.456,0.66,0.669
	c0.217,0.166,0.362,0.285,0.418,0.358l0.077,0.105c0,0-0.788-0.209-1.078-0.288c-0.288-0.078-0.792,0.104-0.919,0.199
	C158.687,1226.742,158.214,1227.097,158.214,1227.097L158.214,1227.097z"/>
<path fill="#999999" d="M158.214,1227.097c0,0,0.729,0.355,1.241,0.315c0.512-0.042,0.641-0.122,0.983-0.266
	c0.344-0.143,0.459-0.164,0.554-0.169c0.094-0.005,0.18-0.021,0.18-0.021s-0.15-0.199-0.199-0.59
	c-0.047-0.392-0.089-0.754-0.36-1.092c-0.271-0.338-0.562-0.48-0.78-0.531c-0.218-0.049-0.596-0.093-0.596-0.093
	s0.228,0.684,0.416,0.954c0.188,0.269,0.377,0.456,0.66,0.669c0.217,0.166,0.362,0.285,0.418,0.358l0.077,0.105
	c0,0-0.788-0.209-1.078-0.288c-0.288-0.078-0.792,0.104-0.919,0.199C158.687,1226.742,158.214,1227.097,158.214,1227.097
	L158.214,1227.097z M140.1,1261.145c0,0,1.816,0.927,2.51,2.018c0.693,1.089,0.728,1.473,0.959,2.379
	c0.23,0.904,0.364,1.168,0.495,1.365c0.132,0.201,0.231,0.399,0.231,0.399s-0.628,0-1.486,0.494
	c-0.86,0.495-1.652,0.966-2.743,0.933c-1.091-0.032-1.817-0.403-2.246-0.767c-0.43-0.364-1.091-1.06-1.091-1.06
	s1.718-0.574,2.544-0.607c0.827-0.032,1.486,0.066,2.346,0.312c0.663,0.19,1.123,0.296,1.354,0.296h0.33
	c0,0-1.618-1.267-2.213-1.729c-0.595-0.462-0.99-1.751-0.99-2.146V1261.145z"/>
<path fill="#999999" d="M140.1,1261.145c0,0,1.816,0.927,2.51,2.018c0.693,1.089,0.728,1.473,0.959,2.379
	c0.23,0.904,0.364,1.168,0.495,1.365c0.132,0.201,0.231,0.399,0.231,0.399s-0.628,0-1.486,0.494
	c-0.86,0.495-1.652,0.966-2.743,0.933c-1.091-0.032-1.817-0.403-2.246-0.767c-0.43-0.364-1.091-1.06-1.091-1.06
	s1.718-0.574,2.544-0.607c0.827-0.032,1.486,0.066,2.346,0.312c0.663,0.19,1.123,0.296,1.354,0.296h0.33
	c0,0-1.618-1.267-2.213-1.729c-0.595-0.462-0.99-1.751-0.99-2.146V1261.145z M135.857,1257.979c0,0,1.325,1.276,1.636,2.401
	s0.239,1.465,0.199,2.306c-0.039,0.843,0.005,1.106,0.067,1.312c0.061,0.207,0.094,0.404,0.094,0.404s-0.542-0.166-1.413,0.036
	c-0.873,0.199-1.681,0.395-2.613,0.08c-0.933-0.318-1.461-0.828-1.737-1.256c-0.275-0.426-0.662-1.201-0.662-1.201
	s1.634-0.042,2.356,0.149c0.721,0.189,1.266,0.449,1.942,0.886c0.523,0.338,0.892,0.555,1.092,0.613
	c0.2,0.062,0.286,0.089,0.286,0.089s-1.063-1.521-1.455-2.078c-0.392-0.558-0.393-1.774-0.288-2.117
	C135.466,1259.263,135.857,1257.979,135.857,1257.979L135.857,1257.979z"/>
<path fill="#999999" d="M135.857,1257.979c0,0,1.325,1.276,1.636,2.401s0.239,1.465,0.199,2.306
	c-0.039,0.843,0.005,1.106,0.067,1.312c0.061,0.207,0.094,0.404,0.094,0.404s-0.542-0.166-1.413,0.036
	c-0.873,0.199-1.681,0.395-2.613,0.08c-0.933-0.318-1.461-0.828-1.737-1.256c-0.275-0.426-0.662-1.201-0.662-1.201
	s1.634-0.042,2.356,0.149c0.721,0.189,1.266,0.449,1.942,0.886c0.523,0.338,0.892,0.555,1.092,0.613
	c0.2,0.062,0.286,0.089,0.286,0.089s-1.063-1.521-1.455-2.078c-0.392-0.558-0.393-1.774-0.288-2.117
	C135.466,1259.263,135.857,1257.979,135.857,1257.979L135.857,1257.979z M132.441,1253.594c0,0,0.93,1.376,0.993,2.427
	c0.064,1.052-0.063,1.337-0.257,2.075c-0.192,0.734-0.202,0.976-0.186,1.168c0.016,0.193,0.007,0.376,0.007,0.376
	s-0.447-0.249-1.253-0.235c-0.809,0.014-1.558,0.034-2.322-0.419c-0.764-0.456-1.135-1.006-1.298-1.433
	c-0.162-0.43-0.358-1.184-0.358-1.184s1.451,0.268,2.053,0.571c0.6,0.303,1.033,0.634,1.548,1.146
	c0.398,0.396,0.684,0.655,0.847,0.747c0.165,0.092,0.236,0.132,0.236,0.132s-0.652-1.544-0.893-2.108
	c-0.242-0.564-0.015-1.64,0.141-1.922L132.441,1253.594z"/>
<path fill="#999999" d="M132.441,1253.594c0,0,0.93,1.376,0.993,2.427c0.064,1.052-0.063,1.337-0.257,2.075
	c-0.192,0.734-0.202,0.976-0.186,1.168c0.016,0.193,0.007,0.376,0.007,0.376s-0.447-0.249-1.253-0.235
	c-0.809,0.014-1.558,0.034-2.322-0.419c-0.764-0.456-1.135-1.006-1.298-1.433c-0.162-0.43-0.358-1.184-0.358-1.184
	s1.451,0.268,2.053,0.571c0.6,0.303,1.033,0.634,1.548,1.146c0.398,0.396,0.684,0.655,0.847,0.747
	c0.165,0.092,0.236,0.132,0.236,0.132s-0.652-1.544-0.893-2.108c-0.242-0.564-0.015-1.64,0.141-1.922L132.441,1253.594z
	 M130.983,1248.598c0,0,0.515,1.492,0.314,2.472c-0.199,0.979-0.387,1.211-0.745,1.837c-0.358,0.629-0.425,0.848-0.458,1.029
	c-0.033,0.18-0.084,0.345-0.084,0.345s-0.35-0.338-1.095-0.522c-0.744-0.188-1.437-0.353-2.026-0.956
	c-0.589-0.606-0.795-1.201-0.838-1.634c-0.044-0.435-0.039-1.175-0.039-1.175s1.266,0.602,1.743,1.029
	c0.477,0.426,0.792,0.836,1.138,1.434c0.269,0.462,0.465,0.769,0.595,0.894c0.128,0.125,0.185,0.178,0.185,0.178
	s-0.221-1.577-0.302-2.153c-0.082-0.577,0.39-1.509,0.602-1.728C130.184,1249.426,130.983,1248.598,130.983,1248.598
	L130.983,1248.598z"/>
<path fill="#999999" d="M130.983,1248.598c0,0,0.515,1.492,0.314,2.472c-0.199,0.979-0.387,1.211-0.745,1.837
	c-0.358,0.629-0.425,0.848-0.458,1.029c-0.033,0.18-0.084,0.345-0.084,0.345s-0.35-0.338-1.095-0.522
	c-0.744-0.188-1.437-0.353-2.026-0.956c-0.589-0.606-0.795-1.201-0.838-1.634c-0.044-0.435-0.039-1.175-0.039-1.175
	s1.266,0.602,1.743,1.029c0.477,0.426,0.792,0.836,1.138,1.434c0.269,0.462,0.465,0.769,0.595,0.894
	c0.128,0.125,0.185,0.178,0.185,0.178s-0.221-1.577-0.302-2.153c-0.082-0.577,0.39-1.509,0.602-1.728
	C130.184,1249.426,130.983,1248.598,130.983,1248.598L130.983,1248.598z M130.735,1243.797c0,0,0.001,1.423-0.457,2.201
	c-0.458,0.776-0.686,0.918-1.177,1.35c-0.49,0.431-0.612,0.597-0.693,0.741c-0.082,0.146-0.174,0.271-0.174,0.271
	s-0.199-0.391-0.78-0.768c-0.581-0.378-1.124-0.722-1.449-1.412c-0.325-0.688-0.325-1.258-0.235-1.641
	c0.09-0.382,0.311-1.013,0.311-1.013s0.903,0.886,1.185,1.39c0.282,0.503,0.43,0.948,0.552,1.558
	c0.092,0.473,0.17,0.794,0.244,0.938l0.104,0.205c0,0,0.275-1.409,0.376-1.925c0.099-0.517,0.775-1.172,1.021-1.298
	L130.735,1243.797z"/>
<path fill="#999999" d="M130.735,1243.797c0,0,0.001,1.423-0.457,2.201c-0.458,0.776-0.686,0.918-1.177,1.35
	c-0.49,0.431-0.612,0.597-0.693,0.741c-0.082,0.146-0.174,0.271-0.174,0.271s-0.199-0.391-0.78-0.768
	c-0.581-0.378-1.124-0.722-1.449-1.412c-0.325-0.688-0.325-1.258-0.235-1.641c0.09-0.382,0.311-1.013,0.311-1.013
	s0.903,0.886,1.185,1.39c0.282,0.503,0.43,0.948,0.552,1.558c0.092,0.473,0.17,0.794,0.244,0.938l0.104,0.205
	c0,0,0.275-1.409,0.376-1.925c0.099-0.517,0.775-1.172,1.021-1.298L130.735,1243.797z M131.712,1239.078
	c0,0-0.281,1.323-0.861,1.955c-0.579,0.632-0.82,0.72-1.359,1.023c-0.541,0.304-0.688,0.433-0.792,0.552
	c-0.104,0.119-0.214,0.216-0.214,0.216s-0.108-0.401-0.573-0.867c-0.466-0.465-0.901-0.893-1.068-1.598
	c-0.167-0.706-0.054-1.234,0.104-1.571c0.159-0.338,0.49-0.882,0.49-0.882s0.664,1.003,0.827,1.526
	c0.163,0.524,0.214,0.964,0.204,1.558c-0.006,0.457,0.003,0.77,0.043,0.918c0.039,0.147,0.056,0.211,0.056,0.211
	s0.534-1.254,0.729-1.716c0.195-0.46,0.952-0.936,1.206-1.004C130.759,1239.333,131.712,1239.078,131.712,1239.078L131.712,1239.078
	z"/>
<path fill="#999999" d="M131.712,1239.078c0,0-0.281,1.323-0.861,1.955c-0.579,0.632-0.82,0.72-1.359,1.023
	c-0.541,0.304-0.688,0.433-0.792,0.552c-0.104,0.119-0.214,0.216-0.214,0.216s-0.108-0.401-0.573-0.867
	c-0.466-0.465-0.901-0.893-1.068-1.598c-0.167-0.706-0.054-1.234,0.104-1.571c0.159-0.338,0.49-0.882,0.49-0.882
	s0.664,1.003,0.827,1.526c0.163,0.524,0.214,0.964,0.204,1.558c-0.006,0.457,0.003,0.77,0.043,0.918
	c0.039,0.147,0.056,0.211,0.056,0.211s0.534-1.254,0.729-1.716c0.195-0.46,0.952-0.936,1.206-1.004
	C130.759,1239.333,131.712,1239.078,131.712,1239.078L131.712,1239.078z M133.094,1235.376c0,0-0.453,1.068-1.043,1.505
	c-0.592,0.436-0.807,0.47-1.313,0.638c-0.503,0.167-0.647,0.252-0.755,0.335c-0.107,0.082-0.216,0.148-0.216,0.148
	s-0.024-0.357-0.34-0.824c-0.315-0.468-0.613-0.9-0.638-1.519c-0.024-0.621,0.158-1.048,0.346-1.306
	c0.189-0.258,0.558-0.661,0.558-0.661s0.394,0.951,0.446,1.42c0.052,0.465,0.021,0.846-0.083,1.342
	c-0.081,0.385-0.125,0.649-0.115,0.78c0.008,0.132,0.013,0.188,0.013,0.188s0.655-0.969,0.894-1.326
	c0.239-0.355,0.955-0.63,1.18-0.646L133.094,1235.376L133.094,1235.376z"/>
<path fill="#999999" d="M133.094,1235.376c0,0-0.453,1.068-1.043,1.505c-0.592,0.436-0.807,0.47-1.313,0.638
	c-0.503,0.167-0.647,0.252-0.755,0.335c-0.107,0.082-0.216,0.148-0.216,0.148s-0.024-0.357-0.34-0.824
	c-0.315-0.468-0.613-0.9-0.638-1.519c-0.024-0.621,0.158-1.048,0.346-1.306c0.189-0.258,0.558-0.661,0.558-0.661
	s0.394,0.951,0.446,1.42c0.052,0.465,0.021,0.846-0.083,1.342c-0.081,0.385-0.125,0.649-0.115,0.78
	c0.008,0.132,0.013,0.188,0.013,0.188s0.655-0.969,0.894-1.326c0.239-0.355,0.955-0.63,1.18-0.646L133.094,1235.376
	L133.094,1235.376z M135.409,1232.615c0,0-0.648,0.893-1.289,1.171s-0.847,0.263-1.35,0.31c-0.503,0.047-0.655,0.095-0.771,0.149
	c-0.076,0.035-0.153,0.065-0.232,0.09c0,0,0.053-0.335-0.139-0.835c-0.19-0.5-0.375-0.963-0.265-1.542
	c0.11-0.581,0.369-0.936,0.599-1.135c0.231-0.198,0.656-0.493,0.656-0.493s0.162,0.967,0.109,1.41
	c-0.052,0.443-0.16,0.789-0.364,1.226c-0.156,0.338-0.252,0.575-0.273,0.698l-0.028,0.177c0,0,0.814-0.757,1.111-1.035
	c0.298-0.278,1.019-0.381,1.231-0.347C134.615,1232.49,135.409,1232.615,135.409,1232.615L135.409,1232.615z"/>
<path fill="#999999" d="M135.409,1232.615c0,0-0.648,0.893-1.289,1.171s-0.847,0.263-1.35,0.31
	c-0.503,0.047-0.655,0.095-0.771,0.149c-0.076,0.035-0.153,0.065-0.232,0.09c0,0,0.053-0.335-0.139-0.835
	c-0.19-0.5-0.375-0.963-0.265-1.542c0.11-0.581,0.369-0.936,0.599-1.135c0.231-0.198,0.656-0.493,0.656-0.493
	s0.162,0.967,0.109,1.41c-0.052,0.443-0.16,0.789-0.364,1.226c-0.156,0.338-0.252,0.575-0.273,0.698l-0.028,0.177
	c0,0,0.814-0.757,1.111-1.035c0.298-0.278,1.019-0.381,1.231-0.347C134.615,1232.49,135.409,1232.615,135.409,1232.615
	L135.409,1232.615z M137.939,1230.24c0,0-0.715,0.691-1.328,0.838c-0.613,0.146-0.795,0.101-1.249,0.065
	c-0.454-0.038-0.598-0.019-0.709,0.01c-0.114,0.03-0.221,0.044-0.221,0.044s0.1-0.29,0.008-0.765
	c-0.093-0.475-0.182-0.915,0.006-1.412c0.188-0.498,0.475-0.774,0.709-0.915c0.236-0.139,0.661-0.334,0.661-0.334
	s-0.007,0.884-0.124,1.269c-0.116,0.387-0.267,0.675-0.516,1.033c-0.192,0.275-0.315,0.47-0.351,0.578
	c-0.038,0.106-0.053,0.152-0.053,0.152s0.841-0.545,1.149-0.746c0.308-0.201,0.964-0.18,1.147-0.118L137.939,1230.24
	L137.939,1230.24z"/>
<path fill="#999999" d="M137.939,1230.24c0,0-0.715,0.691-1.328,0.838c-0.613,0.146-0.795,0.101-1.249,0.065
	c-0.454-0.038-0.598-0.019-0.709,0.01c-0.114,0.03-0.221,0.044-0.221,0.044s0.1-0.29,0.008-0.765
	c-0.093-0.475-0.182-0.915,0.006-1.412c0.188-0.498,0.475-0.774,0.709-0.915c0.236-0.139,0.661-0.334,0.661-0.334
	s-0.007,0.884-0.124,1.269c-0.116,0.387-0.267,0.675-0.516,1.033c-0.192,0.275-0.315,0.47-0.351,0.578
	c-0.038,0.106-0.053,0.152-0.053,0.152s0.841-0.545,1.149-0.746c0.308-0.201,0.964-0.18,1.147-0.118L137.939,1230.24
	L137.939,1230.24z M140.285,1228.384c0,0-0.735,0.515-1.303,0.559c-0.568,0.044-0.725-0.023-1.123-0.119
	c-0.4-0.097-0.53-0.102-0.634-0.09c-0.104,0.01-0.202,0.007-0.202,0.007s0.129-0.243,0.113-0.679
	c-0.015-0.437-0.033-0.841,0.205-1.26c0.239-0.416,0.532-0.622,0.763-0.714c0.23-0.091,0.636-0.205,0.636-0.205
	s-0.132,0.787-0.29,1.114c-0.157,0.328-0.333,0.564-0.606,0.848c-0.209,0.218-0.347,0.375-0.396,0.465
	c-0.047,0.09-0.067,0.129-0.067,0.129s0.827-0.367,1.13-0.503c0.303-0.136,0.885-0.023,1.04,0.059L140.285,1228.384
	L140.285,1228.384z"/>
<path fill="#999999" d="M140.285,1228.384c0,0-0.735,0.515-1.303,0.559c-0.568,0.044-0.725-0.023-1.123-0.119
	c-0.4-0.097-0.53-0.102-0.634-0.09c-0.104,0.01-0.202,0.007-0.202,0.007s0.129-0.243,0.113-0.679
	c-0.015-0.437-0.033-0.841,0.205-1.26c0.239-0.416,0.532-0.622,0.763-0.714c0.23-0.091,0.636-0.205,0.636-0.205
	s-0.132,0.787-0.29,1.114c-0.157,0.328-0.333,0.564-0.606,0.848c-0.209,0.218-0.347,0.375-0.396,0.465
	c-0.047,0.09-0.067,0.129-0.067,0.129s0.827-0.367,1.13-0.503c0.303-0.136,0.885-0.023,1.04,0.059L140.285,1228.384
	L140.285,1228.384z M143.224,1227.097c0,0-0.728,0.355-1.239,0.315c-0.512-0.042-0.643-0.122-0.985-0.266
	c-0.343-0.143-0.457-0.164-0.552-0.169c-0.095-0.005-0.181-0.021-0.181-0.021s0.149-0.199,0.198-0.59
	c0.047-0.392,0.089-0.754,0.36-1.092c0.271-0.338,0.562-0.48,0.779-0.531c0.219-0.049,0.596-0.093,0.596-0.093
	s-0.228,0.684-0.416,0.954c-0.186,0.269-0.375,0.456-0.659,0.669c-0.218,0.166-0.363,0.285-0.417,0.358
	c-0.056,0.073-0.079,0.105-0.079,0.105s0.79-0.209,1.078-0.288c0.29-0.078,0.792,0.104,0.919,0.199
	C142.751,1226.742,143.224,1227.097,143.224,1227.097L143.224,1227.097z"/>
<path fill="#999999" d="M143.224,1227.097c0,0-0.728,0.355-1.239,0.315c-0.512-0.042-0.643-0.122-0.985-0.266
	c-0.343-0.143-0.457-0.164-0.552-0.169c-0.095-0.005-0.181-0.021-0.181-0.021s0.149-0.199,0.198-0.59
	c0.047-0.392,0.089-0.754,0.36-1.092c0.271-0.338,0.562-0.48,0.779-0.531c0.219-0.049,0.596-0.093,0.596-0.093
	s-0.228,0.684-0.416,0.954c-0.186,0.269-0.375,0.456-0.659,0.669c-0.218,0.166-0.363,0.285-0.417,0.358
	c-0.056,0.073-0.079,0.105-0.079,0.105s0.79-0.209,1.078-0.288c0.29-0.078,0.792,0.104,0.919,0.199
	C142.751,1226.742,143.224,1227.097,143.224,1227.097L143.224,1227.097z M133.878,1244.929c0-9.43,7.646-17.075,17.077-17.075
	c9.429,0,17.075,7.645,17.075,17.075c0,9.432-7.646,17.075-17.075,17.075C141.524,1262.004,133.878,1254.361,133.878,1244.929
	L133.878,1244.929z M161.538,1245.021c0.565-0.27,0.992-0.684,1.28-1.241c0.288-0.559,0.433-1.191,0.433-1.898
	c0-0.824-0.184-1.554-0.554-2.188c-0.368-0.635-0.901-1.077-1.602-1.326c-0.462-0.166-1.075-0.249-1.84-0.249h-4.099v0.382h0.354
	c0.358,0,0.627,0.153,0.807,0.458c0.135,0.228,0.202,0.778,0.202,1.651v9.131c0,0.789-0.054,1.305-0.161,1.546
	c-0.17,0.373-0.453,0.561-0.849,0.561h-0.354v0.383h4.48c1.067,0,1.863-0.147,2.383-0.442s0.93-0.764,1.229-1.407
	c0.296-0.631,0.449-1.319,0.447-2.016c0-0.923-0.226-1.704-0.679-2.343C162.689,1245.562,162.197,1245.229,161.538,1245.021
	L161.538,1245.021z M157.868,1244.444v-5.396c0.373-0.152,0.793-0.228,1.258-0.228c0.868,0,1.529,0.29,1.981,0.87
	c0.452,0.579,0.679,1.281,0.679,2.103c0,0.532-0.09,1.021-0.272,1.47c-0.181,0.448-0.443,0.782-0.786,0.999
	c-0.343,0.217-0.856,0.326-1.538,0.326c-0.266,0-0.509-0.011-0.732-0.037C158.259,1244.533,158.062,1244.497,157.868,1244.444
	L157.868,1244.444z M157.868,1251.205v-5.778c0.126-0.034,0.292-0.059,0.496-0.073c0.248-0.014,0.496-0.021,0.744-0.02
	c0.668,0,1.227,0.145,1.682,0.436c0.452,0.291,0.781,0.689,0.987,1.195c0.207,0.501,0.312,1.038,0.311,1.58
	c0,0.831-0.222,1.529-0.667,2.093c-0.446,0.567-1.092,0.85-1.942,0.85C158.947,1251.487,158.412,1251.392,157.868,1251.205
	L157.868,1251.205z M141.025,1238.885h3.468c0.493,0,0.858,0.068,1.093,0.209c0.237,0.139,0.435,0.363,0.595,0.673
	c0.263,0.633,0.303,2.172,0.426,2.833h0.244l-0.102-4.483h-8.436v0.382h0.336c0.229,0,0.444,0.083,0.646,0.25
	c0.145,0.125,0.241,0.274,0.288,0.446c0.062,0.229,0.092,0.701,0.092,1.414v9.131c0,0.844-0.056,1.377-0.169,1.598
	c-0.178,0.34-0.463,0.51-0.857,0.51h-0.337v0.382h4.076v-0.382h-0.341c-0.223,0-0.436-0.082-0.641-0.25
	c-0.147-0.123-0.245-0.271-0.292-0.443c-0.06-0.23-0.09-0.701-0.09-1.414v-4.449h1.723c0.32,0,0.56,0.065,0.724,0.193
	c0.162,0.129,0.29,0.323,0.38,0.58c0.093,0.256,0.141,0.659,0.145,1.207h0.259v-4.788h-0.259c-0.06,0.778-0.184,1.297-0.37,1.552
	c-0.186,0.257-0.479,0.385-0.878,0.385h-1.723V1238.885L141.025,1238.885L141.025,1238.885z M153.787,1237.799h-0.282
	c-0.051,0.325-0.119,0.54-0.204,0.647c-0.076,0.104-0.197,0.163-0.325,0.161c-0.117,0-0.32-0.086-0.606-0.258
	c-0.619-0.366-1.206-0.55-1.757-0.55c-0.885,0-1.614,0.365-2.188,1.098c-0.571,0.731-0.858,1.603-0.858,2.614
	c0,0.583,0.098,1.116,0.292,1.601c0.195,0.486,0.48,0.931,0.857,1.332c0.377,0.401,1.01,0.94,1.9,1.613
	c0.892,0.672,1.436,1.114,1.635,1.321c0.293,0.307,0.513,0.638,0.653,0.992c0.139,0.355,0.209,0.707,0.209,1.053
	c0,0.626-0.185,1.169-0.556,1.628c-0.37,0.46-0.873,0.688-1.512,0.688c-0.552,0-1.059-0.165-1.521-0.498
	c-0.461-0.331-0.805-0.749-1.03-1.252c-0.224-0.503-0.403-1.26-0.537-2.271h-0.28v4.832h0.28c0.036-0.33,0.091-0.547,0.165-0.651
	c0.075-0.104,0.175-0.159,0.302-0.159c0.133,0,0.449,0.112,0.946,0.333c0.498,0.22,0.826,0.348,0.984,0.383
	c0.265,0.064,0.549,0.094,0.85,0.094c0.96,0,1.746-0.387,2.354-1.159c0.611-0.772,0.915-1.694,0.915-2.762
	c0-0.562-0.095-1.1-0.285-1.612c-0.192-0.514-0.465-0.959-0.821-1.336c-0.354-0.378-1.017-0.921-1.987-1.629
	c-1.191-0.867-1.946-1.561-2.262-2.082c-0.22-0.354-0.33-0.745-0.33-1.175c0-0.562,0.173-1.064,0.522-1.505
	c0.347-0.44,0.786-0.661,1.318-0.661c0.468,0,0.925,0.164,1.365,0.489s0.778,0.767,1.016,1.322c0.238,0.553,0.402,1.3,0.495,2.234
	h0.282V1237.799L153.787,1237.799z"/>
</svg>
