<?xml version="1.0" encoding="utf-8"?>
<!-- Generator: Adobe Illustrator 25.2.1, SVG Export Plug-In . SVG Version: 6.00 Build 0)  -->
<svg version="1.1" id="Layer_1" xmlns="http://www.w3.org/2000/svg" xmlns:xlink="http://www.w3.org/1999/xlink" x="0px" y="0px"
	 width="300px" height="28.42px" viewBox="0 0 300 28.42" enable-background="new 0 0 300 28.42" xml:space="preserve">
<rect x="135.79" y="-135.79" transform="matrix(-1.836970e-16 1 -1 -1.836970e-16 164.2084 -135.7916)" fill="#FFFFFF" width="28.42" height="300"/>
<g>
	<g>
		<g>
			<path fill="#567B91" d="M292.79,11.24h-0.65c-0.13,0-0.22-0.05-0.28-0.15l-1.05-1.51c-0.04-0.05-0.07-0.09-0.12-0.11
				c-0.04-0.02-0.1-0.03-0.19-0.03h-0.41v1.81h-0.73V6.75h1.32c0.3,0,0.55,0.03,0.76,0.09c0.21,0.06,0.39,0.15,0.53,0.26
				c0.14,0.11,0.24,0.24,0.3,0.4c0.07,0.16,0.1,0.33,0.1,0.52c0,0.16-0.02,0.3-0.07,0.44c-0.05,0.14-0.11,0.26-0.2,0.37
				c-0.09,0.11-0.2,0.21-0.33,0.29c-0.13,0.08-0.28,0.14-0.44,0.19c0.09,0.05,0.17,0.13,0.23,0.23L292.79,11.24z M290.67,8.9
				c0.17,0,0.31-0.02,0.44-0.06c0.12-0.04,0.23-0.1,0.31-0.17c0.08-0.07,0.15-0.16,0.19-0.26c0.04-0.1,0.06-0.21,0.06-0.34
				c0-0.25-0.08-0.43-0.24-0.56s-0.41-0.19-0.74-0.19h-0.59V8.9H290.67z"/>
		</g>
		<path fill="#567B91" d="M290.92,4.17c-2.75,0-4.98,2.23-4.98,4.98s2.23,4.98,4.98,4.98s4.98-2.23,4.98-4.98
			S293.67,4.17,290.92,4.17z M290.92,13.49c-2.39,0-4.33-1.94-4.33-4.33s1.94-4.33,4.33-4.33s4.33,1.94,4.33,4.33
			S293.31,13.49,290.92,13.49z"/>
	</g>
	<g>
		<g>
			<polygon fill="#567A91" points="17.36,17.17 17.36,24.22 10.31,24.22 			"/>
			<polygon fill="#567A91" points="4.09,10.96 11.15,10.96 4.09,18.01 			"/>
			<polygon fill="#ED1A38" points="4.13,4.32 24.03,4.32 24.03,24.22 19.06,24.22 19.06,13.17 8,24.22 4.13,24.22 4.13,20.35 
				15.19,9.3 4.13,9.3 			"/>
		</g>
		<path fill="#567A91" d="M46.12,4.79c0.36-0.45,0.51-0.51,1.11-0.51h4.06v19.96h-5.15V11.93h-0.03l-4.25,5.27H38.9
			c-0.45,0-0.66-0.09-0.9-0.39l-3.85-4.88h-0.03v12.31h-5.12V4.28h4.34c0.6,0,0.75,0.06,1.11,0.51l5.81,7.26h0.09L46.12,4.79z
			 M61.18,4.28h5.33c0.36,0,0.48,0.03,0.63,0.45l7.95,19.51h-5.12c-0.36,0-0.51-0.06-0.66-0.45l-1.08-2.86h-7.98l-0.96,2.86
			c-0.12,0.39-0.27,0.45-0.63,0.45h-4.94L61.18,4.28z M64.04,9.37c-0.21,1.08-0.81,2.92-1.78,5.69l-0.54,1.69h4.88L66,15.06
			c-1.11-2.95-1.69-4.58-1.93-5.69H64.04z M77.5,24.24V4.28h7.29c4.09,0,7.29,0.87,9.39,2.98c1.6,1.6,2.53,3.94,2.53,7.01
			c0,3.07-0.93,5.39-2.53,6.98c-2.11,2.11-5.3,2.98-9.39,2.98H77.5z M84.64,19.64c2.32,0,3.94-0.24,5.03-1.2
			c0.93-0.81,1.48-2.11,1.48-4.15c0-2.05-0.54-3.37-1.48-4.18c-1.08-0.96-2.71-1.2-5.03-1.2h-1.78v10.75H84.64z M115.63,4.28v4.43
			h-10.15v3.28h9.24v4.34h-9.24v3.49h10.42v4.43h-15.78V4.28H115.63z M129.87,24.24h-5.36V4.28h5.36V24.24z M138.17,4.28
			c0.48,0,0.66,0.06,0.93,0.39l5.75,7.17c1.38,1.75,2.74,3.49,3.28,4.28h0.03V4.28h5v19.96h-3.82c-0.48,0-0.66-0.06-0.93-0.39
			l-5.81-7.23c-1.26-1.57-2.74-3.4-3.31-4.28h-0.03v11.89h-5V4.28H138.17z M162.01,4.28h9.36c2.92,0,4.58,0.45,5.75,1.6
			c0.87,0.84,1.35,2.14,1.35,3.46c0,1.6-0.78,3.1-1.84,4.06c1.84,0.78,3.1,2.38,3.1,4.7c0,1.84-0.6,3.25-1.63,4.25
			c-1.32,1.29-3.46,1.9-6.41,1.9h-9.69V4.28z M172.1,12.26c0.36,0,0.6-0.06,0.78-0.36c0.21-0.33,0.33-1.05,0.33-1.54
			c0-0.6-0.12-1.02-0.39-1.29c-0.33-0.33-0.84-0.42-1.69-0.42h-3.76v3.61H172.1z M167.37,19.88h4.7c0.9,0,1.45-0.12,1.78-0.45
			c0.27-0.27,0.45-0.81,0.45-1.51c0-0.63-0.15-1.02-0.42-1.29c-0.33-0.33-0.84-0.45-1.81-0.45h-4.7V19.88z M188.58,24.24h-5.36V4.28
			h8.73c3.34,0,5.54,0.54,6.92,1.9c1.08,1.08,1.72,2.68,1.72,4.67c0,2.83-1.48,5-3.31,6.17l4.49,7.23h-5.33
			c-0.48,0-0.63-0.06-0.9-0.51l-3.04-5.18c-0.33-0.54-0.39-0.6-0.96-0.6h-2.95V24.24z M193.64,13.71c0.51,0,0.78-0.09,1.08-0.54
			c0.33-0.51,0.45-1.45,0.45-2.05c0-0.72-0.24-1.45-0.57-1.78c-0.48-0.45-1.23-0.57-2.56-0.57h-3.46v4.94H193.64z M210.1,24.24
			h-5.36V4.28h5.36V24.24z M219.26,8.71h-6.68V4.28h18.73v4.43h-6.68v15.54h-5.36V8.71z M237.46,4.28h5.33
			c0.36,0,0.48,0.03,0.63,0.45l7.95,19.51h-5.12c-0.36,0-0.51-0.06-0.66-0.45l-1.08-2.86h-7.98l-0.96,2.86
			c-0.12,0.39-0.27,0.45-0.63,0.45H230L237.46,4.28z M240.32,9.37c-0.21,1.08-0.81,2.92-1.78,5.69l-0.54,1.69h4.88l-0.6-1.69
			c-1.11-2.95-1.69-4.58-1.93-5.69H240.32z M259.17,24.24h-5.36V4.28h5.36V24.24z M267.47,4.28c0.48,0,0.66,0.06,0.93,0.39
			l5.75,7.17c1.38,1.75,2.74,3.49,3.28,4.28h0.03V4.28h5v19.96h-3.82c-0.48,0-0.66-0.06-0.93-0.39l-5.81-7.23
			c-1.26-1.57-2.74-3.4-3.31-4.28h-0.03v11.89h-5V4.28H267.47z"/>
	</g>
</g>
</svg>
