<?xml version="1.0" encoding="utf-8"?>
<!-- Generator: Adobe Illustrator 25.2.2, SVG Export Plug-In . SVG Version: 6.00 Build 0)  -->
<svg version="1.1" id="Layer_1" xmlns="http://www.w3.org/2000/svg" xmlns:xlink="http://www.w3.org/1999/xlink" x="0px" y="0px"
	 width="175.68px" height="86.32px" viewBox="0 0 175.68 86.32" enable-background="new 0 0 175.68 86.32" xml:space="preserve">
<g>
	<g>
		<path fill="#FFDA16" d="M155.14,28.85c-0.76,0-1.52,0.04-2.26,0.12c1.79,4.38,2.78,9.17,2.78,14.19c0,5.4-1.14,10.53-3.2,15.17
			c3.72,2.39,5.87,6.83,5.11,11.46c10.2-1.2,18.11-9.88,18.11-20.4C175.68,38.04,166.48,28.85,155.14,28.85"/>
		<path fill="#34BEEF" d="M118.16,5.67c-20.7,0-37.49,16.78-37.49,37.49s16.78,37.49,37.49,37.49c7.08,0,13.71-1.97,19.36-5.38
			c-2.06-2.47-3.07-5.8-2.49-9.22c0.37-2.2,1.35-4.14,2.73-5.69c-2.01-3.17-3.17-6.93-3.17-10.97c0-10.58,8-19.29,18.28-20.42
			C147.28,15.3,133.85,5.67,118.16,5.67"/>
		<path fill="#29A737" d="M152.87,28.97c-10.28,1.13-18.28,9.84-18.28,20.42c0,4.03,1.16,7.79,3.17,10.97
			c2.12-2.38,5.2-3.83,8.52-3.83c0.63,0,1.28,0.05,1.92,0.16c1.56,0.26,3,0.84,4.26,1.64c2.06-4.64,3.2-9.77,3.2-15.17
			C155.65,38.14,154.67,33.35,152.87,28.97"/>
		<path fill="#F49530" d="M146.3,67.94c-2.53,2.87-5.48,5.34-8.77,7.33c1.68,2.02,4.07,3.47,6.86,3.94
			c0.64,0.11,1.29,0.16,1.92,0.16c5.47,0,10.3-3.94,11.25-9.52c0-0.02,0.01-0.05,0.01-0.07c-0.8,0.09-1.61,0.14-2.43,0.14
			C151.97,69.93,148.97,69.21,146.3,67.94"/>
		<path fill="#F08014" d="M152.46,58.33c-1.56,3.52-3.65,6.76-6.16,9.61c2.68,1.28,5.67,1.99,8.84,1.99c0.82,0,1.63-0.05,2.43-0.14
			C158.32,65.16,156.18,60.72,152.46,58.33"/>
		<path fill="#217331" d="M137.76,60.35c-1.38,1.55-2.36,3.49-2.73,5.69c-0.58,3.42,0.43,6.75,2.49,9.22
			c3.29-1.99,6.25-4.46,8.77-7.33C142.79,66.26,139.83,63.62,137.76,60.35"/>
		<path fill="#22632C" d="M146.28,56.53c-3.31,0-6.39,1.45-8.52,3.83c2.06,3.26,5.02,5.91,8.53,7.58c2.51-2.85,4.6-6.09,6.16-9.61
			c-1.26-0.81-2.69-1.38-4.26-1.64C147.55,56.58,146.91,56.53,146.28,56.53"/>
	</g>
	<g>
		<path fill="#FFFFFF" d="M90.12,38.18h1.63l2.49-10.75h-1.84l0.39-1.76h5.68l-0.41,1.76h-1.84L93.69,38.2h4.44l0.5-2.1h1.89
			l-0.89,3.84h-9.93L90.12,38.18z"/>
		<path fill="#FFFFFF" d="M101.21,38.2c0-0.28,0.07-0.69,0.15-1.02l1.3-4.98h-1.76l0.41-1.6h3.66l-1.73,6.61
			c-0.11,0.37-0.15,0.74-0.15,0.95c0,0.41,0.22,0.65,0.56,0.65c0.43,0,0.82-0.33,1.28-1.52l0.84,0.3c-0.56,1.86-1.47,2.49-2.62,2.49
			C101.91,40.09,101.21,39.33,101.21,38.2z M103.03,27.76c0-0.69,0.56-1.26,1.26-1.26c0.67,0,1.26,0.56,1.26,1.26
			s-0.59,1.26-1.26,1.26C103.6,29.02,103.03,28.45,103.03,27.76z"/>
		<path fill="#FFFFFF" d="M107.26,32.2h-1.62l0.41-1.6h2.86l1.08,7.43c1.67-1.8,2.88-3.64,3.25-5.07c-0.48-0.17-0.91-0.59-0.91-1.24
			c0-0.72,0.56-1.3,1.3-1.3c0.82,0,1.43,0.63,1.43,1.67c0,1.97-2.04,5.09-5.07,8.11h-1.24L107.26,32.2z"/>
		<path fill="#FFFFFF" d="M116.17,38.2c0-0.28,0.06-0.69,0.15-1.02l1.3-4.98h-1.75l0.41-1.6h3.66l-1.73,6.61
			c-0.11,0.37-0.15,0.74-0.15,0.95c0,0.41,0.22,0.65,0.56,0.65c0.43,0,0.82-0.33,1.28-1.52l0.85,0.3c-0.56,1.86-1.47,2.49-2.62,2.49
			C116.86,40.09,116.17,39.33,116.17,38.2z M117.99,27.76c0-0.69,0.56-1.26,1.26-1.26c0.67,0,1.26,0.56,1.26,1.26
			s-0.58,1.26-1.26,1.26C118.55,29.02,117.99,28.45,117.99,27.76z"/>
		<path fill="#FFFFFF" d="M127.17,38.23c0-0.3,0.07-0.71,0.15-1.06l0.8-2.82c0.11-0.37,0.15-0.65,0.15-0.95
			c0-0.82-0.56-1.36-1.41-1.36c-1.15,0-2.23,0.98-2.71,2.84l-1.26,5.07H121l1.95-7.74h-1.73l0.41-1.6h3.34l-0.5,2.19
			c0.74-1.3,1.95-2.34,3.23-2.34c1.43,0,2.54,0.98,2.54,2.64c0,0.45-0.09,0.97-0.24,1.52l-0.8,2.75c-0.07,0.28-0.13,0.59-0.13,0.76
			c0,0.43,0.22,0.69,0.59,0.69c0.37,0,0.78-0.33,1.21-1.52l0.85,0.3c-0.5,1.69-1.39,2.49-2.54,2.49
			C127.89,40.09,127.17,39.31,127.17,38.23z"/>
		<path fill="#FFFFFF" d="M131.6,43.19c-0.41-0.41-0.54-0.76-0.54-1.21c0-0.76,0.52-1.28,1.19-1.28c0.67,0,1.15,0.54,1.15,1.17
			c0,0.19-0.04,0.41-0.13,0.56c0.28,0.17,0.85,0.35,1.56,0.35c0.89,0,1.52-0.24,2.06-0.78c0.5-0.48,0.8-1.24,1.04-2.25l0.41-1.76
			c-0.8,1.13-1.93,1.84-3.21,1.84c-2.1,0-3.4-1.5-3.4-3.75c0-3.03,2.1-5.66,4.94-5.66c1.6,0,2.56,1.08,2.88,2.12l0.59-1.99h1.75
			l-2.23,9.62c-0.28,1.26-0.67,2.19-1.36,2.9c-0.82,0.8-1.91,1.19-3.42,1.19C133.57,44.27,132.16,43.75,131.6,43.19z M139.16,34.33
			c0-1.39-0.91-2.23-2.25-2.23c-1.82,0-3.21,1.73-3.21,3.86c0,1.39,0.91,2.25,2.21,2.25C137.77,38.2,139.16,36.34,139.16,34.33z"/>
		<path fill="#FFFFFF" d="M102.08,43.72h-1.54l0.41-1.76h5.24l-0.39,1.76h-1.8l0.43,8.97l5.29-9.17h0.93l1.58,9.21l4.38-9.01h-1.73
			l0.39-1.76h5.27l-0.41,1.76h-1.37l-6.48,12.66h-1.06l-1.71-9.08l-5.48,9.08l-1.04,0.02L102.08,43.72z"/>
		<path fill="#FFFFFF" d="M116.69,52.67c0-3.19,2.21-5.96,4.92-5.96c1.41,0,2.47,1.02,2.8,2.21l0.61-2.08h1.78l-1.65,6.65
			c-0.11,0.39-0.17,0.74-0.17,0.95c0,0.41,0.2,0.65,0.56,0.65c0.35,0,0.78-0.32,1.21-1.52l0.85,0.3c-0.56,1.86-1.54,2.49-2.58,2.49
			c-1.11,0-1.8-0.76-1.8-1.88v-0.11c-0.8,1.11-1.93,2.02-3.34,2.02C118.01,56.4,116.69,54.95,116.69,52.67z M123.97,50.68
			c0-1.39-0.69-2.3-2.12-2.3c-1.82,0-3.19,1.97-3.19,4.07c0,1.37,0.67,2.32,1.97,2.32C122.54,54.78,123.97,52.72,123.97,50.68z"/>
		<path fill="#FFFFFF" d="M127.8,59.48c-0.41-0.41-0.54-0.76-0.54-1.21c0-0.76,0.52-1.28,1.19-1.28c0.67,0,1.15,0.54,1.15,1.17
			c0,0.2-0.04,0.41-0.13,0.56c0.28,0.17,0.85,0.35,1.56,0.35c0.89,0,1.52-0.24,2.06-0.78c0.5-0.48,0.8-1.23,1.04-2.25l0.41-1.76
			c-0.8,1.13-1.93,1.84-3.21,1.84c-2.1,0-3.4-1.5-3.4-3.75c0-3.03,2.1-5.66,4.94-5.66c1.6,0,2.56,1.08,2.88,2.12l0.59-1.99h1.76
			l-2.23,9.62c-0.28,1.26-0.67,2.19-1.37,2.9c-0.82,0.8-1.91,1.19-3.42,1.19C129.78,60.56,128.37,60.04,127.8,59.48z M135.37,50.62
			c0-1.39-0.91-2.23-2.25-2.23c-1.82,0-3.21,1.73-3.21,3.86c0,1.39,0.91,2.25,2.21,2.25C133.98,54.5,135.37,52.63,135.37,50.62z"/>
		<path fill="#FFFFFF" d="M139.94,52.16v0.32c0,1.41,1.13,2.34,2.82,2.34c1,0,1.91-0.22,3.08-0.85l-0.37,1.78
			c-0.97,0.48-1.78,0.65-3.1,0.65c-2.23,0-4.29-1.41-4.29-3.97c0-3.16,2.34-5.72,5.11-5.72c2.28,0,3.77,1.3,3.77,3.49
			c0,0.59-0.11,1.24-0.35,1.95H139.94z M140.2,50.79h4.85c0.09-0.26,0.13-0.54,0.13-0.8c0-0.97-0.65-1.69-1.99-1.69
			C141.85,48.3,140.7,49.32,140.2,50.79z"/>
	</g>
	<g>
		<path fill="#FFFFFF" d="M113,68.86h0.88l1.36-5.9h-0.98l0.13-0.53h4.99L119.01,64h-0.58l0.24-1.05h-2.82l-0.6,2.61h2.31
			l-0.12,0.53h-2.31l-0.65,2.76h2.82l0.24-1.05h0.58l-0.36,1.58h-4.9L113,68.86z"/>
		<path fill="#FFFFFF" d="M119.93,65.43h-0.85l0.13-0.49h1.36l-0.29,1.07c0.43-0.7,0.98-1.15,1.59-1.15c0.69,0,1.13,0.41,1.15,1.11
			c0.43-0.68,1.02-1.11,1.6-1.11c0.7,0,1.17,0.5,1.17,1.15c0,0.22-0.06,0.47-0.13,0.7l-0.45,1.56c-0.04,0.15-0.07,0.35-0.07,0.43
			c0,0.21,0.14,0.35,0.33,0.35c0.23,0,0.41-0.21,0.61-0.7l0.33,0.11c-0.21,0.62-0.53,0.99-1.02,0.99c-0.47,0-0.8-0.31-0.8-0.75
			c0-0.12,0.04-0.34,0.08-0.49l0.45-1.58c0.06-0.23,0.11-0.41,0.11-0.6c0-0.4-0.26-0.7-0.7-0.7c-0.63,0-1.43,0.69-1.76,1.95
			l-0.55,2.11h-0.55l0.71-2.75c0.06-0.23,0.11-0.41,0.11-0.6c0-0.4-0.28-0.7-0.71-0.7c-0.62,0-1.47,0.7-1.78,1.94l-0.53,2.12h-0.55
			L119.93,65.43z"/>
		<path fill="#FFFFFF" d="M125.75,70.97h0.69l1.33-5.54h-0.85l0.12-0.49h1.36l-0.2,0.86c0.36-0.51,0.89-0.94,1.59-0.94
			c0.96,0,1.71,0.73,1.71,1.87c0,1.56-1.15,2.74-2.37,2.74c-0.74,0-1.34-0.41-1.53-1.07l-0.6,2.57h0.97l-0.12,0.49h-2.22
			L125.75,70.97z M130.91,66.79c0-0.88-0.45-1.44-1.22-1.44c-1.06,0-1.89,1.25-1.89,2.29c0,0.77,0.5,1.33,1.32,1.33
			C130.17,68.97,130.91,67.89,130.91,66.79z"/>
		<path fill="#FFFFFF" d="M132.16,68.7c0-0.12,0.04-0.29,0.07-0.44l1.43-6.13h-0.84l0.12-0.49h1.39l-1.54,6.61
			c-0.03,0.16-0.07,0.36-0.07,0.44c0,0.21,0.14,0.35,0.33,0.35c0.23,0,0.41-0.21,0.61-0.7l0.33,0.11c-0.21,0.62-0.53,0.99-1.02,0.99
			C132.5,69.45,132.16,69.14,132.16,68.7z"/>
		<path fill="#FFFFFF" d="M134.43,67.57c0-1.41,1.09-2.71,2.52-2.71c1.17,0,1.86,0.87,1.86,1.9c0,1.41-1.09,2.71-2.52,2.71
			C135.12,69.47,134.43,68.6,134.43,67.57z M138.25,66.75c0-0.85-0.57-1.4-1.33-1.4c-1.08,0-1.93,1.04-1.93,2.22
			c0,0.85,0.57,1.4,1.33,1.4C137.4,68.97,138.25,67.94,138.25,66.75z"/>
		<path fill="#FFFFFF" d="M137.93,70.97c0-0.24,0.18-0.48,0.44-0.48c0.26,0,0.42,0.19,0.44,0.49h0.05c0.25,0,0.83-0.4,1.81-1.61
			l-0.79-3.95h-0.83l0.12-0.49h1.21l0.71,3.9c0.85-1.1,1.69-2.3,1.84-3c-0.21-0.06-0.43-0.24-0.43-0.53c0-0.23,0.2-0.45,0.48-0.45
			c0.29,0,0.52,0.21,0.52,0.62c0,0.77-0.65,1.81-2.27,3.88c-1.33,1.7-2.03,2.14-2.66,2.14C138.25,71.5,137.93,71.28,137.93,70.97z"
			/>
		<path fill="#FFFFFF" d="M144.27,67.31c-0.01,0.1-0.01,0.19-0.01,0.29c0,0.92,0.75,1.39,1.5,1.39c0.52,0,0.89-0.11,1.46-0.41
			l-0.13,0.57c-0.47,0.23-0.85,0.33-1.43,0.33c-1.03,0-1.96-0.67-1.96-1.86c0-1.5,1.17-2.75,2.49-2.75c1,0,1.62,0.63,1.62,1.58
			c0,0.27-0.06,0.56-0.18,0.88H144.27z M144.37,66.85h2.84c0.05-0.16,0.08-0.34,0.08-0.51c0-0.5-0.34-0.98-1.14-0.98
			C145.37,65.36,144.65,65.99,144.37,66.85z"/>
		<path fill="#FFFFFF" d="M149.3,65.43h-0.85l0.13-0.49h1.36l-0.3,1.21c0.59-0.81,1.09-1.29,1.5-1.29c0.35,0,0.54,0.2,0.54,0.47
			c0,0.29-0.23,0.52-0.5,0.52c-0.24,0-0.41-0.15-0.47-0.36c-0.36,0.21-1.13,0.91-1.39,1.96l-0.49,1.95h-0.55L149.3,65.43z"/>
	</g>
	<g>
		<path fill="#FFFFFF" d="M100.75,17.2h-0.74l0.13-0.53h2.14l-0.13,0.53h-0.87l0.15,5.46l2.89-5.09h0.25l0.58,5.1l2.88-5.47h-0.85
			l0.13-0.53h2.13l-0.13,0.53h-0.7l-3.48,6.55h-0.34l-0.61-4.94l-2.86,4.94h-0.34L100.75,17.2z"/>
		<path fill="#FFFFFF" d="M108.52,21.56c-0.01,0.1-0.01,0.19-0.01,0.29c0,0.92,0.75,1.39,1.5,1.39c0.52,0,0.89-0.11,1.46-0.41
			l-0.13,0.57c-0.47,0.23-0.85,0.33-1.43,0.33c-1.03,0-1.96-0.67-1.96-1.86c0-1.5,1.17-2.75,2.49-2.75c1,0,1.62,0.63,1.62,1.58
			c0,0.28-0.06,0.56-0.18,0.88H108.52z M108.62,21.09h2.84c0.05-0.16,0.08-0.34,0.08-0.51c0-0.5-0.34-0.98-1.14-0.98
			C109.62,19.6,108.9,20.24,108.62,21.09z"/>
		<path fill="#FFFFFF" d="M114.34,21.88c0-1.51,1.1-2.77,2.38-2.77c0.8,0,1.33,0.44,1.46,1.15l0.26-1.12H119l-0.83,3.39
			c-0.04,0.17-0.07,0.34-0.07,0.42c0,0.21,0.14,0.35,0.33,0.35c0.23,0,0.41-0.21,0.61-0.7l0.33,0.11c-0.21,0.62-0.53,0.99-1.02,0.99
			c-0.47,0-0.78-0.3-0.78-0.71v-0.18c-0.39,0.52-0.94,0.91-1.59,0.91C115.02,23.72,114.34,23.02,114.34,21.88z M117.97,20.94
			c0-0.79-0.42-1.33-1.23-1.33c-1.07,0-1.81,1.11-1.81,2.26c0,0.83,0.4,1.35,1.16,1.35C117.25,23.22,117.97,21.93,117.97,20.94z"/>
		<path fill="#FFFFFF" d="M120.79,19.68h-0.85l0.13-0.49h1.36l-0.3,1.21c0.59-0.81,1.09-1.29,1.5-1.29c0.35,0,0.54,0.2,0.54,0.47
			c0,0.29-0.23,0.52-0.5,0.52c-0.24,0-0.41-0.15-0.47-0.36c-0.36,0.21-1.13,0.91-1.39,1.96l-0.49,1.95h-0.55L120.79,19.68z"/>
		<path fill="#FFFFFF" d="M123.53,21.56c-0.01,0.1-0.01,0.19-0.01,0.29c0,0.92,0.75,1.39,1.5,1.39c0.52,0,0.89-0.11,1.46-0.41
			l-0.13,0.57c-0.47,0.23-0.85,0.33-1.43,0.33c-1.03,0-1.96-0.67-1.96-1.86c0-1.5,1.17-2.75,2.49-2.75c1,0,1.62,0.63,1.62,1.58
			c0,0.28-0.06,0.56-0.18,0.88H123.53z M123.63,21.09h2.84c0.05-0.16,0.08-0.34,0.08-0.51c0-0.5-0.34-0.98-1.14-0.98
			C124.63,19.6,123.91,20.24,123.63,21.09z"/>
		<path fill="#FFFFFF" d="M129.35,21.88c0-1.51,1.1-2.77,2.38-2.77c0.8,0,1.33,0.44,1.46,1.15l0.26-1.12h0.55l-0.83,3.39
			c-0.04,0.17-0.07,0.34-0.07,0.42c0,0.21,0.14,0.35,0.33,0.35c0.23,0,0.41-0.21,0.61-0.7l0.33,0.11c-0.21,0.62-0.53,0.99-1.02,0.99
			c-0.47,0-0.78-0.3-0.78-0.71v-0.18c-0.39,0.52-0.94,0.91-1.59,0.91C130.03,23.72,129.35,23.02,129.35,21.88z M132.98,20.94
			c0-0.79-0.42-1.33-1.23-1.33c-1.07,0-1.81,1.11-1.81,2.26c0,0.83,0.4,1.35,1.16,1.35C132.26,23.22,132.98,21.93,132.98,20.94z"/>
	</g>
</g>
<g>
	<g>
		<g>
			<path fill="#A3A3A2" d="M67.66,5.12h-0.46c-0.09,0-0.18,0-0.18-0.09l-0.73-1.1L66.2,3.84l-0.18,0h-0.27v1.28H65.2v-3.2h1.01
				c0.18,0,0.37,0,0.55,0.09c0.18,0.09,0.27,0.09,0.37,0.18s0.18,0.18,0.18,0.27c0.09,0.09,0.09,0.27,0.09,0.37
				c0,0.09,0,0.18-0.09,0.27s-0.09,0.18-0.18,0.27c-0.09,0.09-0.18,0.18-0.27,0.18c-0.09,0.09-0.18,0.09-0.27,0.18
				c0.09,0,0.09,0.09,0.18,0.18L67.66,5.12z M66.11,3.47c0.09,0,0.18,0,0.27-0.09c0.09-0.09,0.18-0.09,0.18-0.09
				s0.09-0.09,0.18-0.18s0.09-0.18,0.09-0.27c0-0.18-0.09-0.27-0.18-0.37c-0.09-0.09-0.27-0.18-0.55-0.18h-0.46v1.19L66.11,3.47
				L66.11,3.47z"/>
		</g>
		<path fill="#A3A3A2" d="M66.29,0c-2.01,0-3.66,1.65-3.66,3.66s1.65,3.66,3.66,3.66c2.01,0,3.66-1.65,3.66-3.66S68.3,0,66.29,0z
			 M66.29,6.77c-1.74,0-3.11-1.37-3.11-3.11s1.37-3.11,3.11-3.11s3.11,1.37,3.11,3.11S68.03,6.77,66.29,6.77z"/>
	</g>
	<g>
		<g>
			<polygon fill="#A3A3A2" points="39.96,38.95 39.96,60.17 18.74,60.17 			"/>
			<polygon fill="#A3A3A2" points="0,20.21 21.21,20.21 0,41.42 			"/>
			<polygon fill="#A3A3A2" points="0,0.27 59.89,0.27 59.89,60.17 44.99,60.17 44.99,26.88 11.7,60.17 0,60.17 0,48.55 33.28,15.27 
				0,15.27 			"/>
		</g>
		<path fill="#A3A3A2" d="M8.23,65.38C8.41,65.2,8.5,65.1,8.78,65.1h1.92v9.51H8.23v-5.85l0,0l-2.01,2.56H4.75
			c-0.18,0-0.27-0.09-0.46-0.18l-1.83-2.29l0,0v5.85H0V65.2h2.1c0.27,0,0.37,0,0.55,0.27l2.74,3.47h0.09L8.23,65.38z M15.18,65.2
			h2.56c0.18,0,0.18,0,0.27,0.18l3.75,9.33h-2.38c-0.18,0-0.27,0-0.37-0.18l-0.55-1.46h-3.84l-0.46,1.37
			c-0.09,0.18-0.09,0.18-0.27,0.18h-2.38L15.18,65.2z M16.55,67.57c-0.09,0.55-0.37,1.37-0.82,2.74l-0.27,0.82h2.29l-0.27-0.82
			C16.92,68.85,16.64,68.12,16.55,67.57L16.55,67.57z M22.68,74.71V65.2h3.47c1.92,0,3.47,0.46,4.48,1.46
			c0.73,0.73,1.19,1.92,1.19,3.38c0,1.46-0.46,2.56-1.19,3.29c-1.01,1.01-2.56,1.46-4.48,1.46C26.15,74.71,22.68,74.71,22.68,74.71z
			 M26.15,72.51c1.1,0,1.92-0.09,2.38-0.55c0.46-0.37,0.73-1.01,0.73-2.01c0-1.01-0.27-1.65-0.73-2.01
			c-0.55-0.46-1.28-0.55-2.38-0.55h-0.82v5.03L26.15,72.51L26.15,72.51z M40.69,65.2v2.1h-4.85v1.55h4.39v2.1h-4.39v1.65h4.94v2.1
			h-7.5V65.2H40.69L40.69,65.2z M48.46,74.71H45.9V65.2h2.56V74.71z M52.76,65.2c0.18,0,0.27,0,0.46,0.18l2.74,3.38
			c0.64,0.82,1.28,1.65,1.55,2.01l0,0V65.1h2.38v9.51h-1.83c-0.18,0-0.27,0-0.46-0.18l-2.74-3.47c-0.64-0.73-1.28-1.65-1.55-2.01
			l0,0v5.67h-2.38V65.1L52.76,65.2L52.76,65.2z M0,76.81h4.48c1.37,0,2.19,0.18,2.74,0.73c0.46,0.37,0.64,1.01,0.64,1.65
			c0,0.73-0.37,1.46-0.91,1.92c0.91,0.37,1.46,1.1,1.46,2.19c0,0.91-0.27,1.55-0.82,2.01c-0.64,0.64-1.65,0.91-3.02,0.91H0V76.81z
			 M4.85,80.56c0.18,0,0.27,0,0.37-0.18c0.09-0.18,0.18-0.55,0.18-0.73c0-0.27-0.09-0.46-0.18-0.64c-0.18-0.09-0.46-0.18-0.82-0.18
			H2.56v1.74H4.85z M2.56,84.22h2.19c0.46,0,0.73-0.09,0.82-0.18c0.09-0.09,0.18-0.37,0.18-0.73c0-0.27-0.09-0.46-0.18-0.64
			c0-0.18-0.27-0.18-0.73-0.18H2.56V84.22z M13.08,86.32h-2.56v-9.51h4.21c1.55,0,2.65,0.27,3.29,0.91
			c0.55,0.55,0.82,1.28,0.82,2.19c0,1.37-0.73,2.38-1.55,2.93l2.1,3.47h-2.56c-0.18,0-0.27,0-0.46-0.27l-1.46-2.47
			c-0.18-0.27-0.18-0.27-0.46-0.27h-1.37L13.08,86.32L13.08,86.32z M15.54,81.29c0.27,0,0.37-0.09,0.55-0.27
			c0.18-0.27,0.18-0.73,0.18-1.01c0-0.37-0.09-0.73-0.27-0.82c-0.18-0.18-0.55-0.27-1.19-0.27h-1.65v2.38H15.54L15.54,81.29z
			 M23.77,86.32h-2.56v-9.51h2.56V86.32z M28.53,78.91h-3.2v-2.1h8.96v2.1h-3.2v7.41h-2.56V78.91L28.53,78.91z M37.67,76.81h2.56
			c0.18,0,0.18,0,0.27,0.18l3.75,9.33h-2.47c-0.18,0-0.27,0-0.27-0.18l-0.55-1.37h-3.75l-0.46,1.28c-0.09,0.18-0.09,0.18-0.27,0.18
			h-2.38L37.67,76.81z M39.04,79.19c-0.09,0.55-0.37,1.37-0.82,2.74l-0.27,0.82h2.29l-0.27-0.82
			C39.41,80.47,39.14,79.73,39.04,79.19L39.04,79.19z M48.46,86.32H45.9v-9.51h2.56V86.32z M52.76,76.81c0.18,0,0.27,0,0.46,0.18
			l2.74,3.38c0.64,0.82,1.28,1.65,1.55,2.01l0,0v-5.67h2.38v9.51h-1.83c-0.18,0-0.27,0-0.46-0.18l-2.74-3.47
			c-0.64-0.73-1.28-1.65-1.55-2.01l0,0v5.67h-2.38v-9.42H52.76L52.76,76.81z"/>
	</g>
</g>
</svg>
