<?xml version="1.0" encoding="utf-8"?>
<!-- Generator: Adobe Illustrator 25.2.1, SVG Export Plug-In . SVG Version: 6.00 Build 0)  -->
<svg version="1.1" id="Layer_1" xmlns="http://www.w3.org/2000/svg" xmlns:xlink="http://www.w3.org/1999/xlink" x="0px" y="0px"
	 width="82.08px" height="100px" viewBox="0 0 82.08 100" enable-background="new 0 0 82.08 100" xml:space="preserve">
<rect x="-8.96" y="8.96" transform="matrix(-1.836970e-16 1 -1 -1.836970e-16 91.0377 8.9623)" fill="#FFFFFF" width="100" height="82.08"/>
<g>
	<g>
		<path fill="#567B91" d="M76.76,8.45h-0.52c-0.1,0-0.18-0.04-0.22-0.12l-0.83-1.2c-0.03-0.04-0.06-0.07-0.09-0.09
			c-0.03-0.02-0.08-0.03-0.15-0.03h-0.32v1.44h-0.58V4.88h1.05c0.23,0,0.44,0.02,0.61,0.07c0.17,0.05,0.31,0.12,0.42,0.2
			c0.11,0.09,0.19,0.19,0.24,0.32c0.05,0.12,0.08,0.26,0.08,0.41c0,0.12-0.02,0.24-0.06,0.35s-0.09,0.2-0.16,0.29
			c-0.07,0.09-0.16,0.16-0.26,0.23c-0.1,0.06-0.22,0.11-0.35,0.15c0.07,0.04,0.13,0.1,0.18,0.18L76.76,8.45z M75.08,6.59
			c0.13,0,0.25-0.02,0.35-0.05c0.1-0.03,0.18-0.08,0.25-0.14c0.07-0.06,0.12-0.13,0.15-0.21c0.03-0.08,0.05-0.17,0.05-0.27
			c0-0.2-0.06-0.34-0.19-0.45c-0.13-0.1-0.32-0.15-0.59-0.15h-0.47v1.26H75.08z"/>
	</g>
	<path fill="#567B91" d="M75.28,2.83c-2.19,0-3.96,1.77-3.96,3.96s1.77,3.96,3.96,3.96s3.96-1.77,3.96-3.96S77.47,2.83,75.28,2.83z
		 M75.28,10.23c-1.9,0-3.44-1.54-3.44-3.44s1.54-3.44,3.44-3.44s3.44,1.54,3.44,3.44S77.18,10.23,75.28,10.23z"/>
</g>
<g>
	<g>
		<polygon fill="#567A91" points="46.5,45.39 46.5,68.6 23.29,68.6 		"/>
		<polygon fill="#567A91" points="2.84,24.94 26.05,24.94 2.84,48.15 		"/>
		<polygon fill="#ED1A38" points="2.84,3.11 68.33,3.11 68.33,68.6 51.96,68.6 51.96,32.22 15.57,68.6 2.84,68.6 2.84,55.87 
			39.22,19.48 2.84,19.48 		"/>
	</g>
	<path fill="#567A91" d="M11.77,74.33c0.19-0.24,0.27-0.27,0.58-0.27h2.12v10.4h-2.68v-6.42h-0.02l-2.21,2.75H8
		c-0.24,0-0.34-0.05-0.47-0.2l-2.01-2.54H5.51v6.42H2.84v-10.4H5.1c0.31,0,0.39,0.03,0.58,0.27l3.03,3.78h0.05L11.77,74.33z
		 M19.38,74.06h2.78c0.19,0,0.25,0.02,0.33,0.24l4.14,10.17h-2.67c-0.19,0-0.27-0.03-0.35-0.24l-0.57-1.49h-4.16l-0.5,1.49
		c-0.06,0.2-0.14,0.24-0.33,0.24h-2.57L19.38,74.06z M20.87,76.71c-0.11,0.56-0.42,1.52-0.93,2.97l-0.28,0.88h2.54l-0.31-0.88
		c-0.58-1.54-0.88-2.38-1-2.97H20.87z M27.65,84.46v-10.4h3.8c2.13,0,3.8,0.46,4.9,1.55c0.83,0.83,1.32,2.06,1.32,3.66
		c0,1.6-0.49,2.81-1.32,3.64c-1.1,1.1-2.76,1.55-4.9,1.55H27.65z M31.37,82.06c1.21,0,2.06-0.13,2.62-0.63
		c0.49-0.42,0.77-1.1,0.77-2.17c0-1.07-0.28-1.76-0.77-2.18c-0.56-0.5-1.41-0.63-2.62-0.63h-0.93v5.6H31.37z M47.29,74.06v2.31H42
		v1.71h4.82v2.26H42v1.82h5.43v2.31h-8.22v-10.4H47.29z M55.75,84.46h-2.79v-10.4h2.79V84.46z M60.53,74.06
		c0.25,0,0.35,0.03,0.49,0.2l3,3.73c0.72,0.91,1.43,1.82,1.71,2.23h0.02v-6.17h2.6v10.4h-1.99c-0.25,0-0.35-0.03-0.49-0.2
		l-3.03-3.77c-0.66-0.82-1.43-1.77-1.73-2.23h-0.02v6.2h-2.6v-10.4H60.53z M2.84,86.77h4.88c1.52,0,2.39,0.24,3,0.83
		c0.46,0.44,0.71,1.11,0.71,1.8c0,0.83-0.41,1.62-0.96,2.12c0.96,0.41,1.62,1.24,1.62,2.45c0,0.96-0.31,1.69-0.85,2.21
		c-0.69,0.67-1.8,0.99-3.34,0.99H2.84V86.77z M8.09,90.92c0.19,0,0.31-0.03,0.41-0.19c0.11-0.17,0.17-0.55,0.17-0.8
		c0-0.31-0.06-0.53-0.2-0.67c-0.17-0.17-0.44-0.22-0.88-0.22H5.63v1.88H8.09z M5.63,94.89h2.45c0.47,0,0.75-0.06,0.93-0.24
		c0.14-0.14,0.24-0.42,0.24-0.78c0-0.33-0.08-0.53-0.22-0.67c-0.17-0.17-0.44-0.24-0.94-0.24H5.63V94.89z M17.14,97.17h-2.79v-10.4
		h4.55c1.74,0,2.89,0.28,3.61,0.99c0.56,0.56,0.89,1.4,0.89,2.43c0,1.48-0.77,2.6-1.73,3.22l2.34,3.77h-2.78
		c-0.25,0-0.33-0.03-0.47-0.27l-1.59-2.7c-0.17-0.28-0.2-0.31-0.5-0.31h-1.54V97.17z M19.78,91.68c0.27,0,0.41-0.05,0.56-0.28
		c0.17-0.27,0.24-0.75,0.24-1.07c0-0.38-0.13-0.75-0.3-0.93c-0.25-0.24-0.64-0.3-1.33-0.3h-1.8v2.57H19.78z M28.81,97.17h-2.79
		v-10.4h2.79V97.17z M34.04,89.07h-3.48v-2.31h9.76v2.31h-3.48v8.1h-2.79V89.07z M43.98,86.77h2.78c0.19,0,0.25,0.02,0.33,0.24
		l4.14,10.17h-2.67c-0.19,0-0.27-0.03-0.35-0.24l-0.56-1.49H43.5l-0.5,1.49c-0.06,0.2-0.14,0.24-0.33,0.24h-2.57L43.98,86.77z
		 M45.47,89.42c-0.11,0.56-0.42,1.52-0.93,2.97l-0.28,0.88h2.54l-0.31-0.88c-0.58-1.54-0.88-2.38-1-2.97H45.47z M55.75,97.17h-2.79
		v-10.4h2.79V97.17z M60.53,86.77c0.25,0,0.35,0.03,0.49,0.2l3,3.73c0.72,0.91,1.43,1.82,1.71,2.23h0.02v-6.17h2.6v10.4h-1.99
		c-0.25,0-0.35-0.03-0.49-0.2l-3.03-3.77c-0.66-0.82-1.43-1.77-1.73-2.23h-0.02v6.2h-2.6v-10.4H60.53z"/>
</g>
</svg>
