<?xml version="1.0" encoding="utf-8"?>
<!-- Generator: Adobe Illustrator 25.2.1, SVG Export Plug-In . SVG Version: 6.00 Build 0)  -->
<svg version="1.1" id="Layer_1" xmlns="http://www.w3.org/2000/svg" xmlns:xlink="http://www.w3.org/1999/xlink" x="0px" y="0px"
	 width="82.1px" height="100px" viewBox="0 0 82.1 100" style="enable-background:new 0 0 82.1 100;" xml:space="preserve">
<style type="text/css">
	.st0{fill:#A3A3A3;}
</style>
<g>
	<g>
		<path class="st0" d="M76.8,8.4h-0.5c-0.1,0-0.2,0-0.2-0.1l-0.8-1.2c0,0-0.1-0.1-0.1-0.1S75,7,75,7h-0.3v1.4h-0.6V4.9h1.1
			c0.2,0,0.4,0,0.6,0.1s0.3,0.1,0.4,0.2c0.1,0.1,0.2,0.2,0.2,0.3c0.1,0.1,0.1,0.3,0.1,0.4c0,0.1,0,0.2-0.1,0.3s-0.1,0.2-0.2,0.3
			c-0.1,0.1-0.2,0.2-0.3,0.2c-0.1,0.1-0.2,0.1-0.3,0.2c0.1,0,0.1,0.1,0.2,0.2L76.8,8.4z M75.1,6.6c0.1,0,0.2,0,0.3-0.1
			s0.2-0.1,0.2-0.1s0.1-0.1,0.2-0.2s0.1-0.2,0.1-0.3c0-0.2-0.1-0.3-0.2-0.4c-0.1-0.1-0.3-0.2-0.6-0.2h-0.5v1.3L75.1,6.6L75.1,6.6z"
			/>
	</g>
	<path class="st0" d="M75.3,2.8c-2.2,0-4,1.8-4,4s1.8,4,4,4s4-1.8,4-4S77.5,2.8,75.3,2.8z M75.3,10.2c-1.9,0-3.4-1.5-3.4-3.4
		s1.5-3.4,3.4-3.4s3.4,1.5,3.4,3.4S77.2,10.2,75.3,10.2z"/>
</g>
<g>
	<g>
		<polygon class="st0" points="46.5,45.4 46.5,68.6 23.3,68.6 		"/>
		<polygon class="st0" points="2.8,24.9 26,24.9 2.8,48.1 		"/>
		<polygon class="st0" points="2.8,3.1 68.3,3.1 68.3,68.6 52,68.6 52,32.2 15.6,68.6 2.8,68.6 2.8,55.9 39.2,19.5 2.8,19.5 		"/>
	</g>
	<path class="st0" d="M11.8,74.3c0.2-0.2,0.3-0.3,0.6-0.3h2.1v10.4h-2.7V78h0l-2.2,2.8H8c-0.2,0-0.3-0.1-0.5-0.2l-2-2.5h0v6.4H2.8
		V74.1h2.3c0.3,0,0.4,0,0.6,0.3l3,3.8h0.1L11.8,74.3z M19.4,74.1h2.8c0.2,0,0.2,0,0.3,0.2l4.1,10.2H24c-0.2,0-0.3,0-0.4-0.2L23,82.7
		h-4.2l-0.5,1.5c-0.1,0.2-0.1,0.2-0.3,0.2h-2.6L19.4,74.1z M20.9,76.7c-0.1,0.6-0.4,1.5-0.9,3l-0.3,0.9h2.5l-0.3-0.9
		C21.3,78.1,21,77.3,20.9,76.7L20.9,76.7z M27.6,84.5V74.1h3.8c2.1,0,3.8,0.5,4.9,1.6c0.8,0.8,1.3,2.1,1.3,3.7
		c0,1.6-0.5,2.8-1.3,3.6c-1.1,1.1-2.8,1.6-4.9,1.6C31.4,84.5,27.6,84.5,27.6,84.5z M31.4,82.1c1.2,0,2.1-0.1,2.6-0.6
		c0.5-0.4,0.8-1.1,0.8-2.2s-0.3-1.8-0.8-2.2c-0.6-0.5-1.4-0.6-2.6-0.6h-0.9V82L31.4,82.1L31.4,82.1z M47.3,74.1v2.3H42v1.7h4.8v2.3
		H42v1.8h5.4v2.3h-8.2V74.1L47.3,74.1L47.3,74.1z M55.8,84.5H53V74.1h2.8V84.5z M60.5,74.1c0.2,0,0.3,0,0.5,0.2l3,3.7
		c0.7,0.9,1.4,1.8,1.7,2.2h0V74h2.6v10.4h-2c-0.2,0-0.3,0-0.5-0.2l-3-3.8c-0.7-0.8-1.4-1.8-1.7-2.2h0v6.2h-2.6V74L60.5,74.1
		L60.5,74.1z M2.8,86.8h4.9c1.5,0,2.4,0.2,3,0.8c0.5,0.4,0.7,1.1,0.7,1.8c0,0.8-0.4,1.6-1,2.1c1,0.4,1.6,1.2,1.6,2.4
		c0,1-0.3,1.7-0.9,2.2c-0.7,0.7-1.8,1-3.3,1H2.8V86.8z M8.1,90.9c0.2,0,0.3,0,0.4-0.2c0.1-0.2,0.2-0.6,0.2-0.8
		c0-0.3-0.1-0.5-0.2-0.7C8.3,89.1,8,89,7.6,89h-2v1.9C5.6,90.9,8.1,90.9,8.1,90.9z M5.6,94.9h2.4c0.5,0,0.8-0.1,0.9-0.2
		c0.1-0.1,0.2-0.4,0.2-0.8c0-0.3-0.1-0.5-0.2-0.7C8.9,93,8.6,93,8.1,93H5.6V94.9z M17.1,97.2h-2.8V86.8h4.6c1.7,0,2.9,0.3,3.6,1
		c0.6,0.6,0.9,1.4,0.9,2.4c0,1.5-0.8,2.6-1.7,3.2l2.3,3.8h-2.8c-0.2,0-0.3,0-0.5-0.3l-1.6-2.7c-0.2-0.3-0.2-0.3-0.5-0.3h-1.5
		L17.1,97.2L17.1,97.2z M19.8,91.7c0.3,0,0.4-0.1,0.6-0.3c0.2-0.3,0.2-0.8,0.2-1.1c0-0.4-0.1-0.8-0.3-0.9c-0.2-0.2-0.6-0.3-1.3-0.3
		h-1.8v2.6L19.8,91.7L19.8,91.7z M28.8,97.2H26V86.8h2.8C28.8,86.8,28.8,97.2,28.8,97.2z M34,89.1h-3.5v-2.3h9.8v2.3h-3.5v8.1H34
		L34,89.1L34,89.1z M44,86.8h2.8c0.2,0,0.2,0,0.3,0.2l4.1,10.2h-2.7c-0.2,0-0.3,0-0.3-0.2l-0.6-1.5h-4.1L43,96.9
		c-0.1,0.2-0.1,0.2-0.3,0.2h-2.6L44,86.8z M45.5,89.4c-0.1,0.6-0.4,1.5-0.9,3l-0.3,0.9h2.5l-0.3-0.9C45.9,90.8,45.6,90,45.5,89.4
		L45.5,89.4z M55.8,97.2H53V86.8h2.8V97.2z M60.5,86.8c0.2,0,0.3,0,0.5,0.2l3,3.7c0.7,0.9,1.4,1.8,1.7,2.2h0v-6.2h2.6v10.4h-2
		c-0.2,0-0.3,0-0.5-0.2l-3-3.8c-0.7-0.8-1.4-1.8-1.7-2.2h0v6.2h-2.6V86.8L60.5,86.8L60.5,86.8z"/>
</g>
</svg>
