<svg id="Layer_1" data-name="Layer 1" xmlns="http://www.w3.org/2000/svg" width="70mm" height="70mm" viewBox="0 0 198.43 198.43">
  <title>e001</title>
  <g id="symbolgrp">
    <polygon points="198.43 198.43 198.43 0 0 0 0 198.43 198.43 198.43 198.43 198.43" fill="#099146" fill-rule="evenodd"/>
    <path d="M356.85,479.71v25.8l13.09,13.09H250.69l-13.25-13.25.05-170.44H356.61V457.55a21,21,0,0,1,15.18,6.51c3,3,8,15.81,8,15.81l-22.91-.16Z" transform="translate(-197.9 -321.79)" fill="#fff" fill-rule="evenodd"/>
    <path d="M280.69,380.16A14.17,14.17,0,1,0,266.52,366a14.17,14.17,0,0,0,14.17,14.17Z" transform="translate(-197.9 -321.79)" fill="#099146" fill-rule="evenodd"/>
    <path d="M304.88,438.24s-26.32,51.48-29.05,56.2-6.19,5.14-8.39,5.14H253.81l34.51-70.36L277.51,406s-8.6,11.54-11.54,14.68a7.26,7.26,0,0,1-5.35,2.41H235.29V409.58h21.14S266.92,396.36,270.9,391c4.41-5.92,8.4-7.69,17.2-7.69h29c5.35,0,13.35-.25,17.06,5.24l12.48,20.8v0a6.77,6.77,0,1,1-11.41,7.28l.34.46s-11-17.67-11.38-18.93a2.64,2.64,0,0,0-2.52-1.89H307.4l11.43,22.58c4.09,8.6,3.88,24.86,3.88,24.86l1.36,14.16c0,1.69,1,2.2,1.78,2.2h22.23c11.64,0,17.28,2.39,20.87,6s4.93,10,4.93,10H318.52c-7.34,0-10.17-3.78-10.59-6.71l-1.25-12.6-1.79-18.13v-.32Z" transform="translate(-197.9 -321.79)" fill="#099146" fill-rule="evenodd"/>
    <path d="M273.14,519.07l-16.37-15.59h14.81c2.2,0,6.66,2.79,11.35,7.48s8.29,8,8.29,8l-18.08.16Z" transform="translate(-197.9 -321.79)" fill="#099146" fill-rule="evenodd"/>
    <polygon points="186.29 197.61 42.1 197.61 42.1 196.12 186.29 196.12 186.29 197.61 186.29 197.61" fill="#099146" fill-rule="evenodd"/>
  </g>
</svg>
