<svg id="Layer_1" data-name="Layer 1" xmlns="http://www.w3.org/2000/svg" width="70mm" height="70mm" viewBox="0 0 198.43 198.43">
  <title>e002</title>
  <g id="symbolgrp">
    <polygon points="0 198.43 0 0 198.43 0 198.43 198.43 0 198.43 0 198.43" fill="#099146" fill-rule="evenodd"/>
    <path d="M237.39,479.71v25.8L224.3,518.6H343.55l13.25-13.25-.05-170.44H237.63V457.55a21,21,0,0,0-15.18,6.51c-3,3-8,15.81-8,15.81l22.92-.16Z" transform="translate(-197.9 -321.8)" fill="#fff" fill-rule="evenodd"/>
    <path d="M313.55,380.16A14.17,14.17,0,1,1,327.72,366a14.17,14.17,0,0,1-14.17,14.17Z" transform="translate(-197.9 -321.8)" fill="#099146" fill-rule="evenodd"/>
    <path d="M289.36,438.24s26.32,51.48,29.05,56.2,6.19,5.14,8.39,5.14h13.63l-34.51-70.36L316.73,406s8.6,11.54,11.54,14.68a7.26,7.26,0,0,0,5.35,2.41H359V409.58H337.81S327.32,396.36,323.34,391c-4.41-5.92-8.4-7.69-17.2-7.69h-29c-5.35,0-13.35-.25-17.06,5.24l-12.48,20.8v0a6.76,6.76,0,1,0,11.4,7.28l-.34.46s11-17.67,11.38-18.93a2.64,2.64,0,0,1,2.52-1.89h14.26l-11.43,22.58c-4.09,8.6-3.88,24.86-3.88,24.86l-1.36,14.16c0,1.69-1,2.2-1.78,2.2H246.15c-11.64,0-17.28,2.39-20.87,6s-4.93,10-4.93,10h55.37c7.34,0,10.17-3.78,10.59-6.71l1.25-12.6,1.79-18.13v-.32Z" transform="translate(-197.9 -321.8)" fill="#099146" fill-rule="evenodd"/>
    <path d="M321.1,519.07l16.37-15.59H322.66c-2.2,0-6.66,2.79-11.35,7.48s-8.29,8-8.29,8l18.08.16Z" transform="translate(-197.9 -321.8)" fill="#099146" fill-rule="evenodd"/>
    <polygon points="165.1 197.31 20.91 197.31 20.91 195.82 165.1 195.82 165.1 197.31 165.1 197.31" fill="#099146" fill-rule="evenodd"/>
  </g>
</svg>
