<svg id="Layer_1" data-name="Layer 1" xmlns="http://www.w3.org/2000/svg" width="70mm" height="70mm" viewBox="0 0 198.43 198.43">
  <title>e004</title>
  <g id="symbolgrp">
    <polygon points="198.43 198.43 198.43 0 0 0 0 198.43 198.43 198.43 198.43 198.43" fill="#099146" fill-rule="evenodd"/>
    <path d="M267.92,464.29a17.51,17.51,0,0,1-3.58-4.85c-3.16-6.53-7.66-21.14-12.64-34.91-6.32-17.49-10.82-34.91-10.82-34.91s2.25-3.37,5.41-2.6a71,71,0,0,0,8.15,1.26L245,341.94s-9.34-.14-16.22,3.09A38.73,38.73,0,0,0,217,353.88a208.42,208.42,0,0,0-.91,33.15c1.05,21.56,8.15,43.69,8.15,43.69s7.59,23.6,19.81,41.09a124.34,124.34,0,0,0,30.2,30.48,128.33,128.33,0,0,0,20.3-4.43,60.68,60.68,0,0,0,14.47-7l-31.61-35.4-9.48,8.85Z" transform="translate(-197.9 -321.79)" fill="#fff" fill-rule="evenodd"/>
    <path d="M263.42,386.12a10.08,10.08,0,0,0,4.07-3.51s-2.46-11.24-5-22.12c-2.18-9.55-4.49-19-4.49-19a5.48,5.48,0,0,0-3.16-1.76,22,22,0,0,0-6.74.84l9.48,45.51a11.16,11.16,0,0,0,5.83,0Z" transform="translate(-197.9 -321.79)" fill="#fff" fill-rule="evenodd"/>
    <path d="M318.41,480.65s-8.43-9.76-16.22-18.54c-6.53-7.37-12.15-14.33-12.15-14.33a14.45,14.45,0,0,0-5.9,1.47,11,11,0,0,0-3.58,4l31.6,35.33a19.62,19.62,0,0,0,5.41-4,4.86,4.86,0,0,0,.84-3.93Z" transform="translate(-197.9 -321.79)" fill="#fff" fill-rule="evenodd"/>
    <polygon points="180.54 34.41 180.54 50.95 164 50.95 164 67.49 147.49 67.49 147.49 50.95 130.94 50.95 130.94 34.41 147.49 34.41 147.49 17.88 164 17.88 164 34.41 180.54 34.41 180.54 34.41" fill="#fff" fill-rule="evenodd"/>
  </g>
</svg>
