<svg id="Layer_1" data-name="Layer 1" xmlns="http://www.w3.org/2000/svg" width="70mm" height="70mm" viewBox="0 0 198.42 198.42">
  <title>e007</title>
  <g id="symbolgrp">
    <polygon points="0 198.43 198.42 198.43 198.42 0 0 0 0 198.43 0 198.43" fill="#099146" fill-rule="evenodd"/>
    <polygon points="132.41 85.61 132.41 110.05 132.38 110.45 132.3 110.84 132.17 111.22 132 111.58 131.77 111.9 131.52 112.22 131.22 112.47 130.88 112.7 130.52 112.87 130.13 113 129.75 113.09 129.35 113.11 128.95 113.09 128.55 113 128.18 112.87 127.81 112.7 127.48 112.47 127.18 112.22 126.91 111.9 126.7 111.58 126.51 111.22 126.39 110.84 126.31 110.45 126.29 110.05 126.29 86.18 126.26 86.02 126.19 85.87 126.07 85.75 125.92 85.67 125.76 85.65 125.59 85.67 125.44 85.75 125.32 85.87 125.25 86.02 125.22 86.18 125.22 143.2 125.2 143.61 125.12 144.03 124.99 144.44 124.82 144.82 124.6 145.18 124.35 145.52 124.05 145.82 123.71 146.08 123.35 146.29 122.97 146.46 122.56 146.59 122.14 146.66 121.72 146.69 121.3 146.66 120.88 146.59 120.48 146.46 120.1 146.29 119.73 146.08 119.4 145.82 119.1 145.52 118.85 145.18 118.63 144.82 118.45 144.44 118.33 144.03 118.25 143.61 118.22 143.2 118.22 108.74 118.2 108.58 118.12 108.43 118 108.31 117.86 108.24 117.69 108.22 117.52 108.24 117.38 108.31 117.26 108.43 117.18 108.58 117.17 108.74 117.17 143.2 117.14 143.61 117.06 144.03 116.94 144.44 116.76 144.82 116.54 145.18 116.28 145.52 115.98 145.82 115.65 146.08 115.28 146.29 114.9 146.46 114.5 146.59 114.08 146.66 113.66 146.69 113.25 146.66 112.82 146.59 112.42 146.46 112.03 146.29 111.68 146.08 111.33 145.82 111.04 145.52 110.78 145.18 110.56 144.82 110.39 144.44 110.27 144.03 110.19 143.61 110.17 143.2 110.17 86.18 110.14 86.02 110.07 85.87 109.94 85.75 109.8 85.67 109.62 85.65 109.47 85.67 109.31 85.75 109.2 85.87 109.13 86.02 109.1 86.18 109.1 110.05 109.07 110.45 109 110.84 108.87 111.22 108.68 111.58 108.47 111.9 108.2 112.22 107.9 112.47 107.57 112.7 107.2 112.87 106.83 113 106.43 113.09 106.03 113.11 105.63 113.09 105.25 113 104.86 112.87 104.51 112.7 104.17 112.47 103.87 112.22 103.61 111.9 103.38 111.58 103.21 111.22 103.08 110.84 103 110.45 102.97 110.05 102.97 85.61 103 84.91 103.08 84.21 103.22 83.53 103.41 82.86 103.65 82.2 103.94 81.58 104.28 80.97 104.67 80.38 105.11 79.84 105.58 79.33 106.09 78.86 106.63 78.42 107.22 78.03 107.83 77.69 108.46 77.4 109.11 77.16 109.78 76.98 110.47 76.83 111.16 76.75 111.86 76.72 123.53 76.72 124.22 76.75 124.92 76.83 125.6 76.98 126.27 77.16 126.93 77.4 127.55 77.69 128.17 78.03 128.75 78.42 129.29 78.86 129.81 79.33 130.28 79.84 130.72 80.38 131.1 80.97 131.45 81.58 131.73 82.2 131.97 82.86 132.16 83.53 132.3 84.21 132.38 84.91 132.41 85.61 132.41 85.61" fill="#fff" stroke="#099146" stroke-linecap="round" stroke-miterlimit="22.93" stroke-width="0.28" fill-rule="evenodd"/>
    <polygon points="86.58 76.72 74.91 76.72 74.21 76.75 73.51 76.83 72.82 76.98 72.15 77.16 71.5 77.4 70.87 77.69 70.26 78.03 69.69 78.42 69.13 78.86 68.62 79.33 68.15 79.84 67.72 80.38 67.34 80.97 67 81.58 66.69 82.2 66.45 82.86 66.27 83.53 66.13 84.21 66.05 84.91 66.03 85.61 66.03 110.05 66.05 110.45 66.13 110.84 66.25 111.22 66.42 111.58 66.65 111.9 66.92 112.22 67.22 112.47 67.55 112.7 67.91 112.87 68.29 113 68.68 113.09 69.08 113.11 69.49 113.09 69.87 113 70.26 112.87 70.61 112.7 70.94 112.47 71.24 112.22 71.51 111.9 71.73 111.58 71.91 111.22 72.04 110.84 72.11 110.45 72.14 110.05 72.14 86.18 72.17 86.02 72.24 85.87 72.37 85.75 72.51 85.67 72.68 85.65 72.84 85.67 73 85.75 73.11 85.87 73.18 86.02 73.21 86.18 73.21 143.2 73.24 143.61 73.31 144.03 73.44 144.44 73.61 144.82 73.82 145.18 74.09 145.52 74.39 145.82 74.72 146.08 75.08 146.29 75.46 146.46 75.87 146.59 76.29 146.66 76.7 146.69 77.13 146.66 77.54 146.59 77.94 146.46 78.34 146.29 78.7 146.08 79.02 145.82 79.32 145.52 79.58 145.18 79.81 144.82 79.98 144.44 80.11 144.03 80.18 143.61 80.21 143.2 80.21 108.74 80.23 108.58 80.31 108.43 80.42 108.31 80.58 108.24 80.73 108.22 80.91 108.24 81.05 108.31 81.18 108.43 81.25 108.58 81.28 108.74 81.28 143.2 81.29 143.61 81.38 144.03 81.5 144.44 81.67 144.82 81.89 145.18 82.14 145.52 82.44 145.82 82.79 146.08 83.14 146.29 83.53 146.46 83.93 146.59 84.35 146.66 84.77 146.69 85.19 146.66 85.61 146.59 86.01 146.46 86.39 146.29 86.76 146.08 87.09 145.82 87.39 145.52 87.65 145.18 87.86 144.82 88.05 144.44 88.16 144.03 88.25 143.61 88.27 143.2 88.27 86.18 88.29 86.02 88.37 85.87 88.49 85.75 88.63 85.67 88.8 85.65 88.97 85.67 89.11 85.75 89.23 85.87 89.31 86.02 89.33 86.18 89.33 110.05 89.36 110.45 89.44 110.84 89.57 111.22 89.74 111.58 89.97 111.9 90.23 112.22 90.53 112.47 90.87 112.7 91.22 112.87 91.61 113 91.99 113.09 92.39 113.11 92.79 113.09 93.19 113 93.56 112.87 93.92 112.7 94.26 112.47 94.56 112.22 94.81 111.9 95.04 111.58 95.23 111.22 95.36 110.84 95.43 110.45 95.46 110.05 95.46 85.61 95.43 84.91 95.34 84.21 95.22 83.53 95.02 82.86 94.77 82.2 94.49 81.58 94.15 80.97 93.76 80.38 93.33 79.84 92.85 79.33 92.33 78.86 91.79 78.42 91.21 78.03 90.61 77.69 89.97 77.4 89.31 77.16 88.64 76.98 87.96 76.83 87.28 76.75 86.58 76.72 86.58 76.72" fill="#fff" stroke="#099146" stroke-linecap="round" stroke-miterlimit="22.93" stroke-width="0.28" fill-rule="evenodd"/>
    <polygon points="49.22 17.89 49.22 41.21 25.9 17.89 17.89 25.91 41.21 49.23 17.89 49.23 28.53 59.85 59.85 59.85 59.85 28.52 49.22 17.89 49.22 17.89" fill="#fff" fill-rule="evenodd"/>
    <polygon points="180.53 49.23 157.23 49.23 180.53 25.91 172.52 17.89 149.2 41.21 149.2 17.89 138.57 28.52 138.57 59.85 169.91 59.85 180.53 49.23 180.53 49.23" fill="#fff" fill-rule="evenodd"/>
    <polygon points="180.53 172.51 157.23 149.21 180.53 149.21 169.91 138.57 138.57 138.57 138.57 169.91 149.2 180.53 149.2 157.23 172.52 180.53 180.53 172.51 180.53 172.51" fill="#fff" fill-rule="evenodd"/>
    <polygon points="28.53 138.57 59.85 138.57 59.85 169.91 49.22 180.53 49.22 157.23 25.9 180.53 17.89 172.51 41.21 149.21 17.89 149.21 28.53 138.57 28.53 138.57" fill="#fff" fill-rule="evenodd"/>
    <polygon points="86.86 68.86 86.83 68.29 86.76 67.73 86.62 67.18 86.45 66.65 86.22 66.12 85.94 65.64 85.62 65.17 85.27 64.73 84.87 64.33 84.43 63.97 83.95 63.65 83.47 63.37 82.94 63.15 82.42 62.96 81.86 62.83 81.3 62.76 80.73 62.73 80.18 62.76 79.61 62.83 79.07 62.96 78.53 63.15 78.01 63.37 77.51 63.65 77.04 63.97 76.61 64.33 76.22 64.73 75.86 65.17 75.53 65.64 75.26 66.12 75.03 66.65 74.85 67.18 74.72 67.73 74.65 68.29 74.62 68.86 74.65 69.41 74.72 69.98 74.85 70.52 75.03 71.07 75.26 71.58 75.53 72.08 75.86 72.55 76.22 72.97 76.61 73.37 77.04 73.74 77.51 74.06 78.01 74.34 78.53 74.57 79.07 74.74 79.61 74.87 80.18 74.95 80.73 74.98 81.3 74.95 81.86 74.87 82.42 74.74 82.94 74.57 83.47 74.34 83.95 74.06 84.43 73.74 84.87 73.37 85.27 72.97 85.62 72.55 85.94 72.08 86.22 71.58 86.45 71.07 86.62 70.52 86.76 69.98 86.83 69.41 86.86 68.86 86.86 68.86" fill="#fff" fill-rule="evenodd"/>
    <polygon points="123.82 68.86 123.79 68.29 123.71 67.73 123.58 67.18 123.41 66.65 123.18 66.12 122.89 65.64 122.58 65.17 122.21 64.73 121.81 64.33 121.38 63.97 120.91 63.65 120.41 63.37 119.9 63.15 119.37 62.96 118.82 62.83 118.26 62.76 117.69 62.73 117.12 62.76 116.56 62.83 116.01 62.96 115.48 63.15 114.97 63.37 114.47 63.65 114 63.97 113.57 64.33 113.17 64.73 112.8 65.17 112.49 65.64 112.22 66.12 111.97 66.65 111.81 67.18 111.68 67.73 111.59 68.29 111.56 68.86 111.59 69.41 111.68 69.98 111.81 70.52 111.97 71.07 112.22 71.58 112.49 72.08 112.8 72.55 113.17 72.97 113.57 73.37 114 73.74 114.47 74.06 114.97 74.34 115.48 74.57 116.01 74.74 116.56 74.87 117.12 74.95 117.69 74.98 118.26 74.95 118.82 74.87 119.37 74.74 119.9 74.57 120.41 74.34 120.91 74.06 121.38 73.74 121.81 73.37 122.21 72.97 122.58 72.55 122.89 72.08 123.18 71.58 123.41 71.07 123.58 70.52 123.71 69.98 123.79 69.41 123.82 68.86 123.82 68.86" fill="#fff" fill-rule="evenodd"/>
    <polygon points="105.33 57.52 105.31 56.95 105.23 56.39 105.11 55.84 104.92 55.31 104.69 54.78 104.42 54.3 104.09 53.83 103.74 53.39 103.34 52.99 102.91 52.63 102.44 52.31 101.94 52.03 101.43 51.81 100.89 51.62 100.35 51.49 99.78 51.42 99.22 51.39 98.65 51.42 98.09 51.49 97.54 51.62 97 51.81 96.48 52.03 96 52.31 95.53 52.63 95.09 52.99 94.69 53.39 94.33 53.83 94 54.3 93.73 54.78 93.5 55.31 93.33 55.84 93.19 56.39 93.12 56.95 93.09 57.52 93.12 58.08 93.19 58.65 93.33 59.19 93.5 59.73 93.73 60.24 94 60.74 94.33 61.21 94.69 61.64 95.09 62.03 95.53 62.41 96 62.72 96.48 63 97 63.23 97.54 63.4 98.09 63.53 98.65 63.62 99.22 63.65 99.78 63.62 100.35 63.53 100.89 63.4 101.43 63.23 101.94 63 102.44 62.72 102.91 62.41 103.34 62.03 103.74 61.64 104.09 61.21 104.42 60.74 104.69 60.24 104.92 59.73 105.11 59.19 105.23 58.65 105.31 58.08 105.33 57.52 105.33 57.52" fill="#fff" fill-rule="evenodd"/>
  </g>
</svg>
