<svg id="Layer_1" data-name="Layer 1" xmlns="http://www.w3.org/2000/svg" width="70mm" height="70mm" viewBox="0 0 198.43 198.43">
  <title>e008</title>
  <g id="symbolgrp">
    <polygon points="198.43 0 0 0 0 198.43 198.43 198.43 198.43 0 198.43 0" fill="#099146" fill-rule="evenodd"/>
    <path d="M315.46,383.36l-19.19-43.61L275.06,375.3l-59.31-19.39,30.14,51.89L216.9,453l38.64,2.32-2.09,46.88,38.71-31.26,42.24,30.14V475.81l-25-17.83L280,446.36,266.7,429.3H238.33l13-20.23h17.86l6.18-14,.31-.6.36-.62.43-.54.47-.51.5-.47.58-.4.61-.33.61-.29.65-.25.68-.15.68-.11h.68l.72,0,.68.11.65.18.65.22.65.29.58.36.54.44.54.47.43.51.11-.65.14-.69.22-.62.29-.62.36-.58.4-.55.47-.51.5-.44.58-.4L291,388l.65-.25.65-.18.65-.11.68,0,.68,0,.65.07.65.18.65.25.61.29.54.36.54.44.47.47,4.5,5.08L303,394l.18-.65.25-.58.29-.58.36-.54.4-.51.47-.47.5-.4.54-.36.58-.33.58-.25.65-.18.61-.15.65,0h.65l.65.07.65.11.61.18.61.25.54.33.54.36.5.4.47.47,1.33,1.52.29-.58.36-.51.43-.51.43-.44.5-.36.54-.36.58-.25.58-.22.61-.18.65-.07.61,0,.65,0,.61.11.61.18.58.22.58.29.5.36.5.4.43.47,11.88,13.36,1.26,4.47h22.9l-7.6,20.23h-9.62l2.12,7.52,13.94,6.39,18.87-6.79-13-27,11.92-51-62.87,25Zm-6.91,23.31-13-14.56-.29-.29-.32-.22-.36-.18-.4-.11-.4-.07-.4,0-.4.07-.4.11-.36.22-.32.22-.29.33-.22.33-.18.36-.11.4-.07.4,0,.4.07.4.11.4.22.36.25.33,8.32,9.37.29.36.22.4.14.4.07.44V407l-.07.44-.11.44-.18.4-.25.36-.32.33-.36.25-.36.22-.43.14-.43.07-.43,0-.43-.07-.43-.15-.4-.18-.36-.25-.32-.29-11.6-13-.32-.33-.4-.29-.4-.22-.47-.18-.47-.07-.47,0-.47,0-.47.11-.43.18-.4.22-.4.29-.32.36-.29.36-.22.44L274,407.44h8.46l7.53,8.39-.68,14.05-.07.36-.11.33-.22.33-.25.25-.29.22-.32.15-.36.07h-.36l-.36-.07-.36-.15-.29-.18-.25-.29-1.26-1.6H271.49l10.8,13.91,28.88,11.4,67.23,48V455.55l-34.89-16L334,406.27l-11.16-12.53-.29-.29-.32-.22-.4-.15-.4-.11h-.4l-.4,0-.39.11-.36.18-.36.25-.25.29-.25.36-.14.36-.11.44v.4l0,.4.11.4.21.36.22.33,6.91,7.77.22.29.14.33.11.36v.4l0,.36-.14.33-.18.33-.25.29-.29.22-.36.14-.36.07-.36,0-.36-.07-.36-.11-.29-.22-.29-.22-12-13.51-.32-.33-.36-.25-.4-.18-.43-.11-.43-.07h-.43l-.43.07-.43.15-.36.22-.36.29-.32.33-.25.36-.18.4-.11.44-.07.44v.44l.07.44.14.44.22.36.29.36,5.08,5.74.25.33.18.33.14.4.07.4v.4l-.07.44-.11.36-.18.36-.21.36-.29.29-.32.25-.36.18-.36.15-.4.07h-.43l-.4,0-.4-.15-.36-.18-.32-.22-.29-.29Z" transform="translate(-197.9 -321.79)" fill="#fff" fill-rule="evenodd"/>
  </g>
</svg>
