<svg id="Layer_1" data-name="Layer 1" xmlns="http://www.w3.org/2000/svg" width="70mm" height="70mm" viewBox="0 0 198.43 198.43">
  <title>e009</title>
  <g id="symbolgrp">
    <polygon points="198.43 0 0 0 0 198.43 198.43 198.43 198.43 0 198.43 0" fill="#099146" fill-rule="evenodd"/>
    <path d="M249.83,460.15l-.07-.69-.29-.65-.4-.58-.58-.43-.65-.25-.69-.11-.73.11-.65.25-.54.43-.44.58-.29.65-.07.69.07.69.29.69.44.54.54.43.65.25.73.11.69-.11.65-.25.58-.43.4-.54.29-.69.07-.69ZM281,358.27l-2.21.11-2.21.33-2.18.51-2.14.73-2.07.91-2,1.12-1.89,1.27-1.81,1.49-1.67,1.6-1.52,1.78L259.88,370l-1.23,2-1.09,2.18-.94,2.25-.73,2.32-.58,2.36-.36,2.43-.18,2.47v2.47l.18,2.43.36,2.43.58,2.39.73,2.32.94,2.25,1.09,2.14,1.23,2,1.42,1.92,1.52,1.78,1.67,1.63,1.81,1.45,1.89,1.3,2,1.09,2.07.91,2.14.73,2.18.54,2.21.29,2.21.11,2.21-.11,2.21-.29,2.18-.54,2.14-.73,2.07-.91,2-1.09,1.89-1.3,1.81-1.45,1.67-1.63,1.52-1.78,1.42-1.92,1.23-2,1.09-2.14.91-2.25.76-2.32.54-2.39.4-2.43.18-2.43V386l-.18-2.47-.4-2.43-.54-2.36-.76-2.32-.91-2.25L303.34,372l-1.23-2-1.42-1.92-1.52-1.78-1.67-1.6-1.81-1.49L293.8,362l-2-1.12-2.07-.91-2.14-.73-2.18-.51-2.21-.33-2.21-.11ZM314.26,393l-.14,3.15-.33,3.12-.47,3.12-.62,3-.72,3-.91,2.9-1,2.79-1.12,2.72-1.27,2.57-1.38,2.5-1.52,2.32-1.6,2.17-1.71,2-1.78,1.85-1.89,1.7-1.92,1.49-2,1.34-2.07,1.09-2.1.94-2.18.72-2.18.51-2.18.33v41.51l-.11,1.92-.33,1.85-.54,1.85-.73,1.74-.94,1.67-1.12,1.52-1.27,1.41-1.42,1.27-1.56,1.09-1.67.91-1.78.69-1.85.51-1.89.29-1.89.07-1.89-.14-1.89-.36-1.81-.58-1.74-.76-1.63-.94-1.52-1.16-1.38-1.3L252.95,490l-1.05-1.56-1.52-2.79-1.31-2.9-1.09-3-.87-3-.65-3.12-.4-3.12-1.45-.29-1.42-.44-1.34-.69-1.2-.83-1.09-1-.91-1.12-.76-1.31-.58-1.34-.36-1.45-.14-1.45,0-1.49.29-1.45.47-1.41.65-1.31.83-1.23,1-1.05,1.16-.94,1.27-.73,1.38-.58,1.45-.36,1.45-.14,1.49.07,1.45.25,1.42.47,1.31.69,1.2.83,1.09,1,.91,1.16.76,1.31L257,457l.36,1.45.15,1.49-.07,1.45-.29,1.45-.47,1.41-.69,1.3-.83,1.23-1.05,1.05-1.16.91-1.27.76-1.38.54.4,2.83.58,2.83.8,2.75,1,2.68,1.16,2.65,1.38,2.5.91,1.38,1.09,1.2,1.23,1.09,1.38.87,1.45.73,1.56.51,1.6.33,1.63.11,1.63-.14,1.6-.33,1.56-.51,1.45-.73,1.34-.91,1.23-1.09,1.05-1.23.91-1.38.73-1.45.54-1.56.29-1.6.11-1.63V438.39l-2.18-.33-2.21-.51-2.14-.72-2.1-.94-2.07-1.09-2-1.34-2-1.49-1.85-1.7-1.81-1.85-1.71-2-1.6-2.17-1.49-2.32-1.38-2.5-1.27-2.57-1.16-2.72-1-2.79-.87-2.9-.73-3-.62-3-.47-3.12-.33-3.12-.15-3.15.07-.62.29-.62.47-.44.58-.33.62-.11.65.07.58.25.51.44.33.58.15.62.15,3,.29,3,.44,2.94.58,2.86.73,2.83.83,2.72.94,2.65,1.09,2.54,1.2,2.43,1.31,2.28,1.42,2.14,1.49,2,1.6,1.85,1.67,1.67,1.74,1.49,1.81,1.31,1.89,1.12,1.92.91,2,.72,2,.51,2,.33,2,.11,2-.11,2-.33,2-.51,2-.72,1.92-.91,1.89-1.12,1.81-1.31,1.74-1.49,1.67-1.67,1.6-1.85,1.49-2,1.42-2.14,1.3-2.28,1.2-2.43,1.09-2.54.94-2.65.83-2.72.73-2.83.54-2.86.44-2.94.33-3,.15-3,.14-.62.33-.58.47-.44.62-.25.65-.07.62.11.58.33.44.44.29.62.11.62ZM281,488.17l-2.43-5.4L251,421l-2.9.54-2.83.8-2.79.94-2.72,1.2-2.61,1.34-2.54,1.52-2.39,1.7L229.91,431l-2.14,2-2,2.18L224,437.49l-1.67,2.43-1.49,2.54-1.31,2.65-1.12,2.75-.94,2.79-.69,2.86-.54,2.9-.29,2.94-.11,2.94v40.06H317.42V464h5v38.36h23.8V462.29l-.11-2.94-.29-2.94-.54-2.9-.73-2.86-.91-2.79-1.12-2.75-1.31-2.65-1.49-2.54L338,437.49l-1.85-2.32-2-2.18-2.14-2-2.29-1.89-2.43-1.7-2.5-1.52-2.61-1.34-2.72-1.2-2.79-.94-2.87-.8L311,421l-29.35,65.73-.69,1.41Z" transform="translate(-197.9 -321.79)" fill="#fff" fill-rule="evenodd"/>
    <polygon points="180.54 34.45 164 34.45 164 17.91 147.49 17.91 147.49 34.45 130.94 34.45 130.94 50.98 147.49 50.98 147.49 67.51 164 67.51 164 50.98 180.54 50.98 180.54 34.45 180.54 34.45" fill="#fff" fill-rule="evenodd"/>
  </g>
</svg>
