<svg id="Layer_1" data-name="Layer 1" xmlns="http://www.w3.org/2000/svg" width="70mm" height="70mm" viewBox="0 0 198.43 198.43">
  <title>e010</title>
  <g id="symbolgrp">
    <polygon points="198.43 0 0 0 0 198.43 198.43 198.43 198.43 0 198.43 0" fill="#099146" fill-rule="evenodd"/>
    <path d="M297.16,400.66l-16.06,34h20.74L264.89,477.8,279,443.95H258.55l38.61-43.29Zm-15.34,96.66c-41.34-27.87-61-55.32-61-77.07,0-19.3,14.62-34.93,32.7-34.93,12.1,0,22.76,7.06,28.38,17.65,5.62-10.59,16.21-17.65,28.38-17.65,18.08,0,32.7,15.63,32.7,34.93,0,21.75-19.81,49.19-61.15,77.07Z" transform="translate(-197.9 -321.79)" fill="#fff" fill-rule="evenodd"/>
    <polygon points="180.54 34.41 180.54 50.95 164 50.95 164 67.49 147.49 67.49 147.49 50.95 130.94 50.95 130.94 34.41 147.49 34.41 147.49 17.88 164 17.88 164 34.41 180.54 34.41 180.54 34.41" fill="#fff" fill-rule="evenodd"/>
  </g>
</svg>
