<svg id="Layer_1" data-name="Layer 1" xmlns="http://www.w3.org/2000/svg" width="70mm" height="70mm" viewBox="0 0 198.43 198.43">
  <title>e011</title>
  <g id="symbolgrp">
    <polygon points="0 198.43 198.43 198.43 198.43 0 0 0 0 198.43 0 198.43" fill="#099146" fill-rule="evenodd"/>
    <path d="M303.55,455.5c.07,6.26-1.34,11.88-8.37,13.36-2.53.42-5.13.77-7.73,1.2-5.13.63-7.59,3.09-7.88,7.45v24.82H263.82V477.51c-.28-4.36-2.74-6.82-7.88-7.45-2.6-.42-5.2-.77-7.81-1.2-7-1.48-8.37-7.1-8.3-13.36Z" transform="translate(-197.9 -321.79)" fill="#fff" fill-rule="evenodd"/>
    <path d="M249.69,439.89a3.34,3.34,0,0,1,.49,1.62,3.24,3.24,0,0,1-3.23,3.31,3.29,3.29,0,0,1-3.23-3.31,3.34,3.34,0,0,1,.49-1.62Zm9.14,0a2.74,2.74,0,0,1,.49,1.62,3.23,3.23,0,0,1-3.16,3.31,3.3,3.3,0,0,1-3.3-3.31,3.34,3.34,0,0,1,.49-1.62Zm8.3,0a3.26,3.26,0,0,1,.42,1.62,3.23,3.23,0,0,1-3.16,3.31,3.31,3.31,0,0,1-2.81-4.92Zm7.31,0a3.27,3.27,0,0,1,.42,1.62,3.23,3.23,0,0,1-3.16,3.31,3.29,3.29,0,0,1-3.23-3.31,2.73,2.73,0,0,1,.49-1.62Zm7.31,0a3.34,3.34,0,0,1,.49,1.62,3.3,3.3,0,0,1-3.31,3.31,3.23,3.23,0,0,1-3.16-3.31,2.74,2.74,0,0,1,.49-1.62Zm8.23,0a3.34,3.34,0,0,1,.49,1.62,3.29,3.29,0,0,1-3.23,3.31,3.24,3.24,0,0,1-3.23-3.31,3.34,3.34,0,0,1,.49-1.62Zm9.14,0a2.74,2.74,0,0,1,.49,1.62,3.29,3.29,0,0,1-3.24,3.31,3.24,3.24,0,0,1-3.23-3.31,3.34,3.34,0,0,1,.49-1.62ZM239.85,455.5V454l.07-.42h63.57V454a11.93,11.93,0,0,1,.07,1.55Zm35-6.4a3.21,3.21,0,0,1-3.16,3.23,3.23,3.23,0,1,1,0-6.47,3.21,3.21,0,0,1,3.16,3.23Zm-7.31,0a3.21,3.21,0,0,1-3.16,3.23,3.23,3.23,0,1,1,0-6.47,3.21,3.21,0,0,1,3.16,3.23Zm-8.23,0a3.21,3.21,0,0,1-3.16,3.23,3.24,3.24,0,1,1,0-6.47,3.21,3.21,0,0,1,3.16,3.23Zm-8.23,0a3.23,3.23,0,0,1-3.23,3.23,3.23,3.23,0,1,1,0-6.47,3.23,3.23,0,0,1,3.23,3.23Zm31.15,0a3.29,3.29,0,0,1-3.31,3.23,3.24,3.24,0,0,1,0-6.47,3.29,3.29,0,0,1,3.31,3.23Zm8.23,0a3.27,3.27,0,0,1-3.23,3.23,3.23,3.23,0,1,1,0-6.47,3.27,3.27,0,0,1,3.23,3.23Zm8.23,0a3.27,3.27,0,0,1-3.24,3.23,3.23,3.23,0,0,1-3.23-3.23,3.23,3.23,0,0,1,6.47,0Z" transform="translate(-197.9 -321.79)" fill="#fff" fill-rule="evenodd"/>
    <path d="M247.58,432.08a3.07,3.07,0,0,1,.77,2,3.23,3.23,0,0,1-3.23,3.23,3.27,3.27,0,0,1-3.23-3.23,3.07,3.07,0,0,1,.77-2Zm10.13,0a3.41,3.41,0,0,1,.7,2,3.21,3.21,0,0,1-3.16,3.23,3.29,3.29,0,0,1-3.31-3.23,3.07,3.07,0,0,1,.77-2Zm9.14,0a3.41,3.41,0,0,1,.7,2,3.21,3.21,0,0,1-3.16,3.23,3.27,3.27,0,0,1-3.23-3.23,3.41,3.41,0,0,1,.7-2Zm7.31,0a3,3,0,0,1,.7,2,3.21,3.21,0,0,1-3.16,3.23,3.27,3.27,0,0,1-3.23-3.23,3.41,3.41,0,0,1,.7-2Zm7.31,0a3.07,3.07,0,0,1,.77,2,3.29,3.29,0,0,1-3.31,3.23,3.21,3.21,0,0,1-3.16-3.23,3.41,3.41,0,0,1,.7-2Zm9.14,0a3.07,3.07,0,0,1,.77,2,3.27,3.27,0,0,1-3.23,3.23,3.23,3.23,0,0,1-3.23-3.23,3.07,3.07,0,0,1,.77-2Zm10.13,0a3.41,3.41,0,0,1,.7,2,3.23,3.23,0,0,1-6.47,0,3.07,3.07,0,0,1,.77-2Zm-56.54,7.81a3.28,3.28,0,0,1,2.74-1.55,3.19,3.19,0,0,1,2.74,1.55Zm9.14,0a3.31,3.31,0,0,1,2.81-1.55,3.16,3.16,0,0,1,2.67,1.55Zm8.23,0a3.4,3.4,0,0,1,2.81-1.55,3.28,3.28,0,0,1,2.74,1.55Zm7.38,0a3.28,3.28,0,0,1,2.74-1.55,3.19,3.19,0,0,1,2.74,1.55Zm7.31,0a3.16,3.16,0,0,1,2.67-1.55,3.31,3.31,0,0,1,2.81,1.55Zm8.23,0a3.19,3.19,0,0,1,2.74-1.55,3.28,3.28,0,0,1,2.74,1.55Zm9.14,0a3.19,3.19,0,0,1,2.74-1.55,3.28,3.28,0,0,1,2.74,1.55Z" transform="translate(-197.9 -321.79)" fill="#fff" fill-rule="evenodd"/>
    <path d="M245.75,424.28a3.06,3.06,0,0,1,.77,2,3.23,3.23,0,0,1-3.23,3.23,3.27,3.27,0,0,1-3.23-3.23,3.06,3.06,0,0,1,.77-2Zm11,0a3.4,3.4,0,0,1,.7,2,3.21,3.21,0,0,1-3.16,3.23,3.29,3.29,0,0,1-3.31-3.23,3.06,3.06,0,0,1,.77-2Zm9.14,0a3.4,3.4,0,0,1,.7,2,3.21,3.21,0,0,1-3.16,3.23,3.27,3.27,0,0,1-3.23-3.23,3.41,3.41,0,0,1,.7-2Zm8.23,0a3,3,0,0,1,.7,2,3.21,3.21,0,0,1-3.16,3.23,3.27,3.27,0,0,1-3.23-3.23,3.06,3.06,0,0,1,.77-2Zm8.23,0a3.06,3.06,0,0,1,.77,2,3.29,3.29,0,0,1-3.3,3.23,3.21,3.21,0,0,1-3.16-3.23,3.06,3.06,0,0,1,.77-2Zm9.14,0a3.06,3.06,0,0,1,.77,2,3.27,3.27,0,0,1-3.23,3.23,3.23,3.23,0,0,1-3.23-3.23,3.07,3.07,0,0,1,.77-2Zm11,0a3.06,3.06,0,0,1,.77,2,3.27,3.27,0,0,1-3.23,3.23,3.21,3.21,0,0,1-3.17-3.23,3,3,0,0,1,.7-2Zm-59.84,7.8a3.21,3.21,0,0,1,2.46-1.2,3.1,3.1,0,0,1,2.46,1.2Zm10.06,0a3.24,3.24,0,0,1,2.53-1.2,3.32,3.32,0,0,1,2.46,1.2Zm9.14,0a3.47,3.47,0,0,1,2.53-1.2,3.21,3.21,0,0,1,2.46,1.2Zm7.31,0a3.47,3.47,0,0,1,2.53-1.2,3.21,3.21,0,0,1,2.46,1.2Zm7.31,0a3.32,3.32,0,0,1,2.46-1.2,3.24,3.24,0,0,1,2.53,1.2Zm9.21,0a3.1,3.1,0,0,1,2.46-1.2,3.21,3.21,0,0,1,2.46,1.2Zm10.06,0a3.21,3.21,0,0,1,2.46-1.2,3.47,3.47,0,0,1,2.53,1.2Z" transform="translate(-197.9 -321.79)" fill="#fff" fill-rule="evenodd"/>
    <path d="M239.14,408.67a3.3,3.3,0,0,1-3.16,2.6,3.24,3.24,0,0,1-3.16-2.6Zm12.8,0a3.18,3.18,0,0,1-3.16,2.6,3.3,3.3,0,0,1-3.16-2.6Zm10.06,0a3.16,3.16,0,0,1-3.09,2.6,3.38,3.38,0,0,1-3.23-2.6Zm12.87,0a3.3,3.3,0,0,1-3.16,2.6,3.24,3.24,0,0,1-3.16-2.6Zm12.8,0a3.3,3.3,0,0,1-3.16,2.6,3.18,3.18,0,0,1-3.16-2.6Zm10.06,0a3.24,3.24,0,0,1-3.16,2.6,3.3,3.3,0,0,1-3.16-2.6Zm12.8,0a3.24,3.24,0,0,1-3.16,2.6,3.16,3.16,0,0,1-3.09-2.6Zm-69.68,15.61a3.13,3.13,0,0,1,4.92,0Zm11,0a3.2,3.2,0,0,1,5,0Zm9.14,0a3.47,3.47,0,0,1,2.53-1.2,3.32,3.32,0,0,1,2.46,1.2Zm8.3,0a3.13,3.13,0,0,1,4.92,0Zm8.23,0a3.07,3.07,0,0,1,2.39-1.2,3.35,3.35,0,0,1,2.53,1.2Zm9.14,0a3.13,3.13,0,0,1,4.92,0Zm11,0a3.13,3.13,0,0,1,4.92,0Zm-22.71-6.68a3.21,3.21,0,0,1-3.16,3.23,3.2,3.2,0,1,1,0-6.4,3.2,3.2,0,0,1,3.16,3.16Zm-10.06,0a3.2,3.2,0,1,1-6.4,0,3.26,3.26,0,0,1,3.23-3.16,3.2,3.2,0,0,1,3.16,3.16Zm-9.14,0a3.23,3.23,0,0,1-3.23,3.23,3.2,3.2,0,1,1,0-6.4,3.21,3.21,0,0,1,3.23,3.16Zm-11.88,0a3.23,3.23,0,0,1-3.23,3.23,3.2,3.2,0,1,1,0-6.4,3.21,3.21,0,0,1,3.23,3.16Zm41.21,0a3.27,3.27,0,0,1-3.23,3.23,3.2,3.2,0,1,1,0-6.4A3.26,3.26,0,0,1,285,417.6Zm9.14,0a3.27,3.27,0,0,1-3.23,3.23,3.2,3.2,0,1,1,0-6.4,3.26,3.26,0,0,1,3.23,3.16Zm11.88,0a3.27,3.27,0,0,1-3.23,3.23,3.2,3.2,0,0,1,0-6.4A3.26,3.26,0,0,1,306,417.6Z" transform="translate(-197.9 -321.79)" fill="#fff" fill-rule="evenodd"/>
    <path d="M232.81,408.67a2.16,2.16,0,0,1-.07-.7,3.24,3.24,0,0,1,6.47,0c0,.28-.07.49-.07.7Zm12.8,0c0-.21-.07-.42-.07-.7a3.26,3.26,0,0,1,3.23-3.16A3.21,3.21,0,0,1,252,408a2.17,2.17,0,0,1-.07.7Zm10.06,0c0-.21-.07-.42-.07-.7a3.27,3.27,0,0,1,3.31-3.16,3.2,3.2,0,0,1,3.16,3.16,2.17,2.17,0,0,1-.07.7Zm12.87,0a2.18,2.18,0,0,1-.07-.7,3.26,3.26,0,0,1,3.23-3.16,3.2,3.2,0,0,1,3.16,3.16v.7Zm12.8,0a2.17,2.17,0,0,1-.07-.7,3.21,3.21,0,0,1,3.23-3.16,3.26,3.26,0,0,1,3.23,3.16c0,.28-.07.49-.07.7Zm10.06,0c0-.21-.07-.42-.07-.7a3.24,3.24,0,0,1,6.47,0,2.17,2.17,0,0,1-.07.7Zm12.87,0a2.17,2.17,0,0,1-.07-.7,3.2,3.2,0,0,1,3.16-3.16,3.26,3.26,0,0,1,3.23,3.16,2.17,2.17,0,0,1-.07.7Z" transform="translate(-197.9 -321.79)" fill="#fff" fill-rule="evenodd"/>
    <path d="M232.88,397.14a3.24,3.24,0,0,1-3.23,3.3,3.23,3.23,0,1,1,0-6.47,3.21,3.21,0,0,1,3.23,3.16ZM222.2,384.27A3.21,3.21,0,0,1,219,387.5a3.23,3.23,0,0,1,0-6.47,3.21,3.21,0,0,1,3.16,3.23Zm94.72,12.87a3.29,3.29,0,0,1-3.23,3.3,3.23,3.23,0,1,1,3.23-3.3Zm10.69-12.87a3.29,3.29,0,0,1-3.3,3.23,3.24,3.24,0,0,1,0-6.47,3.29,3.29,0,0,1,3.3,3.23Zm-47.75-24a9.85,9.85,0,0,0-4.43-4.36A9.7,9.7,0,0,0,262,362.47a9.88,9.88,0,0,0,3.16,9.21,9.77,9.77,0,0,0,11,.91c4.36-2.6,5.62-7.73,3.66-12.31Zm39.38,8.65.28.42-.28.49c-11.25,18-26.79,28.76-47.89,28.62-23.7-.35-38.18-12-47.53-28.69l-.28-.42.28-.49a55,55,0,0,1,47.89-29.18c18.85.63,36.35,8.72,47.53,29.25ZM305,369a53.59,53.59,0,0,0-4.08-5.06,38.7,38.7,0,0,0-10.69-7.73,19.36,19.36,0,0,1,1.83,8.3,20.74,20.74,0,1,1-40-7.88,40.56,40.56,0,0,0-14.2,12.8,35.09,35.09,0,0,0,6,6.89c7.24,6.68,16.17,9.56,25.88,10a46,46,0,0,0,14.49-1.69C292.73,381.95,299.83,376,305,369Zm-3.23,28.13a3.2,3.2,0,1,1-6.4,0,3.2,3.2,0,0,1,3.17-3.16,3.26,3.26,0,0,1,3.23,3.16Zm-53.86,0a3.23,3.23,0,0,1-3.16,3.3,3.23,3.23,0,1,1,0-6.47,3.2,3.2,0,0,1,3.16,3.16Z" transform="translate(-197.9 -321.79)" fill="#fff" fill-rule="evenodd"/>
    <path d="M319.23,368.94l.28.42-.28.49c-11.25,18-26.79,28.76-47.89,28.62-23.7-.35-38.18-12-47.53-28.69l-.28-.42.28-.49a55,55,0,0,1,47.89-29.18c18.85.63,36.35,8.72,47.53,29.25Z" transform="translate(-197.9 -321.79)" fill="none" stroke="#099146" stroke-miterlimit="2.61" stroke-width="4.88"/>
    <path d="M279.86,360.29a9.85,9.85,0,0,0-4.43-4.36A9.7,9.7,0,0,0,262,362.47a9.88,9.88,0,0,0,3.16,9.21,9.77,9.77,0,0,0,11,.91c4.36-2.6,5.62-7.73,3.66-12.31ZM305,369a53.59,53.59,0,0,0-4.08-5.06,38.7,38.7,0,0,0-10.69-7.73,19.36,19.36,0,0,1,1.83,8.3,20.74,20.74,0,1,1-40-7.88,40.56,40.56,0,0,0-14.2,12.8,35.09,35.09,0,0,0,6,6.89c7.24,6.68,16.17,9.56,25.88,10a46,46,0,0,0,14.49-1.69C292.73,381.95,299.83,376,305,369Z" transform="translate(-197.9 -321.79)" fill="#099146" fill-rule="evenodd"/>
    <path d="M279.86,360.29a9.85,9.85,0,0,0-4.43-4.36A9.7,9.7,0,0,0,262,362.47a9.88,9.88,0,0,0,3.16,9.21,9.77,9.77,0,0,0,11,.91c4.36-2.6,5.62-7.73,3.66-12.31ZM305,369a53.59,53.59,0,0,0-4.08-5.06,38.7,38.7,0,0,0-10.69-7.73,19.36,19.36,0,0,1,1.83,8.3,20.74,20.74,0,1,1-40-7.88,40.56,40.56,0,0,0-14.2,12.8,35.09,35.09,0,0,0,6,6.89c7.24,6.68,16.17,9.56,25.88,10a46,46,0,0,0,14.49-1.69C292.73,381.95,299.83,376,305,369" transform="translate(-197.9 -321.79)" fill="none" stroke="#099146" stroke-miterlimit="2.61" stroke-width="0.98"/>
    <path d="M248.07,397.07a3.45,3.45,0,0,1-3.45,3.45,3.41,3.41,0,0,1,0-6.82,3.44,3.44,0,0,1,3.45,3.38Z" transform="translate(-197.9 -321.79)" fill="#fff" fill-rule="evenodd"/>
    <path d="M301.8,396.93a3.33,3.33,0,0,1-3.37,3.37,3.39,3.39,0,0,1-3.45-3.37,3.45,3.45,0,0,1,3.45-3.45,3.39,3.39,0,0,1,3.37,3.45Z" transform="translate(-197.9 -321.79)" fill="#fff" fill-rule="evenodd"/>
    <polygon points="147.49 17.88 164 17.88 164 34.41 180.54 34.41 180.54 50.95 164 50.95 164 67.49 147.49 67.49 147.49 50.95 130.94 50.95 130.94 34.41 147.49 34.41 147.49 17.88 147.49 17.88" fill="#fff" fill-rule="evenodd"/>
  </g>
</svg>
