<svg id="Layer_1" data-name="Layer 1" xmlns="http://www.w3.org/2000/svg" width="70mm" height="70mm" viewBox="0 0 198.42 198.42">
  <title>e012</title>
  <g id="symbolgrp">
    <polygon points="0 198.43 198.42 198.43 198.42 0 0 0 0 198.43 0 198.43" fill="#099146" fill-rule="evenodd"/>
    <polygon points="75.83 50.55 75.8 50.15 75.71 49.75 75.56 49.38 75.37 49.02 75.13 48.7 74.85 48.41 74.52 48.16 74.17 47.97 73.79 47.84 73.39 47.75 72.99 47.72 72.59 47.75 72.19 47.84 71.82 47.97 71.46 48.16 71.14 48.41 70.85 48.7 70.6 49.02 70.41 49.38 70.27 49.75 70.19 50.15 70.16 50.55 70.19 50.95 70.27 51.35 70.41 51.73 70.6 52.08 70.85 52.41 71.14 52.69 71.46 52.94 71.82 53.13 72.19 53.27 72.59 53.36 72.99 53.39 73.39 53.36 73.79 53.27 74.17 53.13 74.52 52.94 74.85 52.69 75.13 52.41 75.37 52.08 75.56 51.73 75.71 51.35 75.8 50.95 75.83 50.55 75.83 50.55" fill="#fff" fill-rule="evenodd"/>
    <polygon points="75.83 59.38 75.8 58.98 75.71 58.58 75.56 58.21 75.37 57.85 75.13 57.53 74.85 57.25 74.52 56.99 74.17 56.8 73.79 56.67 73.39 56.58 72.99 56.55 72.59 56.58 72.19 56.67 71.82 56.8 71.46 56.99 71.14 57.25 70.85 57.53 70.6 57.85 70.41 58.21 70.27 58.58 70.19 58.98 70.16 59.38 70.19 59.78 70.27 60.19 70.41 60.56 70.6 60.91 70.85 61.24 71.14 61.52 71.46 61.77 71.82 61.97 72.19 62.1 72.59 62.19 72.99 62.22 73.39 62.19 73.79 62.1 74.17 61.97 74.52 61.77 74.85 61.52 75.13 61.24 75.37 60.91 75.56 60.56 75.71 60.19 75.8 59.78 75.83 59.38 75.83 59.38" fill="#fff" fill-rule="evenodd"/>
    <polygon points="91.07 76.27 91.04 75.86 90.95 75.47 90.8 75.09 90.61 74.73 90.37 74.42 90.09 74.12 89.76 73.88 89.4 73.69 89.03 73.54 88.63 73.47 88.23 73.44 87.83 73.47 87.43 73.54 87.04 73.69 86.7 73.88 86.37 74.12 86.08 74.42 85.84 74.73 85.64 75.09 85.51 75.47 85.42 75.86 85.39 76.27 85.42 76.67 85.51 77.06 85.64 77.45 85.84 77.8 86.08 78.13 86.37 78.41 86.7 78.65 87.04 78.84 87.43 78.99 87.83 79.08 88.23 79.11 88.63 79.08 89.03 78.99 89.4 78.84 89.76 78.65 90.09 78.41 90.37 78.13 90.61 77.8 90.8 77.45 90.95 77.06 91.04 76.67 91.07 76.27 91.07 76.27" fill="#fff" fill-rule="evenodd"/>
    <polygon points="89 67.64 88.99 67.23 88.9 66.83 88.75 66.45 88.56 66.11 88.32 65.78 88.04 65.48 87.71 65.25 87.35 65.05 86.97 64.92 86.58 64.83 86.18 64.8 85.76 64.83 85.38 64.92 84.99 65.05 84.64 65.25 84.32 65.48 84.03 65.78 83.79 66.11 83.6 66.45 83.45 66.83 83.37 67.23 83.34 67.64 83.37 68.04 83.45 68.44 83.6 68.81 83.79 69.17 84.03 69.49 84.32 69.77 84.64 70.01 84.99 70.22 85.38 70.35 85.76 70.44 86.18 70.47 86.58 70.44 86.97 70.35 87.35 70.22 87.71 70.01 88.04 69.77 88.32 69.49 88.56 69.17 88.75 68.81 88.9 68.44 88.99 68.04 89 67.64 89 67.64" fill="#fff" fill-rule="evenodd"/>
    <polygon points="86.95 59 86.92 58.6 86.85 58.2 86.7 57.83 86.51 57.47 86.27 57.14 85.97 56.86 85.66 56.61 85.3 56.41 84.92 56.28 84.53 56.19 84.12 56.16 83.72 56.19 83.33 56.28 82.94 56.41 82.59 56.61 82.26 56.86 81.98 57.14 81.74 57.47 81.55 57.83 81.4 58.2 81.31 58.6 81.29 59 81.31 59.4 81.4 59.8 81.55 60.17 81.74 60.53 81.98 60.85 82.26 61.13 82.59 61.39 82.94 61.58 83.33 61.71 83.72 61.8 84.12 61.83 84.53 61.8 84.92 61.71 85.3 61.58 85.66 61.39 85.97 61.13 86.27 60.85 86.51 60.53 86.7 60.17 86.85 59.8 86.92 59.4 86.95 59 86.95 59" fill="#fff" fill-rule="evenodd"/>
    <polygon points="84.9 50.36 84.87 49.96 84.78 49.56 84.65 49.19 84.46 48.83 84.22 48.5 83.92 48.22 83.6 47.97 83.25 47.78 82.87 47.64 82.47 47.55 82.07 47.52 81.67 47.55 81.26 47.64 80.89 47.78 80.54 47.97 80.21 48.22 79.93 48.5 79.69 48.83 79.5 49.19 79.35 49.56 79.26 49.96 79.23 50.36 79.26 50.76 79.35 51.16 79.5 51.53 79.69 51.89 79.93 52.22 80.21 52.5 80.54 52.75 80.89 52.94 81.26 53.08 81.67 53.16 82.07 53.19 82.47 53.16 82.87 53.08 83.25 52.94 83.6 52.75 83.92 52.5 84.22 52.22 84.46 51.89 84.65 51.53 84.78 51.16 84.87 50.76 84.9 50.36 84.9 50.36" fill="#fff" fill-rule="evenodd"/>
    <polygon points="66.74 50.36 66.71 49.96 66.62 49.56 66.49 49.19 66.29 48.83 66.06 48.5 65.76 48.22 65.45 47.97 65.09 47.78 64.7 47.64 64.32 47.55 63.9 47.52 63.5 47.55 63.12 47.64 62.73 47.78 62.37 47.97 62.05 48.22 61.77 48.5 61.53 48.83 61.33 49.19 61.19 49.56 61.1 49.96 61.07 50.36 61.1 50.76 61.19 51.16 61.33 51.53 61.53 51.89 61.77 52.22 62.05 52.5 62.37 52.75 62.73 52.94 63.12 53.08 63.5 53.16 63.9 53.19 64.32 53.16 64.7 53.08 65.09 52.94 65.45 52.75 65.76 52.5 66.06 52.22 66.29 51.89 66.49 51.53 66.62 51.16 66.71 50.76 66.74 50.36 66.74 50.36" fill="#fff" fill-rule="evenodd"/>
    <polygon points="64.69 59 64.66 58.6 64.57 58.2 64.44 57.83 64.25 57.47 63.99 57.14 63.71 56.86 63.38 56.61 63.03 56.41 62.66 56.28 62.26 56.19 61.85 56.16 61.45 56.19 61.05 56.28 60.68 56.41 60.32 56.61 60 56.86 59.72 57.14 59.48 57.47 59.28 57.83 59.14 58.2 59.05 58.6 59.02 59 59.05 59.4 59.14 59.8 59.28 60.17 59.48 60.53 59.72 60.85 60 61.13 60.32 61.39 60.68 61.58 61.05 61.71 61.45 61.8 61.85 61.83 62.26 61.8 62.66 61.71 63.03 61.58 63.38 61.39 63.71 61.13 63.99 60.85 64.25 60.53 64.44 60.17 64.57 59.8 64.66 59.4 64.69 59 64.69 59" fill="#fff" fill-rule="evenodd"/>
    <polygon points="62.64 67.64 62.61 67.23 62.52 66.83 62.39 66.45 62.2 66.11 61.94 65.78 61.66 65.48 61.33 65.25 60.98 65.05 60.61 64.92 60.21 64.83 59.8 64.8 59.4 64.83 59 64.92 58.63 65.05 58.27 65.25 57.95 65.48 57.67 65.78 57.41 66.11 57.22 66.45 57.09 66.83 57 67.23 56.97 67.64 57 68.04 57.09 68.44 57.22 68.81 57.41 69.17 57.67 69.49 57.95 69.77 58.27 70.01 58.63 70.22 59 70.35 59.4 70.44 59.8 70.47 60.21 70.44 60.61 70.35 60.98 70.22 61.33 70.01 61.66 69.77 61.94 69.49 62.2 69.17 62.39 68.81 62.52 68.44 62.61 68.04 62.64 67.64 62.64 67.64" fill="#fff" fill-rule="evenodd"/>
    <polygon points="60.59 76.27 60.56 75.86 60.47 75.47 60.32 75.09 60.13 74.73 59.89 74.42 59.61 74.12 59.28 73.88 58.93 73.69 58.56 73.54 58.16 73.47 57.76 73.44 57.35 73.47 56.95 73.54 56.58 73.69 56.23 73.88 55.9 74.12 55.62 74.42 55.36 74.73 55.17 75.09 55.04 75.47 54.95 75.86 54.92 76.27 54.95 76.67 55.04 77.06 55.17 77.45 55.36 77.8 55.62 78.13 55.9 78.41 56.23 78.65 56.58 78.84 56.95 78.99 57.35 79.08 57.76 79.11 58.16 79.08 58.56 78.99 58.93 78.84 59.28 78.65 59.61 78.41 59.89 78.13 60.13 77.8 60.32 77.45 60.47 77.06 60.56 76.67 60.59 76.27 60.59 76.27" fill="#fff" fill-rule="evenodd"/>
    <polygon points="118.54 116.33 118.51 115.93 118.42 115.55 118.29 115.16 118.09 114.81 117.86 114.48 117.56 114.19 117.23 113.96 116.89 113.77 116.51 113.62 116.1 113.53 115.7 113.51 115.3 113.53 114.92 113.62 114.53 113.77 114.17 113.96 113.85 114.19 113.56 114.48 113.33 114.81 113.14 115.16 112.99 115.55 112.9 115.93 112.87 116.33 112.9 116.75 112.99 117.14 113.14 117.52 113.33 117.88 113.56 118.2 113.85 118.48 114.17 118.72 114.53 118.92 114.92 119.06 115.3 119.15 115.7 119.17 116.1 119.15 116.51 119.06 116.89 118.92 117.23 118.72 117.56 118.48 117.86 118.2 118.09 117.88 118.29 117.52 118.42 117.14 118.51 116.75 118.54 116.33 118.54 116.33" fill="#fff" fill-rule="evenodd"/>
    <polygon points="115.36 108.05 115.33 107.65 115.24 107.25 115.09 106.88 114.9 106.52 114.67 106.19 114.38 105.91 114.06 105.66 113.7 105.47 113.33 105.33 112.93 105.25 112.53 105.22 112.13 105.25 111.72 105.33 111.35 105.47 111 105.66 110.67 105.91 110.39 106.19 110.14 106.52 109.94 106.88 109.81 107.25 109.72 107.65 109.69 108.05 109.72 108.45 109.81 108.85 109.94 109.22 110.14 109.58 110.39 109.91 110.67 110.19 111 110.44 111.35 110.63 111.72 110.77 112.13 110.86 112.53 110.89 112.93 110.86 113.33 110.77 113.7 110.63 114.06 110.44 114.38 110.19 114.67 109.91 114.9 109.58 115.09 109.22 115.24 108.85 115.33 108.45 115.36 108.05 115.36 108.05" fill="#fff" fill-rule="evenodd"/>
    <polygon points="112.17 99.75 112.14 99.35 112.06 98.97 111.92 98.58 111.72 98.23 111.49 97.9 111.19 97.62 110.88 97.38 110.52 97.19 110.14 97.04 109.75 96.95 109.33 96.92 108.93 96.95 108.55 97.04 108.16 97.19 107.8 97.38 107.48 97.62 107.19 97.9 106.96 98.23 106.76 98.58 106.62 98.97 106.53 99.35 106.51 99.75 106.53 100.17 106.62 100.56 106.76 100.94 106.96 101.3 107.19 101.61 107.48 101.91 107.8 102.14 108.16 102.34 108.55 102.48 108.93 102.56 109.33 102.59 109.75 102.56 110.14 102.48 110.52 102.34 110.88 102.14 111.19 101.91 111.49 101.61 111.72 101.3 111.92 100.94 112.06 100.56 112.14 100.17 112.17 99.75 112.17 99.75" fill="#fff" fill-rule="evenodd"/>
    <polygon points="108.99 91.47 108.96 91.07 108.87 90.67 108.74 90.28 108.55 89.93 108.29 89.62 108.01 89.32 107.68 89.08 107.33 88.89 106.96 88.74 106.56 88.67 106.16 88.64 105.75 88.67 105.35 88.74 104.98 88.89 104.63 89.08 104.3 89.32 104.02 89.62 103.76 89.93 103.57 90.28 103.44 90.67 103.35 91.07 103.32 91.47 103.35 91.87 103.44 92.27 103.57 92.64 103.76 93 104.02 93.33 104.3 93.61 104.63 93.85 104.98 94.04 105.35 94.19 105.75 94.28 106.16 94.31 106.56 94.28 106.96 94.19 107.33 94.04 107.68 93.85 108.01 93.61 108.29 93.33 108.55 93 108.74 92.64 108.87 92.27 108.96 91.87 108.99 91.47 108.99 91.47" fill="#fff" fill-rule="evenodd"/>
    <polygon points="105.8 83.18 105.77 82.78 105.69 82.37 105.55 82 105.35 81.65 105.12 81.32 104.83 81.04 104.51 80.79 104.15 80.59 103.76 80.46 103.38 80.37 102.98 80.34 102.56 80.37 102.17 80.46 101.79 80.59 101.43 80.79 101.12 81.04 100.82 81.32 100.58 81.65 100.39 82 100.25 82.37 100.17 82.78 100.14 83.18 100.17 83.58 100.25 83.98 100.39 84.35 100.58 84.7 100.82 85.03 101.12 85.31 101.43 85.56 101.79 85.76 102.17 85.89 102.56 85.98 102.98 86.01 103.38 85.98 103.76 85.89 104.15 85.76 104.51 85.56 104.83 85.31 105.12 85.03 105.35 84.7 105.55 84.35 105.69 83.98 105.77 83.58 105.8 83.18 105.8 83.18" fill="#fff" fill-rule="evenodd"/>
    <polygon points="102.62 74.89 102.59 74.48 102.5 74.09 102.37 73.71 102.17 73.35 101.92 73.02 101.64 72.74 101.31 72.5 100.96 72.31 100.58 72.16 100.18 72.09 99.78 72.06 99.38 72.09 98.98 72.16 98.61 72.31 98.25 72.5 97.93 72.74 97.64 73.02 97.41 73.35 97.21 73.71 97.07 74.09 96.98 74.48 96.95 74.89 96.98 75.29 97.07 75.68 97.21 76.07 97.41 76.42 97.64 76.75 97.93 77.03 98.25 77.27 98.61 77.46 98.98 77.61 99.38 77.7 99.78 77.73 100.18 77.7 100.58 77.61 100.96 77.46 101.31 77.27 101.64 77.03 101.92 76.75 102.17 76.42 102.37 76.07 102.5 75.68 102.59 75.29 102.62 74.89 102.62 74.89" fill="#fff" fill-rule="evenodd"/>
    <polygon points="99.44 66.6 99.41 66.2 99.32 65.8 99.17 65.42 98.98 65.07 98.74 64.74 98.46 64.46 98.14 64.21 97.78 64.02 97.39 63.88 97.01 63.79 96.61 63.76 96.2 63.79 95.8 63.88 95.42 64.02 95.08 64.21 94.75 64.46 94.45 64.74 94.21 65.07 94.02 65.42 93.89 65.8 93.8 66.2 93.77 66.6 93.8 67 93.89 67.4 94.02 67.77 94.21 68.13 94.45 68.45 94.75 68.73 95.08 68.99 95.42 69.18 95.8 69.31 96.2 69.4 96.61 69.43 97.01 69.4 97.39 69.31 97.78 69.18 98.14 68.99 98.46 68.73 98.74 68.45 98.98 68.13 99.17 67.77 99.32 67.4 99.41 67 99.44 66.6 99.44 66.6" fill="#fff" fill-rule="evenodd"/>
    <polygon points="96.25 58.3 96.22 57.9 96.13 57.51 96 57.13 95.8 56.77 95.57 56.45 95.27 56.16 94.94 55.93 94.6 55.73 94.21 55.58 93.81 55.49 93.41 55.47 93.01 55.49 92.61 55.58 92.24 55.73 91.88 55.93 91.56 56.16 91.27 56.45 91.04 56.77 90.84 57.13 90.69 57.51 90.61 57.9 90.58 58.3 90.61 58.72 90.69 59.1 90.84 59.49 91.04 59.84 91.27 60.16 91.56 60.45 91.88 60.69 92.24 60.88 92.61 61.03 93.01 61.1 93.41 61.13 93.81 61.1 94.21 61.03 94.6 60.88 94.94 60.69 95.27 60.45 95.57 60.16 95.8 59.84 96 59.49 96.13 59.1 96.22 58.72 96.25 58.3 96.25 58.3" fill="#fff" fill-rule="evenodd"/>
    <polygon points="93.07 50.02 93.04 49.62 92.95 49.22 92.8 48.83 92.61 48.49 92.37 48.16 92.09 47.87 91.76 47.63 91.41 47.44 91.04 47.3 90.64 47.21 90.23 47.18 89.83 47.21 89.43 47.3 89.06 47.44 88.7 47.63 88.38 47.87 88.1 48.16 87.84 48.49 87.65 48.83 87.52 49.22 87.43 49.62 87.4 50.02 87.43 50.42 87.52 50.82 87.65 51.19 87.84 51.55 88.1 51.87 88.38 52.16 88.7 52.39 89.06 52.6 89.43 52.73 89.83 52.82 90.23 52.85 90.64 52.82 91.04 52.73 91.41 52.6 91.76 52.39 92.09 52.16 92.37 51.87 92.61 51.55 92.8 51.19 92.95 50.82 93.04 50.42 93.07 50.02 93.07 50.02" fill="#fff" fill-rule="evenodd"/>
    <polygon points="58.59 50.02 58.56 49.62 58.47 49.22 58.32 48.83 58.13 48.49 57.89 48.16 57.61 47.87 57.28 47.63 56.92 47.44 56.55 47.3 56.15 47.21 55.75 47.18 55.35 47.21 54.95 47.3 54.56 47.44 54.22 47.63 53.89 47.87 53.61 48.16 53.36 48.49 53.17 48.83 53.03 49.22 52.94 49.62 52.91 50.02 52.94 50.42 53.03 50.82 53.17 51.19 53.36 51.55 53.61 51.87 53.89 52.16 54.22 52.39 54.56 52.6 54.95 52.73 55.35 52.82 55.75 52.85 56.15 52.82 56.55 52.73 56.92 52.6 57.28 52.39 57.61 52.16 57.89 51.87 58.13 51.55 58.32 51.19 58.47 50.82 58.56 50.42 58.59 50.02 58.59 50.02" fill="#fff" fill-rule="evenodd"/>
    <polygon points="55.39 58.3 55.36 57.9 55.27 57.51 55.14 57.13 54.95 56.77 54.71 56.45 54.41 56.16 54.1 55.93 53.74 55.73 53.36 55.58 52.97 55.49 52.56 55.47 52.16 55.49 51.77 55.58 51.38 55.73 51.03 55.93 50.7 56.16 50.42 56.45 50.18 56.77 49.99 57.13 49.84 57.51 49.75 57.9 49.72 58.3 49.75 58.72 49.84 59.1 49.99 59.49 50.18 59.84 50.42 60.16 50.7 60.45 51.03 60.69 51.38 60.88 51.77 61.03 52.16 61.1 52.56 61.13 52.97 61.1 53.36 61.03 53.74 60.88 54.1 60.69 54.41 60.45 54.71 60.16 54.95 59.84 55.14 59.49 55.27 59.1 55.36 58.72 55.39 58.3 55.39 58.3" fill="#fff" fill-rule="evenodd"/>
    <polygon points="52.22 66.6 52.19 66.2 52.1 65.8 51.96 65.42 51.76 65.07 51.52 64.74 51.23 64.46 50.91 64.21 50.55 64.02 50.18 63.88 49.78 63.79 49.38 63.76 48.98 63.79 48.58 63.88 48.21 64.02 47.85 64.21 47.52 64.46 47.24 64.74 46.99 65.07 46.8 65.42 46.66 65.8 46.57 66.2 46.54 66.6 46.57 67 46.66 67.4 46.8 67.77 46.99 68.13 47.24 68.45 47.52 68.73 47.85 68.99 48.21 69.18 48.58 69.31 48.98 69.4 49.38 69.43 49.78 69.4 50.18 69.31 50.55 69.18 50.91 68.99 51.23 68.73 51.52 68.45 51.76 68.13 51.96 67.77 52.1 67.4 52.19 67 52.22 66.6 52.22 66.6" fill="#fff" fill-rule="evenodd"/>
    <polygon points="49.02 74.89 48.99 74.48 48.92 74.09 48.77 73.71 48.58 73.35 48.34 73.02 48.04 72.74 47.73 72.5 47.37 72.31 46.99 72.16 46.6 72.09 46.19 72.06 45.78 72.09 45.4 72.16 45.01 72.31 44.66 72.5 44.33 72.74 44.05 73.02 43.81 73.35 43.62 73.71 43.47 74.09 43.39 74.48 43.36 74.89 43.39 75.29 43.47 75.68 43.62 76.07 43.81 76.42 44.05 76.75 44.33 77.03 44.66 77.27 45.01 77.46 45.4 77.61 45.78 77.7 46.19 77.73 46.6 77.7 46.99 77.61 47.37 77.46 47.73 77.27 48.04 77.03 48.34 76.75 48.58 76.42 48.77 76.07 48.92 75.68 48.99 75.29 49.02 74.89 49.02 74.89" fill="#fff" fill-rule="evenodd"/>
    <polygon points="45.84 83.18 45.81 82.78 45.73 82.37 45.59 82 45.4 81.65 45.15 81.32 44.86 81.04 44.54 80.79 44.18 80.59 43.81 80.46 43.41 80.37 43.01 80.34 42.61 80.37 42.21 80.46 41.84 80.59 41.48 80.79 41.15 81.04 40.87 81.32 40.62 81.65 40.42 82 40.29 82.37 40.2 82.78 40.17 83.18 40.2 83.58 40.29 83.98 40.42 84.35 40.62 84.7 40.87 85.03 41.15 85.31 41.48 85.56 41.84 85.76 42.21 85.89 42.61 85.98 43.01 86.01 43.41 85.98 43.81 85.89 44.18 85.76 44.54 85.56 44.86 85.31 45.15 85.03 45.4 84.7 45.59 84.35 45.73 83.98 45.81 83.58 45.84 83.18 45.84 83.18" fill="#fff" fill-rule="evenodd"/>
    <polygon points="42.65 91.47 42.64 91.07 42.55 90.67 42.4 90.28 42.21 89.93 41.97 89.62 41.69 89.32 41.36 89.08 41 88.89 40.62 88.74 40.23 88.67 39.83 88.64 39.41 88.67 39.03 88.74 38.64 88.89 38.28 89.08 37.97 89.32 37.68 89.62 37.44 89.93 37.25 90.28 37.1 90.67 37.02 91.07 36.99 91.47 37.02 91.87 37.1 92.27 37.25 92.64 37.44 93 37.68 93.33 37.97 93.61 38.28 93.85 38.64 94.04 39.03 94.19 39.41 94.28 39.83 94.31 40.23 94.28 40.62 94.19 41 94.04 41.36 93.85 41.69 93.61 41.97 93.33 42.21 93 42.4 92.64 42.55 92.27 42.64 91.87 42.65 91.47 42.65 91.47" fill="#fff" fill-rule="evenodd"/>
    <polygon points="39.47 99.75 39.44 99.35 39.35 98.97 39.22 98.58 39.03 98.23 38.77 97.9 38.49 97.62 38.17 97.38 37.81 97.19 37.44 97.04 37.04 96.95 36.64 96.92 36.24 96.95 35.84 97.04 35.46 97.19 35.11 97.38 34.78 97.62 34.5 97.9 34.26 98.23 34.07 98.58 33.92 98.97 33.83 99.35 33.8 99.75 33.83 100.17 33.92 100.56 34.07 100.94 34.26 101.3 34.5 101.61 34.78 101.91 35.11 102.14 35.46 102.34 35.84 102.48 36.24 102.56 36.64 102.59 37.04 102.56 37.44 102.48 37.81 102.34 38.17 102.14 38.49 101.91 38.77 101.61 39.03 101.3 39.22 100.94 39.35 100.56 39.44 100.17 39.47 99.75 39.47 99.75" fill="#fff" fill-rule="evenodd"/>
    <polygon points="36.3 108.05 36.27 107.65 36.18 107.25 36.03 106.88 35.84 106.52 35.6 106.19 35.31 105.91 34.99 105.66 34.63 105.47 34.26 105.33 33.86 105.25 33.46 105.22 33.06 105.25 32.66 105.33 32.27 105.47 31.93 105.66 31.6 105.91 31.3 106.19 31.07 106.52 30.87 106.88 30.74 107.25 30.65 107.65 30.62 108.05 30.65 108.45 30.74 108.85 30.87 109.22 31.07 109.58 31.3 109.91 31.6 110.19 31.93 110.44 32.27 110.63 32.66 110.77 33.06 110.86 33.46 110.89 33.86 110.86 34.26 110.77 34.63 110.63 34.99 110.44 35.31 110.19 35.6 109.91 35.84 109.58 36.03 109.22 36.18 108.85 36.27 108.45 36.3 108.05 36.3 108.05" fill="#fff" fill-rule="evenodd"/>
    <polygon points="82.85 41.72 82.82 41.32 82.73 40.92 82.6 40.55 82.41 40.19 82.16 39.87 81.87 39.58 81.55 39.35 81.19 39.14 80.82 39.01 80.42 38.92 80.02 38.89 79.62 38.92 79.22 39.01 78.84 39.14 78.49 39.35 78.16 39.58 77.88 39.87 77.64 40.19 77.43 40.55 77.3 40.92 77.21 41.32 77.18 41.72 77.21 42.12 77.3 42.52 77.43 42.91 77.64 43.25 77.88 43.58 78.16 43.87 78.49 44.11 78.84 44.3 79.22 44.44 79.62 44.53 80.02 44.56 80.42 44.53 80.82 44.44 81.19 44.3 81.55 44.11 81.87 43.87 82.16 43.58 82.41 43.25 82.6 42.91 82.73 42.52 82.82 42.12 82.85 41.72 82.85 41.72" fill="#fff" fill-rule="evenodd"/>
    <polygon points="75.83 41.72 75.8 41.32 75.71 40.92 75.56 40.55 75.37 40.19 75.13 39.87 74.85 39.58 74.52 39.35 74.17 39.14 73.79 39.01 73.39 38.92 72.99 38.89 72.59 38.92 72.19 39.01 71.82 39.14 71.46 39.35 71.14 39.58 70.85 39.87 70.6 40.19 70.41 40.55 70.27 40.92 70.19 41.32 70.16 41.72 70.19 42.12 70.27 42.52 70.41 42.91 70.6 43.25 70.85 43.58 71.14 43.87 71.46 44.11 71.82 44.3 72.19 44.44 72.59 44.53 72.99 44.56 73.39 44.53 73.79 44.44 74.17 44.3 74.52 44.11 74.85 43.87 75.13 43.58 75.37 43.25 75.56 42.91 75.71 42.52 75.8 42.12 75.83 41.72 75.83 41.72" fill="#fff" fill-rule="evenodd"/>
    <polygon points="68.79 41.72 68.76 41.32 68.69 40.92 68.54 40.55 68.34 40.19 68.11 39.87 67.82 39.58 67.5 39.35 67.14 39.14 66.75 39.01 66.37 38.92 65.97 38.89 65.55 38.92 65.17 39.01 64.78 39.14 64.42 39.35 64.11 39.58 63.81 39.87 63.58 40.19 63.38 40.55 63.23 40.92 63.16 41.32 63.13 41.72 63.16 42.12 63.23 42.52 63.38 42.91 63.58 43.25 63.81 43.58 64.11 43.87 64.42 44.11 64.78 44.3 65.17 44.44 65.55 44.53 65.97 44.56 66.37 44.53 66.75 44.44 67.14 44.3 67.5 44.11 67.82 43.87 68.11 43.58 68.34 43.25 68.54 42.91 68.69 42.52 68.76 42.12 68.79 41.72 68.79 41.72" fill="#fff" fill-rule="evenodd"/>
    <polygon points="89.88 41.72 89.85 41.32 89.77 40.92 89.63 40.55 89.43 40.19 89.19 39.87 88.9 39.58 88.58 39.35 88.23 39.14 87.84 39.01 87.46 38.92 87.04 38.89 86.64 38.92 86.25 39.01 85.87 39.14 85.51 39.35 85.19 39.58 84.9 39.87 84.67 40.19 84.47 40.55 84.32 40.92 84.23 41.32 84.22 41.72 84.23 42.12 84.32 42.52 84.47 42.91 84.67 43.25 84.9 43.58 85.19 43.87 85.51 44.11 85.87 44.3 86.25 44.44 86.64 44.53 87.04 44.56 87.46 44.53 87.84 44.44 88.23 44.3 88.58 44.11 88.9 43.87 89.19 43.58 89.43 43.25 89.63 42.91 89.77 42.52 89.85 42.12 89.88 41.72 89.88 41.72" fill="#fff" fill-rule="evenodd"/>
    <polygon points="61.77 41.72 61.73 41.32 61.65 40.92 61.51 40.55 61.32 40.19 61.07 39.87 60.78 39.58 60.46 39.35 60.12 39.14 59.73 39.01 59.33 38.92 58.93 38.89 58.53 38.92 58.13 39.01 57.76 39.14 57.4 39.35 57.07 39.58 56.79 39.87 56.55 40.19 56.36 40.55 56.21 40.92 56.12 41.32 56.09 41.72 56.12 42.12 56.21 42.52 56.36 42.91 56.55 43.25 56.79 43.58 57.07 43.87 57.4 44.11 57.76 44.3 58.13 44.44 58.53 44.53 58.93 44.56 59.33 44.53 59.73 44.44 60.12 44.3 60.46 44.11 60.78 43.87 61.07 43.58 61.32 43.25 61.51 42.91 61.65 42.52 61.73 42.12 61.77 41.72 61.77 41.72" fill="#fff" fill-rule="evenodd"/>
    <polygon points="33.1 116.33 33.07 115.93 32.98 115.55 32.85 115.16 32.66 114.81 32.42 114.48 32.12 114.19 31.81 113.96 31.45 113.77 31.07 113.62 30.67 113.53 30.27 113.51 29.86 113.53 29.48 113.62 29.09 113.77 28.74 113.96 28.41 114.19 28.13 114.48 27.89 114.81 27.7 115.16 27.55 115.55 27.46 115.93 27.43 116.33 27.46 116.75 27.55 117.14 27.7 117.52 27.89 117.88 28.13 118.2 28.41 118.48 28.74 118.72 29.09 118.92 29.48 119.06 29.86 119.15 30.27 119.17 30.67 119.15 31.07 119.06 31.45 118.92 31.81 118.72 32.12 118.48 32.42 118.2 32.66 117.88 32.85 117.52 32.98 117.14 33.07 116.75 33.1 116.33 33.1 116.33" fill="#fff" fill-rule="evenodd"/>
    <polygon points="91.91 37.45 54.07 37.45 54.1 36.81 54.18 36.17 54.31 35.53 54.49 34.92 54.73 34.31 55.01 33.74 55.33 33.19 55.71 32.67 56.12 32.18 56.58 31.72 57.07 31.3 57.61 30.93 58.16 30.59 58.73 30.31 59.33 30.09 59.95 29.89 60.58 29.76 61.22 29.68 61.87 29.66 68.39 29.66 68.39 17.9 77.6 17.9 77.6 29.66 84.12 29.66 84.75 29.68 85.39 29.76 86.03 29.89 86.64 30.09 87.25 30.31 87.83 30.59 88.38 30.93 88.9 31.3 89.4 31.72 89.85 32.18 90.26 32.67 90.64 33.19 90.98 33.74 91.26 34.31 91.48 34.92 91.67 35.53 91.81 36.17 91.88 36.81 91.91 37.45 91.91 37.45" fill="#fff" fill-rule="evenodd"/>
    <polygon points="180.54 34.43 180.54 50.97 164 50.97 164 67.5 147.47 67.5 147.47 50.97 130.93 50.97 130.93 34.43 147.47 34.43 147.47 17.9 164 17.9 164 34.43 180.54 34.43 180.54 34.43" fill="#fff" fill-rule="evenodd"/>
    <polygon points="81.47 72.73 81.44 72.06 81.37 71.41 81.23 70.75 81.06 70.11 80.82 69.49 80.55 68.88 80.22 68.3 79.85 67.74 79.44 67.22 78.99 66.73 78.5 66.28 77.97 65.87 77.42 65.5 76.84 65.17 76.23 64.89 75.61 64.67 74.97 64.49 74.31 64.36 73.66 64.28 72.99 64.25 72.32 64.28 71.66 64.36 71.02 64.49 70.36 64.67 69.74 64.89 69.14 65.17 68.55 65.5 68 65.87 67.48 66.28 66.99 66.73 66.55 67.22 66.13 67.74 65.76 68.3 65.43 68.88 65.15 69.49 64.93 70.11 64.75 70.75 64.62 71.41 64.54 72.06 64.51 72.73 64.54 73.39 64.62 74.06 64.75 74.72 64.93 75.35 65.15 75.98 65.43 76.58 65.76 77.17 66.13 77.71 66.55 78.23 66.99 78.72 67.48 79.18 68 79.58 68.55 79.95 69.14 80.28 69.74 80.56 70.36 80.8 71.02 80.98 71.66 81.11 72.32 81.19 72.99 81.22 73.66 81.19 74.31 81.11 74.97 80.98 75.61 80.8 76.23 80.56 76.84 80.28 77.42 79.95 77.97 79.58 78.5 79.18 78.99 78.72 79.44 78.23 79.85 77.71 80.22 77.17 80.55 76.58 80.82 75.98 81.06 75.35 81.23 74.72 81.37 74.06 81.44 73.39 81.47 72.73 81.47 72.73" fill="#fff" fill-rule="evenodd"/>
    <polygon points="81.07 83.64 81.92 83.67 82.75 83.75 83.58 83.89 84.4 84.1 85.2 84.35 85.97 84.64 86.73 85.02 87.47 85.42 88.17 85.88 88.84 86.4 89.46 86.95 90.06 87.54 90.62 88.18 91.13 88.84 91.58 89.54 92 90.27 92.36 91.03 92.67 91.81 92.92 92.61 93.11 93.43 93.26 94.26 93.34 95.09 93.37 95.92 93.37 129.78 93.35 130.25 93.26 130.73 93.13 131.19 92.95 131.62 92.73 132.04 92.45 132.42 92.14 132.78 91.78 133.1 91.39 133.37 90.98 133.61 90.53 133.79 90.07 133.92 89.61 134 89.14 134.02 88.66 134 88.19 133.92 87.74 133.79 87.29 133.61 86.88 133.37 86.49 133.1 86.14 132.78 85.82 132.42 85.54 132.04 85.32 131.62 85.13 131.19 85.01 130.73 84.92 130.25 84.89 129.78 84.89 96.73 84.87 96.53 84.8 96.36 84.68 96.21 84.53 96.09 84.35 96.01 84.16 95.98 83.97 96.01 83.79 96.09 83.64 96.21 83.52 96.36 83.45 96.53 83.42 96.73 83.42 175.7 83.39 176.21 83.31 176.7 83.18 177.19 83 177.66 82.76 178.12 82.5 178.54 82.17 178.94 81.81 179.29 81.43 179.62 81 179.89 80.54 180.13 80.08 180.3 79.59 180.44 79.08 180.51 78.58 180.54 78.07 180.51 77.57 180.44 77.08 180.3 76.6 180.13 76.16 179.89 75.72 179.62 75.32 179.29 74.97 178.94 74.66 178.54 74.37 178.12 74.15 177.66 73.96 177.19 73.84 176.7 73.75 176.21 73.72 175.7 73.72 127.98 73.7 127.79 73.63 127.61 73.51 127.47 73.36 127.35 73.19 127.27 72.99 127.24 72.8 127.27 72.62 127.35 72.47 127.47 72.35 127.61 72.28 127.79 72.25 127.98 72.25 175.7 72.22 176.21 72.14 176.7 72.01 177.19 71.83 177.66 71.6 178.12 71.33 178.54 71 178.94 70.64 179.29 70.26 179.62 69.83 179.89 69.38 180.13 68.91 180.3 68.42 180.44 67.91 180.51 67.41 180.54 66.9 180.51 66.4 180.44 65.91 180.3 65.43 180.13 64.99 179.89 64.56 179.62 64.17 179.29 63.8 178.94 63.49 178.54 63.21 178.12 62.98 177.66 62.8 177.19 62.67 176.7 62.58 176.21 62.57 175.7 62.57 96.73 62.54 96.53 62.46 96.36 62.34 96.21 62.2 96.09 62.02 96.01 61.82 95.98 61.63 96.01 61.45 96.09 61.3 96.21 61.19 96.36 61.11 96.53 61.08 96.73 61.08 129.78 61.05 130.25 60.98 130.73 60.84 131.19 60.67 131.62 60.43 132.04 60.16 132.42 59.85 132.78 59.49 133.1 59.11 133.37 58.69 133.61 58.24 133.79 57.78 133.92 57.32 134 56.85 134.02 56.37 134 55.9 133.92 55.44 133.79 55.01 133.61 54.59 133.37 54.21 133.1 53.85 132.78 53.54 132.42 53.26 132.04 53.02 131.62 52.84 131.19 52.71 130.73 52.63 130.25 52.6 129.78 52.6 95.92 52.63 95.09 52.72 94.26 52.87 93.43 53.06 92.61 53.31 91.81 53.63 91.03 53.98 90.27 54.4 89.54 54.86 88.84 55.36 88.18 55.91 87.54 56.51 86.95 57.15 86.4 57.81 85.88 58.51 85.42 59.24 85.02 60 84.64 60.78 84.35 61.59 84.1 62.4 83.89 63.23 83.75 64.07 83.67 64.9 83.64 81.07 83.64 81.07 83.64" fill="#fff" stroke="#099146" stroke-miterlimit="22.93" stroke-width="0.28" fill-rule="evenodd"/>
  </g>
</svg>
