<svg id="Layer_1" data-name="Layer 1" xmlns="http://www.w3.org/2000/svg" width="70mm" height="70mm" viewBox="0 0 198.42 198.42">
  <title>e013</title>
  <g id="symbolgrp">
    <polygon points="0 198.43 198.42 198.43 198.42 0 0 0 0 198.43 0 198.43" fill="#099146" fill-rule="evenodd"/>
    <polygon points="176.99 87.98 21.43 87.98 20.96 88.02 20.51 88.1 20.08 88.25 19.66 88.47 19.27 88.72 18.92 89.02 18.62 89.37 18.35 89.76 18.15 90.18 18 90.61 17.92 91.06 17.88 91.53 17.92 92 18 92.45 18.15 92.89 18.35 93.31 18.62 93.69 18.92 94.04 19.27 94.34 19.66 94.59 20.08 94.81 20.51 94.95 20.96 95.05 21.43 95.08 29.76 95.08 29.76 151.76 21.43 151.76 20.96 151.79 20.51 151.89 20.08 152.04 19.66 152.24 19.27 152.49 18.92 152.81 18.62 153.15 18.35 153.53 18.15 153.95 18 154.38 17.92 154.85 17.88 155.3 17.92 155.77 18 156.22 18.15 156.66 18.35 157.08 18.62 157.46 18.92 157.81 19.27 158.11 19.66 158.38 20.08 158.58 20.51 158.73 20.96 158.82 21.43 158.85 176.99 158.85 177.44 158.82 177.91 158.73 178.35 158.58 178.77 158.38 179.15 158.11 179.49 157.81 179.81 157.46 180.06 157.08 180.26 156.66 180.41 156.22 180.51 155.77 180.52 155.3 180.51 154.85 180.41 154.38 180.26 153.95 180.06 153.53 179.81 153.15 179.49 152.81 179.15 152.49 178.77 152.24 178.35 152.04 177.91 151.89 177.44 151.79 176.99 151.76 168.65 151.76 168.65 95.08 176.99 95.08 177.44 95.05 177.91 94.95 178.35 94.81 178.77 94.59 179.15 94.34 179.49 94.04 179.81 93.69 180.06 93.31 180.26 92.89 180.41 92.45 180.51 92 180.52 91.53 180.51 91.06 180.41 90.61 180.26 90.18 180.06 89.76 179.81 89.37 179.49 89.02 179.15 88.72 178.77 88.47 178.35 88.25 177.91 88.1 177.44 88.02 176.99 87.98 176.99 87.98" fill="#fff" fill-rule="evenodd"/>
    <polygon points="180.52 50.97 164 50.97 164 67.5 147.45 67.5 147.45 50.97 130.93 50.97 130.93 34.44 147.45 34.44 147.45 17.89 164 17.89 164 34.44 180.52 34.44 180.52 50.97 180.52 50.97" fill="#fff" fill-rule="evenodd"/>
    <polygon points="55.04 123.43 55.01 122.67 54.91 121.92 54.76 121.18 54.54 120.46 54.27 119.76 53.94 119.09 53.55 118.44 53.12 117.84 52.63 117.27 52.09 116.73 51.52 116.25 50.92 115.81 50.27 115.43 49.6 115.09 48.9 114.83 48.17 114.61 47.44 114.46 46.69 114.36 45.95 114.32 45.19 114.36 44.44 114.46 43.7 114.61 42.98 114.83 42.28 115.09 41.61 115.43 40.96 115.81 40.35 116.25 39.79 116.73 39.25 117.27 38.77 117.84 38.33 118.44 37.94 119.09 37.61 119.76 37.34 120.46 37.12 121.18 36.97 121.92 36.87 122.67 36.84 123.43 36.87 124.16 36.97 124.92 37.12 125.65 37.34 126.37 37.61 127.07 37.94 127.74 38.33 128.4 38.77 129 39.25 129.58 39.79 130.1 40.35 130.59 40.96 131.04 41.61 131.43 42.28 131.74 42.98 132.03 43.7 132.23 44.44 132.4 45.19 132.48 45.95 132.51 46.69 132.48 47.44 132.4 48.17 132.23 48.9 132.03 49.6 131.74 50.27 131.43 50.92 131.04 51.52 130.59 52.09 130.1 52.63 129.58 53.12 129 53.55 128.4 53.94 127.74 54.27 127.07 54.54 126.37 54.76 125.65 54.91 124.92 55.01 124.16 55.04 123.43 55.04 123.43" fill="#099146" fill-rule="evenodd"/>
    <polygon points="156.38 134.6 71.69 134.6 71.47 134.64 71.28 134.7 71.11 134.84 71 135 70.91 135.19 70.88 135.39 70.91 135.61 71 135.79 71.11 135.96 71.28 136.08 71.47 136.16 71.69 136.19 107.13 136.19 107.64 136.21 108.14 136.29 108.64 136.44 109.11 136.65 109.56 136.88 109.96 137.18 110.35 137.52 110.68 137.9 110.98 138.32 111.23 138.75 111.42 139.24 111.57 139.72 111.66 140.23 111.69 140.73 111.66 141.25 111.57 141.75 111.42 142.23 111.23 142.7 110.98 143.15 110.68 143.57 110.35 143.94 109.96 144.29 109.56 144.58 109.11 144.83 108.64 145.03 108.14 145.16 107.64 145.25 107.13 145.28 70.83 145.28 69.93 145.25 69.02 145.16 68.14 145.01 67.26 144.79 66.41 144.53 65.57 144.19 64.75 143.81 63.97 143.35 63.21 142.87 62.51 142.32 61.82 141.73 61.19 141.1 60.6 140.41 60.05 139.69 59.56 138.94 59.11 138.15 58.72 137.35 58.39 136.51 58.12 135.64 57.9 134.77 57.75 133.88 57.67 133 57.64 132.09 57.64 114.74 57.67 113.85 57.75 112.95 57.9 112.06 58.12 111.19 58.39 110.32 58.72 109.49 59.11 108.68 59.56 107.9 60.05 107.14 60.6 106.42 61.19 105.74 61.82 105.1 62.51 104.52 63.21 103.97 63.97 103.48 64.75 103.04 65.57 102.64 66.41 102.33 67.26 102.04 68.14 101.84 69.02 101.67 69.93 101.59 70.83 101.56 107.13 101.56 107.64 101.59 108.14 101.67 108.64 101.81 109.11 102.01 109.56 102.26 109.96 102.54 110.35 102.89 110.68 103.26 110.98 103.68 111.23 104.13 111.42 104.6 111.57 105.09 111.66 105.59 111.69 106.11 111.66 106.61 111.57 107.11 111.42 107.61 111.23 108.08 110.98 108.52 110.68 108.94 110.35 109.32 109.96 109.65 109.56 109.96 109.11 110.21 108.64 110.39 108.14 110.54 107.64 110.63 107.13 110.66 71.69 110.66 71.47 110.67 71.28 110.76 71.11 110.88 71 111.04 70.91 111.24 70.88 111.44 70.91 111.64 71 111.85 71.11 112 71.28 112.13 71.47 112.22 71.69 112.23 156.38 112.23 156.97 112.27 157.53 112.36 158.09 112.53 158.62 112.75 159.14 113.03 159.61 113.37 160.04 113.75 160.43 114.19 160.78 114.67 161.05 115.18 161.29 115.71 161.44 116.28 161.54 116.85 161.57 117.44 161.54 118.02 161.44 118.59 161.29 119.14 161.05 119.68 160.78 120.2 160.43 120.67 160.04 121.1 159.61 121.5 159.14 121.84 158.62 122.12 158.09 122.34 157.53 122.51 156.97 122.59 156.38 122.62 105.19 122.62 104.99 122.66 104.81 122.74 104.64 122.86 104.5 123.02 104.44 123.21 104.4 123.43 104.44 123.63 104.5 123.81 104.64 123.98 104.81 124.11 104.99 124.18 105.19 124.21 156.38 124.21 156.97 124.25 157.53 124.35 158.09 124.5 158.62 124.73 159.14 125.02 159.61 125.35 160.04 125.73 160.43 126.17 160.78 126.64 161.05 127.16 161.29 127.69 161.44 128.25 161.54 128.83 161.57 129.4 161.54 129.99 161.44 130.57 161.29 131.12 161.05 131.66 160.78 132.18 160.43 132.65 160.04 133.08 159.61 133.47 159.14 133.8 158.62 134.09 158.09 134.32 157.53 134.47 156.97 134.57 156.38 134.6 156.38 134.6" fill="#099146" fill-rule="evenodd"/>
  </g>
</svg>
