<svg id="Layer_1" data-name="Layer 1" xmlns="http://www.w3.org/2000/svg" width="70mm" height="70mm" viewBox="0 0 198.43 198.43">
  <title>e016</title>
  <g id="symbolgrp">
    <polygon points="198.43 0 0 0 0 198.43 198.43 198.43 198.43 0 198.43 0" fill="#099146" fill-rule="evenodd"/>
    <polygon points="138.54 99.14 122.96 99.14 117.02 93.21 70.29 139.95 69.9 140.31 69.46 140.63 69 140.91 68.51 141.14 68 141.32 67.47 141.46 66.94 141.53 66.4 141.56 65.86 141.53 65.32 141.46 64.8 141.32 64.29 141.14 63.8 140.91 63.33 140.63 62.9 140.31 62.5 139.95 62.14 139.54 61.82 139.11 61.54 138.65 61.31 138.16 61.12 137.65 61 137.12 60.91 136.59 60.9 136.05 60.91 135.51 61 134.97 61.12 134.45 61.31 133.94 61.54 133.46 61.82 133 62.14 132.55 62.5 132.16 101.44 93.21 81.01 72.77 64.07 89.71 63.71 90.03 63.33 90.31 62.93 90.55 62.5 90.76 62.05 90.91 61.6 91.03 61.12 91.1 60.66 91.12 36.69 91.12 36.2 91.09 35.69 91.01 35.21 90.88 34.73 90.7 34.28 90.47 33.87 90.21 33.48 89.88 33.12 89.52 32.8 89.13 32.52 88.71 32.3 88.26 32.12 87.79 31.98 87.31 31.91 86.8 31.88 86.31 31.91 85.8 31.98 85.31 32.12 84.81 32.3 84.35 32.52 83.89 32.8 83.47 33.12 83.08 33.48 82.72 33.87 82.41 34.28 82.12 34.73 81.9 35.21 81.72 35.69 81.58 36.2 81.51 36.69 81.48 58.65 81.48 89.77 50.37 90.11 50.06 90.5 49.77 90.9 49.53 91.32 49.33 91.77 49.17 92.23 49.06 92.7 48.98 93.18 48.97 117.13 48.97 117.64 49 118.13 49.07 118.62 49.21 119.09 49.38 119.53 49.61 119.97 49.88 120.36 50.21 120.72 50.56 121.03 50.95 121.3 51.37 121.54 51.82 121.72 52.3 121.84 52.78 121.93 53.28 121.94 53.78 121.94 78.75 112.31 69.11 112.31 58.6 97.99 58.6 138.54 99.14 138.54 99.14" fill="#fff" fill-rule="evenodd"/>
    <polygon points="67.3 17.89 67.3 38.42 66.56 38.85 65.86 39.33 65.2 39.84 64.57 40.4 63.98 41.02 63.44 41.66 62.93 42.35 62.48 43.05 62.48 34.32 26.96 34.32 26.96 57.24 62.48 57.24 62.48 55.75 62.93 56.47 63.44 57.14 63.98 57.78 64.57 58.39 65.2 58.96 65.86 59.48 66.56 59.95 67.3 60.38 67.3 68.84 62.48 73.65 62.48 61.49 26.96 61.49 26.96 84.41 29.27 84.41 29.14 85.11 29.05 85.83 29.05 86.55 29.1 87.26 29.23 87.97 29.41 88.67 26.96 88.67 26.96 111.59 62.48 111.59 62.48 93.73 63.14 93.54 63.78 93.28 64.41 92.97 64.99 92.6 65.55 92.18 66.07 91.72 67.3 90.49 67.3 123.36 62.48 128.17 62.48 115.83 26.96 115.83 26.96 138.75 58.5 138.75 58.76 139.4 59.06 140.01 59.4 140.61 59.8 141.16 60.24 141.68 60.72 142.16 61.24 142.61 61.79 143.01 26.96 143.01 26.96 165.93 62.48 165.93 62.48 143.41 63.12 143.73 63.78 143.97 64.47 144.16 65.17 144.31 65.88 144.39 66.58 144.39 67.3 144.34 67.3 180.54 62.48 180.54 62.48 170.19 26.96 170.19 26.96 180.54 22.14 180.54 22.14 17.89 26.96 17.89 26.96 30.06 62.48 30.06 62.48 17.89 67.3 17.89 67.3 17.89" fill="#fff" fill-rule="evenodd"/>
    <polygon points="82.84 49.4 82.83 48.68 82.74 47.97 82.61 47.26 82.43 46.56 82.19 45.87 81.9 45.22 81.56 44.59 81.17 43.98 80.75 43.39 80.27 42.84 79.77 42.33 79.23 41.87 78.64 41.44 78.03 41.06 77.39 40.72 76.73 40.43 76.06 40.2 75.35 40 74.65 39.87 73.93 39.79 73.22 39.76 72.5 39.79 71.78 39.87 71.06 40 70.38 40.2 69.69 40.43 69.03 40.72 68.39 41.06 67.79 41.44 67.21 41.87 66.65 42.33 66.14 42.84 65.68 43.39 65.25 43.98 64.86 44.59 64.53 45.22 64.25 45.87 64.01 46.56 63.81 47.26 63.68 47.97 63.6 48.68 63.57 49.4 63.6 50.12 63.68 50.83 63.81 51.55 64.01 52.24 64.25 52.93 64.53 53.58 64.86 54.23 65.25 54.84 65.68 55.41 66.14 55.96 66.65 56.47 67.21 56.93 67.79 57.36 68.39 57.75 69.03 58.08 69.69 58.38 70.38 58.62 71.06 58.8 71.78 58.93 72.5 59.01 73.22 59.04 73.93 59.01 74.65 58.93 75.35 58.8 76.06 58.62 76.73 58.38 77.39 58.08 78.03 57.75 78.64 57.36 79.23 56.93 79.77 56.47 80.27 55.96 80.75 55.41 81.17 54.84 81.56 54.23 81.9 53.58 82.19 52.93 82.43 52.24 82.61 51.55 82.74 50.83 82.83 50.12 82.84 49.4 82.84 49.4" fill="#fff" fill-rule="evenodd"/>
    <polygon points="96.17 91.94 90.01 85.78 90.01 100.65 96.17 94.48 96.17 91.94 96.17 91.94" fill="#fff" fill-rule="evenodd"/>
    <polygon points="96.17 46.13 96.17 24.06 170.13 24.06 170.13 101.98 112.27 101.98 106.11 108.14 176.29 108.14 176.29 17.89 90.01 17.89 90.01 46.81 90.6 46.58 91.23 46.38 91.88 46.25 92.52 46.16 93.18 46.13 96.17 46.13 96.17 46.13" fill="#fff" fill-rule="evenodd"/>
  </g>
</svg>
