<svg id="Layer_1" data-name="Layer 1" xmlns="http://www.w3.org/2000/svg" width="70mm" height="70mm" viewBox="0 0 198.43 198.43">
  <title>e017</title>
  <g id="symbolgrp">
    <polygon points="198.43 0 0 0 0 198.43 198.43 198.43 198.43 0 198.43 0" fill="#099146" fill-rule="evenodd"/>
    <polygon points="120.44 36.61 120.41 36.04 120.33 35.49 120.19 34.95 120 34.42 119.75 33.91 119.46 33.43 119.14 32.98 118.76 32.55 118.34 32.19 117.88 31.85 117.4 31.56 116.91 31.31 116.36 31.12 115.82 30.99 115.27 30.91 114.71 30.89 114.14 30.91 113.59 30.99 113.05 31.12 112.52 31.31 112.01 31.56 111.52 31.85 111.07 32.19 110.66 32.55 110.28 32.98 109.95 33.43 109.65 33.91 109.42 34.42 109.23 34.95 109.1 35.49 109.01 36.04 108.98 36.61 109.01 37.17 109.1 37.72 109.23 38.26 109.42 38.8 109.65 39.3 109.95 39.78 110.28 40.24 110.66 40.66 111.07 41.04 111.52 41.36 112.01 41.65 112.52 41.9 113.05 42.09 113.59 42.22 114.14 42.31 114.71 42.34 115.27 42.31 115.82 42.22 116.36 42.09 116.91 41.9 117.4 41.65 117.88 41.36 118.34 41.04 118.76 40.66 119.14 40.24 119.46 39.78 119.75 39.3 120 38.8 120.19 38.26 120.33 37.72 120.41 37.17 120.44 36.61 120.44 36.61" fill="#fff" fill-rule="evenodd"/>
    <path d="M231.4,444.49l17.06-1.24h13.3V472h47.41V452.67H323.4l3.79-2.86-15-19.93,2.16-7.5-48.75-64.65h16.84l17,22.6-.42.19-.4.22-.37.25-.35.31-.31.34-3.38-4.47-3.07,10.77,1.18,1.56h11.2l-.45-.58h2.82l10.54,14V415l-1.33,4.68,1.17,1.56h11.2l-2.38-3.16.31-.44.25-.47.19-.5.15-.51.09-.53,28.56,37.87L350,469.66h-7.82L339,465.5l-1.67,1.26V472h17.29v16l-9.44,3.39h-7.85l0-.89-.07-.88-.15-.88-.19-.86-.25-.85-.29-.83-.35-.82-.41-.79-.45-.76-.5-.73-.54-.7-.58-.67-.63-.61-.66-.58-.7-.56-.73-.5-.76-.45-.79-.39-.82-.35-.83-.31-.85-.25-.86-.19-.88-.13-.89-.09-.88,0-.89,0-.88.09-.88.13-.86.19-.85.25-.83.31-.82.35-.79.39-.76.45-.73.5-.7.56-.66.58-.63.61-.59.67-.54.7-.5.73-.45.76-.41.79-.35.82-.29.83-.25.85-.19.86-.14.88-.09.88,0,.89H254l0-.89-.07-.88-.15-.88-.19-.86-.25-.85-.29-.83-.37-.82-.39-.79-.45-.76-.5-.73-.54-.7-.58-.67-.63-.61-.66-.58-.7-.56-.73-.5-.77-.45-.79-.39-.8-.35-.83-.31-.85-.25-.86-.19-.88-.13-.89-.09-.88,0-.89,0-.88.09-.88.13-.86.19-.85.25-.83.31-.82.35-.79.39-.76.45-.73.5-.7.56-.66.58-.63.61-.58.67-.54.7-.5.73-.45.76-.41.79-.35.82-.29.83-.25.85-.2.86-.13.88-.09.88,0,.89h-2.18l-.42,0-.42-.09-.41-.13-.38-.19-.35-.23-.32-.28-.28-.32-.25-.37-.19-.38-.13-.41-.09-.41,0-.44V468.77l0-.47.09-.47.15-.45,7.92-20.79.18-.38.22-.35.25-.32.31-.28.32-.25.37-.21.38-.15.4-.12.41-.06ZM315.74,408l-2.59,9.09L306.3,408ZM306.23,393l9.3,12.33h-11.2l-1.18-1.56L306.23,393Zm36,62.59,6.86,9.09,2.62-9.09Zm-.07-14.95-3.09,10.77,1.19,1.56h11.2l-9.3-12.33Zm-12-15.88,9.31,12.33h-11.2l-1.19-1.56,3.07-10.77Zm9.53,14.95-2.6,9.09-6.84-9.09Zm-21.43-15.88,6.86,9.09,2.6-9.09Zm-14.5-31.76-2.6,9.09-6.84-9.09Zm-21.43-15.88,6.86,9.09,2.6-9.09Zm-.07-14.95,9.3,12.33h-11.2l-1.17-1.56,3.07-10.77Zm-2.46-.94-2.59,9.09-6.86-9.09ZM229.69,451l-5.28,13.87-.09.29,0,.31v.31l.06.31.1.28.15.28.19.25.22.2.25.18.28.13.31.09.31,0h.31L248,465.16V448.91l-17.22,1.26-.23,0-.23.09-.22.13-.18.16-.15.2-.12.22Z" transform="translate(-197.9 -321.79)" fill="#fff" fill-rule="evenodd"/>
    <polygon points="60.58 116.22 60.55 115.75 60.46 115.29 60.33 114.83 60.14 114.4 59.89 114 59.6 113.62 59.26 113.29 58.88 112.99 58.49 112.75 58.05 112.56 57.6 112.41 57.13 112.33 56.66 112.31 56.19 112.33 55.73 112.41 55.27 112.56 54.83 112.75 54.42 112.99 54.06 113.29 53.72 113.62 53.43 114 53.18 114.4 52.99 114.83 52.85 115.29 52.77 115.75 52.74 116.22 52.74 120.15 60.58 120.15 60.58 116.22 60.58 116.22" fill="#fff" fill-rule="evenodd"/>
    <polygon points="53.01 169.58 52.98 168.8 52.89 168.01 52.74 167.25 52.55 166.5 52.31 165.75 52.01 165.02 51.66 164.33 51.27 163.65 50.81 163.02 50.32 162.4 49.79 161.83 49.22 161.29 48.61 160.81 47.96 160.36 47.29 159.96 46.59 159.61 45.87 159.31 45.13 159.06 44.37 158.87 43.61 158.74 42.82 158.65 42.04 158.62 41.25 158.65 40.48 158.74 39.7 158.87 38.96 159.06 38.21 159.31 37.48 159.61 36.8 159.96 36.11 160.36 35.48 160.81 34.87 161.29 34.3 161.83 33.76 162.4 33.27 163.02 32.82 163.65 32.42 164.33 32.07 165.02 31.77 165.75 31.52 166.5 31.33 167.25 31.2 168.01 31.11 168.8 31.08 169.58 31.11 170.37 31.2 171.14 31.33 171.91 31.52 172.66 31.77 173.41 32.07 174.13 32.42 174.84 32.82 175.51 33.27 176.15 33.76 176.75 34.3 177.33 34.87 177.86 35.48 178.36 36.11 178.79 36.8 179.19 37.48 179.54 38.21 179.85 38.96 180.1 39.7 180.29 40.48 180.43 41.25 180.5 42.04 180.53 42.82 180.5 43.61 180.43 44.37 180.29 45.13 180.1 45.87 179.85 46.59 179.54 47.29 179.19 47.96 178.79 48.61 178.36 49.22 177.86 49.79 177.33 50.32 176.75 50.81 176.15 51.27 175.51 51.66 174.84 52.01 174.13 52.31 173.41 52.55 172.66 52.74 171.91 52.89 171.14 52.98 170.37 53.01 169.58 53.01 169.58" fill="#fff" fill-rule="evenodd"/>
    <polygon points="136.33 169.58 136.3 168.8 136.22 168.01 136.07 167.25 135.88 166.5 135.63 165.75 135.34 165.02 134.99 164.33 134.59 163.65 134.14 163.02 133.66 162.4 133.12 161.83 132.54 161.29 131.93 160.81 131.29 160.36 130.62 159.96 129.91 159.61 129.2 159.31 128.45 159.06 127.69 158.87 126.93 158.74 126.14 158.65 125.37 158.62 124.58 158.65 123.81 158.74 123.04 158.87 122.28 159.06 121.54 159.31 120.81 159.61 120.12 159.96 119.45 160.36 118.81 160.81 118.19 161.29 117.62 161.83 117.08 162.4 116.6 163.02 116.14 163.65 115.75 164.33 115.4 165.02 115.09 165.75 114.86 166.5 114.65 167.25 114.52 168.01 114.43 168.8 114.41 169.58 114.43 170.37 114.52 171.14 114.65 171.91 114.86 172.66 115.09 173.41 115.4 174.13 115.75 174.84 116.14 175.51 116.6 176.15 117.08 176.75 117.62 177.33 118.19 177.86 118.81 178.36 119.45 178.79 120.12 179.19 120.81 179.54 121.54 179.85 122.28 180.1 123.04 180.29 123.81 180.43 124.58 180.5 125.37 180.53 126.14 180.5 126.93 180.43 127.69 180.29 128.45 180.1 129.2 179.85 129.91 179.54 130.62 179.19 131.29 178.79 131.93 178.36 132.54 177.86 133.12 177.33 133.66 176.75 134.14 176.15 134.59 175.51 134.99 174.84 135.34 174.13 135.63 173.41 135.88 172.66 136.07 171.91 136.22 171.14 136.3 170.37 136.33 169.58 136.33 169.58" fill="#fff" fill-rule="evenodd"/>
    <polygon points="137.74 67.85 134.08 71.5 175.95 71.5 175.95 17.88 124.68 17.88 124.68 35.21 125.14 35.02 125.6 34.89 126.08 34.82 126.57 34.79 128.35 34.79 128.35 21.55 172.28 21.55 172.28 67.85 137.74 67.85 137.74 67.85" fill="#fff" fill-rule="evenodd"/>
    <polygon points="143.66 39.21 143.66 54.1 137.94 48.37 137.94 42.08 129.43 42.08 153.64 66.29 144.39 66.29 140.73 62.63 126.66 76.72 126.66 93.36 126.63 93.78 126.55 94.2 126.41 94.61 126.22 94.99 125.98 95.34 125.71 95.67 125.38 95.96 125.02 96.19 124.64 96.38 124.23 96.51 123.82 96.6 123.38 96.63 122.96 96.6 122.53 96.51 122.14 96.38 121.74 96.19 121.39 95.96 121.07 95.67 120.79 95.34 120.55 94.99 120.37 94.61 120.22 94.2 120.14 93.78 120.11 93.36 120.11 75.36 120.14 74.94 120.22 74.51 120.37 74.12 120.55 73.72 120.79 73.37 121.07 73.05 131.48 62.63 120.18 51.33 120.18 62.69 120.15 63.07 120.08 63.44 119.96 63.79 119.78 64.12 119.58 64.44 119.33 64.72 119.05 64.97 118.75 65.17 118.41 65.35 118.06 65.47 117.68 65.54 117.31 65.56 103.08 65.56 102.71 65.54 102.33 65.47 101.98 65.35 101.64 65.17 101.34 64.97 101.06 64.72 100.81 64.44 100.6 64.12 100.43 63.79 100.31 63.44 100.24 63.07 100.21 62.69 100.24 62.33 100.31 61.96 100.43 61.6 100.6 61.26 100.81 60.95 101.06 60.67 101.34 60.43 101.64 60.22 101.98 60.05 102.33 59.93 102.71 59.86 103.08 59.83 114.45 59.83 114.45 48.46 114.48 48.1 114.55 47.72 114.67 47.37 114.83 47.03 115.03 46.72 115.28 46.45 124.54 37.18 124.83 36.94 125.14 36.73 125.47 36.57 125.82 36.44 126.19 36.37 126.57 36.35 140.81 36.35 141.17 36.37 141.54 36.44 141.9 36.57 142.24 36.73 142.54 36.94 142.82 37.18 143.07 37.46 143.28 37.78 143.45 38.12 143.57 38.47 143.64 38.83 143.66 39.21 143.66 39.21" fill="#fff" fill-rule="evenodd"/>
    <polygon points="128.35 63.57 128.35 61.7 124.68 58.05 124.68 67.23 128.35 63.57 128.35 63.57" fill="#fff" fill-rule="evenodd"/>
  </g>
</svg>
