<svg id="Layer_1" data-name="Layer 1" xmlns="http://www.w3.org/2000/svg" width="70mm" height="70mm" viewBox="0 0 198.43 198.43">
  <title>e018</title>
  <g id="symbolgrp">
    <polygon points="198.43 0 0 0 0 198.43 198.43 198.43 198.43 0 198.43 0" fill="#099146" fill-rule="evenodd"/>
    <polygon points="165.89 17.86 83.66 17.86 83.66 180.5 165.89 180.5 165.89 17.86 165.89 17.86" fill="#fff" fill-rule="evenodd"/>
    <polygon points="83.66 29.3 83.66 48.46 82.37 49.18 81.14 49.9 79.85 50.62 78.62 51.41 77.47 52.27 76.32 53.14 75.17 54.07 74.09 55.08 73.01 56.09 72 57.1 70.99 58.18 70.06 59.26 69.12 60.41 68.26 61.63 67.46 62.78 66.67 64.01 65.88 65.3 65.23 66.6 64.58 67.9 63.94 69.19 63.36 70.56 62.86 71.93 62.42 73.3 61.99 74.74 61.63 76.1 61.34 77.54 61.06 78.98 60.84 80.42 71.78 80.42 52.13 102.25 32.54 80.42 42.91 80.42 43.13 78.62 43.34 76.9 43.63 75.17 43.99 73.44 44.42 71.71 44.86 69.98 45.36 68.26 45.86 66.6 46.51 64.87 47.16 63.22 47.81 61.63 48.6 60.05 49.39 58.46 50.26 56.88 51.12 55.3 52.06 53.78 52.99 52.34 54.07 50.9 55.08 49.46 56.23 48.1 57.38 46.73 58.54 45.43 59.76 44.14 61.06 42.91 62.35 41.69 63.65 40.54 65.02 39.38 66.46 38.3 67.9 37.22 69.34 36.22 70.85 35.28 72.36 34.34 73.94 33.48 75.46 32.69 77.11 31.9 78.7 31.18 80.35 30.53 82.01 29.88 83.66 29.3 83.66 29.3" fill="#fff" fill-rule="evenodd"/>
    <polygon points="89.5 129.53 90.22 129.53 90.94 129.46 91.66 129.31 92.38 129.17 93.1 128.95 93.82 128.66 94.46 128.3 95.18 127.94 95.83 127.51 96.55 127.08 97.2 126.58 97.78 126 98.42 125.35 99 124.7 99.65 124.06 100.15 123.26 100.73 122.54 101.3 121.68 101.81 120.89 102.24 119.95 102.75 119.09 103.18 118.15 103.54 117.14 103.97 116.14 104.26 115.13 104.62 114.05 104.9 112.97 105.19 111.89 105.41 110.81 105.62 109.66 105.84 108.5 105.98 107.35 106.13 106.2 106.2 104.98 106.27 103.82 106.27 102.67 106.27 101.45 106.27 100.3 106.2 99.07 106.13 97.92 105.98 96.77 105.84 95.62 105.62 94.46 105.41 93.31 105.19 92.16 104.9 91.08 104.62 90 104.26 88.99 103.97 87.91 103.54 86.98 103.18 85.97 102.75 85.03 102.24 84.1 101.81 83.23 101.3 82.37 100.73 81.58 100.15 80.78 99.65 80.06 99 79.34 98.42 78.7 97.78 78.12 97.2 77.54 96.55 77.04 95.83 76.54 95.18 76.1 94.46 75.74 93.82 75.46 93.1 75.17 92.38 74.95 91.66 74.74 90.94 74.59 90.22 74.52 89.5 74.52 123.41 74.52 124.13 74.52 124.85 74.59 125.57 74.74 126.29 74.95 126.94 75.17 127.66 75.46 128.38 75.74 129.02 76.1 129.75 76.54 130.39 77.04 131.04 77.54 131.69 78.12 132.26 78.7 132.91 79.34 133.49 80.06 134.06 80.78 134.57 81.58 135.14 82.37 135.65 83.23 136.15 84.1 136.58 85.03 137.02 85.97 137.45 86.98 137.81 87.91 138.17 88.99 138.46 90 138.82 91.08 139.03 92.16 139.32 93.31 139.54 94.46 139.68 95.62 139.82 96.77 139.97 97.92 140.04 99.07 140.11 100.3 140.18 101.45 140.18 102.67 140.11 103.82 140.04 104.98 139.97 106.2 139.82 107.35 139.68 108.5 139.54 109.66 139.32 110.81 139.03 111.89 138.82 112.97 138.46 114.05 138.17 115.13 137.81 116.14 137.45 117.14 137.02 118.15 136.58 119.09 136.15 119.95 135.65 120.89 135.14 121.68 134.57 122.54 134.06 123.26 133.49 124.06 132.91 124.7 132.26 125.35 131.69 126 131.04 126.58 130.39 127.08 129.75 127.51 129.02 127.94 128.38 128.3 127.66 128.66 126.94 128.95 126.29 129.17 125.57 129.31 124.85 129.46 124.13 129.53 123.41 129.53 89.5 129.53 89.5 129.53" fill="#099146" fill-rule="evenodd"/>
    <polygon points="89.5 74.52 88.78 74.52 88.06 74.59 87.34 74.74 86.62 74.95 85.9 75.17 85.18 75.46 84.53 75.74 83.81 76.18 83.16 76.61 82.44 77.04 81.79 77.62 81.14 78.12 80.57 78.77 79.92 79.42 79.34 80.14 78.77 80.86 78.26 81.65 77.69 82.51 77.18 83.3 76.75 84.24 76.25 85.18 75.82 86.11 75.46 87.12 75.02 88.13 74.66 89.14 74.38 90.22 74.09 91.3 73.8 92.38 73.58 93.53 73.37 94.68 73.15 95.83 73.01 96.98 72.94 98.21 72.79 99.36 72.79 100.51 72.72 101.74 72.72 102.96 72.79 104.11 72.86 105.34 72.94 106.49 73.08 107.64 73.22 108.79 73.44 110.02 73.66 111.1 73.94 112.25 74.23 113.33 74.52 114.41 74.88 115.49 75.24 116.5 75.6 117.5 76.03 118.44 76.46 119.38 76.97 120.31 77.47 121.18 77.98 122.04 78.55 122.83 79.06 123.55 79.63 124.34 80.28 124.99 80.86 125.64 81.5 126.22 82.15 126.79 82.8 127.3 83.45 127.73 84.17 128.16 84.89 128.45 85.54 128.81 86.26 129.02 86.98 129.24 87.7 129.38 88.42 129.53 89.14 129.53 89.86 129.53 90.65 129.53 91.37 129.38 92.09 129.24 92.74 129.02 93.46 128.81 94.18 128.45 94.9 128.16 95.54 127.73 96.26 127.3 96.91 126.79 97.56 126.22 98.21 125.64 98.78 124.99 99.36 124.34 99.94 123.55 100.51 122.83 101.09 122.04 101.59 121.18 102.1 120.31 102.53 119.38 102.96 118.44 103.39 117.5 103.82 116.5 104.18 115.49 104.54 114.41 104.83 113.33 105.12 112.25 105.34 111.1 105.62 110.02 105.77 108.79 105.91 107.64 106.06 106.49 106.2 105.34 106.27 104.11 106.27 102.96 106.27 101.74 106.27 100.51 106.2 99.36 106.13 98.21 105.98 96.98 105.84 95.83 105.7 94.68 105.48 93.53 105.26 92.38 104.98 91.3 104.69 90.22 104.33 89.14 103.97 88.13 103.61 87.12 103.18 86.11 102.75 85.18 102.31 84.24 101.81 83.3 101.3 82.51 100.8 81.65 100.22 80.86 99.65 80.14 99.07 79.42 98.5 78.77 97.85 78.12 97.2 77.62 96.55 77.04 95.9 76.61 95.26 76.18 94.54 75.74 93.82 75.46 93.1 75.17 92.45 74.95 91.73 74.74 91.01 74.59 90.22 74.52 89.5 74.52 89.5 74.52" fill="#fff" fill-rule="evenodd"/>
    <polygon points="83.66 48.46 85.03 47.88 86.33 47.3 87.7 46.8 89.06 46.3 90.5 45.86 91.87 45.5 93.31 45.14 94.75 44.86 96.19 44.64 97.63 44.42 99.07 44.28 100.51 44.21 101.95 44.21 103.39 44.21 104.9 44.28 106.34 44.42 107.78 44.57 109.22 44.78 110.67 45.07 112.03 45.36 113.47 45.79 114.84 46.15 116.28 46.66 117.58 47.16 118.94 47.74 120.31 48.31 121.61 49.03 122.83 49.68 124.13 50.47 125.35 51.26 126.5 52.06 127.66 52.99 128.81 53.86 129.96 54.79 130.97 55.8 132.05 56.81 133.06 57.89 133.99 59.04 134.93 60.12 135.79 61.27 136.66 62.5 137.45 63.72 138.17 64.94 138.89 66.24 139.54 67.54 140.18 68.83 140.69 70.2 141.26 71.57 141.7 72.94 142.13 74.3 142.56 75.74 142.85 77.18 143.14 78.55 143.35 79.99 143.57 81.5 143.64 82.94 143.78 84.38 143.78 85.82 161.57 85.82 161.57 84.1 161.5 82.3 161.35 80.57 161.14 78.84 160.92 77.11 160.63 75.38 160.34 73.66 159.91 71.93 159.48 70.27 158.98 68.54 158.47 66.89 157.9 65.23 157.25 63.58 156.6 61.99 155.88 60.41 155.09 58.82 154.3 57.24 153.43 55.73 152.5 54.29 151.56 52.78 150.55 51.34 149.47 49.9 148.46 48.53 147.31 47.23 146.16 45.86 144.94 44.64 143.71 43.34 142.49 42.12 141.12 40.97 139.82 39.89 138.46 38.74 137.02 37.73 135.58 36.72 134.14 35.78 132.62 34.85 131.11 33.91 129.6 33.12 128.02 32.33 126.43 31.61 124.85 30.89 123.19 30.24 121.54 29.66 119.88 29.09 118.22 28.58 116.5 28.15 114.84 27.72 113.11 27.43 111.38 27.07 109.66 26.86 107.93 26.64 106.13 26.5 104.4 26.42 102.67 26.35 100.87 26.42 99.14 26.42 97.42 26.57 95.69 26.71 93.89 26.93 92.16 27.22 90.43 27.5 88.7 27.94 87.05 28.37 85.39 28.8 83.66 29.3 83.66 48.46 83.66 48.46" fill="#099146" fill-rule="evenodd"/>
  </g>
</svg>
