<svg id="Layer_1" data-name="Layer 1" xmlns="http://www.w3.org/2000/svg" width="70mm" height="70mm" viewBox="0 0 198.43 198.43">
  <title>e019</title>
  <g id="symbolgrp">
    <polygon points="0 0 198.43 0 198.43 198.43 0 198.43 0 0 0 0" fill="#099146" fill-rule="evenodd"/>
    <polygon points="32.59 17.82 114.75 17.82 114.75 180.47 32.59 180.47 32.59 17.82 32.59 17.82" fill="#fff" fill-rule="evenodd"/>
    <polygon points="114.75 29.27 114.75 48.42 116.04 49.14 117.34 49.86 118.64 50.58 119.79 51.37 121.01 52.24 122.16 53.1 123.31 54.04 124.39 55.05 125.47 56.05 126.48 57.06 127.49 58.14 128.43 59.22 129.29 60.37 130.23 61.6 131.02 62.75 131.81 63.98 132.53 65.27 133.25 66.57 133.9 67.86 134.47 69.16 135.05 70.53 135.63 71.89 136.06 73.26 136.49 74.7 136.85 76.07 137.14 77.51 137.43 78.95 137.64 80.39 126.63 80.39 146.28 102.22 165.94 80.39 155.5 80.39 155.35 78.59 155.07 76.86 154.78 75.13 154.49 73.41 154.06 71.68 153.63 69.95 153.12 68.22 152.55 66.57 151.97 64.84 151.32 63.18 150.6 61.6 149.88 60.01 149.09 58.43 148.23 56.85 147.36 55.26 146.43 53.75 145.42 52.31 144.41 50.87 143.33 49.43 142.25 48.06 141.1 46.69 139.87 45.4 138.72 44.1 137.43 42.88 136.13 41.65 134.76 40.5 133.4 39.35 132.03 38.27 130.59 37.19 129.07 36.18 127.64 35.25 126.12 34.31 124.54 33.45 122.95 32.65 121.37 31.86 119.79 31.14 118.13 30.49 116.47 29.85 114.75 29.27 114.75 29.27" fill="#fff" fill-rule="evenodd"/>
    <polygon points="108.91 129.49 108.19 129.49 107.47 129.42 106.75 129.28 106.11 129.13 105.39 128.92 104.67 128.63 103.95 128.27 103.3 127.91 102.58 127.48 101.93 127.05 101.28 126.54 100.63 125.97 100.06 125.32 99.41 124.67 98.83 124.02 98.26 123.23 97.75 122.51 97.18 121.65 96.67 120.85 96.24 119.92 95.74 119.06 95.31 118.12 94.95 117.11 94.52 116.1 94.15 115.09 93.87 114.02 93.51 112.94 93.29 111.85 93 110.77 92.79 109.62 92.64 108.47 92.5 107.32 92.36 106.17 92.28 104.94 92.21 103.79 92.14 102.64 92.14 101.41 92.21 100.26 92.28 99.04 92.36 97.89 92.5 96.73 92.64 95.58 92.79 94.43 93 93.28 93.29 92.13 93.51 91.05 93.87 89.97 94.15 88.96 94.52 87.88 94.95 86.94 95.31 85.94 95.74 85 96.24 84.06 96.67 83.2 97.18 82.33 97.75 81.54 98.26 80.75 98.83 80.03 99.41 79.31 100.06 78.66 100.63 78.09 101.28 77.51 101.93 77.01 102.58 76.5 103.3 76.07 103.95 75.71 104.67 75.42 105.39 75.13 106.11 74.92 106.75 74.7 107.47 74.56 108.19 74.49 108.91 74.49 75.07 74.49 74.36 74.49 73.63 74.56 72.92 74.7 72.19 74.92 71.47 75.13 70.75 75.42 70.11 75.71 69.39 76.07 68.74 76.5 68.09 77.01 67.44 77.51 66.79 78.09 66.15 78.66 65.57 79.31 65 80.03 64.42 80.75 63.84 81.54 63.34 82.33 62.84 83.2 62.33 84.06 61.9 85 61.47 85.94 61.03 86.94 60.67 87.88 60.31 88.96 59.95 89.97 59.67 91.05 59.38 92.13 59.16 93.28 58.95 94.43 58.73 95.58 58.59 96.73 58.44 97.89 58.37 99.04 58.3 100.26 58.3 101.41 58.3 102.64 58.3 103.79 58.37 104.94 58.44 106.17 58.59 107.32 58.73 108.47 58.95 109.62 59.16 110.77 59.38 111.85 59.67 112.94 59.95 114.02 60.31 115.09 60.67 116.1 61.03 117.11 61.47 118.12 61.9 119.06 62.33 119.92 62.84 120.85 63.34 121.65 63.84 122.51 64.42 123.23 65 124.02 65.57 124.67 66.15 125.32 66.79 125.97 67.44 126.54 68.09 127.05 68.74 127.48 69.39 127.91 70.11 128.27 70.75 128.63 71.47 128.92 72.19 129.13 72.92 129.28 73.63 129.42 74.36 129.49 75.07 129.49 108.91 129.49 108.91 129.49" fill="#099146" fill-rule="evenodd"/>
    <polygon points="108.91 74.49 109.64 74.49 110.43 74.56 111.15 74.7 111.87 74.92 112.59 75.13 113.23 75.42 113.95 75.71 114.67 76.14 115.32 76.57 115.97 77.01 116.62 77.58 117.27 78.09 117.91 78.73 118.49 79.38 119.14 80.1 119.64 80.82 120.22 81.61 120.72 82.48 121.23 83.27 121.73 84.21 122.16 85.14 122.59 86.08 123.03 87.09 123.39 88.09 123.75 89.1 124.11 90.18 124.39 91.26 124.68 92.34 124.9 93.49 125.11 94.65 125.33 95.8 125.47 96.95 125.55 98.17 125.62 99.33 125.69 100.48 125.76 101.7 125.69 102.93 125.69 104.08 125.62 105.3 125.47 106.45 125.4 107.61 125.19 108.76 125.04 109.98 124.83 111.06 124.54 112.21 124.25 113.29 123.96 114.37 123.6 115.45 123.24 116.46 122.81 117.47 122.38 118.41 121.95 119.34 121.52 120.28 121.01 121.14 120.51 122.01 119.93 122.8 119.43 123.52 118.78 124.31 118.2 124.96 117.56 125.61 116.98 126.18 116.33 126.76 115.68 127.26 114.96 127.69 114.31 128.13 113.59 128.41 112.87 128.77 112.23 128.99 111.51 129.21 110.79 129.35 109.99 129.49 109.27 129.49 108.56 129.49 107.83 129.49 107.11 129.35 106.39 129.21 105.67 128.99 104.95 128.77 104.31 128.41 103.59 128.13 102.87 127.69 102.22 127.26 101.57 126.76 100.92 126.18 100.27 125.61 99.7 124.96 99.05 124.31 98.47 123.52 97.9 122.8 97.39 122.01 96.89 121.14 96.39 120.28 95.88 119.34 95.45 118.41 95.02 117.47 94.66 116.46 94.3 115.45 93.94 114.37 93.65 113.29 93.36 112.21 93.07 111.06 92.86 109.98 92.64 108.76 92.5 107.61 92.36 106.45 92.28 105.3 92.21 104.08 92.14 102.93 92.14 101.7 92.21 100.48 92.21 99.33 92.36 98.17 92.43 96.95 92.57 95.8 92.79 94.65 93 93.49 93.22 92.34 93.51 91.26 93.79 90.18 94.08 89.1 94.44 88.09 94.88 87.09 95.23 86.08 95.67 85.14 96.17 84.21 96.6 83.27 97.11 82.48 97.68 81.61 98.19 80.82 98.76 80.1 99.34 79.38 99.99 78.73 100.63 78.09 101.21 77.58 101.93 77.01 102.58 76.57 103.23 76.14 103.95 75.71 104.59 75.42 105.31 75.13 106.03 74.92 106.75 74.7 107.47 74.56 108.19 74.49 108.91 74.49 108.91 74.49" fill="#fff" fill-rule="evenodd"/>
    <polygon points="114.75 48.42 113.45 47.85 112.15 47.27 110.79 46.77 109.42 46.26 107.98 45.83 106.61 45.47 105.17 45.11 103.73 44.82 102.29 44.61 100.85 44.39 99.41 44.25 97.97 44.17 96.53 44.17 95.02 44.17 93.58 44.25 92.14 44.39 90.7 44.53 89.26 44.75 87.82 45.04 86.38 45.33 85.01 45.76 83.57 46.12 82.2 46.62 80.83 47.13 79.54 47.7 78.17 48.28 76.88 49 75.58 49.65 74.36 50.44 73.13 51.23 71.91 52.02 70.75 52.96 69.6 53.82 68.52 54.76 67.44 55.77 66.44 56.77 65.43 57.85 64.49 59.01 63.55 60.09 62.69 61.24 61.83 62.46 61.03 63.69 60.31 64.91 59.59 66.21 58.95 67.5 58.3 68.8 57.72 70.17 57.22 71.53 56.71 72.9 56.28 74.27 55.92 75.71 55.63 77.15 55.35 78.52 55.13 79.96 54.91 81.47 54.77 82.91 54.7 84.35 54.7 85.79 36.91 85.79 36.91 84.06 36.99 82.26 37.13 80.53 37.27 78.81 37.56 77.08 37.85 75.35 38.14 73.62 38.57 71.89 39 70.24 39.44 68.51 40.01 66.85 40.59 65.2 41.16 63.54 41.88 61.96 42.6 60.37 43.4 58.79 44.19 57.21 45.05 55.69 45.99 54.25 46.92 52.74 47.93 51.3 48.94 49.86 50.02 48.49 51.17 47.2 52.32 45.83 53.55 44.61 54.77 43.31 55.99 42.09 57.29 40.94 58.66 39.85 60.03 38.7 61.4 37.69 62.84 36.69 64.35 35.75 65.79 34.81 67.3 33.88 68.88 33.09 70.39 32.29 72.05 31.57 73.63 30.85 75.29 30.21 76.95 29.63 78.6 29.05 80.26 28.55 81.92 28.12 83.64 27.69 85.37 27.4 87.1 27.04 88.83 26.82 90.56 26.61 92.28 26.46 94.08 26.39 95.81 26.32 97.54 26.39 99.34 26.39 101.07 26.53 102.8 26.68 104.52 26.89 106.32 27.18 107.98 27.47 109.71 27.9 111.44 28.33 113.09 28.77 114.75 29.27 114.75 48.42 114.75 48.42" fill="#099146" fill-rule="evenodd"/>
  </g>
</svg>
