<svg id="Layer_1" data-name="Layer 1" xmlns="http://www.w3.org/2000/svg" width="70mm" height="70mm" viewBox="0 0 198.43 198.43">
  <title>f001</title>
  <g id="symbolgrp">
    <polygon points="198.43 0 0 0 0 198.43 198.43 198.43 198.43 0 198.43 0" fill="#ed1c24" fill-rule="evenodd"/>
    <path d="M278.48,376c-3.64-3.71-11.54-5.26-11.54-5.26l.13-11.67,4.72-.2L279,357v-8.43l-6.61-1.89-7.29-.13v-6.81H249.2v5.73h-8.43s-4.65,3.37-9,7.22c-5.33,4.72-10.52,10.05-10.52,10.05a42.77,42.77,0,0,0-2.23,9.17,92.84,92.84,0,0,0-.4,12.41l6-.13,1.21-10.79s4.45-4.38,8.43-8.1c3.71-3.58,6.61-6.54,6.61-6.54h5.67V371.6s-7.83-.2-12,4.38c-4.39,4.92-5.19,14.64-5.19,14.64l-.13,108.14.61,3a25.31,25.31,0,0,0,3.85.61h47.9l1.62-.74.54-4.32.47-108.41s-.88-7.76-5.73-12.88Z" transform="translate(-197.9 -321.79)" fill="#fff" fill-rule="evenodd"/>
    <polygon points="79.97 103.7 79.97 78.61 38.01 78.61 38.01 103.7 79.97 103.7 79.97 103.7" fill="#ed1c24" fill-rule="evenodd"/>
    <polygon points="177.75 148.49 173.4 147.26 171.22 146.56 169.05 145.86 166.94 145.06 164.84 144.18 162.77 143.23 160.77 142.15 158.81 140.99 157.86 140.36 156.95 139.69 155.23 138.22 153.55 136.68 151.94 135.1 150.43 133.42 148.92 131.7 148.11 130.9 147.31 130.13 145.55 128.66 143.76 127.29 141.9 125.96 139.98 124.73 138.96 124.2 137.94 123.75 135.8 122.98 133.63 122.28 132.54 122 131.42 121.75 130.3 121.61 129.17 121.58 128.05 121.65 126.89 121.79 124.65 122.14 122.44 122.59 121.32 122.91 120.27 123.26 119.18 123.64 118.16 124.13 117.18 124.69 116.2 125.25 114.31 126.55 116.58 127.11 118.83 127.78 121.04 128.58 122.13 129.08 123.14 129.6 124.19 130.16 125.18 130.79 126.16 131.46 127.07 132.16 128.86 133.7 130.51 135.38 132.05 137.13 133.52 138.92 136.4 142.64 137.91 144.46 139.49 146.21 141.17 147.82 142.96 149.33 143.9 150.03 144.89 150.7 145.9 151.29 146.92 151.82 149.09 152.77 151.31 153.54 153.58 154.17 155.9 154.59 158.21 154.87 160.56 154.9 162.91 154.76 165.23 154.48 167.54 154.03 168.66 153.71 169.79 153.36 170.87 152.94 171.93 152.45 172.98 151.89 173.99 151.29 175.89 149.93 177.75 148.49 177.75 148.49" fill="#fff" fill-rule="evenodd"/>
    <polygon points="177.75 180.45 177.75 159.15 174.66 159.91 171.54 160.62 168.38 161.21 166.81 161.42 165.23 161.6 163.65 161.7 162.03 161.74 160.42 161.74 158.84 161.67 157.23 161.53 155.65 161.35 154.07 161.07 152.53 160.76 149.44 159.91 146.39 158.93 143.41 157.81 141.94 157.18 140.5 156.52 139.06 155.78 137.7 154.97 136.36 154.13 135.07 153.19 133.84 152.17 132.68 151.08 130.44 148.77 131.45 152.66 132.58 156.52 133.21 158.41 133.91 160.27 134.72 162.09 135.59 163.91 136.61 165.66 137.7 167.34 138.92 168.96 140.22 170.5 141.63 171.94 143.13 173.27 144.75 174.5 146.43 175.55 148.18 176.49 150.01 177.3 151.9 178 153.83 178.59 155.79 179.09 157.79 179.51 159.79 179.82 161.79 180.07 163.79 180.28 165.79 180.38 169.79 180.52 173.78 180.52 177.75 180.45 177.75 180.45" fill="#fff" fill-rule="evenodd"/>
    <polygon points="177.75 104.3 175.22 104.96 173.92 105.21 172.63 105.38 171.33 105.53 170.03 105.59 168.73 105.59 167.4 105.56 166.1 105.45 164.81 105.28 163.54 105.03 162.25 104.68 161.02 104.26 159.79 103.77 157.44 102.69 155.13 101.42 152.92 100.02 151.83 99.32 150.78 98.55 149.8 97.67 148.88 96.73 147.2 94.73 145.59 92.66 144.04 90.56 142.64 88.35 141.34 86.07 140.15 83.76 139.06 81.38 138.08 78.92 137.17 76.51 136.36 74.02 135.03 68.94 133.66 63.89 133.1 61.33 132.89 60.7 132.58 60.14 131.91 59.02 130.54 56.78 129.77 55.73 128.93 54.71 128.02 53.8 127.03 52.92 124.97 51.31 127.46 51.1 128.68 51.06 129.95 51.06 131.17 51.17 132.4 51.38 133.59 51.66 134.78 52.08 135.94 52.57 137.03 53.13 138.08 53.76 139.1 54.46 141.06 56.04 142.92 57.69 144.75 59.4 145.59 60.31 146.36 61.3 147.1 62.28 147.73 63.33 148.32 64.42 148.85 65.54 152.81 74.65 153.86 76.89 154.95 79.14 156.11 81.31 157.34 83.48 159.79 87.79 161.12 89.89 162.49 91.93 164.03 93.89 165.72 95.71 167.51 97.43 169.4 99.04 171.33 100.58 173.33 102.06 174.38 102.72 175.47 103.32 177.75 104.3 177.75 104.3" fill="#fff" fill-rule="evenodd"/>
    <polygon points="177.75 94.34 177.75 72.2 176.59 71.78 175.5 71.28 174.42 70.69 173.36 70.06 172.38 69.36 171.4 68.62 170.49 67.81 169.61 66.97 168.81 66.06 168.03 65.12 166.6 63.15 165.3 61.09 164.1 58.95 162.98 56.81 161.89 54.6 160.88 52.4 159.93 50.15 158.21 45.6 156.74 40.94 155.86 44.72 155.51 46.65 155.2 48.54 154.95 50.47 154.78 52.43 154.67 54.36 154.64 56.28 154.64 58.25 154.71 60.17 154.88 62.1 155.13 64.03 155.51 65.92 156 67.81 156.56 69.67 157.3 71.46 158.14 73.21 159.06 74.93 160.07 76.61 161.12 78.22 162.25 79.8 163.47 81.31 166 84.25 167.37 85.65 168.73 87.02 171.61 89.65 173.08 90.91 174.59 92.1 176.13 93.26 177.75 94.34 177.75 94.34" fill="#fff" fill-rule="evenodd"/>
    <polygon points="177.75 137.91 177.75 115.9 175.89 115.9 174.98 115.86 174.06 115.76 172.24 115.41 170.45 114.95 168.66 114.39 166.91 113.8 165.16 113.13 163.47 112.43 161.76 111.69 160.11 110.89 158.46 110.05 156.85 109.13 153.65 107.21 150.6 105.14 147.66 102.9 144.78 100.58 142.01 98.09 139.38 95.5 138.12 94.14 136.89 92.73 135.7 91.33 134.58 89.86 132.47 86.81 130.44 83.69 130.3 86.14 130.23 88.6 130.33 91.08 130.58 93.5 130.96 95.96 131.56 98.34 132.3 100.65 133.21 102.97 134.22 105.21 135.31 107.42 136.47 109.59 137.73 111.69 139.06 113.76 140.47 115.76 141.97 117.69 143.59 119.58 145.27 121.37 147.03 123.08 148.88 124.69 150.81 126.24 152.81 127.64 154.92 128.94 157.06 130.16 159.27 131.25 161.51 132.3 163.75 133.25 166.07 134.12 168.38 134.96 173.05 136.47 177.75 137.91 177.75 137.91" fill="#fff" fill-rule="evenodd"/>
  </g>
</svg>
