<svg id="Layer_1" data-name="Layer 1" xmlns="http://www.w3.org/2000/svg" width="70mm" height="70mm" viewBox="0 0 198.43 198.43">
  <title>f002</title>
  <g id="symbolgrp">
    <polygon points="198.43 0 0 0 0 198.43 198.43 198.43 198.43 0 198.43 0" fill="#ed1c24" fill-rule="evenodd"/>
    <polygon points="17.9 21.69 17.9 128.83 21.27 133.12 27.31 133.12 27.31 17.97 21.69 17.97 17.9 21.69 17.9 21.69" fill="#fff" fill-rule="evenodd"/>
    <path d="M228.94,478.87s-.42.07-.49.21a.76.76,0,0,0,.14.56s.35,2.11.7,4.5c.42,3,1,6.18,1,6.18s1.48.07,2.6,0c1.41,0,2.53.07,2.53.07s.63-3.51,1.26-6.53c.42-2.39.91-4.57.91-4.57s.14-.21,0-.35a2.72,2.72,0,0,0-.63-.07Z" transform="translate(-197.9 -321.79)" fill="#fff" fill-rule="evenodd"/>
    <path d="M317,383.46A13.31,13.31,0,0,0,304,395.05h-3.16V343.42L297,339.69h-5.55V454.84h6l3.3-4.29V399.48h3.3a13.17,13.17,0,0,0,26.13-2.6A13.33,13.33,0,0,0,317,383.46Zm10,11.59h-7.8v-8.36a10.21,10.21,0,0,1,7.8,8.36Zm-12.86-8.22v8.22h-7.31a10.44,10.44,0,0,1,7.31-8.22Zm-7.1,12.65h7.1v7.45a10.54,10.54,0,0,1-7.1-7.45Zm12.16,7.59v-7.59H327a10.47,10.47,0,0,1-7.73,7.59Z" transform="translate(-197.9 -321.79)" fill="#fff" fill-rule="evenodd"/>
    <path d="M245.8,345.1a5.19,5.19,0,0,0-4.85,3.44l.07,96.88a4.34,4.34,0,0,0,4.29,4.14,4.59,4.59,0,0,0,5-4.08V348.41a4.41,4.41,0,0,0-4.5-3.3Z" transform="translate(-197.9 -321.79)" fill="#fff" fill-rule="evenodd"/>
    <path d="M258.59,345.1a5.09,5.09,0,0,0-4.85,3.44l.07,96.88a4.27,4.27,0,0,0,4.29,4.14,4.59,4.59,0,0,0,5-4.08V348.41a4.41,4.41,0,0,0-4.5-3.3Z" transform="translate(-197.9 -321.79)" fill="#fff" fill-rule="evenodd"/>
    <path d="M271.31,345.1a5.23,5.23,0,0,0-4.92,3.44l.07,96.88a4.34,4.34,0,0,0,4.29,4.14,4.68,4.68,0,0,0,5.06-4.08V348.41a4.41,4.41,0,0,0-4.5-3.3Z" transform="translate(-197.9 -321.79)" fill="#fff" fill-rule="evenodd"/>
    <path d="M284,345.1a5.09,5.09,0,0,0-4.85,3.44l.07,96.88a4.34,4.34,0,0,0,4.29,4.14,4.59,4.59,0,0,0,5-4.08V348.41a4.41,4.41,0,0,0-4.5-3.3Z" transform="translate(-197.9 -321.79)" fill="#fff" fill-rule="evenodd"/>
    <path d="M233.3,344.61a5.23,5.23,0,0,0-4.92,3.44l.14,124,9.2.07V348a4.41,4.41,0,0,0-4.43-3.37Z" transform="translate(-197.9 -321.79)" fill="#fff" fill-rule="evenodd"/>
    <polygon points="180.53 148.5 176.18 147.27 174.01 146.57 171.84 145.87 169.73 145.06 167.63 144.19 165.56 143.24 163.56 142.16 161.59 141 160.65 140.37 159.74 139.7 158.02 138.23 156.33 136.69 154.72 135.11 153.21 133.43 151.71 131.71 150.9 130.91 150.09 130.13 148.34 128.66 146.55 127.3 144.69 125.97 142.76 124.74 141.74 124.21 140.73 123.76 138.59 122.99 136.41 122.29 135.33 122 134.21 121.76 133.08 121.62 131.96 121.58 130.84 121.66 129.68 121.79 127.44 122.14 125.23 122.6 124.1 122.92 123.05 123.27 121.97 123.65 120.95 124.14 119.97 124.7 118.98 125.26 117.09 126.56 119.37 127.12 121.61 127.79 123.82 128.59 124.91 129.08 125.93 129.61 126.98 130.17 127.96 130.8 128.94 131.47 129.85 132.17 131.64 133.71 133.29 135.39 134.84 137.14 136.31 138.93 139.18 142.65 140.69 144.47 142.27 146.22 143.95 147.83 145.74 149.34 146.69 150.04 147.67 150.71 148.69 151.3 149.71 151.83 151.88 152.78 154.09 153.55 156.37 154.18 158.68 154.6 161 154.88 163.35 154.91 165.7 154.77 168.01 154.49 170.33 154.04 171.45 153.72 172.57 153.37 173.66 152.95 174.71 152.46 175.76 151.9 176.78 151.3 178.67 149.94 180.53 148.5 180.53 148.5" fill="#fff" fill-rule="evenodd"/>
    <polygon points="180.53 180.46 180.53 159.15 177.45 159.92 174.32 160.63 171.17 161.22 169.59 161.43 168.01 161.61 166.43 161.71 164.82 161.75 163.21 161.75 161.63 161.68 160.02 161.54 158.44 161.36 156.86 161.08 155.32 160.77 152.23 159.92 149.18 158.94 146.2 157.82 144.72 157.19 143.29 156.53 141.85 155.79 140.48 154.98 139.15 154.14 137.85 153.2 136.63 152.18 135.47 151.09 133.22 148.78 134.24 152.67 135.36 156.53 135.99 158.42 136.69 160.28 137.5 162.1 138.38 163.92 139.39 165.67 140.48 167.35 141.71 168.97 143.01 170.51 144.41 171.95 145.92 173.28 147.53 174.5 149.22 175.56 150.97 176.5 152.79 177.31 154.69 178.01 156.62 178.6 158.58 179.09 160.58 179.51 162.58 179.83 164.58 180.08 166.57 180.29 168.57 180.39 172.57 180.53 176.57 180.53 180.53 180.46 180.53 180.46" fill="#fff" fill-rule="evenodd"/>
    <polygon points="180.53 104.31 178.01 104.97 176.71 105.22 175.41 105.39 174.12 105.53 172.82 105.6 171.52 105.6 170.19 105.57 168.89 105.46 167.59 105.29 166.33 105.04 165.03 104.69 163.81 104.27 162.58 103.78 160.23 102.69 157.91 101.43 155.7 100.03 154.62 99.33 153.56 98.56 152.58 97.68 151.67 96.74 149.99 94.74 148.37 92.67 146.83 90.57 145.43 88.36 144.13 86.08 142.94 83.77 141.85 81.39 140.87 78.93 139.96 76.52 139.15 74.03 137.82 68.94 136.45 63.9 135.89 61.34 135.68 60.71 135.36 60.15 134.69 59.03 133.33 56.78 132.56 55.73 131.72 54.72 130.8 53.81 129.82 52.93 127.75 51.32 130.24 51.11 131.47 51.07 132.73 51.07 133.96 51.18 135.19 51.39 136.38 51.67 137.57 52.09 138.73 52.58 139.82 53.14 140.87 53.77 141.88 54.47 143.85 56.05 145.71 57.7 147.53 59.41 148.37 60.32 149.14 61.31 149.88 62.29 150.51 63.34 151.11 64.42 151.63 65.55 155.6 74.66 156.65 76.9 157.74 79.14 158.89 81.32 160.12 83.49 162.58 87.8 163.91 89.9 165.28 91.94 166.82 93.9 168.5 95.72 170.29 97.44 172.19 99.05 174.12 100.59 176.11 102.06 177.17 102.73 178.25 103.33 180.53 104.31 180.53 104.31" fill="#fff" fill-rule="evenodd"/>
    <polygon points="180.53 94.35 180.53 72.2 179.38 71.78 178.29 71.29 177.2 70.7 176.15 70.07 175.17 69.37 174.19 68.63 173.27 67.82 172.4 66.98 171.59 66.07 170.82 65.13 169.38 63.16 168.08 61.09 166.89 58.96 165.77 56.82 164.68 54.61 163.66 52.4 162.72 50.16 161 45.6 159.53 40.94 158.65 44.73 158.3 46.66 157.98 48.55 157.74 50.48 157.56 52.44 157.46 54.37 157.42 56.29 157.42 58.26 157.49 60.18 157.67 62.11 157.91 64.04 158.3 65.93 158.79 67.82 159.35 69.68 160.09 71.47 160.93 73.22 161.84 74.94 162.86 76.62 163.91 78.23 165.03 79.81 166.26 81.32 168.78 84.26 170.15 85.66 171.52 87.03 174.39 89.66 175.87 90.92 177.38 92.11 178.92 93.27 180.53 94.35 180.53 94.35" fill="#fff" fill-rule="evenodd"/>
    <polygon points="180.53 137.91 180.53 115.91 178.67 115.91 177.76 115.87 176.85 115.77 175.03 115.42 173.24 114.96 171.45 114.4 169.69 113.8 167.94 113.14 166.26 112.44 164.54 111.7 162.89 110.89 161.24 110.05 159.63 109.14 156.44 107.22 153.39 105.15 150.44 102.91 147.57 100.59 144.79 98.1 142.17 95.51 140.9 94.14 139.68 92.74 138.48 91.34 137.36 89.87 135.26 86.82 133.22 83.7 133.08 86.15 133.01 88.61 133.12 91.09 133.36 93.51 133.75 95.97 134.35 98.35 135.08 100.66 135.99 102.97 137.01 105.22 138.1 107.43 139.25 109.6 140.52 111.7 141.85 113.77 143.25 115.77 144.76 117.69 146.37 119.59 148.06 121.37 149.81 123.09 151.67 124.7 153.6 126.25 155.6 127.65 157.7 128.94 159.84 130.17 162.05 131.26 164.29 132.31 166.54 133.25 168.85 134.13 171.17 134.97 175.83 136.48 180.53 137.91 180.53 137.91" fill="#fff" fill-rule="evenodd"/>
  </g>
</svg>
