<svg id="Layer_1" data-name="Layer 1" xmlns="http://www.w3.org/2000/svg" width="70mm" height="70mm" viewBox="0 0 198.43 198.43">
  <title>f003</title>
  <g id="symbolgrp">
    <polygon points="198.43 0 0 0 0 198.43 198.43 198.43 198.43 0 198.43 0" fill="#ed1c24" fill-rule="evenodd"/>
    <polygon points="172.08 148.48 167.73 147.25 165.55 146.55 163.38 145.85 161.27 145.05 159.17 144.17 157.1 143.22 155.1 142.14 153.14 140.98 152.19 140.35 151.28 139.69 149.56 138.21 147.88 136.67 146.26 135.09 144.76 133.41 143.25 131.69 142.44 130.89 141.63 130.12 139.88 128.65 138.09 127.28 136.23 125.95 134.31 124.72 133.29 124.19 132.27 123.74 130.13 122.97 127.96 122.27 126.87 121.99 125.75 121.74 124.63 121.6 123.5 121.57 122.38 121.64 121.22 121.78 118.98 122.13 116.77 122.58 115.65 122.9 114.6 123.25 113.51 123.63 112.49 124.12 111.51 124.69 110.53 125.25 108.63 126.54 110.91 127.1 113.16 127.77 115.37 128.58 116.45 129.07 117.47 129.59 118.52 130.15 119.51 130.78 120.49 131.45 121.4 132.15 123.19 133.69 124.84 135.37 126.38 137.13 127.85 138.91 130.73 142.63 132.24 144.45 133.81 146.2 135.5 147.82 137.28 149.32 138.23 150.02 139.22 150.69 140.23 151.29 141.25 151.81 143.42 152.76 145.63 153.53 147.91 154.16 150.23 154.58 152.54 154.86 154.89 154.9 157.24 154.75 159.56 154.47 161.87 154.02 162.99 153.7 164.12 153.35 165.2 152.93 166.25 152.44 167.31 151.88 168.32 151.29 170.22 149.92 172.08 148.48 172.08 148.48" fill="#fff" fill-rule="evenodd"/>
    <polygon points="172.08 180.44 172.08 159.13 168.99 159.91 165.87 160.61 162.71 161.2 161.13 161.41 159.56 161.59 157.98 161.69 156.37 161.73 154.75 161.73 153.17 161.66 151.56 161.52 149.98 161.34 148.4 161.06 146.86 160.75 143.77 159.91 140.72 158.93 137.74 157.8 136.27 157.17 134.83 156.51 133.39 155.77 132.03 154.97 130.69 154.12 129.39 153.18 128.17 152.16 127.01 151.07 124.77 148.76 125.78 152.65 126.9 156.51 127.54 158.4 128.24 160.26 129.04 162.08 129.92 163.9 130.94 165.65 132.03 167.34 133.25 168.95 134.55 170.49 135.95 171.93 137.46 173.26 139.07 174.49 140.76 175.54 142.51 176.48 144.34 177.29 146.23 177.99 148.16 178.59 150.12 179.08 152.12 179.5 154.12 179.81 156.12 180.06 158.12 180.27 160.12 180.37 164.12 180.51 168.11 180.51 172.08 180.44 172.08 180.44" fill="#fff" fill-rule="evenodd"/>
    <polygon points="172.08 104.29 169.55 104.95 168.25 105.2 166.96 105.38 165.66 105.52 164.36 105.58 163.06 105.58 161.73 105.55 160.43 105.45 159.13 105.27 157.87 105.03 156.57 104.67 155.35 104.25 154.12 103.76 151.77 102.68 149.46 101.42 147.25 100.01 146.16 99.31 145.11 98.54 144.13 97.67 143.21 96.72 141.53 94.72 139.92 92.65 138.37 90.55 136.97 88.34 135.67 86.06 134.48 83.75 133.39 81.37 132.41 78.92 131.5 76.5 130.69 74.01 129.36 68.93 127.99 63.88 127.43 61.32 127.22 60.69 126.9 60.13 126.24 59.01 124.87 56.77 124.1 55.72 123.26 54.7 122.35 53.79 121.36 52.91 119.3 51.3 121.78 51.09 123.01 51.05 124.28 51.05 125.5 51.16 126.73 51.37 127.92 51.65 129.12 52.07 130.27 52.56 131.36 53.12 132.41 53.75 133.43 54.45 135.39 56.03 137.25 57.68 139.07 59.4 139.92 60.31 140.69 61.29 141.42 62.27 142.06 63.32 142.65 64.41 143.18 65.53 147.14 74.64 148.19 76.88 149.28 79.13 150.44 81.3 151.67 83.47 154.12 87.78 155.45 89.89 156.82 91.92 158.36 93.88 160.05 95.7 161.84 97.42 163.73 99.03 165.66 100.57 167.66 102.05 168.71 102.71 169.8 103.31 172.08 104.29 172.08 104.29" fill="#fff" fill-rule="evenodd"/>
    <polygon points="172.08 94.34 172.08 72.19 170.92 71.77 169.83 71.28 168.74 70.68 167.69 70.05 166.71 69.35 165.73 68.61 164.82 67.81 163.94 66.97 163.13 66.05 162.36 65.11 160.92 63.15 159.63 61.08 158.43 58.94 157.31 56.8 156.22 54.59 155.21 52.39 154.26 50.14 152.54 45.59 151.07 40.93 150.19 44.71 149.84 46.64 149.53 48.53 149.28 50.46 149.1 52.42 149 54.35 148.97 56.28 148.97 58.24 149.03 60.17 149.21 62.09 149.46 64.02 149.84 65.91 150.33 67.81 150.89 69.66 151.63 71.45 152.47 73.2 153.38 74.92 154.4 76.6 155.45 78.22 156.57 79.79 157.8 81.3 160.33 84.24 161.69 85.64 163.06 87.01 165.94 89.64 167.41 90.9 168.92 92.09 170.46 93.25 172.08 94.34 172.08 94.34" fill="#fff" fill-rule="evenodd"/>
    <polygon points="172.08 137.9 172.08 115.89 170.22 115.89 169.31 115.85 168.39 115.75 166.57 115.4 164.78 114.94 162.99 114.38 161.24 113.79 159.49 113.12 157.8 112.42 156.08 111.68 154.44 110.88 152.79 110.04 151.17 109.13 147.98 107.2 144.93 105.13 141.99 102.89 139.11 100.57 136.34 98.09 133.71 95.49 132.44 94.13 131.22 92.72 130.03 91.32 128.9 89.85 126.8 86.8 124.77 83.68 124.63 86.14 124.56 88.59 124.66 91.08 124.91 93.5 125.29 95.95 125.89 98.33 126.63 100.64 127.54 102.96 128.55 105.2 129.64 107.41 130.8 109.58 132.06 111.68 133.39 113.75 134.8 115.75 136.31 117.68 137.92 119.57 139.6 121.36 141.35 123.07 143.21 124.69 145.14 126.23 147.14 127.63 149.25 128.93 151.38 130.15 153.59 131.24 155.84 132.29 158.08 133.24 160.4 134.11 162.71 134.95 167.38 136.46 172.08 137.9 172.08 137.9" fill="#fff" fill-rule="evenodd"/>
    <path d="M292.45,502.29h7L285.85,339.71h-6.18l1,12.78H243.08l1.05-12.78H238l-1.05,12.78h-.42V357l-12.22,145.3h7.09l1.47-18.75H291l1.48,18.75Zm-5.9-75.14h-49.3l1.4-18h46.49l1.4,18Zm-2-24.65H239.15L240.62,384h42.56l1.4,18.47Zm-47.4,25.77v5.48H287V432.2l1.48,19.66H235.29l1.9-23.6Zm44-69.17,1.4,18.26h-41.5l1.48-18.26Zm-47.9,117.84,1.48-18.47H289l1.48,18.47Z" transform="translate(-197.9 -321.79)" fill="#fff" fill-rule="evenodd"/>
  </g>
</svg>
