<svg id="Layer_1" data-name="Layer 1" xmlns="http://www.w3.org/2000/svg" width="70mm" height="70mm" viewBox="0 0 198.43 198.43">
  <title>f004</title>
  <g id="symbolgrp">
    <polygon points="198.43 0 0 0 0 198.43 198.43 198.43 198.43 0 198.43 0" fill="#ed1c24" fill-rule="evenodd"/>
    <g>
      <polygon points="17.9 85 17.9 91.46 129.16 91.46 129.16 85 17.9 85 17.9 85" fill="#fff" fill-rule="evenodd"/>
      <path d="M325.9,402.66a25.14,25.14,0,0,1-19-9.42c-3.44-4.06-6.26-10.86-8.53-16.57a63.15,63.15,0,0,0-5.3-10.11s-5.29-8.39-13.2-12.93c-5.84-3.37-15-3.23-15-3.23a33.46,33.46,0,0,0-14.92,3.78c-6.6,3.64-12.65,11.48-12.65,11.48l-1.44-.27-6.81,22h1.79a14.3,14.3,0,0,1-1.58,6.67,25,25,0,0,1-5.43,6.53A12.57,12.57,0,0,1,219,402c-2.48,0-2.61,2.68-2.61,2.68H326.52l-.62-2.06Z" transform="translate(-197.9 -321.79)" fill="#fff" fill-rule="evenodd"/>
      <path d="M267.66,347.44s7.56,1.24,10.93,2.82a69.07,69.07,0,0,1,10.73,6.46,71.35,71.35,0,0,1,7.36,9.83,81.39,81.39,0,0,1,5.84,12.52,62,62,0,0,0,5,10.8c4.68,7.36,13.2,9.15,13.2,9.15l.55-.89a19.48,19.48,0,0,1-10.87-10.59c-1.65-3.78-2.89-8.6-4.26-12.93A48.86,48.86,0,0,0,299.91,362s-4.06-7.84-9.7-12a46,46,0,0,0-15.88-7.08,62.71,62.71,0,0,0-12-2.89,52.22,52.22,0,0,0-11.76,0l-1,11.21a59.25,59.25,0,0,1,11.83-3.58,16.17,16.17,0,0,1,6.26-.21Z" transform="translate(-197.9 -321.79)" fill="#fff" fill-rule="evenodd"/>
      <polygon points="180.53 148.51 176.18 147.29 174 146.59 171.83 145.88 169.72 145.08 167.62 144.2 165.55 143.26 163.55 142.17 161.59 141.01 160.64 140.38 159.73 139.72 158.01 138.25 156.33 136.7 154.72 135.13 153.21 133.44 151.7 131.73 150.89 130.92 150.09 130.15 148.33 128.68 146.54 127.31 144.69 125.98 142.76 124.75 141.74 124.23 140.72 123.77 138.58 123 136.41 122.3 135.32 122.02 134.2 121.77 133.08 121.63 131.96 121.6 130.83 121.67 129.68 121.81 127.43 122.16 125.22 122.61 124.1 122.93 123.05 123.28 121.96 123.67 120.94 124.16 119.96 124.72 118.98 125.28 117.08 126.58 119.36 127.14 121.61 127.8 123.82 128.61 124.9 129.1 125.92 129.62 126.97 130.18 127.96 130.81 128.94 131.48 129.85 132.18 131.64 133.72 133.29 135.41 134.83 137.16 136.3 138.94 139.18 142.66 140.69 144.48 142.27 146.24 143.95 147.85 145.74 149.35 146.68 150.06 147.67 150.72 148.68 151.32 149.7 151.84 151.88 152.79 154.08 153.56 156.36 154.19 158.68 154.61 160.99 154.89 163.34 154.93 165.69 154.79 168.01 154.5 170.32 154.05 171.44 153.74 172.57 153.38 173.65 152.96 174.71 152.47 175.76 151.91 176.78 151.32 178.67 149.95 180.53 148.51 180.53 148.51" fill="#fff" fill-rule="evenodd"/>
      <polygon points="180.53 180.47 180.53 159.17 177.44 159.94 174.32 160.64 171.16 161.23 169.59 161.44 168.01 161.62 166.43 161.72 164.82 161.76 163.2 161.76 161.63 161.69 160.01 161.55 158.43 161.37 156.85 161.09 155.31 160.78 152.22 159.94 149.17 158.96 146.19 157.83 144.72 157.21 143.28 156.54 141.84 155.8 140.48 155 139.14 154.16 137.85 153.21 136.62 152.19 135.46 151.11 133.22 148.79 134.23 152.68 135.35 156.54 135.99 158.43 136.69 160.29 137.5 162.11 138.37 163.93 139.39 165.69 140.48 167.37 141.7 168.98 143 170.52 144.4 171.96 145.91 173.29 147.53 174.52 149.21 175.57 150.96 176.51 152.79 177.32 154.68 178.02 156.61 178.62 158.57 179.11 160.57 179.53 162.57 179.84 164.57 180.09 166.57 180.3 168.57 180.4 172.57 180.54 176.56 180.54 180.53 180.47 180.53 180.47" fill="#fff" fill-rule="evenodd"/>
      <polygon points="180.53 104.32 178 104.99 176.71 105.23 175.41 105.41 174.11 105.55 172.81 105.62 171.51 105.62 170.18 105.58 168.88 105.48 167.59 105.3 166.32 105.06 165.03 104.71 163.8 104.28 162.57 103.79 160.22 102.71 157.91 101.45 155.7 100.04 154.61 99.34 153.56 98.57 152.58 97.7 151.66 96.75 149.98 94.75 148.37 92.69 146.82 90.58 145.42 88.37 144.13 86.1 142.93 83.78 141.84 81.4 140.86 78.95 139.95 76.53 139.14 74.04 137.81 68.96 136.44 63.91 135.88 61.35 135.67 60.72 135.35 60.16 134.69 59.04 133.32 56.8 132.55 55.75 131.71 54.73 130.8 53.82 129.81 52.94 127.75 51.33 130.24 51.12 131.46 51.09 132.73 51.09 133.95 51.19 135.18 51.4 136.37 51.68 137.57 52.1 138.72 52.59 139.81 53.15 140.86 53.78 141.88 54.48 143.84 56.06 145.7 57.71 147.53 59.43 148.37 60.34 149.14 61.32 149.88 62.3 150.51 63.35 151.1 64.44 151.63 65.56 155.59 74.67 156.64 76.91 157.73 79.16 158.89 81.33 160.12 83.5 162.57 87.81 163.9 89.92 165.27 91.95 166.81 93.91 168.5 95.73 170.29 97.45 172.18 99.06 174.11 100.61 176.11 102.08 177.16 102.74 178.25 103.34 180.53 104.32 180.53 104.32" fill="#fff" fill-rule="evenodd"/>
      <polygon points="180.53 94.37 180.53 72.22 179.37 71.8 178.28 71.31 177.19 70.71 176.14 70.08 175.16 69.38 174.18 68.64 173.27 67.84 172.39 67 171.58 66.08 170.81 65.14 169.38 63.18 168.08 61.11 166.88 58.97 165.76 56.83 164.68 54.63 163.66 52.42 162.71 50.17 160.99 45.62 159.52 40.96 158.64 44.74 158.29 46.67 157.98 48.56 157.73 50.49 157.56 52.45 157.45 54.38 157.42 56.31 157.42 58.27 157.49 60.2 157.66 62.13 157.91 64.05 158.29 65.94 158.78 67.84 159.34 69.69 160.08 71.48 160.92 73.23 161.83 74.95 162.85 76.63 163.9 78.25 165.03 79.82 166.25 81.33 168.78 84.27 170.15 85.68 171.51 87.04 174.39 89.67 175.86 90.93 177.37 92.12 178.91 93.28 180.53 94.37 180.53 94.37" fill="#fff" fill-rule="evenodd"/>
      <polygon points="180.53 137.93 180.53 115.92 178.67 115.92 177.76 115.89 176.84 115.78 175.02 115.43 173.23 114.97 171.44 114.41 169.69 113.82 167.94 113.15 166.25 112.45 164.53 111.71 162.89 110.91 161.24 110.07 159.63 109.16 156.43 107.23 153.38 105.16 150.44 102.92 147.56 100.61 144.79 98.12 142.16 95.52 140.9 94.16 139.67 92.75 138.48 91.35 137.35 89.88 135.25 86.83 133.22 83.71 133.08 86.17 133.01 88.62 133.11 91.11 133.36 93.53 133.74 95.98 134.34 98.36 135.08 100.67 135.99 102.99 137 105.23 138.09 107.44 139.25 109.61 140.51 111.71 141.84 113.78 143.25 115.78 144.76 117.71 146.37 119.6 148.05 121.39 149.81 123.11 151.66 124.72 153.59 126.26 155.59 127.66 157.7 128.96 159.84 130.18 162.04 131.27 164.29 132.32 166.53 133.27 168.85 134.14 171.16 134.99 175.83 136.49 180.53 137.93 180.53 137.93" fill="#fff" fill-rule="evenodd"/>
    </g>
  </g>
</svg>
