<svg id="Layer_1" data-name="Layer 1" xmlns="http://www.w3.org/2000/svg" width="70mm" height="70mm" viewBox="0 0 198.43 198.43">
  <title>f005</title>
  <g id="symbolgrp">
    <polygon points="198.43 0 0 0 0 198.43 198.43 198.43 198.43 0 198.43 0" fill="#ed1c24" fill-rule="evenodd"/>
    <path d="M244,349.23A12.79,12.79,0,1,0,257,362,12.86,12.86,0,0,0,244,349.23Z" transform="translate(-197.9 -321.79)" fill="#fff" fill-rule="evenodd"/>
    <polygon points="36.22 56.1 31.16 56.1 31.16 24.14 62.7 24.14 62.7 56.1 55.75 56.1 55.75 62.29 69.17 62.29 69.17 17.88 24.77 17.88 24.77 62.29 36.22 62.29 36.22 56.1 36.22 56.1" fill="#fff" fill-rule="evenodd"/>
    <path d="M291.45,423c-4,0-6.32,5.06-7,6.82h-.56v-7.38a8.28,8.28,0,0,0-7.17-6.25c-4.22-.42-6.39,3.51-7.17,5.34h-1.48v-6.46s-2.81-5.34-7.52-5.34c-2.11,0-7.38,1.62-7.31,5.2-1.55,1-2.6.56-3,.28V382.75s.56-6.18-7.24-6.18c-6.89,0-7.17,6.18-7.17,6.18V455h-4.43l.21-24.87s-.63-10.68-11.45-9.49c-2.88.35-4.5,3.58-4.5,3.58v38.15s10.89,19.88,16.09,31.12a21.68,21.68,0,0,1,2,7.87v.84h56.7V491a17.42,17.42,0,0,0,3-2.6,23.42,23.42,0,0,0,4.22-8.29V430.38S299,423,291.45,423Zm-23.11,32h0Z" transform="translate(-197.9 -321.79)" fill="#fff" fill-rule="evenodd"/>
    <polygon points="180.55 148.52 176.2 147.29 174.03 146.59 171.85 145.89 169.75 145.08 167.64 144.21 165.58 143.26 163.58 142.17 161.61 141.02 160.67 140.39 159.75 139.72 158.03 138.25 156.35 136.71 154.74 135.13 153.23 133.45 151.72 131.73 150.92 130.92 150.11 130.15 148.35 128.68 146.57 127.31 144.71 125.98 142.78 124.76 141.76 124.23 140.75 123.78 138.6 123 136.43 122.3 135.35 122.02 134.22 121.78 133.1 121.64 131.98 121.6 130.85 121.67 129.7 121.81 127.45 122.16 125.24 122.62 124.12 122.93 123.07 123.28 121.98 123.67 120.97 124.16 119.98 124.72 119 125.28 117.11 126.58 119.39 127.14 121.63 127.81 123.84 128.61 124.93 129.1 125.94 129.63 127 130.19 127.98 130.82 128.96 131.49 129.87 132.19 131.66 133.73 133.31 135.41 134.85 137.16 136.33 138.95 139.2 142.66 140.71 144.49 142.29 146.24 143.97 147.85 145.76 149.36 146.71 150.06 147.69 150.72 148.71 151.32 149.72 151.85 151.9 152.79 154.11 153.56 156.39 154.19 158.7 154.62 161.02 154.9 163.37 154.93 165.72 154.79 168.03 154.51 170.35 154.05 171.47 153.74 172.59 153.39 173.68 152.97 174.73 152.48 175.78 151.92 176.8 151.32 178.69 149.95 180.55 148.52 180.55 148.52" fill="#fff" fill-rule="evenodd"/>
    <polygon points="180.55 180.48 180.55 159.17 177.47 159.94 174.34 160.64 171.19 161.24 169.61 161.45 168.03 161.62 166.45 161.73 164.84 161.76 163.23 161.76 161.65 161.69 160.03 161.55 158.46 161.38 156.88 161.1 155.34 160.78 152.25 159.94 149.2 158.96 146.22 157.84 144.74 157.21 143.31 156.54 141.87 155.81 140.5 155 139.17 154.16 137.87 153.21 136.64 152.2 135.49 151.11 133.24 148.8 134.26 152.69 135.38 156.54 136.01 158.44 136.71 160.29 137.52 162.12 138.4 163.94 139.41 165.69 140.5 167.37 141.73 168.98 143.03 170.53 144.43 171.96 145.94 173.29 147.55 174.52 149.23 175.57 150.99 176.52 152.81 177.32 154.7 178.03 156.63 178.62 158.6 179.11 160.6 179.53 162.6 179.85 164.59 180.09 166.59 180.3 168.59 180.41 172.59 180.55 176.59 180.55 180.55 180.48 180.55 180.48" fill="#fff" fill-rule="evenodd"/>
    <polygon points="180.55 104.33 178.03 104.99 176.73 105.24 175.43 105.41 174.13 105.55 172.84 105.62 171.54 105.62 170.21 105.58 168.91 105.48 167.61 105.31 166.35 105.06 165.05 104.71 163.82 104.29 162.6 103.8 160.24 102.71 157.93 101.45 155.72 100.05 154.63 99.35 153.58 98.58 152.6 97.7 151.69 96.75 150 94.76 148.39 92.69 146.85 90.59 145.44 88.38 144.15 86.1 142.96 83.79 141.87 81.4 140.89 78.95 139.97 76.53 139.17 74.04 137.84 68.96 136.47 63.92 135.91 61.36 135.69 60.73 135.38 60.17 134.72 59.05 133.35 56.8 132.57 55.75 131.73 54.73 130.82 53.82 129.84 52.95 127.77 51.34 130.26 51.13 131.49 51.09 132.75 51.09 133.98 51.2 135.21 51.41 136.4 51.69 137.59 52.11 138.75 52.6 139.83 53.16 140.89 53.79 141.9 54.49 143.87 56.07 145.73 57.71 147.55 59.43 148.39 60.34 149.16 61.32 149.9 62.3 150.53 63.36 151.13 64.44 151.65 65.56 155.62 74.68 156.67 76.92 157.76 79.16 158.91 81.33 160.14 83.51 162.6 87.82 163.93 89.92 165.29 91.95 166.84 93.92 168.52 95.74 170.31 97.46 172.2 99.07 174.13 100.61 176.13 102.08 177.18 102.75 178.27 103.34 180.55 104.33 180.55 104.33" fill="#fff" fill-rule="evenodd"/>
    <polygon points="180.55 94.37 180.55 72.22 179.39 71.8 178.31 71.31 177.22 70.72 176.17 70.08 175.19 69.38 174.2 68.65 173.29 67.84 172.41 67 171.61 66.09 170.84 65.14 169.4 63.18 168.1 61.11 166.91 58.98 165.79 56.84 164.7 54.63 163.68 52.42 162.73 50.18 161.02 45.62 159.54 40.96 158.67 44.75 158.32 46.67 158 48.57 157.76 50.49 157.58 52.46 157.47 54.38 157.44 56.31 157.44 58.27 157.51 60.2 157.69 62.13 157.93 64.06 158.32 65.95 158.81 67.84 159.37 69.7 160.1 71.49 160.95 73.24 161.86 74.96 162.88 76.64 163.93 78.25 165.05 79.83 166.28 81.33 168.8 84.28 170.17 85.68 171.54 87.05 174.41 89.67 175.89 90.94 177.39 92.13 178.94 93.28 180.55 94.37 180.55 94.37" fill="#fff" fill-rule="evenodd"/>
    <polygon points="180.55 137.93 180.55 115.92 178.69 115.92 177.78 115.89 176.87 115.78 175.04 115.43 173.26 114.98 171.47 114.42 169.72 113.82 167.96 113.16 166.28 112.45 164.56 111.72 162.91 110.91 161.26 110.07 159.65 109.16 156.46 107.23 153.41 105.17 150.46 102.92 147.58 100.61 144.81 98.12 142.18 95.53 140.92 94.16 139.69 92.76 138.5 91.36 137.38 89.89 135.28 86.84 133.24 83.72 133.1 86.17 133.03 88.62 133.13 91.11 133.38 93.53 133.77 95.98 134.36 98.37 135.1 100.68 136.01 102.99 137.03 105.24 138.12 107.44 139.27 109.62 140.53 111.72 141.87 113.79 143.27 115.78 144.78 117.71 146.39 119.6 148.08 121.39 149.83 123.11 151.69 124.72 153.62 126.26 155.62 127.67 157.72 128.96 159.86 130.19 162.07 131.28 164.31 132.33 166.56 133.27 168.87 134.15 171.19 134.99 175.85 136.5 180.55 137.93 180.55 137.93" fill="#fff" fill-rule="evenodd"/>
  </g>
</svg>
