<svg id="Layer_1" data-name="Layer 1" xmlns="http://www.w3.org/2000/svg" width="70mm" height="70mm" viewBox="0 0 198.43 198.43">
  <title>f006</title>
  <g id="symbolgrp">
    <polygon points="198.43 0 0 0 0 198.43 198.43 198.43 198.43 0 198.43 0" fill="#ed1c24" fill-rule="evenodd"/>
    <g>
      <polygon points="180.51 148.47 176.16 147.25 173.98 146.54 171.81 145.84 169.71 145.04 167.6 144.16 165.53 143.22 163.53 142.13 161.57 140.97 160.62 140.34 159.71 139.68 157.99 138.2 156.31 136.66 154.69 135.08 153.19 133.4 151.68 131.69 150.87 130.88 150.06 130.11 148.31 128.64 146.52 127.27 144.66 125.94 142.74 124.71 141.72 124.19 140.7 123.73 138.56 122.96 136.39 122.26 135.3 121.98 134.18 121.73 133.06 121.59 131.93 121.56 130.81 121.63 129.65 121.77 127.41 122.12 125.2 122.57 124.08 122.89 123.03 123.24 121.94 123.62 120.92 124.11 119.94 124.68 118.96 125.24 117.06 126.53 119.34 127.09 121.59 127.76 123.8 128.57 124.89 129.06 125.9 129.58 126.95 130.14 127.94 130.77 128.92 131.44 129.83 132.14 131.62 133.68 133.27 135.37 134.81 137.12 136.28 138.91 139.16 142.62 140.67 144.44 142.24 146.19 143.93 147.81 145.72 149.31 146.66 150.01 147.65 150.68 148.66 151.28 149.68 151.8 151.85 152.75 154.06 153.52 156.34 154.15 158.66 154.57 160.97 154.85 163.32 154.88 165.67 154.75 167.99 154.47 170.3 154.01 171.42 153.69 172.54 153.34 173.63 152.92 174.69 152.43 175.74 151.87 176.75 151.28 178.65 149.91 180.51 148.47 180.51 148.47" fill="#fff" fill-rule="evenodd"/>
      <polygon points="180.51 180.43 180.51 159.13 177.42 159.9 174.3 160.6 171.14 161.19 169.56 161.4 167.99 161.58 166.41 161.68 164.79 161.72 163.18 161.72 161.6 161.65 159.99 161.51 158.41 161.33 156.83 161.05 155.29 160.74 152.21 159.9 149.15 158.91 146.17 157.79 144.7 157.16 143.26 156.5 141.82 155.76 140.46 154.96 139.12 154.12 137.83 153.17 136.6 152.15 135.44 151.07 133.19 148.75 134.21 152.64 135.34 156.5 135.97 158.39 136.67 160.25 137.47 162.07 138.35 163.89 139.37 165.65 140.46 167.33 141.68 168.94 142.98 170.48 144.38 171.92 145.89 173.25 147.51 174.48 149.19 175.53 150.94 176.47 152.77 177.28 154.66 177.98 156.59 178.58 158.55 179.07 160.55 179.49 162.55 179.8 164.55 180.05 166.55 180.26 168.55 180.36 172.54 180.5 176.54 180.5 180.51 180.43 180.51 180.43" fill="#fff" fill-rule="evenodd"/>
      <polygon points="180.51 104.28 177.98 104.95 176.68 105.19 175.39 105.37 174.09 105.51 172.79 105.58 171.49 105.58 170.16 105.54 168.86 105.44 167.56 105.26 166.3 105.02 165.01 104.67 163.78 104.25 162.55 103.75 160.2 102.67 157.89 101.41 155.68 100 154.59 99.3 153.54 98.53 152.56 97.66 151.64 96.71 149.96 94.71 148.35 92.64 146.8 90.54 145.4 88.33 144.1 86.06 142.91 83.74 141.82 81.36 140.84 78.91 139.93 76.49 139.12 74 137.79 68.92 136.42 63.87 135.86 61.31 135.65 60.68 135.34 60.12 134.67 59 133.3 56.76 132.53 55.71 131.69 54.69 130.78 53.78 129.79 52.9 127.72 51.29 130.22 51.08 131.44 51.05 132.71 51.05 133.93 51.15 135.16 51.36 136.35 51.64 137.54 52.06 138.7 52.55 139.79 53.11 140.84 53.74 141.86 54.44 143.82 56.02 145.68 57.67 147.51 59.39 148.35 60.3 149.12 61.28 149.85 62.26 150.49 63.31 151.08 64.4 151.61 65.52 155.57 74.63 156.62 76.87 157.71 79.12 158.87 81.29 160.1 83.46 162.55 87.77 163.88 89.88 165.25 91.91 166.79 93.87 168.48 95.69 170.27 97.41 172.16 99.02 174.09 100.56 176.09 102.04 177.14 102.7 178.23 103.3 180.51 104.28 180.51 104.28" fill="#fff" fill-rule="evenodd"/>
      <polygon points="180.51 94.33 180.51 72.18 179.35 71.76 178.26 71.27 177.17 70.67 176.12 70.04 175.14 69.34 174.16 68.6 173.25 67.8 172.37 66.96 171.56 66.04 170.79 65.1 169.35 63.14 168.06 61.07 166.86 58.93 165.74 56.79 164.65 54.59 163.64 52.38 162.69 50.13 160.97 45.58 159.5 40.92 158.62 44.7 158.27 46.63 157.96 48.52 157.71 50.45 157.53 52.41 157.43 54.34 157.39 56.27 157.39 58.23 157.47 60.16 157.64 62.08 157.89 64.01 158.27 65.9 158.76 67.8 159.32 69.65 160.06 71.44 160.9 73.19 161.81 74.91 162.83 76.59 163.88 78.21 165.01 79.78 166.23 81.29 168.76 84.23 170.13 85.64 171.49 87 174.37 89.63 175.84 90.89 177.35 92.08 178.89 93.24 180.51 94.33 180.51 94.33" fill="#fff" fill-rule="evenodd"/>
      <polygon points="180.51 137.89 180.51 115.88 178.65 115.88 177.74 115.84 176.82 115.74 175 115.39 173.21 114.93 171.42 114.37 169.67 113.78 167.92 113.11 166.23 112.41 164.51 111.67 162.87 110.87 161.22 110.03 159.6 109.12 156.41 107.19 153.36 105.12 150.42 102.88 147.54 100.56 144.77 98.08 142.14 95.48 140.88 94.12 139.65 92.71 138.46 91.31 137.33 89.84 135.23 86.79 133.19 83.67 133.06 86.13 132.99 88.58 133.09 91.07 133.34 93.48 133.72 95.94 134.32 98.32 135.06 100.63 135.97 102.95 136.98 105.19 138.07 107.4 139.23 109.57 140.49 111.67 141.82 113.74 143.23 115.74 144.73 117.67 146.35 119.56 148.03 121.35 149.78 123.06 151.64 124.68 153.57 126.22 155.57 127.62 157.68 128.92 159.81 130.14 162.02 131.23 164.27 132.28 166.51 133.23 168.83 134.1 171.14 134.94 175.81 136.45 180.51 137.89 180.51 137.89" fill="#fff" fill-rule="evenodd"/>
      <path d="M267.92,464.29a17.51,17.51,0,0,1-3.58-4.85c-3.16-6.53-7.66-21.14-12.64-34.91-6.32-17.49-10.82-34.91-10.82-34.91s2.25-3.37,5.41-2.6a71,71,0,0,0,8.15,1.26L245,341.94s-9.34-.14-16.22,3.09A38.73,38.73,0,0,0,217,353.88a208.42,208.42,0,0,0-.91,33.15c1.05,21.56,8.15,43.69,8.15,43.69s7.59,23.6,19.81,41.09a124.34,124.34,0,0,0,30.2,30.48,128.33,128.33,0,0,0,20.3-4.43,60.68,60.68,0,0,0,14.47-7l-31.61-35.4-9.48,8.85Z" transform="translate(-197.9 -321.79)" fill="#fff" fill-rule="evenodd"/>
      <path d="M263.42,386.12a10.08,10.08,0,0,0,4.07-3.51s-2.46-11.24-5-22.12c-2.18-9.55-4.49-19-4.49-19a5.48,5.48,0,0,0-3.16-1.76,22,22,0,0,0-6.74.84l9.48,45.51a11.16,11.16,0,0,0,5.83,0Z" transform="translate(-197.9 -321.79)" fill="#fff" fill-rule="evenodd"/>
      <path d="M318.41,480.66s-8.43-9.76-16.22-18.54c-6.53-7.37-12.15-14.33-12.15-14.33a14.45,14.45,0,0,0-5.9,1.47,11,11,0,0,0-3.58,4l31.6,35.33a19.62,19.62,0,0,0,5.41-4,4.86,4.86,0,0,0,.84-3.93Z" transform="translate(-197.9 -321.79)" fill="#fff" fill-rule="evenodd"/>
    </g>
  </g>
</svg>
