<svg id="Layer_1" data-name="Layer 1" xmlns="http://www.w3.org/2000/svg" width="70mm" height="70mm" viewBox="0 0 198.43 198.43">
  <title>m002</title>
  <g id="symbolgrp">
    <polygon points="198.43 99.22 198.29 94.75 198 90.36 197.5 85.9 196.85 81.5 195.91 77.11 194.83 72.79 193.53 68.54 192.1 64.37 190.44 60.26 188.57 56.16 186.55 52.2 184.39 48.31 182.02 44.57 179.42 40.9 176.76 37.37 173.88 33.91 170.93 30.67 167.76 27.5 164.45 24.48 161.06 21.67 157.53 18.94 153.86 16.42 150.12 14.04 146.23 11.88 142.2 9.79 138.17 7.99 134.06 6.34 129.89 4.9 125.57 3.6 121.25 2.52 116.93 1.58 112.53 0.94 108.07 0.43 103.68 0.07 99.22 0 94.75 0.07 90.29 0.43 85.9 0.94 81.5 1.58 77.11 2.52 72.79 3.6 68.54 4.9 64.37 6.34 60.19 7.99 56.16 9.79 52.2 11.88 48.31 14.04 44.57 16.42 40.9 18.94 37.37 21.67 33.91 24.48 30.6 27.5 27.5 30.67 24.48 33.91 21.6 37.37 18.94 40.9 16.42 44.57 14.04 48.31 11.81 52.2 9.79 56.16 7.99 60.26 6.34 64.37 4.82 68.54 3.53 72.79 2.45 77.11 1.58 81.5 0.86 85.9 0.36 90.36 0.07 94.75 0 99.22 0.07 103.68 0.36 108.07 0.86 112.54 1.58 116.93 2.45 121.32 3.53 125.64 4.82 129.89 6.34 134.06 7.99 138.17 9.79 142.27 11.81 146.23 14.04 150.12 16.42 153.86 18.94 157.54 21.6 161.06 24.48 164.52 27.5 167.76 30.6 170.93 33.91 173.95 37.37 176.76 40.9 179.5 44.57 182.02 48.31 184.39 52.2 186.55 56.16 188.64 60.19 190.44 64.37 192.1 68.54 193.54 72.79 194.83 77.11 195.91 81.5 196.85 85.9 197.5 90.29 198 94.75 198.36 99.22 198.43 103.68 198.36 108.07 198 112.53 197.5 116.93 196.85 121.25 195.91 125.57 194.83 129.89 193.54 134.06 192.1 138.17 190.44 142.2 188.64 146.23 186.55 150.12 184.39 153.86 182.02 157.53 179.5 161.06 176.76 164.45 173.95 167.76 170.93 170.93 167.76 173.88 164.52 176.76 161.06 179.42 157.54 182.02 153.86 184.39 150.12 186.55 146.23 188.57 142.27 190.44 138.17 192.1 134.06 193.53 129.89 194.83 125.64 195.91 121.32 196.85 116.93 197.5 112.54 198 108.07 198.29 103.68 198.43 99.22 198.43 99.22" fill="#056bb3" fill-rule="evenodd"/>
    <path d="M278.4,376.9l-.11-2.12-.32-2.09-.5-2-.72-2-.9-1.94-1.08-1.8-1.26-1.69-1.4-1.58-1.58-1.4L268.83,359l-1.8-1.08-1.91-.9-2-.72-2-.5-2.09-.32-2.09-.11-2.12.11-2.09.32-2.05.5-2,.72-1.94.9-1.8,1.08-1.69,1.26-1.58,1.4-1.4,1.58L239,364.93l-1.08,1.8-.9,1.94-.72,2-.5,2-.32,2.09-.11,2.12.11,2.08.32,2.08.5,2,.72,2,.9,1.9,1.08,1.8,1.26,1.69,1.4,1.58,1.58,1.4,1.69,1.26,1.8,1.11,1.94.9,2,.72,2.05.5,2.09.29,2.12.11,2.09-.11,2.09-.29,2-.5,2-.72,1.91-.9,1.8-1.11,1.69-1.26,1.58-1.4,1.4-1.58,1.26-1.69,1.08-1.8.9-1.9.72-2,.5-2,.32-2.08.11-2.08Zm.94,123.51-3.92-1-3.81-1.15-3.78-1.37-3.71-1.55-3.63-1.72L257,491.71l-3.42-2.08-3.35-2.23L247,485l-3.09-2.55-2.95-2.7-2.84-2.88-2.66-3-2.55-3.09-2.34-3.24-2.23-3.34v-49l.11-1.62.32-1.58.54-1.51.72-1.4.94-1.33,1.08-1.15,1.26-1,1.33-.83,1.47-.65,1.55-.43,1.58-.25h1.62L268.18,405l1.4.18,1.4.4,1.33.54,1.22.75,1.12.9,1,1,.83,1.15,22.91,37.38L324.48,433l1.33-.65,1.4-.47,1.44-.29,1.47-.07,1.44.11,1.44.29,1.4.47,1.33.65,1.22.83,1.11,1,.94,1.11.83,1.22.65,1.33.47,1.37.29,1.47.11,1.47-.11,1.44L341,445.7l-.47,1.37-.68,1.33-.79,1.22-1,1.11-1.12,1-1.22.79-35.86,20.6-1.33.65-1.4.5-1.48.29-1.47.14-1.47-.07-1.44-.25-1.44-.43-1.33-.61-1.26-.75-1.19-.93-1-1-.9-1.19-18.31-27.53-2.19.61,15.72,23.65v34.29ZM345.7,403.5l-32.88,22.36,11.26,5,1.44-.61,1.51-.43,1.55-.29,1.58-.07,1.55.11,1.54.25,1.51.47,1.44.65,1.33.79,1.26,1,1.11,1.08,1,1.22.83,1.33.68,1.4.5,1.47,5.21,2.3,30.54-24.26-33-13.69Zm-36.58,23.8-14.06-17-12.73,4.53,10.83,17.65,16-5.21Zm15.43-56.15,2.55,4.21-31.37,19.27,12.34,26.89-22.81-27.28,39.28-23.08Zm7.73,3.67L299,395.45,311.6,424l31.69-21.57-11-27.57Z" transform="translate(-197.9 -321.79)" fill="#fff" fill-rule="evenodd"/>
  </g>
</svg>
