<svg id="Layer_1" data-name="Layer 1" xmlns="http://www.w3.org/2000/svg" width="70mm" height="70mm" viewBox="0 0 198.43 198.43">
  <title>m003</title>
  <g id="symbolgrp">
    <polygon points="198.43 99.22 198.29 94.75 198 90.36 197.5 85.9 196.85 81.5 195.91 77.11 194.83 72.79 193.53 68.54 192.1 64.37 190.44 60.26 188.57 56.16 186.55 52.2 184.39 48.31 182.02 44.57 179.42 40.9 176.76 37.37 173.88 33.91 170.93 30.67 167.76 27.5 164.45 24.48 161.06 21.67 157.53 18.94 153.86 16.42 150.12 14.04 146.23 11.88 142.2 9.79 138.17 7.99 134.06 6.34 129.89 4.9 125.57 3.6 121.25 2.52 116.93 1.58 112.53 0.94 108.07 0.43 103.68 0.07 99.22 0 94.75 0.07 90.29 0.43 85.9 0.94 81.5 1.58 77.11 2.52 72.79 3.6 68.54 4.9 64.37 6.34 60.19 7.99 56.16 9.79 52.2 11.88 48.31 14.04 44.57 16.42 40.9 18.94 37.37 21.67 33.91 24.48 30.6 27.5 27.5 30.67 24.48 33.91 21.6 37.37 18.94 40.9 16.42 44.57 14.04 48.31 11.81 52.2 9.79 56.16 7.99 60.26 6.34 64.37 4.82 68.54 3.53 72.79 2.45 77.11 1.58 81.5 0.86 85.9 0.36 90.36 0.07 94.75 0 99.22 0.07 103.68 0.36 108.07 0.86 112.54 1.58 116.93 2.45 121.32 3.53 125.64 4.82 129.89 6.34 134.06 7.99 138.17 9.79 142.27 11.81 146.23 14.04 150.12 16.42 153.86 18.94 157.54 21.6 161.06 24.48 164.52 27.5 167.76 30.6 170.93 33.91 173.95 37.37 176.76 40.9 179.5 44.57 182.02 48.31 184.39 52.2 186.55 56.16 188.64 60.19 190.44 64.37 192.1 68.54 193.54 72.79 194.83 77.11 195.91 81.5 196.85 85.9 197.5 90.29 198 94.75 198.36 99.22 198.43 103.68 198.36 108.07 198 112.53 197.5 116.93 196.85 121.25 195.91 125.57 194.83 129.89 193.54 134.06 192.1 138.17 190.44 142.2 188.64 146.23 186.55 150.12 184.39 153.86 182.02 157.53 179.5 161.06 176.76 164.45 173.95 167.76 170.93 170.93 167.76 173.88 164.52 176.76 161.06 179.42 157.54 182.02 153.86 184.39 150.12 186.55 146.23 188.57 142.27 190.44 138.17 192.1 134.06 193.53 129.89 194.83 125.64 195.91 121.32 196.85 116.93 197.5 112.54 198 108.07 198.29 103.68 198.43 99.22 198.43 99.22" fill="#056bb3" fill-rule="evenodd"/>
    <path d="M316.92,304.59l-.57.14h-1.2l-.64-.07-.56-.14-.42,2-.49,2-.56,2-.71,2-.71,2-.78,2-.85,1.91-.92,1.91-1,1.91-1.06,1.84L305.34,326l-1.2,1.84-1.2,1.7-1.34,1.62-1.34,1.62-1.41,1.63-1.41,1.48-1.55,1.48-1.62,1.41-1.06.92-1.06.85-1.2.78-1.2.78-1.27.64-1.27.64-1.27.57-1.34.42-1.34.42-1.34.35-1.41.28-2,.35-2,.21-2,.21-2,.07-2,.07-2-.07-2-.07-2-.21-2-.21-2-.35-1.34-.28-1.41-.35-1.27-.42-1.34-.42-1.34-.57-1.27-.64-1.2-.64-1.2-.78-1.13-.78-1.2-.85-1.06-.92-1.55-1.41-1.55-1.48-1.41-1.48-1.41-1.62-1.41-1.62-1.27-1.62-1.27-1.7-1.2-1.84-1.06-1.77-1.06-1.84-1-1.91-.92-1.91-.85-1.91-.78-2-.78-2-.64-2-.56-2-.49-2-.42-2-.64.14-.56.07h-1.2l-.56-.14-.85-.21-.78-.28-.78-.35-.78-.42-.71-.42-.64-.5-.92-.85-.92-.92-.78-1-.78-1L215.16,297l-1-1.55-.85-1.62-.85-1.69-.78-1.77-.71-1.7-.71-1.76-.56-1.84-.49-1.77-.42-1.84-.35-1.84-.28-1.84-.21-1.91-.07-1.13v-1.2l.14-1.2.14-1.13.28-1.13.35-1.13.28-.71.35-.64.42-.56.49-.56.49-.56.56-.42.64-.35.78-.42.85-.28.78-.21.92-.14.85-.07h.85l-.21-2-.14-2-.07-2v-2l.07-2,.21-2,.21-2,.28-2,.35-2,.49-2,.49-1.91.64-2,.64-1.91.78-1.84.78-1.84.85-1.84,1-1.77,1-1.77,1.06-1.69,1.13-1.69,1.2-1.62,1.27-1.55,1.27-1.48,1.41-1.48,1.41-1.41,1.48-1.34,1.55-1.34,1.55-1.27,1.62-1.2L241,212l1.77-1.06,1.69-1.06,1.77-.92,1.84-.85,1.84-.78,1.91-.78,1.91-.64,1.91-.64,1.91-.49,2-.42,2-.35,2-.35,2-.21,2-.14,2-.07h2l2,.07,2,.14,2,.21,2,.35,2,.35,1.91.42,2,.49,1.91.64,1.91.64,1.84.78,1.91.78,1.77.85,1.76.92,1.77,1.06L300,212l1.7,1.13,1.62,1.2,1.55,1.27L306.4,217l1.48,1.34,1.41,1.41,1.34,1.48,1.34,1.48,1.2,1.55,1.27,1.62,1.06,1.69,1.13,1.69,1,1.77.92,1.77.92,1.84.85,1.84.64,1.84.71,1.91.64,2,.49,1.91.42,2,.42,2,.28,2,.21,2,.21,2,.07,2v2l-.07,2-.14,2-.28,2h.92l.85.07.85.14.85.21.85.28.78.42.56.35.63.42.49.56.49.56.35.56.42.64.21.71.42,1.13.21,1.13.21,1.13.14,1.2v1.2l-.07,1.13-.21,1.91-.28,1.84-.35,1.84-.42,1.84-.49,1.77-.64,1.84-.56,1.76-.71,1.7-.85,1.77-.85,1.69-.92,1.62-.92,1.55-1.06,1.63-.78,1-.85,1-.85.92-.92.85-.71.5-.71.42-.71.42-.78.35-.78.28-.85.21Zm.85-36.72.35-1.91.35-1.84.21-1.91.14-1.91.14-1.91V256.5l-.07-1.91-.14-1.91-.21-1.91-.28-1.91-.42-1.91-.35-1.84-.56-1.84-.57-1.84-.63-1.77-.71-1.77-.78-1.77-.92-1.69-.92-1.62-1-1.69-1.06-1.55L309.23,228l-1.13-1.55-1.27-1.41-1.27-1.41-1.34-1.34L302.8,221l-1.41-1.27-1.55-1.13-1.48-1.13-1.62-1.06-1.62-1-1.7-1-1.69-.85-1.7-.78-1.77-.78-1.84-.64-1.77-.56-1.84-.56-1.84-.42-1.91-.35-1.91-.35-1.91-.21-1.91-.14-1.91-.07h-1.91l-1.91.07-1.91.14-1.91.21-1.84.35-1.91.35-1.84.42-1.84.56-1.84.56-1.77.64-1.77.78-1.77.78-1.69.85-1.62,1-1.62,1-1.55,1.06-1.55,1.13-1.48,1.13L238.25,221l-1.41,1.34-1.34,1.34-1.34,1.41-1.2,1.41-1.2,1.55-1.06,1.55-1.06,1.55-1,1.69-.92,1.62-.85,1.69-.85,1.77-.71,1.77-.64,1.77-.56,1.84-.56,1.84-.42,1.84-.35,1.91-.28,1.91-.21,1.91-.14,1.91-.07,1.91v1.91l.14,1.91.14,1.91.21,1.91.35,1.84.35,1.91.07.42v.42l-.07.42-.14.35-.21.35-.28.42-.28.28-.35.21-.35.21-.42.14h-.85L220,271l-.35-.14-.42-.21-.35-.21-.28-.28-.21-.42-.28-.28-.28-.35-.35-.21-.35-.14-.42-.07h-.85l-.35.14-.35.21-.35.28-.28.28-.21.42-.28.85-.35.85-.14.92-.14.92v1.84l.21,1.77.35,1.77.28,1.84.49,1.7.49,1.77.56,1.69.64,1.7.78,1.62.78,1.62.85,1.62.92,1.48,1.06,1.55.64.92.71.78.85.85.92.71.35.21.49.21.42.07h.42l.49-.07.42-.14.42-.28.35-.28.28-.28.35-.21.42-.14h.92l.42.14.42.14.42.21.35.28.35.35.28.35.21.49.14.42.14.42.35,2,.35,2,.49,2,.56,2,.64,2,.64,2,.85,1.91.85,1.91.92,1.84.92,1.84,1.13,1.84,1.06,1.69,1.2,1.77,1.27,1.63,1.27,1.62,1.41,1.55,1.41,1.48,1.48,1.48,1.55,1.41,1,.78,1,.71,1.06.71,1.06.63,1.13.57,1.13.49,1.13.42,1.2.42,1.27.28,1.2.28,2,.35,2,.21,2,.14,2,.14h2l2-.14,2-.14,2-.21,2-.35,1.2-.28,1.2-.28,1.2-.42,1.2-.42,1.13-.49,1.13-.57,1.06-.63,1.06-.71,1.06-.71.92-.78,1.55-1.41,1.48-1.48,1.41-1.48,1.34-1.55,1.34-1.62,1.27-1.62,1.13-1.77,1.2-1.69,1-1.84,1-1.84,1-1.84.78-1.91.78-1.91.71-2,.63-2,.57-2,.49-2,.35-2,.35-2,.07-.42.14-.42.28-.49.28-.35.28-.35.42-.28.35-.21.5-.14.42-.14h.92l.35.14.42.21.28.28.35.28.42.28.42.14.42.07h.5l.42-.07.42-.21.42-.21.92-.71.78-.85.78-.78.71-.92,1-1.55.92-1.48.85-1.62.78-1.62.71-1.62.71-1.7.57-1.69.49-1.77.42-1.7.42-1.84.21-1.77.21-1.77.07-.92-.07-.92-.07-.92-.21-.92-.21-.85-.42-.85-.21-.42-.28-.28-.28-.28-.35-.21-.42-.14h-.78l-.42.07-.35.14-.42.21-.28.35-.21.28-.28.42-.28.28-.28.21-.42.21-.35.14-.42.07h-.85l-.42-.14-.35-.21-.42-.21-.28-.28-.21-.42-.21-.35-.14-.35-.07-.42v-.42l.07-.42Z" transform="translate(-171.24 -170.63)" fill="#fff" fill-rule="evenodd"/>
    <path d="M203.58,258.05a15,15,0,0,0-2.4,11.3l5.65,27.4a14.87,14.87,0,0,0,6.64,9.39,24.86,24.86,0,0,0,18.5,3l-.35-1.55c-6.36,1.34-12.64.35-17.3-2.75a13.11,13.11,0,0,1-5.93-8.33L202.73,269a13.1,13.1,0,0,1,2.19-10c3-4.66,8.4-8.05,14.76-9.39L219.4,248c-6.78,1.41-12.5,5.08-15.82,10Z" transform="translate(-171.24 -170.63)" fill="#fff" fill-rule="evenodd"/>
    <polygon points="48.37 79.09 47.95 87.7 43.15 90.04 42.3 93.5 50.7 126.33 56.56 131.21 57.69 138.27 55.01 138.27 50.63 138.06 44.77 136.22 41.52 133.96 37.92 129.87 36.51 126.62 34.74 118 30.36 96.81 31.28 90.46 34.74 85.23 40.39 81.14 45.62 79.09 48.37 79.09 48.37 79.09" fill="#fff" fill-rule="evenodd"/>
    <path d="M213.89,267.59l2.89-3,3.46-.21s2.26-1.84,2-2.47-1.41-11-1.41-11l-3.53.42-6.92,8.33,3.46,8Z" transform="translate(-171.24 -170.63)" fill="#fff" fill-rule="evenodd"/>
    <path d="M197.86,258.05a14.74,14.74,0,0,0-2.47,11.3l5.65,27.4a15,15,0,0,0,6.71,9.39c4.94,3.25,11.72,4.38,18.43,3l-.28-1.55c-6.36,1.34-12.64.35-17.3-2.75a13.22,13.22,0,0,1-6-8.33L196.94,269a13.1,13.1,0,0,1,2.19-10c3-4.66,8.47-8.05,14.83-9.39l-.35-1.55c-6.71,1.41-12.5,5.08-15.75,10Z" transform="translate(-171.24 -170.63)" fill="#fff" fill-rule="evenodd"/>
    <polygon points="42.65 79.09 42.16 87.7 37.35 90.04 36.51 93.5 44.98 126.33 50.84 131.21 51.97 138.27 49.22 138.27 44.91 138.06 38.98 136.22 35.8 133.96 32.13 129.87 30.79 126.62 28.95 118 24.64 96.81 25.56 90.46 28.95 85.23 34.67 81.14 39.9 79.09 42.65 79.09 42.65 79.09" fill="#fff" fill-rule="evenodd"/>
    <path d="M208.17,267.59l2.82-3,3.46-.21s2.26-1.84,2-2.47-1.41-11-1.41-11l-3.46.42-6.92,8.33,3.46,8Z" transform="translate(-171.24 -170.63)" fill="#fff" fill-rule="evenodd"/>
    <path d="M327.09,249.58c6.36,1.34,11.72,4.73,14.83,9.39a13.4,13.4,0,0,1,2.19,10l-5.65,27.47a13.23,13.23,0,0,1-6,8.33c-4.66,3.11-10.95,4.1-17.3,2.75l-.35,1.55a24.86,24.86,0,0,0,18.5-3,14.88,14.88,0,0,0,6.64-9.39l5.65-27.4a15,15,0,0,0-2.4-11.3c-3.32-4.94-9-8.62-15.82-10l-.28,1.55Z" transform="translate(-171.24 -170.63)" fill="#fff" fill-rule="evenodd"/>
    <polygon points="155.92 79.09 156.42 87.7 161.15 90.04 162 93.5 153.59 126.33 147.73 131.21 146.6 138.27 149.35 138.27 153.66 138.06 159.6 136.22 162.77 133.96 166.38 129.87 167.79 126.62 169.55 118 173.93 96.81 173.01 90.46 169.55 85.23 163.9 81.14 158.68 79.09 155.92 79.09 155.92 79.09" fill="#fff" fill-rule="evenodd"/>
    <path d="M332.88,267.59l-2.89-3-3.46-.21s-2.26-1.84-2-2.47,1.48-11,1.48-11l3.46.42,6.92,8.33-3.46,8Z" transform="translate(-171.24 -170.63)" fill="#fff" fill-rule="evenodd"/>
    <path d="M321,249.58c11.09,2.26,18.71,11,17,19.42l-5.65,27.47c-1.77,8.4-12.22,13.42-23.3,11.09l-.28,1.55c11.93,2.47,23.23-3.11,25.14-12.36l5.65-27.4c1.91-9.32-6.29-18.86-18.22-21.33l-.35,1.55Z" transform="translate(-171.24 -170.63)" fill="#fff" fill-rule="evenodd"/>
    <polygon points="149.85 79.09 150.34 87.7 155.15 90.04 155.99 93.5 147.52 126.33 141.66 131.21 140.53 138.27 143.28 138.27 147.59 138.06 153.52 136.22 156.7 133.96 160.37 129.87 161.71 126.62 163.55 118 167.86 96.81 166.94 90.46 163.55 85.23 157.83 81.14 152.6 79.09 149.85 79.09 149.85 79.09" fill="#fff" fill-rule="evenodd"/>
    <path d="M326.81,267.59l-2.83-3-3.53-.21s-2.19-1.84-2-2.47,1.41-11,1.41-11l3.46.42,6.92,8.33-3.46,8Z" transform="translate(-171.24 -170.63)" fill="#fff" fill-rule="evenodd"/>
    <polygon points="49.01 83.68 41.03 83.68 41.03 62 49.01 62 49.01 83.68 49.01 83.68" fill="#fff" fill-rule="evenodd"/>
    <polygon points="156.91 83.68 148.93 83.68 148.93 62 156.91 62 156.91 83.68 156.91 83.68" fill="#fff" fill-rule="evenodd"/>
    <path d="M225.33,208.76c-13.84,16.74-10.1,40.32-10,41.31l6.07-1c-.07-.21-3.46-21.89,8.62-36.44,7.2-8.62,18.5-13.21,33.61-13.49h13.63c15,.28,26.34,4.87,33.54,13.49,12.08,14.55,8.69,36.23,8.69,36.44l6,1c.21-1,4-24.58-10-41.31-8.33-10.1-21.19-15.39-38.2-15.75H263.61c-17.09.35-29.94,5.65-38.28,15.75Z" transform="translate(-171.24 -170.63)" fill="#fff" fill-rule="evenodd"/>
    <polygon points="60.23 131 50.21 133.47 39.61 90.04 49.71 87.56 60.23 131 60.23 131" fill="#fff" fill-rule="evenodd"/>
    <polygon points="137.63 132.34 147.66 134.74 158.25 91.38 148.15 88.91 137.63 132.34 137.63 132.34" fill="#fff" fill-rule="evenodd"/>
    <path d="M229.85,281.5a3.1,3.1,0,0,1-6,1.27l-1.69-8a3.14,3.14,0,0,1,6.07-1.27l1.62,8Z" transform="translate(-171.24 -170.63)" fill="#fff" fill-rule="evenodd"/>
    <path d="M310.21,281.5a2.86,2.86,0,0,0,2.47,3.25,2.89,2.89,0,0,0,3.53-2l1.7-8a2.92,2.92,0,0,0-2.47-3.25,3,3,0,0,0-3.6,2l-1.62,8Z" transform="translate(-171.24 -170.63)" fill="#fff" fill-rule="evenodd"/>
  </g>
</svg>
