<svg id="Layer_1" data-name="Layer 1" xmlns="http://www.w3.org/2000/svg" width="70mm" height="70mm" viewBox="0 0 198.43 198.43">
  <title>m004</title>
  <g id="symbolgrp">
    <path d="M396.8,421.41a99.22,99.22,0,1,1-99.21-99.29,99.18,99.18,0,0,1,99.21,99.29Z" transform="translate(-198.37 -322.12)" fill="#056bb3" fill-rule="evenodd"/>
    <path d="M299.53,427.67Z" transform="translate(-198.37 -322.12)" fill="#fff" fill-rule="evenodd"/>
    <path d="M299.53,427.67Z" transform="translate(-198.37 -322.12)" fill="#fff" fill-rule="evenodd"/>
    <path d="M301.91,415.43v-1.51c0-1.44-1.8-2.59-4-2.59h-.65c-2.23,0-4,1.15-4,2.59v1.51Z" transform="translate(-198.37 -322.12)" fill="#fff" fill-rule="evenodd"/>
    <path d="M301.91,421v-1.44c0-1.51-1.8-2.66-4-2.66h-.65c-2.23,0-4,1.15-4,2.66V421Z" transform="translate(-198.37 -322.12)" fill="#fff" fill-rule="evenodd"/>
    <path d="M298.53,427.67Z" transform="translate(-198.37 -322.12)" fill="#fff" fill-rule="evenodd"/>
    <path d="M298.53,427.67Z" transform="translate(-198.37 -322.12)" fill="#fff" fill-rule="evenodd"/>
    <path d="M257.89,436.31s-4.39-2.38-6.2-4.68c-1.58-2-4.47-23.69-4.47-23.69l10.66.36v28Z" transform="translate(-198.37 -322.12)" fill="#fff" stroke="#056bb3" stroke-miterlimit="2.61" stroke-width="2" fill-rule="evenodd"/>
    <line x1="74.86" y1="104.9" x2="74.86" y2="104.9" fill="none" stroke="#231f20" stroke-miterlimit="2.61" stroke-width="1.04"/>
    <polygon points="47.19 82.15 77.1 85.54 57.71 88.13 47.19 82.15 47.19 82.15" fill="#fff" fill-rule="evenodd"/>
    <path d="M273.09,445.74c-8.93.14-16.64-6.48-16.79-14.9l-.5-21.46s13.19-1.22,17.44-1.15,18.66.29,18.66.29l.5,21v.22c-.14,9.36-7,16-15.92,15.91l-3.39.14Z" transform="translate(-198.37 -322.12)" fill="#fff" stroke="#056bb3" stroke-miterlimit="2.61" stroke-width="2" fill-rule="evenodd"/>
    <path d="M273.31,439.91c-6.12.07-11.46-4.46-11.53-10.22l-.36-14.83s9.08-.86,12-.79,12.9.14,12.9.14l.29,14.47v.14a10.74,10.74,0,0,1-11,11l-2.38.07Z" transform="translate(-198.37 -322.12)" fill="none" stroke="#056bb3" stroke-miterlimit="2.61" stroke-width="2"/>
    <path d="M256.16,418c-4.68-5-17.29-9.07-17.29-9.07v-6.26s12.61,3.1,17.29,8.14V418Z" transform="translate(-198.37 -322.12)" fill="#fff" stroke="#056bb3" stroke-miterlimit="2.61" stroke-width="2.04" fill-rule="evenodd"/>
    <path d="M337.22,436.31s4.39-2.38,6.27-4.68c1.59-2,4.4-23.69,4.4-23.69l-10.66.36v28Z" transform="translate(-198.37 -322.12)" fill="#fff" stroke="#056bb3" stroke-miterlimit="2.61" stroke-width="2" fill-rule="evenodd"/>
    <line x1="123.5" y1="104.9" x2="123.5" y2="104.9" fill="none" stroke="#231f20" stroke-miterlimit="2.61" stroke-width="1.04"/>
    <polygon points="151.16 82.15 121.26 85.54 140.65 88.13 151.16 82.15 151.16 82.15" fill="#fff" fill-rule="evenodd"/>
    <path d="M322,445.74c8.94.14,16.72-6.48,16.79-14.9l.58-21.46s-13.26-1.22-17.51-1.15-18.66.29-18.66.29l-.51,21v.22c.14,9.36,7,16,15.92,15.91l3.39.14Z" transform="translate(-198.37 -322.12)" fill="#fff" stroke="#056bb3" stroke-miterlimit="2.61" stroke-width="2" fill-rule="evenodd"/>
    <path d="M321.8,439.91c6.12.07,11.53-4.46,11.6-10.22l.36-14.83s-9.15-.86-12-.79-12.9.14-12.9.14l-.36,14.47v.14c.14,6.48,4.83,11,11,11l2.38.07Z" transform="translate(-198.37 -322.12)" fill="none" stroke="#056bb3" stroke-miterlimit="2.61" stroke-width="2"/>
    <path d="M339,418c4.61-5,17.29-9.07,17.29-9.07v-6.26s-12.68,3.1-17.29,8.14V418Z" transform="translate(-198.37 -322.12)" fill="#fff" stroke="#056bb3" stroke-miterlimit="2.61" stroke-width="2.04" fill-rule="evenodd"/>
    <path d="M230.72,415a64.46,64.46,0,0,1,.14-.29l-.14.29ZM357.1,432.42c-3.17,8.93-7.57,14.11-9.73,14.9l-.21.07c-.14,0-.79.07-.79.07a7.81,7.81,0,0,1-2.3-.86,2.6,2.6,0,0,0-1.3-.5,2.91,2.91,0,0,0-3.39,2.45,61.23,61.23,0,0,1-5.19,17.35c-6.63,14.26-17.51,24.62-27.09,25.92a72.55,72.55,0,0,1-7.42.58l-2.38.07v.07a80,80,0,0,1-9.29-.72c-9.66-1.3-20.61-11.66-27.16-25.92-2.74-5.76-5.26-17.5-5.33-17.57a2.85,2.85,0,0,0-3.46-2.23,3.06,3.06,0,0,0-1.66,1,6.21,6.21,0,0,1-1.58.58l-.65-.14a3.14,3.14,0,0,1-.36-.07c-2.09-.79-6.56-6-9.65-14.9a36.51,36.51,0,0,1-2.45-11.88,12.29,12.29,0,0,1,.43-3.31c0-.07.07-.14.07-.22a3.05,3.05,0,0,1,1.22-1.94,2.11,2.11,0,0,1,3.39.29v-.07a3.14,3.14,0,0,0,2.74,1.73,3.09,3.09,0,0,0,3-2.52,2.47,2.47,0,0,0-.07-1,51.5,51.5,0,0,1-1.3-11.59,52.52,52.52,0,0,1,52.17-52.42h.29A52.57,52.57,0,0,1,349.83,402a49.63,49.63,0,0,1-1.08,10.37l.07-.07a.38.38,0,0,1-.14.29c0,.22-.07.43-.07.65a2,2,0,0,0-.07.65,3.11,3.11,0,0,0,3.1,3,3,3,0,0,0,2.23-1l.21-.43.14-.14-.14.14h.07c.07-.07.14-.14.14-.22a2.28,2.28,0,0,1,1.87-.94,2.07,2.07,0,0,1,1.59.72,3.07,3.07,0,0,1,1.22,1.87.54.54,0,0,1,.07.29,10,10,0,0,1,.43,3.31,36.45,36.45,0,0,1-2.38,11.88Zm7.28-17.71a6.63,6.63,0,0,0-2-3l-1.08-.86a8.1,8.1,0,0,0-5.4-1.51,2,2,0,0,0-.65.07,63.11,63.11,0,0,0,.5-7.34,58.56,58.56,0,0,0-58.07-58.39h-.36A58.65,58.65,0,0,0,239.23,402a65.36,65.36,0,0,0,.5,7.49.92.92,0,0,0-.43-.07,8.47,8.47,0,0,0-5.48,1.58l-.94.79a6.76,6.76,0,0,0-2.09,3,15.23,15.23,0,0,0-.94,5.83,42.21,42.21,0,0,0,2.74,13.82c3.31,9.5,8.5,16.7,13.18,18.43l1.08.29c-.14-.07,1.66.22,1.66.22a6.66,6.66,0,0,0,2.09-.22c1.08,4.1,2.81,10.87,4.83,15.12,7.57,16.27,20,27.86,31.77,29.38a105.93,105.93,0,0,0,12.46.86h2.45a3.11,3.11,0,0,0,.07-.36c2-.07,4-.29,5.69-.5,11.67-1.51,24.14-13.1,31.7-29.38a67.72,67.72,0,0,0,5-15.26,6.47,6.47,0,0,0,2,.22l1.8-.29.94-.29c4.68-1.73,9.87-8.86,13.26-18.36a41.93,41.93,0,0,0,2.67-13.82,15.22,15.22,0,0,0-.94-5.83ZM348.46,453Zm15.85-38.45c.07,0,.07.07.07.14a.25.25,0,0,1,.07.14l-.14-.29Z" transform="translate(-198.37 -322.12)" fill="#fff" fill-rule="evenodd"/>
  </g>
</svg>
