<svg id="Layer_1" data-name="Layer 1" xmlns="http://www.w3.org/2000/svg" width="70mm" height="70mm" viewBox="0 0 198.43 198.43">
  <title>m005</title>
  <g id="symbolgrp">
    <path d="M396.34,421a99.22,99.22,0,1,1-99.22-99.22A99.22,99.22,0,0,1,396.34,421Z" transform="translate(-197.9 -321.79)" fill="#056bb3" fill-rule="evenodd"/>
    <polygon points="136.3 140.4 62.14 140.4 62.14 149.76 136.3 149.76 136.3 140.4 136.3 140.4" fill="#fff" fill-rule="evenodd"/>
    <polygon points="119.23 160.85 79.13 160.85 79.13 170.21 119.23 170.21 119.23 160.85 119.23 160.85" fill="#fff" fill-rule="evenodd"/>
    <polygon points="47.09 129.17 151.34 129.17 151.34 119.81 103.25 119.81 103.25 26.21 95.18 26.21 95.18 119.81 47.09 119.81 47.09 129.17 47.09 129.17" fill="#fff" fill-rule="evenodd"/>
  </g>
</svg>
