<svg id="Layer_1" data-name="Layer 1" xmlns="http://www.w3.org/2000/svg" width="70mm" height="70mm" viewBox="0 0 198.43 198.43">
  <title>m006</title>
  <g id="symbolgrp">
    <path d="M396.34,421a99.22,99.22,0,1,1-99.22-99.22A99.22,99.22,0,0,1,396.34,421Z" transform="translate(-197.9 -321.79)" fill="#056bb3" fill-rule="evenodd"/>
    <polygon points="40.68 153.29 49.32 153.29 49.32 43.56 40.68 43.56 40.68 153.29 40.68 153.29" fill="#fff" fill-rule="evenodd"/>
    <path d="M289.92,340.23l-3.67,6s6.84,4.1,12.89,7.78H259.32v7h39.38l-12.31,7,3.46,6.12,28.87-16.42-28.8-17.42Z" transform="translate(-197.9 -321.79)" fill="#fff" fill-rule="evenodd"/>
    <path d="M375.1,414.1a4.05,4.05,0,0,1-1.94,3H346.87c1.8-1.87,3.31-3.46,3.53-3.74.72-.36,11.3-5.83,11.52-5.9a9.45,9.45,0,0,1,5.11-1c4.54.43,8.06,3.6,8.06,7.13v.5Zm-63.29,52.85,13.1-12h19.15l1.15,9.72a6.41,6.41,0,0,1-1.58,4.68,8.49,8.49,0,0,1-5.76,3,8.36,8.36,0,0,1-7-2.59l-3.46-3.89-.58,5.18c-.65,3.24-3.6,5.33-7.42,6-4.18.72-8.13-4.25-8.13-4.25s-2.09-3-4-5.83Zm-23-26.57v-8.78h17a17.38,17.38,0,0,0-.58,4.32,18.09,18.09,0,0,0,.58,4.46Zm78.62-38.88a15.2,15.2,0,0,0-7.63,1.44h-.14l-12.31,6.41s-6.55,6.84-7.42,7.78h-14.4l-.65-.65L311.09,405c8.06-9.65,17.21-20.45,17.28-20.52l.29-.29c.36-.14,18.22-8.86,32.83-16a47,47,0,0,0-3-3.6l-32.19,15.7-.29.22-1,.94L305.18,405H285v10.22H264a5,5,0,0,0-5,5,5,5,0,0,0,5,5h21v21.38H264a5,5,0,0,0-5,5,5,5,0,0,0,5,5h21v10.3h16.56c2.59,3.74,5.54,8.14,5.62,8.21,3.89,5.11,7.27,7.42,12.74,6.91a12.85,12.85,0,0,0,10.44-6.84A13.42,13.42,0,0,0,338.3,477a13.08,13.08,0,0,0,8.93-4.61,10.83,10.83,0,0,0,2.59-8.06l-1.08-9.22c8.28,0,16.7,0,24.34-.07.72-1.58,1.44-3.24,2.09-5-21.67.07-50.54.07-51.84,0a14.27,14.27,0,0,1-13.61-14.11,14.07,14.07,0,0,1,13.61-13.82h51.55l.65-.5c2-1.51,4.18-3.38,4.46-7,.65-6.48-5-12.38-12.53-13.1Z" transform="translate(-197.9 -321.79)" fill="#fff" fill-rule="evenodd"/>
  </g>
</svg>
