<svg id="Layer_1" data-name="Layer 1" xmlns="http://www.w3.org/2000/svg" width="70mm" height="70mm" viewBox="0 0 198.43 198.43">
  <title>m007</title>
  <g id="symbolgrp">
    <path d="M396.84,421.3A99.14,99.14,0,1,1,297.7,322a99.17,99.17,0,0,1,99.14,99.25Z" transform="translate(-198.41 -322.05)" fill="#056bb3" fill-rule="evenodd"/>
    <path d="M297.12,322.19a98.82,98.82,0,1,0,98.71,98.89,98.79,98.79,0,0,0-98.71-98.89Zm0,183.59a84.73,84.73,0,1,1,84.53-84.69,84.72,84.72,0,0,1-84.53,84.69Z" transform="translate(-198.41 -322.05)" fill="#056bb3" fill-rule="evenodd"/>
    <path d="M297.12,426.61Z" transform="translate(-198.41 -322.05)" fill="#fff" fill-rule="evenodd"/>
    <path d="M297.12,426.61Z" transform="translate(-198.41 -322.05)" fill="#fff" fill-rule="evenodd"/>
    <path d="M297.12,426.61Z" transform="translate(-198.41 -322.05)" fill="#fff" fill-rule="evenodd"/>
    <path d="M350.35,418H338.1c-3.15-5.81-10.1-9.75-18.12-9.75a22.34,22.34,0,0,0-13,4c-.36.22-.64.5-1,.72-.07.07-4.87,2.29-8.31,2.29a15.6,15.6,0,0,1-7.52-1.65,21.37,21.37,0,0,0-1.79-1.58c-3.65-2.65-8.74-3.8-14.33-3.8-8.09,0-15,3.94-18.2,9.75h-12v4.52h10.39a13.24,13.24,0,0,0-.21,2.37,13.45,13.45,0,0,0,.21,2.44H243.83v4.52h12c3.15,5.81,10.1,9.75,18.2,9.75,5.73,0,10.89-1.22,14.54-3.94v-.07c1.07-.79,3.08-2.87,3.3-2.94a10.42,10.42,0,0,1,5.73-1.51c3.15,0,5.87,1.08,6.95,2.58a9.55,9.55,0,0,1,1,.79A22.72,22.72,0,0,0,320,441.59c8,0,15-3.94,18.12-9.75h12.25v-4.52h-10.6c.07-.79.21-1.58.21-2.44s-.14-1.58-.21-2.37h10.6V418Z" transform="translate(-198.41 -322.05)" fill="#fff" fill-rule="evenodd"/>
    <path d="M230.29,414.92a143.37,143.37,0,0,0,.14-.29l-.14.29Zm126.29,17.43c-3.15,8.89-7.59,14.06-9.74,14.84l-.21.07c-.14,0-.79.07-.79.07a7.76,7.76,0,0,1-2.29-.86,2.59,2.59,0,0,0-1.29-.5,2.89,2.89,0,0,0-3.37,2.51,61.3,61.3,0,0,1-5.23,17.28c-6.59,14.27-17.48,24.67-27.08,26a72,72,0,0,1-7.38.57l-2.36.07v.07a79.62,79.62,0,0,1-9.31-.72c-9.67-1.29-20.56-11.69-27.15-26-2.72-5.74-5.23-17.43-5.3-17.5a2.87,2.87,0,0,0-3.51-2.29,3.05,3.05,0,0,0-1.65,1,6.16,6.16,0,0,1-1.58.57l-.64-.14a3.08,3.08,0,0,1-.36-.07c-2.08-.79-6.52-6-9.67-14.84a37.14,37.14,0,0,1-2.44-11.9,12.26,12.26,0,0,1,.43-3.3c0-.07.07-.14.07-.22a3,3,0,0,1,1.22-1.94,2.05,2.05,0,0,1,1.58-.72,2.08,2.08,0,0,1,1.86,1v-.07a3.12,3.12,0,0,0,2.72,1.72,3.07,3.07,0,0,0,3-2.51,2.46,2.46,0,0,0-.07-1,52.48,52.48,0,0,1,50.86-64h.29a52.49,52.49,0,0,1,52.08,52.42,50.7,50.7,0,0,1-1.07,10.4l.07-.07a.37.37,0,0,1-.14.29c0,.21-.07.43-.07.65a2,2,0,0,0-.07.65,3.09,3.09,0,0,0,3.08,3,3,3,0,0,0,2.29-1l.21-.43.14-.14-.14.14h.07c.07-.07.14-.14.14-.21h0a2.28,2.28,0,0,1,1.86-.93,2.05,2.05,0,0,1,1.58.72,3.06,3.06,0,0,1,1.22,1.86.55.55,0,0,1,.07.29,9.91,9.91,0,0,1,.43,3.3,37.06,37.06,0,0,1-2.36,11.9Zm7.23-17.71a7.19,7.19,0,0,0-2-3.08l-1.07-.86a8.05,8.05,0,0,0-5.37-1.51,2,2,0,0,0-.64.07,62.62,62.62,0,0,0,.5-7.31,58.52,58.52,0,0,0-58-58.37h-.36a58.57,58.57,0,0,0-58,58.37,65.18,65.18,0,0,0,.5,7.46.91.91,0,0,0-.43-.07,8.5,8.5,0,0,0-5.52,1.58l-.93.79a7.37,7.37,0,0,0-2.08,3.08,15.18,15.18,0,0,0-.93,5.81,42.85,42.85,0,0,0,2.72,13.84c3.3,9.47,8.52,16.71,13.18,18.43l1.07.29c-.14-.07,1.65.21,1.65.21a6.61,6.61,0,0,0,2.08-.21C251.2,457.23,253,464,255,468.27c7.52,16.28,20,27.83,31.73,29.33a106.28,106.28,0,0,0,12.46.86h2.44a3.06,3.06,0,0,0,.07-.36c2-.07,4-.29,5.66-.5,11.68-1.51,24.14-13.05,31.73-29.33a69.28,69.28,0,0,0,5-15.27,6.36,6.36,0,0,0,2,.21l1.79-.29.93-.29c4.73-1.72,9.88-8.89,13.25-18.36a42.58,42.58,0,0,0,2.65-13.84,15.19,15.19,0,0,0-.93-5.81Zm-15.9,38.3Zm15.83-38.44c.07,0,.07.07.07.14a.25.25,0,0,1,.07.14l-.14-.29Z" transform="translate(-198.41 -322.05)" fill="#fff" fill-rule="evenodd"/>
  </g>
</svg>
