<svg id="Layer_1" data-name="Layer 1" xmlns="http://www.w3.org/2000/svg" width="70mm" height="70mm" viewBox="0 0 198.43 198.43">
  <title>m008</title>
  <g id="symbolgrp">
    <path d="M396.34,421a99.22,99.22,0,1,1-99.22-99.22A99.22,99.22,0,0,1,396.34,421Z" transform="translate(-197.9 -321.79)" fill="#056bb3" fill-rule="evenodd"/>
    <path d="M362.14,465.43s-1.44,5.33-1.37,5.26-11.23-2.59-11.23-2.59.43-3.82.43-3.74l5.47,1.08c2.3-3.46,3.82-9.29,2.38-12.31-4.75-8.5-16.71-7.34-21.89-14.4-6-10.15-14-19.44-21-29.16-1.37-3-1.66-5.83-.43-9.86l11.66-43.49-42.34-10-3.31,17.35H277l4-21.74,49.75,11.66-13.18,48.89c-.72,3.31,1,6,2.81,8.5,6.41,8.42,13,16.7,18.5,25.49,5,6.26,24.41,6.7,23.4,20.59-.07,2.81-1.15,5.4-1.8,8l1.66.5Z" transform="translate(-197.9 -321.79)" fill="#fff" fill-rule="evenodd"/>
    <path d="M289.06,369c.22,17-1.15,34.42-1.37,51a10.58,10.58,0,0,0,3,6.41c8.78,6.91,17,12.38,25.2,20.81,9.29,5.47,27.94.79,28,16.78,1,2.23-2.23,5.47,1.15,5.76,0-.07.07,6.12.14,6.12H296.76c-8.06-2.66-14.76-9.29-23.26-10.8h0l-.43,10.8h-34.2c-1-5.83-.65-12.24-1.3-18.14-4.32-6-2.3-15.34-.94-22,2.16-8.5,5.26-16.92,3.31-26.57l-.79-13.46c-.29-8.42-1.22-18.07-1.87-26.78Z" transform="translate(-197.9 -321.79)" fill="#fff" fill-rule="evenodd"/>
    <path d="M341.26,458.88c.5,1.37,1.73,3,.58,4.54-1,1.3-2.88,1.3-4.32.94-3-4.1-7.34-5.54-11.66-6.84-1.22-.65-1.22-2.16-.86-3.31,3.82-2.81,9.22-.43,13,1.37l3.31,3.31Z" transform="translate(-197.9 -321.79)" fill="#056bb3" fill-rule="evenodd"/>
    <path d="M278,458.09c7.06.29,17.06,8.71,26.93,10.22H340.1l.07,3.17H303.89c-7.42-.29-19.94-9.43-26.21-9.94H241.32v-3.46Z" transform="translate(-197.9 -321.79)" fill="#056bb3" fill-rule="evenodd"/>
  </g>
</svg>
