<svg id="Layer_1" data-name="Layer 1" xmlns="http://www.w3.org/2000/svg" width="70mm" height="70mm" viewBox="0 0 198.43 198.43">
  <title>m009</title>
  <g id="symbolgrp">
    <path d="M396.34,421a99.22,99.22,0,1,1-99.22-99.22A99.22,99.22,0,0,1,396.34,421Z" transform="translate(-197.9 -321.79)" fill="#056bb3" fill-rule="evenodd"/>
    <path d="M264.58,497.69l-29-81.72a4.47,4.47,0,0,1-.65-2.09,5.72,5.72,0,0,1,10.8-2.45l7.7,20.23a1.51,1.51,0,0,0,1.37.79c.72,0,1-.79,1-1.51v-.29L245.42,403c0-.65-.36-1-.36-1.73a4.55,4.55,0,0,1,4.54-4.46,3.75,3.75,0,0,1,3.82,2.74l9.79,23.4c.36.36.65.36,1.37.36s1.37-.36,1.37-1a1.26,1.26,0,0,0-.29-.72L255.5,396.82a15.57,15.57,0,0,1-.36-1.8,5.32,5.32,0,0,1,10.15-2.09l10.15,24.41c.29.36.65.79,1,.79a1.24,1.24,0,0,0,1.37-1.15c0-.29,0-.29-.29-.29l-7.42-18.86v-1.37a4.62,4.62,0,0,1,4.25-4.54,4.49,4.49,0,0,1,4.18,2.81l36.36,85.18a239.44,239.44,0,0,0-50.33,17.78Z" transform="translate(-197.9 -321.79)" fill="#fff" fill-rule="evenodd"/>
    <path d="M307.85,453.19c3.53-1,22.25-7,29.3-8.06-1.73-8.64-3.53-17.06-5-25.85-1.37-9.72-3.1-19.51-3.81-29.3-.65-8.71-.65-17.42-.65-26.5v-7.7a4.36,4.36,0,0,0-4.18-4.54,4.68,4.68,0,0,0-4.61,4.54V368a2.69,2.69,0,0,1-2.45,2.45A3.07,3.07,0,0,1,314,368l.36-20.3a4.61,4.61,0,0,0-4.54-4.54,4.43,4.43,0,0,0-4.54,4.54v21.67a2.45,2.45,0,0,1-4.9,0V351.24a4.24,4.24,0,0,0-4.18-4.25,4.08,4.08,0,0,0-4.25,4.25l-.29,26.57a2.43,2.43,0,0,1-2.45,2.45,2.38,2.38,0,0,1-2.45-2.45v-21a3.17,3.17,0,0,0-3.46-3.1c-1.73,0-3.53,1.37-3.53,3.1l-.29,33.77a7.47,7.47,0,0,0-4.61-2.09l.36-31.68a8.5,8.5,0,0,1,8.06-8.06,10.14,10.14,0,0,1,3.46.79,9.74,9.74,0,0,1,9.43-7.7,9,9,0,0,1,5.26,1.73,9,9,0,0,1,8.35-4.9,8.82,8.82,0,0,1,9.07,9.07,10.68,10.68,0,0,1,4.61-1,8.8,8.8,0,0,1,9,9.07v4.9c0,24.41.36,25.85.72,28.94,1,16.13,4.61,38.81,9.79,59.4-7.27,1.08-28.15,7-33.12,8.78l-2.09-4.61Z" transform="translate(-197.9 -321.79)" fill="#fff" fill-rule="evenodd"/>
    <path d="M300.36,437.79,296.69,429l3.6-18.94a6.54,6.54,0,0,0,.43-2.45c.07-5.54-4-8.78-7.13-8.78-1.8-.07-3.24.22-4.68,3.38l-1.22,4-2.38-6-.14-.14c2.16-4.54,5.33-6.19,8.78-6.12,5.62.07,11.45,5.4,11.3,13.75a13.31,13.31,0,0,1-.43,4.25l-4.46,25.85Z" transform="translate(-197.9 -321.79)" fill="#fff" fill-rule="evenodd"/>
  </g>
</svg>
