<svg id="Layer_1" data-name="Layer 1" xmlns="http://www.w3.org/2000/svg" width="70mm" height="70mm" viewBox="0 0 198.43 198.43">
  <title>m010</title>
  <g id="symbolgrp">
    <path d="M396.34,421a99.22,99.22,0,1,1-99.22-99.25A99.21,99.21,0,0,1,396.34,421Z" transform="translate(-197.9 -321.8)" fill="#056bb3" fill-rule="evenodd"/>
    <path d="M329,494.81,314.9,405a14.4,14.4,0,0,0,.07-1.8l1.58-34.92h.07l14.83,42.77L344,407.69h0c-.07-.22-.22-.43-.29-.65h.07l-17.64-51.34a11.16,11.16,0,0,0-11.16-8.5h-8a5.65,5.65,0,0,0-5.47-5.83h-2.59v64.44h-3.46V341.38H292.8a5.65,5.65,0,0,0-5.47,5.83h-8.06a11.16,11.16,0,0,0-11.09,8.42l-17.57,51.19a2.26,2.26,0,0,0-.36.72l12.6,3.38,14.54-42,2.74,35.28s-12.31,75.89-14.69,90.5l16.06,2.81,1.22.07,14.76-75,14.11,75.24,17.42-3Zm-25.34-130h9v3.89h-9v-3.89Z" transform="translate(-197.9 -321.8)" fill="#fff" fill-rule="evenodd"/>
  </g>
</svg>
