<svg id="Layer_1" data-name="Layer 1" xmlns="http://www.w3.org/2000/svg" width="70mm" height="70mm" viewBox="0 0 198.42 198.42">
  <title>m011</title>
  <g id="symbolgrp">
    <path d="M297.12,520.22A99.21,99.21,0,1,0,197.91,421a99.22,99.22,0,0,0,99.21,99.18Z" transform="translate(-197.91 -321.8)" fill="#056bb3" fill-rule="evenodd"/>
    <path d="M313.05,372.19l26,.56v-2.61h12.05v18.43H339.08V384.8l-21.21-.46h-.37l-.37.07-.36.12-.35.16-.31.2-.27.26-.26.27-.21.32-.16.33-.13.36-.07.37,0,.37v2.45H303.63V381.4l0-.7.09-.69.13-.69.19-.67.23-.66.29-.63.33-.62.37-.59.42-.56.46-.53.5-.49.53-.44.57-.4.59-.37L309,373l.63-.27.67-.21.67-.17.69-.11.69-.06Zm38.09-12H339.08v7.09h12.05v-7.09Z" transform="translate(-197.91 -321.8)" fill="#fff" fill-rule="evenodd"/>
    <path d="M323.64,441.37,356,424.27l.4-.19.42-.14.43-.09.43,0h.43l.45.06.42.1.42.14.39.19.37.23.35.27.3.32.29.34.23.36.19.4.16.4.1.43.06.43v.43l0,.44-.09.43-.13.4-.19.4-.22.37-.27.36-.3.32-.33.29-.36.24L328.42,450l-.16.12-.13.16-.1.19-.06.2v.21l0,.2.09.19.12.17.16.14.19.1.2.06h.2l.2,0,.2-.07,29.15-15.3.4-.19.4-.13.43-.09.43,0h.45l.43.06.43.1.4.14.4.19.36.24.34.26.3.32.29.34.23.36.19.4.16.4.1.43,0,.43,0,.43,0,.45-.09.43-.14.4-.17.4-.23.37-.26.36-.3.32-.33.27-.36.24-31.78,19-.17.13-.13.16-.1.19-.06.2v.2l0,.2.09.2.12.16.16.14.19.1.19.06h.21l.2,0,.2-.07L354,452.33l.42-.19.43-.13.45-.09.44,0h.46l.45.07.43.11.42.17.4.2.37.26.33.3.3.34.27.36.21.4.17.42.13.43.07.44v.44l0,.46-.07.45-.13.43-.19.42-.21.39-.27.36-.3.33-.34.3-.37.26-29.35,17.56-.87.56-.86.6-.82.65-1.44,1.16-1.48,1.1L321.5,482,320,483l-1.56,1-1.59.93-1.61.88-1.65.85-1.66.79-1.68.75-1.71.69-1.74.65-1.74.59-1.76.54-1.77.5-1.79.43-1.81.39-1.81.34-1.41.26-1.41.32-1.38.36-1.38.42-1.36.46-1.35.5-1.32.54-1.31.59-1.29.65-1.26.69-5.12,2.88-13.3-23.61-1.92-.34-1.91-.4-1.89-.46-1.88-.52-1.87-.57-1.84-.63-1.36-.46-1.38-.42-1.38-.36-1.41-.32-1.41-.27-1.42-.23-1.42-.17-1.44-.11-1.42-.07-1.43,0h-5.9V435.53h2.88l1,0,1.06-.09,1-.13,1-.19,1-.24,1-.29,1-.34,1-.39,1-.45.93-.49.92-.53.88-.59.86-.62.82-.67.77-.7.75-.75.72-.79.82-.92.86-.89.9-.86.93-.8,1-.77,1-.73,1-.7,1.06-.65,1.08-.6,24.24-12.92.39-.17.42-.13.42-.07h.44l.42.06.43.1.4.16.37.2.34.26.32.3.27.34.22.37.17.39.11.42.06.43v.43l-.06.43-.1.42-.34.95-.4.92-.44.89-.49.87-.55.83-.57.82-.63.77-.66.75-.7.72-.75.66-.77.63-.82.59-.83.53-.88.5-7.56,4-.24.16-.23.2-.19.23-.14.24-.11.29-.07.29v.3l0,.29.07.29.11.27.16.26.19.23.23.19.26.16.27.11.29.06.3,0h11.57l6.53-10.24.26-.34.3-.32.34-.27L293,419l.4-.17.42-.11.43-.07h.43l.43.06.42.11.4.16.37.21.34.26.3.32.26.34.22.37.16.4.11.42.16,1,.11,1,0,1v1l-.06,1-.13,1-.17,1-.23,1-.32,1,20.21.73L342.73,418l.4-.19.43-.13.44-.09.45,0h.45l.45.07.43.11.43.16.39.22.37.26.34.29.3.33.26.36.23.4.17.4.13.43.07.44,0,.44v.46l-.07.45-.13.43-.17.42-.21.39-.26.37-.3.33-.34.3-.36.26L322.7,439.74l-.16.13-.13.16-.1.19,0,.2v.2l0,.2.09.2.12.16.16.14.19.1.2.06h.2l.21,0,.19-.07ZM293,444.6l-.27.13-.27.07-.3,0h-.3l-.29-.06-.29-.1-.26-.14-.23-.17-.2-.21-.17-.24-.13-.27-.09-.29,0-.29v-.3l.06-.3.09-.27.14-.26,4.61-7.23.44-.73.42-.75H297l15.25.55L293,444.6ZM277,443.28l-.65,1.06-.6,1.08-.55,1.12-.52,1.12-.46,1.15-.42,1.18-.36,1.18-.32,1.21-.27,1.2-.23,1-.29,1-.33,1-.39,1-.43,1-.49.95-.53.9-.57.89-.62.86-.66.82-.7.79-.75.75-.77.72-.82.67-.85.63-.88.59-.9.53-2.51,1.42,2.28,4-1.74-.37-1.72-.43-1.71-.47-1.69-.53-1.68-.57-1.46-.49-1.46-.44-1.48-.39-1.49-.34-1.51-.29-1.52-.23-1.52-.19-1.52-.13-1.54-.09-1.52,0h-3.06V438.36h0l1.13,0,1.12-.07,1.13-.14,1.12-.19,1.11-.24,1.09-.29,1.08-.36,1.06-.39,1-.46,1-.49,1-.54,1-.6.93-.63.9-.69.87-.72.83-.76.8-.82.75-.83.85-.95.89-.89.93-.86,1-.8,1-.77,1-.72,1.06-.67,1.1-.62,24.23-12.92.13,0h.13l.11,0,.11.07.07.1.06.11v.11l0,.13-.32.86-.36.83-.42.8-.46.79-.5.76-.55.73-.59.7-.63.66-.67.62-.69.59-.73.53-.78.5-.79.44-7.56,4-.43.27-.39.3-.37.34-.33.37-.29.42-.23.45-.2.46-.14.49-.09.49,0,.5v.5l.07.5.11.49.17.47.23.44.26.43.32.4.36.36.39.32.42.27.44.23.47.19.47.13.5.09.5,0h9.76L277,443.28Z" transform="translate(-197.91 -321.8)" fill="#fff" fill-rule="evenodd"/>
    <polygon points="113.1 94.9 113.08 94.6 113 94.31 112.88 94.04 112.7 93.81 112.49 93.6 112.24 93.42 111.98 93.3 111.7 93.22 111.4 93.19 111.11 93.22 110.82 93.3 110.55 93.42 110.31 93.6 110.09 93.81 109.93 94.04 109.8 94.31 109.73 94.6 109.7 94.9 109.73 95.19 109.8 95.48 109.93 95.75 110.09 95.99 110.31 96.21 110.55 96.36 110.82 96.5 111.11 96.58 111.4 96.59 111.7 96.58 111.98 96.5 112.24 96.36 112.49 96.21 112.7 95.99 112.88 95.75 113 95.48 113.08 95.19 113.1 94.9 113.1 94.9" fill="#fff" fill-rule="evenodd"/>
    <polygon points="113.1 72.78 113.08 72.5 113 72.21 112.88 71.94 112.7 71.69 112.49 71.48 112.24 71.32 111.98 71.19 111.7 71.12 111.4 71.09 111.11 71.12 110.82 71.19 110.55 71.32 110.31 71.48 110.09 71.69 109.93 71.94 109.8 72.21 109.73 72.5 109.7 72.78 109.73 73.08 109.8 73.37 109.93 73.64 110.09 73.89 110.31 74.09 110.55 74.26 110.82 74.39 111.11 74.46 111.4 74.49 111.7 74.46 111.98 74.39 112.24 74.26 112.49 74.09 112.7 73.89 112.88 73.64 113 73.37 113.08 73.08 113.1 72.78 113.1 72.78" fill="#fff" fill-rule="evenodd"/>
    <polygon points="113.1 80.16 113.08 79.87 113 79.58 112.88 79.31 112.7 79.07 112.49 78.85 112.24 78.68 111.98 78.56 111.7 78.48 111.4 78.46 111.11 78.48 110.82 78.56 110.55 78.68 110.31 78.85 110.09 79.07 109.93 79.31 109.8 79.58 109.73 79.87 109.7 80.16 109.73 80.46 109.8 80.74 109.93 81 110.09 81.25 110.31 81.46 110.55 81.63 110.82 81.76 111.11 81.83 111.4 81.86 111.7 81.83 111.98 81.76 112.24 81.63 112.49 81.46 112.7 81.25 112.88 81 113 80.74 113.08 80.46 113.1 80.16 113.1 80.16" fill="#fff" fill-rule="evenodd"/>
    <polygon points="113.1 87.53 113.08 87.23 113 86.94 112.88 86.68 112.7 86.44 112.49 86.22 112.24 86.05 111.98 85.94 111.7 85.85 111.4 85.82 111.11 85.85 110.82 85.94 110.55 86.05 110.31 86.22 110.09 86.44 109.93 86.68 109.8 86.94 109.73 87.23 109.7 87.53 109.73 87.83 109.8 88.1 109.93 88.38 110.09 88.62 110.31 88.83 110.55 89.01 110.82 89.12 111.11 89.21 111.4 89.24 111.7 89.21 111.98 89.12 112.24 89.01 112.49 88.83 112.7 88.62 112.88 88.38 113 88.1 113.08 87.83 113.1 87.53 113.1 87.53" fill="#fff" fill-rule="evenodd"/>
    <polygon points="106.13 71.38 106.12 71.08 106.03 70.79 105.9 70.52 105.74 70.27 105.53 70.07 105.28 69.9 105.01 69.77 104.72 69.7 104.44 69.67 104.14 69.7 103.85 69.77 103.59 69.9 103.35 70.07 103.13 70.27 102.96 70.52 102.83 70.79 102.76 71.08 102.73 71.38 102.76 71.67 102.83 71.95 102.96 72.22 103.13 72.47 103.35 72.67 103.59 72.84 103.85 72.97 104.14 73.04 104.44 73.07 104.72 73.04 105.01 72.97 105.28 72.84 105.53 72.67 105.74 72.47 105.9 72.22 106.03 71.95 106.12 71.67 106.13 71.38 106.13 71.38" fill="#fff" fill-rule="evenodd"/>
    <polygon points="103.26 78.16 103.23 77.86 103.16 77.57 103.03 77.3 102.86 77.06 102.64 76.86 102.41 76.69 102.14 76.56 101.85 76.48 101.55 76.45 101.26 76.48 100.98 76.56 100.71 76.69 100.46 76.86 100.26 77.06 100.09 77.3 99.96 77.57 99.89 77.86 99.86 78.16 99.89 78.45 99.96 78.74 100.09 79.01 100.26 79.25 100.46 79.45 100.71 79.63 100.98 79.75 101.26 79.83 101.55 79.86 101.85 79.83 102.14 79.75 102.41 79.63 102.64 79.45 102.86 79.25 103.03 79.01 103.16 78.74 103.23 78.45 103.26 78.16 103.26 78.16" fill="#fff" fill-rule="evenodd"/>
    <polygon points="100.38 84.95 100.35 84.65 100.27 84.36 100.14 84.09 99.99 83.84 99.77 83.64 99.53 83.47 99.25 83.34 98.97 83.27 98.68 83.24 98.38 83.27 98.09 83.34 97.83 83.47 97.59 83.64 97.38 83.84 97.2 84.09 97.07 84.36 97 84.65 96.97 84.95 97 85.23 97.07 85.52 97.2 85.79 97.38 86.04 97.59 86.24 97.83 86.41 98.09 86.54 98.38 86.61 98.68 86.64 98.97 86.61 99.25 86.54 99.53 86.41 99.77 86.24 99.99 86.04 100.14 85.79 100.27 85.52 100.35 85.23 100.38 84.95 100.38 84.95" fill="#fff" fill-rule="evenodd"/>
    <polygon points="97.5 91.73 97.48 91.43 97.4 91.14 97.28 90.87 97.1 90.63 96.89 90.43 96.64 90.25 96.39 90.13 96.1 90.05 95.8 90.03 95.51 90.05 95.22 90.13 94.95 90.25 94.71 90.43 94.49 90.63 94.33 90.87 94.2 91.14 94.13 91.43 94.1 91.73 94.13 92.02 94.2 92.31 94.33 92.58 94.49 92.82 94.71 93.02 94.95 93.19 95.22 93.32 95.51 93.4 95.8 93.42 96.1 93.4 96.39 93.32 96.64 93.19 96.89 93.02 97.1 92.82 97.28 92.58 97.4 92.31 97.48 92.02 97.5 91.73 97.5 91.73" fill="#fff" fill-rule="evenodd"/>
    <polygon points="128.71 91.73 128.68 91.43 128.6 91.14 128.47 90.87 128.3 90.63 128.09 90.43 127.84 90.25 127.58 90.13 127.3 90.05 127 90.03 126.71 90.05 126.42 90.13 126.15 90.25 125.91 90.43 125.69 90.63 125.53 90.87 125.41 91.14 125.33 91.43 125.3 91.73 125.33 92.02 125.41 92.31 125.53 92.58 125.69 92.82 125.91 93.02 126.15 93.19 126.42 93.32 126.71 93.4 127 93.42 127.3 93.4 127.58 93.32 127.84 93.19 128.09 93.02 128.3 92.82 128.47 92.58 128.6 92.31 128.68 92.02 128.71 91.73 128.71 91.73" fill="#fff" fill-rule="evenodd"/>
    <polygon points="125.82 84.95 125.79 84.65 125.72 84.36 125.59 84.09 125.42 83.84 125.22 83.64 124.97 83.47 124.7 83.34 124.42 83.27 124.13 83.24 123.83 83.27 123.54 83.34 123.27 83.47 123.04 83.64 122.82 83.84 122.65 84.09 122.52 84.36 122.45 84.65 122.42 84.95 122.45 85.23 122.52 85.52 122.65 85.79 122.82 86.04 123.04 86.24 123.27 86.41 123.54 86.54 123.83 86.61 124.13 86.64 124.42 86.61 124.7 86.54 124.97 86.41 125.22 86.24 125.42 86.04 125.59 85.79 125.72 85.52 125.79 85.23 125.82 84.95 125.82 84.95" fill="#fff" fill-rule="evenodd"/>
    <polygon points="122.95 78.16 122.92 77.86 122.85 77.57 122.72 77.3 122.55 77.06 122.33 76.86 122.09 76.69 121.83 76.56 121.54 76.48 121.24 76.45 120.96 76.48 120.67 76.56 120.39 76.69 120.15 76.86 119.94 77.06 119.78 77.3 119.65 77.57 119.56 77.86 119.55 78.16 119.56 78.45 119.65 78.74 119.78 79.01 119.94 79.25 120.15 79.45 120.39 79.63 120.67 79.75 120.96 79.83 121.24 79.86 121.54 79.83 121.83 79.75 122.09 79.63 122.33 79.45 122.55 79.25 122.72 79.01 122.85 78.74 122.92 78.45 122.95 78.16 122.95 78.16" fill="#fff" fill-rule="evenodd"/>
    <polygon points="120.06 71.38 120.04 71.08 119.97 70.79 119.83 70.52 119.66 70.27 119.46 70.07 119.22 69.9 118.95 69.77 118.66 69.7 118.37 69.67 118.07 69.7 117.78 69.77 117.51 69.9 117.27 70.07 117.06 70.27 116.89 70.52 116.76 70.79 116.69 71.08 116.67 71.38 116.69 71.67 116.76 71.95 116.89 72.22 117.06 72.47 117.27 72.67 117.51 72.84 117.78 72.97 118.07 73.04 118.37 73.07 118.66 73.04 118.95 72.97 119.22 72.84 119.46 72.67 119.66 72.47 119.83 72.22 119.97 71.95 120.04 71.67 120.06 71.38 120.06 71.38" fill="#fff" fill-rule="evenodd"/>
  </g>
</svg>
