<svg id="Layer_1" data-name="Layer 1" xmlns="http://www.w3.org/2000/svg" width="70mm" height="70mm" viewBox="0 0 198.43 198.43">
  <title>m012</title>
  <g id="symbolgrp">
    <polygon points="198.43 99.22 198.29 94.75 198 90.36 197.5 85.9 196.85 81.5 195.91 77.11 194.83 72.79 193.53 68.54 192.1 64.37 190.44 60.26 188.57 56.16 186.55 52.2 184.39 48.31 182.02 44.57 179.42 40.9 176.76 37.37 173.88 33.91 170.93 30.67 167.76 27.5 164.45 24.48 161.06 21.67 157.53 18.94 153.86 16.42 150.12 14.04 146.23 11.88 142.2 9.79 138.17 7.99 134.06 6.34 129.89 4.9 125.57 3.6 121.25 2.52 116.93 1.58 112.53 0.94 108.07 0.43 103.68 0.07 99.22 0 94.75 0.07 90.29 0.43 85.9 0.94 81.5 1.58 77.11 2.52 72.79 3.6 68.54 4.9 64.37 6.34 60.19 7.99 56.16 9.79 52.2 11.88 48.31 14.04 44.57 16.42 40.9 18.94 37.37 21.67 33.91 24.48 30.6 27.5 27.5 30.67 24.48 33.91 21.6 37.37 18.94 40.9 16.42 44.57 14.04 48.31 11.81 52.2 9.79 56.16 7.99 60.26 6.34 64.37 4.82 68.54 3.53 72.79 2.45 77.11 1.58 81.5 0.86 85.9 0.36 90.36 0.07 94.75 0 99.22 0.07 103.68 0.36 108.07 0.86 112.54 1.58 116.93 2.45 121.32 3.53 125.64 4.82 129.89 6.34 134.06 7.99 138.17 9.79 142.27 11.81 146.23 14.04 150.12 16.42 153.86 18.94 157.54 21.6 161.06 24.48 164.52 27.5 167.76 30.6 170.93 33.91 173.95 37.37 176.76 40.9 179.5 44.57 182.02 48.31 184.39 52.2 186.55 56.16 188.64 60.19 190.44 64.37 192.1 68.54 193.54 72.79 194.83 77.11 195.91 81.5 196.85 85.9 197.5 90.29 198 94.75 198.36 99.22 198.43 103.68 198.36 108.07 198 112.53 197.5 116.93 196.85 121.25 195.91 125.57 194.83 129.89 193.54 134.06 192.1 138.17 190.44 142.2 188.64 146.23 186.55 150.12 184.39 153.86 182.02 157.53 179.5 161.06 176.76 164.45 173.95 167.76 170.93 170.93 167.76 173.88 164.52 176.76 161.06 179.42 157.54 182.02 153.86 184.39 150.12 186.55 146.23 188.57 142.27 190.44 138.17 192.1 134.06 193.53 129.89 194.83 125.64 195.91 121.32 196.85 116.93 197.5 112.54 198 108.07 198.29 103.68 198.43 99.22 198.43 99.22" fill="#056bb3" fill-rule="evenodd"/>
    <path d="M313.38,380.42l-.29-1.17-.48-1.06-.7-1-.84-.84-1-.7-1.1-.51-1.14-.29-1.18-.11H292.2l-1.21.11-1.17.33-1.1.55-1,.73-.84.88-.66,1-15,28.47L241,417.8l-1.06.48-1,.7-.84.81-.66,1-.51,1.06-.29,1.14-.11,1.17.11,1.21.29,1.14.51,1.06.66,1,.84.81,1,.7,1.1.51,1.14.29,1.17.11,1.17-.11,1.14-.29,32.7-11.85,1.14-.55,1-.73.84-.92.7-1,1.39-2.68V436.4l-3.41,5.5,13.25-7.3,9.18-20.1-2.31-13.83v-.55l.22-.48.4-.4.51-.18h.55l.51.22.4.4.18.51,2.46,14.71-13.58,29.71-.4,1.1-.18,1.17v1.21l.22,1.14.4,1.14.59,1,.77.92.92.77,1,.59,1.14.37,1.14.22h1.21l1.14-.22,1.14-.44,1-.59.88-.77.77-.92.59-1,14.46-31.62.44-1.28.18-1.32-.11-1.36-5.8-34.26Zm0,0h0Z" transform="translate(-197.9 -321.79)" fill="#fff" fill-rule="evenodd"/>
    <path d="M313.38,380.42l-.29-1.17-.48-1.06-.7-1-.84-.84-1-.7-1.1-.51-1.14-.29-1.18-.11H292.2l-1.21.11-1.17.33-1.1.55-1,.73-.84.88-.66,1-15,28.47L241,417.8l-1.06.48-1,.7-.84.81-.66,1-.51,1.06-.29,1.14-.11,1.17.11,1.21.29,1.14.51,1.06.66,1,.84.81,1,.7,1.1.51,1.14.29,1.17.11,1.17-.11,1.14-.29,32.7-11.85,1.14-.55,1-.73.84-.92.7-1,1.39-2.68V436.4l-3.41,5.5,13.25-7.3,9.18-20.1-2.31-13.83v-.55l.22-.48.4-.4.51-.18h.55l.51.22.4.4.18.51,2.46,14.71-13.58,29.71-.4,1.1-.18,1.17v1.21l.22,1.14.4,1.14.59,1,.77.92.92.77,1,.59,1.14.37,1.14.22h1.21l1.14-.22,1.14-.44,1-.59.88-.77.77-.92.59-1,14.46-31.62.44-1.28.18-1.32-.11-1.36-5.8-34.26Zm0,0h0" transform="translate(-197.9 -321.79)" fill="none" stroke="#056bb3" stroke-miterlimit="2.61" stroke-width="0.01"/>
    <polygon points="177.58 70.8 178.79 74.47 179.86 78.21 180.78 81.99 113.82 118.83 121.75 101.55 177.58 70.8 177.58 70.8" fill="#fff" stroke="#056bb3" stroke-miterlimit="2.61" stroke-width="0.01" fill-rule="evenodd"/>
    <polygon points="93.42 117.14 33.29 150.23 35.75 153.24 38.32 156.13 41.04 158.88 91.98 130.86 91.32 129.65 90.85 128.36 90.55 127 90.48 125.65 90.59 124.29 90.88 122.93 91.36 121.65 93.42 117.14 93.42 117.14" fill="#fff" stroke="#056bb3" stroke-miterlimit="2.61" stroke-width="0.01" fill-rule="evenodd"/>
    <polygon points="114.74 34.16 114.63 32.58 114.38 31 113.9 29.46 113.24 28.03 112.39 26.67 111.44 25.42 110.3 24.29 109.05 23.3 107.69 22.49 106.23 21.83 104.72 21.35 103.14 21.06 101.56 20.95 99.95 21.06 98.41 21.35 96.87 21.83 95.44 22.49 94.04 23.3 92.79 24.29 91.69 25.42 90.7 26.67 89.86 28.03 89.23 29.46 88.75 31 88.46 32.58 88.35 34.16 88.46 35.73 88.75 37.31 89.23 38.81 89.86 40.28 90.7 41.64 91.69 42.89 92.79 44.02 94.04 45.01 95.44 45.82 96.87 46.48 98.41 46.96 99.95 47.25 101.56 47.36 103.14 47.25 104.72 46.96 106.23 46.48 107.69 45.82 109.05 45.01 110.3 44.02 111.44 42.89 112.39 41.64 113.24 40.28 113.9 38.81 114.38 37.31 114.63 35.73 114.74 34.16 114.74 34.16" fill="#fff" stroke="#056bb3" stroke-miterlimit="2.61" stroke-width="0.01" fill-rule="evenodd"/>
  </g>
</svg>
