<svg id="Layer_1" data-name="Layer 1" xmlns="http://www.w3.org/2000/svg" width="70mm" height="70mm" viewBox="0 0 198.43 198.43">
  <title>m013</title>
  <g id="symbolgrp">
    <path d="M396.34,421a99.22,99.22,0,1,1-99.22-99.22A99.22,99.22,0,0,1,396.34,421Z" transform="translate(-197.9 -321.79)" fill="#056bb3" fill-rule="evenodd"/>
    <path d="M280.09,465.2l8.25-.76.91-.18.87-.4.76-.54.62-.73.44-.8.29-.91,14-76,0-.73-.15-.73-.29-.65-.47-.58-.62-.44-.65-.25-.73-.11H258l-1.27,3.6-1.05,3.67-9.16,38-.15.91.07.91.22.87.4.8.58.69.69.58.76.44.87.29.91.07h8.69v15.15l.11,1.82.33,1.78.55,1.71.73,1.67.95,1.53,1.09,1.42,1.27,1.31,1.42,1.09,1.56.94,1.64.73,1.74.54,1.78.33,1.78.11h5.56v2.91Zm58.49,13.37V468.14l.11-4,.29-4,.47-4,.69-3.92.87-3.89,1.05-3.85,1.23-3.78,1.46-3.74,1.6-3.63,1.78-3.56,2-3.49,1.56-2.87,1.42-2.94,1.16-3.05,1-3.09.76-3.2.58-3.2.36-3.23H308.26l-10.58,57.14-.36,1.38-.54,1.31-.73,1.24-.91,1.09-1.05.94-1.16.8-1.27.65-1.38.44-1.38.22-8.8.83v7.85l.11,1.12.33,1.09.55,1,.73.87.87.73,1,.55,1.09.33,1.13.11h46.85l1-.11,1-.25.95-.44.84-.58.69-.73.62-.84.4-.91.29-1,.07-1Zm5.56,0V468.14l.11-4.1.33-4.07.54-4.07.76-4,1-4,1.2-3.92,1.42-3.85,1.6-3.78,1.78-3.67,2-3.56,1.63-2.91,1.42-3,1.27-3.05,1.05-3.16.87-3.2.69-3.23.51-3.27.29-3.31.11-3.34-.11-3.38-.29-3.41-.51-3.34-.73-3.34-.91-3.31-1.09-3.2-1.27-3.16-1.49-3.09-1.67-3-1.82-2.87-2-2.72-2.14-2.65-2.33-2.51-2.47-2.36-2.58-2.18-2.73-2.07-2.84-1.85-2.94-1.71-3.05-1.53-3.13-1.34-3.2-1.16-3.27-1-3.34-.76-3.34-.54-3.38-.36-3.42-.15-3.42,0-3.38.25-3.38.44-3.34.65-3.31.83L286.6,347l-3.16,1.23-3.09,1.42-3,1.63-2.91,1.78-2.8,2L269,357.17l-2.54,2.25-2.4,2.43-2.25,2.54-2.07,2.69-1.93,2.83L256,372.83l-1.6,3H243.49l-1.42.11-1.38.29-1.35.51-1.24.69-1.13.84-1,1-.87,1.16-.65,1.23L234,383l-.29,1.38-.11,1.42v78.57l.07,1.38.29,1.34.47,1.31.65,1.2.8,1.13.94,1,1.09.87,1.2.69,1.27.54,1.31.33,1.38.14,1.38,0,30.1-2.87v7.3l.11,1.49.29,1.45.47,1.38.65,1.34.84,1.24.94,1.09,1.13,1,1.24.84,1.35.65,1.38.47,1.45.29,1.49.11h46.85l1.49-.11,1.49-.29,1.38-.47,1.35-.65,1.24-.84,1.13-1,1-1.13.84-1.23.65-1.34.47-1.42.29-1.45.11-1.49Zm-66-74.06-.11-1.09-.29-1.09-.47-1-.62-.91-.8-.8-.91-.62-1-.47-1.09-.29-1.09-.11-1.13.11-1.05.29-1,.47-.91.62-.8.8-.65.91-.47,1-.29,1.09-.07,1.09.07,1.13.29,1.09.47,1,.65.94.8.76.91.65,1,.47,1.05.29,1.13.07,1.09-.07,1.09-.29,1-.47.91-.65.8-.76.62-.94.47-1,.29-1.09.11-1.13ZM356.39,392H310.62l1.13-6.07.11-1.38-.07-1.42-.33-1.34-.51-1.31-.76-1.16-.91-1.05-1.09-.91-1.2-.69-1.31-.47V349.29l3.27.11,3.24.33,3.23.51,3.2.73,3.16.91,3.05,1.13,3,1.31,2.91,1.53,2.8,1.67,2.69,1.85,2.58,2,2.44,2.18,2.29,2.36,2.14,2.47,2,2.62,1.82,2.72,1.64,2.83,1.45,2.94,1.24,3,1.05,3.09.87,3.16.65,3.2Zm-95.71-16.13,1.71-2.87,1.89-2.72,2.07-2.62,2.22-2.51,2.4-2.32,2.54-2.18,2.65-2,2.8-1.82,2.91-1.63,3-1.45,3.09-1.27v23.39Z" transform="translate(-197.9 -321.79)" fill="#fff" fill-rule="evenodd"/>
  </g>
</svg>
