<svg id="Layer_1" data-name="Layer 1" xmlns="http://www.w3.org/2000/svg" width="70mm" height="70mm" viewBox="0 0 198.43 198.43">
  <title>m014</title>
  <g id="symbolgrp">
    <path d="M197.9,421a99.22,99.22,0,1,1,99.22,99.22A99.22,99.22,0,0,1,197.9,421Z" transform="translate(-197.9 -321.79)" fill="#056bb3" fill-rule="evenodd"/>
    <path d="M355.82,405.42l.15,4-.11,3.23-.29,3.23-.47,3.23-.69,3.2-.87,3.12-1.05,3.09-1.2,3-1.42,2.94-1.6,2.87-2,3.49-1.78,3.59-1.56,3.7-1.38,3.78-1.16,3.85-1,3.89-.73,4-.55,4-.33,4-.11,4v10.24l-.11,1.45-.26,1.45-.47,1.38-.65,1.31-.84,1.23-.95,1.09-1.09,1-1.24.8-1.31.65-1.38.47-1.46.29-1.45.11h-46l-1.45-.11-1.42-.29-1.38-.47-1.31-.65-1.2-.8-1.09-.94-1-1.09-.8-1.23-.65-1.31-.47-1.38-.25-1.42-.11-1.45V475.28l-2-.11-2-.29-1.93-.47-1.85-.69-1.78-.83-1.71-1-1.6-1.16-1.45-1.34-1.34-1.45-1.16-1.6-1-1.71-.84-1.78-.65-1.85-.51-1.92-.29-2-.07-2v-9.44h-3.09l-1.38-.07-1.34-.29-1.27-.47-1.2-.65-1.13-.8-1-.94-.87-1.09-.69-1.16-.51-1.27-.33-1.34-.15-1.34,0-1.38.22-1.34,6.79-28.1H249l-7.09,29.37-.11,1,.07,1,.33.94.54.87.69.69.84.54.94.33,1,.11h8.54v14.89l.11,1.78.33,1.74.51,1.67.73,1.63.91,1.53,1.13,1.38,1.24,1.27,1.38,1.09,1.53.91,1.63.73,1.67.51,1.74.33,1.78.11h5.45v16l.11,1.09.33,1.09.55,1,.69.83.87.73,1,.51,1.05.33,1.09.11h46l1.13-.11,1.05-.33,1-.51.87-.73.69-.87.54-1,.33-1.09.11-1.12V475.53l.07-3.92.29-3.88.47-3.89.69-3.88.84-3.81,1.05-3.78,1.24-3.74,1.38-3.63,1.6-3.59,1.74-3.49,1.93-3.41,1.6-2.9,1.38-3,1.2-3.09,1-3.16.76-3.2.55-3.23.36-3.3.11-3.27-.18-4Zm-83,7.66-.11-1.09-.29-1.09-.44-1-.65-.91-.76-.76-.91-.62-1-.47-1.05-.29-1.09-.07-1.09.07-1.05.29-1,.47-.91.62-.76.76-.65.91-.47,1L260.4,412l-.11,1.09.11,1.09.25,1.05.47,1,.65.91.76.76.91.62,1,.47,1.05.29,1.09.11,1.09-.11,1.05-.29,1-.47.91-.62.76-.76.65-.91.44-1,.29-1.05.11-1.09ZM360.11,400l-.11-3.49-.33-3.45-.54-3.41-.73-3.41-.95-3.34-1.09-3.27-1.31-3.23-1.49-3.12-1.67-3.05L350,367.25l-2-2.83-2.18-2.69-2.33-2.58L341,356.72l-2.62-2.29-2.73-2.14-2.87-2-2.94-1.82-3.09-1.6-3.16-1.45-3.23-1.23-3.31-1.09-3.34-.87-3.42-.65-3.45-.47-3.45-.29-3.49-.07-3.45.15-3.45.33-3.45.54-3.38.73-3.34.91-3.27,1.13-3.23,1.31-3.12,1.49L270.18,349l-2.94,1.85-2.8,2-2.73,2.18-2.58,2.32-2.43,2.47-2.29,2.61-2.11,2.76-2,2.83-1.82,3-1.6,3.09-1.45,3.16-1.24,3.23-1.09,3.3-.84,3.38-.33.91-.54.84-.69.73-.84.51-2.33,1-2.36.8-2.43.58-2.47.4-1,.18-.91.4-.84.54-.73.69-.54.83-.4.87-.25,1,0,1,.15,1,.15.29.22.18.29.07Z" transform="translate(-197.9 -321.79)" fill="#fff" fill-rule="evenodd"/>
  </g>
</svg>
