<svg id="Layer_1" data-name="Layer 1" xmlns="http://www.w3.org/2000/svg" width="70mm" height="70mm" viewBox="0 0 198.43 198.43">
  <title>m015</title>
  <g id="symbolgrp">
    <path d="M396.34,421.07a99.22,99.22,0,1,1-99.27-99.27,99.27,99.27,0,0,1,99.27,99.27Z" transform="translate(-197.9 -321.79)" fill="#056bb3" fill-rule="evenodd"/>
    <path d="M257.32,358.48c0,37-11.56,46.58-11.56,46.58v76.27l49.47.11h.22l-.22-80.38-20.79-46.92-17.12,4.34Z" transform="translate(-197.9 -321.79)" fill="#fff" fill-rule="evenodd"/>
    <path d="M319.69,354l-21,47v80.38h.11l49.47-.11V405.06h0c-.22-.22-11.56-9.89-11.56-46.58l-17-4.45Z" transform="translate(-197.9 -321.79)" fill="#fff" fill-rule="evenodd"/>
    <polygon points="134.35 124.06 134.35 31.01 124.01 31.01 124.01 124.06 73.87 124.06 73.87 31.01 63.53 31.01 63.53 124.06 46.85 124.06 46.85 134.74 155.36 134.74 155.36 124.06 134.35 124.06 134.35 124.06" fill="#056bb3" fill-rule="evenodd"/>
    <path d="M314,359.92l-16.9,36-16.9-36a25.54,25.54,0,0,0,8.56,2.89,48.31,48.31,0,0,0,8.34.78,47.26,47.26,0,0,0,8.34-.78,24.67,24.67,0,0,0,8.56-2.89Z" transform="translate(-197.9 -321.79)" fill="#fff" fill-rule="evenodd"/>
    <line x1="48.52" y1="122.4" x2="48.52" y2="136.4" fill="none" stroke="#fff" stroke-miterlimit="2.61" stroke-width="1.54"/>
    <polygon points="153.69 134.85 45.41 134.85 45.41 124.17 153.69 124.17 153.69 134.85 153.69 134.85" fill="#056bb3" fill-rule="evenodd"/>
    <polygon points="153.58 153.19 48.19 153.19 48.19 142.85 153.58 142.85 153.58 153.19 153.58 153.19" fill="#056bb3" fill-rule="evenodd"/>
    <path d="M246.2,444.19v36.13m15-122.29,11.56-2.89m60.48,3-11.56-2.89m26.13,89.16v36.13" transform="translate(-197.9 -321.79)" fill="none" stroke="#fff" stroke-miterlimit="2.61" stroke-width="1.16"/>
  </g>
</svg>
