<svg id="Layer_1" data-name="Layer 1" xmlns="http://www.w3.org/2000/svg" width="70mm" height="70mm" viewBox="0 0 198.43 198.43">
  <title>m016</title>
  <g id="symbolgrp">
    <path d="M396.34,421a99.22,99.22,0,1,1-99.22-99.22A99.22,99.22,0,0,1,396.34,421Z" transform="translate(-197.9 -321.79)" fill="#056bb3" fill-rule="evenodd"/>
    <path d="M285.24,456.94l.15,1.45-.07,1.49-.22,1.45-.44,1.38-.58,1.34-.8,1.27-.91,1.13-1.05,1-1.2.87-1.31.69-1.34.54-1.45.36v11.55l.11,1.13.36,1.09.51,1,.73.87.87.73,1,.54,1.09.33,1.13.11h47l1-.11,1-.25.91-.44.84-.58.73-.73.58-.83.44-.91.29-1,.07-1V471l.07-3.67.25-3.67.4-3.67.58-3.63-50.72.69v-.07Zm73.6-53.56-.11-3.45-.33-3.45-.51-3.41-.73-3.38-.95-3.34-1.12-3.27-1.31-3.2-1.53-3.09-1.71-3-1.89-2.9-2-2.8-2.22-2.65-2.36-2.51-2.54-2.36-2.65-2.21-2.8-2-2.87-1.89-3-1.71-3.12-1.49-3.2-1.31-3.27-1.12-3.34-.94-3.38-.69-3.42-.55-3.45-.29-3.45-.11-3.45.15-3.45.29-3.42.54-3.38.73-3.31.94L281.28,350l-3.2,1.34L275,352.88l-3,1.71-2.91,1.89-2.76,2.07-2.65,2.21-2.51,2.36-2.36,2.54-2.22,2.65-2,2.8-1.85,2.9L251,377l-1.53,3.12-1.31,3.2-1.09,3.27-.94,3.34-5.6,23.27h-2.32l-.76.07-.69.33-.58.47-.47.62-.25.69-.8,3.89-.58,3.92-.36,4-.18,4,0,4,.25,4,.44,4,.65,3.88.87,3.88,1.05,3.81,1.27,3.78,1.45,3.7,1.63,3.59,1.82,3.52,2,3.45.51.62.69.44.76.25h.84l22.6-3.23v10.75l.11,1.45.29,1.49.47,1.38.65,1.34.84,1.23,1,1.13,1.09,1,1.23.83,1.34.65,1.42.47,1.45.29,1.49.07h47l1.49-.07,1.45-.29,1.42-.51,1.34-.65,1.24-.83,1.13-1,1-1.13.84-1.23.65-1.34.51-1.42.29-1.45.07-1.49V471l.11-4.1.36-4.1.54-4.07.76-4,1-4,1.2-3.92,1.38-3.85,1.63-3.78,1.78-3.67,2-3.59,1.6-2.9,1.45-3,1.24-3,1.09-3.16.87-3.2.69-3.27.51-3.27.29-3.34.11-3.3ZM274,400.66l-.11-1.09-.29-1.09-.47-1-.62-.91-.8-.8-.91-.65-1-.47-1.09-.29-1.13-.07-1.09.07-1.09.29-1,.47-.91.65-.8.8-.65.91-.47,1-.29,1.09-.07,1.09.07,1.13.29,1.09.47,1,.65.91.8.8.91.62,1,.47,1.09.29,1.09.11,1.13-.11,1.09-.29,1-.47.91-.62.8-.8.62-.91.47-1,.29-1.09.11-1.13Zm79.16-.22-.29-3.23-.51-3.23-.69-3.2-.87-3.12-1.09-3.09-1.31-3L347,378.66l-1.67-2.8-1.82-2.69-2-2.61-2.14-2.43L337,365.8l-2.43-2.14-2.58-2-2.69-1.85-2.83-1.63-2.91-1.49-3-1.27-3.09-1.13-3.12-.87-3.2-.73-3.23-.51-3.23-.29-3.27-.07-3.23.11-3.27.33-3.2.54-3.2.73-3.12.94-3.05,1.13-3,1.31-2.91,1.49-2.8,1.71L271,362l-2.54,2L266,366.17l-2.29,2.32L261.63,371l-2,2.58-1.78,2.72-1.63,2.83L254.76,382l-1.23,3-1.09,3.09-.84,3.12-5.38,22.18,20.64.83,1.71.18,1.67.4,1.6.54,1.53.8,1.42.94,1.31,1.09,1.16,1.27,1,1.38.8,1.52,74.11-22Zm-.11,7.44-72.3,21.39,3.45,21.35,53.19-.69,1.27-4.36,1.53-4.29,1.78-4.21,2-4.07,2.22-4,1.53-2.8,1.38-2.9,1.2-3,1-3,.8-3.12.58-3.16.4-3.16Z" transform="translate(-197.9 -321.79)" fill="#fff" fill-rule="evenodd"/>
  </g>
</svg>
