<svg id="Layer_1" data-name="Layer 1" xmlns="http://www.w3.org/2000/svg" width="70mm" height="70mm" viewBox="0 0 198.43 198.43">
  <title>m017</title>
  <g id="symbolgrp">
    <path d="M394.32,421a99.22,99.22,0,1,1-99.22-99.22A99.22,99.22,0,0,1,394.32,421Z" transform="translate(-195.89 -321.79)" fill="#056bb3" fill-rule="evenodd"/>
    <path d="M349,434.7l-.94,1.23-1.09,1.13-1.2,1-.58.29-.62.18-.62,0-.65-.14-.58-.25-.47-.4-.51-.4-.62-.22-.69-7.84-.4-7.88-.14-7.88V385.28l-.15-.62-.36-.51-.58-.25-5.85-1.34L327,381.39l-5.92-.94-6-.73-6-.51-6-.33-6-.11-6,.11-6,.33-6,.51-6,.73-5.92.94-5.92,1.16-5.85,1.34-.55.25-.4.51-.11.62v28.29l-.15,7.88-.44,7.88-.65,7.84-.62.22-.51.4-.51.4-.58.25-.62.14-.65,0-.62-.18-.54-.29-1.2-1-1.09-1.13-1-1.23L243.51,432,242,429.15l-1.31-2.94-1.09-3-.91-3.09-.65-3.16-.4-3.2,0-1.45.15-1.42.33-1.42.51-1.34.36-.54.47-.44.58-.25.65-.15.62.07.62.22.51.4.4.51.47.54.54.44.69.29.69.11.73-.07.65-.29.58-.44.47-.54.29-.65.11-.73-.07-.69-.58-3.12-.44-3.16-.18-3.16,0-3.16.22-3.2.36-3.12.62-3.12.76-3.09,1-3,1.16-2.94,1.34-2.87,1.53-2.8,1.67-2.69,1.89-2.58,2-2.43,2.18-2.32,2.29-2.18,2.47-2,2.54-1.89,2.69-1.71,2.76-1.53,2.87-1.34,2.94-1.16,3.05-1,3.05-.8,3.12-.62,3.12-.4,3.2-.18h3.16l3.16.18,3.16.4,3.09.62,3.09.8,3,1,2.94,1.16,2.87,1.34,2.8,1.53,2.65,1.71,2.58,1.89,2.43,2,2.33,2.18,2.14,2.32,2,2.43,1.85,2.58,1.71,2.69,1.53,2.8,1.34,2.87,1.16,2.94.94,3,.8,3.09.58,3.12.4,3.12.18,3.2v3.16l-.22,3.16-.4,3.16-.62,3.12-.07.69.15.73.29.65.44.54.58.44.69.29.69.07.73-.11.65-.29.58-.44.44-.54.4-.51.51-.4.62-.22.65-.07.62.15.58.25.51.44.33.54.51,1.34.36,1.42.14,1.42,0,1.45-.44,3.2-.65,3.16-.87,3.09-1.09,3-1.34,2.94L350.7,432,349,434.7Zm9-31.6.87.58.8.69.69.8.54.91.44,1,.54,1.74.33,1.82.15,1.82-.07,1.85-.4,3.16-.62,3.09-.8,3.09-1,3-1.2,2.94-1.35,2.87-1.56,2.8-1.71,2.65-1.09,1.42-1.16,1.31-1.31,1.2-1.05.76-1.12.65-1.2.54-1.27.36-1.05.11-1,0-1-.22-.8,3.52L340.6,451l-1.2,3.41-1.34,3.34L336.49,461l-1.71,3.16-1.93,3-2.07,2.94v14.05l-.91-.73-.95-.69-1-.62-1.05-.62-1.09-.58-1.16-.54-2.4-1-.4.33-1.6,1.31,1.82.73,1.63.76,1.49.84,1.34.87,1.13.91.95.94.76,1,.58,1,.36,1,.15,1,0,1-.25,1-.44,1-.65,1-.84,1-1.05.91-1.2.91-1.38.87-1.56.8-1.74.76-1.85.69-2,.65-2.14.58-2.22.54-2.36.44-2.4.36-2.51.33-2.54.22-2.54.15-2.62.07.65-.15.58-.22.47-.25.4-.33.25-.36.15-.36v-.4l-.15-.36-.25-.36-.4-.29-.47-.29-.58-.22-.65-.14-.69-.07h-.69l-.69.07-.65.14-.58.22-.51.29-.36.29-.29.36-.15.36v.4l.15.36.25.36.4.33.51.25.58.22.62.15-2.58-.07-2.58-.15-2.54-.22-2.47-.33-2.4-.36-2.36-.47-2.22-.51-2.14-.58-2-.65-1.85-.73-1.71-.76-1.56-.8-1.38-.84-1.2-.91L266,495l-.84-.94-.62-1-.47-1-.22-1-.07-1,.18-1,.36-1,.54-1,.76-1,1-.94,1.13-.91,1.31-.87,1.49-.84,1.67-.76L274,481l-1.6-1.31-.36-.33-2.43,1-1.13.54-1.09.58-1.05.62-1,.62-.94.69-.91.73V470.11l-2.07-2.94-1.93-3L257.71,461l-1.53-3.23-1.38-3.34L253.64,451l-1-3.45L251.9,444l-1,.22-1.05,0-1-.11-1.27-.36-1.2-.54-1.16-.65-1.05-.76-1.27-1.2-1.2-1.31-1.05-1.42-1.71-2.65-1.56-2.8-1.38-2.87-1.16-2.94-1-3-.8-3.09-.58-3.09-.4-3.16-.07-1.85.11-1.82.36-1.82.51-1.74.44-1,.58-.91.69-.8.76-.69.91-.58,1.24-.58,1.31-.4,1.34-.18h1.34l-.33-3.41-.15-3.38.07-3.41.29-3.38.51-3.38.69-3.34.87-3.27,1.09-3.23,1.31-3.16,1.45-3.05,1.67-3,1.82-2.87,2-2.76,2.18-2.61,2.33-2.47,2.47-2.36,2.62-2.18,2.73-2,2.87-1.85,2.94-1.67,3.05-1.49,3.16-1.31,3.2-1.13,3.27-.91,3.34-.73,3.34-.51,3.42-.33,3.38-.11,3.42.11,3.38.33,3.38.51,3.31.73,3.27.91,3.23,1.13,3.12,1.31,3.05,1.49,3,1.67,2.83,1.85,2.76,2,2.58,2.18,2.47,2.36,2.32,2.47,2.18,2.61,2,2.76,1.85,2.87,1.63,3,1.49,3.05,1.27,3.16,1.09,3.23.91,3.27.69,3.34.47,3.38.29,3.38.07,3.41-.11,3.38-.33,3.41h1.34l1.35.18,1.31.4,1.23.58ZM315.6,477.34l-2.14-.47-2.22-.4L309,476.1l-2.33-.25-2.36-.25-2.36-.14-2.4-.11H294.7l-2.4.11-2.4.14-2.36.25-2.29.25-2.29.36-2.22.4-2.14.47,2.73,1.56,2.25-.44,2.36-.36,2.4-.29,2.47-.22,2.51-.15,2.51-.07h2.54l2.51.07,2.51.15,2.47.22,2.43.29,2.33.36,2.29.44,2.69-1.56Zm14.86-17.07-1.6-1-1.67-.91-1.74-.84-1.85-.76-1.89-.73-2-.62-2-.58-2.11-.51-2.18-.44-2.22-.4-2.25-.33-2.33-.29-2.33-.22-2.36-.15-2.4-.11h-4.76l-2.4.11-2.36.15-2.33.22-2.33.29-2.25.33-2.25.4-2.14.44-2.14.51-2,.58-2,.62-1.93.73-1.82.76-1.74.84-1.67.91-1.6,1,1.45,2.43,1.42-.91,1.53-.87,1.64-.76,1.71-.73,1.78-.65,1.89-.62,2-.54,2-.51,2.07-.44,2.18-.4,2.18-.33,2.25-.25,2.29-.22,2.29-.15,2.33-.11h2.33l2.33,0,2.32.07,2.33.15,2.25.22,2.25.25,2.22.33,2.14.4,2.11.44,2,.51,1.93.54,1.89.62,1.82.65,1.71.73,1.6.76,1.53.87,1.46.91,1.45-2.47ZM302.33,480.1l-.07-.4-.22-.36-.36-.33-.47-.29-.62-.25-.65-.18-.73-.11-.76,0-.8,0-.73.11-.65.18-.62.25-.47.29-.36.33-.22.36-.07.4.07.36.22.36.36.33.47.33.62.22.65.18.73.11.8,0,.76,0,.73-.11.65-.18.62-.22.47-.33.36-.33.22-.36.07-.36Zm-19.66,3.3-.11-.4-.22-.36-.36-.33-.47-.29-.58-.25-.69-.18-.73-.11-.76,0-.76,0-.76.11-.65.18L276,482l-.47.29-.36.33-.22.36-.07.4.07.36.22.36.36.36.47.29.62.22.65.18.76.11.76.07.76-.07.73-.11.69-.18.58-.22.47-.29.36-.36.22-.36.11-.36Zm12.9,1.78-.07-.36-.22-.36-.36-.33-.47-.33-.62-.22-.65-.18-.73-.11-.8,0-.76,0-.73.11-.65.18-.62.22-.47.33-.36.33-.22.36-.07.36.07.4.22.36.36.33.47.29.62.25.65.18.73.11.76,0,.8,0,.73-.11.65-.18.62-.25.47-.29.36-.33.22-.36.07-.4Zm-8.68,3.52-.07-.36-.22-.36-.36-.36-.51-.29-.58-.22-.69-.18-.73-.11-.76-.07-.76.07-.73.11-.69.18-.58.22-.51.29-.36.36-.22.36-.07.36.07.4.22.36.36.33.51.29.58.25.69.18.73.11.76,0,.76,0,.73-.11.69-.18.58-.25.51-.29.36-.33.22-.36.07-.4Zm21-3.09-.07-.36-.22-.36-.36-.36-.51-.29-.58-.22-.69-.18-.73-.11-.76,0-.76,0-.73.11-.69.18-.58.22-.51.29-.36.36-.22.36-.07.36.07.4.22.36.36.33.51.29.58.25.69.18.73.11.76,0,.76,0,.73-.11.69-.18.58-.25.51-.29.36-.33.22-.36.07-.4Zm8.39,3.56-.07-.36-.25-.36-.36-.33-.47-.33-.58-.22-.69-.18-.73-.11-.76,0-.76,0-.76.11-.65.18-.62.22-.47.33-.36.33-.22.36-.07.36.07.4.22.36.36.33.47.29.62.25.65.18.76.11.76,0,.76,0,.73-.11.69-.18.58-.25.47-.29.36-.33.25-.36.07-.4Zm5.09-5.12-.11-.36-.22-.36-.36-.36-.47-.29-.58-.25-.69-.15-.73-.14-.76,0-.76,0-.76.14-.65.15-.62.25-.47.29-.36.36-.22.36-.07.36.07.4.22.36.36.33.47.29.62.25.65.18.76.11.76,0,.76,0,.73-.11.69-.18.58-.25.47-.29.36-.33.22-.36.11-.4Zm5.41,7.81-.07-.4-.22-.36-.33-.33-.44-.29-.54-.25-.62-.18-.65-.11-.69,0-.73,0-.65.11-.62.18-.54.25-.44.29-.33.33-.22.36-.07.4.07.36.22.36.33.36.44.29.54.22.62.18.65.11.73,0,.69,0,.65-.11.62-.18.54-.22.44-.29.33-.36.22-.36.07-.36Zm-12.24,2.25-.07-.4-.18-.36L314,493l-.47-.29-.54-.25-.62-.18-.65-.11-.69,0-.69,0-.69.11-.62.18-.54.25L308,493l-.33.33-.22.36,0,.4,0,.36.22.36.33.36.44.29.54.22.62.18.69.11.69,0,.69,0,.65-.11.62-.18.54-.22.47-.29.33-.36.18-.36.07-.36Zm3.16,4.83-.07-.4-.22-.36-.33-.33-.44-.29-.54-.25-.62-.18-.69-.11-.69,0-.69,0-.65.11-.62.18-.54.25-.47.29-.33.33-.18.36-.07.4.07.36.18.36.33.36.47.29.54.22.62.18.65.15.69,0,.69,0,.69-.15.62-.18.54-.22.44-.29.33-.36.22-.36.07-.36Zm-11.48-2.18-.07-.4L306,496l-.33-.33-.47-.29-.51-.25-.62-.18-.69-.11-.69,0-.69,0-.69.11-.62.18-.54.25-.44.29-.33.33-.22.36,0,.4,0,.36.22.36.33.33.44.33.54.22.62.18.69.11.69,0,.69,0,.69-.11.62-.18.51-.22.47-.33.33-.33.18-.36.07-.36Zm-5.2-5.63,0-.36-.22-.36-.33-.36-.44-.29-.54-.22-.62-.18-.69-.11-.69,0-.69,0-.69.11-.62.18-.51.22-.47.29-.33.36-.18.36-.07.36.07.4.18.36.33.33.47.29.51.25.62.18.69.11.69,0,.69,0,.69-.11.62-.18.54-.25.44-.29.33-.33.22-.36,0-.4Zm-6,5.37-.07-.36-.18-.36-.33-.36-.47-.29-.51-.25-.62-.18-.69-.11-.69,0-.69,0-.69.11-.62.18-.54.25-.44.29-.33.36-.22.36,0,.36,0,.4.22.36.33.33.44.29.54.25.62.18.69.11.69,0,.69,0,.69-.11.62-.18.51-.25.47-.29.33-.33.18-.36.07-.4Zm-8.28-2.91-.07-.4-.22-.36-.33-.33-.44-.29-.55-.25-.62-.18-.69-.11-.69,0-.69,0-.65.11-.62.18-.55.25-.47.29-.33.33-.18.36-.07.4.07.36.18.36.33.36.47.29.55.25.62.18.65.11.69,0,.69,0,.69-.11.62-.18.55-.25.44-.29.33-.36.22-.36.07-.36Zm-4.25,4.47-.07-.4-.18-.36-.33-.33-.47-.29-.54-.25-.62-.18-.65-.11-.69,0-.69,0-.69.11-.62.18-.54.25L276,497l-.33.33-.22.36-.07.4.07.36.22.36.33.36.44.29.54.25.62.15.69.15.69,0,.69,0,.65-.15.62-.15.54-.25.47-.29.33-.36.18-.36.07-.36Zm-8.1-7.12-.07-.36-.18-.36-.33-.36-.47-.29-.55-.25-.62-.18-.65-.11-.69,0-.69,0-.69.11-.62.18-.55.25-.44.29-.33.36-.22.36-.07.36.07.4.22.36.33.33.44.29.55.25.62.18.69.11.69,0,.69,0,.65-.11.62-.18.55-.25.47-.29.33-.33.18-.36.07-.4Zm17.77-84.54-.11-1.6-.29-1.56-.51-1.49-.73-1.45-.91-1.38-1.05-1.31-1.24-1.16-1.34-1-1.53-.91-1.6-.73-1.71-.58-1.74-.4-1.78-.22-1.82,0-1.82.11-1.78.33-1.74.51-1.63.65-1.56.8-1.45,1L264.54,397l-1.16,1.23-1,1.31-.8,1.42-.62,1.49-.4,1.56-.22,1.56v1.6l.22,1.56.4,1.53.62,1.49.8,1.42,1,1.34,1.16,1.23,1.27,1.09,1.45,1,1.56.8,1.63.65,1.74.51,1.78.29,1.82.15,1.82,0,1.78-.25,1.74-.4,1.71-.54,1.6-.76,1.53-.87,1.34-1.05,1.24-1.16,1.05-1.27.91-1.38.73-1.45.51-1.53.29-1.56.11-1.56Zm9.92,0,.07-1.6.33-1.56.51-1.49.69-1.45.91-1.38,1.05-1.31,1.24-1.16,1.38-1,1.49-.91,1.6-.73,1.71-.58,1.74-.4,1.82-.22,1.82,0,1.82.11L322,393l1.71.51,1.67.65,1.53.8,1.45,1L329.7,397l1.16,1.23,1,1.31.8,1.42.58,1.49.44,1.56.18,1.56v1.6l-.18,1.56-.44,1.53-.58,1.49-.8,1.42-1,1.34-1.16,1.23-1.31,1.09-1.45,1-1.53.8-1.67.65-1.71.51-1.78.29-1.82.15-1.82,0L314.8,420l-1.74-.4-1.71-.54-1.6-.76-1.49-.87-1.38-1.05-1.24-1.16-1.05-1.27-.91-1.38-.69-1.45-.51-1.53-.33-1.56-.07-1.56Z" transform="translate(-195.89 -321.79)" fill="#fff" fill-rule="evenodd"/>
  </g>
</svg>
