<svg id="Layer_1" data-name="Layer 1" xmlns="http://www.w3.org/2000/svg" width="70mm" height="70mm" viewBox="0 0 198.42 198.42">
  <title>m018</title>
  <g id="symbolgrp">
    <path d="M297.12,520.22A99.21,99.21,0,1,0,197.91,421a99.22,99.22,0,0,0,99.21,99.18Z" transform="translate(-197.91 -321.8)" fill="#056bb3" fill-rule="evenodd"/>
    <path d="M243,405.45h26.82l.51,0,.52-.07.51-.13.5-.18.47-.21.45-.27.43-.31.38-.35,12.86-12.64V387l0-2.69.1-2.69.16-2.68.23-2.68-.5.23-.48.27-.44.33-.41.35-17.52,17.27H242.51l-.52.08-.51.13-.5.18-.48.23-.45.27-.43.31-.4.35-.35.4-.31.42-.27.45-.23.48-.18.5-.13.51-.07.52,0,.52,0,.54.07.51.13.52.18.5.23.48.27.45.31.42.35.38.4.35.43.33.45.27.48.23.5.17.51.14.52.07.52,0Zm20.23,34.16L286.48,421V394.73l-11.11,10.94-.51.45-.54.41-.57.37-.61.31-.62.25-.65.2-.67.14-.68.1-.67,0H243l-.65,0-.64-.08-.64-.13-.62-.18-.61-.24-.58-.28-.55-.34-.54-.37-.5-.42-.45-.47-.43-.5-.37-.52-.34-.55-.28-.6-.24-.59-.18-.62-.13-.64-.09-.65,0-.65,0-.65.09-.64.13-.64.18-.62.24-.61.28-.58.34-.57.37-.52.43-.5.45-.45.5-.42.54-.38.55-.33.58-.3.61-.23.62-.18.64-.14.64-.07.65,0h23.59l16.81-16.55.5-.45.55-.41.57-.37.61-.31.62-.26.65-.2.67-.16.67-.08.68,0H313.6l.65,0,.64.08.64.13.62.18.6.23.58.28.55.33.53.38,4.1,3.14.61-2.14.57-2.15.52-2.17.45-2.18.43-2.18.35-2.21.33-2.2.26-2.22.21-2.21.16-2.22.11-2.22.06-2.22v-2.24l0-2.22-.1-2.22,1.79.71,1.77.76,1.76.79,0,2.32,0,2.31-.06,2.31-.11,2.31-.17,2.29-.21,2.31-.27,2.28-.33,2.3-.37,2.28-.44,2.27-.47,2.27-.54,2.24-.58,2.24-.64,2.22-.68,2.21,12.74,9.82.5.43.47.47.42.5.38.52.34.57.28.58.24.61.18.62.14.65.07.64,0,.65v26.82l0,.65-.07.64-.14.64-.18.62-.24.61-.28.58-.33.57-.38.52-.41.5-.47.45-.5.42-.53.38-.57.33-.58.28-.61.24-.62.18-.64.14-.64.07-.65,0-.65,0-.64-.07-.64-.14-.62-.18-.61-.24-.58-.28-.57-.33-.53-.38-.5-.42-.45-.45-.43-.5-.38-.52-.32-.57-.29-.58-.24-.61-.18-.62-.14-.64-.07-.64,0-.65v-23l-9.84-7.58-.14-.08-.14,0h-.17l-.16,0-.14.07-.13.11-.09.13-.06.14,0,.17V493l0,.67-.07.68-.14.67-.18.65-.23.64-.28.61-.34.6-.37.57-.43.54-.45.5-.5.45-.54.42-.57.38-.6.33-.61.28-.64.24-.65.18-.67.13-.68.08h-1.35l-.68-.08-.67-.13-.65-.18-.64-.24-.61-.28-.6-.33-.57-.38-.53-.42-.5-.45-.47-.5-.41-.54-.38-.57-.32-.6-.29-.61-.24-.64L299,495l-.13-.67-.08-.68,0-.67V433.28L279,449.16l9.87,25.77.21.65.17.65.11.67.06.68v.68l-.06.68-.1.67-.14.67-.2.64-.26.64-.3.61-.35.58-.4.55-.42.52-.48.48-.51.45-.54.4-.58.37-.6.31-.62.27-.64.21-.67.17-.67.11-.68.06h-.67l-.68,0-.68-.1-.65-.16-.65-.2-.62-.25-.61-.3-.58-.35-.55-.38-.52-.44-.48-.48-.45-.51-.4-.54-.37-.57-.31-.61-.27-.62-12.1-31.66-.23-.64-.16-.66-.11-.67-.07-.68v-.68l0-.68.1-.67.16-.67.2-.65.26-.64.31-.61.34-.58.4-.55.44-.52.48-.48.51-.45Zm1.55,1.94,22.3-17.86,8.52,9L276,448.35l10.5,27.47.18.54.13.55.07.57,0,.57,0,.57-.08.57-.13.55-.18.54-.23.52-.28.5-.33.47-.37.44-.4.4-.44.37-.47.31-.51.27-.51.24-.55.17-.55.13-.55.09h-.58l-.57,0-.55-.08-.57-.13-.54-.18-.51-.23-.5-.28-.47-.33-.44-.37-.4-.4-.37-.44-.31-.47-.28-.51-.23-.51-12.1-31.66-.17-.52-.13-.54-.08-.55,0-.55,0-.55.07-.55.11-.55.17-.52.23-.51.25-.48.3-.47.35-.44.38-.4.41-.37ZM291.37,415v-18.5l14.94.28-.21,3.58-.16,3.58-.11,3.58-.07,3.58v3.58l0,3.58-1.49-.1-1.47-.16-1.46-.21-1.46-.25-1.46-.3-1.45-.35-1.42-.41-1.42-.45-1.39-.5-1.39-.55Zm38.07,9.42V400.28L318.64,392l-.34-.23-.37-.18-.38-.14-.41-.07-.4,0-.41,0-.41.07-.38.13-.37.18-.34.23-.31.27-.27.31-.23.34-.19.37-.13.38-.09.41,0,.41V418l-1.46.17-1.46.11,0-3.87v-3.88l.09-3.87.14-3.87.2-3.85.26-3.87.31-3.85.37-3.85.43-3.84.47-3.84.54-3.84h.14l.51,0,.5.07.5.11.48.17.45.2.45.25.41.28,21.22,16.38.42.35.37.4.34.44.28.45.26.5.18.51.14.54.09.54V425l-.09.52L340,426l-.17.5-.23.48-.29.45-.31.42-.36.4-.4.35-.43.31-.45.27-.47.23-.51.18-.51.13-.52.08H334.3l-.52-.08-.51-.13-.51-.18-.47-.23-.45-.27-.43-.31-.4-.35-.35-.4-.31-.42-.27-.45-.23-.48-.19-.5-.13-.51-.08-.52,0-.52Zm-15.85,2.83V493l0,.57-.08.57-.13.55-.19.54-.23.52-.28.5-.31.47-.37.44-.4.4-.44.37-.47.31-.51.28-.51.23-.54.18-.55.13-.57.09-.57,0-.57,0-.57-.09-.55-.13-.54-.18-.53-.23-.5-.28-.47-.31-.44-.37-.41-.4-.35-.44-.33-.47-.28-.5-.23-.52-.19-.54-.13-.55-.07-.57,0-.57v-59.4l.78-.74.82-.71.87-.67.88-.62.91-.58,1-.54.95-.48,1-.45,1-.4,1-.34,1-.31,1.06-.24,1-.21Zm-22.21-6.66,1.54.54,1.56.48,1.57.44,1.6.38,1.6.33,1.6.27,1.63.21,1.63.16,1.63.11,1.63,0-1.15.47-1.12.51-1.09.55-1.08.61-1,.67-1,.69-1,.74-1,.79-7.58-8Zm0-29.33,15.34.32.35-4,.43-3.92.48-3.94.54-3.92H292l-.21,2.21-.16,2.22-.11,2.22-.07,2.22,0,2.22v4.31Z" transform="translate(-197.91 -321.8)" fill="#fff" fill-rule="evenodd"/>
    <path d="M312.07,359.51l0-.76L312,358l-.14-.75-.18-.75-.24-.74-.3-.71-.34-.69-.4-.65-.44-.64-.48-.6-.52-.57-.57-.52-.59-.48-.64-.44-.65-.4-.7-.34-.71-.3-.74-.24-.74-.2-.77-.13-.77-.08-.77,0-.77,0-.76.08L299,349l-.74.2-.74.24-.71.3-.69.34-.65.4-.64.44-.6.48-.57.52-.52.57-.48.6-.44.64-.4.65-.34.69-.3.71-.24.74-.2.75-.13.75-.09.77,0,.76,0,.78.09.77.13.75.2.75.24.72.3.72.34.68.4.67.44.64.48.6.52.57.57.52.6.48.64.44.65.4.69.34.71.3.74.24.74.18.77.14.76.09.77,0,.77,0,.77-.09.77-.14.74-.18.74-.24.71-.3.7-.34.65-.4.64-.44.59-.48.57-.52.52-.57.48-.6.44-.64.4-.67.34-.68.3-.72.24-.72.18-.75.14-.75.08-.77,0-.78Zm-2.48,0,0-.65-.07-.64-.13-.65-.18-.62-.23-.61-.27-.6-.31-.57-.37-.54-.4-.52-.45-.47-.47-.45-.52-.4-.54-.37-.57-.31-.6-.27-.61-.23-.62-.18-.64-.13-.65-.07-.65,0-.65,0-.65.07-.64.13-.62.18-.61.23-.6.27-.57.31-.55.37-.51.4-.48.45-.44.47-.4.52-.37.54-.31.57-.28.6-.23.61-.17.62-.13.65-.07.64,0,.65,0,.65.07.65.13.64.17.64.23.61.28.6.31.57.37.54.4.51.44.48.48.44.51.41.55.35.57.33.6.27.61.23.62.18.64.13.65.07.65,0,.65,0,.65-.07.64-.13.62-.18.61-.23.6-.27.57-.33.54-.35.52-.41.47-.44.45-.48.4-.51.37-.54.31-.57.27-.6.23-.61.18-.64.13-.64.07-.65,0-.65Z" transform="translate(-197.91 -321.8)" fill="#fff" fill-rule="evenodd"/>
  </g>
</svg>
