<svg id="Layer_1" data-name="Layer 1" xmlns="http://www.w3.org/2000/svg" width="70mm" height="70mm" viewBox="0 0 198.43 198.43">
  <title>m019</title>
  <g id="symbolgrp">
    <path d="M396.34,421a99.22,99.22,0,1,1-99.22-99.22A99.22,99.22,0,0,1,396.34,421Z" transform="translate(-197.9 -321.79)" fill="#056bb3" fill-rule="evenodd"/>
    <path d="M357,408.55H316.13v53.37l-.11,1.74-.29,1.71-.47,1.67-.65,1.63-.87,1.53-1,1.42-1.2,1.31-1.27,1.16-1.45,1-1.53.84-1.6.69-1.67.47-1.74.29-1.74.11H286.76v.62l.11,1.05.29,1,.51.91.65.8.8.65.91.47,1,.29,1,.11h42.74l1.05-.11,1-.29.91-.47.8-.69.65-.8.51-.91.29-1,.11-1v-9.52l.11-4,.33-4,.55-4,.73-3.92,1-3.89,1.16-3.85,1.38-3.74,1.56-3.67,1.74-3.6,2-3.52,1.6-2.87,1.35-3,1.16-3.09.91-3.16.73-3.2.44-3.27.25-3.27Zm5.09-1.49-.11-3.34-.33-3.31-.51-3.27-.76-3.23-.95-3.2-1.13-3.12-1.34-3-1.53-2.94-1.71-2.87L351.89,376l-2.07-2.58L347.6,371l-2.4-2.32-2.51-2.14-2.65-2-2.76-1.85L334.37,361l-3-1.45-3.05-1.24-3.16-1.09-3.2-.84-3.27-.65-3.27-.47-3.34-.22h-3.31l-1.53-.84-1.6-.69-1.67-.47-1.71-.29-1.74-.07H262.3l-1.74.07-1.74.29-1.67.51-1.64.65-1.53.84-1.42,1-1.31,1.16-1.16,1.31-1,1.42-.84,1.56-.65,1.6-.51,1.67-.29,1.74-.07,1.74v12.57h24.89l.73.07.69.29.58.47.44.58.29.65.11.76v24.7l-.11.73-.29.69-.44.58-.58.44-.69.29-.73.11H246.71v50.68l.07,1.74.29,1.71.51,1.67.65,1.63.84,1.53,1,1.42,1.16,1.31,1.31,1.16,1.42,1,1.53.84,1.64.69,1.67.47,1.74.29,1.74.11h19.41v.62l.07,1.49.33,1.42.51,1.42.73,1.27.87,1.2,1.05,1,1.16.91,1.31.69,1.38.51,1.45.33,1.45.11h42.74l1.49-.11,1.45-.33,1.38-.51,1.31-.73,1.2-.87,1.05-1.05.87-1.2.73-1.31.51-1.38.33-1.45.11-1.45v-9.52l.11-3.74.29-3.71.51-3.7.69-3.67.87-3.63,1.09-3.56L350,443l1.49-3.42,1.63-3.34L355,433l1.49-2.65,1.31-2.73,1.13-2.8,1-2.87.8-2.91.62-3,.47-3,.25-3,.11-3Zm-6.4-11-.8-3-1-2.91-1.24-2.87-1.38-2.76-1.56-2.65L348,379.3l-1.93-2.43L344,374.58l-2.22-2.18-2.33-2L337,368.55l-2.58-1.71-2.73-1.49-2.8-1.34L326,362.88l-2.94-.94-3-.76-3-.54-3.09-.36.8,1.49.62,1.56.44,1.64.29,1.63.07,1.71v27.79ZM272.3,408.4V383.7l-.07-.36-.25-.25-.36-.11H246.71v3.27H267.5v17.91H246.71v4.94h24.89L272,409l.25-.29.07-.33Zm-8.65,46.43-.07-.76-.33-.73-.47-.62-.58-.47-.73-.29-.76-.11-.8.11-.69.29-.62.47-.47.62-.33.73-.07.76.07.76.33.73.47.62.62.47.69.29.8.11.76-.11.73-.29.58-.47.47-.62.33-.73.07-.76Zm-8.21,0-.11-.76-.29-.73-.47-.62-.62-.47-.69-.29-.8-.11-.76.11-.73.29-.62.47-.47.62-.29.73-.07.76.07.76.29.73.47.62.62.47.73.29.76.11.8-.11.69-.29.62-.47.47-.62.29-.73.11-.76Zm16.46,0-.11-.76-.29-.73-.47-.62-.62-.47-.73-.29-.76-.11-.76.11-.73.29-.62.47-.47.62-.29.73-.11.76.11.76.29.73.47.62.62.47.73.29.76.11.76-.11.73-.29.62-.47.47-.62.29-.73.11-.76Z" transform="translate(-197.9 -321.79)" fill="#fff" fill-rule="evenodd"/>
  </g>
</svg>
