<svg id="Layer_1" data-name="Layer 1" xmlns="http://www.w3.org/2000/svg" width="70mm" height="70mm" viewBox="0 0 198.43 198.43">
  <title>m020</title>
  <g id="symbolgrp">
    <path d="M197.9,421a99.22,99.22,0,1,0,99.22-99.22A99.22,99.22,0,0,0,197.9,421Z" transform="translate(-197.9 -321.79)" fill="#056bb3" fill-rule="evenodd"/>
    <path d="M376,397.33l1.05,3.92.91,4,.65,4,.51,4,.26,4,.11,4.07-.14,4.07-.29,4.07-.54,4H352.88V397.33ZM292,467.5,256.55,447l-3.12,5.41,20.68,11.91H231.41v6.25H274.1l-20.68,11.95,3.12,5.41L292,467.5Zm70.86-3.12v6.25h-42.7l20.68,11.95L337.69,488,302.26,467.5,337.69,447l3.12,5.41-20.68,11.91Zm-28.38-57.45h-17v17h17v-17Zm2.83-2.83v22.7H314.62v-22.7Zm8.5,35.44H306.12l-.95-.11-.91-.33-.8-.51-.69-.65-.51-.8-.29-.91-.11-.94V395.59l.11-.94.29-.91.51-.8.69-.69.8-.51.91-.29.95-.11h39.68l.95.11.91.29.8.51.69.69.51.8.29.91.11.94v39.69l-4.25,4.25Zm0,0,.95-.11.91-.33.8-.51.69-.65.51-.8.29-.91.11-.94-4.25,4.25ZM292,401v28.94l-.11.73-.29.69-.44.58-.58.44-.69.29-.73.11H271.3l-5.85,6.32H244.71v-6.32H215.64l-.51-4.36-.29-4.36,0-4.36.18-4.36.4-4.36.65-4.32.87-4.29,1.13-4.21h26.67v-6.32h20.75l5.85,6.32h17.88l.73.11.69.25.58.47.44.58.29.69.11.73Zm-5.74,4.61V425.3H274.1V405.58ZM253.21,435.1V395.77h-4.69V435.1Z" transform="translate(-197.9 -321.79)" fill="#fff" fill-rule="evenodd"/>
  </g>
</svg>
