<svg id="Layer_1" data-name="Layer 1" xmlns="http://www.w3.org/2000/svg" width="70mm" height="70mm" viewBox="0 0 198.43 198.43">
  <title>m021</title>
  <g id="symbolgrp">
    <polygon points="198.43 99.22 198.29 94.75 198 90.36 197.5 85.9 196.85 81.5 195.91 77.11 194.83 72.79 193.53 68.54 192.1 64.37 190.44 60.26 188.57 56.16 186.55 52.2 184.39 48.31 182.02 44.57 179.42 40.9 176.76 37.37 173.88 33.91 170.93 30.67 167.76 27.5 164.45 24.48 161.06 21.67 157.53 18.94 153.86 16.42 150.12 14.04 146.23 11.88 142.2 9.79 138.17 7.99 134.06 6.34 129.89 4.9 125.57 3.6 121.25 2.52 116.93 1.58 112.53 0.94 108.07 0.43 103.68 0.07 99.22 0 94.75 0.07 90.29 0.43 85.9 0.94 81.5 1.58 77.11 2.52 72.79 3.6 68.54 4.9 64.37 6.34 60.19 7.99 56.16 9.79 52.2 11.88 48.31 14.04 44.57 16.42 40.9 18.94 37.37 21.67 33.91 24.48 30.6 27.5 27.5 30.67 24.48 33.91 21.6 37.37 18.94 40.9 16.42 44.57 14.04 48.31 11.81 52.2 9.79 56.16 7.99 60.26 6.34 64.37 4.82 68.54 3.53 72.79 2.45 77.11 1.58 81.5 0.86 85.9 0.36 90.36 0.07 94.75 0 99.22 0.07 103.68 0.36 108.07 0.86 112.54 1.58 116.93 2.45 121.32 3.53 125.64 4.82 129.89 6.34 134.06 7.99 138.17 9.79 142.27 11.81 146.23 14.04 150.12 16.42 153.86 18.94 157.54 21.6 161.06 24.48 164.52 27.5 167.76 30.6 170.93 33.91 173.95 37.37 176.76 40.9 179.5 44.57 182.02 48.31 184.39 52.2 186.55 56.16 188.64 60.19 190.44 64.37 192.1 68.54 193.54 72.79 194.83 77.11 195.91 81.5 196.85 85.9 197.5 90.29 198 94.75 198.36 99.22 198.43 103.68 198.36 108.07 198 112.53 197.5 116.93 196.85 121.25 195.91 125.57 194.83 129.89 193.54 134.06 192.1 138.17 190.44 142.2 188.64 146.23 186.55 150.12 184.39 153.86 182.02 157.53 179.5 161.06 176.76 164.45 173.95 167.76 170.93 170.93 167.76 173.88 164.52 176.76 161.06 179.42 157.54 182.02 153.86 184.39 150.12 186.55 146.23 188.57 142.27 190.44 138.17 192.1 134.06 193.53 129.89 194.83 125.64 195.91 121.32 196.85 116.93 197.5 112.54 198 108.07 198.29 103.68 198.43 99.22 198.43 99.22" fill="#056bb3" fill-rule="evenodd"/>
    <path d="M308.47,342.06l-3.78-.44-3.78-.29-3.81-.07-3.78.07-3.78.29-3.78.44v45h22.71v-45Zm24.34,35-41.5,82.58-1.56.76-1.45.94L287,462.48l-1.2,1.23-1.05,1.42-.87,1.49-.69,1.6-.51,1.67-.29,1.74-.11,1.74.11,1.74.29,1.71.51,1.67.69,1.6.87,1.49,1.05,1.38v17l3.78.44,3.78.25,3.78.11,3.81-.11,3.78-.25,3.78-.44V483l1.05-1.38.87-1.53.69-1.6.51-1.67.29-1.74.11-1.74-.11-1.74-.33-1.74,41.53-82.55-20.28-10.21Zm-27.91,96.27-.11-1.23-.29-1.16-.44-1.13-.65-1.05-.8-.94-.91-.8-1.05-.62-1.13-.47-1.2-.29-1.23-.11-1.2.11-1.2.29-1.13.47-1.05.62-.91.8-.8.94-.65,1.05-.47,1.13-.25,1.16-.11,1.23.11,1.24.25,1.16.47,1.13.65,1.05.8.94.91.8,1.05.62,1.13.47,1.2.29,1.2.11,1.23-.11,1.2-.29,1.13-.47,1.05-.62.91-.8.8-.94.65-1.05.44-1.13.29-1.16.11-1.24Zm-17.44-69.44-29.9-17.36-2.47,4.32,18.17,10.57H233.8v5h39.46L255.1,417l2.47,4.29,29.9-17.36Z" transform="translate(-197.9 -321.79)" fill="#fff" fill-rule="evenodd"/>
  </g>
</svg>
