<svg id="Layer_1" data-name="Layer 1" xmlns="http://www.w3.org/2000/svg" width="70mm" height="70mm" viewBox="0 0 198.43 198.43">
  <title>m022</title>
  <g id="symbolgrp">
    <path d="M212.27,421a84,84,0,1,0,84-83.91,84,84,0,0,0-84,83.91Z" transform="translate(-197 -321.83)" fill="none" stroke="#fff" stroke-miterlimit="2.61" stroke-width="2" stroke-dasharray="4 6"/>
    <path d="M197,421a99.22,99.22,0,1,0,99.25-99.18A99.25,99.25,0,0,0,197,421Z" transform="translate(-197 -321.83)" fill="#056bb3" fill-rule="evenodd"/>
    <path d="M296.42,446.51l11.24-2.06c.43-.43,6.62-7.76,12.67-14.87A4.44,4.44,0,0,0,319,428a5.41,5.41,0,0,0-7.12.07l-6.55,7.68-9,10.75Zm-66.25,3.56c0,1-.07,18.29-.07,18.29h0a5.71,5.71,0,0,0,5.69,5.69h46c1.07,0,6.33-.14,7.61-.85l25.9-15.58a5.13,5.13,0,0,0,1.56-1.21L335,435.27a5.68,5.68,0,0,0-8.61-7.4L309,448.08s-22.56,4.06-24,4.34a13.23,13.23,0,0,1-8.75-1.71s-6.69-5.91-7.19-6.4c-3.77-4.13-.36-7-.36-7,7.26-4.27,13.8-8,13.8-8,7.12-4.27,10-11.6,7.76-15.87-1.14-2.13-3.49-1.71-6.62.14,0,0-48.67,28.11-49,28.39a9.47,9.47,0,0,0-4.55,8.11Zm49.31-.57c2.63-.43,7-1.21,11.46-2.06l13.31-15.65a4.88,4.88,0,0,0-1.28-1.71,5.45,5.45,0,0,0-7.61.5L279.48,449.5Z" transform="translate(-197 -321.83)" fill="#fff" fill-rule="evenodd"/>
    <path d="M302.09,369h2.31v-9.8h-2.31V369Zm-3.82,0h2.31v-9.8h-2.31V369Zm-4-7.5c-3.46,3.1-8.79,12-4.47,23.5.14.36,3.17,8.79-3.1,14.63a3.17,3.17,0,0,0-.29,4.11,2.4,2.4,0,0,0,3.68.36c7.43-6.92,6.2-17,4.54-21.41-3.1-8.22.5-13.84,2.16-15.86V361.1a2.23,2.23,0,0,0-2.52.43Zm44.62-12.83H319.68l-13.77,10.16v10.67l13.7,9.95h49.6a84.54,84.54,0,0,0-30.35-30.78Zm2.31,27h-18V351.87h18v23.86Z" transform="translate(-197 -321.83)" fill="#fff" fill-rule="evenodd"/>
  </g>
</svg>
