<svg id="Layer_1" data-name="Layer 1" xmlns="http://www.w3.org/2000/svg" width="70mm" height="70mm" viewBox="0 0 198.42 198.42">
  <title>m023</title>
  <g id="symbolgrp">
    <path d="M297.12,520.22A99.21,99.21,0,1,0,197.91,421a99.22,99.22,0,0,0,99.21,99.18Z" transform="translate(-197.91 -321.8)" fill="#056bb3" fill-rule="evenodd"/>
    <path d="M350.58,448.9l5.8-21.22-18.17-41.77H256l-18.18,41.77,5.8,21.22,12.17-33.65h82.59l12.17,33.65Zm8.83,24.4-7.24-20,1,.27,7.14-26.17L340.63,382.2h-87l-19.67,45.19,7.14,26.17,1-.27-7.23,20h14L265.21,428H329l16.4,45.34Z" transform="translate(-197.91 -321.8)" fill="#fff" fill-rule="evenodd"/>
    <polygon points="86.78 45.27 72.91 51.35 75.37 56.92 89.24 50.84 86.78 45.27 86.78 45.27" fill="#fff" fill-rule="evenodd"/>
    <polygon points="98.24 36.47 92.97 33.41 85.38 46.52 90.64 49.57 98.24 36.47 98.24 36.47" fill="#fff" fill-rule="evenodd"/>
    <polygon points="95.83 58.52 82.39 94.4 88.91 96.84 102.35 60.98 95.83 58.52 95.83 58.52" fill="#fff" fill-rule="evenodd"/>
    <polygon points="109.1 58.06 118.41 74.79 112.32 78.18 103.01 61.44 109.1 58.06 109.1 58.06" fill="#fff" fill-rule="evenodd"/>
    <polygon points="133.66 83.14 117.12 73.49 113.61 79.5 130.15 89.16 133.66 83.14 133.66 83.14" fill="#fff" fill-rule="evenodd"/>
    <polygon points="109.53 31.89 109.53 59.75 95.6 59.75 95.6 31.89 109.53 31.89 109.53 31.89" fill="#fff" fill-rule="evenodd"/>
    <polygon points="131.09 56.45 126.38 60.3 107.17 36.87 111.89 33 131.09 56.45 131.09 56.45" fill="#fff" fill-rule="evenodd"/>
    <polygon points="131.79 58.38 131.76 57.98 131.68 57.59 131.56 57.21 131.38 56.85 131.15 56.52 130.89 56.21 130.59 55.95 130.25 55.74 129.91 55.56 129.53 55.44 129.14 55.35 128.74 55.33 128.33 55.35 127.94 55.44 127.57 55.56 127.22 55.74 126.89 55.95 126.58 56.21 126.32 56.52 126.09 56.85 125.92 57.21 125.79 57.59 125.72 57.98 125.69 58.38 125.72 58.77 125.79 59.16 125.92 59.54 126.09 59.9 126.32 60.23 126.58 60.53 126.89 60.79 127.22 61.01 127.57 61.18 127.94 61.31 128.33 61.4 128.74 61.43 129.14 61.4 129.53 61.31 129.91 61.18 130.25 61.01 130.59 60.79 130.89 60.53 131.15 60.23 131.38 59.9 131.56 59.54 131.68 59.16 131.76 58.77 131.79 58.38 131.79 58.38" fill="#fff" fill-rule="evenodd"/>
    <polygon points="98.65 34.94 98.62 34.55 98.55 34.15 98.42 33.77 98.24 33.42 98.03 33.09 97.75 32.79 97.46 32.53 97.13 32.3 96.77 32.12 96.39 31.99 96 31.92 95.6 31.89 95.21 31.92 94.82 31.99 94.44 32.12 94.08 32.3 93.75 32.53 93.44 32.79 93.19 33.09 92.97 33.42 92.78 33.77 92.67 34.15 92.58 34.55 92.55 34.94 92.58 35.34 92.67 35.73 92.78 36.11 92.97 36.47 93.19 36.8 93.44 37.09 93.75 37.35 94.08 37.58 94.44 37.76 94.82 37.88 95.21 37.96 95.6 37.99 96 37.96 96.39 37.88 96.77 37.76 97.13 37.58 97.46 37.35 97.75 37.09 98.03 36.8 98.24 36.47 98.42 36.11 98.55 35.73 98.62 35.34 98.65 34.94 98.65 34.94" fill="#fff" fill-rule="evenodd"/>
    <polygon points="91.06 48.05 91.03 47.65 90.96 47.26 90.83 46.88 90.66 46.52 90.42 46.19 90.17 45.9 89.86 45.63 89.53 45.41 89.18 45.24 88.81 45.11 88.42 45.03 88.01 45.01 87.61 45.03 87.22 45.11 86.84 45.24 86.49 45.41 86.16 45.63 85.86 45.9 85.6 46.19 85.37 46.52 85.19 46.88 85.06 47.26 84.99 47.65 84.96 48.05 84.99 48.44 85.06 48.83 85.19 49.22 85.37 49.57 85.6 49.9 85.86 50.21 86.16 50.47 86.49 50.68 86.84 50.87 87.22 51 87.61 51.07 88.01 51.1 88.42 51.07 88.81 51 89.18 50.87 89.53 50.68 89.86 50.47 90.17 50.21 90.42 49.9 90.66 49.57 90.83 49.22 90.96 48.83 91.03 48.44 91.06 48.05 91.06 48.05" fill="#fff" fill-rule="evenodd"/>
    <polygon points="77.19 54.13 77.16 53.74 77.09 53.35 76.96 52.96 76.78 52.62 76.55 52.29 76.29 51.98 75.99 51.72 75.66 51.49 75.31 51.32 74.93 51.19 74.54 51.12 74.14 51.09 73.75 51.12 73.34 51.19 72.97 51.32 72.62 51.49 72.29 51.72 71.98 51.98 71.72 52.29 71.49 52.62 71.32 52.96 71.19 53.35 71.12 53.74 71.09 54.13 71.12 54.54 71.19 54.93 71.32 55.3 71.49 55.67 71.72 56 71.98 56.29 72.29 56.55 72.62 56.78 72.97 56.95 73.34 57.08 73.75 57.15 74.14 57.18 74.54 57.15 74.93 57.08 75.31 56.95 75.66 56.78 75.99 56.55 76.29 56.29 76.55 56 76.78 55.67 76.96 55.3 77.09 54.93 77.16 54.54 77.19 54.13 77.19 54.13" fill="#fff" fill-rule="evenodd"/>
    <polygon points="112.58 34.94 112.55 34.55 112.48 34.15 112.35 33.77 112.17 33.42 111.94 33.09 111.68 32.79 111.38 32.53 111.06 32.3 110.7 32.12 110.33 31.99 109.94 31.92 109.53 31.89 109.14 31.92 108.75 31.99 108.36 32.12 108.01 32.3 107.68 32.53 107.38 32.79 107.12 33.09 106.9 33.42 106.71 33.77 106.58 34.15 106.51 34.55 106.48 34.94 106.51 35.34 106.58 35.73 106.71 36.11 106.9 36.47 107.12 36.8 107.38 37.09 107.68 37.35 108.01 37.58 108.36 37.76 108.75 37.88 109.14 37.96 109.53 37.99 109.94 37.96 110.33 37.88 110.7 37.76 111.06 37.58 111.38 37.35 111.68 37.09 111.94 36.8 112.17 36.47 112.35 36.11 112.48 35.73 112.55 35.34 112.58 34.94 112.58 34.94" fill="#fff" fill-rule="evenodd"/>
    <polygon points="108.66 24.06 108.63 23.5 108.56 22.94 108.43 22.39 108.25 21.85 108.03 21.35 107.75 20.84 107.43 20.38 107.07 19.95 106.67 19.56 106.23 19.2 105.77 18.88 105.28 18.6 104.78 18.37 104.24 18.2 103.69 18.07 103.13 17.98 102.56 17.97 102 17.98 101.45 18.07 100.9 18.2 100.37 18.37 99.85 18.6 99.36 18.88 98.89 19.2 98.46 19.56 98.07 19.95 97.71 20.38 97.39 20.84 97.12 21.35 96.89 21.85 96.71 22.39 96.58 22.94 96.5 23.5 96.47 24.06 96.5 24.63 96.58 25.18 96.71 25.72 96.89 26.26 97.12 26.78 97.39 27.27 97.71 27.73 98.07 28.16 98.46 28.55 98.89 28.92 99.36 29.23 99.85 29.51 100.37 29.74 100.9 29.91 101.45 30.04 102 30.13 102.56 30.16 103.13 30.13 103.69 30.04 104.24 29.91 104.78 29.74 105.28 29.51 105.77 29.23 106.23 28.92 106.67 28.55 107.07 28.16 107.43 27.73 107.75 27.27 108.03 26.78 108.25 26.26 108.43 25.72 108.56 25.18 108.63 24.63 108.66 24.06 108.66 24.06" fill="#fff" fill-rule="evenodd"/>
    <polygon points="89.12 95.63 89.11 95.21 89.02 94.79 88.91 94.39 88.73 94.01 88.52 93.65 88.26 93.32 87.95 93.02 87.62 92.76 87.26 92.54 86.88 92.37 86.48 92.25 86.06 92.16 85.64 92.15 85.22 92.16 84.82 92.25 84.41 92.37 84.02 92.54 83.68 92.76 83.34 93.02 83.04 93.32 82.78 93.65 82.56 94.01 82.39 94.39 82.26 94.79 82.19 95.21 82.16 95.63 82.19 96.05 82.26 96.47 82.39 96.86 82.56 97.25 82.78 97.61 83.04 97.94 83.34 98.23 83.68 98.49 84.02 98.71 84.41 98.88 84.82 99.01 85.22 99.08 85.64 99.11 86.06 99.08 86.48 99.01 86.88 98.88 87.26 98.71 87.62 98.49 87.95 98.23 88.26 97.94 88.52 97.61 88.73 97.25 88.91 96.86 89.02 96.47 89.11 96.05 89.12 95.63 89.12 95.63" fill="#fff" fill-rule="evenodd"/>
    <polygon points="135.38 86.16 135.36 85.74 135.28 85.32 135.17 84.91 135 84.54 134.78 84.18 134.52 83.84 134.21 83.54 133.88 83.28 133.52 83.06 133.15 82.89 132.74 82.76 132.32 82.69 131.9 82.66 131.48 82.69 131.08 82.76 130.67 82.89 130.28 83.06 129.92 83.28 129.59 83.54 129.3 83.84 129.04 84.18 128.82 84.54 128.65 84.91 128.52 85.32 128.45 85.74 128.42 86.16 128.45 86.58 128.52 86.98 128.65 87.38 128.82 87.77 129.04 88.13 129.3 88.45 129.59 88.75 129.92 89.02 130.28 89.23 130.67 89.41 131.08 89.53 131.48 89.61 131.9 89.64 132.32 89.61 132.74 89.53 133.15 89.41 133.52 89.23 133.88 89.02 134.21 88.75 134.52 88.45 134.78 88.13 135 87.77 135.17 87.38 135.28 86.98 135.36 86.58 135.38 86.16 135.38 86.16" fill="#fff" fill-rule="evenodd"/>
    <polygon points="109.53 59.75 109.5 59.33 109.43 58.91 109.3 58.52 109.14 58.13 108.91 57.77 108.66 57.44 108.36 57.15 108.03 56.89 107.67 56.68 107.29 56.5 106.89 56.37 106.47 56.3 106.05 56.27 105.63 56.3 105.21 56.37 104.82 56.5 104.43 56.68 104.07 56.89 103.73 57.15 103.45 57.44 103.19 57.77 102.97 58.13 102.8 58.52 102.67 58.91 102.59 59.33 102.56 59.75 102.59 60.17 102.67 60.59 102.8 60.99 102.97 61.37 103.19 61.73 103.45 62.06 103.73 62.37 104.07 62.61 104.43 62.84 104.82 63.02 105.21 63.13 105.63 63.2 106.05 63.23 106.47 63.2 106.89 63.13 107.29 63.02 107.67 62.84 108.03 62.61 108.36 62.37 108.66 62.06 108.91 61.73 109.14 61.37 109.3 60.99 109.43 60.59 109.5 60.17 109.53 59.75 109.53 59.75" fill="#fff" fill-rule="evenodd"/>
    <polygon points="102.56 59.75 102.54 59.33 102.46 58.91 102.35 58.52 102.17 58.13 101.96 57.77 101.7 57.44 101.39 57.15 101.06 56.89 100.7 56.68 100.33 56.5 99.92 56.37 99.5 56.3 99.08 56.27 98.66 56.3 98.26 56.37 97.85 56.5 97.46 56.68 97.1 56.89 96.77 57.15 96.48 57.44 96.22 57.77 96 58.13 95.83 58.52 95.7 58.91 95.63 59.33 95.6 59.75 95.63 60.17 95.7 60.59 95.83 60.99 96 61.37 96.22 61.73 96.48 62.06 96.77 62.37 97.1 62.61 97.46 62.84 97.85 63.02 98.26 63.13 98.66 63.2 99.08 63.23 99.5 63.2 99.92 63.13 100.33 63.02 100.7 62.84 101.06 62.61 101.39 62.37 101.7 62.06 101.96 61.73 102.17 61.37 102.35 60.99 102.46 60.59 102.54 60.17 102.56 59.75 102.56 59.75" fill="#fff" fill-rule="evenodd"/>
    <polygon points="118.85 76.49 118.82 76.07 118.75 75.66 118.62 75.25 118.45 74.88 118.23 74.51 117.97 74.18 117.68 73.88 117.35 73.62 116.99 73.4 116.6 73.23 116.21 73.11 115.79 73.03 115.37 73.01 114.95 73.03 114.53 73.11 114.13 73.23 113.75 73.4 113.39 73.62 113.06 73.88 112.75 74.18 112.51 74.51 112.28 74.88 112.12 75.25 111.99 75.66 111.92 76.07 111.89 76.49 111.92 76.91 111.99 77.32 112.12 77.72 112.28 78.11 112.51 78.47 112.75 78.8 113.06 79.09 113.39 79.35 113.75 79.57 114.13 79.74 114.53 79.87 114.95 79.94 115.37 79.97 115.79 79.94 116.21 79.87 116.6 79.74 116.99 79.57 117.35 79.35 117.68 79.09 117.97 78.8 118.23 78.47 118.45 78.11 118.62 77.72 118.75 77.32 118.82 76.91 118.85 76.49 118.85 76.49" fill="#fff" fill-rule="evenodd"/>
  </g>
</svg>
