<svg id="Layer_1" data-name="Layer 1" xmlns="http://www.w3.org/2000/svg" width="70mm" height="70mm" viewBox="0 0 198.43 198.43">
  <title>m024</title>
  <g id="symbolgrp">
    <polygon points="198.43 99.22 198.29 94.75 198 90.36 197.5 85.9 196.85 81.5 195.91 77.11 194.83 72.79 193.54 68.54 192.1 64.37 190.44 60.26 188.57 56.16 186.55 52.2 184.39 48.31 182.02 44.57 179.42 40.9 176.76 37.37 173.88 33.91 170.93 30.67 167.76 27.5 164.45 24.48 161.06 21.67 157.54 18.94 153.86 16.42 150.12 14.04 146.23 11.88 142.2 9.79 138.17 7.99 134.06 6.34 129.89 4.9 125.57 3.6 121.25 2.52 116.93 1.58 112.54 0.94 108.07 0.43 103.68 0.07 99.22 0 94.75 0.07 90.29 0.43 85.9 0.94 81.5 1.58 77.11 2.52 72.79 3.6 68.54 4.9 64.37 6.34 60.19 7.99 56.16 9.79 52.2 11.88 48.31 14.04 44.57 16.42 40.9 18.94 37.37 21.67 33.91 24.48 30.6 27.5 27.5 30.67 24.48 33.91 21.6 37.37 18.94 40.9 16.42 44.57 14.04 48.31 11.81 52.2 9.79 56.16 7.99 60.26 6.34 64.37 4.82 68.54 3.53 72.79 2.45 77.11 1.58 81.5 0.86 85.9 0.36 90.36 0.07 94.75 0 99.22 0.07 103.68 0.36 108.07 0.86 112.54 1.58 116.93 2.45 121.32 3.53 125.64 4.82 129.89 6.34 134.06 7.99 138.17 9.79 142.27 11.81 146.23 14.04 150.12 16.42 153.86 18.94 157.54 21.6 161.06 24.48 164.52 27.5 167.76 30.6 170.93 33.91 173.95 37.37 176.76 40.9 179.5 44.57 182.02 48.31 184.39 52.2 186.55 56.16 188.64 60.19 190.44 64.37 192.1 68.54 193.54 72.79 194.83 77.11 195.91 81.5 196.85 85.9 197.5 90.29 198 94.75 198.36 99.22 198.43 103.68 198.36 108.07 198 112.54 197.5 116.93 196.85 121.25 195.91 125.57 194.83 129.89 193.54 134.06 192.1 138.17 190.44 142.2 188.64 146.23 186.55 150.12 184.39 153.86 182.02 157.54 179.5 161.06 176.76 164.45 173.95 167.76 170.93 170.93 167.76 173.88 164.52 176.76 161.06 179.42 157.54 182.02 153.86 184.39 150.12 186.55 146.23 188.57 142.27 190.44 138.17 192.1 134.06 193.54 129.89 194.83 125.64 195.91 121.32 196.85 116.93 197.5 112.54 198 108.07 198.29 103.68 198.43 99.22 198.43 99.22" fill="#056bb3" fill-rule="evenodd"/>
    <polygon points="60.2 63.96 64.7 74.84 37.64 86.04 33.14 75.15 60.2 63.96 60.2 63.96" fill="#fff" fill-rule="evenodd"/>
    <polygon points="81.24 46.18 88.75 55.23 66.22 73.93 58.7 64.86 81.24 46.18 81.24 46.18" fill="#fff" fill-rule="evenodd"/>
    <polygon points="90.89 50.71 90.86 50.09 90.76 49.48 90.59 48.88 90.38 48.31 90.1 47.76 89.75 47.25 89.37 46.77 88.93 46.33 88.45 45.95 87.94 45.6 87.39 45.32 86.82 45.11 86.22 44.94 85.61 44.84 85 44.81 84.37 44.84 83.76 44.94 83.17 45.11 82.59 45.32 82.05 45.6 81.54 45.95 81.06 46.33 80.61 46.77 80.23 47.25 79.89 47.76 79.62 48.31 79.39 48.88 79.22 49.48 79.14 50.09 79.11 50.71 79.14 51.32 79.22 51.93 79.39 52.53 79.62 53.1 79.89 53.65 80.23 54.18 80.61 54.66 81.06 55.08 81.54 55.48 82.05 55.81 82.59 56.09 83.17 56.3 83.76 56.47 84.37 56.57 85 56.6 85.61 56.57 86.22 56.47 86.82 56.3 87.39 56.09 87.94 55.81 88.45 55.48 88.93 55.08 89.37 54.66 89.75 54.18 90.1 53.65 90.38 53.1 90.59 52.53 90.76 51.93 90.86 51.32 90.89 50.71 90.89 50.71" fill="#fff" fill-rule="evenodd"/>
    <polygon points="68.35 69.4 68.32 68.79 68.22 68.18 68.05 67.58 67.84 67.01 67.56 66.45 67.21 65.94 66.83 65.46 66.4 65.03 65.91 64.63 65.4 64.3 64.85 64.02 64.28 63.79 63.68 63.64 63.07 63.54 62.46 63.51 61.83 63.54 61.22 63.64 60.63 63.79 60.05 64.02 59.51 64.3 58.99 64.63 58.52 65.03 58.07 65.46 57.69 65.94 57.36 66.45 57.08 67.01 56.85 67.58 56.7 68.18 56.6 68.79 56.57 69.4 56.6 70.01 56.7 70.62 56.85 71.21 57.08 71.79 57.36 72.35 57.69 72.86 58.07 73.34 58.52 73.77 58.99 74.17 59.51 74.5 60.05 74.78 60.63 75.01 61.22 75.15 61.83 75.25 62.46 75.29 63.07 75.25 63.68 75.15 64.28 75.01 64.85 74.78 65.4 74.5 65.91 74.17 66.4 73.77 66.83 73.34 67.21 72.86 67.56 72.35 67.84 71.79 68.05 71.21 68.22 70.62 68.32 70.01 68.35 69.4 68.35 69.4" fill="#fff" fill-rule="evenodd"/>
    <polygon points="41.29 80.6 41.26 79.97 41.16 79.36 40.99 78.77 40.78 78.19 40.5 77.64 40.17 77.13 39.77 76.66 39.34 76.21 38.86 75.83 38.33 75.48 37.79 75.2 37.21 74.99 36.62 74.83 36.01 74.73 35.4 74.69 34.79 74.73 34.18 74.83 33.58 74.99 33.01 75.2 32.44 75.48 31.93 75.83 31.45 76.21 31.02 76.66 30.63 77.13 30.3 77.64 30.02 78.19 29.79 78.77 29.64 79.36 29.54 79.97 29.51 80.6 29.54 81.21 29.64 81.82 29.79 82.41 30.02 82.99 30.3 83.53 30.63 84.06 31.02 84.54 31.45 84.97 31.93 85.36 32.44 85.69 33.01 85.97 33.58 86.19 34.18 86.35 34.79 86.45 35.4 86.48 36.01 86.45 36.62 86.35 37.21 86.19 37.79 85.97 38.33 85.69 38.86 85.36 39.34 84.97 39.77 84.54 40.17 84.06 40.5 83.53 40.78 82.99 40.99 82.41 41.16 81.82 41.26 81.21 41.29 80.6 41.29 80.6" fill="#fff" fill-rule="evenodd"/>
    <polygon points="151.25 97.48 151.22 96.86 151.12 96.25 150.97 95.65 150.74 95.08 150.46 94.53 150.13 94.02 149.75 93.54 149.31 93.1 148.83 92.72 148.32 92.37 147.76 92.09 147.2 91.88 146.58 91.71 145.99 91.61 145.36 91.6 144.75 91.61 144.14 91.71 143.55 91.88 142.97 92.09 142.43 92.37 141.9 92.72 141.42 93.1 140.99 93.54 140.59 94.02 140.26 94.53 139.98 95.08 139.77 95.65 139.6 96.25 139.51 96.86 139.47 97.48 139.51 98.09 139.6 98.7 139.77 99.3 139.98 99.88 140.26 100.42 140.59 100.95 140.99 101.43 141.42 101.86 141.9 102.25 142.43 102.58 142.97 102.86 143.55 103.08 144.14 103.24 144.75 103.34 145.36 103.37 145.99 103.34 146.58 103.24 147.2 103.08 147.76 102.86 148.32 102.58 148.83 102.25 149.31 101.86 149.75 101.43 150.13 100.95 150.46 100.42 150.74 99.88 150.97 99.3 151.12 98.7 151.22 98.09 151.25 97.48 151.25 97.48" fill="#fff" fill-rule="evenodd"/>
    <polygon points="139.06 70.87 139.03 70.24 138.93 69.63 138.76 69.04 138.55 68.46 138.27 67.92 137.94 67.4 137.54 66.92 137.11 66.48 136.63 66.1 136.11 65.75 135.56 65.47 134.98 65.26 134.39 65.09 133.78 65 133.17 64.96 132.56 65 131.95 65.09 131.35 65.26 130.78 65.47 130.22 65.75 129.7 66.1 129.22 66.48 128.79 66.92 128.4 67.4 128.07 67.92 127.79 68.46 127.56 69.04 127.41 69.63 127.31 70.24 127.28 70.87 127.31 71.48 127.41 72.09 127.56 72.68 127.79 73.26 128.07 73.8 128.4 74.33 128.79 74.81 129.22 75.24 129.7 75.63 130.22 75.96 130.78 76.24 131.35 76.46 131.95 76.62 132.56 76.72 133.17 76.75 133.78 76.72 134.39 76.62 134.98 76.46 135.56 76.24 136.11 75.96 136.63 75.63 137.11 75.24 137.54 74.81 137.94 74.33 138.27 73.8 138.55 73.26 138.76 72.68 138.93 72.09 139.03 71.48 139.06 70.87 139.06 70.87" fill="#fff" fill-rule="evenodd"/>
    <polygon points="117.81 50.71 117.77 50.09 117.69 49.48 117.53 48.88 117.29 48.31 117.03 47.76 116.68 47.25 116.3 46.77 115.86 46.33 115.38 45.95 114.87 45.6 114.33 45.32 113.75 45.11 113.15 44.94 112.54 44.84 111.92 44.81 111.31 44.84 110.69 44.94 110.1 45.11 109.52 45.32 108.98 45.6 108.47 45.95 107.99 46.33 107.54 46.77 107.16 47.25 106.81 47.76 106.54 48.31 106.32 48.88 106.16 49.48 106.06 50.09 106.02 50.71 106.06 51.32 106.16 51.93 106.32 52.53 106.54 53.1 106.81 53.65 107.16 54.18 107.54 54.66 107.99 55.08 108.47 55.48 108.98 55.81 109.52 56.09 110.1 56.3 110.69 56.47 111.31 56.57 111.92 56.6 112.54 56.57 113.15 56.47 113.75 56.3 114.33 56.09 114.87 55.81 115.38 55.48 115.86 55.08 116.3 54.66 116.68 54.18 117.03 53.65 117.29 53.1 117.53 52.53 117.69 51.93 117.77 51.32 117.81 50.71 117.81 50.71" fill="#fff" fill-rule="evenodd"/>
    <polygon points="110.23 29.67 110.22 28.83 110.12 27.99 109.97 27.16 109.75 26.35 109.49 25.55 109.18 24.77 108.8 24.03 108.37 23.3 107.89 22.61 107.36 21.95 106.78 21.34 106.17 20.76 105.51 20.24 104.82 19.76 104.11 19.33 103.35 18.95 102.58 18.64 101.78 18.37 100.96 18.16 100.13 18.01 99.29 17.91 98.45 17.89 97.62 17.91 96.78 18.01 95.96 18.16 95.13 18.37 94.34 18.64 93.56 18.95 92.81 19.33 92.1 19.76 91.4 20.24 90.74 20.76 90.13 21.34 89.56 21.95 89.03 22.61 88.55 23.3 88.12 24.03 87.74 24.77 87.43 25.55 87.16 26.35 86.95 27.16 86.8 27.99 86.7 28.83 86.68 29.67 86.7 30.51 86.8 31.35 86.95 32.18 87.16 32.98 87.43 33.79 87.74 34.57 88.12 35.31 88.55 36.04 89.03 36.73 89.56 37.39 90.13 38 90.74 38.58 91.4 39.1 92.1 39.58 92.81 40.01 93.56 40.39 94.34 40.7 95.13 40.97 95.96 41.18 96.78 41.33 97.62 41.41 98.45 41.45 99.29 41.41 100.13 41.33 100.96 41.18 101.78 40.97 102.58 40.7 103.35 40.39 104.11 40.01 104.82 39.58 105.51 39.1 106.17 38.58 106.78 38 107.36 37.39 107.89 36.73 108.37 36.04 108.8 35.31 109.18 34.57 109.49 33.79 109.75 32.98 109.97 32.18 110.12 31.35 110.22 30.51 110.23 29.67 110.23 29.67" fill="#fff" fill-rule="evenodd"/>
    <polygon points="68.56 163.76 68.53 163.14 68.45 162.53 68.3 161.92 68.1 161.32 67.86 160.76 67.56 160.22 67.19 159.71 66.8 159.23 66.37 158.78 65.89 158.39 65.38 158.04 64.84 157.73 64.26 157.48 63.66 157.28 63.07 157.13 62.44 157.05 61.83 157.04 61.21 157.05 60.59 157.13 59.98 157.28 59.39 157.48 58.83 157.73 58.28 158.04 57.77 158.39 57.3 158.78 56.85 159.23 56.45 159.71 56.11 160.22 55.81 160.76 55.55 161.32 55.35 161.92 55.22 162.53 55.13 163.14 55.1 163.76 55.13 164.38 55.22 165 55.35 165.6 55.55 166.19 55.81 166.77 56.11 167.31 56.45 167.82 56.85 168.3 57.3 168.73 57.77 169.13 58.28 169.49 58.83 169.78 59.39 170.03 59.98 170.23 60.59 170.38 61.21 170.46 61.83 170.5 62.44 170.46 63.07 170.38 63.66 170.23 64.26 170.03 64.84 169.78 65.38 169.49 65.89 169.13 66.37 168.73 66.8 168.3 67.19 167.82 67.56 167.31 67.86 166.77 68.1 166.19 68.3 165.6 68.45 165 68.53 164.38 68.56 163.76 68.56 163.76" fill="#fff" fill-rule="evenodd"/>
    <polygon points="140.36 165.4 140.33 164.77 140.25 164.16 140.1 163.55 139.9 162.97 139.66 162.4 139.34 161.85 139 161.34 138.6 160.86 138.15 160.42 137.67 160.02 137.16 159.68 136.62 159.38 136.06 159.12 135.46 158.92 134.87 158.78 134.24 158.7 133.63 158.67 133 158.7 132.39 158.78 131.78 158.92 131.19 159.12 130.63 159.38 130.08 159.68 129.57 160.02 129.09 160.42 128.65 160.86 128.25 161.34 127.91 161.85 127.59 162.4 127.34 162.97 127.14 163.55 127.01 164.16 126.92 164.77 126.9 165.4 126.92 166.03 127.01 166.63 127.14 167.25 127.34 167.82 127.59 168.4 127.91 168.94 128.25 169.46 128.65 169.93 129.09 170.38 129.57 170.78 130.08 171.12 130.63 171.42 131.19 171.68 131.78 171.88 132.39 172.01 133 172.09 133.63 172.13 134.24 172.09 134.87 172.01 135.46 171.88 136.06 171.68 136.62 171.42 137.16 171.12 137.67 170.78 138.15 170.38 138.6 169.93 139 169.46 139.34 168.94 139.66 168.4 139.9 167.82 140.1 167.25 140.25 166.63 140.33 166.03 140.36 165.4 140.36 165.4" fill="#fff" fill-rule="evenodd"/>
    <polygon points="111.92 98.67 111.9 98.05 111.8 97.44 111.67 96.83 111.47 96.23 111.22 95.67 110.91 95.13 110.56 94.61 110.17 94.14 109.72 93.69 109.24 93.3 108.73 92.95 108.19 92.64 107.62 92.39 107.03 92.19 106.42 92.06 105.81 91.96 105.18 91.94 104.57 91.96 103.94 92.06 103.35 92.19 102.76 92.39 102.2 92.64 101.65 92.95 101.14 93.3 100.66 93.69 100.22 94.14 99.82 94.61 99.47 95.13 99.16 95.67 98.91 96.23 98.71 96.83 98.56 97.44 98.48 98.05 98.45 98.67 98.48 99.3 98.56 99.91 98.71 100.52 98.91 101.1 99.16 101.67 99.47 102.22 99.82 102.73 100.22 103.21 100.66 103.65 101.14 104.05 101.65 104.39 102.2 104.69 102.76 104.96 103.35 105.14 103.94 105.28 104.57 105.37 105.18 105.4 105.81 105.37 106.42 105.28 107.03 105.14 107.62 104.96 108.19 104.69 108.73 104.39 109.24 104.05 109.72 103.65 110.17 103.21 110.56 102.73 110.91 102.22 111.22 101.67 111.47 101.1 111.67 100.52 111.8 99.91 111.9 99.3 111.92 98.67 111.92 98.67" fill="#fff" fill-rule="evenodd"/>
    <polygon points="98.45 98.67 98.43 98.05 98.35 97.44 98.2 96.83 98 96.23 97.76 95.67 97.44 95.13 97.1 94.61 96.7 94.14 96.25 93.69 95.78 93.3 95.27 92.95 94.72 92.64 94.16 92.39 93.56 92.19 92.97 92.06 92.34 91.96 91.73 91.94 91.11 91.96 90.5 92.06 89.89 92.19 89.29 92.39 88.73 92.64 88.19 92.95 87.67 93.3 87.2 93.69 86.75 94.14 86.35 94.61 86.01 95.13 85.69 95.67 85.45 96.23 85.25 96.83 85.12 97.44 85.02 98.05 85 98.67 85.02 99.3 85.12 99.91 85.25 100.52 85.45 101.1 85.69 101.67 86.01 102.22 86.35 102.73 86.75 103.21 87.2 103.65 87.67 104.05 88.19 104.39 88.73 104.69 89.29 104.96 89.89 105.14 90.5 105.28 91.11 105.37 91.73 105.4 92.34 105.37 92.97 105.28 93.56 105.14 94.16 104.96 94.72 104.69 95.27 104.39 95.78 104.05 96.25 103.65 96.7 103.21 97.1 102.73 97.44 102.22 97.76 101.67 98 101.1 98.2 100.52 98.35 99.91 98.43 99.3 98.45 98.67 98.45 98.67" fill="#fff" fill-rule="evenodd"/>
    <polygon points="74.98 127.3 74.95 126.67 74.87 126.06 74.72 125.45 74.52 124.86 74.28 124.3 73.96 123.76 73.61 123.25 73.22 122.77 72.77 122.32 72.29 121.92 71.78 121.58 71.24 121.27 70.68 121.02 70.08 120.82 69.49 120.67 68.86 120.59 68.25 120.56 67.62 120.59 67.01 120.67 66.4 120.82 65.81 121.02 65.25 121.27 64.7 121.58 64.19 121.92 63.71 122.32 63.27 122.77 62.87 123.25 62.53 123.76 62.21 124.3 61.97 124.86 61.77 125.45 61.63 126.06 61.54 126.67 61.52 127.3 61.54 127.91 61.63 128.54 61.77 129.13 61.97 129.73 62.21 130.3 62.53 130.85 62.87 131.36 63.27 131.84 63.71 132.27 64.19 132.66 64.7 133.03 65.25 133.32 65.81 133.57 66.4 133.77 67.01 133.91 67.62 134 68.25 134.03 68.86 134 69.49 133.91 70.08 133.77 70.68 133.57 71.24 133.32 71.78 133.03 72.29 132.66 72.77 132.27 73.22 131.84 73.61 131.36 73.96 130.85 74.28 130.3 74.52 129.73 74.72 129.13 74.87 128.54 74.95 127.91 74.98 127.3 74.98 127.3" fill="#fff" fill-rule="evenodd"/>
    <polygon points="119.29 134.95 119.26 134.33 119.18 133.72 119.03 133.11 118.83 132.53 118.58 131.95 118.28 131.41 117.92 130.9 117.53 130.42 117.1 129.97 116.62 129.58 116.09 129.23 115.56 128.94 114.98 128.67 114.39 128.47 113.8 128.34 113.17 128.26 112.56 128.22 111.93 128.26 111.32 128.34 110.71 128.47 110.12 128.67 109.56 128.94 109.01 129.23 108.5 129.58 108.02 129.97 107.58 130.42 107.18 130.9 106.83 131.41 106.54 131.95 106.27 132.53 106.07 133.11 105.94 133.72 105.84 134.33 105.83 134.95 105.84 135.58 105.94 136.19 106.07 136.8 106.27 137.4 106.54 137.96 106.83 138.5 107.18 139.01 107.58 139.49 108.02 139.94 108.5 140.33 109.01 140.68 109.56 140.97 110.12 141.24 110.71 141.44 111.32 141.57 111.93 141.65 112.56 141.68 113.17 141.65 113.8 141.57 114.39 141.44 114.98 141.24 115.56 140.97 116.09 140.68 116.62 140.33 117.1 139.94 117.53 139.49 117.92 139.01 118.28 138.5 118.58 137.96 118.83 137.4 119.03 136.8 119.18 136.19 119.26 135.58 119.29 134.95 119.29 134.95" fill="#fff" fill-rule="evenodd"/>
    <polygon points="74.87 128.46 61.62 126.13 55.2 162.59 68.47 164.92 74.87 128.46 74.87 128.46" fill="#fff" fill-rule="evenodd"/>
    <polygon points="139.16 161.57 128.09 169.22 107.01 138.78 118.09 131.13 139.16 161.57 139.16 161.57" fill="#fff" fill-rule="evenodd"/>
    <polygon points="150.73 95.03 140.02 99.94 127.6 73.41 138.52 68.41 150.73 95.03 150.73 95.03" fill="#fff" fill-rule="evenodd"/>
    <polygon points="111.92 44.81 85 44.81 85 98.67 111.92 98.67 111.92 44.81 111.92 44.81" fill="#fff" fill-rule="evenodd"/>
    <polygon points="137.21 66.58 129.11 75.14 107.87 54.98 115.97 46.42 137.21 66.58 137.21 66.58" fill="#fff" fill-rule="evenodd"/>
    <polygon points="96.93 102.94 73.45 131.57 63.04 123.03 86.52 94.4 96.93 102.94 96.93 102.94" fill="#fff" fill-rule="evenodd"/>
    <polygon points="111.78 97.34 98.6 100.01 105.96 136.29 119.14 133.62 111.78 97.34 111.78 97.34" fill="#fff" fill-rule="evenodd"/>
  </g>
</svg>
