<svg id="Layer_1" data-name="Layer 1" xmlns="http://www.w3.org/2000/svg" width="70mm" height="70mm" viewBox="0 0 198.43 198.43">
  <title>m025</title>
  <g id="symbolgrp">
    <polygon points="198.43 99.22 198.29 94.75 198 90.36 197.5 85.9 196.85 81.5 195.91 77.11 194.83 72.79 193.53 68.54 192.1 64.37 190.44 60.26 188.57 56.16 186.55 52.2 184.39 48.31 182.02 44.57 179.42 40.9 176.76 37.37 173.88 33.91 170.93 30.67 167.76 27.5 164.45 24.48 161.06 21.67 157.53 18.94 153.86 16.42 150.12 14.04 146.23 11.88 142.2 9.79 138.17 7.99 134.06 6.34 129.89 4.9 125.57 3.6 121.25 2.52 116.93 1.58 112.53 0.94 108.07 0.43 103.68 0.07 99.22 0 94.75 0.07 90.29 0.43 85.9 0.94 81.5 1.58 77.11 2.52 72.79 3.6 68.54 4.9 64.37 6.34 60.19 7.99 56.16 9.79 52.2 11.88 48.31 14.04 44.57 16.42 40.9 18.94 37.37 21.67 33.91 24.48 30.6 27.5 27.5 30.67 24.48 33.91 21.6 37.37 18.94 40.9 16.42 44.57 14.04 48.31 11.81 52.2 9.79 56.16 7.99 60.26 6.34 64.37 4.82 68.54 3.53 72.79 2.45 77.11 1.58 81.5 0.86 85.9 0.36 90.36 0.07 94.75 0 99.22 0.07 103.68 0.36 108.07 0.86 112.54 1.58 116.93 2.45 121.32 3.53 125.64 4.82 129.89 6.34 134.06 7.99 138.17 9.79 142.27 11.81 146.23 14.04 150.12 16.42 153.86 18.94 157.54 21.6 161.06 24.48 164.52 27.5 167.76 30.6 170.93 33.91 173.95 37.37 176.76 40.9 179.5 44.57 182.02 48.31 184.39 52.2 186.55 56.16 188.64 60.19 190.44 64.37 192.1 68.54 193.54 72.79 194.83 77.11 195.91 81.5 196.85 85.9 197.5 90.29 198 94.75 198.36 99.22 198.43 103.68 198.36 108.07 198 112.53 197.5 116.93 196.85 121.25 195.91 125.57 194.83 129.89 193.54 134.06 192.1 138.17 190.44 142.2 188.64 146.23 186.55 150.12 184.39 153.86 182.02 157.53 179.5 161.06 176.76 164.45 173.95 167.76 170.93 170.93 167.76 173.88 164.52 176.76 161.06 179.42 157.54 182.02 153.86 184.39 150.12 186.55 146.23 188.57 142.27 190.44 138.17 192.1 134.06 193.53 129.89 194.83 125.64 195.91 121.32 196.85 116.93 197.5 112.54 198 108.07 198.29 103.68 198.43 99.22 198.43 99.22" fill="#056bb3" fill-rule="evenodd"/>
    <path d="M332.75,395h-6.42l-1.3,0h-.63l-.63.14-1.23.42.39,1.51.21,1.54,0,1.58-.21,1.54,2.07.35,2.07.21,2.1.14,2.11,0,.31-1.86.39-1.86.81-3.64Zm-2.07,10.8-.35,1.47-.53,1.4-1.33,2.73-2.63,5.43-.74,1.33-.81,1.3-.88,1.23-.95,1.19L321.42,423l-1.16,1-1.26.84-1.3.77L315,427l-2.74,1.33-2.7,1.37-1.3.77-1.23.84-.63.42-.7.32-1.37.67-2.63,1.51-1.33.7-1.4.6-1.44.45-.74.11-.77.07h-1.51l-1.51-.18-1.47-.38-1.44-.56-1.33-.7-1.26-.84-2.38-1.82-2.38-1.86-1.26-.84-1.3-.77-1.37-.67-1.4-.6-2.77-1.19-2.7-1.37-1.33-.74-1.26-.84-.56-.49-.53-.56-1-1.16-.84-1.26-.81-1.3-.7-1.33-.63-1.37-.6-1.4-.53-1.4-.91-2.91-.39-1.44-.35-1.47,2.63,0,2.6.07h1.3l1.3,0,1.3-.21,1.26-.32,1,1.19,1.19,1,1.3.88,1.4.7,1.51.49,1.54.28,1.58.07,1.54-.14,1.54-.35,1.47-.56,1.37-.74,1.26-.95,1.16-1.09.95-.91,1.12-.77,1.19-.56,1.3-.42,1.3-.21H297l1.3.21,1.3.42,1.19.56,1.12.77.95.91,1.12,1.09,1.26.91,1.37.74,1.47.56,1.51.35,1.54.18,1.55-.07,1.54-.28,1.47-.46,1.4-.67,1.33-.84,1.16-1,1.05-1.16.88-1.26,4.52.6,1.16.11,1.16,0,2.28,0Zm2.88-14.65L334,389l.32-2.24.14-2.21v-2.24l0-4.49-.11-2.24-.18-2.24-.25-2.24-.42-2.17-.53-2.21-.63-2.14-.77-2.1-.46-1.05-.49-1-.6-1-.6-.91-1.4-1.75-1.51-1.68-1.58-1.58-.87-.74-.88-.67-.91-.67-1-.56-2-1.05-2-.95-4.17-1.65-2.14-.74-2.14-.63-2.17-.53-2.21-.39-4.46-.56-2.21-.32-2.24-.21-2.24,0-2.24.14-4.45.42-2.21.32-2.21.39-2.17.56-2.1.77-2,.95-2,1.05-1.93,1.16-.88.67-.88.7-1.65,1.54-1.58,1.61-1.51,1.65L264,357.44l-.67.88-.63.95-1.09,2-.91,2.07-.77,2.1-.67,2.14-.49,2.17-.18,1.12-.1,1.12,0,2.24.11,2.24.18,2.24.32,4.45.28,4.49.35,4.45,1.51,0,1.54,0,1.51-.07h1.51l3,.17,3.05.25.95-1.16,1.09-1,1.19-.88,1.3-.7,1.4-.53,1.44-.39,1.47-.14h1.51l1.47.25,1.44.39,1.37.6,1.3.74,1.16.91,1.19.91,1.26.74,1.4.56,1.4.39,1.47.21h1.51l1.47-.21,1.4-.39,1.4-.56,1.26-.74,1.19-.91,1.16-.91,1.3-.74,1.37-.6,1.44-.39,1.44-.25h1.51l1.47.14,1.44.35,1.4.53,1.3.7,1.19.88,1.09,1,.95,1.12,3.16-.49,3.16-.39,3.16-.25,3.19-.07Zm32.13,72.42-.49-3.54-.7-3.47-.91-3.43-1.09-3.36-1.3-3.3-1.05-2.24-1.23-2.14-1.44-2-1.58-1.89-1.75-1.75-1.89-1.58-2-1.44-2.14-1.23-2.25-1.05-4.07-1.58-4.17-1.4L333.38,427l-4.28-1-4.31-.77,1-1.16.88-1.16.81-1.12.74-1.19.7-1.19.63-1.19.6-1.19.56-1.16.49-1.09.53-1.05.53-1.05.6-1.16.6-1.3.53-1.44.46-1.54.28-1.44.56-.07.25-.14.21-.17.18-.21.1-.28.18-.6v-.56l0-.28-.11-.25-.14-.25-.21-.17-.49-.32.31-1.75.42-1.79.81-3.79.7-.14.35-.14.28-.18.25-.25.17-.25.07-.35.07-.35v-.74l-.11-.74-.14-.32-.21-.21-.28-.14-.35-.07L338,389l.18-1.23.11-1.3.11-1.26V384l0-2.35,0-2.24,0-2.31-.14-2.35-.18-2.42-.35-2.42-.46-2.42-.6-2.38-.74-2.31-.46-1.19-.46-1.19-.56-1.19-.63-1.23-.74-1.16-.77-1.09-.81-1-.81-.95L329,352l-.88-.88-1-.91-1-.84-1.05-.81-1.12-.7-1.09-.67-2.24-1.16-2.21-1-4.35-1.68-2.28-.77-2.35-.7-2.38-.53-2.46-.39-2.28-.28-2.11-.28-1.12-.18-1.16-.14-1.26-.14-1.26-.1h-2.56l-2.39.14-2.31.21-2.35.25-2.35.35-2.42.46-1.26.31-1.23.39-1.23.42-1.19.46-2.24,1.05-2.21,1.16-1.09.67-1.09.74-1.05.77-1,.84-.95.88-.88.84L264,351.48l-1.61,1.75-.84.95-.81,1-.77,1.09-.7,1.12-.67,1.12-.56,1.16L257,361.93l-.84,2.35-.7,2.38-.32,1.23-.25,1.26-.18,1.3-.14,1.37,0,1.3v1.26l.11,2.42.17,2.28.32,4.38.28,4.45.35,4.56-.63.25-.25.18-.21.21-.14.28-.1.32,0,.67,0,.35.07.32.14.28.21.21.28.18.32.11.67.11,1,7.71-.31.1-.28.21-.21.25-.21.28-.25.6,0,.67.14.7.14.32.21.21.32.11.32,0,.74,0,.6,2.73.77,2.66.95,2.63,1.12,2.56.63,1.3.67,1.26.77,1.23.84,1.26,1,1.23.56.63.63.63.67.6.74.56.7.46.67.39-4.31.81-4.24,1-4.21,1.16L252,431.47l-4.1,1.54-2.24,1-2.17,1.19-2.07,1.37-1.93,1.54-1.79,1.72L236,441.67l-1.47,2-1.33,2.1L232.06,448l-1.44,3.29-1.26,3.37-1,3.43-.88,3.51v.74l.25.67.84,1.26.95,1.19,1.09,1.05.6-3.47.81-3.44,1-3.4,1.23-3.29,1.37-3.26,1-1.89,1.12-1.82,1.3-1.72,1.44-1.61,1.58-1.47,1.65-1.33,1.79-1.19,1.89-1.05,2-.88,4.17-1.54,4.28-1.37,4.31-1.16,4.35-1,4.42-.77,4.42-.53,1.33.53.6.25.53.28,1.05.53,1,.67,1.05.74,1.05.81,1.12.91,1.23.95,1.33,1,1.51.95.84.46.88.42.91.35.91.28.91.28.95.17.95.14.95.11,1,0,1,0,1-.14,1-.17.95-.25.95-.32.88-.32.81-.39,1.54-.81,1.33-.77,1.19-.7,1.05-.53.24-.11.28-.14.25-.11.31-.14.49-.28.24-.14.21-.14.11-.07,0,0,.11-.1.24-.17.49-.32,1.05-.67,1.12-.6,1.23-.63,1.26-.6,1.37-.63,1.37-.7,1.4-.74,1.4-.81,4.21.6,4.17.77,4.17,1,4.07,1.19,4,1.37,2.11.88,2,1,1.93,1.19,1.82,1.33,1.72,1.47,1.58,1.61,1.47,1.72,1.3,1.82,1.19,1.93,1,2,.84,2.1,1.33,4,1.16,4,1,4.07.77,4.1,1.44-.6,1.26-.84.46-.49.25-.63,0-.63ZM260,395.51l2.52-.17,2.52-.11,1.26,0,1.3.11,2.49.35-.35,1.44-.18,1.44,0,1.47.18,1.44.39,1.44-1.12.28-1.12.14-2.31.1h-2.31l-2.31-.18-1-7.78Zm31.81-38.91.84-.07.95-.1,2-.32,2-.46,1-.18.53-.07.46-.21.21-.18.14-.21,0-.28,0-.25-.1-.25-.18-.21-.46-.25-.49-.14-.53-.07H295.4l-.21-.1-.14-.25,0-.11.07-.1.53-.18.91-.42.53-.14.25,0,.21-.18.11-.21,0-.28-.18-.21-.21-.14L297,351l-.28,0h-.25l-.25-.07-.35-.35-.21-.14-.25-.07-2.1-.11-2,0-1.05,0-1-.07-2-.21-2.07-.11-.53-.07-.49-.11-.46-.25-.21-.11-.28,0-.11.07,0,.14,0,.28.25.42.46.95.18.18.21.14.49.14,1,.28,2,.46,2,.6,1,.18,1,0,1.05,0,.49,0,.14,0,.11.07v.28l-.18.18-.25.1-.53.14-.95.32-1,.11h-1.05l-2.07.17-1,.21-.49.18-.46.28-.11.25.07.25.14.25.18.18.42.21.39.11h.67l.6,0,1.16,0,.46,0h.35l.35,0h.42l.46,0h.7l0,0Zm-.25,5,2.28,0,2.31-.14,1.12-.11,1.16-.21,1.12-.25,1.09-.32,1.09-.42,1-.49,1-.56,1-.6,1.89-1.33,1.86-1.37.84-.77.77-.81.84-.81.49-.39.42-.42.11-.21,0-.28-.1-.56-.18-1.19-.11-.25-.18-.21-.21-.21-.28-.17-.25,0-.21.14-.38.56-.35.49-.35.42-.77.77-1.72,1.54L305.15,355l-1.82,1.37-1,.6-1,.6-1.05.53-1.05.42-1.12.32-1.12.17-2.31.07h-2.28l-2.31-.21-2.28-.32-1.12-.18-.56-.14-.56-.21-.53-.35-.18-.21-.11-.25v-.28l0-.28.1-.6v-.14l-.07-.11-.28-.14-.53-.28-.25-.11-.28-.07-.56-.1-.28-.1-.14,0-.1.07-.21.25-.14.25-.14.56v.56l.11.56.25.53.35.46.39.42.88.77,1,.6,1.05.49,1.09.35,2.28.42,1.12.25.56.07.6,0Zm.21,63.73,1.23.38,1.26.25,1.26.11h1.26l2.56-.14,1.26-.1,1.26-.25,1.23-.35.63-.21.56-.28.53-.35.46-.46.38-.53.21-.6,0-.32,0-.32-.07-.32-.17-.32-.11-.11-.14,0-.32.07-.6.28-1,.74-.6.25-.63.17-1.26.21-1.26.18-1.26.07-1.26,0-2.56,0-1.26-.14-1.26-.28-1.19-.39-1.23-.46-.53-.32-.28-.18-.32-.07-.32.07-.25.21-.11.28v.31l.21.63.14.28.21.25.49.42.53.38.56.35.56.28,1.19.39Zm7.64-14.09-.32,0-.31.11-.28.21-.24.25-.21.32-.14.35-.11.39-.07.42,0,.39.07.42.14.35.18.35.25.28.24.21.28.18.31.07h.32l.32-.07.31-.18.25-.21.25-.28.17-.35.14-.35.07-.42v-.39l0-.42-.11-.39-.17-.35-.18-.32-.28-.25-.28-.21-.28-.11-.32,0Zm-5.72.28-.32,0-.32.1-.28.18-.25.28-.21.28-.14.39-.1.39,0,.39V414l.07.39.14.39.17.32.25.32.25.21.32.14.28.07h.35l.28-.07.32-.14.25-.21.25-.32.17-.32.14-.39.07-.39v-.42l0-.39-.11-.39-.14-.39-.21-.28-.25-.28-.28-.18-.32-.1-.32,0Z" transform="translate(-197.9 -321.79)" fill="#fff" fill-rule="evenodd"/>
  </g>
</svg>
