<svg id="Layer_1" data-name="Layer 1" xmlns="http://www.w3.org/2000/svg" width="70mm" height="70mm" viewBox="0 0 198.42 198.42">
  <title>m026</title>
  <g id="symbolgrp">
    <path d="M297.12,520.22A99.21,99.21,0,1,0,197.91,421a99.22,99.22,0,0,0,99.21,99.18Z" transform="translate(-197.91 -321.8)" fill="#056bb3" fill-rule="evenodd"/>
    <path d="M280.38,381.27l-20.23,6.83-14,22.79-.27.38-.29.35-.33.31-.36.28-.39.25-.42.2-.43.15-.45.1-.46.06h-.46l-.46,0-.45-.1-.45-.13-.42-.18-.4-.21-.38-.27-.35-.31-.32-.33-.28-.36-.24-.39-.2-.42-.15-.43-.1-.45-.06-.46v-.46l0-.45.08-.46.14-.43.18-.43.21-.4,14.87-24.12.25-.35.28-.33.31-.31.34-.27.36-.24.39-.2.4-.17,24.54-8.3v9.27Zm39.56,30.41v49.83h-3.6L320,492l.06.66v.64l-.06.64-.1.64-.17.63-.21.61-.26.59L319,497l-.35.54-.4.5-.45.47-.47.43-.5.4-.54.35-.57.31-.6.25-.6.21-.63.17-.64.1-.64.06h-.65l-.64-.06-.64-.11-.61-.17-.61-.21-.6-.27-.56-.31-.54-.35-.52-.4-.47-.43-.43-.49-.39-.5-.35-.54-.31-.57-.27-.6-.21-.61-.15-.63-.1-.63-3.93-32.37h-6.91l-3.93,32.37-.1.63-.17.63-.2.61-.26.6-.31.57-.35.54-.39.5-.45.49-.47.43-.5.4-.54.35-.57.31-.59.27-.61.21-.63.17-.63.11-.66.06h-.64l-.64-.06-.64-.1-.63-.17-.61-.21-.59-.25-.57-.31-.54-.35-.5-.4-.49-.43L276,498l-.4-.5-.35-.54-.31-.57-.27-.59-.21-.61-.17-.63-.11-.64-.06-.64v-.64l.06-.66,3.7-30.47h-3.6V411.69H257.43v-4.36H274.3l6.08-22.76V384l-18.5,6.26-13.53,22-.35.52-.38.47-.43.43-.46.4-.5.35-.52.32-.56.27-.57.22-.59.17-.6.11-.6.06h-.61l-.61,0-.6-.1-.6-.15-.57-.2-.56-.25-.53-.31-.52-.33-.47-.39-.43-.42-.4-.47-.35-.49-.32-.53-.27-.54-.22-.57-.17-.59-.11-.6-.06-.61v-.61l0-.61.1-.6.15-.59.2-.59.25-.56.31-.53,14.86-24.12.35-.5.38-.47.42-.43.46-.4.49-.35.52-.32.54-.27.57-.22,26.85-9.08.54-.15.56-.13.57-.07h27.19l.57.07.56.13.54.15,26.84,9.08.56.22.54.27.53.32.49.35.46.4.42.43.38.47.35.5,14.86,24.12.31.53.24.56.21.59.15.59.08.6.06.61V409l-.06.61-.12.6-.17.59-.21.57-.27.54-.32.53-.36.49-.39.47-.45.42-.47.39-.5.33-.53.31-.56.25-.59.2-.59.15-.6.1-.61,0h-.62l-.61-.06-.6-.11-.59-.17-.57-.22-.54-.27-.53-.32-.49-.35-.46-.4-.43-.43-.39-.47-.34-.52-13.55-22L313.84,384v.53l6.1,22.76h16.86v4.36Zm35.65-5.41-14.86-24.12-.25-.35-.28-.33-.31-.31-.33-.27-.38-.24-.38-.2-.4-.17L313.84,372v9.27l20.24,6.83,14,22.79.25.38.31.35.33.31.36.28.39.25.42.2.43.15.45.1.46.06H352l.45,0,.46-.1.43-.13.43-.18.4-.21.38-.27.35-.31.31-.33.28-.36.24-.39.21-.42.14-.43.11-.45.06-.46v-.46l0-.45-.08-.46-.13-.43-.18-.43-.22-.4ZM308,371H286.22v13.08H308V371Zm-27.49,90.52L276.8,492.3l0,.52v.5l.06.52.11.49.17.49.21.47.25.43.29.42.33.39.36.35.4.32.43.27.46.24.47.18.49.13.52.1.5,0h.52l.5-.06.5-.11.47-.17.47-.21.45-.25.42-.29.38-.34.35-.38.32-.41.27-.43.24-.45.18-.47.14-.5.08-.5,3.89-32Zm22.67,0,3.89,32,.08.5.14.5.18.47.22.45.28.43.31.41.35.38.39.34.42.29.45.25.46.21.49.17.5.11.5.06h.52l.5,0,.5-.1.5-.12.47-.18.45-.24.43-.27.4-.32.38-.35.34-.39.29-.42.25-.43.21-.47.17-.49.11-.49.06-.52v-.5l0-.52-3.74-30.79Z" transform="translate(-197.91 -321.8)" fill="#fff" fill-rule="evenodd"/>
    <path d="M307.21,352.41l0-.72-.08-.71-.12-.71-.18-.7-.22-.68-.28-.67-.32-.64-.36-.61-.42-.6-.45-.56-.49-.53-.53-.49-.56-.46-.6-.4-.61-.36-.64-.32-.67-.28-.68-.24-.7-.17-.71-.13-.71-.08-.73,0-.71,0-.73.08-.7.13-.7.17-.68.24-.67.28-.64.32-.63.36-.59.4-.56.46-.53.49-.49.53-.46.56-.4.6-.36.61-.32.64-.28.67-.24.68-.17.7-.13.71-.08.71,0,.72,0,.71.08.73.13.71.17.7.24.68.28.66.32.66.36.61.4.59.46.57.49.52.53.5.56.45.59.42.63.36.64.32.67.28.68.22.7.18.7.13.73.08h1.44l.71-.08.71-.13.7-.18.68-.22.67-.28.64-.32.61-.36.6-.42.56-.45.53-.5.49-.52.45-.57.42-.59.36-.61.32-.66.28-.66.22-.68.18-.7.13-.71.08-.73,0-.71Zm2.61,0,0-.79-.07-.8-.12-.79-.17-.78-.22-.77-.28-.75-.31-.73-.36-.71-.42-.7-.45-.66-.49-.63-.53-.6-.56-.57-.6-.52-.63-.5-.67-.45-.68-.4-.71-.36-.73-.32-.75-.26-.77-.22-.78-.18-.78-.11-.8-.08-.81,0-.8,0-.8.08-.78.11-.78.18-.77.22-.75.26-.73.32-.71.36-.7.4-.66.45-.63.5-.6.52-.57.57-.52.6-.5.63-.45.66-.4.7-.36.71-.32.73-.27.75-.22.77-.17.78-.13.79-.08.8,0,.79,0,.79.08.79.13.8.17.77.22.77.27.75.32.74.36.71.4.68.45.66.5.64.52.6.57.56.6.53.63.49.66.45.7.4.71.36.73.32.75.28.77.22.78.17.78.13.8.07.8,0,.81,0,.8-.07.78-.13.78-.17.77-.22.75-.28.73-.32.71-.36.68-.4.67-.45.63-.49.6-.53.56-.56.53-.6.49-.64.45-.66.42-.68.36-.71.31-.74.28-.75.22-.77.17-.77.13-.8.07-.79,0-.79Z" transform="translate(-197.91 -321.8)" fill="#fff" fill-rule="evenodd"/>
  </g>
</svg>
