<svg xmlns="http://www.w3.org/2000/svg" width="100" height="100" viewBox="0 0 100 100">
  <title>p002</title>
  <g id="symbolgrp">
     <polyline points="39.88 76.34 83.14 47.08 78.89 40.78 35.62 70.04" style="fill: none;stroke: #000;stroke-miterlimit: 2.6131;stroke-width: 3.5275985159780974px"/>
    <path d="M38.9,79l-6.14-9.08m2.79,11.34-6.14-9.08" transform="translate(0 0)" style="fill: none;stroke: #000;stroke-miterlimit: 2.6131;stroke-width: 2.771766260486337px"/>
    <path d="M19.51,41.33c1.13,1.59.5,3.76-1,5-.52.45-.47.48-1,.9-3.54,3-1.3,6.88.7,7.48,1.51.46,2.31.2,4.87-.22,2.1-.34,3.39.29,4.28,1.73,1,1.59-.41,3.73-.74,6.24a8,8,0,0,0-.08,3.31,16.5,16.5,0,0,0,2.31,5.4M27.14,36.43c1.15,1.66.8,5.15-.86,6.19-.58.36-.54.4-1.09.74-4,2.41-2.36,6.59-.48,7.5,1.42.69,2.48.45,5.07.27,2.88-.21,3.81.37,4.71,1.81,1.49,2.38.13,4.52-1.74,6.52-.91,1-1.3,1.53-1.67,3.88a7.32,7.32,0,0,0,1.3,5.53" transform="translate(0 0)" style="fill: none;stroke: #000;stroke-miterlimit: 2.6131;stroke-width: 2.5197751398020203px"/>
   <path d="M100,50l-.07-2.25-.14-2.25-.25-2.21-.36-2.21-.44-2.21-.54-2.18-.65-2.14-.73-2.1L96,30.33l-.94-2-1-2-1.09-2-1.2-1.89-1.31-1.85-1.34-1.78-1.45-1.74-1.49-1.63-1.6-1.6-1.67-1.52-1.7-1.42L79.39,9.54,77.54,8.27l-1.92-1.2L73.69,6l-2-1.05L69.63,4l-2.07-.83-2.14-.76-2.14-.62L61.1,1.23,58.93.8,56.71.44,54.46.18,52.25,0,50,0,47.75,0,45.5.18,43.29.44,41.07.8l-2.21.44-2.18.58-2.14.62-2.1.76L30.33,4l-2,.91L26.31,6l-2,1.09-1.89,1.2L20.61,9.54l-1.78,1.38-1.74,1.42-1.63,1.52-1.6,1.6-1.52,1.63-1.45,1.74L9.54,20.61,8.27,22.46l-1.2,1.89L6,26.31l-1,2-.91,2-.83,2.1-.76,2.1-.65,2.14-.54,2.18L.8,41.07.44,43.29.18,45.5,0,47.75,0,50l0,2.25.15,2.21.25,2.25L.8,58.93l.44,2.21.54,2.14.65,2.18.76,2.1L4,69.63l.91,2.07,1,2,1.12,2,1.2,1.89,1.27,1.85,1.34,1.78,1.45,1.74,1.52,1.63,1.6,1.6,1.63,1.52,1.74,1.42,1.78,1.38,1.85,1.27,1.89,1.2,2,1.09,2,1.05,2,.91,2.1.83,2.1.76,2.14.62,2.18.54,2.21.47,2.21.33,2.21.25,2.25.18L50,100l2.25,0,2.21-.18,2.25-.25,2.21-.33,2.18-.47,2.18-.54,2.14-.62,2.14-.76L69.63,96l2.07-.91,2-1.05,1.92-1.09,1.92-1.2,1.85-1.27,1.78-1.38,1.7-1.42,1.67-1.52,1.6-1.6,1.49-1.63,1.45-1.74,1.34-1.78,1.31-1.85,1.2-1.89,1.09-2,1-2L96,69.63l.83-2.07.73-2.1.65-2.18.54-2.14.44-2.21.36-2.21.25-2.25.14-2.21L100,50ZM81,75.33l1.27-1.6,1.16-1.67,1.09-1.74.94-1.78.91-1.81.8-1.85L87.85,63l.62-2,.51-2,.4-2,.29-2,.22-2,.11-2V49l-.11-2-.18-2-.33-2L89,41l-.51-2-.62-1.92-.69-1.92-.8-1.85-.91-1.81-1-1.78L83.42,28l-1.16-1.67L81,24.71l-1.31-1.52L78.27,21.7l-1.45-1.38L75.25,19l-1.6-1.23L72,16.58l-1.7-1.05-1.78-1-1.81-.87-1.89-.8-1.89-.73L61,11.54,59,11l-2-.44-2-.29-2-.22L51,10h-2l-2,.07-2,.22-2,.33-2,.4-2,.51L37,12.16l-1.89.69-1.89.83-1.81.87-1.78,1-1.71,1.09-1.67,1.16L24.67,19,81,75.33ZM75.33,81,19,24.67l-1.27,1.63-1.16,1.63-1.05,1.74-1,1.78-.91,1.81-.8,1.85L12.12,37,11.54,39l-.51,2-.44,2-.29,2-.22,2L10,49v2l.11,2,.22,2,.29,2L11,59l.47,2,.62,2,.73,1.89.8,1.85.87,1.81,1,1.81L16.58,72l1.16,1.67L19,75.29l1.34,1.52L21.7,78.3l1.49,1.38L24.71,81l1.6,1.23L28,83.42l1.74,1.09,1.78,1,1.81.87,1.85.8,1.92.73,1.92.58L41,89l2,.4,2,.33,2,.22L49,90h2l2-.11,2-.18,2-.33,2-.4,2-.51,2-.62,1.89-.73,1.85-.8,1.81-.87,1.78-1,1.74-1.05,1.67-1.16L75.33,81Z" transform="translate(0 0)" style="fill: #ec2227;fill-rule: evenodd"/>
  </g>
</svg>
