<svg id="Layer_1" data-name="Layer 1" xmlns="http://www.w3.org/2000/svg" width="70mm" height="70mm" viewBox="0 0 198.43 198.43">
  <title>p003</title>
  <g id="symbolgrp">
    <path d="M280.68,470.76a8.89,8.89,0,0,0-12.45,1.69c-3.12,3.92-3.22,9.47.54,12.46s9.54,1.9,13.06-1.64,2.6-9.52-1.16-12.51Z" transform="translate(-197.9 -321.79)" fill="#231f20" stroke="#231f20" stroke-miterlimit="2.61" stroke-width="1.71" fill-rule="evenodd"/>
    <path d="M272.4,470.12s10.68-3.61,14-8.77,2.27-10.28,5.31-15.12m0,0,1-1.4L343.74,385h10.51L284,467.28m71.92-83.39,1.29,9.91-51.76,60.44-1.67,1.62m0,0c-4,4.05-9.25,4.2-13.54,8.57s-7.2,15.59-7.2,15.59" transform="translate(-197.9 -321.79)" fill="none" stroke="#231f20" stroke-miterlimit="2.61" stroke-width="3"/>
    <path d="M283.41,476.9a10.68,10.68,0,0,1,3.84-7.45c1.19-4.21,2.25-4.71,2.25-4.71,2.41-3.38,9.95-5.94,9.95-5.94-5.68,1.4-6.94.28-6.94.28-4.13-.49-1.75-10.72-1.75-10.72s-1.26,4.2-1.68,6.45a14.23,14.23,0,0,1-1.26,4.27,22.44,22.44,0,0,1-1.75,3.37,8.91,8.91,0,0,1-3.36,2.59,31.91,31.91,0,0,1-2.8,1.68c-1,.49-2.32,1.71-3,2.06l6.54,8.12Z" transform="translate(-197.9 -321.79)" fill="#231f20" stroke="#231f20" stroke-miterlimit="2.61" stroke-width="1.07" fill-rule="evenodd"/>
    <path d="M275.73,465.52c-.49-3.82-10.9-8.38-16.39-7.79-6.68.72-11.27-5.7-11.27-5.7l3,.38-.24-1.49-2.36-1a16.28,16.28,0,0,1-8.92-12.35c2.38,2.17,7.06.58,7.06.58-13.36-13.52-4.86-33.9-4.86-33.9s4.55,7.27,5.73,5-6.93-20.56,22.16-37.16l11.08-6.67s-12.95,18.45,2.21,26l-.26-8.31s9.59,12.79,11.64,26.28c0,0,2.71,10.83,0,20,0,0-6.71,12.48-9.21,15.75-2.76,3.6-10.21,14.87-9.34,20.34Z" transform="translate(-197.9 -321.79)" fill="#231f20" stroke="#231f20" stroke-miterlimit="2.61" stroke-width="1.03" fill-rule="evenodd"/>
    <path d="M276.06,465.3s10.46-5.23,7.34-13.59l-3,3.54s-5.59,5.61-4.72,7.31l.41,2.74Z" transform="translate(-197.9 -321.79)" fill="#231f20" fill-rule="evenodd"/>
    <path d="M276.06,465.3s10.46-5.23,7.34-13.59m0,0-3,3.54m0,0s-5.59,5.61-4.72,7.31" transform="translate(-197.9 -321.79)" fill="none" stroke="#231f20" stroke-miterlimit="2.61" stroke-width="0.53"/>
    <path d="M252.14,415.4s-4.06,12.55,8.34,26.84a8,8,0,0,0-3.89.13c-3.63,1.29-7.53-3-7.53-3s2.7,12.55,16.21,14.65c0,0,7.68,0,10.15,6.2,0,0,.32-8.72,1.16-10.2s-.11-1.79,6.31-9-1.68-19.45-7.57-20.6c0,0,3.68,11.35,1.26,11.78,0,0-.84-11.36-15.66-11.78l2,2.84s-9,0-10.76-7.81Z" transform="translate(-197.9 -321.79)" fill="#fff" stroke="#fff" stroke-miterlimit="2.61" stroke-width="0.43" fill-rule="evenodd"/>
    <polygon points="82.34 43.42 83.81 42.93 82.83 44.26 82.34 43.42 82.34 43.42" fill="#231f20" fill-rule="evenodd"/>
    <path d="M396.34,421l-.14-4.46-.29-4.46-.5-4.39-.72-4.39-.86-4.39-1.08-4.32-1.3-4.25L390,386.16,388.34,382l-1.87-4-2-4-2.16-3.89-2.38-3.74-2.59-3.67-2.66-3.53-2.88-3.46-3-3.24-3.17-3.17-3.31-3L359,343.47l-3.53-2.74-3.67-2.52L348,335.83l-3.82-2.16-4-2.09-4.1-1.8-4.1-1.66-4.25-1.51-4.25-1.22-4.32-1.15-4.32-.86-4.39-.72-4.46-.5-4.39-.29-4.46-.07-4.46.07-4.46.29-4.39.5-4.39.72-4.39.86-4.32,1.15-4.25,1.22-4.18,1.51-4.18,1.66-4,1.8-4,2.09-3.89,2.16-3.74,2.38-3.67,2.52-3.53,2.74-3.46,2.81-3.24,3-3.17,3.17-3,3.24-2.88,3.46-2.66,3.53-2.52,3.67-2.38,3.74L209.71,374l-2,4-1.8,4-1.66,4.18-1.51,4.18-1.3,4.25-1.08,4.32-.86,4.39-.72,4.39-.5,4.39-.29,4.46L197.9,421l.07,4.46.29,4.39.5,4.46.72,4.39.86,4.39,1.08,4.25,1.3,4.32,1.51,4.18,1.66,4.1,1.8,4.1,2,4,2.23,3.89,2.38,3.74,2.52,3.67,2.66,3.53,2.88,3.46,3,3.24,3.17,3.17,3.24,3,3.46,2.81,3.53,2.74,3.67,2.52,3.74,2.38,3.89,2.16,4,2.09,4,1.8,4.18,1.66,4.18,1.51,4.25,1.22,4.32,1.08,4.39.94,4.39.65,4.39.5,4.46.36,4.46.07,4.46-.07,4.39-.36,4.46-.5,4.39-.65,4.32-.94,4.32-1.08,4.25-1.22,4.25-1.51,4.1-1.66,4.1-1.8,4-2.09,3.82-2.16,3.81-2.38,3.67-2.52,3.53-2.74,3.38-2.81,3.31-3,3.17-3.17,3-3.24,2.88-3.46,2.66-3.53,2.59-3.67,2.38-3.74,2.16-3.89,2-4,1.87-4.1,1.66-4.1,1.44-4.18,1.3-4.32,1.08-4.25.86-4.39.72-4.39.5-4.46.29-4.39.14-4.46Zm-37.8,50.26,2.52-3.17,2.3-3.31,2.16-3.46,1.87-3.53,1.8-3.6,1.58-3.67,1.44-3.74,1.22-3.89,1-3.89.79-4,.58-4,.43-4,.22-4v-4l-.22-4-.36-4-.65-4-.79-4-1-3.89-1.22-3.82-1.37-3.82-1.58-3.67-1.8-3.6-1.95-3.53-2.09-3.46-2.3-3.31-2.52-3.17-2.59-3-2.81-3-2.88-2.74-3.1-2.66L344.06,357l-3.31-2.3-3.38-2.09-3.53-2-3.6-1.73-3.74-1.58-3.74-1.44-3.82-1.15-4-1-3.89-.86-4-.58-4-.43-4-.14h-4l-4,.14-4,.43-4,.65-4,.79-3.89,1-3.82,1.22-3.74,1.37-3.74,1.66-3.6,1.73-3.53,1.94-3.38,2.16-3.31,2.3-3.17,2.45L358.54,471.27Zm-11.16,11.16L235.63,370.75,233.11,374l-2.3,3.24-2.09,3.46-1.94,3.53-1.8,3.6-1.58,3.67L222,395.31l-1.15,3.82-1,3.89-.86,4-.58,4-.43,4-.22,4v4l.22,4,.43,4,.58,4,.86,4,.94,3.89,1.22,3.89,1.44,3.74,1.58,3.67,1.73,3.6,2,3.6,2.09,3.38,2.3,3.31,2.45,3.17,2.66,3,2.74,3,3,2.74,3,2.66L250.1,485l3.31,2.3,3.46,2.16,3.53,1.94,3.6,1.73,3.67,1.58,3.82,1.44,3.82,1.15,3.89,1,4,.79,4,.65,4,.43,4,.14h4l4-.22,4-.36,4-.65,4-.79,3.89-1,3.89-1.22,3.74-1.44,3.67-1.58,3.6-1.73,3.53-2,3.46-2.09,3.31-2.3,3.17-2.52Z" transform="translate(-197.9 -321.79)" fill="#ed1c24" fill-rule="evenodd"/>
  </g>
</svg>
