<svg id="Layer_1" data-name="Layer 1" xmlns="http://www.w3.org/2000/svg" width="70mm" height="70mm" viewBox="0 0 198.42 198.42">
  <title>p004</title>
  <g id="symbolgrp">
    <polygon points="144.05 95.57 133.43 72.39 124.11 76.66 134.73 99.84 144.05 95.57 144.05 95.57" fill-rule="evenodd"/>
    <polygon points="132.29 70.8 113.8 53.27 106.75 60.7 125.23 78.25 132.29 70.8 132.29 70.8" fill-rule="evenodd"/>
    <polygon points="110.26 98.73 110.26 51.86 86.83 51.86 86.83 98.73 110.26 98.73 110.26 98.73" fill-rule="evenodd"/>
    <polygon points="133.99 153.5 115.64 127 106.01 133.67 124.35 160.18 133.99 153.5 133.99 153.5" fill-rule="evenodd"/>
    <polygon points="60.89 154.4 66.47 122.64 78.01 124.67 72.44 156.42 60.89 154.4 60.89 154.4" fill-rule="evenodd"/>
    <polygon points="116.57 129.17 110.16 97.57 98.66 99.9 105.08 131.5 116.57 129.17 116.57 129.17" fill-rule="evenodd"/>
    <polygon points="67.71 119.95 88.16 95.03 97.22 102.46 76.78 127.38 67.71 119.95 67.71 119.95" fill-rule="evenodd"/>
    <polygon points="90.1 60.93 83.56 53.04 63.94 69.3 70.48 77.2 90.1 60.93 90.1 60.93" fill-rule="evenodd"/>
    <polygon points="65.24 68.51 41.68 78.27 45.6 87.74 69.16 77.99 65.24 68.51 65.24 68.51" fill-rule="evenodd"/>
    <polygon points="91.96 56.98 91.93 56.45 91.84 55.92 91.71 55.4 91.51 54.9 91.27 54.42 90.98 53.96 90.64 53.55 90.27 53.18 89.84 52.83 89.39 52.54 88.92 52.3 88.42 52.1 87.89 51.97 87.36 51.87 86.83 51.86 86.3 51.87 85.77 51.97 85.24 52.1 84.74 52.3 84.27 52.54 83.81 52.83 83.4 53.18 83.01 53.55 82.68 53.96 82.39 54.42 82.15 54.9 81.95 55.4 81.81 55.92 81.72 56.45 81.71 56.98 81.72 57.52 81.81 58.05 81.95 58.57 82.15 59.07 82.39 59.55 82.68 59.99 83.01 60.41 83.4 60.79 83.81 61.13 84.27 61.43 84.74 61.67 85.24 61.85 85.77 62 86.3 62.08 86.83 62.11 87.36 62.08 87.89 62 88.42 61.85 88.92 61.67 89.39 61.43 89.84 61.13 90.27 60.79 90.64 60.41 90.98 59.99 91.27 59.55 91.51 59.07 91.71 58.57 91.84 58.05 91.93 57.52 91.96 56.98 91.96 56.98" fill-rule="evenodd"/>
    <polygon points="72.33 73.25 72.3 72.72 72.22 72.19 72.09 71.68 71.89 71.16 71.65 70.69 71.36 70.24 71.01 69.83 70.63 69.44 70.22 69.1 69.77 68.82 69.28 68.57 68.78 68.38 68.27 68.24 67.74 68.15 67.21 68.12 66.66 68.15 66.13 68.24 65.62 68.38 65.12 68.57 64.63 68.82 64.19 69.1 63.77 69.44 63.39 69.83 63.06 70.24 62.77 70.69 62.51 71.16 62.33 71.68 62.19 72.19 62.1 72.72 62.07 73.25 62.1 73.8 62.19 74.33 62.33 74.84 62.51 75.34 62.77 75.83 63.06 76.27 63.39 76.69 63.77 77.07 64.19 77.4 64.63 77.7 65.12 77.95 65.62 78.13 66.13 78.28 66.66 78.36 67.21 78.39 67.74 78.36 68.27 78.28 68.78 78.13 69.28 77.95 69.77 77.7 70.22 77.4 70.63 77.07 71.01 76.69 71.36 76.27 71.65 75.83 71.89 75.34 72.09 74.84 72.22 74.33 72.3 73.8 72.33 73.25 72.33 73.25" fill-rule="evenodd"/>
    <polygon points="48.77 83 48.74 82.46 48.66 81.93 48.51 81.41 48.33 80.92 48.09 80.43 47.78 79.99 47.45 79.57 47.07 79.19 46.66 78.86 46.21 78.55 45.73 78.31 45.23 78.13 44.71 77.98 44.18 77.9 43.65 77.87 43.1 77.9 42.57 77.98 42.06 78.13 41.56 78.31 41.07 78.55 40.63 78.86 40.21 79.19 39.83 79.57 39.5 79.99 39.19 80.43 38.95 80.92 38.77 81.41 38.62 81.93 38.54 82.46 38.51 83 38.54 83.53 38.62 84.06 38.77 84.58 38.95 85.08 39.19 85.56 39.5 86.02 39.83 86.43 40.21 86.81 40.63 87.15 41.07 87.44 41.56 87.68 42.06 87.88 42.57 88.02 43.1 88.11 43.65 88.12 44.18 88.11 44.71 88.02 45.23 87.88 45.73 87.68 46.21 87.44 46.66 87.15 47.07 86.81 47.45 86.43 47.78 86.02 48.09 85.56 48.33 85.08 48.51 84.58 48.66 84.06 48.74 83.53 48.77 83 48.77 83" fill-rule="evenodd"/>
    <polygon points="144.52 97.71 144.49 97.16 144.41 96.63 144.28 96.12 144.08 95.62 143.84 95.15 143.55 94.69 143.2 94.27 142.82 93.89 142.41 93.56 141.96 93.27 141.47 93.01 140.97 92.83 140.46 92.69 139.93 92.6 139.4 92.57 138.85 92.6 138.32 92.69 137.81 92.83 137.31 93.01 136.82 93.27 136.38 93.56 135.96 93.89 135.58 94.27 135.25 94.69 134.95 95.15 134.7 95.62 134.52 96.12 134.38 96.63 134.29 97.16 134.26 97.71 134.29 98.24 134.38 98.77 134.52 99.3 134.7 99.8 134.95 100.27 135.25 100.72 135.58 101.14 135.96 101.52 136.38 101.85 136.82 102.14 137.31 102.39 137.81 102.58 138.32 102.72 138.85 102.81 139.4 102.84 139.93 102.81 140.46 102.72 140.97 102.58 141.47 102.39 141.96 102.14 142.41 101.85 142.82 101.52 143.2 101.14 143.55 100.72 143.84 100.27 144.08 99.8 144.28 99.3 144.41 98.77 144.49 98.24 144.52 97.71 144.52 97.71" fill-rule="evenodd"/>
    <polygon points="133.9 74.53 133.87 74 133.79 73.47 133.64 72.94 133.46 72.44 133.22 71.97 132.91 71.51 132.58 71.1 132.2 70.71 131.78 70.38 131.34 70.09 130.85 69.85 130.35 69.65 129.84 69.51 129.31 69.42 128.76 69.39 128.23 69.42 127.7 69.51 127.19 69.65 126.69 69.85 126.2 70.09 125.75 70.38 125.34 70.71 124.96 71.1 124.63 71.51 124.33 71.97 124.08 72.44 123.89 72.94 123.75 73.47 123.67 74 123.64 74.53 123.67 75.07 123.75 75.6 123.89 76.11 124.08 76.61 124.33 77.1 124.63 77.54 124.96 77.96 125.34 78.34 125.75 78.67 126.2 78.96 126.69 79.22 127.19 79.4 127.7 79.54 128.23 79.63 128.76 79.66 129.31 79.63 129.84 79.54 130.35 79.4 130.85 79.22 131.34 78.96 131.78 78.67 132.2 78.34 132.58 77.96 132.91 77.54 133.22 77.1 133.46 76.61 133.64 76.11 133.79 75.6 133.87 75.07 133.9 74.53 133.9 74.53" fill-rule="evenodd"/>
    <polygon points="115.4 56.98 115.37 56.45 115.3 55.92 115.14 55.4 114.96 54.9 114.72 54.42 114.42 53.96 114.08 53.55 113.7 53.18 113.28 52.83 112.84 52.54 112.36 52.3 111.86 52.1 111.34 51.97 110.81 51.87 110.26 51.86 109.73 51.87 109.21 51.97 108.69 52.1 108.19 52.3 107.7 52.54 107.27 52.83 106.84 53.18 106.46 53.55 106.13 53.96 105.83 54.42 105.58 54.9 105.4 55.4 105.25 55.92 105.17 56.45 105.14 56.98 105.17 57.52 105.25 58.05 105.4 58.57 105.58 59.07 105.83 59.55 106.13 59.99 106.46 60.41 106.84 60.79 107.27 61.13 107.7 61.43 108.19 61.67 108.69 61.85 109.21 62 109.73 62.08 110.26 62.11 110.81 62.08 111.34 62 111.86 61.85 112.36 61.67 112.84 61.43 113.28 61.13 113.7 60.79 114.08 60.41 114.42 59.99 114.72 59.55 114.96 59.07 115.14 58.57 115.3 58.05 115.37 57.52 115.4 56.98 115.4 56.98" fill-rule="evenodd"/>
    <polygon points="108.81 38.67 108.78 37.9 108.69 37.14 108.55 36.38 108.36 35.64 108.1 34.92 107.8 34.22 107.43 33.54 107.02 32.89 106.57 32.27 106.07 31.69 105.52 31.14 104.95 30.65 104.33 30.19 103.67 29.78 102.99 29.42 102.3 29.12 101.57 28.86 100.83 28.66 100.08 28.53 99.31 28.44 98.55 28.41 97.78 28.44 97.02 28.53 96.27 28.66 95.52 28.86 94.8 29.12 94.1 29.42 93.42 29.78 92.77 30.19 92.16 30.65 91.57 31.14 91.02 31.69 90.52 32.27 90.07 32.89 89.66 33.54 89.31 34.22 89.01 34.92 88.75 35.64 88.56 36.38 88.4 37.14 88.33 37.9 88.3 38.67 88.33 39.43 88.4 40.2 88.56 40.94 88.75 41.68 89.01 42.41 89.31 43.12 89.66 43.79 90.07 44.44 90.52 45.06 91.02 45.64 91.57 46.18 92.16 46.68 92.77 47.13 93.42 47.54 94.1 47.91 94.8 48.21 95.52 48.47 96.27 48.66 97.02 48.8 97.78 48.89 98.55 48.92 99.31 48.89 100.08 48.8 100.83 48.66 101.57 48.47 102.3 48.21 102.99 47.91 103.67 47.54 104.33 47.13 104.95 46.68 105.52 46.18 106.07 45.64 106.57 45.06 107.02 44.44 107.43 43.79 107.8 43.12 108.1 42.41 108.36 41.68 108.55 40.94 108.69 40.2 108.78 39.43 108.81 38.67 108.81 38.67" fill-rule="evenodd"/>
    <polygon points="72.53 155.41 72.5 154.83 72.4 154.27 72.27 153.71 72.07 153.17 71.83 152.65 71.53 152.15 71.19 151.7 70.8 151.26 70.37 150.88 69.92 150.53 69.42 150.25 68.9 150 68.36 149.81 67.8 149.67 67.24 149.58 66.66 149.55 66.09 149.58 65.51 149.67 64.95 149.81 64.42 150 63.89 150.25 63.41 150.53 62.94 150.88 62.51 151.26 62.13 151.7 61.78 152.15 61.5 152.65 61.24 153.17 61.04 153.71 60.91 154.27 60.83 154.83 60.8 155.41 60.83 155.98 60.91 156.56 61.04 157.12 61.24 157.65 61.5 158.18 61.78 158.66 62.13 159.13 62.51 159.56 62.94 159.94 63.41 160.28 63.89 160.59 64.42 160.83 64.95 161.03 65.51 161.16 66.09 161.24 66.66 161.27 67.24 161.24 67.8 161.16 68.36 161.03 68.9 160.83 69.42 160.59 69.92 160.28 70.37 159.94 70.8 159.56 71.19 159.13 71.53 158.66 71.83 158.18 72.07 157.65 72.27 157.12 72.4 156.56 72.5 155.98 72.53 155.41 72.53 155.41" fill-rule="evenodd"/>
    <polygon points="135.04 156.83 135.01 156.26 134.91 155.7 134.78 155.14 134.58 154.59 134.34 154.08 134.04 153.58 133.7 153.12 133.31 152.7 132.88 152.31 132.43 151.97 131.93 151.67 131.41 151.43 130.87 151.23 130.31 151.09 129.75 151 129.17 150.97 128.6 151 128.02 151.09 127.46 151.23 126.93 151.43 126.4 151.67 125.92 151.97 125.45 152.31 125.02 152.7 124.64 153.12 124.29 153.58 124.01 154.08 123.75 154.59 123.57 155.14 123.42 155.7 123.34 156.26 123.31 156.83 123.34 157.41 123.42 157.98 123.57 158.54 123.75 159.09 124.01 159.6 124.29 160.09 124.64 160.56 125.02 160.98 125.45 161.38 125.92 161.71 126.4 162.01 126.93 162.25 127.46 162.45 128.02 162.59 128.6 162.68 129.17 162.69 129.75 162.68 130.31 162.59 130.87 162.45 131.41 162.25 131.93 162.01 132.43 161.71 132.88 161.38 133.31 160.98 133.7 160.56 134.04 160.09 134.34 159.6 134.58 159.09 134.78 158.54 134.91 157.98 135.01 157.41 135.04 156.83 135.04 156.83" fill-rule="evenodd"/>
    <polygon points="110.26 98.73 110.25 98.16 110.16 97.6 110.02 97.04 109.83 96.5 109.58 95.98 109.28 95.48 108.95 95.03 108.55 94.6 108.13 94.21 107.67 93.86 107.17 93.57 106.66 93.33 106.11 93.13 105.55 93 104.99 92.91 104.42 92.88 103.84 92.91 103.27 93 102.71 93.13 102.17 93.33 101.64 93.57 101.16 93.86 100.69 94.21 100.27 94.6 99.89 95.03 99.54 95.48 99.24 95.98 98.99 96.5 98.8 97.04 98.66 97.6 98.58 98.16 98.55 98.73 98.58 99.31 98.66 99.89 98.8 100.45 98.99 100.98 99.24 101.51 99.54 101.99 99.89 102.46 100.27 102.89 100.69 103.28 101.16 103.61 101.64 103.91 102.17 104.16 102.71 104.35 103.27 104.49 103.84 104.58 104.42 104.6 104.99 104.58 105.55 104.49 106.11 104.35 106.66 104.16 107.17 103.91 107.67 103.61 108.13 103.28 108.55 102.89 108.95 102.46 109.28 101.99 109.58 101.51 109.83 100.98 110.02 100.45 110.16 99.89 110.25 99.31 110.26 98.73 110.26 98.73" fill-rule="evenodd"/>
    <polygon points="98.55 98.73 98.52 98.16 98.43 97.6 98.3 97.04 98.1 96.5 97.86 95.98 97.57 95.48 97.22 95.03 96.83 94.6 96.4 94.21 95.95 93.86 95.45 93.57 94.93 93.33 94.39 93.13 93.83 93 93.27 92.91 92.69 92.88 92.11 92.91 91.54 93 90.99 93.13 90.45 93.33 89.93 93.57 89.43 93.86 88.96 94.21 88.54 94.6 88.16 95.03 87.81 95.48 87.52 95.98 87.27 96.5 87.08 97.04 86.93 97.6 86.86 98.16 86.83 98.73 86.86 99.31 86.93 99.89 87.08 100.45 87.27 100.98 87.52 101.51 87.81 101.99 88.16 102.46 88.54 102.89 88.96 103.28 89.43 103.61 89.93 103.91 90.45 104.16 90.99 104.35 91.54 104.49 92.11 104.58 92.69 104.6 93.27 104.58 93.83 104.49 94.39 104.35 94.93 104.16 95.45 103.91 95.95 103.61 96.4 103.28 96.83 102.89 97.22 102.46 97.57 101.99 97.86 101.51 98.1 100.98 98.3 100.45 98.43 99.89 98.52 99.31 98.55 98.73 98.55 98.73" fill-rule="evenodd"/>
    <polygon points="78.1 123.66 78.07 123.08 78 122.52 77.86 121.96 77.66 121.42 77.42 120.9 77.12 120.4 76.77 119.95 76.39 119.52 75.96 119.13 75.5 118.8 75.01 118.5 74.48 118.25 73.95 118.06 73.39 117.92 72.81 117.83 72.24 117.8 71.68 117.83 71.1 117.92 70.54 118.06 70 118.25 69.48 118.5 69 118.8 68.53 119.13 68.1 119.52 67.71 119.95 67.37 120.4 67.07 120.9 66.83 121.42 66.63 121.96 66.5 122.52 66.41 123.08 66.39 123.66 66.41 124.23 66.5 124.81 66.63 125.37 66.83 125.91 67.07 126.43 67.37 126.91 67.71 127.38 68.1 127.81 68.53 128.2 69 128.53 69.48 128.84 70 129.08 70.54 129.28 71.1 129.41 71.68 129.5 72.24 129.53 72.81 129.5 73.39 129.41 73.95 129.28 74.48 129.08 75.01 128.84 75.5 128.53 75.96 128.2 76.39 127.81 76.77 127.38 77.12 126.91 77.42 126.43 77.66 125.91 77.86 125.37 78 124.81 78.07 124.23 78.1 123.66 78.1 123.66" fill-rule="evenodd"/>
    <polygon points="116.69 130.34 116.66 129.76 116.57 129.19 116.43 128.62 116.23 128.09 115.99 127.56 115.69 127.08 115.36 126.61 114.96 126.19 114.54 125.81 114.08 125.46 113.58 125.16 113.07 124.92 112.52 124.72 111.96 124.58 111.4 124.51 110.83 124.48 110.25 124.51 109.67 124.58 109.13 124.72 108.58 124.92 108.05 125.16 107.57 125.46 107.1 125.81 106.67 126.19 106.3 126.61 105.95 127.08 105.66 127.56 105.4 128.09 105.22 128.62 105.07 129.19 104.99 129.76 104.96 130.34 104.99 130.91 105.07 131.47 105.22 132.03 105.4 132.58 105.66 133.09 105.95 133.59 106.3 134.04 106.67 134.48 107.1 134.86 107.57 135.21 108.05 135.5 108.58 135.74 109.13 135.94 109.67 136.07 110.25 136.16 110.83 136.19 111.4 136.16 111.96 136.07 112.52 135.94 113.07 135.74 113.58 135.5 114.08 135.21 114.54 134.86 114.96 134.48 115.36 134.04 115.69 133.59 115.99 133.09 116.23 132.58 116.43 132.03 116.57 131.47 116.66 130.91 116.69 130.34 116.69 130.34" fill-rule="evenodd"/>
    <path d="M297.16,520.22A99.21,99.21,0,1,0,197.91,421a99.24,99.24,0,0,0,99.25,99.25Zm50.2-37.74A79.39,79.39,0,0,1,235.65,370.77L347.36,482.48Zm11.23-11.24A79.39,79.39,0,0,0,246.88,359.54L358.59,471.25Z" transform="translate(-197.91 -321.8)" fill="#ed1c24" fill-rule="evenodd"/>
  </g>
</svg>
