<svg id="Layer_1" data-name="Layer 1" xmlns="http://www.w3.org/2000/svg" width="70mm" height="70mm" viewBox="0 0 198.43 198.43">
  <title>p005</title>
  <g id="symbolgrp">
    <path d="M293,375.68h60.24v16.61H333.75c-17.28,13.09-33.56,0-33.56,0h-9.76c-13.37,2.28-9.7,20.48-9.7,20.48H264.29c-3.66-18.77,6.21-29.19,11.9-33.91,0,0,2.2-3,16.8-3.17Z" transform="translate(-197.9 -321.79)" fill="#231f20" fill-rule="evenodd"/>
    <polygon points="123.63 53.94 123.63 47.7 115.38 47.7 115.38 53.94 123.63 53.94 123.63 53.94" fill="#231f20" stroke="#231f20" stroke-miterlimit="2.61" stroke-width="2.88" fill-rule="evenodd"/>
    <path d="M326.9,367.47a3.53,3.53,0,1,0-.69-4.95,3.53,3.53,0,0,0,.69,4.95Z" transform="translate(-197.9 -321.79)" fill="#231f20" stroke="#231f20" stroke-miterlimit="2.61" stroke-width="4.04" fill-rule="evenodd"/>
    <polygon points="113.93 48.35 113.93 37.38 130.88 37.38 130.88 48.35 113.93 48.35 113.93 48.35" fill="#231f20" fill-rule="evenodd"/>
    <path d="M308.3,361.84a3.53,3.53,0,1,0,.69,4.95,3.53,3.53,0,0,0-.69-4.95Z" transform="translate(-197.9 -321.79)" fill="#231f20" stroke="#231f20" stroke-miterlimit="2.61" stroke-width="4.04" fill-rule="evenodd"/>
    <polygon points="125.06 37.37 125.06 48.34 108.11 48.34 108.11 37.37 125.06 37.37 125.06 37.37" fill="#231f20" fill-rule="evenodd"/>
    <path d="M240.86,417.79,256.67,474h39.75m17-56.22L297.61,474H257.87" transform="translate(-197.9 -321.79)" fill="none" stroke="#231f20" stroke-miterlimit="2.61" stroke-width="9.04"/>
    <path d="M306.63,439.94c-2.59.25-7.51-.69-13-2.53-11.22-3.77-13.83,5.22-22.16,5-6.44-.19-9.17-3.26-11.67-4.57-3.83-2-9.89-2-15.08-1.42m61.88-5.56a28.37,28.37,0,0,1-13-2.53c-11.33-5-15.83,5.29-22.28,5.22-5.71-.06-4.74-2.79-11.55-4.82a41.45,41.45,0,0,0-15.08-1.42" transform="translate(-197.9 -321.79)" fill="none" stroke="#231f20" stroke-miterlimit="2.61" stroke-width="5"/>
    <path d="M396.34,421l-.14-4.46-.29-4.46-.5-4.39-.72-4.39-.86-4.39-1.08-4.32-1.3-4.25L390,386.16,388.34,382l-1.87-4-2-4-2.16-3.89-2.38-3.74-2.59-3.67-2.66-3.53-2.88-3.46-3-3.24-3.17-3.17-3.31-3L359,343.47l-3.53-2.74-3.67-2.52L348,335.83l-3.82-2.16-4-2.09-4.1-1.8-4.1-1.66-4.25-1.51-4.25-1.22-4.32-1.15-4.32-.86-4.39-.72-4.46-.5-4.39-.29-4.46-.07-4.46.07-4.46.29-4.39.5-4.39.72-4.39.86-4.32,1.15-4.25,1.22-4.18,1.51-4.18,1.66-4,1.8-4,2.09-3.89,2.16-3.74,2.38-3.67,2.52-3.53,2.74-3.46,2.81-3.24,3-3.17,3.17-3,3.24-2.88,3.46-2.66,3.53-2.52,3.67-2.38,3.74L209.71,374l-2,4-1.8,4-1.66,4.18-1.51,4.18-1.3,4.25-1.08,4.32-.86,4.39-.72,4.39-.5,4.39-.29,4.46L197.9,421l.07,4.46.29,4.39.5,4.46.72,4.39.86,4.39,1.08,4.25,1.3,4.32,1.51,4.18,1.66,4.1,1.8,4.1,2,4,2.23,3.89,2.38,3.74,2.52,3.67,2.66,3.53,2.88,3.46,3,3.24,3.17,3.17,3.24,3,3.46,2.81,3.53,2.74,3.67,2.52,3.74,2.38,3.89,2.16,4,2.09,4,1.8,4.18,1.66,4.18,1.51,4.25,1.22,4.32,1.08,4.39.94,4.39.65,4.39.5,4.46.36,4.46.07,4.46-.07,4.39-.36,4.46-.5,4.39-.65,4.32-.94,4.32-1.08,4.25-1.22,4.25-1.51,4.1-1.66,4.1-1.8,4-2.09,3.82-2.16,3.81-2.38,3.67-2.52,3.53-2.74,3.38-2.81,3.31-3,3.17-3.17,3-3.24,2.88-3.46,2.66-3.53,2.59-3.67,2.38-3.74,2.16-3.89,2-4,1.87-4.1,1.66-4.1,1.44-4.18,1.3-4.32,1.08-4.25.86-4.39.72-4.39.5-4.46.29-4.39.14-4.46Zm-37.8,50.26,2.52-3.17,2.3-3.31,2.16-3.46,1.87-3.53,1.8-3.6,1.58-3.67,1.44-3.74,1.22-3.89,1-3.89.79-4,.58-4,.43-4,.22-4v-4l-.22-4-.36-4-.65-4-.79-4-1-3.89-1.22-3.82-1.37-3.82-1.58-3.67-1.8-3.6-1.95-3.53-2.09-3.46-2.3-3.31-2.52-3.17-2.59-3-2.81-3-2.88-2.74-3.1-2.66L344.06,357l-3.31-2.3-3.38-2.09-3.53-2-3.6-1.73-3.74-1.58-3.74-1.44-3.82-1.15-4-1-3.89-.86-4-.58-4-.43-4-.14h-4l-4,.14-4,.43-4,.65-4,.79-3.89,1-3.82,1.22-3.74,1.37-3.74,1.66-3.6,1.73-3.53,1.94-3.38,2.16-3.31,2.3-3.17,2.45L358.54,471.27Zm-11.16,11.16L235.63,370.75,233.11,374l-2.3,3.24-2.09,3.46-1.94,3.53-1.8,3.6-1.58,3.67L222,395.31l-1.15,3.82-1,3.89-.86,4-.58,4-.43,4-.22,4v4l.22,4,.43,4,.58,4,.86,4,.94,3.89,1.22,3.89,1.44,3.74,1.58,3.67,1.73,3.6,2,3.6,2.09,3.38,2.3,3.31,2.45,3.17,2.66,3,2.74,3,3,2.74,3,2.66L250.1,485l3.31,2.3,3.46,2.16,3.53,1.94,3.6,1.73,3.67,1.58,3.82,1.44,3.82,1.15,3.89,1,4,.79,4,.65,4,.43,4,.14h4l4-.22,4-.36,4-.65,4-.79,3.89-1,3.89-1.22,3.74-1.44,3.67-1.58,3.6-1.73,3.53-2,3.46-2.09,3.31-2.3,3.17-2.52Z" transform="translate(-197.9 -321.79)" fill="#ed1c24" fill-rule="evenodd"/>
  </g>
</svg>
