<svg id="Layer_1" data-name="Layer 1" xmlns="http://www.w3.org/2000/svg" width="70mm" height="70mm" viewBox="0 0 198.42 198.42">
  <title>p006</title>
  <g id="symbolgrp">
    <polygon points="123.18 67.76 117.47 78.71 121.86 81.01 127.59 70.06 123.18 67.76 123.18 67.76" fill-rule="evenodd"/>
    <polygon points="131.8 69.87 131.8 86.29 131.77 86.8 131.68 87.3 131.55 87.8 131.34 88.28 131.1 88.72 130.8 89.14 130.46 89.53 130.08 89.86 129.67 90.16 129.22 90.41 128.74 90.61 128.25 90.74 127.74 90.83 127.23 90.86 126.72 90.83 126.21 90.74 125.72 90.61 125.24 90.41 124.79 90.16 124.37 89.86 124 89.53 123.66 89.14 123.36 88.72 123.1 88.28 122.91 87.8 122.77 87.3 122.68 86.8 122.66 86.29 122.66 69.87 122.68 69.36 122.77 68.85 122.91 68.36 123.1 67.89 123.36 67.45 123.66 67.03 124 66.64 124.37 66.3 124.79 66 125.24 65.76 125.72 65.56 126.21 65.42 126.72 65.33 127.23 65.3 127.74 65.33 128.25 65.42 128.74 65.56 129.22 65.76 129.67 66 130.08 66.3 130.46 66.64 130.8 67.03 131.1 67.45 131.34 67.89 131.55 68.36 131.68 68.85 131.77 69.36 131.8 69.87 131.8 69.87" fill-rule="evenodd"/>
    <polygon points="104.35 102.14 108.89 87.2 114.33 88.84 109.78 103.8 104.35 102.14 104.35 102.14" fill-rule="evenodd"/>
    <polygon points="127.23 90.86 127.23 85.18 111.61 85.18 111.61 90.86 127.23 90.86 127.23 90.86" fill-rule="evenodd"/>
    <polygon points="120.41 77.49 108.63 73.77 107.14 78.5 118.92 82.22 120.41 77.49 120.41 77.49" fill-rule="evenodd"/>
    <path d="M340.48,449.29l0-.66-.09-.66-.15-.64-.2-.63-.25-.61-.3-.58-.36-.55-.39-.52-.45-.48-.49-.45-.52-.4-.55-.36-.58-.3-.61-.25-.63-.19-.64-.15-.64-.09-.66,0-.66,0-.66.09L331,442l-.63.19-.61.25-.58.3-.55.36-.52.4-.49.45-.43.48-.4.52-.36.55-.3.58-.25.61-.19.63-.15.64-.09.66,0,.66,0,.66.09.66.15.64.19.63.25.61.3.58.36.55.4.52.43.48.49.45.52.4.55.36.58.3.61.25.63.19.64.15.66.08.66,0,.66,0,.64-.08.64-.15.63-.19.61-.25.58-.3.55-.36.52-.4.49-.45.45-.48.39-.52.36-.55.3-.58.25-.61.2-.63.15-.64.09-.66,0-.66Zm-52,1.93,0-.55-.07-.55-.13-.52-.19-.52-.22-.51-.28-.46-.33-.45-.37-.4-.42-.37-.43-.33-.48-.28L285,446l-.52-.18-.54-.13-.54-.09-.55,0-.55,0-.55.09-.54.13-.51.18-.51.24-.46.28-.45.33-.4.37-.37.4-.33.45-.28.46-.24.51-.18.52-.13.52-.09.55,0,.55,0,.55.09.54.13.54.18.52.24.49.28.48.33.45.37.4.4.37.45.33.46.28.51.24.51.18.54.13.55.09h1.11l.54-.09.54-.13.52-.18.49-.24.48-.28.43-.33.42-.37.37-.4.33-.45.28-.48.22-.49.19-.52.13-.54.07-.54,0-.55Zm4.2-100.87L253.69,451.24l-18-5.49-2.06,6.63,24.21,7.4,3.33-8.64h10.33l0,.81.07.81.13.79.19.79.25.78.31.75.36.72.4.7.46.67.51.63.54.6.6.55.63.52.66.46.7.4.72.37.75.31.78.25.78.19.81.15.81.09.81,0,.81,0,.81-.09.79-.15.79-.19.76-.25.75-.31.72-.37.7-.4.66-.46.64-.52.58-.55.55-.6.51-.63.45-.67.42-.7.36-.72.3-.75.25-.78.19-.79.13-.79.09-.81,0-.81h25.73l.15.84.2.84.25.82.31.81.36.78.4.76.46.73.51.69.55.67.58.61.63.6.67.54.7.49.73.46.76.4.78.34.81.3.82.25.84.19.85.13.85.09.87,0,.85,0,.85-.09.85-.13.84-.19.82-.25.81-.3.79-.34.75-.4.73-.46.7-.49.67-.54.63-.6.6-.61.54-.67.51-.69.46-.73.4-.76.36-.78.31-.81.25-.82.19-.84.15-.84H361.2V418l0-.7-.09-.7-.13-.69-.21-.67-.25-.66-.31-.63-.36-.6-.4-.58-.45-.54-.51-.49-.52-.45-.58-.42-.6-.36-.63-.3-.66-.25-.67-.21-.69-.15-.7-.07-.7,0H339.86V373.62l0-.73-.09-.72-.13-.7-.21-.7-.24-.67-.31-.66-.34-.64-.4-.6-.45-.57-.49-.52-.52-.49-.57-.45-.61-.4-.63-.36-.66-.3-.67-.25-.7-.19-.7-.13-.72-.09-.73,0h-23.5l-.75,0-.73.07-.73.15-.72.19-.7.24-.69.3-.66.36-.63.39-.6.45-.57.49-.52.52-.48.57-.45.6-.39.64-.35.66-.3.69-24,62.19H268.2l30.9-80.09-6.47-2.5Zm10.54,22.44-20.06,52h1.33L301,400.44l-2.21-2.76-.15-.22-.1-.27-.06-.27,0-.27.06-.28.11-.25.15-.22.21-.19.22-.15.27-.1.27,0H300l.28.06.25.1.22.15.19.21,6.21,7.74.15.24.1.25,0,.27v.28l-.06.27-.11.25-.16.24-.2.19-.24.15-.25.1-.27,0h-.28l-.27-.06-.25-.1-.22-.16-.2-.19-2.21-2.76-15.05,22.13H315V409.48h18.9V373.62l0-.43-.09-.42-.12-.42-.18-.39-.22-.36-.25-.34-.31-.3-.33-.27-.37-.21-.39-.18-.4-.13-.42-.07-.43,0H307.14l-.46,0-.45.07-.45.13-.43.16-.42.22-.37.25-.36.31-.31.33-.29.37-.22.4-.2.43Z" transform="translate(-197.91 -321.8)" fill-rule="evenodd"/>
    <polygon points="110.36 76.13 110.35 75.77 110.27 75.42 110.14 75.1 109.97 74.78 109.77 74.5 109.51 74.25 109.23 74.04 108.92 73.87 108.58 73.75 108.24 73.68 107.88 73.65 107.52 73.68 107.18 73.75 106.85 73.87 106.54 74.04 106.25 74.25 106.01 74.5 105.79 74.78 105.63 75.1 105.51 75.42 105.43 75.77 105.4 76.13 105.43 76.49 105.51 76.83 105.63 77.16 105.79 77.47 106.01 77.76 106.25 78.01 106.54 78.22 106.85 78.38 107.18 78.52 107.52 78.59 107.88 78.61 108.24 78.59 108.58 78.52 108.92 78.38 109.23 78.22 109.51 78.01 109.77 77.76 109.97 77.47 110.14 77.16 110.27 76.83 110.35 76.49 110.36 76.13 110.36 76.13" fill-rule="evenodd"/>
    <polygon points="122.14 79.86 122.12 79.5 122.04 79.16 121.92 78.83 121.76 78.52 121.55 78.23 121.29 77.98 121.01 77.77 120.7 77.61 120.37 77.47 120.02 77.4 119.67 77.38 119.31 77.4 118.96 77.47 118.63 77.61 118.32 77.77 118.03 77.98 117.78 78.23 117.57 78.52 117.41 78.83 117.27 79.16 117.2 79.5 117.18 79.86 117.2 80.22 117.27 80.56 117.41 80.89 117.57 81.21 117.78 81.49 118.03 81.75 118.32 81.95 118.63 82.12 118.96 82.24 119.31 82.33 119.67 82.34 120.02 82.33 120.37 82.24 120.7 82.12 121.01 81.95 121.29 81.75 121.55 81.49 121.76 81.21 121.92 80.89 122.04 80.56 122.12 80.22 122.14 79.86 122.14 79.86" fill-rule="evenodd"/>
    <polygon points="127.86 68.91 127.84 68.55 127.77 68.21 127.63 67.88 127.47 67.57 127.26 67.28 127 67.03 126.72 66.82 126.41 66.66 126.08 66.52 125.73 66.44 125.38 66.43 125.02 66.44 124.67 66.52 124.34 66.66 124.03 66.82 123.75 67.03 123.51 67.28 123.28 67.57 123.12 67.88 123 68.21 122.92 68.55 122.89 68.91 122.92 69.27 123 69.61 123.12 69.94 123.28 70.25 123.51 70.54 123.75 70.79 124.03 71 124.34 71.17 124.67 71.29 125.02 71.36 125.38 71.39 125.73 71.36 126.08 71.29 126.41 71.17 126.72 71 127 70.79 127.26 70.54 127.47 70.25 127.63 69.94 127.77 69.61 127.84 69.27 127.86 68.91 127.86 68.91" fill-rule="evenodd"/>
    <polygon points="132.19 58.91 132.18 58.39 132.09 57.88 131.95 57.38 131.77 56.88 131.53 56.42 131.25 55.99 130.92 55.58 130.55 55.22 130.15 54.9 129.71 54.61 129.25 54.37 128.77 54.18 128.26 54.04 127.75 53.97 127.23 53.94 126.71 53.97 126.2 54.04 125.69 54.18 125.21 54.37 124.75 54.61 124.31 54.9 123.89 55.22 123.54 55.58 123.21 55.99 122.92 56.42 122.68 56.88 122.5 57.38 122.37 57.88 122.28 58.39 122.25 58.91 122.28 59.44 122.37 59.95 122.5 60.45 122.68 60.93 122.92 61.4 123.21 61.83 123.54 62.23 123.89 62.6 124.31 62.93 124.75 63.22 125.21 63.46 125.69 63.64 126.2 63.77 126.71 63.86 127.23 63.88 127.75 63.86 128.26 63.77 128.77 63.64 129.25 63.46 129.71 63.22 130.15 62.93 130.55 62.6 130.92 62.23 131.25 61.83 131.53 61.4 131.77 60.93 131.95 60.45 132.09 59.95 132.18 59.44 132.19 58.91 132.19 58.91" fill-rule="evenodd"/>
    <polygon points="130.07 88.02 130.04 87.62 129.95 87.23 129.81 86.84 129.62 86.48 129.38 86.17 129.08 85.87 128.77 85.63 128.41 85.44 128.02 85.3 127.63 85.21 127.23 85.18 126.83 85.21 126.42 85.3 126.05 85.44 125.69 85.63 125.38 85.87 125.08 86.17 124.84 86.48 124.64 86.84 124.51 87.23 124.42 87.62 124.39 88.02 124.42 88.42 124.51 88.83 124.64 89.2 124.84 89.56 125.08 89.89 125.38 90.17 125.69 90.41 126.05 90.61 126.42 90.74 126.83 90.83 127.23 90.86 127.63 90.83 128.02 90.74 128.41 90.61 128.77 90.41 129.08 90.17 129.38 89.89 129.62 89.56 129.81 89.2 129.95 88.83 130.04 88.42 130.07 88.02 130.07 88.02" fill-rule="evenodd"/>
    <polygon points="114.45 88.02 114.42 87.62 114.33 87.23 114.19 86.84 114 86.48 113.76 86.17 113.47 85.87 113.14 85.63 112.79 85.44 112.41 85.3 112.01 85.21 111.61 85.18 111.2 85.21 110.81 85.3 110.42 85.44 110.06 85.63 109.75 85.87 109.47 86.17 109.21 86.48 109.02 86.84 108.89 87.23 108.8 87.62 108.76 88.02 108.8 88.42 108.89 88.83 109.02 89.2 109.21 89.56 109.47 89.89 109.75 90.17 110.06 90.41 110.42 90.61 110.81 90.74 111.2 90.83 111.61 90.86 112.01 90.83 112.41 90.74 112.79 90.61 113.14 90.41 113.47 90.17 113.76 89.89 114 89.56 114.19 89.2 114.33 88.83 114.42 88.42 114.45 88.02 114.45 88.02" fill-rule="evenodd"/>
    <polygon points="109.92 102.96 109.89 102.56 109.8 102.17 109.65 101.78 109.45 101.44 109.21 101.11 108.93 100.83 108.6 100.59 108.24 100.39 107.87 100.24 107.48 100.15 107.08 100.12 106.67 100.15 106.27 100.24 105.89 100.39 105.54 100.59 105.21 100.83 104.92 101.11 104.68 101.44 104.49 101.78 104.34 102.17 104.26 102.56 104.23 102.96 104.26 103.37 104.34 103.77 104.49 104.14 104.68 104.5 104.92 104.83 105.21 105.11 105.54 105.35 105.89 105.55 106.27 105.7 106.67 105.79 107.08 105.82 107.48 105.79 107.87 105.7 108.24 105.55 108.6 105.35 108.93 105.11 109.21 104.83 109.45 104.5 109.65 104.14 109.8 103.77 109.89 103.37 109.92 102.96 109.92 102.96" fill-rule="evenodd"/>
    <path d="M297.16,520.22A99.21,99.21,0,1,0,197.91,421a99.24,99.24,0,0,0,99.25,99.25Zm50.2-37.74A79.39,79.39,0,0,1,235.65,370.77L347.36,482.48Zm11.23-11.24A79.39,79.39,0,0,0,246.88,359.54L358.59,471.25Z" transform="translate(-197.91 -321.8)" fill="#ed1c24" fill-rule="evenodd"/>
  </g>
</svg>
