<svg id="Layer_1" data-name="Layer 1" xmlns="http://www.w3.org/2000/svg" width="70mm" height="70mm" viewBox="0 0 198.43 198.43">
  <title>p007</title>
  <g id="symbolgrp">
    <path d="M298.84,382l1.79-.46,1.86-.25,1.86-.07,1.86.1,1.82.25.91.21.88.28.88.28.84.39,1.68.84,1.58,1,1.47,1.09,1.4,1.19,1.37,1.3,1.26,1.33,1.26,1.37,2.42,2.8,2.7-3,1.4-1.51,1.4-1.47,1.51-1.37,1.61-1.26,1.72-1.12,1.79-1,.91-.42,1-.35.95-.28,1-.25,1-.14,1-.14,2.07-.07,1,0,1,.1,1,.14,1,.21,1,.25,1,.35.91.39.95.42,1.75,1,1.68,1.16,1.58,1.3,1.47,1.44,1.3,1.54,1.19,1.65,1.05,1.75.91,1.82.77,1.89.35,1,.28,1,.38,2,.25,2,.11,2v2l-.11,2-.07,1-.11,1-.39,2-.49,2-.56,2-.63,2-.7,1.89-.81,1.89-.91,1.82-.95,1.79-1.05,1.75-1.09,1.75L356,431.26l-1.19,1.65-2.53,3.19-2.66,3.12-1.37,1.47-1.47,1.44-1.47,1.4-1.51,1.37-1.58,1.3-1.61,1.26-3.23,2.45-1.68,1.19L334,452.22l-3.4,2.24-3.33,2.35-3.3,2.45-4.84-3.58L316.65,454l-2.49-1.65-2.53-1.68-2.42-1.79L306.83,447l-2.35-1.89-2.24-2-2.17-2.1L298,438.83l-1.93-2.31-1.89-2.35-1.82-2.42-1.68-2.49-1.58-2.56L287.65,424l-1.26-2.73-1.09-2.8-.88-2.87-.74-2.94-.32-1.47-.18-1.47-.18-3v-1.51l0-1.51.14-1.51.18-1.51.25-1.47.39-1.47.49-1.4.6-1.4.67-1.37.7-1.33.81-1.26.88-1.23.95-1.16,1.05-1.12,1.09-1,1.16-1,1.23-.88,1.26-.81V382l-.11-1.65-.28-1.61-.49-1.58-.7-1.51-.84-1.4-1-1.3-1.16-1.16-1.3-1-1.4-.84-1.51-.67-1.54-.49-1.65-.32-1.61-.1-1.65.1-1.61.32-1.58.49-1.51.67-1.4.84-1.3,1L271.06,373l-1,1.3-.84,1.4-.67,1.51-.49,1.58-.32,1.61-.11,1.65v29.23l-.07,1.23-.32,1.19-.46,1.12-.63,1.05-.81.95-.95.77-1.05.67-1.12.46L261,419l-1.23.1h-6.07v4.28H273.2v19.52l-.07,1.23-.32,1.19-.46,1.16-.63,1.05-.81.91-.95.81-1.05.63-1.12.49-1.19.28-1.23.11H238.06l-1.23-.11-1.19-.28-1.12-.49-1.05-.63-.95-.81-.81-.91-.63-1.05-.46-1.16-.28-1.19-.1-1.23V415.56l.1-1.23.28-1.19.46-1.12.63-1.05.81-.95.95-.77,1.05-.67,1.12-.46,1.19-.28,1.23-.11h15.68v7.36h6.07l.88-.11.81-.28.74-.46.6-.63.46-.74.28-.81.11-.84V382l.11-1.86.28-1.82.49-1.75.67-1.72.81-1.65,1-1.54,1.16-1.44,1.3-1.3,1.44-1.16,1.54-1,1.65-.81,1.68-.67,1.79-.49,1.82-.28,1.82-.11,1.86.11,1.82.28,1.75.46,1.72.67,1.65.84,1.54,1,1.44,1.16,1.3,1.3,1.16,1.4,1,1.54.84,1.65.63,1.72.49,1.79.28,1.82.11,1.82Zm-29.6,45.32v15.56l-.11.88-.28.81-.46.74-.6.6-.74.49-.84.28-.84.11H238.06l-.84-.11-.84-.28-.74-.49-.6-.6-.46-.74-.28-.81-.1-.88V415.56l.1-.84.28-.84.46-.7.6-.63.74-.46.84-.28.84-.1h11.71v15.6Z" transform="translate(-197.9 -321.79)" stroke="#000" stroke-miterlimit="2.61" stroke-width="0.03" fill-rule="evenodd"/>
    <path d="M396.34,421l-.14-4.46-.29-4.46-.5-4.39-.72-4.39-.86-4.39-1.08-4.32-1.3-4.25L390,386.16,388.34,382l-1.87-4-2-4-2.16-3.89-2.38-3.74-2.59-3.67-2.66-3.53-2.88-3.46-3-3.24-3.17-3.17-3.31-3L359,343.47l-3.53-2.74-3.67-2.52L348,335.83l-3.82-2.16-4-2.09-4.1-1.8-4.1-1.66-4.25-1.51-4.25-1.22-4.32-1.15-4.32-.86-4.39-.72-4.46-.5-4.39-.29-4.46-.07-4.46.07-4.46.29-4.39.5-4.39.72-4.39.86-4.32,1.15-4.25,1.22-4.18,1.51-4.18,1.66-4,1.8-4,2.09-3.89,2.16-3.74,2.38-3.67,2.52-3.53,2.74-3.46,2.81-3.24,3-3.17,3.17-3,3.24-2.88,3.46-2.66,3.53-2.52,3.67-2.38,3.74L209.71,374l-2,4-1.8,4-1.66,4.18-1.51,4.18-1.3,4.25-1.08,4.32-.86,4.39-.72,4.39-.5,4.39-.29,4.46L197.9,421l.07,4.46.29,4.39.5,4.46.72,4.39.86,4.39,1.08,4.25,1.3,4.32,1.51,4.18,1.66,4.1,1.8,4.1,2,4,2.23,3.89,2.38,3.74,2.52,3.67,2.66,3.53,2.88,3.46,3,3.24,3.17,3.17,3.24,3,3.46,2.81,3.53,2.74,3.67,2.52,3.74,2.38,3.89,2.16,4,2.09,4,1.8,4.18,1.66,4.18,1.51,4.25,1.22,4.32,1.08,4.39.94,4.39.65,4.39.5,4.46.36,4.46.07,4.46-.07,4.39-.36,4.46-.5,4.39-.65,4.32-.94,4.32-1.08,4.25-1.22,4.25-1.51,4.1-1.66,4.1-1.8,4-2.09,3.82-2.16,3.81-2.38,3.67-2.52,3.53-2.74,3.38-2.81,3.31-3,3.17-3.17,3-3.24,2.88-3.46,2.66-3.53,2.59-3.67,2.38-3.74,2.16-3.89,2-4,1.87-4.1,1.66-4.1,1.44-4.18,1.3-4.32,1.08-4.25.86-4.39.72-4.39.5-4.46.29-4.39.14-4.46Zm-37.8,50.26,2.52-3.17,2.3-3.31,2.16-3.46,1.87-3.53,1.8-3.6,1.58-3.67,1.44-3.74,1.22-3.89,1-3.89.79-4,.58-4,.43-4,.22-4v-4l-.22-4-.36-4-.65-4-.79-4-1-3.89-1.22-3.82-1.37-3.82-1.58-3.67-1.8-3.6-1.95-3.53-2.09-3.46-2.3-3.31-2.52-3.17-2.59-3-2.81-3-2.88-2.74-3.1-2.66L344.06,357l-3.31-2.3-3.38-2.09-3.53-2-3.6-1.73-3.74-1.58-3.74-1.44-3.82-1.15-4-1-3.89-.86-4-.58-4-.43-4-.14h-4l-4,.14-4,.43-4,.65-4,.79-3.89,1-3.82,1.22-3.74,1.37-3.74,1.66-3.6,1.73-3.53,1.94-3.38,2.16-3.31,2.3-3.17,2.45L358.54,471.27Zm-11.16,11.16L235.63,370.75,233.11,374l-2.3,3.24-2.09,3.46-1.94,3.53-1.8,3.6-1.58,3.67L222,395.31l-1.15,3.82-1,3.89-.86,4-.58,4-.43,4-.22,4v4l.22,4,.43,4,.58,4,.86,4,.94,3.89,1.22,3.89,1.44,3.74,1.58,3.67,1.73,3.6,2,3.6,2.09,3.38,2.3,3.31,2.45,3.17,2.66,3,2.74,3,3,2.74,3,2.66L250.1,485l3.31,2.3,3.46,2.16,3.53,1.94,3.6,1.73,3.67,1.58,3.82,1.44,3.82,1.15,3.89,1,4,.79,4,.65,4,.43,4,.14h4l4-.22,4-.36,4-.65,4-.79,3.89-1,3.89-1.22,3.74-1.44,3.67-1.58,3.6-1.73,3.53-2,3.46-2.09,3.31-2.3,3.17-2.52Z" transform="translate(-197.9 -321.79)" fill="#ed1c24" fill-rule="evenodd"/>
  </g>
</svg>
