<svg id="Layer_1" data-name="Layer 1" xmlns="http://www.w3.org/2000/svg" width="70mm" height="70mm" viewBox="0 0 198.43 198.43">
  <title>p008</title>
  <g id="symbolgrp">
    <path d="M337.12,503.06a57.41,57.41,0,0,0,10.08-4.56V373.06a88.4,88.4,0,0,0-12.29-5.38c-7.46-2.08-9.8-2.51-9.8-2.51V506.36s6.69-1.55,12-3.3Z" transform="translate(-212.81 -336.7)" fill-rule="evenodd"/>
    <path d="M336.15,470.82a34.25,34.25,0,1,0-34.24-34.25,34.25,34.25,0,0,0,34.24,34.25Z" transform="translate(-212.81 -336.7)" fill="#fff" stroke="#000" stroke-miterlimit="2.61" stroke-width="4.73" fill-rule="evenodd"/>
    <path d="M336.15,440a3.45,3.45,0,1,0-3.45-3.45,3.45,3.45,0,0,0,3.45,3.45Z" transform="translate(-212.81 -336.7)" stroke="#000" stroke-miterlimit="2.61" stroke-width="1.58" fill-rule="evenodd"/>
    <line x1="123.34" y1="99.87" x2="112.96" y2="85.43" fill="none" stroke="#000" stroke-miterlimit="2.61" stroke-width="4.73"/>
    <line x1="141.46" y1="80.14" x2="123.34" y2="99.87" fill="none" stroke="#000" stroke-miterlimit="2.61" stroke-width="2.48"/>
    <path d="M300,488.92a14.23,14.23,0,1,0-20.13.4,14.23,14.23,0,0,0,20.13-.4Z" transform="translate(-212.81 -336.7)" fill-rule="evenodd"/>
    <path d="M296.76,485.8a3.74,3.74,0,1,0-5.29.1,3.74,3.74,0,0,0,5.29-.1Z" transform="translate(-212.81 -336.7)" fill="#fff" fill-rule="evenodd"/>
    <polygon points="74.09 130.9 40.26 98.07 33.53 99.17 36.28 108.6 44.02 109.25 46.87 117.27 55.64 119.92 56.58 128.11 65.84 137.31 74.09 130.9 74.09 130.9" fill-rule="evenodd"/>
    <polygon points="162.76 104.87 162.76 95.78 158.21 95.78 158.21 104.87 162.76 104.87 162.76 104.87" fill-rule="evenodd"/>
    <path d="M411.24,435.91l-.14-4.46-.29-4.46-.5-4.39-.72-4.39-.86-4.39-1.08-4.32-1.3-4.25-1.44-4.18-1.66-4.18-1.87-4-2-4L397.2,385l-2.38-3.74-2.59-3.67-2.66-3.53-2.88-3.46-3-3.24-3.17-3.17-3.31-3-3.38-2.81-3.53-2.74-3.67-2.52-3.81-2.38L359,348.58l-4-2.09-4.1-1.8-4.1-1.66-4.25-1.51-4.25-1.22-4.32-1.15-4.32-.86-4.39-.72-4.46-.5-4.39-.29L312,336.7l-4.46.07-4.46.29-4.39.5-4.39.72-4.39.86-4.32,1.15-4.25,1.22L277.18,343,273,344.69l-4,1.8-4,2.09-3.89,2.16-3.74,2.38-3.67,2.52-3.53,2.74-3.46,2.81-3.24,3-3.17,3.17-3,3.24-2.88,3.46-2.66,3.53-2.52,3.67L226.85,385l-2.23,3.89-2,4-1.8,4-1.66,4.18-1.51,4.18-1.3,4.25-1.08,4.32-.86,4.39-.72,4.39-.5,4.39-.29,4.46-.07,4.46.07,4.46.29,4.39.5,4.46.72,4.39.86,4.39,1.08,4.25,1.3,4.32,1.51,4.18,1.66,4.1,1.8,4.1,2,4,2.23,3.89,2.38,3.74,2.52,3.67,2.66,3.53,2.88,3.46,3,3.24,3.17,3.17,3.24,3,3.46,2.81,3.53,2.74,3.67,2.52,3.74,2.38,3.89,2.16,4,2.09,4,1.8,4.18,1.66,4.18,1.51,4.25,1.22,4.32,1.08,4.39.94,4.39.65,4.39.5,4.46.36,4.46.07,4.46-.07,4.39-.36,4.46-.5,4.39-.65,4.32-.94,4.32-1.08,4.25-1.22,4.25-1.51,4.1-1.66,4.1-1.8,4-2.09,3.82-2.16,3.81-2.38,3.67-2.52,3.53-2.74,3.38-2.81,3.31-3,3.17-3.17,3-3.24,2.88-3.46,2.66-3.53,2.59-3.67,2.38-3.74,2.16-3.89,2-4,1.87-4.1,1.66-4.1,1.44-4.18,1.3-4.32,1.08-4.25.86-4.39.72-4.39.5-4.46.29-4.39.14-4.46Zm-37.8,50.26L376,483l2.3-3.31,2.16-3.46,1.87-3.53,1.8-3.6,1.58-3.67,1.44-3.74,1.22-3.89,1-3.89.79-4,.58-4,.43-4,.22-4v-4l-.22-4-.36-4-.65-4-.79-4-1-3.89-1.22-3.82-1.37-3.82-1.58-3.67-1.8-3.6-1.95-3.53-2.09-3.46L376,388.9l-2.52-3.17-2.59-3-2.81-3L365.23,377l-3.1-2.66L359,371.91l-3.31-2.3-3.38-2.09-3.53-2-3.6-1.73-3.74-1.58-3.74-1.44-3.82-1.15-4-1-3.89-.86-4-.58-4-.43-4-.14h-4l-4,.14-4,.43-4,.65-4,.79-3.89,1-3.82,1.22-3.74,1.37-3.74,1.66-3.6,1.73-3.53,1.94-3.38,2.16-3.31,2.3-3.17,2.45L373.44,486.17Zm-11.16,11.16L250.54,385.66,248,388.9l-2.3,3.24-2.09,3.46-1.94,3.53-1.8,3.6-1.58,3.67-1.44,3.82L235.7,414l-1,3.89-.86,4-.58,4-.43,4-.22,4v4l.22,4,.43,4,.58,4,.86,4,.94,3.89,1.22,3.89,1.44,3.74,1.58,3.67,1.73,3.6,2,3.6,2.09,3.38,2.3,3.31,2.45,3.17,2.66,3,2.74,3,3,2.74,3,2.66,3.17,2.45,3.31,2.3,3.46,2.16,3.53,1.94,3.6,1.73,3.67,1.58,3.82,1.44,3.82,1.15,3.89,1,4,.79,4,.65,4,.43,4,.14h4l4-.22,4-.36,4-.65,4-.79,3.89-1L337.8,511l3.74-1.44,3.67-1.58,3.6-1.73,3.53-2,3.46-2.09,3.31-2.3,3.17-2.52Z" transform="translate(-212.81 -336.7)" fill="#ed1c24" fill-rule="evenodd"/>
  </g>
</svg>
