<svg id="Layer_1" data-name="Layer 1" xmlns="http://www.w3.org/2000/svg" width="70mm" height="70mm" viewBox="0 0 198.43 198.43">
  <title>p011</title>
  <g id="symbolgrp">
    <path d="M267.31,425.89l.76-.15.87-.22,1.67-.54,1.56-.58,1.53-.51,3.12-1.05,1.53-.54,1.45-.47-.51.84-.69.76-.84.8-1,.8-1,.87-.91.87-.4.51-.36.54-.11.29,0,.29.07.65.07.33.18.25.25.22.29.11.33,0,.33,0,.62-.18,1.16-.54,1.13-.62-1.05,1.16-1,1.24-.87,1.31-.4.65-.36.73-.11.36,0,.4v.4l.07.4.22.33.36.15.4.07H276l1.56-.25.76-.22.69-.4.44-.33.4-.29.65-.51,1.38-1.05,1.45-1.12,1.42-1.2,1.38-1.27,1.27-1.27,1.2-1.23.62-.58.33-.29.36-.33,3.78-3.63,1.93-1.78,2-1.71,2-1.63,2-1.56,1-.69,1.05-.65,1.05-.58,1.05-.47-1.49,1.92-1.63,1.92L301,418.45l-1.78,1.78L297.39,422l-1.89,1.67-3.89,3.3-3.38,3.41-.84.87-.76.91-1.42,2-.58,1-.55,1.09-.47,1.13-.18.54v.62l.07.29.14.29.07.07.15.07.33,0h.29l.29,0,.54-.29.51-.33.47-.36,1-.69.94-.47.44-.22.33-.15.22-.07.33,0h.36l.25,0,0,.33,0,.29,0,.15-.11.25-.15.25-.15.36-.58,1.45-.47,1.49-.55,1.89-.18,1-.15,1-.11,2,.07,1,.18,1,.36.94.29.4.22.11.25.07.51,0,.44-.18.36-.36.29-.4,1.05-1.67.47-.91.4-.91.51-1.2.47-1.23.91-2.43.94-2.32,1-2.4,1-2.29,1.09-2.21,1.27-2.11,1.42-2,1.56-2,1.63-1.92,1.71-1.85,1.78-1.82,1.82-1.78,1.85-1.74,1.89-1.67,1.93-1.63L353,386.39l-15.84-25-31.65,12.24-1.38-15.47-.18-.76-.36-.73-.54-.58-.65-.44-.76-.22-.8,0-.76.18-.73.36-.58.54-.44.65-.22.76,0,.8,1.53,17.21-6.36,2.43,7.12,11.29-2.43,1.05-2.51,1-5.05,2-5.09,2.07-2.51,1.13-2.51,1.2-2.47,1.31-2.4,1.42L273,402.33l-2.25,1.56-2.22,1.6-1.13.87-1.13.91-1.05,1-1,1.05-.95,1.05-.91,1.09-.73,1-.29.54-.18.58,0,.33,0,.33.11.29.14.25.47.44.25.15.29.07h.65l.58-.15,1.16-.44,2.29-1-1.78,1.63-.84.87-.8.91-.69,1-.62,1.05-.22.54v.29l.11.29.22.22.25.15h.62l.58-.18.54-.22,1.09-.58,2.11-1.13,2.11-1.2,1.09-.51.54-.18.62-.07-.58.58-.65.58-.8.62-.84.62-3.38,2.58-.4.33-.36.4-.62.8-.29.44-.22.44-.15.51,0,.51.11.51.15.22.22.14.47.18h.51l2-.29ZM286.53,436l1.74-.87.47-.15.47-.07h1l.47.07.44.22.36.33.22.44.14.47,0,.51,0,.51-.14.47-.76,1.78-.62,1.85-.25,1-.15.94-.33,2-.11,1,0,.94v.25l.07.25.07,0h.15l.22-.11.18-.14.11-.22.18-.51.33-.94.36-.91.73-1.78,1.42-3.67,1.49-3.63.8-1.78.84-1.78.91-1.74,1-1.67,1.12-1.63,1.2-1.56,1.23-1.52,1.27-1.49,2.69-2.87,2.76-2.76,2.91-2.65,3-2.54-7.56-11.95-.84.44-.91.25-.95.07-.91-.15-.91-.29-.8-.44-.73-.62-.58-.76-.4-.83-.25-.91-.07-.91.11-.94.29-.87.47-.83.62-.69.73-.58-.58-.94L297,392.85l-4.21,1.63-4.25,1.67-4.18,1.78-2.07,1-2,1-2,1.09-2,1.16-1.89,1.23-1.89,1.31-3.67,2.65-.91.69-.84.76-1.63,1.6L264,412.13l-.36.44-.33.47-.07.29,0,.14.07.11.15,0h.15l.29-.07,1.05-.4,1-.47,2.11-.94,1-.47,1.09-.36.55,0,.33,0,.11,0,.07.11,0,.29-.07.25-.33.47-.76.87-.8.8-1.67,1.56L266,416.85l-.8.8-.18.25L265,418l.07.14.25.07.29-.07,4-2.21,2.11-.91,1.09-.29,1.16-.11.25,0,.22.15.15.29,0,.29-.15.54-.22.54-.58,1-.73.87-.84.76-.91.69-1.82,1.34-1.78,1.38-.94.73-.33.44-.11.29,0,.29.11.07h.14l.33-.07.58-.11,1.05-.25,1.05-.33,1.09-.4,2.18-.76,2.14-.69L277,421l2.18-.73,1.09-.29.54-.11.58,0h.33l.22.11.14.25,0,.29L282,421l-.25.54-.44,1.05-.58.94-.73.91-.8.76-1.78,1.45-.94.65-.18.22-.15.25v.15l0,.15.14,0h.15l.51-.29.47-.29,1-.62.91-.65,1-.58.51-.25.29-.07h.29l.25.11.15.22v.62l-.11.54-.22.51-.65.94-.69.91-.8.84-.76.8-.76.87-.73.87-.33.47-.22.54,0,.14.07.11.25.11.29,0,.29-.11.51-.25.47-.33,3.6-2.8,1.74-1.45,1.63-1.56,1.6-1.63,1.67-1.56,4.29-4.14,2.22-2,2.29-1.92,2.36-1.85,1.2-.87,1.23-.84,1.31-.73,1.34-.65.73-.25.73-.18.73-.07h.4l.36.07.15.11.11.15.11.4,0,.36-.11.36-.36.65-.4.62-.87,1.2-.95,1.16-1.93,2.29-2.07,2.18-2.11,2.11-2.22,2-4.51,3.92-.91.87-.94.8-.91.87-.84.94-1.45,2-.69,1.05-.25.58-.22.58Zm19-39-3.41-38.71-.15-.4-.25-.33-.36-.18-.4-.07-.4.15-.33.25-.18.36-.07.4,3.45,38.71,2.11-.18Z" transform="translate(-197.9 -321.79)" fill-rule="evenodd"/>
    <polygon points="56.36 94.95 55.99 95.68 55.7 96.44 55.48 97.2 55.34 98 55.2 99.63 55.16 101.27 55.3 102.9 55.23 104.5 55.16 105.33 55.01 106.13 54.72 106.9 54.32 107.58 53.89 106.9 53.56 106.17 53.2 105.44 52.72 104.79 52.18 104.17 51.56 103.67 51.2 103.48 50.8 103.37 50 103.37 50.47 104.43 50.62 104.97 50.73 105.55 50.94 107.84 50.94 110.16 50.84 112.45 50.62 114.78 50.4 115.9 50.25 116.44 50.03 116.99 49.78 117.5 49.56 117.72 49.31 117.83 49.05 117.75 48.84 117.57 48.58 117.03 48.36 116.48 48.07 116.01 47.42 115.07 46.69 114.16 46.26 113.76 45.78 113.5 45.46 113.5 45.42 113.61 45.42 113.76 45.57 114.34 45.64 114.88 45.64 115.46 45.6 116.63 45.42 117.79 44.91 120 44.48 122.25 44.33 123.38 44.22 124.54 44.22 125.2 44.15 125.45 43.93 125.63 43.64 125.67 43.39 125.52 43.02 125.09 42.62 124.69 42.08 124.4 41.53 124.25 40.99 124.14 41.24 125.09 41.39 126.03 41.39 127.01 41.28 127.99 41.17 129.92 41.21 131.88 41.24 133.84 41.42 135.76 41.71 137.69 41.93 138.63 42.22 139.57 42.55 140.48 42.99 141.39 43.46 142.22 43.97 143.06 44.55 143.86 45.17 144.58 45.86 145.28 46.62 145.89 47.45 146.36 48.4 146.69 49.34 146.91 50.33 147.05 52.25 147.16 54.21 147.13 52.47 145.96 51.63 145.31 50.91 144.58 50.29 143.75 49.71 142.84 48.66 141.03 48.22 140.08 47.78 139.14 47.42 138.16 47.13 137.14 46.73 135.11 46.66 134.06 46.73 133 47.13 133.47 47.45 133.95 48.22 134.89 48.25 133.98 48.36 133.04 48.87 131.26 49.2 129.41 49.34 128.97 49.53 128.54 50.03 127.77 50.8 130.61 51.49 133.47 51.89 134.89 52.4 136.27 52.72 136.92 53.05 137.58 53.41 138.23 53.6 138.52 53.85 138.81 54.03 138.88 54.21 138.85 54.4 138.78 54.47 138.63 54.43 138.23 54.29 137.87 54.07 137.21 53.96 136.49 53.71 135 53.56 133.55 53.6 132.09 53.74 130.64 54.03 129.19 54.47 127.77 54.69 128.57 55.01 129.3 55.38 130.03 55.67 130.79 56.36 132.24 56.79 132.93 57.3 133.58 57.74 132.71 58.03 131.8 58.21 130.86 58.32 129.92 58.36 126.1 58.28 124.18 58.17 122.29 57.96 120.37 57.81 118.48 58.32 118.52 58.54 118.59 58.72 118.73 59.37 119.5 60.46 121.13 61.45 122.83 61.84 123.74 62.13 124.65 62.57 126.58 62.68 127.56 62.72 128.54 62.57 130.5 62.43 131.48 62.17 132.42 62.79 131.99 63.33 131.48 63.84 130.93 64.24 130.28 64.86 128.94 65.55 127.59 65.95 128.39 66.13 128.79 66.24 129.19 66.35 130.06 66.39 130.93 66.39 131.8 66.28 132.68 66.06 133.51 65.73 134.35 66.79 134.09 67.77 133.66 67.77 134.67 67.66 135.69 67.44 136.67 67.15 137.65 66.39 139.54 65.91 140.45 65.3 141.28 64.64 142.08 63.92 142.81 63.19 143.5 62.39 144.15 61.55 144.77 60.72 145.31 58.9 146.29 59.74 146.54 60.61 146.76 61.45 146.84 62.35 146.87 64.1 146.76 64.93 146.62 65.81 146.44 66.64 146.15 67.44 145.82 69 145.02 69.73 144.58 70.46 144.08 71.11 143.5 71.73 142.88 72.89 141.54 73.83 140.08 74.27 139.32 74.64 138.52 74.92 137.72 75.18 136.89 75.4 136.02 75.54 135.18 75.69 133.4 75.69 132.53 75.62 131.66 75.4 130.82 75.07 130.03 74.56 130.68 74.16 131.37 73.73 132.09 73.44 132.35 73.22 132.46 73.04 132.46 72.89 132.31 72.82 132.09 72.82 131.7 72.93 130.86 73.07 129.23 73.58 126 73.87 122.76 73.94 121.09 73.91 120.29 73.8 119.5 73.4 117.9 73.14 117.1 72.82 116.37 72.42 115.65 72.16 115.32 71.98 115.28 71.76 115.32 71.66 115.46 71.58 115.68 71.44 116.05 71.29 116.84 70.82 118.44 70.71 118.84 70.53 119.2 70.24 119.5 69.95 119.75 69.66 118.81 69.44 117.83 69.08 115.83 68.71 113.83 68.31 111.83 68.02 110.85 67.69 109.91 67.33 108.97 66.86 108.06 66.35 107.19 65.73 106.39 65.37 106.03 64.97 105.73 64.06 105.23 64.06 106.57 64.03 107.95 63.88 109.26 63.77 109.58 63.66 109.73 63.52 109.84 63.37 109.84 63.23 109.76 63.04 109.47 62.53 108.2 62.17 106.93 61.84 105.59 61.45 104.32 60.97 103.05 60.65 102.47 60.28 101.89 58.57 99.78 57.85 98.65 57.16 97.49 56.9 96.87 56.79 96.22 56.61 95.57 56.36 94.95 56.36 94.95" fill-rule="evenodd"/>
    <path d="M396.34,421l-.14-4.46-.29-4.46-.5-4.39-.72-4.39-.86-4.39-1.08-4.32-1.3-4.25L390,386.16,388.34,382l-1.87-4-2-4-2.16-3.89-2.38-3.74-2.59-3.67-2.66-3.53-2.88-3.46-3-3.24-3.17-3.17-3.31-3L359,343.47l-3.53-2.74-3.67-2.52L348,335.83l-3.82-2.16-4-2.09-4.1-1.8-4.1-1.66-4.25-1.51-4.25-1.22-4.32-1.15-4.32-.86-4.39-.72-4.46-.5-4.39-.29-4.46-.07-4.46.07-4.46.29-4.39.5-4.39.72-4.39.86-4.32,1.15-4.25,1.22-4.18,1.51-4.18,1.66-4,1.8-4,2.09-3.89,2.16-3.74,2.38-3.67,2.52-3.53,2.74-3.46,2.81-3.24,3-3.17,3.17-3,3.24-2.88,3.46-2.66,3.53-2.52,3.67-2.38,3.74L209.71,374l-2,4-1.8,4-1.66,4.18-1.51,4.18-1.3,4.25-1.08,4.32-.86,4.39-.72,4.39-.5,4.39-.29,4.46L197.9,421l.07,4.46.29,4.39.5,4.46.72,4.39.86,4.39,1.08,4.25,1.3,4.32,1.51,4.18,1.66,4.1,1.8,4.1,2,4,2.23,3.89,2.38,3.74,2.52,3.67,2.66,3.53,2.88,3.46,3,3.24,3.17,3.17,3.24,3,3.46,2.81,3.53,2.74,3.67,2.52,3.74,2.38,3.89,2.16,4,2.09,4,1.8,4.18,1.66,4.18,1.51,4.25,1.22,4.32,1.08,4.39.94,4.39.65,4.39.5,4.46.36,4.46.07,4.46-.07,4.39-.36,4.46-.5,4.39-.65,4.32-.94,4.32-1.08,4.25-1.22,4.25-1.51,4.1-1.66,4.1-1.8,4-2.09,3.82-2.16,3.81-2.38,3.67-2.52,3.53-2.74,3.38-2.81,3.31-3,3.17-3.17,3-3.24,2.88-3.46,2.66-3.53,2.59-3.67,2.38-3.74,2.16-3.89,2-4,1.87-4.1,1.66-4.1,1.44-4.18,1.3-4.32,1.08-4.25.86-4.39.72-4.39.5-4.46.29-4.39.14-4.46Zm-37.8,50.26,2.52-3.17,2.3-3.31,2.16-3.46,1.87-3.53,1.8-3.6,1.58-3.67,1.44-3.74,1.22-3.89,1-3.89.79-4,.58-4,.43-4,.22-4v-4l-.22-4-.36-4-.65-4-.79-4-1-3.89-1.22-3.82-1.37-3.82-1.58-3.67-1.8-3.6-1.95-3.53-2.09-3.46-2.3-3.31-2.52-3.17-2.59-3-2.81-3-2.88-2.74-3.1-2.66L344.06,357l-3.31-2.3-3.38-2.09-3.53-2-3.6-1.73-3.74-1.58-3.74-1.44-3.82-1.15-4-1-3.89-.86-4-.58-4-.43-4-.14h-4l-4,.14-4,.43-4,.65-4,.79-3.89,1-3.82,1.22-3.74,1.37-3.74,1.66-3.6,1.73-3.53,1.94-3.38,2.16-3.31,2.3-3.17,2.45L358.54,471.27Zm-11.16,11.16L235.63,370.75,233.11,374l-2.3,3.24-2.09,3.46-1.94,3.53-1.8,3.6-1.58,3.67L222,395.31l-1.15,3.82-1,3.89-.86,4-.58,4-.43,4-.22,4v4l.22,4,.43,4,.58,4,.86,4,.94,3.89,1.22,3.89,1.44,3.74,1.58,3.67,1.73,3.6,2,3.6,2.09,3.38,2.3,3.31,2.45,3.17,2.66,3,2.74,3,3,2.74,3,2.66L250.1,485l3.31,2.3,3.46,2.16,3.53,1.94,3.6,1.73,3.67,1.58,3.82,1.44,3.82,1.15,3.89,1,4,.79,4,.65,4,.43,4,.14h4l4-.22,4-.36,4-.65,4-.79,3.89-1,3.89-1.22,3.74-1.44,3.67-1.58,3.6-1.73,3.53-2,3.46-2.09,3.31-2.3,3.17-2.52Z" transform="translate(-197.9 -321.79)" fill="#ed1c24" fill-rule="evenodd"/>
  </g>
</svg>
