<svg id="Layer_1" data-name="Layer 1" xmlns="http://www.w3.org/2000/svg" width="70mm" height="70mm" viewBox="0 0 198.43 198.43">
  <title>p013</title>
  <g id="symbolgrp">
    <path d="M311.88,378.43l-5.65,9.87-.81-.48-8.33,14.56,22.79,13L277.7,489.09l-29.44-16.83,42.17-73.69,2.35,1.36,8.33-14.56-.81-.48,5.65-9.83,5.91,3.37Zm1,7.26h0Zm3.78-6.68.22,1.17,0,1.14-.18,1.17-.4,1.06-.59,1-.73.88-.88.77-1,.59-1.1.4.88,3,1.29-.48,1.25-.66,1.1-.81,1-1,.84-1.1L319,385l.51-1.28.33-1.36L320,381l-.07-1.36-.22-1.39-3,.77Zm12.11-3.08.37,1.94.18,2v2l-.22,1.94-.4,1.94-.62,1.87-.81,1.83-1,1.69-1.17,1.61-1.32,1.5-1.43,1.32-1.62,1.17-1.69,1-1.8.84-1.87.62-.84-3,1.65-.59,1.62-.77,1.5-1,1.39-1.1,1.29-1.25,1.14-1.36,1-1.5.81-1.58.59-1.69.44-1.72.26-1.76,0-1.76-.15-1.76-.37-1.76,3-.77Zm9-2.31.51,2.27.29,2.27.11,2.35-.07,2.31-.26,2.31-.48,2.27-.62,2.24-.81,2.16-1,2.09-1.14,2-1.32,1.91-1.47,1.8L330,401.31l-1.73,1.54-1.87,1.39-1.95,1.25-2.06,1.1-2.13.88-2.2.73-.88-3,2.09-.7,2-.88,1.95-1,1.8-1.21,1.72-1.36,1.62-1.47,1.43-1.61,1.32-1.76,1.18-1.83,1-1.94.84-2,.66-2.09.48-2.13.29-2.16.11-2.16-.07-2.2-.29-2.16-.44-2.13,3-.77Zm-40.89-23.4-2.2.73-2.13.92-2.06,1.06-1.95,1.25-1.87,1.39L285,357.12l-1.62,1.69-1.47,1.8-1.29,1.91-1.17,2-1,2.09-.81,2.16L277,371l-.44,2.27-.29,2.31-.07,2.35.11,2.31.33,2.27.48,2.27,3-.77-.44-2.13-.26-2.16-.11-2.2.11-2.16.29-2.16.48-2.13.66-2.09.84-2,1-1.94,1.17-1.83,1.32-1.72,1.47-1.65,1.58-1.47L290,357l1.84-1.21,1.91-1,2-.88,2.09-.66-.88-3Zm2.61,9-1.87.62-1.8.84-1.69,1-1.61,1.17-1.43,1.36-1.32,1.47-1.14,1.61-1,1.72-.81,1.8-.62,1.87-.4,1.94-.22,2v1.94l.18,2,.4,1.94,3-.77L288.9,380l-.18-1.76.07-1.76.22-1.76.44-1.72.62-1.69.77-1.58,1-1.5,1.1-1.36,1.28-1.25,1.39-1.1,1.5-1,1.62-.73,1.65-.59-.84-3Zm2.57,9-1.28.48-1.21.66-1.14.81-1,1-.84,1.1-.7,1.21-.51,1.28L295.1,376l-.15,1.39.07,1.39.26,1.36,3-.77-.18-1.17v-1.14l.18-1.14.4-1.1.59-1L300,373l.88-.77,1-.59,1.1-.4-.88-3Z" transform="translate(-197.9 -321.79)" fill-rule="evenodd"/>
    <path d="M282.4,435.35l-.11-.7L282,434l-.4-.55-.55-.4-.62-.26-.7-.11-.66.11-.62.26-.55.4-.4.55-.29.62-.07.7.07.66.29.62.4.55.55.44.62.26.66.07.7-.07.62-.26.55-.44.4-.55.26-.62.11-.66Zm3.93-6.9-.07-.7-.26-.62-.44-.55-.51-.4-.66-.26-.66-.11-.7.11-.62.26-.55.4-.4.55-.26.62-.11.7.11.66.26.66.4.51.55.44.62.26.7.07.66-.07.66-.26.51-.44.44-.51.26-.66.07-.66Zm6.9,3.92-.07-.66-.29-.62-.4-.55-.55-.44-.62-.26-.66-.07-.7.07-.62.26-.55.44-.4.55-.26.62-.11.66.11.7.26.62.4.55.55.4.62.26.7.11.66-.11.62-.26.55-.4.4-.55.29-.62.07-.7Zm6.9,4-.11-.7-.26-.62-.4-.55-.55-.4-.62-.26-.7-.11-.66.11-.62.26-.55.4-.44.55-.26.62-.07.7.07.66.26.66.44.51.55.44.62.26.66.07.7-.07.62-.26.55-.44.4-.51L300,437l.11-.66Zm-4,6.9-.07-.7-.26-.62-.44-.55-.51-.4-.66-.26-.66-.11-.7.11-.62.26-.55.4-.4.55-.26.62-.11.7.11.66.26.62.4.55.55.44.62.26.7.07.66-.07.66-.26.51-.44.44-.55.26-.62.07-.66Zm-6.86-4-.11-.66-.26-.66-.4-.51L288,437l-.62-.26-.7-.07-.66.07-.66.26-.51.44-.44.51-.26.66-.07.66.07.7.26.62.44.55.51.4.66.26.66.11.7-.11.62-.26.55-.4.4-.55.26-.62.11-.7Zm-10.86,3-.07-.7-.26-.62-.4-.55-.55-.4-.62-.29-.7-.07-.66.07-.66.29-.51.4-.44.55-.26.62-.07.7.07.66.26.62.44.55.51.4.66.29.66.07.7-.07.62-.29.55-.4.4-.55.26-.62.07-.66Zm6.9,3.92-.07-.7-.26-.62-.44-.55-.55-.4-.62-.26-.66-.11-.7.11-.62.26-.55.4-.4.55-.26.62-.11.7.11.66.26.66.4.55.55.4.62.26.7.07.66-.07.62-.26.55-.4.44-.55.26-.66.07-.66Zm6.9,3.92-.11-.66-.26-.62-.4-.55-.55-.4-.62-.29-.7-.07-.66.07-.62.29-.55.4-.4.55-.29.62-.07.66.07.7.29.62.4.55.55.4.62.26.66.11.7-.11.62-.26.55-.4.4-.55.26-.62.11-.7Zm-4,6.9-.07-.66-.26-.62-.4-.55-.55-.44-.62-.26-.7-.07-.66.07-.66.26-.51.44-.44.55-.26.62-.07.66.07.7.26.62.44.55.51.4.66.26.66.11.7-.11.62-.26.55-.4.4-.55.26-.62.07-.7Zm-6.86-3.92-.11-.7-.26-.62-.4-.55-.55-.4-.62-.26-.7-.11-.66.11-.62.26-.55.4-.44.55-.26.62-.07.7.07.66.26.66.44.51.55.44.62.26.66.07.7-.07.62-.26.55-.44.4-.51.26-.66.11-.66Zm-6.9-4-.07-.66-.26-.62-.44-.55-.55-.44-.62-.26-.66-.07-.7.07-.62.26-.55.44-.4.55-.26.62-.11.66.11.7.26.62.4.55.55.4.62.26.7.11.66-.11.62-.26.55-.4.44-.55.26-.62.07-.7ZM273,468.25l-4.41-2.53-.62-.26-.66-.07-.66.11-.62.26-.51.4-.4.51-.26.62-.07.66.07.66.26.62.4.51.55.4,4.4,2.53.62.26.66.07.66-.07.62-.26.51-.4.4-.55.26-.59.07-.66-.07-.66-.26-.62-.4-.55-.55-.4Z" transform="translate(-197.9 -321.79)" fill="#fff" fill-rule="evenodd"/>
    <path d="M273.19,449.11l-.07-.48-.29-.44-.44-.29-.48-.07-.51.07-.44.29-.26.44-.11.48.11.51.26.44.44.26.51.11.48-.11.44-.26.29-.44.07-.51ZM287,457l-.11-.48-.29-.44-.4-.29-.51-.07-.51.07-.4.29-.29.44-.11.48.11.51.29.44.4.26.51.11.51-.11.4-.26.29-.44L287,457Z" transform="translate(-197.9 -321.79)" fill-rule="evenodd"/>
    <path d="M396.34,421l-.14-4.46-.29-4.46-.5-4.39-.72-4.39-.86-4.39-1.08-4.32-1.3-4.25L390,386.16,388.34,382l-1.87-4-2-4-2.16-3.89-2.38-3.74-2.59-3.67-2.66-3.53-2.88-3.46-3-3.24-3.17-3.17-3.31-3L359,343.47l-3.53-2.74-3.67-2.52L348,335.83l-3.82-2.16-4-2.09-4.1-1.8-4.1-1.66-4.25-1.51-4.25-1.22-4.32-1.15-4.32-.86-4.39-.72-4.46-.5-4.39-.29-4.46-.07-4.46.07-4.46.29-4.39.5-4.39.72-4.39.86-4.32,1.15-4.25,1.22-4.18,1.51-4.18,1.66-4,1.8-4,2.09-3.89,2.16-3.74,2.38-3.67,2.52-3.53,2.74-3.46,2.81-3.24,3-3.17,3.17-3,3.24-2.88,3.46-2.66,3.53-2.52,3.67-2.38,3.74L209.71,374l-2,4-1.8,4-1.66,4.18-1.51,4.18-1.3,4.25-1.08,4.32-.86,4.39-.72,4.39-.5,4.39-.29,4.46L197.9,421l.07,4.46.29,4.39.5,4.46.72,4.39.86,4.39,1.08,4.25,1.3,4.32,1.51,4.18,1.66,4.1,1.8,4.1,2,4,2.23,3.89,2.38,3.74,2.52,3.67,2.66,3.53,2.88,3.46,3,3.24,3.17,3.17,3.24,3,3.46,2.81,3.53,2.74,3.67,2.52,3.74,2.38,3.89,2.16,4,2.09,4,1.8,4.18,1.66,4.18,1.51,4.25,1.22,4.32,1.08,4.39.94,4.39.65,4.39.5,4.46.36,4.46.07,4.46-.07,4.39-.36,4.46-.5,4.39-.65,4.32-.94,4.32-1.08,4.25-1.22,4.25-1.51,4.1-1.66,4.1-1.8,4-2.09,3.82-2.16,3.81-2.38,3.67-2.52,3.53-2.74,3.38-2.81,3.31-3,3.17-3.17,3-3.24,2.88-3.46,2.66-3.53,2.59-3.67,2.38-3.74,2.16-3.89,2-4,1.87-4.1,1.66-4.1,1.44-4.18,1.3-4.32,1.08-4.25.86-4.39.72-4.39.5-4.46.29-4.39.14-4.46Zm-37.8,50.26,2.52-3.17,2.3-3.31,2.16-3.46,1.87-3.53,1.8-3.6,1.58-3.67,1.44-3.74,1.22-3.89,1-3.89.79-4,.58-4,.43-4,.22-4v-4l-.22-4-.36-4-.65-4-.79-4-1-3.89-1.22-3.82-1.37-3.82-1.58-3.67-1.8-3.6-1.95-3.53-2.09-3.46-2.3-3.31-2.52-3.17-2.59-3-2.81-3-2.88-2.74-3.1-2.66L344.06,357l-3.31-2.3-3.38-2.09-3.53-2-3.6-1.73-3.74-1.58-3.74-1.44-3.82-1.15-4-1-3.89-.86-4-.58-4-.43-4-.14h-4l-4,.14-4,.43-4,.65-4,.79-3.89,1-3.82,1.22-3.74,1.37-3.74,1.66-3.6,1.73-3.53,1.94-3.38,2.16-3.31,2.3-3.17,2.45L358.54,471.27Zm-11.16,11.16L235.63,370.75,233.11,374l-2.3,3.24-2.09,3.46-1.94,3.53-1.8,3.6-1.58,3.67L222,395.31l-1.15,3.82-1,3.89-.86,4-.58,4-.43,4-.22,4v4l.22,4,.43,4,.58,4,.86,4,.94,3.89,1.22,3.89,1.44,3.74,1.58,3.67,1.73,3.6,2,3.6,2.09,3.38,2.3,3.31,2.45,3.17,2.66,3,2.74,3,3,2.74,3,2.66L250.1,485l3.31,2.3,3.46,2.16,3.53,1.94,3.6,1.73,3.67,1.58,3.82,1.44,3.82,1.15,3.89,1,4,.79,4,.65,4,.43,4,.14h4l4-.22,4-.36,4-.65,4-.79,3.89-1,3.89-1.22,3.74-1.44,3.67-1.58,3.6-1.73,3.53-2,3.46-2.09,3.31-2.3,3.17-2.52Z" transform="translate(-197.9 -321.79)" fill="#ed1c24" fill-rule="evenodd"/>
  </g>
</svg>
