<svg id="Layer_1" data-name="Layer 1" xmlns="http://www.w3.org/2000/svg" width="70mm" height="70mm" viewBox="0 0 198.43 198.43">
  <title>p014</title>
  <g id="symbolgrp">
    <path d="M302.16,350.38a26.65,26.65,0,0,0,4.1,10.44c.94,1.08,2.23,4.39,1.87,6l-.87,8.64a21.07,21.07,0,0,1,8.35-1.87c.86,0,1.8,0,2.66.07a29.68,29.68,0,0,1,4.39.94c1,.36,2,.72,3,1.15s1.87,1,2.81,1.58,1.66,1.3,2.52,2a31.13,31.13,0,0,1,2.16,2.3l1.3,1.73a27.56,27.56,0,0,1,1.58,2.81,26.89,26.89,0,0,1,1.22,3c.29,1.15.58,2.16.79,3.24a26.6,26.6,0,0,1,.22,3.38c0,1-.07,2-.14,3a27,27,0,0,1-1.22,4.75c-.36.86-.72,1.73-1.15,2.59a29.41,29.41,0,0,1-2.66,4c-.65.72-1.22,1.37-1.95,2.09a33.65,33.65,0,0,1-3.74,2.81,20.37,20.37,0,0,1-5,2.16c2.52,12.38,8.06,16.49,16,19.87,10.22,5,15.91,12,18.65,23.26l-2,3c-.43-3.74-2.81-17.21-16.85-23.33-8.57-3.6-16.92-9.43-18.5-24.62a19.84,19.84,0,0,0-3.67-39.31,19.34,19.34,0,0,0-11.38,3.67l.87-13.25c.21-1-.87-3.6-1.44-4.46a26.36,26.36,0,0,1-4.54-11.74l2.59.07ZM316,380.11A16.09,16.09,0,0,1,332,396.24c0,9.58-7.71,16.06-16.85,16.06,1.73,2.45,3.82,12.6-.65,15.7-5.19,4.54-8.42,7.2-10.58,12.1a174.44,174.44,0,0,0-16.34,52.06l-3.1-.58a177.34,177.34,0,0,1,16.85-53c2.73-5.11,6-8.42,11.16-12.46,3.53-3,1.87-11.3-.36-12.53.14,1.22.86,6.7-6.12,6-3.67.58-7,4.75-12.1,10.94-10.22,12.46-11.81,54.94-18,52.27-7.13,1.44,6.7-75.67,14-79.7.29-9.79,5.33-6.55,8.42-6.7-3.67-7.92-7.42-9.43-11.59-11-9.43-3.67-22.61,4.68-24.34,14.4s2.74,25.06,3.82,35.35c1.8,17.64.36,33.26-1.3,49.82l-3.1-1.58c2.88-22.75,2.81-34.78,1.3-47.81-1.08-8.93-4.25-19.94-4.32-29.81a36.44,36.44,0,0,1,.5-6.34c2.16-13,18.07-20.59,27.72-17.06,6,2.16,9.79,4.18,13.18,11.3A15.67,15.67,0,0,1,316,380.11Z" transform="translate(-197.9 -321.79)" fill-rule="evenodd"/>
    <path d="M396.34,421l-.14-4.46-.29-4.46-.5-4.39-.72-4.39-.86-4.39-1.08-4.32-1.3-4.25L390,386.16,388.34,382l-1.87-4-2-4-2.16-3.89-2.38-3.74-2.59-3.67-2.66-3.53-2.88-3.46-3-3.24-3.17-3.17-3.31-3L359,343.47l-3.53-2.74-3.67-2.52L348,335.83l-3.82-2.16-4-2.09-4.1-1.8-4.1-1.66-4.25-1.51-4.25-1.22-4.32-1.15-4.32-.86-4.39-.72-4.46-.5-4.39-.29-4.46-.07-4.46.07-4.46.29-4.39.5-4.39.72-4.39.86-4.32,1.15-4.25,1.22-4.18,1.51-4.18,1.66-4,1.8-4,2.09-3.89,2.16-3.74,2.38-3.67,2.52-3.53,2.74-3.46,2.81-3.24,3-3.17,3.17-3,3.24-2.88,3.46-2.66,3.53-2.52,3.67-2.38,3.74L209.71,374l-2,4-1.8,4-1.66,4.18-1.51,4.18-1.3,4.25-1.08,4.32-.86,4.39-.72,4.39-.5,4.39-.29,4.46L197.9,421l.07,4.46.29,4.39.5,4.46.72,4.39.86,4.39,1.08,4.25,1.3,4.32,1.51,4.18,1.66,4.1,1.8,4.1,2,4,2.23,3.89,2.38,3.74,2.52,3.67,2.66,3.53,2.88,3.46,3,3.24,3.17,3.17,3.24,3,3.46,2.81,3.53,2.74,3.67,2.52,3.74,2.38,3.89,2.16,4,2.09,4,1.8,4.18,1.66,4.18,1.51,4.25,1.22,4.32,1.08,4.39.94,4.39.65,4.39.5,4.46.36,4.46.07,4.46-.07,4.39-.36,4.46-.5,4.39-.65,4.32-.94,4.32-1.08,4.25-1.22,4.25-1.51,4.1-1.66,4.1-1.8,4-2.09,3.82-2.16,3.81-2.38,3.67-2.52,3.53-2.74,3.38-2.81,3.31-3,3.17-3.17,3-3.24,2.88-3.46,2.66-3.53,2.59-3.67,2.38-3.74,2.16-3.89,2-4,1.87-4.1,1.66-4.1,1.44-4.18,1.3-4.32,1.08-4.25.86-4.39.72-4.39.5-4.46.29-4.39.14-4.46Zm-37.8,50.26,2.52-3.17,2.3-3.31,2.16-3.46,1.87-3.53,1.8-3.6,1.58-3.67,1.44-3.74,1.22-3.89,1-3.89.79-4,.58-4,.43-4,.22-4v-4l-.22-4-.36-4-.65-4-.79-4-1-3.89-1.22-3.82-1.37-3.82-1.58-3.67-1.8-3.6-1.95-3.53-2.09-3.46-2.3-3.31-2.52-3.17-2.59-3-2.81-3-2.88-2.74-3.1-2.66L344.06,357l-3.31-2.3-3.38-2.09-3.53-2-3.6-1.73-3.74-1.58-3.74-1.44-3.82-1.15-4-1-3.89-.86-4-.58-4-.43-4-.14h-4l-4,.14-4,.43-4,.65-4,.79-3.89,1-3.82,1.22-3.74,1.37-3.74,1.66-3.6,1.73-3.53,1.94-3.38,2.16-3.31,2.3-3.17,2.45L358.54,471.27Zm-11.16,11.16L235.63,370.75,233.11,374l-2.3,3.24-2.09,3.46-1.94,3.53-1.8,3.6-1.58,3.67L222,395.31l-1.15,3.82-1,3.89-.86,4-.58,4-.43,4-.22,4v4l.22,4,.43,4,.58,4,.86,4,.94,3.89,1.22,3.89,1.44,3.74,1.58,3.67,1.73,3.6,2,3.6,2.09,3.38,2.3,3.31,2.45,3.17,2.66,3,2.74,3,3,2.74,3,2.66L250.1,485l3.31,2.3,3.46,2.16,3.53,1.94,3.6,1.73,3.67,1.58,3.82,1.44,3.82,1.15,3.89,1,4,.79,4,.65,4,.43,4,.14h4l4-.22,4-.36,4-.65,4-.79,3.89-1,3.89-1.22,3.74-1.44,3.67-1.58,3.6-1.73,3.53-2,3.46-2.09,3.31-2.3,3.17-2.52Z" transform="translate(-197.9 -321.79)" fill="#ed1c24" fill-rule="evenodd"/>
  </g>
</svg>
