<svg id="Layer_1" data-name="Layer 1" xmlns="http://www.w3.org/2000/svg" width="70mm" height="70mm" viewBox="0 0 198.43 198.43">
  <title>p015</title>
  <g id="symbolgrp">
    <path d="M288.62,460.83c4.1,1.58,6-.79,8.28-3.38a14,14,0,0,0-1.08-9.58l-9.65,6.62a15.8,15.8,0,0,0,2.45,6.34Z" transform="translate(-197.9 -321.79)" fill="#231f20" fill-rule="evenodd"/>
    <path d="M304.39,442.25l-6.7,4.68a24.62,24.62,0,0,1,1.66,8.93c3-.36,6-1.8,8.28-8a7.48,7.48,0,0,0-3.24-5.62Z" transform="translate(-197.9 -321.79)" fill="#231f20" fill-rule="evenodd"/>
    <path d="M314.4,433.32c10.22-5.83,14.69-9.5,16.63-12.38,2.3-3.38,6-9.29,8.35-13.75,4.25-8.14,12.89-19,19.22-25-8.28-10.22-11.45-15.48-19.94-20.66-19.08,10.22-53.42,13.75-57.6,21.31-9.65,7.63-16.49,21.74-24.7,34.42-1.87,2.81-2.45,5.69-1.15,12.53l.86,29.09c2.52,3.74,10-1.15,10.08-3.46,3-9.86,3.53-17.42,2.88-28.15,1.08-3.6,3.24-6.48,7.7-10.51l8.35-5.11L278,419.28c-4.82,6.77-.14,8.64,3.17,18.79,3.46-3,4-3.67,8.71-6.55l4.82-4-3.53,4.82c-6.48,5.4-17.35,11.52-15.91,21.67,1.08,2.52,1.73,5,6.19,1.66,10.37-8.06,22-15,33-22.32Z" transform="translate(-197.9 -321.79)" fill="#231f20" fill-rule="evenodd"/>
    <polygon points="105.48 171.86 111.24 171.22 144.79 100.08 140.04 98.64 105.48 171.86 105.48 171.86" fill="#231f20" fill-rule="evenodd"/>
    <path d="M241.9,468.6l4.9,5.11c-.86-25.49-1.73-52.78-2.38-77.54l-5.18-1.58,2.66,74Z" transform="translate(-197.9 -321.79)" fill="#231f20" fill-rule="evenodd"/>
    <path d="M396.34,421l-.14-4.46-.29-4.46-.5-4.39-.72-4.39-.86-4.39-1.08-4.32-1.3-4.25L390,386.16,388.34,382l-1.87-4-2-4-2.16-3.89-2.38-3.74-2.59-3.67-2.66-3.53-2.88-3.46-3-3.24-3.17-3.17-3.31-3L359,343.47l-3.53-2.74-3.67-2.52L348,335.83l-3.82-2.16-4-2.09-4.1-1.8-4.1-1.66-4.25-1.51-4.25-1.22-4.32-1.15-4.32-.86-4.39-.72-4.46-.5-4.39-.29-4.46-.07-4.46.07-4.46.29-4.39.5-4.39.72-4.39.86-4.32,1.15-4.25,1.22-4.18,1.51-4.18,1.66-4,1.8-4,2.09-3.89,2.16-3.74,2.38-3.67,2.52-3.53,2.74-3.46,2.81-3.24,3-3.17,3.17-3,3.24-2.88,3.46-2.66,3.53-2.52,3.67-2.38,3.74L209.71,374l-2,4-1.8,4-1.66,4.18-1.51,4.18-1.3,4.25-1.08,4.32-.86,4.39-.72,4.39-.5,4.39-.29,4.46L197.9,421l.07,4.46.29,4.39.5,4.46.72,4.39.86,4.39,1.08,4.25,1.3,4.32,1.51,4.18,1.66,4.1,1.8,4.1,2,4,2.23,3.89,2.38,3.74,2.52,3.67,2.66,3.53,2.88,3.46,3,3.24,3.17,3.17,3.24,3,3.46,2.81,3.53,2.74,3.67,2.52,3.74,2.38,3.89,2.16,4,2.09,4,1.8,4.18,1.66,4.18,1.51,4.25,1.22,4.32,1.08,4.39.94,4.39.65,4.39.5,4.46.36,4.46.07,4.46-.07,4.39-.36,4.46-.5,4.39-.65,4.32-.94,4.32-1.08,4.25-1.22,4.25-1.51,4.1-1.66,4.1-1.8,4-2.09,3.82-2.16,3.81-2.38,3.67-2.52,3.53-2.74,3.38-2.81,3.31-3,3.17-3.17,3-3.24,2.88-3.46,2.66-3.53,2.59-3.67,2.38-3.74,2.16-3.89,2-4,1.87-4.1,1.66-4.1,1.44-4.18,1.3-4.32,1.08-4.25.86-4.39.72-4.39.5-4.46.29-4.39.14-4.46Zm-37.8,50.26,2.52-3.17,2.3-3.31,2.16-3.46,1.87-3.53,1.8-3.6,1.58-3.67,1.44-3.74,1.22-3.89,1-3.89.79-4,.58-4,.43-4,.22-4v-4l-.22-4-.36-4-.65-4-.79-4-1-3.89-1.22-3.82-1.37-3.82-1.58-3.67-1.8-3.6-1.95-3.53-2.09-3.46-2.3-3.31-2.52-3.17-2.59-3-2.81-3-2.88-2.74-3.1-2.66L344.06,357l-3.31-2.3-3.38-2.09-3.53-2-3.6-1.73-3.74-1.58-3.74-1.44-3.82-1.15-4-1-3.89-.86-4-.58-4-.43-4-.14h-4l-4,.14-4,.43-4,.65-4,.79-3.89,1-3.82,1.22-3.74,1.37-3.74,1.66-3.6,1.73-3.53,1.94-3.38,2.16-3.31,2.3-3.17,2.45L358.54,471.27Zm-11.16,11.16L235.63,370.75,233.11,374l-2.3,3.24-2.09,3.46-1.94,3.53-1.8,3.6-1.58,3.67L222,395.31l-1.15,3.82-1,3.89-.86,4-.58,4-.43,4-.22,4v4l.22,4,.43,4,.58,4,.86,4,.94,3.89,1.22,3.89,1.44,3.74,1.58,3.67,1.73,3.6,2,3.6,2.09,3.38,2.3,3.31,2.45,3.17,2.66,3,2.74,3,3,2.74,3,2.66L250.1,485l3.31,2.3,3.46,2.16,3.53,1.94,3.6,1.73,3.67,1.58,3.82,1.44,3.82,1.15,3.89,1,4,.79,4,.65,4,.43,4,.14h4l4-.22,4-.36,4-.65,4-.79,3.89-1,3.89-1.22,3.74-1.44,3.67-1.58,3.6-1.73,3.53-2,3.46-2.09,3.31-2.3,3.17-2.52Z" transform="translate(-197.9 -321.79)" fill="#ed1c24" fill-rule="evenodd"/>
  </g>
</svg>
