<svg id="Layer_1" data-name="Layer 1" xmlns="http://www.w3.org/2000/svg" width="70mm" height="70mm" viewBox="0 0 198.42 198.42">
  <title>p017</title>
  <g id="symbolgrp">
    <polygon points="152.5 52.59 152.5 145.84 151.22 147.25 149.91 148.64 148.56 149.99 147.18 151.3 145.76 152.57 144.3 153.8 142.81 155 141.29 156.15 139.75 157.26 58.67 157.26 57.17 156.18 55.68 155.06 54.24 153.9 52.82 152.69 128.1 152.69 128.1 52.59 152.5 52.59 152.5 52.59" fill-rule="evenodd"/>
    <polygon points="100.79 125.07 87.09 150.01 86.8 150.48 86.47 150.9 86.09 151.28 85.67 151.65 85.22 151.95 84.75 152.19 84.25 152.41 83.73 152.56 83.2 152.66 82.65 152.69 82.11 152.67 81.58 152.6 81.05 152.47 80.54 152.28 80.05 152.05 79.6 151.76 79.17 151.43 78.78 151.05 78.43 150.65 78.13 150.2 77.87 149.73 77.66 149.22 77.5 148.7 77.42 148.16 77.38 147.63 77.39 147.08 77.46 146.55 77.59 146.03 77.78 145.51 78.01 145.03 89.73 123.71 68.43 104.84 45.9 145.81 44.67 144.37 43.48 142.88 42.33 141.38 41.22 139.83 40.15 138.26 39.12 136.67 61.36 96.23 79.12 63.92 79.37 63.52 79.67 63.13 80 62.78 80.38 62.48 80.79 62.2 81.2 61.99 81.65 61.81 82.13 61.68 82.61 61.61 83.08 61.58 128.1 61.58 128.1 70.64 99.05 70.64 81.48 102.58 99.69 118.7 100.08 119.09 100.41 119.5 100.72 119.94 100.96 120.42 101.16 120.93 101.31 121.43 101.39 121.97 101.44 122.5 101.41 123.03 101.34 123.57 101.21 124.09 101.03 124.59 100.79 125.07 100.79 125.07" fill-rule="evenodd"/>
    <polygon points="94.44 49.94 94.41 49.23 94.33 48.53 94.18 47.82 94 47.14 93.75 46.48 93.45 45.83 93.1 45.2 92.71 44.61 92.26 44.06 91.78 43.53 91.26 43.05 90.7 42.62 90.11 42.22 89.49 41.87 88.85 41.58 88.19 41.33 87.49 41.13 86.8 41 86.09 40.92 85.38 40.89 84.67 40.92 83.97 41 83.27 41.13 82.58 41.33 81.91 41.58 81.28 41.87 80.66 42.22 80.06 42.62 79.5 43.05 78.98 43.53 78.5 44.06 78.05 44.61 77.66 45.2 77.32 45.83 77.01 46.48 76.77 47.14 76.58 47.82 76.44 48.53 76.35 49.23 76.32 49.94 76.35 50.65 76.44 51.36 76.58 52.05 76.77 52.74 77.01 53.41 77.32 54.04 77.66 54.66 78.05 55.26 78.5 55.82 78.98 56.34 79.5 56.83 80.06 57.26 80.66 57.65 81.28 58 81.91 58.3 82.58 58.55 83.27 58.74 83.97 58.88 84.67 58.97 85.38 59 86.09 58.97 86.8 58.88 87.49 58.74 88.19 58.55 88.85 58.3 89.49 58 90.11 57.65 90.7 57.26 91.26 56.83 91.78 56.34 92.26 55.82 92.71 55.26 93.1 54.66 93.45 54.04 93.75 53.41 94 52.74 94.18 52.05 94.33 51.36 94.41 50.65 94.44 49.94 94.44 49.94" fill-rule="evenodd"/>
    <path d="M297.16,520.22A99.21,99.21,0,1,0,197.91,421a99.24,99.24,0,0,0,99.25,99.25Zm50.2-37.74A79.39,79.39,0,0,1,235.65,370.77L347.36,482.48Zm11.23-11.24A79.39,79.39,0,0,0,246.88,359.54L358.59,471.25Z" transform="translate(-197.91 -321.8)" fill="#ed1c24" fill-rule="evenodd"/>
  </g>
</svg>
