<svg id="Layer_1" data-name="Layer 1" xmlns="http://www.w3.org/2000/svg" width="70mm" height="70mm" viewBox="0 0 198.42 198.42">
  <title>p018</title>
  <g id="symbolgrp">
    <polygon points="64.96 94.38 64.93 93.81 64.85 93.24 64.72 92.7 64.53 92.16 64.28 91.63 63.99 91.15 63.65 90.69 63.26 90.27 62.85 89.89 62.38 89.55 61.89 89.25 61.38 89.01 60.84 88.82 60.28 88.68 59.73 88.59 59.15 88.56 58.58 88.59 58.01 88.68 57.47 88.82 56.93 89.01 56.4 89.25 55.92 89.55 55.46 89.89 55.04 90.27 54.66 90.69 54.32 91.15 54.02 91.63 53.78 92.16 53.59 92.7 53.45 93.24 53.36 93.81 53.33 94.38 53.36 94.95 53.45 95.51 53.59 96.06 53.78 96.6 54.02 97.11 54.32 97.61 54.66 98.07 55.04 98.49 55.46 98.87 55.92 99.21 56.4 99.51 56.93 99.75 57.47 99.94 58.01 100.08 58.58 100.17 59.15 100.2 59.73 100.17 60.28 100.08 60.84 99.94 61.38 99.75 61.89 99.51 62.38 99.21 62.85 98.87 63.26 98.49 63.65 98.07 63.99 97.61 64.28 97.11 64.53 96.6 64.72 96.06 64.85 95.51 64.93 94.95 64.96 94.38 64.96 94.38" fill-rule="evenodd"/>
    <polygon points="93.03 87.46 93 86.89 92.92 86.32 92.79 85.78 92.58 85.24 92.34 84.72 92.04 84.24 91.7 83.77 91.33 83.36 90.9 82.97 90.45 82.63 89.96 82.34 89.45 82.09 88.91 81.89 88.35 81.77 87.78 81.67 87.21 81.64 86.65 81.67 86.08 81.77 85.53 81.89 84.98 82.09 84.47 82.34 83.98 82.63 83.53 82.97 83.1 83.36 82.73 83.77 82.39 84.24 82.09 84.72 81.85 85.24 81.65 85.78 81.51 86.32 81.43 86.89 81.4 87.46 81.43 88.03 81.51 88.59 81.65 89.15 81.85 89.69 82.09 90.2 82.39 90.69 82.73 91.15 83.1 91.57 83.53 91.96 83.98 92.3 84.47 92.59 84.98 92.84 85.53 93.02 86.08 93.16 86.65 93.25 87.21 93.27 87.78 93.25 88.35 93.16 88.91 93.02 89.45 92.84 89.96 92.59 90.45 92.3 90.9 91.96 91.33 91.57 91.7 91.15 92.04 90.69 92.34 90.2 92.58 89.69 92.79 89.15 92.92 88.59 93 88.03 93.03 87.46 93.03 87.46" fill-rule="evenodd"/>
    <polygon points="119.41 40.67 119.37 39.83 119.3 39 119.14 38.18 118.94 37.38 118.68 36.59 118.35 35.84 117.98 35.09 117.56 34.37 117.09 33.69 116.56 33.04 116.01 32.44 115.39 31.87 114.75 31.36 114.08 30.88 113.35 30.46 112.61 30.08 111.85 29.77 111.06 29.5 110.26 29.3 109.44 29.15 108.61 29.06 107.79 29.03 106.95 29.06 106.12 29.15 105.31 29.3 104.5 29.5 103.72 29.77 102.95 30.08 102.21 30.46 101.5 30.88 100.8 31.36 100.17 31.87 99.55 32.44 99 33.04 98.47 33.69 97.99 34.37 97.58 35.09 97.2 35.84 96.88 36.59 96.62 37.38 96.42 38.18 96.28 39 96.19 39.83 96.15 40.67 96.19 41.48 96.28 42.32 96.42 43.14 96.62 43.94 96.88 44.73 97.2 45.48 97.58 46.23 97.99 46.95 98.47 47.63 99 48.28 99.55 48.88 100.17 49.45 100.8 49.96 101.5 50.44 102.21 50.87 102.95 51.24 103.72 51.55 104.5 51.81 105.31 52.02 106.12 52.17 106.95 52.26 107.79 52.29 108.61 52.26 109.44 52.17 110.26 52.02 111.06 51.81 111.85 51.55 112.61 51.24 113.35 50.87 114.08 50.44 114.75 49.96 115.39 49.45 116.01 48.88 116.56 48.28 117.09 47.63 117.56 46.95 117.98 46.23 118.35 45.48 118.68 44.73 118.94 43.94 119.14 43.14 119.3 42.32 119.37 41.48 119.41 40.67 119.41 40.67" fill-rule="evenodd"/>
    <polygon points="77.88 108.77 77.85 108.15 77.77 107.55 77.63 106.95 77.43 106.36 77.18 105.81 76.89 105.27 76.53 104.77 76.15 104.29 75.72 103.86 75.24 103.46 74.73 103.12 74.2 102.83 73.63 102.58 73.06 102.38 72.45 102.24 71.85 102.14 71.23 102.13 70.62 102.14 70.01 102.24 69.41 102.38 68.84 102.58 68.27 102.83 67.73 103.12 67.23 103.46 66.75 103.86 66.32 104.29 65.94 104.77 65.58 105.27 65.29 105.81 65.04 106.36 64.84 106.95 64.7 107.55 64.62 108.15 64.59 108.77 64.62 109.39 64.7 109.99 64.84 110.59 65.04 111.16 65.29 111.73 65.58 112.26 65.94 112.77 66.32 113.25 66.75 113.68 67.23 114.06 67.73 114.42 68.27 114.71 68.84 114.96 69.41 115.16 70.01 115.3 70.62 115.38 71.23 115.41 71.85 115.38 72.45 115.3 73.06 115.16 73.63 114.96 74.2 114.71 74.73 114.42 75.24 114.06 75.72 113.68 76.15 113.25 76.53 112.77 76.89 112.26 77.18 111.73 77.43 111.16 77.63 110.59 77.77 109.99 77.85 109.39 77.88 108.77 77.88 108.77" fill-rule="evenodd"/>
    <polygon points="77.88 145.31 77.85 144.7 77.77 144.09 77.63 143.49 77.43 142.92 77.18 142.35 76.89 141.81 76.53 141.31 76.15 140.84 75.72 140.4 75.24 140.02 74.73 139.66 74.2 139.37 73.63 139.12 73.06 138.92 72.45 138.78 71.85 138.69 71.23 138.68 70.62 138.69 70.01 138.78 69.41 138.92 68.84 139.12 68.27 139.37 67.73 139.66 67.23 140.02 66.75 140.4 66.32 140.84 65.94 141.31 65.58 141.81 65.29 142.35 65.04 142.92 64.84 143.49 64.7 144.09 64.62 144.7 64.59 145.31 64.62 145.93 64.7 146.53 64.84 147.14 65.04 147.71 65.29 148.28 65.58 148.82 65.94 149.31 66.32 149.79 66.75 150.22 67.23 150.61 67.73 150.97 68.27 151.26 68.84 151.5 69.41 151.71 70.01 151.84 70.62 151.94 71.23 151.95 71.85 151.94 72.45 151.84 73.06 151.71 73.63 151.5 74.2 151.26 74.73 150.97 75.24 150.61 75.72 150.22 76.15 149.79 76.53 149.31 76.89 148.82 77.18 148.28 77.43 147.71 77.63 147.14 77.77 146.53 77.85 145.93 77.88 145.31 77.88 145.31" fill-rule="evenodd"/>
    <polygon points="77.88 108.77 64.59 108.77 64.59 145.31 77.88 145.31 77.88 108.77 77.88 108.77" fill-rule="evenodd"/>
    <polygon points="118.48 66.31 118.45 65.51 118.35 64.72 118.22 63.93 118 63.16 117.73 62.41 117.41 61.66 117.04 60.95 116.62 60.27 116.14 59.64 115.62 59.02 115.06 58.47 114.45 57.94 113.81 57.47 113.13 57.05 112.42 56.68 111.7 56.35 110.94 56.09 110.17 55.87 109.38 55.73 108.58 55.64 107.79 55.61 106.98 55.64 106.18 55.73 105.39 55.87 104.62 56.09 103.88 56.35 103.14 56.68 102.43 57.05 101.75 57.47 101.11 57.94 100.51 58.47 99.94 59.02 99.41 59.64 98.94 60.27 98.52 60.95 98.15 61.66 97.82 62.41 97.56 63.16 97.34 63.93 97.2 64.72 97.11 65.51 97.08 66.31 97.08 104.71 97.11 105.51 97.2 106.31 97.34 107.1 97.56 107.87 97.82 108.63 98.15 109.36 98.52 110.07 98.94 110.75 99.41 111.38 99.94 112 100.51 112.55 101.11 113.08 101.75 113.56 102.43 113.97 103.14 114.36 103.88 114.67 104.62 114.94 105.39 115.14 106.18 115.3 106.98 115.38 107.79 115.41 108.58 115.38 109.38 115.3 110.17 115.14 110.94 114.94 111.7 114.67 112.42 114.36 113.13 113.97 113.81 113.56 114.45 113.08 115.06 112.55 115.62 112 116.14 111.38 116.62 110.75 117.04 110.07 117.41 109.36 117.73 108.63 118 107.87 118.22 107.1 118.35 106.31 118.45 105.51 118.48 104.71 118.48 66.31 118.48 66.31" fill-rule="evenodd"/>
    <polygon points="88.61 93.1 60.54 100.03 57.76 88.73 85.82 81.81 88.61 93.1 88.61 93.1" fill-rule="evenodd"/>
    <polygon points="76.09 113.31 51.14 140 41.42 130.93 66.38 104.23 76.09 113.31 76.09 113.31" fill-rule="evenodd"/>
    <polygon points="52.93 135.46 52.9 134.85 52.8 134.24 52.66 133.64 52.48 133.07 52.22 132.5 51.92 131.97 51.58 131.47 51.18 130.99 50.75 130.55 50.29 130.17 49.78 129.81 49.23 129.52 48.68 129.27 48.09 129.07 47.49 128.93 46.89 128.85 46.27 128.82 45.67 128.85 45.05 128.93 44.46 129.07 43.88 129.27 43.32 129.52 42.78 129.81 42.27 130.17 41.8 130.55 41.37 130.99 40.97 131.47 40.63 131.97 40.32 132.5 40.07 133.07 39.89 133.64 39.75 134.24 39.66 134.85 39.63 135.46 39.66 136.08 39.75 136.68 39.89 137.28 40.07 137.87 40.32 138.43 40.63 138.97 40.97 139.48 41.37 139.94 41.8 140.37 42.27 140.78 42.78 141.11 43.32 141.41 43.88 141.66 44.46 141.85 45.05 141.99 45.67 142.09 46.27 142.12 46.89 142.09 47.49 141.99 48.09 141.85 48.68 141.66 49.23 141.41 49.78 141.11 50.29 140.78 50.75 140.37 51.18 139.94 51.58 139.48 51.92 138.97 52.22 138.43 52.48 137.87 52.66 137.28 52.8 136.68 52.9 136.08 52.93 135.46 52.93 135.46" fill-rule="evenodd"/>
    <polygon points="164.08 118.25 80.7 118.25 80.7 127.59 164.08 127.59 164.08 118.25 164.08 118.25" fill-rule="evenodd"/>
    <polygon points="108.44 66.99 98.87 60.38 82.44 84.16 92 90.77 108.44 66.99 108.44 66.99" fill-rule="evenodd"/>
    <polygon points="107.79 102.13 107.79 115.41 71.23 115.41 71.23 102.13 107.79 102.13 107.79 102.13" fill-rule="evenodd"/>
    <path d="M297.16,520.22A99.21,99.21,0,1,0,197.91,421a99.24,99.24,0,0,0,99.25,99.25Zm50.2-37.74A79.39,79.39,0,0,1,235.65,370.77L347.36,482.48Zm11.23-11.24A79.39,79.39,0,0,0,246.88,359.54L358.59,471.25Z" transform="translate(-197.91 -321.8)" fill="#ed1c24" fill-rule="evenodd"/>
  </g>
</svg>
