<svg id="Layer_1" data-name="Layer 1" xmlns="http://www.w3.org/2000/svg" width="70mm" height="70mm" viewBox="0 0 198.42 198.42">
  <title>p019</title>
  <g id="symbolgrp">
    <polygon points="99.08 150.21 50.09 150.21 51.49 151.53 52.92 152.8 54.38 154.03 55.89 155.21 93.89 155.21 93.89 169.81 95.63 169.93 97.35 170 99.08 170.01 99.08 150.21 99.08 150.21" fill-rule="evenodd"/>
    <polygon points="124.1 66.97 134.25 90.58 143.74 86.49 133.59 62.9 124.1 66.97 124.1 66.97" fill-rule="evenodd"/>
    <polygon points="107.21 50.19 130.86 60.19 126.84 69.7 103.17 59.71 107.21 50.19 107.21 50.19" fill-rule="evenodd"/>
    <polygon points="81.02 55.03 91.27 101.13 114.31 96.01 104.07 49.9 81.02 55.03 81.02 55.03" fill-rule="evenodd"/>
    <polygon points="116.99 128.58 122.97 160.5 111.37 162.66 105.38 130.74 116.99 128.58 116.99 128.58" fill-rule="evenodd"/>
    <polygon points="71.97 108.69 83.08 139.19 71.98 143.24 60.87 112.73 71.97 108.69 71.97 108.69" fill-rule="evenodd"/>
    <polygon points="102.67 97.77 105.3 130.14 117.06 129.18 114.43 96.81 102.67 97.77 102.67 97.77" fill-rule="evenodd"/>
    <polygon points="68.39 116.27 99 105.42 95.05 94.29 64.44 105.14 68.39 116.27 68.39 116.27" fill-rule="evenodd"/>
    <polygon points="77.55 57.7 86.73 62.44 74.93 85.26 65.74 80.51 77.55 57.7 77.55 57.7" fill-rule="evenodd"/>
    <polygon points="72.4 87.61 48.86 97.9 44.73 88.42 68.27 78.15 72.4 87.61 72.4 87.61" fill-rule="evenodd"/>
    <polygon points="87.31 60.07 87.28 59.54 87.19 59 87.04 58.47 86.86 57.96 86.61 57.48 86.31 57.04 85.97 56.62 85.58 56.23 85.17 55.9 84.72 55.59 84.24 55.35 83.73 55.16 83.22 55.02 82.68 54.93 82.13 54.9 81.6 54.93 81.06 55.02 80.54 55.16 80.03 55.35 79.56 55.59 79.1 55.9 78.68 56.23 78.3 56.62 77.95 57.04 77.67 57.48 77.42 57.96 77.22 58.47 77.09 59 77 59.54 76.97 60.07 77 60.6 77.09 61.14 77.22 61.66 77.42 62.16 77.67 62.66 77.95 63.1 78.3 63.52 78.68 63.91 79.1 64.25 79.56 64.55 80.03 64.79 80.54 64.98 81.06 65.13 81.6 65.21 82.13 65.24 82.68 65.21 83.22 65.13 83.73 64.98 84.24 64.79 84.72 64.55 85.17 64.25 85.58 63.91 85.97 63.52 86.31 63.1 86.61 62.66 86.86 62.16 87.04 61.66 87.19 61.14 87.28 60.6 87.31 60.07 87.31 60.07" fill-rule="evenodd"/>
    <polygon points="75.5 82.89 75.48 82.34 75.4 81.81 75.25 81.29 75.06 80.78 74.82 80.31 74.52 79.84 74.18 79.42 73.79 79.05 73.37 78.7 72.92 78.41 72.43 78.17 71.93 77.97 71.41 77.84 70.87 77.75 70.34 77.72 69.8 77.75 69.27 77.84 68.75 77.97 68.24 78.17 67.75 78.41 67.3 78.7 66.88 79.05 66.49 79.42 66.16 79.84 65.86 80.31 65.61 80.78 65.42 81.29 65.28 81.81 65.19 82.34 65.18 82.89 65.19 83.43 65.28 83.96 65.42 84.48 65.61 84.99 65.86 85.46 66.16 85.92 66.49 86.34 66.88 86.72 67.3 87.06 67.75 87.35 68.24 87.6 68.75 87.8 69.27 87.93 69.8 88.02 70.34 88.05 70.87 88.02 71.41 87.93 71.93 87.8 72.43 87.6 72.92 87.35 73.37 87.06 73.79 86.72 74.18 86.34 74.52 85.92 74.82 85.46 75.06 84.99 75.25 84.48 75.4 83.96 75.48 83.43 75.5 82.89 75.5 82.89" fill-rule="evenodd"/>
    <polygon points="51.97 93.16 51.94 92.61 51.85 92.08 51.71 91.56 51.52 91.05 51.28 90.58 50.97 90.11 50.64 89.69 50.25 89.32 49.83 88.97 49.38 88.68 48.91 88.44 48.4 88.25 47.87 88.11 47.34 88.02 46.8 87.99 46.26 88.02 45.73 88.11 45.21 88.25 44.7 88.44 44.21 88.68 43.76 88.97 43.34 89.32 42.95 89.69 42.62 90.11 42.33 90.58 42.08 91.05 41.88 91.56 41.74 92.08 41.66 92.61 41.64 93.16 41.66 93.69 41.74 94.23 41.88 94.75 42.08 95.25 42.33 95.75 42.62 96.19 42.95 96.61 43.34 97 43.76 97.33 44.21 97.62 44.7 97.87 45.21 98.07 45.73 98.22 46.26 98.29 46.8 98.32 47.34 98.29 47.87 98.22 48.4 98.07 48.91 97.87 49.38 97.62 49.83 97.33 50.25 97 50.64 96.61 50.97 96.19 51.28 95.75 51.52 95.25 51.71 94.75 51.85 94.23 51.94 93.69 51.97 93.16 51.97 93.16" fill-rule="evenodd"/>
    <polygon points="144.16 88.54 144.13 87.99 144.04 87.46 143.91 86.94 143.71 86.43 143.47 85.95 143.18 85.49 142.83 85.07 142.45 84.7 142.03 84.35 141.57 84.06 141.09 83.81 140.59 83.61 140.07 83.48 139.53 83.4 139 83.37 138.45 83.4 137.91 83.48 137.4 83.61 136.89 83.81 136.41 84.06 135.96 84.35 135.53 84.7 135.16 85.07 134.81 85.49 134.52 85.95 134.27 86.43 134.08 86.94 133.94 87.46 133.85 87.99 133.82 88.54 133.85 89.07 133.94 89.61 134.08 90.13 134.27 90.63 134.52 91.12 134.81 91.57 135.16 91.99 135.53 92.37 135.96 92.71 136.41 93 136.89 93.25 137.4 93.45 137.91 93.59 138.45 93.67 139 93.69 139.53 93.67 140.07 93.59 140.59 93.45 141.09 93.25 141.57 93 142.03 92.71 142.45 92.37 142.83 91.99 143.18 91.57 143.47 91.12 143.71 90.63 143.91 90.13 144.04 89.61 144.13 89.07 144.16 88.54 144.16 88.54" fill-rule="evenodd"/>
    <polygon points="134.01 64.94 133.99 64.4 133.9 63.87 133.77 63.34 133.56 62.84 133.32 62.35 133.03 61.91 132.68 61.49 132.31 61.1 131.89 60.76 131.43 60.46 130.95 60.22 130.44 60.03 129.92 59.88 129.39 59.8 128.85 59.77 128.31 59.8 127.77 59.88 127.25 60.03 126.75 60.22 126.27 60.46 125.82 60.76 125.4 61.1 125.01 61.49 124.68 61.91 124.37 62.35 124.13 62.84 123.94 63.34 123.8 63.87 123.71 64.4 123.68 64.94 123.71 65.47 123.8 66.01 123.94 66.54 124.13 67.05 124.37 67.52 124.68 67.97 125.01 68.39 125.4 68.78 125.82 69.11 126.27 69.42 126.75 69.66 127.25 69.85 127.77 69.99 128.31 70.08 128.85 70.11 129.39 70.08 129.92 69.99 130.44 69.85 130.95 69.66 131.43 69.42 131.89 69.11 132.31 68.78 132.68 68.39 133.03 67.97 133.32 67.52 133.56 67.05 133.77 66.54 133.9 66.01 133.99 65.47 134.01 64.94 134.01 64.94" fill-rule="evenodd"/>
    <polygon points="110.36 54.94 110.33 54.41 110.24 53.87 110.11 53.35 109.91 52.85 109.66 52.36 109.37 51.91 109.03 51.49 108.65 51.1 108.23 50.77 107.77 50.47 107.29 50.22 106.79 50.03 106.27 49.89 105.73 49.82 105.2 49.79 104.65 49.82 104.11 49.89 103.59 50.03 103.09 50.22 102.61 50.47 102.15 50.77 101.73 51.1 101.35 51.49 101 51.91 100.72 52.36 100.47 52.85 100.28 53.35 100.14 53.87 100.05 54.41 100.02 54.94 100.05 55.49 100.14 56.03 100.28 56.55 100.47 57.05 100.72 57.53 101 57.98 101.35 58.41 101.73 58.78 102.15 59.13 102.61 59.42 103.09 59.67 103.59 59.85 104.11 60 104.65 60.09 105.2 60.11 105.73 60.09 106.27 60 106.79 59.85 107.29 59.67 107.77 59.42 108.23 59.13 108.65 58.78 109.03 58.41 109.37 57.98 109.66 57.53 109.91 57.05 110.11 56.55 110.24 56.03 110.33 55.49 110.36 54.94 110.36 54.94" fill-rule="evenodd"/>
    <polygon points="99.99 39.5 99.96 38.77 99.89 38.03 99.76 37.29 99.57 36.59 99.34 35.89 99.05 35.2 98.72 34.55 98.35 33.91 97.93 33.31 97.46 32.73 96.96 32.2 96.42 31.69 95.85 31.23 95.24 30.81 94.62 30.43 93.95 30.1 93.27 29.81 92.56 29.58 91.86 29.41 91.13 29.26 90.4 29.19 89.66 29.16 88.92 29.19 88.19 29.26 87.46 29.41 86.75 29.58 86.05 29.81 85.37 30.1 84.7 30.43 84.07 30.81 83.46 31.23 82.9 31.69 82.35 32.2 81.86 32.73 81.39 33.31 80.96 33.91 80.58 34.55 80.27 35.2 79.98 35.89 79.75 36.59 79.56 37.29 79.43 38.03 79.36 38.77 79.33 39.5 79.36 40.24 79.43 40.96 79.56 41.7 79.75 42.41 79.98 43.11 80.27 43.79 80.58 44.44 80.96 45.08 81.39 45.69 81.86 46.26 82.35 46.8 82.9 47.3 83.46 47.77 84.07 48.18 84.7 48.56 85.37 48.89 86.05 49.18 86.75 49.41 87.46 49.6 88.19 49.73 88.92 49.8 89.66 49.83 90.4 49.8 91.13 49.73 91.86 49.6 92.56 49.41 93.27 49.18 93.95 48.89 94.62 48.56 95.24 48.18 95.85 47.77 96.42 47.3 96.96 46.8 97.46 46.26 97.93 45.69 98.35 45.08 98.72 44.44 99.05 43.79 99.34 43.11 99.57 42.41 99.76 41.7 99.89 40.96 99.96 40.24 99.99 39.5 99.99 39.5" fill-rule="evenodd"/>
    <polygon points="83.43 141.21 83.42 140.66 83.33 140.13 83.22 139.6 83.04 139.09 82.81 138.59 82.55 138.11 82.25 137.66 81.9 137.24 81.51 136.85 81.09 136.51 80.64 136.2 80.17 135.93 79.66 135.71 79.15 135.54 78.62 135.41 78.07 135.34 77.53 135.31 76.99 135.34 76.45 135.41 75.92 135.54 75.4 135.71 74.91 135.93 74.43 136.2 73.98 136.51 73.56 136.85 73.17 137.24 72.82 137.66 72.51 138.11 72.25 138.59 72.03 139.09 71.86 139.6 71.72 140.13 71.65 140.66 71.62 141.21 71.65 141.76 71.72 142.3 71.86 142.83 72.03 143.35 72.25 143.84 72.51 144.32 72.82 144.78 73.17 145.2 73.56 145.58 73.98 145.92 74.43 146.24 74.91 146.5 75.4 146.72 75.92 146.89 76.45 147.02 76.99 147.09 77.53 147.12 78.07 147.09 78.62 147.02 79.15 146.89 79.66 146.72 80.17 146.5 80.64 146.24 81.09 145.92 81.51 145.58 81.9 145.2 82.25 144.78 82.55 144.32 82.81 143.84 83.04 143.35 83.22 142.83 83.33 142.3 83.42 141.76 83.43 141.21 83.43 141.21" fill-rule="evenodd"/>
    <polygon points="123.07 161.58 123.04 161.03 122.97 160.5 122.86 159.96 122.68 159.44 122.45 158.95 122.19 158.47 121.89 158.03 121.53 157.61 121.15 157.22 120.73 156.87 120.28 156.55 119.81 156.29 119.3 156.08 118.78 155.9 118.26 155.77 117.71 155.7 117.18 155.67 116.63 155.7 116.09 155.77 115.56 155.9 115.04 156.08 114.53 156.29 114.07 156.55 113.61 156.87 113.19 157.22 112.81 157.61 112.47 158.03 112.15 158.47 111.89 158.95 111.67 159.44 111.5 159.96 111.37 160.5 111.3 161.03 111.27 161.58 111.3 162.13 111.37 162.66 111.5 163.2 111.67 163.72 111.89 164.21 112.15 164.69 112.47 165.13 112.81 165.55 113.19 165.94 113.61 166.29 114.07 166.59 114.53 166.87 115.04 167.08 115.56 167.26 116.09 167.39 116.63 167.46 117.18 167.49 117.71 167.46 118.26 167.39 118.78 167.26 119.3 167.08 119.81 166.87 120.28 166.59 120.73 166.29 121.15 165.94 121.53 165.55 121.89 165.13 122.19 164.69 122.45 164.21 122.68 163.72 122.86 163.2 122.97 162.66 123.04 162.13 123.07 161.58 123.07 161.58" fill-rule="evenodd"/>
    <polygon points="114.46 97.29 114.43 96.74 114.36 96.21 114.23 95.67 114.06 95.17 113.84 94.66 113.58 94.19 113.26 93.74 112.91 93.32 112.52 92.93 112.1 92.58 111.66 92.28 111.18 92 110.69 91.79 110.17 91.61 109.63 91.48 109.1 91.41 108.55 91.38 108 91.41 107.47 91.48 106.93 91.61 106.42 91.79 105.92 92 105.44 92.28 105 92.58 104.58 92.93 104.18 93.32 103.84 93.74 103.53 94.19 103.26 94.66 103.04 95.17 102.87 95.67 102.75 96.21 102.67 96.74 102.65 97.29 102.67 97.84 102.75 98.37 102.87 98.91 103.04 99.43 103.26 99.92 103.53 100.4 103.84 100.86 104.18 101.28 104.58 101.65 105 102 105.44 102.32 105.92 102.58 106.42 102.8 106.93 102.97 107.47 103.1 108 103.17 108.55 103.2 109.1 103.17 109.63 103.1 110.17 102.97 110.69 102.8 111.18 102.58 111.66 102.32 112.1 102 112.52 101.65 112.91 101.28 113.26 100.86 113.58 100.4 113.84 99.92 114.06 99.43 114.23 98.91 114.36 98.37 114.43 97.84 114.46 97.29 114.46 97.29" fill-rule="evenodd"/>
    <polygon points="102.93 99.86 102.9 99.31 102.83 98.77 102.7 98.25 102.54 97.72 102.31 97.22 102.05 96.74 101.74 96.3 101.38 95.88 101 95.49 100.59 95.14 100.14 94.84 99.66 94.58 99.16 94.34 98.64 94.17 98.11 94.06 97.56 93.97 97.03 93.95 96.48 93.97 95.93 94.06 95.41 94.17 94.89 94.34 94.39 94.58 93.91 94.84 93.46 95.14 93.04 95.49 92.67 95.88 92.32 96.3 92 96.74 91.74 97.22 91.52 97.72 91.35 98.25 91.22 98.77 91.15 99.31 91.12 99.86 91.15 100.4 91.22 100.94 91.35 101.47 91.52 101.98 91.74 102.49 92 102.97 92.32 103.42 92.67 103.83 93.04 104.22 93.46 104.57 93.91 104.87 94.39 105.14 94.89 105.36 95.41 105.54 95.93 105.65 96.48 105.74 97.03 105.76 97.56 105.74 98.11 105.65 98.64 105.54 99.16 105.36 99.66 105.14 100.14 104.87 100.59 104.57 101 104.22 101.38 103.83 101.74 103.42 102.05 102.97 102.31 102.49 102.54 101.98 102.7 101.47 102.83 100.94 102.9 100.4 102.93 99.86 102.93 99.86" fill-rule="evenodd"/>
    <polygon points="72.32 110.71 72.29 110.16 72.22 109.63 72.1 109.09 71.93 108.57 71.7 108.07 71.44 107.59 71.13 107.14 70.79 106.72 70.4 106.35 69.98 105.99 69.53 105.68 69.05 105.42 68.55 105.19 68.03 105.02 67.5 104.9 66.96 104.83 66.42 104.8 65.87 104.83 65.34 104.9 64.8 105.02 64.28 105.19 63.79 105.42 63.31 105.68 62.85 105.99 62.43 106.35 62.06 106.72 61.71 107.14 61.39 107.59 61.13 108.07 60.91 108.57 60.74 109.09 60.61 109.63 60.54 110.16 60.51 110.71 60.54 111.24 60.61 111.79 60.74 112.33 60.91 112.83 61.13 113.34 61.39 113.81 61.71 114.26 62.06 114.68 62.43 115.07 62.85 115.42 63.31 115.72 63.79 116 64.28 116.21 64.8 116.39 65.34 116.5 65.87 116.59 66.42 116.6 66.96 116.59 67.5 116.5 68.03 116.39 68.55 116.21 69.05 116 69.53 115.72 69.98 115.42 70.4 115.07 70.79 114.68 71.13 114.26 71.44 113.81 71.7 113.34 71.93 112.83 72.1 112.33 72.22 111.79 72.29 111.24 72.32 110.71 72.32 110.71" fill-rule="evenodd"/>
    <polygon points="117.09 129.66 117.06 129.11 116.99 128.58 116.86 128.04 116.69 127.52 116.47 127.03 116.21 126.55 115.89 126.11 115.54 125.69 115.15 125.3 114.73 124.95 114.29 124.65 113.81 124.37 113.32 124.16 112.8 123.98 112.26 123.85 111.73 123.78 111.18 123.75 110.64 123.78 110.1 123.85 109.56 123.98 109.06 124.16 108.55 124.37 108.07 124.65 107.62 124.95 107.21 125.3 106.81 125.69 106.47 126.11 106.17 126.55 105.91 127.03 105.67 127.52 105.5 128.04 105.38 128.58 105.3 129.11 105.28 129.66 105.3 130.21 105.38 130.74 105.5 131.28 105.67 131.8 105.91 132.29 106.17 132.76 106.47 133.21 106.81 133.65 107.21 134.02 107.62 134.37 108.07 134.69 108.55 134.95 109.06 135.16 109.56 135.34 110.1 135.47 110.64 135.54 111.18 135.57 111.73 135.54 112.26 135.47 112.8 135.34 113.32 135.16 113.81 134.95 114.29 134.69 114.73 134.37 115.15 134.02 115.54 133.65 115.89 133.21 116.21 132.76 116.47 132.29 116.69 131.8 116.86 131.28 116.99 130.74 117.06 130.21 117.09 129.66 117.09 129.66" fill-rule="evenodd"/>
    <path d="M297.16,520.22A99.21,99.21,0,1,0,197.91,421a99.24,99.24,0,0,0,99.25,99.25Zm50.2-37.74A79.39,79.39,0,0,1,235.65,370.77L347.36,482.48Zm11.23-11.24A79.39,79.39,0,0,0,246.88,359.54L358.59,471.25Z" transform="translate(-197.91 -321.8)" fill="#ed1c24" fill-rule="evenodd"/>
  </g>
</svg>
