<svg id="Layer_1" data-name="Layer 1" xmlns="http://www.w3.org/2000/svg" width="70mm" height="70mm" viewBox="0 0 198.42 198.42">
  <title>p020</title>
  <g id="symbolgrp">
    <polygon points="119.93 132.3 119.93 94.24 119.96 94.11 120.04 93.99 120.15 93.9 120.3 93.89 120.43 93.9 120.55 93.99 120.62 94.11 120.65 94.24 120.65 110.18 120.68 110.48 120.75 110.8 120.87 111.09 121.04 111.37 121.24 111.62 121.49 111.82 121.77 112 122.06 112.11 122.38 112.19 122.7 112.21 123.02 112.19 123.33 112.11 123.62 112 123.89 111.82 124.14 111.62 124.34 111.37 124.52 111.09 124.63 110.8 124.71 110.48 124.74 110.18 124.74 93.86 124.71 93.31 124.63 92.77 124.5 92.23 124.33 91.72 124.11 91.21 123.85 90.73 123.54 90.28 123.19 89.86 122.8 89.48 122.38 89.12 121.93 88.81 121.45 88.55 120.95 88.33 120.43 88.16 119.89 88.03 119.35 87.96 118.81 87.93 111.01 87.93 110.47 87.96 109.92 88.03 109.4 88.16 108.88 88.33 108.38 88.55 107.9 88.81 107.45 89.12 107.03 89.48 106.63 89.86 106.28 90.28 105.98 90.73 105.72 91.21 105.48 91.72 105.31 92.23 105.19 92.77 105.12 93.31 105.09 93.86 105.09 110.18 105.12 110.48 105.19 110.8 105.31 111.09 105.48 111.37 105.69 111.62 105.94 111.82 106.2 112 106.5 112.11 106.81 112.19 107.13 112.21 107.45 112.19 107.77 112.11 108.06 112 108.34 111.82 108.58 111.62 108.79 111.37 108.95 111.09 109.08 110.8 109.15 110.48 109.18 110.18 109.18 94.24 109.21 94.11 109.28 93.99 109.4 93.9 109.53 93.89 109.66 93.9 109.78 93.99 109.86 94.11 109.89 94.24 109.89 132.3 109.92 132.66 110 133.01 110.14 133.36 110.33 133.66 110.58 133.94 110.85 134.19 111.16 134.38 111.5 134.52 111.86 134.6 112.22 134.63 112.59 134.6 112.95 134.52 113.28 134.38 113.59 134.19 113.87 133.94 114.11 133.66 114.3 133.36 114.45 133.01 114.52 132.66 114.55 132.3 114.55 109.31 114.58 109.16 114.67 109.04 114.78 108.97 114.92 108.94 115.05 108.97 115.16 109.04 115.23 109.16 115.26 109.31 115.26 132.3 115.29 132.66 115.38 133.01 115.52 133.36 115.71 133.66 115.95 133.94 116.22 134.19 116.54 134.38 116.88 134.52 117.24 134.6 117.61 134.63 117.97 134.6 118.32 134.52 118.67 134.38 118.97 134.19 119.25 133.94 119.5 133.66 119.69 133.36 119.82 133.01 119.91 132.66 119.93 132.3 119.93 132.3" fill-rule="evenodd"/>
    <polygon points="93.55 131.63 93.55 82.81 93.57 82.66 93.64 82.53 93.73 82.43 93.86 82.37 94 82.36 94.15 82.37 94.27 82.43 94.37 82.53 94.44 82.66 94.45 82.81 94.45 103.24 94.48 103.62 94.57 103.98 94.7 104.33 94.88 104.67 95.09 104.96 95.36 105.23 95.66 105.45 96 105.63 96.35 105.76 96.71 105.84 97.07 105.87 97.45 105.84 97.81 105.76 98.17 105.63 98.5 105.45 98.79 105.23 99.07 104.96 99.28 104.67 99.46 104.33 99.59 103.98 99.68 103.62 99.71 103.24 99.71 82.31 99.68 81.69 99.59 81.06 99.47 80.45 99.28 79.84 99.07 79.26 98.79 78.69 98.46 78.15 98.09 77.64 97.69 77.17 97.25 76.71 96.77 76.31 96.26 75.94 95.72 75.62 95.15 75.35 94.57 75.13 93.96 74.94 93.35 74.81 92.72 74.74 92.1 74.71 82.1 74.71 81.47 74.74 80.85 74.81 80.24 74.94 79.63 75.13 79.04 75.35 78.48 75.62 77.94 75.94 77.43 76.31 76.95 76.71 76.5 77.17 76.09 77.64 75.73 78.15 75.41 78.69 75.13 79.26 74.91 79.84 74.72 80.45 74.59 81.06 74.52 81.69 74.49 82.31 74.49 103.24 74.52 103.62 74.61 103.98 74.74 104.33 74.91 104.67 75.13 104.96 75.39 105.23 75.7 105.45 76.03 105.63 76.38 105.76 76.75 105.84 77.11 105.87 77.49 105.84 77.85 105.76 78.2 105.63 78.53 105.45 78.83 105.23 79.1 104.96 79.32 104.67 79.5 104.33 79.63 103.98 79.71 103.62 79.74 103.24 79.74 82.81 79.76 82.66 79.83 82.53 79.92 82.43 80.05 82.37 80.19 82.36 80.34 82.37 80.46 82.43 80.56 82.53 80.63 82.66 80.64 82.81 80.64 131.63 80.67 132.02 80.75 132.41 80.88 132.78 81.05 133.13 81.27 133.46 81.53 133.75 81.82 134.01 82.14 134.23 82.49 134.41 82.87 134.52 83.25 134.61 83.64 134.63 84.03 134.61 84.41 134.52 84.79 134.41 85.14 134.23 85.48 134.01 85.77 133.75 86.03 133.46 86.23 133.13 86.41 132.78 86.54 132.41 86.61 132.02 86.64 131.63 86.64 102.14 86.67 101.99 86.73 101.86 86.83 101.76 86.96 101.7 87.09 101.67 87.24 101.7 87.37 101.76 87.47 101.86 87.53 101.99 87.56 102.14 87.56 131.63 87.59 132.02 87.66 132.41 87.78 132.78 87.95 133.13 88.17 133.46 88.43 133.75 88.72 134.01 89.06 134.23 89.41 134.41 89.77 134.52 90.16 134.61 90.55 134.63 90.95 134.61 91.33 134.52 91.69 134.41 92.05 134.23 92.37 134.01 92.66 133.75 92.93 133.46 93.14 133.13 93.32 132.78 93.45 132.41 93.52 132.02 93.55 131.63 93.55 131.63" fill-rule="evenodd"/>
    <polygon points="138.05 62.97 138.75 63.49 139.42 64.08 140.04 64.69 140.64 65.33 141.19 66.01 141.72 66.72 142.18 67.47 142.62 68.22 143 69.02 143.33 69.82 143.62 70.65 143.87 71.51 144.06 72.35 144.19 73.22 144.37 74.37 144.6 75.51 144.89 76.64 145.22 77.75 145.6 78.84 146.04 79.91 146.52 80.98 147.06 82.01 147.64 83.01 148.27 83.99 148.93 84.93 149.65 85.85 150.39 86.73 151.19 87.58 152.02 88.39 152.89 89.16 153.79 89.89 154.52 90.41 155.28 90.89 156.08 91.33 156.9 91.72 157.72 92.06 158.58 92.35 159.46 92.59 160.33 92.77 161.22 92.9 162.12 92.99 163.02 93 163.92 92.97 164.82 92.89 165.71 92.75 166.6 92.57 167.46 92.32 166.34 91.65 165.23 90.94 164.17 90.18 163.14 89.37 162.13 88.52 161.19 87.64 160.26 86.69 159.38 85.72 158.55 84.71 157.77 83.67 157.01 82.59 156.33 81.47 155.67 80.34 155.08 79.17 154.54 77.98 154.04 76.76 153.61 75.52 153.24 74.5 152.83 73.49 152.37 72.51 151.88 71.54 151.32 70.59 150.74 69.68 150.1 68.79 149.43 67.93 148.72 67.1 147.97 66.32 147.19 65.56 146.62 65.06 146.01 64.61 145.37 64.21 144.7 63.84 144.02 63.54 143.3 63.28 142.58 63.07 141.83 62.91 141.08 62.81 140.32 62.77 139.56 62.78 138.81 62.84 138.05 62.97 138.05 62.97" fill-rule="evenodd"/>
    <path d="M295.72,490.79V472h-2.37V466.7h-32V374.24h32v-5.31h2.37V350.24h3.64v18.69h2.37v5.31h32V466.7h-32V472h-2.37v18.76Zm32.46-29.67v-81.3H266.9v81.3Z" transform="translate(-197.91 -321.8)" fill-rule="evenodd"/>
    <polygon points="155.67 57.39 155.31 58.43 155 59.5 154.74 60.57 154.52 61.66 154.38 62.77 154.28 63.86 154.23 64.98 154.25 66.08 154.31 67.19 154.44 68.28 154.61 69.39 154.83 70.46 155.12 71.54 155.45 72.58 155.85 73.63 156.28 74.65 156.76 75.64 157.3 76.61 157.88 77.54 158.7 78.74 159.56 79.89 160.46 80.99 161.41 82.07 162.4 83.08 163.43 84.07 164.5 85.02 165.63 85.92 166.78 86.78 167.95 87.58 169.18 88.33 168.84 86.42 168.46 84.5 168.04 82.59 167.55 80.7 167.01 78.82 166.43 76.96 165.79 75.11 165.1 73.28 164.2 72.45 163.34 71.58 162.53 70.67 161.74 69.72 161.01 68.75 160.31 67.73 159.67 66.69 159.08 65.62 158.51 64.53 157.71 62.78 156.97 61.01 156.3 59.2 155.67 57.39 155.67 57.39" fill-rule="evenodd"/>
    <polygon points="140.89 81.14 140.83 82.31 140.81 83.49 140.84 84.67 140.95 85.85 141.09 87.01 141.29 88.17 141.56 89.32 141.88 90.47 142.24 91.59 142.66 92.7 143.13 93.77 143.65 94.83 144.22 95.87 144.83 96.87 145.5 97.86 146.2 98.79 146.96 99.71 147.76 100.58 148.59 101.41 149.46 102.21 150.58 103.15 151.73 104.06 152.91 104.91 154.12 105.73 155.35 106.5 156.62 107.23 157.9 107.92 159.21 108.56 160.55 109.16 161.9 109.71 163.27 110.22 164.65 110.67 166.05 111.08 167.47 111.44 168.9 111.75 169.24 109.65 169.53 107.53 169.75 105.41 169.91 103.27 169.99 101.15 170.02 99.01 168.71 98.91 167.41 98.78 166.12 98.57 164.84 98.33 163.56 98.03 162.29 97.69 161.06 97.29 159.82 96.84 158.61 96.36 157.42 95.82 156.24 95.24 155.1 94.6 153.99 93.93 152.88 93.22 151.82 92.47 150.56 91.5 149.34 90.5 148.15 89.45 147 88.38 145.88 87.26 144.8 86.09 143.77 84.9 142.76 83.68 141.81 82.42 140.89 81.14 140.89 81.14" fill-rule="evenodd"/>
    <polygon points="137.58 106.51 138.44 106.73 139.29 106.99 140.12 107.31 140.93 107.68 141.72 108.07 142.47 108.53 143.22 109.03 143.91 109.57 144.58 110.14 145.22 110.76 145.82 111.4 146.39 112.08 146.9 112.81 147.63 113.81 148.38 114.8 149.2 115.76 150.03 116.68 150.91 117.56 151.53 118.12 152.18 118.64 152.86 119.12 153.58 119.56 154.32 119.95 155.08 120.28 155.86 120.58 156.66 120.82 157.48 121.01 158.31 121.16 159.13 121.25 159.97 121.27 160.81 121.26 161.64 121.19 162.47 121.07 163.28 120.9 164.08 120.66 164.88 120.39 165.66 120.05 166.4 119.67 167.13 119.25 167.71 117.13 166.6 116.85 165.51 116.53 164.43 116.16 163.37 115.72 162.34 115.24 161.32 114.72 160.33 114.13 159.37 113.51 158.45 112.84 157.55 112.13 156.71 111.37 155.88 110.57 155.1 109.73 154.36 108.85 153.82 108.24 153.26 107.66 152.66 107.12 152.02 106.63 151.35 106.18 150.65 105.77 149.92 105.39 149.18 105.09 148.41 104.81 147.63 104.61 146.84 104.43 146.04 104.33 145.22 104.26 144.41 104.26 143.61 104.3 142.81 104.4 142.01 104.55 141.22 104.75 140.45 105.02 139.7 105.32 138.97 105.67 138.27 106.08 137.58 106.51 137.58 106.51" fill-rule="evenodd"/>
    <polygon points="165.97 122.79 165.33 124.52 164.65 126.23 163.92 127.94 163.15 129.61 162.34 131.27 161.48 132.91 160.59 134.52 159.57 134.52 158.57 134.48 157.56 134.38 156.56 134.23 155.57 134.03 154.6 133.78 153.62 133.48 152.67 133.11 151.76 132.72 150.84 132.27 149.97 131.76 149.11 131.22 148.29 130.64 147.5 130.01 146.74 129.35 146.02 128.63 145.34 127.89 144.69 127.11 144.09 126.29 143.54 125.45 143.01 124.58 142.55 123.69 142.13 122.77 141.75 121.83 141.43 120.87 141.16 119.89 140.93 118.9 140.77 117.92 140.66 116.91 141.53 117.7 142.46 118.44 143.41 119.14 144.4 119.81 145.4 120.42 146.43 120.98 147.51 121.51 148.59 121.97 149.69 122.39 150.81 122.76 151.96 123.08 153.11 123.35 154.28 123.56 155.44 123.73 156.62 123.83 157.8 123.89 158.99 123.89 160.17 123.83 161.35 123.73 162.53 123.57 163.69 123.37 164.84 123.09 165.97 122.79 165.97 122.79" fill-rule="evenodd"/>
    <polygon points="92.34 67.97 92.31 67.45 92.24 66.94 92.11 66.45 91.94 65.97 91.72 65.5 91.46 65.05 91.15 64.64 90.8 64.27 90.42 63.92 90.02 63.61 89.56 63.35 89.1 63.13 88.62 62.96 88.12 62.83 87.61 62.75 87.09 62.72 86.58 62.75 86.07 62.83 85.58 62.96 85.1 63.13 84.63 63.35 84.18 63.61 83.77 63.92 83.39 64.27 83.05 64.64 82.74 65.05 82.48 65.5 82.26 65.97 82.08 66.45 81.95 66.94 81.88 67.45 81.85 67.97 81.88 68.48 81.95 68.99 82.08 69.49 82.26 69.98 82.48 70.45 82.74 70.88 83.05 71.29 83.39 71.68 83.77 72.02 84.18 72.32 84.63 72.6 85.1 72.82 85.58 72.99 86.07 73.11 86.58 73.18 87.09 73.21 87.61 73.18 88.12 73.11 88.62 72.99 89.1 72.82 89.56 72.6 90.02 72.32 90.42 72.02 90.8 71.68 91.15 71.29 91.46 70.88 91.72 70.45 91.94 69.98 92.11 69.49 92.24 68.99 92.31 68.48 92.34 67.97 92.34 67.97" fill-rule="evenodd"/>
    <polygon points="119 82.68 118.97 82.21 118.9 81.76 118.77 81.33 118.59 80.9 118.38 80.5 118.1 80.13 117.8 79.78 117.46 79.48 117.08 79.22 116.69 79 116.27 78.82 115.81 78.69 115.36 78.62 114.92 78.59 114.45 78.62 114 78.69 113.56 78.82 113.14 79 112.75 79.22 112.37 79.48 112.02 79.78 111.71 80.13 111.45 80.5 111.23 80.9 111.06 81.33 110.93 81.76 110.85 82.21 110.83 82.68 110.85 83.13 110.93 83.58 111.06 84.03 111.23 84.45 111.45 84.84 111.71 85.22 112.02 85.57 112.37 85.88 112.75 86.14 113.14 86.36 113.56 86.53 114 86.66 114.45 86.73 114.92 86.76 115.36 86.73 115.81 86.66 116.27 86.53 116.69 86.36 117.08 86.14 117.46 85.88 117.8 85.57 118.1 85.22 118.38 84.84 118.59 84.45 118.77 84.03 118.9 83.58 118.97 83.13 119 82.68 119 82.68" fill-rule="evenodd"/>
    <path d="M297.16,520.22A99.21,99.21,0,1,0,197.91,421a99.24,99.24,0,0,0,99.25,99.25Zm50.2-37.74A79.39,79.39,0,0,1,235.65,370.77L347.36,482.48Zm11.23-11.24A79.39,79.39,0,0,0,246.88,359.54L358.59,471.25Z" transform="translate(-197.91 -321.8)" fill="#ed1c24" fill-rule="evenodd"/>
  </g>
</svg>
