<svg id="Layer_1" data-name="Layer 1" xmlns="http://www.w3.org/2000/svg" width="70mm" height="70mm" viewBox="0 0 198.43 198.43">
  <title>p022</title>
  <g id="symbolgrp">
    <path d="M235.09,429.33h59.4l-10.66-10.66H246.68c-9.43,0-11.59,10.66-11.59,10.66Z" transform="translate(-197.9 -321.79)" fill-rule="evenodd"/>
    <polygon points="114.95 137.34 126.4 137.34 113.08 123.95 114.95 137.34 114.95 137.34" fill-rule="evenodd"/>
    <polygon points="116.75 60.16 109.33 34.67 104.29 34.67 111.71 60.16 103.86 60.16 109.75 101.2 147.38 137.16 158.29 60.16 116.75 60.16 116.75 60.16" fill-rule="evenodd"/>
    <path d="M396.34,421l-.14-4.46-.29-4.46-.5-4.39-.72-4.39-.86-4.39-1.08-4.32-1.3-4.25L390,386.16,388.34,382l-1.87-4-2-4-2.16-3.89-2.38-3.74-2.59-3.67-2.66-3.53-2.88-3.46-3-3.24-3.17-3.17-3.31-3L359,343.47l-3.53-2.74-3.67-2.52L348,335.83l-3.82-2.16-4-2.09-4.1-1.8-4.1-1.66-4.25-1.51-4.25-1.22-4.32-1.15-4.32-.86-4.39-.72-4.46-.5-4.39-.29-4.46-.07-4.46.07-4.46.29-4.39.5-4.39.72-4.39.86-4.32,1.15-4.25,1.22-4.18,1.51-4.18,1.66-4,1.8-4,2.09-3.89,2.16-3.74,2.38-3.67,2.52-3.53,2.74-3.46,2.81-3.24,3-3.17,3.17-3,3.24-2.88,3.46-2.66,3.53-2.52,3.67-2.38,3.74L209.71,374l-2,4-1.8,4-1.66,4.18-1.51,4.18-1.3,4.25-1.08,4.32-.86,4.39-.72,4.39-.5,4.39-.29,4.46L197.9,421l.07,4.46.29,4.39.5,4.46.72,4.39.86,4.39,1.08,4.25,1.3,4.32,1.51,4.18,1.66,4.1,1.8,4.1,2,4,2.23,3.89,2.38,3.74,2.52,3.67,2.66,3.53,2.88,3.46,3,3.24,3.17,3.17,3.24,3,3.46,2.81,3.53,2.74,3.67,2.52,3.74,2.38,3.89,2.16,4,2.09,4,1.8,4.18,1.66,4.18,1.51,4.25,1.22,4.32,1.08,4.39.94,4.39.65,4.39.5,4.46.36,4.46.07,4.46-.07,4.39-.36,4.46-.5,4.39-.65,4.32-.94,4.32-1.08,4.25-1.22,4.25-1.51,4.1-1.66,4.1-1.8,4-2.09,3.82-2.16,3.81-2.38,3.67-2.52,3.53-2.74,3.38-2.81,3.31-3,3.17-3.17,3-3.24,2.88-3.46,2.66-3.53,2.59-3.67,2.38-3.74,2.16-3.89,2-4,1.87-4.1,1.66-4.1,1.44-4.18,1.3-4.32,1.08-4.25.86-4.39.72-4.39.5-4.46.29-4.39.14-4.46Zm-37.8,50.26,2.52-3.17,2.3-3.31,2.16-3.46,1.87-3.53,1.8-3.6,1.58-3.67,1.44-3.74,1.22-3.89,1-3.89.79-4,.58-4,.43-4,.22-4v-4l-.22-4-.36-4-.65-4-.79-4-1-3.89-1.22-3.82-1.37-3.82-1.58-3.67-1.8-3.6-1.95-3.53-2.09-3.46-2.3-3.31-2.52-3.17-2.59-3-2.81-3-2.88-2.74-3.1-2.66L344.06,357l-3.31-2.3-3.38-2.09-3.53-2-3.6-1.73-3.74-1.58-3.74-1.44-3.82-1.15-4-1-3.89-.86-4-.58-4-.43-4-.14h-4l-4,.14-4,.43-4,.65-4,.79-3.89,1-3.82,1.22-3.74,1.37-3.74,1.66-3.6,1.73-3.53,1.94-3.38,2.16-3.31,2.3-3.17,2.45L358.54,471.27Zm-11.16,11.16L235.63,370.75,233.11,374l-2.3,3.24-2.09,3.46-1.94,3.53-1.8,3.6-1.58,3.67L222,395.31l-1.15,3.82-1,3.89-.86,4-.58,4-.43,4-.22,4v4l.22,4,.43,4,.58,4,.86,4,.94,3.89,1.22,3.89,1.44,3.74,1.58,3.67,1.73,3.6,2,3.6,2.09,3.38,2.3,3.31,2.45,3.17,2.66,3,2.74,3,3,2.74,3,2.66L250.1,485l3.31,2.3,3.46,2.16,3.53,1.94,3.6,1.73,3.67,1.58,3.82,1.44,3.82,1.15,3.89,1,4,.79,4,.65,4,.43,4,.14h4l4-.22,4-.36,4-.65,4-.79,3.89-1,3.89-1.22,3.74-1.44,3.67-1.58,3.6-1.73,3.53-2,3.46-2.09,3.31-2.3,3.17-2.52Z" transform="translate(-197.9 -321.79)" fill="#ed1c24" fill-rule="evenodd"/>
    <path d="M292.91,433.57H237.68a5.18,5.18,0,0,0,0,10.37h55.22a5.18,5.18,0,0,0,0-10.37Z" transform="translate(-197.9 -321.79)" fill-rule="evenodd"/>
    <path d="M245.32,459.13H283.4c9.5,0,11.59-10.66,11.59-10.66h-59.9c0,9.72,10.22,10.66,10.22,10.66Z" transform="translate(-197.9 -321.79)" fill-rule="evenodd"/>
  </g>
</svg>
