<svg id="Layer_1" data-name="Layer 1" xmlns="http://www.w3.org/2000/svg" width="70mm" height="70mm" viewBox="0 0 198.43 198.43">
  <title>p025</title>
  <g id="symbolgrp">
  <polygon points="73.17 81.08 66.5 81.08 66.5 97.64 73.17 97.64 73.17 81.08 73.17 81.08" fill-rule="evenodd"/>
  <polygon points="84.39 68.9 84.36 68.5 84.29 68.1 84.17 67.72 84.01 67.36 83.8 67.01 83.55 66.7 83.27 66.42 82.94 66.16 82.61 65.95 82.24 65.78 81.86 65.67 81.45 65.6 81.06 65.57 80.65 65.6 80.26 65.67 79.88 65.78 79.51 65.95 79.16 66.16 78.85 66.42 78.57 66.7 78.31 67.01 78.1 67.36 77.94 67.72 77.82 68.1 77.75 68.5 77.72 68.9 77.75 69.31 77.82 69.7 77.94 70.08 78.1 70.45 78.31 70.8 78.57 71.11 78.85 71.39 79.16 71.64 79.51 71.86 79.88 72.02 80.26 72.14 80.65 72.21 81.06 72.23 81.45 72.21 81.86 72.14 82.24 72.02 82.61 71.86 82.94 71.64 83.27 71.39 83.55 71.11 83.8 70.8 84.01 70.45 84.17 70.08 84.29 69.7 84.36 69.31 84.39 68.9 84.39 68.9" fill-rule="evenodd"/>
  <polygon points="73.17 81.08 73.14 80.68 73.07 80.29 72.96 79.9 72.79 79.53 72.58 79.19 72.32 78.87 72.04 78.59 71.73 78.34 71.38 78.14 71.02 77.97 70.64 77.84 70.24 77.77 69.83 77.75 69.44 77.77 69.05 77.84 68.65 77.97 68.29 78.14 67.95 78.34 67.63 78.59 67.34 78.87 67.09 79.19 66.89 79.53 66.73 79.9 66.6 80.29 66.53 80.68 66.5 81.08 66.53 81.48 66.6 81.88 66.73 82.26 66.89 82.62 67.09 82.97 67.34 83.3 67.63 83.58 67.95 83.82 68.29 84.03 68.65 84.2 69.05 84.31 69.44 84.39 69.83 84.41 70.24 84.39 70.64 84.31 71.02 84.2 71.38 84.03 71.73 83.82 72.04 83.58 72.32 83.3 72.58 82.97 72.79 82.62 72.96 82.26 73.07 81.88 73.14 81.48 73.17 81.08 73.17 81.08" fill-rule="evenodd"/>
  <polygon points="73.17 97.64 73.14 97.24 73.07 96.85 72.96 96.45 72.79 96.09 72.58 95.75 72.32 95.43 72.04 95.15 71.73 94.89 71.38 94.7 71.02 94.53 70.64 94.4 70.24 94.33 69.83 94.3 69.44 94.33 69.05 94.4 68.65 94.53 68.29 94.7 67.95 94.89 67.63 95.15 67.34 95.43 67.09 95.75 66.89 96.09 66.73 96.45 66.6 96.85 66.53 97.24 66.5 97.64 66.53 98.04 66.6 98.44 66.73 98.81 66.89 99.19 67.09 99.53 67.34 99.86 67.63 100.14 67.95 100.38 68.29 100.59 68.65 100.75 69.05 100.87 69.44 100.95 69.83 100.97 70.24 100.95 70.64 100.87 71.02 100.75 71.38 100.59 71.73 100.38 72.04 100.14 72.32 99.86 72.58 99.53 72.79 99.19 72.96 98.81 73.07 98.44 73.14 98.04 73.17 97.64 73.17 97.64" fill-rule="evenodd"/>
  <polygon points="124.7 88.92 124.67 88.51 124.6 88.12 124.49 87.74 124.32 87.37 124.11 87.02 123.86 86.71 123.58 86.42 123.27 86.18 122.92 85.97 122.55 85.8 122.17 85.69 121.78 85.62 121.37 85.59 120.97 85.62 120.58 85.69 120.19 85.8 119.82 85.97 119.48 86.18 119.16 86.42 118.88 86.71 118.63 87.02 118.43 87.37 118.26 87.74 118.13 88.12 118.06 88.51 118.04 88.92 118.06 89.31 118.13 89.71 118.26 90.1 118.43 90.47 118.63 90.8 118.88 91.13 119.16 91.41 119.48 91.66 119.82 91.87 120.19 92.03 120.58 92.15 120.97 92.22 121.37 92.25 121.78 92.22 122.17 92.15 122.55 92.03 122.92 91.87 123.27 91.66 123.58 91.41 123.86 91.13 124.11 90.8 124.32 90.47 124.49 90.1 124.6 89.71 124.67 89.31 124.7 88.92 124.7 88.92" fill-rule="evenodd"/>
  <polygon points="109.61 82.1 109.58 81.71 109.51 81.3 109.4 80.92 109.23 80.56 109.02 80.22 108.77 79.9 108.48 79.61 108.18 79.36 107.82 79.15 107.46 79 107.08 78.87 106.68 78.8 106.28 78.77 105.88 78.8 105.47 78.87 105.09 79 104.73 79.15 104.39 79.36 104.07 79.61 103.79 79.9 103.53 80.22 103.32 80.56 103.17 80.92 103.04 81.3 102.97 81.71 102.94 82.1 102.97 82.51 103.04 82.9 103.17 83.28 103.32 83.65 103.53 84 103.79 84.31 104.07 84.59 104.39 84.84 104.73 85.06 105.09 85.22 105.47 85.34 105.88 85.41 106.28 85.43 106.68 85.41 107.08 85.34 107.46 85.22 107.82 85.06 108.18 84.84 108.48 84.59 108.77 84.31 109.02 84 109.23 83.65 109.4 83.28 109.51 82.9 109.58 82.51 109.61 82.1 109.61 82.1" fill-rule="evenodd"/>
  <polygon points="99.61 68.9 99.6 68.5 99.51 68.1 99.4 67.72 99.23 67.36 99.02 67.01 98.78 66.7 98.5 66.42 98.17 66.16 97.84 65.95 97.46 65.78 97.08 65.67 96.68 65.6 96.28 65.57 95.88 65.6 95.49 65.67 95.09 65.78 94.73 65.95 94.39 66.16 94.07 66.42 93.79 66.7 93.55 67.01 93.34 67.36 93.17 67.72 93.06 68.1 92.97 68.5 92.96 68.9 92.97 69.31 93.06 69.7 93.17 70.08 93.34 70.45 93.55 70.8 93.79 71.11 94.07 71.39 94.39 71.64 94.73 71.86 95.09 72.02 95.49 72.14 95.88 72.21 96.28 72.23 96.68 72.21 97.08 72.14 97.46 72.02 97.84 71.86 98.17 71.64 98.5 71.39 98.78 71.11 99.02 70.8 99.23 70.45 99.4 70.08 99.51 69.7 99.6 69.31 99.61 68.9 99.61 68.9" fill-rule="evenodd"/>
  <polygon points="95.33 57.01 95.31 56.42 95.23 55.85 95.11 55.28 94.93 54.73 94.7 54.19 94.43 53.68 94.12 53.19 93.77 52.73 93.38 52.3 92.96 51.91 92.49 51.55 92 51.23 91.48 50.97 90.95 50.74 90.4 50.58 89.82 50.45 89.24 50.38 88.67 50.35 88.09 50.38 87.51 50.45 86.95 50.58 86.39 50.74 85.85 50.97 85.33 51.23 84.86 51.55 84.39 51.91 83.96 52.3 83.56 52.73 83.21 53.19 82.9 53.68 82.63 54.19 82.41 54.73 82.24 55.28 82.11 55.85 82.03 56.42 82.01 57.01 82.03 57.59 82.11 58.16 82.24 58.73 82.41 59.29 82.63 59.82 82.9 60.34 83.21 60.82 83.56 61.29 83.96 61.72 84.39 62.12 84.86 62.47 85.33 62.78 85.85 63.04 86.39 63.27 86.95 63.44 87.51 63.56 88.09 63.65 88.67 63.67 89.24 63.65 89.82 63.56 90.4 63.44 90.95 63.27 91.48 63.04 92 62.78 92.49 62.47 92.96 62.12 93.38 61.72 93.77 61.29 94.12 60.82 94.43 60.34 94.7 59.82 94.93 59.29 95.11 58.73 95.23 58.16 95.31 57.59 95.33 57.01 95.33 57.01" fill-rule="evenodd"/>
  <polygon points="74.52 135.01 74.5 134.59 74.42 134.17 74.31 133.76 74.14 133.37 73.94 132.99 73.69 132.65 73.41 132.33 73.08 132.04 72.75 131.79 72.37 131.58 71.97 131.43 71.56 131.3 71.14 131.23 70.72 131.21 70.28 131.23 69.86 131.3 69.45 131.43 69.06 131.58 68.69 131.79 68.34 132.04 68.02 132.33 67.74 132.65 67.48 132.99 67.29 133.37 67.12 133.76 67.01 134.17 66.94 134.59 66.91 135.01 66.94 135.45 67.01 135.87 67.12 136.28 67.29 136.67 67.48 137.03 67.74 137.38 68.02 137.71 68.34 137.99 68.69 138.24 69.06 138.44 69.45 138.61 69.86 138.72 70.28 138.81 70.72 138.82 71.14 138.81 71.56 138.72 71.97 138.61 72.37 138.44 72.75 138.24 73.08 137.99 73.41 137.71 73.69 137.38 73.94 137.03 74.14 136.67 74.31 136.28 74.42 135.87 74.5 135.45 74.52 135.01 74.52 135.01" fill-rule="evenodd"/>
  <polygon points="115.46 131.21 115.45 130.78 115.38 130.36 115.25 129.95 115.1 129.56 114.89 129.19 114.63 128.84 114.35 128.52 114.03 128.24 113.69 127.98 113.31 127.79 112.92 127.62 112.51 127.5 112.09 127.42 111.67 127.41 111.23 127.42 110.81 127.5 110.4 127.62 110 127.79 109.64 127.98 109.29 128.24 108.96 128.52 108.68 128.84 108.44 129.19 108.23 129.56 108.06 129.95 107.95 130.36 107.88 130.78 107.85 131.21 107.88 131.64 107.95 132.06 108.06 132.47 108.23 132.86 108.44 133.24 108.68 133.58 108.96 133.9 109.29 134.18 109.64 134.43 110 134.65 110.4 134.8 110.81 134.93 111.23 135 111.67 135.01 112.09 135 112.51 134.93 112.92 134.8 113.31 134.65 113.69 134.43 114.03 134.18 114.35 133.9 114.63 133.58 114.89 133.24 115.1 132.86 115.25 132.47 115.38 132.06 115.45 131.64 115.46 131.21 115.46 131.21" fill-rule="evenodd"/>
  <polygon points="96.28 96.02 96.26 95.6 96.19 95.17 96.06 94.77 95.91 94.37 95.7 93.99 95.45 93.66 95.17 93.33 94.86 93.05 94.5 92.8 94.12 92.59 93.73 92.43 93.32 92.31 92.9 92.24 92.48 92.22 92.06 92.24 91.64 92.31 91.21 92.43 90.82 92.59 90.45 92.8 90.1 93.05 89.78 93.33 89.5 93.66 89.26 93.99 89.05 94.37 88.88 94.77 88.77 95.17 88.69 95.6 88.67 96.02 88.69 96.45 88.77 96.88 88.88 97.28 89.05 97.68 89.26 98.06 89.5 98.39 89.78 98.72 90.1 99 90.45 99.25 90.82 99.45 91.21 99.62 91.64 99.73 92.06 99.81 92.48 99.83 92.9 99.81 93.32 99.73 93.73 99.62 94.12 99.45 94.5 99.25 94.86 99 95.17 98.72 95.45 98.39 95.7 98.06 95.91 97.68 96.06 97.28 96.19 96.88 96.26 96.45 96.28 96.02 96.28 96.02" fill-rule="evenodd"/>
  <polygon points="88.67 96.02 88.64 95.6 88.57 95.17 88.46 94.77 88.29 94.37 88.09 93.99 87.84 93.66 87.56 93.33 87.23 93.05 86.89 92.8 86.52 92.59 86.12 92.43 85.71 92.31 85.29 92.24 84.87 92.22 84.43 92.24 84.01 92.31 83.6 92.43 83.21 92.59 82.84 92.8 82.49 93.05 82.17 93.33 81.89 93.66 81.64 93.99 81.44 94.37 81.27 94.77 81.16 95.17 81.09 95.6 81.06 96.02 81.09 96.45 81.16 96.88 81.27 97.28 81.44 97.68 81.64 98.06 81.89 98.39 82.17 98.72 82.49 99 82.84 99.25 83.21 99.45 83.6 99.62 84.01 99.73 84.43 99.81 84.87 99.83 85.29 99.81 85.71 99.73 86.12 99.62 86.52 99.45 86.89 99.25 87.23 99 87.56 98.72 87.84 98.39 88.09 98.06 88.29 97.68 88.46 97.28 88.57 96.88 88.64 96.45 88.67 96.02 88.67 96.02" fill-rule="evenodd"/>
  <polygon points="84.29 116.5 84.27 116.08 84.19 115.66 84.07 115.23 83.91 114.84 83.7 114.47 83.46 114.12 83.17 113.8 82.86 113.52 82.51 113.28 82.13 113.07 81.73 112.9 81.33 112.79 80.9 112.72 80.48 112.69 80.06 112.72 79.64 112.79 79.23 112.9 78.84 113.07 78.46 113.28 78.1 113.52 77.8 113.8 77.5 114.12 77.26 114.47 77.05 114.84 76.89 115.23 76.77 115.66 76.7 116.08 76.67 116.5 76.7 116.92 76.77 117.34 76.89 117.75 77.05 118.14 77.26 118.52 77.5 118.87 77.8 119.18 78.1 119.48 78.46 119.72 78.84 119.93 79.23 120.1 79.64 120.21 80.06 120.28 80.48 120.31 80.9 120.28 81.33 120.21 81.73 120.1 82.13 119.93 82.51 119.72 82.86 119.48 83.17 119.18 83.46 118.87 83.7 118.52 83.91 118.14 84.07 117.75 84.19 117.34 84.27 116.92 84.29 116.5 84.29 116.5" fill-rule="evenodd"/>
  <polygon points="111.2 110.71 111.19 110.29 111.12 109.86 110.99 109.46 110.83 109.06 110.62 108.68 110.37 108.33 110.09 108.02 109.76 107.74 109.43 107.49 109.05 107.28 108.65 107.12 108.25 107 107.82 106.93 107.4 106.91 106.97 106.93 106.54 107 106.14 107.12 105.74 107.28 105.38 107.49 105.02 107.74 104.7 108.02 104.42 108.33 104.17 108.68 103.97 109.06 103.8 109.46 103.69 109.86 103.62 110.29 103.59 110.71 103.62 111.14 103.69 111.56 103.8 111.97 103.97 112.37 104.17 112.73 104.42 113.08 104.7 113.41 105.02 113.69 105.38 113.94 105.74 114.14 106.14 114.31 106.54 114.42 106.97 114.49 107.4 114.52 107.82 114.49 108.25 114.42 108.65 114.31 109.05 114.14 109.43 113.94 109.76 113.69 110.09 113.41 110.37 113.08 110.62 112.73 110.83 112.37 110.99 111.97 111.12 111.56 111.19 111.14 111.2 110.71 111.2 110.71" fill-rule="evenodd"/>
  <polygon points="96.28 65.57 96.28 96.02 81.06 96.02 81.06 65.57 96.28 65.57 96.28 65.57" fill-rule="evenodd"/>
  <polygon points="83.84 118.27 77.12 114.73 67.34 133.24 74.08 136.79 83.84 118.27 83.84 118.27" fill-rule="evenodd"/>
  <polygon points="111.13 109.93 103.67 111.48 107.94 131.99 115.39 130.43 111.13 109.93 111.13 109.93" fill-rule="evenodd"/>
  <polygon points="81.14 95.23 88.58 96.82 84.21 117.3 76.75 115.7 81.14 95.23 81.14 95.23" fill-rule="evenodd"/>
  <polygon points="122.75 85.88 120 91.96 104.91 85.14 107.66 79.07 122.75 85.88 122.75 85.88" fill-rule="evenodd"/>
  <path d="M357.19,383.52v65.82H362l-.77,1.71-.83,1.69h-3.22v4.06h1l-1,1.67-1.06,1.64L355,461.74l-1.14,1.57-1.18,1.56-1.24,1.5-1.27,1.49H331v15.31l-1.69.89-1.72.84v-17H304.36v23.59l-1.69.15-1.7.11V467.87H296l-1.59-11.06H301v-1.15h3.39v1.15h23.26v-4.06H261.56v4.06h7.67l1.59,11.06h-9.25v14.38l-1.72-1-1.69-1.08V467.87H254.8v9.91l-1.73-1.32-1.67-1.38v-7.21H244l-1.27-1.49-1.22-1.5-1.2-1.56-1.14-1.57-1.11-1.62L237,458.48l-1-1.67h15.37v-4.06H233.83l-.83-1.69-.77-1.71h19.17V367h-.07l1.42-1.17,1.45-1.14,1.48-1.1h72v-6.48l1.72.84,1.69.89v4.75h7.54l1.48,1.1,1.45,1.14,1.42,1.17H331v82.34h22.76V378.55l3.4,5ZM327.63,367H261.56v82.34h66.06V367Zm-69.47,0H254.8v82.34h3.36V367Zm95.63,85.74v4.06H331v-4.06Zm-95.63,4.06v-4.06H254.8v4.06Zm99-73.29-1.1-1.69L355,380.17l-1.18-1.62,3.4,5Z" transform="translate(-197.9 -321.79)" fill-rule="evenodd"/>
  <polygon points="83.5 71.15 78.61 66.64 67.39 78.83 72.28 83.34 83.5 71.15 83.5 71.15" fill-rule="evenodd"/>
  <polygon points="108.93 80.09 103.62 84.11 93.63 70.91 98.94 66.89 108.93 80.09 108.93 80.09" fill-rule="evenodd"/>
  <polygon points="110.08 108 104.73 113.42 89.81 98.73 95.15 93.31 110.08 108 110.08 108" fill-rule="evenodd"/>
  <path d="M396.34,421l-.14-4.46-.29-4.46-.5-4.39-.72-4.39-.86-4.39-1.08-4.32-1.3-4.25L390,386.16,388.34,382l-1.87-4-2-4-2.16-3.89-2.37-3.74-2.59-3.67-2.66-3.53-2.88-3.46-3-3.24-3.17-3.17-3.31-3L359,343.47l-3.53-2.74-3.67-2.52L348,335.83l-3.81-2.16-4-2.09-4.1-1.8-4.1-1.66-4.25-1.51-4.25-1.22-4.32-1.15-4.32-.86-4.39-.72-4.46-.5-4.39-.29-4.46-.07-4.46.07-4.46.29-4.39.5-4.39.72-4.39.86-4.32,1.15-4.25,1.22-4.18,1.51-4.18,1.66-4,1.8-4,2.09-3.89,2.16-3.74,2.38-3.67,2.52-3.53,2.74-3.46,2.81-3.24,3-3.17,3.17-3,3.24-2.88,3.46-2.66,3.53-2.52,3.67-2.38,3.74L209.71,374l-2,4-1.8,4-1.66,4.18-1.51,4.18-1.3,4.25-1.08,4.32-.86,4.39-.72,4.39-.5,4.39-.29,4.46L197.9,421l.07,4.46.29,4.39.5,4.46.72,4.39.86,4.39,1.08,4.25,1.3,4.32,1.51,4.18,1.66,4.1,1.8,4.1,2,4,2.23,3.89,2.38,3.74,2.52,3.67,2.66,3.53,2.88,3.46,3,3.24,3.17,3.17,3.24,3,3.46,2.81,3.53,2.74,3.67,2.52,3.74,2.38,3.89,2.16,4,2.09,4,1.8,4.18,1.66,4.18,1.51,4.25,1.22,4.32,1.08,4.39.94,4.39.65,4.39.5,4.46.36,4.46.07,4.46-.07,4.39-.36,4.46-.5,4.39-.65,4.32-.94,4.32-1.08,4.25-1.22,4.25-1.51,4.1-1.66,4.1-1.8,4-2.09,3.81-2.16,3.82-2.38,3.67-2.52,3.53-2.74,3.38-2.81,3.31-3,3.17-3.17,3-3.24,2.88-3.46,2.66-3.53,2.59-3.67,2.37-3.74,2.16-3.89,2-4,1.87-4.1,1.66-4.1,1.44-4.18,1.3-4.32,1.08-4.25.86-4.39.72-4.39.5-4.46.29-4.39.14-4.46Zm-37.8,50.26,2.52-3.17,2.3-3.31,2.16-3.46,1.87-3.53,1.8-3.6,1.58-3.67,1.44-3.74,1.22-3.89,1-3.89.79-4,.58-4,.43-4,.21-4v-4l-.21-4-.36-4-.65-4-.79-4-1-3.89-1.22-3.82-1.37-3.82-1.58-3.67-1.8-3.6-1.94-3.53-2.09-3.46-2.3-3.31-2.52-3.17-2.59-3-2.81-3-2.88-2.74-3.1-2.66L344.06,357l-3.31-2.3-3.38-2.09-3.53-2-3.6-1.73-3.74-1.58-3.74-1.44-3.82-1.15-4-1-3.89-.86-4-.58-4-.43-4-.14h-4l-4,.14-4,.43-4,.65-4,.79-3.89,1-3.82,1.22-3.74,1.37-3.74,1.66-3.6,1.73-3.53,1.94-3.38,2.16-3.31,2.3-3.17,2.45L358.54,471.27Zm-11.16,11.16L235.63,370.75,233.11,374l-2.3,3.24-2.09,3.46-1.94,3.53-1.8,3.6-1.58,3.67L222,395.31l-1.15,3.82-1,3.89-.86,4-.58,4-.43,4-.22,4v4l.22,4,.43,4,.58,4,.86,4,.94,3.89,1.22,3.89,1.44,3.74,1.58,3.67,1.73,3.6,2,3.6,2.09,3.38,2.3,3.31,2.45,3.17,2.66,3,2.74,3,3,2.74,3,2.66L250.1,485l3.31,2.3,3.46,2.16,3.53,1.94,3.6,1.73,3.67,1.58,3.82,1.44,3.82,1.15,3.89,1,4,.79,4,.65,4,.43,4,.14h4l4-.22,4-.36,4-.65,4-.79,3.89-1,3.89-1.22,3.74-1.44,3.67-1.58,3.6-1.73,3.53-2,3.46-2.09,3.31-2.3,3.17-2.52Z" transform="translate(-197.9 -321.79)" fill="#ed1c24" fill-rule="evenodd"/>
  </g>
</svg>
