<svg id="Layer_1" data-name="Layer 1" xmlns="http://www.w3.org/2000/svg" width="70mm" height="70mm" viewBox="0 0 198.43 198.43">
  <title>p028</title>
  <g id="symbolgrp">
  <path d="M252.23,433.07c-2.52,10.51-6.26,20.45-12.74,29.16-.58,1.15-.58,1.87.07,2.16.14.14.43.14.79.22a272.1,272.1,0,0,1,52.06,16c1.73.43,2.88-.07,2.52-1.87a130.63,130.63,0,0,1-.79-24.34c4.46,2.16,10.66,6.55,15.91,10.66,1,.65,1.58.07,1.58-1.51A138.23,138.23,0,0,1,320,433.07h-2.81c-3.31,8.71-8.86,28.8-7.78,28.3-3.67-2.66-11.16-7.56-15-10A155.47,155.47,0,0,1,297,433l-44.78.07Z" transform="translate(-197.9 -321.79)" fill-rule="evenodd"/>
  <path d="M297,433.07c.22-1.15.5-2.23.72-3.38,3.38-13.68,8.93-37.94,8.06-41,.22-3.38-5.33-5.76-7.63-1.3-2.74,6-4.54,13.82-5.83,19.8-.14.36-.86.22-.86-.29,1.73-7.92,3.6-15.77,4.9-24,.94-4.9-6-7.63-8.14-1-2.23,6.12-5.11,18.5-7.42,25.78-.43.5-.86.36-.79-.14,2.38-9.36,5.54-22,5.76-26.35.65-3.24-4.82-7.13-7.92-.65-2.81,7.49-6,21.74-8.21,29.45-.5.36-.72.29-.79-.14,1.8-7.56,3.46-14.83,5-22.54-.14-4.46-5.26-7-8.64-1.58-1.87,3.89-3.46,7.56-4.75,11.09-3.82,10.51-5.26,19.66-6.62,28.44-.43,2.66-1,5.26-1.58,7.85Zm23,0c6-14.9,15.26-30.17,30.1-49.32a28.06,28.06,0,0,0,1.58-3.38c1-2.66.86-5.11-1.87-6.55-2-1.15-4.39-.43-7.13,1.58a17.1,17.1,0,0,0,2.52-5.54c.07-3.53-1.58-5.33-5-5.18-1.44-.14-4.18,1.3-9.72,6.48a22.73,22.73,0,0,0,2.74-6.91c.43-2.3-.36-4.61-2.59-5.47a7,7,0,0,0-3.31-.14c-3.24.94-6.26,5-9.43,8.35a14.71,14.71,0,0,0,.94-5.26,3.58,3.58,0,0,0-5.26-2.81c-3.24.72-12.53,12.53-15.77,23.18-.94,2.59,1.44,2.52,2,.86a66.27,66.27,0,0,1,10.51-18.29c.58-.79,4.82-5.54,6-3a10.18,10.18,0,0,1-.36,3.89c-.43,4.25-4.46,10.87-7.13,16.49-.58,1,.72,2.52,1.8.72,3.46-6.62,8.21-14.54,10.44-16.34,1.8-2,5.69-6.41,8.86-5.26,2.23,1.58-.29,6.26-1,7.85-2.59,6.12-7.63,12.53-9.79,17.28-.65,1.15.94,2.09,1.8.65,3-4.82,11.37-16.06,16.42-18.5,1.73-1.15,2.45-1.73,4.54-1,1.87,1.58-.43,4.9-1.08,6.55-3.53,6.12-8.86,12.82-11.74,16.7-1.15,2.16.79,2.23,1.58,1.08,5.76-7.34,10.44-13.32,13.75-14.9,1.51-.86,4-2.23,5.19.22.65,2.59-2.3,6.34-3.74,8.14-10.44,13.82-20.23,28.22-27.07,44.14a16.28,16.28,0,0,0-1.66,3.74Zm-13.9-28.94c5.26-4.75,11-8.5,17.21-10.22,3.89-.65,6.27.94,6.63,4,.5,5-2.23,9.43-5,13.9-5,7.49-10.51,12.31-16.05,17.28-1.66.65-2.52,0-1.73-1.51a85,85,0,0,0,16.06-17.14c2.66-4.75,4.46-8.42,4.46-11.52-.36-2.3-1.73-3.24-4-2.66a50.75,50.75,0,0,0-16.34,9.58c-1,.65-2.45-.07-1.22-1.66Z" transform="translate(-197.9 -321.79)" fill-rule="evenodd"/>
  <path d="M396.34,421l-.14-4.46-.29-4.46-.5-4.39-.72-4.39-.86-4.39-1.08-4.32-1.3-4.25L390,386.16,388.34,382l-1.87-4-2-4-2.16-3.89-2.37-3.74-2.59-3.67-2.66-3.53-2.88-3.46-3-3.24-3.17-3.17-3.31-3L359,343.47l-3.53-2.74-3.67-2.52L348,335.83l-3.81-2.16-4-2.09-4.1-1.8-4.1-1.66-4.25-1.51-4.25-1.22-4.32-1.15-4.32-.86-4.39-.72-4.46-.5-4.39-.29-4.46-.07-4.46.07-4.46.29-4.39.5-4.39.72-4.39.86-4.32,1.15-4.25,1.22-4.18,1.51-4.18,1.66-4,1.8-4,2.09-3.89,2.16-3.74,2.38-3.67,2.52-3.53,2.74-3.46,2.81-3.24,3-3.17,3.17-3,3.24-2.88,3.46-2.66,3.53-2.52,3.67-2.38,3.74L209.71,374l-2,4-1.8,4-1.66,4.18-1.51,4.18-1.3,4.25-1.08,4.32-.86,4.39-.72,4.39-.5,4.39-.29,4.46L197.9,421l.07,4.46.29,4.39.5,4.46.72,4.39.86,4.39,1.08,4.25,1.3,4.32,1.51,4.18,1.66,4.1,1.8,4.1,2,4,2.23,3.89,2.38,3.74,2.52,3.67,2.66,3.53,2.88,3.46,3,3.24,3.17,3.17,3.24,3,3.46,2.81,3.53,2.74,3.67,2.52,3.74,2.38,3.89,2.16,4,2.09,4,1.8,4.18,1.66,4.18,1.51,4.25,1.22,4.32,1.08,4.39.94,4.39.65,4.39.5,4.46.36,4.46.07,4.46-.07,4.39-.36,4.46-.5,4.39-.65,4.32-.94,4.32-1.08,4.25-1.22,4.25-1.51,4.1-1.66,4.1-1.8,4-2.09,3.81-2.16,3.82-2.38,3.67-2.52,3.53-2.74,3.38-2.81,3.31-3,3.17-3.17,3-3.24,2.88-3.46,2.66-3.53,2.59-3.67,2.37-3.74,2.16-3.89,2-4,1.87-4.1,1.66-4.1,1.44-4.18,1.3-4.32,1.08-4.25.86-4.39.72-4.39.5-4.46.29-4.39.14-4.46Zm-37.8,50.26,2.52-3.17,2.3-3.31,2.16-3.46,1.87-3.53,1.8-3.6,1.58-3.67,1.44-3.74,1.22-3.89,1-3.89.79-4,.58-4,.43-4,.21-4v-4l-.21-4-.36-4-.65-4-.79-4-1-3.89-1.22-3.82-1.37-3.82-1.58-3.67-1.8-3.6-1.94-3.53-2.09-3.46-2.3-3.31-2.52-3.17-2.59-3-2.81-3-2.88-2.74-3.1-2.66L344.06,357l-3.31-2.3-3.38-2.09-3.53-2-3.6-1.73-3.74-1.58-3.74-1.44-3.82-1.15-4-1-3.89-.86-4-.58-4-.43-4-.14h-4l-4,.14-4,.43-4,.65-4,.79-3.89,1-3.82,1.22-3.74,1.37-3.74,1.66-3.6,1.73-3.53,1.94-3.38,2.16-3.31,2.3-3.17,2.45L358.54,471.27Zm-11.16,11.16L235.63,370.75,233.11,374l-2.3,3.24-2.09,3.46-1.94,3.53-1.8,3.6-1.58,3.67L222,395.31l-1.15,3.82-1,3.89-.86,4-.58,4-.43,4-.22,4v4l.22,4,.43,4,.58,4,.86,4,.94,3.89,1.22,3.89,1.44,3.74,1.58,3.67,1.73,3.6,2,3.6,2.09,3.38,2.3,3.31,2.45,3.17,2.66,3,2.74,3,3,2.74,3,2.66L250.1,485l3.31,2.3,3.46,2.16,3.53,1.94,3.6,1.73,3.67,1.58,3.82,1.44,3.82,1.15,3.89,1,4,.79,4,.65,4,.43,4,.14h4l4-.22,4-.36,4-.65,4-.79,3.89-1,3.89-1.22,3.74-1.44,3.67-1.58,3.6-1.73,3.53-2,3.46-2.09,3.31-2.3,3.17-2.52Z" transform="translate(-197.9 -321.79)" fill="#ed1c24" fill-rule="evenodd"/>
  </g>
</svg>
