<svg id="Layer_1" data-name="Layer 1" xmlns="http://www.w3.org/2000/svg" width="7cm" height="7cm" viewBox="0 0 198.43 198.43">
  <title>p029</title>
  <g id="symbolgrp">
  <path d="M345.86,424.56H328a14.31,14.31,0,0,0-14.26-13.32H303.31a14.2,14.2,0,0,0-14.18,13.32H248.3a16,16,0,0,0-16,16V487a3.92,3.92,0,0,0,3.89,3.89H358a3.92,3.92,0,0,0,3.89-3.89V440.55a16,16,0,0,0-16-16Z" transform="translate(-197.9 -360.13)" fill-rule="evenodd"/>
  <path d="M342.7,464.52h.36a3.87,3.87,0,0,1,3.89,3.89v.65a3.87,3.87,0,0,1-3.89,3.89h-.65a3.87,3.87,0,0,1-3.89-3.89v-.65a3.87,3.87,0,0,1,3.89-3.89Z" transform="translate(-197.9 -360.13)" fill="#fff" fill-rule="evenodd"/>
  <path d="M342.7,476.83h.36a3.87,3.87,0,0,1,3.89,3.89v.65a3.87,3.87,0,0,1-3.89,3.89h-.65a3.87,3.87,0,0,1-3.89-3.89v-.65a3.87,3.87,0,0,1,3.89-3.89Z" transform="translate(-197.9 -360.13)" fill="#fff" fill-rule="evenodd"/>
  <path d="M342.26,437.45h.36a3.87,3.87,0,0,1,3.89,3.89V442a3.87,3.87,0,0,1-3.89,3.89H342a3.87,3.87,0,0,1-3.89-3.89v-.65a3.87,3.87,0,0,1,3.89-3.89Z" transform="translate(-197.9 -360.13)" fill="#fff" fill-rule="evenodd"/>
  <path d="M273.86,476.69h.36a3.87,3.87,0,0,1,3.89,3.89v.65a3.87,3.87,0,0,1-3.89,3.89h-.65a3.87,3.87,0,0,1-3.89-3.89v-.65a3.87,3.87,0,0,1,3.89-3.89Z" transform="translate(-197.9 -360.13)" fill="#fff" fill-rule="evenodd"/>
  <path d="M336.14,458.76a27.58,27.58,0,1,1-27.58-27.58,27.58,27.58,0,0,1,27.58,27.58Z" transform="translate(-197.9 -360.13)" fill="#fff" fill-rule="evenodd"/>
  <path d="M329.59,458.76a21.06,21.06,0,1,1-21.1-21,21.08,21.08,0,0,1,21.1,21Z" transform="translate(-197.9 -360.13)" fill-rule="evenodd"/>
  <path d="M323.11,458.83a14.58,14.58,0,1,1-14.62-14.62,14.63,14.63,0,0,1,14.62,14.62Z" transform="translate(-197.9 -360.13)" fill="#fff" fill-rule="evenodd"/>
  <path d="M259.75,437.52v-3.74a3.87,3.87,0,0,0-3.89-3.89h-7.13a3.87,3.87,0,0,0-3.89,3.89v3.74Z" transform="translate(-197.9 -360.13)" fill="#fff" fill-rule="evenodd"/>
  <path d="M396.34,459.35l-.14-4.46-.29-4.46-.5-4.39-.72-4.39-.86-4.39-1.08-4.32-1.3-4.25L390,424.5l-1.66-4.18-1.87-4-2-4-2.16-3.89-2.37-3.74L377.33,401l-2.66-3.53L371.78,394l-3-3.24-3.17-3.17-3.31-3L359,381.8l-3.53-2.74-3.67-2.52L348,374.17,344.14,372l-4-2.09-4.1-1.8-4.1-1.66L327.72,365l-4.25-1.22-4.32-1.15-4.32-.86-4.39-.72-4.46-.5-4.39-.29-4.46-.07-4.46.07-4.46.29-4.39.5-4.39.72-4.39.86-4.32,1.15L266.45,365l-4.18,1.51-4.18,1.66-4,1.8-4,2.09-3.89,2.16-3.74,2.38-3.67,2.52-3.53,2.74-3.46,2.81-3.24,3-3.17,3.17-3,3.24-2.88,3.46L216.84,401l-2.52,3.67-2.38,3.74-2.23,3.89-2,4-1.8,4-1.66,4.18-1.51,4.18-1.3,4.25-1.08,4.32-.86,4.39-.72,4.39-.5,4.39-.29,4.46-.07,4.46.07,4.46.29,4.39.5,4.46.72,4.39.86,4.39,1.08,4.25,1.3,4.32,1.51,4.18,1.66,4.1,1.8,4.1,2,4,2.23,3.89,2.38,3.74,2.52,3.67,2.66,3.53,2.88,3.46,3,3.24,3.17,3.17,3.24,3,3.46,2.81,3.53,2.74,3.67,2.52,3.74,2.38,3.89,2.16,4,2.09,4,1.8,4.18,1.66,4.18,1.51L270.7,555,275,556l4.39.94,4.39.65,4.39.5,4.46.36,4.46.07,4.46-.07,4.39-.36,4.46-.5,4.39-.65,4.32-.94,4.32-1.08,4.25-1.22,4.25-1.51,4.1-1.66,4.1-1.8,4-2.09,3.81-2.16,3.82-2.38,3.67-2.52,3.53-2.74,3.38-2.81,3.31-3,3.17-3.17,3-3.24,2.88-3.46,2.66-3.53,2.59-3.67,2.37-3.74,2.16-3.89,2-4,1.87-4.1,1.66-4.1,1.44-4.18,1.3-4.32,1.08-4.25.86-4.39.72-4.39.5-4.46.29-4.39.14-4.46Zm-37.8,50.26,2.52-3.17,2.3-3.31,2.16-3.46,1.87-3.53,1.8-3.6,1.58-3.67,1.44-3.74,1.22-3.89,1-3.89.79-4,.58-4,.43-4,.21-4v-4l-.21-4-.36-4-.65-4-.79-4-1-3.89-1.22-3.82-1.37-3.82-1.58-3.67-1.8-3.6-1.94-3.53-2.09-3.46-2.3-3.31-2.52-3.17-2.59-3-2.81-3-2.88-2.74-3.1-2.66-3.17-2.45-3.31-2.3-3.38-2.09-3.53-2-3.6-1.73-3.74-1.58-3.74-1.44L318.94,383l-4-1-3.89-.86-4-.58-4-.43-4-.14h-4l-4,.14-4,.43-4,.65-4,.79-3.89,1-3.82,1.22-3.74,1.37-3.74,1.66-3.6,1.73-3.53,1.94-3.38,2.16-3.31,2.3-3.17,2.45L358.54,509.6Zm-11.16,11.16L235.63,409.09l-2.52,3.24-2.3,3.24L228.72,419l-1.94,3.53-1.8,3.6-1.58,3.67L222,433.64l-1.15,3.82-1,3.89-.86,4-.58,4-.43,4-.22,4v4l.22,4,.43,4,.58,4,.86,4,.94,3.89,1.22,3.89,1.44,3.74,1.58,3.67,1.73,3.6,2,3.6,2.09,3.38,2.3,3.31,2.45,3.17,2.66,3,2.74,3,3,2.74,3,2.66,3.17,2.45,3.31,2.3,3.46,2.16,3.53,1.94,3.6,1.73,3.67,1.58,3.82,1.44,3.82,1.15,3.89,1,4,.79,4,.65,4,.43,4,.14h4l4-.22,4-.36,4-.65,4-.79,3.89-1,3.89-1.22,3.74-1.44,3.67-1.58,3.6-1.73,3.53-2,3.46-2.09,3.31-2.3,3.17-2.52Z" transform="translate(-197.9 -360.13)" fill="#ed1c24" fill-rule="evenodd"/>
  </g>
</svg>
