<svg id="Layer_1" data-name="Layer 1" xmlns="http://www.w3.org/2000/svg" width="70mm" height="70mm" viewBox="0 0 198.43 198.43">
  <title>p030</title>
  <g id="symbolgrp">
  <path d="M292.91,491.69l-.51-.94-.29-1-.07-1.05.18-1,.36-1-.54-.87-.33-1-.15-1.05-1.27.29-1.31,0-1.31-.22-1.23-.47-1.12-.69-.91.11-.87-.11-.87-.29-.8-.44-.73-.58-.54-.69-.44-.8-.83-.43-.76-.54-.62-.72-.47-.8-.29-.91-.11-.94.07-.91-.47-.76-.29-.8-.11-.87.07-.87.29-.8.47-.76.62-.62,0-.94.22-.91.44-.83.58-.72.76-.54.87-.36.51-1,.65-.91.83-.76,1-.54,1.09-.36v-.8l-.44-.58-.22-.69,0-.69.14-.73-.54-.73-.4-.87-.25-.87,0-.94.11-.94.25-.87.43-.83.62-.73-.4-.83-.11-.94.15-.91.54-1.27.76-1.09,1-1,1.12-.72.29-.94.47-.87.65-.76.76-.62.87-.43.94-.29.18-.91.36-.87-.47-.58-.33-.69-.14-.73v-.76l.14-.72.33-.65.47-.62.58-.43.65-.36-.51-.73-.36-.8-.15-.87v-.91l.22-.87.4-.8-.33-.76-.22-.8,0-.87.11-.83.29-.8.4-.72-.4-1-.18-1.09.07-1.09.25-1.05.47-1-.29-1.27-.15-1.27.07-1.34.25-1.27.4-1.23-.36-.94-.18-1v-1l.14-1,.36-1,.51-.87-.44-.83-.22-.87-.11-.91.11-.91.25-.87.44-.83-.44-.83-.25-.94-.07-.94.11-1,.29-.91.47-.83-.44-1.05-.18-1.09v-1.12l.22-1.09.44-1.05-.54-.8-.33-.91-.15-.94.07-.94.33-.94.47-.8-.47-1-.22-1.05,0-1.12.18-1.05.44-1.05-.22-1v-1l.14-1,.36-1-.36-1.05L293.6,373l0-1.09.29-1.09.44-1-.36-1-.25-1,0-1.05.11-1,.29-1-.47-1.05-.22-1.12v-1.12l.22-1.12.44-1.05-.44-1.12-.18-1.2,0-1.23.33-1.16.44-.76.65-.54,4.72-2.94h1.71l.4.94.18,1-.07,1-.29,1-.51.91.47.73.29.83.07.91-.11.87-.33.83-.47.73.47.91.29.94.11,1-.11,1-.29.94-.51.91.58.76.36.91.18.94-.07,1-.29.91-.51.83.4.72.29.8.11.8v.83l-.18.83-.33.76.18,1.09v1.09l-.25,1.09-.44,1,.4,1.05.22,1.09,0,1.12-.25,1.09-.44,1,.44,1.05.18,1.09,0,1.16-.25,1.09-.51,1,.51.8.36.91.14.94,0,.94-.25.91-.44.87.44.83.25.87.07.94-.14.91-.36.87-.51.76.47.87.33.94.07,1-.07,1-.29.94-.51.87.4,1,.22,1.12v1.09l-.11,1.12-.33,1.05-.51,1,.44.8.22.91,0,.94L301,417l-.33.87-.51.8.36.91.18,1,0,1-.29,1-.44.87.4.87.25.94,0,.94-.14.94-.33.91-.51.8.44.69.29.73.11.8,0,.8-.18.76-.36.73-.51.62.18,1.27-.11,1.23-.33,1.23,1-.25,1,0,1.05.18.94.36.91.54.72.76.58.83.91.15.87.36.76.51.65.65.47.8.29.87.11.94-.07.91.51.8.36.87.11.94-.07.94-.29.87-.51.83-.65.65-.8.51.22.54,0,.62-.18.54-.33.51-1,1-1.12.83-1.23.65.62.87.36.94.15,1-.11,1.05-.36.94.55.69.44.76.29.83.07.91-.07.87-.22.83-.44.8-.54.69.51.33.36.44.22.54.07.62-.15,1-.33,1-.54.87-.73.76-.83.58.14.58,0,.62-.11.62-.4.94-.54.83-.69.72-.83.58-.91.4-1,.22.18.83v.83l-.15.83-.29.76-.44.73.58.72.4.83.22.91,0,.91-.14.91-.33.69-.51.58-.62.43-5.41,2.5ZM302.16,450l-.18-.69-.4-.62-.51-.47-.65-.29.22-1.42V445l.76.51.83.36.91.22-.54,1.23-.33,1.27-.11,1.34Zm-10.45,6.42.69-.58.83-.44.87-.22.94,0-.58-1-.36-1.12-.22-1.16,0-1.16.18-1.16-.65-.94-.51-1.05-.47.91-.65.73-.83.54.36.76.14.8v.8l-.18.8-.36.76-.51.62.51.4.36.51.29.58.11.62Zm5.44,15-.15-.83-.33-.83-.47-.72-.65-.58-.76-.44.25-.72.11-.8-.11-.76-.25-.72-.44-.65-.58-.54-.65-.4-.18-.62.87-.14.8-.33.73-.51.58-.62.47-.73h.91l-.11,1,0,1,.22,1,.4.87.58.83-.47.69-.29.83-.11.83.11.87.29.8.51.73v.51l-.51.25-.47.36-.33.44Zm-6.89,4.53-.44-.76-.25-.87,0-.91.14-.87-.73-.69-.58-.8-.47-.91-.29-.94,0-.65.15-.69.36-.54-1.16-.83-.69.8-.87.58-1,.36.15.76-.07.76-.25.73-.47.62-.62.47.51.62.36.69.22.76,0,.8-.15.76.69.18.65.36.54.47.44.65.22.69.65-.25.69-.15.73,0,.69.15.65.33-.11-.58.11-.58.22-.54Z" transform="translate(-197.9 -321.79)" fill-rule="evenodd"/>
  <path d="M396.34,421l-.14-4.46-.29-4.46-.5-4.39-.72-4.39-.86-4.39-1.08-4.32-1.3-4.25L390,386.16,388.34,382l-1.87-4-2-4-2.16-3.89-2.38-3.74-2.59-3.67-2.66-3.53-2.88-3.46-3-3.24-3.17-3.17-3.31-3L359,343.47l-3.53-2.74-3.67-2.52L348,335.83l-3.82-2.16-4-2.09-4.1-1.8-4.1-1.66-4.25-1.51-4.25-1.22-4.32-1.15-4.32-.86-4.39-.72-4.46-.5-4.39-.29-4.46-.07-4.46.07-4.46.29-4.39.5-4.39.72-4.39.86-4.32,1.15-4.25,1.22-4.18,1.51-4.18,1.66-4,1.8-4,2.09-3.89,2.16-3.74,2.38-3.67,2.52-3.53,2.74-3.46,2.81-3.24,3-3.17,3.17-3,3.24-2.88,3.46-2.66,3.53-2.52,3.67-2.38,3.74L209.71,374l-2,4-1.8,4-1.66,4.18-1.51,4.18-1.3,4.25-1.08,4.32-.86,4.39-.72,4.39-.5,4.39-.29,4.46L197.9,421l.07,4.46.29,4.39.5,4.46.72,4.39.86,4.39,1.08,4.25,1.3,4.32,1.51,4.18,1.66,4.1,1.8,4.1,2,4,2.23,3.89,2.38,3.74,2.52,3.67,2.66,3.53,2.88,3.46,3,3.24,3.17,3.17,3.24,3,3.46,2.81,3.53,2.74,3.67,2.52,3.74,2.38,3.89,2.16,4,2.09,4,1.8,4.18,1.66,4.18,1.51,4.25,1.22,4.32,1.08,4.39.94,4.39.65,4.39.5,4.46.36,4.46.07,4.46-.07,4.39-.36,4.46-.5,4.39-.65,4.32-.94,4.32-1.08,4.25-1.22,4.25-1.51,4.1-1.66,4.1-1.8,4-2.09,3.82-2.16,3.81-2.38,3.67-2.52,3.53-2.74,3.38-2.81,3.31-3,3.17-3.17,3-3.24,2.88-3.46,2.66-3.53,2.59-3.67,2.38-3.74,2.16-3.89,2-4,1.87-4.1,1.66-4.1,1.44-4.18,1.3-4.32,1.08-4.25.86-4.39.72-4.39.5-4.46.29-4.39.14-4.46Zm-37.8,50.26,2.52-3.17,2.3-3.31,2.16-3.46,1.87-3.53,1.8-3.6,1.58-3.67,1.44-3.74,1.22-3.89,1-3.89.79-4,.58-4,.43-4,.22-4v-4l-.22-4-.36-4-.65-4-.79-4-1-3.89-1.22-3.82-1.37-3.82-1.58-3.67-1.8-3.6-1.95-3.53-2.09-3.46-2.3-3.31-2.52-3.17-2.59-3-2.81-3-2.88-2.74-3.1-2.66L344.06,357l-3.31-2.3-3.38-2.09-3.53-2-3.6-1.73-3.74-1.58-3.74-1.44-3.82-1.15-4-1-3.89-.86-4-.58-4-.43-4-.14h-4l-4,.14-4,.43-4,.65-4,.79-3.89,1-3.82,1.22-3.74,1.37-3.74,1.66-3.6,1.73-3.53,1.94-3.38,2.16-3.31,2.3-3.17,2.45L358.54,471.27Zm-11.16,11.16L235.63,370.75,233.11,374l-2.3,3.24-2.09,3.46-1.94,3.53-1.8,3.6-1.58,3.67L222,395.31l-1.15,3.82-1,3.89-.86,4-.58,4-.43,4-.22,4v4l.22,4,.43,4,.58,4,.86,4,.94,3.89,1.22,3.89,1.44,3.74,1.58,3.67,1.73,3.6,2,3.6,2.09,3.38,2.3,3.31,2.45,3.17,2.66,3,2.74,3,3,2.74,3,2.66L250.1,485l3.31,2.3,3.46,2.16,3.53,1.94,3.6,1.73,3.67,1.58,3.82,1.44,3.82,1.15,3.89,1,4,.79,4,.65,4,.43,4,.14h4l4-.22,4-.36,4-.65,4-.79,3.89-1,3.89-1.22,3.74-1.44,3.67-1.58,3.6-1.73,3.53-2,3.46-2.09,3.31-2.3,3.17-2.52Z" transform="translate(-197.9 -321.79)" fill="#ed1c24" fill-rule="evenodd"/>
  </g>
</svg>
