<svg id="Layer_1" data-name="Layer 1" xmlns="http://www.w3.org/2000/svg" width="70mm" height="70mm" viewBox="0 0 198.43 198.43">
  <title>p032</title>
  <g id="symbolgrp">
  <path d="M363.12,406.3l.5-.37.47-.43.45-.46.4-.49.35-.53.32-.55.26-.58.21-.6.17-.6.12-.62.07-.63v-.65l0-.63-.09-.62-.14-.62-.2-.6-.25-.59-.29-.56-.33-.53-3.27-4.75-.39-.52-.42-.47-.46-.43-.49-.4-.53-.36-.55-.3-.58-.27-.59-.22-.62-.17-.62-.12-.63-.06h-.63l-.63,0-.63.09-.62.16-.61.19-.59.24-.56.29-.53.35-30.35,20.85-4.19-2.55,5.82-4-16.67-24.27-1,.72-1,.78-1,.82-.92.85L301,383l-.84.92-.79,1-.76,1-.7,1-.68,1.05-.62,1.08-.59,1.11-.52,1.14-.49,1.15-.43,1.18-.37,1.18-.33,1.21-.29,1.22-.23,1.22-.17,1.24-.11,1.25-.07,1.25v1.25l0,1.24.09,1.25.14,1.24.2,1.24.24,1.22.3,1.22.35,1.19.4,1.18.45,1.18.5,1.14.55,1.12.59,1.11.65,1.06.68,1.05,12.45-8.56,2.52,13.81-33,22.68H288L353.29,403l3.64-7.94L328.6,414.48,325,412.3l28.69-19.71.36-.22.39-.17.4-.12.42-.06h.42l.42,0,.4.1.39.16.36.2.35.26.29.29.26.33,3.27,4.75.21.36.16.39.12.4.06.42v.42l-.06.42-.1.4-.14.39-.22.36-.24.33-.29.3-.33.26L325.1,427l2.55,3.7,35.47-24.39ZM275.33,445.1l5.7,6.79h82l-1,2-1,1.93L360,457.71l-1.14,1.87H235.35l-1.05-1.73-1-1.74-.94-1.77-.91-1.8-.83-1.83-.79-1.86-.75-1.86-.69-1.9Zm56-83.78L310,376l16.67,24.27L348,385.58l-2.53-3.68-17.69,12.16-11.6-16.89L333.91,365l-2.55-3.68Zm-26.53,24.16-.81.83-.76.88-.72.91-.68.95-.63,1-.59,1-.55,1-.49,1.05-.45,1.08-.4,1.09-.33,1.11-.3,1.12-.23,1.14-.19,1.15-.13,1.15-.07,1.17,0,1.16,0,1.15.09,1.17.13,1.15.2,1.15.24,1.14.29,1.12.36,1.11.39,1.08.46,1.08L316.2,402l-11.37-16.55Zm7.6,14.91,0-.55-.09-.52-.14-.52-.19-.5-.25-.47-.29-.46-.35-.42-.37-.37-.42-.33-.45-.3-.47-.24-.5-.19-.52-.14-.53-.07-.53,0-.53,0-.53.07-.52.14-.5.19-.47.24-.45.3-.42.33-.37.37-.35.42-.29.46-.25.47-.19.5-.14.52-.09.52,0,.55,0,.53.09.53.14.52.19.49.25.49.29.45.35.42.38.37.42.35.45.29.47.24.5.19.52.14.53.09.53,0,.53,0,.53-.09.52-.14.5-.19.47-.24.45-.29.42-.35.37-.37.35-.42.29-.45.25-.49.19-.49.14-.52.09-.53,0-.53Zm-3.21,0v-.3l-.07-.3-.12-.27-.16-.26-.2-.23-.23-.19-.24-.16-.29-.11-.29-.07-.3,0-.3,0-.29.07-.29.11-.24.16L306,399l-.2.23-.16.26-.12.27-.07.3v.6l.07.29.12.27.16.26.2.23.23.2.24.16.29.11.29.06.3,0,.3,0,.29-.06.29-.11.24-.16.23-.2.2-.23.16-.26.12-.27.07-.29v-.3Z" transform="translate(-197.9 -321.79)" fill-rule="evenodd"/>
  <path d="M396.34,421l-.14-4.46-.29-4.46-.5-4.39-.72-4.39-.86-4.39-1.08-4.32-1.3-4.25L390,386.16,388.34,382l-1.87-4-2-4-2.16-3.89-2.38-3.74-2.59-3.67-2.66-3.53-2.88-3.46-3-3.24-3.17-3.17-3.31-3L359,343.47l-3.53-2.74-3.67-2.52L348,335.83l-3.82-2.16-4-2.09-4.1-1.8-4.1-1.66-4.25-1.51-4.25-1.22-4.32-1.15-4.32-.86-4.39-.72-4.46-.5-4.39-.29-4.46-.07-4.46.07-4.46.29-4.39.5-4.39.72-4.39.86-4.32,1.15-4.25,1.22-4.18,1.51-4.18,1.66-4,1.8-4,2.09-3.89,2.16-3.74,2.38-3.67,2.52-3.53,2.74-3.46,2.81-3.24,3-3.17,3.17-3,3.24-2.88,3.46-2.66,3.53-2.52,3.67-2.38,3.74L209.71,374l-2,4-1.8,4-1.66,4.18-1.51,4.18-1.3,4.25-1.08,4.32-.86,4.39-.72,4.39-.5,4.39-.29,4.46L197.9,421l.07,4.46.29,4.39.5,4.46.72,4.39.86,4.39,1.08,4.25,1.3,4.32,1.51,4.18,1.66,4.1,1.8,4.1,2,4,2.23,3.89,2.38,3.74,2.52,3.67,2.66,3.53,2.88,3.46,3,3.24,3.17,3.17,3.24,3,3.46,2.81,3.53,2.74,3.67,2.52,3.74,2.38,3.89,2.16,4,2.09,4,1.8,4.18,1.66,4.18,1.51,4.25,1.22,4.32,1.08,4.39.94,4.39.65,4.39.5,4.46.36,4.46.07,4.46-.07,4.39-.36,4.46-.5,4.39-.65,4.32-.94,4.32-1.08,4.25-1.22,4.25-1.51,4.1-1.66,4.1-1.8,4-2.09,3.82-2.16,3.81-2.38,3.67-2.52,3.53-2.74,3.38-2.81,3.31-3,3.17-3.17,3-3.24,2.88-3.46,2.66-3.53,2.59-3.67,2.38-3.74,2.16-3.89,2-4,1.87-4.1,1.66-4.1,1.44-4.18,1.3-4.32,1.08-4.25.86-4.39.72-4.39.5-4.46.29-4.39.14-4.46Zm-37.8,50.26,2.52-3.17,2.3-3.31,2.16-3.46,1.87-3.53,1.8-3.6,1.58-3.67,1.44-3.74,1.22-3.89,1-3.89.79-4,.58-4,.43-4,.22-4v-4l-.22-4-.36-4-.65-4-.79-4-1-3.89-1.22-3.82-1.37-3.82-1.58-3.67-1.8-3.6-1.95-3.53-2.09-3.46-2.3-3.31-2.52-3.17-2.59-3-2.81-3-2.88-2.74-3.1-2.66L344.06,357l-3.31-2.3-3.38-2.09-3.53-2-3.6-1.73-3.74-1.58-3.74-1.44-3.82-1.15-4-1-3.89-.86-4-.58-4-.43-4-.14h-4l-4,.14-4,.43-4,.65-4,.79-3.89,1-3.82,1.22-3.74,1.37-3.74,1.66-3.6,1.73-3.53,1.94-3.38,2.16-3.31,2.3-3.17,2.45L358.54,471.27Zm-11.16,11.16L235.63,370.75,233.11,374l-2.3,3.24-2.09,3.46-1.94,3.53-1.8,3.6-1.58,3.67L222,395.31l-1.15,3.82-1,3.89-.86,4-.58,4-.43,4-.22,4v4l.22,4,.43,4,.58,4,.86,4,.94,3.89,1.22,3.89,1.44,3.74,1.58,3.67,1.73,3.6,2,3.6,2.09,3.38,2.3,3.31,2.45,3.17,2.66,3,2.74,3,3,2.74,3,2.66L250.1,485l3.31,2.3,3.46,2.16,3.53,1.94,3.6,1.73,3.67,1.58,3.82,1.44,3.82,1.15,3.89,1,4,.79,4,.65,4,.43,4,.14h4l4-.22,4-.36,4-.65,4-.79,3.89-1,3.89-1.22,3.74-1.44,3.67-1.58,3.6-1.73,3.53-2,3.46-2.09,3.31-2.3,3.17-2.52Z" transform="translate(-197.9 -321.79)" fill="#ed1c24" fill-rule="evenodd"/>
  </g>
</svg>
