<svg id="Layer_1" data-name="Layer 1" xmlns="http://www.w3.org/2000/svg" width="70mm" height="70mm" viewBox="0 0 198.43 198.43">
  <title>p033</title>
  <g id="symbolgrp">
  <polygon points="89.37 83.38 89.36 83.06 89.27 82.74 89.15 82.44 88.98 82.16 88.76 81.92 88.52 81.7 88.24 81.52 87.94 81.41 87.62 81.32 87.3 81.31 86.96 81.32 86.66 81.41 86.36 81.52 86.08 81.7 85.82 81.92 85.62 82.16 85.44 82.44 85.31 82.74 85.24 83.06 85.21 83.38 85.24 83.71 85.31 84.03 85.44 84.32 85.62 84.61 85.82 84.86 86.08 85.06 86.36 85.23 86.66 85.36 86.96 85.44 87.3 85.46 87.62 85.44 87.94 85.36 88.24 85.23 88.52 85.06 88.76 84.86 88.98 84.61 89.15 84.32 89.27 84.03 89.36 83.71 89.37 83.38 89.37 83.38" fill-rule="evenodd"/>
  <polygon points="90.11 89.86 90.1 89.54 90.01 89.22 89.89 88.91 89.72 88.64 89.5 88.39 89.25 88.17 88.98 88 88.67 87.88 88.36 87.8 88.04 87.78 87.7 87.8 87.4 87.88 87.09 88 86.82 88.17 86.56 88.39 86.36 88.64 86.18 88.91 86.05 89.22 85.98 89.54 85.95 89.86 85.98 90.19 86.05 90.51 86.18 90.8 86.36 91.09 86.56 91.33 86.82 91.54 87.09 91.71 87.4 91.84 87.7 91.91 88.04 91.94 88.36 91.91 88.67 91.84 88.98 91.71 89.25 91.54 89.5 91.33 89.72 91.09 89.89 90.8 90.01 90.51 90.1 90.19 90.11 89.86 90.11 89.86" fill-rule="evenodd"/>
  <polygon points="90.85 96.33 90.83 96.01 90.75 95.69 90.63 95.39 90.46 95.11 90.24 94.87 89.99 94.65 89.72 94.48 89.41 94.36 89.09 94.27 88.78 94.26 88.44 94.27 88.12 94.36 87.83 94.48 87.54 94.65 87.3 94.87 87.09 95.11 86.92 95.39 86.79 95.69 86.72 96.01 86.69 96.33 86.72 96.67 86.79 96.98 86.92 97.27 87.09 97.56 87.3 97.81 87.54 98.01 87.83 98.19 88.12 98.32 88.44 98.39 88.78 98.42 89.09 98.39 89.41 98.32 89.72 98.19 89.99 98.01 90.24 97.81 90.46 97.56 90.63 97.27 90.75 96.98 90.83 96.67 90.85 96.33 90.85 96.33" fill-rule="evenodd"/>
  <polygon points="91.59 102.81 91.58 102.49 91.49 102.17 91.37 101.87 91.2 101.59 90.98 101.35 90.73 101.13 90.46 100.95 90.15 100.84 89.83 100.75 89.52 100.74 89.18 100.75 88.86 100.84 88.57 100.95 88.28 101.13 88.04 101.35 87.83 101.59 87.66 101.87 87.53 102.17 87.46 102.49 87.43 102.81 87.46 103.14 87.53 103.46 87.66 103.75 87.83 104.04 88.04 104.29 88.28 104.49 88.57 104.67 88.86 104.79 89.18 104.87 89.52 104.9 89.83 104.87 90.15 104.79 90.46 104.67 90.73 104.49 90.98 104.29 91.2 104.04 91.37 103.75 91.49 103.46 91.58 103.14 91.59 102.81 91.59 102.81" fill-rule="evenodd"/>
  <polygon points="81.44 102.85 81.42 102.52 81.34 102.2 81.22 101.91 81.05 101.62 80.83 101.37 80.58 101.17 80.31 101 80 100.87 79.69 100.8 79.37 100.77 79.03 100.8 78.71 100.87 78.42 101 78.13 101.17 77.89 101.37 77.69 101.62 77.51 101.91 77.38 102.2 77.31 102.52 77.28 102.85 77.31 103.17 77.38 103.49 77.51 103.79 77.69 104.07 77.89 104.32 78.13 104.53 78.42 104.71 78.71 104.82 79.03 104.91 79.37 104.92 79.69 104.91 80 104.82 80.31 104.71 80.58 104.53 80.83 104.32 81.05 104.07 81.22 103.79 81.34 103.49 81.42 103.17 81.44 102.85 81.44 102.85" fill-rule="evenodd"/>
  <polygon points="82.14 96.36 82.11 96.04 82.03 95.72 81.9 95.42 81.74 95.14 81.53 94.9 81.28 94.68 81 94.51 80.7 94.39 80.38 94.32 80.06 94.29 79.73 94.32 79.41 94.39 79.11 94.51 78.83 94.68 78.58 94.9 78.37 95.14 78.21 95.42 78.08 95.72 78 96.04 77.97 96.36 78 96.69 78.08 97.01 78.21 97.32 78.37 97.59 78.58 97.84 78.83 98.04 79.11 98.22 79.41 98.35 79.73 98.42 80.06 98.45 80.38 98.42 80.7 98.35 81 98.22 81.28 98.04 81.53 97.84 81.74 97.59 81.9 97.32 82.03 97.01 82.11 96.69 82.14 96.36 82.14 96.36" fill-rule="evenodd"/>
  <polygon points="82.83 89.88 82.8 89.55 82.73 89.25 82.6 88.94 82.43 88.67 82.22 88.41 81.98 88.2 81.7 88.03 81.4 87.9 81.08 87.83 80.74 87.8 80.42 87.83 80.11 87.9 79.8 88.03 79.53 88.2 79.28 88.41 79.06 88.67 78.9 88.94 78.77 89.25 78.7 89.55 78.67 89.88 78.7 90.2 78.77 90.52 78.9 90.83 79.06 91.1 79.28 91.35 79.53 91.56 79.8 91.74 80.11 91.87 80.42 91.94 80.74 91.97 81.08 91.94 81.4 91.87 81.7 91.74 81.98 91.56 82.22 91.35 82.43 91.1 82.6 90.83 82.73 90.52 82.8 90.2 82.83 89.88 82.83 89.88" fill-rule="evenodd"/>
  <polygon points="83.53 83.41 83.5 83.07 83.43 82.75 83.3 82.45 83.12 82.17 82.92 81.93 82.67 81.71 82.38 81.55 82.09 81.42 81.77 81.35 81.44 81.32 81.12 81.35 80.8 81.42 80.5 81.55 80.22 81.71 79.98 81.93 79.76 82.17 79.58 82.45 79.47 82.75 79.38 83.07 79.37 83.41 79.38 83.73 79.47 84.04 79.58 84.35 79.76 84.62 79.98 84.87 80.22 85.09 80.5 85.25 80.8 85.38 81.12 85.45 81.44 85.48 81.77 85.45 82.09 85.38 82.38 85.25 82.67 85.09 82.92 84.87 83.12 84.62 83.3 84.35 83.43 84.04 83.5 83.73 83.53 83.41 83.53 83.41" fill-rule="evenodd"/>
  <polygon points="77.8 82.15 77.79 81.81 77.7 81.49 77.58 81.2 77.41 80.92 77.19 80.67 76.94 80.47 76.67 80.29 76.36 80.16 76.05 80.09 75.73 80.06 75.39 80.09 75.08 80.16 74.78 80.29 74.5 80.47 74.25 80.67 74.05 80.92 73.87 81.2 73.74 81.49 73.67 81.81 73.64 82.15 73.67 82.47 73.74 82.78 73.87 83.09 74.05 83.36 74.25 83.61 74.5 83.83 74.78 84 75.08 84.12 75.39 84.2 75.73 84.22 76.05 84.2 76.36 84.12 76.67 84 76.94 83.83 77.19 83.61 77.41 83.36 77.58 83.09 77.7 82.78 77.79 82.47 77.8 82.15 77.8 82.15" fill-rule="evenodd"/>
  <polygon points="75.71 88.32 75.68 87.99 75.61 87.68 75.48 87.38 75.32 87.1 75.1 86.84 74.86 86.64 74.58 86.46 74.28 86.33 73.96 86.26 73.64 86.23 73.31 86.26 72.99 86.33 72.68 86.46 72.41 86.64 72.16 86.84 71.94 87.1 71.78 87.38 71.65 87.68 71.58 87.99 71.55 88.32 71.58 88.64 71.65 88.96 71.78 89.26 71.94 89.54 72.16 89.78 72.41 90 72.68 90.17 72.99 90.3 73.31 90.38 73.64 90.41 73.96 90.38 74.28 90.3 74.58 90.17 74.86 90 75.1 89.78 75.32 89.54 75.48 89.26 75.61 88.96 75.68 88.64 75.71 88.32 75.71 88.32" fill-rule="evenodd"/>
  <polygon points="73.63 94.49 73.6 94.17 73.52 93.85 73.39 93.55 73.22 93.27 73.02 93.03 72.77 92.81 72.49 92.64 72.19 92.52 71.87 92.43 71.54 92.42 71.22 92.43 70.9 92.52 70.59 92.64 70.32 92.81 70.07 93.03 69.86 93.27 69.7 93.55 69.56 93.85 69.49 94.17 69.46 94.49 69.49 94.83 69.56 95.13 69.7 95.43 69.86 95.72 70.07 95.97 70.32 96.17 70.59 96.35 70.9 96.48 71.22 96.55 71.54 96.58 71.87 96.55 72.19 96.48 72.49 96.35 72.77 96.17 73.02 95.97 73.22 95.72 73.39 95.43 73.52 95.13 73.6 94.83 73.63 94.49 73.63 94.49" fill-rule="evenodd"/>
  <polygon points="71.54 100.67 71.51 100.35 71.44 100.03 71.31 99.72 71.13 99.45 70.93 99.2 70.67 98.98 70.39 98.81 70.09 98.69 69.78 98.61 69.45 98.59 69.13 98.61 68.81 98.69 68.51 98.81 68.23 98.98 67.98 99.2 67.77 99.45 67.59 99.72 67.48 100.03 67.39 100.35 67.38 100.67 67.39 101 67.48 101.32 67.59 101.61 67.77 101.9 67.98 102.14 68.23 102.35 68.51 102.52 68.81 102.65 69.13 102.72 69.45 102.75 69.78 102.72 70.09 102.65 70.39 102.52 70.67 102.35 70.93 102.14 71.13 101.9 71.31 101.61 71.44 101.32 71.51 101 71.54 100.67 71.54 100.67" fill-rule="evenodd"/>
  <polygon points="69.44 106.84 69.42 106.52 69.33 106.2 69.22 105.9 69.04 105.62 68.83 105.37 68.58 105.16 68.3 104.98 68 104.87 67.68 104.79 67.36 104.77 67.03 104.79 66.72 104.87 66.42 104.98 66.14 105.16 65.88 105.37 65.68 105.62 65.51 105.9 65.38 106.2 65.3 106.52 65.27 106.84 65.3 107.17 65.38 107.49 65.51 107.79 65.68 108.07 65.88 108.32 66.14 108.53 66.42 108.69 66.72 108.82 67.03 108.89 67.36 108.92 67.68 108.89 68 108.82 68.3 108.69 68.58 108.53 68.83 108.32 69.04 108.07 69.22 107.79 69.33 107.49 69.42 107.17 69.44 106.84 69.44 106.84" fill-rule="evenodd"/>
  <polygon points="80.76 109.33 80.73 109.01 80.64 108.69 80.53 108.39 80.35 108.11 80.14 107.87 79.89 107.65 79.61 107.47 79.31 107.36 78.99 107.27 78.67 107.26 78.35 107.27 78.03 107.36 77.73 107.47 77.45 107.65 77.21 107.87 76.99 108.11 76.81 108.39 76.7 108.69 76.61 109.01 76.58 109.33 76.61 109.66 76.7 109.97 76.81 110.27 76.99 110.55 77.21 110.81 77.45 111.01 77.73 111.19 78.03 111.31 78.35 111.39 78.67 111.42 78.99 111.39 79.31 111.31 79.61 111.19 79.89 111.01 80.14 110.81 80.35 110.55 80.53 110.27 80.64 109.97 80.73 109.66 80.76 109.33 80.76 109.33" fill-rule="evenodd"/>
  <polygon points="67.35 113.03 67.32 112.69 67.25 112.37 67.13 112.07 66.96 111.79 66.74 111.55 66.49 111.33 66.22 111.17 65.91 111.04 65.59 110.97 65.27 110.94 64.94 110.97 64.62 111.04 64.33 111.17 64.04 111.33 63.8 111.55 63.59 111.79 63.42 112.07 63.29 112.37 63.22 112.69 63.19 113.03 63.22 113.34 63.29 113.66 63.42 113.97 63.59 114.24 63.8 114.49 64.04 114.71 64.33 114.88 64.62 115 64.94 115.07 65.27 115.1 65.59 115.07 65.91 115 66.22 114.88 66.49 114.71 66.74 114.49 66.96 114.24 67.13 113.97 67.25 113.66 67.32 113.34 67.35 113.03 67.35 113.03" fill-rule="evenodd"/>
  <polygon points="65.26 119.2 65.23 118.86 65.16 118.55 65.03 118.26 64.87 117.97 64.65 117.72 64.4 117.52 64.13 117.34 63.82 117.21 63.51 117.14 63.17 117.11 62.85 117.14 62.53 117.21 62.23 117.34 61.95 117.52 61.71 117.72 61.49 117.97 61.33 118.26 61.2 118.55 61.13 118.86 61.1 119.2 61.13 119.52 61.2 119.83 61.33 120.14 61.49 120.42 61.71 120.66 61.95 120.88 62.23 121.05 62.53 121.17 62.85 121.25 63.17 121.27 63.51 121.25 63.82 121.17 64.13 121.05 64.4 120.88 64.65 120.66 64.87 120.42 65.03 120.14 65.16 119.83 65.23 119.52 65.26 119.2 65.26 119.2" fill-rule="evenodd"/>
  <polygon points="63.17 125.37 63.14 125.04 63.07 124.73 62.94 124.43 62.77 124.15 62.56 123.89 62.32 123.69 62.03 123.52 61.74 123.39 61.42 123.31 61.08 123.28 60.77 123.31 60.45 123.39 60.14 123.52 59.87 123.69 59.62 123.89 59.4 124.15 59.23 124.43 59.11 124.73 59.02 125.04 59.01 125.37 59.02 125.69 59.11 126.01 59.23 126.31 59.4 126.59 59.62 126.83 59.87 127.05 60.14 127.22 60.45 127.34 60.77 127.43 61.08 127.44 61.42 127.43 61.74 127.34 62.03 127.22 62.32 127.05 62.56 126.83 62.77 126.59 62.94 126.31 63.07 126.01 63.14 125.69 63.17 125.37 63.17 125.37" fill-rule="evenodd"/>
  <polygon points="61.08 131.54 61.05 131.22 60.97 130.91 60.85 130.6 60.68 130.33 60.46 130.08 60.21 129.86 59.94 129.69 59.63 129.57 59.31 129.49 59 129.46 58.68 129.49 58.36 129.57 58.05 129.69 57.78 129.86 57.53 130.08 57.31 130.33 57.14 130.6 57.02 130.91 56.94 131.22 56.92 131.54 56.94 131.88 57.02 132.18 57.14 132.49 57.31 132.76 57.53 133.02 57.78 133.22 58.05 133.4 58.36 133.53 58.68 133.6 59 133.63 59.31 133.6 59.63 133.53 59.94 133.4 60.21 133.22 60.46 133.02 60.68 132.76 60.85 132.49 60.97 132.18 61.05 131.88 61.08 131.54 61.08 131.54" fill-rule="evenodd"/>
  <polygon points="58.98 137.72 58.97 137.4 58.88 137.08 58.76 136.78 58.59 136.5 58.37 136.25 58.13 136.04 57.85 135.86 57.55 135.75 57.23 135.66 56.91 135.64 56.57 135.66 56.26 135.75 55.97 135.86 55.67 136.04 55.43 136.25 55.23 136.5 55.05 136.78 54.92 137.08 54.85 137.4 54.82 137.72 54.85 138.05 54.92 138.37 55.05 138.66 55.23 138.95 55.43 139.19 55.67 139.4 55.97 139.57 56.26 139.7 56.57 139.77 56.91 139.8 57.23 139.77 57.55 139.7 57.85 139.57 58.13 139.4 58.37 139.19 58.59 138.95 58.76 138.66 58.88 138.37 58.97 138.05 58.98 137.72 58.98 137.72" fill-rule="evenodd"/>
  <polygon points="92.49 64.81 130.46 64.81 130.46 60.13 92.49 60.13 91.86 60.16 91.26 60.24 90.66 60.38 90.08 60.57 89.53 60.83 88.99 61.12 88.49 61.47 88.01 61.86 87.57 62.29 87.2 62.76 86.85 63.27 86.54 63.8 86.3 64.37 86.11 64.95 85.96 65.54 85.88 66.15 85.85 66.76 85.85 72.05 79.87 72.05 79.87 60.4 79.89 59.74 79.98 59.11 80.12 58.47 80.31 57.86 80.56 57.25 80.86 56.69 81.21 56.14 81.6 55.63 82.03 55.15 82.51 54.72 83.03 54.33 83.57 53.98 84.15 53.67 84.75 53.43 85.35 53.22 85.99 53.09 86.63 53.01 87.28 52.98 130.46 52.98 130.46 48.3 104.45 48.3 104.45 41.27 112.51 41.27 112.51 36.33 91.7 36.33 91.7 41.27 99.77 41.27 99.77 48.3 87.28 48.3 86.48 48.33 85.7 48.4 84.92 48.53 84.15 48.7 83.4 48.93 82.66 49.21 81.93 49.54 81.24 49.92 80.56 50.34 79.92 50.79 79.31 51.3 78.73 51.83 78.19 52.41 77.69 53.02 77.22 53.67 76.8 54.34 76.44 55.03 76.1 55.76 75.83 56.5 75.6 57.27 75.42 58.03 75.29 58.82 75.21 59.6 75.19 60.4 75.19 76.73 90.53 76.73 90.53 66.76 90.56 66.45 90.63 66.16 90.75 65.87 90.91 65.61 91.1 65.38 91.33 65.18 91.59 65.02 91.88 64.9 92.17 64.83 92.49 64.81 92.49 64.81" fill-rule="evenodd"/>
  <path d="M344.81,476H249.43l1.46,1.23,1.49,1.2,1.52,1.16,1.57,1.12,1.58,1.07,1.61,1,1.64,1h73.61l1.64-1,1.61-1,1.59-1.07,1.55-1.12,1.52-1.16,1.51-1.2,1.46-1.23Zm-56.5-31.76.52-.51.57-.48.58-.42.62-.41.64-.35.67-.3v-.15l-.13-.06v-.2l.1,0,0-.17.22,0,0-.32.1-.1.75,0v-.2l.26,0v.07l-.13.06v.16l.13,0v.29l.32,0v.06l.77-.17V441l-.1-.06,0-.3H294v-.2l-.13,0v-.62l.13-.06v-.19h.42l0,.19.1,0,0,.1h.19v.19l.14.07v.29h.19l0,.57,1.1-.06v-.15l.13,0,0-.2h.12l0-.29.13,0,0-.1-.1-.16h-.23v.1l-.09,0,0,.22h-.52v-.26h-.29l0-.49.16,0,.07-.07.09,0v-.2h.19l.06-.1h.59l.16.1v.7l.07.16H297l0-.17.19,0v.17l.23.06v.1h.32v.22l-.19,0,0,.3-.1.06V441l.9.14.88.22v-.13l.1,0v-.35h.07l.06-.12.49,0,.09.1h.52l0,.52h-.32l0,.28.88.39.07-.07,0-.19h.35l0-.1h.28v.42l.22,0,0,.2h-.22l0,.12.9.61,0-.22v-.55l.13-.1h.14l.09-.13.07-.06v-.17h.1V442l.19.16.49,0,0,.84h-.2l0,.33h-.33l-.13.09.58.52.55.55.51.61.46.62.4.67.38.7.32.71.26.74.22.75.16.77.1.78,0,.78h.58v-.23h.23v.26h.44v.54h-.29l-.13.16,0,.16-.72,0-.06-.1-.06.67-.09.65.12-.06h.94v-.32l.32,0v-.2h.32l.06.23.41,0,.06.12h.13l0,.23h.06l.1.13h.48v.1H310l0,.65h-.38l0,.13-.13,0,0-.1h-.39l0-.2h-.28l0-.16h-.39l0,.59h.26l-.07.42h-.16v.3l-.16,0v.45h-.13l0,.2h-.07V456h-.29l0,.23h-.3l0-.72.13-.1v-.38h.23v-.2l.32,0v-.2h-.9l-.23.83-.3.8-.36.77-.42.75-.46.71-.54.67v.12h.29l.06.29h.44l0-.42h.13v-.2h.22l0-.3h.32l0,.17h.13l0,.13h.16l0,.88-.25,0v.45h-.67l0-.42h-.44v.29l-.16.13h-.83l0-.1h-.23l-.09-.07-.58.51-.62.46v.33h.13l0,.16-.07.06-.06.17h-.26l0,.12h-.13l0-.12h-.16v.13h-.16v.39l.07.06h.44l0,.2H302l0,.55h-.1l0,.33h-.41v-.14l-.16-.19h-.49v-.19h-.13v-.35h-.22v-.23h.29l.07-.13.77,0v-.33h-.26l-.06-.09-.7.32-.7.28v.26H300l0,.26h-.13v.29h.33v.23h-.29l0,.12h-.17l-.06.1h-.28l0,.23-.06-.2h0l-.06-.16h-.16l0-.87-.62.14,0,.1h-.17v.3l.2,0v.19H297v-.17l-.14-.16h-.16V463h-.88L295,463l-.88-.14V463l.09,0v.23h.22l.1.1,0,.22-.13.1h-.23v.2l-.12.13h-.28l0,.22-.13,0V464l-.13-.06,0-.07h-.16v-.23l-.06,0-.06-.48h.12V463h.23v-.13l.33.06v-.16l-.73-.17-.7-.23v.19h.2l0,.32h-.17l-.06.23h-.1v.46h.3l.26.25V464l.19.06v.19h-.2v.33h-.19l-.07.1h-1.07l0-.13h-.26l0-.72h.25v-.1l.13,0-.06-.55-.07,0v-.2l-.22,0,0-.49h.25v-.1h.13v-.16l.06-.06-.75-.36-.71-.43-.68-.48-.64-.54-.61-.58-.55-.62-.51-.67H287v.25h.2V459H287v.32l-.16.16h-.49l-.06-.13-.16,0,0-1.14h.26V458h.51l-.38-.65-.35-.68-.29-.71-.25-.72-.2-.74-.14-.74-.09-.75,0-.77v-.77l.06-.75h-.58l0-.13h-.23l0-.32h-.13l0-.35h-.19v-.36h.23v-.2l.26,0,0,.13h.19l.1.07,0,.23h.2l0,.12h.07v.62h0l.13-.74.19-.74.23-.72.28-.71.33-.68.38-.65.42-.64.46-.59v-.13l-.35,0v-.32h-.17l-.13-.1v-.49l.1-.06v-.33h-.32l-.07-.1h-.26l0-.33h-.26l-.07-.39.26,0v-.29h.26l0-.23h.42l.06-.22h.15l.06.2.29,0v.07h.2l.13.13v.16l-.07.07,0,.52h-.32v.22l.12,0v.2h.3l0,.36h.16l.12.39Zm-7.13-4.71.73-.83.78-.78.29,0v.2l.09.13h.2l0,.17.16.06,0,.86h.16v.22l.17.13.2,0v.2l.61,0,0-.2h.22v-.45H285l.07.1h.2v.35l.12,0v.54h.13l.23.13,0,.16.16,0,.17.17V441h.55v-.2h.32v-.39l.1-.07,0-.06-.12-.07V440l.13-.06v-.15l-.13-.12v-.2l-.22-.06v-.3h-.13v-.19l-.17,0v-.19l-.12-.06v-.17H286l-.06-.1-.13,0,0-.32h.49l.06-.13h.17l.06-.2.07,0V437l-.72,0-.07.1h-.16l0,.32-.1,0v.17l.1.09,0,.59-.29,0v.33h-.12v.45l-.36,0-.07-.22h-.16l-.06-.26h-.07l-.06-.17-.26,0,0-.13h-.33l0-.55-.19,0v-.7l.74-.59.36.07,0,.14h.17v.22l.65-.06,0-.2h.17l.16-.13v-.49l-.13,0v-.42h.35v.1h.22v.23h.42v.12h.3v.23l.46,0v-.2l.36,0,0-.19h-.16l0-.33-.13-.13-.19,0,0-.26-.07-.06,0-.23.1,0,0-.19.41-.2.29.07,0,.12h.62l0,.23.19,0v-.29l.09-.07,0-.16.29,0,0-.43h.52l0,.14h.23l-.13-.1,0-.26h.28l.12-.13v-.13l1-.27v.67h-.19l0,.62-.15,0v1.3l.65,0,0-.13H292l.1.13.06.83.1.13.2,0v.22l.32,0,0-.22h.3l.13-.13v-.3l.2,0V436h-.19v-.2l-.1,0v-.3h-.42l-.07-.09h-.09l-.13.1v.22h-.23l-.07-.16v-.52l.23,0v-.52h.07l0-.36h.19l0-.62h.22v.32h.86v-.23h-.2v-.3h.13l0-.06h-.17v-.39h.29v-.23l.3,0,0,.23.16,0,0,.07.2,0v.22h1.2v-.7h1.1l1.1.07,1.09.13,1.09.19,1.09.25-.1.12h-.19V434h.55l0-.23h.3l.1-.13,0-.17h.22l0-.06.36.12v.14l-.1,0,0,.94h.09l0,.23.13.1h.19l0,.23h.2l0-.3.1,0V434h.22v-.06l-.19,0,0-.16,1.28.55-.07.09h-.25v.14l-.19,0v.06h.16V435h-.22l-.1.13v.06l.1.06,0,.36-.1.1v.1l.13.06v.17l-.16.09v.17l.1,0v.2h.22v.12h.3l.06.23h.16l0-.23h.42v-.45h.22V436h.12l0-1.17h.12l1.22.72v.12l-.14.14-.19,0V436l-.33,0v.3h.2v.29l-.19,0v0h.2v.09h.33v.42l-.2,0v.19h.29v.2l.17,0,.06.29.13.14h.29l0,.19h.1l.09.1,0-.42.2,0v-.43h-.2l0-.35-.13-.1-.16,0v-.3l-.13,0v-.42h.1V436h.19l.8.59.77.62.73.67.71.71.65.74.63.77-.15,0v.42h-.1l0,.33-.2,0v.29l-.13,0v.29l-.22,0V442l-.1,0,0,1.52h.13l0,.2h.22l0-.33h.3l.06-.55h.2l.09-.1v-.22l.19,0,0-.33h.1l0-.45h.18l0-.72,0,0,.54.84.49.86.44.87v.09l-.18.2h-.23l0,.16-.19,0v0l.16,0v.39h-.2l-.12.13v.06l.12,0v.36l-.1.12v.1l.13,0v.19l-.16.07v.19l.12,0v.2h.2v.1h.32l0,.25h.16l.06-.25h.41v-.43h.22v-.23h0l.28.84.25.86.19.85-.09.09-.18,0v.17l-.35,0v.32h.22V449h-.19l0,.06h.22v.07h.33v.42l-.2.06v.17h.28V450l.19,0,.06.28.07.1.06,1.13h0l0,.19-.13.14h-.17v.74h.35l-.07,1.12h-.71l0-.22h-.16l-.06-.1h-.21l-.13.13v.2h-.23l-.06.12h-.23v.19h.22v.36h-.26v.49H314v-.17h.36l0,.17h.32l0-.2h.19l0-.39.07-.06,0-.17h.59l-.13,1-.17,1-.23,1-.28.94v-.26h-.26l-.09-.23h-.14l0,.33h-.1l0,.35h-.22v.49h.25V459l.1.13h.13l-.32.77-.17,0h-.33l0-.33h-.17v-.22h-.29l-.06-.1h-.39l-.1.13h-.23l0,.19-.2,0,0,.28-.1,0V460l.07.07,0,.39.2,0v.42l.35,0v.2h.55l0,.42-.13.13-.22,0v.17l-.1.06-.07.3h-.19l-.1.13,0,.32-.17.06-.19.28h-.32l0-.26h.22l-.06-.71-.13,0-.06-.3-.28,0-.06-.32h-.3l0-.3-.1-.13h-.26l-.06-.32H310l-.06-.23-.3,0v-.07h-.22l-.07-.1-.06-.38h.38l-.06-.61-.07,0,0-.2-.19,0,0-.13-.38,0,0,.1-.32,0V460h.58l.18.23,0,.83.13.06,0,.26h.26l.06.13.2,0,0,.33.1,0v.19h.23v.3l.13.1h.26l.06.35.17,0v.16l.13.1.19,0,0,.16.16.1,0,.26-.1.07,0,.29-.22,0-.07.23-.2.1,0,.29-1.1,0v-.13l-.13,0v-.17h-.61l0,.22h-.16l-.16.13v.2l-.2,0v.26h.52v.17l.9,0,0,.29v.26l-.41.38-.68,0-.07.22h-.1v.52l-.61.46v-.06l-.1-.13-.1.06-.1.1v.2l-.32,0,0,.19-.2,0v.19l-.48.32-.83,0-.07.2-.1,0v.38l-.61.3-.16,0-.33-.06,0-.29-.06,0,0-.17h-.17l-.06-.1H304l-.07.1h-.19l-.07-.1h-.09v.07l-.28,0,0,.17-.09,0v.32l-.23,0,0,.19h.25l0,.2-.16,0-.07.19-.12.16h-.51v-.78l-.23,0v-.22h-.33v.25h-.19l-.13.13,0,.17H301l-.09-.2h-.2l-.19-.19v-.16h-.16l-.13-.15,0-.16h-.19l-.16-.19,0-.16h-.49l0-.1-.09,0v-.16l-.14-.13H299l-.13.13,0,.72.16.13h.17l0,.32.09,0v.23h.13v.3h.15l.19.16v.16l.2,0v.2l.32.1v.19l-.19,0L300,471v.16l-.49.09-.28-.06,0-.2H299v.23h-.83l-.09-.35h-.18v-.32l-.94,0v.17h-.55v.13l.22.06V471h.26l0,.2-.17,0,0,.22h-.84l-.86,0-.86-.07,0-.15-.1-.1h-.22v-.32l.23,0v-.33h-.2v-.36l-.13-.12h-.52l-.06.13-.14,0,0,.16h-.23v0l.1.07,0,.35-.13,0v.33l-.48-.1v-.23l-1-.13,0-.36.13,0,0-.1-.1-.07,0-.78h.13l0-.13.13,0v-.22l.13,0v-.78h.3l.09.45.1.06v.17h.1l0-.23H293l0,.46-.13.06v.16l.13,0v.19h1.09v-.22h.16l0-.3-.1,0,0-.2h-.19l0-.13h-.29v.16h-.42l0-.58h.1v-.68h.23v-.52h-.23v-.75l-.3,0v-.2l-.09-.06,0-.3h-.07l0,.23h-.29v-.2h-.23v.28l-.42,0,0-.3-.07-.12h-.55l0-.2h-.32l0-.78-.13,0v-.29h-1l-.16.13,0,.46-.16.09,0,.28.1.06,0,.16h.2l.12.13.1.07v.13h.33l0,.19-.1.07v.19h.1l0,.19h1.2v-.32l.43,0,0,.45-.13,0,0,.41.16.12v.14l-.1.09v.46l-.29,0-.1-.16-.46,0-.12.1-.25,0,0,.19h-.1l0,1.27.46,0,0,.33-.28.06V470l-.13.12v.2l-.22,0-.07.15-1-.36-1-.39,0-.52h.28l0-.3h.13v-.68H289l.06.13h.17l.06-.13.83,0,0-.33h.19l0-.52-.32,0v-.35h-.19l0-.1H289v.35h-.22l0,.84-.17,0-.06-.48h-.49l0,.13-.19,0v.19l-.1,0v1.09l-.62,0-.83-.46.06-.46.23,0,0-.19.09,0,0-.32H287l.07-.1h.26l0-.23.32,0-.13-.09v-.13h.13l0-.85H288l.06.19.13.13h.75l0-.9h-.14l-.16-.14v-.29h-.23v-.2h-.19l-.26-.19v-.26h-.2v-.23h-.23l-.09-.1H287v-.29l-.13-.06v-.2h-.26l-.06-.13h-.1l-.13.16v.2l-.39,0-.06-.3h-.25l-.06-.13h-1v.61l.3,0,0,.32h.83l.06-.19.1,0,0-.1h.19v.3h.13l.12.13.07.06v.17h.2v.32l.12,0v.28l.33,0,0,.32.26,0,0,.1h.19l.06.3-.35,0,0,.13h-.49v.23h-.46l0,.29h-.29l0,.35h-.28l-.19.22h-.17v.17l-.12.06v.07l-.36,0-.87-.67-.83-.7-.8-.75-.74-.78,0-.45h.13V464h.2l0-.62h-.19l0-.16h-.06l0-.33h-.22v-.2h-.2v.19l-.13,0v.1H281v.52l-.46,0-.81-1.19.1-.2.59,0,.1-.1,0-.23.2,0,0-.55h-.17l0-.68-.13-.07H280l-.13.13v.17l-.2,0v.75l-.38,0-.41-.77.07-.12,0-.39h.31v-.19h.13v-.12h-.12v-.26l.13-.06v-.17h-.64v.17l-.16.06h-.25l-.38-.93-.33-.94-.28-1-.25-1-.17-1h.29l0,.22h.13l.06.13h.62l0-.13h.64v.42l.12,0v.32h.17l0,.23.1,0v.27h-.42l-.07-.1h-.45l-.13.16v.49h.32v.23l.13.12.19,0v-.1H279v-.54l.1,0,.09-.1h.41l.09.12h.83v-.32l.26,0,0-.13h-.23l0-.49-.1-.07,0-.1.13-.06v-.23h-.32v-.23l-.13,0v-.26l-.28,0,0-.1h-.2l0-.22h-.19l0-.13h-.17l-.06.13h-.17v.22h-.45v-.22l-.16-.13h-.17l0-.23-.62,0v.2h-.22v.35l-.19,0,0-.35h-.16l-.1-1,0-1.07h.17l0,.52h.46l.09.12.2,0,0-.1H278v-.13h-.19v-.33h-.13l0-.29h-.23l0-.13h-.29l-.07.1h-.23l0-.29h-.1l0-1,.09-1,.13-1,.19-1h.29l0,.57.12,0v.32h.2l.06.1h.41l.19-.13v-.26l.19,0v-.1h-.25l.06-.42-.13,0,0-.3h-.23v-.22l-.13,0v-.29l-.64,0,.26-.9.3-.88.33-.87.39-.84.42-.84h.23l.07-.16.16,0,0,.2.41,0,0,.29h.22l0-.2h.39v.23h.73l0-.22h.23l0,.19h.39l0-.19.2,0,0,.42-.1,0,0,.3-.17,0v.86l-.12,0V445h-.22v.52h-1v.38l-.13.07v.49h.85v-.13l.16-.17.29,0v-.62l.62,0,.07-.1.16,0,.06-.19h.07l0-.42.1,0v-.55h.19v-.23l.16-.19h.19v-.1l-.19,0,0-.91h.23v-.44h-.13l-.22-.25h-.28l-.12.13h-.14v.32l-.19.16h-.23l0-.35h-.42v-.13h-.32l0-.13h-.17v-.17l-.65,0-.06-.1-.26,0,0-.2-.09,0,0-.48.46-.65.41.06v.23h.2l.06.42h.42v.32h.39l.06-.39h.39l0,.3.13.13h.93l0-.33.19,0,0-.62-.22,0,0-.26-.13-.12h-.28l0-.2h-.29l0,.33h-.2l0,.25-.1,0,0,.42-.49,0v-.16l.13-.06v-.2l-.1,0,0-.16h-.13l-.07-.1h-.33v-.26l-.12-.07h-.23v-.23Zm30.62,4.75v-.74H312l.13-.14,0-.19h.33l0-.1h.29v.42h.2l0,.22h-.22V444l-.12.13h-.3l0,.25-.55,0ZM308,439.54l0-1,.13-.12h.2l0-.19.1-.13h.32v-.23h.39l0,.33.29,0,.06.22.1,0v.3l-.1,0,0,.2h-.22v.32l-.12.1-.15,0-.09.1Zm1.14,4.74v-.52H309l-.06-.13h-.16l0-.32h-.07l0-.59h-.17V442h-.12l0-.16h.1l0-.19h.14l.09-.16.1,0,0-.26-.1,0,.13-.07h.2v-.32l.12,0v-.2l.1,0v-.1l.52,0,0-.29L310,440l0-.42-.1,0v-.15l.1,0,0-.19h.17l.06-.33h.13l0,.32h.29v.22H311l0,.78-.17,0-.09.1-.1.22h-.06l0-.19h-.09l-.07-.16-.42,0,0,.45h.13v.13l.2,0v.59h-.19l0,.2-.1.13h0l-.09-.13-.16,0,0,.1h-.23v.74h.2l.13.1,0,.52.2,0v.43l.1,0v.36h.23v.39Zm3.07,3.2,0-.22-.52,0V447h.2v-.42l-.22,0,0-.16H312v-.13h.28l0-.19h.16l0,.36h-.1v.1h.32l0-.17h.19v.28h.26l0,.33h.25l0,.19.3,0,.06.19.23,0,0-.13h.16l0,.36H314l0,.29h.19l0,.55-.87,0v-.35h-.28V448H313v-.42h-.2l-.09,0,0-.26h-.17l0,.23Zm-2.62-1v-.35l-.19,0v-.61h.29l.06-.23h.36l0,.22h.45v-.22l0-.16h-.23l-.09-.1,0-.19.35,0,0-.26.23,0,0,.13H311V445l.23,0v.19h.29V445l.19,0v.22l-.19.1.1.16,0,.42,0,.39h-.3l-.12-.13v-.26l-.39.06,0,.23-.16,0-.17.19v.13l-.87,0ZM303.12,438l0-.19h.32v-.13h.16l0-.22h.42v.16h.22v.19h.2l0,.22h.25v-.12h.1v-.2l.45,0v.15l.1,0,.06.19h.26l0,.32H306v.16l.22,0,0,.14H306l0,.14.16,0v.16l.26,0,0,.19.19,0,0,.23.17,0,0-.22h.25l0-.13h.29v.35h.22v.23l.2.12v.2h-.14v.25h.19v.29h-.19l0,.29h-.19l0,.23h.22v.1h.13v-.13h.16v.38h-.26v.2l-.22,0v.39h-.39v.14l-.42,0,0,.2h-.32v.12H306l-.06.23h-.1l0-.19-.16-.13-.29,0,0-.65.13,0v-.58l.57,0,0-.39-.25,0,0-.09h-.16l0,.12h-.54v-.32l-.17,0,0-.22h.2v-.58h-.26l-.07.14h-.67v-.35h-.16l-.14-.1v-.86h.14v-.2h-.29l0,.07h-.19l0-.33ZM302,438v-.33h-.36v-.1l-.23,0v-.29l-.09,0,0-.16.1,0,0-.32-.07-.07v-.16l.1,0v-.2l-.1-.06V436l-.35,0,0,.25-.83,0,0-.54H300v-.28h.13v-.19l.28,0h.29V435h.17V435h.32V435h.32l0,.07.22,0,0,.23.29,0,0,.22h.28v.22h.12v-.13h.26V436l.19.06v.26l.14,0,0,.36h.19v.3h-.16v.32l-.06.35h-.14l-.06-.13h-.16l0,.42-.61,0Zm-3.77-2.39,0-.25H298l0-.1h-.36v-.19l-.22,0v-.19l-.13,0v-.23l-.22-.06v-.61H297l0-.58.12-.09V433h.32v-.29h.19l0,.26.19.09v.29h.49V433l-.2-.12v-.15h.41v1l.19,0,0-.42.2-.09.09.19h.2l.09.13h.42l0,.19H300l0,.13.42,0,0,.29.1.2h-.23v.25l.13,0-.06.26h-.26l0-.1-.29,0v-.17h-.91l0,.42-.13,0,0,.58-.54,0Zm-14.18,10.91v-.19l-.13-.1v-.29h-.2l-.19-.23h-.14v-.52l-.13,0v-.22h.33l0-.1.55,0v.29h.1v.13h.33V446h.2l0,.19.39,0v-.32h.42l.06-.1h.54l.12.1V446h.22v.26l-.23,0,0,.23h-.29l0,.1-.1.06v.16l-.16.13-.73-.06,0-.26-.13,0v-.23l-.38-.07v.23Zm-3.83-1.33-.1-.13-.16,0,0-.17-.27,0-.06-.26-.07-.07v-.32l-.12,0v-.29l.13-.07v-.26h.65v.32h.2l0,.42h.09l0,.23h.14l.06.32h-.23v.2l-.13.13-.16,0Zm8.13-2.13v-.51l.07-.07,0-.29-.13,0,.1-.09,0-.17H289l0,.23h.32l.13.07,0,.35h.2l0,.16h-.14l-.06.35h-.13l-.1.13H289l0-.13Zm-4,1.09v-.23l-.17-.19h-.13l0-.16-.1-.07v-.3l.13-.06v-.23l-.09,0,.06-.23.17,0,.16-.19,0-.13.32,0V442l-.09,0,0-.19-.2,0v-.19l.16,0,.16-.17v-.16H285l0-.1.61,0,0-.2h.13V441l.12.09v.28l-.1.06V442h-.16l-.1.13-.29,0v.13l-.29,0,0,.36h.17v.32h.1v.29h.25l0,.29h-.19v.32h.62l.13.12v.26h.32l0,.3.19,0,0,.52h-.16l-.14.13v.2h-1v-.2l-.17,0,0-.29h.23l0-.35-.17,0,0-.14.2,0,0-.1h.1v-.26l-.2-.09H285l0,.22-.1.1h-.12l0-.13h-.16l-.06.13-.1,0Zm4.33-3.09v-.49h.07l0-.13h.07l.09.12h1v.3h.43v.26h.68v.65l-.32,0-.1-.1h-.3l-.09.1h-.07l0-.1h-.86v-.2h-.22v-.35l-.44,0Zm-1-.64v-.32l-.19,0v-.59l.2,0v-.32h.13l0-.19,1,0v.16l.12.1v.58l-.07,0,0,.2h-.16l-.07.1-.1.06v.17h-.19l-.07.12Zm.42-2.17,0-.23h-.25l-.13-.1v-.32l-.23,0v-.29l-.06,0,0-.41.1-.13H288l.06.1.31,0,0,.3.23,0v.52l.1,0V438h.2v.06h-.17l-.06.19Zm1.46,1.2-.16-.16,0-.17h-.1v-.32l-.2,0v-.1l.2,0v-.29l.1,0v-.19h.09V438l.88,0v-.16l.13-.07v-.26l.16,0,.09-.1h.57l.1.1h.91l0,.22.65,0,.06.1h.26l0,.2h.29l.1.1,0,.19.2,0v.31l-.2,0-.07.1-.78,0-.06-.13h-.13l-.1.1h-.59l-.09-.1h-.49l0-.1-.29,0v-.19h-.3l-.1-.15h-.16l-.06,1.1-.43-.06-.09.16h-.14l0-.1h-.22v.13Zm-.46-1.9v-.74h.17l.13-.15,0-.19h.35v-.1h.29v.42h.2l0,.22h-.2l0,.17-.1.13h-.32v.25l-.55,0Zm.23-1.52-.07-.1-.16,0,0-.2-.29,0v-.17l.22,0v-.39l.17-.16h.1l.06-.17.1,0v.23l.32,0,0-.2H290v.17l.16.16.14,0v.55h-.2l-.06.49-.73,0Zm2.84,4.33v-.16L292,440h-.46l0-.8h.26l0-.1h.59l.06.12h.23l.06-.12.13.14,0,.29.2,0,0,.42h-.26l-.07.13h-.29l-.06.2-.2,0Zm2.12-4-.13-.16-.06-.29-.17,0v-.2h-.29v-.19l.2,0v-.42h-.33V435h-.22l0-.06.19,0v-.28h-.22v-.32l.35,0v-.17l.17,0,.16-.16v-.16l.75,0v.19l.12.06v.17l-.13.13h-.22v.35h-.1V435l.13,0v.32h.16l.13.12,0,.33h.2v.45l-.2,0,0,.42-.09-.12h-.1l0-.17Zm1.32-1.41-.07-.1-.06,0v-.23h-.32v-.19l.13-.16h.2v-.2h.12v-.35h.19l.06-.13h.17l.06.13h.42v.19l.1.06v.2l-.16.06,0,.26h-.19l0,.13h-.16l-.06.23h-.29l0,.1-.09,0Zm.55,1.74-.1-.13H296l-.06-.17,0,0,0-.32-.19,0v-.29l.25,0,0-.19.2-.14h.23l.06-.32.83,0v.29h.12V436l-.12,0v.22l-.2-.06-.07.13-.29,0v.23h-.32v.1Zm-1.64,2.07,0-1,.13-.1.22,0v-.19l.12-.13h.3l0-.23h.39l0,.35.28,0,.06.2.1,0V438h-.1l0,.22h-.2l0,.3-.1.12h-.16l-.07.12Zm3,0v-.2h-.3v-.23l-.23,0v-.46l.2,0v-.29l.19-.16h.17v-.3h.29l0,.1h.2v.13l.1.07.06.09h.16l0,.22h.16v.3l.23,0v.19h-.23v.13h-.1l0,.23h-.32v.2Zm3.1.26,0-.23-.32,0,0-.17-.3,0v-.2l-.32-.06,0-.29h-.17l-.13-.1v-.23l-.1,0,0-.32h-.19l0-.13h-.28l0-.25-.1-.06,0-.2h-.22v-.22h.35v-.3h.39l0,.17h.23v.35h.19l.06.13H300V437h.23l0,.13h.25v.29h.12l0,.35h.19l0,.2.07,0,.13.1h.23l0,.52.19,0,0,.32-.25,0v-.19H301l0,.19-.29,0Zm-2,1.41-.1-.13,0-.17-.22,0-.13-.13v-.19h.13v-.65h1v.43h.2V440h-.2v.3h-.22l0,.1Zm3.93-.75v-.23h-.17l-.16-.13v-.06l.13,0v-.42h.16l.07-.13h.07l.06.1.29,0v.32h.2l.13.12v.07l-.1,0v.3h-.13l-.07.13-.09-.13h-.17l-.09.12-.13-.09Zm-1.29,1.42-.07-.12h-.16l0-.55h-.28l0-.62H301l0-.35.23.12,0,.23h.26l.13.07,0,.22h.19l.14.13v.32h.22l0,.55Zm1.8,0L303,441h-.26v-.19l-.09,0v-.16l.28-.23v-.12h1l0,.16.19.19.26,0,0,.55Zm1.75,3.9v-.14l-.32-.19,0-.13h.2l0-.26h.07l0-.29.19,0,0-.28h-.32v-.2h-.23l-.1-.07v-.23h-.19l0-.52.22,0,0-.32h.21l0,.22h.23l.16.13.2,0,0,.17.18.16h.19v.29l.07,0,0,.13-.13,0,0,.39.29,0,0,.13h.22l0-.49h.1l0-.2h.16l.07-.09H307V443h.19l.07-.1.16,0v.32h.09v.12h.17l0,.49h-.2v.33h-.1l0,.2-.16,0-.16.19v.16h-.83v-.22h-.29v.19h-.26l-.06.1h-.33l0,.2Zm3.26,1.49,0-.2H308l0-.1-.29,0,0-.39-.1-.06,0-.07.13-.06,0-.39h.19V445h.32l0-.2-.17,0v-.52l-.09-.06,0-.17.16-.1h.48l.1.1h.13v.16l.13.1v.49l-.26,0-.1.1h-.19l-.06.32h.25l.07.1h.16l0,.2.13.06v.36l-.13,0,0,.32h-.19l0,.2-.3,0Zm-2.06.29v-.71l.1-.13h.32v-.3l.3,0,0-.1.19,0v.1l.09,0,0,.32h.17l0,.32-.19,0v.2l-.12.1h-.3l-.06.19Zm4.15,1.12-.06-.13H310v-.42l.16,0,.16-.15,0-.19h.17l.09-.1.62,0,.07,0,.16.06,0,.2.07,0v.26l-.13,0v.17h-.3l0,.13Zm-1.3.36V448l-.13-.06-.06-.13h-.16v-.49l-.09,0v-.17l.13-.13h.19v-.35h.23v.29l.2.16v.33h.22l0,.19.09,0v.67Zm-1.77.35-.06-.13H307l0-.19-.1,0v-.19l.1-.06.06-.36.29,0,0-.2h.51l0,.19h.19l.1.13v.88Zm6.18,4v-.42l-.22,0,0-.52h.2v-.3l.32,0v-.22h.13l0-.17-.1-.09-.06-.2-.28,0v-.26h-.25l0-.13h-.29v-.16l-.23-.19v-.33h-.19l0-.16-.33-.07v-.09h.23l0-.3-.42,0v.36l-.52,0-.09.13-.36,0,0,.25h-.1v-.22l-.41,0v-.64h.28l.06-.12.29,0,.1-.2h.2l.06.17h.29l.1.13H312l0-.43h.17v.13h.42l0,.2h.3l.06.09h.16l0,.16.2.16h.1l.06.36h.29l.13.1v.19l.23,0,.07.1,0,.33h.19l0,.52.1,0v.3h-.46v.68h.29l.18.1v.52h-.1l0,.22h-.2l0,.1-1,0Zm-3-1.43V451l-.13,0,0-.52.13-.1h.07l.12.1h.1l.07-.1h.19l0-.25.12-.1h.2l.07.13h.26v.19h.22v.33h-.22v.2l-.13.13h-.28l-.06.23Zm-1.23-.86,0-.13h-.19l0-.29-.16-.06v-.16l.13-.07,0-.39.3,0v-.29h.22l.07.1h.26l0,.42.1,0v.39l-.13.09v.26h-.16l-.07.14Zm-1.51.33-.16-.16,0-.16h-.17l0-.32-.07-.06v-.49l.1-.16,1.09,0,.06.88h-.2l0,.12h-.13v.2l-.19,0,0,.1ZM313,455l0-.23h-.19l-.13-.1-.06-.25h-.07l0-.93.1,0v-.2l.58,0v.2l.1,0,0,.26.17,0v0h-.2v.87h-.1l0,.32Zm-2.1-.23,0-1.51.1-.06v-.39l.2,0v-.29l.13,0v-.29l.22,0,0-.33h.12v-.42l.17,0,0-.23h.55v.55l.13,0v.55l-.13,0,0,.72h-.19l0,.45h-.1l0,.33h-.17l0,.2-.07.1h-.22l0,.55h-.32l0,.33H311l0-.2Zm-.84-1.3-.17-.13,0-.2h-.22l0-.78H309l0-.29-.07-.06,0-.28.13,0v-.35h.19l0-.17.42,0,0,.2h.17l.12.13,0,.32h.19v.1H310l0,.13-.13,0v.43h.68v.2l.13.06,0,.39h-.13v.32Zm-.78,3.39,0-.1-.39,0-.06-.16-.16,0,0-.19-.12-.06,0-.36.16-.16h.2l0-.19h.1l0-.1.83,0v.29l.22.17h.26v.32l.2,0v.1h-.2l0,.19H310l-.06.22h-.26l-.07.1Zm3.52.55v-.19l-.13-.06v-.28l-.1,0v-.19l.1,0v-.19h.1l.06-.33H313l0-.22h.29l0,.25.52,0,.13.16v.41h.19v.22H314V457l-.13.13h-.32l0,.23h-.2v-.22H313l-.06.19-.1,0Zm-1.54,1-.06-.23h-.3V458h-.22v-.2l-.1,0v-.17l.16-.09v-.17l-.13-.06v-.1l.1-.1,0-.36-.1-.06v-.06l.1-.13h.22v-.39h-.16V456l.19,0,0-.16h.25l.17-.2v-.13h.42l0,.19.07,0,.06.09h.17V456l.1.09,0,.07h.19v.13h-.23l0,1.17h-.1l0,.23h-.2v.45h-.42l0,.23Zm-2.32-.23-.09-.32-.07,0v-.16l.07,0,.09-.1h.2l0-.23.72,0,0,.17.22,0,.07.13,0,.52h-.62l0,.2-.06,0v-.2l-.6,0Zm-2.77.23v-.45h.13v-.29l.19-.06,0,0,.28,0,0-.2h.32l0-.13h.26V457h.09v.22h.17v.57h-.14l-.09.1-.07,0,0,.19h-.2v.12h-.32l-.06.2Zm4.5,1.64v-.2l-.09,0v-.52l.13,0V459H311l0-.13h.06l.1.09,0,.2h.23v.32h-.2l-.06.33h0l0,.23-.1,0v-.17h-.25V460l-.12,0Zm-3.16.45,0-.22h-.2l-.06-.22,0,0,0-.17.13,0,0-.17h.15l.09-.13h.49l0,.42.1,0,0,.17-.1.13h-.26l-.06.19-.2,0Zm1.88,3.72,0-.29h-.06l0-.25H309l0-.16-.07-.09,0-.36h.41l0-.13h.26l0-.23h.06v.23h.16l.06.1h.29v.22l.46,0v.1h.19v.52h-.22l0,.1h-.39v.23Zm-1.87-1.43-.06-.17h-.17l-.06-.1-.1,0v-.09l.2-.1,0-.56h.16l.16-.19v-.26l.2,0v.13h.32v.35h.23l0,.72h-.17l0,.13-.42,0,0,.22Zm-4-.65,0-.3-.1-.06,0-.3h-.19V461h.19l0-.1h.13v-.22h.52l0-.12h.22v.32h.1v.36h.2l0,.52h-.23l0,.13H304l0,.19Zm1.51,2.41v-1.28l.1,0,0-.19.17,0,0-.64h.1l0-.32.19,0v-.3h.1l.06-.32.17,0,0-.3.19-.19,0-.16h.22v.52h.23v.68h-.23v.32h.2l0,.22h-.3v.65h-.22l0,.2h.22v.13h-.19l-.29.32v.43h-.29l0,.35h-.29l-.06.13-.1,0-.1-.13Zm2.1.33v-.17H307l-.1-.13,0-.77h.12l.07-.22.83,0v.2h.22v.77h-.29l-.07.1h-.26l-.06.2Zm-3.73-.67,0-.22h-.3v-.7l.1,0v-.33h.32l0-.22h.78v.55h.29l0,.32h-.26v.26l-.1.17-.32,0,0,.22Zm1.64,3.77v-.2l-.2,0,0-.3-.1-.06v-.7l.13-.06v-.49h.16l.17-.19v-.46l.26,0,.06-.07.39,0,.06.13h.07v.17h.13l0,.48h.33l.06-.13.07,0v-.29h.25v-.2h.25l.13-.13,0-.19h.13v.15l.09.09,0,.28.28,0,.09.1h.17v.52h-.23v.35h-.1l0,.17-.55,0L307,467l-.06-.07-.07-.06,0-.2h-.19l-.07-.13-.2,0v1.09l-.32,0,0,.36Zm-2-1.42v-.25h-.45v-.49l.19-.17,0-.19.19,0,.06-.1.91,0,.07.13h.19v.22l.14.1.19,0v.13h-.23v.3l-.1,0,0,.32Zm-2-1.33V465h-.3l-.12-.1,0-.26h-.22l0-.59.62,0v-.17l.74,0V464l.35.06v.23l.1.07.07.13h.16v.19h-.19l0,.19-.1.15h-.52l0,.22Zm-3.49-.22,0-.1h-.19v-.16l-.13,0,.13-.09v-.27h.19l0-.35.42,0v-.2l.2,0,.06-.13h.19v.1l.13.06,0,.2h.23v.42h.1v.16h-.29l0,.07-.13,0v.2h-.19l-.06.1Zm5.87,3.09-.09-.1h-.17v-.23h-.35v-.22l.22,0,0-.17.3,0v-.2l.1-.12.12,0,.1.13,0,.23h.52l.1.07,0,.16h.22V468h-.62l-.06.1Zm-2,.68v-.32l-.13-.07v-.29l.13,0v-.42l-.12,0v-.71h-.2l0-.1.26-.06v-.36l.09,0,0-.2h.36l.09.2h.26l0,.39.1,0v.13l-.13,0,0,.81.07,0,.06.1.17,0V468l.2,0,0,.65-1.32,0Zm.54,1.32v.29h-.16l-.1.13-.35,0v-.2h.19l0-.23.41,0Zm-2.52-2.13v-.32h-.16l0-.29.15-.06,0-.52h.75V467h.33v.39l.1,0-.1.09v.28h-.17l0,.22-.1.1h-.12l0-.13h-.35l-.07.13-.06-.13Zm-2.87.46-.07-.13h-.26v-.52l.1,0,0-.19.83,0,.06.19h.52v.2h-.22l0,.33h-.38l-.06.12Zm.46,1.49v-.48h-.12l.06-.07.07-.06v-.13h.23v-.3h.3l0-.13h.29l0,.1h.26l0,.2.1,0v.55h-.13l0,.45-.29,0v.23l-.15,0v-.16h-.09l0-.14-.49,0Zm.32-2.74v-.26l-.13-.06,0-.2H297l0,.17-.1.13-.2,0,0,.22h-.42l0-.22h-.3l-.06-.13h-.16v-.29h-.17l-.06.13h-.26l0,.15-.32,0,0,.1-.62,0-.09-.13h-.44l-.06-.17-.07,0v-.42l-.22,0,0-.07.29,0v-.29l.16,0,.13-.13.91,0v.1h.22v.2h.1v.33l.2,0,.06.1h.42V466l.1-.07v-.29h.44v-.23l.12,0v.23l.42,0v.65h.22l.07.13h.13l.06-.16h.17v-.17l.1-.1h.22l0-.22h.22l.17-.2,0-.13h.2v-.33h.29l.16-.19,0-.16h.39l.07-.1.72,0v.09l.12,0v.1h-.13l0,.32h-.1l-.19.17v.16h-.2v.32l-.13.13h-.22v.17l-.23.25,0,.13H299l-.06.13-.32,0v.26l-.26-.06-.2.19v.13Zm-3.07-2v-.42h.2l0-.43h.07v-.25l.19,0,.07-.1.32,0v-.2l.1-.1.23,0,0-.29.48,0v-.07l.2,0,.07.1v.19l-.2.17V464h-.19l0,.55h-.29v.1l-.13,0,0,.2h-.14l-.09.13h-.29l0,.22-.49,0Zm.67,4.17,0-.36-.1-.06,0-.23h-.2v-.52h.2l.06-.1H295l0-.35h.19v-.16l.13-.15.07,0,.13.1v.2l.32,0v.19l-.09.1v1h-.29l0,.22h-.19l0,.1Zm-.44,1.67v-.29l.07-.06,0-.3h.17l0-.29.32,0,0-.23h.26l.07-.13.19,0V470l.12,0v.62l-.13.12-.22,0,0,.16-.93,0Zm-9.93-4.4v-1l.13,0v-.49h.39l0,.2h.32v.29l.13,0,0,.32-.13,0,0,.39h.1v.12l-.13.1h-.2l0,.23h-.52v-.19l-.1,0Zm4.89-3v-.42l-.13-.06v-.46l.13-.13v-.2l.26,0,.09-.1h.46l.13.1v.23l.19,0,.13.13,0,.52H291l0,.23h-.32l0,.09h-.17l-.06.13Zm-2-.48v-.49h.22v-.33h.12V462H288l.07.25h.26l0,.3h.19l0,.75h.1l0,.1-.13.13h-.22l0,.09-.1,0v.2H288v-.2h-.2l-.12-.13v-.35Zm1-1.12v-.72h.16l.13-.16,0-.16h.62l0,.23h.3l0,.42h.2v.13h-.19l0,.1-.3,0,0,.22-.39,0,0-.22-.3,0,0,.22-.19,0Zm-5.5,3.13,0-.22-.3,0,0-.43h-.1v-.06l.14-.14h.19v-.16l.23-.22v-.17l.84,0V464h.33v.3h.19v.19h-.19v.3l-.16.16-.49,0,0,.26Zm3.86-4v-.49l.2-.06v-.3l.13-.1h.36l.13.07v.26l.25,0v.32h-.3l0,.33.22,0v.2h-.13l-.19.15v.29h-.17l-.06-.1-.2,0v-.17H287v-.35Zm-2.77,2.16v-.3h-.32l0-.48-.17-.17h-.12v-.19h-1.07l-.13-.13,0-.22-.2,0,0-.28-.62,0-.13-.13,0-.49-.16-.06v-.16l.23,0,0-.26H281v-1l.23,0-.06-.3-.17,0V459l.17,0,.16-.16v-.16h.75v.2l.1,0v.42h.35v-.33h.32v-.1h.1v.3h.32v.22l-.13.07v.16l.46,0,0-.1.07-.06v-.19h.22l0-.1.94,0,.07.13h.19v.29l.07.06v.57l.13.09h.16l.07-.13.61,0,.17.17.19,0,0,.86-.2,0,0,.2h-.26l-.06.12h-.39l0-.12h-.19v-.29l-.1-.06,0-.8-.1-.06h-.33l0,.23h-1.17v-.2l-.2,0,0-.45h-.19l-.07.22-.19,0v.15l.23,0v.09l-.64-.06V460h-.35l0,.88.38,0v-.19l.62,0v.25h.12v.3l.19,0V462h.23l.06-.13H284l0-.32h.26l.09.12h.17V462h.1l0,.29H285l.06-.09h.2l0-.19.1-.1h1l0,.3h.3l.06.1.16,0v.2l-.19,0v.33l-.13.06,0,.19h-.49v.3H286v-.17l-.29,0v-.1l-.42,0,0-.22h-.15l-.13-.13-.06-.3h-.32v.65l-.12,0v.39h-.07l0-.12Zm0-4.58v-.23l-.19-.19h-.13l0-.19.17,0v-.52h.48l0-.23-.1,0-.06-.2-.17,0v-.32l-.15,0v-.14h.64l.06-.13h.19l.1.13h.68v.2h.2l.13.13v.16l-.13,0v.19h-.32v.13l-.68,0,0,.39.29,0v.52h-.2l0,.35-.1.1Zm-2.19-1v-.51l.13-.15h.17l0-.19.1-.06v-.28l.2,0,.06-.1.29,0,0-.29.17,0v-.1h.23l0-.2h.29l0,.2h.2l0,.23h-.2l0,.42-.13.13h-.13l0,.2h-.09l0,.32-.28,0-.13.16,0,.14-.32,0,0,.09h-.14v.22l-.09,0v-.2Zm-3.28,1-.16-.12v-.1l.16,0-.06-.16-.16-.09.06,0,.16-.13,1.22,0,.06-.55.1-.1.23,0v-.2h.3l.06-.12h.1V457h.1v.19h.68l-.06.29h-.17l0,.58-.29,0-.06.13h-.39l0,.2h-.1v-.2H280l-.07.17,0,.26h.2l0,.13h-.17l-.06.13-.07,0-.06.23h-.17l-.06-.13-.1,0-.09.13-.07,0-.13-.07v-.23l-.49,0Zm2.61-2.59v-1l.1-.13h.17l.06-.2h.62l0,.17h.26l0,.32.19,0v.33l-.19,0v.35l.13,0v0l-.12,0v.19h-.38l-.1.1h-.33l-.1-.13-.36,0Zm-1.65-2.16-.07-.13-.26,0v-.14l-.32,0-.13-.13v-.19l-.22,0,0-.41h.35l0-.22H279l.06.16.13.16h.64l.13.13h.25v.3h.55l0,.19.16.1.19,0V454h-.26l-.09.13h-.07l-.07-.13h-.12l-.07.1Zm4.41,1.54-.06-.23h-.2l-.1-.1v-.22h-.19l-.13-.13v-.17h-.17l-.13-.16,0-.16-.2-.13-.12,0v-.17l-.2-.16h-.13l0-.2h-.07v-.32l-.22,0,0-.39h.26v-.22h.3V453h.19l.2.23h.25v.33l.32,0v.2l.3,0,.13.1v.19h.22l.13.13,0,.33.23,0v.16l.22.13h.13v.22H285v.25h-.13l0,.3Zm-.33-2.55v-.94h.14l0,.23H284l0-.23.1,0v.2l.32,0v.45h.1V453h.22v.29h-.22l0,.33-.28,0,0,.13h-.16l-.16-.13v-.54Zm-2.64-.55V452l-.13,0v-.57l.1,0,0-.2h.16l0,.2h.2l0,.13h.29l0,.19h.12V452h.2v.49h-.19l0,.13h-.06l0,.19h-.07l0-.19-.3,0-.06-.1Zm.65-1.64,0-.23-.1,0,0-.91.3,0,0-.25h.36l.06-.1h.46l.16.09v.26h.22v.59l-.23,0v.55l.52-.06,0,.22h.1l0,.36h.2v.46h-.17l-.1.1-.64,0-.1-.1h-.16v-.32h-.1v-.19l.13,0,0-.46-1,0Zm-2.09,1.64V452h-.13l0-.13h-.16l0-.32h-.07l0-.59h-.19v-.74h-.1l0-.16h.12v-.19h.16l.09-.16.1,0,0-.26-.1,0,.13-.07h.2V449l.1,0v-.2l.1,0v-.1l.52,0,0-.29.13-.07,0-.42-.1,0v-.14l.1,0,0-.19h.19l0-.33h.13l.06.32h.29v.22h.3l.06.78-.19,0-.07.1-.1.22H281l0-.19h-.09l-.07-.16-.42,0,0,.45h.13V449l.2,0,0,.59h-.17l0,.2-.1.13h-.06l-.07-.13-.16,0-.06.1h-.23v.74h.22l.13.1v.52l.22,0v.43l.1,0v.36h.23l0,.39Zm2.35-4.75-.06-.23h-.3l0-.28-.2,0,0-.13h.17l.1-.19,0-.16h.16l.07-.13.1-.07v-.13h.22l0-.13h.56l0,.13h.29l0,.49.13,0v.19l-.13.13H283l0,.2-.1.1h-.33l0,.19Zm1.31,1.43h-.33l-.09-.1h-.13l0-.13-.14-.17h-.16v-.19h.2l0-.33h.07l0-.22h.13l.16-.13,0-.17.13-.12h.13l0,.12.17,0v.2h.13l.06.13H284l0-.29h-.17v-.7h.3v-.13h.39v.45h.35v.32h.1v.39h-.1v.33h-.29l-.06.13h0l-.13-.16v-.23l-.48.06,0,.42.16,0,0,.19-.1,0,0,.26h-.14l-.09-.13h-.2l-.13.13Zm-4.93,2.12-.29,0v.26h-.19l0-.33h-.3v-.32l-.19,0,0-1.19.49,0V450H278v.16h.33l0,1.14Zm.32-4.38-.16-.1v-.23l-.2,0v-.16l.17,0,.06-.1h.29V446l.12-.1h.3l0-.33h.07v.1h.42l.06.19.07,0,.06.09h.28v.86h-.65v.13Zm24.75,5,0-.62-.09-.62-.13-.61-.19-.59-.25-.58-.29-.55-.33-.52-.38-.49-.42-.46-.46-.42-.49-.38-.52-.35-.55-.28-.58-.25-.6-.19-.61-.13-.62-.09-.62,0-.62,0-.62.09-.61.13-.59.19-.57.25-.57.28-.52.35-.49.38-.46.42-.42.46-.38.49-.33.52-.29.55-.23.58-.19.59-.14.61-.07.62,0,.62,0,.62.07.62.14.61.19.59.23.57.29.56.33.52.38.49.42.46.46.42.49.38.52.33.57.29.57.25.59.19.61.13.62.09h1.25l.62-.09.61-.13.6-.19.58-.25.55-.29.52-.33.49-.38.46-.42.42-.46.38-.49.33-.52.29-.56.25-.57.19-.59.13-.61.09-.62,0-.62ZM288.8,429.11l1.1-.33,1.1-.28,1.13-.22,1.13-.17,1.13-.12,1.15-.06h1.15l1.15,0,1.14.12,1.13.15,1.12.22,1.12.26,1.1.32,1.09.38,1.06.42,1,.46,1,.52,1,.56,1,.61.94.67.9.7.87.75.83.78.8.83.76.86.71.9.67.93.62,1,.58,1,.54,1,.48,1,.44,1.06.38,1.09.33,1.09.28,1.12.22,1.13.17,1.13.12,1.13.06,1.14v1.14l0,1.15-.1,1.14-.16,1.13-.2,1.12-.28,1.12-.3,1.1-.38,1.09-.42,1.06-.46,1-.52,1-.57,1-.61,1-.67.94-.7.9-.74.87-.78.84-.83.78-.87.77-.88.71-.93.67-1,.62-1,.58-1,.54-1,.48-1.06.43-1.07.38-1.1.33-1.12.28-1.12.22-1.13.17-1.14.12L297,476h-1.15l-1.15,0-1.15-.1-1.13-.16-1.13-.2-1.1-.28-1.1-.3-1.09-.38-1.06-.41-1-.48-1-.51-1-.56-1-.62-.94-.65-.9-.7-.87-.75-.84-.78-.8-.83-.75-.85-.71-.9-.67-.93-.62-1-.58-1-.54-1-.48-1-.44-1.06-.39-1.09-.32-1.09-.29-1.12-.22-1.12-.17-1.13-.12-1.14-.06-1.14V451.6l0-1.15.1-1.13.16-1.14.2-1.12.26-1.12.32-1.1-.1-.32,0-.33v-.35l.06-.33.13-.3.16-.3.22-.26.25-.22.29-.17.41-.88.45-.85.48-.86-.32-.07-.29-.12-.29-.17-.25-.2-.2-.25-.17-.28-.13-.3-.07-.32,0-.32v-.32l.07-.32.13-.3.16-.28.2-.26.25-.2.28-.17.3-.13.3-.09.33,0h.32l.32.07.3.12.28.17.25.2.22.23.19.28.71-.83.75-.78.8-.77.81-.71.86-.68.9-.65.91-.59.94-.57,1-.52,1-.46.17-.26.22-.23.25-.2.28-.14.29-.12.32-.07h.3l.32,0,.3.07Z" transform="translate(-197.9 -321.79)" fill-rule="evenodd"/>
  <path d="M396.34,421l-.14-4.46-.29-4.46-.5-4.39-.72-4.39-.86-4.39-1.08-4.32-1.3-4.25L390,386.16,388.34,382l-1.87-4-2-4-2.16-3.89-2.38-3.74-2.59-3.67-2.66-3.53-2.88-3.46-3-3.24-3.17-3.17-3.31-3L359,343.47l-3.53-2.74-3.67-2.52L348,335.83l-3.82-2.16-4-2.09-4.1-1.8-4.1-1.66-4.25-1.51-4.25-1.22-4.32-1.15-4.32-.86-4.39-.72-4.46-.5-4.39-.29-4.46-.07-4.46.07-4.46.29-4.39.5-4.39.72-4.39.86-4.32,1.15-4.25,1.22-4.18,1.51-4.18,1.66-4,1.8-4,2.09-3.89,2.16-3.74,2.38-3.67,2.52-3.53,2.74-3.46,2.81-3.24,3-3.17,3.17-3,3.24-2.88,3.46-2.66,3.53-2.52,3.67-2.38,3.74L209.71,374l-2,4-1.8,4-1.66,4.18-1.51,4.18-1.3,4.25-1.08,4.32-.86,4.39-.72,4.39-.5,4.39-.29,4.46L197.9,421l.07,4.46.29,4.39.5,4.46.72,4.39.86,4.39,1.08,4.25,1.3,4.32,1.51,4.18,1.66,4.1,1.8,4.1,2,4,2.23,3.89,2.38,3.74,2.52,3.67,2.66,3.53,2.88,3.46,3,3.24,3.17,3.17,3.24,3,3.46,2.81,3.53,2.74,3.67,2.52,3.74,2.38,3.89,2.16,4,2.09,4,1.8,4.18,1.66,4.18,1.51,4.25,1.22,4.32,1.08,4.39.94,4.39.65,4.39.5,4.46.36,4.46.07,4.46-.07,4.39-.36,4.46-.5,4.39-.65,4.32-.94,4.32-1.08,4.25-1.22,4.25-1.51,4.1-1.66,4.1-1.8,4-2.09,3.82-2.16,3.81-2.38,3.67-2.52,3.53-2.74,3.38-2.81,3.31-3,3.17-3.17,3-3.24,2.88-3.46,2.66-3.53,2.59-3.67,2.38-3.74,2.16-3.89,2-4,1.87-4.1,1.66-4.1,1.44-4.18,1.3-4.32,1.08-4.25.86-4.39.72-4.39.5-4.46.29-4.39.14-4.46Zm-37.8,50.26,2.52-3.17,2.3-3.31,2.16-3.46,1.87-3.53,1.8-3.6,1.58-3.67,1.44-3.74,1.22-3.89,1-3.89.79-4,.58-4,.43-4,.22-4v-4l-.22-4-.36-4-.65-4-.79-4-1-3.89-1.22-3.82-1.37-3.82-1.58-3.67-1.8-3.6-1.95-3.53-2.09-3.46-2.3-3.31-2.52-3.17-2.59-3-2.81-3-2.88-2.74-3.1-2.66L344.06,357l-3.31-2.3-3.38-2.09-3.53-2-3.6-1.73-3.74-1.58-3.74-1.44-3.82-1.15-4-1-3.89-.86-4-.58-4-.43-4-.14h-4l-4,.14-4,.43-4,.65-4,.79-3.89,1-3.82,1.22-3.74,1.37-3.74,1.66-3.6,1.73-3.53,1.94-3.38,2.16-3.31,2.3-3.17,2.45L358.54,471.27Zm-11.16,11.16L235.63,370.75,233.11,374l-2.3,3.24-2.09,3.46-1.94,3.53-1.8,3.6-1.58,3.67L222,395.31l-1.15,3.82-1,3.89-.86,4-.58,4-.43,4-.22,4v4l.22,4,.43,4,.58,4,.86,4,.94,3.89,1.22,3.89,1.44,3.74,1.58,3.67,1.73,3.6,2,3.6,2.09,3.38,2.3,3.31,2.45,3.17,2.66,3,2.74,3,3,2.74,3,2.66L250.1,485l3.31,2.3,3.46,2.16,3.53,1.94,3.6,1.73,3.67,1.58,3.82,1.44,3.82,1.15,3.89,1,4,.79,4,.65,4,.43,4,.14h4l4-.22,4-.36,4-.65,4-.79,3.89-1,3.89-1.22,3.74-1.44,3.67-1.58,3.6-1.73,3.53-2,3.46-2.09,3.31-2.3,3.17-2.52Z" transform="translate(-197.9 -321.79)" fill="#ed1c24" fill-rule="evenodd"/>
  </g>
</svg>
