<svg id="Layer_1" data-name="Layer 1" xmlns="http://www.w3.org/2000/svg" width="70mm" height="70mm" viewBox="0 0 198.43 198.43">
  <title>p034</title>
  <g id="symbolgrp">
  <path d="M285.79,451.52l-.23-.2-.13,0,0-.42.25,0v-.45l.1-.07,0-.17H286l.15-.13h.15l0,.35.27,0,.15.1.05.77-.15.08,0,.2-.87,0Zm3.27-1.17,0-.32-.32,0,0-.18.18,0,.1-.13.05-.1v-.12l.2,0,0-.08h.42l.05-.2.33,0,0,.22.6,0,0,.53h-.22v.35l-.92,0,0,.13-.37,0Zm3.48-1.18,0-.2-.23,0v-.23l.2,0,.08-.32.08-.15.23,0,0-.2h.4l0-.1.27,0,.13.12h.12l0,.2.1.1.05.13-.15,0v.32l-.18,0-.07.13h-.33l0,.25-.75,0Zm-.22,4.8,0-.88h.23l0-.33.1-.1.2-.07,0-.2.32,0v-.25l-.2,0,0-.2-.3,0-.15-.13,0-.18-.33,0,0-.1-.2,0-.15-.13,0-.57h-.18l-.12-.1,0-.35-.2,0,0-.32-.35,0v-.75h.75l0,.23H292l.13.12,0,.22h.2l.15.13,0,.22.17,0,.15.12v.22h.22l0,.3.22,0,.12.15.13,0,0,.32.15.05,0,.2h.2v.42l.12.07,0,.3h-.48v.3l.18.2h.17l0,.2.12,0,0,.22-.18,0,0,.55.15.07-.2.17h-.62l0,.23-.2,0,0-.2-.67,0Zm-3.27-1.75,0-.27-.12-.08,0-.17h.33l.17-.25.32,0v-.18h.65v.22h.27v.1h-.27l0,.52-.12.15Zm.82,4.2-.13-.22-.15,0,0-.42h-.15v-.07l.18,0,.08-.1.07-.13v-.2l.1,0v-.22l-.07-.05,0-.15.13-.07v-.52l.25,0v-.45l.07-.1,0-.12.17,0,.17-.15v-.33h.23v-.17l.15-.1,0-.3H291l.17-.12h.25v.35h.25v.53l-.25,0v1l-.1,0,0,.32h-.22V455l-.12.07v.3l-.18,0-.2.2,0,.52h-.25v.35Zm-4.58-3.08.13-.08V453l.18,0,0-.23h.5l.1-.12.15.1.07.27H287l.07.1h.18v-.35h.22v-.35l.15-.13h.4l.07.13.42,0,0,.22h.22v.3h-.22l0,.55-.12.1.07.2h.75l0,.32.22,0,0,.22h-.23l0,.32-.07,0,0,.2-.22,0-.08.15h-.12l-.1-.15v-.32h-.22l0-.71h-.15l-.07.15-.13,0-.07-.13h-.27l0-.18h-.32l0-.35h-.47v.22l-.12,0v.3l-.33,0,0,.1-.48,0-.18-.13v-.18l-.22,0-.1-.15v-.17Zm-1.78,1.35,0-.18.17-.1v-.62h.55l0-.1.55,0,.15.13,0,.23h.3l.08.1.17,0v.2h-.22l0,.32-.63,0-.08.23-.3,0,0-.2h-.35l-.07-.1h-.18l-.1.1Zm2.92.75.13,0,0-.3.35,0,0-.23h.53l0,.2.32,0,0,.1h.3l0,.22.37,0v.2l.22,0v.22l.1,0v.17l-.42,0,0,.1-.25,0v.2H288v-.22l-.28,0,0,.23h-.17l-.05-.25-.57,0-.1-.12v-.22h-.2l-.15-.15,0-.3Zm-1.13,2.51v-.32l.1,0,.05-.18.2,0V457l.35,0v-.22l.15-.12.28,0,0,.35h.32v.32l-.12,0,0,.22h-.25v.32l-.12.15-.35,0,0,.2-.3,0V458l-.35,0Zm-2,.95v-.6l-.12-.07v-.55l.12-.08v-.32l.35,0,0-.25h.38l0,.22.37,0,0,.28h-.23l0,.92-.1.13h-.25l0,.25Zm8.31-2.48v-.17l-.13-.07,0-.45h-.23l0-.18.35,0v-.28l.22,0,0-.32h.28l.15-.15h.18l-.1.12,0,.18.15.15h.17l0,.68h-.18l0,.33-.12.08,0,.18-.73,0Zm-4,2.48v-.2l-.23-.18h-.47v-.88l.57,0v-.18l.15-.15h.52l.08.13h.3l0,.25h.32l0,.32h.2v.35h-.2l0,.22-.12.1h-.32l0,.25Zm4.36.57-.27-.23-.12,0,0-.52h.2v-.6l.15-.1h.87l.07.1h.18l0,.2.2.22V459l-.1.15v.2l-.17.15Zm-2.12,1.06-.08-.13h-.17l0-.2-.17,0V460l.22,0v-.23l-.22-.05v-.85l.22,0v-.63l.12-.08v-.27l.13-.12h.32l0-.23.42,0,0,.22h.3l0,.42.12.05,0,.57.18,0v.3h-.2l0,.82L291,460h-.2l0,.35-.15.15Zm-2.23,0-.15-.12v-.25h-.2l0-.3.2,0,.05-.18h.25l.1-.15.63,0,.05.1h.32l0,.25h.2v.32h-.2v.2l-.15.15Zm1.73,1.7v-.47l.22,0v-.33l.15-.13h.13l.17.08,0,.23.22,0,.12.1v.1l-.17.08,0,.38h-.22l0,.23h-.43v-.23l-.22,0Zm-3.62,3.55v-.2l-.12,0,0-.32-.18,0V465l.18-.08v-.22h-.22v-.2h.25v-.2l.12-.15h.33l0-.22.1-.12h.1v.25l.17.18h.2l0,.23h-.2v.35l.22,0v.55h-.15l-.12.12-.1.07v.18Zm-.68,2.21,0-.33-.1,0,0-.62.1,0,0-.18.27,0,.1-.1.52,0,.1.15,0,.3.23,0,0,.68H286l0,.22-.1.15h-.08l-.1-.15-.58,0Zm-2.25-.62v-.62l.15-.12v-.7l.22,0V465l.12-.15h.2l.05-.3.33,0,0-.25.1-.1,0-.25h.2v-.35l.18-.12.38,0,0,.45.07,0,0,.53-.13.08v.52l-.22,0v.43l-.1.07,0,.3.12,0v.17l-.12.08v.27h-.35l0,.37-.22,0v.57h-.32l0,.17-.12.18-.2,0,0-.15H283l-.05-.2-.1-.05Zm4.68-4.74-.05-.12h-.28l0-.23-.22,0,0-.27-.1,0v-.2l.13-.07,0-.28h.13l.07-.12h.35V461h.22l0,.18h.3l.13.15v.33h.2l0,.22-.23,0,0,.3h-.35l0,.35-.33,0Zm-1.82.35-.1-.15-.2,0v-.48l.22,0,0-.22.13-.1h.52l0,.4.1.05v.1l-.15,0,0,.17.12,0,0,0-.08.12-.63,0Zm-.82-2.23H284v-.17l.25,0V460h.27l.2-.23v-.08h.2l0-.15h.27l.07-.13h.62l.15.13v.32H286l0,.25-.23,0-.2.23v.23l-.65,0,0,.22Zm-.67.28v.37l.22,0v.87l-.22,0v.47l.23,0v.1h-.52l-.1.13-.27,0-.1-.12h-.17V462h.27l0-.6.13,0V461Zm-3.07,1.48,0-.23H281v-.37h-.22v-.17l.17,0,.18-.2,0-.12h1.08l0,.2h.22l0,.12h.18l0,.18-.2,0,0,.35-.1.05v.2Zm1,2.2h-.93l-.08.15-.08,0,0-.42-.15-.05v-.15l.13-.1v-.63l.32,0,.07-.07.5,0,.05.13h.32l0,.4.12.07v0l-.15.07v.43l-.12,0,0,.2Zm-2.32,3.36-.42,0,0,.23-.17,0-.08.1h-.63l-.08-.1-.3,0v-.13L278,468l-.23,0,0-.42h.07l0-.2.22,0,0-.22h.25l.1-.12h.12l.13.12.47,0,0,.23.32,0,0,.23h.32v.52Zm.77-1.67.1-.07V466l.35,0,0-.22.17,0,.05-.1.53,0,0,.37.35,0v.3l.12,0v.55l-.15,0,0,.45-.55,0,0,.15-.2,0,0-.15-.38.08,0-.13-.2,0v-.3l-.1,0v-.4Zm-1.17-1.71h-1v-.18l-.12-.07v-.33h-.2V464h.15l.07-.13h.47v-.22l.28,0,0,.23.67,0,.07.1h.15l0,.17h-.2l0,.33-.35,0-.05.2Zm-.68.32,0,.25h.32l.1.1h.15l0,.17.13.1v.5h-.43l-.07.1h-.18l-.12-.13-.17.15h-.4l-.15-.12,0-.35h-.25l0-.42h.2l.17-.18,0-.2.6,0Zm-2.68,1.12-.05-.23-.1,0v-.47l-.22,0,0-.35.23,0,0-.32.12-.08v-.3h.35l0,.15.2.18.27,0v.83l-.12,0v.23l.1.12h-.33v.2l-.52,0Zm4.65,3.95v-.18l-.33-.05,0-.33h-.25l0,.2H280l0-.73h.35l0-.1.3,0v-.22h.2l.07-.13h.25l.12.13.63,0v.63l.32,0,0,.67-.17,0-.08-.13-.43,0,0,.33Zm-.1,1.51,0-.5.12-.12H281v-.23l.85,0v.15l.18.15h.15l0,.3v.23l-.2.05,0,.1-.8,0-.05.2h-.07l0-.18-.2-.15-.25,0Zm-1.85.83,0-.53.15-.08,0-.37-.13,0v-.25l-.22,0v-.72l.25,0v-.65l.1-.17h.27l0,.12h.17l.05.2.1,0,0,.33h.2v.3l-.23,0v.52l-.1.15-.25,0,0,.27h.53l0,.25h.3l.15.1,0,.3.25,0v.08h-.25v.12l-.35,0,0,.22-.65,0v-.23Zm-2.35-1.08v-.71l.32,0,.05-.23.72,0,0,.35h.3v.18h-.25l0,.65-.13.17-.88,0v-.37l-.2,0ZM273.9,474v-.22l-.35,0,0-.25.23,0,0-.35.1,0,0-.35h.83l0,.12h.2l0,.33.1,0,0,.48-.12.08,0,.17Zm-.45-1.75,0-.23h-.32l-.12-.12h-.15v-.4H273l0-.22h.25l.08.1h.5l.08.12h.42l0,.37-.17.1v.28Zm-1.27.43-.22.1,0,.18-.08.12-.18,0,0,.07-.15-.15-.18,0v-.27l-.12-.1v-.82l.1-.1v-.27l.63,0,0,.13.2,0v1.18Zm0-2.56,0-.85.35,0V469l.52,0,0,.25h.52l.17.12v.35h.2l0,.57.22,0,0-.2h.23v-.72h.27l.2-.17,0-.12.13,0,.17-.13.15,0,0-.17.13,0,.18-.17v-.17h.32l.05-.08.22-.07,0-.2h.3l.05-.13H277l.07.15h.27v.48l-.1.13v.13H277l-.17.17v.3h-.23l0,.22-.1.08-.23,0,0,.22-.1.1-.25,0,0,.22-.08.12h-.3l0,.4-.92,0,0,.22h-.5v-.32l-.5,0-.05.12h-.32l0,.22h-.13l-.07-.18-.67,0,0-.35-.17,0Zm-.52-.08,0,.45h-1.47v-.35h-.35l0-.62.1,0v-.17l.17,0,.08-.07.9,0,.1.08h.33l0,.18.18.15.12,0v.4l-.17,0Zm2.58-1.75v-.23l-.12-.07,0-.22.15-.08,0-.27h.17l.13-.13,0-.1v-.12h.33l.07-.12.47,0,.15.13,0,.52-.15,0,0,.32-.13,0-.1.13-.43,0v.22l-.52,0Zm-1.58-2v.33l.2,0v.15l-.32,0v.35h-.2l-.05.17-.07.1,0,.15v.15h-.32l-.08.32-.27,0-.05.23-.12.1-.23,0,0,.2-.25,0,0-.2-.18,0,0-.5h.13l.23-.27v-.08h.15l0-.22.1-.08,0-.17.18,0,.18-.23v-.12l.08-.1.35,0,0-.18h.15l.08-.13.25,0Zm2.3-.92,0,.53.25,0-.05.15-.2.2,0,.13-.83,0,0-.22h-.37l0,.22h-.2l0-.55-.12,0v-.15l.12-.15h.23l0-.2,1.18,0Zm-4.86-.55,0,.27-.63-.05-.07.15h-.12l-.15-.12h-.38l0-.32-.17,0,0-.17.22,0v-.33h.45l0-.2.17,0,0,.23h.68l.08.12h.15v.52Zm-.62,2.45,0-.45-.23,0v-.37h.23l0-.5h.12l0-.2h.13l0,.17.67,0v.35h.25v.48l-.2,0,0,.43-.93,0Zm-.93-.62.07.1.3,0,0,.5.1,0v.07l-.1.08v.25l-.22,0,0,.22H268l-.1.1h-.32l-.13-.1h-.3v-.37h-.28l0-.25.1-.1v-.15h.22l.05-.32.3,0,.08-.12Zm.58,6.18.77,0,0-.23H270l0,.25h.27l.13.15,0,.52-.47,0,0,.25-.42,0v-.21h-.32l-.15-.15,0-.5Zm-1.43-2.56.12,0,0-.52h.2l0-.35h.47l.08.22h.22l.1-.22.12.25.2.15,0,.62.12.07v.8l-.15.1,0,.17.12.08-.15.12,0,.57-.3,0-.07.12h-.55l0,.22h-.12l-.12-.2-.25-.27,0-.4-.12-.12v-1.38Zm-1.83-.4v-.32h-.25l-.05-.37-.17-.15-.3-.3-.2-.15-.1-.2V468l.1-.15h.2l0-.22.15-.1.15,0,.07-.12h.2l.1.12h.3l.07.1.2,0v.32l.1.05,0,1h.63l0,.22h.22l.1.13,0,.35-.12.15-1.53,0Zm-5.58-1.38,0,.68.1.07v.48l-.1.07v.78h-.57v-.42l-.08-.07-.05-.23h-.15l-.17-.15,0-.37.13-.1v-.37l.23,0v-.2l.17-.15Zm-2.95-.13,0-.23H257l0-.07-.1-.07v0l.15-.1,0-.27h.17l.08-.12.12,0v-.28h.62L258,467h.45l.08.13.57,0,0,.2h.22l0-.57.3,0,.07-.15h.63l.08.12h.3V467l.22,0v.2h-.2l-.07.13h-.45v.22l-.65,0,0-.23h-.47V468h-.22l0,.1-.13,0,0,.23Zm9.55-2.93v-.57l-.27,0,0-.27h.23v-.23l.15-.15.53,0,0-.18h.1l0,.22h.15l.15.12,0,.6h.15l0,.3-.55,0v.23l-.12,0,0,.12h-.15l0-.17-.43,0Zm-.75-.38,0,.33.22,0,0,.23h.1v.67l.25,0v.2h-.55l-.05.12H266l0,.23-.85,0,0-.3-.2,0,0-.18-.13-.08v-.27l.13-.07v-.53h.22l0-.32Zm-.7-.3h-.65l0,.12h-.3l-.13-.17-.58,0,0-.48.2,0v-.22h.15l.12-.08.88,0,0,.1h.27l0,.78Zm-1.87.17.08.13h.15l0,.52.13.08v.83l-.17.07,0,.3-.17,0-.07.1-.2,0-.07-.15H263l0-.27-.08-.08-.05-.32h-.17l0-.08.2,0v-.45l.13-.08,0-.25V465l.18,0,.1-.12.27,0Zm-3.8.13h.15l.12-.12h.25l.13-.23h.67l.07.22h.28l.13.13h.23l0,.85-.12,0,0,.18-.48,0-.13.15h-.48l0-.1-.18,0,0-.17-.2,0-.12-.13-.27,0,0-.73Zm1.55-2.4.12.15.07.23h.2l.07.48.38,0,0-.33.08-.18,0-.18h.58l0-.45.1-.12,0-.15h.27l.13-.08.17,0,.07-.25h.22l0,.25h.2l.08-.2.23.23.12.12h.15l0,.75H264l-.18.13-.15,0-.12-.08-.2.15-.13-.15-.15.08-.25,0,0,.35.22,0,0,.75-.23,0,0,.3-.43,0,0,.22h-.1l0-.17-.08-.07v-.32l-.22,0,0-.42h-.15l-.08.08h-.2l0,.37h-.12l0,.18h-.87v-.1l-.23-.23h-.13l0-.27-.15-.07v-.08l.17-.08,0-.5h.17l.08-.22.12-.15.82,0Zm-2.2,1.91.07.25.13.2h.17v.73l-.2.07,0,.3-.27,0-.1.13-.13,0-.13-.07,0-.23-.27,0,0-.67-.08,0V465l.12,0,0-.45.72,0Zm4.85-4.66-.12.07-.35-.1,0-.28.07-.25.43.57Zm-2.55,2.06-.28-.17.05-.38.13-.2-.17-.35.13-.28.07-.28.28-.1.23.12.25.17.1.35,0,.48.17.07v.23l-.23,0-.1.23-.18.07Zm-7.75,2.63v-1l.43-.27h.35l.12.17.07.27.27.08.08.23v.28l-.12.17-.23,0-.07.32-.08.27H254l-.27-.13,0-.38Zm5.4-3h-.65l-.17.4h-.45v-.23l-.08-.13v-.37h-.82l-.33.17,0-.77,1.72-.63.32.17,0,.5.17.2.25.25,0,.45ZM254.88,467l-.63-.83-.6-.85-.55-.87-.52-.9.58-1.63,2.15-.8v.43l-.2,0,0,1.22.2,0,0,.53.12.12.08.5.2.08v.28l.33,0v-.23l.2,0,.2-.17.08.53,0,.3.17,0,.08.17.2.17.42.08.28-.17.25-.17.32-.37v-.37l-.08-.33-.37-.25-.28-.17-.57.08-.22.17-.08-.57.08-.3.28.08.3.08.2-.08.33-.08,0-.45.2,0,.3.28v.33l.37,0h.9l.33-.08.32-.28.17-.4-.08-.25-.32-.08-.13-.28h-.47l0-.22-.05-.32.53,0,.17-.25.2-.4h.13l0-.2-.32-.08-.17-.3-.13-.33,2.72-1v.4l-.1.35.1.28,0,.48,0,.35h.38l.25-.15.2-.17h.35l.07.48.07.18.42,0,.42.07.25-.1.35.33,0,.43.07.4.07.35.2,0,.07.2h.12l0-.12.23-.2H266V462l.12-.12.42.27-.07.27-.22.07v.27l-.1,0,0,.17.15.07v.22l-.08.12.12.08h.18l0,.22h1v-.13l.27-.2h.08l0-.32.08-.1.72.28.73.22.73.18.77.13.75.07V464l-.18.23-.33,0v.22l-.22,0v.4h-.13v.22h.43l.05.2.17,0,.1.1.35,0,.12-.12h.6l0-.2.57,0,0-.25.23-.2.3,0,0-.4H274l0-.15.15-.07-.05-.18-.1,0,0-.23.82-.15.8-.2.78-.28.13.2v.17h.2l0,.22.05-.2h.3l0,.23.87,0v-.2l.13,0,0-.22h.25l0-.2h-.18l-.05-.2-.35,0,0-.35.9-.57.15,0,0,.9.18.18h.57l.07-.15.3,0,0-.58h.2l0-.65h-.53l-.05-.27h0l0-.13.57-.5.52-.53.48-.58.32.1,0,.68.15.12h.17l0,.25.67,0v-.18l.15-.07,0-.1.3,0v-1l-.35,0,0-.32-.75,0,0-.38.4-.7.35-.73.3-.75.25-.77.25,0v.45l.47,0v.25l.3,0,.07.12h.73l.08-.12.3,0,.05-.2.32,0,0-.32-.18,0v-.22l-.13-.05v-.18l-.22,0,0-.2h-1.23l0,.17-.2.18h-.32l-.1-.2.13-.73.1-.73,0-.75,0-.75.1-.08.62,0v.32h.32l0,.22.1,0,0-.57h.32l.15-.18v-.15l-.1-.07-.07-.3-.27,0,0-.1h-1.23l-.1-.63,10.86-4,.3,1.17.23,1.2.17,1.2.1,1.2,0,1.22,0,1.2-.1,1.22-.42,0,0-.15-.38,0-.15.13,0,.22h-.25l0,.07-.17,0-.08.1H293l0,.55.2,0v.33h.18v.25h.1l0-.18.13-.2h.17l0-.22.65,0-.2,1.18-.28,1.18-.33,1.15-.4,1.15-.47,1.12h-.35l0-.22-.1-.13h-.57l0-.22h-.17l0,.2-.13.17h-.27V462h-.25l0,.93.18,0v.22l.13.08v.15l.22,0,0,.22.1,0v.75l-.48.75-.43,0-.05-.37-.2,0-.08-.23-.3,0V464l-.13-.18h-.33l0-.27-.13.07-.2,0-.07-.1-.35,0,0-.32h-.3l0-.12-.53,0-.13.15v.52l.13.15h.2l0,.57h.32l0,.35.32,0,0,.32.12.12h.2l0,.2.15.15.2,0,0,.22.1,0,0,.27.1.13h.2l.05.42-.35.43h-.27l0-.18.13-.08,0-.2-.35,0v-.37h-.33l0-.25-.12-.1-.65,0-.05-.2h-.22v.2l-.2,0-.15.1,0,.23h-.2v.52l.35,0v.32l.32,0,0,.1.53,0,.08.1h.58l0,.27-.43.47h-.35l0-.25h-.65l-.08-.12-.48,0-.1.12h-.28l0,.5,0,0v.22l.22,0,0,.05.42,0,0,.53-1.22,1-.32,0,0-.28h.2l0-.85-.32,0,0-.22-.12-.13h-.2l0-.25-.55,0V469l-.37,0v.55h-.25l-.05-.25h-.15l-.2-.17,0-.28-.23,0-.05-.18h-.27v.23h-.35l-.1.12-.3,0,0,1.25-.23,0v.22l-.13.15v.22l.13.08v.32h.22v.37l.15.1.82,0,.12-.1h.13v-.35l.15,0v-.45h.22l.05-.25h0l0-.42h.3l.18.17v.15h.15l.08.13H286l0,.13-.87.63-.88.58-.92.53-.93.5-.37,0-.12-.1h-.4l0-.37-.15.2,0,.2H281l-.07.1h-.18l0,.23-.08.13-.05.27-.18.05-.08.22-.42.15-.2-.13-.2,0,0-.18-.1-.05,0-.17.17,0v-.1l-.13-.12H279l-.15.17v.15l-.1.1,0,.3-.33,0,0-.22-.25,0-.23-.22,0-.22-.17,0v-.2l-.13-.13-.33,0,0-.35-.2-.07,0-.2h-.35l-.28-.15,0-.23h-.17l0,.25-.15.15h-.12l0,.15H276v.32l.1,0,0,.3.22,0v.33l.1,0,0,.55h.23l.13.13.27,0,0,.2.22,0v.23l-.18.05,0,.12-1,.18-1,.15,0-.12h-.37l-.1-.1-.3,0v-.22h-.2l-.17-.13-.18,0,0,.12h-.43l0,.6-1.08,0,0-.37-.1-.08,0-.32.18-.05-.05-.52-.13-.12-.33,0-.1.1h-.4l0,.5-.22.18-.17,0,0,.57-.53,0V475l-.13-.08v-.63H270l0-.15h-.22l0-.2-.63,0v.52l-.23,0v.2l-.15.22-1.52-.3,0-.68-.1-.1.05-.45.15-.12.15-.08V473l.1-.08,0-.1.08-.15v-.27l-.07-.2,0-.47-.35,0v-.17l-.58,0-.05.2-.2,0v.28l-.13,0v1.18l.35,0v.3l-.17.05-.13.23,0,.43-.12.08-1.33-.43-1.32-.53.13-.13,0-.23.2,0,0-.32h.1l0-1h.23l0,.22.35,0v.28l.52,0,0-.22.33,0,0-.12h.2l0-.15.1-.1v-.15l-.13-.05v-.17l.13-.1v-.15l-.13-.08-.15,0-.1-.32h-.82l-.15.12,0,.33-.18,0v.25l-.1.1-.13.1-.72,0v.33l-.22,0v.3l-.13.1,0,.32.12,0,0,.48-.1.12-.85-.42-.82-.45,0-.42.13,0,0-.2h.32l0-.13.22,0,0-.32.33,0,.08-.12.05-.22.2,0v-.38h.12l0-.7.68,0v.22l.52,0,.12.13h0l.15-.13,0-.73-.33,0v-.47l-.1,0,0-.17-.1-.12h-.35l0-.37-.32,0,0-.22h-.12l-.18-.17,0-.3h-.2v-.1l-.47,0,0-.22h-.17l-.07-.13h-.12l-.15.13h-.23l0,.52.15,0,.2.18v.6l.33,0,0,.25.2,0,0,.28.12.13.2,0,0,.23.07,0,0,.47-.3.05-.12.12-.07.22h-.45l-.2.13v.18l-.35.05,0,.08h-.2v.08l0,.08-.18.2-.23,0,0,.22-.27,0-.07.18-.17.07-.87-.62-.83-.63-.82-.7-.77-.72-.75-.77.1-.38.22,0-.05-.68.2-.08,0-.2-.18-.17.18-.15,0-.13-.1,0-.07-.3-.33,0v-.2h-.17l-.08.23-.28,0-.05.45-.18,0-.12.28-.08.28ZM298,440.59l-.58-1.17-.65-1.15-.7-1.1-.75-1.08-.8-1-.85-1-.88-1-.95-.93-1-.87-1-.83-1.07-.8-1.08-.73-1.12-.68-1.15-.63-1.18-.57-1.22-.53-1.22-.47-1.25-.4-1.27-.35L278,425l-1.3-.23-1.3-.17-1.32-.12-1.32,0-1.3,0-1.32.07-1.32.13-1.3.2-1.28.25-1.28.32-1.25.37-1.25.42-1.22.5-1.2.53-1.17.6-1.15.65-1.12.7-1.07.75-1,.8-1,.85-1,.9-.92.93-.88,1-.83,1-.78,1-.73,1.1-.68,1.12-.62,1.17-.58,1.18-.52,1.2-.47,1.23-.4,1.25-.35,1.27-.28,1.28-.23,1.3-.17,1.3-.12,1.32,0,1.3,0,1.31.07,1.32.15,1.31.18,1.3.25,1.28.32,1.28,16.54-6.13-.07-.82v-.82l.05-.8.12-.82.18-.78.23-.78.28-.75.35-.75.38-.7.45-.68.5-.63.55-.6.58-.57.63-.52.67-.47.68-.42.73-.37.75-.32.77-.25.78-.2.82-.13.8-.08.82,0,.8,0,.82.1.78.17.78.22.77.28.75.33.7.38.68.45.65.48.62.53.57.58.53.62.47.65L298,440.59Zm-19.09,12.24,0-.63-.08-.63-.17-.63-.22-.6-.27-.58-.33-.55-.38-.52-.43-.48-.47-.43-.52-.38-.55-.32-.58-.28-.62-.22-.62-.15-.63-.1-.65,0-.63,0-.63.1-.63.15-.6.22-.58.28-.55.32-.52.38-.48.43-.42.48-.38.52-.33.55-.28.58-.22.6-.15.63-.1.63,0,.63,0,.65.1.63.15.62.22.62.28.58.33.55.38.52.42.47.48.43.52.38.55.33.58.28.6.22.63.15.63.1.63,0,.65,0,.63-.1.62-.15.62-.22.58-.28.55-.33.52-.38.47-.43.43-.47.38-.52.33-.55.27-.58.22-.62.17-.62.08-.63,0-.65Zm71.34-51.24,5.83,15.18.37-.16.35-.2.32-.25.28-.32.27-.35.23-.4.18-.45.17-.48.12-.52.1-.57,0-.58,0-.62,0-.63-.05-.65-.1-.67-.13-.68-.17-.68-.2-.68-.23-.68-.27-.67-1.73-1.3L353.85,404l-1.8-1.22-1.82-1.17Zm-62.69,49.92,0-1.45.1-.1v-.15h.18l.08-.13h.3V450h.22v.45l.15,0V451l-.12.07,0,.18h-.17l-.18.25-.52,0Zm18.81-47.17,5.91-2-.17-.35-.23-.32-.27-.28-.3-.23-.32-.18-.35-.15-.35-.1-.33-.05h-.32l-.28,0-.27,0-.25,0-.2.07-.17.07-.27.1L308,401l-.18.1-.23.13-.12.08-.13.1-.13.12-.13.13-.25.3-.18.32-.15.3-.1.3-.07.3,0,.28v.45l0,.18v.13l0,.08Zm-.36,5.15v.43l0,.37v.33l0,.28v.27l0,.23v.47l0,.42,0,.4,0,.37v.35l0,.63,0,.6-.05.57,0,.55-.08.52-.08.5-.08.48-.12.45-.25.92-.27.92-.28.95-.32,1-.32.95-.35.95-.37.93-.4.93-.22.45-.23.45-.27.43-.28.42-.33.37-.38.35-.42.3-.22.13-.22.12-.23.1-.23.08-.25.07-.25.07-.5.05-.5,0-.52,0-.52-.12-.23-.07-.23-.1-.23-.12-.22-.13-.18-.15-.18-.18-.17-.2-.15-.2-.13-.23-.1-.23-.1-.23-.07-.25,0-.25-.05-.25,0-.5v-3l0-1,0-1,.07-1,.1-1.07-6.51,6.24,1.23.75,1.18.8,1.17.85,1.12.92,1.08.95,1,1,1,1,.95,1.08.9,1.12.85,1.17.8,1.2.73,1.23.68,1.27.63,1.28,5.18-1.91,15.45-6.46-.18-.1-.17-.08-.3-.17-.25-.15-.2-.13-.15-.13-.1-.15-.18-.32-.15-.35-.12-.33,0-.17,0-.15v-.27l0-.17v-.17l.05-.38.07-.37,0-.18.07-.15.13-.27.15-.23.28-.42.3-.38.33-.32.32-.28.33-.25.35-.23.38-.22.4-.2.43-.15.47-.12.45-.07.47,0,.47,0,.45.07.45.12.42.13.37.15.35.17.32.15.58.3.32.17.32.17.33.2.17.1.08.07h0l0,0h0l0,0,.05,0,.07.07.12.08.08,0,.08.07.1.08.12.08.13.1.13.1.17.13.18.13.22.15.22.17,2.35-1-.5-.47-.23-.23-.21-.22-.2-.22-.18-.22-.15-.22L333,424l-.12-.18-.08-.18-.07-.18,0-.18-.05-.4,0-.38,0-.18,0-.15,0-.3.08-.3.1-.3.12-.27.15-.27.15-.25.18-.23.18-.23.2-.2.22-.18.23-.18.22-.15.23-.13.45-.23.43-.17.43-.15.43-.13.47-.12.48-.08.52,0h.52l.48.07.45.07.42.1.77.18.38.08.42.12.42.12.45.17.43.18.42.22.38.23.1.05,0,0,0,0,.08,0,.12.08.17.12.18.15.23.15.23.18.27.2.55.42,6.48-2.7-8.43-22-37.58,13Zm-10.27,2.16-11.16,10.72-1.33-.5-1.37-.45-1.38-.38-1.4-.33-1.42-.27-1.42-.2-1.43-.13-1.43-.08h-1.43l-1.43,0-1.43.12-1.43.18-1.42.23-1.4.3-1.4.35-1.37.43-1.35.47-1.33.55-1.32.6-1.27.65-1.25.7-1.22.77-1.18.82-1.15.87-1.12.92-1.07,1-1,1-1,1.07-.92,1.08-.88,1.13-.83,1.18-.78,1.2-.73,1.23-.67,1.28-.62,1.3-.55,1.32-.5,1.35-.45,1.37-.37,1.38-.33,1.4-.25,1.42-.2,1.43-.13,1.41-.07,1.45v1.43l0,1.43.12,1.43.18,1.42.25,1.41.3,1.42.37,1.38.42,1.37.5,1.37.53,1.32,5.58-2.06.55,1.17.62,1.13.67,1.1.7,1,.77,1,.82,1,.85.95.92.92.93.87,1,.82,1,.78,1,.72,1.1.67,1.12.62,1.15.57,1.18.52,1.2.45,1.22.4,1.25.33,1.25.28,1.25.22,1.28.15,1.28.1,1.28,0,1.27,0,1.28-.08,1.28-.15,1.27-.22,1.25-.27,1.23-.32,1.23-.4,1.2-.43,1.18-.52,1.15-.55,1.12-.62,1.1-.67,1.07-.72,1-.77,1-.82,1-.87.92-.9.85-.95.83-1,.77-1,.72-1,.67-1.1.62-1.13.57-1.15.5-1.18.45-1.2.38-1.22.33-1.23.28-1.27.2-1.27.17-1.27.08-1.28,0-1.28,0-1.28-.08-1.28L299,449l-.2-1.27-.28-1.25-.33-1.25,6.3-2.31.18.33.18.33.2.32.23.32.27.33.32.32.35.32.42.25.4.2.4.17.37.12.37.08.33.08.32.07.6.13.57.13.55.17.58.18.63.2.67.18.67.15.65.12.63.12,1.23.22,1.27.22.65.1.67.08.68.07.72,0,.7,0,.68-.05.67-.07.65-.08.67-.12.68-.13.7-.17.65-.22.42,0,.4,0h.77l.7,0,.35,0,.37,0,.4,0,.42,0,.45-.07.43-.12.43-.15.4-.17.37-.18.33-.18.32-.18.3-.18.32-.17.33-.2.35-.23.35-.25.37-.32.32-.33.27-.33.23-.3.2-.28.12-.15.1-.15.12-.17.13-.2.23-.43.18-.43.13-.42.57.1.3,0,.32,0h.65l.32,0,.28,0,.25,0,.23,0,.22,0,.2,0,.4,0h.42l.47,0h.5l.52,0,.55,0,.58-.05.57-.1.57-.13.53-.15.52-.18.5-.2.5-.22.5-.23.5-.28.25-.17.27-.18.25-.22.27-.23.25-.28.22-.3.2-.32.15-.32.12-.32.1-.3.15-.57.12-.58,0-.32,0-.32v-.32l0-.35,0-.33-.07-.32-.08-.32-.08-.28.55.07.57,0h.58l.6,0,.6-.08.58-.12.55-.15.52-.18,1-.35.52-.22.27-.12.28-.13.28-.17.28-.18.27-.2.28-.23.15-.13.17-.15.2-.15.23-.2.27-.2.27-.25.27-.25.22-.27.22-.25.17-.22.13-.18.12-.18.12-.18.13-.22.25-.48.23-.5.08-.23.07-.23.13-.47.13-.48.13-.5.07-.23,0-.22,0-.23,0-.25.07-.52,0-.25,0-.22V424l0-.15v-.5l0-.22,0-.2,0-.17v-.17l0-.28v-.42l0-.52,0-.25,0-.23,0-.2v-.12l0-.13,0-.2,0-.12,0-.13,0-.15,0-.17,0-.2,0-.22.45-.5.42-.55.37-.6.33-.65.3-.68.23-.72.2-.75.17-.78.1-.82.07-.82,0-.85-.05-.87-.07-.88-.13-.88-.18-.88-.22-.88-.27-.87-.3-.87-.35-.85-.4-.83-1.73-1.33-1.77-1.3-1.8-1.25-1.82-1.23-.05-.17,0-.15-.07-.23-.1-.43-.27-.85L353,396l-.35-.82-.75-1.6-.37-.8-.33-.8-.3-.83-.28-.83-.28-.83-.32-.82-.7-1.62-.33-.82-.32-.82-.27-.83-.25-.85-.43-1.71-.4-1.7-.17-.87-.15-.88-.12-.88,0-.43,0-.43v-.45l0-.43,0-.43.07-.43.18-.87.21-.85.22-.85.18-.87-1.5-1.5-1.56-1.47-1.6-1.4-1.65-1.37-1.68-1.32L338,363.32l-1.77-1.22-1.8-1.15-1.81-1.1-1.87-1-1.9-1-1.92-.93L325,356l-2-.82-2-.75-2-.68-2-.63,0,.77,0,.75,0,.72,0,.68,0,.67,0,.62,0,.62-.05.57,0,.55-.05.53,0,.5-.05.48,0,.47-.05.43-.07.42-.05.4,0,.38-.07.37-.05.33-.07.33-.12.62-.13.55-.13.5-.12.47-.15.42-.13.4-.13.37-.15.35-.27.67-.3.63-.28.6-.28.57-.28.53-.3.5-.28.48-.28.45-.3.43-.28.42-.3.38-.28.37-.3.35-.57.67-.57.6-.55.55-.55.52-.52.47-.5.47-.47.43-.95.88-.48.45-.52.48-.53.52-.57.55-.58.62-.28.33-.28.35L303,382l-.28.38-.27.4-.27.42-.52.87-.48.88-.43.87-.42.83-.38.8-.37.78-.7,1.52-.7,1.53-.33.77-.28.77-.27.78-.23.8-.17.78-.13.8-.08.8-.05.82-.08,1.66,0,.82-.05.8,0,.78-.07.82-.13,1.63,0,.8,0,.77-.1,1.52-.1,1.48-.12,1.48,0,.75-.07.77Z" transform="translate(-197.9 -321.9)" fill-rule="evenodd"/>
  <path d="M396.34,421.12l-.14-4.46-.29-4.46-.5-4.39-.72-4.39-.86-4.39-1.08-4.32-1.3-4.25L390,386.27l-1.66-4.18-1.87-4-2-4-2.16-3.89-2.38-3.74-2.59-3.67-2.66-3.53-2.88-3.46-3-3.24-3.17-3.17-3.31-3L359,343.58l-3.53-2.74-3.67-2.52L348,335.94l-3.82-2.16-4-2.09-4.1-1.8-4.1-1.66-4.25-1.51-4.25-1.22-4.32-1.15-4.32-.86-4.39-.72-4.46-.5-4.39-.29-4.46-.07-4.46.07-4.46.29-4.39.5-4.39.72-4.39.86-4.32,1.15-4.25,1.22-4.18,1.51-4.18,1.66-4,1.8-4,2.09-3.89,2.16-3.74,2.38-3.67,2.52-3.53,2.74-3.46,2.81-3.24,3-3.17,3.17-3,3.24-2.88,3.46-2.66,3.53-2.52,3.67-2.38,3.74-2.23,3.89-2,4-1.8,4-1.66,4.18-1.51,4.18-1.3,4.25L200.35,399l-.86,4.39-.72,4.39-.5,4.39-.29,4.46-.07,4.46.07,4.46.29,4.39.5,4.46.72,4.39.86,4.39,1.08,4.25,1.3,4.32,1.51,4.18,1.66,4.1,1.8,4.1,2,4,2.23,3.89,2.38,3.74,2.52,3.67L219.5,483l2.88,3.46,3,3.24,3.17,3.17,3.24,3,3.46,2.81,3.53,2.74,3.67,2.52,3.74,2.38,3.89,2.16,4,2.09,4,1.8,4.18,1.66,4.18,1.51,4.25,1.22,4.32,1.08,4.39.94,4.39.65,4.39.5,4.46.36,4.46.07,4.46-.07,4.39-.36,4.46-.5,4.39-.65,4.32-.94,4.32-1.08,4.25-1.22L332,514l4.1-1.66,4.1-1.8,4-2.09L348,506.3l3.81-2.38,3.67-2.52,3.53-2.74,3.38-2.81,3.31-3,3.17-3.17,3-3.24,2.88-3.46,2.66-3.53,2.59-3.67L382.3,472l2.16-3.89,2-4,1.87-4.1L390,456l1.44-4.18,1.3-4.32,1.08-4.25.86-4.39.72-4.39.5-4.46.29-4.39.14-4.46Zm-37.8,50.26,2.52-3.17,2.3-3.31,2.16-3.46,1.87-3.53,1.8-3.6,1.58-3.67,1.44-3.74,1.22-3.89,1-3.89.79-4,.58-4,.43-4,.22-4v-4l-.22-4-.36-4-.65-4-.79-4-1-3.89-1.22-3.82-1.37-3.82L369.26,388l-1.8-3.6-1.95-3.53-2.09-3.46-2.3-3.31-2.52-3.17-2.59-3-2.81-3-2.88-2.74-3.1-2.66-3.17-2.45-3.31-2.3-3.38-2.09-3.53-2-3.6-1.73-3.74-1.58L322.75,346l-3.82-1.15-4-1-3.89-.86-4-.58-4-.43-4-.14h-4l-4,.14-4,.43-4,.65-4,.79-3.89,1L271.34,346l-3.74,1.37L263.86,349l-3.6,1.73-3.53,1.94-3.38,2.16-3.31,2.3-3.17,2.45L358.54,471.38Zm-11.16,11.16L235.63,370.86l-2.52,3.24-2.3,3.24-2.09,3.46-1.94,3.53-1.8,3.6-1.58,3.67L222,395.42l-1.15,3.82-1,3.89-.86,4-.58,4-.43,4-.22,4v4l.22,4,.43,4,.58,4,.86,4,.94,3.89,1.22,3.89,1.44,3.74,1.58,3.67,1.73,3.6,2,3.6,2.09,3.38,2.3,3.31,2.45,3.17,2.66,3,2.74,3,3,2.74,3,2.66,3.17,2.45,3.31,2.3,3.46,2.16,3.53,1.94,3.6,1.73,3.67,1.58,3.82,1.44,3.82,1.15,3.89,1,4,.79,4,.65,4,.43,4,.14h4l4-.22,4-.36,4-.65,4-.79,3.89-1,3.89-1.22,3.74-1.44,3.67-1.58,3.6-1.73,3.53-2,3.46-2.09,3.31-2.3,3.17-2.52Z" transform="translate(-197.9 -321.9)" fill="#ed1c24" fill-rule="evenodd"/>
  </g>
</svg>
