<?xml version="1.0" encoding="utf-8"?>
<svg version="1.1" id="Layer_1" xmlns="http://www.w3.org/2000/svg" xmlns:xlink="http://www.w3.org/1999/xlink" x="0px" y="0px"
	 width="99.9px" height="87.3px" viewBox="0 0 99.9 87.3" enable-background="new 0 0 99.9 87.3" xml:space="preserve">
<g id="symbolgrp">
	
		<polygon fill-rule="evenodd" clip-rule="evenodd" stroke="#000000" stroke-width="6.417859e-02" stroke-miterlimit="2.6131" points="
		99.5,83 52.5,1.5 52.2,1 51.8,0.7 51.4,0.4 50.9,0.2 50.5,0.1 50,0 49.5,0.1 49,0.2 48.5,0.4 48.1,0.7 47.8,1 47.5,1.5 0.4,83 
		0.2,83.4 0.1,83.9 0,84.4 0.1,84.9 0.2,85.4 0.4,85.9 0.7,86.3 1,86.6 1.5,86.9 1.9,87.1 2.4,87.3 2.9,87.3 97,87.3 97.5,87.3 
		98,87.1 98.5,86.9 98.9,86.6 99.2,86.3 99.5,85.9 99.7,85.4 99.9,84.9 99.9,84.4 99.9,83.9 99.7,83.4 99.5,83 	"/>
	
		<polygon fill-rule="evenodd" clip-rule="evenodd" fill="#FFF200" stroke="#000000" stroke-width="6.417859e-02" stroke-miterlimit="2.6131" points="
		50,9.1 91.6,81.3 8.3,81.3 50,9.1 	"/>
	<path fill-rule="evenodd" clip-rule="evenodd" stroke="#FFF200" stroke-width="0.8209" stroke-miterlimit="2.6131" d="M50,76.2
		c2.9,0,5.2-2.3,5.2-5.2s-2.3-5.2-5.2-5.2c-2.9,0-5.2,2.3-5.2,5.2S47.1,76.2,50,76.2L50,76.2z"/>
	<path fill-rule="evenodd" clip-rule="evenodd" stroke="#FFF200" stroke-width="1.368" stroke-miterlimit="2.6131" d="M50,26.6
		c4.2,0,8,3.8,7.5,7.5l-3.6,26.2c-0.3,2.3-1.8,4-4,4c-2.2,0-3.6-1.7-4-4l-3.6-26.2C42,30.4,45.8,26.6,50,26.6L50,26.6z"/>
</g>
</svg>
