<svg id="Layer_1" data-name="Layer 1" xmlns="http://www.w3.org/2000/svg" width="100.07" height="87.51" viewBox="0 0 100.07 87.51">
  <title>w002</title>
  <g id="symbolgrp">
    <polygon points="99.64 83.12 52.54 1.48 52.24 1.05 51.88 0.72 51.48 0.44 51.01 0.21 50.54 0.07 50.03 0.03 49.52 0.07 49.02 0.21 48.58 0.44 48.15 0.72 47.82 1.05 47.53 1.48 0.44 83.12 0.21 83.59 0.07 84.06 0.03 84.57 0.07 85.08 0.21 85.59 0.44 86.02 0.72 86.46 1.05 86.79 1.48 87.08 1.92 87.29 2.43 87.44 2.94 87.47 97.13 87.47 97.63 87.44 98.11 87.29 98.58 87.08 98.98 86.79 99.34 86.46 99.64 86.02 99.85 85.59 99.99 85.08 100.03 84.57 99.99 84.06 99.85 83.59 99.64 83.12 99.64 83.12" fill="#231f20" stroke="#231f20" stroke-miterlimit="2.61" stroke-width="0.07"/>
    <polygon points="50.03 9.14 91.76 81.49 8.31 81.49 50.03 9.14 50.03 9.14" fill="#fff200" stroke="#231f20" stroke-miterlimit="2.61" stroke-width="0.07"/>
    <polygon points="20.77 51.39 26.15 63.57 26.69 62.87 21.75 48.38 20.77 51.39 20.77 51.39" fill="#231f20"/>
    <polygon points="26.86 60.13 23.85 44.67 25.3 42.72 27.06 60.22 26.86 60.13 26.86 60.13" fill="#231f20"/>
    <polygon points="30.99 61.64 34.58 27.44 40.07 21.4 30.99 61.64 30.99 61.64" fill="#231f20"/>
    <polygon points="32.53 62.05 54.99 11.95 58.5 19.52 32.53 62.05 32.53 62.05" fill="#231f20"/>
    <polygon points="33.35 65.73 66.11 35.28 66.73 34.84 69.03 38.28 33.35 65.73 33.35 65.73" fill="#231f20"/>
    <polygon points="40.85 56 64.17 27.34 65.58 29.01 40.85 56 40.85 56" fill="#231f20"/>
    <polygon points="30.91 69.54 72.4 43.11 74.38 47.44 30.91 69.54 30.91 69.54" fill="#231f20"/>
    <polygon points="82.02 57.05 83.2 61.68 39.24 66.9 82.02 57.05 82.02 57.05" fill="#231f20"/>
    <polygon points="48.14 68.12 85.73 67.24 87.95 69.09 48.28 68.31 48.14 68.12 48.14 68.12" fill="#231f20"/>
    <path d="M36.53,69.32c1,.21,53.17,3,53.17,3L91.24,76Z" fill="#231f20"/>
    <path d="M36.95,72.5c1.23.31,46.57,9.4,46.57,9.4L80,85.61,37,72.5Z" fill="#231f20"/>
    <polygon points="35.43 73.91 60.58 86.26 54.5 86.26 34.41 74.74 35.43 73.91 35.43 73.91" fill="#231f20"/>
    <path d="M31.69,76a6.81,6.81,0,1,1-6.55-11.25c.09,0,0,.37.14.48a2.73,2.73,0,0,1,.26.21,1.27,1.27,0,0,1,.34.46,2.41,2.41,0,0,1-.12,1.84c-.21.4-.91.58-.74,1.12s.9.31,1.37.28c.22,0,.5-.25.7,0s.56.26.76.47.3.5.55.68.59.1.87.12a.69.69,0,0,1,.64.3,1,1,0,0,1,.08.9c-.17.24-.63.23-.86.47s-.5.63-.28.94.6.55.72,1a1.13,1.13,0,0,1,1.13-.17c.24.16.23.61.3,1s.47.39.63.71l.09.5Z" fill="#231f20"/>
    <path d="M27.84,66.57c0-.16-.14-.33-.07-.43.24-.34.56-.73,1-.57a4.77,4.77,0,0,0,.61.2c.33.07.66-.24,1,0s.46.15.68.27a.59.59,0,0,1,0,.94,3.57,3.57,0,0,1-.93.57.86.86,0,0,1-.62,0c-.24-.12-.31-.46-.6-.46a1.67,1.67,0,0,1-1.2-.27c-.08-.08,0-.28,0-.43l.14.18Z" fill="#231f20"/>
    <path d="M32.84,74.11a1.64,1.64,0,0,0-.09-.79c0-.11,0-.27,0-.31s.45-.1.66-.22,0-.24.09-.4a1.69,1.69,0,0,1,1.11-.23c.24,0,.31.35.57.4s.63.1.8.37A1.44,1.44,0,0,1,36.29,74c0,.11-.35.09-.53.15a3.09,3.09,0,0,0-1.2.76c-.12.12,0-.11-.06.08s-.26,0-.43-.06l-1.21-.82Z" fill="#231f20"/>
    <path d="M22.4,63.3c.28-.22.66-.44.94-.26a2.52,2.52,0,0,1,.63.83.42.42,0,0,1,0,.38c-.13.21-.38.18-.56.35s-.38.29-.5.19c-.37-.27-.84-.69-.64-1.19l.15-.31Z" fill="#231f20"/>
    <path d="M24.27,62.69c0-.24.28-.17.38-.34s.23-.17.32-.1c.29.21.73.47.54.83-.07.12-.13.31-.31.39v.12a1,1,0,0,1-.85-.16c-.16-.14-.11-.38,0-.59l-.05-.16Z" fill="#231f20"/>
    <path d="M22.5,60.48a.67.67,0,0,1,.19-.57s0-.15,0-.18c.29-.27.88-.81,1.2-.41s.38,1,.71,1.54-.43.77-.77.9c-.54.2-1-.44-1.21-.91l-.15-.36Z" fill="#231f20"/>
    <path d="M34.32,60.38c.16-.17.42-.06.56.08s0,.41.16.46a1.15,1.15,0,0,1,.73.77c.4,0,.21-.54.38-.8a.16.16,0,0,1,.19,0c.17.08.38,0,.5.09.3.24.11.76-.09,1.07-.09.14-.26.15-.42.15a.27.27,0,0,0-.21.17.84.84,0,0,1-1,.65L35,63c-.16.21-.19.5-.42.65s-.3-.17-.37-.32,0-.4-.11-.5-.5,0-.79.06c-.06,0-.18.06-.18,0-.05-.75.68-1.2.87-1.88a1.19,1.19,0,0,0,.05-.27l.24-.3Z" fill="#231f20"/>
    <path d="M42.41,70.79c.18.31.35.72.13,1a2.52,2.52,0,0,1-.91.5.42.42,0,0,1-.38-.05c-.19-.15-.13-.4-.28-.6s-.24-.41-.12-.54c.31-.33.79-.74,1.27-.5l.28.19Z" fill="#231f20"/>
    <path d="M40.66,65.62a1.08,1.08,0,0,1-.5,0c-.09,0-.2-.19-.27-.32s-.16-.05-.19-.11a.4.4,0,0,1,.17-.5c.34-.22.81-.21,1-.62a.79.79,0,0,1,.61.25,3.08,3.08,0,0,1,.32.78.31.31,0,0,1-.13.39,2.68,2.68,0,0,1-.74.15l-.23.05Z" fill="#231f20"/>
    <path d="M52.67,73.34v-.67c.5,0,1-.08,1.51,0,.11,0,.22.08.31.08a4.6,4.6,0,0,1,1.79.16,1.51,1.51,0,0,1,.59.5c.37.42.43.41.8.84-.44.13-.27.61-.72.69s-1-.27-1.48-.17a5.36,5.36,0,0,1-1.33.26,2.56,2.56,0,0,1-.62,0c-.21-.05-.23-.21-.46-.22a.19.19,0,0,1-.14-.14,1.22,1.22,0,0,0-.48-.77l.26-.56Z" fill="#231f20"/>
    <path d="M33.28,77.16l.12-.45c.33.11.69.12,1,.23.07,0,.14.09.2.11a3.19,3.19,0,0,1,1.18.41,1.07,1.07,0,0,1,.32.45c.18.35.22.35.4.71-.32,0-.29.37-.61.34s-.6-.35-1-.37a3.79,3.79,0,0,1-.95-.05c-.14-.05-.29,0-.42-.08s-.12-.18-.28-.23a.14.14,0,0,1-.07-.12.86.86,0,0,0-.19-.6l.27-.34Z" fill="#231f20"/>
    <path d="M50.43,78.19a2.23,2.23,0,0,1,1.38-.06c.46.09,3.4,1.63,3.86,1.76.82.24,1.7.07,2.42.54.31.2,1.21,2.27.69,2.44a10.52,10.52,0,0,1-1.57,0c-.28,0-1.06.5-1.3.5-.63.09-.68-1.6-1.32-1.7a1.94,1.94,0,0,1-1.09-.5c-.22-.23-3-1.67-3.18-2a1.17,1.17,0,0,0-.39-.43v-.14l.5-.46Z" fill="#231f20"/>
    <path d="M39.84,75.6a.5.5,0,0,1,.07-.39c.3-.31.77-.17,1.06-.48.37.17.88.22,1,.58s-.22.62-.15,1a7.17,7.17,0,0,1,.1,1.51,2.94,2.94,0,0,1-1.26-.15c-.4-.13-.91-.24-1.12-.68s.12-.54.34-.76l-.05-.61Z" fill="#231f20"/>
    <path d="M46.63,72.59c-.22-.16-.39-.33-.58-.5s0-.71.29-.7a2.41,2.41,0,0,1,.54.23c.2.08.39-.11.6-.06s.19.27.36.38.24.24.19.28c-.29.27-.69.5-.62,1-.22,0-.32-.21-.5-.29l-.29-.33Z" fill="#231f20"/>
    <path d="M27,58.15c.28,0,1.81-.47,2.06-.53,1.8-.43.5,1.22.78,1.3.11,0-1.13-.08-1.15.06-.06.53,1.33.75,1.41,1.25S28.75,61.47,28.58,62a.82.82,0,0,1-.45.43c0-.21-.27-.26-.36-.42S26.5,58.19,27,58.15Z" fill="#231f20"/>
    <path d="M31.33,54.33a1.6,1.6,0,0,1-1.43.19c-.15-.07-.33.17-.41.06L28.32,53a.32.32,0,0,1,0-.29c.19-.38.47-.68.68-1.06l.14-.12c.47-.42.22-1.08.38-1.61s.77-.44,1.18-.61c.12-.05.28-.22.34-.17.27.22.42.58.68.83s1,0,1.44.34a1.83,1.83,0,0,0-1,1.29,10,10,0,0,1-.23,1.63c0,.09-.14.13-.16.23a2.71,2.71,0,0,0,0,.35l-.4.5Z" fill="#231f20"/>
    <path d="M30.47,43a1.35,1.35,0,0,1-1.2.16c-.13-.06-.28.14-.35.05-.34-.45-.63-.85-1-1.3a.27.27,0,0,1,0-.25c.16-.32.4-.57.57-.89l.12-.1c.4-.36.18-.91.32-1.36s.65-.37,1-.5c.1,0,.24-.18.28-.14.23.19.35.5.57.7s.83,0,1.21.29a1.51,1.51,0,0,0-.87,1.09,8.3,8.3,0,0,1-.2,1.38c0,.07-.12.11-.13.19a2.17,2.17,0,0,0,0,.3l-.34.41Z" fill="#231f20"/>
    <path d="M35.71,49.29c.13-.13.31-.23.44-.13a1.16,1.16,0,0,1,.21,1.33c-.14.29-.68.26-1,.1s-.11-.42-.12-.69l.46-.61Z" fill="#231f20"/>
    <path d="M36.68,47.89c-.39-.16-.26-.64-.43-1-.09-.16-.32-.25-.22-.47s.55-.42.65-.69c.17-.5.32-1,.88-1.16a1.07,1.07,0,0,0,.46.72c.08.06-.12,0,0,.09s-.13,1.85-.06,1.85l-1.23.61Z" fill="#231f20"/>
    <path d="M26.48,48.61c-.39-.16-.26-.64-.43-1-.09-.16-.32-.25-.22-.47s.55-.42.65-.69c.17-.5.32-1,.88-1.16a1.08,1.08,0,0,0,.46.73c.08.06-.12,0,0,.09S27.65,48,27.72,48l-1.23.61Z" fill="#231f20"/>
    <path d="M40.76,52.12a.5.5,0,0,1,.2-.45c.13-.11.28,0,.42-.11s.31-.55.5-.77a.3.3,0,0,1,.5.15,8.32,8.32,0,0,1,0,1.18c0,.47-.5.62-.83.87s-.7-.14-.8-.5l0-.37Z" fill="#231f20"/>
    <path d="M31.83,64.38a.5.5,0,0,1,.2-.45c.13-.11.28,0,.42-.11s.31-.55.5-.77a.29.29,0,0,1,.5.15,8.22,8.22,0,0,1,0,1.19c0,.47-.5.62-.83.87s-.7-.14-.8-.5l0-.37Z" fill="#231f20"/>
    <path d="M60.68,58.62l-.5-.65c.5-.34.9-.82,1.4-1.16.11-.08.27-.09.35-.16a5.6,5.6,0,0,1,1.84-1.19,1.86,1.86,0,0,1,1,0c.68.12.73.07,1.41.21-.32.45.2.79-.18,1.21s-1.12.46-1.56.95a6.63,6.63,0,0,1-1.08,1.26c-.22.14-.32.39-.57.5s-.38,0-.61.14a.24.24,0,0,1-.24,0,1.51,1.51,0,0,0-1-.38l-.18-.74Z" fill="#231f20"/>
    <path d="M53.83,35.05l.42.7c.5-.35,1.09-.53,1.6-.88.11-.08.18-.22.28-.27a5.64,5.64,0,0,0,1.78-1.28,1.86,1.86,0,0,0,.31-.91c.13-.67.2-.7.32-1.39-.54.14-.67-.47-1.19-.28s-.84.88-1.45,1.11-1.3-.4-1.74-.09c-.21.15-.5.16-.68.35s-.11.36-.35.5a3.3,3.3,0,0,0,.12.88,1.51,1.51,0,0,1,0,1.1l.62.43Z" fill="#231f20"/>
    <path d="M44,27.24l.84.54c.36-.66.9-1.18,1.26-1.84.08-.14.07-.34.16-.45a6.87,6.87,0,0,0,1.25-2.38,2.28,2.28,0,0,0-.16-1.17c-.23-.8-.16-.87-.41-1.69-.5.45-1-.16-1.46.35s-.43,1.42-1,2-1.1.88-1.41,1.47c-.15.28-.44.44-.54.75s.08.45-.1.76a.29.29,0,0,0,.07.29,1.85,1.85,0,0,1,.58,1.22l.92.14Z" fill="#231f20"/>
    <path d="M51.9,52.89c.13-.13.31-.23.44-.13a1.16,1.16,0,0,1,.21,1.33c-.14.29-.68.26-1,.1s-.11-.41-.12-.69l.46-.61Z" fill="#231f20"/>
    <path d="M32.49,66.79c.23-.12.46.1.55.29s-.15.42,0,.53a5.58,5.58,0,0,0,1.36.42c.14.14.38.14.46.27.22.36-.17.82-.5,1.06-.15.11-.73,0-.77.09a4.37,4.37,0,0,1-2,.76c-.17,0-.25-.29-.26-.47s.17-.4.08-.55-.5-.18-.83-.23c-.07,0-.21,0-.18-.09.23-.78,1.14-1,1.6-1.6.06-.08.5-.47.5-.47Z" fill="#231f20"/>
    <polygon points="66.76 38.03 66.32 37.27 58.69 44.41 66.76 38.03 66.76 38.03" fill="#fff200"/>
    <polygon points="65.83 49.33 71.69 46.64 71.25 45.89 65.83 49.33 65.83 49.33" fill="#fff200"/>
    <polygon points="79.67 73.42 87.84 74.67 86.89 73.08 79.67 73.42 79.67 73.42" fill="#fff200"/>
    <polygon points="64.25 79.55 69.87 81.13 76.01 81.13 64.25 79.55 64.25 79.55" fill="#fff200"/>
    <polygon points="55.05 17.55 49.66 29.48 55.81 19.11 55.05 17.55 55.05 17.55" fill="#fff200"/>
  </g>
</svg>
