<svg id="Layer_1" data-name="Layer 1" xmlns="http://www.w3.org/2000/svg" width="100.07" height="88.07" viewBox="0 0 100.07 88.07">
  <title>w003</title>
  <g id="symbolgrp">
    <polygon points="99.64 83.65 52.54 1.49 52.24 1.06 51.88 0.73 51.48 0.44 51.01 0.22 50.54 0.07 50.03 0.03 49.52 0.07 49.02 0.22 48.58 0.44 48.15 0.73 47.82 1.06 47.53 1.49 0.44 83.65 0.21 84.13 0.07 84.6 0.03 85.11 0.07 85.62 0.21 86.14 0.44 86.57 0.72 87.01 1.05 87.34 1.48 87.63 1.92 87.85 2.43 88 2.94 88.03 97.13 88.03 97.63 88 98.11 87.85 98.58 87.63 98.98 87.34 99.34 87.01 99.64 86.57 99.85 86.14 99.99 85.62 100.03 85.11 99.99 84.6 99.85 84.13 99.64 83.65 99.64 83.65" stroke="#000" stroke-miterlimit="2.61" stroke-width="0.07"/>
    <polygon points="50.03 9.2 91.76 82.01 8.31 82.01 50.03 9.2 50.03 9.2" fill="#fff200" stroke="#000" stroke-miterlimit="2.61" stroke-width="0.07"/>
    <path d="M50,61.75a4,4,0,1,0-3.94-4,3.95,3.95,0,0,0,3.94,4Z"/>
    <path d="M30.15,57.79a20,20,0,0,1,9.94-17.31l6.65,11.6a6.6,6.6,0,0,0-3.28,5.72Z"/>
    <path d="M60,75.1a19.78,19.78,0,0,1-19.89,0l6.67-11.59a6.52,6.52,0,0,0,6.55,0L60,75.11Z"/>
    <path d="M60,40.48a20,20,0,0,1,9.94,17.31H56.6a6.6,6.6,0,0,0-3.29-5.71Z"/>
  </g>
</svg>
