<svg id="Layer_1" data-name="Layer 1" xmlns="http://www.w3.org/2000/svg" width="70.05mm" height="61.26mm" viewBox="0 0 198.56 173.65">
  <title>w004</title>
  <g id="symbolgrp">
    <polygon points="197.71 164.94 104.25 2.94 103.67 2.08 102.95 1.43 102.16 0.86 101.22 0.42 100.29 0.14 99.28 0.06 98.27 0.14 97.26 0.42 96.4 0.86 95.54 1.43 94.89 2.08 94.31 2.94 0.86 164.94 0.42 165.88 0.14 166.81 0.06 167.82 0.14 168.83 0.42 169.84 0.86 170.7 1.43 171.57 2.08 172.22 2.94 172.79 3.81 173.22 4.82 173.51 5.82 173.58 192.74 173.58 193.74 173.51 194.68 173.22 195.62 172.79 196.41 172.22 197.13 171.57 197.71 170.7 198.14 169.84 198.42 168.83 198.5 167.82 198.42 166.81 198.14 165.88 197.71 164.94 197.71 164.94" stroke="#000" stroke-miterlimit="2.61" stroke-width="0.13" fill-rule="evenodd"/>
    <polygon points="99.28 18.14 182.08 161.7 16.48 161.7 99.28 18.14 99.28 18.14" fill="#fff200" stroke="#000" stroke-miterlimit="2.61" stroke-width="0.13" fill-rule="evenodd"/>
    <path d="M297,461.13a13.51,13.51,0,1,0-13.52-13.5A13.51,13.51,0,0,0,297,461.13Z" transform="translate(-197.84 -334.19)" stroke="#000" stroke-miterlimit="2.61" stroke-width="0.22" fill-rule="evenodd"/>
    <polygon points="99.46 100.32 100.14 72.84 97.46 72.84 98.17 100.32 99.46 100.32 99.46 100.32" stroke="#000" stroke-miterlimit="2.61" stroke-width="1.5" fill-rule="evenodd"/>
    <path d="M298,407a3.23,3.23,0,0,0-1.37-.3,3.09,3.09,0,0,0-1.34.32l2.71,0Z" transform="translate(-197.84 -334.19)" fill-rule="evenodd"/>
    <path d="M298,407a3.23,3.23,0,0,0-1.37-.3,3.09,3.09,0,0,0-1.34.32" transform="translate(-197.84 -334.19)" fill="none" stroke="#000" stroke-miterlimit="2.61" stroke-width="1.5"/>
    <polygon points="93.08 101.73 79.92 77.59 77.6 78.93 91.97 102.37 93.08 101.73 93.08 101.73" stroke="#000" stroke-miterlimit="2.61" stroke-width="1.5" fill-rule="evenodd"/>
    <path d="M277.78,411.75a3.21,3.21,0,0,0-1.34.42,3.08,3.08,0,0,0-1,.94l2.34-1.36Z" transform="translate(-197.84 -334.19)" fill-rule="evenodd"/>
    <path d="M277.78,411.75a3.21,3.21,0,0,0-1.34.42,3.08,3.08,0,0,0-1,.94" transform="translate(-197.84 -334.19)" fill="none" stroke="#000" stroke-miterlimit="2.61" stroke-width="1.5"/>
    <polygon points="88.17 106.21 64.69 91.87 63.35 94.19 87.53 107.32 88.17 106.21 88.17 106.21" stroke="#000" stroke-miterlimit="2.61" stroke-width="1.5" fill-rule="evenodd"/>
    <path d="M262.53,426a3.21,3.21,0,0,0-.95,1,3.06,3.06,0,0,0-.39,1.32l1.34-2.35Z" transform="translate(-197.84 -334.19)" fill-rule="evenodd"/>
    <path d="M262.53,426a3.21,3.21,0,0,0-.95,1,3.06,3.06,0,0,0-.39,1.32" transform="translate(-197.84 -334.19)" fill="none" stroke="#000" stroke-miterlimit="2.61" stroke-width="1.5"/>
    <polygon points="85.94 112.46 58.43 111.77 58.43 114.45 85.94 113.74 85.94 112.46 85.94 112.46" stroke="#000" stroke-miterlimit="2.61" stroke-width="1.5" fill-rule="evenodd"/>
    <path d="M256.26,445.93a3.22,3.22,0,0,0-.3,1.37,3.1,3.1,0,0,0,.32,1.34l0-2.7Z" transform="translate(-197.84 -334.19)" fill-rule="evenodd"/>
    <path d="M256.26,445.93a3.22,3.22,0,0,0-.3,1.37,3.1,3.1,0,0,0,.32,1.34" transform="translate(-197.84 -334.19)" fill="none" stroke="#000" stroke-miterlimit="2.61" stroke-width="1.5"/>
    <polygon points="87.19 119.03 63.02 132.17 64.37 134.49 87.83 120.13 87.19 119.03 87.19 119.03" stroke="#000" stroke-miterlimit="2.61" stroke-width="1.5" fill-rule="evenodd"/>
    <path d="M260.84,466.34a3.2,3.2,0,0,0,.42,1.33,3,3,0,0,0,.95,1l-1.37-2.33Z" transform="translate(-197.84 -334.19)" fill-rule="evenodd"/>
    <path d="M260.84,466.34a3.2,3.2,0,0,0,.42,1.33,3,3,0,0,0,.95,1" transform="translate(-197.84 -334.19)" fill="none" stroke="#000" stroke-miterlimit="2.61" stroke-width="1.5"/>
    <polygon points="91.67 124.31 77.32 147.76 79.64 149.1 92.78 124.95 91.67 124.31 91.67 124.31" stroke="#000" stroke-miterlimit="2.61" stroke-width="1.5" fill-rule="evenodd"/>
    <path d="M275.13,482a3.23,3.23,0,0,0,1,.95,3.08,3.08,0,0,0,1.32.39L275.13,482Z" transform="translate(-197.84 -334.19)" fill-rule="evenodd"/>
    <path d="M275.13,482a3.23,3.23,0,0,0,1,.95,3.08,3.08,0,0,0,1.32.39" transform="translate(-197.84 -334.19)" fill="none" stroke="#000" stroke-miterlimit="2.61" stroke-width="1.36"/>
    <polygon points="98.23 126.61 97.54 154.09 100.22 154.09 99.51 126.61 98.23 126.61 98.23 126.61" stroke="#000" stroke-miterlimit="2.61" stroke-width="1.5" fill-rule="evenodd"/>
    <path d="M296.64,484.57a2.84,2.84,0,0,0,1.22.27,2.74,2.74,0,0,0,1.19-.28Z" transform="translate(-197.84 -334.19)" fill-rule="evenodd"/>
    <path d="M296.64,484.57a2.84,2.84,0,0,0,1.22.27,2.74,2.74,0,0,0,1.19-.28" transform="translate(-197.84 -334.19)" fill="none" stroke="#000" stroke-miterlimit="2.61" stroke-width="1.21"/>
    <polygon points="105.15 125.17 118.3 149.32 120.62 147.98 106.25 124.53 105.15 125.17 105.15 125.17" stroke="#000" stroke-miterlimit="2.61" stroke-width="1.5" fill-rule="evenodd"/>
    <path d="M316.13,483.53a3.24,3.24,0,0,0,1.34-.42,3.08,3.08,0,0,0,1-.94l-2.33,1.37Z" transform="translate(-197.84 -334.19)" fill-rule="evenodd"/>
    <path d="M316.13,483.53a3.24,3.24,0,0,0,1.34-.42,3.08,3.08,0,0,0,1-.94" transform="translate(-197.84 -334.19)" fill="none" stroke="#000" stroke-miterlimit="2.61" stroke-width="1.36"/>
    <polygon points="110.4 120.36 133.87 134.7 135.22 132.38 111.04 119.25 110.4 120.36 110.4 120.36" stroke="#000" stroke-miterlimit="2.61" stroke-width="1.5" fill-rule="evenodd"/>
    <path d="M331.72,468.91a3.25,3.25,0,0,0,.95-1,3.13,3.13,0,0,0,.39-1.32l-1.34,2.35Z" transform="translate(-197.84 -334.19)" fill-rule="evenodd"/>
    <path d="M331.72,468.91a3.25,3.25,0,0,0,.95-1,3.13,3.13,0,0,0,.39-1.32" transform="translate(-197.84 -334.19)" fill="none" stroke="#000" stroke-miterlimit="2.61" stroke-width="1.5"/>
    <polygon points="110.65 106.97 134.82 93.82 133.48 91.51 110.01 105.86 110.65 106.97 110.65 106.97" stroke="#000" stroke-miterlimit="2.61" stroke-width="1.5" fill-rule="evenodd"/>
    <path d="M332.69,428a3.21,3.21,0,0,0-.42-1.34,3.06,3.06,0,0,0-.95-1l1.37,2.33Z" transform="translate(-197.84 -334.19)" fill-rule="evenodd"/>
    <path d="M332.69,428a3.21,3.21,0,0,0-.42-1.34,3.06,3.06,0,0,0-.95-1" transform="translate(-197.84 -334.19)" fill="none" stroke="#000" stroke-miterlimit="2.61" stroke-width="1.5"/>
    <polygon points="105.91 102.14 120.26 78.69 117.94 77.35 104.8 101.5 105.91 102.14 105.91 102.14" stroke="#000" stroke-miterlimit="2.61" stroke-width="1.5" fill-rule="evenodd"/>
    <path d="M318.13,412.87a3.2,3.2,0,0,0-1-.95,3.07,3.07,0,0,0-1.32-.39l2.35,1.34Z" transform="translate(-197.84 -334.19)" fill-rule="evenodd"/>
    <path d="M318.13,412.87a3.2,3.2,0,0,0-1-.95,3.07,3.07,0,0,0-1.32-.39" transform="translate(-197.84 -334.19)" fill="none" stroke="#000" stroke-miterlimit="2.61" stroke-width="1.5"/>
    <polygon points="102.7 100.52 106.68 87.39 104.84 86.9 101.77 100.27 102.7 100.52 102.7 100.52" stroke="#000" stroke-miterlimit="2.61" stroke-width="1.5" fill-rule="evenodd"/>
    <path d="M304.54,421.54a1.94,1.94,0,0,0-1.88-.46l1.88.46Z" transform="translate(-197.84 -334.19)" fill-rule="evenodd"/>
    <path d="M304.54,421.54a1.94,1.94,0,0,0-1.88-.46" transform="translate(-197.84 -334.19)" fill="none" stroke="#000" stroke-miterlimit="2.61" stroke-width="1.5"/>
    <polygon points="95.95 100.47 92.87 87.12 91.04 87.61 95.01 100.72 95.95 100.47 95.95 100.47" stroke="#000" stroke-miterlimit="2.61" stroke-width="1.5" fill-rule="evenodd"/>
    <path d="M290.71,421.26a1.94,1.94,0,0,0-1.86.54l1.86-.54Z" transform="translate(-197.84 -334.19)" fill-rule="evenodd"/>
    <path d="M290.71,421.26a1.94,1.94,0,0,0-1.86.54" transform="translate(-197.84 -334.19)" fill="none" stroke="#000" stroke-miterlimit="2.61" stroke-width="1.5"/>
    <polygon points="90.03 103.59 80.72 93.53 79.38 94.88 89.34 104.28 90.03 103.59 90.03 103.59" stroke="#000" stroke-miterlimit="2.61" stroke-width="1.5" fill-rule="evenodd"/>
    <path d="M278.54,427.68a1.93,1.93,0,0,0-1.34,1.39l1.34-1.39Z" transform="translate(-197.84 -334.19)" fill-rule="evenodd"/>
    <path d="M278.54,427.68a1.93,1.93,0,0,0-1.34,1.39" transform="translate(-197.84 -334.19)" fill="none" stroke="#000" stroke-miterlimit="2.61" stroke-width="1.5"/>
    <polygon points="86.46 109.23 73.29 105.25 72.8 107.09 86.21 110.16 86.46 109.23 86.46 109.23" stroke="#000" stroke-miterlimit="2.61" stroke-width="1.5" fill-rule="evenodd"/>
    <path d="M271.09,439.42a1.94,1.94,0,0,0-.46,1.88l.46-1.88Z" transform="translate(-197.84 -334.19)" fill-rule="evenodd"/>
    <path d="M271.09,439.42a1.94,1.94,0,0,0-.46,1.88" transform="translate(-197.84 -334.19)" fill="none" stroke="#000" stroke-miterlimit="2.61" stroke-width="1.5"/>
    <polygon points="86.01 115.96 72.61 119.12 73.11 120.95 86.26 116.89 86.01 115.96 86.01 115.96" stroke="#000" stroke-miterlimit="2.61" stroke-width="1.5" fill-rule="evenodd"/>
    <path d="M270.41,453.3a1.94,1.94,0,0,0,.54,1.86l-.54-1.86Z" transform="translate(-197.84 -334.19)" fill-rule="evenodd"/>
    <path d="M270.41,453.3a1.94,1.94,0,0,0,.54,1.86" transform="translate(-197.84 -334.19)" fill="none" stroke="#000" stroke-miterlimit="2.61" stroke-width="1.5"/>
    <polygon points="89 122.14 78.97 131.61 80.32 132.94 89.69 122.82 89 122.14 89 122.14" stroke="#000" stroke-miterlimit="2.61" stroke-width="1.5" fill-rule="evenodd"/>
    <path d="M276.77,465.82a1.93,1.93,0,0,0,1.4,1.34l-1.4-1.34Z" transform="translate(-197.84 -334.19)" fill-rule="evenodd"/>
    <path d="M276.77,465.82a1.93,1.93,0,0,0,1.4,1.34" transform="translate(-197.84 -334.19)" fill="none" stroke="#000" stroke-miterlimit="2.61" stroke-width="1.5"/>
    <polygon points="94.85 126.14 90.87 139.26 92.7 139.75 95.78 126.39 94.85 126.14 94.85 126.14" stroke="#000" stroke-miterlimit="2.61" stroke-width="1.5" fill-rule="evenodd"/>
    <path d="M288.68,473.49a1.94,1.94,0,0,0,1.88.46l-1.88-.46Z" transform="translate(-197.84 -334.19)" fill-rule="evenodd"/>
    <path d="M288.68,473.49a1.94,1.94,0,0,0,1.88.46" transform="translate(-197.84 -334.19)" fill="none" stroke="#000" stroke-miterlimit="2.61" stroke-width="1.5"/>
    <polygon points="101.98 126.55 105.14 139.93 106.97 139.43 102.91 126.3 101.98 126.55 101.98 126.55" stroke="#000" stroke-miterlimit="2.61" stroke-width="1.5" fill-rule="evenodd"/>
    <path d="M303,474.16a2,2,0,0,0,1,0,1.91,1.91,0,0,0,.89-.53l-1.86.54Z" transform="translate(-197.84 -334.19)" fill-rule="evenodd"/>
    <path d="M303,474.16a2,2,0,0,0,1,0,1.91,1.91,0,0,0,.89-.53" transform="translate(-197.84 -334.19)" fill="none" stroke="#000" stroke-miterlimit="2.61" stroke-width="1.5"/>
    <polygon points="108.31 123.22 117.73 133.25 119.07 131.9 109 122.53 108.31 123.22 108.31 123.22" stroke="#000" stroke-miterlimit="2.61" stroke-width="1.5" fill-rule="evenodd"/>
    <path d="M315.59,467.47a1.94,1.94,0,0,0,1.34-1.4l-1.34,1.4Z" transform="translate(-197.84 -334.19)" fill-rule="evenodd"/>
    <path d="M315.59,467.47a1.94,1.94,0,0,0,1.34-1.4" transform="translate(-197.84 -334.19)" fill="none" stroke="#000" stroke-miterlimit="2.61" stroke-width="1.5"/>
    <polygon points="112.03 117.1 125.22 121.08 125.71 119.24 112.28 116.17 112.03 117.1 112.03 117.1" stroke="#000" stroke-miterlimit="2.61" stroke-width="1.5" fill-rule="evenodd"/>
    <path d="M323.1,455.29a2,2,0,0,0,.46-1.88l-.46,1.88Z" transform="translate(-197.84 -334.19)" fill-rule="evenodd"/>
    <path d="M323.1,455.29a2,2,0,0,0,.46-1.88" transform="translate(-197.84 -334.19)" fill="none" stroke="#000" stroke-miterlimit="2.61" stroke-width="1.5"/>
    <polygon points="112.13 109.97 125.5 106.88 125 105.04 111.88 109.04 112.13 109.97 112.13 109.97" stroke="#000" stroke-miterlimit="2.61" stroke-width="1.5" fill-rule="evenodd"/>
    <path d="M323.38,441.06a1.94,1.94,0,0,0-.54-1.86l.54,1.86Z" transform="translate(-197.84 -334.19)" fill-rule="evenodd"/>
    <path d="M323.38,441.06a1.94,1.94,0,0,0-.54-1.86" transform="translate(-197.84 -334.19)" fill="none" stroke="#000" stroke-miterlimit="2.61" stroke-width="1.5"/>
    <polygon points="108.6 103.97 118.62 94.58 117.28 93.24 107.91 103.29 108.6 103.97 108.6 103.97" stroke="#000" stroke-miterlimit="2.61" stroke-width="1.5" fill-rule="evenodd"/>
    <path d="M316.5,428.74a1.92,1.92,0,0,0-.49-.83,1.89,1.89,0,0,0-.9-.51l1.39,1.34Z" transform="translate(-197.84 -334.19)" fill-rule="evenodd"/>
    <path d="M316.5,428.74a1.92,1.92,0,0,0-.49-.83,1.89,1.89,0,0,0-.9-.51" transform="translate(-197.84 -334.19)" fill="none" stroke="#000" stroke-miterlimit="2.61" stroke-width="1.5"/>
    <line x1="109.09" y1="113" x2="159.93" y2="113" fill="none" stroke="#000" stroke-miterlimit="2.61" stroke-width="3.94"/>
  </g>
</svg>
