<svg id="Layer_1" data-name="Layer 1" xmlns="http://www.w3.org/2000/svg" width="70.05mm" height="61.26mm" viewBox="0 0 198.56 173.65">
  <title>w006</title>
  <g id="symbolgrp">
    <polygon points="197.71 164.94 104.25 2.94 103.67 2.08 102.95 1.43 102.16 0.86 101.22 0.42 100.29 0.14 99.28 0.06 98.27 0.14 97.26 0.42 96.4 0.86 95.54 1.43 94.89 2.08 94.31 2.94 0.86 164.94 0.42 165.88 0.14 166.81 0.06 167.82 0.14 168.83 0.42 169.84 0.86 170.7 1.43 171.57 2.08 172.22 2.94 172.79 3.81 173.22 4.82 173.51 5.82 173.58 192.74 173.58 193.74 173.51 194.68 173.22 195.62 172.79 196.41 172.22 197.13 171.57 197.71 170.7 198.14 169.84 198.42 168.83 198.5 167.82 198.42 166.81 198.14 165.88 197.71 164.94 197.71 164.94" stroke="#000" stroke-miterlimit="2.61" stroke-width="0.13" fill-rule="evenodd"/>
    <polygon points="99.28 18.14 182.08 161.7 16.48 161.7 99.28 18.14 99.28 18.14" fill="#fff200" stroke="#000" stroke-miterlimit="2.61" stroke-width="0.13" fill-rule="evenodd"/>
    <path d="M297.36,401.9c-17.48,0-24.26,8.14-27.1,14.86-1.95,4.6-1.59,13.09-1.59,13.09l5,57.32h15.94s-5-48.48-6.38-57c-1.77-16.27,11-16.28,14.17-16.27s15.94,0,14.17,16.27c-1.42,8.49-6.37,57-6.37,57h15.94l5-57.32s.35-8.49-1.59-13.09c-2.83-6.72-9.61-14.86-27.09-14.86Z" transform="translate(-197.84 -334.19)" fill-rule="evenodd"/>
    <polygon points="121.41 151.18 123.08 134.03 111.15 134.03 109.37 151.18 121.41 151.18 121.41 151.18" fill="#fff200" fill-rule="evenodd"/>
    <polygon points="77.63 151.18 76.13 134.06 88.06 134.06 89.67 151.18 77.63 151.18 77.63 151.18" fill="#fff200" fill-rule="evenodd"/>
    <path d="M328.86,466a32,32,0,0,1,.67,20.26M336.32,466a32,32,0,0,1,.67,20.26m-71-20.26a32,32,0,0,0-.67,20.26M258.49,466a32,32,0,0,0-.67,20.26" transform="translate(-197.84 -334.19)" fill="none" stroke="#000" stroke-miterlimit="2.61" stroke-width="3.15"/>
  </g>
</svg>
