<svg id="Layer_1" data-name="Layer 1" xmlns="http://www.w3.org/2000/svg" width="70mm" height="61.14mm" viewBox="0 0 198.42 173.3">
  <title>w007</title>
  <g id="symbolgrp">
    <polygon points="181.94 161.42 99.21 18.14 16.49 161.42 181.94 161.42 181.94 161.42" fill="#fff200" fill-rule="evenodd"/>
    <path d="M379.85,495.78,297.12,352.5,214.4,495.78Zm10.8,11.88a5.64,5.64,0,0,0,5.69-5.62,6,6,0,0,0-.94-3.17l-93.6-162a5.56,5.56,0,0,0-4.68-2.52,5.78,5.78,0,0,0-4.75,2.52l-93.52,162a6,6,0,0,0-.94,3.17,5.64,5.64,0,0,0,5.69,5.62Z" transform="translate(-197.91 -334.36)" fill-rule="evenodd"/>
    <polygon points="80.53 142.6 80.53 152.87 120.53 152.87 120.53 142.6 80.53 142.6 80.53 142.6" fill-rule="evenodd"/>
    <polygon points="109.84 113.97 120.9 125.91 116.1 130.37 105.04 118.43 109.84 113.97 109.84 113.97" fill-rule="evenodd"/>
    <polygon points="118.63 103.95 110.24 117.89 104.64 114.51 113.02 100.57 118.63 103.95 118.63 103.95" fill-rule="evenodd"/>
    <polygon points="118.85 101.02 91.18 112.4 85.48 98.56 113.16 87.17 118.85 101.02 118.85 101.02" fill-rule="evenodd"/>
    <polygon points="91.46 132.41 75.44 145.31 70.74 139.48 86.78 126.59 91.46 132.41 91.46 132.41" fill-rule="evenodd"/>
    <polygon points="76.29 115.78 55.76 114.64 55.34 122.11 75.87 123.25 76.29 115.78 76.29 115.78" fill-rule="evenodd"/>
    <polygon points="92.85 129.61 93.5 109.05 86.02 108.81 85.37 129.38 92.85 129.61 92.85 129.61" fill-rule="evenodd"/>
    <polygon points="90.08 103.98 79.27 121.47 72.9 117.54 83.73 100.04 90.08 103.98 90.08 103.98" fill-rule="evenodd"/>
    <polygon points="111.79 85.59 108.48 91.24 94.45 83 97.76 77.35 111.79 85.59 111.79 85.59" fill-rule="evenodd"/>
    <polygon points="94.79 77.18 79.87 83.66 82.48 89.65 97.41 83.18 94.79 77.18 94.79 77.18" fill-rule="evenodd"/>
    <polygon points="113.41 88.42 113.38 87.98 113.3 87.57 113.16 87.17 112.96 86.78 112.73 86.43 112.45 86.1 112.13 85.82 111.77 85.58 111.39 85.39 110.98 85.25 110.57 85.17 110.14 85.14 109.7 85.17 109.29 85.25 108.88 85.39 108.5 85.58 108.14 85.82 107.82 86.1 107.54 86.43 107.29 86.78 107.11 87.17 106.97 87.57 106.89 87.98 106.86 88.42 106.89 88.85 106.97 89.27 107.11 89.67 107.29 90.05 107.54 90.41 107.82 90.73 108.14 91.01 108.5 91.26 108.88 91.44 109.29 91.58 109.7 91.66 110.14 91.69 110.57 91.66 110.98 91.58 111.39 91.44 111.77 91.26 112.13 91.01 112.45 90.73 112.73 90.41 112.96 90.05 113.16 89.67 113.3 89.27 113.38 88.85 113.41 88.42 113.41 88.42" fill-rule="evenodd"/>
    <polygon points="99.38 80.17 99.35 79.74 99.26 79.32 99.14 78.92 98.94 78.54 98.7 78.18 98.42 77.86 98.1 77.58 97.75 77.35 97.36 77.15 96.96 77.01 96.54 76.93 96.11 76.9 95.67 76.93 95.26 77.01 94.86 77.15 94.47 77.35 94.11 77.58 93.79 77.86 93.51 78.18 93.27 78.54 93.08 78.92 92.94 79.32 92.86 79.74 92.83 80.17 92.86 80.6 92.94 81.02 93.08 81.42 93.27 81.81 93.51 82.16 93.79 82.49 94.11 82.77 94.47 83.01 94.86 83.2 95.26 83.34 95.67 83.42 96.11 83.45 96.54 83.42 96.96 83.34 97.36 83.2 97.75 83.01 98.1 82.77 98.42 82.49 98.7 82.16 98.94 81.81 99.14 81.42 99.26 81.02 99.35 80.6 99.38 80.17 99.38 80.17" fill-rule="evenodd"/>
    <polygon points="84.46 86.66 84.43 86.22 84.34 85.81 84.2 85.41 84.01 85.02 83.78 84.67 83.5 84.34 83.18 84.06 82.82 83.82 82.44 83.63 82.03 83.49 81.6 83.42 81.18 83.38 80.75 83.42 80.33 83.49 79.93 83.63 79.55 83.82 79.19 84.06 78.87 84.34 78.59 84.67 78.34 85.02 78.16 85.41 78.02 85.81 77.94 86.22 77.91 86.66 77.94 87.09 78.02 87.51 78.16 87.91 78.34 88.29 78.59 88.65 78.87 88.97 79.19 89.25 79.55 89.5 79.93 89.68 80.33 89.82 80.75 89.9 81.18 89.93 81.6 89.9 82.03 89.82 82.44 89.68 82.82 89.5 83.18 89.25 83.5 88.97 83.78 88.65 84.01 88.29 84.2 87.91 84.34 87.51 84.43 87.09 84.46 86.66 84.46 86.66" fill-rule="evenodd"/>
    <polygon points="121.77 128.13 121.74 127.71 121.66 127.3 121.52 126.88 121.34 126.49 121.09 126.14 120.81 125.83 120.49 125.54 120.13 125.3 119.75 125.12 119.34 124.98 118.93 124.89 118.49 124.86 118.08 124.89 117.64 124.98 117.24 125.12 116.86 125.3 116.5 125.54 116.19 125.83 115.9 126.14 115.67 126.49 115.48 126.88 115.34 127.3 115.25 127.71 115.22 128.13 115.25 128.56 115.34 128.98 115.48 129.4 115.67 129.77 115.9 130.12 116.19 130.45 116.5 130.74 116.86 130.97 117.24 131.16 117.64 131.29 118.08 131.39 118.49 131.4 118.93 131.39 119.34 131.29 119.75 131.16 120.13 130.97 120.49 130.74 120.81 130.45 121.09 130.12 121.34 129.77 121.52 129.4 121.66 128.98 121.74 128.56 121.77 128.13 121.77 128.13" fill-rule="evenodd"/>
    <polygon points="110.71 116.19 110.68 115.78 110.6 115.36 110.46 114.94 110.27 114.56 110.03 114.2 109.75 113.89 109.42 113.6 109.07 113.37 108.68 113.18 108.28 113.05 107.86 112.95 107.43 112.92 107.01 112.95 106.58 113.05 106.18 113.18 105.79 113.37 105.44 113.6 105.13 113.89 104.84 114.2 104.6 114.56 104.42 114.94 104.28 115.36 104.19 115.78 104.16 116.19 104.19 116.63 104.28 117.04 104.42 117.46 104.6 117.83 104.84 118.2 105.13 118.51 105.44 118.8 105.79 119.04 106.18 119.22 106.58 119.36 107.01 119.45 107.43 119.47 107.86 119.45 108.28 119.36 108.68 119.22 109.07 119.04 109.42 118.8 109.75 118.51 110.03 118.2 110.27 117.83 110.46 117.46 110.6 117.04 110.68 116.63 110.71 116.19 110.71 116.19" fill-rule="evenodd"/>
    <polygon points="119.1 102.25 119.06 101.83 118.99 101.42 118.85 101 118.66 100.62 118.42 100.26 118.14 99.94 117.81 99.66 117.46 99.43 117.07 99.24 116.67 99.1 116.25 99.01 115.82 98.98 115.4 99.01 114.97 99.1 114.57 99.24 114.18 99.43 113.83 99.66 113.5 99.94 113.22 100.26 112.99 100.62 112.81 101 112.67 101.42 112.58 101.83 112.55 102.25 112.58 102.68 112.67 103.1 112.81 103.52 112.99 103.89 113.22 104.24 113.5 104.57 113.83 104.86 114.18 105.09 114.57 105.28 114.97 105.42 115.4 105.51 115.82 105.53 116.25 105.51 116.67 105.42 117.07 105.28 117.46 105.09 117.81 104.86 118.14 104.57 118.42 104.24 118.66 103.89 118.85 103.52 118.99 103.1 119.06 102.68 119.1 102.25 119.1 102.25" fill-rule="evenodd"/>
    <polygon points="130.34 90.89 130.31 90.29 130.22 89.68 130.09 89.1 129.9 88.53 129.65 87.97 129.35 87.44 129.01 86.95 128.63 86.49 128.19 86.06 127.73 85.67 127.24 85.33 126.71 85.04 126.16 84.79 125.58 84.59 125 84.47 124.39 84.37 123.79 84.34 123.19 84.37 122.59 84.47 122 84.59 121.43 84.79 120.87 85.04 120.35 85.33 119.85 85.67 119.37 86.06 118.96 86.49 118.57 86.95 118.23 87.44 117.94 87.97 117.69 88.53 117.49 89.1 117.35 89.68 117.27 90.29 117.24 90.89 117.27 91.49 117.35 92.09 117.49 92.68 117.69 93.25 117.94 93.81 118.23 94.33 118.57 94.84 118.96 95.3 119.37 95.74 119.85 96.12 120.35 96.46 120.87 96.75 121.43 97 122 97.19 122.59 97.33 123.19 97.4 123.79 97.43 124.39 97.4 125 97.33 125.58 97.19 126.16 97 126.71 96.75 127.24 96.46 127.73 96.12 128.19 95.74 128.63 95.3 129.01 94.84 129.35 94.33 129.65 93.81 129.9 93.25 130.09 92.68 130.22 92.09 130.31 91.49 130.34 90.89 130.34 90.89" fill-rule="evenodd"/>
    <polygon points="59.28 118.37 59.25 117.92 59.17 117.48 59.05 117.04 58.86 116.64 58.61 116.26 58.34 115.9 58.03 115.58 57.67 115.3 57.28 115.07 56.87 114.88 56.44 114.74 55.99 114.67 55.54 114.64 55.09 114.67 54.64 114.74 54.21 114.88 53.81 115.07 53.42 115.3 53.07 115.58 52.74 115.9 52.47 116.26 52.23 116.64 52.05 117.04 51.91 117.48 51.83 117.92 51.8 118.37 51.83 118.82 51.91 119.27 52.05 119.7 52.23 120.12 52.47 120.5 52.74 120.86 53.07 121.18 53.42 121.46 53.81 121.69 54.21 121.88 54.64 122 55.09 122.09 55.54 122.11 55.99 122.09 56.44 122 56.87 121.88 57.28 121.69 57.67 121.46 58.03 121.18 58.34 120.86 58.61 120.5 58.86 120.12 59.05 119.7 59.17 119.27 59.25 118.82 59.28 118.37 59.28 118.37" fill-rule="evenodd"/>
    <polygon points="76.83 142.4 76.8 141.95 76.72 141.5 76.58 141.07 76.39 140.65 76.16 140.27 75.89 139.91 75.56 139.6 75.2 139.32 74.82 139.09 74.42 138.91 73.98 138.77 73.54 138.69 73.09 138.66 72.64 138.69 72.19 138.77 71.76 138.91 71.34 139.09 70.96 139.32 70.6 139.6 70.29 139.91 70.02 140.27 69.77 140.65 69.58 141.07 69.46 141.5 69.37 141.95 69.35 142.4 69.37 142.84 69.46 143.29 69.58 143.72 69.77 144.14 70.02 144.53 70.29 144.88 70.6 145.19 70.96 145.47 71.34 145.72 71.76 145.9 72.19 146.03 72.64 146.12 73.09 146.13 73.54 146.12 73.98 146.03 74.42 145.9 74.82 145.72 75.2 145.47 75.56 145.19 75.89 144.88 76.16 144.53 76.39 144.14 76.58 143.72 76.72 143.29 76.8 142.84 76.83 142.4 76.83 142.4" fill-rule="evenodd"/>
    <polygon points="93.5 108.94 93.47 108.49 93.39 108.04 93.25 107.61 93.06 107.19 92.83 106.81 92.56 106.45 92.23 106.13 91.87 105.85 91.49 105.62 91.07 105.43 90.65 105.31 90.21 105.22 89.76 105.2 89.29 105.22 88.86 105.31 88.43 105.43 88.01 105.62 87.63 105.85 87.27 106.13 86.95 106.45 86.67 106.81 86.44 107.19 86.25 107.61 86.13 108.04 86.03 108.49 86 108.94 86.03 109.39 86.13 109.83 86.25 110.27 86.44 110.67 86.67 111.05 86.95 111.41 87.27 111.73 87.63 112.01 88.01 112.24 88.43 112.43 88.86 112.57 89.29 112.64 89.76 112.67 90.21 112.64 90.65 112.57 91.07 112.43 91.49 112.24 91.87 112.01 92.23 111.73 92.56 111.41 92.83 111.05 93.06 110.67 93.25 110.27 93.39 109.83 93.47 109.39 93.5 108.94 93.5 108.94" fill-rule="evenodd"/>
    <polygon points="90.65 102.02 90.62 101.56 90.55 101.12 90.41 100.69 90.22 100.28 89.99 99.89 89.71 99.53 89.39 99.21 89.03 98.93 88.64 98.7 88.23 98.52 87.8 98.38 87.36 98.3 86.9 98.27 86.45 98.3 86.02 98.38 85.59 98.52 85.17 98.7 84.78 98.93 84.43 99.21 84.1 99.53 83.83 99.89 83.59 100.28 83.41 100.69 83.27 101.12 83.19 101.56 83.16 102.02 83.19 102.47 83.27 102.92 83.41 103.35 83.59 103.75 83.83 104.14 84.1 104.49 84.43 104.81 84.78 105.09 85.17 105.33 85.59 105.51 86.02 105.65 86.45 105.73 86.9 105.76 87.36 105.73 87.8 105.65 88.23 105.51 88.64 105.33 89.03 105.09 89.39 104.81 89.71 104.49 89.99 104.14 90.22 103.75 90.41 103.35 90.55 102.92 90.62 102.47 90.65 102.02 90.65 102.02" fill-rule="evenodd"/>
    <polygon points="79.83 119.51 79.79 119.07 79.72 118.62 79.58 118.19 79.39 117.77 79.16 117.38 78.88 117.03 78.56 116.72 78.2 116.43 77.82 116.19 77.42 116.01 76.98 115.89 76.53 115.79 76.09 115.78 75.64 115.79 75.19 115.89 74.76 116.01 74.34 116.19 73.95 116.43 73.6 116.72 73.29 117.03 73.01 117.38 72.77 117.77 72.58 118.19 72.46 118.62 72.36 119.07 72.35 119.51 72.36 119.96 72.46 120.41 72.58 120.84 72.77 121.24 73.01 121.63 73.29 122 73.6 122.31 73.95 122.59 74.34 122.82 74.76 123 75.19 123.14 75.64 123.22 76.09 123.25 76.53 123.22 76.98 123.14 77.42 123 77.82 122.82 78.2 122.59 78.56 122.31 78.88 122 79.16 121.63 79.39 121.24 79.58 120.84 79.72 120.41 79.79 119.96 79.83 119.51 79.83 119.51" fill-rule="evenodd"/>
    <polygon points="92.86 129.5 92.83 129.04 92.74 128.61 92.62 128.18 92.43 127.76 92.2 127.37 91.92 127.02 91.6 126.69 91.24 126.42 90.86 126.19 90.44 126 90 125.86 89.57 125.78 89.11 125.75 88.66 125.78 88.21 125.86 87.8 126 87.38 126.19 86.99 126.42 86.64 126.69 86.31 127.02 86.03 127.37 85.8 127.76 85.62 128.18 85.48 128.61 85.4 129.04 85.37 129.5 85.4 129.95 85.48 130.4 85.62 130.83 85.8 131.23 86.03 131.62 86.31 131.97 86.64 132.3 86.99 132.58 87.38 132.81 87.8 132.99 88.21 133.13 88.66 133.21 89.11 133.24 89.57 133.21 90 133.13 90.44 132.99 90.86 132.81 91.24 132.58 91.6 132.3 91.92 131.97 92.2 131.62 92.43 131.23 92.62 130.83 92.74 130.4 92.83 129.95 92.86 129.5 92.86 129.5" fill-rule="evenodd"/>
  </g>
</svg>
