<svg id="Layer_1" data-name="Layer 1" xmlns="http://www.w3.org/2000/svg" width="70mm" height="61.14mm" viewBox="0 0 198.42 173.3">
  <title>w008</title>
  <g id="symbolgrp">
    <polygon points="181.94 161.42 99.21 18.14 16.49 161.42 181.94 161.42 181.94 161.42" fill="#fff200" fill-rule="evenodd"/>
    <path d="M384.65,495.78,301.92,352.5,219.2,495.78Zm10.8,11.88a5.64,5.64,0,0,0,5.69-5.62,6,6,0,0,0-.94-3.17l-93.6-162a5.56,5.56,0,0,0-4.68-2.52,5.78,5.78,0,0,0-4.75,2.52l-93.52,162a6,6,0,0,0-.94,3.17,5.64,5.64,0,0,0,5.69,5.62Z" transform="translate(-202.71 -334.36)" fill-rule="evenodd"/>
    <polygon points="131.18 107.92 135.26 123.61 141.57 121.96 137.49 106.28 131.18 107.92 131.18 107.92" fill-rule="evenodd"/>
    <polygon points="123.71 94.43 136.37 104.54 132.3 109.64 119.64 99.52 123.71 94.43 123.71 94.43" fill-rule="evenodd"/>
    <polygon points="122.97 93.99 111.15 121.34 97.47 115.45 109.28 88.08 122.97 93.99 122.97 93.99" fill-rule="evenodd"/>
    <polygon points="92.5 131.97 79.18 147.55 73.53 142.7 86.83 127.12 92.5 131.97 92.5 131.97" fill-rule="evenodd"/>
    <polygon points="81.98 117.88 63.07 125.75 60.2 118.86 79.13 111 81.98 117.88 81.98 117.88" fill-rule="evenodd"/>
    <polygon points="109.5 123.15 91.43 132.83 87.91 126.26 105.97 116.59 109.5 123.15 109.5 123.15" fill-rule="evenodd"/>
    <polygon points="100.44 120.61 80.1 118.14 81.01 110.74 101.34 113.22 100.44 120.61 100.44 120.61" fill-rule="evenodd"/>
    <polygon points="96.64 79.07 109.87 88.41 106.11 93.73 92.88 84.39 96.64 79.07 96.64 79.07" fill-rule="evenodd"/>
    <polygon points="84.92 68.44 90.82 65.67 97.7 80.34 91.8 83.11 84.92 68.44 84.92 68.44" fill-rule="evenodd"/>
    <polygon points="66.15 152.58 61.96 152.58 61.96 133.1 45.51 133.1 45.51 128.93 66.15 128.93 66.15 152.58 66.15 152.58" fill-rule="evenodd"/>
    <polygon points="111.25 91.08 111.22 90.64 111.15 90.23 111 89.83 110.82 89.44 110.57 89.08 110.3 88.77 109.98 88.48 109.63 88.25 109.24 88.06 108.84 87.92 108.42 87.83 107.99 87.8 107.58 87.83 107.14 87.92 106.74 88.06 106.37 88.25 106.01 88.48 105.69 88.77 105.41 89.08 105.18 89.44 104.97 89.83 104.85 90.23 104.76 90.64 104.73 91.08 104.76 91.49 104.85 91.91 104.97 92.32 105.18 92.7 105.41 93.05 105.69 93.37 106.01 93.66 106.37 93.89 106.74 94.09 107.14 94.22 107.58 94.3 107.99 94.33 108.42 94.3 108.84 94.22 109.24 94.09 109.63 93.89 109.98 93.66 110.3 93.37 110.57 93.05 110.82 92.7 111 92.32 111.15 91.91 111.22 91.49 111.25 91.08 111.25 91.08" fill-rule="evenodd"/>
    <polygon points="98.02 81.72 97.99 81.31 97.9 80.88 97.76 80.47 97.57 80.1 97.34 79.74 97.05 79.43 96.74 79.14 96.38 78.9 96 78.71 95.59 78.58 95.17 78.5 94.76 78.47 94.33 78.5 93.91 78.58 93.51 78.71 93.12 78.9 92.76 79.14 92.45 79.43 92.16 79.74 91.93 80.1 91.74 80.47 91.6 80.88 91.51 81.31 91.48 81.72 91.51 82.15 91.6 82.57 91.74 82.97 91.93 83.36 92.16 83.72 92.45 84.03 92.76 84.32 93.12 84.55 93.51 84.73 93.91 84.88 94.33 84.96 94.76 84.99 95.17 84.96 95.59 84.88 96 84.73 96.38 84.55 96.74 84.32 97.05 84.03 97.34 83.72 97.57 83.36 97.76 82.97 97.9 82.57 97.99 82.15 98.02 81.72 98.02 81.72" fill-rule="evenodd"/>
    <polygon points="91.14 67.05 91.11 66.63 91.03 66.2 90.88 65.8 90.69 65.43 90.47 65.07 90.18 64.74 89.86 64.47 89.5 64.22 89.12 64.04 88.71 63.91 88.3 63.82 87.88 63.79 87.45 63.82 87.03 63.91 86.63 64.04 86.25 64.22 85.89 64.47 85.57 64.74 85.28 65.07 85.06 65.43 84.87 65.8 84.72 66.2 84.64 66.63 84.61 67.05 84.64 67.48 84.72 67.89 84.87 68.3 85.06 68.68 85.28 69.04 85.57 69.36 85.89 69.63 86.25 69.87 86.63 70.06 87.03 70.2 87.45 70.28 87.88 70.3 88.3 70.28 88.71 70.2 89.12 70.06 89.5 69.87 89.86 69.63 90.18 69.36 90.47 69.04 90.69 68.68 90.88 68.3 91.03 67.89 91.11 67.48 91.14 67.05 91.14 67.05" fill-rule="evenodd"/>
    <polygon points="141.68 122.78 141.65 122.36 141.56 121.94 141.43 121.53 141.25 121.16 141 120.8 140.73 120.48 140.4 120.19 140.05 119.96 139.67 119.76 139.26 119.63 138.85 119.55 138.42 119.52 137.99 119.55 137.57 119.63 137.17 119.76 136.78 119.96 136.44 120.19 136.11 120.48 135.83 120.8 135.59 121.16 135.4 121.53 135.27 121.94 135.19 122.36 135.16 122.78 135.19 123.21 135.27 123.62 135.4 124.02 135.59 124.41 135.83 124.77 136.11 125.08 136.44 125.37 136.78 125.6 137.17 125.79 137.57 125.93 137.99 126.02 138.42 126.05 138.85 126.02 139.26 125.93 139.67 125.79 140.05 125.6 140.4 125.37 140.73 125.08 141 124.77 141.25 124.41 141.43 124.02 141.56 123.62 141.65 123.21 141.68 122.78 141.68 122.78" fill-rule="evenodd"/>
    <polygon points="137.6 107.1 137.57 106.67 137.49 106.25 137.34 105.85 137.16 105.46 136.92 105.12 136.64 104.79 136.32 104.52 135.96 104.27 135.57 104.08 135.17 103.94 134.76 103.87 134.33 103.84 133.91 103.87 133.5 103.94 133.09 104.08 132.71 104.27 132.35 104.52 132.03 104.79 131.74 105.12 131.51 105.46 131.33 105.85 131.18 106.25 131.1 106.67 131.07 107.1 131.1 107.53 131.18 107.94 131.33 108.34 131.51 108.73 131.74 109.08 132.03 109.41 132.35 109.68 132.71 109.92 133.09 110.11 133.5 110.24 133.91 110.33 134.33 110.35 134.76 110.33 135.17 110.24 135.57 110.11 135.96 109.92 136.32 109.68 136.64 109.41 136.92 109.08 137.16 108.73 137.34 108.34 137.49 107.94 137.57 107.53 137.6 107.1 137.6 107.1" fill-rule="evenodd"/>
    <polygon points="124.94 96.97 124.91 96.55 124.83 96.14 124.68 95.72 124.5 95.35 124.27 94.99 123.98 94.67 123.66 94.39 123.3 94.16 122.92 93.96 122.51 93.83 122.1 93.74 121.68 93.71 121.25 93.74 120.84 93.83 120.43 93.96 120.05 94.16 119.69 94.39 119.37 94.67 119.08 94.99 118.85 95.35 118.67 95.72 118.52 96.14 118.44 96.55 118.41 96.97 118.44 97.4 118.52 97.82 118.67 98.22 118.85 98.61 119.08 98.96 119.37 99.28 119.69 99.57 120.05 99.8 120.43 99.98 120.84 100.13 121.25 100.21 121.68 100.24 122.1 100.21 122.51 100.13 122.92 99.98 123.3 99.8 123.66 99.57 123.98 99.28 124.27 98.96 124.5 98.61 124.68 98.22 124.83 97.82 124.91 97.4 124.94 96.97 124.94 96.97" fill-rule="evenodd"/>
    <polygon points="125.97 83.33 125.95 82.73 125.86 82.14 125.72 81.55 125.53 80.98 125.29 80.43 125 79.9 124.65 79.4 124.27 78.94 123.83 78.51 123.38 78.14 122.89 77.79 122.36 77.49 121.81 77.25 121.24 77.06 120.65 76.93 120.05 76.84 119.44 76.82 118.85 76.84 118.25 76.93 117.66 77.06 117.09 77.25 116.54 77.49 116.01 77.79 115.53 78.14 115.05 78.51 114.64 78.94 114.25 79.4 113.9 79.9 113.62 80.43 113.37 80.98 113.17 81.55 113.04 82.14 112.96 82.73 112.93 83.33 112.96 83.93 113.04 84.53 113.17 85.12 113.37 85.7 113.62 86.24 113.9 86.77 114.25 87.26 114.64 87.73 115.05 88.15 115.53 88.54 116.01 88.88 116.54 89.17 117.09 89.41 117.66 89.61 118.25 89.74 118.85 89.83 119.44 89.86 120.05 89.83 120.65 89.74 121.24 89.61 121.81 89.41 122.36 89.17 122.89 88.88 123.38 88.54 123.83 88.15 124.27 87.73 124.65 87.26 125 86.77 125.29 86.24 125.53 85.7 125.72 85.12 125.86 84.53 125.95 83.93 125.97 83.33 125.97 83.33" fill-rule="evenodd"/>
    <polygon points="65.36 122.3 65.33 121.86 65.25 121.41 65.12 120.98 64.93 120.57 64.7 120.19 64.42 119.83 64.1 119.52 63.74 119.23 63.37 119 62.95 118.82 62.52 118.69 62.08 118.6 61.63 118.57 61.19 118.6 60.74 118.69 60.31 118.82 59.89 119 59.51 119.23 59.16 119.52 58.85 119.83 58.56 120.19 58.33 120.57 58.14 120.98 58.01 121.41 57.93 121.86 57.9 122.3 57.93 122.75 58.01 123.19 58.14 123.62 58.33 124.04 58.56 124.42 58.85 124.77 59.16 125.1 59.51 125.37 59.89 125.6 60.31 125.79 60.74 125.92 61.19 126 61.63 126.03 62.08 126 62.52 125.92 62.95 125.79 63.37 125.6 63.74 125.37 64.1 125.1 64.42 124.77 64.7 124.42 64.93 124.04 65.12 123.62 65.25 123.19 65.33 122.75 65.36 122.3 65.36 122.3" fill-rule="evenodd"/>
    <polygon points="80.07 145.12 80.06 144.68 79.97 144.24 79.84 143.8 79.66 143.39 79.41 143 79.14 142.66 78.83 142.34 78.47 142.05 78.08 141.82 77.68 141.64 77.25 141.51 76.8 141.42 76.36 141.39 75.91 141.42 75.47 141.51 75.04 141.64 74.62 141.82 74.23 142.05 73.89 142.34 73.57 142.66 73.28 143 73.06 143.39 72.87 143.8 72.74 144.24 72.65 144.68 72.63 145.12 72.65 145.57 72.74 146.01 72.87 146.44 73.06 146.86 73.28 147.23 73.57 147.59 73.89 147.91 74.23 148.19 74.62 148.42 75.04 148.61 75.47 148.74 75.91 148.82 76.36 148.85 76.8 148.82 77.25 148.74 77.68 148.61 78.08 148.42 78.47 148.19 78.83 147.91 79.14 147.59 79.41 147.23 79.66 146.86 79.84 146.44 79.97 146.01 80.06 145.57 80.07 145.12 80.07 145.12" fill-rule="evenodd"/>
    <polygon points="111.46 119.86 111.43 119.42 111.35 118.97 111.22 118.54 111.03 118.14 110.8 117.75 110.52 117.4 110.2 117.08 109.86 116.81 109.47 116.56 109.05 116.39 108.62 116.25 108.18 116.18 107.73 116.15 107.29 116.18 106.84 116.25 106.41 116.39 106 116.56 105.62 116.81 105.26 117.08 104.95 117.4 104.66 117.75 104.43 118.14 104.25 118.54 104.11 118.97 104.03 119.42 104.01 119.86 104.03 120.32 104.11 120.77 104.25 121.2 104.43 121.6 104.66 121.99 104.95 122.34 105.26 122.66 105.62 122.93 106 123.16 106.41 123.35 106.84 123.49 107.29 123.56 107.73 123.59 108.18 123.56 108.62 123.49 109.05 123.35 109.47 123.16 109.86 122.93 110.2 122.66 110.52 122.34 110.8 121.99 111.03 121.6 111.22 121.2 111.35 120.77 111.43 120.32 111.46 119.86 111.46 119.86" fill-rule="evenodd"/>
    <polygon points="104.62 116.92 104.59 116.46 104.5 116.02 104.37 115.59 104.19 115.19 103.96 114.8 103.68 114.44 103.37 114.13 103.01 113.85 102.62 113.62 102.22 113.44 101.79 113.29 101.34 113.22 100.89 113.19 100.44 113.22 100 113.29 99.56 113.44 99.16 113.62 98.78 113.85 98.42 114.13 98.1 114.44 97.83 114.8 97.6 115.19 97.41 115.59 97.27 116.02 97.2 116.46 97.17 116.92 97.2 117.37 97.27 117.81 97.41 118.24 97.6 118.64 97.83 119.03 98.1 119.39 98.42 119.71 98.78 119.98 99.16 120.22 99.56 120.39 100 120.54 100.44 120.61 100.89 120.64 101.34 120.61 101.79 120.54 102.22 120.39 102.62 120.22 103.01 119.98 103.37 119.71 103.68 119.39 103.96 119.03 104.19 118.64 104.37 118.24 104.5 117.81 104.59 117.37 104.62 116.92 104.62 116.92" fill-rule="evenodd"/>
    <polygon points="84.28 114.44 84.25 114 84.17 113.55 84.04 113.12 83.85 112.71 83.62 112.32 83.35 111.97 83.02 111.64 82.67 111.37 82.28 111.14 81.87 110.96 81.44 110.83 81.01 110.74 80.55 110.71 80.1 110.74 79.66 110.83 79.23 110.96 78.83 111.14 78.44 111.37 78.08 111.64 77.76 111.97 77.49 112.32 77.25 112.71 77.08 113.12 76.93 113.55 76.86 114 76.83 114.44 76.86 114.89 76.93 115.33 77.08 115.76 77.25 116.18 77.49 116.55 77.76 116.91 78.08 117.22 78.44 117.51 78.83 117.74 79.23 117.93 79.66 118.06 80.1 118.14 80.55 118.17 81.01 118.14 81.44 118.06 81.87 117.93 82.28 117.74 82.67 117.51 83.02 117.22 83.35 116.91 83.62 116.55 83.85 116.18 84.04 115.76 84.17 115.33 84.25 114.89 84.28 114.44 84.28 114.44" fill-rule="evenodd"/>
    <polygon points="93.39 129.55 93.36 129.1 93.29 128.66 93.15 128.23 92.98 127.83 92.73 127.44 92.46 127.08 92.14 126.76 91.79 126.48 91.4 126.25 91 126.06 90.57 125.93 90.12 125.84 89.68 125.82 89.22 125.84 88.79 125.93 88.36 126.06 87.94 126.25 87.55 126.48 87.21 126.76 86.88 127.08 86.61 127.44 86.38 127.83 86.19 128.23 86.06 128.66 85.97 129.1 85.94 129.55 85.97 130 86.06 130.44 86.19 130.87 86.38 131.28 86.61 131.67 86.88 132.01 87.21 132.34 87.55 132.62 87.94 132.84 88.36 133.03 88.79 133.16 89.22 133.25 89.68 133.28 90.12 133.25 90.57 133.16 91 133.03 91.4 132.84 91.79 132.62 92.14 132.34 92.46 132.01 92.73 131.67 92.98 131.28 93.15 130.87 93.29 130.44 93.36 130 93.39 129.55 93.39 129.55" fill-rule="evenodd"/>
  </g>
</svg>
