<svg id="Layer_1" data-name="Layer 1" xmlns="http://www.w3.org/2000/svg" width="70.05mm" height="61.26mm" viewBox="0 0 198.56 173.65">
  <title>w009</title>
  <g id="symbolgrp">
    <polygon points="197.71 164.94 104.25 2.94 103.67 2.08 102.95 1.43 102.16 0.86 101.22 0.42 100.29 0.14 99.28 0.06 98.27 0.14 97.26 0.42 96.4 0.86 95.54 1.43 94.89 2.08 94.31 2.94 0.86 164.94 0.42 165.88 0.14 166.81 0.06 167.82 0.14 168.83 0.42 169.84 0.86 170.7 1.43 171.57 2.08 172.22 2.94 172.79 3.81 173.22 4.82 173.51 5.82 173.58 192.74 173.58 193.74 173.51 194.68 173.22 195.62 172.79 196.41 172.22 197.13 171.57 197.71 170.7 198.14 169.84 198.42 168.83 198.5 167.82 198.42 166.81 198.14 165.88 197.71 164.94 197.71 164.94" stroke="#000" stroke-miterlimit="2.61" stroke-width="0.13" fill-rule="evenodd"/>
    <polygon points="99.28 18.14 182.08 161.7 16.48 161.7 99.28 18.14 99.28 18.14" fill="#fff200" stroke="#000" stroke-miterlimit="2.61" stroke-width="0.13" fill-rule="evenodd"/>
    <path d="M316.6,487A27.62,27.62,0,1,0,289,459.39,27.62,27.62,0,0,0,316.6,487Z" transform="translate(-197.84 -334.19)" stroke="#000" stroke-miterlimit="2.61" stroke-width="0.83" fill-rule="evenodd"/>
    <path d="M277.64,486.85A27.62,27.62,0,1,0,250,459.23a27.62,27.62,0,0,0,27.62,27.62Z" transform="translate(-197.84 -334.19)" stroke="#000" stroke-miterlimit="2.61" stroke-width="0.83" fill-rule="evenodd"/>
    <path d="M297.43,453.15a27.62,27.62,0,1,0-27.62-27.62,27.62,27.62,0,0,0,27.62,27.62Z" transform="translate(-197.84 -334.19)" stroke="#000" stroke-miterlimit="2.61" stroke-width="0.83" fill-rule="evenodd"/>
    <path d="M297.24,437.31A19.31,19.31,0,1,0,277.93,418a19.31,19.31,0,0,0,19.31,19.31Z" transform="translate(-197.84 -334.19)" fill="#fff200" stroke="#000" stroke-miterlimit="2.61" stroke-width="0.78" fill-rule="evenodd"/>
    <path d="M322.91,482.5A19.31,19.31,0,1,0,303.6,463.2a19.31,19.31,0,0,0,19.31,19.31Z" transform="translate(-197.84 -334.19)" fill="#fff200" stroke="#000" stroke-miterlimit="2.61" stroke-width="0.78" fill-rule="evenodd"/>
    <path d="M271.13,482.12a19.31,19.31,0,1,0-19.31-19.31,19.31,19.31,0,0,0,19.31,19.31Z" transform="translate(-197.84 -334.19)" fill="#fff200" stroke="#000" stroke-miterlimit="2.61" stroke-width="0.78" fill-rule="evenodd"/>
    <path d="M297.12,452.87a4.77,4.77,0,1,0-4.77-4.77,4.77,4.77,0,0,0,4.77,4.77Z" transform="translate(-197.84 -334.19)" fill="#fff200" stroke="#fff200" stroke-miterlimit="2.61" stroke-width="0.79" fill-rule="evenodd"/>
    <path d="M297.12,396.17v51.94m-34.63,19.16,34.63-19.16m45,26-45-26" transform="translate(-197.84 -334.19)" fill="none" stroke="#fff200" stroke-miterlimit="2.61" stroke-width="1.9"/>
    <path d="M297.12,470.76a22.65,22.65,0,1,0-22.65-22.65,22.65,22.65,0,0,0,22.65,22.65" transform="translate(-197.84 -334.19)" fill="none" stroke="#000" stroke-miterlimit="2.61" stroke-width="7.45"/>
    <path d="M322.91,481.37a18.17,18.17,0,1,0-18.17-18.17,18.17,18.17,0,0,0,18.17,18.17M271.13,481A18.17,18.17,0,1,0,253,462.81,18.17,18.17,0,0,0,271.13,481m26.11-44.81A18.17,18.17,0,1,0,279.06,418a18.17,18.17,0,0,0,18.17,18.17" transform="translate(-197.84 -334.19)" fill="none" stroke="#fff200" stroke-miterlimit="2.61" stroke-width="2.07"/>
    <path d="M258.3,470.58l-8.23,4.75m85.08-5.28,8.22,4.75m-46.25-69.14v-9.5" transform="translate(-197.84 -334.19)" fill="none" stroke="#fff200" stroke-miterlimit="2.61" stroke-width="4.97"/>
  </g>
</svg>
