<svg id="Layer_1" data-name="Layer 1" xmlns="http://www.w3.org/2000/svg" width="70.05mm" height="61.26mm" viewBox="0 0 198.56 173.65">
  <title>w010</title>
  <g id="symbolgrp">
    <polygon points="197.71 164.94 104.25 2.94 103.67 2.08 102.95 1.43 102.16 0.86 101.22 0.42 100.29 0.14 99.28 0.06 98.27 0.14 97.26 0.42 96.4 0.86 95.54 1.43 94.89 2.08 94.31 2.94 0.86 164.94 0.42 165.88 0.14 166.81 0.06 167.82 0.14 168.83 0.42 169.84 0.86 170.7 1.43 171.57 2.08 172.22 2.94 172.79 3.81 173.22 4.82 173.51 5.82 173.58 192.74 173.58 193.74 173.51 194.68 173.22 195.62 172.79 196.41 172.22 197.13 171.57 197.71 170.7 198.14 169.84 198.42 168.83 198.5 167.82 198.42 166.81 198.14 165.88 197.71 164.94 197.71 164.94" stroke="#000" stroke-miterlimit="2.61" stroke-width="0.13" fill-rule="evenodd"/>
    <polygon points="99.28 18.14 182.08 161.7 16.48 161.7 99.28 18.14 99.28 18.14" fill="#fff200" stroke="#000" stroke-miterlimit="2.61" stroke-width="0.13" fill-rule="evenodd"/>
    <path d="M297.1,408.47v78.95m-12.62-71.06L297.1,429l12.62-12.61m-25.24,64.5,12.62-12.61,12.62,12.61" transform="translate(-197.84 -334.19)" fill="none" stroke="#000" stroke-miterlimit="2.61" stroke-width="6.39"/>
    <path d="M297.1,457.34a9.4,9.4,0,1,0-9.41-9.4,9.4,9.4,0,0,0,9.41,9.4Z" transform="translate(-197.84 -334.19)" fill-rule="evenodd"/>
    <path d="M262.88,428.2l68.43,39.47M263.4,443.06l17.24-4.61L276,421.23m43.29,54.08-4.62-17.22,17.24-4.62m-69.05,14.2,68.43-39.47M276,474.65l4.62-17.22-17.24-4.62m68.53-10.41-17.24-4.62,4.62-17.22" transform="translate(-197.84 -334.19)" fill="none" stroke="#000" stroke-miterlimit="2.61" stroke-width="6.39"/>
  </g>
</svg>
