<svg id="Layer_1" data-name="Layer 1" xmlns="http://www.w3.org/2000/svg" width="70mm" height="61.14mm" viewBox="0 0 198.42 173.3">
  <title>w011</title>
  <g id="symbolgrp">
    <polygon points="181.94 161.42 99.21 18.14 16.49 161.42 181.94 161.42 181.94 161.42" fill="#fff200" fill-rule="evenodd"/>
    <path d="M379.85,495.78,297.12,352.5,214.4,495.78Zm10.8,11.88a5.64,5.64,0,0,0,5.69-5.62,6,6,0,0,0-.94-3.17l-93.6-162a5.56,5.56,0,0,0-4.68-2.52,5.78,5.78,0,0,0-4.75,2.52l-93.52,162a6,6,0,0,0-.94,3.17,5.64,5.64,0,0,0,5.69,5.62Z" transform="translate(-197.91 -334.36)" fill-rule="evenodd"/>
    <polygon points="69.56 116.68 72.21 122.66 55.78 129.94 53.13 123.96 69.56 116.68 69.56 116.68" fill-rule="evenodd"/>
    <polygon points="75.34 78.79 80.66 91.97 85.97 89.83 80.64 76.65 75.34 78.79 75.34 78.79" fill-rule="evenodd"/>
    <polygon points="84.96 88.58 96.57 96.79 93.26 101.46 81.66 93.24 84.96 88.58 84.96 88.58" fill-rule="evenodd"/>
    <polygon points="108.06 101.65 96.04 96.5 85.74 120.54 97.76 125.69 108.06 101.65 108.06 101.65" fill-rule="evenodd"/>
    <polygon points="89.14 118.58 88.34 125.06 70.49 122.91 71.28 116.41 89.14 118.58 89.14 118.58" fill-rule="evenodd"/>
    <polygon points="119.93 97.84 106.19 101.52 107.67 107.04 121.42 103.37 119.93 97.84 119.93 97.84" fill-rule="evenodd"/>
    <polygon points="123.4 86.35 128.7 88.52 123.33 101.68 118.02 99.51 123.4 86.35 123.4 86.35" fill-rule="evenodd"/>
    <polygon points="93.56 121.36 76.82 127.89 79.19 133.99 95.94 127.44 93.56 121.36 93.56 121.36" fill-rule="evenodd"/>
    <polygon points="76.02 128.34 61.69 139.17 65.63 144.38 79.97 133.55 76.02 128.34 76.02 128.34" fill-rule="evenodd"/>
    <polygon points="160.97 146.63 37.45 146.63 37.45 152.86 160.97 152.86 160.97 146.63 160.97 146.63" fill-rule="evenodd"/>
    <polygon points="81.27 130.94 81.24 130.5 81.15 130.08 81.02 129.68 80.84 129.31 80.6 128.95 80.31 128.62 79.99 128.34 79.64 128.11 79.25 127.92 78.85 127.78 78.43 127.69 78 127.67 77.58 127.69 77.16 127.78 76.76 127.92 76.37 128.11 76.01 128.34 75.69 128.62 75.41 128.95 75.17 129.31 74.98 129.68 74.84 130.08 74.75 130.5 74.74 130.94 74.75 131.37 74.84 131.79 74.98 132.19 75.17 132.56 75.41 132.92 75.69 133.25 76.01 133.54 76.37 133.78 76.76 133.96 77.16 134.09 77.58 134.18 78 134.21 78.43 134.18 78.85 134.09 79.25 133.96 79.64 133.78 79.99 133.54 80.31 133.25 80.6 132.92 80.84 132.56 81.02 132.19 81.15 131.79 81.24 131.37 81.27 130.94 81.27 130.94" fill-rule="evenodd"/>
    <polygon points="74.16 119.67 74.13 119.24 74.05 118.82 73.92 118.42 73.72 118.03 73.48 117.67 73.2 117.36 72.88 117.07 72.53 116.83 72.14 116.64 71.73 116.5 71.31 116.43 70.9 116.4 70.46 116.43 70.04 116.5 69.64 116.64 69.25 116.83 68.91 117.07 68.58 117.36 68.3 117.67 68.06 118.03 67.88 118.42 67.73 118.82 67.65 119.24 67.62 119.67 67.65 120.09 67.73 120.51 67.88 120.91 68.06 121.3 68.3 121.66 68.58 121.97 68.91 122.25 69.25 122.5 69.64 122.69 70.04 122.82 70.46 122.91 70.9 122.93 71.31 122.91 71.73 122.82 72.14 122.69 72.53 122.5 72.88 122.25 73.2 121.97 73.48 121.66 73.72 121.3 73.92 120.91 74.05 120.51 74.13 120.09 74.16 119.67 74.16 119.67" fill-rule="evenodd"/>
    <polygon points="92.01 121.82 91.98 121.39 91.9 120.97 91.77 120.57 91.57 120.19 91.33 119.83 91.05 119.51 90.73 119.22 90.38 118.98 89.99 118.8 89.58 118.67 89.17 118.58 88.75 118.55 88.31 118.58 87.89 118.67 87.49 118.8 87.1 118.98 86.76 119.22 86.43 119.51 86.14 119.83 85.91 120.19 85.73 120.57 85.58 120.97 85.5 121.39 85.47 121.82 85.5 122.25 85.58 122.67 85.73 123.08 85.91 123.45 86.14 123.81 86.43 124.14 86.76 124.42 87.1 124.65 87.49 124.84 87.89 124.97 88.31 125.06 88.75 125.09 89.17 125.06 89.58 124.97 89.99 124.84 90.38 124.65 90.73 124.42 91.05 124.14 91.33 123.81 91.57 123.45 91.77 123.08 91.9 122.67 91.98 122.25 92.01 121.82 92.01 121.82" fill-rule="evenodd"/>
    <polygon points="98.02 124.39 97.99 123.97 97.91 123.56 97.78 123.15 97.58 122.76 97.34 122.41 97.06 122.09 96.75 121.81 96.39 121.57 96 121.37 95.59 121.24 95.18 121.15 94.76 121.13 94.32 121.15 93.91 121.24 93.5 121.37 93.11 121.57 92.75 121.81 92.44 122.09 92.16 122.41 91.92 122.76 91.74 123.15 91.59 123.56 91.51 123.97 91.48 124.39 91.51 124.83 91.59 125.24 91.74 125.65 91.92 126.04 92.16 126.39 92.44 126.71 92.75 126.99 93.11 127.23 93.5 127.42 93.91 127.56 94.32 127.63 94.76 127.67 95.18 127.63 95.59 127.56 96 127.42 96.39 127.23 96.75 126.99 97.06 126.71 97.34 126.39 97.58 126.04 97.78 125.65 97.91 125.24 97.99 124.83 98.02 124.39 98.02 124.39" fill-rule="evenodd"/>
    <polygon points="66.93 141.78 66.9 141.35 66.81 140.93 66.68 140.53 66.49 140.14 66.25 139.8 65.98 139.47 65.65 139.18 65.29 138.95 64.92 138.77 64.5 138.62 64.08 138.54 63.66 138.51 63.23 138.54 62.81 138.62 62.4 138.77 62.03 138.95 61.67 139.18 61.34 139.47 61.06 139.8 60.83 140.14 60.64 140.53 60.51 140.93 60.41 141.35 60.39 141.78 60.41 142.2 60.51 142.62 60.64 143.03 60.83 143.41 61.06 143.77 61.34 144.09 61.67 144.37 62.03 144.61 62.4 144.8 62.81 144.94 63.23 145.03 63.66 145.06 64.08 145.03 64.5 144.94 64.92 144.8 65.29 144.61 65.65 144.37 65.98 144.09 66.25 143.77 66.49 143.41 66.68 143.03 66.81 142.62 66.9 142.2 66.93 141.78 66.93 141.78" fill-rule="evenodd"/>
    <polygon points="110.68 92.31 110.65 91.76 110.56 91.19 110.43 90.65 110.23 90.13 109.99 89.62 109.71 89.13 109.38 88.68 109 88.26 108.59 87.89 108.14 87.56 107.64 87.26 107.14 87.02 106.61 86.84 106.08 86.69 105.51 86.62 104.95 86.59 104.39 86.62 103.83 86.69 103.29 86.84 102.76 87.02 102.26 87.26 101.77 87.56 101.32 87.89 100.9 88.26 100.53 88.68 100.2 89.13 99.9 89.62 99.66 90.13 99.48 90.65 99.35 91.19 99.26 91.76 99.23 92.31 99.26 92.88 99.35 93.43 99.48 93.97 99.66 94.51 99.9 95.02 100.2 95.5 100.53 95.94 100.9 96.36 101.32 96.73 101.77 97.06 102.26 97.36 102.76 97.6 103.29 97.78 103.83 97.93 104.39 98 104.95 98.04 105.51 98 106.08 97.93 106.61 97.78 107.14 97.6 107.64 97.36 108.14 97.06 108.59 96.73 109 96.36 109.38 95.94 109.71 95.5 109.99 95.02 110.23 94.51 110.43 93.97 110.56 93.43 110.65 92.88 110.68 92.31 110.68 92.31" fill-rule="evenodd"/>
    <polygon points="109.8 104.28 109.77 103.88 109.68 103.47 109.54 103.08 109.35 102.73 109.09 102.41 108.81 102.11 108.48 101.88 108.12 101.68 107.73 101.53 107.35 101.44 106.94 101.41 106.52 101.44 106.14 101.53 105.75 101.68 105.39 101.88 105.06 102.11 104.77 102.41 104.54 102.73 104.34 103.08 104.19 103.47 104.1 103.88 104.07 104.28 104.1 104.68 104.19 105.09 104.34 105.46 104.54 105.82 104.77 106.15 105.06 106.45 105.39 106.69 105.75 106.88 106.14 107.03 106.52 107.11 106.94 107.13 107.35 107.11 107.73 107.03 108.12 106.88 108.48 106.69 108.81 106.45 109.09 106.15 109.35 105.82 109.54 105.46 109.68 105.09 109.77 104.68 109.8 104.28 109.8 104.28" fill-rule="evenodd"/>
    <polygon points="123.54 100.61 123.51 100.2 123.42 99.8 123.27 99.41 123.07 99.05 122.83 98.72 122.55 98.44 122.22 98.2 121.86 98 121.47 97.86 121.08 97.77 120.67 97.74 120.26 97.77 119.87 97.86 119.48 98 119.13 98.2 118.8 98.44 118.51 98.72 118.26 99.05 118.06 99.41 117.93 99.8 117.84 100.2 117.81 100.61 117.84 101.01 117.93 101.41 118.06 101.79 118.26 102.14 118.51 102.47 118.8 102.76 119.13 103.01 119.48 103.2 119.87 103.34 120.26 103.43 120.67 103.46 121.08 103.43 121.47 103.34 121.86 103.2 122.22 103.01 122.55 102.76 122.83 102.47 123.07 102.14 123.27 101.79 123.42 101.41 123.51 101.01 123.54 100.61 123.54 100.61" fill-rule="evenodd"/>
    <polygon points="128.91 87.44 128.87 87.02 128.79 86.64 128.65 86.25 128.46 85.89 128.2 85.56 127.92 85.28 127.59 85.04 127.23 84.83 126.86 84.69 126.45 84.6 126.05 84.57 125.64 84.6 125.24 84.69 124.85 84.83 124.5 85.04 124.18 85.28 123.88 85.56 123.64 85.89 123.45 86.25 123.3 86.64 123.21 87.02 123.19 87.44 123.21 87.84 123.3 88.25 123.45 88.62 123.64 88.98 123.88 89.31 124.18 89.59 124.5 89.85 124.85 90.04 125.24 90.18 125.64 90.27 126.05 90.3 126.45 90.27 126.86 90.18 127.23 90.04 127.59 89.85 127.92 89.59 128.2 89.31 128.46 88.98 128.65 88.62 128.79 88.25 128.87 87.84 128.91 87.44 128.91 87.44" fill-rule="evenodd"/>
    <polygon points="80.85 77.71 80.82 77.31 80.73 76.91 80.6 76.53 80.41 76.17 80.15 75.85 79.87 75.56 79.54 75.31 79.18 75.11 78.79 74.98 78.4 74.89 78 74.86 77.58 74.89 77.19 74.98 76.8 75.11 76.44 75.31 76.11 75.56 75.83 75.85 75.59 76.17 75.4 76.53 75.25 76.91 75.16 77.31 75.13 77.71 75.16 78.12 75.25 78.52 75.4 78.91 75.59 79.27 75.83 79.6 76.11 79.88 76.44 80.12 76.8 80.31 77.19 80.46 77.58 80.55 78 80.58 78.4 80.55 78.79 80.46 79.18 80.31 79.54 80.12 79.87 79.88 80.15 79.6 80.41 79.27 80.6 78.91 80.73 78.52 80.82 78.12 80.85 77.71 80.85 77.71" fill-rule="evenodd"/>
    <polygon points="86.17 90.91 86.14 90.5 86.06 90.1 85.92 89.71 85.71 89.35 85.47 89.03 85.19 88.74 84.86 88.5 84.5 88.31 84.11 88.16 83.72 88.07 83.31 88.04 82.9 88.07 82.51 88.16 82.12 88.31 81.77 88.5 81.44 88.74 81.15 89.03 80.91 89.35 80.7 89.71 80.57 90.1 80.48 90.5 80.45 90.91 80.48 91.31 80.57 91.71 80.7 92.09 80.91 92.45 81.15 92.78 81.44 93.08 81.77 93.31 82.12 93.51 82.51 93.66 82.9 93.73 83.31 93.76 83.72 93.73 84.11 93.66 84.5 93.51 84.86 93.31 85.19 93.08 85.47 92.78 85.71 92.45 85.92 92.09 86.06 91.71 86.14 91.31 86.17 90.91 86.17 90.91" fill-rule="evenodd"/>
    <polygon points="97.78 99.13 97.75 98.72 97.66 98.32 97.52 97.93 97.33 97.57 97.08 97.26 96.79 96.96 96.46 96.72 96.1 96.53 95.73 96.38 95.33 96.29 94.92 96.27 94.5 96.29 94.11 96.38 93.73 96.53 93.37 96.72 93.04 96.96 92.75 97.26 92.52 97.57 92.32 97.93 92.17 98.32 92.08 98.72 92.05 99.13 92.08 99.53 92.17 99.93 92.32 100.32 92.52 100.67 92.75 100.99 93.04 101.29 93.37 101.53 93.73 101.73 94.11 101.88 94.5 101.95 94.92 101.98 95.33 101.95 95.73 101.88 96.1 101.73 96.46 101.53 96.79 101.29 97.08 100.99 97.33 100.67 97.52 100.32 97.66 99.93 97.75 99.53 97.78 99.13 97.78 99.13" fill-rule="evenodd"/>
    <polygon points="57.73 126.95 57.69 126.53 57.6 126.11 57.47 125.71 57.29 125.32 57.05 124.96 56.77 124.65 56.44 124.36 56.09 124.12 55.71 123.93 55.3 123.79 54.88 123.72 54.45 123.69 54.03 123.72 53.61 123.79 53.21 123.93 52.82 124.12 52.46 124.36 52.15 124.65 51.86 124.96 51.62 125.32 51.43 125.71 51.3 126.11 51.21 126.53 51.19 126.95 51.21 127.38 51.3 127.8 51.43 128.2 51.62 128.59 51.86 128.95 52.15 129.26 52.46 129.55 52.82 129.79 53.21 129.98 53.61 130.12 54.03 130.19 54.45 130.22 54.88 130.19 55.3 130.12 55.71 129.98 56.09 129.79 56.44 129.55 56.77 129.26 57.05 128.95 57.29 128.59 57.47 128.2 57.6 127.8 57.69 127.38 57.73 126.95 57.73 126.95" fill-rule="evenodd"/>
  </g>
</svg>
