<svg id="Layer_1" data-name="Layer 1" xmlns="http://www.w3.org/2000/svg" width="70.05mm" height="61.26mm" viewBox="0 0 198.56 173.65">
  <title>w013</title>
  <g id="symbolgrp">
    <polygon points="197.71 164.94 104.25 2.94 103.67 2.08 102.95 1.43 102.16 0.86 101.22 0.42 100.29 0.14 99.28 0.06 98.27 0.14 97.26 0.42 96.4 0.86 95.54 1.43 94.89 2.08 94.31 2.94 0.86 164.94 0.42 165.88 0.14 166.81 0.06 167.82 0.14 168.83 0.42 169.84 0.86 170.7 1.43 171.57 2.08 172.22 2.94 172.79 3.81 173.22 4.82 173.51 5.82 173.58 192.74 173.58 193.74 173.51 194.68 173.22 195.62 172.79 196.41 172.22 197.13 171.57 197.71 170.7 198.14 169.84 198.42 168.83 198.5 167.82 198.42 166.81 198.14 165.88 197.71 164.94 197.71 164.94" stroke="#000" stroke-miterlimit="2.61" stroke-width="0.13" fill-rule="evenodd"/>
    <polygon points="99.28 18.14 182.08 161.7 16.48 161.7 99.28 18.14 99.28 18.14" fill="#fff200" stroke="#000" stroke-miterlimit="2.61" stroke-width="0.13" fill-rule="evenodd"/>
    <path d="M344.3,451.19l-27.46,36.08h-3.65l29.53-38.81,1.58,2.73Zm-27,27.45-.11-.77-.32-.74-.46-.63-.63-.46-.74-.31-.77-.11-.77.11-.74.31-.63.46-.46.63-.31.74-.11.77.11.77.31.74.46.63.63.49.74.28.77.1.77-.1.74-.28.63-.49.46-.63.32-.74.11-.77Zm9.82-12.9L327,465l-.28-.74-.49-.63-.63-.49-.74-.28-.77-.11-.77.11-.74.28-.6.49-.49.63-.31.74-.11.77.11.77.31.74.49.6.6.49.74.32.77.11.77-.11.74-.32.63-.49.49-.6.28-.74.1-.77Zm7.79-21.46-.74-.49-.7-.52-1.4-1.12-2.56-2.46-1.3-1.19-1.26-1.26-1.3-1.19-.63-.63-.56-.67-1.12-1.4-1.23-1.26-1.26-1.26-1.3-1.19-1.33-1.19-.35-.25-.42-.21-.42-.18-.39-.21-.28-.31-.21-.42-.07-.42v-2.24l.25-.84.11-.88v-.88l0-.91.45-1.72.11-1.75.31-1.75.25-1.79.11-1.75-.07-1.75.07-.91.07-.46-.07-.46-.21-.35-.07-.49,0-.1-.11,0-.21,0-.42.14-.31.28-.28.39-.25.35-.31.35-1.47,1L312.59,411l-1.47,1-1.4,1.09-1.3,1.23-.63.6-.6.67-.63.63-.39.25-.46.14-.21,0-.18-.11-.35-.32-.21-.39-.18-.39-.18-.88-.14-.88-.1-.91,0-.88v-2.66l.07-.88,0-.46-.1-.42-.11-.21-.18-.17-.18-.11h-.21l-.25,0L303,407l-.38.28-.32.31-.25.35-.42.81-.32.84-.6,1.65-.7,1.65-1.26,3.3-.67,1.65-.46.77-.49.74-.6.67-.67.6-.7.56-.74.49-1.58.84-1.61.74-1.65.6-1.72.56-1.68.53-1.65.67-1.61.67-.84.32-.84.28-.88.25-.42.18-.35.25-.32.32-.21.39-.1.42v.46l0,.91-.07.88-.42,1.72-.25.84-.28.84-.42.81-.28.35-.32.32-.35.24-.42.21-.84.28-1.75.21-.88.18-.84.25-1.68.56-6.7,2.38-1.72.46-1.72.35-1.79.17-.88.07-.88.18-.39.17-.42.21-.35.28-.31.35-.21.39-.1.42v.42l.1.46.25.88.14.42.18.39.25.38.28.32.35.32.42.17.46.07.18.07.17.14.25.35.25.39.21.39.28.35.67.6,1.47,1,.77.42.88.28,7.08.14,1.75-.07.91-.07.42.07.42.14.17.17,0,.11v.07l-.21.14-.25.07-.46.1-.39.07-1.75.35-1.75.32-.84.28-.77.42-.35.28-.32.32-.25.39-.14.42v.46l.07.46.25.35.35.28.46.21.14.14,0,.21-.07.46,0,.49.18.38.32.28.42.21.46.1.88.14H270l.88.07.88.21.88.14h.88l1.79-.25,1.72-.35,1.72-.42,1.75-.46,1.68-.49,1.68-.6.84-.25.88-.07h1.79l.88.07.91.11.42.1.39.21.28.32.25.35.91,1.61.95,1.47.91,1.51.88,1.54.88,1.54,1.05,1.47.18.39.17.39.21.88.14.88.21.88.32.84.39.81.46.74.53.74,1.16,1.33,1.23,1.26,1.19,1.33,1.05,1.44.42.81.32.81.35,1.75.25.84.38.81,29.85-39.27Zm-48.26-10.13,1,.39.49.21.49.32.84.67.18.21.07.25-.07.14-.07.11-.25.11-.56.07-.53,0h-1.65l-.21.18-.21.14-1.05.35-.49.21-.28.1H284l-.28-.07-.21-.14-.1-.25-.07-.28,0-.56-.07-.25-.1-.24-.11-.25,0-.28v-.56l.14-.53.14-.25.18-.21.21-.14.28,0,.56,0,1.05.25,1,.35ZM336.9,452.8l-.11-.77-.28-.74-.49-.6-.63-.49-.7-.32-.81-.11-.77.11-.74.32-.6.49-.49.6L331,452l-.07.77.07.81.32.7.49.63.6.49.74.28.77.1.81-.1.7-.28.63-.49.49-.63.28-.7.11-.81Z" transform="translate(-197.84 -334.19)" fill-rule="evenodd"/>
  </g>
</svg>
