<svg id="Layer_1" data-name="Layer 1" xmlns="http://www.w3.org/2000/svg" width="70mm" height="61.14mm" viewBox="0 0 198.42 173.3">
  <title>w014</title>
  <g id="symbolgrp">
    <polygon points="181.94 161.42 99.21 18.14 16.49 161.42 181.94 161.42 181.94 161.42" fill="#fff200" fill-rule="evenodd"/>
    <path d="M379.85,495.78,297.12,352.5,214.4,495.78Zm10.8,11.88a5.64,5.64,0,0,0,5.69-5.62,6,6,0,0,0-.94-3.17l-93.6-162a5.56,5.56,0,0,0-4.68-2.52,5.78,5.78,0,0,0-4.75,2.52l-93.52,162a6,6,0,0,0-.94,3.17,5.64,5.64,0,0,0,5.69,5.62Z" transform="translate(-197.91 -334.36)" fill-rule="evenodd"/>
    <polygon points="101.57 110.55 97.89 122.75 93.45 121.4 97.15 109.21 101.57 110.55 101.57 110.55" fill-rule="evenodd"/>
    <polygon points="108.38 95.08 108.38 108.47 108.41 108.92 108.49 109.36 108.62 109.79 108.81 110.21 109.04 110.58 109.31 110.94 109.64 111.26 109.98 111.54 110.37 111.77 110.79 111.96 111.22 112.09 111.66 112.17 112.11 112.2 112.55 112.17 113 112.09 113.43 111.96 113.84 111.77 114.23 111.54 114.58 111.26 114.89 110.94 115.18 110.58 115.41 110.21 115.6 109.79 115.72 109.36 115.81 108.92 115.84 108.47 115.84 95.08 115.81 94.63 115.72 94.19 115.6 93.76 115.41 93.34 115.18 92.95 114.89 92.61 114.58 92.28 114.23 92.01 113.84 91.78 113.43 91.59 113 91.46 112.55 91.38 112.11 91.35 111.66 91.38 111.22 91.46 110.79 91.59 110.37 91.78 109.98 92.01 109.64 92.28 109.31 92.61 109.04 92.95 108.81 93.34 108.62 93.76 108.49 94.19 108.41 94.63 108.38 95.08 108.38 95.08" fill-rule="evenodd"/>
    <polygon points="96.94 98.25 106.55 101.29 105.32 105.16 95.72 102.12 96.94 98.25 96.94 98.25" fill-rule="evenodd"/>
    <polygon points="108.79 93.36 112.39 95.23 107.73 104.17 104.14 102.29 108.79 93.36 108.79 93.36" fill-rule="evenodd"/>
    <polygon points="112.11 112.2 99.36 112.2 99.36 107.57 112.11 107.57 112.11 112.2 112.11 112.2" fill-rule="evenodd"/>
    <polygon points="97.98 122.07 97.96 121.71 97.87 121.36 97.73 121.03 97.54 120.71 97.3 120.44 97.02 120.21 96.71 120.01 96.38 119.88 96.02 119.79 95.66 119.76 95.3 119.79 94.94 119.88 94.61 120.01 94.3 120.21 94.02 120.44 93.78 120.71 93.59 121.03 93.46 121.36 93.38 121.71 93.35 122.07 93.38 122.45 93.46 122.79 93.59 123.13 93.78 123.44 94.02 123.72 94.3 123.95 94.61 124.14 94.94 124.28 95.3 124.37 95.66 124.4 96.02 124.37 96.38 124.28 96.71 124.14 97.02 123.95 97.3 123.72 97.54 123.44 97.73 123.13 97.87 122.79 97.96 122.45 97.98 122.07 97.98 122.07" fill-rule="evenodd"/>
    <polygon points="101.67 109.88 101.64 109.52 101.57 109.16 101.43 108.83 101.24 108.52 101 108.25 100.73 108.02 100.41 107.81 100.08 107.69 99.72 107.6 99.36 107.57 99 107.6 98.64 107.69 98.31 107.81 98 108.02 97.73 108.25 97.48 108.52 97.3 108.83 97.17 109.16 97.08 109.52 97.05 109.88 97.08 110.25 97.17 110.6 97.3 110.94 97.48 111.24 97.73 111.52 98 111.76 98.31 111.95 98.64 112.09 99 112.17 99.36 112.2 99.72 112.17 100.08 112.09 100.41 111.95 100.73 111.76 101 111.52 101.24 111.24 101.43 110.94 101.57 110.6 101.64 110.25 101.67 109.88 101.67 109.88" fill-rule="evenodd"/>
    <polygon points="114.42 109.88 114.39 109.52 114.3 109.16 114.17 108.83 113.97 108.52 113.75 108.25 113.47 108.02 113.16 107.81 112.83 107.69 112.47 107.6 112.11 107.57 111.75 107.6 111.39 107.69 111.06 107.81 110.75 108.02 110.47 108.25 110.23 108.52 110.04 108.83 109.9 109.16 109.81 109.52 109.78 109.88 109.81 110.25 109.9 110.6 110.04 110.94 110.23 111.24 110.47 111.52 110.75 111.76 111.06 111.95 111.39 112.09 111.75 112.17 112.11 112.2 112.47 112.17 112.83 112.09 113.16 111.95 113.47 111.76 113.75 111.52 113.97 111.24 114.17 110.94 114.3 110.6 114.39 110.25 114.42 109.88 114.42 109.88" fill-rule="evenodd"/>
    <polygon points="116.16 86.14 116.14 85.68 116.06 85.24 115.94 84.79 115.75 84.38 115.54 83.97 115.28 83.6 114.98 83.27 114.64 82.97 114.26 82.7 113.86 82.48 113.44 82.31 113.01 82.18 112.55 82.11 112.11 82.08 111.65 82.11 111.2 82.18 110.77 82.31 110.34 82.48 109.96 82.7 109.58 82.97 109.24 83.27 108.94 83.6 108.68 83.97 108.45 84.38 108.28 84.79 108.15 85.24 108.08 85.68 108.05 86.14 108.08 86.58 108.15 87.04 108.28 87.47 108.45 87.89 108.68 88.29 108.94 88.67 109.24 89.01 109.58 89.31 109.96 89.57 110.34 89.78 110.77 89.96 111.2 90.08 111.65 90.17 112.11 90.19 112.55 90.17 113.01 90.08 113.44 89.96 113.86 89.78 114.26 89.57 114.64 89.31 114.98 89.01 115.28 88.67 115.54 88.29 115.75 87.89 115.94 87.47 116.06 87.04 116.14 86.58 116.16 86.14 116.16 86.14" fill-rule="evenodd"/>
    <polygon points="112.63 94.29 112.6 93.97 112.52 93.67 112.41 93.37 112.24 93.1 112.04 92.85 111.79 92.65 111.52 92.48 111.22 92.37 110.92 92.29 110.6 92.27 110.29 92.29 109.97 92.37 109.68 92.48 109.41 92.65 109.17 92.85 108.95 93.1 108.79 93.37 108.67 93.67 108.59 93.97 108.56 94.29 108.59 94.6 108.67 94.92 108.79 95.21 108.95 95.48 109.17 95.72 109.41 95.94 109.68 96.09 109.97 96.22 110.29 96.3 110.6 96.33 110.92 96.3 111.22 96.22 111.52 96.09 111.79 95.94 112.04 95.72 112.24 95.48 112.41 95.21 112.52 94.92 112.6 94.6 112.63 94.29 112.63 94.29" fill-rule="evenodd"/>
    <polygon points="107.96 103.22 107.93 102.91 107.86 102.59 107.75 102.31 107.57 102.03 107.37 101.79 107.13 101.59 106.86 101.42 106.55 101.3 106.25 101.23 105.94 101.2 105.62 101.23 105.31 101.3 105.02 101.42 104.75 101.59 104.5 101.79 104.3 102.03 104.13 102.31 104.01 102.59 103.93 102.91 103.91 103.22 103.93 103.54 104.01 103.86 104.13 104.14 104.3 104.42 104.5 104.66 104.75 104.86 105.02 105.03 105.31 105.16 105.62 105.23 105.94 105.25 106.25 105.23 106.55 105.16 106.86 105.03 107.13 104.86 107.37 104.66 107.57 104.42 107.75 104.14 107.86 103.86 107.93 103.54 107.96 103.22 107.96 103.22" fill-rule="evenodd"/>
    <polygon points="98.36 100.18 98.33 99.87 98.26 99.55 98.13 99.27 97.97 98.99 97.76 98.75 97.51 98.55 97.25 98.38 96.95 98.25 96.65 98.17 96.32 98.16 96 98.17 95.7 98.25 95.4 98.38 95.13 98.55 94.9 98.75 94.68 98.99 94.53 99.27 94.4 99.55 94.33 99.87 94.3 100.18 94.33 100.5 94.4 100.81 94.53 101.1 94.68 101.37 94.9 101.62 95.13 101.82 95.4 101.99 95.7 102.11 96 102.18 96.32 102.21 96.65 102.18 96.95 102.11 97.25 101.99 97.51 101.82 97.76 101.62 97.97 101.37 98.13 101.1 98.26 100.81 98.33 100.5 98.36 100.18 98.36 100.18" fill-rule="evenodd"/>
    <path d="M322.52,476.44l0-.56-.09-.57-.13-.54-.17-.54-.24-.52-.27-.5-.31-.47-.37-.43-.4-.4-.43-.37-.47-.32-.49-.27-.53-.23-.53-.19-.56-.13-.56-.07-.57,0-.56,0-.57.07-.55.13-.54.19-.52.23-.5.27-.46.32-.45.37-.4.4-.36.43-.33.47-.27.5-.23.52-.19.54-.13.54-.07.57,0,.56,0,.57.07.56.13.56.19.53.23.53.27.49.33.47.36.45.4.4.45.36.46.32.5.29.52.23.54.17.55.13.57.09.56,0,.57,0,.56-.09.56-.13.53-.17.53-.23.49-.29.47-.32.43-.36.4-.4.37-.45.31-.47.27-.49.24-.53.17-.53.13-.56.09-.56,0-.57ZM280.08,478l0-.49-.07-.47-.13-.46-.17-.44-.22-.43-.26-.4-.3-.37-.34-.34-.37-.3-.4-.26-.43-.23-.44-.17-.46-.11-.49-.09H275l-.47.09-.47.11-.44.17-.43.23-.4.26-.37.3-.34.34-.3.37-.26.4-.22.43-.17.44-.13.46-.07.47,0,.49,0,.47.07.47.13.47.17.44.22.43.26.4.3.37.34.33.37.32.4.26.43.22.44.17.47.13.47.07.47,0,.47,0,.49-.07.46-.13.44-.17.43-.22.4-.26.37-.32.34-.33.3-.37.26-.4.22-.43.17-.44L280,479l.07-.47,0-.47Zm59.36-27.12V478H327l-.13.76-.19.75-.24.73-.29.72-.34.69-.4.66-.43.63-.49.6-.52.57-.57.53-.59.47-.65.45-.66.4-.69.34-.7.29-.75.24-.75.2-.76.13-.76.09-.78,0-.76,0-.78-.09-.76-.13-.75-.2-.73-.24-.72-.29-.69-.34-.66-.4-.63-.45-.6-.47-.56-.53-.53-.57-.47-.6-.44-.63-.39-.66-.34-.69-.3-.72-.23-.73-.2-.75-.13-.76h-21v.69l-.07.69-.13.67-.17.67-.23.66-.27.63-.32.62-.37.59-.4.56-.46.53-.47.49-.53.46-.56.4-.57.37-.62.33-.63.27-.66.23-.66.19-.69.13-.69.07-.69,0-.69,0-.69-.07-.69-.13-.66-.19-.66-.23-.63-.27-.6-.33-.59-.37-.56-.4-.52-.46-.49-.49-.46-.53-.4-.56-.37-.59-.32-.62-.27-.63-.23-.66-.17-.67-.11-.67-.09-.69V478h-8.43l-2.73,7-19.75-6,1.68-5.41L251.73,478l31.76-82.31,5.3,2-25.22,65.32h4.64l19.58-50.72.26-.6.3-.56.34-.56.4-.52.43-.47.47-.46.5-.4.53-.37.56-.32.59-.27.6-.23.63-.19.63-.13.65-.07.65,0h19.17l.62,0,.62.07.6.13.6.17.58.23.56.27.53.32.52.36.47.4.43.44.4.47.36.5.32.53.27.56.23.59.19.59.12.62.09.62,0,.62V444h10.46l.6,0,.6.09.59.13.57.19.56.23.54.27.5.33.49.37.45.4.4.44.37.49.33.5.27.54.23.56.19.57.13.59.09.6,0,.6Zm-22.28-36.19V444H301.73v12.49H279.49l12.27-18,1.81,2.25.19.19.22.13.24.09.26,0,.26,0L295,441l.22-.13.19-.19.14-.22.09-.24,0-.26,0-.26-.09-.24-.14-.23-5.05-6.31-.19-.19-.23-.13-.24-.09-.26,0-.24,0-.24.09-.23.13-.17.19-.14.21-.09.24,0,.26,0,.26.09.24.14.23,1.81,2.25-13.51,19.85h-1.09L292.1,414l.17-.37.22-.36.26-.33.29-.29.33-.26.36-.21.39-.17.39-.13.42-.07.42,0h18.95l.37,0,.37.07.36.13.33.16.31.22.29.24.24.29.21.32.17.34.12.36.07.37,0,.37Z" transform="translate(-197.91 -334.36)" fill-rule="evenodd"/>
  </g>
</svg>
