<svg id="Layer_1" data-name="Layer 1" xmlns="http://www.w3.org/2000/svg" width="70.05mm" height="61.26mm" viewBox="0 0 198.56 173.65">
  <title>w015</title>
  <g id="symbolgrp">
    <polygon points="197.71 164.94 104.25 2.94 103.67 2.08 102.95 1.43 102.16 0.86 101.22 0.42 100.29 0.14 99.28 0.06 98.27 0.14 97.26 0.42 96.4 0.86 95.54 1.43 94.89 2.08 94.31 2.94 0.86 164.94 0.42 165.88 0.14 166.81 0.06 167.82 0.14 168.83 0.42 169.84 0.86 170.7 1.43 171.57 2.08 172.22 2.94 172.79 3.81 173.22 4.82 173.51 5.82 173.58 192.74 173.58 193.74 173.51 194.68 173.22 195.62 172.79 196.41 172.22 197.13 171.57 197.71 170.7 198.14 169.84 198.42 168.83 198.5 167.82 198.42 166.81 198.14 165.88 197.71 164.94 197.71 164.94" stroke="#000" stroke-miterlimit="2.61" stroke-width="0.13" fill-rule="evenodd"/>
    <polygon points="99.28 18.14 182.08 161.7 16.48 161.7 99.28 18.14 99.28 18.14" fill="#fff200" stroke="#000" stroke-miterlimit="2.61" stroke-width="0.13" fill-rule="evenodd"/>
    <path d="M315.26,454.88l-18.48-13.08-2.7-1.93-6.31-4.45-9.4,3.58v-.77l15.71-25.73v47.4l-26.69,9.5v-1.58l-7.19-4V445.91l13.43-5.08,20.06-32.89-.81-.7-.67-.81-.53-.91-.35-1-.18-1.05V402.4l.21-1.05.35-1,.53-.91.7-.81,0,1.12.21,1.12.42,1.05.49.63.63.46.81.28.84.14.84,0,.6-.21.49-.39.31-.49.18-.6,0-.63-.24-.56-2.81-4.49-.25-.56-.11-.6v-4.52l-.7-.39-.63-.56-.53-.63-.39-.74-.25-.81-.07-.84.07-.81.25-.81.39-.74.53-.63.63-.56.7-.42v-3.93H295l-.39-.07-.28-.21-.21-.28-.07-.39v-2.38l.1-.67.32-.6.46-.49.6-.32.7-.1H298l.67.1.6.32.49.49.28.6.11.67v2.38L300,378l-.18.28-.32.21-.38.07h-.32v3.93l.7.42.63.56.53.63.38.74.25.81.07.81-.07.84-.25.81-.38.74-.53.63-.63.56-.7.39v3.86l.11.81.32.74.53.63.67.46.84.53.74.7.6.84.42.91.38,1.33.11,1.4-.11,1.4-.31,1.33-.6,1.3-.73,1.16-.49.49-.56.39L318,456.78l-2.7-1.89Zm2.7,1.89v17.35l-24,9.5,2,1.09,1.09-.46,5.51,3.05,24.73-9.08V463.4L318,456.78Zm-2.7-1.89v16.69L290.5,481.81v-1.19l-14-7.75-2.21-.14-2.95-1.61,25.46-8.87V409.06h1.4l17.08,45.82Zm0,0,2.7,1.89-2.7-1.89Z" transform="translate(-197.84 -334.19)" fill-rule="evenodd"/>
  </g>
</svg>
