<svg id="Layer_1" data-name="Layer 1" xmlns="http://www.w3.org/2000/svg" width="70.05mm" height="61.26mm" viewBox="0 0 198.56 173.65">
  <title>w016</title>
  <g id="symbolgrp">
    <polygon points="197.71 164.94 104.25 2.94 103.67 2.08 102.95 1.43 102.16 0.86 101.22 0.42 100.29 0.14 99.28 0.06 98.27 0.14 97.26 0.42 96.4 0.86 95.54 1.43 94.89 2.08 94.31 2.94 0.86 164.94 0.42 165.88 0.14 166.81 0.06 167.82 0.14 168.83 0.42 169.84 0.86 170.7 1.43 171.57 2.08 172.22 2.94 172.79 3.81 173.22 4.82 173.51 5.82 173.58 192.74 173.58 193.74 173.51 194.68 173.22 195.62 172.79 196.41 172.22 197.13 171.57 197.71 170.7 198.14 169.84 198.42 168.83 198.5 167.82 198.42 166.81 198.14 165.88 197.71 164.94 197.71 164.94" stroke="#000" stroke-miterlimit="2.61" stroke-width="0.13" fill-rule="evenodd"/>
    <polygon points="99.28 18.14 182.08 161.7 16.48 161.7 99.28 18.14 99.28 18.14" fill="#fff200" stroke="#000" stroke-miterlimit="2.61" stroke-width="0.13" fill-rule="evenodd"/>
    <path d="M327.14,474.79l-.14-.07-.29-.14-.21-.14-.29-.07-.58-.22-.43-.07-.29-.07-.14-.07-.14-.07-.29-.07-.72-.29-.79-.43-.87-.36-.86-.36-.79-.36-1.66-.65-1.65-.72-1.66-.65-1.66-.72.65-1.58.65-1.58.29-.94.21-1,.22-.94.07-.94,7.49-3.53,3.67-1.8,1.94-.79.94-.36.5-.14.5-.07h1l1.08.07,1,.22.94.29,2,.5.5.14.43.22.5.22.5.14,1,.14h.51l.5-.07.5-.22.43-.22.43-.29.36-.43.22-.43.21-.43.14-.5v-1.58l-.21-1-.07-.5-.29-.43-.29-.43-.29-.43-.5-.86.07-1.08-.21-2-.07-.5-.14-.5-.58-.86-.29-.5-.36-.36-.43-.22-.5-.22-.43-.22L338,443h-.5l-.5.07-1,.29-.43.22-.5.22-.36.36-.36.36-.36.36-.36.36-.94.43-1,.43-1.87.72-3.74,1.66-1.87.94-.94.43-.94.36-1,.36-.94.36-1.87.79.36-.43.43-.58.43-.65.29-.72.21-.79.22-.65.22-1.3v-1.3l-.14-1.22-.22-1.22-.36-1.15.07-.14.07-.14.07-.14.14-.14.22-.43L321,440l.72-1.51.36-.79.29-.79.29-.79.29-.86.29-.86.21-.94.14-.94.07-.79.22-1.44.14-.79.07-.94.07-.94v-.86l-.07-1.66-.07-.94-.07-.86-.14-.79-.07-.65-.14-1.58-.14-.86-.14-.94-.29-1-.36-.94-.43-.94-.43-.79-.94-1.44-1-1.44-.65-.72-.57-.65-.65-.58-.5-.58-.5-.43-.5-.58-.58-.65-.72-.65-.79-.65-.87-.5-.94-.5-.79-.36-.72-.29-.65-.29-.58-.29-.65-.43-.79-.36-.79-.36-.94-.36-.86-.29-.87-.22-.86-.14-1.58-.36-1.58-.22-1.73-.22-1.8-.14-1.66.07-1.66.07-1.66.14-1.8.29-1.66.43-1.58.43-1.58.58-1.58.65-1.58.79-1.44.79-1.58,1-.65.58-.65.5-1.15,1-1.22.94-.65.5-.65.65-.79.79-.65.86-.5.86-.43.79-.65,1.37-.72,1.51-.65,1.66-.58,1.66-.36,1.73-.36,1.73-.07,1.8v1.8l.07.94.22,1,.22.94.29.86.29.79.22.72.29.79.29.79.43.86.43.86.43.79.14.22.22.29.22.36.22.36-.36,1-.36,1-.36,1.08-.22,1.22-.14,1.3.07,1.3.22,1.37.43,1.15.5,1.08.5,1,.65,1,.65.86.58.72.5.65.86,1.44-4-1.51-3.89-1.66-2-.65-2-.72-1.94-.65-1-.36-.94-.5-.94-.58-.79-.65-1.66-1.3-.5-.29-.5-.22-.5-.07h-.5l-.5.07-.5.14-.5.14-.5.36-.36.36-.29.43-.29,1-.22,1-.07,1.08v2.16l-.07.22-.22.14-.36.43-.29.43-.29.43-.22.5-.07.5-.07.58.07.5.07.5.14.5.22.5.36.36.36.36.5.29.5.22.5.07.58.07.5-.07.5-.14.5-.22.94-.36.5-.14.58-.07h.5l.58.07,1,.22,4,1.37,4,1.3,4,1.44,4,1.37,2,.65,2,.58.22,1.08.36,1.15.36,1,.36.94-.65.29-.58.29-.5.14-.29.07-.36.14-.86.36-.79.36-1.15.58-1.22.43-1.44.58-1.37.58-1.3.65-1.22.5-1.44.65-.65.36-.58.22-1.3.58-.43.14-.36.14-.43.07h-1.66l-.79-.07h-.79l-.14-.07h-.22l-.29-.07h-.72l-.43.07-.29.07-.29.14-.43.22-.22.22-.29.22-.29.36-.22.36-.14.43-.07.36-.07.36.07.29v.5l.14.29.07.22.07.14v.14l.07.07.07.07.07.14.07.22.29.43.22.29.07.14.14.22.07.29.07.36.07.5.07.43.07.29v1l.07.43.07.29.14.29.14.36.22.36.29.29.36.36.22.14.29.22.5.14.36.14.43.07.5.07.58-.07.58-.14.65-.29.43-.29.29-.29.14-.14.22-.22.14-.14.14-.07.22-.22.29-.22.58-.29.29-.14.22-.14.29-.14.65-.29.29-.22.22-.07.65-.36.86-.36,1-.43.94-.5.86-.43.94-.43,1-.43.86-.43.72-.29.43-.14.5-.22.58-.22.65-.29.58-.29.5-.29.36-.22.36-.14.29-.14.43-.14.43-.22.58-.14,1-.43.94-.43,1.87-.72,1.15,1.08.65.5.65.58.79.43.79.43.79.36.79.29,1.58.43,1.58.29,1.51.14h1.58l.94-.07.87-.07.79-.22.65-.14.72-.14.72-.22,1.51-.43,1.3-.58.72-.29.72-.36.72-.43.72-.43.72-.5.72-.5,1.66.65.86.29.72.29.72.36.79.43.94.43,1,.43.5.14.43.14.65.22.36.14.36.22.86.36,3.38,1.51,3.38,1.44.79.36.72.36.65.29.58.36.29.22.36.22.72.58.36.29.5.43.36.22.36.14.43.22.58.14.79.14.65-.07.79-.14.72-.29.36-.29.36-.29.36-.43.29-.36.21-.43.07-.36.22-.58v-.43l.07-.36v-.79l.07-.07.14-.14.14-.29.14-.29.14-.29.14-.22.07-.14.07-.14.07-.14.14-.14.14-.29.14-.22.07-.14.07-.29.07-.22.07-.29.07-.36v-.43l-.14-.65-.07-.36-.21-.29-.22-.29-.21-.29-.43-.36-.43-.22-.29-.07-.22-.07-.14-.07h-1.44l-.29.07-.14.07h-.29v.07h-.5L333,476l-.79.07-.29.07h-.29l-.36-.07h-.14l-.29-.07-.65-.29-.79-.22-.94-.36-.87-.22-.36-.07-.14-.07ZM255,447.65l.22-.07h.29v.07l.14.07.14.14.29.14.58.5.65.5.72.58.79.58.94.5.86.43,1,.29.79.22.65.22.58.22.72.29.79.29.86.29.79.22.65.22.5.22.65.29,1.51.65,3,1.15.79.29.36.14.5.22.58.14.65.29.43.14.43.14.58.14.58.22.22.79.14.94.36,1.94-1.51-.5-1.58-.5-1.66-.58-1.58-.43-1.44-.58-1.66-.58-1.66-.65-1.66-.5-3.17-1-1.58-.5-.86-.29-.94-.29-.58-.14-.58-.07-.72-.07-.72.07-.72.07-.65.14-.65.22-.43.22-.36.07-.14.14h-.65l-.07-.14v-.58l.14-.22.22-.29.07-.07.07-.07.22-.14.22-.36.22-.36.29-.58.14-.65.07-.29V451l-.07-.07v-2l.07-.22v-.29l.22-.72Zm37.22.65.94-2.23.5-1.15.29-.5.36-.43.43-.43.5-.36.5-.36.5-.22.29-.07.36.07.58.14.5.29.51.36.86.79.36.5.29.58.5,1.08.36,1.15.29,1.15.14,1.22.14,1.15.22,1.15v.65l-.07.58-.14.58-.22.58-.43.43-.58.29-.5.22-.58.14h-.65l-.58-.14-.5-.29-.5-.29-.36-.07-.29-.07h-.14l-.14.07-.22.22-.22.14-.29.14-.58.07-.58.07h-.65l-.58-.22-.58-.22-.43-.43-.14-.22-.14-.29-.14-.58-.07-.65-.07-.58v-.58l.14-.58.14-.58.29-1.15.07-.65.29-.5Zm-10.94-6.41-.65-1.22-.14-.58-.14-.65-.14-.72v-.65l.14-.65.14-.65.29-.65.29-.58.43-.5.43-.5.58-.29.65-.29,1.22-.36,1.37-.43.65-.07L287,433l1.3.07h1.37l.65.14.65.14.65.22.58.29.43.5.43.5.36.58.29.58.14.65v2.74l-.14.65-.58,1.22-.29.58-.36.58-.29.58-.22.29-.22.22-.58.29-.43.58-.43.43-.5.5-.58.36-.58.29-.65.22-.65.07h-.65l-.72-.07-.58-.22-.65-.22-1.15-.79-.5-.36-.5-.43-.43-.5-.36-.58-.58-1.22ZM314,439.23l-.07.72-.14.65-.07.72-.14.65-.22.65-.29.65-.65,1.22-.21.29L312,445l-.58.43-.58.36-.29.22-.29.07-1.37.29-.72.07-.65-.07-.65-.22-.65-.29-.65-.29-.58-.43-.5-.5-.43-.5-.86-1.08-.79-1.15-.65-1.22-.36-.58-.29-.65-.22-.65-.07-.65v-.72l.22-.72.36-.58.43-.5.36-.58.29-.65.22-.22L303,434l.65-.29.65-.22.65-.36.29-.14.29-.22.72-.14,1.3-.29,1.37-.29.72-.07h.65l.72.07.65.14.65.22.57.36.58.5.22.22.22.29.14.29.07.36.07.72.07.65.07.72-.22,1.37v1.37Zm24,6.84.21.36.14.22.07.07v.43l.07.58.07.43v.36l.07.43h0l-.07.14v.79l.07.29.07.36.14.36.14.22.07.22.14.14.07.14.07.07.07.14.07.22.14.22.29.43.22.22.07.29v.43l.07.29v.22l-.07.36v.22h-.87l-.14-.07h-.07l-.14-.07-.14-.07-.29-.14-.5-.22-.5-.14-.36-.07-.36-.14-.65-.14-.65-.22-.79-.22-.79-.22-.86-.14-1.66-.14H331l-.58.07-.65.07-.57.22-.5.14-.43.14-.65.36-1.3.5-5.18,2.38-2.59,1.3-1.3.65-1.22.58.07-.86.14-.94.14-.94.21-.86.29-.07.29-.14.36-.07.21-.14.14-.07.58-.22.58-.22.79-.29,1.51-.58.58-.36.58-.22.65-.22.65-.29.86-.29.79-.36.72-.36.58-.29,1.22-.58,2.66-1.15,1.29-.5,1.37-.58.72-.29.43-.22.58-.29.57-.43.29-.29.22-.22.14-.14.22-.14.14-.22.07-.07.07-.07.14-.07.36-.07.43-.14.21.14.22.07Zm-25.71,25.7,3.24,1.3,3.31,1.44,3.24,1.44.79.36.87.29.86.22.43.07.43.22.36.22.43.14.86.29.79.22.86.29,1.73.58.86.14.94-.07,1.73-.14.87-.07.43-.14h.65l.07.07v.14l-.29.36-.36.79-.94,1.51-.14.43-.07.43v.94l-.07.43-.14.36-.14.22-.21.14-.43.14-.43-.07-.36-.14-.79-.43-1.44-1.08-.72-.5-.72-.5-1.66-.72-3.31-1.44-6.48-2.81-1.66-.65-1.58-.79-1.66-.72-1.66-.58.79-1.15.72-1.15Zm-28.94,2.09-3.24,1.37-1.58.58-1.58.79-.72.43-.86.29-.79.29-.79.29-3.1,1.51-1.66.72-1.51.72-.79.36-.72.43-1.58.79-.72.43-.72.58-.58.58-.36.29-.14.07-.22.07-.43-.14-.29-.07-.07-.14-.07-.43-.07-.5-.07-.79-.14-.94-.14-.79-.36-.79-.43-.79-.22-.29-.22-.43v-.22l.22-.07.36.07.43.07h.43l1.8.07h.86l.79-.07L265,478l.86-.29,1.58-.72,1.51-.72,3.17-1.37,1.66-.72,1.58-.65,1.58-.65,1.58-.72,1.58-.58,1.66-.72.29.72.43.72.94,1.51Zm-9.36-39.38-.36-.58-.29-.72-.58-1.44-.5-1.37-.43-1.44-.22-1.51-.07-1.44v-1.51l.22-1.51.29-1.44.43-1.44.5-1.44.65-1.3,1.3-2.74.36-.65.43-.58.5-.58.5-.58,4.68-3.74,1.22-.79,1.37-.72,1.37-.65,1.37-.58,1.37-.5,1.44-.36,1.44-.36,1.51-.29,3-.22,1.51-.07,1.51.07,1.44.22,1.51.22,3,.58,1.44.43,1.37.58,1.29.72,1.37.58,1.37.65.65.36.65.43.65.43.5.5,1,1.08,2.16,2.16.94,1.08.86,1.22.79,1.3.36.72.29.65.21.72.22.72.21,1.51.36,3,.14,1.51v3l-.21,1.51-.43,3-.36,1.44-.5,1.44-.5,1.37-.65,1.37-.21-1-.22-1.08-.07-1.08-.07-1,.07-.94.07-.5.14-.5.5-2.3.14-.5.21-.72.14-.72.14-.79.14-.79v-.79l-.07-1.51-.14-1.44-.22-1.44-.43-1.44-.21-.79-.29-.65-.29-.43-.43-.29-.57-.14-.58.14-.43.29-.29.43-.07.58.07.5.36.86.22.94.43,1.87.14.94v1.87l-.07.94-.22.94-.21.86-.5,1.87-.43,1.8-.07,1-.07.94.14,1.87.29,1.87.14.94.29.86.72,1.8.36.86.29.86.21.94.07.94.07.94-.07.94-.22.94-.43.86-.58.5-.72.43-1.44.65-.72.36-.29.22-.29.29-.29.29-.29.29-.65.5-.29.22-.29.36-.43.65-.36.72-.29.72-.58,1.44-.29.79-.14.79-1.66.07-.43.07-.21.14-.14.14-.14.36-.07.14-.14.14H306l-.36-.07-.22-.07h-.21l-.36.14-.36.22-.21.36-.14.14L304,460l-.36.14h-.5v-.22l-.07-.07h-.29l-.21.07-.36.14-.79.22-.14.14-.14.14-.07.22-.14.07-.22.07h-.21l-.22-.07-.14-.22-.14-.07-.22.07-.43.07-.14.07-.14.14-.36.22-.36.07h-.86L297,461l-.43.07-.36.14-.22.07h-.14l-.43-.14-.14-.07-.14-.22-.14-.07h-1.22l-.14.14-.22.07h-.22l-.79-.07-.22-.07-.07-.22-.14-.14-.14-.07-.79-.14h-.79l-.22-.43-.29-.22-.22-.14-.14-.07h-1.3l-.07-.14-.14-.14-.14-.14-.22-.07-.36-.07-.43.07-.36.14-.36.29-.14-.94-.29-.94-.43-1.87-.43-.86-.36-.86-.5-.86-.58-.79-.36-.29-.36-.36-.79-.43-1.8-.72-.86-.29-.94-.29-.94-.29-.43-.14-.43-.29-.5-.72-.5-.79-.43-.79-.36-.79-.22-.94-.14-.86-.07-.94.14-.86.14-.86.29-.94.65-1.66.72-1.66.36-.86.29-.86.29-1.73.14-.94.07-.94-.07-1.8.07-.86-.07-.94-.36-1.8-.22-1.8-.07-.94v-.43l.14-.43.36-.79.14-.43v-1l-.22-.5-.43-.43-.5-.14h-.5l-.5.22-.36.36-.22.58-.07.36-.14.36-.22.5-.14.43-.07.5v.36l-.07.36.07.58.14,1.8.29,1.73.07.36.07.36v.22l.07.22v.58l-.07.36v1.3l.07.72-.07,1.22-.29,1.37Zm10,28,.11.58.07.65.36,1.08.22.58.36.5.22.22.22.14.58.22.36.43.29.22.14.22v.29l.14.07h.43l.29.07.29.07h.29l.14.07.14.07.14.29.29.5.22.22.29.14.29.07.29-.07.58-.14.29.07.22.14.22.22.22.22.58.14h.65l.22-.14h.29l.58.29,1.08.36.36.07h.29l.22-.22.22-.22.22-.14h.36l.58.14.22.22.29.14.29-.07.29-.07.29-.07L299,470l.14-.36.07-.07H300l.14.07v.14l.07.14.14.07H301l.58-.22.29-.07.14-.07.07-.07.07-.14.07-.14.29.07.58-.07h.58l.58-.29.29-.07.29-.14.07-.07.07-.14-.07-.14.07-.14.14-.07h.5l.58-.07.58-.14.5-.29.14-.22.07-.29.07-.29.22-.22.14-.07h.43l.29-.07.29-.07.29-.14.14-.29.29-1.15.29.07.29-.07.58-.29.22-.22.14-.22v-.65l.07-.58-.07-.29v-.29l.29-.14.07-.14v-.79l.14-1,.14-1.08.14-.58v-.36l.07-.14.14-.36.14-.5.29-.5.21-.65.14-.29v-.14l.07-.14.07-.14.14-.14.29-.43.07-.14.14-.14.21-.14-.43,2-.29,2.09-.14,2-.14,2.09-.21,1-.29,1-.65,1.94-.79,1.87-1,1.87L308.93,472l-.65.79-.65.79-.79.72-.79.65-.86.5-.94.5-1.87.79-1,.29-1,.29-2,.43-1,.14h-1.08l-2-.14-1-.22-1-.22-1-.36-.94-.36-.86-.58-.86-.58-.79-.72-.65-.79-.72-.72-.58-.86-.58-.86-.5-.86-.86-1.94-.79-1.87-.65-1.94-.5-2-.43-2-.36-2-.43-2-.36-1-.36-.94L279,453l.65.22.72.36.29.14.22.14.22.14.07.14.14.14.36.5.29.58.29.65.14.29.07.14.07.29.07.36.07.43.14.58.14.58.07.22.07.22.07.22v.22l.07.22.07.29.14.72.22.5.14.5.18.72Z" transform="translate(-197.84 -334.19)" fill-rule="evenodd"/>
  </g>
</svg>
