<svg id="Layer_1" data-name="Layer 1" xmlns="http://www.w3.org/2000/svg" width="70.05mm" height="61.26mm" viewBox="0 0 198.56 173.65">
  <title>w017</title>
  <g id="symbolgrp">
    <polygon points="197.71 164.94 104.25 2.94 103.67 2.08 102.95 1.43 102.16 0.86 101.22 0.42 100.29 0.14 99.28 0.06 98.27 0.14 97.26 0.42 96.4 0.86 95.54 1.43 94.89 2.08 94.31 2.94 0.86 164.94 0.42 165.88 0.14 166.81 0.06 167.82 0.14 168.83 0.42 169.84 0.86 170.7 1.43 171.57 2.08 172.22 2.94 172.79 3.81 173.22 4.82 173.51 5.82 173.58 192.74 173.58 193.74 173.51 194.68 173.22 195.62 172.79 196.41 172.22 197.13 171.57 197.71 170.7 198.14 169.84 198.42 168.83 198.5 167.82 198.42 166.81 198.14 165.88 197.71 164.94 197.71 164.94" stroke="#000" stroke-miterlimit="2.61" stroke-width="0.13" fill-rule="evenodd"/>
    <polygon points="99.28 18.14 182.08 161.7 16.48 161.7 99.28 18.14 99.28 18.14" fill="#fff200" stroke="#000" stroke-miterlimit="2.61" stroke-width="0.13" fill-rule="evenodd"/>
    <path d="M257.86,487.41V478.9h80.79v8.51Zm22.81-13.47L282,472l1.19-2,1-2.07.81-2.18.67-2.22.48-2.29.26-2.29.11-2.33-.11-2.33-.26-2.29-.48-2.26-.67-2.26-.81-2.15-1-2.11-1.19-2-1.33-1.89-1.22-1.74-1-1.85-.89-2-.67-2-.52-2.07-.3-2.11L276,425.5l.07-2.15.3-2.11.52-2,.67-2,.89-1.92,1-1.85,1.22-1.74-4.48-3.48-1.37,1.92-1.15,2-1,2.07-.85,2.18-.63,2.22-.48,2.29-.3,2.29-.07,2.33.07,2.33.3,2.29.48,2.26.63,2.26.85,2.15,1,2.11,1.15,2,1.37,1.89,1.22,1.74,1,1.85.85,2,.7,2,.48,2.07.3,2.11.11,2.11-.11,2.15-.3,2.07-.48,2.07-.7,2-.85,1.92-1,1.85-1.22,1.74,4.48,3.48Zm19.85,0,1.33-1.92,1.19-2,1-2.07.85-2.18.67-2.22.48-2.29.26-2.29.11-2.33-.11-2.33L306,452l-.48-2.26-.67-2.26-.85-2.15-1-2.11-1.19-2-1.33-1.89-1.22-1.74-1-1.85-.89-2-.67-2-.52-2.07-.3-2.11-.07-2.11.07-2.15.3-2.11.52-2,.67-2,.89-1.92,1-1.85,1.22-1.74L296,408.18l-1.37,1.92-1.18,2-1,2.07-.85,2.18-.63,2.22-.48,2.29-.3,2.29-.07,2.33.07,2.33.3,2.29.48,2.26.63,2.26.85,2.15,1,2.11,1.18,2,1.37,1.89,1.18,1.74,1.07,1.85.85,2,.7,2,.48,2.07.3,2.11.11,2.11-.11,2.15-.3,2.07-.48,2.07-.7,2-.85,1.92-1.07,1.85L296,470.46l4.48,3.48Zm19.85,0,1.33-1.92,1.18-2,1-2.07.85-2.18.67-2.22.48-2.29.26-2.29.11-2.33-.11-2.33-.26-2.29-.48-2.26-.67-2.26-.85-2.15-1-2.11-1.18-2-1.33-1.89-1.22-1.74-1-1.85-.89-2-.67-2-.52-2.07-.3-2.11-.07-2.11.07-2.15.3-2.11.52-2,.67-2,.89-1.92,1-1.85,1.22-1.74-4.48-3.48-1.37,1.92-1.19,2-1,2.07-.85,2.18-.63,2.22-.48,2.29-.29,2.29L310,425.5l.11,2.33.29,2.29.48,2.26.63,2.26.85,2.15,1,2.11,1.19,2,1.37,1.89,1.19,1.74,1.07,1.85.85,2,.7,2,.48,2.07.3,2.11.11,2.11-.11,2.15-.3,2.07-.48,2.07-.7,2-.85,1.92-1.07,1.85-1.19,1.74,4.48,3.48Z" transform="translate(-197.84 -334.19)" fill-rule="evenodd"/>
  </g>
</svg>
