<svg id="Layer_1" data-name="Layer 1" xmlns="http://www.w3.org/2000/svg" width="70.05mm" height="61.26mm" viewBox="0 0 198.56 173.65">
  <title>w018</title>
  <g id="symbolgrp">
    <polygon points="197.71 164.94 104.25 2.94 103.67 2.08 102.95 1.43 102.16 0.86 101.22 0.42 100.29 0.14 99.28 0.06 98.27 0.14 97.26 0.42 96.4 0.86 95.54 1.43 94.89 2.08 94.31 2.94 0.86 164.94 0.42 165.88 0.14 166.81 0.06 167.82 0.14 168.83 0.42 169.84 0.86 170.7 1.43 171.57 2.08 172.22 2.94 172.79 3.81 173.22 4.82 173.51 5.82 173.58 192.74 173.58 193.74 173.51 194.68 173.22 195.62 172.79 196.41 172.22 197.13 171.57 197.71 170.7 198.14 169.84 198.42 168.83 198.5 167.82 198.42 166.81 198.14 165.88 197.71 164.94 197.71 164.94" stroke="#000" stroke-miterlimit="2.61" stroke-width="0.13" fill-rule="evenodd"/>
    <polygon points="99.28 18.14 182.08 161.7 16.48 161.7 99.28 18.14 99.28 18.14" fill="#fff200" stroke="#000" stroke-miterlimit="2.61" stroke-width="0.13" fill-rule="evenodd"/>
    <path d="M313.42,448l-.07-1.83-.33-1.8-.51-1.76-.7-1.69-.88-1.61-1.06-1.47-1.21-1.39-1.36-1.21-1.47-1.06-1.62-.88-1.69-.7-1.76-.51-1.8-.29-1.84-.11-1.8.11-1.84.29-1.73.51-1.69.7-1.61.88-1.5,1.06-1.36,1.21-1.21,1.39-1.06,1.47-.88,1.61-.7,1.69-.51,1.76-.29,1.8-.11,1.83.11,1.8.29,1.83.51,1.72.7,1.69.88,1.61,1.06,1.5,1.21,1.36,1.36,1.21,1.5,1.06,1.61.88,1.69.7,1.73.51,1.84.29,1.8.11,1.84-.11,1.8-.29,1.76-.51,1.69-.7,1.62-.88,1.47-1.06,1.36-1.21,1.21-1.36,1.06-1.5.88-1.61.7-1.69.51-1.72.33-1.83.07-1.8Zm-26.28,17.94,2.17,1.1,2.28.92,2.31.7,2.35.51,2.42.33,2.42.11,2.42-.07,2.42-.29,2.35-.48,2.35-.7,2.24-.84,2.2-1.06,2.09-1.25,1.95-1.39,1.87-1.58,1.73-1.72,1.54-1.83,1.43-2,1.21-2.09,1.06-2.16.88-2.27.7-2.31.48-2.38.29-2.42.07-2.42-.11-2.42-.33-2.42-.51-2.35-.7-2.31-.92-2.27-1.06-2.16-1.29-2.05-1.43-2-1.58-1.83-1.72-1.69-1.87-1.54-2-1.36-2.09-1.21-2.2-1.06-2.28-.84-2.31-.62-1.54,4,2.13.55,2.06.73,2,.92,1.91,1.06,1.8,1.25,1.69,1.39,1.54,1.54,1.43,1.65,1.25,1.8,1.1,1.91.92,1.94L325,433l.55,2.13.4,2.16.18,2.16v2.2l-.22,2.16-.37,2.16-.59,2.09-.73,2.05-1,2-1.1,1.91-1.29,1.76-1.39,1.69L317.89,459l-1.69,1.36-1.8,1.25-1.91,1.06-2,.92,1.43-1.39,1.32-1.5,1.17-1.61,1-1.76.85-1.83.62-1.87.44-2,.26-2,.07-2-.15-2.42-.33-2.42-.55-2.35-.73-2.31-.92-2.27-1.1-2.13-1.28-2.05-1.47-1.94-1.62-1.83-1.72-1.69-1.91-1.5-2-1.36-2.09-1.21-2.2-1-2.28-.81-2.35-.66-2.39-.4-2.42-.26h-2.42l-2.42.15-2.39.37-2.39.59-2.28.77-2.24,1L273.88,423l-2.06,1.32-1.91,1.47-1.8,1.61-1.65,1.8-1.5,1.91-1.32,2-1.17,2.13-1,2.24-.77,2.27-.62,2.35-.37,2.38-.22,2.42v2.42l.22,2.42.4,2.42.59,2.35,4.26-.7-.59-2.09-.4-2.16-.22-2.17v-2.2l.18-2.16.37-2.17.55-2.13.73-2.05.92-2,1.06-1.91,1.25-1.8,1.43-1.69,1.54-1.54,1.65-1.39,1.8-1.25,1.91-1.1,2-.92,2.06-.73,2.13-.55,2.13-.4,2.2-.15h2.17l2.2.22,2.13.37,2.13.59,2.06.77,1.95,1,1.91,1.1,1.76,1.28L302,428l-2-.4-2-.18h-2l-2,.22-2,.37-1.91.59-1.83.77-1.8,1-2,1.32-1.91,1.5-1.76,1.65-1.65,1.8-1.47,1.94-1.32,2-1.14,2.13-1,2.24-.77,2.31-.59,2.35L272.6,452l-.15,2.38v2.46l.22,2.38.44,2.38.62,2.35.84,2.31,1,2.2,1.17,2.09,1.36,2,1.54,1.91,1.65,1.72,1.84,1.61,1.95,1.47,2.06,1.28,2.17,1.1,2.24,1,2.31.73,2.35.55,2.39.33,2.42.15,2.42-.07,2.42-.26,2.38-.48,2.35-.62,2.28-.88,2.17-1,2.09-1.21,2-1.39,1.87-1.54,1.72-1.69L320,471.91l-1.54,1.54-1.65,1.43-1.76,1.28-1.91,1.1-2,1-2.06.73-2.09.59-2.17.4-2.17.18h-2.2l-2.17-.18-2.17-.37-2.09-.55-2.06-.77-2-.92-1.91-1.1-1.8-1.25-1.65-1.43L283.13,472l-1.39-1.69-1.25-1.8-1.1-1.91-.88-2-.73-2.05-.55-2.13-.37-2.16-.18-2.16,0-2.2.22-2.17.48,1.94.62,1.91.84,1.8,1,1.76L281,460.8l1.36,1.5,1.47,1.36,1.58,1.25,1.69,1Z" transform="translate(-197.84 -334.19)" stroke="#000" stroke-miterlimit="2.61" stroke-width="0.22" fill-rule="evenodd"/>
  </g>
</svg>
