<svg id="Layer_1" data-name="Layer 1" xmlns="http://www.w3.org/2000/svg" width="70mm" height="61.14mm" viewBox="0 0 198.42 173.3">
  <title>w019</title>
  <g id="symbolgrp">
    <polygon points="181.94 161.42 99.21 18.14 16.49 161.42 181.94 161.42 181.94 161.42" fill="#fff200" fill-rule="evenodd"/>
    <path d="M379.85,495.78,297.12,352.5,214.4,495.78Zm10.8,11.88a5.64,5.64,0,0,0,5.69-5.62,6,6,0,0,0-.94-3.17l-93.6-162a5.56,5.56,0,0,0-4.68-2.52,5.78,5.78,0,0,0-4.75,2.52l-93.52,162a6,6,0,0,0-.94,3.17,5.64,5.64,0,0,0,5.69,5.62Z" transform="translate(-197.91 -334.36)" fill-rule="evenodd"/>
    <polygon points="107.58 92.57 107.58 115.83 107.61 116.22 107.7 116.61 107.81 116.97 107.98 117.33 108.2 117.64 108.46 117.94 108.76 118.2 109.07 118.42 109.43 118.59 109.81 118.72 110.18 118.79 110.56 118.82 110.95 118.79 111.34 118.72 111.71 118.59 112.06 118.42 112.39 118.2 112.68 117.94 112.93 117.64 113.15 117.33 113.32 116.97 113.45 116.61 113.52 116.22 113.55 115.83 113.55 92.01 113.52 91.33 113.45 90.66 113.32 89.98 113.14 89.34 112.89 88.69 112.6 88.08 112.27 87.49 111.9 86.92 111.48 86.38 111.02 85.88 110.52 85.42 109.99 85.01 109.42 84.63 108.83 84.29 108.21 84.02 107.58 83.77 106.92 83.59 106.26 83.46 105.57 83.37 104.9 83.36 93.52 83.36 92.84 83.37 92.17 83.46 91.5 83.59 90.84 83.77 90.21 84.02 89.6 84.29 88.99 84.63 88.43 85.01 87.9 85.42 87.4 85.88 86.94 86.38 86.53 86.92 86.14 87.49 85.81 88.08 85.52 88.69 85.29 89.34 85.1 89.98 84.97 90.66 84.89 91.33 84.86 92.01 84.86 115.83 84.89 116.22 84.97 116.61 85.09 116.97 85.26 117.33 85.48 117.64 85.73 117.94 86.04 118.2 86.35 118.42 86.71 118.59 87.07 118.72 87.46 118.79 87.84 118.82 88.23 118.79 88.62 118.72 88.99 118.59 89.34 118.42 89.67 118.2 89.95 117.94 90.21 117.64 90.43 117.33 90.6 116.97 90.73 116.61 90.8 116.22 90.83 115.83 90.83 92.57 90.86 92.41 90.93 92.27 91.05 92.15 91.19 92.06 91.35 92.05 91.52 92.06 91.66 92.15 91.78 92.27 91.85 92.41 91.88 92.57 91.88 148.14 91.89 148.55 91.97 148.95 92.09 149.34 92.27 149.71 92.48 150.07 92.72 150.4 93.03 150.69 93.34 150.95 93.7 151.15 94.07 151.32 94.46 151.45 94.86 151.52 95.28 151.55 95.7 151.52 96.1 151.45 96.48 151.32 96.86 151.15 97.22 150.95 97.55 150.69 97.83 150.4 98.09 150.07 98.29 149.71 98.47 149.34 98.59 148.95 98.67 148.55 98.7 148.14 98.7 114.56 98.71 114.4 98.8 114.25 98.91 114.14 99.06 114.07 99.21 114.04 99.37 114.07 99.51 114.14 99.63 114.25 99.7 114.4 99.73 114.56 99.73 148.14 99.76 148.55 99.83 148.95 99.94 149.34 100.12 149.71 100.33 150.07 100.59 150.4 100.88 150.69 101.21 150.95 101.55 151.15 101.92 151.32 102.33 151.45 102.73 151.52 103.14 151.55 103.55 151.52 103.95 151.45 104.35 151.32 104.72 151.15 105.08 150.95 105.4 150.69 105.69 150.4 105.94 150.07 106.16 149.71 106.33 149.34 106.45 148.95 106.52 148.55 106.55 148.14 106.55 92.57 106.58 92.41 106.65 92.27 106.76 92.15 106.91 92.06 107.06 92.05 107.22 92.06 107.38 92.15 107.5 92.27 107.56 92.41 107.58 92.57 107.58 92.57" fill-rule="evenodd"/>
    <polygon points="56.83 123.72 56.83 127.27 43.71 127.27 43.71 132.29 56.83 132.29 56.83 135.84 63.56 129.78 56.83 123.72 56.83 123.72" fill-rule="evenodd"/>
    <polygon points="141.6 123.72 141.6 127.27 154.7 127.27 154.7 132.29 141.6 132.29 141.6 135.84 134.86 129.78 141.6 123.72 141.6 123.72" fill-rule="evenodd"/>
    <path d="M264.8,449.18v7.62L276.57,445v-2.48h-5.12l-6.65,6.64Zm11.77,3.46v7.62L264.8,472v-7.62l11.77-11.78Zm0,22.85-8.44,8.43H264.8v-4.27l11.77-11.78v7.62Zm-22.78-34.93-1.15,2H262v41.38H228.76l-1.13,2H279.4V440.55Z" transform="translate(-197.91 -334.36)" fill-rule="evenodd"/>
    <path d="M329.43,449.18v7.62L317.67,445v-2.48h5.12l6.63,6.64Zm-11.75,3.46,11.75,11.78V472l-11.75-11.78v-7.62Zm11.75,27v4.27H326.1l-8.42-8.43v-7.62l11.75,11.78Zm-14.6-39.09v45.36h51.78l-1.15-2h-33.2V442.53h9.33l-1.15-2Z" transform="translate(-197.91 -334.36)" fill-rule="evenodd"/>
    <polygon points="105.18 75.68 105.16 75.12 105.07 74.58 104.95 74.05 104.77 73.52 104.55 73.02 104.28 72.54 103.98 72.08 103.62 71.67 103.23 71.27 102.8 70.92 102.36 70.61 101.87 70.33 101.37 70.12 100.85 69.95 100.3 69.82 99.76 69.75 99.21 69.72 98.65 69.75 98.11 69.82 97.58 69.95 97.06 70.12 96.56 70.33 96.07 70.61 95.61 70.92 95.19 71.27 94.81 71.67 94.45 72.08 94.13 72.54 93.87 73.02 93.64 73.52 93.47 74.05 93.34 74.58 93.27 75.12 93.24 75.68 93.27 76.23 93.34 76.77 93.47 77.32 93.64 77.83 93.87 78.34 94.13 78.83 94.45 79.27 94.81 79.7 95.19 80.09 95.61 80.45 96.07 80.75 96.56 81.02 97.06 81.25 97.58 81.42 98.11 81.55 98.65 81.62 99.21 81.65 99.76 81.62 100.3 81.55 100.85 81.42 101.37 81.25 101.87 81.02 102.36 80.75 102.8 80.45 103.23 80.09 103.62 79.7 103.98 79.27 104.28 78.83 104.55 78.34 104.77 77.83 104.95 77.32 105.07 76.77 105.16 76.23 105.18 75.68 105.18 75.68" fill-rule="evenodd"/>
  </g>
</svg>
