<svg id="Layer_1" data-name="Layer 1" xmlns="http://www.w3.org/2000/svg" width="70mm" height="61.14mm" viewBox="0 0 198.42 173.3">
  <title>w020</title>
  <g id="symbolgrp">
    <polygon points="181.94 161.42 99.21 18.14 16.49 161.42 181.94 161.42 181.94 161.42" fill="#fff200" fill-rule="evenodd"/>
    <path d="M379.85,495.78,297.12,352.5,214.4,495.78Zm10.8,11.88a5.64,5.64,0,0,0,5.69-5.62,6,6,0,0,0-.94-3.17l-93.6-162a5.56,5.56,0,0,0-4.68-2.52,5.78,5.78,0,0,0-4.75,2.52l-93.52,162a6,6,0,0,0-.94,3.17,5.64,5.64,0,0,0,5.69,5.62Z" transform="translate(-197.91 -334.36)" fill-rule="evenodd"/>
    <polygon points="87.7 152.87 85.37 130.46 106.74 128.24 109.29 152.87 87.7 152.87 87.7 152.87" fill-rule="evenodd"/>
    <polygon points="134.54 126.62 126.47 104.68 117.64 107.92 125.72 129.86 134.54 126.62 134.54 126.62" fill-rule="evenodd"/>
    <polygon points="106.28 128.32 129.18 123.63 131.07 132.84 108.17 137.53 106.28 128.32 106.28 128.32" fill-rule="evenodd"/>
    <polygon points="61.67 152.87 82.52 131.83 89.2 138.46 74.9 152.87 61.67 152.87 61.67 152.87" fill-rule="evenodd"/>
    <polygon points="122.08 74.76 93.48 74.76 93.48 67.77 80.36 67.77 84.16 61.21 114.27 61.21 122.08 74.76 122.08 74.76" fill-rule="evenodd"/>
    <polygon points="118.11 100.08 118.42 83.51 124.25 78.5 121.24 76.33 116.47 76.33 118.96 78.13 114.2 81.39 114.11 90.26 107.29 83.45 99.8 95.36 99.21 83.01 80.99 84.94 90.6 74.85 90.6 69.44 66.5 92.02 95.17 88.09 96.3 108.05 107.98 90.1 118.11 100.08 118.11 100.08" fill-rule="evenodd"/>
    <polygon points="90.55 135.13 90.52 134.62 90.44 134.09 90.3 133.59 90.09 133.1 89.84 132.65 89.53 132.21 89.18 131.81 88.79 131.47 88.36 131.17 87.89 130.9 87.4 130.71 86.9 130.55 86.38 130.47 85.86 130.44 85.32 130.47 84.8 130.55 84.3 130.71 83.81 130.9 83.35 131.17 82.93 131.47 82.53 131.81 82.19 132.21 81.87 132.65 81.62 133.1 81.42 133.59 81.28 134.09 81.18 134.62 81.15 135.13 81.18 135.67 81.28 136.19 81.42 136.69 81.62 137.18 81.87 137.64 82.19 138.08 82.53 138.47 82.93 138.82 83.35 139.12 83.81 139.37 84.3 139.57 84.8 139.73 85.32 139.81 85.86 139.84 86.38 139.81 86.9 139.73 87.4 139.57 87.89 139.37 88.36 139.12 88.79 138.82 89.18 138.47 89.53 138.08 89.84 137.64 90.09 137.18 90.3 136.69 90.44 136.19 90.52 135.67 90.55 135.13 90.55 135.13" fill-rule="evenodd"/>
    <polygon points="126.75 106.3 126.72 105.78 126.63 105.26 126.49 104.76 126.28 104.27 126.03 103.8 125.73 103.37 125.37 102.98 124.99 102.63 124.55 102.33 124.09 102.07 123.61 101.86 123.1 101.72 122.58 101.64 122.05 101.61 121.53 101.64 121.01 101.72 120.5 101.86 120.01 102.07 119.56 102.33 119.12 102.63 118.72 102.98 118.38 103.37 118.08 103.8 117.83 104.27 117.62 104.76 117.46 105.26 117.39 105.78 117.35 106.3 117.39 106.83 117.46 107.36 117.62 107.86 117.83 108.35 118.08 108.8 118.38 109.24 118.72 109.64 119.12 109.98 119.56 110.28 120.01 110.53 120.5 110.74 121.01 110.9 121.53 110.97 122.05 111.01 122.58 110.97 123.1 110.9 123.61 110.74 124.09 110.53 124.55 110.28 124.99 109.98 125.37 109.64 125.73 109.24 126.03 108.8 126.28 108.35 126.49 107.86 126.63 107.36 126.72 106.83 126.75 106.3 126.75 106.3" fill-rule="evenodd"/>
    <polygon points="134.82 128.24 134.79 127.71 134.71 127.19 134.55 126.68 134.36 126.19 134.09 125.74 133.79 125.31 133.45 124.92 133.06 124.56 132.61 124.26 132.16 124.01 131.67 123.8 131.16 123.66 130.65 123.57 130.13 123.53 129.59 123.57 129.07 123.66 128.57 123.8 128.08 124.01 127.62 124.26 127.2 124.56 126.8 124.92 126.44 125.31 126.14 125.74 125.89 126.19 125.68 126.68 125.54 127.19 125.45 127.71 125.42 128.24 125.45 128.76 125.54 129.28 125.68 129.78 125.89 130.27 126.14 130.74 126.44 131.17 126.8 131.56 127.2 131.91 127.62 132.22 128.08 132.47 128.57 132.68 129.07 132.82 129.59 132.91 130.13 132.93 130.65 132.91 131.16 132.82 131.67 132.68 132.16 132.47 132.61 132.22 133.06 131.91 133.45 131.56 133.79 131.17 134.09 130.74 134.36 130.27 134.55 129.78 134.71 129.28 134.79 128.76 134.82 128.24 134.82 128.24" fill-rule="evenodd"/>
    <polygon points="111.92 132.91 111.91 132.4 111.81 131.88 111.67 131.37 111.46 130.88 111.21 130.43 110.9 129.99 110.55 129.59 110.16 129.25 109.73 128.95 109.28 128.68 108.79 128.49 108.27 128.34 107.75 128.26 107.23 128.22 106.71 128.26 106.19 128.34 105.67 128.49 105.2 128.68 104.72 128.95 104.3 129.25 103.91 129.59 103.56 129.99 103.24 130.43 102.99 130.88 102.79 131.37 102.64 131.88 102.55 132.4 102.53 132.91 102.55 133.45 102.64 133.97 102.79 134.47 102.99 134.96 103.24 135.42 103.56 135.86 103.91 136.25 104.3 136.6 104.72 136.9 105.2 137.15 105.67 137.35 106.19 137.51 106.71 137.59 107.23 137.62 107.75 137.59 108.27 137.51 108.79 137.35 109.28 137.15 109.73 136.9 110.16 136.6 110.55 136.25 110.9 135.86 111.21 135.42 111.46 134.96 111.67 134.47 111.81 133.97 111.91 133.45 111.92 132.91 111.92 132.91" fill-rule="evenodd"/>
    <polygon points="104.2 117.33 104.17 116.59 104.09 115.87 103.95 115.14 103.75 114.42 103.5 113.73 103.18 113.07 102.82 112.42 102.41 111.81 101.95 111.23 101.45 110.69 100.91 110.19 100.33 109.73 99.72 109.32 99.07 108.96 98.41 108.64 97.72 108.39 97.01 108.19 96.28 108.05 95.54 107.97 94.8 107.94 94.08 107.97 93.34 108.05 92.61 108.19 91.91 108.39 91.21 108.64 90.53 108.96 89.89 109.32 89.28 109.73 88.71 110.19 88.16 110.69 87.65 111.23 87.2 111.81 86.79 112.42 86.42 113.07 86.13 113.73 85.87 114.42 85.67 115.14 85.53 115.87 85.43 116.59 85.4 117.33 85.43 118.07 85.53 118.8 85.67 119.52 85.87 120.25 86.13 120.94 86.42 121.6 86.79 122.24 87.2 122.86 87.65 123.44 88.16 123.97 88.71 124.48 89.28 124.94 89.89 125.34 90.53 125.71 91.21 126.02 91.91 126.27 92.61 126.48 93.34 126.62 94.08 126.7 94.8 126.73 95.54 126.7 96.28 126.62 97.01 126.48 97.72 126.27 98.41 126.02 99.07 125.71 99.72 125.34 100.33 124.94 100.91 124.48 101.45 123.97 101.95 123.44 102.41 122.86 102.82 122.24 103.18 121.6 103.5 120.94 103.75 120.25 103.95 119.52 104.09 118.8 104.17 118.07 104.2 117.33 104.2 117.33" fill-rule="evenodd"/>
  </g>
</svg>
