<svg id="Layer_1" data-name="Layer 1" xmlns="http://www.w3.org/2000/svg" width="70.05mm" height="61.26mm" viewBox="0 0 198.56 173.65">
  <title>w021</title>
    <g id="symbolgrp">
    <polygon points="197.71 164.94 104.25 2.94 103.67 2.08 102.95 1.43 102.16 0.86 101.22 0.42 100.29 0.14 99.28 0.06 98.27 0.14 97.26 0.42 96.4 0.86 95.54 1.43 94.89 2.08 94.31 2.94 0.86 164.94 0.42 165.88 0.14 166.81 0.06 167.82 0.14 168.83 0.42 169.84 0.86 170.7 1.43 171.57 2.08 172.22 2.94 172.79 3.81 173.22 4.82 173.51 5.82 173.58 192.74 173.58 193.74 173.51 194.68 173.22 195.62 172.79 196.41 172.22 197.13 171.57 197.71 170.7 198.14 169.84 198.42 168.83 198.5 167.82 198.42 166.81 198.14 165.88 197.71 164.94 197.71 164.94" fill="#231f20" stroke="#231f20" stroke-miterlimit="2.61" stroke-width="0.13" fill-rule="evenodd"/>
    <polygon points="99.28 18.14 182.08 161.7 16.48 161.7 99.28 18.14 99.28 18.14" fill="#fff200" stroke="#231f20" stroke-miterlimit="2.61" stroke-width="0.13" fill-rule="evenodd"/>
    <path d="M256.44,478.75v7.92h78.84v-7.92Zm12-24.34A20,20,0,0,0,276.24,470,16.74,16.74,0,0,0,288,473l1.51-.29-1.22-.94c-8.35-6.84-10.08-16.27-10.44-20.45a15.69,15.69,0,0,0,1.94,1.73l1.15.72-.07-1.37a5.47,5.47,0,0,1-.07-1.08,15.65,15.65,0,0,1,2-8.35,27.91,27.91,0,0,0,6.12,16.34l1.15-.72a19.76,19.76,0,0,1-1.15-7,27.16,27.16,0,0,1,1.22-8.06,25.25,25.25,0,0,0,3.74,7.92l.79,1.15.43-1.37c1.51-5,1.87-11.59,1.87-16.85,0-2.88-.14-5.4-.22-7a21.9,21.9,0,0,1,6.41,15.77,19.85,19.85,0,0,1-.79,6l-.72,2.52,1.87-1.8c2.09-1.87,3.82-5.47,4.75-7.78a24.06,24.06,0,0,1,.51,4.32,24.44,24.44,0,0,1-.72,5.9l-.5,1.66,1.51-.86a18.5,18.5,0,0,0,2.66-1.87c-1.22,14-14.18,20.23-14.33,20.3l-2.3,1.08,2.52.29c21.81,2.09,26.21-13,27.07-19.51.79-5.47-1.37-9.65-1.51-9l-.14,1.87a5.75,5.75,0,0,1-2.52,3,11.38,11.38,0,0,1-.14-2.23,37.86,37.86,0,0,1,.43-5.26A47.11,47.11,0,0,0,322,432c0-8-3-10.08-3.24-10.15l-.87-.65-.14,1.08a6,6,0,0,1-2.52,5.26c-.5-14.76-7.85-21.17-8.21-21.6a8.64,8.64,0,0,0-1.3-.79l.22,1.44c.29,2.59-.36,5-.79,5.4-.86-5.4-1.44-7.49-5.83-11.38-4-3.67-5.33-12-5.33-12l-.79,1.66a25.09,25.09,0,0,0-2.38,10.58,32.41,32.41,0,0,1-1,8.06,55.82,55.82,0,0,0-5.54-6.48L282.86,401l.14,1.87c.36,3.89.5,7.2.5,9.94,0,6.84-.86,10.37-1.51,12-1.37-2.52-4.75-5.76-5.54-6.55l-1.37-1.22.14,1.87a11.7,11.7,0,0,1,.07,1.58c0,4.39-.29,6.34-1.37,9.07-1.44,3.53-1,8.35-1,8.57a17.34,17.34,0,0,0-4.39-3l-1.58-.79.58,1.66c1.3,3.46.86,12,.86,18.43Z" transform="translate(-197.84 -334.19)" fill="#231f20" fill-rule="evenodd"/>
  </g>
</svg>
