<svg id="Layer_1" data-name="Layer 1" xmlns="http://www.w3.org/2000/svg" width="70.05mm" height="61.26mm" viewBox="0 0 198.56 173.65">
  <title>w022</title>
    <g id="symbolgrp">
    <polygon points="197.71 164.94 104.25 2.94 103.67 2.08 102.95 1.43 102.16 0.86 101.22 0.42 100.29 0.14 99.28 0.06 98.27 0.14 97.26 0.42 96.4 0.86 95.54 1.43 94.89 2.08 94.31 2.94 0.86 164.94 0.42 165.88 0.14 166.81 0.06 167.82 0.14 168.83 0.42 169.84 0.86 170.7 1.43 171.57 2.08 172.22 2.94 172.79 3.81 173.22 4.82 173.51 5.82 173.58 192.74 173.58 193.74 173.51 194.68 173.22 195.62 172.79 196.41 172.22 197.13 171.57 197.71 170.7 198.14 169.84 198.42 168.83 198.5 167.82 198.42 166.81 198.14 165.88 197.71 164.94 197.71 164.94" stroke="#000" stroke-miterlimit="2.61" stroke-width="0.13" fill-rule="evenodd"/>
    <polygon points="99.28 18.14 182.08 161.7 16.48 161.7 99.28 18.14 99.28 18.14" fill="#fff200" stroke="#000" stroke-miterlimit="2.61" stroke-width="0.13" fill-rule="evenodd"/>
    <path d="M298.12,441.87l-2,4.76-2.22,4.68-2.4,4.61-2.54,4.54-2.73,4.43v22.4h12.32V441.87h14.32l.76-.11.73-.29.62-.47.51-.65.29-.73.11-.76-.11-.8-.29-.73-.51-.62-.62-.47-.73-.29-.76-.11H307l.44-1.85h13l.76-.11.69-.29.58-.44.47-.58.29-.73.07-.73-.07-.73-.29-.73-.47-.58-.58-.44-.69-.29-.76-.11H308.8l.44-1.85H325l.73-.07.69-.29.62-.47.44-.58.29-.69.11-.76-.11-.73-.29-.69-.44-.62-.62-.44-.69-.29-.73-.11H310.62l.44-1.85h9.23l.8-.07.73-.33.62-.47.47-.62.29-.73.11-.76-.11-.8-.29-.73-.47-.62-.62-.47-.73-.29-.8-.11H287.73l-.29-.11-.22-.22-.11-.29.11-.33.22-.22,6.36-3.49,1.49-1,1.31-1.2.55-.73.4-.8.25-.91,0-.91-.11-.91-.33-1.05-.47-1.05-23.8,13.11-1,.69-.8.87-.62,1.05-.4,1.13-.11,1.2v18.52l.11,1.09.33,1.05.51,1,.69.87.87.73,1,.51,1.05.33,1.13.11Zm6-23.13-5.2,21.71h5.2V418.74Zm-5.6-4.5h5.23L298.48,436V414.24Zm-7,0h5.2L291.51,436V414.24Zm14,0h5.2L305.5,436V414.24Zm-8.43,4.5-5.2,21.71h5.2V418.74Zm-7,0-5.2,21.71h5.2V418.74Z" transform="translate(-197.84 -334.19)" fill-rule="evenodd"/>
  </g>
</svg>
