<svg id="Layer_1" data-name="Layer 1" xmlns="http://www.w3.org/2000/svg" width="70.05mm" height="61.26mm" viewBox="0 0 198.56 173.65">
  <title>w023</title>
    <g id="symbolgrp">
    <polygon points="197.71 164.94 104.25 2.94 103.67 2.08 102.95 1.43 102.16 0.86 101.22 0.42 100.29 0.14 99.28 0.06 98.27 0.14 97.26 0.42 96.4 0.86 95.54 1.43 94.89 2.08 94.31 2.94 0.86 164.94 0.42 165.88 0.14 166.81 0.06 167.82 0.14 168.83 0.42 169.84 0.86 170.7 1.43 171.57 2.08 172.22 2.94 172.79 3.81 173.22 4.82 173.51 5.82 173.58 192.74 173.58 193.74 173.51 194.68 173.22 195.62 172.79 196.41 172.22 197.13 171.57 197.71 170.7 198.14 169.84 198.42 168.83 198.5 167.82 198.42 166.81 198.14 165.88 197.71 164.94 197.71 164.94" stroke="#000" stroke-miterlimit="2.61" stroke-width="0.13" fill-rule="evenodd"/>
    <polygon points="99.28 18.14 182.08 161.7 16.48 161.7 99.28 18.14 99.28 18.14" fill="#fff200" stroke="#000" stroke-miterlimit="2.61" stroke-width="0.13" fill-rule="evenodd"/>
    <path d="M293.46,434.49l-26.84-2.86-.75,6.79h30.71l0-.46,0-.46-.1-.46-.15-.44-.22-.41-.27-.39-.3-.34-.35-.3-.4-.24-.41-.2-.45-.15-.46-.07Zm-27.77,5.68,26.8,3.13.56,0,.56,0,.56-.09.55-.15.52-.19.51-.24.48-.3.44-.35.4-.4.35-.43.32-.47.26-.5.21-.52.14-.55.1-.56,0-.56,0-.56-.08-.56-.15-.55-.2-.52-.26-.5-.3-.47-.35-.44-.4-.4-.44-.35-.47-.3-.5-.25-.52-.21-.55-.15-.56-.08-26.84-2.76v-.29l-.06-.29-.12-.25-.19-.23-.22-.18-.27-.12-.29-.07h-.29l-.28.07-.27.12-.22.18-.18.23-.13.27-.06.28-1.13,10.29v.3l.07.28.12.27.18.22.23.18.27.13.28.06h.29l.29-.06.26-.13.23-.18.18-.23.12-.27.07-.28Z" transform="translate(-197.84 -334.19)" stroke="#000" stroke-miterlimit="2.61" stroke-width="0.22" fill-rule="evenodd"/>
    <polygon points="58.63 142.31 58.79 142.32 58.86 142.34 58.93 142.37 59.08 142.44 59.21 142.51 59.34 142.61 59.46 142.71 59.65 142.95 59.76 143.06 59.86 143.18 60.02 143.45 60.36 143.97 60.67 144.5 60.99 145.03 61.32 145.57 61.67 146.08 62.06 146.56 62.16 146.69 62.27 146.8 62.51 146.99 62.74 147.2 62.87 147.29 63 147.37 63.28 147.5 63.57 147.62 63.72 147.67 63.88 147.7 64.18 147.73 64.34 147.73 64.5 147.73 64.8 147.69 64.95 147.65 65.09 147.6 65.25 147.55 65.33 147.53 65.4 147.49 65.67 147.34 65.92 147.16 66.17 146.98 66.39 146.76 66.82 146.31 67.04 146.09 67.26 145.87 67.5 145.68 67.76 145.49 67.89 145.42 68.03 145.36 68.32 145.25 68.63 145.19 68.78 145.18 68.94 145.18 69.25 145.15 69.41 145.14 69.56 145.1 69.71 145.06 69.86 145.01 69.99 144.94 70.06 144.9 70.12 144.85 70.32 144.6 70.39 144.47 70.43 144.4 70.46 144.32 70.56 144.03 70.69 143.75 70.74 143.61 70.82 143.47 70.89 143.34 70.99 143.21 71.08 143.09 71.19 142.99 71.32 142.88 71.44 142.79 71.72 142.66 72.01 142.55 72.16 142.5 72.3 142.45 72.62 142.4 72.92 142.35 73.08 142.34 73.23 142.33 73.85 142.31 85.38 142.31 85.38 153.1 37.53 153.1 37.53 142.31 58.63 142.31 58.63 142.31" stroke="#000" stroke-miterlimit="2.61" stroke-width="0.22" fill-rule="evenodd"/>
    <polygon points="62.15 137.61 62.23 137.8 62.32 138 62.42 138.19 62.51 138.36 62.62 138.55 62.76 138.73 62.87 138.89 63.01 139.03 63.15 139.18 63.28 139.32 63.43 139.46 63.6 139.57 63.76 139.68 63.91 139.77 64.08 139.87 64.24 139.96 64.4 140.02 64.58 140.09 64.74 140.12 64.92 140.15 65.08 140.19 65.27 140.19 65.45 140.19 65.62 140.15 65.8 140.12 65.96 140.09 66.14 140.02 66.31 139.96 66.49 139.87 66.65 139.77 66.82 139.68 66.98 139.57 67.14 139.46 67.29 139.32 67.43 139.18 67.58 139.03 67.71 138.89 67.85 138.73 67.97 138.55 68.08 138.36 68.17 138.19 68.27 138 68.36 137.8 68.44 137.61 68.5 137.4 68.56 137.18 68.6 136.96 68.64 136.74 68.65 136.53 68.65 136.29 68.65 136.06 68.61 135.82 68.59 135.6 68.54 135.36 66.31 127.35 66.25 127.11 66.17 126.88 66.07 126.68 65.95 126.52 65.87 126.46 65.8 126.39 65.73 126.33 65.65 126.28 65.56 126.24 65.46 126.22 65.36 126.19 65.27 126.19 65.16 126.19 65.06 126.22 64.96 126.24 64.88 126.28 64.79 126.33 64.72 126.39 64.64 126.46 64.58 126.52 64.45 126.68 64.35 126.88 64.25 127.11 64.19 127.35 62.08 135.36 62.03 135.6 61.98 135.82 61.95 136.06 61.94 136.29 61.94 136.53 61.98 136.74 61.99 136.96 62.04 137.18 62.09 137.4 62.15 137.61 62.15 137.61" stroke="#000" stroke-miterlimit="2.61" stroke-width="0.22" fill-rule="evenodd"/>
    <polygon points="65.27 109.67 65.36 109.68 65.46 109.69 65.56 109.72 65.65 109.77 65.73 109.81 65.8 109.86 65.87 109.92 65.95 109.99 66.07 110.17 66.17 110.36 66.25 110.57 66.31 110.81 68.54 118.84 68.59 119.06 68.61 119.31 68.65 119.54 68.65 119.77 68.65 119.99 68.64 120.22 68.6 120.44 68.56 120.66 68.5 120.86 68.44 121.07 68.36 121.27 68.27 121.48 68.17 121.66 68.08 121.85 67.97 122.03 67.85 122.19 67.71 122.36 67.58 122.52 67.43 122.67 67.29 122.8 67.14 122.92 66.98 123.06 66.82 123.17 66.65 123.26 66.49 123.35 66.31 123.43 66.14 123.5 65.96 123.55 65.8 123.6 65.62 123.64 65.45 123.65 65.27 123.65 65.08 123.65 64.92 123.64 64.74 123.6 64.58 123.55 64.4 123.5 64.24 123.43 64.08 123.35 63.91 123.26 63.76 123.17 63.6 123.06 63.43 122.92 63.28 122.8 63.15 122.67 63.01 122.52 62.87 122.36 62.76 122.19 62.62 122.03 62.51 121.85 62.42 121.66 62.32 121.48 62.23 121.27 62.15 121.07 62.09 120.86 62.04 120.66 61.99 120.44 61.98 120.22 61.94 119.99 61.94 119.77 61.95 119.54 61.98 119.31 62.03 119.06 62.08 118.84 64.19 110.81 64.25 110.57 64.35 110.36 64.45 110.17 64.58 109.99 64.64 109.92 64.72 109.86 64.79 109.81 64.88 109.77 64.96 109.72 65.06 109.69 65.16 109.68 65.27 109.67 65.27 109.67" stroke="#000" stroke-miterlimit="2.61" stroke-width="0.22" fill-rule="evenodd"/>
    <path d="M310.47,408l-26.36,5.88-.45.12-.43.19-.4.24-.35.3-.33.34-.27.38-.22.41-.16.45h23.24l7.22-1.67-1.5-6.66Zm4.44,7.8-2.29-10.1-.1-.28-.16-.24-.21-.21-.24-.16-.28-.1-.28,0-.29,0-.28.1-.24.15-.22.21-.15.26-.1.28,0,.28,0,.29-26.36,5.78-.55.16-.52.21-.5.26-.47.3-.43.36-.4.4-.35.44-.29.48-.26.51-.19.52-.15.55-.07.56,0,.56,0,.56.1.56.15.55.21.52.27.5.32.46.35.44.41.39.44.34.48.3.51.24.52.2.55.13.56.08H285l.56,0,.55-.1,26.28-6.14.1.28.16.26.21.21.24.16.28.1.29,0,.29,0,.28-.1.24-.16.21-.21.16-.24.1-.28,0-.29,0-.29Z" transform="translate(-197.84 -334.19)" stroke="#000" stroke-miterlimit="2.61" stroke-width="0.22" fill-rule="evenodd"/>
    <polygon points="118.08 86.89 118.18 86.89 118.29 86.9 118.36 86.94 118.46 86.99 118.55 87.04 118.63 87.1 118.69 87.17 118.75 87.24 118.89 87.4 118.99 87.6 119.07 87.81 119.14 88.02 121.28 96.13 121.33 96.36 121.37 96.58 121.4 96.81 121.42 97.04 121.42 97.26 121.4 97.48 121.38 97.7 121.35 97.9 121.29 98.1 121.24 98.32 121.15 98.51 121.08 98.71 120.98 98.9 120.88 99.07 120.76 99.25 120.65 99.41 120.53 99.58 120.4 99.74 120.25 99.89 120.11 100.02 119.96 100.14 119.8 100.26 119.63 100.37 119.47 100.47 119.31 100.57 119.13 100.65 118.95 100.71 118.79 100.76 118.61 100.81 118.44 100.85 118.25 100.86 118.08 100.87 117.9 100.86 117.72 100.85 117.55 100.81 117.37 100.76 117.21 100.71 117.03 100.65 116.84 100.57 116.68 100.47 116.53 100.37 116.36 100.26 116.2 100.14 116.05 100.02 115.9 99.89 115.76 99.74 115.64 99.58 115.5 99.41 115.39 99.25 115.27 99.07 115.17 98.9 115.08 98.71 115 98.51 114.92 98.32 114.86 98.1 114.81 97.9 114.77 97.7 114.74 97.48 114.74 97.26 114.74 97.04 114.76 96.81 114.78 96.58 114.82 96.36 114.88 96.13 117.01 88.02 117.08 87.81 117.17 87.6 117.27 87.4 117.4 87.24 117.46 87.17 117.53 87.1 117.61 87.04 117.69 86.99 117.79 86.94 117.86 86.9 117.99 86.89 118.08 86.89 118.08 86.89" stroke="#000" stroke-miterlimit="2.61" stroke-width="0.22" fill-rule="evenodd"/>
    <polygon points="118.08 108.56 118.18 108.57 118.29 108.59 118.36 108.61 118.46 108.65 118.55 108.69 118.63 108.75 118.69 108.82 118.75 108.88 118.89 109.06 118.99 109.26 119.07 109.46 119.14 109.71 121.28 117.71 121.33 117.96 121.37 118.2 121.4 118.43 121.42 118.65 121.42 118.88 121.4 119.11 121.38 119.33 121.35 119.54 121.29 119.76 121.24 119.96 121.15 120.16 121.08 120.35 120.98 120.55 120.88 120.74 120.76 120.93 120.65 121.08 120.53 121.24 120.4 121.41 120.25 121.56 120.11 121.68 119.96 121.81 119.8 121.95 119.63 122.06 119.47 122.15 119.31 122.24 119.13 122.31 118.95 122.39 118.79 122.45 118.61 122.5 118.44 122.53 118.25 122.54 118.08 122.54 117.9 122.54 117.72 122.53 117.55 122.5 117.37 122.45 117.21 122.39 117.03 122.31 116.84 122.24 116.68 122.15 116.53 122.06 116.36 121.95 116.2 121.81 116.05 121.68 115.9 121.56 115.76 121.41 115.64 121.24 115.5 121.08 115.39 120.93 115.27 120.74 115.17 120.55 115.08 120.35 115 120.16 114.92 119.96 114.86 119.76 114.81 119.54 114.77 119.33 114.74 119.11 114.74 118.88 114.74 118.65 114.76 118.43 114.78 118.2 114.82 117.96 114.88 117.71 117.01 109.71 117.08 109.46 117.17 109.26 117.27 109.06 117.4 108.88 117.46 108.82 117.53 108.75 117.61 108.69 117.69 108.65 117.79 108.61 117.86 108.59 117.99 108.57 118.08 108.56 118.08 108.56" stroke="#000" stroke-miterlimit="2.61" stroke-width="0.22" fill-rule="evenodd"/>
    <polygon points="122.52 128.31 122.37 128.17 122.22 127.98 122.1 127.83 121.97 127.64 121.86 127.47 121.74 127.29 121.64 127.09 121.57 126.9 121.48 126.69 121.4 126.47 121.35 126.27 121.3 126.06 121.25 125.84 121.23 125.62 121.2 125.39 121.2 125.16 121.24 125.08 121.12 125.14 120.78 125.31 120.42 125.48 120.17 125.56 119.87 125.68 119.36 125.82 118.9 125.9 118.41 125.95 118.08 125.95 117.74 125.95 117.26 125.9 116.79 125.82 116.28 125.68 115.99 125.56 115.73 125.48 115.38 125.31 115.04 125.14 114.66 124.92 114.32 124.67 114 124.42 113.79 124.23 113.57 124.03 113.21 123.69 112.97 123.37 112.78 123.13 112.56 122.81 112.3 122.42 112.13 122.07 111.98 121.78 111.85 121.47 111.7 121.12 111.56 120.64 111.46 120.18 111.4 119.83 111.35 119.49 102.53 118.03 102.21 117.94 101.88 117.87 101.71 117.83 101.54 117.8 101.38 117.79 101.23 117.79 78.65 117.79 78.44 117.79 78.23 117.8 78 117.83 77.79 117.87 77.6 117.92 77.38 117.98 77.19 118.04 76.99 118.13 76.8 118.21 76.63 118.31 76.44 118.42 76.27 118.52 76.09 118.65 75.93 118.77 75.78 118.91 75.61 119.05 75.49 119.2 75.35 119.36 75.21 119.53 75.1 119.69 74.98 119.87 74.87 120.04 74.79 120.23 74.69 120.41 74.62 120.61 74.54 120.82 74.49 121.01 74.44 121.23 74.4 121.44 74.39 121.64 74.37 121.85 74.35 122.08 74.37 122.31 74.39 122.52 74.4 122.73 74.44 122.94 74.49 123.15 74.54 123.35 74.62 123.55 74.69 123.75 74.79 123.93 74.87 124.13 74.98 124.31 75.1 124.48 75.21 124.65 75.35 124.81 75.49 124.97 75.61 125.11 75.78 125.26 75.93 125.39 76.09 125.53 76.27 125.65 76.44 125.77 76.63 125.87 76.8 125.96 76.99 126.04 77.19 126.12 77.38 126.18 77.6 126.26 77.79 126.31 78 126.33 78.23 126.36 78.44 126.38 78.65 126.38 100.34 126.38 115.1 136.7 115.42 136.94 115.69 137.17 115.95 137.4 116.17 137.61 116.37 137.81 116.55 138.01 116.7 138.23 116.83 138.42 116.94 138.62 117.03 138.81 117.08 139.02 117.13 139.22 117.17 139.41 117.17 139.6 117.17 139.81 117.15 140.03 117.12 140.18 117.08 140.3 117.05 140.44 117 140.59 116.94 140.74 116.88 140.87 116.79 141 116.71 141.13 116.63 141.26 116.54 141.37 116.45 141.47 116.34 141.56 116.25 141.65 116.15 141.71 116.03 141.78 115.93 141.81 108.54 143.11 108.16 143.19 107.81 143.27 107.44 143.39 107.1 143.5 106.76 143.64 106.42 143.8 106.1 143.97 105.8 144.17 105.48 144.36 105.19 144.58 104.9 144.81 104.64 145.06 104.39 145.31 104.12 145.58 103.9 145.85 103.67 146.14 103.46 146.44 103.27 146.76 103.08 147.06 102.9 147.4 102.75 147.73 102.61 148.07 102.5 148.43 102.39 148.78 102.3 149.14 102.24 149.51 102.19 149.89 102.15 150.26 102.12 150.63 102.15 151.02 102.16 151.41 102.21 151.8 102.21 151.92 102.21 152.04 102.24 152.16 102.29 152.27 102.34 152.38 102.4 152.48 102.46 152.58 102.53 152.66 102.61 152.75 102.69 152.81 102.79 152.87 102.89 152.94 102.99 152.99 103.08 153.01 103.18 153.05 103.29 153.09 103.39 153.09 103.51 153.1 103.56 153.09 103.7 153.06 103.92 153.04 104.25 152.99 104.68 152.92 105.18 152.82 105.8 152.72 106.5 152.61 107.33 152.47 108.26 152.31 109.32 152.13 110.46 151.93 111.74 151.7 113.14 151.46 114.69 151.2 116.34 150.91 116.75 150.82 117.18 150.71 117.65 150.58 118.16 150.44 118.67 150.28 119.23 150.09 119.79 149.89 120.36 149.68 121.58 149.21 122.81 148.68 124.08 148.13 125.35 147.56 126.61 147 127.84 146.43 129 145.88 130.12 145.36 131.14 144.87 132.04 144.44 132.82 144.07 133.44 143.77 133.49 143.75 155.88 133.38 145.48 115.35 135.82 120.86 135.7 120.91 135.41 121.08 134.98 121.29 134.41 121.55 134.11 121.68 133.78 121.8 133.43 121.94 133.09 122.07 132.72 122.18 132.37 122.28 132.01 122.34 131.67 122.41 131.44 122.46 131.19 122.48 130.89 122.51 130.58 122.51 130.26 122.48 129.92 122.47 129.58 122.44 129.24 122.41 129.48 122.97 129.63 123.21 129.75 123.48 129.87 123.74 129.97 124.02 130.03 124.28 130.09 124.58 130.13 124.87 130.13 125.16 130.13 125.39 130.12 125.62 130.08 125.84 130.04 126.06 129.99 126.27 129.93 126.47 129.85 126.69 129.77 126.9 129.69 127.09 129.59 127.29 129.48 127.47 129.36 127.64 129.24 127.83 129.1 127.98 128.96 128.17 128.81 128.31 128.65 128.46 128.5 128.6 128.32 128.74 128.15 128.86 127.97 128.98 127.78 129.09 127.59 129.19 127.39 129.28 127.19 129.37 126.99 129.43 126.77 129.49 126.56 129.54 126.35 129.58 126.12 129.61 125.89 129.63 125.67 129.63 125.44 129.63 125.21 129.61 125 129.58 124.77 129.54 124.56 129.49 124.36 129.43 124.14 129.37 123.94 129.28 123.75 129.19 123.55 129.09 123.36 128.98 123.19 128.86 123 128.74 122.84 128.6 122.69 128.46 122.52 128.31 122.52 128.31" stroke="#000" stroke-miterlimit="2.61" stroke-width="0.22" fill-rule="evenodd"/>
    <polygon points="91.32 138.97 91.24 138.84 91.16 138.72 91.08 138.57 91.03 138.44 90.92 138.14 90.85 137.85 90.8 137.56 90.79 137.26 90.8 136.96 90.85 136.67 90.92 136.38 91.02 136.1 91.14 135.82 91.28 135.56 91.47 135.31 91.66 135.08 91.89 134.87 92.14 134.68 93.36 133.86 104 131 106.1 132.4 95.62 139.79 95.49 139.86 95.36 139.94 95.23 140.03 95.08 140.09 94.79 140.19 94.5 140.25 94.21 140.3 93.92 140.32 93.62 140.3 93.32 140.25 93.04 140.19 92.75 140.09 92.48 139.96 92.21 139.81 91.97 139.64 91.72 139.45 91.52 139.22 91.32 138.97 91.32 138.97" stroke="#000" stroke-miterlimit="2.61" stroke-width="0.22" fill-rule="evenodd"/>
    <polygon points="102.36 129.87 99.7 128.08 83.94 128.08 83.7 128.23 83.48 128.4 83.27 128.59 83.09 128.79 82.92 128.99 82.77 129.2 82.64 129.44 82.53 129.69 82.43 129.93 82.37 130.2 82.3 130.45 82.29 130.73 82.28 131 82.29 131.28 82.34 131.56 82.4 131.83 82.48 132.15 82.6 132.44 82.75 132.71 82.92 132.97 83.11 133.22 83.32 133.42 83.56 133.62 83.81 133.8 84.09 133.95 84.36 134.06 84.65 134.15 84.94 134.21 85.26 134.26 85.57 134.26 85.72 134.25 85.89 134.24 86.05 134.21 86.21 134.19 102.36 129.87 102.36 129.87" stroke="#000" stroke-miterlimit="2.61" stroke-width="0.22" fill-rule="evenodd"/>
  </g>
</svg>
