<svg id="Layer_1" data-name="Layer 1" xmlns="http://www.w3.org/2000/svg" width="70.05mm" height="61.26mm" viewBox="0 0 198.56 173.65">
  <title>w024</title>
    <g id="symbolgrp">
    <polygon points="197.71 164.94 104.25 2.94 103.67 2.08 102.95 1.43 102.16 0.86 101.22 0.42 100.29 0.14 99.28 0.06 98.27 0.14 97.26 0.42 96.4 0.86 95.54 1.43 94.89 2.08 94.31 2.94 0.86 164.94 0.42 165.88 0.14 166.81 0.06 167.82 0.14 168.83 0.42 169.84 0.86 170.7 1.43 171.57 2.08 172.22 2.94 172.79 3.81 173.22 4.82 173.51 5.82 173.58 192.74 173.58 193.74 173.51 194.68 173.22 195.62 172.79 196.41 172.22 197.13 171.57 197.71 170.7 198.14 169.84 198.42 168.83 198.5 167.82 198.42 166.81 198.14 165.88 197.71 164.94 197.71 164.94" stroke="#000" stroke-miterlimit="2.61" stroke-width="0.13" fill-rule="evenodd"/>
    <polygon points="99.28 18.14 182.08 161.7 16.48 161.7 99.28 18.14 99.28 18.14" fill="#fff200" stroke="#000" stroke-miterlimit="2.61" stroke-width="0.13" fill-rule="evenodd"/>
    <polygon points="79.47 134.94 79.35 135.02 79.24 135.11 79.12 135.21 79.02 135.31 78.91 135.43 78.81 135.53 78.72 135.65 78.64 135.76 78.55 135.89 78.48 136.02 78.41 136.16 78.35 136.29 78.29 136.43 78.26 136.58 78.21 136.73 78.17 136.87 78.15 137.03 78.13 137.19 78.11 137.35 78.11 137.5 78.11 137.68 78.13 137.83 78.15 137.99 78.17 138.13 78.21 138.29 78.26 138.43 78.29 138.57 78.35 138.71 78.41 138.86 78.48 138.99 78.55 139.12 78.64 139.25 78.72 139.38 78.81 139.49 78.91 139.6 79.02 139.7 79.12 139.79 79.24 139.9 79.35 140 79.47 140.09 79.6 140.16 79.73 140.23 79.85 140.3 79.99 140.35 80.13 140.41 80.27 140.47 80.42 140.52 80.58 140.54 80.74 140.57 80.89 140.59 81.06 140.6 81.21 140.6 107.48 140.6 107.56 140.61 107.63 140.61 107.69 140.65 107.76 140.67 107.87 140.74 107.98 140.83 108.08 140.94 108.15 141.05 108.17 141.12 108.2 141.18 108.21 141.25 108.21 141.32 108.21 141.4 108.2 141.48 108.17 141.55 108.15 141.62 108.08 141.74 107.98 141.85 107.87 141.93 107.76 142 107.63 142.02 107.48 142.04 88.84 142.04 88.68 142.06 88.53 142.06 88.36 142.08 88.21 142.11 88.06 142.14 87.91 142.18 87.77 142.23 87.63 142.29 87.49 142.36 87.36 142.42 87.23 142.49 87.1 142.57 86.99 142.65 86.87 142.74 86.75 142.84 86.64 142.94 86.55 143.06 86.44 143.16 86.36 143.28 86.28 143.39 86.18 143.52 86.11 143.65 86.04 143.79 85.98 143.92 85.93 144.07 85.88 144.21 85.84 144.36 85.8 144.51 85.79 144.66 85.75 144.81 85.74 144.98 85.74 145.13 85.74 145.31 85.75 145.47 85.79 145.62 85.8 145.76 85.84 145.92 85.88 146.06 85.93 146.21 85.98 146.35 86.04 146.49 86.11 146.62 86.18 146.75 86.28 146.88 86.36 147.01 86.44 147.12 86.55 147.23 86.64 147.33 86.75 147.44 86.87 147.53 86.99 147.63 87.1 147.72 87.23 147.79 87.36 147.85 87.49 147.93 87.63 148.01 87.77 148.04 87.91 148.1 88.06 148.15 88.21 148.17 88.36 148.21 88.53 148.22 88.68 148.23 88.84 148.23 122.38 148.23 123.11 148.23 123.81 148.22 124.48 148.18 125.16 148.15 125.81 148.1 126.46 148.03 127.09 147.96 127.72 147.88 128.34 147.77 128.94 147.66 129.52 147.54 130.09 147.4 130.66 147.26 131.21 147.09 131.74 146.91 132.28 146.74 132.79 146.53 133.28 146.32 133.77 146.09 134.26 145.85 134.72 145.6 135.17 145.32 135.62 145.04 136.04 144.75 136.45 144.43 136.85 144.1 137.26 143.77 137.63 143.41 137.99 143.03 138.35 142.65 138.69 142.24 139.02 141.82 148.1 141.82 148.1 118.43 139.02 118.43 138.69 118.02 138.35 117.62 137.99 117.23 137.63 116.88 137.26 116.52 136.85 116.18 136.45 115.85 136.04 115.56 135.62 115.25 135.17 114.97 134.72 114.69 134.26 114.44 133.77 114.19 133.28 113.97 132.79 113.75 132.28 113.55 131.74 113.36 131.21 113.18 130.66 113.03 130.09 112.88 129.52 112.73 128.94 112.61 128.34 112.5 127.72 112.4 127.09 112.32 126.46 112.22 125.81 112.18 125.16 112.12 124.48 112.07 123.81 112.04 123.11 112.02 122.38 112.02 94.03 112.02 94.06 112.32 94.1 112.61 94.16 112.9 94.25 113.17 94.33 113.46 94.44 113.73 94.53 113.98 94.66 114.25 94.78 114.49 94.92 114.74 95.09 114.98 95.26 115.2 95.43 115.44 95.61 115.65 95.81 115.85 96.01 116.06 96.23 116.24 96.44 116.42 96.67 116.59 96.92 116.75 97.15 116.89 97.4 117.03 97.65 117.15 97.92 117.27 98.2 117.36 98.47 117.47 98.75 117.53 99.04 117.59 99.32 117.65 99.62 117.67 99.91 117.71 100.22 117.71 107.48 117.71 107.63 117.72 107.76 117.77 107.87 117.81 107.98 117.91 108.08 118.02 108.15 118.13 108.17 118.2 108.2 118.28 108.21 118.35 108.21 118.43 108.21 118.5 108.2 118.56 108.17 118.63 108.15 118.69 108.08 118.82 107.98 118.92 107.87 119.02 107.76 119.08 107.69 119.12 107.63 119.13 107.56 119.14 107.48 119.14 81.21 119.14 81.06 119.17 80.89 119.17 80.74 119.19 80.58 119.21 80.42 119.25 80.27 119.29 80.13 119.33 79.99 119.39 79.85 119.44 79.73 119.52 79.6 119.58 79.47 119.68 79.35 119.76 79.24 119.84 79.12 119.95 79.02 120.04 78.91 120.16 78.81 120.27 78.72 120.39 78.64 120.5 78.55 120.63 78.48 120.76 78.41 120.9 78.35 121.03 78.29 121.17 78.26 121.31 78.21 121.47 78.17 121.61 78.15 121.77 78.13 121.93 78.11 122.09 78.11 122.24 78.11 122.4 78.13 122.56 78.15 122.69 78.17 122.86 78.21 123 78.26 123.14 78.29 123.28 78.35 123.43 78.41 123.57 78.48 123.7 78.55 123.83 78.64 123.95 78.72 124.08 78.81 124.2 78.91 124.31 79.02 124.41 79.12 124.52 79.24 124.63 79.35 124.71 79.47 124.79 79.6 124.89 79.73 124.95 79.85 125.02 79.99 125.09 80.13 125.15 80.27 125.2 80.42 125.23 80.58 125.28 80.74 125.31 80.89 125.33 81.06 125.34 81.21 125.34 107.48 125.34 107.63 125.35 107.76 125.4 107.87 125.46 107.98 125.54 108.08 125.65 108.15 125.76 108.17 125.84 108.2 125.91 108.21 125.98 108.21 126.06 108.21 126.13 108.2 126.19 108.17 126.26 108.15 126.32 108.08 126.44 107.98 126.56 107.87 126.64 107.76 126.73 107.69 126.75 107.63 126.76 107.56 126.77 107.48 126.77 76.88 126.77 76.73 126.8 76.57 126.8 76.42 126.82 76.25 126.85 76.11 126.88 75.96 126.92 75.81 126.96 75.67 127.02 75.54 127.08 75.4 127.14 75.27 127.22 75.14 127.31 75.03 127.39 74.91 127.47 74.81 127.58 74.69 127.68 74.59 127.78 74.49 127.9 74.4 128.02 74.32 128.13 74.24 128.26 74.16 128.39 74.08 128.53 74.03 128.66 73.98 128.8 73.93 128.95 73.89 129.1 73.86 129.24 73.83 129.4 73.81 129.56 73.81 129.72 73.79 129.87 73.81 130.04 73.81 130.2 73.83 130.36 73.86 130.5 73.89 130.66 73.93 130.8 73.98 130.94 74.03 131.08 74.08 131.22 74.16 131.36 74.24 131.49 74.32 131.62 74.4 131.75 74.49 131.85 74.59 131.97 74.69 132.07 74.81 132.16 74.91 132.27 75.03 132.36 75.14 132.46 75.27 132.53 75.4 132.6 75.54 132.67 75.67 132.72 75.81 132.78 75.96 132.84 76.11 132.89 76.25 132.91 76.42 132.93 76.57 132.96 76.73 132.97 76.88 132.97 107.48 132.97 107.63 132.98 107.76 133.03 107.87 133.09 107.98 133.17 108.08 133.28 108.15 133.4 108.17 133.47 108.2 133.54 108.21 133.61 108.21 133.69 108.21 133.76 108.2 133.82 108.17 133.89 108.15 133.95 108.08 134.07 107.98 134.19 107.87 134.28 107.76 134.35 107.69 134.38 107.63 134.39 107.56 134.41 107.48 134.41 81.21 134.41 81.06 134.43 80.89 134.43 80.74 134.45 80.58 134.48 80.42 134.51 80.27 134.55 80.13 134.59 79.99 134.65 79.85 134.73 79.73 134.77 79.6 134.86 79.47 134.94 79.47 134.94" fill-rule="evenodd"/>
    <polygon points="92.66 149.74 92.66 153.85 53.42 153.85 53.42 149.74 92.66 149.74 92.66 149.74" fill-rule="evenodd"/>
    <polygon points="92.59 113.54 92.59 117.71 53.28 117.71 53.28 113.54 92.59 113.54 92.59 113.54" fill-rule="evenodd"/>
    <polygon points="76.44 85.48 76.44 102.01 81.31 102.01 73 111.23 64.7 102.01 69.56 102.01 69.56 85.48 76.44 85.48 76.44 85.48" fill-rule="evenodd"/>
  </g>
</svg>
