<svg id="Layer_1" data-name="Layer 1" xmlns="http://www.w3.org/2000/svg" width="70.02mm" height="61.18mm" viewBox="0 0 198.49 173.43">
  <title>w025</title>
    <g id="symbolgrp">
    <path d="M379.85,495.75,297.12,352.39,214.39,495.75Zm10.8,11.88H203.59l-1.08-.07-1-.29-1-.5-.86-.65-.72-.86-.5-.94-.36-1-.14-1,.07-1.15.22-1,.5-1,93.46-162,.65-.94.79-.72.94-.58,1-.36,1-.22h1.08l1.08.22,1,.36.86.58.86.72.58.94,93.53,162,.43,1,.29,1v1.15l-.14,1-.29,1-.58.94-.65.86-.94.65-.94.5-1,.29-1.08.07Z" transform="translate(-197.84 -334.26)" stroke="#000" stroke-miterlimit="2.61" stroke-width="0.13" fill-rule="evenodd"/>
    <polygon points="182.01 161.49 99.28 18.14 16.55 161.49 182.01 161.49 182.01 161.49" fill="#fff200" stroke="#000" stroke-miterlimit="2.61" stroke-width="0.13" fill-rule="evenodd"/>
    <path d="M297.08,484.8a30.2,30.2,0,1,1,30.24-30.17,30.21,30.21,0,0,1-30.24,30.17Zm0-4.61a25.6,25.6,0,1,1,25.63-25.56,25.63,25.63,0,0,1-25.63,25.56Z" transform="translate(-197.84 -334.26)" fill-rule="evenodd"/>
    <path d="M280.67,404.38a16.51,16.51,0,1,1,15,17.86,16.48,16.48,0,0,1-15-17.86Zm4.32.36a12.14,12.14,0,1,1,11.09,13.18A12.08,12.08,0,0,1,285,404.74Z" transform="translate(-197.84 -334.26)" fill-rule="evenodd"/>
    <path d="M289.67,470.83l-.22-.14a17.74,17.74,0,0,1-3.82-29.81l.43-.22-8,2.16-.36-1.37L290.46,438,287,450.75l-1.3-.36,2.59-9.65A16.32,16.32,0,0,0,290,469.47l.22.14-.58,1.22Z" transform="translate(-197.84 -334.26)" fill-rule="evenodd"/>
    <path d="M291.25,411.79a8.26,8.26,0,0,1-2.52-6,8.4,8.4,0,0,1,4.82-7.63l.29-.14.5,1-.36.14a7.22,7.22,0,0,0-1.22,12.46l-1.15-4,1.08-.29,1.73,6.41L288,412l.22-1,3,.79Z" transform="translate(-197.84 -334.26)" fill-rule="evenodd"/>
  </g>
</svg>
