<svg id="Layer_1" data-name="Layer 1" xmlns="http://www.w3.org/2000/svg" width="70.02mm" height="61.18mm" viewBox="0 0 198.49 173.43">
  <title>w026</title>
    <g id="symbolgrp">
    <path d="M379.85,495.75,297.12,352.39,214.39,495.75Zm10.8,11.88H203.59l-1.08-.07-1-.29-1-.5-.86-.65-.72-.86-.5-.94-.36-1-.14-1,.07-1.15.22-1,.5-1,93.46-162,.65-.94.79-.72.94-.58,1-.36,1-.22h1.08l1.08.22,1,.36.86.58.86.72.58.94,93.53,162,.43,1,.29,1v1.15l-.14,1-.29,1-.58.94-.65.86-.94.65-.94.5-1,.29-1.08.07Z" transform="translate(-197.84 -334.26)" stroke="#000" stroke-miterlimit="2.61" stroke-width="0.13" fill-rule="evenodd"/>
    <polygon points="182.01 161.49 99.28 18.14 16.55 161.49 182.01 161.49 182.01 161.49" fill="#fff200" stroke="#000" stroke-miterlimit="2.61" stroke-width="0.13" fill-rule="evenodd"/>
    <path d="M346.88,487.23h.36l.38,0,.74-.09,1.46-.25.72-.14.71-.19.71-.22.36-.13.33-.14.33-.17.16-.1.14-.12.13-.12.13-.14.23-.29.2-.3.19-.33.14-.33.14-.35.23-.69.1-.36.09-.36.07-.36,0-.37v-.36l0-.37-.06-.36-.07-.37-.1-.35-.13-.35-.17-.33-.21-.3-.25-.27-.28-.26-.29-.23-.3-.22-.3-.19-.33-.19-1.31-.66-.32-.19-.32-.19-.3-.22-.29-.25-.26-.25-.25-.27-.47-.58-.45-.59-.43-.59-.19-.32-.17-.33-.07-.17-.07-.17,0-.17,0-.19v-2.61l0-.52-.07-.52-.12-.5-.17-.5-.2-.48-.26-.46-.29-.43-.35-.4-.36-.36-.4-.33-.43-.3-.46-.26-.48-.2-.49-.17-.52-.12-.52-.07-.52,0h-8.21l-.48,0-.48-.07-.46-.13-.43-.19-.42-.23-.39-.27-.35-.32-.33-.36-.27-.39-.23-.42-.17-.43-.13-.46-.09-.48,0-.48V431l0-.33-.07-.32-.13-.32-.17-.27-.22-.26-.24-.22-.29-.17-.32-.13-.32-.07-.33,0H315.48l-.9-.89v-.66h-9.21v5.24H283v-5.24h-9.21v5.24H262.42v38.84h30.32l.49.48.53.43.53.43.25.23.23.25.2.27.17.29.16.3.13.32.27.62.3.62.17.3.17.29.19.27.2.27.22.26.23.25.48.49.51.48.51.45.52.45.53.42.55.4.56.38.59.35.61.3.32.14.32.12.65.22.66.17.66.14L306,482l.68.1.68.09.68.06.68,0h11.81l.49,0,.51.06.49.09.49.1,1,.23.48.12.49.14.48.17.45.2.45.23.43.25.85.53.43.26.43.25.45.22.46.22.91.4.92.4.92.38.48.17.48.14.49.12.49.09.49,0,.51,0,1,0ZM322,436.56H266.39v30.91H322V436.56Zm-2.7,7.17H306.79v3.54h12.47v-3.54Zm-37.69,3.54v-3.54h-4.48v-4.47h-3.54v4.47h-4.46v3.54h4.46v4.47h3.54v-4.47Z" transform="translate(-197.84 -334.26)" fill-rule="evenodd"/>
    <path d="M283.93,414.28h9.59l1.13,0,1.14-.06,1.17-.07,1.16-.12,1.17-.14,1.17-.19.61-.12.62-.13.66-.16.66-.2.35-.12.35-.13.36-.13.35-.16.36-.17.35-.17.35-.2.35-.22.33-.22.33-.25.33-.26.32-.29.3-.29.3-.3.27-.33.28-.33.24-.35.25-.35.22-.36.19-.36.19-.36.16-.37.16-.38.13-.36.13-.39.1-.37.1-.39.09-.4.06-.39.06-.4,0-.42,0-.4V403l0-.43,0-.43-.07-.46-.09-.46-.12-.46-.16-.48-.19-.45-.2-.43-.22-.4-.23-.37-.23-.35-.25-.32-.23-.3-.23-.27-.23-.26-.48-.52-.26-.26-.27-.26-.29-.26-.32-.26-.33-.25-.36-.25-.37-.23-.41-.22-.4-.2-.39-.16-.37-.14-.35-.12-.35-.1-.16-.06h-.19l-.09,0h-.12l-.09,0-.1,0-.12,0-.13,0-.16,0-.17,0,.26-.55.26-.56.23-.58.2-.58.16-.59.14-.61.12-.59.1-.62.07-.61.06-.61,0-.62v-.62l0-.61,0-.62-.06-.61-.1-.61-.14-.61-.19-.59-.22-.58-.23-.56-.49-1.13-.49-1.12-.26-.56-.28-.55-.3-.53-.3-.53-.63-1.05-.66-1-3,1.92.35.52.32.52.32.5.29.49.27.48.25.46.25.48.23.51.25.55.25.56.24.56.12.27.1.26.1.25.09.23.16.43.12.4.07.38.06.36,0,.19v.69l0,.53,0,.53,0,.53-.06.52-.07.52-.1.49-.1.46-.12.43-.14.42-.17.42-.09.23-.12.23-.12.26-.13.26-.14.29-.14.29-.26-.12-.23-.1-.25-.14-.25-.16-.27-.17-.29-.22-.29-.23-.32-.25-.32-.26-.32-.27-.35-.29-.35-.3-.72-.62-.17-.13-.14-.13-.1-.1-.09-.07v-.13l0-.16v-.2l0-.22,0-.43v-.39h-3.55l0,.69,0,.69,0,.36.06.35.07.35.09.33.13.32.17.3.19.27.23.26.26.26.26.23.55.46,1.05.91,1.07.88.55.42.58.4.59.38.3.16.32.16-.17.19L296,396l-.14.14-.13.12-.12.1-.1.1-.2.14-.4.27-.45.27-.49.3-.49.29-1,.59-1,.56-1,.55-1,.56-1.07.56-1.1.61-1.1.64-1.07.65-1,.63-.53.33-.27.17-.29.19-.3.2-.32.23-.33.25-.33.27-.19.16-.19.16-.19.19-.2.22-.2.23-.2.25-.2.29-.2.3-.19.35-.09.2-.1.22-.12.26-.1.27-.09.27-.07.29,0,.29,0,.29v2l-.55.07-.55.1-.53.12-.55.13-1.08.29-.55.14L275,412l-.52.17-.26.12-.25.13-.25.13-.23.16-.22.17-.2.19-.2.2-.19.22-.16.23-.16.23-.13.25-.13.25-.12.26-.09.26-.16.53-.12.55-.07.56v.84l0,.27,0,.27.06.27.07.27.09.26.1.26.1.26.13.26.14.25.16.23.17.22.19.2.2.17.23.17.23.14.49.26.52.23,1,.48,1,.45.51.2.53.17.53.13.55.09.56.07.56,0H281l.55,0,.55-.06.55-.09.56-.13.29-.07.27-.09.26-.12.26-.12.23-.16.2-.17.19-.19.16-.23.13-.25.1-.26.1-.27.07-.27.13-.55.09-.55,0-.56v-.55l0-.56,0-.27-.06-.27-.06-.27-.09-.26-.1-.26-.12-.26-.13-.25-.14-.25-.3-.46-.68-.89Zm-1-3.48h3.57l3.84,0h1.91l1.92,0,1,0,1-.06,1-.07,1-.1,1-.13.94-.16,1-.19.46-.12.46-.12.46-.16.45-.17.43-.19.43-.23.4-.26.4-.27.36-.32.35-.33.32-.36.28-.39.26-.42.23-.42.19-.45.16-.45.13-.46.1-.48.07-.48,0-.48V403l0-.48-.09-.48-.06-.23-.07-.23-.09-.22-.09-.23-.23-.42-.28-.39-.29-.39-.32-.37-.33-.36-.35-.35-.36-.32-.38-.3-.39-.26-.42-.22-.45-.19-.45-.16-.46-.13-.94-.26-.46-.12-.25-.07H300l-.07.1-.26.4-.29.39-.3.36-.33.36-.35.33-.36.3-.38.29-.39.27-.82.52-.82.51-1.65,1-1.67.92-1.69.91-1.67.94-.82.48-.82.49-1.63,1-.81.52-.39.29-.38.3-.36.33-.16.17-.16.19-.13.2-.1.2-.09.23L283,409l0,.23,0,.25,0,.49v.81Zm-7.59,7.06,0,0,.06,0,.17.07.1,0,.12.06.27.13.59.26.29.14.26.12.25.12.23.1.22.09.2.09.19.06.16.06.3.09.33.06.39,0,.4,0h.91l.43,0,.4,0,.4-.07,0-.25,0-.23v-.66l0-.17,0-.13,0-.13-.06-.13-.09-.16-.06-.09-.09-.1-.09-.13-.13-.16-.14-.2-.17-.22-.19-.26-.2-.3-.2-.33-.22-.39-.19-.42-.17-.42-.33,0-.3,0-.3.06-.32.07-.35.07-.38.1-.42.1-.43.12-.45.12-.19.06-.19,0-.16,0-.14,0-.12,0-.1,0-.07,0h-.06l0,0h0l0,0-.06,0-.1.12-.06.09-.06.12-.06.16-.06.19-.06.22,0,.2V417l0,.29,0,.14.06.16.06.16,0,.06,0,0Z" transform="translate(-197.84 -334.26)" fill-rule="evenodd"/>
  </g>
</svg>
