<svg id="Layer_1" data-name="Layer 1" xmlns="http://www.w3.org/2000/svg" width="70.05mm" height="61.26mm" viewBox="0 0 198.56 173.65">
  <title>w027</title>
    <g id="symbolgrp">
    <polygon points="197.71 164.94 104.25 2.94 103.67 2.08 102.95 1.43 102.16 0.86 101.22 0.42 100.29 0.14 99.28 0.06 98.27 0.14 97.26 0.42 96.4 0.86 95.54 1.43 94.89 2.08 94.31 2.94 0.86 164.94 0.42 165.88 0.14 166.81 0.06 167.82 0.14 168.83 0.42 169.84 0.86 170.7 1.43 171.57 2.08 172.22 2.94 172.79 3.81 173.22 4.82 173.51 5.82 173.58 192.74 173.58 193.74 173.51 194.68 173.22 195.62 172.79 196.41 172.22 197.13 171.57 197.71 170.7 198.14 169.84 198.42 168.83 198.5 167.82 198.42 166.81 198.14 165.88 197.71 164.94 197.71 164.94" stroke="#000" stroke-miterlimit="2.61" stroke-width="0.13" fill-rule="evenodd"/>
    <polygon points="99.28 18.14 182.08 161.7 16.48 161.7 99.28 18.14 99.28 18.14" fill="#fff200" stroke="#000" stroke-miterlimit="2.61" stroke-width="0.13" fill-rule="evenodd"/>
    <path d="M308.74,448l-.09-1.51-.3-1.49-.49-1.44-.66-1.36-.85-1.26-1-1.14-1.14-1-1.26-.85-1.37-.68-1.45-.49-1.49-.29-1.52-.1-1.52.1-1.49.29-1.43.49-1.36.68-1.26.85-1.14,1-1,1.14-.85,1.26-.68,1.36L285.9,445l-.3,1.49L285.5,448l.09,1.52.3,1.49.48,1.43.68,1.36.85,1.27,1,1.14,1.14,1,1.26.84,1.36.68,1.43.49,1.49.29,1.52.1,1.52-.1,1.49-.29,1.45-.49,1.37-.68,1.26-.84,1.14-1,1-1.14.85-1.27.66-1.36.49-1.43.3-1.49.09-1.52Zm-21.26-8.36-27-8.38,24,14.92-27.24,7.55,28.25-.44-18.83,21.08,23.54-15.64-4.45,27.9,11.35-25.88,11.35,25.88L304,458.77l23.54,15.64-18.84-21.08,28.27.44-27.24-7.55,24-14.92-27,8.38,12.14-25.52L300.72,435.8l-3.6-28-3.59,28-18.18-21.64,12.14,25.52Z" transform="translate(-197.84 -334.19)" fill-rule="evenodd"/>
    <polygon points="108.85 113.85 108.74 112.49 108.46 111.15 107.98 109.88 107.33 108.68 106.5 107.58 105.55 106.62 104.45 105.8 103.25 105.15 101.97 104.67 100.64 104.38 99.27 104.29 97.92 104.38 96.58 104.67 95.3 105.15 94.11 105.8 93.01 106.62 92.04 107.58 91.23 108.68 90.58 109.88 90.1 111.15 89.81 112.49 89.71 113.85 89.81 115.22 90.1 116.55 90.58 117.83 91.23 119.03 92.04 120.11 93.01 121.08 94.11 121.9 95.3 122.55 96.58 123.03 97.92 123.32 99.27 123.42 100.64 123.32 101.97 123.03 103.25 122.55 104.45 121.9 105.55 121.08 106.5 120.11 107.33 119.03 107.98 117.83 108.46 116.55 108.74 115.22 108.85 113.85 108.85 113.85" fill-rule="evenodd"/>
  </g>
</svg>
