<svg id="Layer_1" data-name="Layer 1" xmlns="http://www.w3.org/2000/svg" width="70.05mm" height="61.26mm" viewBox="0 0 198.56 173.65">
  <title>w028</title>
    <g id="symbolgrp">
    <polygon points="197.71 164.94 104.25 2.94 103.67 2.08 102.95 1.43 102.16 0.86 101.22 0.42 100.29 0.14 99.28 0.06 98.27 0.14 97.26 0.42 96.4 0.86 95.54 1.43 94.89 2.08 94.31 2.94 0.86 164.94 0.42 165.88 0.14 166.81 0.06 167.82 0.14 168.83 0.42 169.84 0.86 170.7 1.43 171.57 2.08 172.22 2.94 172.79 3.81 173.22 4.82 173.51 5.82 173.58 192.74 173.58 193.74 173.51 194.68 173.22 195.62 172.79 196.41 172.22 197.13 171.57 197.71 170.7 198.14 169.84 198.42 168.83 198.5 167.82 198.42 166.81 198.14 165.88 197.71 164.94 197.71 164.94" stroke="#000" stroke-miterlimit="2.61" stroke-width="0.13" fill-rule="evenodd"/>
    <polygon points="99.28 18.14 182.08 161.7 16.48 161.7 99.28 18.14 99.28 18.14" fill="#fff200" stroke="#000" stroke-miterlimit="2.61" stroke-width="0.13" fill-rule="evenodd"/>
    <path d="M317.85,487.31H272.19v-4.25h12.69l-1.54-1.14-1.41-1.29-1.26-1.44-1.11-1.55L278.6,476l-.77-1.75-.57-1.83-.38-1.87-.19-1.91V466.7l.22-1.89.41-1.88.6-1.82.79-1.73,1-1.66,1.14-1.54,1.28-1.41,1.42-1.28,1.56-1.11,1.65-1,1.76-.78,1.82-.59,1.87-.39,1.9-.2H296l1.9.2,1.87.39,1.82.59,1.75.78,1.66,1,1.56,1.11,1.42,1.28,1.28,1.41,1.14,1.54,1,1.66.79,1.73.6,1.82.41,1.88.21,1.89v1.91l-.19,1.91-.38,1.87-.57,1.83-.77,1.75-.95,1.67-1.11,1.55-1.27,1.44-1.4,1.29-1.54,1.14h12.69v4.25Zm-8.51-19.53-.11-1.72-.31-1.7-.51-1.66-.71-1.57-.9-1.48-1.06-1.36-1.22-1.22L303.16,456l-1.48-.9-1.58-.72-1.65-.51-1.7-.31-1.72-.1-1.72.1-1.71.31-1.64.51-1.58.72-1.48.9-1.36,1.06-1.22,1.22-1.07,1.36-.9,1.48-.71,1.57-.51,1.66-.31,1.7-.11,1.72.11,1.72.31,1.71.51,1.65.71,1.58.9,1.47,1.07,1.36,1.22,1.23,1.36,1.06,1.48.9,1.58.71,1.64.51,1.71.31,1.72.11,1.72-.11,1.7-.31,1.65-.51,1.58-.71,1.48-.9,1.36-1.06,1.22-1.23,1.06-1.36.9-1.47.71-1.58.51-1.65.31-1.71.11-1.72Z" transform="translate(-197.84 -334.19)" fill-rule="evenodd"/>
    <polygon points="74.56 95.93 74.37 95.83 74.21 95.75 74.08 95.69 74 95.65 72.54 94.92 73.06 96.45 73.17 96.76 73.27 97.1 73.36 97.47 73.45 97.85 73.52 98.27 73.59 98.7 73.65 99.16 73.7 99.63 73.75 100.11 73.78 100.61 73.82 101.14 73.84 101.68 73.87 102.23 73.89 102.79 73.9 103.37 73.92 103.94 73.93 105.12 73.93 106.33 73.92 107.55 73.92 108.76 73.9 109.98 73.88 111.18 73.87 112.34 73.87 113.47 73.88 114.03 73.9 114.58 73.95 115.14 74.01 115.69 74.11 116.24 74.2 116.77 74.32 117.3 74.44 117.84 74.6 118.36 74.75 118.88 74.93 119.38 75.12 119.88 75.33 120.39 75.54 120.88 75.78 121.36 76.02 121.82 76.27 122.29 76.54 122.73 76.81 123.17 77.1 123.62 77.4 124.03 77.7 124.44 78.01 124.84 78.13 124.99 79.01 123.26 80.04 121.63 81.23 120.09 82.54 118.68 83.98 117.38 83.93 117.23 83.74 116.62 83.56 116.02 83.41 115.42 83.26 114.85 83.14 114.3 83.02 113.77 82.93 113.25 82.84 112.74 82.77 112.28 82.71 111.82 82.65 111.39 82.6 110.98 82.58 110.61 82.73 110.78 82.9 110.95 83.06 111.09 83.21 111.25 83.5 111.51 83.78 111.74 84 111.92 84.18 112.06 84.3 112.16 84.38 112.2 85.44 112.88 85.37 111.61 85.34 111.49 85.33 111.36 85.32 111.24 85.31 111.1 85.31 110.98 85.3 110.86 85.3 110.73 85.3 110.61 85.31 110.26 85.31 109.91 85.33 109.56 85.34 109.23 85.37 108.9 85.39 108.59 85.43 108.28 85.48 107.98 85.51 107.68 85.56 107.4 85.61 107.12 85.67 106.85 85.72 106.58 85.79 106.32 85.85 106.07 85.91 105.84 85.98 105.6 86.05 105.38 86.12 105.15 86.19 104.93 86.27 104.73 86.35 104.54 86.43 104.35 86.5 104.16 86.59 103.98 86.67 103.81 86.74 103.63 86.84 103.47 86.91 103.32 87 103.17 87.08 103.03 87.16 102.9 87.19 103.69 87.25 104.47 87.33 105.23 87.43 105.98 87.56 106.72 87.71 107.43 87.88 108.13 88.06 108.81 88.26 109.48 88.48 110.12 88.71 110.75 88.93 111.34 89.19 111.93 89.42 112.49 89.69 113.02 89.94 113.55 90.13 113.92 92.92 113.13 92.89 112.89 92.87 112.49 92.85 112.07 92.82 111.68 92.81 111.28 92.81 110.88 92.81 110.6 92.81 110.34 92.82 110.06 92.83 109.8 92.87 109.26 92.91 108.74 92.95 108.23 93.02 107.73 93.08 107.24 93.16 106.75 93.23 106.28 93.33 105.84 93.42 105.4 93.52 104.97 93.61 104.56 93.72 104.17 93.83 103.8 93.95 103.44 94.03 103.78 94.13 104.13 94.22 104.47 94.33 104.8 94.45 105.15 94.57 105.47 94.7 105.79 94.82 106.12 94.97 106.43 95.1 106.74 95.24 107.04 95.39 107.34 95.53 107.61 95.66 107.89 95.8 108.15 95.95 108.41 96.21 108.89 96.47 109.32 96.71 109.7 96.93 110.04 97.11 110.31 97.25 110.53 97.35 110.67 97.39 110.75 98.13 111.81 98.53 110.54 98.65 110.11 98.78 109.66 98.89 109.2 99.01 108.74 99.11 108.27 99.2 107.79 99.3 107.33 99.38 106.83 99.48 106.34 99.55 105.85 99.62 105.36 99.69 104.86 99.75 104.36 99.81 103.86 99.87 103.35 99.92 102.84 99.97 102.34 100 101.83 100.04 101.32 100.08 100.82 100.11 100.32 100.14 99.81 100.16 99.31 100.18 98.81 100.22 97.83 100.24 96.86 100.25 95.91 100.25 94.99 100.25 94.49 100.25 94.01 100.24 93.53 100.23 93.07 100.22 92.61 100.22 92.17 100.19 91.74 100.18 91.32 100.17 90.92 100.15 90.53 100.14 90.15 100.11 89.79 100.1 89.45 100.09 89.13 100.08 88.82 100.06 88.55 100.5 88.99 100.91 89.45 101.31 89.91 101.69 90.38 102.04 90.84 102.39 91.31 102.7 91.79 103 92.25 103.28 92.73 103.55 93.21 103.8 93.69 104.04 94.17 104.25 94.65 104.46 95.13 104.64 95.59 104.82 96.07 104.97 96.54 105.11 97.02 105.25 97.48 105.36 97.95 105.47 98.4 105.57 98.87 105.65 99.31 105.72 99.75 105.78 100.2 105.84 100.64 105.88 101.07 105.92 101.49 105.95 101.91 105.96 102.31 105.98 102.71 105.98 103.1 105.98 103.4 105.96 103.7 105.95 103.99 105.95 104.28 105.93 104.55 105.92 104.83 105.89 105.09 105.87 105.34 105.82 105.83 105.76 106.28 105.7 106.7 105.63 107.09 105.57 107.44 105.51 107.74 105.44 108.02 105.39 108.25 105.33 108.43 105.29 108.56 105.26 108.64 105.25 108.69 104.58 111.01 106.31 109.35 106.49 109.18 106.67 109.01 106.84 108.82 107.02 108.63 107.19 108.43 107.35 108.22 107.52 108.02 107.69 107.79 107.84 107.58 108.01 107.35 108.17 107.12 108.31 106.88 108.46 106.64 108.61 106.39 108.77 106.15 108.91 105.91 109.04 105.66 109.17 105.42 109.3 105.17 109.44 104.92 109.69 104.43 109.91 103.94 110.13 103.47 110.33 103.02 110.52 102.58 110.7 102.17 110.8 102.7 110.88 103.21 110.95 103.72 111.03 104.24 111.05 104.49 111.08 104.74 111.11 104.99 111.12 105.22 111.15 105.47 111.15 105.7 111.16 105.94 111.16 106.17 111.16 106.45 111.15 106.73 111.15 107.01 111.13 107.29 111.1 107.81 111.05 108.32 111 108.8 110.94 109.24 110.89 109.66 110.82 110.03 110.76 110.38 110.7 110.67 110.64 110.95 110.61 111.17 110.56 111.34 110.52 111.49 110.51 111.57 110.5 111.61 110.03 113.14 111.43 112.34 111.79 112.12 112.15 111.89 112.49 111.67 112.81 111.45 113.11 111.24 113.38 111.02 113.65 110.82 113.89 110.61 113.75 111.8 113.55 112.95 113.3 114.06 113 115.12 112.64 116.14 112.26 117.12 111.83 118.07 111.61 118.47 113.08 120.04 114.39 121.74 115.52 123.56 116.45 125.49 117.18 127.5 117.41 127.37 118.3 126.73 119.13 126.04 119.89 125.34 120.61 124.61 121.26 123.84 121.86 123.06 122.41 122.28 122.91 121.47 123.35 120.66 123.76 119.86 124.12 119.05 124.44 118.25 124.73 117.46 124.98 116.68 125.2 115.92 125.37 115.19 125.53 114.5 125.66 113.83 125.77 113.2 125.86 112.6 125.91 112.13 125.96 111.68 126 111.21 126.01 110.77 126.01 110.34 126.01 109.92 125.99 109.49 125.96 109.1 125.92 108.7 125.88 108.32 125.83 107.96 125.77 107.6 125.7 107.25 125.63 106.93 125.55 106.62 125.47 106.33 125.4 106.06 125.32 105.79 125.23 105.56 125.15 105.33 125.06 105.12 124.98 104.94 124.91 104.78 124.84 104.63 124.77 104.52 124.69 104.41 124.63 104.33 124.58 104.28 124.54 104.24 124.5 104.24 124.48 104.25 124.45 104.3 124.32 106.02 124.29 106.14 124.25 106.26 124.2 106.38 124.17 106.49 124.11 106.6 124.06 106.7 123.99 106.81 123.93 106.91 123.87 107.01 123.8 107.11 123.72 107.2 123.65 107.3 123.5 107.48 123.34 107.66 123.16 107.83 122.99 107.98 122.83 108.14 122.65 108.28 122.48 108.41 122.31 108.53 122.16 108.64 122 108.75 121.95 108.51 121.92 108.25 121.89 108 121.88 107.74 121.87 107.49 121.87 107.23 121.86 106.97 121.86 106.69 121.87 106.24 121.88 105.79 121.91 105.35 121.93 104.92 121.95 104.5 121.99 104.11 122.03 103.72 122.06 103.37 122.09 103.04 122.13 102.74 122.17 102.48 122.2 102.25 122.23 102.09 122.25 101.94 122.26 101.87 122.26 101.83 122.41 101.14 122.54 100.47 122.66 99.83 122.77 99.18 122.86 98.56 122.95 97.95 123.03 97.36 123.09 96.79 123.15 96.23 123.2 95.67 123.23 95.15 123.27 94.64 123.29 94.14 123.32 93.65 123.33 93.19 123.33 92.73 123.32 92.05 123.29 91.41 123.26 90.8 123.21 90.21 123.14 89.66 123.07 89.13 122.98 88.63 122.89 88.16 122.79 87.72 122.67 87.3 122.55 86.91 122.43 86.54 122.3 86.19 122.18 85.88 122.04 85.58 121.91 85.31 121.77 85.05 121.64 84.81 121.5 84.6 121.37 84.41 121.23 84.23 121.11 84.07 121 83.93 120.89 83.81 120.78 83.7 120.68 83.62 120.6 83.53 120.52 83.47 120.46 83.43 120.4 83.39 120.36 83.37 120.34 83.36 119.53 82.76 119.4 83.76 119.4 84.08 119.38 84.39 119.34 84.69 119.31 84.97 119.25 85.26 119.19 85.51 119.12 85.76 119.04 86 118.96 86.23 118.86 86.44 118.77 86.64 118.67 86.84 118.57 87.02 118.46 87.19 118.35 87.35 118.24 87.51 118.13 87.64 118.03 87.77 117.92 87.89 117.81 88 117.72 88.1 117.62 88.19 117.53 88.27 117.44 88.34 117.3 88.46 117.18 88.55 117.11 88.59 117.08 88.61 117.01 87.35 116.91 86.14 116.78 84.97 116.63 83.86 116.45 82.78 116.23 81.74 116 80.75 115.74 79.8 115.47 78.89 115.18 78.02 114.88 77.19 114.56 76.42 114.23 75.66 113.91 74.97 113.58 74.3 113.24 73.68 112.91 73.09 112.57 72.54 112.24 72.03 111.92 71.56 111.61 71.12 111.31 70.72 111.03 70.37 110.75 70.03 110.51 69.74 110.28 69.48 110.08 69.27 109.9 69.07 109.64 68.8 109.49 68.67 109.42 68.6 109.34 68.54 109.24 68.48 109.15 68.42 108.94 68.28 108.75 68.18 108.57 68.08 108.43 68 108.33 67.95 108.3 67.94 108.5 69.27 108.53 69.49 108.54 69.71 108.55 69.94 108.56 70.15 108.57 70.37 108.57 70.58 108.56 70.78 108.56 71 108.55 71.2 108.53 71.39 108.51 71.6 108.49 71.79 108.46 71.98 108.44 72.16 108.42 72.33 108.38 72.51 108.32 72.83 108.25 73.13 108.2 73.27 108.18 73.39 108.13 73.52 108.09 73.64 108.05 73.75 108.01 73.85 107.96 73.93 107.93 74.03 107.89 74.08 107.86 74.16 107.81 74.2 107.77 74.25 107.63 73.34 107.47 72.52 107.4 72.11 107.33 71.74 107.25 71.36 107.16 71.01 107.08 70.66 106.98 70.33 106.89 70 106.79 69.68 106.68 69.37 106.56 69.06 106.43 68.78 106.3 68.48 106.16 68.19 106 67.9 105.84 67.61 105.67 67.33 105.47 67.05 105.27 66.77 105.05 66.49 104.83 66.2 104.58 65.92 104.32 65.62 104.04 65.33 103.75 65.03 103.44 64.72 103.1 64.4 102.76 64.07 102.39 63.75 102.04 63.42 101.72 63.06 101.4 62.69 101.11 62.29 100.82 61.88 100.54 61.47 100.29 61.02 100.04 60.58 99.81 60.13 99.6 59.67 99.38 59.21 99.19 58.74 99.01 58.28 98.84 57.82 98.68 57.36 98.53 56.92 98.39 56.49 98.27 56.06 98.15 55.65 98.04 55.26 97.95 54.89 97.86 54.54 97.78 54.21 97.71 53.91 97.6 53.38 97.53 52.99 97.48 52.72 97.47 52.64 96.74 54.17 96.56 54.54 96.39 54.9 96.23 55.27 96.08 55.64 95.95 56.02 95.81 56.4 95.68 56.77 95.56 57.14 95.46 57.51 95.36 57.88 95.27 58.25 95.18 58.61 95.1 58.97 95.03 59.33 94.95 59.67 94.89 60.01 94.83 60.34 94.79 60.66 94.74 60.98 94.7 61.29 94.67 61.59 94.63 61.86 94.61 62.14 94.58 62.4 94.56 62.88 94.53 63.31 94.53 63.66 94.55 63.94 94.55 64.18 94.56 64.43 94.56 64.68 94.56 64.94 94.55 65.19 94.53 65.44 94.52 65.69 94.51 65.95 94.46 66.45 94.4 66.97 94.34 67.47 94.28 67.96 94.2 68.45 94.12 68.93 94.03 69.4 93.95 69.84 93.85 70.26 93.77 70.66 93.69 71.03 93.61 71.39 93.43 71.13 93.23 70.87 93.04 70.6 92.85 70.34 92.43 69.81 92.02 69.3 91.59 68.79 91.18 68.31 90.78 67.84 90.38 67.4 90.01 66.99 89.66 66.62 89.35 66.3 89.08 66.01 88.85 65.77 88.67 65.58 88.55 65.47 88.49 65.4 87.23 64.15 87.37 65.88 87.43 66.54 87.47 67.2 87.52 67.83 87.58 68.46 87.62 69.09 87.65 69.68 87.69 70.28 87.71 70.86 87.75 71.43 87.77 71.98 87.78 72.53 87.81 73.06 87.81 73.57 87.82 74.07 87.82 74.56 87.82 75.04 87.82 75.63 87.82 76.19 87.81 76.74 87.8 77.27 87.77 77.79 87.75 78.28 87.73 78.76 87.7 79.23 87.67 79.68 87.62 80.11 87.58 80.53 87.55 80.93 87.5 81.32 87.45 81.69 87.4 82.05 87.35 82.4 87.3 82.72 87.25 83.03 87.19 83.34 87.14 83.63 87.08 83.91 87.02 84.17 86.96 84.42 86.9 84.66 86.84 84.89 86.78 85.1 86.72 85.29 86.66 85.5 86.54 85.84 86.43 86.14 86.31 85.93 86.17 85.71 86.03 85.48 85.88 85.26 85.72 85.02 85.55 84.79 85.38 84.55 85.2 84.32 85.02 84.1 84.83 83.86 84.64 83.63 84.45 83.4 84.06 82.96 83.67 82.52 83.29 82.11 82.93 81.72 82.57 81.36 82.25 81.02 81.94 80.72 81.69 80.47 81.48 80.26 81.31 80.1 80.06 78.97 80.19 80.7 80.2 80.88 80.22 81.06 80.23 81.24 80.25 81.43 80.25 81.62 80.25 81.8 80.25 81.98 80.25 82.16 80.25 82.9 80.23 83.58 80.22 84.22 80.19 84.83 80.16 85.39 80.11 85.93 80.08 86.18 80.06 86.44 80.03 86.68 80 86.92 79.96 87.16 79.91 87.39 79.86 87.63 79.83 87.85 79.77 88.07 79.72 88.28 79.66 88.51 79.6 88.73 79.54 88.95 79.47 89.17 79.41 89.39 79.32 89.62 79.17 90.08 78.99 90.53 78.87 90.84 78.76 91.17 78.65 91.48 78.57 91.8 78.47 92.14 78.4 92.46 78.34 92.78 78.28 93.11 78.22 93.45 78.17 93.77 78.14 94.1 78.1 94.42 78.08 94.73 78.06 95.04 78.04 95.35 78.02 95.64 78.01 95.93 78.01 96.2 78 96.47 78 96.72 78.01 97.18 78.02 97.59 78.03 97.92 78.04 98.19 78.04 98.35 78.06 98.45 77.91 98.31 77.76 98.16 77.61 98.03 77.46 97.9 77.3 97.76 77.15 97.64 76.99 97.5 76.82 97.39 76.5 97.15 76.19 96.93 75.88 96.72 75.58 96.52 75.29 96.36 75.03 96.2 74.78 96.06 74.56 95.93 74.56 95.93" fill-rule="evenodd"/>
  </g>
</svg>
