<svg id="Layer_1" data-name="Layer 1" xmlns="http://www.w3.org/2000/svg" width="70.02mm" height="61.18mm" viewBox="0 0 198.49 173.43">
  <title>w029</title>
  <g id="symbolgrp">
    <path d="M379.85,495.75,297.12,352.39,214.39,495.75Zm10.8,11.88H203.59l-1.08-.07-1-.29-1-.5-.86-.65-.72-.86-.5-.94-.36-1-.14-1,.07-1.15.22-1,.5-1,93.46-162,.65-.94.79-.72.94-.58,1-.36,1-.22h1.08l1.08.22,1,.36.87.58.86.72.58.94,93.53,162,.43,1,.29,1v1.15l-.14,1-.29,1-.58.94-.65.86-.94.65-.94.5-1,.29-1.08.07Z" transform="translate(-197.84 -334.26)" stroke="#000" stroke-miterlimit="2.61" stroke-width="0.13" fill-rule="evenodd"/>
    <polygon points="182.01 161.49 99.28 18.14 16.55 161.49 182.01 161.49 182.01 161.49" fill="#fff200" stroke="#000" stroke-miterlimit="2.61" stroke-width="0.13" fill-rule="evenodd"/>
    <path d="M308,371.19l-1.3,10.87-3.31,28.87-3.31,16.63a4.11,4.11,0,0,1,.72.86,1.28,1.28,0,0,0,.58.5h0l1.08-1.94,19.87-30.89-4.46-7.85L304,420.43a1,1,0,0,0-.79.07,1,1,0,0,0-.21.65c0,.29.21.5.29.79a1.06,1.06,0,0,1,.07.5h0l-.79,2.38-.07.14c0,.07-.07,0-.14,0s-.14-.22-.36-.29a1.51,1.51,0,0,0-.79-.29h0l1.8-7.13,9.36-38.45L308,371.19Z" transform="translate(-197.84 -334.26)" fill-rule="evenodd"/>
    <polygon points="99.28 18.06 100.29 88.41 105.4 28.72 99.28 18.06 99.28 18.06" fill-rule="evenodd"/>
    <polygon points="89.71 34.7 99.21 79.91 95.32 24.9 89.71 34.7 89.71 34.7" fill-rule="evenodd"/>
    <path d="M281.43,379.47,295,420.07c.07.14.07.22.22.29h0L286.32,371l-4.9,8.42Z" transform="translate(-197.84 -334.26)" fill-rule="evenodd"/>
    <polygon points="77.68 55.5 95.47 87.18 86.68 65.51 82.5 47.15 77.68 55.5 77.68 55.5" fill-rule="evenodd"/>
    <path d="M270.63,398.26l24.26,28.3v-.07L287.62,416a5.48,5.48,0,0,0,.22-1.51.56.56,0,0,0-.65-.43c-.29.07-.29.36-.43.58h0l-13.18-21.53-3,5.11Z" transform="translate(-197.84 -334.26)" fill-rule="evenodd"/>
    <path d="M266.81,404.81,287.47,422c.14.14.22.14.29.22h0v-.14a.07.07,0,0,0-.07-.07h0l-10.8-12.38-7.42-9.43-2.66,4.61Z" transform="translate(-197.84 -334.26)" fill-rule="evenodd"/>
    <path d="M262.27,412.73l30.67,16.2a.43.43,0,0,0,.29-.07h0v-.22c0-.07-.07-.14-.14-.22s-.5-.43-.58-.65c-.29-.58.29-1.15.14-1.8a1.31,1.31,0,0,0-.36-.79,6.29,6.29,0,0,0-1.22-1.15c-.29,0-.5.36-.5.65h0l.65,1.15c-.5,0-.86.36-1.3.5h0L276.1,417v-.14a1.15,1.15,0,0,0,1-.79,1.24,1.24,0,0,0-.07-.72,13,13,0,0,0-.79-2,1.3,1.3,0,0,0-.65-.29c-.5-.14-.79-.58-1.3-.58a.74.74,0,0,0-.58.29c0,.14-.14.29-.14.43s.36.43.58.65.07.36.14.58a4.77,4.77,0,0,1,.07,1h0l-.14.22-9.65-6.91-2.3,4Z" transform="translate(-197.84 -334.26)" fill-rule="evenodd"/>
    <path d="M250.61,433l4-6.91,26.14,3.6a.91.91,0,0,1,.43.07h0v.65a1,1,0,0,0,.43,1c.43.29,1,.14,1.51.36a3.21,3.21,0,0,0,1.94.86,2.36,2.36,0,0,0,1.37-.94h0l.43-1.15,2.88.29a2.38,2.38,0,0,0-.14,2.09h0l-18.72-.36-20.23.43Z" transform="translate(-197.84 -334.26)" fill-rule="evenodd"/>
    <polygon points="83.94 103.81 80.27 101.44 94.82 98.7 94.82 98.78 83.94 103.81 83.94 103.81" fill-rule="evenodd"/>
    <path d="M328,422.38l-8.5,5.18a7.88,7.88,0,0,0-9.29-.5h0l-6.62,4.1-.94.58a4.57,4.57,0,0,0-.43-1.3h0l-.86-1.08a2.85,2.85,0,0,0-1.37.5.6.6,0,0,0-.22.58c.07.22.22.36.14.58a.56.56,0,0,1-.72.36.54.54,0,0,1-.29-.14c-.36-.22-.65-.5-1-.72a.59.59,0,0,0-.36.36c-.07.14-.07.43-.14.65h0l-.79,1a1.56,1.56,0,0,1,0,1.58c-.29.29-.72-.07-1.08-.29s-.5-.36-.79-.29a1.24,1.24,0,0,0-.94,1.44,2.67,2.67,0,0,0,1,1.73l-1.8,1.08-56.16,35.14a8.64,8.64,0,0,0-3,11.38,8.16,8.16,0,0,0,10.66,2.81h0l74.3-46.37a8.15,8.15,0,0,0,3.53-8.64h0l8.42-5.18c.87-.58.87-1.94.14-3.31s-2.23-1.8-3-1.22Z" transform="translate(-197.84 -334.26)" fill-rule="evenodd"/>
    <path d="M302.3,428.71a.07.07,0,0,0,.07.07.56.56,0,0,0,.58.07h0l.14-.14a.15.15,0,0,0,.14-.14h0l.07-.58.65-.65-.14-.58c-.07-.36-.5-.36-.79-.14a2,2,0,0,0-.58.72h0a2.24,2.24,0,0,0-.36.72,1,1,0,0,0,.21.65Z" transform="translate(-197.84 -334.26)" fill-rule="evenodd"/>
    <path d="M304.83,416l.21-.14c.29-.72.94-1.22,1.08-1.94,0-.29-.07-.58-.07-.94a13.92,13.92,0,0,1,.14-1.73,1.82,1.82,0,0,0,.43-1.08c-.07-.29-.21-.65-.5-.58s-.36.22-.58.43a5,5,0,0,1-.43,1.37,3.7,3.7,0,0,0-.43.94,2.44,2.44,0,0,0-.22,1.44c-.07.14-.21.29-.29.43a1.51,1.51,0,0,0-.36.94c.07.5.5,1.08,1,.86Z" transform="translate(-197.84 -334.26)" fill-rule="evenodd"/>
    <path d="M292.95,435.7l.22-.14.14-.36a.74.74,0,0,0-.36-.58,2.28,2.28,0,0,0-.65.22c-.14.07-.14.22-.14.36h0l.07.29.36.22c.14,0,.22.07.36,0Z" transform="translate(-197.84 -334.26)" fill-rule="evenodd"/>
    <path d="M293.23,437.14l.36-.14.29-.43v-.29l-.43-.5c-.07-.07-.22,0-.36,0h0l-.29.22a.74.74,0,0,0-.14.65c0,.22.14.36.36.5Z" transform="translate(-197.84 -334.26)" fill-rule="evenodd"/>
    <path d="M295.68,422.38l.36-.07-.22-.58.07-.65a.23.23,0,0,0-.22-.22h-.22l-.22.14a2.47,2.47,0,0,0,.29,1.15c.07,0,.07.14.14.22Z" transform="translate(-197.84 -334.26)" fill-rule="evenodd"/>
    <path d="M299.28,423l.29-.14.22-.22h0l.07-.58c-.07-.29-.29-.79-.58-.58a2.24,2.24,0,0,0-.5.65h0v.5a.54.54,0,0,0,.5.36Z" transform="translate(-197.84 -334.26)" fill-rule="evenodd"/>
    <path d="M293.67,428.28l.29-.22a.65.65,0,0,0,.22-.5c0-.36-.14-.79-.43-.86a.87.87,0,0,0-.72.22h0l-.29.43v.36a1.17,1.17,0,0,0,.29.5,1,1,0,0,0,.65.07Z" transform="translate(-197.84 -334.26)" fill-rule="evenodd"/>
    <path d="M287,428.28l.14-.07a.39.39,0,0,0,.22-.29h0l-.14-.79-.14-.36a.93.93,0,0,0-.86-.07c-.22.07-.29.22-.43.43h0v.36a7.67,7.67,0,0,0,.65.79h0l.22.14a.55.55,0,0,0,.36-.14Z" transform="translate(-197.84 -334.26)" fill-rule="evenodd"/>
    <path d="M294.31,424l.29-.22a1.14,1.14,0,0,0,.58-.72h0l.07-.72c0-.22-.22-.29-.36-.29a1.32,1.32,0,0,0-.94.29h0l-.29.65-.07.43.36.5a3.17,3.17,0,0,0,.36.07Z" transform="translate(-197.84 -334.26)" fill-rule="evenodd"/>
    <path d="M301.08,419.07h.21c.14,0,.22-.07.36-.22a3,3,0,0,1-.07-1.37.7.7,0,0,0-.5-.58c-.29,0-.5.29-.65.43h0l-.29.58a1.41,1.41,0,0,0,.94,1.15Z" transform="translate(-197.84 -334.26)" fill-rule="evenodd"/>
    <path d="M283.8,422.09l.29.07a1,1,0,0,0,1-.14c.14-.14.22-.29.14-.43a.89.89,0,0,0-.43-.58l-.86-1a1,1,0,0,0-.65,0,.65.65,0,0,0-.22.5h0l.22.94a1.57,1.57,0,0,0,.5.65Z" transform="translate(-197.84 -334.26)" fill-rule="evenodd"/>
    <path d="M284.16,427.78h.29a.94.94,0,0,0,.65-.79,1.52,1.52,0,0,0-.36-1.08h0l-1.73-.58c-.14-.07-.14,0-.22.07a.73.73,0,0,0-.36.72,1.52,1.52,0,0,0,.36.94h0l.94.58a1,1,0,0,0,.43.14Z" transform="translate(-197.84 -334.26)" fill-rule="evenodd"/>
    <path d="M298.63,429.94l.14-.22c0-.14.07-.22.07-.36a2.59,2.59,0,0,0-.14-1.66,1.71,1.71,0,0,0-1.44-.5.72.72,0,0,0-.29-.36.35.35,0,0,0-.43.22c-.14.14-.14.29-.22.43a10.55,10.55,0,0,0-.22,1.58,3.34,3.34,0,0,0,.43.65h0l1.8.43a1,1,0,0,0,.29-.22Z" transform="translate(-197.84 -334.26)" fill-rule="evenodd"/>
    <path d="M294.67,432.82l.14.22c.14.07.36,0,.43,0h0l.72-1.51a.55.55,0,0,0,.14-.29.84.84,0,0,0-.14-.72,7.26,7.26,0,0,1-.58-1,.66.66,0,0,0-.94.29c-.07.22.07.36.07.65a.7.7,0,0,0-.29.65c.07.07.07.14.14.22a1.44,1.44,0,0,0,.29,1.51Z" transform="translate(-197.84 -334.26)" fill-rule="evenodd"/>
    <path d="M291.22,413.23l.29.07c.22,0,.29-.14.43-.29s.22-.36.29-.58h0l-.29-.94a.94.94,0,0,0,.07-.86h0l-.79-1c-.14-.22-.36-.07-.58.07s-.22.22-.36.29a2.33,2.33,0,0,0-.29,1.94c.29.58.65,1.15,1.22,1.3Z" transform="translate(-197.84 -334.26)" fill-rule="evenodd"/>
    <path d="M300.65,415.61h.43a1,1,0,0,0,.65-.5,5.84,5.84,0,0,0,.07-3,.82.82,0,0,0-.21-.58c-.36-.29-.87.22-1.08.58h0l-.58,2a1.1,1.1,0,0,0,.72,1.44Z" transform="translate(-197.84 -334.26)" fill-rule="evenodd"/>
    <path d="M273.22,423.31l.14.43a1.41,1.41,0,0,0,.72.72c.58,0,1.37-.07,1.66-.65a1.69,1.69,0,0,0-.22-1.73,5.28,5.28,0,0,0-1.22-.86,4.71,4.71,0,0,0-1.15-.94,2.16,2.16,0,0,0-.72-.29.72.72,0,0,0-.36.29,4.39,4.39,0,0,0-.07,2.16c.36.36.94.43,1.22.86Z" transform="translate(-197.84 -334.26)" fill-rule="evenodd"/>
    <polygon points="74.37 81.28 73.43 82.72 82.72 87.33 74.37 81.28 74.37 81.28" fill="#fff200" fill-rule="evenodd"/>
    <polygon points="93.02 28.93 91.36 31.74 93.95 44.42 93.02 28.93 93.02 28.93" fill="#fff200" fill-rule="evenodd"/>
    <path d="M262.78,424.11l.36.14.5-.29.43.29a4.78,4.78,0,0,1,.5-.22c.22,0,.14-.07.22-.36s.36-.72.58-.72.36-.43.36-.43l-.22-.65a2.92,2.92,0,0,1-.22-.72c.07-.14-.29-.79-.29-.79l-.14-.43s-.22,0-.29-.36-.29-1-.29-1a4.85,4.85,0,0,0,.22-.5,2.8,2.8,0,0,0,.07-.65l-.58-.5-.72-.07H263l-.36.86s-.5.22-.5.36-.36.58-.36.72-.07.86-.07.86c.14.36-.22,1,0,1.15s.22.14.36.36.07.58.07.58l-.07.94.22.5s0,.43.14.58a.8.8,0,0,1,.36.36Z" transform="translate(-197.84 -334.26)" fill-rule="evenodd"/>
    <path d="M308.06,423.67a1.63,1.63,0,0,1-.29.07h-.22c-.14,0,0,0-.29-.07a.87.87,0,0,0-.36.07.14.14,0,0,1-.14.14l-.29.14a.56.56,0,0,1,0,.36c0,.07.07.43.07.43l.14.29.07.22v.43l-.29.22-.21.36-.07.29.29.36v.29l.43-.43.43-.14.29-.14.29-.29a.51.51,0,0,0,.14-.29c-.07-.14.07-.43.07-.43s.22-.07.22-.22.14-.22.07-.29.14-.22.14-.22l.07-.22.07-.22v-.22l-.14-.14a.25.25,0,0,0-.07-.14l-.14-.07-.14-.14Z" transform="translate(-197.84 -334.26)" fill-rule="evenodd"/>
    <polygon points="86.9 39.52 85.31 42.33 89.99 57.09 86.9 39.52 86.9 39.52" fill="#fff200" fill-rule="evenodd"/>
    <polygon points="57.74 93.73 56.08 96.54 73.22 96.26 57.74 93.73 57.74 93.73" fill="#fff200" fill-rule="evenodd"/>
    <polygon points="153.57 153.57 122.11 153.57 122.11 150.4 153.57 150.4 153.57 153.57 153.57 153.57" fill-rule="evenodd"/>
    <path d="M339.75,456.72a3.64,3.64,0,0,0-.14-1.44c.36-.07,1.29,1.08,1.94,2.09a14.62,14.62,0,0,1,1.87,6.84,3.3,3.3,0,0,0,1.08-2.59,2.81,2.81,0,0,1,1.15,1.44,11.66,11.66,0,0,1,.5,3.46,29.88,29.88,0,0,1-.5,3.89,5.31,5.31,0,0,0-.07,2.52,2.32,2.32,0,0,0,1.08-2s.94,1.15.58,3.74a8.59,8.59,0,0,1-2.16,4.9c-.65.86-1.3,1.66-4.61,2.66a19.43,19.43,0,0,1-5,.07l1.73-.94s1.22-.94,2.09-1.73a10.73,10.73,0,0,0,1.73-2.3,7.84,7.84,0,0,0,1-3.53,4.6,4.6,0,0,1-1.58,1s.36-1.73.43-2.66a9.93,9.93,0,0,0-.14-1.94c-.14,0-.43,1-1,1.87a9.79,9.79,0,0,1-1.66,1.87s1.08-3.17.43-5.47a8.07,8.07,0,0,0-2.38-4.18s.14,3.1.07,4.32a20.94,20.94,0,0,1-.86,5.62s-.65-.86-.86-1.22c-.58-1.08-.72-1.44-.72-1.44l-.29-.86a8.21,8.21,0,0,0-.43,2.81c0,1.8.22,2.88.5,3.17a1.15,1.15,0,0,0-.29.07c-.29.14-.22.22-.22.22a9.66,9.66,0,0,1-2.09-4,8.61,8.61,0,0,1-.43-2.52,6.86,6.86,0,0,0-.72,4.18c0,.14-.21-.07-.65-.36l-.58-.5a13.57,13.57,0,0,0,.5,2.3,10.51,10.51,0,0,0,1.73,3.67,11.12,11.12,0,0,0,2.45,2.45s-2,.86-5.11-.86c-2-1.58-3.24-4-3.24-5.33-.14-1.51-.07-4.1-.14-6.84a9.19,9.19,0,0,0-.58-2.23,6.38,6.38,0,0,1,2.38,1.44s-.22.5,0-1.44a14.74,14.74,0,0,1,.94-3.46,19.06,19.06,0,0,0,0-3.53s.65.65,1.94,2l.79,1.15a12.81,12.81,0,0,0,.5-2.23,43,43,0,0,0,.07-4.68s-.07-1.3-.22-2.59a20.92,20.92,0,0,1,2.74,3.17,8.71,8.71,0,0,0,.36-2.23,30.46,30.46,0,0,1,.29-3.24,8.41,8.41,0,0,1,1.08-2.66,7.72,7.72,0,0,0,.57,2.23,8.94,8.94,0,0,0,.94,1.87c.94,1.22,2.09,2,2.52,3.24.22,1.08.36,2,.36,2a2.5,2.5,0,0,0,.36-1.3Z" transform="translate(-197.84 -334.26)" fill-rule="evenodd"/>
    <polygon points="153.57 153.57 122.11 153.57 122.11 150.4 153.57 150.4 153.57 153.57 153.57 153.57" fill-rule="evenodd"/>
    <path d="M339.75,456.72a3.64,3.64,0,0,0-.14-1.44c.36-.07,1.29,1.08,1.94,2.09a14.62,14.62,0,0,1,1.87,6.84,3.3,3.3,0,0,0,1.08-2.59,2.81,2.81,0,0,1,1.15,1.44,11.66,11.66,0,0,1,.5,3.46,29.88,29.88,0,0,1-.5,3.89,5.31,5.31,0,0,0-.07,2.52,2.32,2.32,0,0,0,1.08-2s.94,1.15.58,3.74a8.59,8.59,0,0,1-2.16,4.9c-.65.86-1.3,1.66-4.61,2.66a19.43,19.43,0,0,1-5,.07l1.73-.94s1.22-.94,2.09-1.73a10.73,10.73,0,0,0,1.73-2.3,7.84,7.84,0,0,0,1-3.53,4.6,4.6,0,0,1-1.58,1s.36-1.73.43-2.66a9.93,9.93,0,0,0-.14-1.94c-.14,0-.43,1-1,1.87a9.79,9.79,0,0,1-1.66,1.87s1.08-3.17.43-5.47a8.07,8.07,0,0,0-2.38-4.18s.14,3.1.07,4.32a20.94,20.94,0,0,1-.86,5.62s-.65-.86-.86-1.22c-.58-1.08-.72-1.44-.72-1.44l-.29-.86a8.21,8.21,0,0,0-.43,2.81c0,1.8.22,2.88.5,3.17a1.15,1.15,0,0,0-.29.07c-.29.14-.22.22-.22.22a9.66,9.66,0,0,1-2.09-4,8.61,8.61,0,0,1-.43-2.52,6.86,6.86,0,0,0-.72,4.18c0,.14-.21-.07-.65-.36l-.58-.5a13.57,13.57,0,0,0,.5,2.3,10.51,10.51,0,0,0,1.73,3.67,11.12,11.12,0,0,0,2.45,2.45s-2,.86-5.11-.86c-2-1.58-3.24-4-3.24-5.33-.14-1.51-.07-4.1-.14-6.84a9.19,9.19,0,0,0-.58-2.23,6.38,6.38,0,0,1,2.38,1.44s-.22.5,0-1.44a14.74,14.74,0,0,1,.94-3.46,19.06,19.06,0,0,0,0-3.53s.65.65,1.94,2l.79,1.15a12.81,12.81,0,0,0,.5-2.23,43,43,0,0,0,.07-4.68s-.07-1.3-.22-2.59a20.92,20.92,0,0,1,2.74,3.17,8.71,8.71,0,0,0,.36-2.23,30.46,30.46,0,0,1,.29-3.24,8.41,8.41,0,0,1,1.08-2.66,7.72,7.72,0,0,0,.57,2.23,8.94,8.94,0,0,0,.94,1.87c.94,1.22,2.09,2,2.52,3.24.22,1.08.36,2,.36,2a2.5,2.5,0,0,0,.36-1.3Z" transform="translate(-197.84 -334.26)" fill-rule="evenodd"/>
  </g>
</svg>
