<?xml version="1.0" encoding="utf-8"?>
<!-- Generator: Adobe Illustrator 21.0.0, SVG Export Plug-In . SVG Version: 6.00 Build 0)  -->
<svg version="1.1" id="Layer_1" xmlns="http://www.w3.org/2000/svg" xmlns:xlink="http://www.w3.org/1999/xlink" x="0px" y="0px"
	 width="200px" height="200px" viewBox="0 0 200 200" style="enable-background:new 0 0 200 200;" xml:space="preserve">
<style type="text/css">
	.st0{fill:#00A44F;}
	.st1{fill:#FFFFFF;}
	.st2{fill-rule:evenodd;clip-rule:evenodd;fill:#00A44F;}
	.st3{fill-rule:evenodd;clip-rule:evenodd;fill:#FFFFFF;}
	.st4{fill:none;stroke:#000000;stroke-miterlimit:10;}
</style>
<g>
	<g>
		<path class="st0" d="M13.7,89c-1.9,0-3.5-1.6-3.5-3.5V31.8c0-1.9,1.6-3.5,3.5-3.5h172.5c1.9,0,3.5,1.6,3.5,3.5v53.7
			c0,1.9-1.6,3.5-3.5,3.5H13.7z"/>
	</g>
	<polyline class="st1" points="27,53 26.9,76.4 50.2,76.3 59.9,66.6 43.3,66.6 64.8,45.2 58.1,38.5 36.6,59.9 36.7,43.3 	"/>
	<g>
		<polygon class="st2" points="127.2,85.3 127.2,32 73.3,32 73.3,85.3 127.2,85.3 		"/>
		<path class="st3" d="M116.4,74.4v6.9l3.6,3.5H87.6L84,81.3l0-45.7h32.3v32.9c2,0,3.3,0.9,4.1,1.7c0.8,0.8,2.2,4.2,2.2,4.2
			L116.4,74.4L116.4,74.4z"/>
		<path class="st2" d="M95.8,47.7c2.1,0,3.8-1.7,3.8-3.8c0-2.1-1.7-3.8-3.8-3.8c-2.1,0-3.8,1.7-3.8,3.8C91.9,46,93.6,47.7,95.8,47.7
			L95.8,47.7z"/>
		<path class="st2" d="M102.3,63.3c0,0-7.1,13.8-7.9,15.1c-0.7,1.3-1.7,1.4-2.3,1.4h-3.7l9.4-18.9l-2.9-6.2c0,0-2.3,3.1-3.1,3.9
			c-0.5,0.5-0.9,0.6-1.5,0.6h-6.9v-3.6h5.7c0,0,2.8-3.5,3.9-5c1.2-1.6,2.3-2.1,4.7-2.1h7.9c1.5,0,3.6-0.1,4.6,1.4l3.4,5.6v0
			c0.2,0.3,0.3,0.6,0.3,1c0,1-0.8,1.8-1.8,1.8c-0.7,0-1.2-0.3-1.6-0.9l0.1,0.1c0,0-3-4.7-3.1-5.1c-0.1-0.3-0.4-0.5-0.7-0.5H103
			l3.1,6.1c1.1,2.3,1.1,6.7,1.1,6.7l0.4,3.8c0,0.5,0.3,0.6,0.5,0.6c0,0,5.2,0,6,0c3.2,0,4.7,0.6,5.7,1.6c1,1,1.3,2.7,1.3,2.7h-9.4
			H106c-2,0-2.8-1-2.9-1.8l-0.3-3.4L102.3,63.3L102.3,63.3L102.3,63.3z"/>
		<path class="st2" d="M93.7,84.9l-4.4-4.2h4c0.6,0,1.8,0.7,3.1,2c1.3,1.3,2.3,2.1,2.3,2.1L93.7,84.9L93.7,84.9z"/>
		<polygon class="st2" points="123.9,85 84.7,85 84.7,84.6 123.9,84.6 123.9,85 		"/>
	</g>
	<rect x="5.5" y="23.6" class="st4" width="189" height="70"/>
	<g>
		<polyline class="st1" points="135.2,48.6 149.9,48.6 149.9,52.3 139.5,52.3 139.5,56.6 149.1,56.6 149.1,60 139.5,60 139.5,64.8 
			150.1,64.8 150.1,68.5 135.2,68.5 		"/>
		<polyline class="st1" points="156.3,60.9 151.6,54.1 156.1,54.1 158.6,57.9 161.1,54.1 165.4,54.1 160.7,60.8 166,68.5 
			161.5,68.5 158.5,64 155.6,68.5 151.2,68.5 		"/>
		<path class="st1" d="M171.5,51.9h-3.9v-3.2h3.9V51.9z M167.6,54.1h3.9v14.4h-3.9V54.1z"/>
		<path class="st1" d="M179.6,54.1h2.9v2.6h-2.9v7.1c0,1.3,0.3,1.7,1.7,1.7c0.4,0,0.8,0,1.2-0.1v3.1c-0.7,0.1-1.5,0.1-2.3,0.1
			c-2.4,0-4.5-0.6-4.5-3.4v-8.5h-2.4v-2.6h2.4v-4.3h3.9"/>
	</g>
</g>
<g>
	<path class="st0" d="M186.3,171.7c1.9,0,3.5-1.6,3.5-3.5v-53.7c0-1.9-1.6-3.5-3.5-3.5H13.7c-1.9,0-3.5,1.6-3.5,3.5v53.7
		c0,1.9,1.6,3.5,3.5,3.5H186.3z"/>
</g>
<polyline class="st1" points="170.6,150.3 154.1,167 137.7,150.3 137.7,136.6 149.4,148.4 149.4,118.1 158.9,118.1 158.9,148.4 
	170.6,136.6 "/>
<g>
	<polygon class="st2" points="72.8,168 72.8,114.7 126.7,114.7 126.7,168 72.8,168 	"/>
	<path class="st3" d="M83.6,157.1v6.9l-3.6,3.5h32.4l3.6-3.6l0-45.7H83.6v32.9c-2,0-3.3,0.9-4.1,1.7c-0.8,0.8-2.2,4.2-2.2,4.2
		L83.6,157.1L83.6,157.1z"/>
	<path class="st2" d="M104.2,130.4c-2.1,0-3.8-1.7-3.8-3.8c0-2.1,1.7-3.8,3.8-3.8c2.1,0,3.8,1.7,3.8,3.8
		C108.1,128.7,106.4,130.4,104.2,130.4L104.2,130.4z"/>
	<path class="st2" d="M97.7,146c0,0,7.1,13.8,7.9,15.1c0.7,1.3,1.7,1.4,2.3,1.4h3.7l-9.4-18.9l2.9-6.2c0,0,2.3,3.1,3.1,3.9
		c0.5,0.5,0.9,0.6,1.5,0.6h6.9v-3.6h-5.7c0,0-2.8-3.5-3.9-5c-1.2-1.6-2.3-2.1-4.7-2.1h-7.9c-1.5,0-3.6-0.1-4.6,1.4l-3.4,5.6v0
		c-0.2,0.3-0.3,0.6-0.3,1c0,1,0.8,1.8,1.8,1.8c0.7,0,1.2-0.3,1.6-0.9l-0.1,0.1c0,0,3-4.7,3.1-5.1c0.1-0.3,0.4-0.5,0.7-0.5H97
		l-3.1,6.1c-1.1,2.3-1.1,6.7-1.1,6.7l-0.4,3.8c0,0.5-0.3,0.6-0.5,0.6c0,0-5.2,0-6,0c-3.2,0-4.7,0.6-5.7,1.6c-1,1-1.3,2.7-1.3,2.7
		h9.4H94c2,0,2.8-1,2.9-1.8l0.3-3.4L97.7,146L97.7,146L97.7,146z"/>
	<path class="st2" d="M106.3,167.7l4.4-4.2h-4c-0.6,0-1.8,0.7-3.1,2c-1.3,1.3-2.3,2.1-2.3,2.1L106.3,167.7L106.3,167.7z"/>
	<polygon class="st2" points="76.1,167.7 115.3,167.7 115.3,167.3 76.1,167.3 76.1,167.7 	"/>
</g>
<rect x="5.5" y="106.3" transform="matrix(-1 -4.489754e-11 4.489754e-11 -1 200 282.7102)" class="st4" width="189" height="70"/>
<g>
	<polyline class="st1" points="17.5,131.4 32.3,131.4 32.3,135 21.9,135 21.9,139.3 31.4,139.3 31.4,142.7 21.9,142.7 21.9,147.5 
		32.5,147.5 32.5,151.2 17.5,151.2 	"/>
	<polyline class="st1" points="38.7,143.6 34,136.8 38.5,136.8 41,140.6 43.5,136.8 47.8,136.8 43.1,143.6 48.4,151.2 43.9,151.2 
		40.9,146.7 37.9,151.2 33.5,151.2 	"/>
	<path class="st1" d="M53.9,134.6H50v-3.2h3.9V134.6z M50,136.8h3.9v14.4H50V136.8z"/>
	<path class="st1" d="M62,136.8h2.9v2.6H62v7.1c0,1.3,0.3,1.7,1.7,1.7c0.4,0,0.8,0,1.2-0.1v3.1c-0.7,0.1-1.5,0.1-2.3,0.1
		c-2.4,0-4.5-0.6-4.5-3.4v-8.5h-2.4v-2.6H58v-4.3H62"/>
</g>
</svg>
