<?xml version="1.0" encoding="utf-8"?>
<!-- Generator: Adobe Illustrator 21.0.0, SVG Export Plug-In . SVG Version: 6.00 Build 0)  -->
<svg version="1.1" id="Layer_1" xmlns="http://www.w3.org/2000/svg" xmlns:xlink="http://www.w3.org/1999/xlink" x="0px" y="0px"
	 width="200px" height="200px" viewBox="0 0 200 200" style="enable-background:new 0 0 200 200;" xml:space="preserve">
<style type="text/css">
	.st0{fill:#00A44F;}
	.st1{fill:#FFFFFF;}
	.st2{fill-rule:evenodd;clip-rule:evenodd;fill:#00A44F;}
	.st3{fill-rule:evenodd;clip-rule:evenodd;fill:#FFFFFF;}
	.st4{fill:none;stroke:#000000;stroke-miterlimit:10;}
</style>
<g>
	<g>
		<g>
			<g>
				<path class="st0" d="M13.7,89c-1.9,0-3.5-1.6-3.5-3.5V31.8c0-1.9,1.6-3.5,3.5-3.5h172.5c1.9,0,3.5,1.6,3.5,3.5v53.7
					c0,1.9-1.6,3.5-3.5,3.5H13.7z"/>
			</g>
			<g>
				<polyline class="st1" points="36.3,42.7 19.7,59.1 36.3,75.5 50,75.5 38.3,63.9 68.6,63.9 68.6,54.4 38.3,54.4 50.1,42.7 				
					"/>
				<polyline class="st1" points="132.5,37.4 146.6,37.4 146.6,41.1 136.9,41.1 136.9,45.7 145.3,45.7 145.3,49.1 136.9,49.1 
					136.9,57.3 132.5,57.3 				"/>
				<path class="st1" d="M152.9,40.7h-4v-3.3h4V40.7z M148.9,42.9h4v14.4h-4V42.9z"/>
				<path class="st1" d="M156,42.9h3.8v2.7h0.1c0.7-1.8,2.7-3.1,4.6-3.1c0.3,0,0.6,0.1,0.9,0.1v3.7c-0.4-0.1-1-0.1-1.4-0.1
					c-2.9,0-3.9,2.1-3.9,4.6v6.5h-4"/>
				<path class="st1" d="M169.8,51c0.1,2.5,1.3,3.6,3.6,3.6c1.6,0,2.9-1,3.1-1.9h3.5c-1.1,3.4-3.5,4.8-6.8,4.8
					c-4.6,0-7.4-3.1-7.4-7.6c0-4.3,3-7.6,7.4-7.6c5,0,7.3,4.1,7.1,8.5 M176.3,48.5c-0.4-2-1.2-3.1-3.2-3.1c-2.5,0-3.3,1.9-3.3,3.1
					H176.3z"/>
				<path class="st1" d="M135.4,74.1c0.1,2.5,1.4,3.6,3.6,3.6c1.6,0,2.9-1,3.1-1.9h3.5c-1.1,3.4-3.5,4.8-6.8,4.8
					c-4.6,0-7.4-3.1-7.4-7.6c0-4.3,3-7.6,7.4-7.6c4.9,0,7.3,4.1,7.1,8.5 M141.9,71.6c-0.4-2-1.2-3.1-3.2-3.1c-2.5,0-3.3,1.9-3.3,3.1
					H141.9z"/>
				<polyline class="st1" points="152,72.8 147.2,66 151.7,66 154.3,69.7 156.8,66 161.2,66 156.5,72.7 161.8,80.3 157.3,80.3 
					154.2,75.8 151.2,80.3 146.7,80.3 				"/>
				<path class="st1" d="M167.5,63.7h-4v-3.3h4V63.7z M163.5,66h4v14.4h-4V66z"/>
				<path class="st1" d="M175.7,66h2.9v2.6h-2.9v7.1c0,1.3,0.3,1.7,1.7,1.7c0.4,0,0.8,0,1.2-0.1v3.1c-0.7,0.1-1.5,0.1-2.3,0.1
					c-2.4,0-4.6-0.6-4.6-3.4v-8.5h-2.4V66h2.4v-4.3h4"/>
				<g>
					<polygon class="st2" points="127.2,85.3 127.2,32 73.3,32 73.3,85.3 127.2,85.3 					"/>
					<path class="st3" d="M116.4,74.4v6.9l3.6,3.5H87.6L84,81.3l0-45.7h32.3v32.9c2,0,3.3,0.9,4.1,1.7c0.8,0.8,2.2,4.2,2.2,4.2
						L116.4,74.4L116.4,74.4z"/>
					<path class="st2" d="M95.8,47.7c2.1,0,3.8-1.7,3.8-3.8c0-2.1-1.7-3.8-3.8-3.8c-2.1,0-3.8,1.7-3.8,3.8
						C91.9,46,93.6,47.7,95.8,47.7L95.8,47.7z"/>
					<path class="st2" d="M102.3,63.3c0,0-7.1,13.8-7.9,15.1c-0.7,1.3-1.7,1.4-2.3,1.4h-3.7l9.4-18.9l-2.9-6.2c0,0-2.3,3.1-3.1,3.9
						c-0.5,0.5-0.9,0.6-1.5,0.6h-6.9v-3.6h5.7c0,0,2.8-3.5,3.9-5c1.2-1.6,2.3-2.1,4.7-2.1h7.9c1.5,0,3.6-0.1,4.6,1.4l3.4,5.6v0
						c0.2,0.3,0.3,0.6,0.3,1c0,1-0.8,1.8-1.8,1.8c-0.7,0-1.2-0.3-1.6-0.9l0.1,0.1c0,0-3-4.7-3.1-5.1c-0.1-0.3-0.4-0.5-0.7-0.5H103
						l3.1,6.1c1.1,2.3,1.1,6.7,1.1,6.7l0.4,3.8c0,0.5,0.3,0.6,0.5,0.6c0,0,5.2,0,6,0c3.2,0,4.7,0.6,5.7,1.6c1,1,1.3,2.7,1.3,2.7
						h-9.4H106c-2,0-2.8-1-2.9-1.8l-0.3-3.4L102.3,63.3L102.3,63.3L102.3,63.3z"/>
					<path class="st2" d="M93.7,84.9l-4.4-4.2h4c0.6,0,1.8,0.7,3.1,2c1.3,1.3,2.3,2.1,2.3,2.1L93.7,84.9L93.7,84.9z"/>
					<polygon class="st2" points="123.9,85 84.7,85 84.7,84.6 123.9,84.6 123.9,85 					"/>
				</g>
			</g>
		</g>
		<rect x="5.5" y="23.6" class="st4" width="189" height="70"/>
	</g>
	<g>
		<g>
			<g>
				<path class="st0" d="M186.3,171.7c1.9,0,3.5-1.6,3.5-3.5v-53.7c0-1.9-1.6-3.5-3.5-3.5H13.7c-1.9,0-3.5,1.6-3.5,3.5v53.7
					c0,1.9,1.6,3.5,3.5,3.5H186.3z"/>
			</g>
			<g>
				<polyline class="st1" points="139.4,134 155.8,117.4 172.2,134 172.2,147.7 160.6,135.9 160.6,166.3 151.1,166.3 151.1,135.9 
					139.4,147.7 				"/>
				<g>
					<polyline class="st1" points="20.8,120.1 35,120.1 35,123.8 25.3,123.8 25.3,128.4 33.7,128.4 33.7,131.8 25.3,131.8 25.3,140 
						20.8,140 					"/>
					<path class="st1" d="M41.2,123.4h-4v-3.3h4V123.4z M37.2,125.6h4V140h-4V125.6z"/>
					<path class="st1" d="M44.4,125.6h3.8v2.7h0.1c0.7-1.8,2.7-3.1,4.6-3.1c0.3,0,0.6,0.1,0.9,0.1v3.7c-0.4-0.1-1-0.1-1.4-0.1
						c-2.9,0-3.9,2.1-3.9,4.6v6.5h-4"/>
					<path class="st1" d="M58.1,133.8c0.1,2.5,1.3,3.6,3.6,3.6c1.6,0,2.9-1,3.1-1.9h3.5c-1.1,3.4-3.5,4.8-6.8,4.8
						c-4.6,0-7.4-3.1-7.4-7.6c0-4.3,3-7.6,7.4-7.6c5,0,7.3,4.1,7.1,8.5 M64.6,131.3c-0.4-2-1.2-3.1-3.2-3.1c-2.5,0-3.3,1.9-3.3,3.1
						H64.6z"/>
					<path class="st1" d="M23.7,156.8c0.1,2.5,1.4,3.6,3.6,3.6c1.6,0,2.9-1,3.1-1.9H34c-1.1,3.4-3.5,4.8-6.8,4.8
						c-4.6,0-7.4-3.1-7.4-7.6c0-4.3,3-7.6,7.4-7.6c5,0,7.3,4.1,7.1,8.5 M30.2,154.3c-0.4-2-1.2-3.1-3.2-3.1c-2.5,0-3.3,1.9-3.3,3.1
						H30.2z"/>
					<polyline class="st1" points="40.3,155.5 35.5,148.7 40.1,148.7 42.6,152.4 45.1,148.7 49.6,148.7 44.8,155.4 50.2,163 
						45.6,163 42.6,158.5 39.5,163 35.1,163 					"/>
					<path class="st1" d="M55.8,146.5h-4v-3.3h4V146.5z M51.8,148.7h4V163h-4V148.7z"/>
					<path class="st1" d="M64,148.7h2.9v2.6H64v7.1c0,1.3,0.3,1.7,1.7,1.7c0.4,0,0.8,0,1.2-0.1v3.1c-0.7,0.1-1.5,0.1-2.3,0.1
						c-2.4,0-4.6-0.6-4.6-3.4v-8.5h-2.4v-2.6H60v-4.3h4"/>
				</g>
				<g>
					<polygon class="st2" points="72.8,168 72.8,114.7 126.7,114.7 126.7,168 72.8,168 					"/>
					<path class="st3" d="M83.6,157.1v6.9l-3.6,3.5h32.4l3.6-3.6l0-45.7H83.6v32.9c-2,0-3.3,0.9-4.1,1.7c-0.8,0.8-2.2,4.2-2.2,4.2
						L83.6,157.1L83.6,157.1z"/>
					<path class="st2" d="M104.2,130.4c-2.1,0-3.8-1.7-3.8-3.8c0-2.1,1.7-3.8,3.8-3.8c2.1,0,3.8,1.7,3.8,3.8
						C108.1,128.7,106.4,130.4,104.2,130.4L104.2,130.4z"/>
					<path class="st2" d="M97.7,146c0,0,7.1,13.8,7.9,15.1c0.7,1.3,1.7,1.4,2.3,1.4h3.7l-9.4-18.9l2.9-6.2c0,0,2.3,3.1,3.1,3.9
						c0.5,0.5,0.9,0.6,1.5,0.6h6.9v-3.6h-5.7c0,0-2.8-3.5-3.9-5c-1.2-1.6-2.3-2.1-4.7-2.1h-7.9c-1.5,0-3.6-0.1-4.6,1.4l-3.4,5.6v0
						c-0.2,0.3-0.3,0.6-0.3,1c0,1,0.8,1.8,1.8,1.8c0.7,0,1.2-0.3,1.6-0.9l-0.1,0.1c0,0,3-4.7,3.1-5.1c0.1-0.3,0.4-0.5,0.7-0.5H97
						l-3.1,6.1c-1.1,2.3-1.1,6.7-1.1,6.7l-0.4,3.8c0,0.5-0.3,0.6-0.5,0.6c0,0-5.2,0-6,0c-3.2,0-4.7,0.6-5.7,1.6
						c-1,1-1.3,2.7-1.3,2.7h9.4H94c2,0,2.8-1,2.9-1.8l0.3-3.4L97.7,146L97.7,146L97.7,146z"/>
					<path class="st2" d="M106.3,167.7l4.4-4.2h-4c-0.6,0-1.8,0.7-3.1,2c-1.3,1.3-2.3,2.1-2.3,2.1L106.3,167.7L106.3,167.7z"/>
					<polygon class="st2" points="76.1,167.7 115.3,167.7 115.3,167.3 76.1,167.3 76.1,167.7 					"/>
				</g>
			</g>
		</g>
		
			<rect x="5.5" y="106.3" transform="matrix(-1 -4.489754e-11 4.489754e-11 -1 200 282.7102)" class="st4" width="189" height="70"/>
	</g>
</g>
</svg>
