<?xml version="1.0" encoding="utf-8"?>
<!-- Generator: Adobe Illustrator 16.0.0, SVG Export Plug-In . SVG Version: 6.00 Build 0)  -->
<!DOCTYPE svg PUBLIC "-//W3C//DTD SVG 1.1//EN" "http://www.w3.org/Graphics/SVG/1.1/DTD/svg11.dtd">
<svg version="1.1" id="Layer_1" xmlns="http://www.w3.org/2000/svg" xmlns:xlink="http://www.w3.org/1999/xlink" x="0px" y="0px"
	 width="200px" height="200px" viewBox="0 0 200 200" enable-background="new 0 0 200 200" xml:space="preserve">
<g>
	<rect x="5" y="5" fill="#E1EA9F" stroke="#000000" stroke-miterlimit="10" width="190" height="190"/>
	<text transform="matrix(1 0 0 1 166.2471 105.3125)" font-family="'Arial-BoldMT'" font-size="18.6368">2</text>
	<path fill-rule="evenodd" clip-rule="evenodd" d="M81.705,56.33l22.46,0.109l-0.113-1.752l-3.192-2.074H88.198L81.705,56.33z
		 M22.908,52.613l48.776,3.936v-3.936h9.248l7.266-1.866h13.873l5.507,2.957v15.764l-2.093,0.877l-2.09-0.987l-5.285-3.505
		l-6.39-1.421H81.705v6.13l2.09,6.023H69.152l2.532-5.693v-5.913l-48.776,3.94V52.613z"/>
	<path fill="none" stroke="#000000" stroke-width="0.7837" stroke-miterlimit="22.926" d="M81.705,56.33l22.46,0.109l-0.113-1.752
		l-3.192-2.074H88.198L81.705,56.33z M22.908,52.613l48.776,3.936v-3.936h9.248l7.266-1.866h13.873l5.507,2.957v15.764l-2.093,0.877
		l-2.09-0.987l-5.285-3.505l-6.39-1.421H81.705v6.13l2.09,6.023H69.152l2.532-5.693v-5.913l-48.776,3.94V52.613z"/>
	<path fill-rule="evenodd" clip-rule="evenodd" fill="#CF0A2C" d="M76.555,71.978L76.555,71.978c8.973,0,16.314,7.285,16.314,16.194
		v42.327c0,8.905-7.341,16.195-16.314,16.195c-8.977,0-16.318-7.29-16.318-16.195V88.172C60.237,79.263,67.579,71.978,76.555,71.978
		z"/>
	<path fill="none" stroke="#000000" stroke-width="2.5283" stroke-miterlimit="22.926" d="M76.555,71.978L76.555,71.978
		c8.973,0,16.314,7.285,16.314,16.194v42.327c0,8.905-7.341,16.195-16.314,16.195c-8.977,0-16.318-7.29-16.318-16.195V88.172
		C60.237,79.263,67.579,71.978,76.555,71.978z"/>
	<text transform="matrix(1.0075 0 0 1 101.1738 105.3164)" font-family="'Arial-BoldMT'" font-size="42.9625">CO</text>
	<text transform="matrix(1 0 0 1 100.8076 145.6738)" font-family="'Arial-BoldMT'" font-size="42.2015">6</text>
</g>
</svg>
