<?xml version="1.0" encoding="utf-8"?>
<!-- Generator: Adobe Illustrator 16.0.0, SVG Export Plug-In . SVG Version: 6.00 Build 0)  -->
<!DOCTYPE svg PUBLIC "-//W3C//DTD SVG 1.1//EN" "http://www.w3.org/Graphics/SVG/1.1/DTD/svg11.dtd">
<svg version="1.1" id="Layer_1" xmlns="http://www.w3.org/2000/svg" xmlns:xlink="http://www.w3.org/1999/xlink" x="0px" y="0px"
	 width="22.585px" height="20px" viewBox="0 0 22.585 20" enable-background="new 0 0 22.585 20" xml:space="preserve">
<g>
	<circle fill="#FFFFFF" cx="8.438" cy="18.125" r="1.875"/>
	<circle fill="#FFFFFF" cx="16.63" cy="18.125" r="1.875"/>
	<path fill="#FFFFFF" d="M21.413,5.957c-2.398,0-11.587,0-11.587,0S9.14,6.111,9.14,6.865c0,0.754,0.686,0.975,0.686,0.975h10.389
		L19.63,9.812c-2.845,0-10.211,0-10.211,0S8.78,9.955,8.78,10.657c0,0.702,0.639,0.908,0.639,0.908h9.671l0.022-0.001l-0.548,1.847
		H8.023L7.324,7.839L7.096,5.957c0,0-0.203-1.735-0.318-2.455S4.86,1.881,0.989,0.056c-0.911-0.382-1.672,1.283,0,2.155l3.053,1.427
		c0,0,0.71,0.411,0.771,0.967c0.061,0.555,1.3,9.742,1.3,9.742s0.049,1.275,1.21,1.275c1.161,0,10.679,0,11.653,0
		c0.974,0,1.164-1.018,1.164-1.018l2.31-6.859C22.451,7.746,23.136,5.957,21.413,5.957z"/>
</g>
</svg>
