<?xml version="1.0" encoding="utf-8"?>
<!-- Generator: Adobe Illustrator 16.0.0, SVG Export Plug-In . SVG Version: 6.00 Build 0)  -->
<!DOCTYPE svg PUBLIC "-//W3C//DTD SVG 1.1//EN" "http://www.w3.org/Graphics/SVG/1.1/DTD/svg11.dtd">
<svg version="1.1" id="Layer_1" xmlns="http://www.w3.org/2000/svg" xmlns:xlink="http://www.w3.org/1999/xlink" x="0px" y="0px"
	 width="750px" height="43px" viewBox="0 0 750 43" enable-background="new 0 0 750 43" xml:space="preserve">
<g>
	<defs>
		<rect id="SVGID_1_" width="750" height="43"/>
	</defs>
	<clipPath id="SVGID_2_">
		<use xlink:href="#SVGID_1_"  overflow="visible"/>
	</clipPath>
	<g clip-path="url(#SVGID_2_)">
		<path fill="#303030" d="M750,38.211c0,2.634-2.155,4.789-4.789,4.789H4.789C2.155,43,0,40.845,0,38.211V4.789
			C0,2.155,2.155,0,4.789,0h740.422C747.845,0,750,2.155,750,4.789V38.211z"/>
	</g>
	<g clip-path="url(#SVGID_2_)">
		<text transform="matrix(1 0 0 1 58.6431 31.7227)" fill="#999999" font-family="'Chalkboard-Bold'" font-size="29.9483">Free shipping on orders over £75*</text>
	</g>
	<g clip-path="url(#SVGID_2_)">
		<text transform="matrix(1 0 0 1 565.9199 19.5)"><tspan x="0" y="0" fill="#999999" font-family="'Chalkboard-Bold'" font-size="9.7658">*Excludes certain products</tspan><tspan x="10.407" y="11.719" fill="#999999" font-family="'Chalkboard-Bold'" font-size="9.7658"> Click for more details</tspan></text>
	</g>
	<g clip-path="url(#SVGID_2_)">
		<g>
			<g>
				<path fill="#999999" d="M36.624,36.661l2.32,2.318c0.221,0.222,0.509,0.33,0.797,0.33c0.289,0,0.579-0.108,0.799-0.33
					c0.441-0.442,0.441-1.153,0-1.596l-2.318-2.317c-0.441-0.444-1.156-0.444-1.597,0C36.184,35.506,36.184,36.222,36.624,36.661z"
					/>
			</g>
		</g>
		<g>
			<g>
				<path fill="#999999" d="M33.345,39.94l7.728,7.727C41.294,47.89,41.583,48,41.871,48c0.289,0,0.577-0.11,0.799-0.333
					c0.439-0.438,0.439-1.153,0-1.595l-7.729-7.729c-0.441-0.439-1.156-0.439-1.597,0C32.904,38.784,32.904,39.499,33.345,39.94z"/>
			</g>
		</g>
		<g>
			<g>
				<path fill="#999999" d="M30.066,43.221l3.864,3.863c0.221,0.222,0.509,0.332,0.798,0.332c0.288,0,0.577-0.11,0.798-0.332
					c0.441-0.441,0.441-1.155,0-1.596l-3.864-3.864c-0.441-0.442-1.155-0.441-1.596,0C29.625,42.063,29.625,42.779,30.066,43.221z"
					/>
			</g>
		</g>
		<g>
			<g>
				<path fill="#999999" d="M8.776,23.62c1.316,1.315,3.064,2.039,4.923,2.039c1.858,0,3.608-0.724,4.921-2.039
					c1.315-1.312,2.038-3.062,2.038-4.92c0-1.859-0.723-3.607-2.038-4.922c-1.313-1.314-3.063-2.038-4.921-2.038
					c-1.859,0-3.607,0.724-4.923,2.038C6.063,16.493,6.063,20.906,8.776,23.62z M10.375,15.375c0.887-0.887,2.069-1.376,3.325-1.376
					s2.438,0.49,3.325,1.376c0.889,0.889,1.378,2.07,1.378,3.326s-0.489,2.436-1.378,3.325c-0.887,0.888-2.069,1.377-3.325,1.377
					c-1.257,0-2.438-0.489-3.325-1.377C8.541,20.191,8.541,17.209,10.375,15.375z"/>
			</g>
		</g>
		<g>
			<g>
				<path fill="#999999" d="M-3.263,14.403c0.154,0.603,0.338,1.197,0.542,1.785c0.014,0.05,0.032,0.103,0.053,0.15
					c1.144,3.222,2.997,6.169,5.432,8.614c0.001,0,0.003,0,0.004,0.004c0.007,0.006,0.012,0.014,0.02,0.02
					c0.009,0.009,0.022,0.019,0.032,0.028c0.011,0.012,0.02,0.021,0.03,0.028l4.023,3.458c-0.058,5.438,2.089,10.725,5.943,14.58
					c1.254,1.253,2.658,2.334,4.174,3.214c0.174,0.101,0.369,0.15,0.566,0.15c0.147,0,0.297-0.027,0.438-0.086
					c0.327-0.138,0.569-0.421,0.657-0.764l1.595-6.274l3.335,1.228c0.504,0.187,1.032,0.277,1.555,0.277
					c1.179,0,2.338-0.461,3.199-1.321l6.159-6.159c1.24-1.24,1.649-3.104,1.043-4.753l-1.227-3.331l6.274-1.599
					c0.344-0.089,0.625-0.329,0.762-0.656s0.115-0.698-0.063-1.004c-0.88-1.517-1.961-2.921-3.214-4.175
					c-3.853-3.854-9.139-6.002-14.579-5.942l-3.457-4.023c-0.008-0.011-0.02-0.02-0.029-0.03c-0.009-0.009-0.019-0.022-0.03-0.033
					c-0.004-0.005-0.011-0.01-0.018-0.019c-0.001,0-0.004-0.002-0.004-0.002c-2.441-2.437-5.391-4.288-8.612-5.433
					c-0.049-0.021-0.1-0.04-0.151-0.053c-0.586-0.203-1.18-0.387-1.784-0.543c-3.87-1-7.957-0.983-11.817,0.049
					c-0.39,0.105-0.695,0.409-0.799,0.797C-4.246,6.445-4.262,10.533-3.263,14.403z M33.218,23.195l-7.712-8.973
					c4.117,0.415,8.015,2.239,10.965,5.191c0.756,0.753,1.439,1.57,2.045,2.434L33.218,23.195z M33.114,31.488l-2.202-3.523
					l1.457-1.455l1.05,2.852C33.683,30.08,33.56,30.884,33.114,31.488z M30.616,34.021l-2.879-2.882l1.538-1.535l2.213,3.545
					L30.616,34.021z M28.146,36.489l-3.542-2.215l1.537-1.537l2.877,2.88L28.146,36.489z M21.508,37.37l1.456-1.459l3.523,2.201
					c-0.604,0.449-1.405,0.572-2.125,0.309L21.508,37.37z M9.221,30.507l8.976,7.711l-1.349,5.298
					c-0.868-0.604-1.682-1.287-2.435-2.043C11.46,38.521,9.634,34.621,9.221,30.507z M-0.321,16.175L11.173,4.68
					c2.676,1.044,5.125,2.635,7.179,4.68l3.769,4.389c0.009,0.01,0.017,0.019,0.027,0.029l9.132,10.629L19.405,36.278L4.359,23.354
					C2.312,21.299,0.721,18.85-0.321,16.175z M-1.193,3.808c3.27-0.764,6.692-0.732,9.95,0.095l-9.854,9.855
					C-1.924,10.5-1.957,7.076-1.193,3.808z"/>
			</g>
		</g>
	</g>
	<rect y="6.5" clip-path="url(#SVGID_2_)" fill="none" width="750" height="30"/>
	<g clip-path="url(#SVGID_2_)">
		<g>
			<g>
				<path fill="#999999" d="M713.376,35.066c-0.441-0.444-1.156-0.444-1.597,0l-2.318,2.317c-0.441,0.442-0.441,1.153,0,1.596
					c0.22,0.222,0.51,0.33,0.799,0.33c0.288,0,0.576-0.108,0.797-0.33l2.319-2.318C713.815,36.222,713.815,35.506,713.376,35.066z"
					/>
			</g>
		</g>
		<g>
			<g>
				<path fill="#999999" d="M716.655,38.344c-0.441-0.439-1.156-0.439-1.598,0l-7.729,7.729c-0.439,0.441-0.439,1.157,0,1.595
					c0.223,0.223,0.511,0.333,0.8,0.333c0.288,0,0.577-0.11,0.798-0.333l7.729-7.727C717.097,39.499,717.097,38.784,716.655,38.344z
					"/>
			</g>
		</g>
		<g>
			<g>
				<path fill="#999999" d="M719.935,41.624c-0.441-0.441-1.154-0.442-1.596,0l-3.865,3.864c-0.441,0.44-0.441,1.154,0,1.596
					c0.221,0.222,0.51,0.332,0.799,0.332s0.577-0.11,0.798-0.332l3.864-3.863C720.375,42.779,720.375,42.063,719.935,41.624z"/>
			</g>
		</g>
		<g>
			<g>
				<path fill="#999999" d="M741.224,13.777c-1.316-1.313-3.064-2.038-4.924-2.038c-1.857,0-3.607,0.724-4.921,2.038
					c-1.315,1.315-2.038,3.063-2.038,4.923c0,1.858,0.723,3.608,2.038,4.92c1.313,1.315,3.063,2.039,4.921,2.039
					c1.859,0,3.607-0.724,4.924-2.039C743.937,20.906,743.937,16.493,741.224,13.777z M739.626,22.025
					c-0.888,0.888-2.068,1.377-3.326,1.377c-1.256,0-2.438-0.489-3.324-1.377c-0.889-0.89-1.378-2.069-1.378-3.325
					s0.489-2.437,1.378-3.325c0.887-0.887,2.068-1.377,3.324-1.377s2.438,0.49,3.326,1.377
					C741.46,17.209,741.46,20.191,739.626,22.025z"/>
			</g>
		</g>
		<g>
			<g>
				<path fill="#999999" d="M753.214,2.584c-0.104-0.388-0.408-0.692-0.799-0.797c-3.86-1.032-7.947-1.049-11.816-0.049
					c-0.604,0.156-1.199,0.34-1.785,0.543c-0.051,0.013-0.102,0.032-0.15,0.053c-3.222,1.145-6.172,2.996-8.613,5.433
					c0,0-0.002,0.002-0.004,0.002c-0.008,0.008-0.014,0.013-0.018,0.019c-0.012,0.011-0.021,0.024-0.03,0.033
					c-0.01,0.01-0.021,0.02-0.029,0.03l-3.457,4.023c-5.44-0.06-10.726,2.089-14.579,5.942c-1.253,1.254-2.334,2.658-3.215,4.175
					c-0.178,0.306-0.2,0.677-0.062,1.004c0.137,0.327,0.418,0.567,0.762,0.656l6.273,1.599l-1.227,3.331
					c-0.606,1.648-0.197,3.513,1.043,4.753l6.159,6.159c0.86,0.86,2.021,1.321,3.198,1.321c0.523,0,1.051-0.091,1.555-0.277
					l3.336-1.228l1.595,6.274c0.089,0.343,0.331,0.626,0.657,0.764c0.141,0.059,0.29,0.086,0.438,0.086
					c0.197,0,0.393-0.05,0.566-0.15c1.516-0.88,2.92-1.961,4.174-3.214c3.854-3.855,6.002-9.142,5.943-14.58l4.023-3.458
					c0.01-0.007,0.02-0.017,0.029-0.028c0.01-0.01,0.023-0.02,0.032-0.028c0.008-0.006,0.013-0.014,0.021-0.02
					c0-0.004,0.002-0.004,0.004-0.004c2.436-2.444,4.287-5.392,5.432-8.613c0.021-0.048,0.039-0.1,0.053-0.15
					c0.203-0.588,0.387-1.182,0.541-1.785C754.262,10.533,754.246,6.445,753.214,2.584z M711.484,21.848
					c0.606-0.864,1.29-1.681,2.046-2.434c2.949-2.953,6.848-4.777,10.965-5.191l-7.713,8.973L711.484,21.848z M716.581,29.361
					l1.051-2.852l1.457,1.455l-2.203,3.523C716.44,30.884,716.317,30.08,716.581,29.361z M718.513,33.149l2.213-3.545l1.537,1.535
					l-2.879,2.882L718.513,33.149z M720.981,35.617l2.877-2.88l1.537,1.537l-3.541,2.215L720.981,35.617z M725.639,38.421
					c-0.721,0.264-1.521,0.141-2.126-0.309l3.523-2.201l1.456,1.459L725.639,38.421z M735.587,41.473
					c-0.752,0.756-1.566,1.438-2.435,2.043l-1.349-5.298l8.976-7.711C740.366,34.621,738.54,38.521,735.587,41.473z M745.641,23.354
					l-15.046,12.924L718.72,24.406l9.133-10.629c0.01-0.011,0.018-0.02,0.026-0.029l3.769-4.389c2.054-2.045,4.503-3.636,7.18-4.68
					l11.494,11.495C749.279,18.85,747.688,21.299,745.641,23.354z M751.097,13.758l-9.854-9.854c3.258-0.827,6.681-0.859,9.95-0.095
					C751.957,7.076,751.924,10.5,751.097,13.758z"/>
			</g>
		</g>
	</g>
</g>
</svg>
