<?xml version="1.0" encoding="utf-8"?>
<!-- Generator: Adobe Illustrator 16.0.0, SVG Export Plug-In . SVG Version: 6.00 Build 0)  -->
<!DOCTYPE svg PUBLIC "-//W3C//DTD SVG 1.1//EN" "http://www.w3.org/Graphics/SVG/1.1/DTD/svg11.dtd">
<svg version="1.1" id="Layer_1" xmlns="http://www.w3.org/2000/svg" xmlns:xlink="http://www.w3.org/1999/xlink" x="0px" y="0px"
	 width="277px" height="357px" viewBox="0 0 277 357" enable-background="new 0 0 277 357" xml:space="preserve">
<g>
	<path fill="#303030" d="M277,352.407c0,2.525-2.066,4.593-4.593,4.593H4.593C2.067,357,0,354.934,0,352.407V4.593
		C0,2.067,2.067,0,4.593,0h267.814C274.934,0,277,2.067,277,4.593V352.407z"/>
</g>
<text transform="matrix(1 0 0 1 19.8843 55.5664)" fill="#999999" font-family="'Chalkboard-Bold'" font-size="37.711">Free shipping</text>
<text transform="matrix(1 0 0 1 85.9292 100.8193)" fill="#999999" font-family="'Chalkboard-Bold'" font-size="37.711">on orders</text>
<text transform="matrix(1 0 0 1 179.5176 146.0732)" fill="#999999" font-family="'Chalkboard-Bold'" font-size="37.711">over</text>
<g>
	<g>
		<g>
			<path fill="#999999" d="M-159.485,125.238v-3.094c0-4.718-3.838-8.556-8.556-8.556h-28.52v-14.26
				c0-1.575-1.275-2.853-2.852-2.853h-8.555v-8.554c0-1.575-1.277-2.852-2.854-2.852h-38.741l-4.87-4.87
				c-1.114-1.113-2.919-1.113-4.033,0l-16.276,16.275h-4.521c-1.576,0-2.854,1.277-2.854,2.853v79.851
				c0,1.575,1.276,2.853,2.854,2.853h11.692c0.429,2.105,1.324,4.045,2.572,5.704h-5.711c-1.575,0-2.852,1.275-2.852,2.852
				c0,1.574,1.276,2.854,2.852,2.854h17.11c0.007,0,0.014-0.002,0.021-0.002c6.877-0.011,12.629-4.912,13.951-11.405h40.213h11.696
				c0.429,2.104,1.325,4.044,2.573,5.702h-5.712c-1.575,0-2.853,1.276-2.853,2.854c0,1.574,1.277,2.852,2.853,2.852h17.11
				c0.008,0,0.014,0,0.021,0c6.876-0.011,12.627-4.912,13.95-11.406h11.692c1.575,0,2.854-1.277,2.854-2.854v-25.666v-11.408
				C-145.227,133.644-151.404,126.601-159.485,125.238z M-213.671,90.774v5.702h-24.483l-5.703-5.702H-213.671z M-256.447,86.251
				l3.687,3.687c0.002,0.001,0.004,0.002,0.006,0.004l6.535,6.535h-20.452L-256.447,86.251z M-253.597,187.734
				c-4.718,0-8.557-3.838-8.557-8.556s3.838-8.556,8.557-8.556c4.718,0,8.556,3.838,8.556,8.556
				C-245.042,183.896-248.879,187.734-253.597,187.734z M-202.264,116.44v48.48h-19.396c-1.575,0-2.853,1.277-2.853,2.853
				c0,1.574,1.275,2.852,2.853,2.852h19.396v5.703h-37.361c-1.324-6.501-7.086-11.407-13.972-11.407
				c-6.886,0-12.647,4.907-13.973,11.407h-8.842v-45.629h11.406c1.574,0,2.852-1.276,2.852-2.852c0-1.576-1.275-2.852-2.852-2.852
				h-11.406v-5.704h34.221c1.574,0,2.852-1.276,2.852-2.852c0-1.574-1.276-2.852-2.852-2.852h-34.221V102.18h2.85
				c0.002,0,0.003,0,0.004,0h71.293V116.44L-202.264,116.44z M-187.716,176.328h-8.845v-5.703h11.416
				C-186.392,172.283-187.287,174.222-187.716,176.328z M-165.189,179.189c-0.006,4.713-3.84,8.545-8.554,8.545
				c-4.72,0-8.558-3.838-8.558-8.556c0-4.711,3.826-8.543,8.535-8.555h0.021c0.002,0,0.005,0,0.008,0
				c4.711,0.003,8.541,3.835,8.547,8.546c0,0.003,0,0.006,0,0.01C-165.19,179.182-165.189,179.186-165.189,179.189z
				 M-150.932,176.328h-8.841c-1.325-6.501-7.085-11.407-13.971-11.407c-0.009,0-0.015,0-0.022,0h-22.795v-45.628h28.52
				c1.572,0,2.852,1.279,2.852,2.852v2.852h-19.962c-1.575,0-2.853,1.276-2.853,2.852v25.666c0,1.575,1.277,2.852,2.853,2.852h34.22
				v19.961H-150.932z M-176.596,130.699v19.963h-5.703v-19.963H-176.596z M-150.932,150.662h-19.961v-19.963h8.557
				c6.289,0,11.404,5.117,11.404,11.406L-150.932,150.662L-150.932,150.662z"/>
			<path fill="#999999" d="M-232.814,170.625h1.78c1.575,0,2.854-1.277,2.854-2.852c0-1.575-1.277-2.853-2.854-2.853h-1.78
				c-1.575,0-2.852,1.277-2.852,2.853C-235.666,169.348-234.389,170.625-232.814,170.625z"/>
			<path fill="#999999" d="M-232.814,119.293h1.78c1.575,0,2.854-1.277,2.854-2.853c0-1.574-1.277-2.852-2.854-2.852h-1.78
				c-1.575,0-2.852,1.277-2.852,2.852C-235.666,118.016-234.389,119.293-232.814,119.293z"/>
		</g>
	</g>
</g>
<g>
	<g>
		<g>
			<path fill="#999999" d="M151.455,323.786c-1.464-1.464-3.836-1.464-5.299,0l-7.695,7.693c-1.464,1.465-1.464,3.837,0,5.299
				c0.732,0.731,1.689,1.1,2.65,1.1c0.958,0,1.916-0.367,2.647-1.1l7.695-7.694C152.918,327.62,152.918,325.25,151.455,323.786z"/>
		</g>
	</g>
	<g>
		<g>
			<path fill="#999999" d="M162.34,334.67c-1.463-1.461-3.837-1.461-5.299,0l-25.65,25.65c-1.463,1.464-1.463,3.836,0,5.298
				c0.731,0.732,1.689,1.1,2.648,1.1c0.96,0,1.918-0.365,2.65-1.1l25.65-25.65C163.803,338.507,163.803,336.132,162.34,334.67z"/>
		</g>
	</g>
	<g>
		<g>
			<path fill="#999999" d="M173.225,345.555c-1.464-1.462-3.835-1.464-5.299,0l-12.824,12.825c-1.465,1.464-1.465,3.836,0,5.3
				c0.73,0.73,1.689,1.099,2.648,1.099s1.918-0.367,2.648-1.099l12.826-12.825C174.688,349.391,174.688,347.019,173.225,345.555z"/>
		</g>
	</g>
	<g>
		<g>
			<path fill="#999999" d="M243.881,253.131c-4.363-4.363-10.165-6.766-16.336-6.766s-11.973,2.402-16.336,6.766
				c-4.363,4.364-6.766,10.164-6.766,16.336s2.401,11.973,6.766,16.336s10.164,6.768,16.336,6.768
				c6.171,0,11.973-2.403,16.336-6.768C252.887,276.795,252.887,262.141,243.881,253.131z M238.582,280.505
				c-2.948,2.947-6.867,4.571-11.037,4.571s-8.09-1.624-11.038-4.571c-2.948-2.948-4.571-6.866-4.571-11.038
				c0-4.17,1.623-8.089,4.571-11.037c2.948-2.947,6.868-4.572,11.038-4.572c4.169,0,8.089,1.625,11.037,4.572
				C244.668,264.518,244.668,274.418,238.582,280.505z"/>
		</g>
	</g>
	<g>
		<g>
			<path fill="#999999" d="M283.684,215.982c-0.348-1.295-1.356-2.306-2.651-2.651c-12.812-3.425-26.377-3.479-39.224-0.163
				c-2.003,0.518-3.976,1.124-5.924,1.8c-0.169,0.048-0.336,0.104-0.497,0.175c-10.696,3.797-20.48,9.945-28.59,18.031
				c-0.005,0.004-0.009,0.008-0.013,0.014c-0.021,0.021-0.044,0.041-0.064,0.061c-0.033,0.035-0.063,0.074-0.096,0.107
				s-0.066,0.065-0.096,0.101l-11.478,13.356c-18.054-0.199-35.598,6.934-48.389,19.726c-4.16,4.159-7.748,8.819-10.666,13.854
				c-0.59,1.016-0.668,2.25-0.213,3.332c0.455,1.084,1.391,1.889,2.528,2.176l20.825,5.304l-4.074,11.065
				c-2.014,5.466-0.651,11.656,3.467,15.774l20.439,20.438c2.854,2.855,6.704,4.385,10.619,4.385c1.732,0,3.479-0.299,5.156-0.917
				l11.066-4.074l5.302,20.824c0.29,1.139,1.097,2.076,2.179,2.531c0.466,0.194,0.961,0.293,1.453,0.293
				c0.65,0,1.3-0.172,1.878-0.506c5.033-2.92,9.695-6.509,13.854-10.668c12.793-12.793,19.922-30.341,19.726-48.393l13.354-11.474
				c0.034-0.03,0.064-0.063,0.1-0.096c0.035-0.033,0.074-0.062,0.107-0.099c0.022-0.021,0.043-0.043,0.063-0.065
				c0.004-0.004,0.009-0.008,0.012-0.013c8.086-8.106,14.235-17.891,18.03-28.589c0.07-0.162,0.128-0.329,0.174-0.498
				c0.677-1.947,1.284-3.921,1.802-5.923C287.164,242.357,287.107,228.795,283.684,215.982z M145.18,279.918
				c2.01-2.874,4.279-5.578,6.783-8.083c9.797-9.798,22.734-15.854,36.393-17.229l-25.594,29.789L145.18,279.918z M162.094,304.857
				l3.488-9.469l4.832,4.83l-7.305,11.691C161.623,309.905,161.217,307.244,162.094,304.857z M168.502,317.421l7.35-11.762
				l5.104,5.103l-9.558,9.556L168.502,317.421z M176.697,325.614l9.555-9.556l5.102,5.102l-11.761,7.352L176.697,325.614z
				 M192.155,334.92c-2.386,0.876-5.046,0.471-7.054-1.018l11.689-7.305l4.834,4.834L192.155,334.92z M225.179,345.054
				c-2.502,2.502-5.209,4.771-8.082,6.781l-4.477-17.583l29.79-25.596C241.036,322.313,234.979,335.254,225.179,345.054z
				 M258.547,284.912l-49.938,42.905l-39.414-39.412l30.311-35.278c0.03-0.033,0.059-0.064,0.087-0.1l12.511-14.562
				c6.816-6.794,14.945-12.071,23.826-15.532l38.149,38.15C270.62,269.966,265.342,278.094,258.547,284.912z M276.655,253.062
				l-32.705-32.705c10.812-2.748,22.176-2.854,33.024-0.319C279.511,230.886,279.402,242.251,276.655,253.062z"/>
		</g>
	</g>
</g>
<text transform="matrix(1 0 0 1 5.6846 337.8779)" fill="#999999" font-family="'Arial-BoldMT'" font-size="9.7658">*Excludes certain products</text>
<text transform="matrix(1 0 0 1 18.9814 349.5967)" fill="#999999" font-family="'Arial-BoldMT'" font-size="9.7658">Click for more details</text>
<text transform="matrix(1 0 0 1 8.5703 215.3555)" fill="#999999" font-family="'Chalkboard-Bold'" font-size="83.4872">£75</text>
<text transform="matrix(1 0 0 1 161.6816 168.7734)" fill="#999999" font-family="'Chalkboard-Bold'" font-size="25.3281">*</text>
<g>
	<path fill="#303030" d="M-362,310.121c0,2.525-2.066,4.594-4.593,4.594h-267.814c-2.526,0-4.593-2.066-4.593-4.594V-37.693
		c0-2.526,2.066-4.593,4.593-4.593h267.814c2.526,0,4.593,2.067,4.593,4.593V310.121z"/>
</g>
<text transform="matrix(1 0 0 1 -619.1157 13.2808)" fill="#999999" font-family="'Chalkboard-Bold'" font-size="37.711">Free shipping</text>
<text transform="matrix(1 0 0 1 -553.0708 58.5337)" fill="#999999" font-family="'Chalkboard-Bold'" font-size="37.711">on orders</text>
<text transform="matrix(1 0 0 1 -459.4824 103.7876)" fill="#999999" font-family="'Chalkboard-Bold'" font-size="37.711">over</text>
<g>
	<g>
		<g>
			<path fill="#999999" d="M-487.545,281.5c-1.464-1.463-3.836-1.463-5.299,0l-7.695,7.693c-1.464,1.465-1.464,3.838,0,5.299
				c0.732,0.732,1.689,1.1,2.65,1.1c0.958,0,1.916-0.367,2.647-1.1l7.695-7.693C-486.082,285.334-486.082,282.965-487.545,281.5z"/>
		</g>
	</g>
	<g>
		<g>
			<path fill="#999999" d="M-476.66,292.385c-1.463-1.461-3.837-1.461-5.299,0l-25.65,25.65c-1.463,1.463-1.463,3.836,0,5.297
				c0.731,0.732,1.689,1.1,2.648,1.1c0.96,0,1.918-0.365,2.65-1.1l25.649-25.65C-475.197,296.221-475.197,293.846-476.66,292.385z"
				/>
		</g>
	</g>
	<g>
		<g>
			<path fill="#999999" d="M-465.775,303.27c-1.464-1.463-3.835-1.465-5.299,0l-12.824,12.824c-1.465,1.465-1.465,3.836,0,5.301
				c0.73,0.73,1.689,1.098,2.648,1.098s1.918-0.367,2.648-1.098l12.826-12.826C-464.312,307.105-464.312,304.732-465.775,303.27z"/>
		</g>
	</g>
	<g>
		<g>
			<path fill="#999999" d="M-395.119,210.846c-4.363-4.363-10.165-6.766-16.336-6.766s-11.973,2.402-16.336,6.766
				s-6.766,10.164-6.766,16.336s2.401,11.973,6.766,16.336s10.164,6.768,16.336,6.768c6.171,0,11.973-2.404,16.336-6.768
				C-386.113,234.51-386.113,219.855-395.119,210.846z M-400.418,238.219c-2.948,2.947-6.867,4.572-11.037,4.572
				s-8.09-1.625-11.038-4.572s-4.571-6.865-4.571-11.037c0-4.17,1.623-8.09,4.571-11.037s6.868-4.572,11.038-4.572
				c4.169,0,8.089,1.625,11.037,4.572C-394.332,222.232-394.332,232.133-400.418,238.219z"/>
		</g>
	</g>
	<g>
		<g>
			<path fill="#999999" d="M-355.316,173.697c-0.348-1.295-1.356-2.306-2.651-2.651c-12.812-3.425-26.377-3.479-39.224-0.163
				c-2.003,0.518-3.976,1.124-5.924,1.8c-0.169,0.048-0.336,0.104-0.497,0.175c-10.696,3.797-20.48,9.946-28.59,18.032
				c-0.005,0.004-0.009,0.008-0.013,0.014c-0.021,0.02-0.044,0.041-0.064,0.061c-0.033,0.035-0.063,0.074-0.096,0.107
				s-0.066,0.064-0.096,0.1l-11.478,13.357c-18.054-0.199-35.598,6.934-48.389,19.725c-4.16,4.16-7.748,8.82-10.666,13.855
				c-0.59,1.016-0.668,2.25-0.213,3.332c0.455,1.084,1.391,1.889,2.528,2.176l20.824,5.303l-4.074,11.066
				c-2.014,5.465-0.651,11.656,3.467,15.773l20.439,20.439c2.854,2.855,6.704,4.385,10.619,4.385c1.732,0,3.479-0.299,5.156-0.918
				l11.066-4.074l5.302,20.824c0.29,1.139,1.097,2.076,2.179,2.531c0.466,0.195,0.961,0.293,1.453,0.293
				c0.65,0,1.3-0.172,1.878-0.506c5.033-2.92,9.695-6.508,13.854-10.668c12.793-12.793,19.922-30.34,19.726-48.393l13.354-11.473
				c0.034-0.031,0.064-0.064,0.1-0.096c0.035-0.033,0.074-0.062,0.107-0.1c0.022-0.02,0.043-0.043,0.063-0.064
				c0.004-0.004,0.009-0.008,0.012-0.014c8.086-8.105,14.235-17.891,18.03-28.588c0.07-0.162,0.128-0.33,0.174-0.498
				c0.677-1.947,1.284-3.922,1.802-5.924C-351.836,200.072-351.893,186.51-355.316,173.697z M-493.82,237.633
				c2.01-2.875,4.279-5.578,6.783-8.084c9.797-9.797,22.734-15.854,36.393-17.229l-25.594,29.789L-493.82,237.633z
				 M-476.906,262.572l3.488-9.469l4.832,4.83l-7.305,11.691C-477.377,267.619-477.783,264.959-476.906,262.572z M-470.498,275.135
				l7.35-11.762l5.104,5.104l-9.558,9.555L-470.498,275.135z M-462.303,283.328l9.555-9.555l5.102,5.102l-11.761,7.352
				L-462.303,283.328z M-446.845,292.635c-2.386,0.875-5.046,0.471-7.054-1.018l11.689-7.305l4.834,4.834L-446.845,292.635z
				 M-413.821,302.768c-2.502,2.502-5.209,4.771-8.082,6.781l-4.477-17.582l29.79-25.596
				C-397.964,280.027-404.021,292.969-413.821,302.768z M-380.453,242.627l-49.938,42.904l-39.414-39.412l30.311-35.277
				c0.03-0.033,0.059-0.064,0.087-0.1l12.511-14.562c6.816-6.793,14.945-12.07,23.826-15.531l38.149,38.15
				C-368.38,227.68-373.658,235.809-380.453,242.627z M-362.345,210.777l-32.705-32.706c10.812-2.748,22.176-2.854,33.024-0.319
				C-359.489,188.6-359.598,199.965-362.345,210.777z"/>
		</g>
	</g>
</g>
<text transform="matrix(1 0 0 1 -633.3154 295.5918)" fill="#999999" font-family="'Arial-BoldMT'" font-size="9.7658">*Excludes certain products</text>
<text transform="matrix(1 0 0 1 -620.0186 307.3105)" fill="#999999" font-family="'Arial-BoldMT'" font-size="9.7658">Click for more details</text>
<text transform="matrix(1 0 0 1 -630.4297 173.0698)" fill="#999999" font-family="'Chalkboard-Bold'" font-size="83.4872">£75</text>
<text transform="matrix(1 0 0 1 -477.3184 126.4878)" fill="#999999" font-family="'Chalkboard-Bold'" font-size="25.3281">*</text>
</svg>
