<?xml version="1.0" encoding="utf-8"?>
<!-- Generator: Adobe Illustrator 16.0.0, SVG Export Plug-In . SVG Version: 6.00 Build 0)  -->
<!DOCTYPE svg PUBLIC "-//W3C//DTD SVG 1.1//EN" "http://www.w3.org/Graphics/SVG/1.1/DTD/svg11.dtd">
<svg version="1.1" id="Layer_1" xmlns="http://www.w3.org/2000/svg" xmlns:xlink="http://www.w3.org/1999/xlink" x="0px" y="0px"
	 width="280px" height="350px" viewBox="0 0 280 350" enable-background="new 0 0 280 350" xml:space="preserve">
<g>
	<defs>
		<path id="SVGID_1_" d="M280,345.499c0,2.476-2.088,4.501-4.642,4.501H4.642C2.089,350,0,347.974,0,345.499V4.503
			C0,2.026,2.089,0,4.642,0h270.716C277.912,0,280,2.026,280,4.503V345.499z"/>
	</defs>
	<clipPath id="SVGID_2_">
		<use xlink:href="#SVGID_1_"  overflow="visible"/>
	</clipPath>
	<g clip-path="url(#SVGID_2_)">
		<path fill="#303030" d="M280,345.499c0,2.476-2.088,4.501-4.642,4.501H4.642C2.089,350,0,347.974,0,345.499V4.503
			C0,2.026,2.089,0,4.642,0h270.716C277.912,0,280,2.026,280,4.503V345.499z"/>
	</g>
	<g clip-path="url(#SVGID_2_)" enable-background="new    ">
		<path fill="#999999" d="M27.76,52.691c-0.361,0.444-0.778,0.75-1.25,0.917c-0.473,0.166-0.958,0.166-1.458,0
			c-0.5-0.167-0.917-0.542-1.25-1.125c-0.14-0.223-0.25-0.459-0.333-0.709s-0.125-0.5-0.125-0.75V41.19
			c-0.361-0.222-0.632-0.514-0.812-0.875c-0.181-0.36-0.271-0.743-0.271-1.146s0.097-0.785,0.292-1.146
			c0.194-0.36,0.458-0.666,0.792-0.916c-0.028-0.527-0.035-0.973-0.021-1.334c0.014-0.36,0.021-0.708,0.021-1.042
			c0-0.333,0-0.673,0-1.021c0-0.347-0.028-0.757-0.083-1.229c-0.028-0.389-0.118-0.771-0.271-1.146
			c-0.153-0.375-0.285-0.75-0.396-1.125c-0.111-0.375-0.153-0.757-0.125-1.146c0.027-0.389,0.194-0.764,0.5-1.125
			c0.417-0.5,0.923-0.798,1.521-0.896c0.597-0.097,1.201-0.173,1.812-0.229c1.277-0.083,2.548-0.125,3.813-0.125
			c1.264,0,2.535-0.027,3.812-0.083c0.361,0,0.75-0.035,1.167-0.104c0.417-0.069,0.833-0.125,1.25-0.167
			c0.417-0.041,0.833-0.041,1.25,0c0.417,0.042,0.792,0.16,1.125,0.354c0.417,0.25,0.722,0.57,0.917,0.959
			c0.194,0.389,0.284,0.791,0.271,1.208c-0.014,0.417-0.132,0.819-0.354,1.208c-0.223,0.39-0.542,0.695-0.958,0.917
			c-0.723,0.39-1.514,0.591-2.375,0.604c-0.861,0.015-1.681,0.035-2.458,0.062c-0.917,0.028-1.833,0.035-2.75,0.021
			c-0.917-0.014-1.833,0.008-2.75,0.062c0.055,0.528,0.097,1.153,0.125,1.875c0.027,0.723,0.042,1.778,0.042,3.167
			c0.889,0,1.792-0.014,2.708-0.041c0.917-0.027,1.819-0.111,2.708-0.25c0.472-0.056,0.972-0.16,1.5-0.312
			c0.527-0.152,1.027-0.201,1.5-0.146c0.555,0.057,1.042,0.265,1.458,0.625c0.417,0.361,0.701,0.771,0.854,1.229
			c0.152,0.458,0.146,0.931-0.021,1.417c-0.167,0.486-0.542,0.896-1.125,1.229c-0.694,0.39-1.438,0.675-2.229,0.854
			c-0.792,0.182-1.604,0.307-2.438,0.375c-0.833,0.07-1.667,0.098-2.5,0.084s-1.64-0.021-2.417-0.021v9.293
			C28.343,51.72,28.121,52.247,27.76,52.691z"/>
		<path fill="#999999" d="M43.261,39.211c0.027-0.18,0.014-0.506-0.042-0.979c-0.444-0.25-0.792-0.569-1.042-0.959
			c-0.25-0.389-0.396-0.805-0.438-1.25c-0.042-0.444,0.042-0.868,0.25-1.271s0.548-0.743,1.021-1.021
			c0.639-0.36,1.34-0.43,2.104-0.208c0.764,0.223,1.423,0.556,1.979,1c0.694-0.527,1.417-0.972,2.167-1.333s1.514-0.604,2.292-0.729
			c0.777-0.125,1.569-0.104,2.375,0.062c0.805,0.167,1.597,0.515,2.375,1.042c0.389,0.25,0.75,0.562,1.083,0.938
			s0.542,0.799,0.625,1.271c0.139,0.695,0.083,1.299-0.167,1.812c-0.25,0.515-0.598,0.89-1.042,1.125
			c-0.445,0.236-0.945,0.307-1.5,0.209c-0.556-0.098-1.083-0.396-1.583-0.896c-0.167-0.11-0.285-0.201-0.354-0.271
			c-0.07-0.069-0.216-0.159-0.438-0.271c-0.445-0.111-0.882-0.084-1.313,0.083s-0.848,0.396-1.25,0.688
			c-0.403,0.292-0.778,0.611-1.125,0.958c-0.348,0.348-0.66,0.66-0.938,0.938v10.626c0,0.417-0.083,0.82-0.25,1.209
			c-0.25,0.639-0.646,1.083-1.188,1.333c-0.542,0.25-1.083,0.319-1.625,0.208c-0.542-0.111-1.014-0.389-1.417-0.833
			c-0.403-0.444-0.604-1.014-0.604-1.708V39.315C43.219,39.427,43.233,39.393,43.261,39.211z"/>
		<path fill="#999999" d="M73.638,46.482c0.667-0.166,1.256-0.173,1.771-0.021c0.514,0.153,0.91,0.41,1.188,0.771
			c0.277,0.361,0.402,0.807,0.375,1.334c-0.028,0.527-0.264,1.083-0.708,1.667c-0.361,0.473-0.861,0.875-1.5,1.208
			c-0.639,0.333-1.236,0.598-1.792,0.792c-1.361,0.5-2.653,0.847-3.875,1.041c-1.223,0.194-2.369,0.194-3.438,0
			c-1.07-0.194-2.07-0.598-3-1.208c-0.931-0.61-1.799-1.472-2.604-2.584c-0.556-0.75-0.965-1.604-1.229-2.562
			c-0.265-0.958-0.41-1.938-0.438-2.938c-0.028-1,0.055-1.985,0.25-2.958c0.194-0.973,0.472-1.848,0.833-2.626
			c0.472-0.972,1.222-1.86,2.25-2.667c1.027-0.805,2.167-1.443,3.417-1.916c1.25-0.473,2.527-0.743,3.833-0.812
			c1.305-0.069,2.458,0.132,3.458,0.604c0.833,0.39,1.548,0.952,2.146,1.688c0.597,0.737,1.006,1.536,1.229,2.396
			c0.222,0.861,0.243,1.729,0.062,2.604s-0.632,1.674-1.354,2.396c-0.695,0.695-1.458,1.258-2.292,1.688
			c-0.833,0.432-1.695,0.807-2.583,1.126c-0.889,0.319-1.799,0.59-2.729,0.812s-1.827,0.473-2.688,0.75
			c0.583,0.666,1.25,1.09,2,1.271s1.535,0.216,2.354,0.104c0.819-0.111,1.646-0.34,2.479-0.688s1.611-0.729,2.333-1.146
			L73.638,46.482z M65.22,39.315c-0.639,0.361-1.111,0.812-1.417,1.354c-0.306,0.542-0.528,1.299-0.667,2.271
			c0.722-0.222,1.535-0.458,2.438-0.708c0.902-0.25,1.756-0.514,2.562-0.792c0.805-0.277,1.486-0.583,2.042-0.917
			c0.555-0.333,0.833-0.693,0.833-1.083c0-0.222-0.035-0.438-0.104-0.646c-0.07-0.209-0.215-0.354-0.438-0.438
			c-0.778-0.277-1.583-0.334-2.417-0.167c-0.833,0.167-1.528,0.403-2.083,0.708L65.22,39.315z"/>
		<path fill="#999999" d="M94.306,46.482c0.667-0.166,1.256-0.173,1.771-0.021c0.514,0.153,0.91,0.41,1.188,0.771
			c0.277,0.361,0.402,0.807,0.375,1.334c-0.028,0.527-0.264,1.083-0.708,1.667c-0.361,0.473-0.861,0.875-1.5,1.208
			c-0.639,0.333-1.236,0.598-1.792,0.792c-1.361,0.5-2.653,0.847-3.875,1.041c-1.223,0.194-2.369,0.194-3.438,0
			c-1.07-0.194-2.07-0.598-3-1.208c-0.931-0.61-1.799-1.472-2.604-2.584c-0.556-0.75-0.965-1.604-1.229-2.562
			c-0.265-0.958-0.41-1.938-0.438-2.938c-0.028-1,0.055-1.985,0.25-2.958c0.194-0.973,0.472-1.848,0.833-2.626
			c0.472-0.972,1.222-1.86,2.25-2.667c1.027-0.805,2.167-1.443,3.417-1.916c1.25-0.473,2.527-0.743,3.833-0.812
			c1.305-0.069,2.458,0.132,3.458,0.604c0.833,0.39,1.548,0.952,2.146,1.688c0.597,0.737,1.006,1.536,1.229,2.396
			c0.222,0.861,0.243,1.729,0.062,2.604s-0.632,1.674-1.354,2.396c-0.695,0.695-1.458,1.258-2.292,1.688
			c-0.833,0.432-1.695,0.807-2.583,1.126c-0.889,0.319-1.799,0.59-2.729,0.812s-1.827,0.473-2.688,0.75
			c0.583,0.666,1.25,1.09,2,1.271s1.535,0.216,2.354,0.104c0.819-0.111,1.646-0.34,2.479-0.688s1.611-0.729,2.333-1.146
			L94.306,46.482z M85.889,39.315c-0.639,0.361-1.111,0.812-1.417,1.354c-0.306,0.542-0.528,1.299-0.667,2.271
			c0.722-0.222,1.535-0.458,2.438-0.708c0.902-0.25,1.756-0.514,2.562-0.792c0.805-0.277,1.486-0.583,2.042-0.917
			c0.555-0.333,0.833-0.693,0.833-1.083c0-0.222-0.035-0.438-0.104-0.646c-0.07-0.209-0.215-0.354-0.438-0.438
			c-0.778-0.277-1.583-0.334-2.417-0.167c-0.833,0.167-1.528,0.403-2.083,0.708L85.889,39.315z"/>
		<path fill="#999999" d="M114.557,49.274c-0.167-0.472-0.236-0.938-0.208-1.396c0.027-0.459,0.146-0.875,0.354-1.25
			s0.506-0.667,0.896-0.875c0.389-0.209,0.86-0.285,1.417-0.229c0.306,0.028,0.583,0.111,0.833,0.25
			c0.25,0.14,0.479,0.306,0.688,0.5s0.417,0.403,0.625,0.625c0.208,0.223,0.423,0.417,0.646,0.583
			c0.472,0.361,0.972,0.625,1.5,0.792c0.527,0.167,1.083,0.292,1.667,0.375c0.389,0,0.701-0.097,0.938-0.292
			c0.236-0.193,0.396-0.43,0.479-0.708c0.083-0.277,0.104-0.576,0.062-0.896c-0.042-0.319-0.146-0.576-0.312-0.771
			c-0.473-0.472-1.049-0.777-1.729-0.917c-0.681-0.139-1.313-0.305-1.896-0.5c-0.833-0.277-1.653-0.631-2.458-1.062
			c-0.806-0.43-1.458-1.021-1.958-1.771c-0.528-0.777-0.841-1.604-0.938-2.479c-0.098-0.875-0.028-1.729,0.208-2.562
			c0.236-0.834,0.632-1.598,1.188-2.292s1.222-1.264,2-1.708c0.583-0.334,1.222-0.549,1.917-0.646
			c0.694-0.097,1.396-0.117,2.104-0.062c0.708,0.057,1.41,0.188,2.104,0.396c0.694,0.208,1.333,0.438,1.917,0.688
			c0.667,0.306,1.167,0.736,1.5,1.291c0.333,0.557,0.493,1.119,0.479,1.688c-0.015,0.569-0.208,1.062-0.583,1.479
			c-0.375,0.417-0.924,0.625-1.646,0.625c-0.445,0-0.848-0.076-1.208-0.229c-0.361-0.152-0.736-0.299-1.125-0.438
			c-0.5-0.194-1.042-0.326-1.625-0.396c-0.583-0.068-1.056-0.034-1.417,0.104c-0.111,0.028-0.236,0.118-0.375,0.271
			c-0.139,0.153-0.243,0.341-0.312,0.562c-0.069,0.223-0.083,0.445-0.042,0.667c0.042,0.223,0.188,0.403,0.438,0.542
			c0.667,0.361,1.375,0.639,2.125,0.833s1.486,0.417,2.208,0.667c0.722,0.25,1.396,0.569,2.021,0.958
			c0.625,0.39,1.146,0.945,1.562,1.667c0.611,1.056,0.923,2.16,0.938,3.312c0.014,1.153-0.216,2.229-0.688,3.229
			c-0.473,1-1.167,1.854-2.083,2.562c-0.917,0.709-1.987,1.132-3.209,1.271c-0.861,0.083-1.708,0.034-2.542-0.146
			s-1.64-0.473-2.417-0.875c-0.778-0.402-1.5-0.881-2.167-1.438c-0.667-0.555-1.25-1.139-1.75-1.75L114.557,49.274z"/>
		<path fill="#999999" d="M137.017,52.921c-0.556,0.402-1.132,0.59-1.729,0.562c-0.598-0.028-1.125-0.271-1.583-0.729
			c-0.458-0.458-0.688-1.09-0.688-1.896V27.689c0-0.639,0.25-1.181,0.75-1.625c0.5-0.444,1.056-0.722,1.667-0.833
			c0.611-0.111,1.181-0.014,1.708,0.291c0.527,0.307,0.819,0.875,0.875,1.709c0.111,1.444,0.16,2.854,0.146,4.229
			c-0.015,1.375-0.035,2.757-0.062,4.146c1.027-0.693,2.097-1.159,3.208-1.396c1.111-0.235,2.181-0.229,3.208,0.021
			c1.027,0.25,1.986,0.75,2.875,1.5c0.889,0.751,1.61,1.792,2.166,3.126c0.389,0.889,0.652,1.841,0.793,2.854
			c0.139,1.014,0.215,2.041,0.229,3.083s0,2.077-0.041,3.104c-0.043,1.028-0.062,2-0.062,2.917c0,0.583-0.154,1.111-0.459,1.583
			c-0.307,0.473-0.688,0.819-1.146,1.042c-0.458,0.222-0.944,0.292-1.458,0.208c-0.515-0.083-0.979-0.389-1.396-0.916
			c-0.417-0.557-0.674-1.209-0.771-1.959c-0.098-0.75-0.125-1.548-0.083-2.396c0.042-0.848,0.104-1.715,0.188-2.604
			c0.083-0.889,0.104-1.743,0.062-2.562c-0.042-0.819-0.202-1.576-0.479-2.271c-0.278-0.694-0.764-1.264-1.458-1.708
			c-0.556-0.084-1.056-0.049-1.5,0.104c-0.444,0.153-0.848,0.383-1.208,0.688c-0.361,0.307-0.702,0.653-1.021,1.042
			c-0.32,0.39-0.646,0.778-0.979,1.167c-0.083,0.14-0.181,0.271-0.292,0.396c-0.111,0.125-0.236,0.258-0.375,0.396v7.917
			C137.933,51.858,137.572,52.518,137.017,52.921z"/>
		<path fill="#999999" d="M154.726,27.189c0.11-1.027,0.465-1.784,1.062-2.271c0.597-0.486,1.229-0.723,1.896-0.709
			c0.668,0.015,1.285,0.271,1.855,0.771c0.568,0.5,0.867,1.208,0.896,2.125c0.056,0.944-0.188,1.674-0.729,2.188
			c-0.541,0.515-1.16,0.806-1.854,0.875c-0.695,0.069-1.348-0.118-1.959-0.562s-0.986-1.152-1.125-2.125L154.726,27.189z
			 M160.227,50.899c-0.057,0.557-0.25,1.049-0.584,1.479c-0.333,0.431-0.715,0.743-1.146,0.938s-0.896,0.235-1.396,0.125
			c-0.5-0.111-0.945-0.417-1.334-0.917c-0.223-0.277-0.383-0.59-0.479-0.938c-0.098-0.347-0.16-0.708-0.188-1.083
			c-0.028-0.375-0.035-0.75-0.021-1.125c0.014-0.375,0.021-0.715,0.021-1.021c-0.028-1.639-0.035-3.264-0.021-4.875
			c0.014-1.61,0.006-3.236-0.021-4.875c0-0.667-0.041-1.34-0.125-2.021c-0.083-0.681-0.041-1.354,0.125-2.021
			c0.139-0.5,0.382-0.931,0.729-1.292c0.347-0.36,0.735-0.61,1.167-0.75c0.43-0.139,0.875-0.152,1.334-0.042
			c0.458,0.111,0.854,0.403,1.188,0.875c0.443,0.557,0.666,1.104,0.666,1.646c0,0.541,0,1.202,0,1.979c0,0.944,0,1.889,0,2.833
			c0,0.945,0.014,1.875,0.042,2.792c0.027,1.333,0.042,2.667,0.042,4c0,1.334,0,2.667,0,4.001V50.899z"/>
		<path fill="#999999" d="M164.311,34.94c0.193-0.667,0.506-1.174,0.938-1.521c0.43-0.347,0.889-0.548,1.375-0.604
			c0.485-0.056,0.951,0.027,1.396,0.25s0.792,0.569,1.042,1.041c0.305-0.166,0.61-0.318,0.916-0.458
			c0.307-0.139,0.652-0.264,1.043-0.375c1.777-0.472,3.354-0.438,4.729,0.104c1.375,0.541,2.521,1.375,3.438,2.5
			c0.918,1.125,1.57,2.444,1.959,3.958c0.389,1.515,0.479,3.028,0.271,4.542c-0.209,1.515-0.744,2.932-1.605,4.251
			s-2.098,2.341-3.708,3.062c-1.056,0.472-2.16,0.771-3.312,0.896c-1.153,0.125-2.3,0.146-3.438,0.062
			c0,0.027,0.007,0.25,0.021,0.667c0.014,0.417,0.021,0.944,0.021,1.584c0,0.639,0,1.333,0,2.083s-0.021,1.472-0.062,2.167
			c-0.042,0.694-0.098,1.312-0.167,1.854c-0.069,0.541-0.174,0.909-0.312,1.104c-0.361,0.527-0.806,0.861-1.333,1
			c-0.528,0.139-1.028,0.118-1.5-0.062c-0.473-0.181-0.882-0.486-1.229-0.916c-0.348-0.432-0.521-0.952-0.521-1.562V35.19
			L164.311,34.94z M169.644,40.357c-0.083,0.139-0.125,0.202-0.125,0.188c0-0.014-0.056,0.035-0.167,0.146v6.876
			c0.556,0.083,1.111,0.125,1.668,0.125c0.555,0,1.139-0.084,1.75-0.25c1.25-0.306,2.235-0.91,2.958-1.812
			c0.722-0.903,1-2.021,0.833-3.354c-0.083-0.556-0.243-1.132-0.479-1.729c-0.236-0.598-0.549-1.104-0.938-1.521
			c-0.39-0.416-0.848-0.708-1.375-0.875c-0.528-0.166-1.125-0.11-1.793,0.167c-0.473,0.194-0.895,0.486-1.27,0.875
			C170.332,39.58,169.977,39.969,169.644,40.357z"/>
		<path fill="#999999" d="M185.061,34.94c0.194-0.667,0.507-1.174,0.938-1.521c0.432-0.347,0.889-0.548,1.375-0.604
			s0.951,0.027,1.396,0.25c0.444,0.223,0.792,0.569,1.042,1.041c0.306-0.166,0.61-0.318,0.917-0.458
			c0.305-0.139,0.652-0.264,1.041-0.375c1.777-0.472,3.354-0.438,4.73,0.104c1.375,0.541,2.521,1.375,3.438,2.5
			c0.916,1.125,1.568,2.444,1.958,3.958c0.389,1.515,0.479,3.028,0.271,4.542c-0.208,1.515-0.743,2.932-1.604,4.251
			c-0.861,1.319-2.098,2.341-3.709,3.062c-1.057,0.472-2.16,0.771-3.312,0.896c-1.153,0.125-2.299,0.146-3.438,0.062
			c0,0.027,0.006,0.25,0.021,0.667c0.014,0.417,0.021,0.944,0.021,1.584c0,0.639,0,1.333,0,2.083s-0.021,1.472-0.062,2.167
			c-0.041,0.694-0.098,1.312-0.166,1.854c-0.07,0.541-0.174,0.909-0.312,1.104c-0.361,0.527-0.807,0.861-1.334,1
			s-1.027,0.118-1.5-0.062s-0.883-0.486-1.229-0.916c-0.348-0.432-0.521-0.952-0.521-1.562V35.19L185.061,34.94z M190.395,40.357
			c-0.083,0.139-0.125,0.202-0.125,0.188c0-0.014-0.056,0.035-0.166,0.146v6.876c0.555,0.083,1.11,0.125,1.666,0.125
			s1.139-0.084,1.75-0.25c1.25-0.306,2.236-0.91,2.959-1.812c0.723-0.903,1-2.021,0.834-3.354c-0.084-0.556-0.244-1.132-0.48-1.729
			s-0.549-1.104-0.938-1.521c-0.389-0.416-0.848-0.708-1.375-0.875c-0.527-0.166-1.125-0.11-1.791,0.167
			c-0.473,0.194-0.896,0.486-1.271,0.875C191.082,39.58,190.729,39.969,190.395,40.357z"/>
		<path fill="#999999" d="M205.604,27.189c0.11-1.027,0.465-1.784,1.062-2.271c0.597-0.486,1.229-0.723,1.896-0.709
			c0.667,0.015,1.284,0.271,1.854,0.771c0.568,0.5,0.867,1.208,0.896,2.125c0.055,0.944-0.188,1.674-0.73,2.188
			c-0.541,0.515-1.16,0.806-1.854,0.875c-0.695,0.069-1.348-0.118-1.959-0.562s-0.986-1.152-1.125-2.125L205.604,27.189z
			 M211.104,50.899c-0.057,0.557-0.25,1.049-0.584,1.479c-0.332,0.431-0.715,0.743-1.145,0.938
			c-0.432,0.194-0.896,0.235-1.396,0.125c-0.5-0.111-0.945-0.417-1.334-0.917c-0.223-0.277-0.382-0.59-0.479-0.938
			c-0.098-0.347-0.16-0.708-0.188-1.083c-0.028-0.375-0.035-0.75-0.021-1.125s0.021-0.715,0.021-1.021
			c-0.028-1.639-0.035-3.264-0.021-4.875c0.014-1.61,0.007-3.236-0.021-4.875c0-0.667-0.042-1.34-0.125-2.021
			c-0.083-0.681-0.042-1.354,0.125-2.021c0.139-0.5,0.382-0.931,0.729-1.292c0.347-0.36,0.735-0.61,1.166-0.75
			c0.431-0.139,0.875-0.152,1.334-0.042c0.459,0.111,0.854,0.403,1.188,0.875c0.443,0.557,0.666,1.104,0.666,1.646
			c0,0.541,0,1.202,0,1.979c0,0.944,0,1.889,0,2.833c0,0.945,0.014,1.875,0.043,2.792c0.027,1.333,0.041,2.667,0.041,4
			c0,1.334,0,2.667,0,4.001V50.899z"/>
		<path fill="#999999" d="M232.355,50.983c-0.084,0.694-0.341,1.264-0.771,1.708s-0.916,0.722-1.458,0.833s-1.062,0.042-1.562-0.208
			s-0.861-0.736-1.083-1.458c-0.25-0.777-0.348-1.59-0.292-2.438c0.056-0.847,0.083-1.631,0.083-2.354
			c0-1.5,0.007-2.993,0.021-4.479c0.014-1.486-0.049-2.979-0.188-4.479c-0.028-0.056-0.057-0.104-0.084-0.146
			c-0.027-0.041-0.083-0.104-0.166-0.188c-0.641-0.166-1.32-0.125-2.043,0.125s-1.333,0.57-1.833,0.959
			c-0.444,0.361-0.882,0.854-1.312,1.479c-0.431,0.626-0.646,1.229-0.646,1.813v5.75c0,0.444,0.014,0.931,0.041,1.458
			c0.027,0.528,0.007,1.042-0.062,1.542s-0.229,0.959-0.479,1.375c-0.25,0.417-0.653,0.723-1.209,0.917
			c-0.306,0.11-0.59,0.152-0.854,0.125c-0.265-0.028-0.549-0.098-0.854-0.208c-0.501-0.167-0.862-0.452-1.083-0.854
			c-0.223-0.402-0.375-0.833-0.459-1.292c-0.084-0.458-0.119-0.902-0.104-1.333c0.014-0.431,0.02-0.771,0.02-1.021
			c0-0.639-0.006-1.562-0.02-2.771c-0.016-1.209-0.021-2.479-0.021-3.812c0-1.334,0-2.604,0-3.813c0-1.208,0-2.131,0-2.771
			c0-0.611,0.18-1.118,0.541-1.521c0.361-0.402,0.785-0.666,1.271-0.791s1-0.098,1.542,0.083s0.993,0.549,1.354,1.104
			c1.11-0.723,2.333-1.209,3.666-1.459c1.334-0.25,2.591-0.208,3.771,0.125c1.181,0.334,2.167,0.959,2.959,1.875
			c0.791,0.917,1.201,2.182,1.229,3.792c0,0.057,0.014,0.223,0.042,0.5c0.027,0.278,0.042,0.667,0.042,1.167V50.983z"/>
		<path fill="#999999" d="M237.605,60.775c-0.473-0.583-0.723-1.188-0.75-1.812c-0.028-0.625,0.11-1.16,0.416-1.604
			s0.743-0.75,1.312-0.917c0.569-0.166,1.201-0.083,1.896,0.25c0.305,0.223,0.583,0.389,0.833,0.5s0.597,0.277,1.042,0.5
			c0.416,0.194,0.889,0.34,1.416,0.438s1.027,0.118,1.501,0.062c0.944-0.056,1.673-0.215,2.188-0.479
			c0.514-0.265,0.882-0.611,1.104-1.042c0.222-0.431,0.354-0.958,0.396-1.583s0.062-1.327,0.062-2.104
			c-0.89,0.305-1.778,0.534-2.667,0.688c-0.889,0.152-1.807,0.173-2.75,0.062c-1.834-0.223-3.341-0.875-4.521-1.959
			c-1.181-1.083-2.041-2.375-2.583-3.875s-0.765-3.104-0.667-4.812c0.098-1.709,0.493-3.285,1.188-4.729
			c0.417-0.834,0.986-1.604,1.709-2.312c0.722-0.709,1.534-1.292,2.438-1.751c0.902-0.458,1.848-0.756,2.834-0.896
			c0.985-0.139,1.938-0.056,2.854,0.25c0.527,0.194,1.042,0.39,1.542,0.583c0.5,0.195,0.985,0.445,1.458,0.75
			c0.527-0.472,1.146-0.708,1.854-0.708s1.313,0.333,1.813,1c0.109,0.167,0.234,0.354,0.375,0.562
			c0.139,0.209,0.208,0.41,0.208,0.604c0.027,2.973,0.034,5.938,0.021,8.896c-0.014,2.958-0.021,5.924-0.021,8.896
			c0,1.194-0.161,2.306-0.479,3.333c-0.32,1.027-0.799,1.938-1.438,2.729c-0.64,0.792-1.432,1.438-2.375,1.938
			c-0.945,0.5-2.042,0.819-3.292,0.959c-0.64,0.055-1.265,0.083-1.876,0.083s-1.236-0.069-1.875-0.208
			c-0.889-0.167-1.743-0.445-2.562-0.834s-1.632-0.819-2.438-1.291L237.605,60.775z M242.521,48.066
			c1.223,0.583,2.348,0.771,3.376,0.562c1.027-0.209,2.069-0.674,3.125-1.396v-6.625c-0.806-0.806-1.591-1.368-2.354-1.688
			s-1.674-0.41-2.729-0.271c-0.195,0.111-0.383,0.209-0.562,0.292c-0.182,0.083-0.369,0.167-0.562,0.25
			c-0.584,0.667-1.029,1.312-1.334,1.938c-0.307,0.625-0.486,1.265-0.542,1.917c-0.056,0.653-0.007,1.319,0.146,2
			c0.152,0.682,0.382,1.424,0.688,2.229c0.084,0.14,0.209,0.278,0.375,0.417C242.313,47.83,242.438,47.955,242.521,48.066z"/>
	</g>
	<g clip-path="url(#SVGID_2_)" enable-background="new    ">
		<path fill="#999999" d="M88.596,87.36c0.194-0.806,0.465-1.598,0.812-2.375c0.347-0.777,0.771-1.521,1.271-2.229
			c0.5-0.708,1.063-1.354,1.688-1.938c0.625-0.584,1.298-1.056,2.021-1.417c1.277-0.667,2.562-1.007,3.854-1.021
			c1.292-0.014,2.493,0.243,3.604,0.771c1.111,0.528,2.056,1.312,2.833,2.354s1.292,2.285,1.542,3.729
			c0.139,0.944,0.215,1.841,0.229,2.688c0.014,0.848-0.077,1.729-0.271,2.646c-0.278,1.306-0.841,2.604-1.688,3.896
			c-0.848,1.292-1.861,2.375-3.042,3.25c-1.181,0.875-2.473,1.451-3.875,1.729c-1.403,0.277-2.812,0.056-4.229-0.667
			c-0.639-0.306-1.215-0.66-1.729-1.062c-0.515-0.402-0.979-0.881-1.396-1.438c-0.473-0.61-0.841-1.25-1.104-1.917
			c-0.264-0.666-0.479-1.36-0.646-2.083c-0.194-0.777-0.264-1.562-0.208-2.354c0.055-0.792,0.152-1.562,0.292-2.312L88.596,87.36z
			 M93.596,88.235c-0.083,0.444-0.153,0.882-0.208,1.312c-0.056,0.431-0.056,0.869,0,1.312c0.083,0.64,0.256,1.223,0.521,1.75
			c0.264,0.528,0.611,0.945,1.042,1.25c0.43,0.307,0.923,0.466,1.479,0.479c0.556,0.015,1.152-0.159,1.792-0.521
			c0.805-0.473,1.5-1.201,2.083-2.188s0.944-2.015,1.083-3.084c0.139-1.069,0.027-2.083-0.333-3.042
			c-0.361-0.958-1.07-1.646-2.125-2.062c-0.695,0-1.333,0.132-1.917,0.396c-0.583,0.265-1.09,0.611-1.521,1.042
			c-0.431,0.431-0.806,0.938-1.125,1.521C94.047,86.985,93.791,87.597,93.596,88.235z"/>
		<path fill="#999999" d="M126.098,96.236c-0.083,0.694-0.341,1.264-0.771,1.708c-0.431,0.444-0.917,0.722-1.458,0.833
			s-1.062,0.042-1.562-0.208s-0.861-0.736-1.083-1.458c-0.25-0.777-0.348-1.59-0.292-2.438c0.055-0.847,0.083-1.631,0.083-2.354
			c0-1.5,0.007-2.993,0.021-4.479c0.014-1.486-0.049-2.979-0.188-4.479c-0.028-0.056-0.056-0.104-0.083-0.146
			c-0.028-0.041-0.083-0.104-0.167-0.188c-0.64-0.166-1.32-0.125-2.042,0.125c-0.723,0.25-1.333,0.57-1.833,0.959
			c-0.444,0.361-0.882,0.854-1.312,1.479c-0.431,0.626-0.646,1.229-0.646,1.813v5.75c0,0.444,0.014,0.931,0.042,1.458
			c0.027,0.528,0.006,1.042-0.062,1.542c-0.07,0.5-0.229,0.959-0.479,1.375c-0.25,0.417-0.653,0.723-1.208,0.917
			c-0.306,0.11-0.59,0.152-0.854,0.125c-0.264-0.028-0.549-0.098-0.854-0.208c-0.5-0.167-0.862-0.452-1.083-0.854
			c-0.223-0.402-0.375-0.833-0.458-1.292c-0.083-0.458-0.119-0.902-0.104-1.333c0.014-0.431,0.021-0.771,0.021-1.021
			c0-0.639-0.007-1.562-0.021-2.771c-0.015-1.209-0.021-2.479-0.021-3.812c0-1.334,0-2.604,0-3.813c0-1.208,0-2.131,0-2.771
			c0-0.611,0.18-1.118,0.542-1.521c0.361-0.402,0.785-0.666,1.271-0.791c0.486-0.125,1-0.098,1.542,0.083
			c0.542,0.181,0.993,0.549,1.354,1.104c1.111-0.723,2.333-1.209,3.667-1.459s2.59-0.208,3.771,0.125
			c1.181,0.334,2.167,0.959,2.958,1.875c0.792,0.917,1.202,2.182,1.229,3.792c0,0.057,0.014,0.223,0.042,0.5
			c0.027,0.278,0.042,0.667,0.042,1.167V96.236z"/>
		<path fill="#999999" d="M144.474,87.36c0.194-0.806,0.465-1.598,0.812-2.375c0.347-0.777,0.77-1.521,1.27-2.229
			c0.501-0.708,1.063-1.354,1.688-1.938c0.625-0.584,1.298-1.056,2.021-1.417c1.277-0.667,2.562-1.007,3.855-1.021
			c1.291-0.014,2.492,0.243,3.604,0.771c1.111,0.528,2.056,1.312,2.834,2.354c0.777,1.042,1.291,2.285,1.541,3.729
			c0.139,0.944,0.215,1.841,0.229,2.688c0.014,0.848-0.077,1.729-0.271,2.646c-0.278,1.306-0.841,2.604-1.688,3.896
			c-0.848,1.292-1.861,2.375-3.042,3.25s-2.474,1.451-3.876,1.729c-1.402,0.277-2.812,0.056-4.229-0.667
			c-0.64-0.306-1.216-0.66-1.729-1.062c-0.515-0.402-0.979-0.881-1.396-1.438c-0.473-0.61-0.841-1.25-1.105-1.917
			c-0.264-0.666-0.479-1.36-0.646-2.083c-0.194-0.777-0.264-1.562-0.208-2.354c0.055-0.792,0.152-1.562,0.292-2.312L144.474,87.36z
			 M149.475,88.235c-0.084,0.444-0.153,0.882-0.209,1.312s-0.056,0.869,0,1.312c0.084,0.64,0.257,1.223,0.521,1.75
			c0.264,0.528,0.61,0.945,1.041,1.25c0.431,0.307,0.924,0.466,1.479,0.479c0.556,0.015,1.152-0.159,1.792-0.521
			c0.805-0.473,1.5-1.201,2.084-2.188c0.583-0.986,0.943-2.015,1.083-3.084c0.139-1.069,0.027-2.083-0.333-3.042
			c-0.361-0.958-1.07-1.646-2.125-2.062c-0.695,0-1.334,0.132-1.918,0.396c-0.583,0.265-1.09,0.611-1.521,1.042
			s-0.806,0.938-1.125,1.521C149.926,86.985,149.668,87.597,149.475,88.235z"/>
		<path fill="#999999" d="M166.141,84.464c0.027-0.18,0.014-0.506-0.041-0.979c-0.445-0.25-0.792-0.569-1.042-0.959
			c-0.25-0.389-0.396-0.805-0.438-1.25c-0.042-0.444,0.042-0.868,0.25-1.271s0.548-0.743,1.021-1.021
			c0.639-0.36,1.34-0.43,2.104-0.208c0.764,0.223,1.423,0.556,1.979,1c0.693-0.527,1.417-0.972,2.167-1.333s1.514-0.604,2.292-0.729
			c0.777-0.125,1.568-0.104,2.375,0.062c0.805,0.167,1.598,0.515,2.375,1.042c0.389,0.25,0.75,0.562,1.084,0.938
			c0.333,0.375,0.541,0.799,0.625,1.271c0.139,0.695,0.083,1.299-0.167,1.812c-0.25,0.515-0.599,0.89-1.042,1.125
			c-0.445,0.236-0.945,0.307-1.5,0.209c-0.557-0.098-1.084-0.396-1.584-0.896c-0.166-0.11-0.285-0.201-0.354-0.271
			c-0.07-0.069-0.216-0.159-0.438-0.271c-0.445-0.111-0.883-0.084-1.312,0.083c-0.432,0.167-0.848,0.396-1.25,0.688
			c-0.403,0.292-0.778,0.611-1.125,0.958c-0.348,0.348-0.66,0.66-0.938,0.938v10.626c0,0.417-0.084,0.82-0.25,1.209
			c-0.25,0.639-0.646,1.083-1.188,1.333c-0.543,0.25-1.084,0.319-1.626,0.208s-1.015-0.389-1.417-0.833s-0.604-1.014-0.604-1.708
			V84.568C166.1,84.68,166.113,84.646,166.141,84.464z"/>
		<path fill="#999999" d="M200.685,93.985c0.472,0.807,0.632,1.528,0.479,2.167c-0.153,0.64-0.466,1.119-0.938,1.438
			c-0.473,0.319-1.049,0.444-1.729,0.375s-1.341-0.424-1.979-1.062c-0.666,0.473-1.361,0.84-2.084,1.104
			c-0.723,0.264-1.486,0.493-2.291,0.688c-1.25,0.277-2.452,0.257-3.605-0.062c-1.152-0.319-2.174-0.841-3.062-1.562
			s-1.611-1.618-2.166-2.688c-0.557-1.069-0.861-2.229-0.917-3.479c-0.083-1.389,0.021-2.723,0.312-4
			c0.292-1.278,0.757-2.444,1.396-3.501c0.639-1.055,1.479-1.958,2.521-2.708c1.041-0.75,2.271-1.277,3.688-1.584
			c0.834-0.166,1.674-0.25,2.521-0.25c0.847,0,1.688,0.07,2.521,0.209c-0.028-0.611-0.049-1.312-0.062-2.104
			c-0.015-0.792-0.021-1.562-0.021-2.312s0.027-1.424,0.083-2.021c0.056-0.597,0.125-1.021,0.208-1.271
			c0.195-0.5,0.494-0.882,0.896-1.146c0.402-0.264,0.826-0.402,1.271-0.416c0.443-0.014,0.881,0.098,1.312,0.333
			c0.43,0.236,0.771,0.591,1.021,1.062c0.056,0.14,0.125,0.271,0.208,0.396c0.084,0.125,0.125,0.258,0.125,0.396
			c0.027,3.64,0.035,7.236,0.021,10.792c-0.015,3.557-0.021,7.153-0.021,10.793C200.504,93.735,200.602,93.875,200.685,93.985z
			 M194.893,91.694c0.055-0.084,0.159-0.167,0.312-0.25c0.152-0.084,0.229-0.194,0.229-0.334c0-1.167,0-2.312,0-3.438
			s-0.014-2.271-0.041-3.438c-0.667-0.139-1.361-0.223-2.084-0.25s-1.424,0.041-2.104,0.208c-0.682,0.167-1.307,0.444-1.875,0.833
			c-0.57,0.39-1.021,0.945-1.355,1.667c-0.166,0.528-0.318,1.057-0.457,1.584c-0.141,0.527-0.217,1.041-0.23,1.541
			s0.049,0.994,0.188,1.479c0.139,0.486,0.375,0.952,0.709,1.396c0.111,0.111,0.242,0.223,0.396,0.333
			c0.152,0.111,0.451,0.306,0.896,0.583c1.027,0.084,2.007-0.014,2.938-0.291S194.17,92.5,194.893,91.694z"/>
		<path fill="#999999" d="M220.227,91.735c0.667-0.166,1.257-0.173,1.771-0.021c0.514,0.153,0.91,0.41,1.188,0.771
			c0.277,0.361,0.402,0.807,0.375,1.334s-0.264,1.083-0.709,1.667c-0.361,0.473-0.861,0.875-1.5,1.208s-1.236,0.598-1.791,0.792
			c-1.361,0.5-2.653,0.847-3.875,1.041c-1.223,0.194-2.369,0.194-3.438,0s-2.069-0.598-3-1.208s-1.799-1.472-2.604-2.584
			c-0.557-0.75-0.965-1.604-1.229-2.562c-0.266-0.958-0.41-1.938-0.438-2.938c-0.029-1,0.055-1.985,0.25-2.958
			c0.193-0.973,0.471-1.848,0.832-2.626c0.473-0.972,1.223-1.86,2.251-2.667c1.027-0.805,2.167-1.443,3.417-1.916
			s2.527-0.743,3.834-0.812c1.305-0.069,2.458,0.132,3.458,0.604c0.833,0.39,1.548,0.952,2.146,1.688
			c0.598,0.737,1.007,1.536,1.229,2.396c0.222,0.861,0.243,1.729,0.062,2.604s-0.632,1.674-1.354,2.396
			c-0.694,0.695-1.458,1.258-2.291,1.688c-0.834,0.432-1.695,0.807-2.584,1.126s-1.799,0.59-2.729,0.812s-1.827,0.473-2.688,0.75
			c0.583,0.666,1.25,1.09,2,1.271s1.534,0.216,2.354,0.104c0.818-0.111,1.646-0.34,2.479-0.688s1.61-0.729,2.333-1.146
			L220.227,91.735z M211.81,84.568c-0.64,0.361-1.111,0.812-1.417,1.354s-0.527,1.299-0.666,2.271
			c0.722-0.222,1.534-0.458,2.438-0.708c0.902-0.25,1.756-0.514,2.562-0.792c0.805-0.277,1.486-0.583,2.042-0.917
			c0.556-0.333,0.833-0.693,0.833-1.083c0-0.222-0.035-0.438-0.104-0.646c-0.07-0.209-0.216-0.354-0.438-0.438
			c-0.778-0.277-1.584-0.334-2.418-0.167c-0.832,0.167-1.527,0.403-2.083,0.708L211.81,84.568z"/>
		<path fill="#999999" d="M227.853,84.464c0.027-0.18,0.014-0.506-0.042-0.979c-0.444-0.25-0.791-0.569-1.041-0.959
			c-0.25-0.389-0.396-0.805-0.438-1.25c-0.042-0.444,0.041-0.868,0.25-1.271c0.208-0.402,0.548-0.743,1.021-1.021
			c0.639-0.36,1.34-0.43,2.104-0.208c0.764,0.223,1.423,0.556,1.979,1c0.694-0.527,1.418-0.972,2.168-1.333s1.514-0.604,2.291-0.729
			s1.569-0.104,2.375,0.062s1.598,0.515,2.375,1.042c0.389,0.25,0.75,0.562,1.084,0.938s0.541,0.799,0.625,1.271
			c0.139,0.695,0.084,1.299-0.166,1.812c-0.25,0.515-0.599,0.89-1.043,1.125c-0.444,0.236-0.944,0.307-1.5,0.209
			s-1.083-0.396-1.583-0.896c-0.167-0.11-0.285-0.201-0.354-0.271s-0.215-0.159-0.438-0.271c-0.444-0.111-0.882-0.084-1.312,0.083
			s-0.848,0.396-1.25,0.688s-0.777,0.611-1.125,0.958c-0.348,0.348-0.66,0.66-0.938,0.938v10.626c0,0.417-0.084,0.82-0.25,1.209
			c-0.25,0.639-0.646,1.083-1.188,1.333c-0.542,0.25-1.084,0.319-1.625,0.208c-0.542-0.111-1.015-0.389-1.417-0.833
			c-0.403-0.444-0.604-1.014-0.604-1.708V84.568C227.811,84.68,227.824,84.646,227.853,84.464z"/>
		<path fill="#999999" d="M243.645,94.527c-0.166-0.472-0.236-0.938-0.209-1.396c0.027-0.459,0.146-0.875,0.355-1.25
			c0.208-0.375,0.506-0.667,0.896-0.875c0.389-0.209,0.86-0.285,1.417-0.229c0.305,0.028,0.583,0.111,0.833,0.25
			c0.25,0.14,0.479,0.306,0.688,0.5s0.417,0.403,0.625,0.625c0.208,0.223,0.423,0.417,0.646,0.583
			c0.473,0.361,0.973,0.625,1.5,0.792s1.084,0.292,1.668,0.375c0.389,0,0.701-0.097,0.938-0.292c0.235-0.193,0.396-0.43,0.479-0.708
			c0.084-0.277,0.104-0.576,0.062-0.896c-0.041-0.319-0.146-0.576-0.312-0.771c-0.473-0.472-1.049-0.777-1.729-0.917
			c-0.682-0.139-1.313-0.305-1.896-0.5c-0.834-0.277-1.653-0.631-2.459-1.062c-0.806-0.43-1.458-1.021-1.958-1.771
			c-0.528-0.777-0.841-1.604-0.938-2.479c-0.098-0.875-0.028-1.729,0.208-2.562c0.236-0.834,0.632-1.598,1.188-2.292
			s1.223-1.264,2-1.708c0.584-0.334,1.223-0.549,1.917-0.646c0.694-0.097,1.396-0.117,2.104-0.062
			c0.709,0.057,1.41,0.188,2.104,0.396c0.694,0.208,1.333,0.438,1.917,0.688c0.666,0.306,1.166,0.736,1.5,1.291
			c0.333,0.557,0.492,1.119,0.479,1.688s-0.208,1.062-0.583,1.479c-0.375,0.417-0.924,0.625-1.646,0.625
			c-0.445,0-0.848-0.076-1.209-0.229s-0.736-0.299-1.125-0.438c-0.5-0.194-1.041-0.326-1.625-0.396
			c-0.584-0.068-1.057-0.034-1.417,0.104c-0.111,0.028-0.236,0.118-0.375,0.271c-0.14,0.153-0.243,0.341-0.312,0.562
			c-0.069,0.223-0.083,0.445-0.042,0.667c0.042,0.223,0.188,0.403,0.438,0.542c0.667,0.361,1.375,0.639,2.125,0.833
			s1.486,0.417,2.209,0.667s1.396,0.569,2.021,0.958c0.625,0.39,1.146,0.945,1.562,1.667c0.61,1.056,0.923,2.16,0.938,3.312
			c0.014,1.153-0.216,2.229-0.688,3.229c-0.473,1-1.167,1.854-2.084,2.562c-0.916,0.709-1.986,1.132-3.209,1.271
			c-0.861,0.083-1.707,0.034-2.541-0.146s-1.64-0.473-2.417-0.875c-0.778-0.402-1.5-0.881-2.167-1.438
			c-0.666-0.555-1.25-1.139-1.75-1.75L243.645,94.527z"/>
	</g>
	<g clip-path="url(#SVGID_2_)" enable-background="new    ">
		<path fill="#999999" d="M182.185,132.614c0.193-0.806,0.465-1.598,0.812-2.375c0.347-0.777,0.771-1.521,1.271-2.229
			s1.062-1.354,1.688-1.938c0.625-0.584,1.299-1.056,2.021-1.417c1.277-0.667,2.562-1.007,3.854-1.021
			c1.291-0.014,2.492,0.243,3.604,0.771c1.111,0.528,2.056,1.312,2.834,2.354c0.777,1.042,1.292,2.285,1.542,3.729
			c0.139,0.944,0.215,1.841,0.229,2.688c0.014,0.848-0.076,1.729-0.271,2.646c-0.278,1.306-0.841,2.604-1.688,3.896
			c-0.848,1.292-1.861,2.375-3.042,3.25s-2.473,1.451-3.875,1.729c-1.403,0.277-2.812,0.056-4.229-0.667
			c-0.64-0.306-1.216-0.66-1.729-1.062c-0.515-0.402-0.979-0.881-1.396-1.438c-0.473-0.61-0.841-1.25-1.104-1.917
			c-0.265-0.666-0.479-1.36-0.646-2.083c-0.194-0.777-0.264-1.562-0.208-2.354s0.152-1.562,0.292-2.312L182.185,132.614z
			 M187.185,133.489c-0.083,0.444-0.153,0.882-0.208,1.312c-0.057,0.431-0.057,0.869,0,1.312c0.083,0.64,0.256,1.223,0.521,1.75
			c0.264,0.528,0.61,0.945,1.042,1.25c0.43,0.307,0.923,0.466,1.479,0.479c0.556,0.015,1.152-0.159,1.792-0.521
			c0.806-0.473,1.5-1.201,2.084-2.188c0.583-0.986,0.943-2.015,1.083-3.084c0.139-1.069,0.027-2.083-0.333-3.042
			c-0.361-0.958-1.07-1.646-2.125-2.062c-0.695,0-1.334,0.132-1.917,0.396c-0.584,0.265-1.091,0.611-1.521,1.042
			s-0.806,0.938-1.125,1.521C187.636,132.239,187.379,132.851,187.185,133.489z"/>
		<path fill="#999999" d="M214.27,124.572c0.416-0.556,0.896-0.938,1.438-1.146c0.541-0.208,1.048-0.25,1.521-0.125
			s0.875,0.41,1.209,0.854c0.333,0.444,0.514,1.042,0.541,1.792c0,0.194-0.035,0.444-0.104,0.75c-0.07,0.306-0.16,0.618-0.271,0.938
			s-0.208,0.611-0.291,0.875c-0.084,0.265-0.14,0.438-0.167,0.521c-0.473,1.5-1.021,3.119-1.646,4.854
			c-0.626,1.736-1.202,3.354-1.729,4.854c-0.223,0.64-0.452,1.244-0.688,1.813c-0.236,0.569-0.479,1.16-0.729,1.771
			c-0.194,0.5-0.479,0.902-0.854,1.208s-0.778,0.5-1.208,0.584c-0.432,0.083-0.869,0.041-1.312-0.125
			c-0.445-0.167-0.834-0.473-1.167-0.917c-0.223-0.306-0.41-0.694-0.562-1.167c-0.153-0.472-0.271-0.818-0.354-1.041
			c-0.306-0.806-0.611-1.598-0.917-2.376c-0.306-0.777-0.611-1.555-0.916-2.333c-0.417-1.056-0.848-2.098-1.292-3.125
			s-0.903-2.042-1.375-3.042c-0.278-0.611-0.583-1.209-0.917-1.792c-0.333-0.583-0.583-1.194-0.75-1.834
			c-0.167-0.583-0.146-1.104,0.062-1.562c0.208-0.458,0.514-0.812,0.917-1.062c0.402-0.25,0.86-0.389,1.375-0.416
			c0.514-0.027,1.007,0.111,1.479,0.416c0.36,0.223,0.693,0.57,1,1.042c0.305,0.473,0.583,0.986,0.833,1.542
			s0.479,1.104,0.688,1.646c0.209,0.542,0.396,0.994,0.562,1.354c0.389,0.89,0.771,1.778,1.146,2.667
			c0.375,0.89,0.742,1.778,1.104,2.667c0.584-1.639,1.146-3.271,1.688-4.896c0.541-1.625,1.048-3.271,1.521-4.938L214.27,124.572z"
			/>
		<path fill="#999999" d="M236.396,136.989c0.666-0.166,1.256-0.173,1.771-0.021c0.514,0.153,0.91,0.41,1.188,0.771
			c0.277,0.361,0.402,0.807,0.375,1.334s-0.264,1.083-0.708,1.667c-0.361,0.473-0.861,0.875-1.5,1.208
			c-0.64,0.333-1.236,0.598-1.792,0.792c-1.361,0.5-2.653,0.847-3.875,1.041c-1.223,0.194-2.369,0.194-3.438,0s-2.069-0.598-3-1.208
			s-1.799-1.472-2.604-2.584c-0.556-0.75-0.965-1.604-1.229-2.562c-0.265-0.958-0.41-1.938-0.438-2.938
			c-0.028-1,0.055-1.985,0.25-2.958c0.193-0.973,0.472-1.848,0.833-2.626c0.472-0.972,1.222-1.86,2.25-2.667
			c1.027-0.805,2.167-1.443,3.417-1.916s2.527-0.743,3.834-0.812c1.305-0.069,2.458,0.132,3.458,0.604
			c0.834,0.39,1.549,0.952,2.146,1.688c0.597,0.737,1.006,1.536,1.229,2.396c0.223,0.861,0.243,1.729,0.062,2.604
			s-0.632,1.674-1.354,2.396c-0.695,0.695-1.459,1.258-2.292,1.688c-0.834,0.432-1.695,0.807-2.584,1.126s-1.799,0.59-2.729,0.812
			s-1.826,0.473-2.688,0.75c0.584,0.666,1.25,1.09,2,1.271s1.535,0.216,2.354,0.104s1.646-0.34,2.479-0.688
			c0.834-0.348,1.611-0.729,2.334-1.146L236.396,136.989z M227.979,129.822c-0.639,0.361-1.111,0.812-1.416,1.354
			c-0.307,0.542-0.528,1.299-0.667,2.271c0.722-0.222,1.534-0.458,2.438-0.708c0.902-0.25,1.757-0.514,2.562-0.792
			c0.806-0.277,1.486-0.583,2.042-0.917c0.556-0.333,0.833-0.693,0.833-1.083c0-0.222-0.035-0.438-0.104-0.646
			c-0.07-0.209-0.216-0.354-0.438-0.438c-0.778-0.277-1.584-0.334-2.417-0.167s-1.528,0.403-2.084,0.708L227.979,129.822z"/>
		<path fill="#999999" d="M244.021,129.718c0.027-0.18,0.014-0.506-0.042-0.979c-0.444-0.25-0.792-0.569-1.042-0.959
			c-0.25-0.389-0.396-0.805-0.438-1.25c-0.041-0.444,0.042-0.868,0.25-1.271c0.209-0.402,0.549-0.743,1.021-1.021
			c0.639-0.36,1.34-0.43,2.104-0.208c0.764,0.223,1.424,0.556,1.979,1c0.694-0.527,1.417-0.972,2.167-1.333s1.514-0.604,2.292-0.729
			c0.777-0.125,1.569-0.104,2.375,0.062s1.598,0.515,2.375,1.042c0.389,0.25,0.75,0.562,1.084,0.938
			c0.333,0.375,0.541,0.799,0.625,1.271c0.139,0.695,0.083,1.299-0.167,1.812c-0.25,0.515-0.598,0.89-1.042,1.125
			c-0.444,0.236-0.944,0.307-1.5,0.209s-1.083-0.396-1.583-0.896c-0.167-0.11-0.285-0.201-0.354-0.271s-0.216-0.159-0.438-0.271
			c-0.444-0.111-0.882-0.084-1.312,0.083s-0.848,0.396-1.25,0.688c-0.403,0.292-0.778,0.611-1.125,0.958
			c-0.348,0.348-0.66,0.66-0.938,0.938v10.626c0,0.417-0.084,0.82-0.25,1.209c-0.25,0.639-0.646,1.083-1.188,1.333
			c-0.542,0.25-1.084,0.319-1.626,0.208c-0.541-0.111-1.014-0.389-1.416-0.833c-0.403-0.444-0.604-1.014-0.604-1.708v-11.668
			C243.979,129.934,243.993,129.899,244.021,129.718z"/>
	</g>
	<g clip-path="url(#SVGID_2_)">
		<g>
			<g>
				<path fill="#999999" d="M152.954,320.287c-1.463-1.465-3.835-1.465-5.298,0l-7.695,7.693c-1.464,1.465-1.464,3.836,0,5.299
					c0.732,0.73,1.689,1.1,2.65,1.1c0.958,0,1.916-0.367,2.647-1.1l7.695-7.695C154.417,324.121,154.417,321.75,152.954,320.287z"/>
			</g>
		</g>
		<g>
			<g>
				<path fill="#999999" d="M163.839,331.169c-1.463-1.461-3.836-1.461-5.299,0l-25.649,25.65c-1.463,1.465-1.463,3.836,0,5.299
					c0.731,0.732,1.689,1.1,2.648,1.1c0.96,0,1.918-0.365,2.65-1.1l25.65-25.65C165.302,335.007,165.302,332.632,163.839,331.169z"
					/>
			</g>
		</g>
		<g>
			<g>
				<path fill="#999999" d="M174.724,342.054c-1.463-1.461-3.834-1.463-5.299,0l-12.824,12.826c-1.465,1.463-1.465,3.836,0,5.299
					c0.73,0.73,1.689,1.1,2.648,1.1s1.918-0.367,2.648-1.1l12.826-12.824C176.187,345.89,176.187,343.519,174.724,342.054z"/>
			</g>
		</g>
		<g>
			<g>
				<path fill="#999999" d="M245.38,249.63c-4.363-4.363-10.164-6.766-16.336-6.766c-6.17,0-11.973,2.402-16.336,6.766
					c-4.363,4.365-6.766,10.164-6.766,16.336s2.402,11.973,6.766,16.336c4.365,4.363,10.164,6.768,16.336,6.768
					s11.973-2.402,16.336-6.768C254.386,273.294,254.386,258.64,245.38,249.63z M240.081,277.005
					c-2.947,2.947-6.867,4.57-11.037,4.57s-8.09-1.623-11.037-4.57c-2.949-2.949-4.572-6.867-4.572-11.039
					c0-4.17,1.623-8.088,4.572-11.037c2.947-2.947,6.867-4.572,11.037-4.572s8.09,1.625,11.037,4.572
					C246.167,261.017,246.167,270.917,240.081,277.005z"/>
			</g>
		</g>
		<g>
			<g>
				<path fill="#999999" d="M285.184,212.482c-0.348-1.295-1.355-2.305-2.65-2.65c-12.812-3.426-26.378-3.48-39.226-0.164
					c-2.002,0.518-3.975,1.125-5.924,1.801c-0.168,0.047-0.336,0.104-0.496,0.174c-10.697,3.797-20.48,9.945-28.59,18.031
					c-0.006,0.004-0.01,0.008-0.014,0.014c-0.021,0.021-0.043,0.041-0.064,0.061c-0.033,0.035-0.062,0.074-0.096,0.107
					c-0.031,0.033-0.066,0.066-0.096,0.102l-11.477,13.355c-18.055-0.199-35.598,6.934-48.389,19.727
					c-4.16,4.158-7.748,8.818-10.666,13.854c-0.59,1.016-0.668,2.25-0.213,3.332c0.455,1.084,1.391,1.889,2.528,2.176l20.824,5.305
					l-4.074,11.064c-2.014,5.467-0.65,11.656,3.467,15.775l20.439,20.438c2.855,2.855,6.705,4.385,10.619,4.385
					c1.732,0,3.48-0.299,5.156-0.916l11.066-4.074l5.303,20.824c0.289,1.139,1.096,2.076,2.178,2.531
					c0.467,0.193,0.961,0.293,1.453,0.293c0.65,0,1.301-0.172,1.879-0.506c5.033-2.92,9.695-6.51,13.854-10.668
					c12.793-12.793,19.922-30.342,19.727-48.393l13.354-11.475c0.035-0.029,0.064-0.062,0.1-0.096s0.074-0.062,0.107-0.098
					c0.023-0.021,0.043-0.043,0.064-0.066c0.004-0.004,0.008-0.008,0.012-0.012c8.086-8.107,14.234-17.891,18.029-28.59
					c0.07-0.162,0.129-0.328,0.174-0.498c0.678-1.947,1.285-3.92,1.803-5.922C288.664,238.857,288.607,225.294,285.184,212.482z
					 M146.68,276.417c2.01-2.873,4.278-5.578,6.782-8.082c9.797-9.799,22.734-15.855,36.393-17.23l-25.594,29.789L146.68,276.417z
					 M163.593,301.357l3.488-9.469l4.832,4.83l-7.305,11.691C163.122,306.406,162.716,303.744,163.593,301.357z M170.001,313.921
					l7.35-11.762l5.105,5.102l-9.559,9.557L170.001,313.921z M178.196,322.115l9.555-9.557l5.102,5.102l-11.76,7.352
					L178.196,322.115z M193.655,331.419c-2.387,0.877-5.047,0.471-7.055-1.018l11.689-7.305l4.834,4.834L193.655,331.419z
					 M226.679,341.554c-2.502,2.502-5.209,4.771-8.082,6.781l-4.477-17.584l29.789-25.596
					C242.536,318.814,236.478,331.753,226.679,341.554z M260.047,281.412l-49.938,42.906l-39.414-39.412l30.311-35.279
					c0.031-0.033,0.059-0.064,0.088-0.1l12.51-14.561c6.816-6.795,14.945-12.072,23.826-15.533l38.151,38.15
					C272.121,266.466,266.842,274.593,260.047,281.412z M278.156,249.562l-32.706-32.705c10.811-2.748,22.177-2.854,33.024-0.318
					C281.012,227.386,280.902,238.751,278.156,249.562z"/>
			</g>
		</g>
	</g>
	<g clip-path="url(#SVGID_2_)" enable-background="new    ">
		<path fill="#999999" d="M8.353,326.601l-0.72-0.559c0.229-0.256,0.467-0.502,0.715-0.738c0.099-0.096,0.161-0.156,0.186-0.182
			c-0.08-0.012-0.307-0.064-0.682-0.156c-0.27-0.066-0.448-0.117-0.534-0.148l0.282-0.84c0.416,0.17,0.788,0.355,1.116,0.559
			c-0.076-0.518-0.115-0.941-0.115-1.268H9.45c0,0.23-0.043,0.656-0.129,1.277c0.063-0.025,0.2-0.088,0.41-0.186
			c0.286-0.131,0.55-0.242,0.792-0.334l0.253,0.863c-0.353,0.078-0.762,0.156-1.226,0.232l0.572,0.645
			c0.114,0.131,0.205,0.236,0.271,0.318l-0.729,0.482l-0.644-1.062C8.827,325.847,8.604,326.214,8.353,326.601z"/>
		<path fill="#999999" d="M11.695,330.378v-6.99h5.184v1.182h-3.772v1.551h3.509v1.178h-3.509v1.902h3.905v1.178H11.695z"/>
		<path fill="#999999" d="M17.556,330.378l1.826-2.609l-1.75-2.455h1.636l0.896,1.393l0.944-1.393h1.573l-1.716,2.398l1.874,2.666
			h-1.646l-1.03-1.568l-1.04,1.568H17.556z"/>
		<path fill="#999999" d="M28.047,326.812l-1.321,0.238c-0.045-0.264-0.146-0.463-0.303-0.598c-0.157-0.133-0.361-0.199-0.612-0.199
			c-0.334,0-0.6,0.115-0.799,0.346s-0.298,0.615-0.298,1.156c0,0.602,0.101,1.025,0.303,1.273c0.202,0.248,0.473,0.371,0.813,0.371
			c0.254,0,0.462-0.072,0.625-0.217s0.276-0.393,0.343-0.746l1.316,0.225c-0.137,0.604-0.399,1.061-0.787,1.369
			c-0.388,0.307-0.908,0.461-1.559,0.461c-0.741,0-1.332-0.232-1.771-0.701c-0.44-0.467-0.661-1.113-0.661-1.939
			c0-0.836,0.221-1.488,0.663-1.953c0.441-0.465,1.039-0.699,1.792-0.699c0.617,0,1.107,0.133,1.471,0.398
			C27.626,325.863,27.888,326.267,28.047,326.812z"/>
		<path fill="#999999" d="M29.062,330.378v-6.99h1.34v6.99H29.062z"/>
		<path fill="#999999" d="M35.109,330.378v-0.758c-0.185,0.27-0.427,0.482-0.727,0.639c-0.301,0.154-0.618,0.232-0.952,0.232
			c-0.34,0-0.645-0.074-0.916-0.223c-0.27-0.15-0.466-0.359-0.586-0.631c-0.121-0.27-0.181-0.643-0.181-1.119v-3.205h1.34v2.326
			c0,0.713,0.025,1.148,0.074,1.311c0.049,0.16,0.139,0.287,0.269,0.381s0.296,0.141,0.496,0.141c0.229,0,0.434-0.062,0.615-0.189
			c0.181-0.125,0.305-0.281,0.372-0.467c0.067-0.186,0.101-0.641,0.101-1.365v-2.137h1.34v5.064H35.109z"/>
		<path fill="#999999" d="M42.385,330.378h-1.244v-0.744c-0.207,0.289-0.451,0.504-0.732,0.646
			c-0.282,0.141-0.565,0.211-0.852,0.211c-0.582,0-1.08-0.234-1.495-0.703c-0.415-0.469-0.623-1.123-0.623-1.961
			c0-0.859,0.202-1.512,0.606-1.959c0.403-0.445,0.914-0.67,1.53-0.67c0.566,0,1.056,0.236,1.469,0.707v-2.518h1.34V330.378z
			 M38.809,327.736c0,0.541,0.075,0.932,0.224,1.174c0.216,0.35,0.518,0.523,0.906,0.523c0.308,0,0.57-0.131,0.787-0.393
			s0.324-0.654,0.324-1.176c0-0.582-0.105-1-0.315-1.256c-0.209-0.256-0.478-0.385-0.806-0.385c-0.318,0-0.584,0.127-0.799,0.379
			C38.917,326.857,38.809,327.234,38.809,327.736z"/>
		<path fill="#999999" d="M46.639,328.767l1.335,0.223c-0.172,0.49-0.443,0.863-0.813,1.119c-0.371,0.256-0.834,0.383-1.39,0.383
			c-0.88,0-1.532-0.287-1.955-0.863c-0.333-0.461-0.5-1.041-0.5-1.744c0-0.84,0.219-1.496,0.658-1.973
			c0.439-0.475,0.994-0.713,1.665-0.713c0.753,0,1.348,0.25,1.783,0.746c0.436,0.498,0.644,1.26,0.625,2.287h-3.357
			c0.01,0.398,0.118,0.707,0.324,0.928c0.207,0.221,0.464,0.332,0.772,0.332c0.21,0,0.386-0.059,0.529-0.172
			C46.458,329.205,46.566,329.021,46.639,328.767z M46.715,327.412c-0.01-0.387-0.11-0.682-0.3-0.885
			c-0.191-0.201-0.423-0.303-0.696-0.303c-0.292,0-0.534,0.107-0.725,0.32c-0.19,0.213-0.284,0.502-0.281,0.867H46.715z"/>
		<path fill="#999999" d="M48.666,328.933l1.345-0.205c0.057,0.26,0.173,0.459,0.348,0.594c0.175,0.135,0.419,0.203,0.734,0.203
			c0.346,0,0.607-0.064,0.782-0.191c0.118-0.088,0.176-0.209,0.176-0.357c0-0.102-0.032-0.186-0.095-0.252
			c-0.067-0.064-0.216-0.123-0.448-0.178c-1.081-0.238-1.766-0.455-2.055-0.652c-0.4-0.273-0.601-0.654-0.601-1.141
			c0-0.438,0.173-0.807,0.52-1.105s0.884-0.449,1.612-0.449c0.693,0,1.208,0.113,1.545,0.34c0.337,0.225,0.569,0.559,0.696,1
			l-1.264,0.234c-0.054-0.197-0.157-0.348-0.308-0.453s-0.366-0.156-0.646-0.156c-0.353,0-0.605,0.049-0.758,0.146
			c-0.102,0.07-0.153,0.16-0.153,0.271c0,0.096,0.045,0.178,0.134,0.244c0.121,0.088,0.538,0.215,1.251,0.377
			c0.714,0.162,1.212,0.359,1.495,0.596c0.28,0.238,0.419,0.57,0.419,0.996c0,0.465-0.194,0.863-0.582,1.197s-0.961,0.5-1.721,0.5
			c-0.69,0-1.236-0.139-1.638-0.42C49.052,329.792,48.79,329.414,48.666,328.933z"/>
		<path fill="#999999" d="M61.698,326.812l-1.321,0.238c-0.045-0.264-0.146-0.463-0.303-0.598c-0.157-0.133-0.361-0.199-0.612-0.199
			c-0.334,0-0.6,0.115-0.799,0.346s-0.298,0.615-0.298,1.156c0,0.602,0.101,1.025,0.303,1.273c0.202,0.248,0.473,0.371,0.813,0.371
			c0.254,0,0.462-0.072,0.625-0.217s0.276-0.393,0.343-0.746l1.316,0.225c-0.137,0.604-0.399,1.061-0.787,1.369
			c-0.388,0.307-0.908,0.461-1.559,0.461c-0.741,0-1.332-0.232-1.771-0.701c-0.44-0.467-0.661-1.113-0.661-1.939
			c0-0.836,0.221-1.488,0.663-1.953c0.441-0.465,1.039-0.699,1.792-0.699c0.617,0,1.107,0.133,1.471,0.398
			C61.277,325.863,61.539,326.267,61.698,326.812z"/>
		<path fill="#999999" d="M65.646,328.767l1.335,0.223c-0.172,0.49-0.443,0.863-0.813,1.119c-0.371,0.256-0.834,0.383-1.39,0.383
			c-0.88,0-1.532-0.287-1.955-0.863c-0.333-0.461-0.5-1.041-0.5-1.744c0-0.84,0.219-1.496,0.658-1.973
			c0.439-0.475,0.994-0.713,1.665-0.713c0.753,0,1.348,0.25,1.783,0.746c0.436,0.498,0.644,1.26,0.625,2.287h-3.357
			c0.01,0.398,0.118,0.707,0.324,0.928c0.207,0.221,0.464,0.332,0.772,0.332c0.21,0,0.386-0.059,0.529-0.172
			C65.464,329.205,65.573,329.021,65.646,328.767z M65.722,327.412c-0.01-0.387-0.11-0.682-0.3-0.885
			c-0.191-0.201-0.423-0.303-0.696-0.303c-0.292,0-0.534,0.107-0.725,0.32c-0.19,0.213-0.284,0.502-0.281,0.867H65.722z"/>
		<path fill="#999999" d="M69.427,330.378h-1.34v-5.064h1.245v0.721c0.213-0.342,0.405-0.564,0.575-0.674
			c0.17-0.107,0.363-0.162,0.58-0.162c0.305,0,0.599,0.084,0.882,0.254l-0.415,1.168c-0.226-0.146-0.436-0.219-0.629-0.219
			c-0.188,0-0.347,0.051-0.477,0.154s-0.233,0.289-0.308,0.561c-0.075,0.27-0.112,0.836-0.112,1.697V330.378z"/>
		<path fill="#999999" d="M74.268,325.314v1.068h-0.916v2.041c0,0.412,0.009,0.654,0.026,0.723s0.057,0.125,0.119,0.168
			c0.062,0.045,0.138,0.066,0.227,0.066c0.124,0,0.304-0.041,0.539-0.127l0.114,1.039c-0.312,0.133-0.665,0.199-1.059,0.199
			c-0.242,0-0.459-0.039-0.653-0.121c-0.194-0.08-0.336-0.186-0.427-0.314c-0.09-0.129-0.153-0.303-0.188-0.521
			c-0.028-0.156-0.042-0.471-0.042-0.945v-2.207h-0.615v-1.068h0.615v-1.006l1.344-0.783v1.789H74.268z"/>
		<path fill="#999999" d="M76.198,326.859l-1.216-0.219c0.137-0.49,0.372-0.854,0.706-1.088c0.334-0.234,0.83-0.354,1.488-0.354
			c0.598,0,1.043,0.072,1.335,0.213s0.498,0.32,0.617,0.539c0.12,0.217,0.179,0.617,0.179,1.199l-0.015,1.564
			c0,0.445,0.021,0.773,0.064,0.984s0.123,0.438,0.241,0.68h-1.325c-0.035-0.09-0.078-0.221-0.129-0.396
			c-0.022-0.08-0.038-0.131-0.048-0.156c-0.229,0.221-0.474,0.389-0.734,0.5s-0.539,0.166-0.834,0.166
			c-0.521,0-0.932-0.141-1.232-0.424s-0.451-0.641-0.451-1.072c0-0.287,0.068-0.541,0.205-0.766s0.328-0.396,0.575-0.516
			c0.246-0.119,0.602-0.223,1.065-0.312c0.626-0.117,1.06-0.227,1.302-0.328v-0.135c0-0.256-0.063-0.439-0.19-0.551
			c-0.127-0.109-0.367-0.164-0.72-0.164c-0.238,0-0.424,0.047-0.558,0.141C76.389,326.458,76.281,326.625,76.198,326.859z
			 M77.991,327.947c-0.171,0.057-0.443,0.125-0.815,0.205c-0.372,0.078-0.615,0.156-0.729,0.232
			c-0.175,0.125-0.262,0.281-0.262,0.473c0,0.188,0.07,0.35,0.21,0.486c0.14,0.137,0.318,0.205,0.534,0.205
			c0.241,0,0.472-0.08,0.691-0.238c0.162-0.121,0.269-0.27,0.319-0.443c0.035-0.115,0.052-0.332,0.052-0.654V327.947z"/>
		<path fill="#999999" d="M80.628,324.626v-1.238h1.34v1.238H80.628z M80.628,330.378v-5.064h1.34v5.064H80.628z"/>
		<path fill="#999999" d="M87.948,330.378h-1.34v-2.586c0-0.545-0.028-0.9-0.086-1.061c-0.057-0.16-0.15-0.285-0.279-0.373
			c-0.129-0.09-0.284-0.135-0.465-0.135c-0.232,0-0.44,0.064-0.625,0.191c-0.185,0.127-0.311,0.295-0.379,0.506
			c-0.068,0.209-0.103,0.598-0.103,1.162v2.295h-1.34v-5.064h1.245v0.744c0.442-0.572,0.998-0.859,1.669-0.859
			c0.295,0,0.566,0.055,0.811,0.16c0.245,0.107,0.43,0.242,0.556,0.408s0.213,0.354,0.262,0.562s0.074,0.51,0.074,0.9V330.378z"/>
		<path fill="#999999" d="M91.982,325.314h1.25v0.744c0.162-0.254,0.381-0.461,0.658-0.621c0.276-0.158,0.583-0.238,0.92-0.238
			c0.588,0,1.087,0.23,1.497,0.691s0.615,1.104,0.615,1.928c0,0.846-0.207,1.502-0.62,1.971c-0.413,0.469-0.914,0.703-1.502,0.703
			c-0.28,0-0.533-0.055-0.761-0.166c-0.227-0.111-0.466-0.303-0.717-0.572v2.551h-1.34V325.314z M93.308,327.759
			c0,0.57,0.113,0.99,0.339,1.262c0.226,0.271,0.5,0.408,0.825,0.408c0.312,0,0.571-0.125,0.777-0.375s0.31-0.658,0.31-1.227
			c0-0.531-0.106-0.926-0.32-1.184c-0.213-0.258-0.477-0.387-0.792-0.387c-0.327,0-0.599,0.127-0.815,0.379
			C93.416,326.89,93.308,327.263,93.308,327.759z"/>
		<path fill="#999999" d="M99.269,330.378h-1.34v-5.064h1.245v0.721c0.213-0.342,0.405-0.564,0.575-0.674
			c0.17-0.107,0.363-0.162,0.58-0.162c0.305,0,0.599,0.084,0.882,0.254l-0.415,1.168c-0.226-0.146-0.436-0.219-0.629-0.219
			c-0.188,0-0.347,0.051-0.477,0.154s-0.233,0.289-0.308,0.561c-0.075,0.27-0.112,0.836-0.112,1.697V330.378z"/>
		<path fill="#999999" d="M101.476,327.775c0-0.445,0.109-0.877,0.329-1.293c0.219-0.416,0.53-0.734,0.932-0.953
			c0.402-0.221,0.851-0.33,1.347-0.33c0.766,0,1.394,0.25,1.883,0.746c0.49,0.498,0.734,1.127,0.734,1.887
			c0,0.766-0.247,1.4-0.741,1.904c-0.495,0.504-1.117,0.756-1.867,0.756c-0.464,0-0.907-0.104-1.328-0.314
			c-0.421-0.209-0.741-0.518-0.96-0.922C101.585,328.849,101.476,328.357,101.476,327.775z M102.849,327.845
			c0,0.504,0.119,0.887,0.358,1.154c0.238,0.268,0.532,0.4,0.882,0.4c0.35,0,0.643-0.133,0.88-0.4s0.355-0.654,0.355-1.164
			c0-0.494-0.119-0.877-0.355-1.143c-0.237-0.268-0.53-0.402-0.88-0.402c-0.35,0-0.644,0.135-0.882,0.402
			C102.968,326.958,102.849,327.343,102.849,327.845z"/>
		<path fill="#999999" d="M112.396,330.378h-1.244v-0.744c-0.207,0.289-0.451,0.504-0.732,0.646
			c-0.282,0.141-0.565,0.211-0.852,0.211c-0.582,0-1.08-0.234-1.495-0.703c-0.415-0.469-0.623-1.123-0.623-1.961
			c0-0.859,0.202-1.512,0.606-1.959c0.403-0.445,0.914-0.67,1.53-0.67c0.566,0,1.056,0.236,1.469,0.707v-2.518h1.34V330.378z
			 M108.819,327.736c0,0.541,0.075,0.932,0.224,1.174c0.216,0.35,0.518,0.523,0.906,0.523c0.308,0,0.57-0.131,0.787-0.393
			s0.324-0.654,0.324-1.176c0-0.582-0.105-1-0.315-1.256c-0.209-0.256-0.478-0.385-0.806-0.385c-0.318,0-0.584,0.127-0.799,0.379
			C108.927,326.857,108.819,327.234,108.819,327.736z"/>
		<path fill="#999999" d="M117.05,330.378v-0.758c-0.185,0.27-0.427,0.482-0.727,0.639c-0.301,0.154-0.618,0.232-0.952,0.232
			c-0.34,0-0.645-0.074-0.916-0.223c-0.27-0.15-0.466-0.359-0.586-0.631c-0.121-0.27-0.181-0.643-0.181-1.119v-3.205h1.34v2.326
			c0,0.713,0.025,1.148,0.074,1.311c0.049,0.16,0.139,0.287,0.269,0.381s0.296,0.141,0.496,0.141c0.229,0,0.434-0.062,0.615-0.189
			c0.181-0.125,0.305-0.281,0.372-0.467c0.067-0.186,0.101-0.641,0.101-1.365v-2.137h1.34v5.064H117.05z"/>
		<path fill="#999999" d="M124.098,326.812l-1.321,0.238c-0.045-0.264-0.146-0.463-0.303-0.598
			c-0.157-0.133-0.361-0.199-0.612-0.199c-0.334,0-0.6,0.115-0.799,0.346s-0.298,0.615-0.298,1.156c0,0.602,0.101,1.025,0.303,1.273
			c0.202,0.248,0.473,0.371,0.813,0.371c0.254,0,0.462-0.072,0.625-0.217s0.276-0.393,0.343-0.746l1.316,0.225
			c-0.137,0.604-0.399,1.061-0.787,1.369c-0.388,0.307-0.908,0.461-1.559,0.461c-0.741,0-1.332-0.232-1.771-0.701
			c-0.44-0.467-0.661-1.113-0.661-1.939c0-0.836,0.221-1.488,0.663-1.953c0.441-0.465,1.039-0.699,1.792-0.699
			c0.617,0,1.107,0.133,1.471,0.398C123.677,325.863,123.938,326.267,124.098,326.812z"/>
		<path fill="#999999" d="M127.436,325.314v1.068h-0.916v2.041c0,0.412,0.009,0.654,0.026,0.723s0.057,0.125,0.119,0.168
			c0.062,0.045,0.138,0.066,0.227,0.066c0.124,0,0.304-0.041,0.539-0.127l0.114,1.039c-0.312,0.133-0.665,0.199-1.059,0.199
			c-0.242,0-0.459-0.039-0.653-0.121c-0.194-0.08-0.336-0.186-0.427-0.314c-0.09-0.129-0.153-0.303-0.188-0.521
			c-0.028-0.156-0.042-0.471-0.042-0.945v-2.207h-0.615v-1.068h0.615v-1.006l1.344-0.783v1.789H127.436z"/>
		<path fill="#999999" d="M127.894,328.933l1.345-0.205c0.057,0.26,0.173,0.459,0.348,0.594c0.175,0.135,0.419,0.203,0.734,0.203
			c0.346,0,0.607-0.064,0.782-0.191c0.118-0.088,0.176-0.209,0.176-0.357c0-0.102-0.032-0.186-0.095-0.252
			c-0.067-0.064-0.216-0.123-0.448-0.178c-1.081-0.238-1.766-0.455-2.055-0.652c-0.4-0.273-0.601-0.654-0.601-1.141
			c0-0.438,0.173-0.807,0.52-1.105s0.884-0.449,1.612-0.449c0.693,0,1.208,0.113,1.545,0.34c0.337,0.225,0.569,0.559,0.696,1
			l-1.264,0.234c-0.054-0.197-0.157-0.348-0.308-0.453s-0.366-0.156-0.646-0.156c-0.353,0-0.605,0.049-0.758,0.146
			c-0.102,0.07-0.153,0.16-0.153,0.271c0,0.096,0.045,0.178,0.134,0.244c0.121,0.088,0.538,0.215,1.251,0.377
			c0.714,0.162,1.212,0.359,1.495,0.596c0.28,0.238,0.419,0.57,0.419,0.996c0,0.465-0.194,0.863-0.582,1.197s-0.961,0.5-1.721,0.5
			c-0.69,0-1.236-0.139-1.638-0.42C128.28,329.792,128.018,329.414,127.894,328.933z"/>
	</g>
	<g clip-path="url(#SVGID_2_)" enable-background="new    ">
		<path fill="#999999" d="M25.665,339.527l1.368,0.434c-0.209,0.764-0.559,1.33-1.046,1.699c-0.488,0.371-1.107,0.557-1.857,0.557
			c-0.929,0-1.691-0.318-2.289-0.951c-0.598-0.635-0.896-1.502-0.896-2.602c0-1.164,0.301-2.066,0.901-2.711s1.391-0.965,2.37-0.965
			c0.854,0,1.55,0.252,2.083,0.758c0.318,0.299,0.557,0.727,0.716,1.287l-1.397,0.334c-0.083-0.363-0.255-0.648-0.518-0.859
			c-0.262-0.209-0.581-0.314-0.956-0.314c-0.518,0-0.938,0.186-1.261,0.559c-0.323,0.371-0.484,0.975-0.484,1.807
			c0,0.885,0.159,1.514,0.477,1.889c0.318,0.375,0.731,0.562,1.24,0.562c0.375,0,0.698-0.119,0.968-0.357
			C25.354,340.414,25.547,340.039,25.665,339.527z"/>
		<path fill="#999999" d="M28.235,342.097v-6.99h1.34v6.99H28.235z"/>
		<path fill="#999999" d="M30.948,336.345v-1.238h1.34v1.238H30.948z M30.948,342.097v-5.064h1.34v5.064H30.948z"/>
		<path fill="#999999" d="M38.077,338.531l-1.32,0.238c-0.045-0.264-0.146-0.463-0.304-0.598c-0.157-0.133-0.361-0.199-0.612-0.199
			c-0.334,0-0.6,0.115-0.799,0.346c-0.198,0.23-0.298,0.615-0.298,1.156c0,0.602,0.101,1.025,0.303,1.273s0.473,0.371,0.813,0.371
			c0.254,0,0.462-0.072,0.624-0.217s0.276-0.393,0.344-0.746l1.315,0.225c-0.137,0.604-0.398,1.061-0.786,1.369
			c-0.388,0.307-0.908,0.461-1.56,0.461c-0.74,0-1.331-0.232-1.771-0.701c-0.44-0.467-0.66-1.113-0.66-1.939
			c0-0.836,0.221-1.488,0.663-1.953c0.441-0.465,1.039-0.699,1.792-0.699c0.617,0,1.107,0.133,1.472,0.398
			S37.918,337.986,38.077,338.531z"/>
		<path fill="#999999" d="M39.045,342.097v-6.99h1.34v3.709l1.569-1.783h1.649l-1.73,1.85l1.854,3.215h-1.444l-1.273-2.275
			l-0.625,0.654v1.621H39.045z"/>
		<path fill="#999999" d="M46.65,337.033h0.744v-0.381c0-0.426,0.046-0.744,0.136-0.955c0.091-0.209,0.258-0.381,0.501-0.512
			c0.243-0.133,0.551-0.197,0.923-0.197c0.382,0,0.755,0.057,1.12,0.17l-0.181,0.936c-0.213-0.051-0.418-0.076-0.615-0.076
			c-0.194,0-0.333,0.045-0.417,0.135c-0.085,0.092-0.127,0.266-0.127,0.523v0.357h1.002v1.053h-1.002v4.012h-1.34v-4.012H46.65
			V337.033z"/>
		<path fill="#999999" d="M50.18,339.494c0-0.445,0.109-0.877,0.329-1.293s0.53-0.734,0.933-0.953
			c0.401-0.221,0.851-0.33,1.347-0.33c0.767,0,1.395,0.25,1.884,0.746c0.489,0.498,0.734,1.127,0.734,1.887
			c0,0.766-0.247,1.4-0.741,1.904c-0.495,0.504-1.117,0.756-1.867,0.756c-0.464,0-0.907-0.104-1.328-0.314
			c-0.421-0.209-0.741-0.518-0.961-0.922C50.289,340.568,50.18,340.076,50.18,339.494z M51.553,339.564
			c0,0.504,0.119,0.887,0.358,1.154c0.238,0.268,0.532,0.4,0.882,0.4s0.643-0.133,0.88-0.4c0.236-0.268,0.355-0.654,0.355-1.164
			c0-0.494-0.119-0.877-0.355-1.143c-0.237-0.268-0.53-0.402-0.88-0.402s-0.644,0.135-0.882,0.402
			C51.672,338.677,51.553,339.062,51.553,339.564z"/>
		<path fill="#999999" d="M57.738,342.097h-1.341v-5.064h1.245v0.721c0.213-0.342,0.404-0.564,0.574-0.674
			c0.17-0.107,0.363-0.162,0.58-0.162c0.305,0,0.599,0.084,0.882,0.254l-0.415,1.168c-0.226-0.146-0.436-0.219-0.629-0.219
			c-0.188,0-0.347,0.051-0.478,0.154c-0.13,0.104-0.232,0.289-0.308,0.561c-0.074,0.27-0.111,0.836-0.111,1.697V342.097z"/>
		<path fill="#999999" d="M62.868,337.033h1.235v0.691c0.442-0.537,0.968-0.807,1.578-0.807c0.324,0,0.606,0.068,0.845,0.201
			s0.434,0.336,0.586,0.605c0.223-0.27,0.463-0.473,0.721-0.605c0.257-0.133,0.532-0.201,0.824-0.201
			c0.372,0,0.687,0.076,0.944,0.227c0.258,0.152,0.45,0.373,0.577,0.666c0.092,0.217,0.139,0.566,0.139,1.049v3.238h-1.341v-2.895
			c0-0.502-0.046-0.826-0.138-0.973c-0.124-0.191-0.314-0.287-0.572-0.287c-0.188,0-0.364,0.059-0.529,0.172
			c-0.165,0.115-0.284,0.283-0.357,0.504s-0.11,0.568-0.11,1.047v2.432h-1.34v-2.775c0-0.492-0.023-0.811-0.071-0.953
			c-0.048-0.145-0.121-0.25-0.222-0.32s-0.236-0.105-0.407-0.105c-0.207,0-0.394,0.057-0.559,0.168s-0.283,0.271-0.355,0.48
			c-0.071,0.211-0.106,0.559-0.106,1.045v2.461h-1.341V337.033z"/>
		<path fill="#999999" d="M71.342,339.494c0-0.445,0.109-0.877,0.329-1.293s0.53-0.734,0.933-0.953
			c0.401-0.221,0.851-0.33,1.347-0.33c0.767,0,1.395,0.25,1.884,0.746c0.489,0.498,0.734,1.127,0.734,1.887
			c0,0.766-0.247,1.4-0.741,1.904c-0.495,0.504-1.117,0.756-1.867,0.756c-0.464,0-0.907-0.104-1.328-0.314
			c-0.421-0.209-0.741-0.518-0.961-0.922C71.451,340.568,71.342,340.076,71.342,339.494z M72.715,339.564
			c0,0.504,0.119,0.887,0.358,1.154c0.238,0.268,0.532,0.4,0.882,0.4s0.643-0.133,0.88-0.4c0.236-0.268,0.355-0.654,0.355-1.164
			c0-0.494-0.119-0.877-0.355-1.143c-0.237-0.268-0.53-0.402-0.88-0.402s-0.644,0.135-0.882,0.402
			C72.834,338.677,72.715,339.062,72.715,339.564z"/>
		<path fill="#999999" d="M78.9,342.097H77.56v-5.064h1.245v0.721c0.213-0.342,0.404-0.564,0.574-0.674
			c0.17-0.107,0.363-0.162,0.58-0.162c0.305,0,0.599,0.084,0.882,0.254l-0.415,1.168c-0.226-0.146-0.436-0.219-0.629-0.219
			c-0.188,0-0.347,0.051-0.478,0.154c-0.13,0.104-0.232,0.289-0.308,0.561c-0.074,0.27-0.111,0.836-0.111,1.697V342.097z"/>
		<path fill="#999999" d="M84.351,340.486l1.335,0.223c-0.172,0.49-0.442,0.863-0.812,1.119c-0.371,0.256-0.834,0.383-1.391,0.383
			c-0.88,0-1.532-0.287-1.955-0.863c-0.333-0.461-0.5-1.041-0.5-1.744c0-0.84,0.219-1.496,0.657-1.973
			c0.439-0.475,0.994-0.713,1.665-0.713c0.753,0,1.348,0.25,1.783,0.746c0.436,0.498,0.644,1.26,0.624,2.287H82.4
			c0.01,0.398,0.117,0.707,0.324,0.928s0.464,0.332,0.772,0.332c0.21,0,0.386-0.059,0.529-0.172
			C84.169,340.923,84.277,340.74,84.351,340.486z M84.427,339.13c-0.01-0.387-0.109-0.682-0.3-0.885
			c-0.191-0.201-0.423-0.303-0.696-0.303c-0.293,0-0.534,0.107-0.726,0.32c-0.19,0.213-0.284,0.502-0.281,0.867H84.427z"/>
		<path fill="#999999" d="M94.206,342.097h-1.244v-0.744c-0.207,0.289-0.45,0.504-0.731,0.646c-0.282,0.141-0.565,0.211-0.852,0.211
			c-0.582,0-1.08-0.234-1.495-0.703s-0.622-1.123-0.622-1.961c0-0.859,0.202-1.512,0.605-1.959c0.403-0.445,0.914-0.67,1.53-0.67
			c0.566,0,1.056,0.236,1.469,0.707v-2.518h1.34V342.097z M90.63,339.455c0,0.541,0.075,0.932,0.225,1.174
			c0.216,0.35,0.518,0.523,0.906,0.523c0.308,0,0.57-0.131,0.786-0.393c0.217-0.262,0.324-0.654,0.324-1.176
			c0-0.582-0.104-1-0.314-1.256s-0.479-0.385-0.806-0.385c-0.318,0-0.584,0.127-0.799,0.379
			C90.737,338.576,90.63,338.953,90.63,339.455z"/>
		<path fill="#999999" d="M98.46,340.486l1.335,0.223c-0.172,0.49-0.442,0.863-0.812,1.119c-0.371,0.256-0.834,0.383-1.391,0.383
			c-0.88,0-1.532-0.287-1.955-0.863c-0.333-0.461-0.5-1.041-0.5-1.744c0-0.84,0.219-1.496,0.657-1.973
			c0.439-0.475,0.994-0.713,1.665-0.713c0.753,0,1.348,0.25,1.783,0.746c0.436,0.498,0.644,1.26,0.624,2.287H96.51
			c0.01,0.398,0.117,0.707,0.324,0.928s0.464,0.332,0.772,0.332c0.21,0,0.386-0.059,0.529-0.172
			C98.278,340.923,98.387,340.74,98.46,340.486z M98.536,339.13c-0.01-0.387-0.109-0.682-0.3-0.885
			c-0.191-0.201-0.423-0.303-0.696-0.303c-0.293,0-0.534,0.107-0.726,0.32c-0.19,0.213-0.284,0.502-0.281,0.867H98.536z"/>
		<path fill="#999999" d="M103.281,337.033v1.068h-0.916v2.041c0,0.412,0.009,0.654,0.026,0.723s0.058,0.125,0.119,0.168
			c0.062,0.045,0.138,0.066,0.227,0.066c0.124,0,0.304-0.041,0.539-0.127l0.114,1.039c-0.312,0.133-0.664,0.199-1.059,0.199
			c-0.241,0-0.459-0.039-0.653-0.121c-0.193-0.08-0.336-0.186-0.427-0.314c-0.09-0.129-0.153-0.303-0.188-0.521
			c-0.028-0.156-0.042-0.471-0.042-0.945v-2.207h-0.615v-1.068h0.615v-1.006l1.344-0.783v1.789H103.281z"/>
		<path fill="#999999" d="M105.212,338.578l-1.216-0.219c0.137-0.49,0.372-0.854,0.706-1.088s0.83-0.354,1.487-0.354
			c0.598,0,1.043,0.072,1.336,0.213c0.292,0.141,0.498,0.32,0.617,0.539c0.119,0.217,0.179,0.617,0.179,1.199l-0.015,1.564
			c0,0.445,0.021,0.773,0.064,0.984s0.123,0.438,0.241,0.68h-1.325c-0.035-0.09-0.078-0.221-0.129-0.396
			c-0.022-0.08-0.038-0.131-0.048-0.156c-0.229,0.221-0.474,0.389-0.734,0.5s-0.539,0.166-0.835,0.166
			c-0.521,0-0.932-0.141-1.232-0.424c-0.3-0.283-0.45-0.641-0.45-1.072c0-0.287,0.068-0.541,0.205-0.766s0.328-0.396,0.574-0.516
			s0.602-0.223,1.065-0.312c0.627-0.117,1.061-0.227,1.302-0.328v-0.135c0-0.256-0.063-0.439-0.19-0.551
			c-0.127-0.109-0.367-0.164-0.72-0.164c-0.238,0-0.425,0.047-0.559,0.141C105.403,338.177,105.295,338.343,105.212,338.578z
			 M107.005,339.666c-0.171,0.057-0.443,0.125-0.815,0.205c-0.371,0.078-0.614,0.156-0.729,0.232
			c-0.175,0.125-0.262,0.281-0.262,0.473c0,0.188,0.069,0.35,0.21,0.486c0.14,0.137,0.317,0.205,0.534,0.205
			c0.241,0,0.472-0.08,0.691-0.238c0.162-0.121,0.269-0.27,0.319-0.443c0.034-0.115,0.052-0.332,0.052-0.654V339.666z"/>
		<path fill="#999999" d="M109.643,336.345v-1.238h1.34v1.238H109.643z M109.643,342.097v-5.064h1.34v5.064H109.643z"/>
		<path fill="#999999" d="M112.355,342.097v-6.99h1.34v6.99H112.355z"/>
		<path fill="#999999" d="M114.597,340.652l1.345-0.205c0.058,0.26,0.173,0.459,0.349,0.594c0.175,0.135,0.419,0.203,0.734,0.203
			c0.346,0,0.606-0.064,0.781-0.191c0.118-0.088,0.177-0.209,0.177-0.357c0-0.102-0.032-0.186-0.096-0.252
			c-0.066-0.064-0.216-0.123-0.448-0.178c-1.08-0.238-1.766-0.455-2.055-0.652c-0.4-0.273-0.601-0.654-0.601-1.141
			c0-0.438,0.173-0.807,0.52-1.105s0.884-0.449,1.611-0.449c0.693,0,1.208,0.113,1.545,0.34c0.337,0.225,0.569,0.559,0.696,1
			l-1.264,0.234c-0.054-0.197-0.156-0.348-0.308-0.453c-0.15-0.105-0.366-0.156-0.646-0.156c-0.354,0-0.605,0.049-0.759,0.146
			c-0.102,0.07-0.152,0.16-0.152,0.271c0,0.096,0.045,0.178,0.134,0.244c0.12,0.088,0.538,0.215,1.251,0.377
			c0.714,0.162,1.213,0.359,1.495,0.596c0.28,0.238,0.42,0.57,0.42,0.996c0,0.465-0.194,0.863-0.582,1.197s-0.961,0.5-1.721,0.5
			c-0.69,0-1.236-0.139-1.639-0.42C114.983,341.511,114.721,341.132,114.597,340.652z"/>
	</g>
	<g clip-path="url(#SVGID_2_)" enable-background="new    ">
		<path fill="#999999" d="M49,176.431c1.352,0,2.537,0.339,3.551,1.016c1.015,0.677,1.737,1.507,2.168,2.49
			c0.43,0.985,0.507,2.045,0.231,3.182c-0.277,1.139-1.031,2.139-2.26,2.998c-0.862,0.617-1.923,1.078-3.183,1.385
			c-1.261,0.309-2.569,0.508-3.921,0.6c-1.354,0.092-2.675,0.123-3.967,0.092c-1.292-0.029-2.46-0.047-3.505-0.047
			c-0.616,1.17-1.153,2.385-1.615,3.645c-0.461,1.262-0.938,2.508-1.43,3.736c-0.369,0.861-0.77,1.707-1.199,2.537
			c-0.431,0.83-0.892,1.676-1.384,2.537c1.476,0.799,3.028,1.584,4.659,2.352c1.629,0.77,3.243,1.293,4.843,1.568
			c1.599,0.277,3.136,0.217,4.612-0.184s2.828-1.369,4.059-2.906c0.43-1.477,1.214-2.566,2.353-3.275
			c1.137-0.705,2.321-1.045,3.552-1.014c1.229,0.031,2.353,0.461,3.367,1.291s1.614,2.016,1.799,3.551
			c0.123,1.107,0.014,2.168-0.323,3.184c-0.339,1.014-0.831,1.982-1.476,2.906c-0.646,0.922-1.384,1.752-2.214,2.49
			c-0.83,0.738-1.646,1.383-2.444,1.938c-2.338,1.598-4.737,2.613-7.196,3.045c-2.46,0.428-4.936,0.445-7.426,0.045
			s-4.935-1.123-7.334-2.168c-2.398-1.047-4.736-2.244-7.011-3.598c-0.678,0.984-1.43,1.938-2.26,2.859
			c-0.83,0.924-1.799,1.629-2.906,2.123c-1.047,0.43-2.045,0.537-2.999,0.322c-0.954-0.217-1.769-0.646-2.444-1.291
			c-0.678-0.646-1.185-1.445-1.522-2.398c-0.338-0.953-0.415-1.922-0.23-2.906c0.123-0.861,0.399-1.645,0.83-2.354
			c0.43-0.705,0.923-1.383,1.476-2.029c0.554-0.645,1.122-1.275,1.707-1.891c0.583-0.613,1.091-1.26,1.522-1.938
			c1.229-1.783,2.353-3.645,3.367-5.58c1.015-1.938,1.952-3.922,2.813-5.951c-0.738,0-1.476,0.031-2.214,0.092
			c-0.738,0.062-1.476-0.061-2.214-0.369c-0.738-0.307-1.43-0.768-2.076-1.383c-0.646-0.613-1.139-1.322-1.476-2.121
			c-0.339-0.799-0.461-1.615-0.369-2.445s0.445-1.615,1.061-2.353c0.676-0.798,1.49-1.397,2.444-1.799
			c0.953-0.398,1.952-0.676,2.999-0.83c1.045-0.152,2.106-0.23,3.183-0.23c1.075,0,2.106,0,3.09,0
			c0.983-2.398,1.998-4.766,3.044-7.104c1.045-2.336,2.182-4.673,3.413-7.011c0.86-1.599,1.737-3.167,2.629-4.705
			c0.891-1.536,2.076-2.828,3.552-3.874c0.738-0.554,1.537-0.999,2.398-1.338c0.861-0.337,1.753-0.63,2.675-0.877
			c1.045-0.244,2.076-0.398,3.091-0.461c1.015-0.061,2.044,0.124,3.09,0.554c0.922,0.369,1.645,0.938,2.168,1.707
			c0.521,0.77,0.844,1.584,0.968,2.444c0.123,0.862,0.03,1.723-0.276,2.583c-0.309,0.862-0.831,1.63-1.568,2.307
			c-0.862,0.737-1.769,1.199-2.722,1.384c-0.954,0.184-1.953,0.338-2.998,0.461c-0.062,0.062-0.124,0.092-0.185,0.092
			c-1.784,1.785-3.152,3.875-4.105,6.273c-0.954,2.398-1.891,4.767-2.814,7.104c0.983,0,1.968-0.046,2.952-0.139
			c0.983-0.092,1.968-0.199,2.952-0.323H49z"/>
		<path fill="#999999" d="M91.436,211.855c-0.431,1.107-1.077,1.984-1.938,2.629c-0.862,0.646-1.769,1.045-2.721,1.199
			c-0.955,0.154-1.907,0.031-2.86-0.369c-0.954-0.4-1.769-1.121-2.445-2.166c-0.8-1.17-1.092-2.477-0.876-3.922
			c0.215-1.443,0.416-2.752,0.6-3.92c1.168-6.949,3.013-13.746,5.535-20.389c2.521-6.641,5.812-12.852,9.871-18.634H73.908
			c-1.661,0-2.984-0.461-3.967-1.384c-0.984-0.922-1.568-2.014-1.753-3.274c-0.185-1.26,0.046-2.491,0.692-3.69
			c0.646-1.199,1.767-2.075,3.367-2.629c0.676-0.185,1.384-0.276,2.122-0.276c5.78,0,11.515-0.015,17.205-0.047
			c5.688-0.03,11.423-0.014,17.205,0.047c1.107,0,2.152,0.522,3.136,1.567c0.983,1.047,1.537,2.092,1.661,3.137
			c0.123,1.846-0.339,3.383-1.384,4.612c-1.046,1.231-2.091,2.491-3.137,3.783c-1.107,1.476-2.153,2.998-3.136,4.566
			c-0.985,1.567-1.938,3.152-2.86,4.751c-3.014,5.35-5.475,10.809-7.38,16.374c-1.907,5.566-3.229,11.395-3.967,17.482
			L91.436,211.855z"/>
		<path fill="#999999" d="M126.213,209.181c-0.922-1.047-1.476-2.184-1.661-3.414s-0.046-2.354,0.416-3.367
			c0.461-1.016,1.213-1.846,2.26-2.49c1.045-0.646,2.307-0.908,3.782-0.785c0.799,0.125,1.583,0.416,2.353,0.877
			c0.769,0.461,1.491,0.877,2.168,1.246c0.922,0.492,1.983,0.906,3.183,1.244c1.199,0.34,2.321,0.447,3.367,0.322
			c1.352-0.121,2.613-0.367,3.782-0.736c1.167-0.369,2.274-1.016,3.321-1.938c1.229-1.168,2.06-2.459,2.49-3.875
			c0.861-2.398,0.861-4.365,0-5.904c-0.861-1.537-2.121-2.676-3.781-3.414c-1.661-0.736-3.538-1.152-5.628-1.244
			c-2.091-0.092-3.999,0.107-5.72,0.6c-0.185,0.184-0.369,0.369-0.553,0.553c-0.185,0.186-0.369,0.34-0.554,0.461
			c-0.738,0.738-1.568,1.199-2.491,1.385c-0.922,0.184-1.815,0.17-2.675-0.047c-0.862-0.215-1.646-0.645-2.353-1.291
			c-0.708-0.646-1.215-1.461-1.522-2.445c-0.431-1.229-0.631-2.537-0.6-3.92c0.03-1.384,0.014-2.69-0.046-3.92
			c-0.062-0.923-0.092-1.859-0.092-2.814c0-0.952-0.032-1.921-0.092-2.905c0-0.185,0-0.6,0-1.245c0-0.646-0.016-1.322-0.046-2.03
			c-0.032-0.706-0.062-1.397-0.092-2.075c-0.032-0.676-0.046-1.168-0.046-1.477c-0.554-0.613-0.938-1.321-1.153-2.121
			c-0.216-0.799-0.277-1.599-0.185-2.398c0.092-0.799,0.337-1.553,0.738-2.261c0.399-0.706,0.968-1.306,1.707-1.799
			c1.045-0.738,2.229-1.106,3.552-1.106c1.322,0,2.597,0,3.828,0c0.738,0,1.906-0.015,3.506-0.047
			c1.598-0.03,3.243-0.061,4.935-0.092c1.691-0.03,3.259-0.061,4.705-0.093c1.444-0.03,2.353-0.046,2.721-0.046
			c1.6-0.061,2.921-0.169,3.967-0.322c1.045-0.153,2.184,0.016,3.414,0.507c1.107,0.369,1.983,0.984,2.629,1.845
			c0.646,0.862,1.029,1.799,1.153,2.814c0.122,1.015,0,2.015-0.369,2.998c-0.369,0.984-1.046,1.814-2.029,2.49
			c-1.292,0.923-2.784,1.384-4.474,1.384c-1.693,0-3.246,0-4.659,0c-2.092,0.062-4.167,0.078-6.227,0.046
			c-2.062-0.03-4.137-0.014-6.227,0.047c0,1.354,0.015,2.69,0.046,4.013c0.03,1.323,0.077,2.661,0.139,4.013
			c1.476-0.307,2.982-0.491,4.52-0.554c1.537-0.061,3.044,0.032,4.52,0.277c1.661,0.309,3.229,0.77,4.705,1.384
			c1.477,0.615,2.952,1.384,4.428,2.306c1.783,1.107,3.29,2.522,4.521,4.244c1.229,1.723,2.213,3.568,2.951,5.535
			c0.923,2.461,1.307,4.875,1.153,7.242c-0.154,2.367-0.724,4.611-1.706,6.734c-0.984,2.121-2.322,4.059-4.014,5.811
			c-1.691,1.754-3.583,3.199-5.674,4.336c-2.091,1.139-4.32,1.953-6.688,2.445c-2.368,0.492-4.751,0.521-7.149,0.092
			c-4.244-0.738-8.272-2.307-12.085-4.705L126.213,209.181z"/>
	</g>
	<g clip-path="url(#SVGID_2_)" enable-background="new    ">
		<path fill="#999999" d="M164.833,149.209c-0.224-0.261-0.374-0.574-0.448-0.938c-0.074-0.364-0.065-0.704,0.028-1.021
			c0.093-0.317,0.271-0.574,0.532-0.77c0.261-0.196,0.605-0.266,1.035-0.21c0.447,0.074,0.867,0.247,1.26,0.518
			c0.391,0.271,0.746,0.564,1.062,0.882c0.037-0.205,0.07-0.41,0.099-0.616c0.028-0.205,0.042-0.316,0.042-0.336
			c0.074-0.373,0.158-0.755,0.252-1.147c0.093-0.392,0.27-0.736,0.531-1.035c0.205-0.242,0.457-0.406,0.756-0.489
			c0.299-0.084,0.588-0.094,0.867-0.028c0.28,0.065,0.532,0.2,0.756,0.405c0.225,0.206,0.364,0.477,0.42,0.812
			c0.094,0.542,0.094,1.068,0,1.582c-0.094,0.513-0.224,1.021-0.392,1.525c0.056-0.037,0.126-0.079,0.21-0.126
			s0.172-0.099,0.266-0.154c0.262-0.149,0.527-0.294,0.798-0.434s0.555-0.257,0.854-0.35c0.336-0.094,0.667-0.084,0.993,0.027
			c0.326,0.112,0.592,0.29,0.798,0.532c0.205,0.242,0.331,0.522,0.378,0.839c0.047,0.318-0.033,0.645-0.238,0.98
			c-0.094,0.149-0.247,0.317-0.461,0.503c-0.215,0.188-0.463,0.374-0.742,0.561s-0.578,0.363-0.896,0.531s-0.616,0.308-0.896,0.42
			c0.392,0.447,0.718,0.877,0.979,1.287c0.168,0.262,0.237,0.551,0.21,0.868c-0.028,0.317-0.121,0.606-0.279,0.867
			c-0.159,0.262-0.369,0.467-0.631,0.616s-0.559,0.187-0.895,0.111c-0.486-0.093-0.971-0.358-1.456-0.798
			c-0.485-0.438-0.886-0.899-1.203-1.385c-0.374,0.467-0.835,0.896-1.386,1.287s-1.087,0.606-1.609,0.644
			c-0.43,0.038-0.783-0.042-1.062-0.237c-0.28-0.196-0.477-0.448-0.588-0.756c-0.112-0.308-0.137-0.639-0.07-0.993
			c0.064-0.354,0.219-0.672,0.462-0.952c0.224-0.261,0.471-0.504,0.741-0.728s0.536-0.438,0.798-0.644L164.833,149.209z"/>
	</g>
</g>
</svg>
