<?xml version="1.0" encoding="utf-8"?>
<!-- Generator: Adobe Illustrator 16.0.0, SVG Export Plug-In . SVG Version: 6.00 Build 0)  -->
<!DOCTYPE svg PUBLIC "-//W3C//DTD SVG 1.1//EN" "http://www.w3.org/Graphics/SVG/1.1/DTD/svg11.dtd">
<svg version="1.1" id="Layer_1" xmlns="http://www.w3.org/2000/svg" xmlns:xlink="http://www.w3.org/1999/xlink" x="0px" y="0px"
	  viewBox="0 0 301 98.467" enable-background="new 0 0 301 98.467" xml:space="preserve">
<g>
	<rect x="0.5" y="0.5" fill="#FFFFFF" width="300" height="97.467"/>
	<path fill="none" stroke="#1C181B" d="M300.5,97.967 M0.5,97.967h300V0.5H0.5V97.967z"/>
	<rect x="98.847" y="7.665" fill="#E21F26" width="192.417" height="82.984"/>
	<polyline fill="#FFFFFF" points="113.065,17.091 118.842,17.091 129.876,34.829 129.953,34.829 129.953,17.091 135.396,17.091
		135.396,43.531 129.58,43.531 118.583,25.831 118.51,25.831 118.51,43.531 113.065,43.531 	"/>
	<path fill="#FFFFFF" d="M149.242,23.868c6.035,0,9.925,3.999,9.925,10.108c0,6.073-3.89,10.071-9.925,10.071
		c-5.998,0-9.887-3.998-9.887-10.071C139.355,27.867,143.244,23.868,149.242,23.868 M149.242,40.086c3.593,0,4.666-3.072,4.666-6.11
		c0-3.072-1.073-6.146-4.666-6.146c-3.555,0-4.629,3.073-4.629,6.146C144.613,37.014,145.688,40.086,149.242,40.086"/>
	<path fill="#FFFFFF" d="M116.583,71.694c0.037,2.295,1.965,3.221,4.036,3.221c1.519,0,3.443-0.592,3.443-2.443
		c0-1.594-2.185-2.146-5.959-2.963c-3.036-0.667-6.073-1.741-6.073-5.108c0-4.888,4.221-6.148,8.332-6.148
		c4.185,0,8.032,1.408,8.44,6.111h-4.999c-0.148-2.037-1.703-2.594-3.592-2.594c-1.183,0-2.925,0.223-2.925,1.777
		c0,1.889,2.964,2.148,5.962,2.852c3.071,0.703,6.072,1.813,6.072,5.368c0,5.036-4.369,6.666-8.736,6.666
		c-4.445,0-8.775-1.666-9.001-6.738"/>
	<path fill="#FFFFFF" d="M132.542,58.768h4.962v2.594h0.074c1.371-1.963,3.37-3.11,5.851-3.11c2.408,0,4.556,0.889,5.592,3.186
		c1.111-1.667,3.11-3.186,5.776-3.186c4.073,0,6.999,1.889,6.999,6.85v12.812h-5.259v-10.85c0-2.555-0.222-4.664-3.222-4.664
		c-2.962,0-3.517,2.443-3.517,4.851v10.663h-5.259V67.175c0-2.221,0.147-4.775-3.186-4.775c-1.035,0-3.554,0.666-3.554,4.406v11.107
		h-5.259"/>
	<path fill="#FFFFFF" d="M175.238,58.251c6.033,0,9.924,3.998,9.924,10.109c0,6.073-3.891,10.071-9.924,10.071
		c-6,0-9.888-3.998-9.888-10.071C165.351,62.25,169.238,58.251,175.238,58.251 M175.238,74.469c3.591,0,4.665-3.07,4.665-6.108
		c0-3.074-1.074-6.146-4.665-6.146c-3.555,0-4.629,3.072-4.629,6.146C170.609,71.399,171.684,74.469,175.238,74.469"/>
	<polyline fill="#FFFFFF" points="189.049,51.474 194.306,51.474 194.306,65.658 200.936,58.768 207.155,58.768 199.937,65.804
		207.969,77.914 201.602,77.914 196.343,69.361 194.306,71.321 194.306,77.914 189.049,77.914 	"/>
	<path fill="#FFFFFF" d="M215.227,55.809h-5.256v-4.335h5.256V55.809z M209.971,58.768h5.256v19.146h-5.256V58.768z"/>
	<path fill="#FFFFFF" d="M219.375,58.768h5v2.669h0.109c1.333-2.147,3.632-3.186,5.853-3.186c5.589,0,6.997,3.146,6.997,7.889
		v11.773h-5.257V67.101c0-3.146-0.926-4.701-3.369-4.701c-2.853,0-4.074,1.592-4.074,5.48v10.033h-5.259"/>
	<path fill="#FFFFFF" d="M259.736,76.694c0,3.146-1.114,8.478-9.924,8.478c-3.776,0-8.183-1.777-8.441-6.148h5.22
		c0.484,1.963,2.074,2.631,3.924,2.631c2.925,0,4.257-2,4.224-4.737v-2.521h-0.074c-1.147,1.999-3.444,2.965-5.742,2.965
		c-5.737,0-8.181-4.369-8.181-9.629c0-4.962,2.852-9.479,8.219-9.479c2.521,0,4.445,0.853,5.704,3.074h0.074v-2.558h4.998
		 M254.738,68.103c0-3.113-1.077-5.889-4.481-5.889c-2.961,0-4.257,2.593-4.257,5.444c0,2.738,1.036,5.739,4.257,5.739
		C253.258,73.398,254.738,70.84,254.738,68.103"/>
	<g>
		<polyline fill="none" stroke="#000000" stroke-width="2.9234" stroke-miterlimit="2.6131" points="41.498,71.239 77.354,46.993
			73.824,41.778 37.971,66.024 		"/>
		<path fill="none" stroke="#000000" stroke-width="2.297" stroke-miterlimit="2.6131" d="M40.688,73.418l-5.087-7.524
			 M37.917,75.294l-5.089-7.525"/>
		<path fill="none" stroke="#000000" stroke-width="2.0882" stroke-miterlimit="2.6131" d="M24.622,42.23
			c0.936,1.314,0.411,3.117-0.812,4.182c-0.43,0.375-0.39,0.403-0.795,0.746c-2.932,2.49-1.079,5.698,0.583,6.199
			c1.254,0.378,1.913,0.165,4.036-0.184c1.743-0.287,2.81,0.243,3.551,1.434c0.82,1.312-0.337,3.093-0.614,5.169
			c-0.126,0.95-0.32,1.657-0.069,2.74c0.095,0.589,0.77,2.844,1.917,4.474 M30.942,38.172c0.953,1.374,0.664,4.267-0.71,5.127
			c-0.483,0.302-0.448,0.335-0.903,0.611c-3.286,1.997-1.958,5.458-0.395,6.213c1.179,0.57,2.058,0.374,4.204,0.222
			c2.385-0.171,3.156,0.31,3.899,1.499c1.236,1.975,0.105,3.747-1.444,5.4c-0.753,0.801-1.08,1.271-1.382,3.219
			c-0.202,1.41-0.07,2.957,1.078,4.587"/>
		<path fill-rule="evenodd" clip-rule="evenodd" fill="#E12027" d="M91.321,49.416l-0.061-1.865l-0.12-1.865l-0.211-1.833
			l-0.301-1.834l-0.36-1.834l-0.45-1.805l-0.541-1.772l-0.603-1.746l-0.691-1.743l-0.782-1.685L86.36,29.78l-0.902-1.624
			l-0.993-1.563l-1.083-1.534l-1.111-1.472l-1.202-1.444l-1.234-1.353l-1.323-1.323l-1.383-1.263l-1.413-1.173l-1.474-1.142
			l-1.532-1.054l-1.594-0.992l-1.594-0.901l-1.655-0.873l-1.713-0.752l-1.714-0.692l-1.774-0.63l-1.773-0.511l-1.804-0.48
			l-1.805-0.362l-1.835-0.299L53.584,8.13L51.75,8.011L49.885,7.98l-1.864,0.031L46.157,8.13l-1.834,0.211l-1.835,0.299
			l-1.834,0.362l-1.804,0.48l-1.774,0.511l-1.744,0.63l-1.743,0.692l-1.685,0.752l-1.654,0.873l-1.623,0.901l-1.564,0.992
			l-1.533,1.054l-1.474,1.142l-1.443,1.173l-1.353,1.263l-1.324,1.323l-1.263,1.353l-1.203,1.444l-1.113,1.472l-1.051,1.534
			l-0.994,1.563l-0.932,1.624l-0.841,1.653l-0.753,1.685l-0.691,1.743l-0.631,1.746l-0.542,1.772l-0.451,1.805l-0.361,1.834
			l-0.301,1.834L8.6,45.685L8.48,47.55l-0.03,1.865l0.03,1.865l0.12,1.833l0.21,1.865l0.301,1.834l0.361,1.834l0.451,1.774
			l0.542,1.803l0.631,1.744l0.691,1.715l0.753,1.715l0.841,1.653l0.932,1.622l0.994,1.565l1.051,1.534l1.113,1.472l1.203,1.444
			l1.263,1.353l1.324,1.323l1.353,1.264l1.443,1.172l1.474,1.142l1.533,1.054l1.564,0.992l1.623,0.901l1.654,0.873l1.685,0.752
			l1.743,0.691l1.744,0.631l1.774,0.511l1.804,0.45l1.834,0.392l1.835,0.271l1.834,0.209l1.864,0.15l1.864,0.031l1.865-0.031
			l1.834-0.15l1.864-0.209l1.835-0.271l1.805-0.392l1.804-0.45l1.773-0.511l1.774-0.631l1.714-0.691l1.713-0.752l1.655-0.873
			l1.594-0.901l1.594-0.992l1.532-1.054l1.474-1.142l1.413-1.172l1.383-1.264l1.323-1.323l1.234-1.353l1.202-1.444l1.111-1.472
			l1.083-1.534l0.993-1.565l0.902-1.622l0.841-1.653l0.782-1.715l0.691-1.715l0.603-1.744l0.541-1.803l0.45-1.774l0.36-1.834
			l0.301-1.834l0.211-1.865l0.12-1.833L91.321,49.416L91.321,49.416z M75.536,70.405l1.052-1.323l0.961-1.385l0.903-1.443
			l0.78-1.473l0.752-1.503l0.661-1.534l0.602-1.562l0.512-1.625l0.421-1.624l0.331-1.653l0.239-1.653l0.182-1.684l0.09-1.653v-1.685
			l-0.09-1.685l-0.149-1.683l-0.271-1.653l-0.331-1.656l-0.421-1.622l-0.512-1.594l-0.57-1.594l-0.663-1.534l-0.75-1.503
			l-0.812-1.476l-0.872-1.44l-0.963-1.385l-1.054-1.322l-1.081-1.263l-1.172-1.232l-1.204-1.144l-1.292-1.113l-1.322-1.021
			l-1.385-0.964l-1.412-0.871l-1.475-0.844l-1.504-0.721l-1.563-0.661l-1.562-0.602l-1.594-0.48l-1.654-0.421l-1.624-0.361
			l-1.684-0.24l-1.655-0.181l-1.682-0.059h-1.684l-1.685,0.059l-1.684,0.181l-1.653,0.271l-1.654,0.331l-1.623,0.421l-1.594,0.511
			l-1.564,0.571l-1.564,0.692l-1.503,0.721l-1.474,0.813l-1.413,0.902l-1.383,0.961l-1.324,1.022L75.536,70.405L75.536,70.405z
			 M70.874,75.065L24.207,28.426l-1.053,1.354l-0.962,1.354l-0.872,1.443l-0.811,1.473l-0.753,1.503l-0.661,1.534l-0.601,1.594
			l-0.481,1.594l-0.421,1.624l-0.36,1.653l-0.242,1.653l-0.18,1.684l-0.09,1.685v1.684l0.09,1.654l0.18,1.683l0.242,1.653
			l0.36,1.656l0.391,1.622l0.511,1.624l0.601,1.563l0.661,1.534l0.722,1.503l0.842,1.503l0.872,1.413l0.962,1.385l1.023,1.322
			l1.112,1.263l1.143,1.232l1.233,1.144l1.263,1.111l1.322,1.022l1.383,0.964l1.444,0.901l1.474,0.811l1.502,0.724l1.533,0.661
			l1.594,0.603l1.594,0.48l1.625,0.42l1.653,0.331l1.655,0.271l1.683,0.18l1.684,0.061h1.684l1.684-0.091l1.654-0.149l1.653-0.271
			l1.654-0.331l1.623-0.42l1.624-0.513l1.563-0.602l1.535-0.661l1.503-0.721l1.472-0.842l1.443-0.873l1.384-0.961L70.874,75.065
			L70.874,75.065z"/>
	</g>
</g>
</svg>
