<?xml version="1.0" encoding="utf-8"?>
<!-- Generator: Adobe Illustrator 16.0.0, SVG Export Plug-In . SVG Version: 6.00 Build 0)  -->
<!DOCTYPE svg PUBLIC "-//W3C//DTD SVG 1.1//EN" "http://www.w3.org/Graphics/SVG/1.1/DTD/svg11.dtd">
<svg version="1.1" id="Layer_1" xmlns="http://www.w3.org/2000/svg" xmlns:xlink="http://www.w3.org/1999/xlink" x="0px" y="0px"
	 width="194.334px" height="291px" viewBox="0 0 194.334 291" enable-background="new 0 0 194.334 291" xml:space="preserve">
<g>
	<g>
		<polyline fill="none" stroke="#000000" stroke-width="5.6711" stroke-miterlimit="2.6131" points="80.896,130.466 150.45,83.431 
			143.606,73.314 74.053,120.349 		"/>
		<path fill="none" stroke="#000000" stroke-width="4.456" stroke-miterlimit="2.6131" d="M79.324,134.695l-9.868-14.597
			 M73.948,138.333l-9.871-14.597"/>
		<path fill="none" stroke="#000000" stroke-width="4.0508" stroke-miterlimit="2.6131" d="M48.158,74.191
			c1.816,2.55,0.797,6.048-1.576,8.112c-0.834,0.727-0.757,0.782-1.543,1.448c-5.688,4.831-2.093,11.054,1.132,12.026
			c2.433,0.731,3.71,0.321,7.83-0.356c3.379-0.556,5.448,0.472,6.887,2.781c1.591,2.545-0.654,5.998-1.19,10.026
			c-0.246,1.844-0.621,3.216-0.135,5.316c0.185,1.143,1.493,5.517,3.72,8.679 M60.419,66.319c1.849,2.666,1.288,8.278-1.378,9.947
			c-0.937,0.586-0.869,0.651-1.751,1.187c-6.376,3.874-3.799,10.588-0.767,12.051c2.287,1.108,3.993,0.727,8.155,0.431
			c4.626-0.33,6.123,0.602,7.562,2.906c2.398,3.833,0.206,7.271-2.8,10.478c-1.462,1.554-2.095,2.465-2.682,6.244
			c-0.391,2.735-0.136,5.737,2.092,8.899"/>
		<path fill-rule="evenodd" clip-rule="evenodd" fill="#ED1C24" d="M177.548,88.131l-0.117-3.618l-0.233-3.618l-0.408-3.558
			l-0.583-3.557l-0.699-3.558l-0.874-3.502l-1.05-3.438l-1.168-3.387l-1.341-3.382l-1.518-3.267l-1.632-3.206l-1.75-3.152
			l-1.928-3.031l-2.1-2.977l-2.156-2.856l-2.333-2.8l-2.393-2.625l-2.567-2.566l-2.684-2.45l-2.74-2.275l-2.858-2.214l-2.974-2.045
			l-3.093-1.924l-3.09-1.749l-3.21-1.693l-3.325-1.459l-3.325-1.343l-3.442-1.222l-3.439-0.992l-3.5-0.933l-3.499-0.701
			l-3.561-0.582l-3.616-0.411l-3.557-0.23l-3.618-0.06L93.55,7.81l-3.615,0.23l-3.557,0.411l-3.562,0.582l-3.558,0.701l-3.499,0.933
			l-3.443,0.992l-3.381,1.222l-3.383,1.343l-3.268,1.459l-3.209,1.693l-3.149,1.749l-3.034,1.924l-2.974,2.045l-2.858,2.214
			l-2.801,2.275l-2.623,2.45l-2.568,2.566l-2.45,2.625l-2.332,2.8l-2.16,2.856l-2.04,2.977l-1.926,3.031l-1.81,3.152l-1.63,3.206
			l-1.461,3.267l-1.34,3.382l-1.226,3.387l-1.05,3.438l-0.874,3.502l-0.702,3.558l-0.583,3.557l-0.409,3.558l-0.232,3.618
			l-0.058,3.618l0.058,3.617l0.232,3.557l0.409,3.619l0.583,3.557l0.702,3.558l0.874,3.442l1.05,3.497l1.226,3.383l1.34,3.327
			l1.461,3.327l1.63,3.207l1.81,3.147l1.926,3.037l2.04,2.976l2.16,2.856l2.332,2.801l2.45,2.625l2.568,2.565l2.623,2.451
			l2.801,2.274l2.858,2.215l2.974,2.044l3.034,1.924l3.149,1.749l3.209,1.693l3.268,1.458l3.383,1.344l3.381,1.222l3.443,0.992
			l3.499,0.872l3.558,0.762l3.562,0.525l3.557,0.406l3.615,0.291l3.617,0.061l3.618-0.061l3.557-0.291l3.616-0.406l3.561-0.525
			l3.499-0.762l3.5-0.872l3.439-0.992l3.442-1.222l3.325-1.344l3.325-1.458l3.21-1.693l3.09-1.749l3.093-1.924l2.974-2.044
			l2.858-2.215l2.74-2.274l2.684-2.451l2.567-2.565l2.393-2.625l2.333-2.801l2.156-2.856l2.1-2.976l1.928-3.037l1.75-3.147
			l1.632-3.207l1.518-3.327l1.341-3.327l1.168-3.383l1.05-3.497l0.874-3.442l0.699-3.558l0.583-3.557l0.408-3.619l0.233-3.557
			L177.548,88.131L177.548,88.131z M146.925,128.848l2.043-2.565l1.864-2.686l1.751-2.801l1.515-2.856l1.459-2.916l1.282-2.976
			l1.168-3.031l0.991-3.151l0.817-3.152l0.641-3.207l0.467-3.207l0.351-3.267l0.176-3.207v-3.267l-0.176-3.267l-0.291-3.267
			l-0.526-3.207l-0.641-3.211l-0.817-3.147l-0.991-3.092l-1.108-3.092l-1.284-2.976l-1.457-2.916l-1.574-2.862l-1.691-2.795
			l-1.867-2.685l-2.044-2.566l-2.1-2.45l-2.271-2.39l-2.335-2.219l-2.508-2.16l-2.565-1.979l-2.687-1.869l-2.737-1.689l-2.862-1.638
			l-2.916-1.398l-3.033-1.283l-3.032-1.168l-3.091-0.932l-3.209-0.817l-3.15-0.701l-3.267-0.466l-3.209-0.351l-3.265-0.115h-3.267
			l-3.268,0.115l-3.268,0.351l-3.206,0.526l-3.209,0.641l-3.148,0.817l-3.093,0.992l-3.034,1.107l-3.034,1.342l-2.916,1.398
			l-2.858,1.578l-2.74,1.75l-2.684,1.864l-2.568,1.984L146.925,128.848L146.925,128.848z M137.884,137.887L47.352,47.414
			l-2.042,2.626l-1.866,2.625l-1.692,2.801l-1.572,2.856l-1.461,2.916l-1.282,2.976l-1.165,3.092l-0.935,3.092l-0.817,3.151
			l-0.699,3.207l-0.469,3.207l-0.348,3.267l-0.176,3.266v3.268l0.176,3.207l0.348,3.267l0.469,3.208l0.699,3.211l0.76,3.147
			l0.992,3.151l1.165,3.032l1.282,2.976l1.4,2.916l1.633,2.917l1.692,2.742l1.866,2.685l1.983,2.566l2.157,2.45l2.218,2.39
			l2.393,2.22l2.449,2.155l2.566,1.984l2.683,1.868l2.802,1.75l2.858,1.573l2.916,1.403l2.974,1.283l3.092,1.167l3.092,0.933
			l3.151,0.816l3.207,0.642l3.21,0.525l3.265,0.351l3.267,0.115h3.267l3.268-0.175l3.209-0.291l3.206-0.525l3.21-0.642l3.148-0.816
			l3.149-0.993l3.034-1.167l2.978-1.282l2.915-1.398l2.856-1.633l2.801-1.694l2.684-1.864L137.884,137.887L137.884,137.887z"/>
	</g>
	<rect x="0.5" y="0.5" fill="none" stroke="#231F20" stroke-miterlimit="10" width="193.334" height="290"/>
	<rect x="7.75" y="178.82" fill="#ED1C24" width="178.834" height="104.43"/>
	<g>
		<g>
			<polyline fill="#FFFFFF" points="71.567,193.229 77.982,193.229 90.237,212.929 90.322,212.929 90.322,193.229 96.368,193.229 
				96.368,222.593 89.909,222.593 77.693,202.936 77.612,202.936 77.612,222.593 71.567,222.593 			"/>
			<path fill="#FFFFFF" d="M111.745,200.755c6.702,0,11.022,4.442,11.022,11.227c0,6.746-4.32,11.187-11.022,11.187
				c-6.661,0-10.979-4.44-10.979-11.187C100.766,205.197,105.084,200.755,111.745,200.755 M111.745,218.767
				c3.991,0,5.182-3.411,5.182-6.785c0-3.411-1.19-6.825-5.182-6.825c-3.948,0-5.142,3.414-5.142,6.825
				C106.604,215.355,107.797,218.767,111.745,218.767"/>
		</g>
		<g>
			<path fill="#FFFFFF" d="M20.45,253.871c0.04,2.55,2.182,3.577,4.481,3.577c1.688,0,3.824-0.656,3.824-2.714
				c0-1.77-2.426-2.384-6.618-3.29c-3.372-0.74-6.744-1.934-6.744-5.674c0-5.428,4.687-6.828,9.253-6.828
				c4.647,0,8.921,1.563,9.375,6.787h-5.553c-0.165-2.263-1.892-2.88-3.988-2.88c-1.313,0-3.249,0.247-3.249,1.974
				c0,2.097,3.292,2.387,6.62,3.167c3.413,0.78,6.745,2.014,6.745,5.961c0,5.594-4.853,7.404-9.703,7.404
				c-4.938,0-9.746-1.851-9.996-7.484"/>
			<path fill="#FFFFFF" d="M38.174,239.517h5.511v2.88h0.083c1.521-2.181,3.742-3.454,6.497-3.454c2.674,0,5.06,0.987,6.209,3.537
				c1.235-1.851,3.456-3.537,6.416-3.537c4.523,0,7.773,2.097,7.773,7.607v14.229h-5.84V248.73c0-2.837-0.247-5.181-3.577-5.181
				c-3.291,0-3.907,2.714-3.907,5.388v11.842h-5.841v-11.925c0-2.468,0.165-5.305-3.537-5.305c-1.149,0-3.947,0.739-3.947,4.894
				v12.336h-5.84"/>
			<path fill="#FFFFFF" d="M85.592,238.942c6.701,0,11.021,4.44,11.021,11.229c0,6.743-4.32,11.185-11.021,11.185
				c-6.663,0-10.981-4.441-10.981-11.185C74.61,243.383,78.929,238.942,85.592,238.942 M85.592,256.955
				c3.987,0,5.181-3.411,5.181-6.784c0-3.414-1.193-6.828-5.181-6.828c-3.947,0-5.141,3.414-5.141,6.828
				C80.451,253.544,81.645,256.955,85.592,256.955"/>
			<polyline fill="#FFFFFF" points="100.931,231.416 106.769,231.416 106.769,247.167 114.132,239.517 121.039,239.517 
				113.022,247.331 121.943,260.779 114.872,260.779 109.031,251.28 106.769,253.457 106.769,260.779 100.931,260.779 			"/>
			<path fill="#FFFFFF" d="M130.004,236.229h-5.837v-4.812h5.837V236.229z M124.167,239.517h5.837v21.263h-5.837V239.517z"/>
			<path fill="#FFFFFF" d="M134.61,239.517h5.555v2.963h0.12c1.48-2.384,4.034-3.537,6.501-3.537c6.207,0,7.771,3.494,7.771,8.762
				v13.075h-5.838v-12.009c0-3.494-1.029-5.221-3.743-5.221c-3.167,0-4.523,1.767-4.523,6.087v11.143h-5.842"/>
			<path fill="#FFFFFF" d="M179.437,259.425c0,3.493-1.236,9.415-11.021,9.415c-4.193,0-9.088-1.975-9.375-6.828h5.798
				c0.536,2.181,2.304,2.921,4.357,2.921c3.248,0,4.728-2.221,4.69-5.262v-2.8h-0.083c-1.273,2.221-3.824,3.294-6.377,3.294
				c-6.371,0-9.085-4.854-9.085-10.695c0-5.51,3.167-10.527,9.127-10.527c2.8,0,4.938,0.947,6.335,3.414h0.083v-2.84h5.551
				 M173.886,249.884c0-3.457-1.196-6.541-4.978-6.541c-3.287,0-4.728,2.881-4.728,6.047c0,3.042,1.15,6.375,4.728,6.375
				C172.242,255.765,173.886,252.924,173.886,249.884"/>
		</g>
	</g>
</g>
</svg>
