<?xml version="1.0" encoding="utf-8"?>
<!-- Generator: Adobe Illustrator 24.0.0, SVG Export Plug-In . SVG Version: 6.00 Build 0)  -->
<svg version="1.1" id="Layer_1" xmlns="http://www.w3.org/2000/svg" xmlns:xlink="http://www.w3.org/1999/xlink" x="0px" y="0px"
	 viewBox="0 0 210 80" style="enable-background:new 0 0 210 80;" xml:space="preserve">
<style type="text/css">
	.st0{fill:#FFFFFF;}
	.st1{fill:#FED01A;}
	.st2{fill:#E30D13;}
	.st3{fill:#313131;}
</style>
<path class="st0" d="M126.7,63.4c-0.1-8.7-7.3-15.7-16-15.7c-8.3,0-15.2,6.4-15.9,14.6c0,0.5-0.1,1-0.1,1.4c0,8.8,7.2,16,16,16
	s16-7.2,16-16C126.7,63.6,126.7,63.5,126.7,63.4z"/>
<path class="st1" d="M16.3,46.5c-2.3,0-4.6-0.3-6.9-1c-2.1-0.6-4.3-1.6-6.4-2.8l3.6-9.3c1.6,1.1,3.1,2,4.4,2.5c1.5,0.7,3,1,4.4,1
	c1.1,0,1.9-0.2,2.5-0.7c0.7-0.5,1.1-1.2,1.1-2.1c0-2.2-3.3-2.9-4.4-3.1l-2-0.4c-2-0.5-3.6-1.4-4.9-2.5L7.6,28l-0.2-0.2
	c-0.2-0.2-0.4-0.4-0.6-0.7c-1.3-1.6-2-3.7-2-6.2c0-3.9,1.3-7.1,3.9-9.6s6.2-3.7,10.5-3.7c2,0,4,0.3,5.9,0.8c1.8,0.5,3.6,1.3,5.4,2.2
	l-3.4,8.6c-1.1-0.7-2.1-1.3-3.2-1.8c-1.3-0.5-2.7-0.8-3.9-0.8c-1.1,0-1.9,0.2-2.5,0.6c-0.7,0.5-1.1,1.1-1.1,2c0,1.5,1.9,2.6,6,3.6
	l1.3,0.3c2.3,0.5,4.2,1.7,5.5,3.4c0.7,0.9,1.3,2,1.6,3.2l0.1,0.3c0.2,0.9,0.3,1.8,0.3,2.7c0,4-1.4,7.4-4.1,9.9
	C24.3,45.2,20.7,46.5,16.3,46.5L16.3,46.5L16.3,46.5z"/>
<path class="st1" d="M77.7,8.3h22.8v8.9c-2.6,0-11.2,0-11.2,0v6h10.1v8.4c-2.4,0-10.1,0-10.1,0s0,10.7,0,13.7H77.7L77.7,8.3z"/>
<path class="st1" d="M103.7,8.2h22.8v8.9c-2.6,0-11.5,0-11.5,0v5.2c0,0,7.9,0,10.4,0v8.4H115v5.6c0,0,9.1,0,11.8,0v8.9h-23.1
	L103.7,8.2z"/>
<path class="st1" d="M136.8,19.3h-7.2V8.1l26-0.1v11.2c-1.9,0-7.2,0-7.2,0v25.9h-11.5L136.8,19.3z"/>
<path class="st1" d="M170.5,28.6L158.9,8.1H172l2.9,7c0.3,0.6,0.6,1.5,0.9,2.6l0.8,2.7l0.9-2.7c0.2-0.6,0.4-1.3,0.8-2.2l0.2-0.4
	l2.8-7h13c-2.8,4.7-12,20.6-12,20.6v16.5h-11.6L170.5,28.6z"/>
<path class="st0" d="M66.3,31.1c-5-8.6-10.7-18.6-12.4-21.6c-2.1,3.7-10.2,17.8-10.2,17.8S43,28.5,42,30.2c-2.5,4.3-7,12.2-8.5,14.8
	c4.2,0,36.7,0,40.8,0C73.4,43.4,70.1,37.6,66.3,31.1z"/>
<path class="st0" d="M38.9,64h4.5l-1,5c-0.1,0.5,0.2,0.7,0.8,0.7s1-0.2,1.1-0.8l0.5-2.6c0.2-0.8-0.2-1.7-1.1-2.8
	c-1.7-2-2.8-3.3-3.2-4s-0.5-1.4-0.3-2.2l0.5-2.3c0.6-2.8,2.8-4.2,6.6-4.2c3.4,0,4.9,1.3,4.4,3.8l-0.8,3.7h-4.5l0.8-4
	c0.1-0.4-0.1-0.6-0.6-0.6c-0.6,0-1,0.4-1.2,1.2l-0.2,1.4c-0.2,0.8,0.2,1.7,1.1,2.8c1.7,1.9,2.8,3.2,3.2,4s0.5,1.6,0.3,2.6l-0.6,2.8
	c-0.6,2.9-2.8,4.3-6.6,4.3c-3.7,0-5.3-1.3-4.8-3.9L38.9,64z"/>
<polygon class="st0" points="53.9,72.6 49.4,72.6 53,55.1 57.5,55.1 "/>
<path class="st2" d="M82.6,43.3l-6.7-11.7L59.5,3.3c-1.2-2-3.3-3.3-5.6-3.3s-4.5,1.2-5.6,3.3c0,0-11.9,20.6-12,20.9l-3.6,6
	l-7.6,13.1c-0.6,1-0.9,2.1-0.9,3.3c0,1.1,0.3,2.3,0.9,3.3c1.2,2,3.3,3.3,5.6,3.3h9.6c0.9-1.7,2.9-3.2,7-3.2c2.3,0,3.8,0.5,4.7,1.6
	c0.2,0.3,0.4,0.5,0.5,0.9l0.5-2.2h6.5l-0.6,3h1.3H77c2.3,0,4.5-1.2,5.6-3.3C83.8,47.8,83.8,45.3,82.6,43.3z M37.6,23.8L37.6,23.8
	C37.6,23.7,37.6,23.7,37.6,23.8C37.6,23.7,37.6,23.7,37.6,23.8L37.6,23.8L37.6,23.8L37.6,23.8z M33.5,45c1.5-2.6,6-10.4,8.5-14.8
	c1-1.8,1.7-2.9,1.7-2.9s8.1-14.1,10.2-17.7c1.7,3,7.5,12.9,12.4,21.6c3.7,6.5,7.1,12.3,8,13.8C70.1,45,37.6,45,33.5,45z"/>
<polygon class="st0" points="57.7,54.1 53.2,54.1 53.8,51 58.3,51 "/>
<path class="st0" d="M54.9,76.3l0.5-2.6h3.7c1.1,0,1.7-0.5,1.9-1.5c-0.7,0.4-1.6,0.6-2.9,0.6c-0.9,0-1.6-0.2-2.2-0.7
	c-0.6-0.4-0.8-1-0.6-1.8l2.5-12.6c0.4-1.9,1.8-2.9,4.2-2.9c0.6,0,1.4,0.3,2.3,0.8l0.7-0.7h3.9l-3.5,17.3c-0.2,1.1-0.7,2.1-1.3,2.8
	c-0.6,0.8-2.2,1.1-4.6,1.1L54.9,76.3L54.9,76.3z M61.5,69.5l2.2-11c0.1-0.5-0.1-0.8-0.6-0.8s-0.8,0.3-1,0.8l-2.2,11
	c-0.1,0.5,0.1,0.8,0.6,0.8C61.1,70.3,61.4,70,61.5,69.5z"/>
<path class="st0" d="M76.9,72.6h-4.5l2.8-14.1c0.1-0.5-0.1-0.8-0.6-0.8s-0.9,0.3-1,0.9l-2.8,14.1h-4.5l3.5-17.5h4.5l-0.1,0.6
	c0.7-0.5,1.7-0.7,2.9-0.7c0.8,0,1.5,0.2,2.1,0.6c0.6,0.4,0.8,1,0.7,1.9L76.9,72.6z"/>
<path class="st0" d="M79.2,65.6h4.5L83,69.3c-0.1,0.6,0.1,0.9,0.6,0.9s0.9-0.6,1.1-1.7c0.3-1.5,0.2-2.4-0.4-2.9
	c-2.1-1.2-3.3-2-3.7-2.5c-0.4-0.5-0.5-1.2-0.3-2.1l0.5-2.4c0.5-2.5,2.5-3.7,6-3.7c3.4,0,4.8,1.2,4.4,3.6L90.4,62H86l0.5-2.1
	c0.3-1.5,0.2-2.2-0.4-2.2s-0.9,0.5-1.1,1.4s-0.2,1.7-0.1,2.1c0.1,0.5,1.3,1.3,3.6,2.5c0.9,0.7,1.2,1.7,1,2.8L89,69.1
	c-0.5,2.5-2.5,3.7-6.1,3.7c-3.5,0-5-1.2-4.5-3.6L79.2,65.6z"/>
<path class="st0" d="M142.2,72.6h-5.1L136,61.1l-2.3,11.5h-4.1l4.4-21.7h5.6l0.9,9.9l2-9.9h4.1L142.2,72.6z"/>
<path class="st0" d="M143.8,69.2l2.1-10.5c0.5-2.5,2.5-3.7,6.1-3.7c1.4,0,2.5,0.3,3.5,0.9c0.9,0.6,1.3,1.5,1,2.7l-2.2,10.8
	c-0.5,2.4-2.5,3.5-5.9,3.5C144.8,72.9,143.3,71.7,143.8,69.2z M149.9,69.3l2.2-10.7c0.1-0.6-0.1-0.9-0.6-0.9s-0.9,0.3-1,0.9
	l-2.1,10.7c-0.1,0.6,0.1,0.9,0.6,0.9C149.4,70.2,149.8,69.9,149.9,69.3z"/>
<path class="st0" d="M163.4,72.6h-2.8c-2,0-3.2-0.3-3.5-0.9s-0.3-1.7,0.1-3.4l2.2-10.7h-2l0.5-2.6h2l0.7-3.6h4.5l-0.7,3.6h2.4
	l-0.5,2.6h-2.4l-2.2,10.8c-0.1,0.5,0,0.9,0.3,1c0.3,0.2,1,0.3,2,0.3L163.4,72.6z"/>
<path class="st0" d="M168.7,72.6h-4.5l3.5-17.5h4.5L168.7,72.6z M172.4,54.1h-4.5l0.6-3.1h4.5L172.4,54.1z"/>
<path class="st0" d="M182.1,62.9h-4.5l0.9-4.3c0.1-0.6-0.1-0.9-0.6-0.9s-0.8,0.3-0.9,0.9l-2.2,10.7c-0.1,0.6,0.1,0.9,0.6,0.9
	s0.8-0.3,0.9-0.9l0.8-4.2h4.5l-0.9,4.3c-0.5,2.4-2.4,3.6-5.9,3.6s-5.1-1.2-4.6-3.7l2.1-10.5c0.5-2.5,2.5-3.7,6.1-3.7
	c3.4,0,4.9,1.2,4.5,3.6L182.1,62.9z"/>
<path class="st0" d="M193.1,65.2h-6l-0.8,4c-0.1,0.6,0.1,0.9,0.6,0.9s0.8-0.3,0.9-0.9l0.7-3.5h4.5l-0.7,3.6c-0.5,2.4-2.5,3.5-6,3.5
	s-5-1.2-4.5-3.7l2.1-10.5c0.5-2.5,2.5-3.7,6-3.7s5,1.2,4.6,3.6L193.1,65.2z M189.2,62.6l0.8-4c0.1-0.6-0.1-0.9-0.6-0.9
	s-0.8,0.3-0.9,0.9l-0.8,4H189.2z"/>
<path class="st0" d="M194,65.6h4.5l-0.7,3.7c-0.1,0.6,0.1,0.9,0.6,0.9s0.9-0.6,1.1-1.7c0.3-1.5,0.2-2.4-0.4-2.9
	c-2.1-1.2-3.3-2-3.7-2.5s-0.5-1.2-0.3-2.1l0.5-2.4c0.5-2.5,2.5-3.7,6-3.7c3.4,0,4.8,1.2,4.4,3.6l-0.7,3.5h-4.4l0.5-2.1
	c0.3-1.5,0.2-2.2-0.4-2.2c-0.6,0-0.9,0.5-1.1,1.4c-0.2,0.9-0.2,1.7-0.1,2.1c0.1,0.5,1.4,1.3,3.6,2.5c0.9,0.7,1.2,1.7,1,2.8l-0.5,2.6
	c-0.5,2.5-2.5,3.7-6.1,3.7c-3.5,0-5-1.2-4.5-3.6L194,65.6z"/>
<path class="st2" d="M127,63.4c-0.2-8.9-7.4-16-16.3-16c-8.5,0-15.5,6.5-16.2,14.8c0,0.5-0.1,1-0.1,1.5c0,9,7.3,16.3,16.3,16.3
	S127,72.7,127,63.7C127,63.6,127,63.5,127,63.4z M110.7,75.5c-6.5,0-11.8-5.3-11.8-11.8v-0.1c0-6.5,5.3-11.7,11.8-11.7
	c2.3,0,4.4,0.6,6.2,1.8l-11.6,11.6l-4.6,4.6c1,1.6,2.3,2.9,3.9,3.9l9.3-9.3l6.9-6.9c1.1,1.8,1.8,3.9,1.8,6.2c0,0.2,0,0.3,0,0.5
	C122.2,70.5,117,75.5,110.7,75.5z"/>
<path class="st3" d="M108.6,71.1c-1.4,0-2.4-0.4-3.2-1.2c-0.7-0.8-1.1-1.8-1.1-3c0-0.9,0.2-1.6,0.6-2.1s1.1-0.9,2-1.3l0.9-0.4
	l-0.8-0.5c-1.3-0.8-1.9-1.9-1.9-3.2c0-1.2,0.4-2.1,1.3-2.8s2.2-1.1,3.8-1.1c1.4,0,2.6,0.4,3.4,1.1c0.8,0.7,1.2,1.6,1.2,2.6
	c0,1.1-0.5,2.1-1.5,3.1l-0.3,0.3l2.3,3.8l2.6-1.5V67l-1.7,1l1.7,2.8h-3.7l-0.8-1.2l-0.4,0.2C111.5,70.6,110,71.1,108.6,71.1z
	 M109.5,65.1c-0.8,0.6-1.2,1.3-1.2,2.1c0,0.6,0.1,1,0.4,1.3s0.7,0.5,1.3,0.5c0.5,0,1.1-0.2,1.7-0.6l0.4-0.3l-2.3-3.4L109.5,65.1z
	 M110.2,57c-0.5,0-0.9,0.2-1,0.4c-0.2,0.3-0.3,0.6-0.3,1.1c0,0.9,0.4,1.7,1.1,2.4l0.4,0.4l0.3-0.3c0.7-0.8,1-1.6,1-2.3
	c0-0.4-0.1-0.7-0.4-1.1C111.1,57.2,110.7,57,110.2,57z"/>
<g>
	<path class="st0" d="M198,9.1V4.4h-1.7v-1h4.5v1h-1.7v4.7H198z"/>
	<path class="st0" d="M201.6,9.1V3.4h1.7l1,3.9l1-3.9h1.7v5.7h-1.1V4.6l-1.1,4.5h-1.1l-1-4.5v4.5H201.6z"/>
</g>
</svg>
