<?xml version="1.0" encoding="utf-8"?>
<!-- Generator: Adobe Illustrator 16.0.0, SVG Export Plug-In . SVG Version: 6.00 Build 0)  -->
<!DOCTYPE svg PUBLIC "-//W3C//DTD SVG 1.1//EN" "http://www.w3.org/Graphics/SVG/1.1/DTD/svg11.dtd">
<svg version="1.1" id="Layer_1" xmlns="http://www.w3.org/2000/svg" xmlns:xlink="http://www.w3.org/1999/xlink" x="0px" y="0px"
	 width="230.224px" height="90px" viewBox="0 0 230.224 90" enable-background="new 0 0 230.224 90" xml:space="preserve">
<g>
	<linearGradient id="SVGID_1_" gradientUnits="userSpaceOnUse" x1="17.918" y1="8.5586" x2="17.918" y2="34.0293">
		<stop  offset="0" style="stop-color:#FFF49A"/>
		<stop  offset="0.1124" style="stop-color:#FFCB00"/>
		<stop  offset="0.1562" style="stop-color:#F8C500"/>
		<stop  offset="0.3329" style="stop-color:#DFAF00"/>
		<stop  offset="0.4937" style="stop-color:#CFA200"/>
		<stop  offset="0.6236" style="stop-color:#CA9E00"/>
	</linearGradient>
	<path fill="url(#SVGID_1_)" d="M24.599,26.029c-0.002,0-1.514-0.352-1.514-0.352c-4.677-1.048-6.77-2.3-6.773-4.056
		c0,0,0-0.003,0-0.004c0-0.953,0.422-1.734,1.223-2.259c0.698-0.456,1.615-0.679,2.805-0.681c1.43-0.004,2.925,0.304,4.442,0.918
		c1.204,0.49,2.414,1.17,3.606,2.008c0.6-1.528,3.296-8.416,3.758-9.599c-2.023-1.094-4.048-1.948-6.03-2.513
		c-2.192-0.624-4.447-0.938-6.704-0.934c-4.867,0.011-8.84,1.42-11.81,4.186C4.634,15.511,3.19,19,3.19,23.411
		c0,0.012,0,0.025,0,0.037c0.005,2.771,0.758,5.104,2.24,6.937c0.444,0.549,0.952,1.053,1.521,1.507
		c0.501-0.074,1.036-0.12,1.596-0.135c-0.936-0.574-1.731-1.258-2.372-2.052c-1.325-1.638-1.998-3.743-2.002-6.256v-0.037
		c0-4.092,1.334-7.325,4.078-9.88c2.784-2.596,6.54-3.917,11.162-3.928l0,0l0,0l0,0c2.171-0.004,4.34,0.298,6.449,0.898
		c1.62,0.462,3.305,1.146,5.02,2.018c-0.508,1.299-2.339,5.972-2.955,7.548c-0.937-0.586-1.873-1.074-2.794-1.448
		c-1.631-0.659-3.244-0.992-4.794-0.985c-1.375,0-2.461,0.274-3.318,0.835c-1.091,0.715-1.691,1.832-1.691,3.155
		c0.005,2.98,3.821,4.237,7.546,5.072c0,0,1.511,0.352,1.509,0.349c2.39,0.57,4.283,1.73,5.629,3.452
		c0.806,1.032,1.368,2.214,1.691,3.531c0.034-0.011,0.065-0.023,0.101-0.032c0.316-0.098,0.592-0.192,0.84-0.287
		c-0.362-1.442-0.987-2.74-1.876-3.879C29.281,27.927,27.206,26.648,24.599,26.029z"/>
	<linearGradient id="SVGID_2_" gradientUnits="userSpaceOnUse" x1="17.9395" y1="9.603" x2="17.9395" y2="36.0547">
		<stop  offset="0" style="stop-color:#FFFBE3"/>
		<stop  offset="0.3393" style="stop-color:#FFCB00"/>
		<stop  offset="1" style="stop-color:#FFD400"/>
	</linearGradient>
	<path fill="url(#SVGID_2_)" d="M12.508,32.09c1.439,0.285,2.789,0.747,3.801,1.392c2.421,1.543,4.841,2.573,7.748,2.573
		c2.875,0,4.332-1.008,7.647-2.025c-0.324-1.317-0.885-2.5-1.691-3.531c-1.346-1.722-3.239-2.882-5.629-3.452
		c0.002,0.002-1.509-0.349-1.509-0.349c-3.725-0.835-7.541-2.092-7.546-5.072c0-1.324,0.6-2.44,1.691-3.155
		c0.857-0.561,1.943-0.835,3.318-0.835c1.55-0.007,3.163,0.326,4.794,0.985c0.921,0.374,1.857,0.861,2.794,1.448
		c0.616-1.576,2.447-6.249,2.955-7.548c-1.714-0.872-3.4-1.556-5.02-2.018c-2.108-0.6-4.277-0.902-6.449-0.898
		c-4.622,0.011-8.378,1.332-11.162,3.928c-2.744,2.555-4.078,5.788-4.078,9.88v0.037c0.004,2.514,0.677,4.618,2.002,6.256
		c0.641,0.794,1.436,1.478,2.372,2.052C9.821,31.721,11.2,31.831,12.508,32.09z"/>
	<linearGradient id="SVGID_3_" gradientUnits="userSpaceOnUse" x1="17.1309" y1="31.7559" x2="17.1309" y2="52.2339">
		<stop  offset="0" style="stop-color:#FFF49A"/>
		<stop  offset="0.0756" style="stop-color:#FFF294"/>
		<stop  offset="0.1771" style="stop-color:#FFEE83"/>
		<stop  offset="0.2933" style="stop-color:#FFE667"/>
		<stop  offset="0.4205" style="stop-color:#FFDC40"/>
		<stop  offset="0.5552" style="stop-color:#FFCF0E"/>
		<stop  offset="0.5899" style="stop-color:#FFCB00"/>
		<stop  offset="1" style="stop-color:#CA9E00"/>
	</linearGradient>
	<path fill="url(#SVGID_3_)" d="M31.705,34.029c0.21,0.86,0.322,1.776,0.324,2.75v0.04c0,4.232-1.393,7.592-4.255,10.271
		c-2.898,2.711-6.771,4.09-11.514,4.1c-2.495,0.005-5.028-0.372-7.528-1.123c-2.03-0.609-4.122-1.517-6.232-2.674
		c0.506-1.325,2.761-7.231,3.196-8.372c1.498,0.993,2.878,1.777,4.102,2.306c1.856,0.804,3.642,1.213,5.31,1.211
		c1.359-0.003,2.49-0.318,3.36-0.93c1.078-0.757,1.671-1.905,1.671-3.241c-0.007-3.36-4.35-4.3-5.768-4.606
		c-1.601-0.363-2.028-0.461-2.157-0.488c0.006,0,0.017,0.001,0.017,0.001c-1.406-0.362-2.633-0.87-3.684-1.518
		c-0.56,0.016-1.095,0.062-1.596,0.135C8.298,32.968,9.988,33.773,12,34.29c0.001,0,2.165,0.491,2.165,0.491
		c1.225,0.265,4.985,1.079,4.99,3.587c0,0.003,0,0.004,0,0.007c0,0.98-0.425,1.796-1.23,2.362c-0.708,0.498-1.656,0.75-2.82,0.756
		c-1.538,0.001-3.198-0.379-4.936-1.133c-1.468-0.638-3.132-1.623-4.94-2.893c-0.595,1.557-3.528,9.244-3.977,10.42
		c2.4,1.384,4.822,2.465,7.211,3.182c2.589,0.776,5.213,1.167,7.799,1.164c4.988-0.011,9.079-1.479,12.162-4.362
		c3.087-2.887,4.588-6.504,4.588-11.053c0-0.013,0-0.025,0-0.04c-0.002-1.085-0.126-2.107-0.366-3.068
		c-0.248,0.094-0.524,0.189-0.84,0.287C31.77,34.006,31.738,34.018,31.705,34.029z"/>
	<linearGradient id="SVGID_4_" gradientUnits="userSpaceOnUse" x1="17.2642" y1="51.1885" x2="17.2642" y2="31.75">
		<stop  offset="0" style="stop-color:#FFF49A"/>
		<stop  offset="0.3393" style="stop-color:#FFCB00"/>
		<stop  offset="1" style="stop-color:#D5A600"/>
	</linearGradient>
	<path fill="url(#SVGID_4_)" d="M12.214,33.272c0.129,0.026,0.556,0.125,2.157,0.488c1.418,0.307,5.761,1.246,5.768,4.606
		c0,1.336-0.593,2.484-1.671,3.241c-0.87,0.612-2.001,0.926-3.36,0.93c-1.667,0.002-3.453-0.407-5.31-1.211
		c-1.223-0.529-2.604-1.313-4.102-2.306c-0.435,1.141-2.69,7.046-3.196,8.372c2.11,1.157,4.202,2.064,6.232,2.674
		c2.5,0.751,5.034,1.128,7.528,1.123c4.742-0.01,8.616-1.389,11.514-4.1c2.862-2.679,4.255-6.039,4.255-10.271v-0.04
		c-0.002-0.973-0.114-1.89-0.324-2.75c-3.316,1.017-4.772,2.025-7.647,2.025c-2.907,0-5.327-1.029-7.748-2.573
		c-1.012-0.645-2.361-1.107-3.801-1.392c-1.308-0.259-2.688-0.369-3.961-0.334c1.051,0.647,2.277,1.156,3.684,1.518
		C12.231,33.273,12.22,33.272,12.214,33.272z"/>
	<linearGradient id="SVGID_5_" gradientUnits="userSpaceOnUse" x1="98.1729" y1="9.2998" x2="98.1729" y2="31.3232">
		<stop  offset="0" style="stop-color:#FFF49A"/>
		<stop  offset="0.1124" style="stop-color:#FFCB00"/>
		<stop  offset="0.1562" style="stop-color:#F8C500"/>
		<stop  offset="0.3329" style="stop-color:#DFAF00"/>
		<stop  offset="0.4937" style="stop-color:#CFA200"/>
		<stop  offset="0.6236" style="stop-color:#CA9E00"/>
	</linearGradient>
	<path fill="url(#SVGID_5_)" d="M98.441,26.1l-0.013-6.812c0,0,11.128-0.022,12.559-0.025c-0.002-1.371-0.016-8.591-0.018-9.962
		c-1.493,0.003-24.117,0.051-25.61,0.054c0.002,0.822,0.021,10.921,0.04,20.961c0.328,0.035,0.656,0.082,0.983,0.132
		c-0.018-9.489-0.035-19.074-0.039-20.051c1.676-0.005,11.822-0.025,11.822-0.025s10.147-0.022,11.823-0.025
		c0.003,1.318,0.012,6.586,0.014,7.876c-1.67,0.003-12.559,0.027-12.559,0.027l0.018,8.898c0,0,9.724-0.022,11.363-0.025
		c0.002,0.713,0.005,2.529,0.009,4.202c0.334-0.2,0.611-0.359,0.982-0.452c-0.005-2.039-0.008-4.107-0.011-4.795
		C108.396,26.078,98.441,26.1,98.441,26.1z"/>
	<linearGradient id="SVGID_6_" gradientUnits="userSpaceOnUse" x1="98.1729" y1="10.3447" x2="98.1729" y2="34.4727">
		<stop  offset="0" style="stop-color:#FFFBE3"/>
		<stop  offset="0.3393" style="stop-color:#FFCB00"/>
		<stop  offset="1" style="stop-color:#FFD400"/>
	</linearGradient>
	<path fill="url(#SVGID_6_)" d="M90.798,31.948c2.117,1.349,4.235,2.305,6.676,2.524c0-0.048,0-0.077,0-0.077
		s1.157-0.001,2.74-0.004c1.932-0.306,3.402-1.116,6.08-1.929c1.198-0.363,1.852-0.725,2.345-1.022
		c0.066-0.041,0.131-0.079,0.194-0.117c-0.004-1.673-0.007-3.489-0.009-4.202c-1.64,0.003-11.363,0.025-11.363,0.025l-0.018-8.898
		c0,0,10.889-0.024,12.559-0.027c-0.002-1.29-0.011-6.558-0.014-7.876c-1.676,0.003-11.823,0.025-11.823,0.025
		s-10.146,0.021-11.822,0.025c0.003,0.977,0.021,10.562,0.039,20.051c0.207,0.034,0.413,0.069,0.616,0.109
		C88.438,30.841,89.788,31.302,90.798,31.948z"/>
	<linearGradient id="SVGID_7_" gradientUnits="userSpaceOnUse" x1="97.6113" y1="30.3145" x2="97.6113" y2="50.9146">
		<stop  offset="0" style="stop-color:#FFF49A"/>
		<stop  offset="0.0756" style="stop-color:#FFF294"/>
		<stop  offset="0.1771" style="stop-color:#FFEE83"/>
		<stop  offset="0.2933" style="stop-color:#FFE667"/>
		<stop  offset="0.4205" style="stop-color:#FFDC40"/>
		<stop  offset="0.5552" style="stop-color:#FFCF0E"/>
		<stop  offset="0.5899" style="stop-color:#FFCB00"/>
		<stop  offset="1" style="stop-color:#CA9E00"/>
	</linearGradient>
	<path fill="url(#SVGID_7_)" d="M108.839,34.372c-1.075,0.003-5.618,0.013-8.625,0.02c-0.513,0.081-1.058,0.128-1.667,0.128
		c-0.365,0-0.722-0.015-1.072-0.047c0.002,1.075,0.025,13.636,0.028,15.372c-1.543,0.004-9.542,0.019-11.085,0.022
		c0-0.956-0.018-10.142-0.036-19.421c-0.327-0.05-0.655-0.097-0.983-0.132c0.017,9.921,0.036,19.786,0.038,20.6
		c1.374-0.003,11.677-0.026,13.052-0.027c-0.003-1.55-0.03-15.449-0.03-15.449s9.954-0.02,11.366-0.023
		c-0.002-0.663-0.006-2.589-0.009-4.543c-0.371,0.092-0.648,0.251-0.982,0.452C108.836,32.618,108.837,33.825,108.839,34.372z"/>
	<linearGradient id="SVGID_8_" gradientUnits="userSpaceOnUse" x1="91.9424" y1="49.8672" x2="91.9424" y2="30.4468">
		<stop  offset="0" style="stop-color:#FFF49A"/>
		<stop  offset="0.3393" style="stop-color:#FFCB00"/>
		<stop  offset="1" style="stop-color:#D5A600"/>
	</linearGradient>
	<path fill="url(#SVGID_8_)" d="M97.503,49.845c-0.003-1.736-0.026-14.297-0.028-15.372c-2.441-0.22-4.56-1.175-6.676-2.524
		c-1.011-0.646-2.36-1.107-3.8-1.393c-0.204-0.04-0.41-0.075-0.616-0.109c0.018,9.279,0.035,18.465,0.036,19.421
		C87.961,49.863,95.959,49.849,97.503,49.845z"/>
	<linearGradient id="SVGID_9_" gradientUnits="userSpaceOnUse" x1="104.5269" y1="34.3916" x2="104.5269" y2="31.3232">
		<stop  offset="0" style="stop-color:#FFF49A"/>
		<stop  offset="0.3393" style="stop-color:#FFCB00"/>
		<stop  offset="1" style="stop-color:#D5A600"/>
	</linearGradient>
	<path fill="url(#SVGID_9_)" d="M106.294,32.462c-2.678,0.813-4.148,1.624-6.08,1.929c3.007-0.007,7.55-0.017,8.625-0.02
		c-0.002-0.547-0.003-1.754-0.006-3.049c-0.063,0.038-0.128,0.077-0.194,0.117C108.146,31.737,107.493,32.1,106.294,32.462z"/>
	<linearGradient id="SVGID_10_" gradientUnits="userSpaceOnUse" x1="127.4233" y1="9.2266" x2="127.4233" y2="31.2944">
		<stop  offset="0" style="stop-color:#FFF49A"/>
		<stop  offset="0.1124" style="stop-color:#FFCB00"/>
		<stop  offset="0.1562" style="stop-color:#F8C500"/>
		<stop  offset="0.3329" style="stop-color:#DFAF00"/>
		<stop  offset="0.4937" style="stop-color:#CFA200"/>
		<stop  offset="0.6236" style="stop-color:#CA9E00"/>
	</linearGradient>
	<path fill="url(#SVGID_10_)" d="M127.378,25.167l-0.011-5.951c0,0,11.448-0.025,12.887-0.029c-0.004-1.371-0.018-8.591-0.02-9.961
		c-1.494,0.002-24.15,0.049-25.643,0.053c0.002,0.793,0.02,10.204,0.036,19.876c0.322-0.007,0.651-0.002,0.984,0.01
		c-0.018-9.091-0.035-17.932-0.036-18.845c1.675-0.003,11.839-0.024,11.839-0.024s10.162-0.022,11.838-0.025
		c0.003,1.318,0.012,6.585,0.015,7.876c-1.677,0.002-12.885,0.027-12.885,0.027l0.015,8.04c0,0,10.04-0.022,11.688-0.025
		c0.001,0.838,0.006,3.233,0.01,5.105c0.384-0.125,0.706-0.252,0.982-0.375c-0.004-2.314-0.009-4.974-0.011-5.777
		C137.652,25.146,127.378,25.167,127.378,25.167z"/>
	<linearGradient id="SVGID_11_" gradientUnits="userSpaceOnUse" x1="127.4224" y1="10.271" x2="127.4224" y2="33.458">
		<stop  offset="0" style="stop-color:#FFFBE3"/>
		<stop  offset="0.3393" style="stop-color:#FFCB00"/>
		<stop  offset="1" style="stop-color:#FFD400"/>
	</linearGradient>
	<path fill="url(#SVGID_11_)" d="M122.274,30.886c2.42,1.542,4.841,2.57,7.745,2.572c0.003,0,0.005,0,0.007,0
		c2.902-0.002,4.356-1.03,7.744-2.058c0.115-0.035,0.221-0.07,0.326-0.105c-0.004-1.872-0.009-4.267-0.01-5.105
		c-1.648,0.003-11.688,0.025-11.688,0.025l-0.015-8.04c0,0,11.208-0.025,12.885-0.027c-0.003-1.291-0.012-6.558-0.015-7.876
		c-1.676,0.003-11.838,0.025-11.838,0.025s-10.164,0.021-11.839,0.024c0.001,0.913,0.019,9.754,0.036,18.845
		c0.946,0.034,1.922,0.141,2.86,0.327C119.913,29.778,121.263,30.242,122.274,30.886z"/>
	<linearGradient id="SVGID_12_" gradientUnits="userSpaceOnUse" x1="127.6372" y1="29.1519" x2="127.6372" y2="50.8384">
		<stop  offset="0" style="stop-color:#FFF49A"/>
		<stop  offset="0.0756" style="stop-color:#FFF294"/>
		<stop  offset="0.1771" style="stop-color:#FFEE83"/>
		<stop  offset="0.2933" style="stop-color:#FFE667"/>
		<stop  offset="0.4205" style="stop-color:#FFDC40"/>
		<stop  offset="0.5552" style="stop-color:#FFCF0E"/>
		<stop  offset="0.5899" style="stop-color:#FFCB00"/>
		<stop  offset="1" style="stop-color:#CA9E00"/>
	</linearGradient>
	<path fill="url(#SVGID_12_)" d="M138.1,33.44c-0.992,0.002-5.021,0.01-8.074,0.018c-0.002,0-0.002,0-0.004,0h-0.003
		c-2.018,0.004-3.607,0.007-3.607,0.007l0.016,8.432c0,0,11.535-0.027,13.22-0.031c0.002,1.304,0.012,6.57,0.015,7.875
		c-1.68,0.005-22.331,0.048-24.01,0.052c-0.004-0.971-0.022-10.942-0.039-20.627c-0.333-0.012-0.662-0.018-0.984-0.01
		c0.02,10.273,0.04,20.84,0.042,21.683c1.495-0.002,24.481-0.05,25.976-0.055c-0.002-1.371-0.018-8.592-0.019-9.961
		c-1.442,0.003-13.221,0.029-13.221,0.029l-0.011-6.344c0,0,10.272-0.022,11.688-0.025c0-0.55-0.004-1.973-0.006-3.562
		c-0.276,0.123-0.599,0.25-0.982,0.375C138.099,32.222,138.099,33.021,138.1,33.44z"/>
	<linearGradient id="SVGID_13_" gradientUnits="userSpaceOnUse" x1="127.6372" y1="49.793" x2="127.6372" y2="29.166">
		<stop  offset="0" style="stop-color:#FFF49A"/>
		<stop  offset="0.3393" style="stop-color:#FFCB00"/>
		<stop  offset="1" style="stop-color:#D5A600"/>
	</linearGradient>
	<path fill="url(#SVGID_13_)" d="M139.662,49.741c-0.003-1.305-0.013-6.57-0.015-7.875c-1.685,0.003-13.22,0.031-13.22,0.031
		l-0.016-8.432c0,0,1.59-0.003,3.607-0.007c-2.904-0.002-5.325-1.03-7.745-2.572c-1.011-0.644-2.361-1.107-3.801-1.393
		c-0.938-0.187-1.914-0.293-2.86-0.327c0.017,9.686,0.035,19.657,0.039,20.627C117.331,49.789,137.982,49.746,139.662,49.741z"/>
	<linearGradient id="SVGID_14_" gradientUnits="userSpaceOnUse" x1="134.063" y1="33.458" x2="134.063" y2="31.2944">
		<stop  offset="0" style="stop-color:#FFF49A"/>
		<stop  offset="0.3393" style="stop-color:#FFCB00"/>
		<stop  offset="1" style="stop-color:#D5A600"/>
	</linearGradient>
	<path fill="url(#SVGID_14_)" d="M130.026,33.458c3.053-0.008,7.082-0.016,8.074-0.018c-0.001-0.419-0.001-1.219-0.004-2.146
		c-0.105,0.035-0.211,0.07-0.326,0.105C134.382,32.428,132.928,33.456,130.026,33.458z"/>
	<linearGradient id="SVGID_15_" gradientUnits="userSpaceOnUse" x1="158.3481" y1="9.1475" x2="158.3481" y2="35.2441">
		<stop  offset="0" style="stop-color:#FFF49A"/>
		<stop  offset="0.1124" style="stop-color:#FFCB00"/>
		<stop  offset="0.1562" style="stop-color:#F8C500"/>
		<stop  offset="0.3329" style="stop-color:#DFAF00"/>
		<stop  offset="0.4937" style="stop-color:#CFA200"/>
		<stop  offset="0.6236" style="stop-color:#CA9E00"/>
	</linearGradient>
	<path fill="url(#SVGID_15_)" d="M173.002,21.607c-0.004-1.433-0.022-11.027-0.025-12.459c-1.511,0.003-27.771,0.058-29.282,0.062
		c0.004,1.431,0.022,11.025,0.024,12.458c1.325-0.003,8.152-0.015,8.152-0.015s0.009,4.591,0.02,10.133
		c0.339,0.1,0.669,0.213,0.983,0.337c-0.012-6.14-0.021-11.517-0.021-11.517s-6.633,0.013-8.152,0.018
		c-0.004-1.594-0.018-8.779-0.021-10.374c1.678-0.003,11.925-0.024,11.925-0.024s13.655-0.029,15.391-0.032
		c0.005,1.593,0.018,8.78,0.022,10.372c-1.521,0.003-8.153,0.015-8.153,0.015s0.014,7.342,0.026,14.664
		c0.338-0.06,0.663-0.132,0.983-0.22c-0.013-6.877-0.024-13.401-0.024-13.401S171.676,21.61,173.002,21.607z"/>
	<linearGradient id="SVGID_16_" gradientUnits="userSpaceOnUse" x1="158.3491" y1="10.1934" x2="158.3491" y2="35.4023">
		<stop  offset="0" style="stop-color:#FFFBE3"/>
		<stop  offset="0.3393" style="stop-color:#FFCB00"/>
		<stop  offset="1" style="stop-color:#FFD400"/>
	</linearGradient>
	<path fill="url(#SVGID_16_)" d="M162.044,35.402c0.683,0,1.282-0.058,1.847-0.158c-0.013-7.321-0.026-14.664-0.026-14.664
		s6.633-0.012,8.153-0.015c-0.005-1.592-0.018-8.779-0.022-10.372c-1.735,0.003-15.391,0.032-15.391,0.032
		s-10.247,0.021-11.925,0.024c0.003,1.594,0.017,8.779,0.021,10.374c1.52-0.004,8.152-0.018,8.152-0.018s0.01,5.377,0.021,11.517
		c0.52,0.206,1.002,0.44,1.423,0.707C156.718,34.374,159.14,35.402,162.044,35.402z"/>
	<linearGradient id="SVGID_17_" gradientUnits="userSpaceOnUse" x1="196.5181" y1="9.0581" x2="196.5181" y2="34.9507">
		<stop  offset="0" style="stop-color:#FFF49A"/>
		<stop  offset="0.1124" style="stop-color:#FFCB00"/>
		<stop  offset="0.1562" style="stop-color:#F8C500"/>
		<stop  offset="0.3329" style="stop-color:#DFAF00"/>
		<stop  offset="0.4937" style="stop-color:#CFA200"/>
		<stop  offset="0.6236" style="stop-color:#CA9E00"/>
	</linearGradient>
	<path fill="url(#SVGID_17_)" d="M216.354,9.058c-2.363,0.004-13.688,0.029-14.609,0.03c-0.371,0.933-3.142,7.907-3.142,7.907
		c0-0.003-0.113,0.289-0.113,0.289l-0.078,0.206c-0.497,1.337-0.834,2.313-1.027,2.976l-0.828,2.835l-0.797-3.069l-0.03-0.114
		c-0.407-1.363-0.771-2.423-1.076-3.121c0,0-2.856-6.967-3.235-7.886c-0.916,0.002-12.407,0.027-14.736,0.031
		c1.336,2.354,13.073,23.024,13.073,23.024s0.002,0.903,0.004,2.308c0.328,0.172,0.654,0.331,0.984,0.478
		c-0.003-1.832-0.005-3.077-0.005-3.077s-10.762-18.953-12.319-21.692c2.349-0.005,11.38-0.024,12.357-0.025
		c0.762,1.857,2.979,7.26,2.985,7.276c0.282,0.65,0.638,1.688,1.021,2.967l0.03,0.109l1.688,6.505l1.823-6.238
		c0.186-0.636,0.514-1.585,0.996-2.889l0.079-0.205c0.044-0.11,0.07-0.213,0.098-0.313c0.001,0.001,0.013,0.032,0.013,0.032
		s2.462-6.193,2.889-7.271c1.037-0.001,9.592-0.019,12.188-0.023c-1.617,2.768-12.689,21.728-12.689,21.728s0.001,1.101,0.005,2.751
		c0.31-0.107,0.637-0.221,0.982-0.334c-0.003-1.297-0.004-2.119-0.004-2.119S214.965,11.436,216.354,9.058z"/>
	<linearGradient id="SVGID_18_" gradientUnits="userSpaceOnUse" x1="196.5024" y1="10.1064" x2="196.5024" y2="36.0801">
		<stop  offset="0" style="stop-color:#FFFBE3"/>
		<stop  offset="0.3393" style="stop-color:#FFCB00"/>
		<stop  offset="1" style="stop-color:#FFD400"/>
	</linearGradient>
	<path fill="url(#SVGID_18_)" d="M201.901,34.585c-0.004-1.65-0.005-2.751-0.005-2.751s11.072-18.96,12.689-21.728
		c-2.597,0.004-11.151,0.022-12.188,0.023c-0.427,1.078-2.889,7.271-2.889,7.271s-0.012-0.031-0.013-0.032
		c-0.027,0.1-0.054,0.203-0.098,0.313l-0.079,0.205c-0.482,1.303-0.811,2.252-0.996,2.889l-1.823,6.238l-1.688-6.505l-0.03-0.109
		c-0.383-1.28-0.738-2.317-1.021-2.967c-0.007-0.017-2.224-5.419-2.985-7.276c-0.978,0.001-10.009,0.02-12.357,0.025
		c1.558,2.74,12.319,21.692,12.319,21.692s0.002,1.246,0.005,3.077c1.591,0.708,3.25,1.129,5.11,1.129
		C198.221,36.08,199.626,35.397,201.901,34.585z"/>
	<linearGradient id="SVGID_19_" gradientUnits="userSpaceOnUse" x1="158.397" y1="31.7847" x2="158.397" y2="50.7515">
		<stop  offset="0" style="stop-color:#FFF49A"/>
		<stop  offset="0.0756" style="stop-color:#FFF294"/>
		<stop  offset="0.1771" style="stop-color:#FFEE83"/>
		<stop  offset="0.2933" style="stop-color:#FFE667"/>
		<stop  offset="0.4205" style="stop-color:#FFDC40"/>
		<stop  offset="0.5552" style="stop-color:#FFCF0E"/>
		<stop  offset="0.5899" style="stop-color:#FFCB00"/>
		<stop  offset="1" style="stop-color:#CA9E00"/>
	</linearGradient>
	<path fill="url(#SVGID_19_)" d="M163.918,49.683c-1.541,0.003-9.47,0.019-11.012,0.023c-0.003-1.078-0.019-9.925-0.032-17.584
		c-0.314-0.125-0.645-0.237-0.983-0.337c0.014,8.008,0.033,17.998,0.035,18.966c1.373-0.003,11.604-0.023,12.977-0.027
		c-0.002-0.839-0.015-8.466-0.028-15.699c-0.32,0.088-0.646,0.16-0.983,0.22C163.905,42.005,163.917,48.751,163.918,49.683z"/>
	<linearGradient id="SVGID_20_" gradientUnits="userSpaceOnUse" x1="158.397" y1="49.7061" x2="158.397" y2="32.1226">
		<stop  offset="0" style="stop-color:#FFF49A"/>
		<stop  offset="0.3393" style="stop-color:#FFCB00"/>
		<stop  offset="1" style="stop-color:#D5A600"/>
	</linearGradient>
	<path fill="url(#SVGID_20_)" d="M163.918,49.683c-0.002-0.932-0.014-7.678-0.027-14.438c-0.564,0.1-1.164,0.158-1.847,0.158
		c-2.904,0-5.326-1.028-7.747-2.573c-0.421-0.267-0.903-0.501-1.423-0.707c0.014,7.659,0.029,16.506,0.032,17.584
		C154.449,49.701,162.377,49.686,163.918,49.683z"/>
	<linearGradient id="SVGID_21_" gradientUnits="userSpaceOnUse" x1="196.3364" y1="34.251" x2="196.3364" y2="50.6733">
		<stop  offset="0" style="stop-color:#FFF49A"/>
		<stop  offset="0.0756" style="stop-color:#FFF294"/>
		<stop  offset="0.1771" style="stop-color:#FFEE83"/>
		<stop  offset="0.2933" style="stop-color:#FFE667"/>
		<stop  offset="0.4205" style="stop-color:#FFDC40"/>
		<stop  offset="0.5552" style="stop-color:#FFCF0E"/>
		<stop  offset="0.5899" style="stop-color:#FFCB00"/>
		<stop  offset="1" style="stop-color:#CA9E00"/>
	</linearGradient>
	<path fill="url(#SVGID_21_)" d="M201.929,49.604c-1.545,0.003-9.613,0.02-11.157,0.022c-0.004-1.339-0.02-9.958-0.029-14.675
		c-0.33-0.147-0.656-0.306-0.984-0.478c0.009,4.686,0.03,14.981,0.032,16.2c1.375-0.003,11.748-0.024,13.125-0.028
		c-0.003-1.235-0.023-11.8-0.032-16.394c-0.346,0.113-0.673,0.227-0.982,0.334C201.91,39.225,201.927,48.232,201.929,49.604z"/>
	<linearGradient id="SVGID_22_" gradientUnits="userSpaceOnUse" x1="196.3364" y1="49.626" x2="196.3364" y2="34.5854">
		<stop  offset="0" style="stop-color:#FFF49A"/>
		<stop  offset="0.3393" style="stop-color:#FFCB00"/>
		<stop  offset="1" style="stop-color:#D5A600"/>
	</linearGradient>
	<path fill="url(#SVGID_22_)" d="M201.929,49.604c-0.002-1.371-0.02-10.379-0.028-15.019c-2.274,0.812-3.68,1.495-6.048,1.495
		c-1.86,0-3.52-0.421-5.11-1.129c0.01,4.718,0.025,13.336,0.029,14.675C192.316,49.623,200.384,49.606,201.929,49.604z"/>
	<linearGradient id="SVGID_23_" gradientUnits="userSpaceOnUse" x1="2.1978" y1="20.7334" x2="33.6255" y2="20.7334">
		<stop  offset="0" style="stop-color:#000000"/>
		<stop  offset="0.0623" style="stop-color:#040404"/>
		<stop  offset="0.1275" style="stop-color:#111111"/>
		<stop  offset="0.194" style="stop-color:#262626"/>
		<stop  offset="0.2609" style="stop-color:#434343"/>
		<stop  offset="0.3034" style="stop-color:#595959"/>
		<stop  offset="0.4124" style="stop-color:#3F3F3F"/>
		<stop  offset="0.5576" style="stop-color:#242424"/>
		<stop  offset="0.704" style="stop-color:#101010"/>
		<stop  offset="0.8511" style="stop-color:#040404"/>
		<stop  offset="1" style="stop-color:#000000"/>
	</linearGradient>
	<path fill="url(#SVGID_23_)" d="M33.582,33.333c-0.399-1.538-1.088-2.939-2.046-4.165c-1.63-2.088-3.891-3.485-6.718-4.159
		c-0.004-0.001-1.513-0.352-1.513-0.352c-4.958-1.112-5.999-2.266-6-3.038c0-0.593,0.246-1.044,0.755-1.375
		c0.53-0.348,1.296-0.523,2.281-0.525c1.31-0.003,2.683,0.281,4.086,0.849c1.405,0.572,2.828,1.413,4.225,2.494l0.184,0.144
		l4.578-11.693l-0.132-0.072c-2.309-1.315-4.633-2.31-6.904-2.957c-2.278-0.649-4.623-0.976-6.966-0.971l0,0
		c-5.117,0.013-9.311,1.51-12.466,4.449c-3.16,2.942-4.756,6.808-4.747,11.486c0.005,3.023,0.837,5.582,2.475,7.61
		c0.313,0.387,0.661,0.76,1.031,1.107l0.059,0.054l0.693-0.082l0.412-0.061l0.508-0.071l-0.317-0.253
		c-0.56-0.449-1.063-0.945-1.494-1.48c-1.455-1.8-2.195-4.099-2.2-6.828v-0.037c0-4.359,1.426-7.807,4.357-10.539
		c2.936-2.733,6.87-4.126,11.691-4.139c2.24-0.004,4.48,0.308,6.657,0.926c1.888,0.54,3.858,1.358,5.858,2.43
		c-0.103,0.263-3.479,8.886-3.624,9.255c-1.162-0.797-2.323-1.449-3.456-1.91c-1.539-0.622-3.057-0.936-4.51-0.933
		c-1.223,0.002-2.172,0.234-2.898,0.711c-0.852,0.558-1.303,1.389-1.303,2.404c0.003,1.858,2.135,3.16,6.91,4.231l1.51,0.352
		c2.569,0.611,4.613,1.869,6.073,3.738c0.87,1.112,1.491,2.396,1.846,3.814l0.049,0.2l1.1-0.479L33.582,33.333z"/>
	<linearGradient id="SVGID_24_" gradientUnits="userSpaceOnUse" x1="17.002" y1="31.709" x2="17.002" y2="53.2778">
		<stop  offset="0" style="stop-color:#000000"/>
		<stop  offset="0.1073" style="stop-color:#030303"/>
		<stop  offset="0.1994" style="stop-color:#0E0E0E"/>
		<stop  offset="0.2859" style="stop-color:#202020"/>
		<stop  offset="0.3684" style="stop-color:#383838"/>
		<stop  offset="0.4484" style="stop-color:#585858"/>
		<stop  offset="0.4509" style="stop-color:#595959"/>
		<stop  offset="0.5379" style="stop-color:#3F3F3F"/>
		<stop  offset="0.6514" style="stop-color:#232323"/>
		<stop  offset="0.7662" style="stop-color:#101010"/>
		<stop  offset="0.8819" style="stop-color:#040404"/>
		<stop  offset="1" style="stop-color:#000000"/>
	</linearGradient>
	<path fill="url(#SVGID_24_)" d="M33.582,33.333l-0.052-0.197l-1.083,0.469l0.029,0.146c0.237,0.952,0.359,1.969,0.361,3.028v0.038
		c0,4.498-1.483,8.072-4.534,10.925c-3.049,2.854-7.101,4.305-12.042,4.313c-2.569,0.007-5.175-0.383-7.748-1.152
		c-2.293-0.69-4.663-1.736-7.046-3.099c0.104-0.273,3.705-9.702,3.846-10.071c1.779,1.237,3.391,2.178,4.786,2.785
		c1.761,0.764,3.444,1.149,5.006,1.147c1.2-0.003,2.183-0.27,2.92-0.788c0.853-0.598,1.303-1.464,1.303-2.504
		c-0.004-2.655-3.859-3.489-5.126-3.764c-2.168-0.493-2.168-0.493-2.176-0.496c-1.962-0.504-3.638-1.298-4.968-2.361l-0.057-0.046
		L6.926,31.72l-0.105,0.014l-0.229,0.033h0.001l-0.192,0.028l-0.966,0.117l0.268,0.256c1.543,1.443,3.583,2.498,6.061,3.134
		c0.005,0.002,2.188,0.5,2.188,0.5c2.793,0.603,4.208,1.467,4.209,2.566c0.001,0.635-0.257,1.127-0.789,1.5
		c-0.542,0.381-1.307,0.577-2.271,0.579c-1.405,0.003-2.938-0.352-4.555-1.054c-1.63-0.707-3.513-1.844-5.598-3.381l-0.184-0.136
		L0,48.359l0.125,0.075c2.675,1.61,5.39,2.835,8.066,3.639c2.678,0.803,5.394,1.207,8.073,1.204
		c5.238-0.011,9.551-1.569,12.819-4.626c3.275-3.062,4.93-7.058,4.921-11.875C34.001,35.567,33.859,34.409,33.582,33.333z"/>
	<linearGradient id="SVGID_25_" gradientUnits="userSpaceOnUse" x1="98.1738" y1="31.0947" x2="98.1738" y2="8.2529">
		<stop  offset="0" style="stop-color:#000000"/>
		<stop  offset="0.0623" style="stop-color:#040404"/>
		<stop  offset="0.1275" style="stop-color:#111111"/>
		<stop  offset="0.194" style="stop-color:#262626"/>
		<stop  offset="0.2609" style="stop-color:#434343"/>
		<stop  offset="0.3034" style="stop-color:#595959"/>
		<stop  offset="0.4124" style="stop-color:#3F3F3F"/>
		<stop  offset="0.5576" style="stop-color:#242424"/>
		<stop  offset="0.704" style="stop-color:#101010"/>
		<stop  offset="0.8511" style="stop-color:#040404"/>
		<stop  offset="1" style="stop-color:#000000"/>
	</linearGradient>
	<path fill="url(#SVGID_25_)" d="M99.432,25.053c0-0.312-0.007-4.409-0.009-4.722c0.339-0.001,12.559-0.027,12.559-0.027
		L111.96,8.253l-0.174,0.002L84.365,8.312l0.041,22.094l1.164,0.098l0.003-0.19c0,0-0.038-20.45-0.038-20.787
		c0.341,0,24.92-0.053,25.262-0.053c0,0.323,0.017,9.29,0.017,9.613c-0.338,0.001-12.559,0.028-12.559,0.028l0.014,7.159
		c0,0,11.027-0.024,11.364-0.025c0.001,0.294,0.01,4.845,0.01,4.845l0.216-0.055c0.221-0.055,0.475-0.083,0.775-0.083h0.176
		l-0.012-5.927C110.797,25.03,99.771,25.053,99.432,25.053z"/>
	<linearGradient id="SVGID_26_" gradientUnits="userSpaceOnUse" x1="97.6094" y1="30.0586" x2="97.6094" y2="51.9595">
		<stop  offset="0" style="stop-color:#000000"/>
		<stop  offset="0.1073" style="stop-color:#030303"/>
		<stop  offset="0.1994" style="stop-color:#0E0E0E"/>
		<stop  offset="0.2859" style="stop-color:#202020"/>
		<stop  offset="0.3684" style="stop-color:#383838"/>
		<stop  offset="0.4484" style="stop-color:#585858"/>
		<stop  offset="0.4509" style="stop-color:#595959"/>
		<stop  offset="0.5379" style="stop-color:#3F3F3F"/>
		<stop  offset="0.6514" style="stop-color:#232323"/>
		<stop  offset="0.7662" style="stop-color:#101010"/>
		<stop  offset="0.8819" style="stop-color:#040404"/>
		<stop  offset="1" style="stop-color:#000000"/>
	</linearGradient>
	<path fill="url(#SVGID_26_)" d="M110.818,36.456l-0.011-5.847c0,0-0.176,0-0.178,0c-0.328,0-0.608,0.031-0.856,0.095l-0.132,0.032
		c0,0,0.008,4.24,0.009,4.505c-0.338,0-11.365,0.024-11.365,0.024s0.028,15.107,0.029,15.448c-0.334,0-12.369,0.025-12.704,0.025
		c0-0.342-0.039-20.584-0.039-20.584l-1.17-0.096l0.004,0.189l0.042,21.711l15.037-0.031c0,0-0.029-15.106-0.029-15.446
		C99.791,36.48,110.818,36.456,110.818,36.456z"/>
	<linearGradient id="SVGID_27_" gradientUnits="userSpaceOnUse" x1="127.4224" y1="31.2046" x2="127.4224" y2="8.1807">
		<stop  offset="0" style="stop-color:#000000"/>
		<stop  offset="0.0623" style="stop-color:#040404"/>
		<stop  offset="0.1275" style="stop-color:#111111"/>
		<stop  offset="0.194" style="stop-color:#262626"/>
		<stop  offset="0.2609" style="stop-color:#434343"/>
		<stop  offset="0.3034" style="stop-color:#595959"/>
		<stop  offset="0.4124" style="stop-color:#3F3F3F"/>
		<stop  offset="0.5576" style="stop-color:#242424"/>
		<stop  offset="0.704" style="stop-color:#101010"/>
		<stop  offset="0.8511" style="stop-color:#040404"/>
		<stop  offset="1" style="stop-color:#000000"/>
	</linearGradient>
	<path fill="url(#SVGID_27_)" d="M140.059,24.098c0,0-11.352,0.024-11.689,0.025c0-0.306-0.007-3.56-0.007-3.866
		c0.338,0,12.885-0.028,12.885-0.028l-0.022-12.048h-0.173l-27.455,0.057l0.039,21.141l1.161-0.058l0.006-0.165
		c0,0-0.036-19.361-0.037-19.703c0.342,0,24.953-0.053,25.295-0.053c0.001,0.323,0.018,9.291,0.019,9.614
		c-0.34,0.002-12.886,0.028-12.886,0.028l0.011,6.301c0,0,11.352-0.024,11.689-0.025c0,0.324,0.011,5.887,0.011,5.887l1.174-0.597
		l-0.008-0.102L140.059,24.098z"/>
	<linearGradient id="SVGID_28_" gradientUnits="userSpaceOnUse" x1="127.6362" y1="28.9722" x2="127.6362" y2="51.8853">
		<stop  offset="0" style="stop-color:#000000"/>
		<stop  offset="0.1073" style="stop-color:#030303"/>
		<stop  offset="0.1994" style="stop-color:#0E0E0E"/>
		<stop  offset="0.2859" style="stop-color:#202020"/>
		<stop  offset="0.3684" style="stop-color:#383838"/>
		<stop  offset="0.4484" style="stop-color:#585858"/>
		<stop  offset="0.4509" style="stop-color:#595959"/>
		<stop  offset="0.5379" style="stop-color:#3F3F3F"/>
		<stop  offset="0.6514" style="stop-color:#232323"/>
		<stop  offset="0.7662" style="stop-color:#101010"/>
		<stop  offset="0.8819" style="stop-color:#040404"/>
		<stop  offset="1" style="stop-color:#000000"/>
	</linearGradient>
	<path fill="url(#SVGID_28_)" d="M141.619,39.775c0,0-12.882,0.029-13.22,0.029c-0.001-0.308-0.008-3.945-0.008-4.254
		c0.336-0.002,11.688-0.025,11.688-0.025l-0.009-5.302l-1.159,0.588l-0.008,0.111c0,0,0.006,3.094,0.006,3.387
		c-0.336,0-11.688,0.026-11.688,0.026l0.012,6.691c0,0,12.88-0.03,13.221-0.03c0,0.324,0.018,9.29,0.019,9.614
		c-0.339,0.003-25.291,0.054-25.63,0.054c0-0.324-0.04-21.691-0.04-21.691l-0.178,0.009l-0.994,0.05l0.005,0.166l0.042,22.688
		l27.963-0.058L141.619,39.775z"/>
	<linearGradient id="SVGID_29_" gradientUnits="userSpaceOnUse" x1="158.3481" y1="35.2583" x2="158.3481" y2="8.1025">
		<stop  offset="0" style="stop-color:#000000"/>
		<stop  offset="0.0623" style="stop-color:#040404"/>
		<stop  offset="0.1275" style="stop-color:#111111"/>
		<stop  offset="0.194" style="stop-color:#262626"/>
		<stop  offset="0.2609" style="stop-color:#434343"/>
		<stop  offset="0.3034" style="stop-color:#595959"/>
		<stop  offset="0.4124" style="stop-color:#3F3F3F"/>
		<stop  offset="0.5576" style="stop-color:#242424"/>
		<stop  offset="0.704" style="stop-color:#101010"/>
		<stop  offset="0.8511" style="stop-color:#040404"/>
		<stop  offset="1" style="stop-color:#000000"/>
	</linearGradient>
	<path fill="url(#SVGID_29_)" d="M165.843,22.666c0.334-0.001,8.153-0.018,8.153-0.018l-0.029-14.546h-0.174L142.7,8.167
		l0.031,14.547c0,0,7.817-0.018,8.15-0.018c0.001,0.335,0.017,9,0.017,9l1.162,0.312l0.005-0.226l-0.021-10.307
		c0,0-7.817,0.017-8.15,0.017c-0.001-0.334-0.023-11.797-0.023-12.11c0.341-0.001,28.591-0.061,28.932-0.061
		c0.002,0.33,0.024,11.783,0.024,12.111c-0.333,0-8.152,0.017-8.152,0.017l0.025,13.809l1.171-0.358l-0.004-0.125
		C165.867,34.775,165.844,23.003,165.843,22.666z"/>
	<linearGradient id="SVGID_30_" gradientUnits="userSpaceOnUse" x1="196.5317" y1="34.7695" x2="196.5317" y2="8.0103">
		<stop  offset="0" style="stop-color:#000000"/>
		<stop  offset="0.0623" style="stop-color:#040404"/>
		<stop  offset="0.1275" style="stop-color:#111111"/>
		<stop  offset="0.194" style="stop-color:#262626"/>
		<stop  offset="0.2609" style="stop-color:#434343"/>
		<stop  offset="0.3034" style="stop-color:#595959"/>
		<stop  offset="0.4124" style="stop-color:#3F3F3F"/>
		<stop  offset="0.5576" style="stop-color:#242424"/>
		<stop  offset="0.704" style="stop-color:#101010"/>
		<stop  offset="0.8511" style="stop-color:#040404"/>
		<stop  offset="1" style="stop-color:#000000"/>
	</linearGradient>
	<path fill="url(#SVGID_30_)" d="M218.13,8.01h-0.304l-16.743,0.036l-3.397,8.545l-0.194,0.504
		c-0.386,1.037-0.676,1.861-0.882,2.497c-0.397-1.313-0.753-2.338-1.053-3.031l-3.486-8.497L174.934,8.1
		c0,0,13.783,24.274,13.829,24.354c0,0.087,0.002,1.667,0.002,1.667l1.173,0.648l-0.005-0.297l-0.003-2.353
		c0,0-12.663-22.298-12.951-22.805c0.568,0,14.098-0.029,14.323-0.029c0.086,0.21,3.19,7.776,3.19,7.776
		c0.302,0.694,0.661,1.738,1.069,3.105l0.03,0.109l0.954,3.68l1.005-3.442c0.192-0.656,0.526-1.625,1.022-2.963l0.079-0.205
		c0.057-0.144,0.086-0.233,0.105-0.302c0,0.001,0.007,0.016,0.007,0.016s3.014-7.585,3.099-7.798c0.227,0,13.609-0.029,14.187-0.031
		c-0.299,0.515-13.346,22.853-13.346,22.853l0.005,2.405l1.045-0.331l0.12-0.04v-0.127c0,0-0.002-1.476-0.002-1.566
		C203.92,32.343,218.13,8.01,218.13,8.01z"/>
	<linearGradient id="SVGID_31_" gradientUnits="userSpaceOnUse" x1="158.395" y1="31.3364" x2="158.395" y2="51.7983">
		<stop  offset="0" style="stop-color:#000000"/>
		<stop  offset="0.1073" style="stop-color:#030303"/>
		<stop  offset="0.1994" style="stop-color:#0E0E0E"/>
		<stop  offset="0.2859" style="stop-color:#202020"/>
		<stop  offset="0.3684" style="stop-color:#383838"/>
		<stop  offset="0.4484" style="stop-color:#585858"/>
		<stop  offset="0.4509" style="stop-color:#595959"/>
		<stop  offset="0.5379" style="stop-color:#3F3F3F"/>
		<stop  offset="0.6514" style="stop-color:#232323"/>
		<stop  offset="0.7662" style="stop-color:#101010"/>
		<stop  offset="0.8819" style="stop-color:#040404"/>
		<stop  offset="1" style="stop-color:#000000"/>
	</linearGradient>
	<path fill="url(#SVGID_31_)" d="M165.867,34.539l-1.161,0.354l-0.007,0.131c0,0,0.028,15.187,0.031,15.525
		c-0.334,0-12.296,0.024-12.63,0.027c0-0.102-0.035-18.928-0.035-18.928l-1.173-0.313l0.006,0.227l0.037,20.234l14.964-0.031
		L165.867,34.539z"/>
	<linearGradient id="SVGID_32_" gradientUnits="userSpaceOnUse" x1="196.3364" y1="33.7246" x2="196.3364" y2="51.7212">
		<stop  offset="0" style="stop-color:#000000"/>
		<stop  offset="0.1073" style="stop-color:#030303"/>
		<stop  offset="0.1994" style="stop-color:#0E0E0E"/>
		<stop  offset="0.2859" style="stop-color:#202020"/>
		<stop  offset="0.3684" style="stop-color:#383838"/>
		<stop  offset="0.4484" style="stop-color:#585858"/>
		<stop  offset="0.4509" style="stop-color:#595959"/>
		<stop  offset="0.5379" style="stop-color:#3F3F3F"/>
		<stop  offset="0.6514" style="stop-color:#232323"/>
		<stop  offset="0.7662" style="stop-color:#101010"/>
		<stop  offset="0.8819" style="stop-color:#040404"/>
		<stop  offset="1" style="stop-color:#000000"/>
	</linearGradient>
	<path fill="url(#SVGID_32_)" d="M203.875,33.752l-0.323,0.104l-0.843,0.268l0.001,0.126c0,0,0.03,15.88,0.03,16.221
		c-0.334,0-12.44,0.027-12.775,0.027c0-0.341-0.032-16.128-0.032-16.128l-1.162-0.646l-0.005,0.294l0.035,17.702l15.108-0.034
		L203.875,33.752z"/>
	<path fill="none" d="M41.15,27.408c0.032-0.04,0.071-0.088,0.071-0.088C41.177,27.374,41.125,27.426,41.15,27.408z"/>
	
		<linearGradient id="SVGID_33_" gradientUnits="userSpaceOnUse" x1="37.23" y1="152.6016" x2="37.23" y2="104.4924" gradientTransform="matrix(0.9648 0 0 0.9648 23.0847 -94.2321)">
		<stop  offset="0" style="stop-color:#000000"/>
		<stop  offset="0.4509" style="stop-color:#595959"/>
		<stop  offset="1" style="stop-color:#000000"/>
	</linearGradient>
	<path fill="url(#SVGID_33_)" d="M39.661,27.707c0.288-0.498,0.559-0.911,0.559-0.967c0,0.065,0.033-0.057,0,0L53.21,4.238
		c1.098-1.9,3.142-3.08,5.334-3.08c2.193,0,4.237,1.18,5.334,3.079l17.913,31.028c0.48,0.089,0.982,0.182,1.499,0.278L64.882,3.658
		C63.579,1.401,61.15,0,58.544,0c-2.605,0-5.034,1.403-6.336,3.66V3.658c0,0-13.357,23.135-13.551,23.469l-3.94,6.827
		c0.437,0.022,0.88,0.029,1.331,0.012L39.661,27.707z"/>
	
		<linearGradient id="SVGID_34_" gradientUnits="userSpaceOnUse" x1="-499.2437" y1="-389.8286" x2="-499.2437" y2="-341.1896" gradientTransform="matrix(1.1175 0 0 1.1175 616.825 435.0827)">
		<stop  offset="0" style="stop-color:#FFFFFF"/>
		<stop  offset="0.4777" style="stop-color:#E20613"/>
		<stop  offset="1" style="stop-color:#B80E0C"/>
	</linearGradient>
	<path fill="url(#SVGID_34_)" d="M58.544,1.158c-2.193,0-4.237,1.18-5.334,3.08L40.219,26.74c0.033-0.057-0.008-0.007,0.033-0.057
		c0,0-0.304,0.526-0.592,1.024l-3.613,6.26c0.461-0.014,0.93-0.055,1.41-0.125l3.765-6.523L54.214,4.817
		c0.894-1.548,2.544-2.5,4.331-2.5c1.787,0,3.438,0.953,4.33,2.5l17.422,30.174c0.471,0.084,0.97,0.176,1.495,0.274L63.878,4.237
		C62.782,2.338,60.738,1.158,58.544,1.158z M41.15,27.408c0.021,0,0.071-0.088,0.071-0.088S41.183,27.368,41.15,27.408z"/>
	
		<linearGradient id="SVGID_35_" gradientUnits="userSpaceOnUse" x1="-565.2837" y1="-382.8613" x2="-565.2837" y2="-409.9638" gradientTransform="matrix(1.1175 0 0 1.1175 690.5818 467.4909)">
		<stop  offset="0" style="stop-color:#FFFFFF"/>
		<stop  offset="0.4777" style="stop-color:#E20613"/>
		<stop  offset="1" style="stop-color:#B80E0C"/>
	</linearGradient>
	<path fill="url(#SVGID_35_)" d="M45.153,33.987c1.14-1.976,1.904-3.298,1.904-3.298s9.135-15.822,11.487-19.896
		c1.952,3.378,8.394,14.536,14.001,24.249c1.146-0.644,1.613-1.019,4.388-0.622c0.709,0.102,1.89,0.304,3.362,0.571L62.875,4.817
		c-0.893-1.548-2.543-2.5-4.33-2.5c-1.786,0-3.437,0.953-4.331,2.5L37.458,33.841c0.082-0.011,0.163-0.019,0.245-0.034
		C39.845,33.45,42.61,33.512,45.153,33.987z"/>
	<path fill="#FFFFFF" d="M47.057,30.689c0,0-0.764,1.322-1.904,3.298c1.822,0.341,3.531,0.891,4.81,1.659
		c3.065,1.839,6.129,3.065,9.808,3.065c3.677,0,5.516-1.226,9.807-2.451c1.516-0.434,2.342-0.866,2.968-1.218
		c-5.608-9.713-12.05-20.871-14.001-24.249C56.192,14.868,47.057,30.689,47.057,30.689z"/>
	
		<linearGradient id="SVGID_36_" gradientUnits="userSpaceOnUse" x1="-558.1982" y1="-386.9814" x2="-558.1982" y2="-365.0502" gradientTransform="matrix(1.1175 0 0 1.1175 690.5818 467.4909)">
		<stop  offset="0" style="stop-color:#000000"/>
		<stop  offset="0.4509" style="stop-color:#595959"/>
		<stop  offset="1" style="stop-color:#000000"/>
	</linearGradient>
	<path fill="url(#SVGID_36_)" d="M90.865,48.663l-7.575-13.12c-0.517-0.096-1.019-0.189-1.499-0.278l8.07,13.977
		c1.097,1.899,1.097,4.259,0,6.158c-1.097,1.898-3.141,3.079-5.333,3.079l-42.275,0.036l-0.506,1.121h42.782
		c2.606,0,5.034-1.399,6.337-3.656C92.168,53.725,92.168,50.919,90.865,48.663z"/>
	
		<linearGradient id="SVGID_37_" gradientUnits="userSpaceOnUse" x1="-587.7222" y1="-386.9824" x2="-587.7222" y2="-365.0503" gradientTransform="matrix(1.1175 0 0 1.1175 690.5818 467.4909)">
		<stop  offset="0" style="stop-color:#000000"/>
		<stop  offset="0.4509" style="stop-color:#595959"/>
		<stop  offset="1" style="stop-color:#000000"/>
	</linearGradient>
	<path fill="url(#SVGID_37_)" d="M32.562,58.479c-2.195,0-4.238-1.181-5.334-3.078c-0.548-0.951-0.822-2.015-0.822-3.079
		c0-1.065,0.274-2.131,0.822-3.08l8.819-15.276c-0.451,0.017-0.894,0.01-1.331-0.012l-8.494,14.709
		c-0.638,1.107-0.976,2.373-0.976,3.659c0,1.285,0.338,2.55,0.978,3.658c1.302,2.257,3.73,3.656,6.337,3.656h9.185
		c0.163-0.381,0.365-0.771,0.61-1.157H32.562z"/>
	
		<linearGradient id="SVGID_38_" gradientUnits="userSpaceOnUse" x1="-558.5547" y1="-389.9917" x2="-558.5547" y2="-374.3014" gradientTransform="matrix(1.1175 0 0 1.1175 690.5818 467.4909)">
		<stop  offset="0" style="stop-color:#FFFFFF"/>
		<stop  offset="0.4777" style="stop-color:#E20613"/>
		<stop  offset="1" style="stop-color:#B40E0B"/>
	</linearGradient>
	<path fill="url(#SVGID_38_)" d="M88.859,49.822c0.894,1.547,0.894,3.452,0,5.001c-0.893,1.545-2.544,2.498-4.331,2.498
		L42.454,57.24l-0.346,1.232l42.42,0.007c2.193,0,4.237-1.181,5.333-3.079c1.097-1.899,1.097-4.259,0-6.158l-8.07-13.977
		c-0.525-0.098-1.024-0.19-1.495-0.274L88.859,49.822z"/>
	
		<linearGradient id="SVGID_39_" gradientUnits="userSpaceOnUse" x1="-586.7979" y1="-389.9937" x2="-586.7979" y2="-374.3022" gradientTransform="matrix(1.1175 0 0 1.1175 690.5818 467.4909)">
		<stop  offset="0" style="stop-color:#FFFFFF"/>
		<stop  offset="0.4777" style="stop-color:#E20613"/>
		<stop  offset="1" style="stop-color:#B40E0B"/>
	</linearGradient>
	<path fill="url(#SVGID_39_)" d="M32.562,57.321c-1.788,0-3.438-0.953-4.331-2.498c-0.894-1.549-0.894-3.454,0-5.001l9.226-15.981
		c-0.48,0.07-0.949,0.111-1.41,0.125l-8.819,15.276c-0.548,0.949-0.822,2.015-0.822,3.08c0,1.064,0.274,2.128,0.822,3.079
		c1.096,1.897,3.139,3.078,5.334,3.078h9.795c0.251-0.396,0.552-0.783,0.908-1.158H32.562z"/>
	
		<linearGradient id="SVGID_40_" gradientUnits="userSpaceOnUse" x1="-565.5806" y1="-361.1802" x2="-565.5806" y2="-389.4247" gradientTransform="matrix(1.1175 0 0 1.1175 690.5818 467.4909)">
		<stop  offset="0.0045" style="stop-color:#F7987B"/>
		<stop  offset="0.5625" style="stop-color:#E20613"/>
		<stop  offset="1" style="stop-color:#B60E0C"/>
	</linearGradient>
	<path fill="url(#SVGID_40_)" d="M66.127,57.321h18.401c1.786,0,3.438-0.953,4.331-2.498c0.894-1.549,0.894-3.454,0-5.001
		l-8.562-14.831c-1.473-0.268-2.653-0.47-3.362-0.571c-2.775-0.396-3.243-0.021-4.388,0.622c4.216,7.305,7.963,13.792,8.973,15.542
		c-4.706,0-41.242,0-45.948,0c1.673-2.897,6.773-11.733,9.582-16.597c-2.542-0.476-5.308-0.537-7.45-0.18
		c-0.083,0.015-0.164,0.023-0.245,0.034l-9.226,15.981c-0.894,1.547-0.894,3.452,0,5.001c0.892,1.545,2.543,2.498,4.331,2.498
		h10.703"/>
	
		<linearGradient id="SVGID_41_" gradientUnits="userSpaceOnUse" x1="-567.5459" y1="-369.312" x2="-567.5459" y2="-369.312" gradientTransform="matrix(1.1175 0 0 1.1175 690.5818 467.4909)">
		<stop  offset="0.0045" style="stop-color:#F7987B"/>
		<stop  offset="0.5625" style="stop-color:#E20613"/>
		<stop  offset="1" style="stop-color:#B60E0C"/>
	</linearGradient>
	<path fill="url(#SVGID_41_)" d="M56.349,54.784"/>
	
		<linearGradient id="SVGID_42_" gradientUnits="userSpaceOnUse" x1="-565.5811" y1="-373.4854" x2="-565.5811" y2="-420.1104" gradientTransform="matrix(1.1175 0 0 1.1175 690.5818 467.4909)">
		<stop  offset="0" style="stop-color:#FFFFFF"/>
		<stop  offset="1" style="stop-color:#000000"/>
	</linearGradient>
	<path fill="url(#SVGID_42_)" d="M59.771,38.711c-3.679,0-6.743-1.226-9.808-3.065c-1.279-0.768-2.988-1.318-4.81-1.659
		c-2.809,4.864-7.909,13.699-9.582,16.597c4.706,0,41.242,0,45.948,0c-1.009-1.75-4.756-8.237-8.973-15.542
		c-0.625,0.353-1.452,0.784-2.968,1.218C65.287,37.485,63.448,38.711,59.771,38.711z"/>
	<g>
		<g>
			<path fill="#FFFFFF" stroke="#1D1D1B" stroke-width="1.125" stroke-miterlimit="10" d="M41.695,71.977h5.053l-1.128,5.611
				c-0.113,0.557,0.192,0.835,0.913,0.835c0.696,0,1.101-0.283,1.216-0.853l0.582-2.893c0.178-0.885-0.231-1.924-1.225-3.115
				c-1.943-2.212-3.129-3.698-3.556-4.458c-0.43-0.76-0.553-1.593-0.371-2.502l0.552-2.739c0.637-3.164,3.112-4.749,7.428-4.749
				c3.865,0,5.508,1.441,4.929,4.32l-0.849,4.218h-5.053l0.898-4.468c0.098-0.485-0.143-0.728-0.722-0.728
				c-0.678,0-1.109,0.462-1.296,1.39l-0.21,1.583c-0.183,0.906,0.234,1.962,1.253,3.165c1.91,2.144,3.099,3.642,3.562,4.492
				c0.465,0.852,0.589,1.815,0.372,2.894l-0.626,3.114c-0.652,3.245-3.143,4.866-7.471,4.866c-4.173,0-5.963-1.474-5.371-4.421
				L41.695,71.977z"/>
			<path fill="#FFFFFF" stroke="#1D1D1B" stroke-width="1.125" stroke-miterlimit="10" d="M58.6,81.726h-5.052l3.97-19.736h5.053
				L58.6,81.726z M62.792,60.89h-5.052l0.712-3.54h5.052L62.792,60.89z"/>
			<path fill="#FFFFFF" stroke="#1D1D1B" stroke-width="1.125" stroke-miterlimit="10" d="M59.681,85.893l0.585-2.909h4.112
				c1.197,0,1.912-0.571,2.142-1.713c-0.763,0.485-1.856,0.73-3.28,0.73c-0.997,0-1.81-0.254-2.438-0.757
				c-0.629-0.502-0.861-1.163-0.696-1.979L62.957,65.1c0.433-2.151,1.996-3.228,4.69-3.228c0.711,0,1.592,0.287,2.638,0.866
				l0.809-0.749h4.359l-3.914,19.452c-0.257,1.28-0.735,2.342-1.432,3.187c-0.698,0.843-2.423,1.265-5.176,1.265H59.681z
				 M67.134,78.226l2.492-12.387c0.121-0.6-0.11-0.9-0.693-0.9c-0.594,0-0.951,0.301-1.072,0.9L65.376,78.19
				c-0.121,0.602,0.116,0.9,0.71,0.9C66.668,79.091,67.017,78.803,67.134,78.226z"/>
			<path fill="#FFFFFF" stroke="#1D1D1B" stroke-width="1.125" stroke-miterlimit="10" d="M84.401,81.726h-5.052l3.18-15.809
				c0.12-0.6-0.114-0.901-0.702-0.901s-0.939,0.29-1.056,0.866l-3.187,15.844h-5.053l3.971-19.736h5.052l-0.136,0.68
				c0.783-0.531,1.881-0.797,3.294-0.797c0.913,0,1.707,0.237,2.383,0.714c0.676,0.475,0.922,1.171,0.737,2.089L84.401,81.726z"/>
			<path fill="#FFFFFF" stroke="#1D1D1B" stroke-width="1.125" stroke-miterlimit="10" d="M87.048,73.783h5.053l-0.836,4.155
				c-0.134,0.664,0.087,0.996,0.662,0.996c0.575,0,0.988-0.626,1.24-1.878c0.334-1.664,0.203-2.738-0.395-3.228
				c-2.364-1.322-3.764-2.249-4.201-2.777c-0.437-0.526-0.549-1.314-0.337-2.367l0.533-2.65c0.559-2.775,2.796-4.162,6.712-4.162
				c3.809,0,5.446,1.332,4.91,3.996l-0.783,3.896h-4.932l0.581-2.362c0.33-1.643,0.184-2.464-0.44-2.464
				c-0.624,0-1.038,0.513-1.244,1.536c-0.215,1.066-0.239,1.869-0.071,2.413c0.167,0.544,1.517,1.478,4.052,2.803
				c1.002,0.804,1.371,1.867,1.104,3.193l-0.595,2.955c-0.558,2.774-2.83,4.162-6.815,4.162c-3.902,0-5.584-1.333-5.048-4
				L87.048,73.783z"/>
			<path fill="#FFFFFF" stroke="#1D1D1B" stroke-width="1.125" stroke-miterlimit="10" d="M157.894,81.726h-5.747l-1.225-12.987
				l-2.613,12.987h-4.651l4.903-24.376h6.355l0.992,11.118l2.235-11.118h4.652L157.894,81.726z"/>
			<path fill="#FFFFFF" stroke="#1D1D1B" stroke-width="1.125" stroke-miterlimit="10" d="M159.697,77.839l2.375-11.805
				c0.558-2.775,2.849-4.162,6.872-4.162c1.556,0,2.858,0.322,3.909,0.969c1.05,0.644,1.439,1.654,1.162,3.023l-2.442,12.146
				c-0.535,2.661-2.762,3.991-6.679,3.991C160.872,82.001,159.14,80.613,159.697,77.839z M166.535,77.936l2.42-12.033
				c0.13-0.643-0.103-0.964-0.698-0.964c-0.608,0-0.976,0.321-1.105,0.964l-2.421,12.033c-0.135,0.667,0.103,0.999,0.712,0.999
				C166.037,78.935,166.401,78.603,166.535,77.936z"/>
			<path fill="#FFFFFF" stroke="#1D1D1B" stroke-width="1.125" stroke-miterlimit="10" d="M181.798,81.726h-3.185
				c-2.273,0-3.57-0.329-3.887-0.987c-0.314-0.658-0.284-1.923,0.093-3.794l2.423-12.046h-2.245l0.584-2.909h2.247l0.806-4.009
				h5.054l-0.807,4.009h2.709l-0.584,2.909h-2.712l-2.417,12.021c-0.116,0.579-0.016,0.967,0.302,1.165
				c0.318,0.199,1.081,0.299,2.291,0.299L181.798,81.726z"/>
			<path fill="#FFFFFF" stroke="#1D1D1B" stroke-width="1.125" stroke-miterlimit="10" d="M187.737,81.726h-5.053l3.971-19.736
				h5.053L187.737,81.726z M191.929,60.89h-5.054l0.712-3.54h5.053L191.929,60.89z"/>
			<path fill="#FFFFFF" stroke="#1D1D1B" stroke-width="1.125" stroke-miterlimit="10" d="M202.788,70.75h-5.053l0.975-4.843
				c0.129-0.646-0.084-0.969-0.639-0.969c-0.568,0-0.916,0.321-1.046,0.964l-2.42,12.033c-0.135,0.667,0.082,0.999,0.649,0.999
				c0.556,0,0.9-0.332,1.034-0.999l0.955-4.743h5.053l-0.968,4.811c-0.536,2.665-2.743,3.998-6.619,3.998
				c-3.984,0-5.695-1.388-5.138-4.162l2.374-11.805c0.56-2.775,2.829-4.162,6.812-4.162c3.876,0,5.546,1.332,5.01,3.996
				L202.788,70.75z"/>
			<path fill="#FFFFFF" stroke="#1D1D1B" stroke-width="1.125" stroke-miterlimit="10" d="M215.214,73.391h-6.776l-0.917,4.552
				c-0.132,0.661,0.092,0.992,0.673,0.992c0.569,0,0.919-0.331,1.053-0.991l0.789-3.923h5.053l-0.804,3.998
				c-0.535,2.655-2.782,3.982-6.743,3.982c-3.926,0-5.609-1.388-5.052-4.162l2.376-11.805c0.558-2.775,2.8-4.162,6.725-4.162
				c3.962,0,5.674,1.332,5.138,3.999L215.214,73.391z M210.755,70.442l0.912-4.532c0.13-0.647-0.09-0.972-0.658-0.972
				c-0.581,0-0.936,0.324-1.066,0.972l-0.912,4.532H210.755z"/>
			<path fill="#FFFFFF" stroke="#1D1D1B" stroke-width="1.125" stroke-miterlimit="10" d="M216.22,73.783h5.054l-0.836,4.155
				c-0.135,0.664,0.087,0.996,0.661,0.996c0.575,0,0.989-0.626,1.24-1.878c0.334-1.664,0.202-2.738-0.396-3.228
				c-2.364-1.322-3.764-2.249-4.2-2.777c-0.436-0.526-0.548-1.314-0.337-2.367l0.533-2.65c0.558-2.775,2.796-4.162,6.711-4.162
				c3.811,0,5.447,1.332,4.911,3.996l-0.783,3.896h-4.933l0.581-2.362c0.332-1.643,0.185-2.464-0.439-2.464
				s-1.037,0.513-1.244,1.536c-0.215,1.066-0.238,1.869-0.07,2.413c0.167,0.544,1.517,1.478,4.052,2.803
				c1.002,0.804,1.371,1.867,1.104,3.193l-0.594,2.955c-0.558,2.774-2.83,4.162-6.814,4.162c-3.902,0-5.586-1.333-5.048-4
				L216.22,73.783z"/>
		</g>
	</g>
	
		<linearGradient id="SVGID_43_" gradientUnits="userSpaceOnUse" x1="-250.2852" y1="-263.0742" x2="-216.4849" y2="-263.0742" gradientTransform="matrix(1.0838 0 0 1.0838 375.4008 347.4941)">
		<stop  offset="0" style="stop-color:#000000"/>
		<stop  offset="0.4509" style="stop-color:#595959"/>
		<stop  offset="1" style="stop-color:#000000"/>
	</linearGradient>
	<path fill="url(#SVGID_43_)" d="M122.422,53.949c9.696,0,17.593,7.844,17.686,17.518c0.226-0.054,0.448-0.103,0.666-0.149
		c-0.174-9.989-8.32-18.037-18.352-18.037c-9.579,0-17.441,7.338-18.281,16.7c0.215,0.059,0.435,0.121,0.658,0.186
		C105.551,61.1,113.166,53.949,122.422,53.949z"/>
	
		<linearGradient id="SVGID_44_" gradientUnits="userSpaceOnUse" x1="-233.3887" y1="-271.7295" x2="-233.3887" y2="-254.4382" gradientTransform="matrix(1.0838 0 0 1.0838 375.4008 347.4941)">
		<stop  offset="0" style="stop-color:#FFFFFF"/>
		<stop  offset="0.4777" style="stop-color:#E20613"/>
		<stop  offset="1" style="stop-color:#B80E0C"/>
	</linearGradient>
	<path fill="url(#SVGID_44_)" d="M122.422,53.949c-9.257,0-16.871,7.15-17.623,16.217c0.216,0.064,0.435,0.128,0.655,0.194
		c0.657-8.789,8.014-15.74,16.968-15.74c9.381,0,17.014,7.629,17.02,17.009c0.223-0.057,0.445-0.109,0.666-0.162
		C140.015,61.793,132.119,53.949,122.422,53.949z"/>
	<path fill="#FFFFFF" d="M122.422,58.361c-7.292,0-13.229,5.912-13.276,13.193c2.803,0.842,7.118,1.976,8.294,2.093
		c1.49,0.15,2.384-0.148,2.979-0.297c0.597-0.149,1.938-0.746,2.833-0.746c0.894,0,2.386-0.299,3.579,0
		c1.19,0.298,3.278,1.043,3.278,1.043l2.235-0.297l1.939-1.192c0,0,0.802-0.115,1.401,0.059c0.008-0.192,0.015-0.384,0.015-0.577
		C135.701,64.318,129.745,58.361,122.422,58.361z"/>
	
		<linearGradient id="SVGID_45_" gradientUnits="userSpaceOnUse" x1="-233.4175" y1="-261.1187" x2="-233.4175" y2="-246.7662" gradientTransform="matrix(1.0838 0 0 1.0838 375.4008 347.4941)">
		<stop  offset="0" style="stop-color:#000000"/>
		<stop  offset="0.4509" style="stop-color:#595959"/>
		<stop  offset="1" style="stop-color:#000000"/>
	</linearGradient>
	<path fill="url(#SVGID_45_)" d="M122.422,90c10.14,0,18.358-8.221,18.358-18.36c0-0.108-0.005-0.215-0.007-0.322
		c-0.218,0.047-0.44,0.096-0.666,0.149c0,0.058,0.004,0.116,0.004,0.173c0,9.754-7.935,17.69-17.689,17.69
		c-9.754,0-17.689-7.937-17.689-17.69c0-0.496,0.026-0.986,0.066-1.474c-0.224-0.064-0.443-0.127-0.658-0.186
		c-0.049,0.545-0.077,1.099-0.077,1.659C104.064,81.779,112.283,90,122.422,90z"/>
	
		<linearGradient id="SVGID_46_" gradientUnits="userSpaceOnUse" x1="-233.4175" y1="-256.3262" x2="-233.4175" y2="-237.622" gradientTransform="matrix(1.0838 0 0 1.0838 375.4008 347.4941)">
		<stop  offset="0" style="stop-color:#FFFFFF"/>
		<stop  offset="0.4777" style="stop-color:#E20613"/>
		<stop  offset="1" style="stop-color:#B40E0B"/>
	</linearGradient>
	<path fill="url(#SVGID_46_)" d="M139.442,71.64c0,9.386-7.635,17.02-17.02,17.02s-17.021-7.634-17.021-17.02
		c0-0.43,0.021-0.855,0.053-1.279c-0.221-0.066-0.439-0.13-0.655-0.194c-0.04,0.487-0.066,0.978-0.066,1.474
		c0,9.754,7.936,17.69,17.689,17.69c9.755,0,17.689-7.937,17.689-17.69c0-0.057-0.004-0.115-0.004-0.173
		c-0.221,0.053-0.443,0.105-0.666,0.162C139.442,71.631,139.442,71.637,139.442,71.64z"/>
	
		<linearGradient id="SVGID_47_" gradientUnits="userSpaceOnUse" x1="-233.4238" y1="-244.2896" x2="-233.4238" y2="-283.6305" gradientTransform="matrix(1.0838 0 0 1.0838 375.4008 347.4941)">
		<stop  offset="0" style="stop-color:#FFFFFF"/>
		<stop  offset="1" style="stop-color:#000000"/>
	</linearGradient>
	<path fill="url(#SVGID_47_)" d="M134.285,72.158l-1.939,1.192l-2.235,0.297c0,0-2.088-0.745-3.278-1.043
		c-1.193-0.299-2.686,0-3.579,0c-0.895,0-2.236,0.597-2.833,0.746c-0.596,0.148-1.489,0.447-2.979,0.297
		c-1.176-0.117-5.491-1.251-8.294-2.093c0,0.03-0.001,0.058-0.001,0.085c0,7.322,5.956,13.277,13.277,13.277
		c7.128,0,12.961-5.646,13.264-12.7C135.086,72.043,134.285,72.158,134.285,72.158z"/>
	<linearGradient id="SVGID_48_" gradientUnits="userSpaceOnUse" x1="122.4478" y1="75.4082" x2="122.4478" y2="61.7705">
		<stop  offset="0" style="stop-color:#FFFFFF"/>
		<stop  offset="0.4777" style="stop-color:#E20613"/>
		<stop  offset="1" style="stop-color:#B80E0C"/>
	</linearGradient>
	<path fill="url(#SVGID_48_)" d="M122.422,54.62c-8.954,0-16.311,6.951-16.968,15.74c0.617,0.188,1.244,0.39,1.848,0.604
		c0.442,0.159,1.09,0.366,1.844,0.59c0.047-7.281,5.984-13.193,13.276-13.193c2.547,0,4.921,0.734,6.943,1.982l-13.095,13.096
		c0.503,0.106,0.913,0.184,1.169,0.208c1.49,0.15,2.384-0.148,2.979-0.297c0.597-0.149,1.938-0.746,2.833-0.746
		c0.68,0,1.702-0.17,2.68-0.122l7.785-7.787c1.249,2.024,1.983,4.397,1.983,6.944c0,0.193-0.007,0.385-0.015,0.577
		c0.084,0.023,0.163,0.053,0.237,0.089c0.306,0.152,1.897-0.278,3.519-0.677C139.436,62.249,131.803,54.62,122.422,54.62z"/>
	<linearGradient id="SVGID_49_" gradientUnits="userSpaceOnUse" x1="122.4224" y1="87.8008" x2="122.4224" y2="72.148">
		<stop  offset="0.0045" style="stop-color:#F7987B"/>
		<stop  offset="0.5625" style="stop-color:#E20613"/>
		<stop  offset="1" style="stop-color:#B60E0C"/>
	</linearGradient>
	<path fill="url(#SVGID_49_)" d="M115.479,82.935l10.453-10.452c-0.978-0.048-2,0.122-2.68,0.122c-0.895,0-2.236,0.597-2.833,0.746
		c-0.596,0.148-1.489,0.447-2.979,0.297c-0.256-0.024-0.666-0.102-1.169-0.208l-5.145,5.144
		C112.218,80.352,113.709,81.844,115.479,82.935z M135.923,72.306c-0.074-0.036-0.153-0.065-0.237-0.089
		c-0.303,7.054-6.136,12.7-13.264,12.7c-7.321,0-13.277-5.955-13.277-13.277c0-0.027,0.001-0.055,0.001-0.085
		c-0.754-0.224-1.401-0.431-1.844-0.59c-0.604-0.215-1.23-0.417-1.848-0.604c-0.031,0.424-0.053,0.85-0.053,1.279
		c0,9.386,7.636,17.02,17.021,17.02s17.02-7.634,17.02-17.02c0-0.003,0-0.009,0-0.011C137.821,72.027,136.229,72.458,135.923,72.306
		z"/>
	<g>
		<path fill="#1D1D1B" d="M131.205,71.972v3.605l-1.706,0.978l2.128,3.549h-5.512l-0.749-1.178c-1.834,1.08-3.57,1.618-5.208,1.618
			c-1.716,0-3.038-0.513-3.964-1.543c-0.927-1.031-1.39-2.273-1.39-3.727c0-1.164,0.271-2.074,0.813-2.735
			c0.544-0.66,1.362-1.197,2.458-1.612c-1.566-1.013-2.35-2.383-2.35-4.111c0-1.488,0.559-2.688,1.672-3.596
			s2.649-1.362,4.604-1.362c1.759,0,3.145,0.446,4.156,1.336c1.011,0.891,1.519,2.023,1.519,3.398c0,1.445-0.615,2.727-1.844,3.847
			l2.095,3.418L131.205,71.972z M123.36,76.49l-1.927-2.872c-0.73,0.598-1.095,1.244-1.095,1.938c0,0.5,0.114,0.876,0.344,1.126
			c0.229,0.251,0.57,0.375,1.02,0.375C122.18,77.057,122.733,76.867,123.36,76.49z M122.033,68.255
			c0.661-0.792,0.993-1.548,0.993-2.269c0-0.312-0.099-0.596-0.293-0.854s-0.467-0.387-0.816-0.387
			c-0.321,0-0.563,0.098-0.729,0.293c-0.165,0.195-0.247,0.494-0.247,0.894C120.94,66.77,121.303,67.544,122.033,68.255z"/>
	</g>
</g>
</svg>
