<?xml version="1.0" encoding="utf-8"?>
<!-- Generator: Adobe Illustrator 24.0.0, SVG Export Plug-In . SVG Version: 6.00 Build 0)  -->
<svg version="1.1" id="Layer_1" xmlns="http://www.w3.org/2000/svg" xmlns:xlink="http://www.w3.org/1999/xlink" x="0px" y="0px"
	 width="218.1px" height="80px" viewBox="0 0 218.1 80" enable-background="new 0 0 218.1 80" xml:space="preserve">
<g display="none">
	<path display="inline" fill="#FDCF17" d="M33.6,28.5L33.6,28.5l0-0.1l-0.1-0.2l0,0c-0.4-1.5-1.1-2.8-2-4c-1.6-2.1-3.9-3.5-6.7-4.2
		c0,0-1.5-0.4-1.5-0.4c-5-1.1-6-2.3-6-3c0-0.6,0.2-1,0.8-1.4c0.5-0.3,1.3-0.5,2.3-0.5c1.3,0,2.7,0.3,4.1,0.8
		c1.4,0.6,2.8,1.4,4.2,2.5l0.2,0.1l4.6-11.7l-0.1-0.1c-2.3-1.3-4.6-2.3-6.9-3c-2.3-0.6-4.6-1-7-1C14.3,2.5,10.1,4,6.9,7
		c-3.2,2.9-4.8,6.8-4.7,11.5c0,3,0.8,5.6,2.5,7.6c0.2,0.3,0.5,0.6,0.8,0.9l0,0l0.3,0.3l0.1,0.1h0c1.5,1.4,3.6,2.5,6,3.1
		c0,0,2.2,0.5,2.2,0.5c2.8,0.6,4.2,1.5,4.2,2.6c0,0.6-0.3,1.1-0.8,1.5c-0.5,0.4-1.3,0.6-2.3,0.6c-1.4,0-2.9-0.4-4.6-1.1
		C8.9,33.7,7,32.6,5,31l-0.2-0.1L0,43.4l0.1,0.1c2.7,1.6,5.4,2.8,8.1,3.6c2.7,0.8,5.4,1.2,8.1,1.2c5.2,0,9.6-1.6,12.8-4.6
		c3.3-3.1,4.9-7.1,4.9-11.9C34,30.6,33.9,29.5,33.6,28.5z"/>
	<path display="inline" fill="#FDCF17" d="M110.8,25.6l0-5.6c0,0-11,0-11.4,0c0-0.3,0-4.4,0-4.7c0.3,0,12.6,0,12.6,0l0-12.1h-0.2
		L84.4,3.3l0,21.7h0l0,0.2l0,21.7l15,0c0,0,0-15.1,0-15.4c0.3,0,11.4,0,11.4,0L110.8,25.6z"/>
	<path display="inline" fill="#FDCF17" d="M141.6,34.8c0,0-12.9,0-13.2,0c0-0.3,0-3.9,0-4.3c0.3,0,11.7,0,11.7,0l0-4.9l0,0l0-0.1
		v-0.3h0l0-6.1c0,0-11.4,0-11.7,0c0-0.3,0-3.6,0-3.9c0.3,0,12.9,0,12.9,0l0-12.1h-0.2l-27.5,0.1l0,20.8h0l0,0.2l0,22.7l28-0.1
		L141.6,34.8z"/>
	<path display="inline" fill="#FDCF17" d="M165.9,29.9l0-0.1v-0.2h0c0-1.6,0-11.6,0-11.9c0.3,0,8.1,0,8.1,0l0-14.5h-0.2l-31.1,0.1
		l0,14.5c0,0,7.8,0,8.2,0c0,0.3,0,7,0,8.6l0,0l0,0.2c0,0.1,0,0.1,0,0.1l0,0l0,20.1l15,0L165.9,29.9L165.9,29.9z"/>
	<path display="inline" fill="#FDCF17" d="M203.9,28.8c0-0.4,0-1.3,0-1.3c0-0.1,14.3-24.4,14.3-24.4h-0.3l-16.7,0l-3.4,8.5
		c0,0-0.2,0.5-0.2,0.5c-0.4,1-0.7,1.9-0.9,2.5c-0.4-1.3-0.8-2.3-1.1-3l-3.5-8.5l-17.1,0c0,0,13.8,24.3,13.8,24.4c0,0.1,0,1.2,0,1.5
		v0l0,17.7l15.1,0L203.9,28.8L203.9,28.8z"/>
</g>
<path fill="#FFFFFF" d="M125,63.4c-0.1-8.7-7.3-15.7-16-15.7c-8.3,0-15.2,6.4-15.9,14.6c0,0.5-0.1,1-0.1,1.4c0,8.8,7.2,16,16,16
	c8.8,0,16-7.2,16-16C125,63.6,125,63.5,125,63.4z"/>
<path fill="#FDCF17" d="M14.6,46.5c-2.3,0-4.6-0.3-6.9-1c-2.1-0.6-4.3-1.6-6.4-2.8l3.6-9.3c1.6,1.1,3.1,2,4.4,2.5c1.5,0.7,3,1,4.4,1
	c1.1,0,1.9-0.2,2.5-0.7c0.7-0.5,1.1-1.2,1.1-2.1c0-2.2-3.3-2.9-4.4-3.1c0,0-2-0.4-2-0.4c-2-0.5-3.6-1.4-4.9-2.5l-0.1-0.1l-0.2-0.2
	c-0.2-0.2-0.4-0.4-0.6-0.7c-1.3-1.6-2-3.7-2-6.2c0-3.9,1.3-7.1,3.9-9.6c2.6-2.5,6.2-3.7,10.5-3.7c2,0,4,0.3,5.9,0.8
	c1.8,0.5,3.6,1.3,5.4,2.2l-3.4,8.6c-1.1-0.7-2.1-1.3-3.2-1.8c-1.3-0.5-2.7-0.8-3.9-0.8c-1.1,0-1.9,0.2-2.5,0.6
	c-0.7,0.5-1.1,1.1-1.1,2c0,1.5,1.9,2.6,6,3.6l1.3,0.3c2.3,0.5,4.2,1.7,5.5,3.4c0.7,0.9,1.3,2,1.6,3.2l0.1,0.3
	c0.2,0.9,0.3,1.8,0.3,2.7c0,4-1.4,7.4-4.1,9.9C22.6,45.2,19,46.5,14.6,46.5L14.6,46.5L14.6,46.5z"/>
<path fill="#FDCF17" d="M76,8.3l22.8,0l0,8.9c-2.6,0-11.2,0-11.2,0l0,6l10.1,0l0,8.4c-2.4,0-10.1,0-10.1,0s0,10.7,0,13.7l-11.6,0
	L76,8.3z"/>
<path fill="#FDCF17" d="M102,8.2l22.8,0l0,8.9c-2.6,0-11.5,0-11.5,0l0,5.2c0,0,7.9,0,10.4,0l0,8.4l-10.4,0l0,5.6c0,0,9.1,0,11.8,0
	l0,8.9l-23.1,0L102,8.2z"/>
<path fill="#FDCF17" d="M135.1,19.3l-7.2,0l0-11.2l26-0.1l0,11.2c-1.9,0-7.2,0-7.2,0l0,25.9l-11.5,0L135.1,19.3z"/>
<path fill="#FDCF17" d="M168.8,28.6L157.2,8.1l13.1,0l2.9,7c0.3,0.6,0.6,1.5,0.9,2.6l0.8,2.7l0.9-2.7c0.2-0.6,0.4-1.3,0.8-2.2
	l0.2-0.4l2.8-7l13,0c-2.8,4.7-12,20.6-12,20.6l0,16.5l-11.6,0L168.8,28.6z"/>
<path fill="#FFFFFF" d="M64.6,31.1c-5-8.6-10.7-18.6-12.4-21.6C50.1,13.2,42,27.3,42,27.3s-0.7,1.2-1.7,2.9
	c-2.5,4.3-7,12.2-8.5,14.8c4.2,0,36.7,0,40.8,0C71.7,43.4,68.4,37.6,64.6,31.1z"/>
<path fill="#FFFFFF" d="M37.2,64h4.5l-1,5c-0.1,0.5,0.2,0.7,0.8,0.7c0.6,0,1-0.2,1.1-0.8l0.5-2.6c0.2-0.8-0.2-1.7-1.1-2.8
	c-1.7-2-2.8-3.3-3.2-4c-0.4-0.7-0.5-1.4-0.3-2.2L39,55c0.6-2.8,2.8-4.2,6.6-4.2c3.4,0,4.9,1.3,4.4,3.8l-0.8,3.7h-4.5l0.8-4
	c0.1-0.4-0.1-0.6-0.6-0.6c-0.6,0-1,0.4-1.2,1.2l-0.2,1.4c-0.2,0.8,0.2,1.7,1.1,2.8c1.7,1.9,2.8,3.2,3.2,4c0.4,0.8,0.5,1.6,0.3,2.6
	l-0.6,2.8c-0.6,2.9-2.8,4.3-6.6,4.3c-3.7,0-5.3-1.3-4.8-3.9L37.2,64z"/>
<polygon fill="#FFFFFF" points="52.2,72.6 47.7,72.6 51.3,55.1 55.8,55.1 "/>
<path fill="#E50004" d="M80.9,43.3l-6.7-11.7L57.8,3.3c-1.2-2-3.3-3.3-5.6-3.3c-2.3,0-4.5,1.2-5.6,3.3c0,0-11.9,20.6-12,20.9
	L31,30.2l-7.6,13.1c-0.6,1-0.9,2.1-0.9,3.3c0,1.1,0.3,2.3,0.9,3.3c1.2,2,3.3,3.3,5.6,3.3h9.6c0.9-1.7,2.9-3.2,7-3.2
	c2.3,0,3.8,0.5,4.7,1.6c0.2,0.3,0.4,0.5,0.5,0.9l0.5-2.2h6.5l-0.6,3h1.3h16.8c2.3,0,4.5-1.2,5.6-3.3C82.1,47.8,82.1,45.3,80.9,43.3z
	 M35.9,23.8L35.9,23.8C35.9,23.7,35.9,23.7,35.9,23.8C35.9,23.7,35.9,23.7,35.9,23.8C35.9,23.8,35.9,23.8,35.9,23.8
	C35.9,23.8,35.9,23.8,35.9,23.8C35.9,23.8,35.9,23.8,35.9,23.8z M31.8,45c1.5-2.6,6-10.4,8.5-14.8c1-1.8,1.7-2.9,1.7-2.9
	s8.1-14.1,10.2-17.7c1.7,3,7.5,12.9,12.4,21.6c3.7,6.5,7.1,12.3,8,13.8C68.4,45,35.9,45,31.8,45z"/>
<polygon fill="#FFFFFF" points="56,54.1 51.5,54.1 52.1,51 56.6,51 "/>
<path fill="#FFFFFF" d="M53.2,76.3l0.5-2.6h3.7c1.1,0,1.7-0.5,1.9-1.5c-0.7,0.4-1.6,0.6-2.9,0.6c-0.9,0-1.6-0.2-2.2-0.7
	c-0.6-0.4-0.8-1-0.6-1.8l2.5-12.6c0.4-1.9,1.8-2.9,4.2-2.9c0.6,0,1.4,0.3,2.3,0.8l0.7-0.7h3.9l-3.5,17.3c-0.2,1.1-0.7,2.1-1.3,2.8
	c-0.6,0.8-2.2,1.1-4.6,1.1L53.2,76.3L53.2,76.3z M59.8,69.5l2.2-11c0.1-0.5-0.1-0.8-0.6-0.8c-0.5,0-0.8,0.3-1,0.8l-2.2,11
	c-0.1,0.5,0.1,0.8,0.6,0.8C59.4,70.3,59.7,70,59.8,69.5z"/>
<path fill="#FFFFFF" d="M75.2,72.6h-4.5l2.8-14.1c0.1-0.5-0.1-0.8-0.6-0.8S72,58,71.9,58.6l-2.8,14.1h-4.5l3.5-17.5h4.5l-0.1,0.6
	c0.7-0.5,1.7-0.7,2.9-0.7c0.8,0,1.5,0.2,2.1,0.6c0.6,0.4,0.8,1,0.7,1.9L75.2,72.6z"/>
<path fill="#FFFFFF" d="M77.5,65.6H82l-0.7,3.7c-0.1,0.6,0.1,0.9,0.6,0.9c0.5,0,0.9-0.6,1.1-1.7c0.3-1.5,0.2-2.4-0.4-2.9
	c-2.1-1.2-3.3-2-3.7-2.5c-0.4-0.5-0.5-1.2-0.3-2.1l0.5-2.4c0.5-2.5,2.5-3.7,6-3.7c3.4,0,4.8,1.2,4.4,3.6L88.7,62h-4.4l0.5-2.1
	c0.3-1.5,0.2-2.2-0.4-2.2s-0.9,0.5-1.1,1.4c-0.2,0.9-0.2,1.7-0.1,2.1c0.1,0.5,1.3,1.3,3.6,2.5c0.9,0.7,1.2,1.7,1,2.8l-0.5,2.6
	c-0.5,2.5-2.5,3.7-6.1,3.7c-3.5,0-5-1.2-4.5-3.6L77.5,65.6z"/>
<path fill="#FFFFFF" d="M140.5,72.6h-5.1l-1.1-11.5L132,72.6h-4.1l4.4-21.7h5.6l0.9,9.9l2-9.9h4.1L140.5,72.6z"/>
<path fill="#FFFFFF" d="M142.1,69.2l2.1-10.5c0.5-2.5,2.5-3.7,6.1-3.7c1.4,0,2.5,0.3,3.5,0.9c0.9,0.6,1.3,1.5,1,2.7l-2.2,10.8
	c-0.5,2.4-2.5,3.5-5.9,3.5C143.1,72.9,141.6,71.7,142.1,69.2z M148.2,69.3l2.2-10.7c0.1-0.6-0.1-0.9-0.6-0.9c-0.5,0-0.9,0.3-1,0.9
	l-2.1,10.7c-0.1,0.6,0.1,0.9,0.6,0.9C147.7,70.2,148.1,69.9,148.2,69.3z"/>
<path fill="#FFFFFF" d="M161.7,72.6h-2.8c-2,0-3.2-0.3-3.5-0.9c-0.3-0.6-0.3-1.7,0.1-3.4l2.2-10.7h-2l0.5-2.6h2l0.7-3.6h4.5
	l-0.7,3.6h2.4l-0.5,2.6h-2.4L160,68.4c-0.1,0.5,0,0.9,0.3,1c0.3,0.2,1,0.3,2,0.3L161.7,72.6z"/>
<path fill="#FFFFFF" d="M167,72.6h-4.5l3.5-17.5h4.5L167,72.6z M170.7,54.1h-4.5l0.6-3.1h4.5L170.7,54.1z"/>
<path fill="#FFFFFF" d="M180.4,62.9h-4.5l0.9-4.3c0.1-0.6-0.1-0.9-0.6-0.9c-0.5,0-0.8,0.3-0.9,0.9l-2.2,10.7
	c-0.1,0.6,0.1,0.9,0.6,0.9c0.5,0,0.8-0.3,0.9-0.9l0.8-4.2h4.5l-0.9,4.3c-0.5,2.4-2.4,3.6-5.9,3.6c-3.5,0-5.1-1.2-4.6-3.7l2.1-10.5
	c0.5-2.5,2.5-3.7,6.1-3.7c3.4,0,4.9,1.2,4.5,3.6L180.4,62.9z"/>
<path fill="#FFFFFF" d="M191.4,65.2h-6l-0.8,4c-0.1,0.6,0.1,0.9,0.6,0.9c0.5,0,0.8-0.3,0.9-0.9l0.7-3.5h4.5l-0.7,3.6
	c-0.5,2.4-2.5,3.5-6,3.5c-3.5,0-5-1.2-4.5-3.7l2.1-10.5c0.5-2.5,2.5-3.7,6-3.7c3.5,0,5,1.2,4.6,3.6L191.4,65.2z M187.5,62.6l0.8-4
	c0.1-0.6-0.1-0.9-0.6-0.9c-0.5,0-0.8,0.3-0.9,0.9l-0.8,4H187.5z"/>
<path fill="#FFFFFF" d="M192.3,65.6h4.5l-0.7,3.7c-0.1,0.6,0.1,0.9,0.6,0.9c0.5,0,0.9-0.6,1.1-1.7c0.3-1.5,0.2-2.4-0.4-2.9
	c-2.1-1.2-3.3-2-3.7-2.5c-0.4-0.5-0.5-1.2-0.3-2.1l0.5-2.4c0.5-2.5,2.5-3.7,6-3.7c3.4,0,4.8,1.2,4.4,3.6l-0.7,3.5h-4.4l0.5-2.1
	c0.3-1.5,0.2-2.2-0.4-2.2c-0.6,0-0.9,0.5-1.1,1.4c-0.2,0.9-0.2,1.7-0.1,2.1c0.1,0.5,1.4,1.3,3.6,2.5c0.9,0.7,1.2,1.7,1,2.8l-0.5,2.6
	c-0.5,2.5-2.5,3.7-6.1,3.7c-3.5,0-5-1.2-4.5-3.6L192.3,65.6z"/>
<path fill="#E50004" d="M125.3,63.4c-0.2-8.9-7.4-16-16.3-16c-8.5,0-15.5,6.5-16.2,14.8c0,0.5-0.1,1-0.1,1.5c0,9,7.3,16.3,16.3,16.3
	c9,0,16.3-7.3,16.3-16.3C125.3,63.6,125.3,63.5,125.3,63.4z M109,75.5c-6.5,0-11.8-5.3-11.8-11.8c0,0,0-0.1,0-0.1
	c0-6.5,5.3-11.7,11.8-11.7c2.3,0,4.4,0.6,6.2,1.8l-11.6,11.6l-4.6,4.6c1,1.6,2.3,2.9,3.9,3.9l9.3-9.3l6.9-6.9
	c1.1,1.8,1.8,3.9,1.8,6.2c0,0.2,0,0.3,0,0.5C120.5,70.5,115.3,75.5,109,75.5z"/>
<path display="none" d="M116.8,64v3.2l-1.5,0.9l1.9,3.2h-4.9l-0.7-1c-1.6,1-3.2,1.4-4.6,1.4c-1.5,0-2.7-0.5-3.5-1.4
	c-0.8-0.9-1.2-2-1.2-3.3c0-1,0.2-1.8,0.7-2.4c0.5-0.6,1.2-1.1,2.2-1.4c-1.4-0.9-2.1-2.1-2.1-3.7c0-1.3,0.5-2.4,1.5-3.2
	c1-0.8,2.4-1.2,4.1-1.2c1.6,0,2.8,0.4,3.7,1.2c0.9,0.8,1.3,1.8,1.3,3c0,1.3-0.5,2.4-1.6,3.4l1.9,3L116.8,64z M109.8,68l-1.7-2.6
	c-0.6,0.5-1,1.1-1,1.7c0,0.4,0.1,0.8,0.3,1c0.2,0.2,0.5,0.3,0.9,0.3C108.7,68.5,109.2,68.3,109.8,68z M108.6,60.7
	c0.6-0.7,0.9-1.4,0.9-2c0-0.3-0.1-0.5-0.3-0.8c-0.2-0.2-0.4-0.3-0.7-0.3c-0.3,0-0.5,0.1-0.6,0.3c-0.1,0.2-0.2,0.4-0.2,0.8
	C107.6,59.4,108,60,108.6,60.7z"/>
<path fill="#303030" d="M106.9,71.1c-1.4,0-2.4-0.4-3.2-1.2c-0.7-0.8-1.1-1.8-1.1-3c0-0.9,0.2-1.6,0.6-2.1c0.4-0.5,1.1-0.9,2-1.3
	l0.9-0.4l-0.8-0.5c-1.3-0.8-1.9-1.9-1.9-3.2c0-1.2,0.4-2.1,1.3-2.8c0.9-0.7,2.2-1.1,3.8-1.1c1.4,0,2.6,0.4,3.4,1.1
	c0.8,0.7,1.2,1.6,1.2,2.6c0,1.1-0.5,2.1-1.5,3.1l-0.3,0.3l2.3,3.8l2.6-1.5v2.1l-1.7,1l1.7,2.8h-3.7l-0.8-1.2l-0.4,0.2
	C109.8,70.6,108.3,71.1,106.9,71.1z M107.8,65.1c-0.8,0.6-1.2,1.3-1.2,2.1c0,0.6,0.1,1,0.4,1.3c0.3,0.3,0.7,0.5,1.3,0.5
	c0.5,0,1.1-0.2,1.7-0.6l0.4-0.3l-2.3-3.4L107.8,65.1z M108.5,57c-0.5,0-0.9,0.2-1,0.4c-0.2,0.3-0.3,0.6-0.3,1.1
	c0,0.9,0.4,1.7,1.1,2.4l0.4,0.4L109,61c0.7-0.8,1-1.6,1-2.3c0-0.4-0.1-0.7-0.4-1.1C109.4,57.2,109,57,108.5,57z"/>
<g>
	<path fill="#FFFFFF" d="M197,8.2V3.5h-1.7v-1h4.5v1h-1.7v4.7H197z"/>
	<path fill="#FFFFFF" d="M200.6,8.2V2.5h1.7l1,3.9l1-3.9h1.7v5.7H205V3.7l-1.1,4.5h-1.1l-1-4.5v4.5H200.6z"/>
</g>
</svg>
