<?xml version="1.0" encoding="utf-8"?>
<!-- Generator: Adobe Illustrator 16.0.0, SVG Export Plug-In . SVG Version: 6.00 Build 0)  -->
<!DOCTYPE svg PUBLIC "-//W3C//DTD SVG 1.1//EN" "http://www.w3.org/Graphics/SVG/1.1/DTD/svg11.dtd">
<svg version="1.1" id="Layer_1" xmlns="http://www.w3.org/2000/svg" xmlns:xlink="http://www.w3.org/1999/xlink" x="0px" y="0px"
	 width="218.133px" height="80px" viewBox="0 5 218.133 80" enable-background="new 0 5 218.133 80" xml:space="preserve">
<g display="none">
	<path display="inline" fill="#FDCF17" d="M33.614,33.48l0.012-0.005l-0.044-0.14l-0.051-0.198l-0.009,0.004
		c-0.405-1.461-1.067-2.799-1.984-3.972c-1.63-2.087-3.891-3.486-6.718-4.158c-0.004-0.001-1.514-0.351-1.514-0.351
		c-4.958-1.111-5.999-2.267-6-3.039c-0.001-0.593,0.246-1.043,0.755-1.376c0.529-0.347,1.296-0.523,2.281-0.524
		c1.31-0.003,2.684,0.282,4.085,0.849c1.407,0.573,2.829,1.413,4.227,2.495l0.183,0.143l4.578-11.691l-0.131-0.075
		c-2.31-1.314-4.633-2.309-6.905-2.956c-2.277-0.648-4.622-0.975-6.966-0.97c-5.117,0.013-9.31,1.509-12.465,4.449
		c-3.159,2.942-4.755,6.807-4.747,11.487c0.005,3.023,0.837,5.583,2.475,7.61c0.239,0.295,0.501,0.577,0.774,0.85l-0.011,0.001
		l0.268,0.255l0.06,0.055H5.77c1.537,1.416,3.553,2.454,5.999,3.081c0.005,0.001,2.189,0.499,2.189,0.499
		c2.792,0.604,4.206,1.467,4.208,2.568c0.002,0.635-0.257,1.125-0.789,1.5c-0.542,0.382-1.306,0.576-2.271,0.579
		c-1.406,0.002-2.938-0.353-4.555-1.054c-1.63-0.707-3.513-1.845-5.597-3.381l-0.185-0.136L0,48.359l0.125,0.076
		c2.676,1.607,5.39,2.834,8.066,3.639c2.678,0.804,5.394,1.208,8.073,1.203c5.238-0.012,9.551-1.567,12.82-4.625
		c3.274-3.063,4.93-7.061,4.921-11.875C34.002,35.621,33.868,34.515,33.614,33.48z"/>
	<path display="inline" fill="#FDCF17" d="M110.809,30.636l-0.01-5.606c0,0-11.028,0.023-11.366,0.024
		c0-0.312-0.008-4.41-0.009-4.723c0.339-0.001,12.559-0.027,12.559-0.027l-0.021-12.051h-0.173L84.366,8.312l0.04,21.748h-0.003
		l0.003,0.19l0.042,21.709l15.037-0.029c0,0-0.029-15.105-0.029-15.448c0.337-0.001,11.364-0.024,11.364-0.024L110.809,30.636z"/>
	<path display="inline" fill="#FDCF17" d="M141.619,39.775c0,0-12.881,0.029-13.221,0.029c0-0.31-0.006-3.945-0.006-4.254
		c0.336-0.001,11.688-0.026,11.688-0.026l-0.008-4.912l0.007-0.004l-0.007-0.097v-0.289h-0.002l-0.01-6.126
		c0,0-11.354,0.025-11.689,0.026c0-0.307-0.008-3.56-0.008-3.866c0.34,0,12.887-0.027,12.887-0.027l-0.021-12.051h-0.174
		L113.6,8.236l0.039,20.793h-0.005l0.005,0.166l0.043,22.688l27.963-0.059L141.619,39.775z"/>
	<path display="inline" fill="#FDCF17" d="M165.873,34.901l-0.004-0.114V34.54h-0.001c-0.003-1.638-0.021-11.564-0.021-11.874
		c0.332-0.001,8.15-0.018,8.15-0.018L173.97,8.101h-0.176l-31.093,0.065l0.027,14.547c0,0,7.817-0.017,8.151-0.017
		c0,0.294,0.013,7,0.017,8.64l-0.006-0.001l0.006,0.218c0,0.09,0,0.146,0,0.146l0,0l0.039,20.099l14.963-0.028l-0.029-16.864
		L165.873,34.901z"/>
	<path display="inline" fill="#FDCF17" d="M203.876,33.753c-0.001-0.421-0.002-1.261-0.002-1.327
		c0.048-0.082,14.259-24.416,14.259-24.416h-0.304l-16.744,0.036l-3.396,8.546c-0.002,0.001-0.195,0.504-0.195,0.504
		c-0.385,1.038-0.676,1.861-0.881,2.498c-0.398-1.312-0.754-2.338-1.055-3.031l-3.484-8.497l-17.137,0.036
		c0,0,13.782,24.274,13.828,24.354c0,0.071,0.002,1.155,0.004,1.535v0.03l0.032,17.7l15.108-0.031L203.876,33.753L203.876,33.753z"
		/>
</g>
<path fill="#FFFFFF" d="M124.952,68.398c-0.149-8.705-7.251-15.72-15.994-15.72c-8.349,0-15.2,6.396-15.932,14.556
	c-0.042,0.475-0.067,0.957-0.067,1.445c0,8.836,7.164,16,16,16c8.837,0,16-7.164,16-16
	C124.959,68.585,124.954,68.493,124.952,68.398z"/>
<path fill="#FDCF17" d="M14.551,51.469c-2.282,0-4.596-0.348-6.877-1.031c-2.134-0.643-4.298-1.594-6.438-2.832l3.556-9.313
	c1.602,1.125,3.068,1.979,4.368,2.543c1.546,0.67,3.021,1.01,4.389,1.01c1.061-0.003,1.911-0.229,2.544-0.678
	c0.708-0.499,1.08-1.212,1.077-2.062c-0.003-2.191-3.344-2.912-4.442-3.148c0,0-1.957-0.445-1.961-0.446
	c-1.978-0.508-3.644-1.36-4.902-2.52l-0.093-0.086l-0.165-0.166c-0.221-0.221-0.433-0.448-0.625-0.687
	c-1.325-1.639-1.998-3.727-2.002-6.207c-0.006-3.904,1.318-7.12,3.937-9.56c2.634-2.455,6.16-3.705,10.477-3.716
	c2.029,0,4.017,0.278,5.947,0.828c1.771,0.504,3.58,1.256,5.388,2.237l-3.362,8.586c-1.054-0.739-2.12-1.328-3.18-1.76
	c-1.349-0.543-2.675-0.819-3.946-0.819c-1.073,0.002-1.919,0.207-2.536,0.612c-0.703,0.459-1.075,1.14-1.073,1.968
	c0.002,1.533,1.861,2.632,6.027,3.566l1.333,0.31c2.312,0.55,4.156,1.687,5.478,3.379c0.735,0.939,1.276,2.023,1.608,3.221
	l0.077,0.276c0.211,0.859,0.318,1.775,0.321,2.722c0.007,4.022-1.37,7.354-4.092,9.903c-2.736,2.56-6.367,3.861-10.79,3.87
	L14.551,51.469L14.551,51.469z"/>
<path fill="#FDCF17" d="M76.021,13.275l22.751-0.048l0.016,8.935c-2.6,0.005-11.167,0.025-11.167,0.025l0.014,5.975l10.104-0.023
	l0.015,8.379c-2.421,0.005-10.099,0.024-10.099,0.024s0.019,10.728,0.023,13.729L76.09,50.294L76.021,13.275z"/>
<path fill="#FDCF17" d="M102.006,13.208l22.78-0.048l0.017,8.934c-2.647,0.006-11.453,0.022-11.453,0.022l0.008,5.219
	c0,0,7.921-0.02,10.392-0.024l0.019,8.379l-10.392,0.023l0.01,5.559c0,0,9.056-0.02,11.752-0.023l0.019,8.936l-23.078,0.049
	L102.006,13.208z"/>
<path fill="#FDCF17" d="M135.145,24.284l-7.246,0.015l-0.021-11.153l26.017-0.055l0.021,11.153
	c-1.885,0.003-7.246,0.018-7.246,0.018l0.047,25.865l-11.524,0.023L135.145,24.284z"/>
<path fill="#FDCF17" d="M168.818,33.613l-11.655-20.526l13.11-0.028l2.871,7c0.26,0.596,0.562,1.471,0.907,2.615l0.826,2.721
	l0.87-2.706c0.179-0.557,0.436-1.276,0.771-2.184l0.166-0.428l2.797-7.038l13-0.027c-2.758,4.721-12.016,20.571-12.016,20.571
	l0.03,16.476l-11.65,0.023L168.818,33.613z"/>
<path fill="#FFFFFF" d="M64.623,36.148c-4.985-8.634-10.711-18.552-12.445-21.556c-2.091,3.623-10.211,17.686-10.211,17.686
	s-0.679,1.176-1.694,2.933c-2.496,4.324-7.03,12.176-8.517,14.752c4.183,0,36.66,0,40.843,0
	C71.703,48.408,68.372,42.643,64.623,36.148z"/>
<path fill="#FFFFFF" d="M37.2,68.98h4.492l-1.003,4.984c-0.1,0.495,0.17,0.742,0.811,0.742c0.619,0,0.979-0.25,1.082-0.758
	l0.517-2.571c0.158-0.787-0.205-1.71-1.09-2.771c-1.726-1.967-2.78-3.285-3.161-3.963c-0.381-0.676-0.49-1.416-0.329-2.225
	l0.49-2.436c0.566-2.812,2.768-4.219,6.604-4.219c3.435,0,4.896,1.277,4.381,3.84l-0.755,3.748h-4.491l0.799-3.974
	c0.086-0.431-0.127-0.646-0.642-0.646c-0.604,0-0.986,0.412-1.152,1.233l-0.188,1.406c-0.163,0.81,0.208,1.745,1.114,2.812
	c1.699,1.908,2.754,3.24,3.167,3.996c0.414,0.756,0.524,1.611,0.332,2.569l-0.557,2.769c-0.58,2.887-2.794,4.326-6.641,4.326
	c-3.71,0-5.301-1.31-4.774-3.931L37.2,68.98z"/>
<polygon fill="#FFFFFF" points="52.227,77.646 47.735,77.646 51.265,60.102 55.756,60.102 "/>
<path fill="#E50004" d="M80.908,48.256l-6.734-11.662L57.812,8.251C56.653,6.245,54.494,5,52.178,5
	c-2.315,0-4.475,1.246-5.633,3.252c0,0-11.873,20.564-12.044,20.861l-3.502,6.069l-7.55,13.074c-0.567,0.985-0.869,2.11-0.869,3.253
	c0,1.144,0.3,2.269,0.87,3.252c1.157,2.005,3.314,3.253,5.632,3.253h9.575c0.93-1.726,2.899-3.248,6.956-3.248
	c2.289,0,3.832,0.525,4.716,1.604c0.212,0.259,0.372,0.548,0.493,0.858l0.453-2.25h6.532l-0.61,3.035h1.307h16.771
	c2.317,0,4.475-1.248,5.633-3.253C82.067,52.754,82.067,50.262,80.908,48.256z M35.889,28.769l0.027-0.049
	c0.001-0.001,0.001-0.001,0.002-0.001C35.918,28.719,35.906,28.74,35.889,28.769C35.889,28.77,35.889,28.769,35.889,28.769
	c0,0.001-0.001,0.002-0.002,0.003C35.887,28.772,35.889,28.77,35.889,28.769z M31.756,49.963c1.488-2.576,6.021-10.428,8.518-14.752
	c1.014-1.757,1.694-2.933,1.694-2.933s8.121-14.063,10.211-17.686c1.734,3.004,7.46,12.921,12.445,21.556
	c3.748,6.495,7.079,12.26,7.976,13.814C68.416,49.963,35.939,49.963,31.756,49.963z"/>
<polygon fill="#FFFFFF" points="55.953,59.125 51.461,59.125 52.094,55.979 56.586,55.979 "/>
<path fill="#FFFFFF" d="M53.188,81.35l0.52-2.584h3.655c1.064,0,1.701-0.509,1.904-1.522c-0.678,0.432-1.649,0.647-2.915,0.647
	c-0.886,0-1.608-0.226-2.167-0.673c-0.559-0.446-0.765-1.032-0.619-1.759L56.1,62.866c0.385-1.911,1.774-2.869,4.169-2.869
	c0.633,0,1.414,0.258,2.345,0.769l0.719-0.664h3.874l-3.479,17.291c-0.228,1.14-0.653,2.082-1.274,2.834
	c-0.62,0.75-2.154,1.125-4.6,1.125L53.188,81.35L53.188,81.35z M59.812,74.533l2.215-11.01c0.106-0.533-0.099-0.801-0.615-0.801
	c-0.528,0-0.846,0.269-0.953,0.801l-2.208,10.979c-0.107,0.534,0.104,0.8,0.631,0.8C59.399,75.305,59.709,75.047,59.812,74.533z"/>
<path fill="#FFFFFF" d="M75.162,77.646h-4.491l2.826-14.057c0.108-0.531-0.1-0.798-0.623-0.798s-0.835,0.257-0.939,0.769
	l-2.833,14.086H64.61l3.529-17.545h4.492l-0.122,0.604c0.696-0.476,1.672-0.71,2.927-0.71c0.812,0,1.518,0.212,2.119,0.634
	c0.602,0.424,0.819,1.042,0.655,1.856L75.162,77.646z"/>
<path fill="#FFFFFF" d="M77.515,70.586h4.492l-0.743,3.691c-0.12,0.593,0.077,0.886,0.588,0.886c0.51,0,0.878-0.556,1.101-1.666
	c0.298-1.481,0.181-2.437-0.351-2.87c-2.101-1.177-3.346-2-3.733-2.469c-0.388-0.467-0.488-1.17-0.3-2.105l0.474-2.354
	C79.539,61.232,81.527,60,85.008,60c3.387,0,4.842,1.186,4.366,3.555l-0.697,3.463h-4.385l0.517-2.101
	c0.293-1.461,0.163-2.19-0.392-2.19s-0.922,0.457-1.106,1.366c-0.19,0.946-0.211,1.661-0.062,2.146
	c0.149,0.481,1.349,1.313,3.602,2.49c0.891,0.717,1.218,1.662,0.98,2.84l-0.528,2.627c-0.494,2.466-2.513,3.697-6.054,3.697
	c-3.469,0-4.965-1.186-4.488-3.555L77.515,70.586z"/>
<path fill="#FFFFFF" d="M140.488,77.646h-5.106l-1.09-11.545l-2.321,11.545h-4.135l4.357-21.668h5.647l0.884,9.881l1.986-9.881
	h4.136L140.488,77.646z"/>
<path fill="#FFFFFF" d="M142.092,74.189l2.111-10.494c0.496-2.465,2.533-3.698,6.109-3.698c1.383,0,2.539,0.288,3.476,0.86
	c0.935,0.574,1.278,1.47,1.032,2.688l-2.17,10.797c-0.479,2.365-2.457,3.549-5.938,3.549
	C143.137,77.891,141.598,76.657,142.092,74.189z M148.171,74.277l2.151-10.695c0.115-0.572-0.092-0.857-0.621-0.857
	c-0.54,0-0.868,0.285-0.982,0.857l-2.149,10.695c-0.119,0.591,0.092,0.886,0.632,0.886
	C147.729,75.163,148.053,74.868,148.171,74.277z"/>
<path fill="#FFFFFF" d="M161.738,77.646h-2.828c-2.023,0-3.176-0.295-3.457-0.877c-0.279-0.586-0.252-1.711,0.082-3.373
	l2.154-10.707h-1.998l0.521-2.588h1.996l0.717-3.563h4.491l-0.717,3.563h2.406l-0.52,2.588h-2.408l-2.149,10.684
	c-0.104,0.516-0.015,0.861,0.27,1.038c0.283,0.176,0.963,0.265,2.036,0.265L161.738,77.646z"/>
<path fill="#FFFFFF" d="M167.018,77.646h-4.489l3.528-17.545h4.49L167.018,77.646z M170.743,59.125h-4.491l0.633-3.146h4.492
	L170.743,59.125z"/>
<path fill="#FFFFFF" d="M180.396,67.891h-4.492l0.865-4.307c0.114-0.574-0.074-0.861-0.566-0.861c-0.506,0-0.814,0.286-0.93,0.857
	l-2.151,10.695c-0.118,0.593,0.073,0.888,0.578,0.888c0.493,0,0.798-0.295,0.919-0.886l0.848-4.221h4.492l-0.859,4.277
	c-0.478,2.368-2.438,3.555-5.886,3.555c-3.54,0-5.062-1.234-4.565-3.699l2.111-10.494c0.495-2.465,2.514-3.698,6.055-3.698
	c3.447,0,4.933,1.185,4.453,3.553L180.396,67.891z"/>
<path fill="#FFFFFF" d="M191.443,70.236h-6.024l-0.812,4.047c-0.119,0.589,0.08,0.88,0.596,0.88c0.507,0,0.818-0.291,0.938-0.878
	l0.701-3.488h4.491l-0.715,3.555c-0.476,2.358-2.474,3.539-5.994,3.539c-3.49,0-4.985-1.232-4.49-3.699l2.111-10.493
	c0.495-2.466,2.489-3.699,5.979-3.699c3.521,0,5.043,1.187,4.564,3.556L191.443,70.236z M187.479,67.616l0.812-4.029
	c0.116-0.573-0.079-0.862-0.584-0.862c-0.52,0-0.832,0.289-0.948,0.862l-0.81,4.029H187.479z"/>
<path fill="#FFFFFF" d="M192.337,70.586h4.491l-0.742,3.691c-0.118,0.593,0.078,0.886,0.588,0.886c0.512,0,0.879-0.556,1.102-1.666
	c0.3-1.481,0.183-2.437-0.352-2.87c-2.1-1.177-3.346-2-3.732-2.469c-0.389-0.467-0.486-1.17-0.299-2.105l0.475-2.354
	c0.495-2.467,2.482-3.699,5.965-3.699c3.388,0,4.843,1.186,4.366,3.555l-0.695,3.463h-4.386l0.518-2.101
	c0.293-1.461,0.163-2.19-0.393-2.19c-0.555,0-0.921,0.457-1.104,1.366c-0.188,0.946-0.212,1.661-0.062,2.146
	c0.147,0.481,1.35,1.313,3.602,2.49c0.892,0.717,1.219,1.662,0.982,2.84l-0.529,2.627c-0.496,2.466-2.516,3.697-6.057,3.697
	c-3.469,0-4.965-1.185-4.487-3.554L192.337,70.586z"/>
<path fill="#E50004" d="M125.271,68.395c-0.152-8.881-7.396-16.03-16.312-16.03c-8.514,0-15.503,6.521-16.25,14.843
	c-0.043,0.484-0.069,0.979-0.069,1.477c0,9.01,7.307,16.316,16.318,16.316c9.013,0,16.319-7.307,16.319-16.318
	C125.277,68.584,125.273,68.489,125.271,68.395z M108.958,80.482c-6.507,0-11.802-5.295-11.802-11.803
	c0-0.023,0.001-0.051,0.001-0.074c0.041-6.474,5.318-11.728,11.801-11.728c2.265,0,4.374,0.647,6.173,1.76L103.49,70.279
	l-4.573,4.572c0.971,1.572,2.296,2.898,3.868,3.871l9.292-9.293L119,62.509c1.109,1.798,1.762,3.908,1.762,6.175
	c0,0.17-0.007,0.342-0.014,0.51C120.479,75.464,115.295,80.482,108.958,80.482z"/>
<path display="none" d="M116.768,68.975v3.205l-1.517,0.871l1.89,3.154h-4.896l-0.667-1.049c-1.629,0.96-3.173,1.438-4.629,1.438
	c-1.525,0-2.7-0.458-3.523-1.371c-0.824-0.916-1.235-2.021-1.235-3.312c0-1.033,0.241-1.844,0.723-2.432
	c0.481-0.586,1.211-1.063,2.185-1.435c-1.392-0.897-2.088-2.118-2.088-3.651c0-1.324,0.495-2.392,1.484-3.197
	c0.991-0.807,2.355-1.209,4.094-1.209c1.562,0,2.795,0.396,3.695,1.186c0.896,0.793,1.35,1.799,1.35,3.021
	c0,1.285-0.547,2.426-1.639,3.421l1.861,3.038L116.768,68.975z M109.791,72.992l-1.71-2.553c-0.649,0.529-0.975,1.104-0.975,1.723
	c0,0.443,0.102,0.777,0.306,1.001c0.203,0.223,0.505,0.334,0.905,0.334C108.744,73.495,109.236,73.328,109.791,72.992z
	 M108.613,65.672c0.587-0.704,0.881-1.377,0.881-2.018c0-0.277-0.086-0.529-0.258-0.76c-0.173-0.229-0.415-0.346-0.727-0.346
	c-0.285,0-0.501,0.087-0.646,0.262c-0.147,0.174-0.221,0.438-0.221,0.797C107.642,64.352,107.965,65.039,108.613,65.672z"/>
<path fill="#303030" d="M106.947,76.095c-1.389,0-2.42-0.395-3.151-1.206c-0.745-0.828-1.106-1.803-1.106-2.979
	c0-0.909,0.205-1.621,0.61-2.114c0.421-0.514,1.086-0.944,1.976-1.282l0.924-0.353l-0.831-0.536
	c-1.251-0.809-1.859-1.865-1.859-3.232c0-1.177,0.425-2.097,1.3-2.81c0.894-0.728,2.165-1.097,3.778-1.097
	c1.432,0,2.562,0.356,3.365,1.062c0.794,0.701,1.18,1.566,1.18,2.646c0,1.148-0.482,2.146-1.476,3.053l-0.306,0.277l2.332,3.806
	l2.584-1.488v2.052l-1.707,0.979l1.697,2.834h-3.74l-0.778-1.226l-0.416,0.246C109.78,75.634,108.309,76.095,106.947,76.095z
	 M107.765,70.053c-0.769,0.629-1.159,1.338-1.159,2.109c0,0.57,0.147,1.021,0.437,1.338c0.301,0.33,0.729,0.497,1.274,0.497
	c0.522-0.002,1.104-0.196,1.733-0.577l0.448-0.271l-2.308-3.443L107.765,70.053z M108.51,62.05c-0.546,0-0.862,0.239-1.03,0.439
	c-0.224,0.265-0.338,0.642-0.338,1.118c0,0.881,0.377,1.694,1.122,2.422l0.388,0.378l0.346-0.415
	c0.662-0.793,0.998-1.58,0.998-2.338c0-0.387-0.12-0.741-0.357-1.061C109.367,62.238,108.978,62.05,108.51,62.05z"/>
</svg>
