<?xml version="1.0" encoding="utf-8"?>
<!-- Generator: Adobe Illustrator 19.1.0, SVG Export Plug-In . SVG Version: 6.00 Build 0)  -->
<!DOCTYPE svg PUBLIC "-//W3C//DTD SVG 1.1//EN" "http://www.w3.org/Graphics/SVG/1.1/DTD/svg11.dtd">
<svg version="1.1" id="Layer_1" xmlns="http://www.w3.org/2000/svg" xmlns:xlink="http://www.w3.org/1999/xlink" x="0px" y="0px"
	 viewBox="526 -425.3 1451.3 1451.3" style="enable-background:new 526 -425.3 1451.3 1451.3;" xml:space="preserve">
<style type="text/css">
	.st0{display:none;}
	.st1{display:inline;fill:none;stroke:#000000;stroke-width:2;stroke-miterlimit:10;}
	.st2{fill:#62C4B8;}
	.st3{opacity:0.9;fill:#5597CC;}
	.st4{opacity:0.9;fill:#E4EEF6;}
</style>
<g id="Layer_2" class="st0">
	<rect x="608.2" y="-264.4" class="st1" width="1945.6" height="1945.6"/>
</g>
<g id="XMLID_5_">
	<path id="XMLID_3_" class="st2" d="M1815.9,477.9c0,140.4-52.8,268.4-139.6,365.4c-26,29.1,1,180.3,1,180.3s-158-56.8-196.8-40.4
		c-65.4,27.6-137.3,42.8-212.8,42.8c-302.7,0-548-245.4-548-548s245.4-548,548-548S1815.9,175.2,1815.9,477.9z"/>
	<path id="XMLID_2_" class="st3" d="M1801.1,301.9c0,140.4-52.8,268.4-139.6,365.4c-26,29.1,1,180.3,1,180.3s-158-56.8-196.8-40.4
		c-65.4,27.6-137.3,42.8-212.8,42.8c-302.7,0-548-245.4-548-548s245.4-548,548-548S1801.1-0.8,1801.1,301.9z"/>
	<path id="XMLID_1_" class="st4" d="M1783.4,122.8c0,140.4-52.8,268.4-139.6,365.4c-26,29.1,1,180.3,1,180.3s-158-56.8-196.8-40.4
		c-65.4,27.6-137.3,42.8-212.8,42.8c-302.7,0-548-245.4-548-548s245.4-548,548-548S1783.4-179.9,1783.4,122.8z"/>
</g>
</svg>
