<?xml version="1.0" encoding="utf-8"?>
<!-- Generator: Adobe Illustrator 19.0.1, SVG Export Plug-In . SVG Version: 6.00 Build 0)  -->
<!DOCTYPE svg PUBLIC "-//W3C//DTD SVG 1.1//EN" "http://www.w3.org/Graphics/SVG/1.1/DTD/svg11.dtd">
<svg version="1.1" id="Layer_1" xmlns="http://www.w3.org/2000/svg" xmlns:xlink="http://www.w3.org/1999/xlink" x="0px" y="0px"
	 viewBox="-274 397.9 46 46" style="enable-background:new -274 397.9 46 46;" xml:space="preserve">
<style type="text/css">
	.st0{fill:#62C4B8;}
	.st1{opacity:0.9;fill:#5597CC;}
	.st2{opacity:0.9;fill:#E4EEF6;}
</style>
<g>
	<path class="st0" d="M-233.2,426.5c0,4.4-1.7,8.5-4.4,11.6c-0.8,0.9,0,5.7,0,5.7s-5-1.8-6.2-1.3c-2.1,0.9-4.4,1.4-6.7,1.4
		c-9.6,0-17.4-7.8-17.4-17.4s7.8-17.4,17.4-17.4C-240.9,409.1-233.2,416.9-233.2,426.5z"/>
	<path class="st1" d="M-233.6,420.9c0,4.4-1.7,8.5-4.4,11.6c-0.8,0.9,0,5.7,0,5.7s-5-1.8-6.2-1.3c-2.1,0.9-4.4,1.4-6.7,1.4
		c-9.6,0-17.4-7.8-17.4-17.4s7.8-17.4,17.4-17.4C-241.4,403.6-233.6,411.3-233.6,420.9z"/>
	<path class="st2" d="M-234.2,415.3c0,4.4-1.7,8.5-4.4,11.6c-0.8,0.9,0,5.7,0,5.7s-5-1.8-6.2-1.3c-2.1,0.9-4.4,1.4-6.7,1.4
		c-9.6,0-17.4-7.8-17.4-17.4s7.8-17.4,17.4-17.4C-242,397.9-234.2,405.7-234.2,415.3z"/>
</g>
</svg>
