<?xml version="1.0" encoding="utf-8"?>
<!-- Generator: Adobe Illustrator 19.2.0, SVG Export Plug-In . SVG Version: 6.00 Build 0)  -->
<!DOCTYPE svg PUBLIC "-//W3C//DTD SVG 1.1//EN" "http://www.w3.org/Graphics/SVG/1.1/DTD/svg11.dtd">
<svg version="1.1" id="Layer_1" xmlns="http://www.w3.org/2000/svg" xmlns:xlink="http://www.w3.org/1999/xlink" x="0px" y="0px"
	 viewBox="0 0 169 118" style="enable-background:new 0 0 169 118;" xml:space="preserve">
<style type="text/css">
	.st0{fill:#FAFAFA;}
	.st1{fill:#CDCCCC;}
	.st2{opacity:0.71;fill:#E64D3C;enable-background:new    ;}
	.st3{opacity:0.71;fill:#F0C419;enable-background:new    ;}
	.st4{opacity:0.71;fill:#4FBA6F;enable-background:new    ;}
	.st5{fill:#E6E6E5;}
	.st6{fill:#CCCCCC;}
</style>
<g>
	<path class="st0" d="M169,116.4c0,0.7-0.4,1.6-1.1,1.6H1.2c-0.7,0-1.2-0.9-1.2-1.6V9h169V116.4z"/>
	<path class="st1" d="M169,5H0V1c0-0.6,0.5-1,1.1-1h167c0.6,0,1,0.4,1,1v4H169z"/>
	<circle class="st2" cx="2.8" cy="2.5" r="1"/>
	<circle class="st3" cx="6" cy="2.5" r="1"/>
	<circle class="st4" cx="9.3" cy="2.5" r="1"/>
	<path class="st5" d="M35.3,1.6C35.2,1.4,35,1,34.6,1H15.4c-0.3,0-0.5,0.4-0.6,0.6L14,4.4C13.9,4.7,13.5,5,13.5,5h23
		c0,0-0.3-0.3-0.4-0.5L35.3,1.6z"/>
	<path class="st6" d="M125.1,9v109h42.8c0.7,0,1.1-0.9,1.1-1.6V9H125.1z"/>
	<rect y="5" class="st5" width="169" height="4"/>
</g>
</svg>
