<?xml version="1.0" encoding="utf-8"?>
<!-- Generator: Adobe Illustrator 19.2.0, SVG Export Plug-In . SVG Version: 6.00 Build 0)  -->
<!DOCTYPE svg PUBLIC "-//W3C//DTD SVG 1.1//EN" "http://www.w3.org/Graphics/SVG/1.1/DTD/svg11.dtd">
<svg version="1.1" id="Layer_1" xmlns="http://www.w3.org/2000/svg" xmlns:xlink="http://www.w3.org/1999/xlink" x="0px" y="0px"
	 viewBox="0 0 169 118" style="enable-background:new 0 0 169 118;" xml:space="preserve">
<style type="text/css">
	.st0{fill:#FAFAFA;}
	.st1{fill:#CBCACA;}
	.st2{opacity:0.71;fill:#E44C3B;}
	.st3{opacity:0.71;fill:#EEC21A;}
	.st4{opacity:0.71;fill:#4DB86F;}
	.st5{fill:#E4E4E3;}
	.st6{fill:#54B5E2;}
	.st7{fill:#2E7598;}
</style>
<g>
	<path class="st0" d="M169,116.4c0,0.7-0.4,1.6-1.1,1.6H1.2c-0.7,0-1.2-0.9-1.2-1.6V9h169V116.4z"/>
	<path class="st1" d="M169,5H0V1c0-0.6,0.5-1,1.1-1h167c0.6,0,1,0.4,1,1V5z"/>
	<circle class="st2" cx="2.8" cy="2.5" r="1"/>
	<circle class="st3" cx="6" cy="2.5" r="1"/>
	<circle class="st4" cx="9.3" cy="2.5" r="1"/>
	<path class="st5" d="M35.3,1.6C35.2,1.4,35,1,34.6,1H15.4c-0.3,0-0.5,0.4-0.6,0.6l-0.8,2.8C13.9,4.7,13.5,5,13.5,5h23
		c0,0-0.3-0.3-0.4-0.5L35.3,1.6z"/>
	<rect y="5" class="st5" width="169" height="4"/>
	<g>
		<path class="st6" d="M125,9h44v107.4c0,0.5-0.3,1.6-0.6,1.6H125V9z"/>
		<path class="st7" d="M168,10v106.4c0,0.2-0.1,0.5-0.2,0.6l-42.8,0V10H168 M169,9h-45v109l43.9,0c0.7,0,1.1-0.9,1.1-1.6V9L169,9z"
			/>
	</g>
</g>
</svg>
