<?xml version="1.0" encoding="utf-8"?>
<!-- Generator: Adobe Illustrator 19.2.0, SVG Export Plug-In . SVG Version: 6.00 Build 0)  -->
<!DOCTYPE svg PUBLIC "-//W3C//DTD SVG 1.1//EN" "http://www.w3.org/Graphics/SVG/1.1/DTD/svg11.dtd">
<svg version="1.1" id="Layer_1" xmlns="http://www.w3.org/2000/svg" xmlns:xlink="http://www.w3.org/1999/xlink" x="0px" y="0px"
	 viewBox="0 0 169 118" style="enable-background:new 0 0 169 118;" xml:space="preserve">
<style type="text/css">
	.st0{fill:#CBCACA;}
	.st1{opacity:0.71;fill:#E44C3B;}
	.st2{opacity:0.71;fill:#EEC21A;}
	.st3{opacity:0.71;fill:#4DB86F;}
	.st4{fill:#E4E4E3;}
	.st5{fill:#FAFAFA;}
	.st6{fill:#51B5E1;stroke:#2D7497;stroke-width:0.8504;stroke-miterlimit:10;}
</style>
<g>
	<path class="st0" d="M169,5H0V0.6C0,0,0.5,0,1.1,0h167c0.6,0,1,0,1,0.6V5z"/>
	<circle class="st1" cx="2.8" cy="2.2" r="1"/>
	<circle class="st2" cx="6" cy="2.2" r="1"/>
	<circle class="st3" cx="9.3" cy="2.2" r="1"/>
	<path class="st4" d="M35.3,1.4C35.2,1.2,35,1,34.6,1H15.4c-0.3,0-0.5,0.2-0.6,0.4l-0.8,2.9C13.9,4.6,13.5,5,13.5,5h23
		c0,0-0.3-0.4-0.4-0.6L35.3,1.4z"/>
	<path class="st5" d="M169,116c0,0.7-0.4,2-1.1,2H1.2c-0.7,0-1.2-1.2-1.2-2V9h169V116z"/>
	<rect y="5" class="st4" width="169" height="4"/>
</g>
<path class="st6" d="M113.6,117.6V65.8c0-3.3,2.7-6,6-6h27.7c3.3,0,6,2.7,6,6v51.8H113.6z"/>
</svg>
