<?xml version="1.0" encoding="utf-8"?>
<!-- Generator: Adobe Illustrator 19.2.1, SVG Export Plug-In . SVG Version: 6.00 Build 0)  -->
<!DOCTYPE svg PUBLIC "-//W3C//DTD SVG 1.1//EN" "http://www.w3.org/Graphics/SVG/1.1/DTD/svg11.dtd">
<svg version="1.1" id="Layer_1" xmlns="http://www.w3.org/2000/svg" xmlns:xlink="http://www.w3.org/1999/xlink" x="0px" y="0px"
	 viewBox="0 0 56 56" style="enable-background:new 0 0 56 56;" xml:space="preserve">
<style type="text/css">
	.st0{fill:#A3413A;}
	.st1{fill:#E45C5C;}
	.st2{fill:#A4413B;}
</style>
<g>
	<g id="Sad_1_">
		<path class="st0" d="M28,56C12.6,56,0,43.4,0,28S12.6,0,28,0c15.4,0,28,12.6,28,28S43.4,56,28,56z"/>
		<path class="st1" d="M28,3C14.2,3,3,14.2,3,28s11.2,25,25,25c13.8,0,25-11.2,25-25S41.8,3,28,3z"/>
		<path class="st0" d="M43.9,44.3c-0.5,0-1-0.3-1.2-0.8c-2.3-6.1-8.2-10.2-14.7-10.2c-6.5,0-12.4,4.1-14.7,10.2
			c-0.2,0.5-0.7,0.8-1.2,0.8c-0.2,0-0.3,0-0.5-0.1c-0.7-0.3-1-1-0.8-1.7c2.7-7.1,9.6-11.8,17.1-11.8c7.6,0,14.5,4.8,17.1,11.8
			c0.1,0.3,0.1,0.7,0,1c-0.1,0.3-0.4,0.6-0.7,0.7C44.2,44.3,44.1,44.3,43.9,44.3z"/>
	</g>
	<g>
		<path class="st2" d="M36,26.3c-0.7,0-1.3-0.6-1.3-1.3v-6c0-0.7,0.6-1.3,1.3-1.3s1.3,0.6,1.3,1.3v6C37.3,25.7,36.7,26.3,36,26.3z"
			/>
		<path class="st2" d="M20,26.3c-0.7,0-1.3-0.6-1.3-1.3v-6c0-0.7,0.6-1.3,1.3-1.3s1.3,0.6,1.3,1.3v6C21.3,25.7,20.7,26.3,20,26.3z"
			/>
	</g>
</g>
</svg>
