<?xml version="1.0" encoding="utf-8"?>
<!-- Generator: Adobe Illustrator 19.1.0, SVG Export Plug-In . SVG Version: 6.00 Build 0)  -->
<!DOCTYPE svg PUBLIC "-//W3C//DTD SVG 1.1//EN" "http://www.w3.org/Graphics/SVG/1.1/DTD/svg11.dtd">
<svg version="1.1" id="Layer_1" xmlns="http://www.w3.org/2000/svg" xmlns:xlink="http://www.w3.org/1999/xlink" x="0px" y="0px"
	 viewBox="-766.7 -304.8 1451.3 1451.3" style="enable-background:new -766.7 -304.8 1451.3 1451.3;" xml:space="preserve">
<style type="text/css">
	.st0{fill:url(#Oval-1_2_);}
	.st1{fill:url(#path-5_4_);stroke:#979797;}
	.st2{fill:none;}
	.st3{fill:url(#path-5_5_);}
	.st4{fill:url(#Rectangle-1_1_);}
	.st5{fill:url(#Rectangle-33_1_);}
	.st6{fill:#ACACAC;}
	.st7{fill:#EDEDED;}
	.st8{fill:#FE4F4F;}
	.st9{fill:#CF1D13;}
</style>
<g id="Page-1" sketch:type="MSPage">
	<g id="Safari-Icon" transform="translate(7.000000, 4.000000)" sketch:type="MSLayerGroup">
		
			<linearGradient id="Oval-1_2_" gradientUnits="userSpaceOnUse" x1="-344.3555" y1="838.4647" x2="-344.3555" y2="835.3744" gradientTransform="matrix(450 0 0 -450 154911.9844 377000.9062)">
			<stop  offset="0" style="stop-color:#FFFFFF"/>
			<stop  offset="1" style="stop-color:#CCCCCC"/>
		</linearGradient>
		<path id="Oval-1" sketch:type="MSShapeGroup" class="st0" d="M677.1,416.9c0-400.5-324.6-725.1-725.1-725.1
			S-773.1,16.4-773.1,416.9S-448.5,1142-48,1142S677.1,817.4,677.1,416.9z M-711.9,416.9C-711.9,50.2-414.6-247-48-247
			S615.9,50.2,615.9,416.9S318.6,1080.8-48,1080.8S-711.9,783.5-711.9,416.9z"/>
		<g id="Oval-1_1_">
			<g sketch:type="MSShapeGroup">
				
					<radialGradient id="path-5_4_" cx="-344.3437" cy="836.7279" r="1.4786" gradientTransform="matrix(416 0 0 -415 143198.9844 347695.5938)" gradientUnits="userSpaceOnUse">
					<stop  offset="0" style="stop-color:#1CA9C8"/>
					<stop  offset="1" style="stop-color:#1266BC"/>
				</radialGradient>
				<ellipse id="path-5" class="st1" cx="-48" cy="415.3" rx="670.3" ry="668.7"/>
			</g>
			<g>
				<ellipse id="path-5_1_" class="st2" cx="-48" cy="415.3" rx="670.3" ry="668.7"/>
			</g>
			<g>
				<ellipse id="path-5_2_" class="st2" cx="-48" cy="415.3" rx="670.3" ry="668.7"/>
			</g>
			<g>
				
					<radialGradient id="path-5_5_" cx="-344.3437" cy="836.8201" r="1.6974" gradientTransform="matrix(416 0 0 -415 143198.9844 347695.5938)" gradientUnits="userSpaceOnUse">
					<stop  offset="0" style="stop-color:#019CB8"/>
					<stop  offset="0.2219" style="stop-color:#00A8CB"/>
					<stop  offset="0.4466" style="stop-color:#009AC7"/>
					<stop  offset="1" style="stop-color:#0A69DB"/>
				</radialGradient>
				<ellipse id="path-5_3_" class="st3" cx="-48" cy="415.3" rx="670.3" ry="668.7"/>
			</g>
		</g>
		
			<linearGradient id="Rectangle-1_1_" gradientUnits="userSpaceOnUse" x1="-344.3368" y1="838.8569" x2="-344.3368" y2="835.3181" gradientTransform="matrix(398.3812 0 0 -398.3332 137129.2969 333741.4688)">
			<stop  offset="0" style="stop-color:#FFFFFF"/>
			<stop  offset="1" style="stop-color:#CCCCCC"/>
		</linearGradient>
		<path id="Rectangle-1" sketch:type="MSShapeGroup" class="st4" d="M-48-224.4c-5.3,0-9.7,4.4-9.7,9.7v116c0,5.3,4.3,9.7,9.7,9.7
			c5.3,0,9.7-4.4,9.7-9.7v-116C-38.3-220.1-42.7-224.4-48-224.4z M78.8-210.4c-5.2-1.1-10.4,2.2-11.5,7.5L43.2-89.5
			c-1.1,5.2,2.2,10.4,7.4,11.5c5.2,1.1,10.4-2.2,11.5-7.5l24.1-113.5C87.4-204.1,84-209.3,78.8-210.4z M197.9-176.6
			c-5-2-10.6,0.4-12.6,5.4L141.8-63.7c-2,5,0.4,10.6,5.3,12.6c5,2,10.6-0.4,12.6-5.4L203.2-164C205.2-169,202.8-174.6,197.9-176.6z
			 M308-116.1c-4.4-3-10.4-1.8-13.4,2.6l-64.9,96.2c-3,4.4-1.8,10.5,2.6,13.4c4.4,3,10.4,1.8,13.4-2.6l64.9-96.2
			C313.6-107.1,312.4-113.1,308-116.1z M405.6-35.5c-3.6-3.9-9.8-4.1-13.7-0.5l-84.8,79.1c-3.9,3.6-4.1,9.8-0.5,13.7
			c3.6,3.9,9.8,4.1,13.7,0.5l84.8-79.1C409.1-25.5,409.3-31.6,405.6-35.5z M486.7,61.3c-2.9-4.5-8.9-5.7-13.4-2.8L376,121.6
			c-4.5,2.9-5.8,8.9-2.9,13.4c2.9,4.5,8.9,5.7,13.4,2.8l97.3-63.2C488.3,71.7,489.6,65.7,486.7,61.3z M545.7,170.6
			c-2-5-7.7-7.3-12.6-5.3l-107.5,43.5c-5,2-7.3,7.6-5.4,12.6c2,5,7.7,7.3,12.6,5.3l107.5-43.5C545.3,181.1,547.7,175.5,545.7,170.6z
			 M583,292.9c-1-5.2-6.1-8.7-11.3-7.6l-113.9,22.1c-5.2,1-8.7,6.1-7.7,11.3c1,5.2,6.1,8.7,11.3,7.6l113.9-22.1
			C580.6,303.3,584,298.2,583,292.9z M593.9,416.2c0-5.3-4.4-9.7-9.7-9.7h-116c-5.3,0-9.7,4.3-9.7,9.7c0,5.3,4.4,9.7,9.7,9.7h116
			C589.6,425.9,593.9,421.5,593.9,416.2z M580.6,541.7c1-5.2-2.4-10.3-7.7-11.3l-113.9-22.1c-5.2-1-10.3,2.4-11.3,7.6
			c-1,5.2,2.4,10.3,7.7,11.3l113.9,22.1C574.5,550.4,579.6,547,580.6,541.7z M543.8,663c2.1-4.9-0.2-10.6-5.1-12.7L431.9,605
			c-4.9-2.1-10.6,0.2-12.7,5.1c-2.1,4.9,0.2,10.6,5.1,12.7l106.8,45.3C536,670.2,541.7,667.9,543.8,663z M482.5,772.8
			c3.1-4.4,2-10.4-2.4-13.5l-95-66.5c-4.4-3.1-10.4-2-13.5,2.4c-3.1,4.4-2,10.4,2.4,13.5l95,66.5
			C473.4,778.2,479.4,777.1,482.5,772.8z M408,871.3c3.7-3.8,3.6-10-0.2-13.7l-83.4-80.6c-3.8-3.7-10-3.6-13.7,0.2
			c-3.7,3.8-3.6,10,0.2,13.7l83.4,80.6C398.2,875.3,404.3,875.2,408,871.3z M308,947.7c4.4-3,5.6-9,2.6-13.4l-64.9-96.2
			c-3-4.4-9-5.6-13.4-2.6c-4.4,3-5.6,9-2.6,13.4l64.9,96.2C297.6,949.5,303.6,950.7,308,947.7z M196.9,1007
			c4.9-2.2,7.1-7.9,4.9-12.8l-47.2-106c-2.2-4.9-7.9-7.1-12.8-4.9c-4.9,2.2-7.1,7.9-4.9,12.8l47.2,106
			C186.4,1007,192.1,1009.2,196.9,1007z M79,1045.2c5.2-1.1,8.6-6.3,7.4-11.5L62.3,920.3c-1.1-5.2-6.3-8.6-11.5-7.5
			c-5.2,1.1-8.6,6.3-7.4,11.5l24.1,113.5C68.6,1043,73.8,1046.4,79,1045.2z M-48,1059.3c5.3,0,9.7-4.4,9.7-9.7v-116
			c0-5.3-4.3-9.7-9.7-9.7c-5.3,0-9.7,4.4-9.7,9.7v116C-57.7,1054.9-53.3,1059.3-48,1059.3z M-173.7,1046.3
			c5.2,1.1,10.4-2.2,11.5-7.5l24.1-113.5c1.1-5.2-2.2-10.4-7.4-11.5c-5.2-1.1-10.4,2.2-11.5,7.5l-24.1,113.5
			C-182.3,1040-178.9,1045.2-173.7,1046.3z M-296.2,1010.2c4.9,2.2,10.6,0,12.8-4.9l47.2-106c2.2-4.9,0-10.6-4.9-12.8
			c-4.9-2.2-10.6,0-12.8,4.9l-47.2,106C-303.2,1002.3-301,1008.1-296.2,1010.2z M-403.8,948.7c4.4,3,10.4,1.8,13.4-2.6l64.9-96.2
			c3-4.4,1.8-10.5-2.6-13.4c-4.4-3-10.4-1.8-13.4,2.6l-64.9,96.2C-409.4,939.7-408.2,945.7-403.8,948.7z M-504.1,874.4
			c3.7,3.8,9.8,3.9,13.7,0.2L-407,794c3.8-3.7,3.9-9.8,0.2-13.7c-3.7-3.8-9.8-3.9-13.7-0.2l-83.4,80.6
			C-507.7,864.4-507.8,870.6-504.1,874.4z M-583,774c2.9,4.5,8.9,5.7,13.4,2.8l97.3-63.2c4.5-2.9,5.8-8.9,2.9-13.4
			c-2.9-4.5-8.9-5.7-13.4-2.8l-97.3,63.2C-584.6,763.6-585.9,769.6-583,774z M-639.8,662.2c2.1,4.9,7.8,7.2,12.7,5.1l106.8-45.3
			c4.9-2.1,7.2-7.8,5.1-12.7c-2.1-4.9-7.8-7.2-12.7-5.1l-106.8,45.3C-639.6,651.6-641.9,657.3-639.8,662.2z M-676.6,540.1
			c1,5.2,6.1,8.7,11.3,7.6l113.9-22.1c5.2-1,8.7-6.1,7.7-11.3c-1-5.2-6.1-8.7-11.3-7.6L-669,528.8
			C-674.2,529.8-677.6,534.9-676.6,540.1z M-689.9,416.2c0,5.3,4.4,9.7,9.7,9.7h116c5.3,0,9.7-4.3,9.7-9.7c0-5.3-4.4-9.7-9.7-9.7
			h-116C-685.6,406.5-689.9,410.9-689.9,416.2z M-675.8,292.9c-1,5.2,2.4,10.3,7.7,11.3l113.9,22.1c5.2,1,10.3-2.4,11.3-7.6
			c1-5.2-2.4-10.3-7.7-11.3l-113.9-22.1C-669.7,284.3-674.8,287.7-675.8,292.9z M-640.7,172.8c-2,5,0.4,10.6,5.4,12.6l107.5,43.5
			c5,2,10.6-0.4,12.6-5.3c2-5-0.4-10.6-5.4-12.6l-107.5-43.5C-633.1,165.4-638.7,167.8-640.7,172.8z M-582.7,61.3
			c-2.9,4.5-1.6,10.5,2.9,13.4l97.3,63.2c4.5,2.9,10.5,1.6,13.4-2.8c2.9-4.5,1.6-10.5-2.9-13.4l-97.3-63.2
			C-573.8,55.5-579.8,56.8-582.7,61.3z M-502.3-37c-3.8,3.8-3.8,9.9,0,13.7l82,82c3.8,3.8,9.9,3.8,13.7,0c3.8-3.8,3.8-9.9,0-13.7
			l-82-82C-492.4-40.8-498.6-40.8-502.3-37z M-404-116.1c-4.4,3-5.6,9-2.6,13.4l64.9,96.2c3,4.4,9,5.6,13.4,2.6
			c4.4-3,5.6-9,2.6-13.4l-64.9-96.2C-393.6-117.9-399.6-119.1-404-116.1z M-293.3-175.1c-4.9,2.1-7.2,7.8-5.1,12.7l45.3,106.8
			c2.1,4.9,7.8,7.2,12.7,5.1c4.9-2.1,7.2-7.8,5.1-12.7L-280.6-170C-282.7-174.9-288.4-177.2-293.3-175.1z M-172.5-213
			c-5.2,1-8.7,6.1-7.6,11.3l22.1,113.9c1,5.2,6.1,8.7,11.3,7.7c5.2-1,8.7-6.1,7.6-11.3l-22.1-113.9
			C-162.2-210.6-167.3-214-172.5-213z"/>
		
			<linearGradient id="Rectangle-33_1_" gradientUnits="userSpaceOnUse" x1="-344.2769" y1="838.7327" x2="-344.4555" y2="835.3087" gradientTransform="matrix(395.8772 -41.6084 -41.6457 -396.2327 171137.5312 317648.375)">
			<stop  offset="0" style="stop-color:#FFFFFF"/>
			<stop  offset="1" style="stop-color:#CCCCCC"/>
		</linearGradient>
		<path id="Rectangle-33" sketch:type="MSShapeGroup" class="st5" d="M-105.5-222.5c-5.3,0.4-9.3,5-9,10.3l3.6,51.4
			c0.4,5.3,5,9.3,10.3,9c5.3-0.4,9.3-5,9-10.3l-3.6-51.4C-95.6-218.9-100.2-222.9-105.5-222.5z M19.6-223c-5.3-0.5-10,3.5-10.5,8.8
			l-4.5,51.4c-0.5,5.3,3.5,10,8.8,10.5c5.3,0.5,10-3.5,10.5-8.8l4.5-51.4C28.8-217.9,24.9-222.6,19.6-223z M140.4-196
			c-5.1-1.6-10.5,1.3-12.1,6.4l-15.1,49.3c-1.6,5.1,1.3,10.5,6.4,12.1c5.1,1.6,10.5-1.3,12.1-6.4l15.1-49.3
			C148.4-189,145.5-194.4,140.4-196z M257.9-149.2c-4.7-2.6-10.6-0.9-13.1,3.8l-25,45.1c-2.6,4.7-0.9,10.6,3.8,13.1
			c4.7,2.6,10.6,0.9,13.1-3.8l25-45.1C264.2-140.7,262.5-146.6,257.9-149.2z M363.2-80.4c-4.1-3.4-10.2-2.7-13.6,1.4l-32.4,40.1
			c-3.4,4.2-2.7,10.2,1.4,13.6c4.1,3.4,10.2,2.7,13.6-1.4l32.4-40.1C367.9-70.9,367.3-77,363.2-80.4z M409-35.5
			c-3.6-4-9.7-4.3-13.7-0.7L357-1.7c-4,3.6-4.3,9.7-0.7,13.7c3.6,4,9.7,4.3,13.7,0.7l38.3-34.5C412.3-25.4,412.6-31.6,409-35.5z
			 M452.7,10.8c-3.4-4.1-9.4-4.8-13.6-1.4L399,41.8c-4.2,3.4-4.8,9.5-1.4,13.6c3.4,4.1,9.4,4.8,13.6,1.4l40.1-32.4
			C455.4,21,456.1,14.9,452.7,10.8z M522.4,113.8c-2.5-4.7-8.4-6.5-13.1-4L463.8,134c-4.7,2.5-6.5,8.4-4,13.1
			c2.5,4.7,8.4,6.5,13.1,4l45.5-24.2C523.2,124.3,524.9,118.5,522.4,113.8z M570.4,229.5c-1.7-5.1-7.1-7.9-12.2-6.2l-49,15.9
			c-5.1,1.7-7.9,7.1-6.2,12.2c1.6,5.1,7.1,7.9,12.2,6.2l49-15.9C569.3,240.1,572,234.6,570.4,229.5z M595.7,352.5
			c-0.6-5.3-5.3-9.2-10.6-8.6l-51.3,5.4c-5.3,0.6-9.2,5.3-8.6,10.6c0.6,5.3,5.3,9.2,10.6,8.6l51.3-5.4
			C592.4,362.6,596.3,357.8,595.7,352.5z M595.5,480.8c0.6-5.3-3.3-10.1-8.6-10.6l-51.3-5.4c-5.3-0.6-10.1,3.3-10.6,8.6
			c-0.6,5.3,3.3,10.1,8.6,10.6l51.3,5.4C590.2,489.9,594.9,486.1,595.5,480.8z M570.7,600.4c1.3-5.2-1.9-10.4-7-11.7l-50-12.5
			c-5.2-1.3-10.4,1.9-11.7,7c-1.3,5.2,1.9,10.4,7,11.7l50,12.5C564.1,608.7,569.4,605.5,570.7,600.4z M519.3,720.2
			c2.6-4.7,0.9-10.6-3.8-13.1l-45.1-25c-4.7-2.6-10.6-0.9-13.1,3.8c-2.6,4.7-0.9,10.6,3.8,13.1l45.1,25
			C510.8,726.6,516.7,724.9,519.3,720.2z M452.1,823.2c3.3-4.2,2.5-10.3-1.7-13.6l-40.6-31.7c-4.2-3.3-10.3-2.5-13.6,1.7
			c-3.3,4.2-2.5,10.3,1.7,13.6l40.6,31.7C442.7,828.2,448.8,827.4,452.1,823.2z M362.9,912.5c4.1-3.4,4.6-9.5,1.2-13.6L331,859.4
			c-3.4-4.1-9.5-4.6-13.6-1.2c-4.1,3.4-4.6,9.5-1.2,13.6l33.1,39.5C352.7,915.4,358.8,915.9,362.9,912.5z M258.4,983
			c4.6-2.7,6.2-8.6,3.5-13.2l-25.8-44.6c-2.7-4.6-8.6-6.2-13.2-3.5c-4.6,2.7-6.2,8.6-3.5,13.2l25.8,44.6
			C247.9,984.1,253.8,985.7,258.4,983z M144.1,1032.5c5.1-1.7,7.9-7.1,6.2-12.2l-15.9-49c-1.7-5.1-7.1-7.9-12.2-6.2
			c-5.1,1.7-7.9,7.1-6.2,12.2l15.9,49C133.6,1031.4,139.1,1034.2,144.1,1032.5z M19.3,1055.4c5.3-0.6,9.2-5.3,8.6-10.6l-5.4-51.3
			c-0.6-5.3-5.3-9.2-10.6-8.6c-5.3,0.6-9.2,5.3-8.6,10.6l5.4,51.3C9.2,1052.1,14,1055.9,19.3,1055.4z M-107.2,1055.7
			c5.3,0.7,10.1-3.1,10.8-8.4l6.3-51.2c0.7-5.3-3.1-10.1-8.4-10.8c-5.3-0.7-10.1,3.1-10.8,8.4l-6.3,51.2
			C-116.3,1050.3-112.5,1055.1-107.2,1055.7z M-229.5,1030.7c5.1,1.5,10.5-1.5,12-6.6l14.2-49.6c1.5-5.1-1.5-10.5-6.6-12
			c-5.1-1.5-10.5,1.5-12,6.6l-14.2,49.6C-237.6,1023.9-234.6,1029.3-229.5,1030.7z M-346.9,981.7c4.8,2.4,10.6,0.5,13-4.2l23.4-45.9
			c2.4-4.8,0.5-10.6-4.2-13c-4.8-2.4-10.6-0.5-13,4.2l-23.4,45.9C-353.5,973.4-351.6,979.2-346.9,981.7z M-451.6,915.1
			c4.1,3.4,10.2,2.7,13.6-1.4l32.4-40.1c3.4-4.2,2.7-10.2-1.4-13.6c-4.1-3.4-10.2-2.7-13.6,1.4l-32.4,40.1
			C-456.4,905.6-455.8,911.7-451.6,915.1z M-541.1,822.3c3.3,4.2,9.4,5,13.6,1.7l40.6-31.7c4.2-3.3,5-9.4,1.7-13.6
			c-3.3-4.2-9.4-5-13.6-1.7l-40.6,31.7C-543.6,812-544.3,818.1-541.1,822.3z M-609.7,720.3c2.5,4.7,8.4,6.5,13.1,4l45.5-24.2
			c4.7-2.5,6.5-8.4,4-13.1c-2.5-4.7-8.4-6.5-13.1-4l-45.5,24.2C-610.4,709.8-612.2,715.6-609.7,720.3z M-658.5,602.7
			c1.6,5.1,7,8,12.1,6.4l49.3-15.1c5.1-1.6,8-7,6.4-12.1c-1.6-5.1-7-8-12.1-6.4l-49.3,15.1C-657.2,592.2-660,597.6-658.5,602.7z
			 M-680.9,478.4c0.6,5.3,5.3,9.2,10.6,8.6l51.3-5.4c5.3-0.6,9.2-5.3,8.6-10.6c-0.6-5.3-5.3-9.2-10.6-8.6l-51.3,5.4
			C-677.6,468.4-681.5,473.1-680.9,478.4z M-684.5,354.9c-0.3,5.3,3.8,9.9,9.2,10.2l51.5,2.7c5.3,0.3,9.9-3.8,10.2-9.1
			c0.3-5.3-3.8-9.9-9.2-10.2l-51.5-2.7C-679.7,345.4-684.2,349.5-684.5,354.9z M-659,230.6c-1.6,5.1,1.3,10.5,6.4,12.1l49.3,15.1
			c5.1,1.6,10.5-1.3,12.1-6.4c1.6-5.1-1.3-10.5-6.4-12.1l-49.3-15.1C-652.1,222.6-657.5,225.5-659,230.6z M-608.6,116.9
			c-2.5,4.7-0.7,10.6,4,13.1l45.5,24.2c4.7,2.5,10.6,0.7,13.1-4c2.5-4.7,0.7-10.6-4-13.1l-45.5-24.2
			C-600.2,110.3-606.1,112.1-608.6,116.9z M-539.3,11.8c-3.4,4.1-2.7,10.2,1.4,13.6l40.1,32.4c4.2,3.4,10.2,2.7,13.6-1.4
			c3.4-4.1,2.7-10.2-1.4-13.6l-40.1-32.4C-529.8,7-535.9,7.6-539.3,11.8z M-451.4-76.1c-4,3.5-4.5,9.6-1,13.6l33.8,38.9
			c3.5,4,9.6,4.5,13.6,1c4-3.5,4.5-9.6,1-13.6l-33.8-38.9C-441.2-79.2-447.4-79.6-451.4-76.1z M-347.5-146.9
			c-4.7,2.6-6.4,8.5-3.8,13.1l25,45.1c2.6,4.7,8.5,6.4,13.1,3.8c4.7-2.6,6.4-8.5,3.8-13.1l-25-45.1
			C-336.9-147.8-342.8-149.5-347.5-146.9z M-230.5-196.1c-5.1,1.6-7.9,7.1-6.2,12.2l15.9,49c1.7,5.1,7.1,7.9,12.2,6.2
			c5.1-1.6,7.9-7.1,6.2-12.2l-15.9-49C-220-195-225.5-197.8-230.5-196.1z"/>
		<g id="Triangle-1" sketch:type="MSShapeGroup">
			<path class="st6" d="M-482.3,855.2c0,0,441.7-449.8,442.1-449.5c26,23.8,81.8,74.7,81.8,74.7L-482.3,855.2z"/>
		</g>
		<polygon id="Triangle-3" sketch:type="MSShapeGroup" class="st7" points="-482.9,856.2 -38.8,404.5 -130.1,339.5 		">
		</polygon>
		<polygon id="Triangle-2" sketch:type="MSShapeGroup" class="st8" points="360.5,-75.1 -40.1,405.8 -130.1,339.5 		">
		</polygon>
		<g id="Triangle-4" sketch:type="MSShapeGroup">
			<path class="st9" d="M44.2,475.7C149.4,292.3,360-74.6,360-74.6L-40.1,405.7L41,481.3L44.2,475.7z"/>
		</g>
	</g>
</g>
</svg>
