<?xml version="1.0" encoding="utf-8"?>
<!-- Generator: Adobe Illustrator 19.1.0, SVG Export Plug-In . SVG Version: 6.00 Build 0)  -->
<!DOCTYPE svg PUBLIC "-//W3C//DTD SVG 1.1//EN" "http://www.w3.org/Graphics/SVG/1.1/DTD/svg11.dtd">
<svg version="1.1" id="Layer_1" xmlns="http://www.w3.org/2000/svg" xmlns:xlink="http://www.w3.org/1999/xlink" x="0px" y="0px"
	 viewBox="0 0 834.2 99.9" style="enable-background:new 0 0 834.2 99.9;" xml:space="preserve">
<style type="text/css">
	.st0{fill:#7D7D7D;}
</style>
<g>
	<path class="st0" d="M11.1,39.4c1.9-2.6,4.1-4.7,6.7-6.2s5.4-2.3,8.6-2.3c5.3,0,9.4,1.8,12.4,5.5s4.4,9.2,4.4,16.5
		c0,3.1-0.4,6.1-1.2,8.8s-2,5.1-3.6,7.1c-1.6,2-3.6,3.6-5.9,4.7c-2.3,1.2-5,1.7-8,1.7c-2.9,0-5.4-0.5-7.6-1.6
		c-2.1-1.1-4-2.6-5.5-4.7v21H7.1V31.6h2.3c0.7,0,1.1,0.4,1.3,1.1L11.1,39.4z M11.3,65.3c0.8,1.2,1.7,2.3,2.6,3.1
		c0.9,0.9,1.9,1.5,2.9,2.1c1,0.5,2.1,0.9,3.2,1.1c1.1,0.2,2.3,0.3,3.6,0.3c2.5,0,4.8-0.5,6.7-1.4c1.9-0.9,3.5-2.2,4.8-3.9
		c1.3-1.7,2.3-3.7,2.9-6.1c0.6-2.4,1-4.9,1-7.8c0-6.4-1.2-11.1-3.5-14.1c-2.4-3-5.8-4.5-10.2-4.5c-2.9,0-5.4,0.7-7.7,2.2
		c-2.3,1.5-4.4,3.5-6.2,6.1V65.3z"/>
	<path class="st0" d="M71.9,30.9c3.1,0,5.8,0.5,8.3,1.6c2.4,1.1,4.5,2.5,6.2,4.5c1.7,1.9,2.9,4.3,3.8,7c0.9,2.7,1.3,5.8,1.3,9.2
		s-0.4,6.4-1.3,9.1c-0.9,2.7-2.2,5-3.8,7c-1.7,1.9-3.7,3.4-6.2,4.5c-2.4,1-5.2,1.6-8.3,1.6c-3.1,0-5.9-0.5-8.3-1.6
		c-2.4-1-4.5-2.5-6.2-4.5c-1.7-1.9-3-4.3-3.9-7c-0.9-2.7-1.3-5.8-1.3-9.1s0.4-6.4,1.3-9.2c0.9-2.7,2.2-5.1,3.9-7
		c1.7-1.9,3.8-3.4,6.2-4.5C66,31.5,68.8,30.9,71.9,30.9z M71.9,72c2.6,0,4.8-0.4,6.7-1.3c1.9-0.9,3.5-2.1,4.8-3.8
		c1.3-1.6,2.2-3.6,2.9-6s1-4.9,1-7.8c0-2.9-0.3-5.5-1-7.8s-1.6-4.3-2.9-6c-1.3-1.7-2.9-2.9-4.8-3.8c-1.9-0.9-4.2-1.3-6.7-1.3
		c-2.6,0-4.8,0.4-6.7,1.3c-1.9,0.9-3.5,2.2-4.8,3.8c-1.3,1.7-2.3,3.7-2.9,6c-0.6,2.3-1,4.9-1,7.8c0,2.9,0.3,5.5,1,7.8
		c0.6,2.3,1.6,4.3,2.9,6c1.3,1.6,2.9,2.9,4.8,3.8C67.1,71.6,69.3,72,71.9,72z"/>
	<path class="st0" d="M159.5,31.6l-14.4,43.1h-3.1c-0.5,0-0.8-0.3-1-0.9l-11.8-35c-0.1-0.4-0.3-0.9-0.4-1.3s-0.2-0.9-0.3-1.3
		c-0.1,0.9-0.4,1.7-0.6,2.6l-11.9,35c-0.2,0.6-0.5,0.9-1,0.9h-2.9L97.7,31.6h3.1c0.4,0,0.7,0.1,1,0.3s0.4,0.5,0.5,0.7l10.9,34
		c0.2,0.7,0.3,1.3,0.5,1.9c0.1,0.6,0.3,1.2,0.3,1.8c0.2-0.6,0.3-1.2,0.5-1.8c0.2-0.6,0.4-1.3,0.6-1.9l11.5-34.3c0.2-0.6,0.6-1,1.2-1
		h1.7c0.6,0,1.1,0.3,1.3,1l11.4,34.3c0.2,0.7,0.4,1.3,0.6,1.9c0.2,0.6,0.3,1.2,0.5,1.8c0.1-0.6,0.2-1.2,0.4-1.8
		c0.1-0.6,0.3-1.2,0.5-1.9l11-34c0.1-0.3,0.3-0.6,0.6-0.8s0.6-0.3,0.9-0.3H159.5z"/>
	<path class="st0" d="M169.7,51.4v0.8c0,3.2,0.4,6.1,1.1,8.5s1.8,4.5,3.2,6.2s3.1,2.9,5,3.7c2,0.8,4.2,1.3,6.6,1.3
		c2.2,0,4-0.2,5.6-0.7c1.6-0.5,2.9-1,4-1.6c1.1-0.6,1.9-1.1,2.6-1.6c0.6-0.5,1.1-0.7,1.4-0.7c0.4,0,0.7,0.1,0.9,0.4l1.1,1.4
		c-0.7,0.9-1.6,1.7-2.7,2.4c-1.1,0.8-2.4,1.4-3.8,1.9c-1.4,0.5-2.9,1-4.5,1.3c-1.6,0.3-3.2,0.5-4.8,0.5c-2.9,0-5.6-0.5-8-1.5
		c-2.4-1-4.5-2.5-6.2-4.5s-3.1-4.4-4-7.2c-0.9-2.8-1.4-6.1-1.4-9.8c0-3.1,0.4-5.9,1.3-8.5c0.9-2.6,2.1-4.9,3.8-6.8
		c1.7-1.9,3.7-3.4,6.1-4.4c2.4-1.1,5.1-1.6,8.2-1.6c2.4,0,4.7,0.4,6.8,1.3s3.9,2.1,5.4,3.7s2.7,3.6,3.6,5.9c0.9,2.3,1.3,5,1.3,8.1
		c0,0.6-0.1,1.1-0.3,1.3c-0.2,0.2-0.5,0.3-0.9,0.3H169.7z M198.5,48.8c0-2.3-0.3-4.4-1-6.2c-0.6-1.8-1.6-3.4-2.7-4.7
		c-1.2-1.3-2.6-2.2-4.2-2.9s-3.4-1-5.4-1c-2.2,0-4.2,0.3-6,1c-1.8,0.7-3.3,1.7-4.6,3c-1.3,1.3-2.3,2.9-3.1,4.7
		c-0.8,1.8-1.3,3.9-1.6,6.1H198.5z"/>
	<path class="st0" d="M217.4,42c0.7-1.8,1.4-3.3,2.3-4.7c0.9-1.4,1.8-2.5,2.9-3.5c1.1-1,2.4-1.7,3.7-2.2s2.9-0.8,4.6-0.8
		c0.9,0,1.8,0.1,2.6,0.2c0.9,0.2,1.6,0.4,2.3,0.8l-0.3,2.9c-0.1,0.5-0.4,0.7-0.8,0.7c-0.3,0-0.9-0.1-1.6-0.3
		c-0.7-0.2-1.6-0.3-2.8-0.3c-1.7,0-3.2,0.3-4.4,0.8c-1.3,0.5-2.4,1.3-3.5,2.3c-1,1-1.9,2.3-2.7,3.7s-1.5,3.2-2.1,5.1v27.9h-4.2V31.6
		h2.2c0.5,0,0.8,0.1,1,0.3s0.3,0.5,0.4,1L217.4,42z"/>
	<path class="st0" d="M243.1,51.4v0.8c0,3.2,0.4,6.1,1.1,8.5s1.8,4.5,3.2,6.2s3.1,2.9,5,3.7c2,0.8,4.2,1.3,6.6,1.3
		c2.2,0,4-0.2,5.6-0.7c1.6-0.5,2.9-1,4-1.6c1.1-0.6,1.9-1.1,2.6-1.6c0.6-0.5,1.1-0.7,1.4-0.7c0.4,0,0.7,0.1,0.9,0.4l1.1,1.4
		c-0.7,0.9-1.6,1.7-2.7,2.4c-1.1,0.8-2.4,1.4-3.8,1.9c-1.4,0.5-2.9,1-4.5,1.3c-1.6,0.3-3.2,0.5-4.8,0.5c-2.9,0-5.6-0.5-8-1.5
		c-2.4-1-4.5-2.5-6.2-4.5s-3.1-4.4-4-7.2c-0.9-2.8-1.4-6.1-1.4-9.8c0-3.1,0.4-5.9,1.3-8.5c0.9-2.6,2.1-4.9,3.8-6.8
		c1.7-1.9,3.7-3.4,6.1-4.4c2.4-1.1,5.1-1.6,8.2-1.6c2.4,0,4.7,0.4,6.8,1.3s3.9,2.1,5.4,3.7s2.7,3.6,3.6,5.9c0.9,2.3,1.3,5,1.3,8.1
		c0,0.6-0.1,1.1-0.3,1.3c-0.2,0.2-0.5,0.3-0.9,0.3H243.1z M271.8,48.8c0-2.3-0.3-4.4-1-6.2c-0.6-1.8-1.6-3.4-2.7-4.7
		c-1.2-1.3-2.6-2.2-4.2-2.9s-3.4-1-5.4-1c-2.2,0-4.2,0.3-6,1c-1.8,0.7-3.3,1.7-4.6,3c-1.3,1.3-2.3,2.9-3.1,4.7
		c-0.8,1.8-1.3,3.9-1.6,6.1H271.8z"/>
	<path class="st0" d="M320.2,11.7v63H318c-0.8,0-1.2-0.4-1.3-1.1l-0.4-6.8c-1.9,2.6-4.1,4.7-6.7,6.2c-2.5,1.5-5.4,2.3-8.6,2.3
		c-5.3,0-9.4-1.8-12.4-5.5c-2.9-3.7-4.4-9.2-4.4-16.5c0-3.1,0.4-6.1,1.2-8.8s2-5.1,3.6-7.1c1.6-2,3.5-3.6,5.9-4.7
		c2.3-1.2,5-1.7,8-1.7c2.9,0,5.4,0.5,7.6,1.6c2.1,1.1,4,2.7,5.6,4.8V11.7H320.2z M316.1,40.9c-1.6-2.5-3.5-4.2-5.5-5.2
		c-2-1-4.3-1.5-6.9-1.5c-2.5,0-4.8,0.5-6.7,1.4c-1.9,0.9-3.5,2.2-4.8,3.9c-1.3,1.7-2.3,3.7-2.9,6.1s-1,4.9-1,7.8
		c0,6.4,1.2,11.1,3.5,14.1c2.4,3,5.7,4.5,10.2,4.5c2.8,0,5.4-0.7,7.7-2.2c2.3-1.5,4.4-3.5,6.2-6.2V40.9z"/>
	<path class="st0" d="M362.1,39.1c1.9-2.5,4.1-4.5,6.6-6c2.5-1.5,5.4-2.2,8.7-2.2c2.6,0,4.9,0.5,7,1.4s3.8,2.3,5.2,4.1
		c1.4,1.8,2.5,4,3.3,6.6c0.8,2.6,1.1,5.6,1.1,8.9c0,3.5-0.4,6.7-1.3,9.5c-0.8,2.9-2.1,5.3-3.7,7.4s-3.6,3.6-5.9,4.7
		c-2.3,1.1-4.9,1.7-7.9,1.7c-3.1,0-5.7-0.6-7.8-1.8c-2.2-1.2-4-2.9-5.6-5.2l-0.3,5.3c-0.1,0.7-0.5,1.1-1.2,1.1h-2.5v-63h4.2V39.1z
		 M362.1,65.3c1.7,2.5,3.5,4.2,5.5,5.2c2,1,4.3,1.5,6.8,1.5c2.6,0,4.8-0.5,6.7-1.4c1.9-0.9,3.5-2.2,4.8-4c1.3-1.7,2.2-3.8,2.9-6.3
		c0.6-2.5,1-5.2,1-8.3c0-5.9-1.2-10.4-3.5-13.4c-2.4-3-5.7-4.5-10-4.5c-3.1,0-5.7,0.7-8,2.2s-4.3,3.5-6.1,6.1V65.3z"/>
	<path class="st0" d="M439.4,31.6l-24.8,56.9c-0.2,0.4-0.4,0.7-0.7,1s-0.7,0.4-1.2,0.4h-2.9l7.6-16.8l-18.2-41.5h3.4
		c0.4,0,0.8,0.1,1,0.3s0.4,0.5,0.5,0.7l14.5,33.5c0.2,0.4,0.3,0.9,0.5,1.3s0.3,0.9,0.4,1.4c0.1-0.5,0.3-0.9,0.5-1.4s0.3-0.9,0.5-1.3
		l14.3-33.5c0.1-0.3,0.3-0.6,0.6-0.8s0.5-0.3,0.9-0.3H439.4z"/>
	<path class="st0" d="M499.6,40c-0.3,0.5-0.7,0.8-1,1.1c-0.3,0.2-0.8,0.4-1.5,0.4c-0.6,0-1.1-0.2-1.7-0.5c-0.5-0.3-1.1-0.7-1.8-1.1
		c-0.7-0.4-1.5-0.8-2.5-1.1c-1-0.3-2.1-0.5-3.5-0.5c-1.8,0-3.3,0.3-4.7,1c-1.3,0.6-2.4,1.6-3.3,2.8c-0.9,1.2-1.5,2.7-1.9,4.4
		c-0.4,1.7-0.6,3.7-0.6,5.8c0,4.6,0.9,8,2.7,10.5s4.3,3.6,7.5,3.6c1.1,0,2-0.1,2.8-0.3c0.8-0.2,1.5-0.4,2.1-0.7
		c0.6-0.3,1.1-0.6,1.5-1c0.4-0.3,0.8-0.7,1.2-1s0.8-0.5,1.2-0.7c0.4-0.2,0.8-0.3,1.3-0.3c0.9,0,1.6,0.3,2.2,1l3.4,4.3
		c-1.3,1.5-2.6,2.7-4.1,3.7c-1.4,1-2.9,1.7-4.5,2.3c-1.5,0.6-3.1,1-4.7,1.2c-1.6,0.2-3.2,0.3-4.7,0.3c-2.7,0-5.3-0.5-7.8-1.5
		c-2.5-1-4.6-2.5-6.4-4.5c-1.8-2-3.3-4.4-4.4-7.2s-1.6-6.1-1.6-9.8c0-3.3,0.5-6.3,1.4-9.1c1-2.8,2.4-5.2,4.2-7.3
		c1.8-2,4.1-3.7,6.9-4.8s5.9-1.8,9.5-1.8c3.4,0,6.4,0.5,9,1.6c2.6,1.1,4.9,2.7,6.9,4.8L499.6,40z"/>
	<path class="st0" d="M521.1,34.4c0.8-0.8,1.7-1.4,2.6-2.1c0.9-0.6,1.9-1.2,2.9-1.6c1-0.4,2.1-0.8,3.3-1c1.2-0.2,2.4-0.4,3.8-0.4
		c2.4,0,4.6,0.4,6.4,1.3c1.9,0.8,3.5,2,4.7,3.5c1.3,1.5,2.2,3.3,2.9,5.4c0.6,2.1,1,4.4,1,6.8v28.3h-11.9V46.3c0-2.5-0.6-4.4-1.7-5.8
		c-1.2-1.4-2.9-2.1-5.1-2.1c-1.7,0-3.2,0.4-4.7,1.1c-1.5,0.7-2.9,1.7-4.2,3v32.1h-11.9V10.1h11.9V34.4z"/>
	<path class="st0" d="M557.2,36.2c2.6-2.4,5.5-4.1,8.7-5.3c3.2-1.2,6.6-1.8,10.3-1.8c2.7,0,5,0.4,7.1,1.3c2.1,0.9,3.9,2.1,5.3,3.6
		c1.5,1.5,2.6,3.4,3.4,5.5c0.8,2.1,1.2,4.5,1.2,7v28h-5.5c-1.1,0-2-0.2-2.6-0.5c-0.6-0.3-1.1-1-1.5-2l-1-2.9c-1.1,1-2.2,1.8-3.3,2.6
		c-1.1,0.8-2.1,1.4-3.3,1.9s-2.3,0.9-3.6,1.1s-2.7,0.4-4.3,0.4c-2,0-3.8-0.3-5.4-0.8c-1.6-0.5-3-1.3-4.2-2.3c-1.2-1-2.1-2.3-2.7-3.8
		s-1-3.3-1-5.3c0-1.6,0.4-3.3,1.3-4.9c0.8-1.6,2.3-3.1,4.3-4.5s4.7-2.5,8.1-3.3c3.4-0.9,7.6-1.4,12.7-1.5v-2.3
		c0-2.8-0.6-4.9-1.8-6.2c-1.2-1.3-2.9-2-5.1-2c-1.6,0-3,0.2-4.1,0.6s-2.1,0.8-2.9,1.3s-1.6,0.9-2.3,1.3c-0.7,0.4-1.6,0.6-2.5,0.6
		c-0.8,0-1.5-0.2-2.1-0.6s-1-0.9-1.4-1.5L557.2,36.2z M581.6,56c-2.9,0.1-5.3,0.4-7.3,0.8c-1.9,0.4-3.5,0.8-4.6,1.4
		c-1.1,0.6-1.9,1.2-2.4,2c-0.5,0.7-0.7,1.5-0.7,2.4c0,1.7,0.5,3,1.4,3.7c1,0.7,2.3,1.1,4,1.1c2,0,3.7-0.4,5.2-1.1s2.9-1.8,4.3-3.3
		V56z"/>
	<path class="st0" d="M617.3,75.4c-2,0-3.8-0.3-5.4-0.9c-1.6-0.6-2.9-1.4-3.9-2.5s-1.9-2.4-2.4-4c-0.5-1.6-0.8-3.3-0.8-5.3V38.6
		h-4.2c-0.6,0-1.2-0.2-1.6-0.6c-0.4-0.4-0.7-1-0.7-1.8v-4.7l7.1-1.3l2.4-11.6c0.3-1.3,1.2-1.9,2.6-1.9h6.2v13.6h11.5v8.3h-11.5v23.3
		c0,1.2,0.3,2.2,0.9,2.9c0.6,0.7,1.4,1.1,2.5,1.1c0.6,0,1.1-0.1,1.5-0.2c0.4-0.1,0.7-0.3,1-0.4c0.3-0.2,0.6-0.3,0.8-0.4
		s0.5-0.2,0.8-0.2c0.3,0,0.6,0.1,0.9,0.2c0.2,0.2,0.5,0.4,0.7,0.8l3.6,5.7c-1.6,1.3-3.5,2.3-5.6,2.9C621.7,75,619.5,75.4,617.3,75.4
		z"/>
	<path class="st0" d="M662.3,39.2c-0.3,0.5-0.6,0.8-1,1.1c-0.3,0.2-0.8,0.3-1.4,0.3c-0.6,0-1.2-0.1-1.8-0.4c-0.6-0.3-1.3-0.6-2-0.9
		c-0.8-0.3-1.6-0.6-2.6-0.9c-1-0.3-2.1-0.4-3.4-0.4c-1.9,0-3.4,0.4-4.5,1.2c-1.1,0.8-1.6,1.8-1.6,3.1c0,0.9,0.3,1.6,0.9,2.2
		c0.6,0.6,1.4,1.1,2.4,1.6c1,0.4,2.1,0.9,3.4,1.3s2.6,0.8,3.9,1.3s2.6,1,3.9,1.6c1.3,0.6,2.4,1.4,3.4,2.3c1,0.9,1.8,2,2.4,3.3
		c0.6,1.3,0.9,2.8,0.9,4.7c0,2.2-0.4,4.2-1.2,6c-0.8,1.8-2,3.4-3.5,4.7s-3.4,2.4-5.7,3.1s-4.9,1.1-7.9,1.1c-1.5,0-3-0.1-4.5-0.4
		s-2.9-0.7-4.3-1.2c-1.4-0.5-2.6-1.1-3.8-1.8c-1.2-0.7-2.2-1.4-3.1-2.2l2.8-4.5c0.3-0.5,0.7-0.9,1.2-1.2c0.5-0.3,1.1-0.4,1.8-0.4
		c0.7,0,1.4,0.2,2,0.5c0.6,0.4,1.3,0.8,2,1.2c0.8,0.4,1.6,0.8,2.7,1.2c1,0.4,2.3,0.5,3.8,0.5c1.2,0,2.1-0.1,3-0.4s1.5-0.6,2-1.1
		c0.5-0.4,0.9-1,1.1-1.5c0.2-0.6,0.4-1.1,0.4-1.8c0-1-0.3-1.8-0.9-2.4c-0.6-0.6-1.4-1.2-2.4-1.6c-1-0.5-2.1-0.9-3.4-1.3
		c-1.3-0.4-2.6-0.8-4-1.3c-1.3-0.5-2.7-1-3.9-1.6s-2.4-1.4-3.4-2.4s-1.8-2.2-2.4-3.6c-0.6-1.4-0.9-3.1-0.9-5.2
		c0-1.8,0.4-3.6,1.1-5.3c0.7-1.7,1.8-3.1,3.2-4.4c1.4-1.3,3.2-2.3,5.4-3c2.1-0.8,4.6-1.1,7.5-1.1c3.2,0,6.1,0.5,8.7,1.6
		c2.6,1,4.7,2.4,6.4,4.1L662.3,39.2z"/>
	<path class="st0" d="M688.3,75.4c-2,0-3.8-0.3-5.4-0.9c-1.6-0.6-2.9-1.4-3.9-2.5s-1.9-2.4-2.4-4c-0.5-1.6-0.8-3.3-0.8-5.3V38.6
		h-4.2c-0.6,0-1.2-0.2-1.6-0.6c-0.4-0.4-0.7-1-0.7-1.8v-4.7l7.1-1.3l2.4-11.6c0.3-1.3,1.2-1.9,2.6-1.9h6.2v13.6h11.5v8.3h-11.5v23.3
		c0,1.2,0.3,2.2,0.9,2.9c0.6,0.7,1.4,1.1,2.5,1.1c0.6,0,1.1-0.1,1.5-0.2c0.4-0.1,0.7-0.3,1-0.4c0.3-0.2,0.6-0.3,0.8-0.4
		s0.5-0.2,0.8-0.2c0.3,0,0.6,0.1,0.9,0.2c0.2,0.2,0.5,0.4,0.7,0.8l3.6,5.7c-1.6,1.3-3.5,2.3-5.6,2.9C692.7,75,690.5,75.4,688.3,75.4
		z"/>
	<path class="st0" d="M704.6,36.2c2.6-2.4,5.5-4.1,8.7-5.3c3.2-1.2,6.6-1.8,10.3-1.8c2.7,0,5,0.4,7.1,1.3c2.1,0.9,3.9,2.1,5.3,3.6
		c1.5,1.5,2.6,3.4,3.4,5.5c0.8,2.1,1.2,4.5,1.2,7v28h-5.5c-1.1,0-2-0.2-2.6-0.5c-0.6-0.3-1.1-1-1.5-2l-1-2.9c-1.1,1-2.2,1.8-3.3,2.6
		c-1.1,0.8-2.1,1.4-3.3,1.9s-2.3,0.9-3.6,1.1s-2.7,0.4-4.3,0.4c-2,0-3.8-0.3-5.4-0.8c-1.6-0.5-3-1.3-4.2-2.3c-1.2-1-2.1-2.3-2.7-3.8
		s-1-3.3-1-5.3c0-1.6,0.4-3.3,1.3-4.9c0.8-1.6,2.3-3.1,4.3-4.5s4.7-2.5,8.1-3.3c3.4-0.9,7.6-1.4,12.7-1.5v-2.3
		c0-2.8-0.6-4.9-1.8-6.2c-1.2-1.3-2.9-2-5.1-2c-1.6,0-3,0.2-4.1,0.6s-2.1,0.8-2.9,1.3s-1.6,0.9-2.3,1.3c-0.7,0.4-1.6,0.6-2.5,0.6
		c-0.8,0-1.5-0.2-2.1-0.6s-1-0.9-1.4-1.5L704.6,36.2z M728.9,56c-2.9,0.1-5.3,0.4-7.3,0.8c-1.9,0.4-3.5,0.8-4.6,1.4
		c-1.1,0.6-1.9,1.2-2.4,2c-0.5,0.7-0.7,1.5-0.7,2.4c0,1.7,0.5,3,1.4,3.7c1,0.7,2.3,1.1,4,1.1c2,0,3.7-0.4,5.2-1.1s2.9-1.8,4.3-3.3
		V56z"/>
	<path class="st0" d="M782.2,40c-0.3,0.5-0.7,0.8-1,1.1c-0.3,0.2-0.8,0.4-1.5,0.4c-0.6,0-1.1-0.2-1.7-0.5c-0.5-0.3-1.1-0.7-1.8-1.1
		c-0.7-0.4-1.5-0.8-2.5-1.1c-1-0.3-2.1-0.5-3.5-0.5c-1.8,0-3.3,0.3-4.7,1c-1.3,0.6-2.4,1.6-3.3,2.8c-0.9,1.2-1.5,2.7-1.9,4.4
		c-0.4,1.7-0.6,3.7-0.6,5.8c0,4.6,0.9,8,2.7,10.5s4.3,3.6,7.5,3.6c1.1,0,2-0.1,2.8-0.3c0.8-0.2,1.5-0.4,2.1-0.7
		c0.6-0.3,1.1-0.6,1.5-1c0.4-0.3,0.8-0.7,1.2-1s0.8-0.5,1.2-0.7c0.4-0.2,0.8-0.3,1.3-0.3c0.9,0,1.6,0.3,2.2,1l3.4,4.3
		c-1.3,1.5-2.6,2.7-4.1,3.7c-1.4,1-2.9,1.7-4.5,2.3c-1.5,0.6-3.1,1-4.7,1.2c-1.6,0.2-3.2,0.3-4.7,0.3c-2.7,0-5.3-0.5-7.8-1.5
		c-2.5-1-4.6-2.5-6.4-4.5c-1.8-2-3.3-4.4-4.4-7.2s-1.6-6.1-1.6-9.8c0-3.3,0.5-6.3,1.4-9.1c1-2.8,2.4-5.2,4.2-7.3
		c1.8-2,4.1-3.7,6.9-4.8s5.9-1.8,9.5-1.8c3.4,0,6.4,0.5,9,1.6c2.6,1.1,4.9,2.7,6.9,4.8L782.2,40z"/>
	<path class="st0" d="M803.7,10.1v36.6h2c0.8,0,1.3-0.1,1.8-0.3c0.4-0.2,0.9-0.6,1.3-1.2l9.9-13.2c0.5-0.7,1-1.2,1.7-1.5
		c0.6-0.3,1.4-0.5,2.4-0.5h10.9l-12.8,16.3c-1,1.4-2.2,2.4-3.5,3.2c0.7,0.5,1.2,1,1.7,1.6c0.5,0.6,1,1.3,1.4,2l13.8,21.5h-10.7
		c-0.9,0-1.7-0.2-2.4-0.5c-0.7-0.3-1.2-0.8-1.6-1.6l-10-16.4c-0.4-0.7-0.8-1.1-1.3-1.3c-0.4-0.2-1.1-0.3-1.9-0.3h-2.5v20.1h-11.9
		V10.1H803.7z"/>
</g>
</svg>
