<?xml version="1.0" encoding="utf-8"?>
<!-- Generator: Adobe Illustrator 21.0.0, SVG Export Plug-In . SVG Version: 6.00 Build 0)  -->
<svg version="1.1" id="Layer_1" xmlns="http://www.w3.org/2000/svg" xmlns:xlink="http://www.w3.org/1999/xlink" x="0px" y="0px"
	 viewBox="0 0 82 58" style="enable-background:new 0 0 82 58;" xml:space="preserve">
<style type="text/css">
	.st0{fill:#FFFFFF;}
</style>
<g>
	<path class="st0" d="M6,0C4.8,0,3.8,0.3,2.8,0.9l35.1,29.8c1.9,1.6,4.2,1.6,6.1,0L79.2,0.9C78.2,0.3,77.2,0,76,0L6,0L6,0z"/>
	<path class="st0" d="M0.3,6C0.1,6.7,0,7.3,0,8v44c0,3.3,2.7,6,6,6h70c3.3,0,6-2.7,6-6V8c0-0.7-0.1-1.4-0.3-2L46.6,35.8
		c-3.3,2.8-8,2.8-11.2,0L0.3,6L0.3,6z"/>
</g>
</svg>
