<?xml version="1.0" encoding="utf-8"?>
<!-- Generator: Adobe Illustrator 21.0.0, SVG Export Plug-In . SVG Version: 6.00 Build 0)  -->
<svg version="1.1" id="Layer_1" xmlns="http://www.w3.org/2000/svg" xmlns:xlink="http://www.w3.org/1999/xlink" x="0px" y="0px"
	 viewBox="0 0 72.9 86.6" style="enable-background:new 0 0 72.9 86.6;" xml:space="preserve">
<style type="text/css">
	.st0{fill:#FFFFFF;}
	.st1{fill:#FFFFFF;enable-background:new    ;}
</style>
<g id="XMLID_2_">
	<g>
		<path class="st0" d="M66,65.7c-0.2,1-0.1,3.7,0.3,6.5c3.7-5,6-11.1,6.6-17.7C71.3,58.5,69,62.3,66,65.7z"/>
		<path class="st0" d="M62,78.5c-4.2-1.5-8.8-2.7-10.2-2.6c-4.7,1.9-9.6,2.9-14.7,2.9c-14,0-26.2-7.5-32.9-18.6
			C8,75.3,21.7,86.6,38,86.6c4.8,0,9.4-1,13.6-2.7c2.5-1,12.6,2.6,12.6,2.6s-0.7-4.1-0.8-7.4L62,78.5z"/>
	</g>
	<path id="XMLID_3_" class="st1" d="M69.9,34.9c0,9-3.4,17.1-8.9,23.3c-1.7,1.9,0.1,11.5,0.1,11.5S51,66.1,48.5,67.2
		c-4.2,1.8-8.8,2.7-13.6,2.7c-19.3,0-35-15.7-35-35S15.7,0,35,0S69.9,15.6,69.9,34.9z"/>
</g>
</svg>
