<?xml version="1.0" encoding="utf-8"?>
<!-- Generator: Adobe Illustrator 21.0.0, SVG Export Plug-In . SVG Version: 6.00 Build 0)  -->
<svg version="1.1" id="Layer_1" xmlns="http://www.w3.org/2000/svg" xmlns:xlink="http://www.w3.org/1999/xlink" x="0px" y="0px"
	 viewBox="0 0 85.9 87.6" style="enable-background:new 0 0 85.9 87.6;" xml:space="preserve">
<style type="text/css">
	.st0{fill:#FFFFFF;}
</style>
<path class="st0" d="M74.9,0H11.1C4.9,0,0,4.9,0,11v54.2c0,6.1,4.9,11,11,11h45.8l25.6,11.4l3.5-1.8V65.3V11C85.9,4.9,81,0,74.9,0z
	 M49.6,19.4c0-1.6,1.3-2.9,2.9-2.9s2.9,1.3,2.9,2.9v11.5c0,1.6-1.3,2.9-2.9,2.9s-2.9-1.3-2.9-2.9V19.4z M32.4,19.4
	c0-1.6,1.3-2.9,2.9-2.9s2.9,1.3,2.9,2.9v11.5c0,1.6-1.3,2.9-2.9,2.9s-2.9-1.3-2.9-2.9V19.4z M67.4,43.3c-6.9,9.6-15.5,15-23.8,15
	c-0.2,0-0.3,0-0.5,0C30.2,58,21.3,45.9,19.2,42.8l-1.3,0.7c-0.4,0.3-0.9,0.4-1.4,0.4c-1,0-2-0.6-2.5-1.4c-0.8-1.4-0.3-3.1,1.1-3.9
	l8.8-5.1c0.7-0.4,1.4-0.5,2.2-0.3c0.7,0.2,1.4,0.7,1.7,1.3c0.8,1.4,0.3,3.1-1.1,3.9l-2.6,1.5c1.9,2.7,9.4,12.4,19,12.7l0.3,0
	c6.4,0,13.4-4.6,19.2-12.6c0.9-1.3,2.7-1.6,4-0.7C68,40.2,68.3,42,67.4,43.3z"/>
</svg>
