<?xml version="1.0" encoding="utf-8"?>
<!-- Generator: Adobe Illustrator 19.2.1, SVG Export Plug-In . SVG Version: 6.00 Build 0)  -->
<!DOCTYPE svg PUBLIC "-//W3C//DTD SVG 1.1//EN" "http://www.w3.org/Graphics/SVG/1.1/DTD/svg11.dtd">
<svg version="1.1" id="Layer_1" xmlns="http://www.w3.org/2000/svg" xmlns:xlink="http://www.w3.org/1999/xlink" x="0px" y="0px"
	 viewBox="0 0 56 56" style="enable-background:new 0 0 56 56;" xml:space="preserve">
<style type="text/css">
	.st0{fill:#ACACAC;}
	.st1{fill:#FFFFFF;}
</style>
<g>
	<path class="st0" d="M28,56C12.6,56,0,43.4,0,28S12.6,0,28,0s28,12.6,28,28S43.4,56,28,56z"/>
	<path class="st1" d="M27.6,3C13.8,3.2,2.8,14.6,3,28.4C3.2,42.2,14.6,53.2,28.4,53C42.2,52.8,53.2,41.4,53,27.6
		C52.8,13.8,41.4,2.8,27.6,3z"/>
	<path class="st0" d="M46.3,28c0-0.7-0.6-1.3-1.3-1.3s-1.3,0.6-1.3,1.3c0,8.7-7,15.7-15.7,15.7s-15.7-7-15.7-15.7
		c0-0.7-0.6-1.3-1.3-1.3S9.7,27.3,9.7,28c0,10.1,8.2,18.3,18.3,18.3S46.3,38.1,46.3,28z"/>
	<path class="st0" d="M37.3,25v-6c0-0.7-0.6-1.3-1.3-1.3s-1.3,0.6-1.3,1.3v6c0,0.7,0.6,1.3,1.3,1.3S37.3,25.7,37.3,25z"/>
	<path class="st0" d="M21.3,25v-6c0-0.7-0.6-1.3-1.3-1.3s-1.3,0.6-1.3,1.3v6c0,0.7,0.6,1.3,1.3,1.3S21.3,25.7,21.3,25z"/>
</g>
</svg>
