<?xml version="1.0" encoding="utf-8"?>
<!-- Generator: Adobe Illustrator 19.2.0, SVG Export Plug-In . SVG Version: 6.00 Build 0)  -->
<!DOCTYPE svg PUBLIC "-//W3C//DTD SVG 1.1//EN" "http://www.w3.org/Graphics/SVG/1.1/DTD/svg11.dtd">
<svg version="1.1" id="Layer_1" xmlns="http://www.w3.org/2000/svg" xmlns:xlink="http://www.w3.org/1999/xlink" x="0px" y="0px"
	 viewBox="0 0 56 56" style="enable-background:new 0 0 56 56;" xml:space="preserve">
<style type="text/css">
	.st0{fill:#B8945D;}
	.st1{fill:#F7CB74;}
</style>
<g id="Neutral">
	<path class="st0" d="M28,56C12.6,56,0,43.4,0,28S12.6,0,28,0s28,12.6,28,28S43.4,56,28,56z"/>
	<path class="st1" d="M28,3C14.2,3,3,14.2,3,28s11.2,25,25,25s25-11.2,25-25S41.8,3,28,3z"/>
	<rect x="15.7" y="35.7" class="st0" width="25.6" height="2.6"/>
	<path class="st0" d="M36,26.3c-0.7,0-1.3-0.6-1.3-1.3v-6c0-0.7,0.6-1.3,1.3-1.3s1.3,0.6,1.3,1.3v6C37.3,25.7,36.7,26.3,36,26.3z"/>
	<path class="st0" d="M20,26.3c-0.7,0-1.3-0.6-1.3-1.3v-6c0-0.7,0.6-1.3,1.3-1.3s1.3,0.6,1.3,1.3v6C21.3,25.7,20.7,26.3,20,26.3z"/>
</g>
</svg>
