<?xml version="1.0" encoding="utf-8"?>
<!-- Generator: Adobe Illustrator 16.0.0, SVG Export Plug-In . SVG Version: 6.00 Build 0)  -->
<!DOCTYPE svg PUBLIC "-//W3C//DTD SVG 1.1//EN" "http://www.w3.org/Graphics/SVG/1.1/DTD/svg11.dtd">
<svg version="1.1" id="Layer_1" xmlns="http://www.w3.org/2000/svg" xmlns:xlink="http://www.w3.org/1999/xlink" x="0px" y="0px"
	 width="200px" height="200px" viewBox="0 0 200 200" enable-background="new 0 0 200 200" xml:space="preserve">
<g>
	<g>
		<path fill="#00A14B" d="M10,195c-2.75,0-5-2.25-5-5V10c0-2.75,2.25-5,5-5h180c2.75,0,5,2.25,5,5v180c0,2.75-2.25,5-5,5H10z"/>
	</g>
	<g>
		
			<polygon fill-rule="evenodd" clip-rule="evenodd" fill="#FFFFFF" stroke="#00A14B" stroke-width="0.2614" stroke-linecap="round" stroke-miterlimit="22.9256" points="
			130.622,87.452 130.622,109.994 130.595,110.363 130.513,110.714 130.398,111.07 130.239,111.401 130.028,111.708 
			129.793,111.995 129.519,112.231 129.206,112.435 128.869,112.594 128.519,112.715 128.16,112.792 127.79,112.817 
			127.428,112.792 127.058,112.715 126.721,112.594 126.375,112.435 126.076,112.231 125.796,111.995 125.547,111.708 
			125.349,111.401 125.178,111.07 125.062,110.714 124.992,110.363 124.967,109.994 124.967,87.979 124.941,87.836 124.871,87.692 
			124.77,87.583 124.629,87.504 124.481,87.488 124.322,87.504 124.19,87.583 124.074,87.692 124.011,87.836 123.985,87.979 
			123.985,140.563 123.966,140.946 123.89,141.328 123.775,141.711 123.615,142.06 123.418,142.395 123.182,142.706 
			122.902,142.985 122.589,143.222 122.258,143.422 121.906,143.571 121.536,143.692 121.141,143.759 120.759,143.784 
			120.371,143.759 119.981,143.692 119.616,143.571 119.26,143.422 118.923,143.222 118.616,142.985 118.342,142.706 
			118.105,142.395 117.908,142.06 117.736,141.711 117.629,141.328 117.552,140.946 117.527,140.563 117.527,108.789 
			117.513,108.644 117.438,108.496 117.328,108.386 117.194,108.329 117.043,108.304 116.883,108.329 116.749,108.386 
			116.647,108.496 116.569,108.644 116.558,108.789 116.558,140.563 116.525,140.946 116.462,141.328 116.34,141.711 116.18,142.06 
			115.977,142.395 115.741,142.706 115.461,142.985 115.16,143.222 114.816,143.422 114.466,143.571 114.098,143.692 
			113.714,143.759 113.32,143.784 112.942,143.759 112.541,143.692 112.179,143.571 111.821,143.422 111.496,143.222 
			111.184,142.985 110.903,142.706 110.667,142.395 110.469,142.06 110.311,141.711 110.189,141.328 110.125,140.946 110.1,140.563 
			110.1,87.979 110.073,87.836 110.011,87.692 109.89,87.583 109.763,87.504 109.602,87.488 109.455,87.504 109.309,87.583 
			109.207,87.692 109.144,87.836 109.119,87.979 109.119,109.994 109.091,110.363 109.022,110.714 108.908,111.07 108.736,111.401 
			108.533,111.708 108.289,111.995 108.01,112.231 107.71,112.435 107.365,112.594 107.025,112.715 106.656,112.792 
			106.286,112.817 105.917,112.792 105.566,112.715 105.209,112.594 104.877,112.435 104.565,112.231 104.292,111.995 
			104.056,111.708 103.845,111.401 103.686,111.07 103.565,110.714 103.487,110.363 103.463,109.994 103.463,87.452 103.487,86.81 
			103.565,86.161 103.698,85.533 103.87,84.916 104.094,84.312 104.36,83.733 104.674,83.172 105.031,82.63 105.433,82.13 
			105.865,81.658 106.337,81.224 106.843,80.819 107.385,80.462 107.945,80.15 108.526,79.886 109.125,79.658 109.742,79.49 
			110.38,79.359 111.018,79.28 111.661,79.252 122.429,79.252 123.06,79.28 123.704,79.359 124.336,79.49 124.954,79.658 
			125.56,79.886 126.133,80.15 126.701,80.462 127.243,80.819 127.739,81.224 128.219,81.658 128.646,82.13 129.052,82.63 
			129.411,83.172 129.729,83.733 129.983,84.312 130.213,84.916 130.379,85.533 130.513,86.161 130.595,86.81 130.622,87.452 		"/>
		
			<polygon fill-rule="evenodd" clip-rule="evenodd" fill="#FFFFFF" stroke="#00A14B" stroke-width="0.2614" stroke-linecap="round" stroke-miterlimit="22.9256" points="
			88.348,79.252 77.578,79.252 76.934,79.28 76.294,79.359 75.658,79.49 75.04,79.658 74.438,79.886 73.861,80.15 73.295,80.462 
			72.77,80.819 72.253,81.224 71.783,81.658 71.35,82.13 70.955,82.63 70.596,83.172 70.285,83.733 70.006,84.312 69.784,84.916 
			69.615,85.533 69.481,86.161 69.421,86.81 69.389,87.452 69.389,109.994 69.421,110.363 69.481,110.714 69.598,111.07 
			69.758,111.401 69.967,111.708 70.216,111.995 70.494,112.231 70.797,112.435 71.122,112.594 71.479,112.715 71.834,112.792 
			72.204,112.817 72.585,112.792 72.939,112.715 73.295,112.594 73.625,112.435 73.923,112.231 74.201,111.995 74.453,111.708 
			74.648,111.401 74.819,111.07 74.938,110.714 75.005,110.363 75.031,109.994 75.031,87.979 75.055,87.836 75.123,87.692 
			75.241,87.583 75.372,87.504 75.531,87.488 75.675,87.504 75.816,87.583 75.926,87.692 75.986,87.836 76.012,87.979 
			76.012,140.563 76.045,140.946 76.104,141.328 76.225,141.711 76.386,142.06 76.58,142.395 76.83,142.706 77.105,142.985 
			77.409,143.222 77.737,143.422 78.094,143.571 78.474,143.692 78.856,143.759 79.236,143.784 79.632,143.759 80.012,143.692 
			80.379,143.571 80.75,143.422 81.074,143.222 81.378,142.985 81.655,142.706 81.894,142.395 82.104,142.06 82.257,141.711 
			82.377,141.328 82.44,140.946 82.47,140.563 82.47,108.789 82.495,108.644 82.562,108.496 82.665,108.386 82.809,108.329 
			82.958,108.304 83.111,108.329 83.246,108.386 83.366,108.496 83.428,108.644 83.458,108.789 83.458,140.563 83.468,140.946 
			83.546,141.328 83.663,141.711 83.823,142.06 84.02,142.395 84.255,142.706 84.534,142.985 84.85,143.222 85.177,143.422 
			85.534,143.571 85.904,143.692 86.295,143.759 86.674,143.784 87.069,143.759 87.453,143.692 87.819,143.571 88.172,143.422 
			88.518,143.222 88.816,142.985 89.094,142.706 89.33,142.395 89.527,142.06 89.703,141.711 89.806,141.328 89.882,140.946 
			89.908,140.563 89.908,87.979 89.924,87.836 89.999,87.692 90.108,87.583 90.24,87.504 90.398,87.488 90.558,87.504 
			90.686,87.583 90.787,87.692 90.87,87.836 90.882,87.979 90.882,109.994 90.908,110.363 90.987,110.714 91.108,111.07 
			91.262,111.401 91.471,111.708 91.712,111.995 91.988,112.231 92.301,112.435 92.631,112.594 92.987,112.715 93.343,112.792 
			93.706,112.817 94.077,112.792 94.443,112.715 94.786,112.594 95.119,112.435 95.431,112.231 95.705,111.995 95.94,111.708 
			96.151,111.401 96.323,111.07 96.44,110.714 96.51,110.363 96.535,109.994 96.535,87.452 96.51,86.81 96.43,86.161 96.31,85.533 
			96.126,84.916 95.907,84.312 95.642,83.733 95.322,83.172 94.969,82.63 94.577,82.13 94.131,81.658 93.655,81.224 93.155,80.819 
			92.616,80.462 92.065,80.15 91.471,79.886 90.87,79.658 90.251,79.49 89.619,79.359 88.985,79.28 88.348,79.252 		"/>
		<polygon fill-rule="evenodd" clip-rule="evenodd" fill="#FFFFFF" points="53.893,24.998 53.893,46.501 32.389,24.998 25,32.396 
			46.504,53.899 25,53.899 34.802,63.702 63.699,63.702 63.699,34.793 53.893,24.998 		"/>
		<polygon fill-rule="evenodd" clip-rule="evenodd" fill="#FFFFFF" points="175,53.899 153.502,53.899 175,32.396 167.611,24.998 
			146.105,46.501 146.105,24.998 136.294,34.793 136.294,63.702 165.2,63.702 175,53.899 		"/>
		<polygon fill-rule="evenodd" clip-rule="evenodd" fill="#FFFFFF" points="175,167.601 153.502,146.109 175,146.109 165.2,136.3 
			136.294,136.3 136.294,165.196 146.105,175.002 146.105,153.503 167.611,175.002 175,167.601 		"/>
		<polygon fill-rule="evenodd" clip-rule="evenodd" fill="#FFFFFF" points="34.802,136.3 63.699,136.3 63.699,165.196 
			53.893,175.002 53.893,153.503 32.389,175.002 25,167.601 46.504,146.109 25,146.109 34.802,136.3 		"/>
		<polygon fill-rule="evenodd" clip-rule="evenodd" fill="#FFFFFF" points="88.607,72.006 88.581,71.479 88.518,70.964 
			88.384,70.449 88.224,69.966 88.021,69.481 87.753,69.034 87.462,68.602 87.135,68.197 86.766,67.822 86.363,67.495 
			85.929,67.195 85.48,66.943 84.992,66.733 84.506,66.563 83.993,66.443 83.484,66.376 82.958,66.352 82.44,66.376 81.92,66.443 
			81.417,66.563 80.917,66.733 80.447,66.943 79.988,67.195 79.551,67.495 79.159,67.822 78.788,68.197 78.457,68.602 
			78.154,69.034 77.909,69.481 77.699,69.966 77.526,70.449 77.409,70.964 77.341,71.479 77.317,72.006 77.341,72.514 
			77.409,73.038 77.526,73.539 77.699,74.037 77.909,74.511 78.154,74.97 78.457,75.399 78.788,75.799 79.159,76.165 79.551,76.51 
			79.988,76.797 80.447,77.059 80.917,77.271 81.417,77.432 81.92,77.543 82.44,77.626 82.958,77.651 83.484,77.626 83.993,77.543 
			84.506,77.432 84.992,77.271 85.48,77.059 85.929,76.797 86.363,76.51 86.766,76.165 87.135,75.799 87.462,75.399 87.753,74.97 
			88.021,74.511 88.224,74.037 88.384,73.539 88.518,73.038 88.581,72.514 88.607,72.006 		"/>
		<polygon fill-rule="evenodd" clip-rule="evenodd" fill="#FFFFFF" points="122.69,72.006 122.667,71.479 122.589,70.964 
			122.468,70.449 122.308,69.966 122.104,69.481 121.836,69.034 121.55,68.602 121.212,68.197 120.837,67.822 120.447,67.495 
			120.012,67.195 119.554,66.943 119.075,66.733 118.592,66.563 118.082,66.443 117.571,66.376 117.043,66.352 116.513,66.376 
			116.004,66.443 115.486,66.563 115.002,66.733 114.529,66.943 114.07,67.195 113.637,67.495 113.243,67.822 112.871,68.197 
			112.534,68.602 112.24,69.034 111.992,69.481 111.77,69.966 111.609,70.449 111.496,70.964 111.419,71.479 111.394,72.006 
			111.419,72.514 111.496,73.038 111.609,73.539 111.77,74.037 111.992,74.511 112.24,74.97 112.534,75.399 112.871,75.799 
			113.243,76.165 113.637,76.51 114.07,76.797 114.529,77.059 115.002,77.271 115.486,77.432 116.004,77.543 116.513,77.626 
			117.043,77.651 117.571,77.626 118.082,77.543 118.592,77.432 119.075,77.271 119.554,77.059 120.012,76.797 120.447,76.51 
			120.837,76.165 121.212,75.799 121.55,75.399 121.836,74.97 122.104,74.511 122.308,74.037 122.468,73.539 122.589,73.038 
			122.667,72.514 122.69,72.006 		"/>
		<polygon fill-rule="evenodd" clip-rule="evenodd" fill="#FFFFFF" points="105.643,61.543 105.617,61.018 105.554,60.508 
			105.433,59.994 105.266,59.511 105.057,59.022 104.802,58.573 104.503,58.139 104.169,57.734 103.801,57.369 103.412,57.04 
			102.972,56.734 102.513,56.488 102.042,56.278 101.544,56.106 101.046,55.987 100.517,55.921 100.001,55.896 99.48,55.921 
			98.971,55.987 98.454,56.106 97.953,56.278 97.48,56.488 97.031,56.734 96.602,57.04 96.192,57.369 95.823,57.734 95.499,58.139 
			95.195,58.573 94.943,59.022 94.733,59.511 94.577,59.994 94.443,60.508 94.377,61.018 94.357,61.543 94.377,62.058 
			94.443,62.582 94.577,63.084 94.733,63.581 94.943,64.056 95.195,64.515 95.499,64.945 95.823,65.344 96.192,65.707 
			96.602,66.048 97.031,66.342 97.48,66.603 97.953,66.815 98.454,66.97 98.971,67.087 99.48,67.163 100.001,67.195 100.517,67.163 
			101.046,67.087 101.544,66.97 102.042,66.815 102.513,66.603 102.972,66.342 103.412,66.048 103.801,65.707 104.169,65.344 
			104.503,64.945 104.802,64.515 105.057,64.056 105.266,63.581 105.433,63.084 105.554,62.582 105.617,62.058 105.643,61.543 		"/>
	</g>
</g>
</svg>
