<?xml version="1.0" encoding="utf-8"?>
<!-- Generator: Adobe Illustrator 16.0.0, SVG Export Plug-In . SVG Version: 6.00 Build 0)  -->
<!DOCTYPE svg PUBLIC "-//W3C//DTD SVG 1.1//EN" "http://www.w3.org/Graphics/SVG/1.1/DTD/svg11.dtd">
<svg version="1.1" id="Layer_1" xmlns="http://www.w3.org/2000/svg" xmlns:xlink="http://www.w3.org/1999/xlink" x="0px" y="0px"
	 width="200px" height="200px" viewBox="0 0 200 200" enable-background="new 0 0 200 200" xml:space="preserve">
<g>
	<g id="_1070410064">
		<polygon fill="#FDEC0A" points="99.744,15.012 63.502,78.002 135.119,78.002 		"/>
		<path fill="#2C2A29" d="M64.364,77.658l35.38-61.784l34.686,61.784H64.364z M141.159,78.347l-39.001-68.341
			c0,0-0.518-1.379-2.414-1.379c-1.902,0-2.765,1.379-2.765,1.379L57.807,78.175c0,0-0.862,1.724,0,3.276
			c0,0,0.861,1.552,2.413,1.552h78.003c0,0,2.074,0,2.937-1.552C141.849,80.071,141.504,79.037,141.159,78.347z"/>
		<path fill="#2C2A29" d="M93.704,34.167l2.586,23.817c0,0,0.518,2.931,2.931,2.931c2.938,0,3.282-2.931,3.282-2.931l2.586-23.817
			c0,0-0.345-5.695-5.695-5.695C93.704,28.472,93.704,34.167,93.704,34.167z"/>
		<path fill="#2C2A29" d="M99.566,75.238c3.109,0,5.695-2.414,5.695-5.523c0-3.104-2.586-5.696-5.695-5.696
			c-3.104,0-5.69,2.592-5.69,5.696C93.876,72.824,96.463,75.238,99.566,75.238z"/>
		<polygon fill="#FDEC0A" points="12.42,188.787 187.58,188.787 187.58,90.25 12.42,90.25 		"/>
		<polygon fill="#2C2A29" points="48.146,119.762 43.312,119.762 39.513,104.75 39.513,104.75 35.892,119.762 30.886,119.762 
			25.018,97.675 29.852,97.675 33.472,112.688 33.472,112.688 37.271,97.675 41.76,97.675 45.553,113.032 45.726,113.032 
			49.352,97.675 54.013,97.675 		"/>
		<path fill="#2C2A29" d="M61.261,111.308h5.695l-2.765-8.115h-0.173L61.261,111.308z M61.777,97.675h4.828l8.287,22.086h-5.006
			l-1.724-4.833h-8.288l-1.724,4.833h-4.834L61.777,97.675z"/>
		<path fill="#2C2A29" d="M81.623,107.682h5.351c2.241,0,3.448-0.862,3.448-3.104c0-2.075-1.207-3.109-3.448-3.109h-5.351V107.682z
			 M76.789,97.675h11.909c3.965,0,6.558,2.759,6.558,6.213c0,2.586-1.035,4.482-3.627,5.517l0,0c2.42,0.689,3.109,2.938,3.282,5.179
			c0.172,1.379,0,3.972,0.861,5.178h-4.833c-0.518-1.379-0.518-3.454-0.689-5.178c-0.345-2.414-1.207-3.448-3.621-3.448h-5.006
			v8.626h-4.834V97.675z"/>
		<polygon fill="#2C2A29" points="99.221,97.675 104.055,97.675 113.204,112.515 113.204,112.515 113.204,97.675 117.859,97.675 
			117.859,119.762 112.859,119.762 103.71,105.095 103.71,105.095 103.71,119.762 99.221,119.762 		"/>
		<g>
			<polygon fill="#2C2A29" points="126.837,97.675 126.837,119.762 122.004,119.762 122.004,97.675 			"/>
		</g>
		<polygon fill="#2C2A29" points="131.147,97.675 135.981,97.675 145.125,112.515 145.297,112.515 145.297,97.675 149.786,97.675 
			149.786,119.762 144.952,119.762 135.809,105.095 135.636,105.095 135.636,119.762 131.147,119.762 		"/>
		<path fill="#2C2A29" d="M169.977,117.349c-1.725,2.068-3.794,2.931-6.041,2.931c-6.729,0-10.868-5.006-10.868-11.391
			c0-6.559,4.139-11.73,10.868-11.73c4.489,0,8.806,2.759,9.322,7.765h-4.661c-0.517-2.42-2.414-3.627-4.661-3.627
			c-4.311,0-6.04,3.627-6.04,7.593c0,3.626,1.729,7.419,6.04,7.419c3.109,0,5.006-1.724,5.351-4.827h-5.006v-3.627h9.322v11.908
			h-3.109L169.977,117.349z"/>
		<path fill="#2C2A29" d="M32.093,142.193h5.695l-2.759-8.109l0,0L32.093,142.193z M32.61,128.562h4.833l8.282,22.093h-5
			l-1.73-4.834h-8.109l-1.724,4.834h-5.006L32.61,128.562z"/>
		<path fill="#2C2A29" d="M62.295,150.654h-4.316v-2.248l0,0c-1.207,1.903-3.104,2.765-4.833,2.765
			c-4.828,0-5.862-2.592-5.862-6.558v-9.839h4.311v8.978c0,2.586,0.861,3.965,2.764,3.965c2.414,0,3.449-1.379,3.449-4.655v-8.287
			h4.488V150.654z"/>
		<path fill="#2C2A29" d="M71.094,134.774h3.282v2.937h-3.282v7.938c0,1.379,0.345,1.724,1.896,1.724c0.523,0,0.868,0,1.386,0v3.454
			c-0.862,0-1.73,0-2.593,0c-2.758,0-5.006-0.517-5.006-3.799v-9.316h-2.759v-2.937h2.759v-4.828h4.316V134.774z"/>
		<path fill="#2C2A29" d="M84.209,147.89c2.938,0,3.8-2.587,3.8-5.179c0-2.586-0.862-5.172-3.8-5.172
			c-2.931,0-3.793,2.586-3.793,5.172C80.416,145.303,81.278,147.89,84.209,147.89z M84.209,134.257c5.006,0,8.282,3.454,8.282,8.454
			c0,5.179-3.276,8.46-8.282,8.46s-8.281-3.281-8.281-8.46C75.928,137.711,79.203,134.257,84.209,134.257z"/>
		<path fill="#2C2A29" d="M95.428,134.774h4.139v2.074l0,0c1.213-1.558,2.937-2.592,5.006-2.592c1.902,0,3.799,0.862,4.661,2.765
			c0.861-1.386,2.586-2.765,4.833-2.765c3.276,0,5.868,1.552,5.868,5.695v10.702h-4.488v-8.978c0-2.069-0.173-3.966-2.587-3.966
			c-2.592,0-2.937,2.069-2.937,4.138v8.806h-4.489v-8.978c0-1.725,0.173-3.966-2.586-3.966c-0.862,0-2.931,0.689-2.931,3.793v9.15
			h-4.489V134.774z"/>
		<path fill="#2C2A29" d="M133.223,142.884c-0.69,0.695-2.248,0.695-3.627,0.868c-1.379,0.345-2.586,0.861-2.586,2.413
			c0,1.725,1.379,2.069,2.759,2.069c3.454,0,3.454-2.759,3.454-3.621V142.884z M123.211,139.607
			c0.172-4.144,3.799-5.351,7.419-5.351c3.282,0,7.075,0.689,7.075,4.661v8.282c0,1.379,0.173,2.937,0.518,3.454h-4.483
			c-0.172-0.518-0.172-1.035-0.345-1.558c-1.385,1.558-3.281,2.074-5.351,2.074c-2.937,0-5.351-1.552-5.351-4.833
			c0-3.627,2.586-4.489,5.351-4.834c2.759-0.345,5.179-0.345,5.179-2.068c0-1.896-1.213-2.242-2.765-2.242
			c-1.725,0-2.759,0.69-2.932,2.414H123.211z"/>
		<path fill="#2C2A29" d="M146.683,134.774h3.104v2.937h-3.104v7.938c0,1.379,0.345,1.724,1.724,1.724c0.518,0,1.035,0,1.38,0v3.454
			c-0.689,0-1.725,0-2.586,0c-2.593,0-5.007-0.517-5.007-3.799v-9.316h-2.586v-2.937h2.586v-4.828h4.489V134.774z"/>
		<path fill="#2C2A29" d="M152.027,134.774h4.488v15.88h-4.488V134.774z M156.516,132.188h-4.488v-3.626h4.488V132.188z"/>
		<path fill="#2C2A29" d="M170.838,140.297c-0.345-1.724-1.379-2.758-3.275-2.758c-2.765,0-3.799,2.931-3.799,5.345
			c0,2.247,1.034,5.006,3.626,5.006c2.069,0,3.276-1.38,3.621-3.276h4.144c-0.517,4.139-3.454,6.558-7.592,6.558
			c-4.834,0-8.109-3.454-8.109-8.287c0-4.828,2.931-8.627,8.109-8.627c3.793,0,7.247,2.069,7.592,6.04H170.838z"/>
		<path fill="#2C2A29" d="M62.468,177.574h4.31c2.938,0,5.523-1.724,5.523-6.73c0-4.315-1.552-7.247-6.385-7.247h-3.448V177.574z
			 M57.634,159.625h9.494c5.862,0,10.007,3.455,10.007,10.874c0,6.386-3.276,11.041-10.007,11.041h-9.494V159.625z"/>
		<path fill="#2C2A29" d="M87.836,178.781c3.104,0,3.966-2.586,3.966-5.179c0-2.586-0.862-5.006-3.966-5.006
			c-2.937,0-3.799,2.42-3.799,5.006C84.037,176.195,84.899,178.781,87.836,178.781z M87.836,165.148c5,0,8.282,3.448,8.282,8.454
			c0,5.179-3.282,8.454-8.282,8.454c-5.006,0-8.288-3.275-8.288-8.454C79.548,168.597,82.83,165.148,87.836,165.148z"/>
		<path fill="#2C2A29" d="M106.819,178.781c2.931,0,3.793-2.586,3.793-5.179c0-2.586-0.862-5.006-3.793-5.006
			c-3.109,0-3.972,2.42-3.972,5.006C102.848,176.195,103.71,178.781,106.819,178.781z M106.819,165.148c5,0,8.281,3.448,8.281,8.454
			c0,5.179-3.281,8.454-8.281,8.454c-5.006,0-8.288-3.275-8.288-8.454C98.531,168.597,101.813,165.148,106.819,165.148z"/>
		<path fill="#2C2A29" d="M117.859,165.666h4.145v2.931h0.172c0.689-2.068,2.932-3.448,5.006-3.448c0.345,0,0.69,0.173,1.035,0.173
			v4.144c-0.518-0.172-1.035-0.172-1.552-0.172c-3.282,0-4.316,2.241-4.316,5.172v7.075h-4.489V165.666z"/>
		<path fill="#2C2A29" d="M133.223,176.367c0.172,1.896,1.724,2.759,3.448,2.759c1.207,0,2.937-0.518,2.937-2.069
			c0-1.385-1.902-1.729-5.006-2.419c-2.592-0.518-5.179-1.552-5.179-4.311c0-4.144,3.627-5.179,7.075-5.179
			c3.454,0,6.73,1.207,7.075,5.179h-4.311c0-1.73-1.385-2.247-2.937-2.247c-1.035,0-2.414,0.172-2.414,1.558
			c0,1.552,2.414,1.724,5,2.413c2.592,0.518,5.006,1.552,5.006,4.489c0,4.138-3.621,5.517-7.247,5.517
			c-3.793,0-7.42-1.379-7.593-5.689H133.223z"/>
	</g>
	<rect x="5" y="5" fill="none" stroke="#2C2A29" width="190" height="190"/>
</g>
</svg>
