<?xml version="1.0" encoding="utf-8"?>
<!-- Generator: Adobe Illustrator 16.0.0, SVG Export Plug-In . SVG Version: 6.00 Build 0)  -->
<!DOCTYPE svg PUBLIC "-//W3C//DTD SVG 1.1//EN" "http://www.w3.org/Graphics/SVG/1.1/DTD/svg11.dtd">
<svg version="1.1" id="Layer_1" xmlns="http://www.w3.org/2000/svg" xmlns:xlink="http://www.w3.org/1999/xlink" x="0px" y="0px"
	 width="200px" height="200px" viewBox="0 0 200 200" enable-background="new 0 0 200 200" xml:space="preserve">
<rect x="36.667" y="5" fill="#ED1C24" stroke="#010101" stroke-miterlimit="10" width="126.667" height="190"/>
<g>
	<path fill="#FFFFFF" d="M43.821,34.136h8.062c1.818,0,3.204,0.14,4.157,0.417c1.282,0.378,2.379,1.049,3.294,2.012
		c0.913,0.964,1.609,2.144,2.086,3.539c0.477,1.396,0.715,3.117,0.715,5.164c0,1.798-0.224,3.348-0.67,4.649
		c-0.547,1.589-1.326,2.876-2.34,3.859c-0.766,0.745-1.798,1.326-3.1,1.743c-0.974,0.309-2.275,0.462-3.904,0.462h-8.3V34.136z
		 M48.231,37.831v14.47h3.294c1.231,0,2.121-0.069,2.667-0.208c0.716-0.18,1.309-0.482,1.781-0.909
		c0.472-0.428,0.856-1.13,1.154-2.108s0.447-2.312,0.447-4.002c0-1.688-0.149-2.984-0.447-3.889s-0.715-1.609-1.252-2.116
		c-0.536-0.507-1.217-0.85-2.041-1.028c-0.616-0.139-1.823-0.209-3.621-0.209H48.231z"/>
	<path fill="#FFFFFF" d="M65.875,55.981V34.136h16.198v3.695H70.286v4.844h10.968v3.681H70.286v5.945h12.205v3.681H65.875z"/>
	<path fill="#FFFFFF" d="M85.113,48.874l4.292-0.418c0.258,1.44,0.782,2.499,1.571,3.175c0.79,0.675,1.855,1.013,3.197,1.013
		c1.42,0,2.49-0.3,3.211-0.901c0.72-0.601,1.08-1.304,1.08-2.108c0-0.517-0.151-0.956-0.454-1.319
		c-0.304-0.362-0.832-0.678-1.587-0.946c-0.517-0.179-1.694-0.496-3.532-0.953c-2.364-0.586-4.023-1.307-4.977-2.161
		c-1.342-1.202-2.012-2.667-2.012-4.396c0-1.113,0.315-2.153,0.946-3.122s1.539-1.706,2.727-2.213s2.62-0.76,4.299-0.76
		c2.742,0,4.807,0.601,6.192,1.803c1.385,1.202,2.113,2.807,2.182,4.813l-4.41,0.193c-0.188-1.122-0.594-1.93-1.214-2.421
		c-0.621-0.492-1.553-0.738-2.794-0.738c-1.282,0-2.285,0.264-3.011,0.79c-0.467,0.338-0.7,0.79-0.7,1.356
		c0,0.517,0.219,0.958,0.655,1.326c0.557,0.467,1.908,0.953,4.054,1.46s3.732,1.031,4.761,1.572s1.833,1.281,2.415,2.22
		c0.58,0.939,0.871,2.1,0.871,3.48c0,1.251-0.348,2.424-1.043,3.517s-1.68,1.905-2.95,2.437c-1.272,0.531-2.856,0.797-4.754,0.797
		c-2.762,0-4.883-0.639-6.363-1.915S85.401,51.317,85.113,48.874z"/>
	<path fill="#FFFFFF" d="M106.452,55.981V34.136h4.411v21.846H106.452z"/>
	<path fill="#FFFFFF" d="M125.228,47.949v-3.681h9.508v8.703c-0.924,0.894-2.263,1.682-4.016,2.361
		c-1.754,0.681-3.53,1.021-5.328,1.021c-2.285,0-4.276-0.479-5.976-1.438c-1.698-0.958-2.976-2.329-3.829-4.112
		c-0.854-1.783-1.282-3.724-1.282-5.819c0-2.275,0.478-4.297,1.431-6.065c0.954-1.768,2.35-3.124,4.188-4.067
		c1.401-0.726,3.145-1.088,5.23-1.088c2.712,0,4.831,0.568,6.355,1.706c1.525,1.138,2.506,2.71,2.943,4.716l-4.381,0.82
		c-0.309-1.073-0.887-1.92-1.736-2.541s-1.91-0.932-3.182-0.932c-1.928,0-3.46,0.611-4.597,1.833
		c-1.138,1.222-1.707,3.035-1.707,5.439c0,2.593,0.576,4.537,1.729,5.834c1.152,1.296,2.662,1.944,4.529,1.944
		c0.924,0,1.851-0.181,2.779-0.544c0.929-0.362,1.727-0.802,2.392-1.318v-2.772H125.228z"/>
	<path fill="#FFFFFF" d="M138.848,55.981V34.136h4.292l8.941,14.589V34.136h4.098v21.846h-4.426l-8.807-14.246v14.246H138.848z"/>
	<path fill="#FFFFFF" d="M63.99,92.604v-9.194l-8.002-12.651h5.171l5.141,8.644l5.037-8.644h5.081l-8.031,12.682v9.164H63.99z"/>
	<path fill="#FFFFFF" d="M77.715,81.815c0-2.226,0.333-4.094,0.998-5.604c0.497-1.112,1.175-2.111,2.034-2.995
		s1.801-1.54,2.824-1.967c1.36-0.576,2.931-0.864,4.709-0.864c3.219,0,5.794,0.998,7.727,2.995c1.932,1.997,2.898,4.773,2.898,8.33
		c0,3.526-0.959,6.286-2.876,8.277c-1.918,1.992-4.481,2.988-7.689,2.988c-3.249,0-5.832-0.991-7.749-2.973
		C78.673,88.021,77.715,85.292,77.715,81.815z M82.26,81.666c0,2.474,0.571,4.349,1.714,5.625c1.142,1.277,2.593,1.915,4.351,1.915
		c1.759,0,3.202-0.633,4.329-1.899c1.128-1.267,1.691-3.167,1.691-5.7c0-2.504-0.549-4.371-1.646-5.604
		c-1.098-1.231-2.556-1.848-4.374-1.848c-1.817,0-3.283,0.624-4.396,1.87C82.816,77.272,82.26,79.152,82.26,81.666z"/>
	<path fill="#FFFFFF" d="M102.317,70.758h4.411V82.59c0,1.878,0.055,3.095,0.164,3.651c0.188,0.894,0.638,1.611,1.349,2.152
		c0.71,0.542,1.681,0.812,2.913,0.812c1.252,0,2.195-0.256,2.831-0.768s1.019-1.14,1.147-1.885s0.193-1.982,0.193-3.711V70.758
		h4.411v11.475c0,2.622-0.119,4.476-0.357,5.558c-0.238,1.083-0.678,1.997-1.318,2.742c-0.642,0.745-1.498,1.339-2.571,1.781
		c-1.072,0.441-2.474,0.663-4.202,0.663c-2.086,0-3.668-0.241-4.746-0.723c-1.078-0.482-1.93-1.108-2.556-1.878
		s-1.038-1.577-1.236-2.422c-0.289-1.251-0.433-3.1-0.433-5.543V70.758z"/>
	<path fill="#FFFFFF" d="M124.401,92.604V70.758h9.283c2.335,0,4.031,0.196,5.089,0.589c1.059,0.393,1.905,1.09,2.541,2.094
		c0.636,1.003,0.954,2.15,0.954,3.442c0,1.639-0.482,2.992-1.445,4.061c-0.964,1.068-2.404,1.741-4.322,2.019
		c0.954,0.557,1.741,1.168,2.362,1.833c0.621,0.666,1.458,1.849,2.511,3.547l2.668,4.262h-5.275l-3.189-4.753
		c-1.132-1.699-1.907-2.77-2.324-3.212c-0.417-0.441-0.859-0.745-1.326-0.909s-1.207-0.245-2.221-0.245h-0.894v9.119H124.401z
		 M128.812,79.997h3.263c2.116,0,3.438-0.09,3.964-0.269s0.939-0.486,1.237-0.924c0.298-0.437,0.447-0.983,0.447-1.639
		c0-0.735-0.196-1.329-0.589-1.781s-0.946-0.737-1.661-0.856c-0.358-0.05-1.431-0.075-3.219-0.075h-3.442V79.997z"/>
	<path fill="#FFFFFF" d="M64.154,118.438c0-2.225,0.333-4.093,0.998-5.603c0.497-1.112,1.175-2.111,2.034-2.995
		c0.859-0.885,1.801-1.54,2.824-1.968c1.36-0.575,2.931-0.864,4.709-0.864c3.219,0,5.794,0.999,7.727,2.996
		c1.932,1.996,2.898,4.773,2.898,8.329c0,3.527-0.959,6.286-2.876,8.278c-1.918,1.992-4.481,2.987-7.689,2.987
		c-3.249,0-5.832-0.99-7.749-2.973C65.112,124.645,64.154,121.915,64.154,118.438z M68.699,118.289c0,2.474,0.571,4.349,1.714,5.625
		c1.142,1.276,2.593,1.915,4.351,1.915c1.759,0,3.202-0.634,4.329-1.9c1.128-1.267,1.691-3.166,1.691-5.699
		c0-2.504-0.549-4.371-1.646-5.604c-1.098-1.231-2.556-1.848-4.374-1.848c-1.817,0-3.283,0.623-4.396,1.87
		S68.699,115.775,68.699,118.289z"/>
	<path fill="#FFFFFF" d="M91.886,129.227l-5.215-21.846h4.515l3.293,15.006l3.994-15.006h5.245l3.83,15.259l3.352-15.259h4.441
		l-5.305,21.846h-4.68l-4.352-16.332l-4.335,16.332H91.886z"/>
	<path fill="#FFFFFF" d="M117.636,129.227v-21.846h4.292l8.941,14.589v-14.589h4.098v21.846h-4.426l-8.807-14.246v14.246H117.636z"
		/>
	<path fill="#FFFFFF" d="M63.916,158.74l4.292-0.417c0.258,1.44,0.782,2.499,1.571,3.174c0.79,0.676,1.855,1.014,3.197,1.014
		c1.42,0,2.49-0.301,3.211-0.901c0.72-0.602,1.08-1.304,1.08-2.108c0-0.517-0.151-0.956-0.454-1.319
		c-0.304-0.362-0.832-0.678-1.587-0.946c-0.517-0.179-1.694-0.496-3.532-0.953c-2.364-0.587-4.023-1.307-4.977-2.161
		c-1.342-1.202-2.012-2.667-2.012-4.396c0-1.112,0.315-2.153,0.946-3.121c0.631-0.969,1.539-1.707,2.727-2.213
		c1.188-0.507,2.62-0.761,4.299-0.761c2.742,0,4.807,0.602,6.192,1.804s2.113,2.807,2.183,4.813l-4.411,0.193
		c-0.188-1.123-0.594-1.93-1.214-2.422c-0.621-0.491-1.553-0.737-2.794-0.737c-1.282,0-2.285,0.264-3.011,0.79
		c-0.467,0.338-0.7,0.789-0.7,1.355c0,0.517,0.219,0.959,0.655,1.326c0.557,0.468,1.908,0.954,4.054,1.461s3.732,1.03,4.761,1.572
		c1.028,0.541,1.833,1.281,2.414,2.22c0.581,0.939,0.872,2.099,0.872,3.479c0,1.252-0.348,2.425-1.043,3.517
		c-0.695,1.094-1.679,1.905-2.95,2.437c-1.272,0.531-2.856,0.798-4.754,0.798c-2.762,0-4.883-0.639-6.363-1.915
		S64.204,161.185,63.916,158.74z"/>
	<path fill="#FFFFFF" d="M85.255,165.849v-21.846h4.411v21.846H85.255z"/>
	<path fill="#FFFFFF" d="M104.03,157.816v-3.681h9.508v8.703c-0.924,0.894-2.263,1.682-4.016,2.361
		c-1.754,0.681-3.53,1.021-5.328,1.021c-2.285,0-4.276-0.479-5.975-1.438c-1.699-0.959-2.976-2.329-3.83-4.113
		c-0.854-1.782-1.281-3.723-1.281-5.818c0-2.275,0.477-4.297,1.431-6.065c0.953-1.769,2.349-3.124,4.187-4.068
		c1.4-0.725,3.145-1.088,5.23-1.088c2.712,0,4.831,0.569,6.355,1.707c1.525,1.138,2.506,2.709,2.943,4.716l-4.381,0.819
		c-0.309-1.072-0.887-1.919-1.736-2.54s-1.91-0.932-3.182-0.932c-1.928,0-3.459,0.611-4.597,1.833s-1.706,3.035-1.706,5.439
		c0,2.593,0.576,4.537,1.729,5.834c1.152,1.296,2.662,1.944,4.529,1.944c0.924,0,1.851-0.182,2.779-0.544s1.727-0.802,2.392-1.319
		v-2.771H104.03z"/>
	<path fill="#FFFFFF" d="M117.65,165.849v-21.846h4.292l8.941,14.589v-14.589h4.098v21.846h-4.426l-8.807-14.246v14.246H117.65z"/>
</g>
</svg>
