<?xml version="1.0" encoding="utf-8"?>
<!-- Generator: Adobe Illustrator 16.0.0, SVG Export Plug-In . SVG Version: 6.00 Build 0)  -->
<!DOCTYPE svg PUBLIC "-//W3C//DTD SVG 1.1//EN" "http://www.w3.org/Graphics/SVG/1.1/DTD/svg11.dtd">
<svg version="1.1" id="Layer_1" xmlns="http://www.w3.org/2000/svg" xmlns:xlink="http://www.w3.org/1999/xlink" x="0px" y="0px"
	 width="200px" height="200px" viewBox="0 0 200 200" enable-background="new 0 0 200 200" xml:space="preserve">
<g>
	<g>
		<g>
			<path fill="#FFFFFF" stroke="#6B3F23" d="M173.154,184.031c0,6.058-4.912,10.969-10.969,10.969H37.815
				c-6.058,0-10.969-4.911-10.969-10.969V15.969C26.846,9.911,31.757,5,37.815,5h124.371c6.057,0,10.969,4.911,10.969,10.969
				V184.031z"/>
			<path fill="#6B3F23" d="M167.458,184.031c0,2.912-2.36,5.272-5.272,5.272H37.815c-2.912,0-5.273-2.36-5.273-5.272V15.969
				c0-2.912,2.361-5.273,5.273-5.273h124.371c2.912,0,5.272,2.361,5.272,5.273V184.031z"/>
		</g>
	</g>
	<g>
		<polygon fill="#FFFFFF" points="136.058,92.935 101.325,32.291 105.098,25.67 102.29,25.67 99.911,29.836 97.533,25.67 
			94.726,25.67 98.499,32.291 63.765,92.935 		"/>
		<polygon fill="#6B3F23" points="112.914,86.985 99.891,64.244 86.866,86.985 		"/>
	</g>
	<g>
		<circle fill="#FFFFFF" cx="106.806" cy="162.391" r="11.034"/>
		<path fill="#FFFFFF" d="M149.148,162.392c5.013,0,9.074-4.063,9.074-9.076v-32.09c0-5.012-3.824-10.519-10.154-12.676
			c-3.534-1.202-26.35-3.609-41.369-3.609c-15.019,0-39.16,2.438-42.743,3.48c-0.363,0.106-11,3.006-11,14.425v30.47
			c0,2.067,0.691,3.973,1.854,5.498c-0.709,0-14.203,0-14.203,0v3.578h53.828c0-6.832,5.538-12.371,12.371-12.371
			c6.831,0,12.369,5.539,12.369,12.371H149.148z"/>
		<circle fill="#6B3F23" cx="106.806" cy="162.391" r="5.848"/>
		<path fill="#6B3F23" d="M144.259,134.335c0.949,0,1.719-0.771,1.719-1.719v-11.261c0-0.948-0.77-1.718-1.719-1.718h-35.696
			c-0.95,0-1.72,0.77-1.72,1.718v11.261c0,0.948,0.77,1.719,1.72,1.719H144.259z"/>
		<path fill="#6B3F23" d="M85.614,134.335c0.949,0,1.719-0.771,1.719-1.719v-11.261c0-0.948-0.77-1.718-1.719-1.718h-16.13
			c-0.949,0-1.719,0.77-1.719,1.718v11.261c0,0.948,0.77,1.719,1.719,1.719H85.614z"/>
	</g>
</g>
</svg>
