<?xml version="1.0" encoding="utf-8"?>
<!-- Generator: Adobe Illustrator 16.0.0, SVG Export Plug-In . SVG Version: 6.00 Build 0)  -->
<!DOCTYPE svg PUBLIC "-//W3C//DTD SVG 1.1//EN" "http://www.w3.org/Graphics/SVG/1.1/DTD/svg11.dtd">
<svg version="1.1" id="Layer_1" xmlns="http://www.w3.org/2000/svg" xmlns:xlink="http://www.w3.org/1999/xlink" x="0px" y="0px"
	 width="200px" height="200px" viewBox="0 0 200 200" enable-background="new 0 0 200 200" xml:space="preserve">
<g>
	<rect x="5" y="5" fill="#FFFFFF" stroke="#1C181B" stroke-miterlimit="10" width="190" height="190"/>
	<rect x="5.594" y="5.594" fill="#FFFFFF" width="188.811" height="188.812"/>
	<path fill="#FFF200" d="M174.714,186.828c6.661,0,12.113-5.451,12.113-12.109V25.285c0-6.665-5.452-12.115-12.113-12.115H25.287
		c-6.667,0-12.117,5.45-12.117,12.115v149.434c0,6.658,5.449,12.109,12.117,12.109"/>
	<path fill="#1C181B" d="M93.407,62.871c2.66,0,4.813-2.156,4.813-4.809c0-2.663-2.153-4.816-4.813-4.816
		c-2.652,0-4.81,2.153-4.81,4.816C88.597,60.715,90.755,62.871,93.407,62.871"/>
	<path fill="#1C181B" d="M108.336,81.927c2.391,0,4.33-1.942,4.33-4.33c0-2.393-1.939-4.333-4.33-4.333
		c-2.393,0-4.328,1.94-4.328,4.333C104.008,79.985,105.943,81.927,108.336,81.927"/>
	<rect x="137.026" y="65.605" fill="#1C181B" width="8.289" height="26.216"/>
	<rect x="134.48" y="72.679" fill="#1C181B" width="8.286" height="11.836"/>
	<path fill="#1C181B" d="M136.701,77.311l-22.721-0.5c0,0,0.07,0.432,0.047,1.139c-0.023,0.708-0.228,1.417-0.228,1.417l22.913,0.49
		"/>
	<path fill="#1C181B" d="M104.86,73.129c0.522-0.399,0.888-0.52,0.888-0.52L97.944,62.22c0,0-0.295,0.379-0.776,0.762
		c-0.454,0.355-1.024,0.669-1.024,0.669l7.82,10.35C103.964,74.001,104.34,73.527,104.86,73.129"/>
	<polyline fill="#1C181B" points="57.753,64.197 63.736,72.902 64.515,72.37 58.531,63.665 	"/>
	<polyline fill="#1C181B" points="54.685,68.374 57.562,66.397 61.673,72.381 58.8,74.356 	"/>
	<path fill="#1C181B" d="M98.618,54.954c-1.06-1.772-2.994-2.958-5.211-2.958c-3.346,0-6.059,2.713-6.059,6.066
		c0,1.408,0.481,2.708,1.292,3.738L68.503,75.655l-11.32-16.476l45-30.93l11.323,16.478"/>
	<path fill="#1C181B" d="M63.709,108.133c-0.309-2.365-2.417-4.164-4.831-4.164c-4.368,0-6.009,3.996-6.009,8.158
		c0,3.965,1.641,7.959,6.009,7.959c2.974,0,4.644-2.197,5.017-5.324h4.708c-0.495,5.924-4.306,9.723-9.725,9.723
		c-6.846,0-10.875-5.496-10.875-12.357c0-7.059,4.028-12.556,10.875-12.556c4.862,0,8.951,3.064,9.539,8.562"/>
	<rect x="70.09" y="118.789" fill="#1C181B" width="4.862" height="5.129"/>
	<path fill="#1C181B" d="M92.174,108.133c-0.308-2.365-2.415-4.164-4.83-4.164c-4.367,0-6.009,3.996-6.009,8.158
		c0,3.965,1.642,7.959,6.009,7.959c2.974,0,4.644-2.197,5.017-5.324h4.708c-0.495,5.924-4.305,9.723-9.725,9.723
		c-6.846,0-10.873-5.496-10.873-12.357c0-7.059,4.027-12.556,10.873-12.556c4.862,0,8.95,3.064,9.54,8.562"/>
	<rect x="98.555" y="118.789" fill="#1C181B" width="4.863" height="5.129"/>
	<polyline fill="#1C181B" points="109.242,104.535 102.614,104.535 102.614,100.138 120.731,100.138 120.731,104.535 
		114.104,104.535 114.104,123.918 109.242,123.918 	"/>
	<rect x="119.119" y="118.789" fill="#1C181B" width="4.865" height="5.129"/>
	<polyline fill="#1C181B" points="136.743,123.918 131.263,123.918 124.077,100.138 129.095,100.138 134.018,116.857 
		134.08,116.857 139.068,100.138 144.084,100.138 	"/>
	<rect x="141.821" y="118.789" fill="#1C181B" width="4.864" height="5.129"/>
	<path fill="#1C181B" d="M91.695,131.658h-3.785v-3.117h3.785V131.658z M87.911,133.793h3.785v13.773h-3.785V133.793z"/>
	<path fill="#1C181B" d="M94.678,133.793h3.597v1.914h0.08c0.959-1.545,2.61-2.291,4.21-2.291c4.021,0,5.036,2.266,5.036,5.676
		v8.475h-3.787v-7.781c0-2.266-0.664-3.383-2.423-3.383c-2.051,0-2.932,1.146-2.932,3.941v7.223h-3.782"/>
	<path fill="#1C181B" d="M44.91,157.062c4.342,0,7.139,2.877,7.139,7.273c0,4.369-2.797,7.248-7.139,7.248
		c-4.317,0-7.113-2.879-7.113-7.248C37.796,159.939,40.592,157.062,44.91,157.062 M44.91,168.73c2.583,0,3.357-2.211,3.357-4.395
		c0-2.209-0.773-4.424-3.357-4.424c-2.558,0-3.33,2.215-3.33,4.424C41.58,166.52,42.352,168.73,44.91,168.73"/>
	<path fill="#1C181B" d="M54.501,157.436h3.597v1.758h0.052c0.906-1.465,2.399-2.131,4.104-2.131c4.315,0,6.261,3.492,6.261,7.404
		c0,3.678-2.025,7.117-6.047,7.117c-1.653,0-3.226-0.719-4.129-2.08h-0.055v6.555h-3.783 M64.733,164.363
		c0-2.186-0.88-4.451-3.305-4.451c-2.479,0-3.278,2.215-3.278,4.451c0,2.24,0.854,4.367,3.305,4.367
		C63.934,168.73,64.733,166.604,64.733,164.363"/>
	<path fill="#1C181B" d="M73.896,165.242c0.107,2.396,1.28,3.488,3.385,3.488c1.518,0,2.743-0.932,2.983-1.783h3.33
		c-1.065,3.25-3.33,4.637-6.446,4.637c-4.343,0-7.035-2.986-7.035-7.248c0-4.131,2.853-7.273,7.035-7.273
		c4.689,0,6.954,3.941,6.687,8.18 M80.053,162.844c-0.347-1.918-1.173-2.932-3.012-2.932c-2.397,0-3.09,1.865-3.145,2.932H80.053z"
		/>
	<path fill="#1C181B" d="M86.074,157.436h3.596v2.559h0.052c0.692-1.73,2.558-2.932,4.396-2.932c0.266,0,0.585,0.053,0.826,0.131
		v3.518c-0.345-0.078-0.905-0.133-1.359-0.133c-2.77,0-3.73,1.998-3.73,4.426v6.205h-3.782"/>
	<path fill="#1C181B" d="M96.276,161.67c0.215-3.541,3.386-4.607,6.475-4.607c2.743,0,6.05,0.615,6.05,3.916v7.166
		c0,1.252,0.132,2.508,0.479,3.064h-3.838c-0.131-0.424-0.239-0.877-0.266-1.33c-1.198,1.252-2.957,1.705-4.637,1.705
		c-2.608,0-4.688-1.307-4.688-4.131c0-3.117,2.345-3.863,4.688-4.184c2.318-0.344,4.479-0.266,4.479-1.812
		c0-1.623-1.12-1.863-2.453-1.863c-1.438,0-2.371,0.586-2.503,2.076 M105.019,164.467c-0.642,0.561-1.975,0.588-3.145,0.801
		c-1.172,0.244-2.238,0.643-2.238,2.027c0,1.41,1.092,1.756,2.317,1.756c2.958,0,3.065-2.344,3.065-3.17V164.467z"/>
	<path fill="#1C181B" d="M116.527,157.436h2.769v2.529h-2.769v6.824c0,1.277,0.32,1.598,1.598,1.598c0.4,0,0.771-0.027,1.171-0.107
		v2.955c-0.639,0.109-1.463,0.135-2.209,0.135c-2.318,0-4.342-0.533-4.342-3.277v-8.127h-2.293v-2.529h2.293v-4.129h3.782"/>
	<path fill="#1C181B" d="M124.999,155.305h-3.781v-3.119h3.781V155.305z M121.215,157.436h3.782v13.773h-3.782V157.436z"/>
	<path fill="#1C181B" d="M134.671,157.062c4.344,0,7.141,2.877,7.141,7.273c0,4.369-2.797,7.248-7.141,7.248
		c-4.316,0-7.113-2.879-7.113-7.248C127.558,159.939,130.354,157.062,134.671,157.062 M134.671,168.73
		c2.583,0,3.359-2.211,3.359-4.395c0-2.209-0.776-4.424-3.359-4.424c-2.561,0-3.329,2.215-3.329,4.424
		C131.342,166.52,132.11,168.73,134.671,168.73"/>
	<path fill="#1C181B" d="M144.265,157.436h3.597v1.92h0.079c0.959-1.549,2.611-2.293,4.209-2.293c4.024,0,5.037,2.264,5.037,5.678
		v8.469h-3.787v-7.777c0-2.268-0.664-3.383-2.423-3.383c-2.051,0-2.93,1.143-2.93,3.939v7.221h-3.782"/>
</g>
</svg>
