<?xml version="1.0" encoding="UTF-8"?>
<!DOCTYPE svg PUBLIC "-//W3C//DTD SVG 1.1//EN" "http://www.w3.org/Graphics/SVG/1.1/DTD/svg11.dtd">
<!-- Creator: CorelDRAW X8 -->
<svg xmlns="http://www.w3.org/2000/svg" xml:space="preserve" width="200px" height="150px" version="1.1" style="shape-rendering:geometricPrecision; text-rendering:geometricPrecision; image-rendering:optimizeQuality; fill-rule:evenodd; clip-rule:evenodd"
viewBox="0 0 200 150"
 xmlns:xlink="http://www.w3.org/1999/xlink">
 <defs>
  <style type="text/css">
   <![CDATA[
    .fil1 {fill:#2B2A29;fill-rule:nonzero}
    .fil0 {fill:#FFED00;fill-rule:nonzero}
   ]]>
  </style>
 </defs>
 <g id="Layer_x0020_3">
  <metadata id="CorelCorpID_0Corel-Layer"/>
  <g id="_1177325696">
   <path class="fil0" d="M156 140c5,0 9,-4 9,-9l0 -112c0,-5 -4,-9 -9,-9l-112 0c-5,0 -9,4 -9,9l0 112c0,5 4,9 9,9l112 0z"/>
   <path class="fil1" d="M95 45c2,0 4,-1 4,-4 0,-2 -2,-3 -4,-3 -2,0 -4,1 -4,3 0,3 2,4 4,4z"/>
   <path class="fil1" d="M107 61c2,0 3,-2 3,-4 0,-2 -1,-3 -3,-3 -2,0 -4,1 -4,3 0,2 2,4 4,4z"/>
   <polygon class="fil1" points="130,68 136,68 136,47 130,47 "/>
   <polygon class="fil1" points="128,63 134,63 134,53 128,53 "/>
   <path class="fil1" d="M129 57l-18 -1c0,0 0,1 0,1 0,1 0,1 0,1l18 1 0 -2z"/>
   <path class="fil1" d="M104 53c0,0 1,0 1,0l-7 -8c0,0 0,0 0,0 -1,1 -1,1 -1,1l6 8c0,0 0,0 1,-1z"/>
   <polygon class="fil1" points="66,46 71,53 72,53 67,46 "/>
   <polygon class="fil1" points="64,50 66,48 69,53 67,54 "/>
   <path class="fil1" d="M99 39c-1,-1 -3,-2 -4,-2 -3,0 -5,2 -5,4 0,2 0,3 1,3l-16 12 -9 -14 36 -24 9 13 -12 8z"/>
   <path class="fil1" d="M71 82c0,-2 -2,-4 -4,-4 -3,0 -5,3 -5,7 0,3 2,6 5,6 2,0 4,-2 4,-4l4 0c-1,5 -4,8 -8,8 -5,0 -9,-5 -9,-10 0,-6 4,-10 9,-10 4,0 7,2 8,7l-4 0z"/>
   <polygon class="fil1" points="76,94 80,94 80,90 76,90 "/>
   <path class="fil1" d="M94 82c-1,-2 -2,-4 -4,-4 -4,0 -5,3 -5,7 0,3 1,6 5,6 2,0 4,-2 4,-4l4 0c-1,5 -4,8 -8,8 -6,0 -9,-5 -9,-10 0,-6 3,-10 9,-10 4,0 7,2 8,7l-4 0z"/>
   <polygon class="fil1" points="99,94 103,94 103,90 99,90 "/>
   <polygon class="fil1" points="107,79 102,79 102,75 117,75 117,79 111,79 111,94 107,94 "/>
   <polygon class="fil1" points="115,94 119,94 119,90 115,90 "/>
   <polygon class="fil1" points="129,94 125,94 119,75 123,75 127,88 127,88 131,75 135,75 "/>
   <polygon class="fil1" points="133,94 137,94 137,90 133,90 "/>
   <path class="fil1" d="M90 102l3 0 0 11 -3 0 0 -11zm3 -2l-3 0 0 -2 3 0 0 2z"/>
   <path class="fil1" d="M96 102l3 0 0 2 0 0c0,-2 2,-2 3,-2 3,0 4,2 4,4l0 7 -3 0 0 -6c0,-2 0,-3 -2,-3 -2,0 -2,1 -2,3l0 6 -3 0 0 -11z"/>
   <path class="fil1" d="M56 130c2,0 3,-2 3,-3 0,-2 -1,-4 -3,-4 -2,0 -3,2 -3,4 0,1 1,3 3,3zm0 -9c3,0 6,2 6,6 0,3 -3,5 -6,5 -4,0 -6,-2 -6,-5 0,-4 2,-6 6,-6z"/>
   <path class="fil1" d="M72 127c0,-2 -1,-4 -3,-4 -2,0 -3,2 -3,4 0,1 1,3 3,3 2,0 3,-2 3,-3zm-8 -6l2 0 0 1 0 0c1,-1 2,-1 4,-1 3,0 5,2 5,6 0,3 -2,5 -5,5 -1,0 -3,0 -3,-1l0 0 0 5 -3 0 0 -15z"/>
   <path class="fil1" d="M84 125c0,-1 -1,-2 -2,-2 -2,0 -3,1 -3,2l5 0zm-5 2c0,2 1,3 3,3 1,0 2,-1 2,-1l3 0c-1,2 -3,3 -5,3 -4,0 -6,-2 -6,-5 0,-4 2,-6 6,-6 3,0 5,3 5,6l-8 0z"/>
   <path class="fil1" d="M89 121l3 0 0 2 0 0c0,-1 2,-2 3,-2 1,0 1,0 1,0l0 3c0,0 -1,0 -1,0 -2,0 -3,1 -3,3l0 5 -3 0 0 -11z"/>
   <path class="fil1" d="M104 127c0,0 -2,0 -2,0 -1,0 -2,1 -2,2 0,1 1,1 2,1 2,0 2,-2 2,-2l0 -1zm-7 -3c0,-2 3,-3 5,-3 2,0 5,0 5,3l0 6c0,1 0,2 0,2l-3 0c0,0 0,-1 0,-1 -1,1 -2,1 -4,1 -2,0 -3,-1 -3,-3 0,-2 2,-3 3,-3 2,-1 4,-1 4,-2 0,-1 -1,-1 -2,-1 -1,0 -2,0 -2,1l-3 0z"/>
   <path class="fil1" d="M113 121l2 0 0 2 -2 0 0 5c0,1 0,2 2,2 0,0 0,0 0,0l0 2c0,0 -1,0 -1,0 -2,0 -4,0 -4,-2l0 -7 -2 0 0 -2 2 0 0 -3 3 0 0 3z"/>
   <path class="fil1" d="M117 121l3 0 0 11 -3 0 0 -11zm3 -2l-3 0 0 -2 3 0 0 2z"/>
   <path class="fil1" d="M128 130c2,0 2,-2 2,-3 0,-2 0,-4 -2,-4 -2,0 -3,2 -3,4 0,1 1,3 3,3zm0 -9c3,0 5,2 5,6 0,3 -2,5 -5,5 -4,0 -6,-2 -6,-5 0,-4 2,-6 6,-6z"/>
   <path class="fil1" d="M135 121l3 0 0 2 0 0c1,-2 2,-2 4,-2 3,0 4,1 4,4l0 7 -3 0 0 -6c0,-2 -1,-3 -2,-3 -2,0 -3,1 -3,3l0 6 -3 0 0 -11z"/>
  </g>
 </g>
</svg>
