<?xml version="1.0" encoding="utf-8"?>
<!-- Generator: Adobe Illustrator 16.0.0, SVG Export Plug-In . SVG Version: 6.00 Build 0)  -->
<!DOCTYPE svg PUBLIC "-//W3C//DTD SVG 1.1//EN" "http://www.w3.org/Graphics/SVG/1.1/DTD/svg11.dtd">
<svg version="1.1" id="Layer_1" xmlns="http://www.w3.org/2000/svg" xmlns:xlink="http://www.w3.org/1999/xlink" x="0px" y="0px"
	 width="200px" height="200px" viewBox="0 -25 200 200" enable-background="new 0 -25 200 200" xml:space="preserve">
<g>
	<g>
		<g>
			<polyline fill="#FFFFFE" stroke="#231F20" stroke-width="0.2826" points="182.934,81.113 169.207,79.648 168.402,82.693 
				183.539,84.221 			"/>
			<polyline fill="#FFFFFE" stroke="#231F20" stroke-width="0.2826" points="182.906,81.172 177.113,54.128 180.318,43.291 
				193.623,107.766 191.557,108.615 191.379,108.615 189.814,108.078 189.633,108.078 189.338,106.693 189.4,106.768 
				188.246,106.184 183.539,84.221 			"/>
			<polyline fill="#FFFFFE" stroke="#231F20" stroke-width="0.2826" points="43.965,75.941 32.434,107.586 35.767,108.322 
				37.162,108.197 37.505,107.238 37.492,107.277 39.175,107.135 50.368,76.562 			"/>
			<polyline fill="#FFFFFE" stroke="#231F20" stroke-width="0.2826" points="75.679,79.012 77.659,93.117 76.546,93.436 
				74.505,92.799 72.905,93.557 71.679,93.164 69.479,78.455 69.866,78.32 75.285,78.816 			"/>
			<polyline fill="#FFFFFE" stroke="#231F20" stroke-width="0.2826" points="179.129,38.516 180.873,41.366 155.615,123.559 
				152.523,124.354 148.748,123.934 160.115,87.047 164.141,86.717 179.043,38.43 			"/>
			<polyline fill="#FFFFFE" stroke="#231F20" stroke-width="0.2826" points="69.504,78.32 43.657,75.91 40.346,73.299 
				68.682,-5.646 188.439,-2.13 190.777,0.399 164.141,86.717 164.076,86.975 160.225,86.623 75.647,78.816 75.285,78.816 
				69.866,78.32 			"/>
			<line fill="none" stroke="#231F20" stroke-width="0.2826" x1="69.735" y1="-4.343" x2="71.8" y2="-2.348"/>
			<line fill="none" stroke="#231F20" stroke-width="0.2826" x1="164.076" y1="86.975" x2="160.225" y2="86.623"/>
			<line fill="none" stroke="#231F20" stroke-width="0.2826" x1="160.225" y1="86.623" x2="75.647" y2="78.816"/>
			<line fill="none" stroke="#231F20" stroke-width="0.2826" x1="75.285" y1="78.816" x2="69.866" y2="78.32"/>
			<polyline fill="none" stroke="#231F20" stroke-width="0.2826" points="69.504,78.32 43.657,75.91 40.346,73.299 68.682,-5.646 
				188.439,-2.13 190.777,0.399 179.043,38.43 			"/>
			<path fill="none" stroke="#231F20" stroke-width="0.2826" d="M40.503,73.257l120.877,10.741L188.439-2.13 M161.457,84.254
				l2.629,2.59 M164.141,86.717l14.902-48.287"/>
			<polyline fill="none" stroke="#231F20" stroke-width="0.2826" points="186.756,-2.119 160.072,82.613 42.202,72.187 
				69.735,-4.343 186.238,-0.605 			"/>
			<polyline fill="none" stroke="#231F20" stroke-width="0.2826" points="179.129,38.516 180.873,41.366 169.117,79.623 			"/>
			<line fill="none" stroke="#231F20" stroke-width="0.2826" x1="169.117" y1="79.623" x2="168.203" y2="82.594"/>
			<path fill="none" stroke="#231F20" stroke-width="0.2826" d="M152.523,124.354l-3.775-0.42l11.367-36.887 M152.523,124.354
				l3.092-0.795l12.588-40.965"/>
			<line fill="none" stroke="#231F20" stroke-width="0.2826" x1="152.523" y1="124.354" x2="164.076" y2="86.975"/>
			<polyline fill="none" stroke="#231F20" stroke-width="0.2826" points="44.926,72.485 71.8,-2.348 185.68,1.107 			"/>
			<line fill="none" stroke="#231F20" stroke-width="0.2826" x1="176.672" y1="46.734" x2="178.594" y2="49.764"/>
			<line fill="none" stroke="#231F20" stroke-width="0.2826" x1="180.318" y1="43.291" x2="193.623" y2="107.766"/>
			<line fill="none" stroke="#231F20" stroke-width="0.2826" x1="177.834" y1="50.79" x2="189.701" y2="106.693"/>
			<path fill="none" stroke="#231F20" stroke-width="0.2826" d="M191.379,108.615l-1.564-0.537 M189.633,108.078l-0.295-1.385"/>
			<line fill="none" stroke="#231F20" stroke-width="0.2826" x1="191.557" y1="108.615" x2="193.623" y2="107.766"/>
			<line fill="none" stroke="#231F20" stroke-width="0.2826" x1="178.471" y1="48.746" x2="191.137" y2="108.529"/>
			<path fill="none" stroke="#231F20" stroke-width="0.2826" d="M39.175,107.135l11.193-30.572 M189.4,106.768l-1.154-0.584
				l-4.707-21.963 M182.906,81.172l-5.793-27.044"/>
			<path fill="none" stroke="#231F20" stroke-width="0.2826" d="M74.505,92.799l-2.073-14.182 M76.546,93.436l-2.126-14.58"/>
			<polyline fill="none" stroke="#231F20" stroke-width="0.2826" points="69.479,78.455 71.679,93.164 72.905,93.557 			"/>
			<line fill="none" stroke="#231F20" stroke-width="0.2826" x1="39.175" y1="107.135" x2="37.492" y2="107.277"/>
			<line fill="none" stroke="#231F20" stroke-width="0.2826" x1="70.674" y1="78.455" x2="72.905" y2="93.557"/>
			<polyline fill="none" stroke="#231F20" stroke-width="0.2826" points="72.905,93.557 74.505,92.799 76.546,93.436 77.659,93.117 
				75.679,79.012 			"/>
			<line fill="none" stroke="#231F20" stroke-width="0.2826" x1="47.479" y1="76.316" x2="35.949" y2="108.322"/>
			<polyline fill="none" stroke="#231F20" stroke-width="0.2826" points="35.767,108.322 32.434,107.586 43.965,75.941 			"/>
			<line fill="none" stroke="#231F20" stroke-width="0.2826" x1="48.513" y1="76.553" x2="37.505" y2="107.238"/>
			<polyline fill="none" stroke="#231F20" stroke-width="0.2826" points="37.505,107.238 37.162,108.197 35.767,108.322 			"/>
			<line fill="none" stroke="#231F20" stroke-width="0.2826" x1="184.709" y1="84.34" x2="183.539" y2="84.221"/>
			<line fill="none" stroke="#231F20" stroke-width="0.2826" x1="183.539" y1="84.221" x2="168.402" y2="82.693"/>
			<line fill="none" stroke="#231F20" stroke-width="0.2826" x1="184.252" y1="81.408" x2="183.115" y2="81.295"/>
			<line fill="none" stroke="#231F20" stroke-width="0.2826" x1="182.934" y1="81.113" x2="169.207" y2="79.648"/>
			<path fill="none" stroke="#231F20" stroke-width="0.2826" d="M168.521,81.604l16.066,1.641 M168.775,80.904l15.662,1.59"/>
			<line fill="none" stroke="#231F20" stroke-width="0.2826" x1="164.076" y1="86.975" x2="160.225" y2="86.623"/>
			<path fill="none" stroke="#231F20" stroke-width="0.2826" d="M182.934,81.113l-13.727-1.465 M183.539,84.221l-15.137-1.527"/>
		</g>
		<g>
			<g>
				<path fill-rule="evenodd" clip-rule="evenodd" fill="#FFFFFF" d="M52.168,72.563c-0.009,0.031-0.016,0.046-0.024,0.077
					c-0.037-0.003-0.054-0.006-0.09-0.01c-3.563-0.312-5.499-3.226-4.32-6.508C55.157,45.441,62.58,24.759,70.002,4.077
					c0.012-0.033,0.018-0.049,0.03-0.083c1.162-3.237,5.003-5.775,8.574-5.666c33.315,1.022,66.629,2.042,99.944,3.067
					c3.57,0.109,5.572,3.06,4.465,6.583c-0.01,0.032-0.018,0.06-0.031,0.089c-7.078,22.509-14.154,45.019-21.226,67.53
					c-1.123,3.573-4.966,6.214-8.575,5.897C119.512,78.518,85.84,75.539,52.168,72.563z"/>
				<path fill="none" stroke="#EC1C24" stroke-width="1.1102" stroke-miterlimit="10" d="M52.168,72.563
					c-0.009,0.031-0.016,0.046-0.024,0.077c-0.037-0.003-0.054-0.006-0.09-0.01c-3.563-0.312-5.499-3.226-4.32-6.508
					C55.157,45.441,62.58,24.759,70.002,4.077c0.012-0.033,0.018-0.049,0.03-0.083c1.162-3.237,5.003-5.775,8.574-5.666
					c33.315,1.022,66.629,2.042,99.944,3.067c3.57,0.109,5.572,3.06,4.465,6.583c-0.01,0.032-0.018,0.06-0.031,0.089
					c-7.078,22.509-14.154,45.019-21.226,67.53c-1.123,3.573-4.966,6.214-8.575,5.897C119.512,78.518,85.84,75.539,52.168,72.563z"
					/>
				<path fill-rule="evenodd" clip-rule="evenodd" fill="#EC1C24" d="M53.289,69.665c0.023,0.033,0.036,0.047,0.059,0.08
					c-0.029,0-0.059-0.002-0.086-0.004c-1.757-0.15-2.703-1.606-2.114-3.252c7.422-20.765,14.843-41.53,22.267-62.294
					c0.587-1.644,2.516-2.932,4.298-2.874c33.33,1.101,66.66,2.201,99.99,3.3c1.787,0.059,2.78,1.554,2.219,3.334
					c-7.153,22.485-14.307,44.97-21.462,67.455c-0.569,1.669-2.354,2.896-4.062,2.795C120.694,75.352,86.991,72.513,53.289,69.665z"
					/>
				<path fill="none" stroke="#E03A3E" stroke-width="0.094" stroke-miterlimit="10" d="M53.289,69.665
					c0.023,0.033,0.036,0.047,0.059,0.08c-0.029,0-0.059-0.002-0.086-0.004c-1.757-0.15-2.703-1.606-2.114-3.252
					c7.422-20.765,14.843-41.53,22.267-62.294c0.587-1.644,2.516-2.932,4.298-2.874c33.33,1.101,66.66,2.201,99.99,3.3
					c1.787,0.059,2.78,1.554,2.219,3.334c-7.153,22.485-14.307,44.97-21.462,67.455c-0.569,1.669-2.354,2.896-4.062,2.795
					C120.694,75.352,86.991,72.513,53.289,69.665z"/>
				<path fill-rule="evenodd" clip-rule="evenodd" fill="#FFFFFF" d="M157.855,14.632c-1.603-0.065-2.404-0.098-4.007-0.163
					c-1.191,3.675-1.789,5.511-2.98,9.186c1.605,0.076,2.407,0.115,4.013,0.191c1.969,0.093,4.234-1.703,5.157-4.444
					C160.927,16.762,159.733,14.708,157.855,14.632 M157.228,16.048c-0.853-0.036-1.28-0.052-2.133-0.087
					c-0.822,2.542-1.235,3.812-2.058,6.354c0.854,0.04,1.281,0.059,2.135,0.099c1.109,0.051,2.488-0.992,3.136-3.003
					C158.956,17.395,158.421,16.098,157.228,16.048"/>
				<path fill-rule="evenodd" clip-rule="evenodd" fill="#FFFFFF" d="M103.1,15.914c0.684,0.03,1.024,0.045,1.708,0.075
					c0.476-1.386,0.715-2.079,1.19-3.465c0.648,0.026,0.973,0.039,1.621,0.065c-1.215,3.55-1.825,5.327-3.04,8.877
					c-0.649-0.031-0.972-0.047-1.621-0.078c0.553-1.612,0.829-2.417,1.382-4.028c-1.708-0.076-2.562-0.113-4.27-0.188
					c-0.554,1.606-0.831,2.409-1.385,4.015c-0.614-0.029-0.92-0.043-1.534-0.072c1.219-3.531,1.83-5.296,3.048-8.827
					c0.613,0.025,0.918,0.039,1.532,0.063c-0.477,1.382-0.714,2.072-1.19,3.454c0.649,0.028,0.974,0.041,1.623,0.069
					C102.539,15.89,102.725,15.898,103.1,15.914z"/>
				<path fill-rule="evenodd" clip-rule="evenodd" fill="#FFFFFF" d="M126.273,18.082c0.624-1.869,0.937-2.803,1.561-4.671
					c-0.648-0.026-0.972-0.04-1.62-0.066c-0.877,2.618-1.316,3.928-2.193,6.546c-0.934-2.701-1.396-4.047-2.326-6.729
					c-0.751-0.031-1.129-0.045-1.88-0.076c-1.209,3.583-1.812,5.375-3.021,8.958c0.65,0.031,0.975,0.046,1.625,0.077
					c0.879-2.61,1.318-3.916,2.197-6.526c0.896,2.685,1.346,4.033,2.245,6.735c0.785,0.037,1.177,0.056,1.962,0.093
					c0.351-1.048,0.527-1.572,0.878-2.621C125.93,19.115,126.044,18.77,126.273,18.082z"/>
				<path fill-rule="evenodd" clip-rule="evenodd" fill="#FFFFFF" d="M92.182,11.961c-0.274-0.011-0.41-0.017-0.684-0.028
					c-1.504,2.428-2.257,3.642-3.762,6.064c0.208-2.481,0.312-3.72,0.521-6.195c-0.648-0.026-0.972-0.04-1.62-0.066
					c-0.373,3.528-0.559,5.296-0.93,8.836c0.786,0.037,1.177,0.056,1.963,0.093c1.596-2.581,2.395-3.874,3.989-6.461
					c-0.263,2.645-0.396,3.968-0.658,6.619c0.786,0.037,1.18,0.055,1.966,0.092c2.108-3.477,3.162-5.218,5.268-8.707
					c-0.682-0.028-1.021-0.042-1.703-0.07c-1.503,2.438-2.256,3.655-3.76,6.087c0.24-2.489,0.362-3.731,0.603-6.214
					c-0.307-0.013-0.46-0.019-0.768-0.032C92.438,11.972,92.352,11.968,92.182,11.961z"/>
				<path fill-rule="evenodd" clip-rule="evenodd" fill="#FFFFFF" d="M139.177,13.872c-1.534-0.062-2.303-0.094-3.837-0.156
					c-1.201,3.625-1.801,5.438-3.002,9.062c0.682,0.032,1.023,0.05,1.705,0.082c0.469-1.419,0.703-2.129,1.172-3.548
					c0.65,0.029,0.975,0.044,1.625,0.073c0.248,1.453,0.374,2.178,0.622,3.635c0.717,0.034,1.073,0.051,1.79,0.085
					c-0.285-1.56-0.427-2.338-0.711-3.894c0.596-0.227,2.035-0.919,2.553-2.493C141.584,15.229,140.627,13.931,139.177,13.872
					 M138.457,15.266c-0.751-0.031-1.126-0.047-1.877-0.078c-0.36,1.089-0.542,1.635-0.902,2.725
					c0.752,0.033,1.127,0.049,1.879,0.082c0.856,0.038,1.7-0.681,1.919-1.345C139.693,15.988,139.225,15.298,138.457,15.266"/>
				<path fill-rule="evenodd" clip-rule="evenodd" fill="#FFFFFF" d="M113.844,12.842c-1.16-0.047-1.741-0.071-2.901-0.119
					c-1.213,3.559-1.819,5.339-3.032,8.898c2.46,0.116,3.689,0.176,6.149,0.292c0.188-0.553,0.28-0.83,0.468-1.383
					c-1.812-0.084-2.716-0.125-4.527-0.209c0.331-0.972,0.496-1.458,0.827-2.43c1.571,0.07,2.357,0.105,3.929,0.175
					c0.187-0.552,0.282-0.829,0.469-1.38c-1.571-0.068-2.356-0.103-3.928-0.171c0.32-0.94,0.479-1.41,0.799-2.35
					c1.741,0.073,2.61,0.11,4.352,0.183c0.188-0.553,0.28-0.83,0.468-1.383c-0.41-0.017-0.614-0.024-1.024-0.041
					C115.072,12.893,114.662,12.875,113.844,12.842z"/>
				<path fill-rule="evenodd" clip-rule="evenodd" fill="#FFFFFF" d="M147.879,14.226c-1.195-0.049-1.793-0.072-2.988-0.121
					c-1.196,3.651-1.794,5.477-2.99,9.128c2.46,0.116,3.69,0.175,6.15,0.291c0.185-0.567,0.276-0.852,0.461-1.418
					c-1.81-0.084-2.714-0.124-4.523-0.208c0.326-0.997,0.488-1.495,0.814-2.492c1.569,0.07,2.354,0.103,3.924,0.173
					c0.185-0.566,0.279-0.849,0.464-1.415c-1.569-0.068-2.355-0.101-3.925-0.169c0.315-0.964,0.472-1.447,0.787-2.411
					c1.739,0.073,2.608,0.108,4.348,0.18c0.185-0.567,0.276-0.851,0.461-1.417c-0.409-0.017-0.612-0.024-1.021-0.041
					C149.056,14.274,148.663,14.257,147.879,14.226z"/>
				<path fill-rule="evenodd" clip-rule="evenodd" fill="#FFFFFF" d="M70.907,33.435c0.436-1.231,0.652-1.846,1.088-3.077
					c-0.65-0.036-0.975-0.053-1.625-0.089c-1.231,3.469-1.846,5.202-3.077,8.671c2.089,0.129,3.133,0.194,5.222,0.323
					c0.19-0.539,0.286-0.808,0.476-1.346c-1.438-0.087-2.156-0.131-3.594-0.219c0.458-1.294,0.687-1.94,1.145-3.234
					C70.687,34.052,70.761,33.846,70.907,33.435z"/>
				<path fill-rule="evenodd" clip-rule="evenodd" fill="#FFFFFF" d="M139.073,35.325c1.884,0.105,2.224,1.993,1.735,3.489
					c-0.488,1.498-2.052,3.355-3.938,3.241c-1.969-0.12-2.283-2.085-1.794-3.577C135.566,36.988,137.106,35.215,139.073,35.325
					 M139.537,33.915c2.393,0.132,3.879,2.249,2.983,4.999c-0.896,2.751-3.626,4.702-6.11,4.548
					c-2.568-0.159-3.945-2.351-3.046-5.084C134.263,35.646,137.056,33.778,139.537,33.915"/>
				<path fill-rule="evenodd" clip-rule="evenodd" fill="#FFFFFF" d="M165.052,36.871c-0.598,0.345-0.896,0.517-1.494,0.861
					c-0.438-0.541-0.935-1.171-1.96-1.229c-1.027-0.058-1.985,0.489-2.201,1.164c-0.297,0.929,0.333,1.135,1.707,1.475
					c0.888,0.22,1.633,0.364,2.128,0.984c0.432,0.54,0.567,1.238,0.299,2.084c-0.27,0.849-1.43,2.845-4.509,2.654
					c-2.4-0.149-3.082-1.562-3.348-2.094c0.677-0.372,1.013-0.558,1.689-0.931c0.302,0.967,1.257,1.541,2.027,1.588
					c0.686,0.042,2.138-0.13,2.515-1.315c0.376-1.183-1.114-1.313-2.368-1.602c-1.169-0.269-2.447-1.087-1.882-2.854
					c0.594-1.854,2.748-2.594,4.373-2.505C163.651,35.242,164.69,35.816,165.052,36.871"/>
				<path fill-rule="evenodd" clip-rule="evenodd" fill="#FFFFFF" d="M86.732,37.118c0.089-0.256,0.134-0.386,0.223-0.642
					c-1.095-0.065-1.643-0.095-2.738-0.16c0.189-0.542,0.283-0.815,0.472-1.357c1.644,0.096,2.467,0.143,4.11,0.238
					c-0.688,1.985-1.034,2.98-1.722,4.966c-0.549-0.034-0.823-0.052-1.373-0.086c0.111-0.32,0.166-0.481,0.277-0.801
					c-0.255,0.23-0.872,1.006-2.757,0.89c-2.14-0.133-3.898-1.866-2.868-4.809c1.059-3.024,3.924-4.485,6.15-4.363
					c1.877,0.104,2.658,1.123,3.04,2.042c-0.671,0.321-1.007,0.481-1.678,0.802c-0.323-0.834-0.638-1.42-1.834-1.487
					c-1.197-0.067-3.221,0.827-3.995,3.187c-0.663,2.021,0.457,3.202,1.743,3.28C85.15,38.902,86.37,37.91,86.732,37.118"/>
				<path fill-rule="evenodd" clip-rule="evenodd" fill="#FFFFFF" d="M96.062,35.129c0.685,0.04,1.027,0.059,1.712,0.099
					c0.464-1.354,0.696-2.029,1.161-3.383c0.616,0.034,0.924,0.05,1.54,0.084c-1.215,3.549-1.824,5.324-3.039,8.873
					c-0.617-0.038-0.924-0.057-1.541-0.095c0.553-1.612,0.829-2.417,1.381-4.029c-1.711-0.101-2.566-0.15-4.277-0.251
					c-0.554,1.606-0.831,2.409-1.385,4.016c-0.651-0.04-0.977-0.061-1.628-0.101c1.219-3.529,1.829-5.294,3.048-8.824
					c0.651,0.036,0.975,0.054,1.626,0.09c-0.465,1.349-0.696,2.023-1.161,3.372c0.616,0.036,0.923,0.053,1.539,0.089
					C95.448,35.093,95.653,35.105,96.062,35.129z"/>
				<path fill-rule="evenodd" clip-rule="evenodd" fill="#FFFFFF" d="M150.855,34.709c-0.274-0.015-0.411-0.023-0.686-0.038
					c-1.447,2.543-2.173,3.814-3.621,6.352c0.183-2.613,0.273-3.918,0.457-6.525c-0.685-0.038-1.024-0.057-1.709-0.095
					c-0.304,3.719-0.456,5.581-0.758,9.312c0.754,0.047,1.132,0.07,1.886,0.116c1.584-2.736,2.377-4.104,3.96-6.847
					c-0.247,2.818-0.371,4.229-0.616,7.054c0.787,0.049,1.179,0.074,1.966,0.123c2.113-3.638,3.169-5.462,5.279-9.112
					c-0.72-0.04-1.078-0.058-1.798-0.098c-1.446,2.553-2.167,3.827-3.614,6.374c0.181-2.623,0.271-3.932,0.452-6.549
					c-0.308-0.017-0.462-0.025-0.77-0.042C151.113,34.723,151.026,34.718,150.855,34.709z"/>
				<path fill-rule="evenodd" clip-rule="evenodd" fill="#FFFFFF" d="M121.678,34.436c-0.633,0.332-0.949,0.496-1.583,0.827
					c-0.435-0.525-0.842-1.131-1.957-1.193c-1.025-0.058-1.987,0.471-2.207,1.124c-0.302,0.899,0.332,1.101,1.702,1.433
					c0.885,0.214,1.625,0.394,2.124,0.956c0.469,0.528,0.643,1.208,0.369,2.027c-0.274,0.823-1.53,2.75-4.53,2.563
					c-2.479-0.154-3.156-1.525-3.418-2.041c0.68-0.359,1.021-0.538,1.7-0.897c0.295,0.938,1.243,1.495,2.012,1.542
					c0.775,0.047,2.139-0.122,2.522-1.27c0.383-1.146-1.082-1.287-2.272-1.553c-1.261-0.281-2.522-1.062-1.946-2.773
					c0.604-1.796,2.759-2.508,4.383-2.419C120.29,32.855,121.236,33.408,121.678,34.436"/>
				<path fill-rule="evenodd" clip-rule="evenodd" fill="#FFFFFF" d="M127.816,36.96c0.684,0.04,1.025,0.061,1.709,0.1
					c0.458-1.386,0.685-2.08,1.143-3.466c0.617,0.034,0.925,0.051,1.542,0.085c-1.199,3.634-1.799,5.453-2.998,9.087
					c-0.618-0.038-0.925-0.058-1.543-0.096c0.546-1.65,0.816-2.476,1.362-4.126c-1.712-0.101-2.567-0.15-4.279-0.251
					c-0.547,1.645-0.819,2.467-1.366,4.112c-0.65-0.04-0.974-0.061-1.624-0.101c1.203-3.615,1.806-5.422,3.009-9.037
					c0.649,0.036,0.972,0.055,1.621,0.09c-0.459,1.381-0.688,2.073-1.147,3.454c0.616,0.036,0.924,0.053,1.54,0.089
					C127.195,36.926,127.405,36.937,127.816,36.96z"/>
				<path fill="#FFFFFF" d="M77.555,30.665c0.684,0.038,1.025,0.057,1.709,0.094c-1.226,3.492-1.84,5.238-3.066,8.73
					c-0.685-0.042-1.026-0.063-1.711-0.105C75.714,35.896,76.328,34.152,77.555,30.665z"/>
				<path fill-rule="evenodd" clip-rule="evenodd" fill="#FFFFFF" d="M102.917,41.14c0.274,0.017,0.412,0.027,0.687,0.044
					c1.025-3.016,1.538-4.525,2.563-7.541c1.026,0.058,1.539,0.085,2.565,0.143c0.187-0.551,0.279-0.826,0.466-1.377
					c-2.702-0.149-4.051-0.224-6.753-0.373c-0.188,0.548-0.281,0.824-0.469,1.372c1.026,0.058,1.537,0.087,2.563,0.145
					c-1.026,3.012-1.537,4.517-2.563,7.529c0.274,0.017,0.411,0.025,0.686,0.042C102.765,41.131,102.814,41.134,102.917,41.14z"/>
				<path fill-rule="evenodd" clip-rule="evenodd" fill="#FFFFFF" d="M83.025,59.98c-0.789-0.061-1.182-0.089-1.971-0.15
					c-0.417,0.592-0.627,0.888-1.044,1.48c-0.618-0.048-0.928-0.073-1.546-0.121c2.423-3.423,3.635-5.139,6.055-8.579
					c0.823,0.059,1.234,0.088,2.058,0.147c-0.017,3.616-0.024,5.428-0.038,9.06c-0.618-0.048-0.927-0.073-1.545-0.121
					c0.003-0.626,0.005-0.939,0.009-1.565C84.211,60.071,83.816,60.041,83.025,59.98z M85.017,58.815
					c-1.236-0.093-1.855-0.141-3.092-0.234c1.228-1.716,1.842-2.575,3.068-4.295C85.002,56.095,85.007,57.001,85.017,58.815z"/>
				<path fill="#FFFFFF" d="M91.727,53.122c0.651,0.046,0.978,0.07,1.629,0.116c-1.215,3.549-1.823,5.323-3.038,8.873
					c-0.652-0.051-0.979-0.075-1.631-0.126C89.903,58.44,90.51,56.667,91.727,53.122z"/>
				<path fill-rule="evenodd" clip-rule="evenodd" fill="#FFFFFF" d="M95.729,62.531c0.309,0.024,0.465,0.036,0.774,0.06
					c1.025-3.015,1.537-4.521,2.562-7.536c1.03,0.074,1.545,0.111,2.574,0.185c0.188-0.552,0.28-0.827,0.468-1.379
					c-2.71-0.192-4.066-0.29-6.776-0.482c-0.188,0.549-0.281,0.823-0.469,1.372c0.995,0.072,1.492,0.109,2.486,0.181
					c-1.025,3.011-1.538,4.516-2.563,7.526c0.309,0.024,0.462,0.038,0.771,0.062"/>
				<path fill-rule="evenodd" clip-rule="evenodd" fill="#FFFFFF" d="M74.566,51.903c-0.308-0.022-0.462-0.033-0.771-0.055
					c-1.465,2.373-2.198,3.556-3.665,5.923c0.195-2.463,0.294-3.691,0.491-6.148c-0.687-0.049-1.031-0.074-1.717-0.123
					c-0.335,3.547-0.503,5.324-0.836,8.883c0.79,0.062,1.187,0.091,1.977,0.153c1.578-2.586,2.366-3.881,3.942-6.474
					c-0.237,2.69-0.356,4.037-0.592,6.734c0.79,0.062,1.185,0.092,1.975,0.153c2.116-3.439,3.173-5.163,5.286-8.614
					c-0.72-0.051-1.079-0.076-1.799-0.127c-1.475,2.414-2.213,3.62-3.689,6.028c0.238-2.502,0.358-3.751,0.598-6.248
					c-0.342-0.024-0.514-0.037-0.856-0.062C74.771,51.917,74.704,51.913,74.566,51.903z"/>
				<path fill-rule="evenodd" clip-rule="evenodd" fill="#FFFFFF" d="M125.813,53.598c-1.406-0.098-2.112-0.147-3.519-0.245
					c-1.452,4.383-2.177,6.575-3.629,10.958c2.955,0.229,4.434,0.345,7.389,0.574c0.229-0.695,0.34-1.043,0.568-1.739
					c-2.198-0.168-3.298-0.252-5.496-0.42c0.393-1.187,0.588-1.78,0.98-2.967c1.889,0.14,2.835,0.209,4.724,0.35
					c0.229-0.696,0.343-1.045,0.571-1.741c-1.889-0.138-2.832-0.207-4.721-0.345c0.371-1.122,0.557-1.683,0.928-2.805
					c2.095,0.148,3.14,0.222,5.234,0.37c0.229-0.696,0.344-1.044,0.572-1.741c-0.48-0.034-0.72-0.048-1.2-0.082
					C127.255,53.699,126.774,53.665,125.813,53.598z"/>
				<path fill-rule="evenodd" clip-rule="evenodd" fill="#FFFFFF" d="M137.536,54.5c-1.853-0.129-2.779-0.194-4.632-0.324
					c-1.435,4.385-2.153,6.578-3.588,10.963c0.824,0.064,1.236,0.095,2.061,0.159c0.564-1.729,0.848-2.593,1.412-4.323
					c0.789,0.059,1.187,0.087,1.976,0.146c0.295,1.796,0.441,2.696,0.737,4.498c0.858,0.066,1.285,0.101,2.144,0.167
					c-0.332-1.909-0.495-2.863-0.825-4.766c0.71-0.291,2.466-1.102,3.062-2.938C140.505,56.162,139.338,54.625,137.536,54.5
					 M136.736,56.149c-0.926-0.066-1.391-0.098-2.316-0.164c-0.435,1.331-0.652,1.996-1.087,3.327
					c0.893,0.065,1.34,0.097,2.232,0.163c1.03,0.076,2.016-0.792,2.259-1.541C138.096,57.1,137.597,56.21,136.736,56.149"/>
				<path fill-rule="evenodd" clip-rule="evenodd" fill="#FFFFFF" d="M112.895,57.056c0.79,0.058,1.182,0.087,1.972,0.145
					c0.559-1.674,0.839-2.51,1.397-4.184c0.789,0.055,1.185,0.083,1.974,0.138c-1.443,4.337-2.166,6.506-3.609,10.843
					c-0.79-0.062-1.185-0.092-1.975-0.153c0.668-2.001,1-3.003,1.668-5.005c-2.026-0.15-3.038-0.225-5.064-0.375
					c-0.669,1.994-1.004,2.992-1.673,4.986c-0.79-0.062-1.183-0.092-1.973-0.153c1.449-4.309,2.172-6.463,3.621-10.771
					c0.788,0.055,1.182,0.082,1.97,0.137c-0.56,1.667-0.838,2.501-1.397,4.168c0.756,0.055,1.132,0.083,1.888,0.138
					C112.173,57.005,112.414,57.021,112.895,57.056z"/>
				<path fill-rule="evenodd" clip-rule="evenodd" fill="#FFFFFF" d="M148.027,55.146c-1.407-0.098-2.11-0.146-3.518-0.245
					c-1.438,4.455-2.156,6.683-3.595,11.138c2.955,0.229,4.435,0.346,7.39,0.575c0.227-0.707,0.335-1.06,0.562-1.767
					c-2.198-0.168-3.297-0.254-5.495-0.422c0.389-1.207,0.585-1.81,0.974-3.016c1.889,0.14,2.832,0.21,4.721,0.351
					c0.227-0.708,0.342-1.062,0.568-1.771c-1.889-0.138-2.832-0.208-4.721-0.345c0.367-1.141,0.552-1.71,0.919-2.851
					c2.094,0.148,3.139,0.224,5.231,0.373c0.227-0.708,0.339-1.061,0.565-1.769c-0.479-0.034-0.72-0.05-1.199-0.084
					C149.469,55.247,148.988,55.212,148.027,55.146z"/>
			</g>
		</g>
	</g>
	<g>
		<g>
			<polyline fill="#FFFFFE" points="17.067,112.406 30.795,110.941 31.598,113.986 16.461,115.514 			"/>
			<polyline fill="#FFFFFE" points="17.096,112.465 22.888,85.42 19.682,74.583 6.377,139.061 8.443,139.906 8.623,139.906 
				10.187,139.371 10.368,139.371 10.663,137.984 10.6,138.061 11.755,137.477 16.461,115.514 			"/>
			<polyline fill="#FFFFFE" points="156.037,107.234 167.568,138.879 164.234,139.615 162.84,139.49 162.496,138.531 
				162.51,138.568 160.824,138.428 149.633,107.857 			"/>
			<polyline fill="#FFFFFE" points="124.322,110.305 122.342,124.412 123.455,124.729 125.494,124.09 127.098,124.85 
				128.324,124.455 130.521,109.748 130.137,109.613 124.715,110.109 			"/>
			<polyline fill="#FFFFFE" points="20.873,69.808 19.129,72.658 44.386,154.85 47.477,155.646 51.253,155.229 39.885,118.342 
				35.86,118.008 20.959,69.723 			"/>
			<polyline fill="#FFFFFE" points="130.496,109.613 156.344,107.203 159.656,104.59 131.32,25.646 11.56,29.163 9.224,31.691 
				35.86,118.008 35.927,118.268 39.776,117.916 124.355,110.109 124.715,110.109 130.137,109.613 			"/>
			
				<line fill="none" stroke="#1B171A" stroke-width="0.3042" stroke-linecap="round" stroke-linejoin="round" x1="130.268" y1="26.949" x2="128.201" y2="28.945"/>
			
				<line fill="none" stroke="#1B171A" stroke-width="0.3042" stroke-linecap="round" x1="35.927" y1="118.268" x2="39.776" y2="117.916"/>
			
				<line fill="none" stroke="#1B171A" stroke-width="0.3042" stroke-linecap="round" x1="39.776" y1="117.916" x2="124.355" y2="110.109"/>
			
				<line fill="none" stroke="#1B171A" stroke-width="0.3042" stroke-linecap="round" x1="124.715" y1="110.109" x2="130.137" y2="109.613"/>
			<polyline fill="none" stroke="#1B171A" stroke-width="0.3042" stroke-linecap="round" stroke-linejoin="round" points="
				130.496,109.613 156.344,107.203 159.656,104.59 131.32,25.646 11.56,29.163 9.224,31.691 20.959,69.723 			"/>
			<path fill="none" stroke="#1B171A" stroke-width="0.3042" stroke-linecap="round" d="M11.56,29.163l27.059,86.128l120.879-10.742
				 M35.914,118.137l2.631-2.592 M20.959,69.723l14.901,48.285"/>
			<polyline fill="none" stroke="#1B171A" stroke-width="0.3042" stroke-linecap="round" stroke-linejoin="round" points="
				13.245,29.173 39.926,113.906 157.799,103.479 130.268,26.949 13.764,30.687 			"/>
			<polyline fill="none" stroke="#1B171A" stroke-width="0.3042" stroke-linecap="round" points="20.873,69.808 19.129,72.658 
				30.885,110.916 			"/>
			
				<line fill="none" stroke="#1B171A" stroke-width="0.3042" stroke-linecap="round" x1="30.885" y1="110.916" x2="31.798" y2="113.887"/>
			<path fill="none" stroke="#1B171A" stroke-width="0.3042" stroke-linecap="round" d="M39.885,118.342l11.368,36.887l-3.776,0.418
				 M31.798,113.887l12.587,40.963l3.091,0.797"/>
			
				<line fill="none" stroke="#1B171A" stroke-width="0.3042" stroke-linecap="round" x1="47.477" y1="155.646" x2="35.927" y2="118.268"/>
			<polyline fill="none" stroke="#1B171A" stroke-width="0.3042" stroke-linecap="round" stroke-linejoin="round" points="
				155.076,103.775 128.201,28.945 14.32,32.4 			"/>
			
				<line fill="none" stroke="#1B171A" stroke-width="0.3042" stroke-linecap="round" x1="23.331" y1="78.025" x2="21.407" y2="81.057"/>
			
				<line fill="none" stroke="#1B171A" stroke-width="0.3042" stroke-linecap="round" x1="19.682" y1="74.583" x2="6.377" y2="139.061"/>
			
				<line fill="none" stroke="#1B171A" stroke-width="0.3042" stroke-linecap="round" stroke-linejoin="round" x1="22.168" y1="82.082" x2="10.3" y2="137.984"/>
			<path fill="none" stroke="#1B171A" stroke-width="0.3042" stroke-linecap="round" stroke-linejoin="round" d="M10.187,139.371
				l-1.564,0.535 M10.663,137.984l-0.294,1.387"/>
			
				<line fill="none" stroke="#1B171A" stroke-width="0.3042" stroke-linecap="round" x1="8.443" y1="139.906" x2="6.377" y2="139.061"/>
			
				<line fill="none" stroke="#1B171A" stroke-width="0.3042" stroke-linecap="round" x1="21.53" y1="80.039" x2="8.863" y2="139.822"/>
			<path fill="none" stroke="#1B171A" stroke-width="0.3042" stroke-linecap="round" stroke-linejoin="round" d="M149.633,107.857
				l11.191,30.57 M16.461,115.514l-4.707,21.963l-1.155,0.584 M22.888,85.42l-5.792,27.045"/>
			<path fill="none" stroke="#1B171A" stroke-width="0.3042" stroke-linecap="round" d="M127.568,109.908l-2.074,14.182
				 M125.582,110.146l-2.127,14.582"/>
			<polyline fill="none" stroke="#1B171A" stroke-width="0.3042" stroke-linecap="round" stroke-linejoin="round" points="
				130.521,109.748 128.324,124.455 127.098,124.85 			"/>
			
				<line fill="none" stroke="#1B171A" stroke-width="0.3042" stroke-linecap="round" x1="160.824" y1="138.428" x2="162.51" y2="138.568"/>
			
				<line fill="none" stroke="#1B171A" stroke-width="0.3042" stroke-linecap="round" stroke-linejoin="round" x1="129.326" y1="109.748" x2="127.098" y2="124.85"/>
			<polyline fill="none" stroke="#1B171A" stroke-width="0.3042" stroke-linecap="round" stroke-linejoin="round" points="
				127.098,124.85 125.494,124.09 123.455,124.729 122.342,124.412 124.322,110.305 			"/>
			
				<line fill="none" stroke="#1B171A" stroke-width="0.3042" stroke-linecap="round" stroke-linejoin="round" x1="152.521" y1="107.609" x2="164.053" y2="139.615"/>
			<polyline fill="none" stroke="#1B171A" stroke-width="0.3042" stroke-linecap="round" stroke-linejoin="round" points="
				164.234,139.615 167.568,138.879 156.037,107.234 			"/>
			
				<line fill="none" stroke="#1B171A" stroke-width="0.3042" stroke-linecap="round" stroke-linejoin="round" x1="151.488" y1="107.846" x2="162.496" y2="138.531"/>
			<polyline fill="none" stroke="#1B171A" stroke-width="0.3042" stroke-linecap="round" stroke-linejoin="round" points="
				162.496,138.531 162.84,139.49 164.234,139.615 			"/>
			
				<line fill="none" stroke="#1B171A" stroke-width="0.3042" stroke-linecap="round" x1="15.291" y1="115.633" x2="16.461" y2="115.514"/>
			
				<line fill="none" stroke="#1B171A" stroke-width="0.3042" stroke-linecap="round" x1="16.461" y1="115.514" x2="31.598" y2="113.986"/>
			
				<line fill="none" stroke="#1B171A" stroke-width="0.3042" stroke-linecap="round" x1="15.747" y1="112.699" x2="16.887" y2="112.586"/>
			
				<line fill="none" stroke="#1B171A" stroke-width="0.3042" stroke-linecap="round" x1="17.067" y1="112.406" x2="30.795" y2="110.941"/>
			<path fill="none" stroke="#1B171A" stroke-width="0.3042" stroke-linecap="round" d="M15.413,114.535l16.067-1.639
				 M15.562,113.787l15.664-1.588"/>
			
				<line fill="none" stroke="#1B171A" stroke-width="0.3042" stroke-linecap="round" x1="35.927" y1="118.268" x2="39.776" y2="117.916"/>
			<path fill="none" stroke="#1B171A" stroke-width="0.3042" stroke-linecap="round" d="M30.795,110.941l-13.728,1.465
				 M31.598,113.986l-15.136,1.527"/>
		</g>
		<g>
			<g>
				<g>
					<g>
						<path d="M153.031,98.083c1.13,3.147-0.764,5.939-4.228,6.244c-34.2,3.015-68.401,6.017-102.602,9.028
							c-3.464,0.305-7.146-2.224-8.223-5.651c-7.235-23.033-14.474-46.066-21.708-69.1c-1.077-3.427,0.829-6.29,4.255-6.394
							c33.825-1.023,67.65-2.055,101.476-3.078c3.426-0.104,7.116,2.362,8.246,5.508C137.848,55.787,145.438,76.936,153.031,98.083z
							"/>
						<path fill="#FFCE00" d="M149.774,98.354c0.542,1.516-0.366,2.861-2.029,3.004c-34.186,2.94-68.372,5.863-102.559,8.792
							c-1.665,0.143-3.435-1.074-3.953-2.718c-7.245-22.98-14.493-45.96-21.74-68.94c-0.518-1.644,0.398-3.019,2.046-3.073
							c33.841-1.103,67.681-2.212,101.522-3.314c1.646-0.054,3.418,1.133,3.961,2.65C134.612,55.952,142.191,77.153,149.774,98.354z
							"/>
					</g>
				</g>
				<g>
					<path d="M48.735,54.343c1.32,4.072-0.754,7.025-4.203,7.204c-1.987,0.103-2.982,0.154-4.969,0.257
						c-1.729-5.402-2.592-8.104-4.32-13.506c2.123-0.089,3.185-0.134,5.308-0.224C44.033,47.927,47.49,50.5,48.735,54.343z"/>
					<path fill="#FFCE00" d="M45.88,54.497c-1.065-3.297-3.532-3.847-4.698-3.795c-0.887,0.039-1.331,0.059-2.217,0.098
						c1.042,3.247,1.562,4.871,2.604,8.117c0.771-0.039,1.157-0.06,1.928-0.098C45.794,58.704,46.767,57.243,45.88,54.497z"/>
					<path d="M53.192,61.098c-1.257-3.868-1.885-5.801-3.142-9.668c1.042-0.047,1.562-0.07,2.604-0.117
						c1.258,3.86,1.888,5.79,3.146,9.649C54.757,61.016,54.236,61.043,53.192,61.098z"/>
					<path d="M49.052,49.025c-0.259-0.797,0.179-1.511,0.995-1.545c0.855-0.036,1.739,0.622,2.005,1.437
						c0.259,0.796-0.186,1.485-1.021,1.522S49.317,49.842,49.052,49.025z"/>
					<path d="M61.412,57.044c0.026-2.425,0.04-3.635,0.064-6.053c1.089-0.049,1.634-0.073,2.724-0.122
						c-0.061,3.856-0.092,5.79-0.156,9.665c-1.2,0.062-1.8,0.093-3,0.155c-2.615-3.745-3.921-5.621-6.532-9.384
						c1.144-0.051,1.715-0.078,2.859-0.129C58.986,53.528,59.795,54.701,61.412,57.044z"/>
					<path d="M74.792,56.917c0.85,0.626,1.274,0.939,2.125,1.563c-0.899,1.166-1.58,1.676-3.372,1.769
						c-3.059,0.159-5.649-1.922-6.612-4.833c-0.857-2.591,0.123-4.942,2.788-5.061c2.899-0.129,5.381,1.862,6.417,4.959
						c0.087,0.261,0.131,0.39,0.218,0.65c-2.602,0.127-3.902,0.193-6.503,0.32c0.419,1.085,1.712,1.819,3.018,1.753
						C73.61,58.001,73.982,57.869,74.792,56.917z"/>
					<path fill="#FFCE00" d="M69.211,54.354c1.596-0.076,2.394-0.114,3.99-0.19c-0.37-0.932-1.624-1.728-2.597-1.683
						C69.612,52.528,69.025,53.316,69.211,54.354z"/>
					<path d="M79.759,51.078c0.334-0.77,1.208-1.167,2.219-1.212c0.136-0.006,0.251-0.013,0.492-0.004
						c0.328,0.972,0.492,1.458,0.82,2.43c-0.843,0.076-1.095,0.087-1.095,0.087c-1.098,0.089-1.763,0.877-1.256,2.383
						c0.647,1.926,0.972,2.888,1.619,4.813c-1.052,0.055-1.579,0.081-2.631,0.135c-1.271-3.792-1.906-5.687-3.178-9.478
						c1.051-0.047,1.577-0.071,2.627-0.118C79.53,50.499,79.606,50.692,79.759,51.078z"/>
					<path d="M89.575,53.197c0.684,0.058,1.026,0.087,1.71,0.144c1.808,0.138,3.229,1.229,3.726,2.683
						c0.641,1.876-0.57,3.27-2.927,3.393c-2.045,0.106-3.591-0.299-5.316-1.474c0.559-0.691,0.84-1.038,1.398-1.728
						c1.062,0.738,2.107,1.135,3.061,1.086c0.78-0.04,1.296-0.384,1.132-0.864c-0.132-0.387-0.665-0.735-1.533-0.842
						c-0.728-0.092-1.093-0.138-1.821-0.229c-1.614-0.204-2.877-1.252-3.31-2.53c-0.639-1.887,0.49-3.16,3.019-3.273
						c1.382-0.062,2.625,0.11,4.383,1.206c-0.44,0.701-0.662,1.05-1.103,1.753c-0.939-0.724-1.739-0.93-2.634-0.888
						c-0.759,0.035-1.147,0.465-0.99,0.927C88.478,52.875,88.746,53.143,89.575,53.197z"/>
					<path d="M98.058,58.77c-1.281-3.741-1.921-5.611-3.202-9.351c1.043-0.047,1.565-0.069,2.608-0.116
						c1.282,3.733,1.922,5.601,3.205,9.333C99.624,58.69,99.102,58.715,98.058,58.77z"/>
					<path d="M93.843,47.095c-0.264-0.771,0.17-1.462,0.987-1.496c0.855-0.036,1.743,0.599,2.014,1.387
						c0.265,0.77-0.177,1.439-1.013,1.477C94.995,48.499,94.113,47.885,93.843,47.095z"/>
					<path d="M101.22,54.004c-1.292-3.753,0.568-5.23,2.902-5.334c2.121-0.095,5.239,1.15,6.537,4.877
						c0.955,2.744-0.252,4.916-2.96,5.057C104.72,58.759,102.229,56.933,101.22,54.004z"/>
					<path fill="#FFCE00" d="M107.992,53.675c-0.752-2.167-1.782-2.803-2.95-2.749c-1.479,0.068-1.69,1.229-1.098,2.946
						c0.518,1.498,1.688,2.591,2.992,2.525C108.222,56.333,108.511,55.168,107.992,53.675z"/>
					<path d="M115.145,48.528c0.336-0.169,0.812-0.275,1.279-0.296c2.14-0.096,4.298,1.364,4.946,3.202
						c0.85,2.407,1.273,3.61,2.123,6.018c-1.036,0.054-1.555,0.081-2.591,0.134c-0.736-2.094-1.105-3.143-1.842-5.237
						c-0.362-1.029-1.202-1.833-2.271-1.783c-1.266,0.059-1.841,0.784-1.518,1.707c0.771,2.202,1.156,3.304,1.928,5.506
						c-1.044,0.054-1.564,0.081-2.608,0.135c-1.285-3.679-1.929-5.52-3.214-9.199c1.073-0.048,1.61-0.071,2.684-0.12
						c0.094,0.268,0.143,0.402,0.236,0.67C114.663,48.843,114.799,48.702,115.145,48.528z"/>
					<path d="M103.47,92.854c-4.396,0.338-6.597,0.506-10.993,0.844c1.977-2.982,2.963-4.466,4.935-7.419
						c-9.835,0.705-19.67,1.415-29.505,2.121c-0.95-2.903-1.424-4.354-2.374-7.257c9.825-0.653,19.65-1.312,29.475-1.967
						c-3.826-2.552-5.737-3.834-9.558-6.415c4.384-0.27,6.576-0.403,10.96-0.672c5.815,3.89,8.726,5.816,14.554,9.637
						C107.973,86.144,106.474,88.37,103.47,92.854z"/>
				</g>
			</g>
		</g>
	</g>
</g>
</svg>
