<?xml version="1.0" encoding="utf-8"?>
<!-- Generator: Adobe Illustrator 16.0.0, SVG Export Plug-In . SVG Version: 6.00 Build 0)  -->
<!DOCTYPE svg PUBLIC "-//W3C//DTD SVG 1.1//EN" "http://www.w3.org/Graphics/SVG/1.1/DTD/svg11.dtd">
<svg version="1.1" id="Layer_1" xmlns="http://www.w3.org/2000/svg" xmlns:xlink="http://www.w3.org/1999/xlink" x="0px" y="0px"
	 width="200px" height="200px" viewBox="0 0 200 200" enable-background="new 0 0 200 200" xml:space="preserve">
<g>
	<rect x="5" y="28.75" fill="#FFFFFF" stroke="#000000" stroke-miterlimit="10" width="190" height="142.5"/>
	<g>
		<path fill="#005CB9" d="M24.399,137.01c8.085,0,14.643,6.559,14.643,14.648c0,8.085-6.558,14.643-14.643,14.643
			c-8.089,0-14.646-6.558-14.646-14.643C9.753,143.568,16.31,137.01,24.399,137.01"/>
		<path fill="#FFFFFF" d="M21.348,142.472l1.311,12.407c0,0,0.31,1.54,1.592,1.54c1.494,0,1.724-1.513,1.724-1.513l1.36-12.464
			c0,0-0.168-3.006-2.981-3.006C21.351,139.437,21.348,142.472,21.348,142.472"/>
		<path fill="#FFFFFF" d="M24.393,163.966c1.636,0,2.961-1.325,2.961-2.96s-1.325-2.963-2.961-2.963c-1.634,0-2.96,1.328-2.96,2.963
			S22.759,163.966,24.393,163.966"/>
		<path fill="#005CB9" d="M190.25,163.137c0,1.738-1.424,3.164-3.166,3.164H47.356c-1.743,0-3.168-1.426-3.168-3.164v-22.958
			c0-1.743,1.425-3.169,3.168-3.169h139.728c1.742,0,3.166,1.426,3.166,3.169"/>
		<path fill="#005CB9" d="M190.25,128.698c0,1.739-1.424,3.166-3.166,3.166H47.356c-1.743,0-3.168-1.427-3.168-3.166v-22.962
			c0-1.739,1.425-3.164,3.168-3.164h139.728c1.742,0,3.166,1.425,3.166,3.164"/>
		<path fill="#005CB9" d="M190.25,94.26c0,1.743-1.424,3.167-3.166,3.167H47.356c-1.743,0-3.168-1.424-3.168-3.167V71.302
			c0-1.738,1.425-3.168,3.168-3.168h139.728c1.742,0,3.166,1.43,3.166,3.168"/>
		<path fill="#005CB9" d="M190.25,59.82c0,1.745-1.424,3.17-3.166,3.17H47.356c-1.743,0-3.168-1.425-3.168-3.17V36.866
			c0-1.745,1.425-3.166,3.168-3.166h139.728c1.742,0,3.166,1.421,3.166,3.166"/>
		<polyline fill="#FFFFFF" points="52.591,38.765 56.817,38.765 64.889,51.738 64.943,51.738 64.943,38.765 68.927,38.765 
			68.927,58.106 64.674,58.106 56.627,45.156 56.572,45.156 56.572,58.106 52.591,58.106 		"/>
		<path fill="#FFFFFF" d="M80.466,38.303c5.987,0,9.508,4.468,9.508,10.213c0,5.579-3.521,10.049-9.508,10.049
			s-9.509-4.47-9.509-10.049C70.957,42.771,74.479,38.303,80.466,38.303 M80.466,54.989c3.821,0,5.256-3.251,5.256-6.474
			c0-3.387-1.436-6.639-5.256-6.639c-3.819,0-5.254,3.252-5.254,6.639C75.212,51.738,76.647,54.989,80.466,54.989"/>
		<polyline fill="#FFFFFF" points="98.671,38.765 102.924,38.765 102.924,46.187 110.754,46.187 110.754,38.765 115.007,38.765 
			115.007,58.106 110.754,58.106 110.754,49.761 102.924,49.761 102.924,58.106 98.671,58.106 		"/>
		<path fill="#FFFFFF" d="M123.16,38.765h4.362l7.232,19.342h-4.415l-1.463-4.31h-7.233l-1.517,4.31h-4.307 M122.755,50.627h5.012
			l-2.44-7.097h-0.053L122.755,50.627z"/>
		<polyline fill="#FFFFFF" points="137.14,42.339 131.342,42.339 131.342,38.765 147.189,38.765 147.189,42.339 141.393,42.339 
			141.393,58.106 137.14,58.106 		"/>
		<path fill="#FFFFFF" d="M151.443,51.685c0,2.574,2.004,3.576,4.279,3.576c1.49,0,3.766-0.434,3.766-2.411
			c0-2.086-2.898-2.438-5.743-3.195c-2.872-0.76-5.77-1.871-5.77-5.5c0-3.957,3.737-5.852,7.231-5.852
			c4.037,0,7.748,1.761,7.748,6.23h-4.116c-0.136-2.331-1.788-2.927-3.821-2.927c-1.354,0-2.926,0.568-2.926,2.194
			c0,1.49,0.921,1.68,5.771,2.927c1.408,0.354,5.743,1.245,5.743,5.636c0,3.547-2.79,6.201-8.047,6.201
			c-4.28,0-8.29-2.111-8.235-6.88"/>
		<polyline fill="#FFFFFF" points="52.591,73.203 56.817,73.203 64.889,86.181 64.943,86.181 64.943,73.203 68.927,73.203 
			68.927,92.546 64.674,92.546 56.627,79.596 56.572,79.596 56.572,92.546 52.591,92.546 		"/>
		<path fill="#FFFFFF" d="M80.466,72.743c5.987,0,9.508,4.47,9.508,10.213c0,5.581-3.521,10.051-9.508,10.051
			s-9.509-4.47-9.509-10.051C70.957,77.213,74.479,72.743,80.466,72.743 M80.466,89.43c3.821,0,5.256-3.249,5.256-6.474
			c0-3.385-1.436-6.637-5.256-6.637c-3.819,0-5.254,3.252-5.254,6.637C75.212,86.181,76.647,89.43,80.466,89.43"/>
		<path fill="#FFFFFF" d="M98.671,73.203h9.103c3.684,0,6.177,1.192,6.177,4.796c0,1.895-0.948,3.223-2.629,4.035
			c2.356,0.679,3.55,2.493,3.55,4.904c0,3.928-3.332,5.607-6.827,5.607h-9.373 M102.924,81.033h4.308
			c1.491,0,2.601-0.678,2.601-2.305c0-1.841-1.408-2.22-2.926-2.22h-3.982V81.033z M102.924,89.24h4.551
			c1.681,0,3.143-0.541,3.143-2.545c0-1.978-1.245-2.765-3.062-2.765h-4.632V89.24z"/>
		<path fill="#FFFFFF" d="M125.545,72.743c5.987,0,9.508,4.47,9.508,10.213c0,5.581-3.521,10.051-9.508,10.051
			c-5.988,0-9.51-4.47-9.51-10.051C116.035,77.213,119.557,72.743,125.545,72.743 M125.545,89.43c3.819,0,5.255-3.249,5.255-6.474
			c0-3.385-1.436-6.637-5.255-6.637c-3.82,0-5.256,3.252-5.256,6.637C120.289,86.181,121.725,89.43,125.545,89.43"/>
		<path fill="#FFFFFF" d="M145.754,72.743c5.986,0,9.508,4.47,9.508,10.213c0,5.581-3.521,10.051-9.508,10.051
			c-5.988,0-9.511-4.47-9.511-10.051C136.243,77.213,139.766,72.743,145.754,72.743 M145.754,89.43c3.819,0,5.255-3.249,5.255-6.474
			c0-3.385-1.436-6.637-5.255-6.637c-3.82,0-5.256,3.252-5.256,6.637C140.498,86.181,141.934,89.43,145.754,89.43"/>
		<polyline fill="#FFFFFF" points="161.574,76.78 155.777,76.78 155.777,73.203 171.625,73.203 171.625,76.78 165.828,76.78 
			165.828,92.546 161.574,92.546 		"/>
		<path fill="#FFFFFF" d="M175.878,86.126c0,2.573,2.005,3.577,4.278,3.577c1.491,0,3.768-0.434,3.768-2.413
			c0-2.086-2.898-2.436-5.744-3.197c-2.871-0.758-5.77-1.869-5.77-5.496c0-3.957,3.737-5.854,7.231-5.854
			c4.038,0,7.749,1.761,7.749,6.232h-4.117c-0.135-2.333-1.787-2.929-3.82-2.929c-1.354,0-2.926,0.57-2.926,2.196
			c0,1.488,0.921,1.68,5.771,2.927c1.407,0.35,5.743,1.243,5.743,5.633c0,3.548-2.791,6.204-8.047,6.204
			c-4.28,0-8.291-2.113-8.235-6.881"/>
		<polyline fill="#FFFFFF" points="52.591,107.64 56.817,107.64 64.889,120.614 64.943,120.614 64.943,107.64 68.927,107.64 
			68.927,126.98 64.674,126.98 56.627,114.032 56.572,114.032 56.572,126.98 52.591,126.98 		"/>
		<path fill="#FFFFFF" d="M80.466,107.178c5.987,0,9.508,4.469,9.508,10.214c0,5.579-3.521,10.049-9.508,10.049
			s-9.509-4.47-9.509-10.049C70.957,111.646,74.479,107.178,80.466,107.178 M80.466,123.864c3.821,0,5.256-3.25,5.256-6.473
			c0-3.387-1.436-6.639-5.256-6.639c-3.819,0-5.254,3.252-5.254,6.639C75.212,120.614,76.647,123.864,80.466,123.864"/>
		<polyline fill="#FFFFFF" points="98.671,107.64 102.924,107.64 102.924,115.062 110.754,115.062 110.754,107.64 115.007,107.64 
			115.007,126.98 110.754,126.98 110.754,118.637 102.924,118.637 102.924,126.98 98.671,126.98 		"/>
		<rect x="117.879" y="107.64" fill="#FFFFFF" width="4.253" height="19.343"/>
		<rect x="124.568" y="117.934" fill="#FFFFFF" width="8.154" height="3.306"/>
		<polyline fill="#FFFFFF" points="143.073,126.98 138.277,126.98 131.992,107.64 136.381,107.64 140.688,121.239 140.743,121.239 
			145.104,107.64 149.494,107.64 		"/>
		<rect x="150.278" y="107.64" fill="#FFFFFF" width="4.255" height="19.343"/>
		<path fill="#FFFFFF" d="M160.303,120.562c0,2.573,2.004,3.574,4.279,3.574c1.49,0,3.766-0.435,3.766-2.411
			c0-2.087-2.898-2.438-5.742-3.197c-2.872-0.757-5.77-1.869-5.77-5.499c0-3.956,3.737-5.852,7.231-5.852
			c4.038,0,7.748,1.761,7.748,6.231h-4.118c-0.134-2.329-1.787-2.927-3.819-2.927c-1.354,0-2.926,0.568-2.926,2.194
			c0,1.491,0.921,1.68,5.771,2.927c1.407,0.352,5.743,1.245,5.743,5.636c0,3.547-2.791,6.201-8.047,6.201
			c-4.281,0-8.29-2.111-8.236-6.878"/>
		<polyline fill="#FFFFFF" points="52.591,142.075 56.817,142.075 64.889,155.053 64.943,155.053 64.943,142.075 68.927,142.075 
			68.927,161.418 64.674,161.418 56.627,148.468 56.572,148.468 56.572,161.418 52.591,161.418 		"/>
		<path fill="#FFFFFF" d="M80.466,141.615c5.987,0,9.508,4.47,9.508,10.213c0,5.579-3.521,10.052-9.508,10.052
			s-9.509-4.473-9.509-10.052C70.957,146.085,74.479,141.615,80.466,141.615 M80.466,158.302c3.821,0,5.256-3.249,5.256-6.474
			c0-3.387-1.436-6.637-5.256-6.637c-3.819,0-5.254,3.25-5.254,6.637C75.212,155.053,76.647,158.302,80.466,158.302"/>
		<path fill="#FFFFFF" d="M109.995,155.323c0,2.491-0.677,6.557-6.448,6.557c-3.223,0-6.367-1.761-6.367-5.988v-1.68h3.847v0.867
			c0,1.87,0.461,3.223,2.466,3.223c2.247,0,2.247-1.813,2.247-3.17v-13.057h4.255"/>
		<path fill="#FFFFFF" d="M121.536,141.615c5.986,0,9.507,4.47,9.507,10.213c0,5.579-3.521,10.052-9.507,10.052
			c-5.988,0-9.511-4.473-9.511-10.052C112.025,146.085,115.548,141.615,121.536,141.615 M121.536,158.302
			c3.819,0,5.255-3.249,5.255-6.474c0-3.387-1.436-6.637-5.255-6.637c-3.821,0-5.257,3.25-5.257,6.637
			C116.279,155.053,117.715,158.302,121.536,158.302"/>
		<path fill="#FFFFFF" d="M133.075,142.075h9.103c3.684,0,6.177,1.192,6.177,4.797c0,1.894-0.947,3.222-2.629,4.035
			c2.357,0.678,3.55,2.492,3.55,4.902c0,3.931-3.332,5.608-6.826,5.608h-9.374 M137.328,149.906h4.308
			c1.491,0,2.601-0.678,2.601-2.305c0-1.842-1.408-2.221-2.926-2.221h-3.982V149.906z M137.328,158.112h4.551
			c1.68,0,3.143-0.541,3.143-2.546c0-1.978-1.246-2.763-3.062-2.763h-4.632V158.112z"/>
		<path fill="#FFFFFF" d="M153.771,157.247h4.252v4.171h-4.252V157.247z M157.891,147.275l-1.057,8.346h-1.926l-1.027-8.346v-5.2
			h4.01V147.275z"/>
		<g>
			<path fill-rule="evenodd" clip-rule="evenodd" fill="#005CB9" d="M39.045,82.78c0,8.089-6.558,14.648-14.646,14.648
				S9.75,90.869,9.75,82.78s6.56-14.648,14.648-14.648S39.045,74.691,39.045,82.78L39.045,82.78L39.045,82.78z"/>
			<path fill-rule="evenodd" clip-rule="evenodd" fill="#FFFFFF" d="M33.997,89.34c0,0-0.212,0.785-0.202,0.775
				c-0.01,0-1.659-0.383-1.659-0.383s0.064-0.564,0.064-0.551l0.808,0.158c0.341-0.51,0.563-1.371,0.351-1.819
				c-0.701-1.254-2.466-1.085-3.231-2.125c-0.892-1.499-2.062-2.87-3.104-4.304c-0.202-0.447-0.245-0.86-0.063-1.457l1.722-6.422
				l-6.251-1.478l-0.489,2.563h-0.51l0.584-3.211l7.347,1.723l-1.947,7.217c-0.105,0.489,0.15,0.893,0.416,1.255
				c0.946,1.243,1.914,2.466,2.732,3.762c0.734,0.927,3.604,0.988,3.454,3.042c-0.01,0.413-0.169,0.796-0.265,1.178L33.997,89.34
				L33.997,89.34z"/>
			<path fill-rule="evenodd" clip-rule="evenodd" fill="#FFFFFF" d="M23.208,75.104c0.031,2.512-0.17,5.082-0.203,7.538
				c0.033,0.361,0.181,0.668,0.436,0.947c1.297,1.02,2.51,1.826,3.721,3.069c1.371,0.81,4.124,0.117,4.136,2.478
				c0.148,0.33-0.331,0.81,0.168,0.851c0-0.01,0.012,0.902,0.022,0.902h-7.144c-1.19-0.393-2.179-1.371-3.433-1.595l0,0
				l-0.064,1.595h-5.049c-0.15-0.86-0.096-1.805-0.193-2.677c-0.637-0.882-0.339-2.263-0.138-3.241
				c0.318-1.254,0.777-2.498,0.489-3.924l-0.117-1.988c-0.042-1.243-0.181-2.666-0.275-3.955H23.208L23.208,75.104z"/>
			<path fill-rule="evenodd" clip-rule="evenodd" fill="#005CB9" d="M30.913,88.372c0.076,0.203,0.256,0.447,0.086,0.668
				c-0.15,0.193-0.425,0.193-0.637,0.142c-0.436-0.606-1.085-0.82-1.723-1.013c-0.181-0.094-0.181-0.317-0.127-0.489
				c0.563-0.414,1.361-0.062,1.914,0.203L30.913,88.372L30.913,88.372z"/>
			<path fill-rule="evenodd" clip-rule="evenodd" fill="#005CB9" d="M21.57,88.255c1.042,0.041,2.52,1.285,3.976,1.509h5.199
				l0.01,0.469c-0.01,0-5.357,0-5.357,0c-1.096-0.042-2.944-1.393-3.869-1.468h-5.37v-0.51H21.57L21.57,88.255z"/>
		</g>
		<g>
			<path fill-rule="evenodd" clip-rule="evenodd" fill="#005CB9" d="M39.042,117.226c0,8.074-6.563,14.637-14.653,14.637
				c-8.073,0-14.636-6.562-14.636-14.637c0-8.089,6.563-14.651,14.636-14.651C32.479,102.574,39.042,109.137,39.042,117.226
				L39.042,117.226z"/>
			<path fill-rule="evenodd" clip-rule="evenodd" fill="#FFFFFF" d="M18.523,107.988c0,5.464-1.707,6.874-1.707,6.874v11.259
				l7.303,0.016l0,0h0.033l-0.033-11.865l-3.068-6.925L18.523,107.988L18.523,107.988z"/>
			<path fill-rule="evenodd" clip-rule="evenodd" fill="#FFFFFF" d="M27.729,107.332l-3.102,6.939v11.865h0.016l0,0l7.303-0.016
				v-11.259l0,0c-0.033-0.032-1.706-1.459-1.706-6.874L27.729,107.332L27.729,107.332z"/>
			<polygon fill-rule="evenodd" clip-rule="evenodd" fill="#005CB9" points="29.583,120.887 29.583,107.15 28.057,107.15 
				28.057,120.887 20.656,120.887 20.656,107.15 19.13,107.15 19.13,120.887 16.668,120.887 16.668,122.461 32.686,122.461 
				32.686,120.887 29.583,120.887 			"/>
			<path fill-rule="evenodd" clip-rule="evenodd" fill="#FFFFFF" d="M26.893,108.201l-2.494,5.316l-2.495-5.316
				c0.295,0.18,0.723,0.327,1.264,0.426c0.377,0.065,0.787,0.115,1.231,0.115c0.442,0,0.87-0.05,1.23-0.115
				C26.187,108.528,26.597,108.381,26.893,108.201L26.893,108.201z"/>
			
				<line fill="none" stroke="#FFFFFF" stroke-width="0.2279" stroke-miterlimit="2.6131" x1="16.915" y1="120.64" x2="16.915" y2="122.707"/>
			<polygon fill-rule="evenodd" clip-rule="evenodd" fill="#005CB9" points="32.439,122.478 16.456,122.478 16.456,120.901 
				32.439,120.901 32.439,122.478 			"/>
			<polygon fill-rule="evenodd" clip-rule="evenodd" fill="#005CB9" points="32.423,125.186 16.866,125.186 16.866,123.659 
				32.423,123.659 32.423,125.186 			"/>
			<path fill="none" stroke="#FFFFFF" stroke-width="0.1709" stroke-miterlimit="2.6131" d="M16.882,120.64v5.333 M19.097,107.922
				l1.707-0.427 M29.731,107.938l-1.707-0.427 M31.881,120.673v5.333"/>
		</g>
		<g>
			<path fill-rule="evenodd" clip-rule="evenodd" fill="#005CB9" d="M9.753,48.344c0-8.09,6.558-14.646,14.645-14.646
				s14.645,6.556,14.645,14.646c0,8.089-6.558,14.645-14.645,14.645S9.753,56.433,9.753,48.344L9.753,48.344z"/>
			<path fill-rule="evenodd" clip-rule="evenodd" fill="#FFFFFF" d="M33.062,46.042l0.021,0.586l-0.016,0.476l-0.043,0.475
				l-0.069,0.479l-0.104,0.472l-0.127,0.462l-0.157,0.454l-0.176,0.445l-0.21,0.434l-0.236,0.424l-0.289,0.514l-0.264,0.53
				l-0.229,0.548l-0.205,0.558l-0.17,0.568l-0.145,0.572l-0.109,0.586l-0.079,0.582l-0.048,0.596l-0.017,0.589v1.513l-0.016,0.214
				l-0.038,0.214l-0.069,0.203l-0.096,0.192l-0.124,0.183l-0.14,0.162l-0.16,0.145l-0.183,0.117l-0.193,0.097l-0.205,0.068
				l-0.213,0.045l-0.215,0.014h-6.795l-0.214-0.014l-0.21-0.045l-0.203-0.068l-0.193-0.097l-0.178-0.117l-0.16-0.141l-0.145-0.159
				l-0.119-0.183l-0.096-0.192l-0.069-0.203l-0.038-0.211l-0.017-0.213v-1.561l-0.29-0.018l-0.289-0.041l-0.285-0.069l-0.274-0.104
				l-0.262-0.124l-0.253-0.147l-0.236-0.173l-0.213-0.196l-0.198-0.217L17.83,55.03l-0.149-0.252l-0.125-0.262l-0.096-0.275
				l-0.074-0.282l-0.043-0.29l-0.012-0.289v-1.396h-0.455l-0.205-0.01l-0.198-0.042l-0.188-0.072l-0.176-0.096l-0.167-0.117
				l-0.145-0.138l-0.129-0.162l-0.102-0.173l-0.076-0.186l-0.048-0.2l-0.021-0.196l0.005-0.203l0.033-0.2l1.002-4.147h0.827
				l-1.047,4.337l-0.016,0.146l0.01,0.145l0.048,0.138l0.081,0.127l0.102,0.104l0.124,0.079l0.14,0.049l0.145,0.017h1.259v2.198
				l0.017,0.262l0.048,0.259l0.074,0.244l0.108,0.241l0.134,0.228l0.166,0.203l0.182,0.187l0.204,0.162l0.226,0.134l0.241,0.106
				l0.246,0.076l0.259,0.048l0.262,0.015h0.804v2.37l0.018,0.158l0.048,0.162l0.081,0.145l0.102,0.124l0.127,0.106l0.145,0.076
				l0.157,0.048l0.16,0.014h6.795l0.167-0.014l0.155-0.048l0.149-0.076l0.129-0.106l0.102-0.128l0.081-0.145l0.048-0.162
				l0.016-0.165v-1.513l0.01-0.578l0.043-0.572l0.071-0.575l0.102-0.572l0.124-0.564l0.155-0.559l0.183-0.551l0.203-0.534
				l0.236-0.53l0.256-0.517l0.286-0.503l0.236-0.428l0.203-0.44l0.178-0.455l0.145-0.469l0.112-0.469l0.081-0.479l0.054-0.485
				l0.015-0.482l-0.026-0.586H33.062L33.062,46.042z M20.817,47.172l-0.016-0.158l-0.043-0.162l-0.064-0.145l-0.096-0.135
				l-0.114-0.113l-0.134-0.09l-0.145-0.068l-0.155-0.045l-0.16-0.011l-0.162,0.011l-0.155,0.045l-0.145,0.068l-0.134,0.09
				l-0.112,0.113l-0.097,0.135l-0.07,0.145l-0.038,0.162l-0.016,0.158l0.016,0.162l0.038,0.155l0.07,0.145l0.097,0.134l0.112,0.114
				l0.134,0.09l0.145,0.068l0.155,0.045l0.162,0.014l0.16-0.014l0.155-0.045l0.145-0.068l0.134-0.09l0.114-0.114l0.096-0.134
				l0.064-0.145l0.043-0.155L20.817,47.172L20.817,47.172z M33.695,45.239l-0.015-0.517l-0.049-0.51L33.55,43.71l-0.107-0.503
				l-0.14-0.493l-0.16-0.482l-0.194-0.479l-0.219-0.458l-0.247-0.451l-0.274-0.435l-0.301-0.417l-0.32-0.399l-0.345-0.379
				l-0.363-0.358l-0.388-0.338l-0.401-0.316l-0.424-0.29l-0.434-0.269l-0.456-0.234l-0.467-0.217l-0.477-0.179l-0.487-0.162
				l-0.495-0.128l-0.503-0.096l-0.51-0.073l-0.51-0.041l-0.515-0.01l-0.51,0.021l-0.51,0.048l-0.508,0.079l-0.5,0.107l-0.493,0.134
				l-0.484,0.169l-0.478,0.193l-0.461,0.217l-0.45,0.248l-0.434,0.272l-0.414,0.299l-0.403,0.324l-0.38,0.341l-0.358,0.365
				l-0.338,0.386l-0.312,0.407l-0.29,0.42l-0.269,0.438l-0.236,0.458l-0.213,0.466l-0.183,0.475l-0.162,0.489l-0.122,0.5
				l-0.048,0.131l-0.081,0.124l-0.102,0.106l-0.124,0.076L15.61,43.94l-0.348,0.117l-0.36,0.086l-0.365,0.059l-0.145,0.027
				l-0.134,0.059l-0.122,0.083l-0.109,0.1l-0.079,0.124l-0.061,0.128l-0.036,0.145l-0.005,0.145l0.021,0.145l0.021,0.045
				l0.033,0.024l0.043,0.014H33.695L33.695,45.239z"/>
		</g>
	</g>
</g>
</svg>
