<?xml version="1.0" encoding="utf-8"?>
<!-- Generator: Adobe Illustrator 16.0.0, SVG Export Plug-In . SVG Version: 6.00 Build 0)  -->
<!DOCTYPE svg PUBLIC "-//W3C//DTD SVG 1.1//EN" "http://www.w3.org/Graphics/SVG/1.1/DTD/svg11.dtd">
<svg version="1.1" id="Layer_1" xmlns="http://www.w3.org/2000/svg" xmlns:xlink="http://www.w3.org/1999/xlink" x="0px" y="0px"
	 width="200px" height="200px" viewBox="0 0 200 200" enable-background="new 0 0 200 200" xml:space="preserve">
<g>
	<g>
		<rect x="5" y="25.749" fill="#FDEB03" width="190" height="61.751"/>
		<path fill="none" stroke="#1C181B" d="M195,87.5 M5,87.5h190V25.749H5V87.5z"/>
		<polyline fill="#FDEB03" points="40.234,38.937 18.504,76.799 61.588,76.799 		"/>
		<path fill="#1C181B" d="M65.16,77.02L41.771,35.923c0,0-0.355-0.887-1.508-0.887c-1.154,0-1.687,0.887-1.687,0.887L15.07,76.91
			c0,0-0.593,1.013-0.046,1.959c0,0,0.563,0.931,1.495,0.931h46.867c0,0,1.255,0.038,1.76-0.947
			C65.566,78.033,65.362,77.401,65.16,77.02 M18.93,76.576l21.303-37.118l20.933,37.118H18.93z"/>
		<path fill="#1C181B" d="M37.2,52.064l1.436,13.606c0,0,0.339,1.69,1.748,1.69c1.638,0,1.887-1.662,1.887-1.662l1.493-13.662
			c0,0-0.184-3.296-3.267-3.296C37.203,48.742,37.2,52.064,37.2,52.064"/>
		<path fill="#1C181B" d="M40.538,75.639c1.793,0,3.246-1.455,3.246-3.248c0-1.792-1.453-3.245-3.246-3.245
			c-1.793,0-3.248,1.453-3.248,3.245C37.291,74.184,38.745,75.639,40.538,75.639"/>
		<path fill="#1C181B" d="M96.484,33.627h6.192c3.721,0,6.516,2.331,6.516,7.098c0,4.16-2.132,7.259-6.516,7.259h-6.192
			 M99.64,45.33h2.816c1.829,0,3.578-1.125,3.578-4.303c0-2.896-1.003-4.746-4.141-4.746H99.64V45.33z"/>
		<path fill="#1C181B" d="M110.962,40.786c0.16-2.675,2.554-3.479,4.886-3.479c2.072,0,4.564,0.46,4.564,2.956v5.409
			c0,0.945,0.1,1.89,0.363,2.312h-2.896c-0.101-0.321-0.182-0.664-0.202-1.005c-0.905,0.943-2.232,1.287-3.499,1.287
			c-1.97,0-3.539-0.985-3.539-3.117c0-2.355,1.769-2.917,3.539-3.159c1.751-0.259,3.379-0.199,3.379-1.366
			c0-1.226-0.846-1.407-1.851-1.407c-1.086,0-1.79,0.441-1.892,1.569 M117.558,42.895c-0.482,0.422-1.487,0.444-2.372,0.605
			c-0.886,0.181-1.69,0.48-1.69,1.526c0,1.067,0.824,1.327,1.749,1.327c2.232,0,2.313-1.768,2.313-2.391V42.895z"/>
		<path fill="#1C181B" d="M122.623,37.588h2.716v1.448h0.06c0.723-1.168,1.97-1.729,3.178-1.729c3.037,0,3.8,1.709,3.8,4.283v6.394
			h-2.854v-5.871c0-1.709-0.504-2.554-1.831-2.554c-1.548,0-2.211,0.862-2.211,2.976v5.449h-2.856"/>
		<path fill="#1C181B" d="M144.541,47.32c0,1.709-0.603,4.605-5.387,4.605c-2.053,0-4.445-0.967-4.586-3.34h2.835
			c0.262,1.068,1.125,1.429,2.132,1.429c1.589,0,2.312-1.085,2.293-2.575v-1.368h-0.041c-0.624,1.086-1.871,1.609-3.117,1.609
			c-3.116,0-4.445-2.373-4.445-5.226c0-2.696,1.55-5.148,4.465-5.148c1.368,0,2.413,0.46,3.098,1.669h0.041v-1.388h2.713
			 M141.828,42.653c0-1.687-0.585-3.195-2.434-3.195c-1.608,0-2.312,1.407-2.312,2.955c0,1.489,0.563,3.118,2.312,3.118
			C141.022,45.531,141.828,44.144,141.828,42.653"/>
		<path fill="#1C181B" d="M149.187,43.48c0.08,1.81,0.966,2.633,2.555,2.633c1.146,0,2.07-0.705,2.252-1.346h2.514
			c-0.806,2.453-2.514,3.499-4.867,3.499c-3.277,0-5.309-2.252-5.309-5.472c0-3.115,2.152-5.487,5.309-5.487
			c3.54,0,5.25,2.974,5.047,6.173 M153.833,41.67c-0.263-1.447-0.886-2.211-2.273-2.211c-1.81,0-2.332,1.407-2.373,2.211H153.833z"
			/>
		<path fill="#1C181B" d="M158.375,37.588h2.717v1.929h0.039c0.523-1.306,1.928-2.21,3.318-2.21c0.2,0,0.442,0.038,0.622,0.101
			v2.654c-0.262-0.062-0.684-0.101-1.024-0.101c-2.091,0-2.814,1.506-2.814,3.338v4.685h-2.857"/>
		<path fill="#1C181B" d="M112.294,53.134h4.644c2.79,0,4.887,1.751,4.887,5.325c0,3.12-1.599,5.443-4.887,5.443h-4.644
			 M114.66,61.912h2.112c1.373,0,2.684-0.844,2.684-3.229c0-2.172-0.754-3.559-3.107-3.559h-1.688V61.912z"/>
		<path fill="#1C181B" d="M125.005,60.523c0.062,1.359,0.726,1.979,1.917,1.979c0.858,0,1.553-0.529,1.69-1.012h1.885
			c-0.605,1.839-1.885,2.625-3.65,2.625c-2.458,0-3.981-1.688-3.981-4.104c0-2.336,1.613-4.115,3.981-4.115
			c2.654,0,3.936,2.23,3.785,4.628 M128.491,59.166c-0.196-1.086-0.665-1.657-1.705-1.657c-1.358,0-1.75,1.056-1.781,1.657H128.491z
			"/>
		<path fill="#1C181B" d="M133.662,60.523c0.062,1.359,0.725,1.979,1.916,1.979c0.859,0,1.553-0.529,1.69-1.012h1.886
			c-0.605,1.839-1.886,2.625-3.651,2.625c-2.458,0-3.981-1.688-3.981-4.104c0-2.336,1.613-4.115,3.981-4.115
			c2.654,0,3.936,2.23,3.785,4.628 M137.147,59.166c-0.196-1.086-0.664-1.657-1.705-1.657c-1.358,0-1.749,1.056-1.78,1.657H137.147z
			"/>
		<path fill="#1C181B" d="M140.555,56.106h2.035v0.995h0.031c0.513-0.832,1.356-1.206,2.322-1.206c2.443,0,3.545,1.975,3.545,4.192
			c0,2.08-1.146,4.027-3.424,4.027c-0.936,0-1.824-0.409-2.337-1.179h-0.031v3.712h-2.142 M146.348,60.027
			c0-1.236-0.499-2.519-1.872-2.519c-1.401,0-1.854,1.252-1.854,2.519c0,1.265,0.483,2.475,1.871,2.475
			C145.895,62.502,146.348,61.292,146.348,60.027"/>
		<polyline fill="#1C181B" points="87.576,69.054 95.63,69.054 95.63,71.044 89.944,71.044 89.944,73.353 95.16,73.353 95.16,75.19 
			89.944,75.19 89.944,77.832 95.75,77.832 95.75,79.821 87.576,79.821 		"/>
		<polyline fill="#1C181B" points="99.112,75.719 96.55,72.025 98.993,72.025 100.363,74.062 101.723,72.025 104.09,72.025 
			101.526,75.675 104.406,79.821 101.964,79.821 100.334,77.363 98.706,79.821 96.309,79.821 		"/>
		<path fill="#1C181B" d="M110.529,74.769c-0.134-0.874-0.693-1.341-1.584-1.341c-1.371,0-1.823,1.388-1.823,2.532
			c0,1.115,0.436,2.461,1.779,2.461c0.993,0,1.569-0.635,1.703-1.586h2.067c-0.271,2.066-1.704,3.199-3.758,3.199
			c-2.352,0-3.936-1.661-3.936-3.996c0-2.429,1.45-4.224,3.981-4.224c1.84,0,3.53,0.964,3.667,2.954"/>
		<path fill="#1C181B" d="M113.788,74.421c0.119-2.003,1.916-2.606,3.663-2.606c1.552,0,3.424,0.346,3.424,2.218v4.055
			c0,0.71,0.075,1.419,0.271,1.734h-2.173c-0.075-0.24-0.135-0.497-0.149-0.754c-0.679,0.71-1.674,0.967-2.623,0.967
			c-1.479,0-2.654-0.739-2.654-2.339c0-1.766,1.326-2.188,2.654-2.369c1.31-0.194,2.532-0.148,2.532-1.022
			c0-0.923-0.634-1.058-1.387-1.058c-0.814,0-1.345,0.332-1.417,1.175 M118.733,76.007c-0.362,0.316-1.116,0.332-1.779,0.453
			c-0.664,0.135-1.267,0.36-1.267,1.145c0,0.798,0.618,0.996,1.312,0.996c1.674,0,1.733-1.327,1.733-1.793V76.007z"/>
		<polyline fill="#1C181B" points="126.848,79.821 124.465,79.821 121.795,72.025 124.043,72.025 125.687,77.349 125.716,77.349 
			127.361,72.025 129.487,72.025 		"/>
		<path fill="#1C181B" d="M130.284,74.421c0.121-2.003,1.915-2.606,3.666-2.606c1.553,0,3.423,0.346,3.423,2.218v4.055
			c0,0.71,0.075,1.419,0.272,1.734h-2.174c-0.075-0.24-0.134-0.497-0.15-0.754c-0.678,0.71-1.673,0.967-2.623,0.967
			c-1.478,0-2.654-0.739-2.654-2.339c0-1.766,1.327-2.188,2.654-2.369c1.311-0.194,2.533-0.148,2.533-1.022
			c0-0.923-0.634-1.058-1.388-1.058c-0.813,0-1.342,0.332-1.417,1.175 M135.231,76.007c-0.361,0.316-1.116,0.332-1.779,0.453
			c-0.664,0.135-1.267,0.36-1.267,1.145c0,0.798,0.619,0.996,1.312,0.996c1.673,0,1.733-1.327,1.733-1.793V76.007z"/>
		<path fill="#1C181B" d="M141.746,72.025h1.569v1.434h-1.569v3.858c0,0.726,0.182,0.907,0.906,0.907
			c0.226,0,0.438-0.017,0.663-0.062v1.674c-0.362,0.061-0.83,0.077-1.252,0.077c-1.311,0-2.458-0.301-2.458-1.857v-4.597h-1.296
			v-1.434h1.296v-2.337h2.141"/>
		<path fill="#1C181B" d="M146.542,70.817H144.4v-1.764h2.142V70.817z M144.4,72.025h2.142v7.796H144.4V72.025z"/>
		<path fill="#1C181B" d="M152.016,71.814c2.46,0,4.042,1.627,4.042,4.115c0,2.473-1.582,4.104-4.042,4.104
			c-2.441,0-4.025-1.632-4.025-4.104C147.99,73.441,149.574,71.814,152.016,71.814 M152.016,78.421c1.464,0,1.902-1.254,1.902-2.491
			c0-1.25-0.438-2.502-1.902-2.502c-1.446,0-1.885,1.252-1.885,2.502C150.131,77.167,150.569,78.421,152.016,78.421"/>
		<path fill="#1C181B" d="M157.445,72.025h2.036v1.087h0.046c0.543-0.876,1.478-1.298,2.383-1.298c2.277,0,2.851,1.279,2.851,3.212
			v4.795h-2.141V75.42c0-1.283-0.378-1.917-1.375-1.917c-1.16,0-1.657,0.65-1.657,2.232v4.086h-2.143"/>
		<path fill="#1C181B" d="M168.048,77.286c0.015,0.938,0.801,1.314,1.645,1.314c0.619,0,1.402-0.242,1.402-0.996
			c0-0.646-0.89-0.876-2.428-1.206c-1.235-0.272-2.473-0.707-2.473-2.082c0-1.991,1.718-2.502,3.392-2.502
			c1.704,0,3.273,0.572,3.438,2.489h-2.035c-0.06-0.832-0.694-1.058-1.464-1.058c-0.48,0-1.19,0.089-1.19,0.724
			c0,0.769,1.207,0.874,2.428,1.162c1.252,0.288,2.475,0.739,2.475,2.186c0,2.053-1.78,2.717-3.561,2.717
			c-1.811,0-3.574-0.679-3.664-2.748"/>
	</g>
	<g>
		<rect x="5" y="112.5" fill="#FFFFFF" width="190" height="61.749"/>
		<path fill="none" stroke="#1C181B" stroke-width="1.0556" d="M195,174.251 M5.001,174.251H195V112.5H5.001V174.251z"/>
		<rect x="67.247" y="117.249" fill="#056BB3" width="123.002" height="52.249"/>
		<path fill="#FFFFFF" d="M74.361,128.93c0,1.273,0.992,1.771,2.117,1.771c0.738,0,1.865-0.217,1.865-1.194
			c0-1.031-1.436-1.206-2.843-1.582c-1.421-0.376-2.855-0.926-2.855-2.722c0-1.958,1.851-2.896,3.58-2.896
			c1.997,0,3.835,0.872,3.835,3.085H78.02c-0.067-1.155-0.886-1.45-1.891-1.45c-0.671,0-1.446,0.281-1.446,1.086
			c0,0.737,0.456,0.832,2.855,1.447c0.696,0.177,2.842,0.615,2.842,2.788c0,1.756-1.382,3.07-3.981,3.07
			c-2.119,0-4.104-1.046-4.077-3.404"/>
		<path fill="#FFFFFF" d="M81.344,127.307c0.107-1.782,1.703-2.317,3.258-2.317c1.38,0,3.042,0.309,3.042,1.967v3.61
			c0,0.629,0.067,1.261,0.241,1.542h-1.931c-0.067-0.217-0.12-0.443-0.132-0.674c-0.605,0.631-1.49,0.86-2.335,0.86
			c-1.313,0-2.358-0.658-2.358-2.078c0-1.57,1.18-1.944,2.358-2.105c1.167-0.175,2.253-0.134,2.253-0.911
			c0-0.816-0.564-0.938-1.234-0.938c-0.724,0-1.194,0.296-1.26,1.045 M85.742,128.714c-0.322,0.281-0.993,0.297-1.582,0.403
			c-0.59,0.12-1.127,0.323-1.127,1.019c0,0.712,0.55,0.884,1.167,0.884c1.487,0,1.542-1.178,1.542-1.594V128.714z"/>
		<path fill="#FFFFFF" d="M89.535,126.449h-1.14v-1.273h1.14v-0.537c0-1.218,0.764-2.104,2.319-2.104
			c0.335,0,0.684,0.041,1.005,0.054v1.422c-0.228-0.027-0.456-0.041-0.697-0.041c-0.51,0-0.725,0.215-0.725,0.791v0.415h1.314v1.273
			h-1.314v5.659h-1.903"/>
		<path fill="#FFFFFF" d="M95.152,129.104c0.054,1.205,0.644,1.758,1.702,1.758c0.765,0,1.382-0.472,1.501-0.9h1.677
			c-0.536,1.637-1.677,2.334-3.244,2.334c-2.185,0-3.539-1.503-3.539-3.648c0-2.076,1.435-3.657,3.539-3.657
			c2.359,0,3.499,1.982,3.365,4.114 M98.248,127.897c-0.175-0.964-0.59-1.475-1.515-1.475c-1.207,0-1.555,0.939-1.582,1.475H98.248z
			"/>
		<path fill="#FFFFFF" d="M103.69,125.176h1.395v1.273h-1.395v3.434c0,0.641,0.161,0.803,0.806,0.803
			c0.199,0,0.388-0.015,0.589-0.054v1.485c-0.32,0.056-0.736,0.069-1.112,0.069c-1.166,0-2.186-0.268-2.186-1.648v-4.089h-1.152
			v-1.273h1.152v-2.078h1.903"/>
		<path fill="#FFFFFF" d="M109.415,132.978c-0.416,1.112-1.073,1.568-2.386,1.568c-0.39,0-0.779-0.025-1.167-0.064v-1.57
			c0.361,0.028,0.738,0.08,1.113,0.066c0.655-0.066,0.872-0.75,0.655-1.298l-2.438-6.504h2.036l1.568,4.746h0.028l1.515-4.746h1.97"
			/>
		<path fill="#FFFFFF" d="M116.681,122.535h1.905v3.606h0.039c0.482-0.779,1.314-1.152,2.024-1.152c2.023,0,2.532,1.138,2.532,2.854
			v4.265h-1.902v-3.914c0-1.142-0.336-1.704-1.221-1.704c-1.032,0-1.473,0.577-1.473,1.985v3.633h-1.905"/>
		<path fill="#FFFFFF" d="M126.198,129.104c0.054,1.205,0.645,1.758,1.702,1.758c0.763,0,1.381-0.472,1.502-0.9h1.676
			c-0.537,1.637-1.676,2.334-3.245,2.334c-2.185,0-3.538-1.503-3.538-3.648c0-2.076,1.436-3.657,3.538-3.657
			c2.361,0,3.5,1.982,3.365,4.114 M129.294,127.897c-0.174-0.964-0.589-1.475-1.514-1.475c-1.208,0-1.557,0.939-1.582,1.475H129.294
			z"/>
		<rect x="132.377" y="122.535" fill="#FFFFFF" width="1.904" height="9.573"/>
		<path fill="#FFFFFF" d="M135.836,125.176h1.797v0.939h0.027c0.496-0.711,1.218-1.126,2.117-1.126c0.87,0,1.649,0.32,2.024,1.152
			c0.404-0.602,1.126-1.152,2.091-1.152c1.475,0,2.533,0.685,2.533,2.479v4.64h-1.902v-3.93c0-0.925-0.083-1.688-1.166-1.688
			c-1.073,0-1.274,0.883-1.274,1.756v3.862h-1.904v-3.891c0-0.803,0.053-1.728-1.151-1.728c-0.376,0-1.289,0.24-1.289,1.594v4.024
			h-1.902"/>
		<path fill="#FFFFFF" d="M149.498,129.104c0.051,1.205,0.641,1.758,1.701,1.758c0.762,0,1.381-0.472,1.5-0.9h1.677
			c-0.535,1.637-1.677,2.334-3.245,2.334c-2.185,0-3.538-1.503-3.538-3.648c0-2.076,1.433-3.657,3.538-3.657
			c2.359,0,3.501,1.982,3.364,4.114 M152.594,127.897c-0.176-0.964-0.591-1.475-1.516-1.475c-1.207,0-1.555,0.939-1.58,1.475
			H152.594z"/>
		<path fill="#FFFFFF" d="M158.036,125.176h1.395v1.273h-1.395v3.434c0,0.641,0.161,0.803,0.804,0.803
			c0.201,0,0.388-0.015,0.591-0.054v1.485c-0.322,0.056-0.738,0.069-1.113,0.069c-1.168,0-2.187-0.268-2.187-1.648v-4.089h-1.151
			v-1.273h1.151v-2.078h1.905"/>
		<path fill="#FFFFFF" d="M161.816,129.854c0.013,0.831,0.71,1.165,1.459,1.165c0.551,0,1.247-0.214,1.247-0.884
			c0-0.576-0.79-0.776-2.156-1.073c-1.1-0.24-2.199-0.63-2.199-1.848c0-1.77,1.528-2.226,3.016-2.226
			c1.516,0,2.909,0.507,3.057,2.211h-1.81c-0.055-0.738-0.617-0.938-1.302-0.938c-0.428,0-1.059,0.079-1.059,0.644
			c0,0.683,1.072,0.777,2.159,1.031c1.113,0.258,2.199,0.657,2.199,1.946c0,1.819-1.582,2.412-3.164,2.412
			c-1.607,0-3.178-0.603-3.257-2.44"/>
		<path fill="#FFFFFF" d="M72.778,140.258h1.798v0.939h0.025c0.497-0.711,1.22-1.126,2.119-1.126c0.87,0,1.648,0.32,2.023,1.151
			c0.404-0.602,1.126-1.151,2.09-1.151c1.476,0,2.535,0.684,2.535,2.479v4.639h-1.904v-3.929c0-0.925-0.079-1.689-1.165-1.689
			c-1.073,0-1.275,0.882-1.275,1.756v3.862h-1.902v-3.89c0-0.804,0.053-1.729-1.152-1.729c-0.376,0-1.288,0.241-1.288,1.595v4.023
			h-1.905"/>
		<path fill="#FFFFFF" d="M91.373,147.189h-1.811v-0.965h-0.039c-0.485,0.774-1.314,1.151-2.12,1.151
			c-2.023,0-2.532-1.141-2.532-2.854v-4.265h1.902v3.914c0,1.139,0.336,1.702,1.22,1.702c1.034,0,1.475-0.576,1.475-1.983v-3.633
			h1.905"/>
		<path fill="#FFFFFF" d="M94.294,144.936c0.012,0.832,0.71,1.165,1.46,1.165c0.55,0,1.247-0.214,1.247-0.884
			c0-0.576-0.791-0.777-2.158-1.073c-1.1-0.241-2.199-0.63-2.199-1.847c0-1.771,1.528-2.226,3.016-2.226
			c1.515,0,2.908,0.507,3.057,2.21h-1.811c-0.054-0.738-0.616-0.939-1.299-0.939c-0.429,0-1.06,0.081-1.06,0.646
			c0,0.682,1.073,0.777,2.159,1.031c1.113,0.257,2.198,0.657,2.198,1.945c0,1.819-1.581,2.412-3.165,2.412
			c-1.608,0-3.176-0.603-3.256-2.44"/>
		<path fill="#FFFFFF" d="M102.431,140.258h1.395v1.273h-1.395v3.433c0,0.641,0.161,0.804,0.805,0.804c0.2,0,0.388-0.016,0.59-0.055
			v1.486c-0.32,0.056-0.737,0.068-1.113,0.068c-1.166,0-2.186-0.269-2.186-1.647v-4.089h-1.152v-1.273h1.152v-2.079h1.904"/>
		<path fill="#FFFFFF" d="M108.463,137.616h1.904v3.485h0.026c0.469-0.71,1.327-1.03,2.187-1.03c1.379,0,2.867,1.112,2.867,3.642
			c0,2.551-1.488,3.663-2.867,3.663c-1.02,0-1.866-0.312-2.281-1.073h-0.026v0.887h-1.81 M111.923,141.504
			c-1.127,0-1.624,1.059-1.624,2.225c0,1.153,0.497,2.213,1.624,2.213c1.125,0,1.621-1.06,1.621-2.213
			C113.544,142.562,113.048,141.504,111.923,141.504"/>
		<path fill="#FFFFFF" d="M118.222,144.186c0.055,1.204,0.646,1.756,1.702,1.756c0.766,0,1.381-0.471,1.503-0.899h1.675
			c-0.536,1.637-1.675,2.334-3.243,2.334c-2.187,0-3.54-1.502-3.54-3.647c0-2.077,1.436-3.657,3.54-3.657
			c2.359,0,3.499,1.981,3.365,4.114 M121.318,142.979c-0.173-0.964-0.59-1.476-1.514-1.476c-1.206,0-1.557,0.939-1.583,1.476
			H121.318z"/>
		<polyline fill="#FFFFFF" points="135.998,147.189 134.04,147.189 132.808,142.535 132.78,142.535 131.602,147.189 
			129.631,147.189 127.432,140.258 129.443,140.258 130.716,144.964 130.744,144.964 131.896,140.258 133.745,140.258 
			134.927,144.95 134.953,144.95 136.226,140.258 138.184,140.258 		"/>
		<path fill="#FFFFFF" d="M142.354,140.071c2.184,0,3.591,1.446,3.591,3.657c0,2.201-1.407,3.647-3.591,3.647
			c-2.175,0-3.581-1.446-3.581-3.647C138.772,141.518,140.179,140.071,142.354,140.071 M142.354,145.941
			c1.299,0,1.688-1.115,1.688-2.213c0-1.111-0.39-2.225-1.688-2.225c-1.287,0-1.677,1.113-1.677,2.225
			C140.677,144.826,141.066,145.941,142.354,145.941"/>
		<path fill="#FFFFFF" d="M147.179,140.258h1.81v1.285h0.025c0.349-0.87,1.289-1.472,2.214-1.472c0.132,0,0.294,0.023,0.413,0.064
			v1.77c-0.173-0.039-0.454-0.067-0.683-0.067c-1.394,0-1.877,1.008-1.877,2.226v3.126h-1.902"/>
		<path fill="#FFFFFF" d="M152.632,140.258h1.809v0.965h0.041c0.481-0.778,1.312-1.151,2.117-1.151c2.024,0,2.534,1.137,2.534,2.854
			v4.265h-1.903v-3.914c0-1.142-0.336-1.704-1.219-1.704c-1.034,0-1.477,0.578-1.477,1.985v3.633h-1.902"/>
		<path fill="#FFFFFF" d="M72.726,152.697h1.903v3.485h0.026c0.47-0.71,1.328-1.03,2.188-1.03c1.379,0,2.869,1.112,2.869,3.643
			c0,2.549-1.49,3.661-2.869,3.661c-1.021,0-1.865-0.31-2.28-1.072h-0.026v0.887h-1.81 M76.185,156.586
			c-1.128,0-1.624,1.059-1.624,2.224c0,1.153,0.496,2.214,1.624,2.214c1.124,0,1.621-1.061,1.621-2.214
			C77.806,157.645,77.309,156.586,76.185,156.586"/>
		<path fill="#FFFFFF" d="M82.485,159.266c0.054,1.204,0.643,1.758,1.701,1.758c0.766,0,1.382-0.471,1.501-0.899h1.676
			c-0.535,1.636-1.676,2.332-3.244,2.332c-2.183,0-3.538-1.502-3.538-3.646c0-2.077,1.435-3.657,3.538-3.657
			c2.361,0,3.501,1.98,3.367,4.113 M85.582,158.06c-0.174-0.964-0.592-1.474-1.514-1.474c-1.209,0-1.558,0.939-1.583,1.474H85.582z"
			/>
		<path fill="#FFFFFF" d="M92.03,163.139c-0.416,1.113-1.072,1.57-2.387,1.57c-0.389,0-0.778-0.027-1.165-0.066v-1.568
			c0.361,0.027,0.735,0.08,1.112,0.064c0.658-0.064,0.872-0.749,0.658-1.297l-2.44-6.503h2.036l1.568,4.746h0.029l1.513-4.746h1.971
			"/>
		<path fill="#FFFFFF" d="M98.932,155.152c2.185,0,3.594,1.446,3.594,3.657c0,2.2-1.409,3.646-3.594,3.646
			c-2.172,0-3.578-1.446-3.578-3.646C95.354,156.599,96.76,155.152,98.932,155.152 M98.932,161.023c1.301,0,1.688-1.116,1.688-2.214
			c0-1.111-0.388-2.224-1.688-2.224c-1.286,0-1.676,1.112-1.676,2.224C97.256,159.907,97.646,161.023,98.932,161.023"/>
		<path fill="#FFFFFF" d="M103.76,155.339h1.81v0.966h0.039c0.484-0.779,1.312-1.152,2.117-1.152c2.024,0,2.535,1.137,2.535,2.853
			v4.266h-1.905v-3.915c0-1.14-0.333-1.702-1.218-1.702c-1.031,0-1.477,0.577-1.477,1.984v3.633h-1.901"/>
		<path fill="#FFFFFF" d="M116.655,161.384h-0.027c-0.441,0.752-1.218,1.072-2.105,1.072c-2.092,0-3.108-1.796-3.108-3.713
			c0-1.863,1.032-3.591,3.071-3.591c0.817,0,1.621,0.346,2.062,1.03h-0.012h0.028v-3.485h1.9v9.573h-1.809 M114.993,156.586
			c-1.246,0-1.675,1.073-1.675,2.209c0,1.09,0.496,2.229,1.675,2.229c1.261,0,1.635-1.102,1.635-2.239
			C116.628,157.659,116.227,156.586,114.993,156.586"/>
		<path fill="#FFFFFF" d="M126.039,155.339h1.395v1.272h-1.395v3.433c0,0.643,0.159,0.805,0.804,0.805
			c0.203,0,0.389-0.015,0.591-0.054v1.485c-0.322,0.056-0.738,0.069-1.112,0.069c-1.167,0-2.187-0.27-2.187-1.648v-4.09h-1.153
			v-1.272h1.153v-2.078h1.904"/>
		<path fill="#FFFFFF" d="M128.346,152.697h1.9v3.607h0.041c0.482-0.779,1.314-1.152,2.024-1.152c2.025,0,2.533,1.137,2.533,2.853
			v4.266h-1.903v-3.915c0-1.14-0.335-1.702-1.219-1.702c-1.034,0-1.477,0.577-1.477,1.984v3.633h-1.9"/>
		<path fill="#FFFFFF" d="M138.252,154.265h-1.903v-1.567h1.903V154.265z M136.348,155.339h1.902v6.932h-1.902V155.339z"/>
		<path fill="#FFFFFF" d="M141.227,160.018c0.014,0.831,0.71,1.165,1.464,1.165c0.549,0,1.243-0.215,1.243-0.884
			c0-0.576-0.789-0.778-2.156-1.074c-1.101-0.24-2.198-0.63-2.198-1.847c0-1.771,1.526-2.226,3.015-2.226
			c1.515,0,2.909,0.507,3.058,2.211h-1.81c-0.056-0.738-0.619-0.94-1.299-0.94c-0.432,0-1.061,0.081-1.061,0.646
			c0,0.683,1.072,0.777,2.156,1.031c1.115,0.256,2.199,0.657,2.199,1.944c0,1.82-1.581,2.412-3.164,2.412
			c-1.607,0-3.177-0.602-3.257-2.438"/>
		<path fill="#FFFFFF" d="M150.679,155.339h1.811v0.883h0.025c0.455-0.735,1.208-1.069,2.063-1.069c2.174,0,3.151,1.754,3.151,3.724
			c0,1.853-1.02,3.58-3.045,3.58c-0.827,0-1.621-0.36-2.075-1.045h-0.029v3.298h-1.901 M155.824,158.824
			c0-1.101-0.442-2.238-1.661-2.238c-1.245,0-1.648,1.112-1.648,2.238c0,1.125,0.429,2.199,1.663,2.199
			C155.425,161.023,155.824,159.949,155.824,158.824"/>
		<path fill="#FFFFFF" d="M162.232,155.152c2.186,0,3.594,1.446,3.594,3.657c0,2.2-1.408,3.646-3.594,3.646
			c-2.171,0-3.578-1.446-3.578-3.646C158.654,156.599,160.062,155.152,162.232,155.152 M162.232,161.023
			c1.301,0,1.688-1.116,1.688-2.214c0-1.111-0.388-2.224-1.688-2.224c-1.286,0-1.676,1.112-1.676,2.224
			C160.557,159.907,160.946,161.023,162.232,161.023"/>
		<path fill="#FFFFFF" d="M169.017,154.265h-1.905v-1.567h1.905V154.265z M167.111,155.339h1.905v6.932h-1.905V155.339z"/>
		<path fill="#FFFFFF" d="M170.518,155.339h1.81v0.966h0.04c0.481-0.779,1.313-1.152,2.118-1.152c2.023,0,2.533,1.137,2.533,2.853
			v4.266h-1.903v-3.915c0-1.14-0.336-1.702-1.219-1.702c-1.033,0-1.477,0.577-1.477,1.984v3.633h-1.902"/>
		<path fill="#FFFFFF" d="M180.881,155.339h1.394v1.272h-1.394v3.433c0,0.643,0.159,0.805,0.803,0.805
			c0.201,0,0.388-0.015,0.591-0.054v1.485c-0.323,0.056-0.738,0.069-1.112,0.069c-1.169,0-2.187-0.27-2.187-1.648v-4.09h-1.153
			v-1.272h1.153v-2.078h1.905"/>
		<g>
			<path fill-rule="evenodd" clip-rule="evenodd" fill="#056BB3" d="M10.485,143.376c0-14.561,11.805-26.362,26.363-26.362
				c14.559,0,26.362,11.802,26.362,26.362c0,14.559-11.803,26.363-26.362,26.363C22.29,169.739,10.485,157.935,10.485,143.376
				L10.485,143.376z"/>
			<path fill-rule="evenodd" clip-rule="evenodd" fill="#FFFFFF" d="M52.444,139.23l0.039,1.053l-0.028,0.858l-0.078,0.86
				l-0.125,0.857l-0.183,0.848l-0.232,0.831l-0.28,0.818l-0.319,0.802l-0.376,0.782l-0.425,0.763l-0.521,0.926l-0.472,0.956
				l-0.417,0.982l-0.366,1.004l-0.309,1.021l-0.261,1.033l-0.193,1.052l-0.146,1.051l-0.087,1.073l-0.029,1.061v2.719l-0.028,0.387
				l-0.069,0.386l-0.124,0.367l-0.174,0.347l-0.223,0.327l-0.251,0.292l-0.29,0.259l-0.328,0.212l-0.347,0.173l-0.368,0.128
				l-0.387,0.075l-0.387,0.03H32.431l-0.387-0.03l-0.376-0.075l-0.366-0.128l-0.35-0.173l-0.317-0.212l-0.29-0.25l-0.262-0.29
				l-0.212-0.328l-0.173-0.347l-0.125-0.367l-0.069-0.376l-0.028-0.387v-2.808l-0.521-0.029l-0.521-0.075l-0.511-0.127l-0.492-0.184
				l-0.473-0.22l-0.456-0.271l-0.424-0.308l-0.386-0.357l-0.358-0.386l-0.307-0.425l-0.27-0.456l-0.223-0.471l-0.174-0.491
				l-0.135-0.514l-0.077-0.52l-0.02-0.521v-2.507h-0.822l-0.367-0.02l-0.357-0.078l-0.337-0.125l-0.318-0.173l-0.3-0.213
				l-0.26-0.252l-0.233-0.289l-0.183-0.307l-0.136-0.34l-0.087-0.357l-0.038-0.356l0.01-0.367l0.057-0.356l1.805-7.468h1.487
				l-1.883,7.805l-0.028,0.262l0.019,0.262l0.088,0.249l0.144,0.232l0.184,0.183l0.223,0.145l0.25,0.089l0.26,0.025h2.27v3.957
				l0.029,0.475l0.087,0.462l0.134,0.445l0.193,0.432l0.242,0.405l0.3,0.367l0.327,0.337l0.368,0.292l0.404,0.238l0.436,0.193
				l0.443,0.137l0.463,0.086l0.474,0.029h1.448v4.264l0.028,0.289l0.088,0.291l0.146,0.259l0.183,0.223l0.232,0.192l0.26,0.134
				l0.281,0.089l0.29,0.03h12.231l0.3-0.03l0.279-0.089l0.27-0.134l0.233-0.192l0.184-0.232l0.143-0.259l0.089-0.292l0.028-0.298
				v-2.719l0.02-1.045l0.077-1.03l0.126-1.031l0.183-1.034l0.223-1.012l0.28-1.004l0.329-0.996l0.367-0.962l0.423-0.955l0.463-0.927
				l0.512-0.906l0.426-0.771l0.366-0.793l0.319-0.817l0.26-0.842l0.203-0.848l0.145-0.861l0.097-0.877l0.029-0.867l-0.047-1.053
				H52.444L52.444,139.23z M30.403,141.269l-0.03-0.291l-0.076-0.288l-0.117-0.262l-0.173-0.242l-0.203-0.203l-0.24-0.164
				l-0.262-0.124l-0.281-0.079l-0.29-0.017l-0.29,0.017l-0.279,0.079l-0.261,0.124l-0.242,0.164l-0.202,0.203l-0.174,0.242
				l-0.124,0.262l-0.069,0.288l-0.028,0.291l0.028,0.288l0.069,0.278l0.124,0.262l0.174,0.242l0.202,0.203l0.242,0.163l0.261,0.125
				l0.279,0.078l0.29,0.026l0.29-0.026l0.281-0.078l0.262-0.125l0.24-0.163l0.203-0.203l0.173-0.242l0.117-0.262l0.076-0.278
				L30.403,141.269L30.403,141.269z M53.584,137.783l-0.029-0.926l-0.087-0.917l-0.146-0.907l-0.193-0.905l-0.25-0.888l-0.29-0.867
				l-0.349-0.86l-0.394-0.828l-0.445-0.812l-0.493-0.782l-0.541-0.752l-0.579-0.714l-0.619-0.684l-0.657-0.646l-0.693-0.608
				l-0.725-0.569l-0.763-0.521l-0.782-0.484l-0.82-0.422l-0.84-0.387l-0.859-0.331l-0.879-0.287l-0.887-0.232l-0.908-0.174
				l-0.918-0.124l-0.917-0.079l-0.928-0.02l-0.916,0.04l-0.918,0.088l-0.917,0.145l-0.898,0.192l-0.889,0.242l-0.869,0.298
				l-0.859,0.348l-0.83,0.396l-0.812,0.445l-0.782,0.491l-0.742,0.54l-0.724,0.579l-0.686,0.618l-0.648,0.655l-0.607,0.693
				l-0.56,0.733l-0.521,0.752l-0.482,0.793l-0.426,0.817l-0.387,0.841l-0.327,0.857l-0.29,0.881l-0.223,0.896l-0.086,0.239
				l-0.145,0.223l-0.185,0.192l-0.222,0.135l-0.618,0.262l-0.627,0.213l-0.647,0.154l-0.656,0.104l-0.26,0.049l-0.243,0.108
				l-0.221,0.144l-0.193,0.184l-0.146,0.222l-0.106,0.23l-0.068,0.262l-0.009,0.262l0.04,0.259l0.038,0.078l0.059,0.046l0.076,0.02
				H53.584L53.584,137.783z"/>
		</g>
	</g>
</g>
</svg>
