<?xml version="1.0" encoding="utf-8"?>
<!-- Generator: Adobe Illustrator 16.0.0, SVG Export Plug-In . SVG Version: 6.00 Build 0)  -->
<!DOCTYPE svg PUBLIC "-//W3C//DTD SVG 1.1//EN" "http://www.w3.org/Graphics/SVG/1.1/DTD/svg11.dtd">
<svg version="1.1" id="Layer_1" xmlns="http://www.w3.org/2000/svg" xmlns:xlink="http://www.w3.org/1999/xlink" x="0px" y="0px"
	 width="200px" height="200px" viewBox="0 0 200 200" enable-background="new 0 0 200 200" xml:space="preserve">
<g>
	<polyline fill="#FFFFFF" points="195,171.244 195,28.715 5,28.752 5,171.285 	"/>
	<polygon fill="none" stroke="#1C181B" points="195,171.244 195,28.715 5,28.752 5,171.285 	"/>
	<rect x="10.121" y="117.168" fill="#FFF200" width="87.284" height="48.66"/>
	<polyline fill="#1C181B" points="20.064,129.018 22.169,129.018 22.169,132.691 26.046,132.691 26.046,129.018 28.152,129.018 
		28.152,138.592 26.046,138.592 26.046,134.463 22.169,134.463 22.169,138.592 20.064,138.592 	"/>
	<path fill="#1C181B" d="M29.721,133.791c0.107-1.783,1.702-2.32,3.258-2.32c1.383,0,3.045,0.309,3.045,1.971v3.609
		c0,0.629,0.067,1.26,0.24,1.541h-1.93c-0.067-0.215-0.12-0.441-0.133-0.672c-0.604,0.633-1.492,0.859-2.336,0.859
		c-1.313,0-2.359-0.656-2.359-2.078c0-1.568,1.181-1.945,2.359-2.105c1.166-0.174,2.252-0.133,2.252-0.91
		c0-0.818-0.562-0.939-1.233-0.939c-0.724,0-1.191,0.295-1.261,1.045 M34.117,135.199c-0.32,0.281-0.989,0.295-1.581,0.404
		c-0.591,0.119-1.126,0.32-1.126,1.018c0,0.711,0.552,0.885,1.168,0.885c1.486,0,1.539-1.18,1.539-1.598V135.199z"/>
	<polyline fill="#1C181B" points="37.068,137.156 40.675,133.094 37.337,133.094 37.337,131.658 43.182,131.658 43.182,133.094 
		39.576,137.156 43.438,137.156 43.438,138.592 37.068,138.592 	"/>
	<path fill="#1C181B" d="M44.379,133.791c0.105-1.783,1.703-2.32,3.258-2.32c1.379,0,3.044,0.309,3.044,1.971v3.609
		c0,0.629,0.067,1.26,0.24,1.541H48.99c-0.067-0.215-0.12-0.441-0.135-0.672c-0.604,0.633-1.487,0.859-2.334,0.859
		c-1.313,0-2.359-0.656-2.359-2.078c0-1.568,1.181-1.945,2.359-2.105c1.166-0.174,2.253-0.133,2.253-0.91
		c0-0.818-0.562-0.939-1.233-0.939c-0.723,0-1.192,0.295-1.259,1.045 M48.774,135.199c-0.32,0.281-0.992,0.295-1.581,0.404
		c-0.592,0.119-1.128,0.32-1.128,1.018c0,0.711,0.551,0.885,1.168,0.885c1.489,0,1.541-1.18,1.541-1.598V135.199z"/>
	<path fill="#1C181B" d="M52.154,131.658h1.81v1.289h0.029c0.348-0.871,1.286-1.477,2.212-1.477c0.133,0,0.295,0.027,0.415,0.068
		v1.77c-0.175-0.041-0.457-0.066-0.685-0.066c-1.394,0-1.877,1.006-1.877,2.227v3.123h-1.904"/>
	<path fill="#1C181B" d="M62.081,137.705h-0.029c-0.439,0.754-1.219,1.074-2.104,1.074c-2.092,0-3.11-1.795-3.11-3.715
		c0-1.863,1.031-3.594,3.072-3.594c0.814,0,1.623,0.348,2.062,1.033h-0.013h0.025v-3.486h1.907v9.574h-1.811 M60.417,132.906
		c-1.246,0-1.676,1.074-1.676,2.213c0,1.086,0.497,2.227,1.676,2.227c1.261,0,1.635-1.1,1.635-2.24
		C62.052,133.98,61.651,132.906,60.417,132.906"/>
	<path fill="#1C181B" d="M68.691,131.471c2.186,0,3.594,1.449,3.594,3.662c0,2.199-1.408,3.646-3.594,3.646
		c-2.174,0-3.581-1.447-3.581-3.646C65.11,132.92,66.518,131.471,68.691,131.471 M68.691,137.346c1.301,0,1.69-1.113,1.69-2.213
		c0-1.113-0.39-2.227-1.69-2.227c-1.289,0-1.677,1.113-1.677,2.227C67.015,136.232,67.402,137.346,68.691,137.346"/>
	<path fill="#1C181B" d="M80.023,138.592h-1.811v-0.967h-0.042c-0.481,0.779-1.312,1.154-2.117,1.154
		c-2.024,0-2.536-1.139-2.536-2.855v-4.266h1.907v3.918c0,1.141,0.333,1.703,1.217,1.703c1.035,0,1.476-0.578,1.476-1.986v-3.635
		h1.906"/>
	<path fill="#1C181B" d="M82.946,136.34c0.015,0.832,0.712,1.166,1.461,1.166c0.55,0,1.246-0.215,1.246-0.885
		c0-0.576-0.791-0.777-2.157-1.072c-1.101-0.24-2.201-0.631-2.201-1.85c0-1.771,1.529-2.229,3.02-2.229
		c1.516,0,2.911,0.512,3.057,2.215h-1.811c-0.053-0.738-0.616-0.939-1.301-0.939c-0.429,0-1.059,0.08-1.059,0.643
		c0,0.686,1.073,0.779,2.159,1.033c1.111,0.254,2.197,0.656,2.197,1.945c0,1.824-1.58,2.412-3.163,2.412
		c-1.609,0-3.18-0.604-3.258-2.439"/>
	<path fill="#1C181B" d="M40.153,148.879c0.107-1.787,1.702-2.32,3.258-2.32c1.381,0,3.044,0.309,3.044,1.971v3.605
		c0,0.629,0.066,1.264,0.239,1.543h-1.928c-0.067-0.215-0.122-0.443-0.135-0.67c-0.604,0.631-1.488,0.859-2.334,0.859
		c-1.313,0-2.361-0.658-2.361-2.08c0-1.568,1.183-1.943,2.361-2.104c1.166-0.176,2.252-0.135,2.252-0.914
		c0-0.818-0.562-0.938-1.233-0.938c-0.722,0-1.191,0.295-1.259,1.047 M44.55,150.287c-0.32,0.279-0.991,0.295-1.582,0.402
		c-0.59,0.117-1.127,0.32-1.127,1.018c0,0.711,0.552,0.887,1.168,0.887c1.488,0,1.541-1.182,1.541-1.598V150.287z"/>
	<path fill="#1C181B" d="M47.928,146.744h1.812v1.287h0.027c0.347-0.869,1.288-1.473,2.214-1.473c0.131,0,0.293,0.027,0.414,0.064
		v1.771c-0.174-0.039-0.456-0.068-0.684-0.068c-1.396,0-1.877,1.008-1.877,2.229v3.123h-1.907"/>
	<path fill="#1C181B" d="M54.476,150.676c0.053,1.205,0.644,1.758,1.704,1.758c0.765,0,1.379-0.471,1.501-0.902h1.678
		c-0.537,1.639-1.678,2.336-3.246,2.336c-2.185,0-3.54-1.502-3.54-3.648c0-2.078,1.436-3.66,3.54-3.66
		c2.359,0,3.5,1.984,3.365,4.117 M57.575,149.469c-0.177-0.969-0.591-1.477-1.518-1.477c-1.206,0-1.556,0.939-1.582,1.477H57.575z"
		/>
	<path fill="#1C181B" d="M60.524,148.879c0.106-1.787,1.702-2.32,3.258-2.32c1.381,0,3.043,0.309,3.043,1.971v3.605
		c0,0.629,0.069,1.264,0.242,1.543h-1.932c-0.065-0.215-0.118-0.443-0.135-0.67c-0.603,0.631-1.488,0.859-2.332,0.859
		c-1.315,0-2.359-0.658-2.359-2.08c0-1.568,1.179-1.943,2.359-2.104c1.166-0.176,2.252-0.135,2.252-0.914
		c0-0.818-0.562-0.938-1.233-0.938c-0.724,0-1.193,0.295-1.261,1.047 M64.921,150.287c-0.32,0.279-0.991,0.295-1.581,0.402
		c-0.591,0.117-1.128,0.32-1.128,1.018c0,0.711,0.55,0.887,1.166,0.887c1.49,0,1.543-1.182,1.543-1.598V150.287z"/>
	<rect x="102.526" y="117.168" fill="#ED1C24" width="87.075" height="48.66"/>
	<path fill="#FFFFFF" d="M126.554,129.018h4.13c2.481,0,4.348,1.557,4.348,4.734c0,2.775-1.427,4.84-4.348,4.84h-4.13
		 M128.657,136.822h1.881c1.219,0,2.383-0.75,2.383-2.869c0-1.93-0.67-3.168-2.762-3.168h-1.502V136.822z"/>
	<path fill="#FFFFFF" d="M139.655,131.471c2.187,0,3.595,1.449,3.595,3.662c0,2.199-1.408,3.646-3.595,3.646
		c-2.172,0-3.58-1.447-3.58-3.646C136.075,132.92,137.483,131.471,139.655,131.471 M139.655,137.346
		c1.303,0,1.688-1.113,1.688-2.213c0-1.113-0.386-2.227-1.688-2.227c-1.288,0-1.674,1.113-1.674,2.227
		C137.981,136.232,138.367,137.346,139.655,137.346"/>
	<path fill="#FFFFFF" d="M148.209,131.658h1.812v0.967h0.04c0.484-0.779,1.313-1.154,2.117-1.154c2.027,0,2.536,1.141,2.536,2.857
		v4.264h-1.902v-3.916c0-1.139-0.339-1.703-1.223-1.703c-1.029,0-1.474,0.578-1.474,1.986v3.633h-1.906"/>
	<path fill="#FFFFFF" d="M159.527,131.471c2.187,0,3.595,1.449,3.595,3.662c0,2.199-1.408,3.646-3.595,3.646
		c-2.172,0-3.58-1.447-3.58-3.646C155.947,132.92,157.355,131.471,159.527,131.471 M159.527,137.346
		c1.303,0,1.691-1.113,1.691-2.213c0-1.113-0.389-2.227-1.691-2.227c-1.284,0-1.674,1.113-1.674,2.227
		C157.854,136.232,158.243,137.346,159.527,137.346"/>
	<path fill="#FFFFFF" d="M166.771,131.658h1.394v1.273h-1.394v3.436c0,0.645,0.16,0.805,0.804,0.805c0.2,0,0.39-0.016,0.59-0.055
		v1.488c-0.324,0.053-0.739,0.066-1.113,0.066c-1.165,0-2.187-0.268-2.187-1.648v-4.092h-1.153v-1.273h1.153v-2.076h1.906"/>
	<path fill="#FFFFFF" d="M132.641,150.676c0.055,1.205,0.644,1.758,1.703,1.758c0.768,0,1.382-0.471,1.502-0.902h1.678
		c-0.535,1.639-1.678,2.336-3.245,2.336c-2.187,0-3.54-1.502-3.54-3.648c0-2.078,1.433-3.66,3.54-3.66c2.36,0,3.5,1.984,3.365,4.117
		 M135.74,149.469c-0.175-0.969-0.589-1.477-1.517-1.477c-1.204,0-1.554,0.939-1.583,1.477H135.74z"/>
	<path fill="#FFFFFF" d="M138.771,146.744h1.808v0.967h0.044c0.48-0.779,1.31-1.152,2.117-1.152c2.023,0,2.536,1.141,2.536,2.855
		v4.264h-1.906v-3.914c0-1.141-0.335-1.703-1.223-1.703c-1.029,0-1.474,0.574-1.474,1.982v3.635h-1.902"/>
	<path fill="#FFFFFF" d="M149.137,146.744h1.394v1.275h-1.394v3.432c0,0.645,0.16,0.807,0.804,0.807c0.2,0,0.39-0.016,0.59-0.053
		v1.486c-0.32,0.053-0.739,0.066-1.113,0.066c-1.164,0-2.187-0.268-2.187-1.648v-4.09h-1.153v-1.275h1.153v-2.076h1.906"/>
	<path fill="#FFFFFF" d="M153.012,150.676c0.054,1.205,0.644,1.758,1.702,1.758c0.765,0,1.383-0.471,1.503-0.902h1.677
		c-0.538,1.639-1.677,2.336-3.249,2.336c-2.183,0-3.536-1.502-3.536-3.648c0-2.078,1.434-3.66,3.536-3.66
		c2.361,0,3.5,1.984,3.369,4.117 M156.107,149.469c-0.175-0.969-0.59-1.477-1.514-1.477c-1.208,0-1.554,0.939-1.582,1.477H156.107z"
		/>
	<path fill="#FFFFFF" d="M159.138,146.744h1.809v1.287h0.029c0.35-0.869,1.288-1.473,2.212-1.473c0.135,0,0.295,0.027,0.418,0.064
		v1.771c-0.178-0.039-0.458-0.068-0.684-0.068c-1.397,0-1.877,1.008-1.877,2.229v3.123h-1.907"/>
	<polyline fill="#FFF200" points="54.306,42.477 18.053,105.643 89.932,105.643 	"/>
	<path fill="#1C181B" d="M95.892,106.012L56.871,37.448c0,0-0.592-1.481-2.518-1.481c-1.927,0-2.812,1.481-2.812,1.481
		L12.326,105.83c0,0-0.992,1.689-0.078,3.268c0,0,0.938,1.555,2.492,1.555H92.93c0,0,2.098,0.061,2.938-1.58
		C96.57,107.703,96.229,106.65,95.892,106.012 M18.764,105.271l35.539-61.924l34.926,61.924H18.764z"/>
	<path fill="#1C181B" d="M48.298,61.697l2.516,23.839c0,0,0.595,2.965,3.062,2.965c2.87,0,3.309-2.914,3.309-2.914l2.614-23.94
		c0,0-0.32-5.777-5.725-5.777C48.303,55.871,48.298,61.697,48.298,61.697"/>
	<path fill="#1C181B" d="M54.146,103c3.145,0,5.69-2.546,5.69-5.688c0-3.146-2.546-5.69-5.69-5.69c-3.142,0-5.688,2.545-5.688,5.69
		C48.457,100.454,51.004,103,54.146,103"/>
	<g>
		<g>
			<polygon fill-rule="evenodd" clip-rule="evenodd" fill="#1C181B" points="135.693,62.275 137.287,66.13 127.713,70.094 
				126.117,66.239 135.693,62.275 			"/>
			<polygon fill-rule="evenodd" clip-rule="evenodd" fill="#1C181B" points="143.141,55.987 145.797,59.192 137.825,65.812 
				135.162,62.601 143.141,55.987 			"/>
			<polygon fill-rule="evenodd" clip-rule="evenodd" fill="#1C181B" points="146.556,57.595 146.543,57.369 146.508,57.153 
				146.449,56.945 146.375,56.738 146.275,56.545 146.153,56.367 146.017,56.198 145.858,56.038 145.691,55.907 145.509,55.785 
				145.316,55.687 145.112,55.606 144.901,55.55 144.687,55.518 144.471,55.503 144.25,55.518 144.032,55.55 143.821,55.606 
				143.617,55.687 143.425,55.785 143.242,55.907 143.075,56.038 142.917,56.198 142.784,56.367 142.66,56.545 142.565,56.738 
				142.484,56.945 142.426,57.153 142.398,57.369 142.386,57.595 142.398,57.806 142.426,58.022 142.484,58.233 142.565,58.441 
				142.66,58.634 142.784,58.817 142.917,58.987 143.075,59.141 143.242,59.278 143.425,59.394 143.617,59.494 143.821,59.569 
				144.032,59.63 144.25,59.663 144.471,59.676 144.687,59.663 144.901,59.63 145.112,59.569 145.316,59.494 145.509,59.394 
				145.691,59.278 145.858,59.141 146.017,58.987 146.153,58.817 146.275,58.634 146.375,58.441 146.449,58.233 146.508,58.022 
				146.543,57.806 146.556,57.595 			"/>
			<polygon fill-rule="evenodd" clip-rule="evenodd" fill="#1C181B" points="138.578,64.204 138.567,63.987 138.531,63.771 
				138.473,63.563 138.396,63.358 138.298,63.16 138.177,62.976 138.044,62.807 137.891,62.658 137.716,62.516 137.532,62.403 
				137.34,62.299 137.138,62.219 136.927,62.168 136.71,62.13 136.493,62.121 136.271,62.13 136.057,62.168 135.846,62.219 
				135.643,62.299 135.447,62.403 135.268,62.516 135.097,62.658 134.94,62.807 134.806,62.976 134.69,63.16 134.591,63.358 
				134.511,63.563 134.456,63.771 134.42,63.987 134.409,64.204 134.42,64.42 134.456,64.637 134.511,64.848 134.591,65.05 
				134.69,65.246 134.806,65.43 134.94,65.599 135.097,65.75 135.268,65.89 135.447,66.008 135.643,66.106 135.846,66.187 
				136.057,66.239 136.271,66.276 136.493,66.287 136.71,66.276 136.927,66.239 137.138,66.187 137.34,66.106 137.532,66.008 
				137.716,65.89 137.891,65.75 138.044,65.599 138.177,65.43 138.298,65.246 138.396,65.05 138.473,64.848 138.531,64.637 
				138.567,64.42 138.578,64.204 			"/>
			<polygon fill-rule="evenodd" clip-rule="evenodd" fill="#1C181B" points="129.002,68.166 128.991,67.946 128.955,67.729 
				128.896,67.518 128.822,67.314 128.721,67.124 128.605,66.94 128.464,66.771 128.312,66.614 128.144,66.478 127.958,66.356 
				127.766,66.258 127.56,66.183 127.347,66.126 127.134,66.088 126.918,66.08 126.703,66.088 126.484,66.126 126.273,66.183 
				126.07,66.258 125.873,66.356 125.691,66.478 125.522,66.614 125.369,66.771 125.229,66.94 125.113,67.124 125.015,67.314 
				124.932,67.518 124.88,67.729 124.844,67.946 124.833,68.166 124.844,68.382 124.88,68.599 124.932,68.81 125.015,69.012 
				125.113,69.205 125.229,69.394 125.369,69.563 125.522,69.712 125.691,69.854 125.873,69.971 126.07,70.07 126.273,70.145 
				126.484,70.202 126.703,70.24 126.918,70.249 127.134,70.24 127.347,70.202 127.56,70.145 127.766,70.07 127.958,69.971 
				128.144,69.854 128.312,69.712 128.464,69.563 128.605,69.394 128.721,69.205 128.822,69.012 128.896,68.81 128.955,68.599 
				128.991,68.382 129.002,68.166 			"/>
			<polygon fill-rule="evenodd" clip-rule="evenodd" fill="#1C181B" points="167.915,74.146 167.902,73.92 167.868,73.703 
				167.815,73.496 167.735,73.291 167.636,73.098 167.517,72.919 167.384,72.75 167.226,72.59 167.057,72.457 166.877,72.335 
				166.679,72.231 166.48,72.157 166.262,72.101 166.055,72.068 165.831,72.059 165.614,72.068 165.399,72.101 165.188,72.157 
				164.984,72.231 164.792,72.335 164.606,72.457 164.436,72.59 164.282,72.75 164.143,72.919 164.028,73.098 163.926,73.291 
				163.852,73.496 163.791,73.703 163.757,73.92 163.744,74.146 163.757,74.356 163.791,74.573 163.852,74.784 163.926,74.988 
				164.028,75.184 164.143,75.368 164.282,75.537 164.436,75.692 164.606,75.828 164.792,75.946 164.984,76.044 165.188,76.119 
				165.399,76.181 165.614,76.214 165.831,76.229 166.055,76.214 166.262,76.181 166.48,76.119 166.679,76.044 166.877,75.946 
				167.057,75.828 167.226,75.692 167.384,75.537 167.517,75.368 167.636,75.184 167.735,74.988 167.815,74.784 167.868,74.573 
				167.902,74.356 167.915,74.146 			"/>
			<polygon fill-rule="evenodd" clip-rule="evenodd" fill="#1C181B" points="163.599,64.726 163.588,64.5 163.553,64.288 
				163.493,64.077 163.419,63.869 163.32,63.676 163.202,63.498 163.063,63.329 162.911,63.169 162.742,63.038 162.557,62.916 
				162.361,62.818 162.158,62.741 161.947,62.681 161.732,62.648 161.514,62.634 161.301,62.648 161.083,62.681 160.874,62.741 
				160.67,62.818 160.472,62.916 160.291,63.038 160.12,63.169 159.968,63.329 159.827,63.498 159.709,63.676 159.611,63.869 
				159.531,64.077 159.477,64.288 159.442,64.5 159.43,64.726 159.442,64.942 159.477,65.157 159.531,65.364 159.611,65.572 
				159.709,65.765 159.827,65.948 159.968,66.118 160.12,66.272 160.291,66.412 160.472,66.525 160.67,66.625 160.874,66.705 
				161.083,66.762 161.301,66.794 161.514,66.807 161.732,66.794 161.947,66.762 162.158,66.705 162.361,66.625 162.557,66.525 
				162.742,66.412 162.911,66.272 163.063,66.118 163.202,65.948 163.32,65.765 163.419,65.572 163.493,65.364 163.553,65.157 
				163.588,64.942 163.599,64.726 			"/>
			<polygon fill-rule="evenodd" clip-rule="evenodd" fill="#1C181B" points="156.078,57.595 156.067,57.369 156.038,57.153 
				155.98,56.945 155.896,56.738 155.804,56.545 155.682,56.367 155.547,56.198 155.391,56.038 155.22,55.907 155.04,55.785 
				154.847,55.687 154.643,55.606 154.434,55.55 154.218,55.518 153.993,55.503 153.779,55.518 153.561,55.55 153.354,55.606 
				153.147,55.687 152.955,55.785 152.774,55.907 152.604,56.038 152.447,56.198 152.312,56.367 152.189,56.545 152.091,56.738 
				152.015,56.945 151.956,57.153 151.92,57.369 151.909,57.595 151.92,57.806 151.956,58.022 152.015,58.233 152.091,58.441 
				152.189,58.634 152.312,58.817 152.447,58.987 152.604,59.141 152.774,59.278 152.955,59.394 153.147,59.494 153.354,59.569 
				153.561,59.63 153.779,59.663 153.993,59.676 154.218,59.663 154.434,59.63 154.643,59.569 154.847,59.494 155.04,59.394 
				155.22,59.278 155.391,59.141 155.547,58.987 155.682,58.817 155.804,58.634 155.896,58.441 155.98,58.233 156.038,58.022 
				156.067,57.806 156.078,57.595 			"/>
			<polygon fill-rule="evenodd" clip-rule="evenodd" fill="#1C181B" points="153.4,50.144 153.394,49.847 153.357,49.551 
				153.306,49.26 153.229,48.974 153.135,48.687 153.025,48.414 152.892,48.15 152.738,47.892 152.569,47.648 152.382,47.413 
				152.18,47.197 151.964,46.995 151.727,46.806 151.483,46.637 151.232,46.487 150.965,46.351 150.69,46.242 150.41,46.149 
				150.119,46.073 149.824,46.021 149.529,45.983 149.231,45.98 148.938,45.983 148.64,46.021 148.349,46.073 148.056,46.149 
				147.775,46.242 147.499,46.351 147.232,46.487 146.98,46.637 146.735,46.806 146.503,46.995 146.288,47.197 146.084,47.413 
				145.895,47.648 145.726,47.892 145.574,48.15 145.44,48.414 145.327,48.687 145.236,48.974 145.16,49.26 145.107,49.551 
				145.072,49.847 145.065,50.144 145.072,50.444 145.107,50.74 145.16,51.032 145.236,51.319 145.327,51.606 145.44,51.879 
				145.574,52.141 145.726,52.399 145.895,52.645 146.084,52.875 146.288,53.091 146.503,53.298 146.735,53.482 146.98,53.655 
				147.232,53.806 147.499,53.937 147.775,54.049 148.056,54.144 148.349,54.219 148.64,54.271 148.938,54.299 149.231,54.313 
				149.529,54.299 149.824,54.271 150.119,54.219 150.41,54.144 150.69,54.049 150.965,53.937 151.232,53.806 151.483,53.655 
				151.727,53.482 151.964,53.298 152.18,53.091 152.382,52.875 152.569,52.645 152.738,52.399 152.892,52.141 153.025,51.879 
				153.135,51.606 153.229,51.319 153.306,51.032 153.357,50.74 153.394,50.444 153.4,50.144 			"/>
			<polygon fill-rule="evenodd" clip-rule="evenodd" fill="#1C181B" points="138.654,97.598 138.644,97.375 138.614,97.159 
				138.562,96.944 138.491,96.732 138.403,96.535 138.298,96.342 138.169,96.164 138.031,95.995 137.878,95.835 137.709,95.693 
				137.527,95.571 137.334,95.464 137.13,95.373 136.921,95.304 136.71,95.251 136.49,95.224 136.271,95.218 136.05,95.224 
				135.833,95.251 135.62,95.304 135.407,95.373 135.209,95.464 135.017,95.571 134.836,95.693 134.667,95.835 134.511,95.995 
				134.369,96.164 134.245,96.342 134.14,96.535 134.047,96.732 133.976,96.944 133.929,97.159 133.901,97.375 133.889,97.598 
				133.901,97.814 133.929,98.034 133.976,98.245 134.047,98.458 134.14,98.66 134.245,98.853 134.369,99.035 134.511,99.204 
				134.667,99.355 134.836,99.497 135.017,99.623 135.209,99.726 135.407,99.815 135.62,99.886 135.833,99.939 136.05,99.966 
				136.271,99.98 136.49,99.966 136.71,99.939 136.921,99.886 137.13,99.815 137.334,99.726 137.527,99.623 137.709,99.497 
				137.878,99.355 138.031,99.204 138.169,99.035 138.298,98.853 138.403,98.66 138.491,98.458 138.562,98.245 138.614,98.034 
				138.644,97.814 138.654,97.598 			"/>
			<polygon fill-rule="evenodd" clip-rule="evenodd" fill="#1C181B" points="164.062,98.176 164.05,97.954 164.021,97.738 
				163.97,97.521 163.897,97.319 163.812,97.114 163.698,96.921 163.577,96.741 163.438,96.572 163.28,96.414 163.111,96.271 
				162.93,96.149 162.736,96.046 162.536,95.951 162.325,95.882 162.118,95.835 161.896,95.806 161.68,95.797 161.459,95.806 
				161.241,95.835 161.022,95.882 160.815,95.951 160.617,96.046 160.424,96.149 160.244,96.271 160.073,96.414 159.915,96.572 
				159.774,96.741 159.654,96.921 159.542,97.114 159.455,97.319 159.384,97.521 159.338,97.738 159.304,97.954 159.297,98.176 
				159.304,98.396 159.338,98.613 159.384,98.829 159.455,99.035 159.542,99.238 159.654,99.43 159.774,99.613 159.915,99.779 
				160.073,99.939 160.244,100.079 160.424,100.201 160.617,100.305 160.815,100.399 161.022,100.47 161.241,100.516 
				161.459,100.544 161.68,100.559 161.896,100.544 162.118,100.516 162.325,100.47 162.536,100.399 162.736,100.305 
				162.93,100.201 163.111,100.079 163.28,99.939 163.438,99.779 163.577,99.613 163.698,99.43 163.812,99.238 163.897,99.035 
				163.97,98.829 164.021,98.613 164.05,98.396 164.062,98.176 			"/>
			<polygon fill-rule="evenodd" clip-rule="evenodd" fill="#1C181B" points="153.993,74.564 153.99,74.344 153.953,74.127 
				153.906,73.911 153.837,73.7 153.75,73.501 153.639,73.309 153.514,73.125 153.375,72.961 153.219,72.801 153.05,72.659 
				152.869,72.537 152.677,72.424 152.477,72.341 152.266,72.27 152.051,72.223 151.834,72.19 151.614,72.181 151.396,72.19 
				151.174,72.223 150.965,72.27 150.752,72.341 150.556,72.424 150.362,72.537 150.181,72.659 150.014,72.801 149.855,72.961 
				149.715,73.125 149.592,73.309 149.482,73.501 149.392,73.7 149.324,73.911 149.27,74.127 149.242,74.344 149.231,74.564 
				149.242,74.784 149.27,75 149.324,75.217 149.392,75.419 149.482,75.626 149.592,75.819 149.715,75.997 149.855,76.167 
				150.014,76.327 150.181,76.468 150.362,76.59 150.556,76.694 150.752,76.787 150.965,76.852 151.174,76.905 151.396,76.932 
				151.614,76.943 151.834,76.932 152.051,76.905 152.266,76.852 152.477,76.787 152.677,76.694 152.869,76.59 153.05,76.468 
				153.219,76.327 153.375,76.167 153.514,75.997 153.639,75.819 153.75,75.626 153.837,75.419 153.906,75.217 153.953,75 
				153.99,74.784 153.993,74.564 			"/>
			<polygon fill-rule="evenodd" clip-rule="evenodd" fill="#1C181B" points="149.231,74.564 149.224,74.344 149.194,74.127 
				149.144,73.911 149.071,73.7 148.985,73.501 148.873,73.309 148.751,73.125 148.612,72.961 148.452,72.801 148.281,72.659 
				148.102,72.537 147.908,72.424 147.71,72.341 147.499,72.27 147.292,72.223 147.07,72.19 146.854,72.181 146.63,72.19 
				146.415,72.223 146.197,72.27 145.989,72.341 145.791,72.424 145.599,72.537 145.418,72.659 145.247,72.801 145.089,72.961 
				144.949,73.125 144.829,73.309 144.716,73.501 144.629,73.7 144.558,73.911 144.511,74.127 144.478,74.344 144.471,74.564 
				144.478,74.784 144.511,75 144.558,75.217 144.629,75.419 144.716,75.626 144.829,75.819 144.949,75.997 145.089,76.167 
				145.247,76.327 145.418,76.468 145.599,76.59 145.791,76.694 145.989,76.787 146.197,76.852 146.415,76.905 146.63,76.932 
				146.854,76.943 147.07,76.932 147.292,76.905 147.499,76.852 147.71,76.787 147.908,76.694 148.102,76.59 148.281,76.468 
				148.452,76.327 148.612,76.167 148.751,75.997 148.873,75.819 148.985,75.626 149.071,75.419 149.144,75.217 149.194,75 
				149.224,74.784 149.231,74.564 			"/>
			<polygon fill-rule="evenodd" clip-rule="evenodd" fill="#1C181B" points="140.925,84.694 140.914,84.473 140.885,84.256 
				140.832,84.04 140.762,83.829 140.674,83.632 140.564,83.439 140.441,83.259 140.301,83.09 140.143,82.932 139.976,82.79 
				139.794,82.668 139.601,82.559 139.404,82.47 139.191,82.4 138.982,82.348 138.76,82.321 138.542,82.306 138.322,82.321 
				138.105,82.348 137.891,82.4 137.68,82.47 137.479,82.559 137.287,82.668 137.106,82.79 136.938,82.932 136.781,83.09 
				136.639,83.259 136.518,83.439 136.406,83.632 136.319,83.829 136.25,84.04 136.202,84.256 136.166,84.473 136.162,84.694 
				136.166,84.909 136.202,85.131 136.25,85.342 136.319,85.553 136.406,85.757 136.518,85.948 136.639,86.132 136.781,86.301 
				136.938,86.452 137.106,86.592 137.287,86.719 137.479,86.823 137.68,86.912 137.891,86.983 138.105,87.034 138.322,87.063 
				138.542,87.078 138.76,87.063 138.982,87.034 139.191,86.983 139.404,86.912 139.601,86.823 139.794,86.719 139.976,86.592 
				140.143,86.452 140.301,86.301 140.441,86.132 140.564,85.948 140.674,85.757 140.762,85.553 140.832,85.342 140.885,85.131 
				140.914,84.909 140.925,84.694 			"/>
			<polygon fill-rule="evenodd" clip-rule="evenodd" fill="#1C181B" points="156.605,87.401 156.593,87.181 156.565,86.965 
				156.512,86.749 156.44,86.546 156.354,86.339 156.247,86.146 156.118,85.968 155.98,85.799 155.827,85.639 155.658,85.497 
				155.473,85.375 155.285,85.271 155.08,85.178 154.87,85.107 154.659,85.06 154.438,85.033 154.223,85.022 154.001,85.033 
				153.784,85.06 153.568,85.107 153.357,85.178 153.16,85.271 152.968,85.375 152.786,85.497 152.616,85.639 152.458,85.799 
				152.318,85.968 152.196,86.146 152.091,86.339 152,86.546 151.927,86.749 151.88,86.965 151.847,87.181 151.84,87.401 
				151.847,87.622 151.88,87.838 151.927,88.055 152,88.266 152.091,88.464 152.196,88.657 152.318,88.84 152.458,89.009 
				152.616,89.164 152.786,89.304 152.968,89.428 153.16,89.532 153.357,89.625 153.568,89.695 153.784,89.743 154.001,89.77 
				154.223,89.785 154.438,89.77 154.659,89.743 154.87,89.695 155.08,89.625 155.285,89.532 155.473,89.428 155.658,89.304 
				155.827,89.164 155.98,89.009 156.118,88.84 156.247,88.657 156.354,88.464 156.44,88.266 156.512,88.055 156.565,87.838 
				156.593,87.622 156.605,87.401 			"/>
			<polygon fill-rule="evenodd" clip-rule="evenodd" fill="#1C181B" points="140.885,85.102 136.197,84.28 133.925,97.183 
				138.62,98.005 140.885,85.102 			"/>
			<polygon fill-rule="evenodd" clip-rule="evenodd" fill="#1C181B" points="163.635,96.821 159.717,99.53 152.258,88.755 
				156.177,86.048 163.635,96.821 			"/>
			<polygon fill-rule="evenodd" clip-rule="evenodd" fill="#1C181B" points="167.729,73.271 163.938,75.009 159.546,65.623 
				163.406,63.856 167.729,73.271 			"/>
			<polygon fill-rule="evenodd" clip-rule="evenodd" fill="#1C181B" points="153.993,55.503 144.471,55.503 144.471,74.564 
				153.993,74.564 153.993,55.503 			"/>
			<polygon fill-rule="evenodd" clip-rule="evenodd" fill="#1C181B" points="162.947,63.207 160.079,66.234 152.563,59.103 
				155.433,56.076 162.947,63.207 			"/>
			<polygon fill-rule="evenodd" clip-rule="evenodd" fill="#1C181B" points="148.692,76.072 140.383,86.208 136.697,83.185 
				145.009,73.05 148.692,76.072 			"/>
			<polygon fill-rule="evenodd" clip-rule="evenodd" fill="#1C181B" points="153.95,74.089 149.282,75.033 151.886,87.876 
				156.553,86.932 153.95,74.089 			"/>
		</g>
		<path fill="#ED1C24" d="M146.375,36.16c-20.496,0-37.114,16.607-37.114,37.106c0,20.495,16.618,37.116,37.114,37.116
			s37.11-16.622,37.11-37.116C183.485,52.767,166.871,36.16,146.375,36.16 M146.375,102.91c-16.372,0-29.641-13.271-29.641-29.644
			c0-6.798,2.313-13.04,6.165-18.042l41.507,41.527C159.409,100.604,153.172,102.91,146.375,102.91 M169.85,91.327L128.324,49.8
			c5-3.858,11.244-6.176,18.051-6.176c16.372,0,29.641,13.274,29.641,29.643C176.016,80.072,173.702,86.315,169.85,91.327"/>
	</g>
</g>
</svg>
