<?xml version="1.0" encoding="utf-8"?>
<!-- Generator: Adobe Illustrator 16.0.0, SVG Export Plug-In . SVG Version: 6.00 Build 0)  -->
<!DOCTYPE svg PUBLIC "-//W3C//DTD SVG 1.1//EN" "http://www.w3.org/Graphics/SVG/1.1/DTD/svg11.dtd">
<svg version="1.1" id="Layer_1" xmlns="http://www.w3.org/2000/svg" xmlns:xlink="http://www.w3.org/1999/xlink" x="0px" y="0px"
	 width="200px" height="200px" viewBox="0 0 200 200" enable-background="new 0 0 200 200" xml:space="preserve">
<rect x="5" y="25.75" fill="#FFFFFF" width="190" height="61.75"/>
<path fill="none" stroke="#1C181B" d="M195,87.5 M5,87.5h190V25.75H5V87.5z"/>
<rect x="9.749" y="30.499" fill="#056BB3" width="180.502" height="52.251"/>
<path fill="#FFFFFF" d="M23.706,60.881c0,3.265,2.542,4.534,5.425,4.534c1.89,0,4.777-0.548,4.777-3.055
	c0-2.647-3.675-3.097-7.284-4.055c-3.641-0.962-7.315-2.371-7.315-6.975c0-5.016,4.739-7.42,9.172-7.42
	c5.115,0,9.823,2.232,9.823,7.901h-5.22c-0.173-2.956-2.27-3.709-4.844-3.709c-1.718,0-3.711,0.722-3.711,2.783
	c0,1.888,1.168,2.13,7.318,3.708c1.786,0.448,7.281,1.583,7.281,7.148c0,4.499-3.537,7.865-10.202,7.865
	c-5.426,0-10.511-2.68-10.442-8.726"/>
<path fill="#FFFFFF" d="M46.824,48.515h-4.878v-4.019h4.878V48.515z M41.946,51.261h4.878v17.761h-4.878V51.261z"/>
<path fill="#FFFFFF" d="M56.854,51.261h3.573v3.265h-3.573v8.793c0,1.651,0.413,2.062,2.062,2.062c0.514,0,0.997-0.034,1.511-0.138
	v3.813c-0.823,0.137-1.89,0.173-2.851,0.173c-2.988,0-5.6-0.688-5.6-4.226V54.526h-2.954v-3.265h2.954v-5.323h4.878"/>
<path fill="#FFFFFF" d="M66.782,61.326c0.138,3.095,1.649,4.502,4.362,4.502c1.959,0,3.538-1.201,3.848-2.302h4.294
	c-1.373,4.19-4.294,5.978-8.313,5.978c-5.602,0-9.069-3.848-9.069-9.344c0-5.324,3.673-9.378,9.069-9.378
	c6.047,0,8.966,5.084,8.623,10.544 M74.717,58.237c-0.446-2.474-1.51-3.78-3.881-3.78c-3.094,0-3.985,2.405-4.054,3.78H74.717z"/>
<path fill="#FFFFFF" d="M100.653,50.782c5.6,0,9.206,3.709,9.206,9.378c0,5.634-3.606,9.344-9.206,9.344
	c-5.565,0-9.174-3.71-9.174-9.344C91.479,54.491,95.088,50.782,100.653,50.782 M100.653,65.828c3.33,0,4.328-2.852,4.328-5.668
	c0-2.851-0.998-5.703-4.328-5.703c-3.3,0-4.294,2.852-4.294,5.703C96.359,62.976,97.354,65.828,100.653,65.828"/>
<path fill="#FFFFFF" d="M114.085,54.526h-2.921v-3.265h2.921v-1.372c0-3.127,1.957-5.393,5.941-5.393
	c0.857,0,1.751,0.103,2.578,0.138v3.64c-0.585-0.069-1.171-0.103-1.789-0.103c-1.305,0-1.853,0.55-1.853,2.027v1.063h3.366v3.265
	h-3.366v14.496h-4.878"/>
<path fill="#FFFFFF" d="M125.523,54.526h-2.919v-3.265h2.919v-1.372c0-3.127,1.957-5.393,5.942-5.393
	c0.857,0,1.752,0.103,2.577,0.138v3.64c-0.586-0.069-1.169-0.103-1.789-0.103c-1.303,0-1.853,0.55-1.853,2.027v1.063h3.366v3.265
	h-3.366v14.496h-4.878"/>
<path fill="#FFFFFF" d="M140.911,48.515h-4.879v-4.019h4.879V48.515z M136.032,51.261h4.879v17.761h-4.879V51.261z"/>
<path fill="#FFFFFF" d="M156.852,57.515c-0.31-1.993-1.579-3.058-3.606-3.058c-3.126,0-4.158,3.162-4.158,5.773
	c0,2.543,0.998,5.598,4.053,5.598c2.271,0,3.574-1.441,3.884-3.604h4.704c-0.616,4.704-3.88,7.28-8.552,7.28
	c-5.359,0-8.968-3.778-8.968-9.103c0-5.532,3.3-9.619,9.069-9.619c4.191,0,8.038,2.199,8.35,6.733"/>
<path fill="#FFFFFF" d="M168.495,61.326c0.137,3.095,1.65,4.502,4.364,4.502c1.958,0,3.538-1.201,3.849-2.302H181
	c-1.373,4.19-4.292,5.978-8.314,5.978c-5.597,0-9.069-3.848-9.069-9.344c0-5.324,3.679-9.378,9.069-9.378
	c6.048,0,8.968,5.084,8.624,10.544 M176.433,58.237c-0.446-2.474-1.514-3.78-3.885-3.78c-3.089,0-3.984,2.405-4.053,3.78H176.433z"
	/>
<rect x="5" y="112.5" fill="#FFFFFF" width="190" height="61.75"/>
<path fill="none" stroke="#1C181B" d="M195,174.25 M5.001,174.25H195V112.5H5.001V174.25z"/>
<rect x="9.749" y="117.252" fill="#056BB3" width="180.502" height="52.252"/>
<path fill="#FFFFFF" d="M25.877,128.553h12.065c4.009,0,6.549,3.281,6.549,7.263c0,3.097-1.067,5.421-3.542,6.6v0.073
	c2.412,0.736,3.101,3.504,3.26,6.158c0.093,1.656,0.061,4.754,0.939,6.229h-4.919c-0.596-1.66-0.534-4.203-0.786-6.303
	c-0.345-2.766-1.253-3.98-3.728-3.98h-4.921v10.283h-4.919 M30.797,140.461h5.39c2.195,0,3.384-1.104,3.384-3.758
	c0-2.547-1.189-3.653-3.384-3.653h-5.39V140.461z"/>
<path fill="#FFFFFF" d="M51.699,146.619c0.125,3.316,1.502,4.828,3.98,4.828c1.784,0,3.227-1.291,3.509-2.471h3.917
	c-1.255,4.496-3.917,6.414-7.583,6.414c-5.109,0-8.272-4.129-8.272-10.025c0-5.717,3.353-10.065,8.272-10.065
	c5.515,0,8.179,5.458,7.863,11.319 M58.935,143.299c-0.406-2.654-1.376-4.055-3.54-4.055c-2.821,0-3.634,2.58-3.697,4.055H58.935z"
	/>
<path fill="#FFFFFF" d="M77.049,142.525c-0.281-2.139-1.443-3.281-3.291-3.281c-2.851,0-3.793,3.394-3.793,6.193
	c0,2.729,0.91,6.01,3.698,6.01c2.07,0,3.26-1.547,3.543-3.873h4.292c-0.564,5.055-3.541,7.816-7.802,7.816
	c-4.889,0-8.18-4.057-8.18-9.77c0-5.936,3.008-10.321,8.271-10.321c3.826,0,7.333,2.358,7.616,7.226"/>
<path fill="#FFFFFF" d="M87.671,146.619c0.126,3.316,1.504,4.828,3.98,4.828c1.786,0,3.225-1.291,3.508-2.471h3.916
	c-1.253,4.496-3.916,6.414-7.581,6.414c-5.107,0-8.274-4.129-8.274-10.025c0-5.717,3.354-10.065,8.274-10.065
	c5.516,0,8.179,5.458,7.864,11.319 M94.911,143.299c-0.408-2.654-1.38-4.055-3.542-4.055c-2.821,0-3.636,2.58-3.698,4.055H94.911z"
	/>
<path fill="#FFFFFF" d="M101.991,135.815h4.23v2.434h0.062c1.065-2.028,2.821-2.949,4.825-2.949c5.075,0,7.364,4.831,7.364,10.247
	c0,5.086-2.381,9.844-7.115,9.844c-1.94,0-3.79-0.994-4.855-2.875h-0.062v9.068h-4.45 M114.022,145.4
	c0-3.023-1.032-6.156-3.883-6.156c-2.915,0-3.855,3.061-3.855,6.156c0,3.1,1.003,6.047,3.885,6.047
	C113.085,151.447,114.022,148.5,114.022,145.4"/>
<path fill="#FFFFFF" d="M126.777,135.815h3.26v3.502h-3.26v9.437c0,1.773,0.376,2.213,1.88,2.213c0.472,0,0.91-0.037,1.38-0.146
	v4.09c-0.753,0.152-1.724,0.186-2.601,0.186c-2.728,0-5.11-0.736-5.11-4.535v-11.243h-2.692v-3.502h2.692v-5.714h4.451"/>
<path fill="#FFFFFF" d="M136.743,132.868h-4.451v-4.315h4.451V132.868z M132.292,135.815h4.451v19.058h-4.451V135.815z"/>
<path fill="#FFFFFF" d="M148.118,135.3c5.106,0,8.396,3.983,8.396,10.065c0,6.043-3.29,10.025-8.396,10.025
	c-5.078,0-8.367-3.982-8.367-10.025C139.751,139.283,143.04,135.3,148.118,135.3 M148.118,151.447c3.037,0,3.945-3.061,3.945-6.082
	c0-3.061-0.908-6.121-3.945-6.121c-3.01,0-3.918,3.061-3.918,6.121C144.2,148.387,145.108,151.447,148.118,151.447"/>
<path fill="#FFFFFF" d="M159.396,135.815h4.231v2.654h0.092c1.129-2.139,3.071-3.17,4.953-3.17c4.731,0,5.923,3.134,5.923,7.853
	v11.723h-4.451V144.11c0-3.134-0.782-4.681-2.853-4.681c-2.41,0-3.444,1.583-3.444,5.455v9.99h-4.451"/>
</svg>
