<?xml version="1.0" encoding="utf-8"?>
<!-- Generator: Adobe Illustrator 16.0.0, SVG Export Plug-In . SVG Version: 6.00 Build 0)  -->
<!DOCTYPE svg PUBLIC "-//W3C//DTD SVG 1.1//EN" "http://www.w3.org/Graphics/SVG/1.1/DTD/svg11.dtd">
<svg version="1.1" id="Layer_1" xmlns="http://www.w3.org/2000/svg" xmlns:xlink="http://www.w3.org/1999/xlink" x="0px" y="0px"
	 width="200px" height="200px" viewBox="0 0 200 200" enable-background="new 0 0 200 200" xml:space="preserve">
<g>
	<rect x="36.667" y="5" fill="#FFF200" stroke="#1C181B" width="126.665" height="190"/>
	<path fill="#1C181B" d="M100.452,15.408c20.331,0,36.862,16.943,36.862,37.008c0,20.19-16.395,36.863-36.862,36.863
		c-20.607,0-36.873-16.397-36.873-36.863C63.579,31.949,80.126,15.408,100.452,15.408"/>
	<path fill="#FFF200" d="M100.687,30.157c5.843,0,11.378,2.314,15.584,6.521c4.247,4.247,6.585,9.837,6.585,15.738
		c0,12.226-9.945,22.171-22.169,22.171c-5.979,0-11.561-2.29-15.722-6.451c-4.163-4.163-6.455-9.745-6.455-15.72
		c0-5.96,2.318-11.56,6.522-15.768C89.219,32.463,94.781,30.157,100.687,30.157 M77.085,52.416c0,6.354,2.441,12.294,6.874,16.728
		c4.428,4.43,10.371,6.866,16.728,6.866c6.293,0,12.21-2.452,16.665-6.905c4.467-4.469,6.928-10.394,6.928-16.688
		c0-6.281-2.486-12.229-7.004-16.745c-4.474-4.475-10.365-6.938-16.589-6.938C87.672,28.733,77.085,39.357,77.085,52.416z"/>
	<polygon fill="#FFF200" points="82.216,69.754 82.216,42.433 92.385,28.71 96.376,28.71 96.376,69.754 	"/>
	<path fill="#FFF200" d="M100.452,80.35h18.671l0.021-4.822l1.778-0.007l4.919,6.18c-3.865,3.356-8.417,5.952-13.44,7.561
		l-0.006,1.203h24.538V71.115l-2.566-0.004c-1.324,2.424-2.9,4.688-4.695,6.757l-4.403-5.262c0,0-1.549-2.44-4.065-2.44h-17.089
		V26.115l-0.542-0.947V13.375h-6.243v11.793l-0.542,0.947v44.051H79.699c-2.514,0-4.064,2.44-4.064,2.44l-4.405,5.262
		c-1.795-2.068-3.37-4.333-4.694-6.757l-2.566,0.004v19.349h24.538l-0.003-1.203c-5.025-1.608-9.58-4.204-13.444-7.561l4.921-6.18
		l1.779,0.007l0.021,4.822H100.452z"/>
	<path fill="#FFF200" d="M100.452,80.35h18.671l0.021-4.822l1.778-0.007l4.919,6.18c-3.865,3.356-8.417,5.952-13.44,7.561
		l-0.006,1.203h24.538V71.115l-2.566-0.004c-1.324,2.424-2.9,4.688-4.695,6.757l-4.403-5.262c0,0-1.549-2.44-4.065-2.44h-17.089
		V26.115l-0.542-0.947V13.375h-6.243v11.793l-0.542,0.947v44.051H79.699c-2.514,0-4.064,2.44-4.064,2.44l-4.405,5.262
		c-1.795-2.068-3.37-4.333-4.694-6.757l-2.566,0.004v19.349h24.538l-0.003-1.203c-5.025-1.608-9.58-4.204-13.444-7.561l4.921-6.18
		l1.779,0.007l0.021,4.822H100.452z"/>
	<path fill="none" stroke="#1C181B" stroke-width="0.858" d="M100.452,80.35h18.671l0.021-4.822l1.778-0.007l4.919,6.18
		c-3.865,3.356-8.417,5.952-13.44,7.561l-0.006,1.203h24.538V71.115l-2.566-0.004c-1.324,2.424-2.9,4.688-4.695,6.757l-4.403-5.262
		c0,0-1.549-2.44-4.065-2.44h-17.089V26.115l-0.542-0.947V13.375h-6.243v11.793l-0.542,0.947v44.051H79.699
		c-2.514,0-4.064,2.44-4.064,2.44l-4.405,5.262c-1.795-2.068-3.37-4.333-4.694-6.757l-2.566,0.004v19.349h24.538l-0.003-1.203
		c-5.025-1.608-9.58-4.204-13.444-7.561l4.921-6.18l1.779,0.007l0.021,4.822H100.452z"/>
	<polygon fill="#FFF200" points="118.744,69.722 118.744,42.397 108.577,28.674 104.584,28.674 104.584,69.722 	"/>
	<path fill="#1C181B" d="M69.824,102.555c-0.126-1.06-0.987-1.862-1.974-1.862c-1.786,0-2.456,1.788-2.456,3.65
		c0,1.771,0.67,3.56,2.456,3.56c1.214,0,1.897-0.985,2.05-2.386h1.925c-0.203,2.651-1.761,4.35-3.975,4.35
		c-2.798,0-4.444-2.455-4.444-5.523c0-3.16,1.646-5.616,4.444-5.616c1.986,0,3.658,1.368,3.898,3.828H69.824z"/>
	<path fill="#1C181B" d="M72.915,104.28c0.1-1.979,1.608-2.574,3.076-2.574c1.303,0,2.875,0.342,2.875,2.188v4.009
		c0,0.699,0.063,1.399,0.228,1.713h-1.821c-0.065-0.238-0.115-0.492-0.128-0.747c-0.57,0.7-1.406,0.955-2.203,0.955
		c-1.24,0-2.229-0.731-2.229-2.309c0-1.744,1.115-2.16,2.229-2.339c1.101-0.195,2.126-0.148,2.126-1.013
		c0-0.908-0.531-1.044-1.164-1.044c-0.684,0-1.127,0.329-1.192,1.161H72.915z M77.067,105.845c-0.303,0.312-0.937,0.329-1.495,0.446
		c-0.555,0.137-1.062,0.359-1.062,1.135c0,0.789,0.518,0.98,1.101,0.98c1.405,0,1.456-1.309,1.456-1.771V105.845z"/>
	<path fill="#1C181B" d="M80.258,101.914h1.709v1.428h0.026c0.328-0.966,1.214-1.636,2.089-1.636c0.127,0,0.278,0.027,0.393,0.074
		v1.964c-0.166-0.043-0.432-0.074-0.646-0.074c-1.318,0-1.772,1.119-1.772,2.473v3.473h-1.799V101.914z"/>
	<path fill="#1C181B" d="M86.578,107.112c0.011,0.924,0.67,1.294,1.379,1.294c0.517,0,1.176-0.238,1.176-0.98
		c0-0.641-0.746-0.864-2.039-1.193c-1.039-0.267-2.076-0.7-2.076-2.055c0-1.966,1.443-2.472,2.848-2.472
		c1.43,0,2.747,0.563,2.888,2.457h-1.709c-0.052-0.821-0.584-1.044-1.229-1.044c-0.404,0-1.002,0.089-1.002,0.717
		c0,0.758,1.013,0.863,2.039,1.145c1.052,0.285,2.076,0.731,2.076,2.16c0,2.025-1.491,2.683-2.986,2.683c-1.52,0-3-0.67-3.076-2.711
		H86.578z"/>
	<path fill="#1C181B" d="M95.501,101.914h1.709v0.981h0.026c0.432-0.817,1.14-1.189,1.95-1.189c2.051,0,2.977,1.949,2.977,4.139
		c0,2.058-0.965,3.979-2.875,3.979c-0.786,0-1.535-0.404-1.963-1.161H97.3v3.664h-1.799V101.914z M100.364,105.787
		c0-1.222-0.419-2.487-1.571-2.487c-1.177,0-1.557,1.236-1.557,2.487s0.406,2.44,1.57,2.44
		C99.984,108.228,100.364,107.038,100.364,105.787z"/>
	<path fill="#1C181B" d="M103.16,104.28c0.102-1.979,1.609-2.574,3.076-2.574c1.304,0,2.875,0.342,2.875,2.188v4.009
		c0,0.699,0.062,1.399,0.228,1.713h-1.821c-0.065-0.238-0.115-0.492-0.129-0.747c-0.567,0.7-1.404,0.955-2.202,0.955
		c-1.24,0-2.229-0.731-2.229-2.309c0-1.744,1.115-2.16,2.229-2.339c1.101-0.195,2.126-0.148,2.126-1.013
		c0-0.908-0.53-1.044-1.164-1.044c-0.683,0-1.126,0.329-1.189,1.161H103.16z M107.312,105.845c-0.304,0.312-0.936,0.329-1.493,0.446
		c-0.557,0.137-1.062,0.359-1.062,1.135c0,0.789,0.519,0.98,1.101,0.98c1.404,0,1.455-1.309,1.455-1.771V105.845z"/>
	<path fill="#1C181B" d="M110.504,101.914h1.709v1.428h0.026c0.329-0.966,1.214-1.636,2.089-1.636c0.125,0,0.277,0.027,0.393,0.074
		v1.964c-0.166-0.043-0.432-0.074-0.646-0.074c-1.316,0-1.771,1.119-1.771,2.473v3.473h-1.799V101.914z"/>
	<polygon fill="#1C181B" points="115.594,98.979 117.391,98.979 117.391,104.683 119.658,101.914 121.785,101.914 119.318,104.742 
		122.064,109.615 119.886,109.615 118.088,106.174 117.391,106.964 117.391,109.615 115.594,109.615 	"/>
	<path fill="#1C181B" d="M124.18,106.278c0.051,1.339,0.607,1.949,1.606,1.949c0.723,0,1.304-0.521,1.419-0.998h1.58
		c-0.504,1.819-1.58,2.594-3.062,2.594c-2.062,0-3.342-1.67-3.342-4.053c0-2.307,1.355-4.064,3.342-4.064
		c2.229,0,3.305,2.204,3.179,4.572H124.18z M127.103,104.938c-0.163-1.073-0.557-1.639-1.43-1.639c-1.14,0-1.468,1.043-1.493,1.639
		H127.103z"/>
	<path fill="#1C181B" d="M134.636,108.63h-0.026c-0.415,0.836-1.15,1.193-1.986,1.193c-1.976,0-2.936-1.996-2.936-4.126
		c0-2.07,0.973-3.991,2.896-3.991c0.774,0,1.534,0.387,1.951,1.146h-0.012h0.025v-3.873h1.796v10.636h-1.709V108.63z M133.066,103.3
		c-1.179,0-1.58,1.191-1.58,2.455c0,1.209,0.467,2.473,1.58,2.473c1.191,0,1.543-1.221,1.543-2.485
		C134.609,104.491,134.231,103.3,133.066,103.3z"/>
	<path fill="#1C181B" d="M62.792,114.341h1.799v4.007h0.038c0.456-0.866,1.24-1.281,1.912-1.281c1.912,0,2.392,1.264,2.392,3.172
		v4.737h-1.798v-4.35c0-1.266-0.317-1.892-1.15-1.892c-0.974,0-1.393,0.641-1.393,2.205v4.036h-1.799V114.341z"/>
	<path fill="#1C181B" d="M71.781,121.639c0.052,1.339,0.607,1.95,1.609,1.95c0.721,0,1.303-0.521,1.417-0.998h1.583
		c-0.506,1.818-1.583,2.593-3.064,2.593c-2.063,0-3.343-1.67-3.343-4.053c0-2.307,1.356-4.064,3.343-4.064
		c2.23,0,3.306,2.204,3.178,4.572H71.781z M74.706,120.298c-0.164-1.072-0.556-1.638-1.431-1.638c-1.138,0-1.467,1.042-1.494,1.638
		H74.706z"/>
	<path fill="#1C181B" d="M77.568,117.274h1.709v1.429h0.024c0.33-0.967,1.216-1.637,2.089-1.637c0.128,0,0.279,0.027,0.393,0.074
		v1.965c-0.166-0.043-0.43-0.075-0.644-0.075c-1.318,0-1.773,1.119-1.773,2.473v3.473h-1.798V117.274z"/>
	<path fill="#1C181B" d="M83.975,121.639c0.05,1.339,0.607,1.95,1.606,1.95c0.723,0,1.305-0.521,1.418-0.998h1.583
		c-0.507,1.818-1.583,2.593-3.065,2.593c-2.063,0-3.342-1.67-3.342-4.053c0-2.307,1.355-4.064,3.342-4.064
		c2.229,0,3.307,2.204,3.178,4.572H83.975z M86.897,120.298c-0.162-1.072-0.554-1.638-1.43-1.638c-1.138,0-1.467,1.042-1.493,1.638
		H86.897z"/>
	<polygon fill="#1C181B" points="100.763,124.976 98.916,124.976 97.75,119.805 97.724,119.805 96.609,124.976 94.749,124.976 
		92.673,117.274 94.57,117.274 95.775,122.501 95.801,122.501 96.89,117.274 98.634,117.274 99.75,122.488 99.774,122.488 
		100.979,117.274 102.826,117.274 	"/>
	<path fill="#1C181B" d="M105.435,116.081h-1.799v-1.742h1.799V116.081z M103.638,117.274h1.798v7.701h-1.798V117.274z"/>
	<path fill="#1C181B" d="M109.129,117.274h1.319v1.415h-1.319v3.812c0,0.715,0.154,0.896,0.761,0.896
		c0.192,0,0.366-0.017,0.559-0.06v1.651c-0.306,0.062-0.696,0.075-1.052,0.075c-1.101,0-2.063-0.299-2.063-1.831v-4.543h-1.089
		v-1.415h1.089v-2.309h1.796V117.274z"/>
	<path fill="#1C181B" d="M111.309,114.341h1.799v4.007h0.037c0.453-0.866,1.24-1.281,1.91-1.281c1.914,0,2.395,1.264,2.395,3.172
		v4.737h-1.799v-4.35c0-1.266-0.316-1.892-1.15-1.892c-0.977,0-1.393,0.641-1.393,2.205v4.036h-1.799V114.341z"/>
	<path fill="#1C181B" d="M121.994,117.066c2.062,0,3.393,1.608,3.393,4.064c0,2.444-1.33,4.053-3.393,4.053
		c-2.053,0-3.38-1.608-3.38-4.053C118.614,118.675,119.941,117.066,121.994,117.066 M121.994,123.589
		c1.227,0,1.594-1.237,1.594-2.458c0-1.234-0.367-2.471-1.594-2.471c-1.217,0-1.585,1.236-1.585,2.471
		C120.409,122.352,120.777,123.589,121.994,123.589z"/>
	<path fill="#1C181B" d="M132.689,124.976h-1.709v-1.074h-0.037c-0.454,0.863-1.24,1.282-2.001,1.282
		c-1.911,0-2.394-1.268-2.394-3.172v-4.737h1.799v4.35c0,1.265,0.316,1.89,1.15,1.89c0.979,0,1.394-0.639,1.394-2.202v-4.037h1.798
		V124.976z"/>
	<path fill="#1C181B" d="M136.336,117.274h1.318v1.415h-1.318v3.812c0,0.715,0.152,0.896,0.76,0.896c0.191,0,0.368-0.017,0.559-0.06
		v1.651c-0.307,0.062-0.697,0.075-1.051,0.075c-1.102,0-2.064-0.299-2.064-1.831v-4.543h-1.09v-1.415h1.09v-2.309h1.797V117.274z"/>
	<path fill="#1C181B" d="M49.239,135.002c0.103-1.979,1.609-2.575,3.076-2.575c1.304,0,2.875,0.343,2.875,2.188v4.009
		c0,0.7,0.063,1.399,0.228,1.713h-1.821c-0.063-0.238-0.115-0.491-0.128-0.747c-0.567,0.7-1.405,0.955-2.202,0.955
		c-1.24,0-2.229-0.731-2.229-2.308c0-1.745,1.115-2.161,2.229-2.339c1.102-0.196,2.126-0.149,2.126-1.013
		c0-0.909-0.53-1.045-1.164-1.045c-0.683,0-1.126,0.329-1.19,1.162H49.239z M53.391,136.565c-0.304,0.312-0.937,0.33-1.493,0.447
		c-0.557,0.136-1.063,0.359-1.063,1.134c0,0.789,0.52,0.98,1.101,0.98c1.405,0,1.456-1.309,1.456-1.771V136.565z"/>
	<path fill="#1C181B" d="M62.723,140.336h-1.709v-1.075h-0.037c-0.457,0.864-1.24,1.283-2.002,1.283
		c-1.91,0-2.392-1.268-2.392-3.172v-4.737h1.799v4.35c0,1.265,0.316,1.89,1.15,1.89c0.977,0,1.393-0.638,1.393-2.202v-4.037h1.799
		V140.336z"/>
	<path fill="#1C181B" d="M66.368,132.635h1.319v1.415h-1.319v3.812c0,0.715,0.153,0.896,0.76,0.896c0.192,0,0.369-0.017,0.559-0.06
		v1.651c-0.306,0.062-0.697,0.075-1.05,0.075c-1.102,0-2.065-0.299-2.065-1.831v-4.543h-1.089v-1.415h1.089v-2.309h1.796V132.635z"
		/>
	<path fill="#1C181B" d="M68.547,129.701h1.798v4.007h0.038c0.454-0.866,1.24-1.281,1.912-1.281c1.912,0,2.392,1.264,2.392,3.172
		v4.737h-1.798v-4.35c0-1.266-0.316-1.892-1.15-1.892c-0.976,0-1.393,0.641-1.393,2.205v4.036h-1.798V129.701z"/>
	<path fill="#1C181B" d="M79.232,132.427c2.065,0,3.393,1.608,3.393,4.064c0,2.444-1.328,4.053-3.393,4.053
		c-2.05,0-3.379-1.608-3.379-4.053C75.853,134.035,77.182,132.427,79.232,132.427 M79.232,138.949c1.227,0,1.596-1.237,1.596-2.458
		c0-1.234-0.369-2.471-1.596-2.471c-1.215,0-1.583,1.236-1.583,2.471C77.649,137.712,78.017,138.949,79.232,138.949z"/>
	<path fill="#1C181B" d="M83.788,132.635h1.709v1.429h0.026c0.33-0.967,1.214-1.637,2.089-1.637c0.128,0,0.279,0.027,0.393,0.074
		v1.965c-0.166-0.043-0.43-0.075-0.646-0.075c-1.318,0-1.772,1.119-1.772,2.473v3.473h-1.799V132.635z"/>
	<path fill="#1C181B" d="M90.563,131.442h-1.796v-1.743h1.796V131.442z M88.765,132.635h1.798v7.701h-1.798V132.635z"/>
	<path fill="#1C181B" d="M93.373,137.834c0.013,0.923,0.67,1.293,1.379,1.293c0.518,0,1.177-0.238,1.177-0.98
		c0-0.641-0.745-0.864-2.039-1.193c-1.037-0.267-2.076-0.7-2.076-2.054c0-1.967,1.443-2.473,2.849-2.473
		c1.432,0,2.748,0.564,2.887,2.458h-1.709c-0.05-0.821-0.583-1.045-1.229-1.045c-0.404,0-1,0.09-1,0.717
		c0,0.758,1.013,0.864,2.039,1.145c1.05,0.285,2.076,0.732,2.076,2.16c0,2.026-1.493,2.683-2.988,2.683
		c-1.519,0-2.999-0.67-3.076-2.71H93.373z"/>
	<path fill="#1C181B" d="M98.702,135.002c0.102-1.979,1.61-2.575,3.078-2.575c1.303,0,2.875,0.343,2.875,2.188v4.009
		c0,0.7,0.063,1.399,0.227,1.713h-1.822c-0.064-0.238-0.113-0.491-0.127-0.747c-0.57,0.7-1.405,0.955-2.204,0.955
		c-1.24,0-2.227-0.731-2.227-2.308c0-1.745,1.113-2.161,2.227-2.339c1.103-0.196,2.128-0.149,2.128-1.013
		c0-0.909-0.531-1.045-1.164-1.045c-0.684,0-1.128,0.329-1.191,1.162H98.702z M102.855,136.565c-0.303,0.312-0.938,0.33-1.495,0.447
		c-0.557,0.136-1.062,0.359-1.062,1.134c0,0.789,0.518,0.98,1.1,0.98c1.404,0,1.457-1.309,1.457-1.771V136.565z"/>
	<path fill="#1C181B" d="M108.324,132.635h1.318v1.415h-1.318v3.812c0,0.715,0.152,0.896,0.76,0.896c0.191,0,0.368-0.017,0.559-0.06
		v1.651c-0.307,0.062-0.697,0.075-1.051,0.075c-1.102,0-2.064-0.299-2.064-1.831v-4.543h-1.09v-1.415h1.09v-2.309h1.797V132.635z"/>
	<path fill="#1C181B" d="M112.352,131.442h-1.797v-1.743h1.797V131.442z M110.553,132.635h1.799v7.701h-1.799V132.635z"/>
	<path fill="#1C181B" d="M116.945,132.427c2.064,0,3.394,1.608,3.394,4.064c0,2.444-1.329,4.053-3.394,4.053
		c-2.049,0-3.379-1.608-3.379-4.053C113.566,134.035,114.896,132.427,116.945,132.427 M116.945,138.949
		c1.229,0,1.596-1.237,1.596-2.458c0-1.234-0.367-2.471-1.596-2.471c-1.215,0-1.584,1.236-1.584,2.471
		C115.361,137.712,115.73,138.949,116.945,138.949z"/>
	<path fill="#1C181B" d="M121.502,132.635h1.709v1.073h0.039c0.457-0.866,1.24-1.281,2-1.281c1.912,0,2.393,1.264,2.393,3.172v4.737
		h-1.799v-4.35c0-1.266-0.316-1.892-1.15-1.892c-0.974,0-1.393,0.641-1.393,2.205v4.036h-1.799V132.635z"/>
	<path fill="#1C181B" d="M132.453,135.002c0.104-1.979,1.609-2.575,3.078-2.575c1.303,0,2.873,0.343,2.873,2.188v4.009
		c0,0.7,0.064,1.399,0.229,1.713h-1.822c-0.063-0.238-0.115-0.491-0.127-0.747c-0.569,0.7-1.405,0.955-2.204,0.955
		c-1.239,0-2.228-0.731-2.228-2.308c0-1.745,1.114-2.161,2.228-2.339c1.103-0.196,2.128-0.149,2.128-1.013
		c0-0.909-0.533-1.045-1.164-1.045c-0.686,0-1.128,0.329-1.191,1.162H132.453z M136.607,136.565
		c-0.304,0.312-0.937,0.33-1.495,0.447c-0.557,0.136-1.062,0.359-1.062,1.134c0,0.789,0.518,0.98,1.099,0.98
		c1.405,0,1.458-1.309,1.458-1.771V136.565z"/>
	<path fill="#1C181B" d="M139.799,132.635h1.707v1.429h0.025c0.33-0.967,1.215-1.637,2.09-1.637c0.129,0,0.279,0.027,0.393,0.074
		v1.965c-0.166-0.043-0.43-0.075-0.646-0.075c-1.317,0-1.771,1.119-1.771,2.473v3.473h-1.797V132.635z"/>
	<path fill="#1C181B" d="M146.205,136.999c0.051,1.339,0.607,1.95,1.607,1.95c0.722,0,1.303-0.521,1.418-0.998h1.582
		c-0.506,1.818-1.582,2.593-3.063,2.593c-2.063,0-3.343-1.67-3.343-4.053c0-2.307,1.356-4.064,3.343-4.064
		c2.228,0,3.304,2.204,3.179,4.572H146.205z M149.129,135.658c-0.164-1.072-0.557-1.638-1.431-1.638
		c-1.14,0-1.467,1.042-1.493,1.638H149.129z"/>
	<path fill="#1C181B" d="M44.851,146.802h-1.796v-1.742h1.796V146.802z M43.054,147.995h1.798v7.701h-1.798V147.995z"/>
	<path fill="#1C181B" d="M46.191,150.362c0.103-1.979,1.609-2.575,3.076-2.575c1.305,0,2.875,0.343,2.875,2.188v4.009
		c0,0.7,0.065,1.399,0.228,1.713h-1.821c-0.063-0.238-0.115-0.491-0.126-0.747c-0.57,0.7-1.406,0.955-2.205,0.955
		c-1.24,0-2.227-0.731-2.227-2.308c0-1.745,1.113-2.16,2.227-2.339c1.102-0.196,2.128-0.149,2.128-1.013
		c0-0.909-0.533-1.045-1.164-1.045c-0.685,0-1.128,0.329-1.192,1.162H46.191z M50.345,151.926c-0.304,0.313-0.937,0.33-1.495,0.447
		c-0.557,0.136-1.062,0.359-1.062,1.133c0,0.79,0.518,0.982,1.099,0.982c1.405,0,1.458-1.309,1.458-1.771V151.926z"/>
	<path fill="#1C181B" d="M53.535,145.062h1.798v3.872h0.026c0.441-0.789,1.253-1.146,2.063-1.146c1.306,0,2.709,1.236,2.709,4.05
		c0,2.832-1.404,4.067-2.709,4.067c-0.962,0-1.759-0.344-2.152-1.193h-0.026v0.985h-1.709V145.062z M56.8,149.381
		c-1.061,0-1.53,1.177-1.53,2.471c0,1.283,0.469,2.457,1.53,2.457c1.065,0,1.534-1.174,1.534-2.457
		C58.334,150.558,57.865,149.381,56.8,149.381z"/>
	<path fill="#1C181B" d="M66.019,152.359c0.05,1.339,0.607,1.949,1.606,1.949c0.723,0,1.304-0.521,1.419-0.997h1.581
		c-0.505,1.818-1.581,2.593-3.063,2.593c-2.065,0-3.342-1.67-3.342-4.053c0-2.307,1.354-4.064,3.342-4.064
		c2.229,0,3.305,2.204,3.178,4.572H66.019z M68.941,151.019c-0.164-1.072-0.556-1.638-1.432-1.638c-1.138,0-1.467,1.042-1.491,1.638
		H68.941z"/>
	<path fill="#1C181B" d="M77.601,147.995h1.318v1.415h-1.318v3.812c0,0.715,0.152,0.896,0.759,0.896
		c0.192,0,0.369-0.018,0.559-0.061v1.651c-0.306,0.062-0.697,0.075-1.05,0.075c-1.102,0-2.064-0.299-2.064-1.831v-4.543h-1.089
		v-1.415h1.089v-2.308h1.796V147.995z"/>
	<path fill="#1C181B" d="M82.958,147.787c2.064,0,3.392,1.608,3.392,4.064c0,2.444-1.328,4.053-3.392,4.053
		c-2.05,0-3.379-1.608-3.379-4.053C79.579,149.396,80.908,147.787,82.958,147.787 M82.958,154.309c1.227,0,1.595-1.236,1.595-2.457
		c0-1.234-0.369-2.471-1.595-2.471c-1.216,0-1.583,1.236-1.583,2.471C81.375,153.072,81.742,154.309,82.958,154.309z"/>
	<path fill="#1C181B" d="M91.035,145.062h1.798v3.872h0.026c0.441-0.789,1.251-1.146,2.063-1.146c1.303,0,2.709,1.236,2.709,4.05
		c0,2.832-1.406,4.067-2.709,4.067c-0.964,0-1.759-0.344-2.152-1.193h-0.026v0.985h-1.709V145.062z M94.3,149.381
		c-1.062,0-1.53,1.177-1.53,2.471c0,1.283,0.469,2.457,1.53,2.457c1.063,0,1.532-1.174,1.532-2.457
		C95.833,150.558,95.363,149.381,94.3,149.381z"/>
	<path fill="#1C181B" d="M100.251,152.359c0.052,1.339,0.607,1.949,1.608,1.949c0.721,0,1.303-0.521,1.417-0.997h1.583
		c-0.507,1.818-1.583,2.593-3.065,2.593c-2.063,0-3.342-1.67-3.342-4.053c0-2.307,1.355-4.064,3.342-4.064
		c2.23,0,3.307,2.204,3.179,4.572H100.251z M103.176,151.019c-0.164-1.072-0.557-1.638-1.432-1.638
		c-1.138,0-1.467,1.042-1.493,1.638H103.176z"/>
	<path fill="#1C181B" d="M114.014,150.706c-0.115-0.863-0.582-1.325-1.329-1.325c-1.153,0-1.532,1.368-1.532,2.502
		c0,1.103,0.367,2.426,1.494,2.426c0.836,0,1.316-0.623,1.431-1.562h1.735c-0.229,2.039-1.432,3.157-3.154,3.157
		c-1.974,0-3.303-1.638-3.303-3.947c0-2.397,1.213-4.17,3.342-4.17c1.543,0,2.962,0.951,3.076,2.919H114.014z"/>
	<path fill="#1C181B" d="M120.015,150.362c0.101-1.979,1.608-2.575,3.075-2.575c1.304,0,2.875,0.343,2.875,2.188v4.009
		c0,0.7,0.064,1.399,0.227,1.713h-1.822c-0.063-0.238-0.113-0.491-0.127-0.747c-0.569,0.7-1.405,0.955-2.203,0.955
		c-1.24,0-2.228-0.731-2.228-2.308c0-1.745,1.114-2.16,2.228-2.339c1.102-0.196,2.127-0.149,2.127-1.013
		c0-0.909-0.531-1.045-1.163-1.045c-0.684,0-1.126,0.329-1.192,1.162H120.015z M124.166,151.926
		c-0.303,0.313-0.937,0.33-1.494,0.447c-0.558,0.136-1.062,0.359-1.062,1.133c0,0.79,0.519,0.982,1.102,0.982
		c1.405,0,1.455-1.309,1.455-1.771V151.926z"/>
	<path fill="#1C181B" d="M127.408,147.995h1.695v1.041h0.027c0.467-0.787,1.15-1.249,1.999-1.249c0.825,0,1.557,0.357,1.912,1.281
		c0.38-0.671,1.063-1.281,1.976-1.281c1.393,0,2.393,0.76,2.393,2.755v5.154h-1.799v-4.364c0-1.027-0.076-1.877-1.101-1.877
		c-1.013,0-1.202,0.981-1.202,1.951v4.29h-1.799v-4.321c0-0.893,0.052-1.92-1.09-1.92c-0.354,0-1.213,0.269-1.213,1.771v4.471
		h-1.799V147.995z"/>
	<path fill="#1C181B" d="M138.828,147.995h1.71v0.981h0.026c0.43-0.817,1.139-1.189,1.949-1.189c2.05,0,2.975,1.949,2.975,4.139
		c0,2.058-0.963,3.979-2.875,3.979c-0.785,0-1.531-0.403-1.962-1.161h-0.024v3.664h-1.799V147.995z M143.689,151.868
		c0-1.222-0.416-2.487-1.569-2.487c-1.177,0-1.556,1.236-1.556,2.487s0.403,2.44,1.566,2.44
		C143.311,154.309,143.689,153.119,143.689,151.868z"/>
	<path fill="#1C181B" d="M148.045,152.359c0.052,1.339,0.607,1.949,1.607,1.949c0.722,0,1.305-0.521,1.418-0.997h1.583
		c-0.507,1.818-1.583,2.593-3.065,2.593c-2.062,0-3.342-1.67-3.342-4.053c0-2.307,1.355-4.064,3.342-4.064
		c2.23,0,3.307,2.204,3.179,4.572H148.045z M150.971,151.019c-0.164-1.072-0.558-1.638-1.433-1.638
		c-1.138,0-1.468,1.042-1.493,1.638H150.971z"/>
	<path fill="#1C181B" d="M158.502,154.711h-0.025c-0.417,0.836-1.15,1.193-1.988,1.193c-1.973,0-2.936-1.996-2.936-4.125
		c0-2.07,0.975-3.992,2.898-3.992c0.773,0,1.532,0.388,1.951,1.146h-0.014h0.027v-3.872h1.795v10.635h-1.709V154.711z
		 M156.934,149.381c-1.179,0-1.582,1.191-1.582,2.456c0,1.208,0.467,2.472,1.582,2.472c1.189,0,1.543-1.221,1.543-2.485
		C158.477,150.572,158.1,149.381,156.934,149.381z"/>
	<path fill="#1C181B" d="M57.316,165.723c0.101-1.979,1.609-2.575,3.076-2.575c1.303,0,2.875,0.343,2.875,2.188v4.009
		c0,0.7,0.063,1.4,0.227,1.713h-1.821c-0.065-0.238-0.116-0.491-0.128-0.746c-0.568,0.699-1.406,0.954-2.203,0.954
		c-1.24,0-2.229-0.731-2.229-2.309c0-1.744,1.116-2.159,2.229-2.338c1.1-0.195,2.126-0.149,2.126-1.013
		c0-0.909-0.531-1.045-1.164-1.045c-0.683,0-1.126,0.329-1.189,1.162H57.316z M61.468,167.286c-0.304,0.312-0.937,0.33-1.495,0.447
		c-0.555,0.136-1.062,0.359-1.062,1.134c0,0.789,0.518,0.981,1.101,0.981c1.406,0,1.456-1.309,1.456-1.771V167.286z"/>
	<path fill="#1C181B" d="M64.659,163.355h1.709v1.072h0.039c0.456-0.865,1.241-1.28,2-1.28c1.912,0,2.393,1.265,2.393,3.173v4.736
		h-1.799v-4.35c0-1.266-0.316-1.892-1.15-1.892c-0.976,0-1.393,0.641-1.393,2.205v4.036h-1.798V163.355z"/>
	<path fill="#1C181B" d="M76.838,170.071h-0.026c-0.415,0.836-1.15,1.193-1.986,1.193c-1.976,0-2.937-1.995-2.937-4.125
		c0-2.071,0.974-3.992,2.899-3.992c0.772,0,1.532,0.388,1.949,1.146h-0.011h0.024v-3.872h1.796v10.635h-1.709V170.071z
		 M75.268,164.741c-1.178,0-1.581,1.191-1.581,2.456c0,1.208,0.467,2.473,1.581,2.473c1.192,0,1.543-1.222,1.543-2.486
		C76.812,165.933,76.434,164.741,75.268,164.741z"/>
	<path fill="#1C181B" d="M87.878,166.066c-0.115-0.863-0.583-1.325-1.329-1.325c-1.152,0-1.533,1.368-1.533,2.502
		c0,1.103,0.367,2.427,1.493,2.427c0.838,0,1.317-0.624,1.432-1.562h1.735c-0.229,2.039-1.432,3.157-3.154,3.157
		c-1.973,0-3.303-1.638-3.303-3.947c0-2.397,1.214-4.17,3.342-4.17c1.544,0,2.962,0.951,3.076,2.919H87.878z"/>
	<path fill="#1C181B" d="M90.69,160.422h1.797v4.006h0.039c0.455-0.865,1.24-1.28,1.91-1.28c1.914,0,2.392,1.265,2.392,3.173v4.736
		h-1.796v-4.35c0-1.266-0.316-1.892-1.153-1.892c-0.974,0-1.392,0.641-1.392,2.205v4.036H90.69V160.422z"/>
	<path fill="#1C181B" d="M98.121,165.723c0.1-1.979,1.608-2.575,3.076-2.575c1.303,0,2.874,0.343,2.874,2.188v4.009
		c0,0.7,0.063,1.4,0.228,1.713h-1.821c-0.065-0.238-0.116-0.491-0.128-0.746c-0.568,0.699-1.406,0.954-2.203,0.954
		c-1.24,0-2.229-0.731-2.229-2.309c0-1.744,1.115-2.159,2.229-2.338c1.101-0.195,2.127-0.149,2.127-1.013
		c0-0.909-0.531-1.045-1.164-1.045c-0.684,0-1.126,0.329-1.19,1.162H98.121z M102.273,167.286c-0.304,0.312-0.938,0.33-1.496,0.447
		c-0.555,0.136-1.062,0.359-1.062,1.134c0,0.789,0.518,0.981,1.101,0.981c1.406,0,1.457-1.309,1.457-1.771V167.286z"/>
	<path fill="#1C181B" d="M105.464,163.355h1.71v1.429h0.025c0.328-0.967,1.214-1.637,2.089-1.637c0.125,0,0.277,0.027,0.394,0.074
		v1.964c-0.166-0.042-0.433-0.074-0.646-0.074c-1.318,0-1.773,1.119-1.773,2.473v3.473h-1.798V163.355z"/>
	<path fill="#1C181B" d="M116.682,170.565c0,1.266-0.38,3.411-3.393,3.411c-1.292,0-2.799-0.717-2.887-2.473h1.785
		c0.164,0.789,0.709,1.055,1.342,1.055c1,0,1.456-0.802,1.445-1.904v-1.013h-0.026c-0.394,0.803-1.179,1.189-1.964,1.189
		c-1.963,0-2.797-1.758-2.797-3.872c0-1.996,0.976-3.812,2.81-3.812c0.862,0,1.519,0.343,1.951,1.236h0.026v-1.028h1.707V170.565z
		 M114.975,167.107c0-1.249-0.369-2.366-1.535-2.366c-1.012,0-1.455,1.043-1.455,2.189c0,1.103,0.354,2.309,1.455,2.309
		C114.467,169.239,114.975,168.21,114.975,167.107z"/>
	<path fill="#1C181B" d="M119.606,167.72c0.051,1.339,0.606,1.95,1.606,1.95c0.723,0,1.304-0.521,1.42-0.999h1.58
		c-0.504,1.82-1.58,2.594-3.062,2.594c-2.064,0-3.343-1.67-3.343-4.053c0-2.308,1.356-4.064,3.343-4.064
		c2.229,0,3.305,2.204,3.178,4.572H119.606z M122.529,166.38c-0.164-1.073-0.557-1.639-1.43-1.639c-1.139,0-1.469,1.043-1.493,1.639
		H122.529z"/>
	<path fill="#1C181B" d="M130.062,170.071h-0.025c-0.416,0.836-1.15,1.193-1.986,1.193c-1.977,0-2.938-1.995-2.938-4.125
		c0-2.071,0.975-3.992,2.898-3.992c0.772,0,1.533,0.388,1.951,1.146h-0.014h0.025v-3.872h1.797v10.635h-1.709V170.071z
		 M128.493,164.741c-1.179,0-1.581,1.191-1.581,2.456c0,1.208,0.468,2.473,1.581,2.473c1.19,0,1.544-1.222,1.544-2.486
		C130.037,165.933,129.659,164.741,128.493,164.741z"/>
	<path fill="#1C181B" d="M136.57,165.723c0.102-1.979,1.608-2.575,3.076-2.575c1.305,0,2.875,0.343,2.875,2.188v4.009
		c0,0.7,0.064,1.4,0.227,1.713h-1.821c-0.063-0.238-0.115-0.491-0.126-0.746c-0.57,0.699-1.406,0.954-2.205,0.954
		c-1.24,0-2.227-0.731-2.227-2.309c0-1.744,1.113-2.159,2.227-2.338c1.103-0.195,2.128-0.149,2.128-1.013
		c0-0.909-0.532-1.045-1.163-1.045c-0.686,0-1.129,0.329-1.191,1.162H136.57z M140.724,167.286c-0.305,0.312-0.937,0.33-1.494,0.447
		c-0.558,0.136-1.062,0.359-1.062,1.134c0,0.789,0.518,0.981,1.098,0.981c1.406,0,1.458-1.309,1.458-1.771V167.286z"/>
	<path fill="#1C181B" d="M67.489,178.717h1.709v1.428h0.024c0.33-0.967,1.216-1.637,2.089-1.637c0.127,0,0.279,0.027,0.393,0.075
		v1.963c-0.166-0.042-0.43-0.074-0.644-0.074c-1.318,0-1.774,1.119-1.774,2.473v3.473h-1.797V178.717z"/>
	<path fill="#1C181B" d="M73.896,183.081c0.05,1.338,0.607,1.949,1.606,1.949c0.723,0,1.304-0.521,1.419-0.998h1.583
		c-0.506,1.818-1.583,2.594-3.064,2.594c-2.062,0-3.342-1.671-3.342-4.054c0-2.307,1.355-4.064,3.342-4.064
		c2.229,0,3.305,2.204,3.178,4.573H73.896z M76.819,181.74c-0.164-1.072-0.556-1.639-1.43-1.639c-1.14,0-1.467,1.043-1.493,1.639
		H76.819z"/>
	<path fill="#1C181B" d="M84.428,183.081c0.052,1.338,0.607,1.949,1.609,1.949c0.721,0,1.303-0.521,1.417-0.998h1.583
		c-0.507,1.818-1.583,2.594-3.065,2.594c-2.063,0-3.342-1.671-3.342-4.054c0-2.307,1.355-4.064,3.342-4.064
		c2.23,0,3.307,2.204,3.178,4.573H84.428z M87.354,181.74c-0.164-1.072-0.557-1.639-1.432-1.639c-1.138,0-1.467,1.043-1.494,1.639
		H87.354z"/>
	<path fill="#1C181B" d="M90.139,181.083c0.101-1.979,1.609-2.575,3.076-2.575c1.303,0,2.875,0.343,2.875,2.188v4.009
		c0,0.7,0.063,1.4,0.227,1.713h-1.822c-0.063-0.238-0.114-0.491-0.127-0.746c-0.57,0.699-1.406,0.955-2.203,0.955
		c-1.24,0-2.229-0.732-2.229-2.31c0-1.744,1.115-2.159,2.229-2.338c1.1-0.195,2.126-0.149,2.126-1.013
		c0-0.909-0.531-1.045-1.164-1.045c-0.683,0-1.126,0.329-1.191,1.162H90.139z M94.291,182.647c-0.304,0.312-0.937,0.329-1.496,0.446
		c-0.554,0.136-1.061,0.359-1.061,1.134c0,0.79,0.518,0.981,1.101,0.981c1.406,0,1.456-1.31,1.456-1.771V182.647z"/>
	<path fill="#1C181B" d="M98.875,183.915c0.013,0.923,0.67,1.294,1.38,1.294c0.519,0,1.177-0.239,1.177-0.981
		c0-0.641-0.745-0.864-2.04-1.194c-1.037-0.266-2.076-0.699-2.076-2.053c0-1.966,1.443-2.473,2.849-2.473
		c1.432,0,2.748,0.564,2.888,2.458h-1.709c-0.051-0.821-0.583-1.045-1.229-1.045c-0.404,0-1,0.089-1,0.717
		c0,0.758,1.013,0.864,2.038,1.146c1.05,0.285,2.077,0.731,2.077,2.159c0,2.025-1.494,2.684-2.989,2.684
		c-1.519,0-2.999-0.671-3.076-2.711H98.875z"/>
	<path fill="#1C181B" d="M105.762,183.081c0.053,1.338,0.607,1.949,1.609,1.949c0.72,0,1.303-0.521,1.416-0.998h1.583
		c-0.507,1.818-1.583,2.594-3.065,2.594c-2.062,0-3.342-1.671-3.342-4.054c0-2.307,1.355-4.064,3.342-4.064
		c2.231,0,3.308,2.204,3.179,4.573H105.762z M108.688,181.74c-0.164-1.072-0.558-1.639-1.432-1.639
		c-1.139,0-1.469,1.043-1.494,1.639H108.688z"/>
	<path fill="#1C181B" d="M115.461,180.132h-1.076v-1.415h1.076v-0.596c0-1.356,0.722-2.339,2.189-2.339
		c0.318,0,0.647,0.044,0.951,0.06v1.578c-0.217-0.029-0.432-0.044-0.66-0.044c-0.481,0-0.683,0.238-0.683,0.879v0.462h1.239v1.415
		h-1.239v6.285h-1.798V180.132z"/>
	<path fill="#1C181B" d="M120.767,183.081c0.05,1.338,0.606,1.949,1.606,1.949c0.723,0,1.304-0.521,1.42-0.998h1.58
		c-0.504,1.818-1.58,2.594-3.062,2.594c-2.063,0-3.343-1.671-3.343-4.054c0-2.307,1.355-4.064,3.343-4.064
		c2.229,0,3.305,2.204,3.178,4.573H120.767z M123.689,181.74c-0.164-1.072-0.557-1.639-1.43-1.639c-1.14,0-1.467,1.043-1.493,1.639
		H123.689z"/>
	<path fill="#1C181B" d="M128.033,183.081c0.051,1.338,0.607,1.949,1.607,1.949c0.722,0,1.305-0.521,1.418-0.998h1.583
		c-0.507,1.818-1.583,2.594-3.064,2.594c-2.063,0-3.343-1.671-3.343-4.054c0-2.307,1.355-4.064,3.343-4.064
		c2.23,0,3.307,2.204,3.178,4.573H128.033z M130.957,181.74c-0.162-1.072-0.556-1.639-1.431-1.639c-1.138,0-1.468,1.043-1.493,1.639
		H130.957z"/>
	<rect x="39.788" y="145.061" fill-rule="evenodd" clip-rule="evenodd" fill="#1C181B" width="1.799" height="10.637"/>
	
		<rect x="39.788" y="145.061" fill="none" stroke="#1C181B" stroke-width="0.0483" stroke-miterlimit="22.9256" width="1.799" height="10.637"/>
	<rect x="61.321" y="145.061" fill-rule="evenodd" clip-rule="evenodd" fill="#1C181B" width="1.799" height="10.637"/>
	
		<rect x="61.321" y="145.061" fill="none" stroke="#1C181B" stroke-width="0.0483" stroke-miterlimit="22.9256" width="1.799" height="10.637"/>
	<rect x="116.875" y="145.061" fill-rule="evenodd" clip-rule="evenodd" fill="#1C181B" width="1.799" height="10.637"/>
	
		<rect x="116.875" y="145.061" fill="none" stroke="#1C181B" stroke-width="0.0483" stroke-miterlimit="22.9256" width="1.799" height="10.637"/>
	<rect x="79.733" y="175.781" fill-rule="evenodd" clip-rule="evenodd" fill="#1C181B" width="1.798" height="10.637"/>
	
		<rect x="79.733" y="175.781" fill="none" stroke="#1C181B" stroke-width="0.0483" stroke-miterlimit="22.9256" width="1.798" height="10.637"/>
</g>
</svg>
