<?xml version="1.0" encoding="utf-8"?>
<!-- Generator: Adobe Illustrator 16.0.0, SVG Export Plug-In . SVG Version: 6.00 Build 0)  -->
<!DOCTYPE svg PUBLIC "-//W3C//DTD SVG 1.1//EN" "http://www.w3.org/Graphics/SVG/1.1/DTD/svg11.dtd">
<svg version="1.1" id="Layer_1" xmlns="http://www.w3.org/2000/svg" xmlns:xlink="http://www.w3.org/1999/xlink" x="0px" y="0px"
	 width="200px" height="200px" viewBox="0 0 200 200" enable-background="new 0 0 200 200" xml:space="preserve">
<g>
	<rect x="4.999" y="28.151" fill="#FFFFFF" width="190.002" height="143.699"/>
	<path fill="none" stroke="#1C181B" d="M195.001,171.85 M5.003,171.85h189.998V28.151H5.003V171.85z"/>
	<rect x="11.635" y="79.417" fill="#FFF200" width="176.311" height="87.013"/>
	<path fill="#1C181B" d="M40.211,102.102c-0.451-3.213-3.529-5.659-7.06-5.659c-6.385,0-8.785,5.433-8.785,11.092
		c0,5.389,2.4,10.82,8.785,10.82c4.344,0,6.79-2.986,7.333-7.244h6.883c-0.726,8.061-6.293,13.223-14.216,13.223
		c-10.006,0-15.893-7.471-15.893-16.799c0-9.599,5.887-17.066,15.893-17.066c7.105,0,13.082,4.163,13.944,11.632"/>
	<path fill="#1C181B" d="M51.259,107.354c0.364-6.02,5.751-7.83,11.003-7.83c4.662,0,10.276,1.041,10.276,6.656v12.176
		c0,2.129,0.226,4.256,0.816,5.207h-6.521c-0.225-0.725-0.408-1.496-0.451-2.264c-2.039,2.129-5.025,2.895-7.88,2.895
		c-4.435,0-7.967-2.215-7.967-7.014c0-5.299,3.983-6.568,7.967-7.109c3.94-0.586,7.608-0.451,7.608-3.08
		c0-2.762-1.902-3.166-4.168-3.166c-2.442,0-4.027,0.994-4.254,3.529 M66.11,112.107c-1.088,0.953-3.351,1-5.343,1.359
		c-1.993,0.408-3.804,1.088-3.804,3.439c0,2.402,1.856,2.99,3.938,2.99c5.025,0,5.208-3.984,5.208-5.389V112.107z"/>
	<path fill="#1C181B" d="M99.476,123.562h-6.111v-3.26h-0.136c-1.632,2.627-4.438,3.891-7.154,3.891
		c-6.836,0-8.557-3.842-8.557-9.639v-14.398h6.43v13.218c0,3.85,1.132,5.75,4.12,5.75c3.485,0,4.979-1.945,4.979-6.701v-12.267h6.43
		"/>
	<path fill="#1C181B" d="M112.514,100.157h4.706v4.3h-4.706v11.588c0,2.174,0.542,2.717,2.716,2.717c0.68,0,1.312-0.045,1.99-0.18
		v5.027c-1.084,0.18-2.49,0.227-3.759,0.227c-3.938,0-7.375-0.906-7.375-5.57v-13.809h-3.895v-4.3h3.895V93.14h6.428"/>
	<path fill="#1C181B" d="M126.911,96.535h-6.428v-5.299h6.428V96.535z M120.483,100.157h6.428v23.406h-6.428V100.157z"/>
	<path fill="#1C181B" d="M143.342,99.524c7.381,0,12.134,4.888,12.134,12.357c0,7.428-4.753,12.312-12.134,12.312
		c-7.333,0-12.087-4.885-12.087-12.312C131.255,104.412,136.009,99.524,143.342,99.524 M143.342,119.352
		c4.396,0,5.706-3.758,5.706-7.471c0-3.756-1.311-7.512-5.706-7.512c-4.344,0-5.659,3.756-5.659,7.512
		C137.683,115.594,138.998,119.352,143.342,119.352"/>
	<path fill="#1C181B" d="M159.641,100.157h6.111v3.259h0.137c1.632-2.625,4.438-3.892,7.154-3.892c6.834,0,8.555,3.845,8.555,9.64
		v14.398h-6.428v-13.219c0-3.85-1.132-5.752-4.122-5.752c-3.484,0-4.979,1.947-4.979,6.705v12.266h-6.428"/>
	<polyline fill="#1C181B" points="22.687,135.988 28.557,135.988 32.992,149.029 33.045,149.029 37.241,135.988 43.111,135.988 
		43.111,154.951 39.207,154.951 39.207,141.514 39.153,141.514 34.506,154.951 31.292,154.951 26.645,141.646 26.592,141.646 
		26.592,154.951 22.687,154.951 	"/>
	<path fill="#1C181B" d="M49.486,149.002c0.106,2.393,1.274,3.48,3.373,3.48c1.514,0,2.735-0.932,2.975-1.779h3.32
		c-1.062,3.24-3.32,4.621-6.428,4.621c-4.329,0-7.012-2.975-7.012-7.225c0-4.117,2.842-7.25,7.012-7.25
		c4.675,0,6.933,3.93,6.667,8.152 M55.622,146.613c-0.346-1.914-1.168-2.924-3.002-2.924c-2.39,0-3.08,1.861-3.134,2.924H55.622z"/>
	<path fill="#1C181B" d="M61.624,141.221h3.586v1.912h0.08c0.956-1.541,2.604-2.283,4.196-2.283c4.011,0,5.02,2.256,5.02,5.656
		v8.445h-3.771v-7.752c0-2.26-0.664-3.375-2.417-3.375c-2.044,0-2.922,1.141-2.922,3.932v7.195h-3.771"/>
	<path fill="#1C181B" d="M84.6,145.445c0.212-3.533,3.373-4.596,6.454-4.596c2.736,0,6.029,0.609,6.029,3.904v7.145
		c0,1.248,0.133,2.496,0.479,3.053h-3.826c-0.132-0.424-0.238-0.877-0.265-1.326c-1.196,1.246-2.948,1.699-4.622,1.699
		c-2.603,0-4.675-1.301-4.675-4.117c0-3.107,2.338-3.85,4.675-4.168c2.311-0.346,4.463-0.268,4.463-1.807
		c0-1.623-1.116-1.857-2.444-1.857c-1.434,0-2.364,0.582-2.496,2.07 M93.312,148.232c-0.639,0.559-1.966,0.584-3.134,0.797
		c-1.17,0.24-2.232,0.639-2.232,2.018c0,1.41,1.09,1.754,2.311,1.754c2.949,0,3.056-2.336,3.056-3.158V148.232z"/>
	<path fill="#1C181B" d="M104.784,141.221h2.764v2.523h-2.764v6.799c0,1.275,0.32,1.594,1.594,1.594c0.4,0,0.769-0.025,1.17-0.104
		v2.947c-0.637,0.104-1.462,0.131-2.207,0.131c-2.311,0-4.327-0.531-4.327-3.268v-8.1h-2.284v-2.523h2.284v-4.117h3.771"/>
	<polyline fill="#1C181B" points="132.434,154.951 128.558,154.951 126.114,145.736 126.058,145.736 123.719,154.951 
		119.818,154.951 115.461,141.221 119.446,141.221 121.969,150.543 122.021,150.543 124.308,141.221 127.973,141.221 
		130.307,150.52 130.358,150.52 132.887,141.221 136.763,141.221 	"/>
	<path fill="#1C181B" d="M145.025,140.85c4.329,0,7.116,2.869,7.116,7.25c0,4.357-2.787,7.225-7.116,7.225
		c-4.306,0-7.093-2.867-7.093-7.225C137.933,143.719,140.72,140.85,145.025,140.85 M145.025,152.482
		c2.575,0,3.344-2.205,3.344-4.383c0-2.203-0.769-4.41-3.344-4.41c-2.552,0-3.32,2.207-3.32,4.41
		C141.705,150.277,142.474,152.482,145.025,152.482"/>
	<path fill="#1C181B" d="M154.585,141.221h3.584v2.549h0.052c0.693-1.725,2.552-2.92,4.386-2.92c0.265,0,0.585,0.053,0.825,0.133
		v3.504c-0.349-0.08-0.905-0.131-1.358-0.131c-2.759,0-3.716,1.992-3.716,4.408v6.188h-3.772"/>
	<polyline fill="#1C181B" points="165.262,135.988 169.034,135.988 169.034,146.162 173.788,141.221 178.249,141.221 
		173.071,146.268 178.834,154.951 174.265,154.951 170.496,148.816 169.034,150.227 169.034,154.951 165.262,154.951 	"/>
	<polyline fill="#FFF200" points="98.285,37.682 78.181,72.708 118.04,72.708 	"/>
	<path fill="#1C181B" d="M121.342,72.913L99.707,34.892c0,0-0.328-0.82-1.398-0.82c-1.064,0-1.56,0.82-1.56,0.82L75.006,72.811
		c0,0-0.551,0.934-0.044,1.811c0,0,0.521,0.862,1.382,0.862H119.7c0,0,1.165,0.034,1.627-0.876
		C121.719,73.849,121.53,73.265,121.342,72.913 M78.577,72.502l19.706-34.338l19.366,34.338H78.577z"/>
	<path fill="#1C181B" d="M94.953,48.339l1.396,13.22c0,0,0.328,1.643,1.697,1.643c1.592,0,1.833-1.615,1.833-1.615l1.45-13.275
		c0,0-0.178-3.202-3.175-3.202C94.956,45.108,94.953,48.339,94.953,48.339"/>
	<path fill="#1C181B" d="M98.195,71.242c1.744,0,3.156-1.412,3.156-3.156c0-1.742-1.412-3.154-3.156-3.154
		c-1.743,0-3.156,1.412-3.156,3.154C95.039,69.83,96.452,71.242,98.195,71.242"/>
</g>
</svg>
