<?xml version="1.0" encoding="UTF-8"?>
<!DOCTYPE svg PUBLIC "-//W3C//DTD SVG 1.1//EN" "http://www.w3.org/Graphics/SVG/1.1/DTD/svg11.dtd">
<!-- Creator: CorelDRAW X8 -->
<svg xmlns="http://www.w3.org/2000/svg" xml:space="preserve" width="200px" height="150px" version="1.1" style="shape-rendering:geometricPrecision; text-rendering:geometricPrecision; image-rendering:optimizeQuality; fill-rule:evenodd; clip-rule:evenodd"
viewBox="0 0 200 150"
 xmlns:xlink="http://www.w3.org/1999/xlink">
 <defs>
  <style type="text/css">
   <![CDATA[
    .str0 {stroke:#2B2A29;stroke-width:0.49961}
    .fil5 {fill:none}
    .fil2 {fill:#FEFEFE;fill-rule:nonzero}
    .fil3 {fill:#2B2A29;fill-rule:nonzero}
    .fil4 {fill:#FFED00;fill-rule:nonzero}
    .fil0 {fill:#FFED00;fill-rule:nonzero}
    .fil1 {fill:#006EC7;fill-rule:nonzero}
   ]]>
  </style>
 </defs>
 <g id="Layer_x0020_3">
  <metadata id="CorelCorpID_0Corel-Layer"/>
  <g id="_920435648">
   <path class="fil0" d="M72 72l105 0c3,0 5,-2 5,-4l0 -48c0,-3 -2,-5 -5,-5l-105 0 0 57z"/>
   <path class="fil1" d="M72 135l106 0c2,0 4,-2 4,-4l0 -49c0,-3 -2,-5 -4,-5l-106 0 0 58z"/>
   <path class="fil1" d="M44 82c14,0 25,11 25,25 0,13 -11,24 -25,24 -14,0 -25,-11 -25,-24 0,-14 11,-25 25,-25z"/>
   <path class="fil2" d="M39 91l2 21c0,0 1,3 3,3 2,0 3,-3 3,-3l2 -21c0,0 0,-5 -5,-5 -5,0 -5,5 -5,5z"/>
   <path class="fil2" d="M44 127c3,0 5,-2 5,-5 0,-2 -2,-5 -5,-5 -3,0 -5,3 -5,5 0,3 2,5 5,5z"/>
   <path class="fil3" d="M96 22l5 0c4,0 6,2 6,7 0,3 -2,6 -6,6l-5 0 0 -13zm3 11l0 0 2 0c2,0 3,-1 3,-4 0,-3 0,-4 -3,-4l-2 0 0 8z"/>
   <path class="fil3" d="M109 29c0,-3 2,-4 4,-4 2,0 5,1 5,3l0 5c0,1 0,2 0,2l-3 0c0,0 0,0 0,-1 -1,1 -2,1 -3,1 -2,0 -3,0 -3,-2 0,-3 1,-3 3,-3 1,-1 3,0 3,-2 0,-1 -1,-1 -2,-1 -1,0 -1,1 -1,2l-3 0zm6 2l0 0c-1,0 -1,0 -2,0 -1,0 -2,1 -2,1 0,1 1,2 2,2 2,0 2,-2 2,-2l0 -1z"/>
   <path class="fil3" d="M120 26l2 0 0 1 0 0c1,-1 2,-2 3,-2 3,0 3,2 3,4l0 6 -2 0 0 -5c0,-2 -1,-2 -2,-2 -1,0 -2,0 -2,2l0 5 -2 0 0 -9z"/>
   <path class="fil3" d="M139 35c0,1 0,4 -5,4 -1,0 -4,-1 -4,-3l3 0c0,1 1,1 2,1 1,0 2,-1 2,-2l0 -2 0 0c-1,1 -2,2 -3,2 -3,0 -4,-2 -4,-5 0,-2 1,-5 4,-5 1,0 2,1 3,2l0 0 0 -1 2 0 0 9zm-2 -5l0 0c0,-1 -1,-3 -2,-3 -2,0 -2,2 -2,3 0,1 0,3 2,3 1,0 2,-1 2,-3z"/>
   <path class="fil3" d="M144 31c0,2 0,2 2,2 1,0 2,0 2,-1l2 0c-1,2 -2,3 -4,3 -3,0 -5,-2 -5,-5 0,-2 2,-5 5,-5 3,0 5,3 4,6l-6 0zm4 -2l0 0c0,-1 -1,-2 -2,-2 -2,0 -2,2 -2,2l4 0z"/>
   <path class="fil3" d="M152 26l2 0 0 1 0 0c1,-1 2,-2 3,-2 1,0 1,1 1,1l0 2c0,0 -1,0 -1,0 -2,0 -3,1 -3,3l0 4 -2 0 0 -9z"/>
   <path class="fil3" d="M84 44c-1,-1 -2,-2 -3,-2 -2,0 -3,2 -3,4 0,2 1,4 3,4 2,0 3,-1 3,-3l2 0c0,3 -2,5 -5,5 -4,0 -6,-3 -6,-6 0,-4 2,-6 6,-6 3,0 5,1 5,4l-2 0z"/>
   <path class="fil3" d="M92 43c3,0 4,2 4,5 0,2 -1,4 -4,4 -3,0 -4,-2 -4,-4 0,-3 1,-5 4,-5zm0 7l0 0c2,0 2,-1 2,-2 0,-2 0,-3 -2,-3 -2,0 -2,1 -2,3 0,1 0,2 2,2z"/>
   <path class="fil3" d="M98 43l2 0 0 1 0 0c1,-1 2,-1 3,-1 2,0 3,1 3,4l0 5 -2 0 0 -5c0,-1 -1,-2 -2,-2 -1,0 -2,1 -2,2l0 5 -2 0 0 -9z"/>
   <path class="fil3" d="M110 49c0,1 1,1 2,1 0,0 1,0 1,-1 0,0 -1,-1 -3,-1 -1,0 -2,-1 -2,-2 0,-2 2,-3 3,-3 2,0 4,1 4,3l-2 0c0,-1 -1,-1 -2,-1 0,0 -1,0 -1,0 0,1 1,1 3,2 1,0 2,0 2,2 0,2 -2,3 -3,3 -2,0 -4,-1 -5,-3l3 0z"/>
   <path class="fil3" d="M120 43l2 0 0 2 -2 0 0 4c0,1 0,1 1,1 0,0 0,0 1,0l0 2c-1,0 -1,0 -2,0 -1,0 -3,0 -3,-2l0 -5 -1 0 0 -2 1 0 0 -2 3 0 0 2z"/>
   <path class="fil3" d="M123 43l2 0 0 2 0 0c0,-1 2,-2 3,-2 0,0 0,0 0,0l0 2c0,0 0,0 -1,0 -1,0 -2,1 -2,3l0 4 -2 0 0 -9z"/>
   <path class="fil3" d="M137 52l-2 0 0 -1 0 0c-1,1 -2,1 -3,1 -2,0 -3,-1 -3,-3l0 -6 3 0 0 5c0,1 0,2 1,2 1,0 2,-1 2,-2l0 -5 2 0 0 9z"/>
   <path class="fil3" d="M145 46c0,-1 -1,-1 -2,-1 -1,0 -2,1 -2,3 0,1 1,2 2,2 1,0 2,0 2,-1l2 0c0,2 -2,3 -4,3 -2,0 -4,-2 -4,-4 0,-3 1,-5 4,-5 2,0 4,1 4,3l-2 0z"/>
   <path class="fil3" d="M152 43l1 0 0 2 -1 0 0 4c0,1 0,1 1,1 0,0 0,0 0,0l0 2c0,0 -1,0 -1,0 -1,0 -3,0 -3,-2l0 -5 -1 0 0 -2 1 0 0 -2 3 0 0 2z"/>
   <path class="fil3" d="M157 42l-2 0 0 -2 2 0 0 2zm-2 1l0 0 2 0 0 9 -2 0 0 -9z"/>
   <path class="fil3" d="M163 43c3,0 5,2 5,5 0,2 -2,4 -5,4 -3,0 -4,-2 -4,-4 0,-3 1,-5 4,-5zm0 7l0 0c2,0 2,-1 2,-2 0,-2 0,-3 -2,-3 -2,0 -2,1 -2,3 0,1 0,2 2,2z"/>
   <path class="fil3" d="M169 43l2 0 0 1 0 0c1,-1 2,-1 3,-1 3,0 3,1 3,4l0 5 -2 0 0 -5c0,-1 -1,-2 -2,-2 -1,0 -2,1 -2,2l0 5 -2 0 0 -9z"/>
   <path class="fil3" d="M115 66c0,1 1,1 1,1 1,0 2,0 2,-1 0,-1 -1,-1 -3,-1 -1,-1 -2,-1 -2,-3 0,-2 2,-2 3,-2 2,0 4,0 4,2l-2 0c0,-1 -1,-1 -2,-1 0,0 -1,0 -1,1 0,1 1,1 3,1 1,1 2,1 2,3 0,2 -2,3 -4,3 -2,0 -3,-1 -4,-3l3 0z"/>
   <path class="fil3" d="M124 59l-2 0 0 -2 2 0 0 2zm-2 1l0 0 2 0 0 9 -2 0 0 -9z"/>
   <path class="fil3" d="M129 60l2 0 0 1 -2 0 0 5c0,1 0,1 1,1 0,0 1,0 1,0l0 2c-1,0 -1,0 -2,0 -1,0 -2,-1 -2,-2l0 -6 -2 0 0 -1 2 0 0 -3 2 0 0 3z"/>
   <path class="fil3" d="M134 65c0,1 1,2 2,2 1,0 2,-1 2,-1l2 0c-1,2 -2,3 -4,3 -3,0 -4,-2 -4,-5 0,-2 1,-4 4,-4 3,0 4,2 4,5l-6 0zm4 -2l0 0c0,-1 -1,-2 -2,-2 -2,0 -2,2 -2,2l4 0z"/>
   <polygon class="fil2" points="79,96 82,96 82,103 89,96 93,96 87,103 94,113 89,113 84,105 82,107 82,113 79,113 "/>
   <path class="fil2" d="M97 108c0,2 1,3 3,3 2,0 3,-1 3,-2l3 0c-1,3 -3,4 -6,4 -4,0 -6,-3 -6,-6 0,-4 3,-6 6,-6 4,0 6,3 6,7l-9 0zm6 -2l0 0c-1,-2 -1,-3 -3,-3 -2,0 -3,2 -3,3l6 0z"/>
   <path class="fil2" d="M110 108c0,2 1,3 3,3 2,0 3,-1 3,-2l3 0c-1,3 -3,4 -6,4 -4,0 -6,-3 -6,-6 0,-4 3,-6 6,-6 4,0 6,3 6,7l-9 0zm6 -2l0 0c-1,-2 -1,-3 -3,-3 -2,0 -3,2 -3,3l6 0z"/>
   <path class="fil2" d="M121 101l3 0 0 1 0 0c1,-1 2,-1 3,-1 4,0 6,3 6,6 0,3 -2,6 -5,6 -2,0 -3,-1 -4,-2l0 0 0 6 -3 0 0 -16zm9 6l0 0c0,-2 -1,-4 -3,-4 -2,0 -3,2 -3,4 0,2 1,4 3,4 2,0 3,-2 3,-4z"/>
   <path class="fil2" d="M147 101c3,0 6,2 6,6 0,4 -3,6 -6,6 -4,0 -6,-2 -6,-6 0,-4 2,-6 6,-6zm0 10l0 0c2,0 3,-2 3,-4 0,-2 -1,-4 -3,-4 -2,0 -3,2 -3,4 0,2 1,4 3,4z"/>
   <path class="fil2" d="M166 113l-3 0 0 -2 0 0c-1,1 -2,2 -4,2 -3,0 -4,-2 -4,-5l0 -7 3 0 0 7c0,1 1,2 2,2 2,0 3,-1 3,-3l0 -6 3 0 0 12z"/>
   <path class="fil2" d="M172 101l3 0 0 2 -3 0 0 6c0,1 1,1 2,1 0,0 1,0 1,0l0 3c-1,0 -1,0 -2,0 -2,0 -4,-1 -4,-3l0 -7 -2 0 0 -2 2 0 0 -4 3 0 0 4z"/>
   <polygon class="fil4" points="44,26 23,63 65,63 "/>
   <path class="fil3" d="M69 63l-23 -40c0,0 0,-1 -2,-1 -1,0 -1,1 -1,1l-24 40c0,0 0,1 0,2 0,0 1,1 2,1l46 0c0,0 1,0 2,-1 0,-1 0,-1 0,-2zm-46 0l0 0 21 -37 21 37 -42 0z"/>
   <path class="fil3" d="M41 37l1 14c0,0 1,2 2,2 2,0 2,-2 2,-2l2 -14c0,0 -1,-3 -4,-3 -3,0 -3,3 -3,3z"/>
   <path class="fil3" d="M44 62c2,0 4,-2 4,-4 0,-2 -2,-3 -4,-3 -2,0 -3,1 -3,3 0,2 1,4 3,4z"/>
  </g>
  <rect class="fil5 str0" x="14" y="10" width="173" height="130"/>
 </g>
</svg>
