<?xml version="1.0" encoding="utf-8"?>
<!-- Generator: Adobe Illustrator 16.0.0, SVG Export Plug-In . SVG Version: 6.00 Build 0)  -->
<!DOCTYPE svg PUBLIC "-//W3C//DTD SVG 1.1//EN" "http://www.w3.org/Graphics/SVG/1.1/DTD/svg11.dtd">
<svg version="1.1" id="Layer_1" xmlns="http://www.w3.org/2000/svg" xmlns:xlink="http://www.w3.org/1999/xlink" x="0px" y="0px"
	 width="200px" height="200px" viewBox="0 0 200 200" enable-background="new 0 0 200 200" xml:space="preserve">
<g>
	<rect x="5.001" y="29.63" fill="#FFF200" width="189.998" height="140.74"/>
	<path fill="none" stroke="#1C181B" d="M194.999,170.37 M5.001,170.37h189.998V29.63H5.001V170.37z"/>
	<path fill="#1C181B" d="M34.646,55.941h10.388c5.748,0,7.974,3.646,7.974,7.392c0,3.743-2.226,7.388-7.974,7.388H39.71v8.265
		h-5.064 M39.71,66.788h3.939c2.354,0,4.453-0.519,4.453-3.455c0-2.94-2.1-3.454-4.453-3.454H39.71V66.788z"/>
	<path fill="#1C181B" d="M55.849,55.941h12.425c4.131,0,6.742,2.873,6.742,6.359c0,2.71-1.096,4.744-3.645,5.777v0.062
		c2.485,0.646,3.193,3.067,3.354,5.387c0.097,1.455,0.067,4.165,0.97,5.458h-5.067c-0.613-1.452-0.548-3.683-0.805-5.519
		c-0.356-2.422-1.292-3.486-3.843-3.486h-5.066v9.005h-5.064 M60.913,66.366h5.552c2.257,0,3.483-0.967,3.483-3.292
		c0-2.226-1.227-3.195-3.483-3.195h-5.552V66.366z"/>
	<line fill="none" stroke="#1C181B" stroke-width="5.0643" x1="81.362" y1="78.982" x2="81.362" y2="55.941"/>
	<polyline fill="#1C181B" points="98.737,78.985 93.023,78.985 85.539,55.941 90.767,55.941 95.898,72.144 95.962,72.144 
		101.158,55.941 106.385,55.941 	"/>
	<path fill="#1C181B" d="M114.322,55.941h5.197l8.616,23.044h-5.261l-1.74-5.133h-8.616l-1.813,5.133h-5.125 M113.842,70.078h5.964
		l-2.904-8.459h-0.058L113.842,70.078z"/>
	<polyline fill="#1C181B" points="134.91,60.199 128.005,60.199 128.005,55.941 146.886,55.941 146.886,60.199 139.977,60.199 
		139.977,78.985 134.91,78.985 	"/>
	<polyline fill="#1C181B" points="149.213,55.941 166.445,55.941 166.445,60.199 154.28,60.199 154.28,65.14 165.441,65.14 
		165.441,69.076 154.28,69.076 154.28,74.726 166.702,74.726 166.702,78.985 149.213,78.985 	"/>
	<path fill="#1C181B" d="M15.057,88.214h10.391c5.746,0,7.972,3.646,7.972,7.393c0,3.743-2.226,7.387-7.972,7.387h-5.326v8.265
		h-5.064 M20.121,99.061h3.939c2.352,0,4.454-0.519,4.454-3.454c0-2.941-2.103-3.455-4.454-3.455h-3.939V99.061z"/>
	<path fill="#1C181B" d="M36.26,88.214h12.425c4.131,0,6.744,2.873,6.744,6.359c0,2.711-1.101,4.744-3.646,5.777v0.063
		c2.484,0.645,3.192,3.066,3.354,5.387c0.098,1.454,0.065,4.165,0.966,5.457h-5.067c-0.611-1.452-0.546-3.683-0.803-5.518
		c-0.358-2.422-1.294-3.486-3.842-3.486h-5.067v9.004H36.26 M41.324,98.639h5.55c2.262,0,3.488-0.967,3.488-3.292
		c0-2.226-1.227-3.195-3.488-3.195h-5.55V98.639z"/>
	<path fill="#1C181B" d="M69.562,87.666c7.131,0,11.329,5.324,11.329,12.166c0,6.65-4.198,11.972-11.329,11.972
		c-7.132,0-11.326-5.321-11.326-11.972C58.236,92.99,62.431,87.666,69.562,87.666 M69.562,107.546c4.551,0,6.263-3.871,6.263-7.714
		c0-4.034-1.712-7.903-6.263-7.903c-4.55,0-6.259,3.869-6.259,7.903C63.304,103.675,65.013,107.546,69.562,107.546"/>
	<path fill="#1C181B" d="M84.021,88.214h10.394c5.743,0,7.97,3.646,7.97,7.393c0,3.743-2.227,7.387-7.97,7.387h-5.329v8.265h-5.064
		 M89.086,99.061h3.939c2.356,0,4.454-0.519,4.454-3.454c0-2.941-2.098-3.455-4.454-3.455h-3.939V99.061z"/>
	<polyline fill="#1C181B" points="105.227,88.214 122.458,88.214 122.458,92.472 110.288,92.472 110.288,97.412 121.455,97.412 
		121.455,101.35 110.288,101.35 110.288,106.998 122.715,106.998 122.715,111.258 105.227,111.258 	"/>
	<path fill="#1C181B" d="M125.813,88.214h12.423c4.131,0,6.749,2.873,6.749,6.359c0,2.711-1.101,4.744-3.651,5.777v0.063
		c2.487,0.645,3.195,3.066,3.36,5.387c0.097,1.454,0.063,4.165,0.965,5.457h-5.066c-0.616-1.452-0.548-3.683-0.806-5.518
		c-0.354-2.422-1.289-3.486-3.845-3.486h-5.066v9.004h-5.062 M130.876,98.639h5.557c2.259,0,3.485-0.967,3.485-3.292
		c0-2.226-1.227-3.195-3.485-3.195h-5.557V98.639z"/>
	<polyline fill="#1C181B" points="153.893,92.472 146.982,92.472 146.982,88.214 165.863,88.214 165.863,92.472 158.959,92.472 
		158.959,111.258 153.893,111.258 	"/>
	<polyline fill="#1C181B" points="174.16,102.285 165.67,88.214 171.382,88.214 176.773,97.315 182.131,88.214 187.774,88.214 
		179.227,102.411 179.227,111.258 174.16,111.258 	"/>
	<polyline fill="#1C181B" points="21.331,120.487 26.397,120.487 26.397,130.042 35.402,120.487 41.727,120.487 32.723,129.588 
		42.6,143.53 36.24,143.53 29.303,133.172 26.397,136.104 26.397,143.53 21.331,143.53 	"/>
	<polyline fill="#1C181B" points="44.309,120.487 61.543,120.487 61.543,124.744 49.376,124.744 49.376,129.686 60.54,129.686 
		60.54,133.622 49.376,133.622 49.376,139.271 61.803,139.271 61.803,143.53 44.309,143.53 	"/>
	<polyline fill="#1C181B" points="64.901,120.487 82.133,120.487 82.133,124.744 69.963,124.744 69.963,129.686 81.13,129.686 
		81.13,133.622 69.963,133.622 69.963,139.271 82.393,139.271 82.393,143.53 64.901,143.53 	"/>
	<path fill="#1C181B" d="M85.491,120.487h10.391c5.747,0,7.972,3.646,7.972,7.392c0,3.743-2.225,7.387-7.972,7.387h-5.324v8.265
		h-5.066 M90.558,131.334h3.938c2.352,0,4.453-0.519,4.453-3.455c0-2.94-2.102-3.454-4.453-3.454h-3.938V131.334z"/>
	<path fill="#1C181B" d="M125.668,119.939c7.133,0,11.326,5.324,11.326,12.165c0,6.65-4.193,11.972-11.326,11.972
		c-7.132,0-11.331-5.321-11.331-11.972C114.337,125.264,118.536,119.939,125.668,119.939 M125.668,139.819
		c4.548,0,6.26-3.872,6.26-7.715c0-4.034-1.712-7.903-6.26-7.903c-4.553,0-6.265,3.869-6.265,7.903
		C119.403,135.947,121.115,139.819,125.668,139.819"/>
	<path fill="#1C181B" d="M159.687,134.817c0,6.229-3.686,9.259-9.848,9.259c-6.191,0-9.809-3.001-9.809-9.259v-14.33h5.066v14.33
		c0,2.52,0.645,5.002,4.742,5.002c3.617,0,4.78-1.581,4.78-5.002v-14.33h5.067"/>
	<polyline fill="#1C181B" points="168.816,124.744 161.907,124.744 161.907,120.487 180.793,120.487 180.793,124.744 
		173.883,124.744 173.883,143.53 168.816,143.53 	"/>
</g>
</svg>
