<?xml version="1.0" encoding="utf-8"?>
<!-- Generator: Adobe Illustrator 16.0.0, SVG Export Plug-In . SVG Version: 6.00 Build 0)  -->
<!DOCTYPE svg PUBLIC "-//W3C//DTD SVG 1.1//EN" "http://www.w3.org/Graphics/SVG/1.1/DTD/svg11.dtd">
<svg version="1.1" id="Layer_1" xmlns="http://www.w3.org/2000/svg" xmlns:xlink="http://www.w3.org/1999/xlink" x="0px" y="0px"
	 width="200px" height="200px" viewBox="0 -25 200 200" enable-background="new 0 -25 200 200" xml:space="preserve">
<g id="Layer_x0020_3">
	<g id="_1181213984">
		<path fill="#E66421" d="M132.923,157.637c-1.377-2.754,1.377-2.754,1.377-5.508c0-1.377,1.377-1.377,1.377-1.377
			c5.508-1.377,9.639-5.508,13.77-6.885c2.754,0,5.508-1.377,8.262,0c-6.885,6.885-15.146,9.639-23.408,13.77
			C134.3,157.637,131.546,160.39,132.923,157.637z"/>
		<path fill="#E66421" d="M44.773,145.244c0-1.377,0-1.377,0-2.754c-1.377,0-1.377,0-2.754,1.377c-1.377-1.377,1.377-4.141,0-5.518
			c0-1.377,1.377,0,1.377,0c0,1.377,2.754,0,4.131,2.764c2.754,0,1.377,4.131,4.136,6.885c1.377,0,2.754,0,2.754,1.377
			c2.754-1.377,4.131,1.377,5.508,2.754s1.377,2.754,1.377,4.131C54.417,153.506,48.904,149.375,44.773,145.244z"/>
		<path fill="#E66421" d="M161.839,132.842c0,0-2.754,2.754-4.131,4.131c0,1.377,0,1.377-1.377,1.377h-1.377L161.839,132.842z"/>
		<path fill="#E66421" d="M36.512,134.219l2.754-1.377l2.754,2.754C40.643,138.35,37.889,135.596,36.512,134.219z"/>
		<path fill="#E66421" d="M32.381,132.842L32.381,132.842l-6.89-8.262c0-4.131,5.513-2.754,6.89-4.131c1.376,0,1.376,0,1.376,0l0,0
			c1.377,0,1.377,1.377,2.754,2.754c0,1.377-1.377,1.377,0,2.754c-1.377,0-1.377,0-2.754,0c0,1.377,1.377,2.754,2.754,4.131
			c-1.377,1.377-1.377,2.754-2.754,2.754C32.381,132.842,32.381,132.842,32.381,132.842z"/>
		<path fill="#E66421" d="M94.354,132.842v-1.377c0,0-1.377,1.377-1.377,0l0,0c0-1.377,0-1.377,0-2.754c0,0,1.377,0,1.377,1.377
			c1.382-2.754,4.136-1.377,4.136-4.131c1.377,1.377,1.377,1.377,2.754,1.377c1.377,1.377,2.754,0,4.131,1.377c0,0,1.377,0,2.754,0
			c2.754-1.377,2.754-5.508,6.885-5.508c1.377,0,2.754-1.377,4.131,0s1.377-1.377,2.754-1.377c4.131-2.754,8.271-5.508,11.025-8.262
			c1.377,0,0,0,1.377,1.377c-1.377,0-2.754,0-2.754,1.377c1.377,4.131-4.141,4.131-5.518,5.508
			c-2.754,1.377-5.508,2.754-6.885,5.508h2.754c2.754-1.377,4.131-1.377,5.508-2.754v1.377c-4.131,2.754-9.639,4.131-15.146,5.508
			l0,0c0-1.377,1.377-1.377,2.754-2.754h-1.377l1.377-2.754c0,0,0,0-1.377,0c-1.377,1.377,0,2.754-2.754,2.754
			c1.377,1.377,1.377,1.377,0,1.377c0,1.377,0,1.377,0,1.377c-4.131,1.377-8.262,1.377-13.77,1.377H94.354z"/>
		<path fill="#E66421" d="M83.338,128.711c-1.377-4.131-6.885-5.508-9.644-8.262c-1.377,0-2.754,2.754-4.131,4.131
			c-1.377-1.377-2.754-2.754-4.131-2.754c1.377,0,1.377-1.377,1.377-1.377l0,0l0,0l-1.377-1.377l0,0c0,0-1.377,1.377-1.377,0
			c0,0,1.377-1.377,0-1.377c1.377-1.377,1.377-2.754,2.754-4.131c1.377,0,1.377-2.754,1.377-4.131s1.377-1.377,1.377-1.377l0,0
			c0,0,0-1.377,1.377,0c0,1.377-1.377,2.754,0,2.754s1.377,0,1.377,1.377c-1.377,0-4.131,0-4.131,2.754
			c1.377,0,2.754,1.377,2.754,2.754l0,0h1.377c0,0,1.377,1.377,2.759,1.377c0,1.377,2.754,1.377,2.754,2.754
			c1.377,0,1.377,0,1.377,1.377l0,0l0,0c0,0-1.377,0,0,0c0,1.377,1.377,0,4.131,0c1.377,1.377,4.131,1.377,6.885,2.754
			c0,1.377-1.377,2.754-1.377,4.131l0,0c0,2.754-1.377,1.377-2.754,1.377C84.715,130.088,83.338,130.088,83.338,128.711z"/>
		<path fill="#E66421" d="M167.346,125.957c1.377-4.131,4.131-6.885,6.895-9.639l0,0c0,0,0,2.754-1.387,2.754
			c0,2.754-2.754,2.754-1.377,5.508c0-2.754,2.764-1.377,1.377-4.131c1.387,0,1.387-1.377,1.387-2.754c0,1.377,0,2.754,0,2.754
			c1.377-1.377,2.754-4.131,4.131-6.885c1.377,0,1.377,0,2.754,0c-2.754,4.131-4.131,6.885-5.508,9.639s-2.764,1.377-4.141,1.377
			H170.1C170.1,125.957,168.723,124.58,167.346,125.957L167.346,125.957z"/>
		<path fill="#E66421" d="M42.02,120.449h-1.377v-1.377c1.377,0,1.377-2.754,2.754-2.754s4.131-1.377,5.508-1.377
			c1.377,1.377,1.377,2.754,1.377,4.131c-1.377,1.377-2.754,2.754-5.508,2.754C44.773,120.449,43.396,119.072,42.02,120.449z"/>
		<path fill="#E66421" d="M53.04,119.072v-1.377c0,0,0,0-1.377,0v1.377c0-1.377-1.382-2.754-1.382-2.754l0,0
			c1.382,0,1.382-1.377,1.382-2.754c1.377-1.377,4.131-2.754,6.885-1.377l-1.377,1.377c0-1.377-1.377,0-1.377,0
			c-1.377,0,0,1.377-1.377,2.754c1.377,0,1.377,1.377,1.377,1.377h1.377l0,0C55.794,119.072,54.417,119.072,53.04,119.072z"/>
		<path fill="#E66421" d="M31.004,114.941c0,0-1.382,0-1.382-1.377c1.382,0,1.382-1.377,0-1.377c2.759,0,1.382-4.131,5.512-2.754
			C35.135,112.188,32.381,113.564,31.004,114.941z M48.904,97.031c-2.754,0-4.131,1.387-6.885,2.764
			c-2.754,0-2.754,4.131-2.754,5.508c-1.377,2.754-4.131,2.754-6.884,2.754c-4.136-2.754-4.136-8.262-6.89-11.025
			c1.377-2.754,1.377-5.508,4.131-6.885c2.759-1.377,5.512,0,6.889,2.754c2.754-1.377,6.885-2.754,9.639-4.131
			c-1.377-1.377-2.754-4.131-5.508-5.508c-2.754-2.754-9.638-2.754-13.774,0h-1.377l1.377-1.377v-1.377l-1.377,1.377
			c-1.377,4.131-5.508,4.131-6.885,8.262c-1.377,1.377,0,2.754-1.377,4.131c0,1.377,0,2.754-1.377,4.141
			c0,1.377-1.377,1.377,0,1.377l0,0l1.377,1.377c-1.377,1.377,0,1.377,0,2.754c1.377,1.377,0,4.131,2.754,4.131
			c0,1.377,1.377,4.131,2.754,2.754c0,1.377,0,1.377,0,1.377c2.754,1.377,4.131,5.508,6.885,2.754
			c1.382,1.377,2.759,1.377,5.512,1.377c5.508,0,11.016-4.131,13.77-9.639C48.904,103.926,50.281,99.795,48.904,97.031z"/>
		<path fill="#E66421" d="M139.808,109.434l-1.377-1.377c2.754-2.754,4.131-6.885,6.885-8.262c4.131-1.377,6.885-5.518,9.639-8.271
			V92.9c-1.377,5.518-5.508,11.025-8.262,16.533c-2.754,1.377-4.131,1.377-5.508,4.131
			C139.808,113.564,139.808,110.811,139.808,109.434z"/>
		<path fill="#E66421" d="M61.302,110.811c1.377,0,2.754-1.377,4.131-1.377c0,1.377-1.377,1.377-1.377,2.754l-1.377,1.377
			C62.679,112.188,58.548,112.188,61.302,110.811z"/>
		<path fill="#E66421" d="M75.076,109.434c1.377,0,1.377,0,2.754,0c-1.377-1.377-1.377-1.377-2.754-1.377
			c0-1.377,1.377-1.377,1.377-1.377s-1.377-1.377,0-1.377c2.754,0,4.131-2.754,6.885-1.377c1.377,1.377,5.508,1.377,8.262,1.377l0,0
			c-5.508,1.377-9.639,2.754-13.77,5.508C76.453,110.811,76.453,109.434,75.076,109.434z"/>
		<path fill="#E66421" d="M181.125,106.68c1.377-1.377,0-2.754,1.377-4.131c1.377,0,1.377-2.754,2.754-1.377
			c0,1.377-1.377,2.754-1.377,5.508C183.879,106.68,182.502,106.68,181.125,106.68z"/>
		<path fill="#E66421" d="M98.489,101.172v-1.377l-1.377,1.377c-1.377,0-1.377-1.377-2.759-1.377v1.377l0,0c0,0,0-1.377-1.377-1.377
			l0,0l0,0c12.397-5.518,26.167-9.648,39.946-15.156c6.885-1.377,13.77-5.508,20.654-6.885l1.377,2.754
			c1.377-1.377,2.754-1.377,2.754,0c-1.377,1.377,0,4.131-1.377,5.508c0,1.377,1.377,4.131-1.377,2.754
			c-1.377,1.377-1.377,2.754-2.754,1.377c-1.377,0-2.754,2.754-4.131,2.754c0-2.754,1.377-5.508,1.377-8.262
			c-2.754,1.377-2.754-2.754-5.508-2.754c-1.377,1.377-2.754,2.754-4.131,4.131c-1.377-1.377-2.754,1.377-2.754,1.377
			c-1.377-1.377-1.377,1.377-2.754,0c0,1.377,1.377,1.377,1.377,1.377c-2.754,1.377-6.885,2.754-9.648,4.131
			c-1.377-1.377-1.377,0-2.754,1.377c-5.508,1.377-9.639,2.754-13.77,4.141c0,0,1.377,0,1.377-1.387l0,0
			c-1.377,1.387-2.754-2.754-4.131,0c1.377,1.387-2.754,1.387-1.377,2.764c-1.377,0-1.377,1.377-1.377,0l0,0c0,0-1.377,0-2.754,0
			h1.377C99.866,99.795,99.866,102.549,98.489,101.172z"/>
		<path fill="#E66421" d="M183.879,98.418L183.879,98.418c0-1.387,1.377-2.764,1.377-4.141v-2.754c1.377,0,1.377,0,1.377,0
			c1.377-1.377-1.377-1.377-1.377-1.377c1.377-2.754,1.377-4.131,2.754-5.508c1.377,2.754,0,5.508,0,8.262
			c-1.377,1.377-1.377,5.518-2.754,6.895C185.256,99.795,185.256,98.418,183.879,98.418z"/>
		<path fill="#E66421" d="M79.207,88.77c-1.377,0-2.754,2.754-4.131,0c0-1.377,0-2.754,1.377-4.131c0,1.377,1.377,2.754,2.754,2.754
			c0,0,1.377,0,0,0C80.584,87.393,79.207,87.393,79.207,88.77z M73.694,92.9c-1.377,2.754-5.508,2.754-8.262,1.377
			c-1.377-1.377-2.754-4.131-2.754-5.508c-1.377-1.377-4.131,0-4.131-1.377c0-2.754,1.377-4.131,2.754-5.508v-1.377l0,0
			c2.754,0,0-2.754,2.754-1.377c1.377-1.377,5.508-1.377,6.885,0C73.694,83.262,76.453,88.77,73.694,92.9z M83.338,91.523
			l1.377,1.377c2.754-6.885,0-13.77-4.131-19.277L79.207,75v-1.377l0,0c0-1.377-1.377-2.754-2.754-2.754
			c-6.89-4.131-13.774-1.377-19.282,2.754c-5.508,2.754-6.89,9.639-6.89,15.146c1.382,1.377,0,2.754,2.759,2.754h-1.377
			c0-2.754,2.754-1.377,2.754-1.377c1.377,1.377,0,4.131-1.377,5.508c2.754,4.141,6.885,8.271,11.016,8.271
			c8.262,1.377,16.528-2.754,20.659-9.648C83.338,92.9,83.338,92.9,81.961,92.9C81.961,92.9,81.961,91.523,83.338,91.523z"/>
		<path fill="#E66421" d="M183.879,83.262c0-4.131,0-6.885,0-9.639c-1.377-2.754-2.754,0-4.131,0c0-1.377,1.377-1.377,0-1.377
			c-2.754-1.377-5.508,0-8.271,1.377C170.1,73.623,170.1,75,170.1,75c0,1.377,1.377,1.377,1.377,1.377
			c-2.754,1.377-6.885,2.754-9.638,4.131h-1.377c1.377-1.377,1.377-2.754,1.377-4.131l0,0c0-1.377-1.377,0-2.754,0
			c1.377-1.377,2.754-2.754,5.507-2.754c1.377-1.377,2.754-2.754,5.508-2.754c5.518-1.377,9.648-4.131,15.156-5.508
			c0,2.754,5.508,0,4.131,2.754c0,4.131,1.377,9.639,0,13.77c-1.377-1.377-1.377,0-2.754,0S183.879,83.262,183.879,83.262z"/>
		<path fill="#E66421" d="M40.643,75c1.377-2.754-4.131-2.754-1.377-5.508c1.377,0,2.754-1.377,4.131-1.377
			c0-2.754-1.377-6.89,2.754-6.89c2.754-1.377,4.131-1.377,5.513-4.131c0,2.754-1.382,5.508-1.382,8.267
			c2.759,0,5.513-1.377,6.89-2.759c0,2.759,2.754,2.759,4.131,1.382c0,0,0,1.377,1.377,0c1.377,0,2.754,0,4.131-1.382l0,0
			c1.377-1.377,1.377,0,2.754,0c0-1.377,2.754,0,4.131-1.377l0,0c0-1.377,2.759-1.377,4.136-4.131c0-1.377,1.377-2.754,4.131-1.377
			c0-2.754,1.377-1.377,2.754-1.377c0,0,0,0,0,1.377c0,2.754-2.754,0-4.131,1.377c-2.754,1.377-5.508,4.131-6.89,6.89l0,0
			C62.679,66.738,51.663,70.869,42.02,75H40.643z"/>
		<path fill="#E66421" d="M108.128,75c-1.377,1.377-2.754,0-4.131,0c0-2.754,1.377-2.754,2.754-4.131c1.377,0,1.377,1.377,2.754,0
			l1.377-1.377c1.377,2.754,2.754,4.131,4.131,5.508C112.259,72.246,110.882,75,108.128,75z M99.866,90.146
			c-1.377,0-2.754,1.377-4.131,0c0-1.377,1.377-1.377,1.377-1.377c0-1.377,1.377,0,2.754,0S99.866,90.146,99.866,90.146z
			 M116.39,72.246v1.377c-1.377,0-1.377,0-2.754,0c0-1.377,1.377-1.377,1.377-1.377v-1.377c0,0-1.377-1.377-2.754-1.377
			c-4.131-2.754-9.639,0-15.146,0c-1.377,0-1.377-1.377-1.377-2.754c1.377,0,1.377-1.377,2.754-1.377s4.131,0,4.131,1.377
			c4.131-1.377,6.885-1.377,9.639-2.754c0-1.382-1.377-2.759-2.754-4.136l0,0c-1.377,0-1.377,1.377-2.754,0c0,0,0-1.377,1.377-1.377
			c-1.377,0-1.377,0-1.377-1.377c-5.508-1.377-11.016,0-15.151,4.131l0,0h1.377v1.377c-1.377,1.382-1.377,0-2.754,0
			c-1.377-1.377-1.377,0-2.754,0c-1.377,4.136-1.377,8.267,0,11.021c4.131,6.885,12.397,4.131,19.282,4.131
			c1.377,0,1.377,1.377,1.377,2.754c-1.377,2.754-2.754,2.754-5.508,2.754c-1.377,0-2.754-1.377-2.754-2.754
			c-4.131,1.377-6.89,2.754-9.644,4.131l0,0c1.377,5.508,6.89,6.885,12.397,6.885s13.77-2.754,16.523-9.639
			C119.144,77.754,119.144,75,116.39,72.246z"/>
		<path fill="#E66421" d="M148.069,73.623c0-1.377,1.377-2.754,2.754-4.131c0-1.377,0-1.377,0-1.377v1.377
			c0,1.377,0,1.377,1.377,1.377C150.823,72.246,149.446,75,148.069,73.623z M126.028,62.603c-1.377,1.382-2.754,2.759-4.131,1.382
			c0-2.759,2.754-2.759,5.508-2.759C127.405,61.226,127.405,62.603,126.028,62.603z M153.577,70.869
			c0-1.377-1.377-2.754-1.377-4.131c0-2.754-1.377-4.136-1.377-5.513l-1.377,1.377l-1.377-1.377c-1.377-1.377,0-2.754,1.377-4.131
			l-5.508-13.77l-1.377-1.382c-2.754,1.382-5.508,1.382-8.262,4.136l0,0c0,1.377,0,2.754,1.377,2.754
			c0,1.377,1.377,4.131,1.377,5.508c-2.754,2.754-5.508,2.754-8.262,4.131c-1.387-1.377-1.387-4.131-4.141-6.885
			c0,0,1.377-2.754,0-2.754c-2.754,1.377-6.885,1.377-9.639,4.131c1.377,1.377,1.377,2.754,1.377,4.131c1.377,0,0,1.377,1.377,1.377
			c0,0,1.377,0,1.377-1.377c0,0-1.377,0-1.377-1.377c1.377-1.377,1.377-1.377,2.754-1.377c5.508,4.131-1.377,4.131-2.754,6.885
			c2.754,8.267,5.508,13.774,8.262,22.036c4.141-1.377,6.895-2.754,9.648-4.131c0-1.377,0-1.377-1.377-2.754
			c0,0-1.377,1.377-2.754,0c1.377,0,1.377-1.377,2.754-1.377c-1.377-2.754-1.377-4.131-2.754-6.885
			c2.754-1.377,5.508-2.754,8.262-2.754c2.754,2.754,4.131,6.885,5.508,11.016c2.754-1.377,6.885-2.754,9.639-4.131L153.577,70.869z
			"/>
		<path fill="#E66421" d="M62.679,61.226c1.377-1.377,4.131-1.377,4.131-1.377c0,1.377-1.377,1.377-1.377,1.377
			C64.056,61.226,64.056,62.603,62.679,61.226z"/>
		<path fill="#E66421" d="M181.125,61.226l-1.377-1.377v-1.377v1.377c2.754-1.377,0-2.754,2.754-2.754v1.377
			c1.377,0,1.377-1.377,1.377,0h1.377C183.879,59.849,182.502,59.849,181.125,61.226z M186.633,51.587
			c-1.377-1.377-1.377-5.508-4.131-5.508c0-1.377,1.377,0,1.377-1.377c-1.377-5.513-4.131-9.644-5.508-15.15
			c-4.131,1.376-6.895,1.376-9.648,2.753c1.377,4.131,2.754,6.885,2.754,11.021c0,1.377-4.131,0-4.131,2.754
			c0-2.754-2.754,0-4.131,0c-1.376,0,0-2.754-1.376-2.754c-1.377-2.759-1.377-5.513-2.754-6.89c-2.754,0-5.508,1.377-8.262,2.754
			l-1.377,1.377l4.131,8.267v1.377c2.754,5.508,4.131,11.016,6.885,17.905c0,5.508,4.13,0,6.884,0c1.377,0,2.754,0,2.754-1.377
			s0-2.754-1.377-2.754h1.377c-1.377-2.759-2.754-5.513-2.754-8.267c1.377-1.377,4.131-2.754,8.271-4.131
			c0,2.754,1.377,4.131,2.754,6.885c0,1.377,0,4.131,1.377,5.513c4.131-1.382,6.885-2.759,9.639-4.136
			C188.01,57.095,186.633,54.341,186.633,51.587z"/>
		<path fill="#E66421" d="M69.563,59.849c0-1.377,1.377-1.377,1.377-1.377c2.754-1.377,4.136-1.377,6.89-2.754
			c-1.377,2.754-5.513,1.377-6.89,4.131l0,0C70.94,61.226,70.94,59.849,69.563,59.849z"/>
		<path fill="#E66421" d="M44.773,57.095c1.377-1.377,4.131,0,4.131-2.754c1.377,2.754-1.377,4.131-1.377,5.508
			c-1.377,0-1.377,0-2.754,0V57.095z"/>
		<path fill="#E66421" d="M84.715,58.472c0,0,0-1.377,1.377-1.377s2.754,0,2.754-1.377l1.377-1.377c-1.377,0-1.377,0-1.377,0
			c0-1.377,0-1.377-1.377-1.377c2.754-1.377,4.131-2.754,5.508-2.754c1.377,1.377,0,1.377,1.377,1.377c0,0-1.377,0-1.377,1.377
			h1.377h1.382l0,0c0-1.377,1.377,0,1.377-1.377l-1.377-1.377c2.754-2.754,8.262-2.754,11.016-5.508
			c5.508,0,8.262-2.759,12.393-4.136c2.754,0,5.508-1.377,8.262-1.377c-1.377,1.377,0,2.754,0,4.136l-1.377-1.382v1.382v1.377
			c-4.131,1.377-8.262,4.131-11.016,0c-1.377,0-2.754,1.377-2.754,1.377c0,1.377-1.377,4.131-2.754,4.131
			c-5.508,1.377-9.639,4.131-15.151,5.508C91.6,57.095,87.469,58.472,84.715,58.472L84.715,58.472z"/>
		<path fill="#E66421" d="M47.527,51.587c5.513-11.021,16.528-23.412,28.926-28.92c5.508-1.377,11.016-2.754,16.523-4.136
			c0,0,1.377,0,2.759,0c2.754,0,8.262-2.754,8.262,2.759c0,1.377,1.377,0,2.754,1.377c1.377-2.754,2.754,1.377,4.131,0
			c0-1.377-1.377-2.754,0-4.136c2.754,1.382,4.131,1.382,6.885,2.759c-1.377,1.377-2.754,1.377-2.754,2.754l0,0
			c0,1.377,0,1.377-1.377,1.377c0,0,1.377,0,1.377-1.377c-1.377,0-1.377,0-1.377,0v1.377c-1.377,0-1.377,0-1.377,0
			c-2.754-1.377-5.508,1.377-5.508-2.754c-1.377,0-1.377,2.754-2.754,1.377c-1.377,0-4.131,1.377-5.508,0
			c0-1.377,1.377-1.377,0-2.754c0,0,0,0-1.377,1.377l0,0c-1.377,0,0,1.377-1.377,1.377c-4.136,0-8.267,1.377-12.397,2.754
			c-1.377,0-2.754-1.377-4.131,0c0,1.377-2.754-1.377-4.131,0c-1.382,1.377-4.136,1.377-4.136,2.754c0,1.376,0,2.753,1.377,2.753
			c-4.131,2.754-8.262,5.508-11.016,9.639c0,0,0,0-1.377,0c0,0,0,0,0,1.382l0,0l0,0c0,0,0,0-1.377,1.377l0,0l0,0l-1.377-1.377v1.377
			c0-1.377,1.377-1.377,0-2.759l1.377-1.377c1.377,1.377,1.377-1.377,4.131-1.377l1.377-1.377c-1.377,0-2.754-2.754-4.131-1.377
			c-2.754,1.377-1.377,5.508-4.131,6.89c-1.377,1.377-2.754,2.754-1.377,4.131c-1.377,2.754-4.136,1.377-4.136,2.754
			C48.904,51.587,48.904,51.587,47.527,51.587z"/>
		<path fill="#E66421" d="M128.792,39.189c0-1.377,2.754-1.377,2.754-4.131c-1.377-1.377-4.141-2.754-5.518-4.131
			c-2.754,0-4.131-2.753-5.508-2.753c1.377,0,4.131,1.377,6.885,1.377c0,1.376,2.764,1.376,1.387,2.753c1.377,0,2.754,0,4.131,0
			c0-1.377,0-1.377,0-1.377c0-1.376,1.377,0,2.754-1.376l0,0c0,1.376,0,1.376,0,2.753c0,0,1.377,0,2.754,0
			c0,1.377-1.377,1.377-1.377,2.754c0,2.754-4.131,2.754-6.885,5.508L128.792,39.189z"/>
		<path fill="#E66421" d="M145.315,35.059v-1.377c-1.377,0-1.377-1.377-1.377-1.377l1.377-1.377c1.377,0,2.754,0,4.131-1.376
			c4.131-1.377,8.262-1.377,11.016-4.131h1.377c0,1.377,0,1.377-1.377,1.377l0,0c2.753,1.377,5.507,1.377,6.884,0
			c0-1.377-1.377,0-1.377-1.377h1.377c-1.377-1.377-2.754-1.377-1.377-1.377c0,0,1.377,0,1.377-1.377c0,0-1.377-1.377-1.377,0
			l-2.754-2.754c1.377,0,1.377-1.382,1.377,0c1.377-1.382,2.754-1.382,2.754-2.759c-2.754-2.754-5.507-2.754-8.261-4.131V14.4
			c-1.377-1.377-2.754-1.377-4.131-2.754c1.377-1.377,2.754-2.754,1.377-4.131c-1.377-2.754-4.131-4.131-6.885-2.754h1.377
			c0,0,0,1.377-1.377,1.377c0-1.377-1.377-1.377-2.754-1.377l0,0l0,0V3.385c-1.377-1.377-2.754,0-2.754,0
			c-4.131-2.754-8.262-4.131-13.77-6.89c1.377-1.377,2.754-2.754,2.754-4.131c15.146,4.131,28.916,16.528,39.931,30.303
			c-1.377,1.377-2.754,2.754-1.377,4.131s1.377,0,2.764-1.377c0,0,1.377,0,0,1.377c-8.271,4.13-19.286,6.884-28.925,11.015
			C145.315,37.812,145.315,36.436,145.315,35.059z"/>
		<path fill="#E66421" d="M126.028,26.798c0-1.377-2.754-1.377-2.754-2.754c-1.377,0-2.754-1.377-4.131-1.377V21.29
			c4.131,1.377,8.262,4.131,12.402,6.885c-1.377,1.377-2.754,0-2.754,0C127.405,26.798,126.028,28.175,126.028,26.798z"/>
		<path fill="#E66421" d="M26.869,25.421c1.377-2.754,2.754-4.131,4.136-6.89c2.753-2.754,5.507-6.885,8.261-8.262
			c0,1.377,0,2.754,1.377,4.131h-2.754l0,0l0,0l0,0l-1.377,1.377c0,0,1.377,0,2.754,1.377c0,0,0,0,0-1.377h1.377
			c-1.377,2.754-5.508,4.136-5.508,6.89C32.381,22.667,28.246,22.667,26.869,25.421z"/>
		<path fill="#E66421" d="M40.643,8.893C57.171-6.259,77.83-14.521,101.243-14.521c1.377,0,1.377,4.131,2.754,5.508
			c-4.131,1.377-9.644,0-15.151,1.377c-1.377-1.377-2.754-2.754-4.131-1.377c-2.754,0-4.131,1.377-5.508,1.377
			c-1.377,1.377-4.131,1.377-4.131,2.754l0,0c0,1.377-2.759,0-4.136,1.377c-2.754,1.377-4.131,2.759-8.262,2.759
			c1.377,0,0-1.382,0-2.759c0,0,0,0-1.377,0c-1.377,1.377-2.754,5.513-5.508,4.136l0,0l-1.377,1.377
			c-1.377,0-1.377-1.377-1.377-1.377c-1.377,0-1.377,1.377-1.377,2.754c1.377,1.377,2.754,0,2.754,1.377
			c-1.377,1.377-4.136,1.377-5.513,4.131l0,0L42.02,14.4C40.643,13.023,40.643,10.27,40.643,8.893z"/>
		<path fill="#E66421" d="M127.405-4.882c0-1.377,0-1.377,1.387-2.754l1.377,1.377v2.754C128.792-3.505,127.405-4.882,127.405-4.882
			z"/>
		<path fill="#E66421" d="M123.274-6.259c-4.131,0-8.262-1.377-12.393-1.377c-1.377-1.377-1.377-2.754-1.377-1.377
			c1.377-2.754-4.131-5.508,0-5.508c5.508,1.377,12.393,2.754,17.9,4.131v1.377c0,1.377-2.754,2.754-2.754,4.131L123.274-6.259z"/>
		<path fill="#E66421" d="M11.722,84.639L11.722,84.639l-1.377-1.377c0-2.754,0-5.508,0-8.262c0-1.377-1.377-2.754,1.377-4.131
			c0,1.377,1.377-1.377,1.377-1.377l2.754-4.131l0,0l0,0c0-1.377,0-2.759,0-4.136c0,0,0-2.754,1.377-2.754l0,0
			c0,1.377,0,4.131-1.377,6.89c1.377,2.754,0,8.262,0,11.016c0,1.377-1.377,2.754-1.377,4.131l2.754-2.754v1.377
			c1.377-1.377,2.754-4.131,4.131-2.754c0,0,0-1.377,1.377,0c0,2.754-1.377,4.131-2.754,6.885c-1.377,0-2.754,0-2.754,1.377
			c-1.377-1.377-1.377,0-1.377,0s-1.377,1.377-1.377,0C13.099,86.016,11.722,84.639,11.722,84.639L11.722,84.639z"/>
		<path fill="#E66421" d="M22.738,81.885c0-1.377,0-1.377,0-2.754c1.377,1.377,1.377,1.377,1.377,1.377
			C24.115,81.885,22.738,84.639,22.738,81.885z"/>
		<path fill="#E66421" d="M11.722,57.095c0-1.377,1.377-1.377,2.754-2.754c0,1.377,1.377,0,1.377,0
			c1.377,2.754-1.377,5.508-2.754,8.262C13.099,61.226,11.722,59.849,11.722,57.095z"/>
		<path fill="#E66421" d="M14.476,48.833c2.754-8.267,6.885-15.151,11.016-22.035c0,2.754-2.754,4.13-2.754,5.507
			s0,1.377,1.377,1.377v-1.377c1.377,4.131-1.377,5.508-1.377,8.262c0,0,0,1.377,0,2.759c-1.377-1.382-1.377-1.382-1.377-1.382
			c-1.377,1.382-2.754,0-2.754,1.382h1.377c-1.377,1.377-1.377,2.754-1.377,4.131C17.23,47.456,15.853,48.833,14.476,48.833z"/>
		<path fill="#E66421" d="M25.492,33.682c0-1.377,1.377-1.377,2.754-2.754v1.377l-2.754,4.131
			C25.492,35.059,25.492,33.682,25.492,33.682z"/>
		<path fill="#E66421" d="M28.246,77.754L25.492,75c1.377-1.377,2.754-1.377,4.131-1.377c1.382,0,1.382,1.377,2.759,1.377
			c0,0,1.376,0,1.376-1.377c1.377,1.377,1.377,2.754,1.377,4.131C32.381,77.754,29.623,81.885,28.246,77.754z"/>
		<path fill="#E66421" d="M26.869,28.175c1.377-1.377,1.377-2.754,2.754-4.131c1.382,1.377,2.759,1.377,2.759,1.377
			c-1.377,1.377-1.377,4.131-4.136,2.754C28.246,28.175,26.869,29.552,26.869,28.175z"/>
		<path fill="#E66421" d="M92.977,164.521c-5.508,0-12.393-2.754-17.9-2.754c-4.136-1.377-6.89-2.754-9.644-4.13
			c0-1.377-1.377-1.377,0-2.754c1.377,2.754,5.508,1.377,8.262,1.377h1.382c0,1.377,1.377,2.753,1.377,2.753
			c1.377,0,1.377,0,2.754-1.376c4.131,8.261,11.016,0,17.905,4.13h1.377c1.377-1.377,1.377-2.754,1.377-2.754h1.377
			c5.508,0,11.016-1.376,16.523-1.376c1.377,0,2.754-1.377,4.131-1.377v1.377c-1.377,0-1.377,1.376-2.754,2.753
			c-1.377,0,0-4.13-1.377-2.753c0,1.376,1.377,2.753,1.377,4.13s-1.377,1.377-1.377,1.377
			C109.505,164.521,101.243,164.521,92.977,164.521z"/>
		<path fill="#E66421" d="M124.651,156.26c1.377-1.377,2.754-1.377,4.141-2.754c1.377,1.377,0,2.754,0,4.131
			C127.405,156.26,124.651,159.013,124.651,156.26z"/>
	</g>
</g>
</svg>
