<?xml version="1.0" encoding="utf-8"?>
<!-- Generator: Adobe Illustrator 16.0.0, SVG Export Plug-In . SVG Version: 6.00 Build 0)  -->
<!DOCTYPE svg PUBLIC "-//W3C//DTD SVG 1.1//EN" "http://www.w3.org/Graphics/SVG/1.1/DTD/svg11.dtd">
<svg version="1.1" id="Layer_1" xmlns="http://www.w3.org/2000/svg" xmlns:xlink="http://www.w3.org/1999/xlink" x="0px" y="0px"
	 width="200px" height="200px" viewBox="0 0 200 200" enable-background="new 0 0 200 200" xml:space="preserve">
<g>
	<rect x="8.472" y="14.691" fill-rule="evenodd" clip-rule="evenodd" fill="#102B72" width="182.661" height="105.509"/>
	<path fill-rule="evenodd" clip-rule="evenodd" fill="#102B72" d="M81.32,160.684v0.01c-0.172,2.016-1.389,4.201-4.284,4.28h-3.484
		c-2.912-0.081-4.102-2.352-4.231-4.273l0.019-9.647c0.175-2.043,1.324-4.269,4.212-4.269l3.46-0.007
		c3.478-0.048,4.146,3.277,4.268,4.294L81.32,160.684L81.32,160.684L81.32,160.684z M77.341,142.765h-4.165
		c-4.557,0-8.264,3.613-8.264,8.057v10.109c0,4.443,3.724,8.057,8.305,8.057h4.165c4.554,0,8.264-3.595,8.264-8.017v-10.149
		C85.646,146.378,81.919,142.765,77.341,142.765L77.341,142.765z"/>
	<polygon fill-rule="evenodd" clip-rule="evenodd" fill="#102B72" points="166.679,135.726 162.732,135.726 162.732,140.132 
		167.1,140.132 167.1,135.726 166.679,135.726 	"/>
	<polygon fill-rule="evenodd" clip-rule="evenodd" fill="#102B72" points="167.1,168.877 167.109,142.89 162.723,142.89 
		162.732,168.877 167.1,168.877 	"/>
	<polygon fill-rule="evenodd" clip-rule="evenodd" fill="#102B72" points="173.72,140.132 173.72,135.726 173.295,135.726 
		169.352,135.726 169.352,140.132 169.342,142.89 169.352,168.877 173.72,168.877 173.727,142.89 173.72,140.132 	"/>
	<path fill-rule="evenodd" clip-rule="evenodd" fill="#102B72" d="M63.6,142.904h-5.431c-4.622,0-8.381,3.646-8.381,8.129v17.838
		h4.552c0,0,0.003-16.988,0.003-17.052c-0.02-1.187,0.234-2.8,1.032-3.601c0.807-0.812,1.92-1.247,3.221-1.264h5.445v-4.051H63.6
		L63.6,142.904z"/>
	<path fill-rule="evenodd" clip-rule="evenodd" fill="#102B72" d="M140.542,142.896h-5.437c-4.618,0-8.38,3.647-8.38,8.13v17.845
		h4.549c0,0,0.012-16.994,0.012-17.058c-0.019-1.187,0.23-2.801,1.025-3.604c0.809-0.809,1.923-1.245,3.221-1.262h5.447v-4.052
		H140.542L140.542,142.896z"/>
	<path fill-rule="evenodd" clip-rule="evenodd" fill="#102B72" d="M46.771,164.734c-0.946,0.007-2.708,0.019-4.993-0.084
		c-6.312-0.352-9.813-4.048-9.852-10.409c0-0.002-0.012-0.546-0.012-0.546l-0.017-0.919l0.023-2.589
		c0.042-6.362,3.542-10.06,9.859-10.411c2.279-0.101,4.04-0.091,4.985-0.084l0.903,0.006l-0.002-0.431v-3.712h-0.438h-5.728
		c-7.9,0-14.33,6.302-14.33,14.053v3.217l0.005,1.996c0,7.749,6.427,14.05,14.329,14.05h6.164v-4.143L46.771,164.734L46.771,164.734
		z"/>
	<path fill-rule="evenodd" clip-rule="evenodd" fill="#102B72" d="M104.843,146.923v-4.03h-0.438h-9.832c-4.04,0-7.2,3.067-7.2,6.98
		c0,2.861,1.829,5.796,4.446,6.765l6.918,2.662c1.186,0.433,1.91,1.153,1.91,2.371c0,1.691-1.367,3.046-3.126,3.131h-8.35h-1.252
		v4.058h10.226c4.063,0,7.246-3.067,7.246-6.982c0-2.78-1.734-5.709-4.406-6.695l-6.956-2.711c-1.128-0.412-2.04-1.276-2.04-2.553
		c0-0.772,0.318-1.5,0.9-2.053c0.632-0.606,1.518-0.942,2.436-0.921c0.007,0,0.872-0.024,0.872-0.024L104.843,146.923
		L104.843,146.923L104.843,146.923z"/>
	<path fill-rule="evenodd" clip-rule="evenodd" fill="#102B72" d="M124.043,146.923v-4.03h-0.437h-9.834
		c-4.037,0-7.2,3.067-7.2,6.98c0,2.861,1.831,5.796,4.446,6.765l6.92,2.662c1.183,0.433,1.909,1.153,1.909,2.371
		c0,1.691-1.364,3.046-3.125,3.131h-8.353h-1.253v4.058h10.228c4.063,0,7.247-3.067,7.247-6.982c0-2.78-1.737-5.709-4.409-6.695
		l-6.956-2.711c-1.126-0.412-2.038-1.276-2.038-2.553c0-0.772,0.318-1.5,0.9-2.053c0.63-0.606,1.518-0.942,2.433-0.921
		c0.01,0,0.872-0.024,0.872-0.024L124.043,146.923L124.043,146.923L124.043,146.923z"/>
	<path fill-rule="evenodd" clip-rule="evenodd" fill="#102B72" d="M156.146,160.78c0,2.271-1.889,4.112-4.219,4.112h-3.45
		c-2.33,0-4.22-1.841-4.22-4.112v-1.054c0-2.272,1.89-4.113,4.22-4.113h3.45c2.33,0,4.219,1.841,4.219,4.113V160.78L156.146,160.78
		L156.146,160.78z M160.582,159.562v-8.529c0-4.491-3.767-8.144-8.396-8.144h-8.953h-0.438v4.055h8.968
		c1.301,0.018,2.521,0.481,3.331,1.293c0.8,0.802,1.053,2.393,1.037,3.582c0,0.01,0,0.551,0,0.979
		c-0.724-0.686-2.412-1.161-3.771-1.161h-4.124c-4.509,0-8.18,3.579-8.18,7.978v1.296c0,4.397,3.689,7.975,8.223,7.975h4.124
		c4.509,0,8.182-3.561,8.182-7.936v-1.335C160.584,159.6,160.582,159.58,160.582,159.562L160.582,159.562z"/>
	<path fill-rule="evenodd" clip-rule="evenodd" fill="#FFFFFF" d="M26.752,93.213v11.089h2.244c0,0,15.911,0.407,29.828-3.189
		c5.174-1.141,8.992-2.374,11.482-3.307c0,0,4.693-1.951,6.461-2.798c7.916-3.667,13.275-7.442,17.789-11.478
		c3.554-3.178,6.392-6.495,8.527-9.104c0,0,6.359-8.581,9.135-10.765l0.242-0.229c8.819-7.961,19.325-11.971,19.325-11.971
		c11.689-4.717,23.517-6.57,36.534-6.57c0,0,4.253-0.069,5.263-0.069V33.753h-7.123c-18.255,0-32.328,5.056-32.328,5.056
		c-3.867,1.167-5.845,2.069-5.845,2.069c-12.981,5.309-20.483,11.573-25.769,16.789c-1.918,1.892-3.486,3.491-7.356,8.574
		c-3.963,5.208-7.323,8.188-7.323,8.188c-4.512,4.182-10.51,8.912-23.146,13.448c-11.063,3.974-23.838,5.341-34.116,5.341
		L26.752,93.213z"/>
	<path fill-rule="evenodd" clip-rule="evenodd" fill="#FFFFFF" d="M98.772,58.604c-0.33-0.344-0.572-0.65-0.91-0.993
		c-5.23-5.298-12.835-11.472-25.814-16.784c0,0-1.976-0.903-5.848-2.07c0,0-14.219-5.06-34.485-5.06h-4.964v11.166
		c1.014,0,3.063-0.001,3.063-0.001c13.769,0,27.044,1.837,38.732,6.557c0,0,8.862,3.352,17.136,10.052h10.412L98.772,58.604
		L98.772,58.604z"/>
	<path fill-rule="evenodd" clip-rule="evenodd" fill="#FFFFFF" d="M165.51,93.21l8.072-0.006v11.098H167
		c0,0-12.338,0.073-25.486-3.192c-5.179-1.141-8.984-2.415-11.473-3.348c0,0-4.705-1.916-6.473-2.761
		c-10.589-5.018-16.353-9.714-21.902-15.57l2.523-2.98l10.335-0.005c4.245,3.723,10.337,7.578,21.13,11.455
		C146.723,91.881,158.13,92.958,165.51,93.21L165.51,93.21z"/>
	<path fill-rule="evenodd" clip-rule="evenodd" fill="#FFFFFF" d="M26.745,63.407v11.007h58.012c0,0,6.011-5.413,9.741-11.007
		H26.745L26.745,63.407z"/>
	<path fill-rule="evenodd" clip-rule="evenodd" fill="#FFFFFF" d="M105.623,74.396c0,0,5.943-8.197,9.739-10.994h58.167v11.013
		L105.623,74.396L105.623,74.396z"/>
	<path fill-rule="evenodd" clip-rule="evenodd" fill="#102B72" d="M189.138,118.655H10.917l0.12-100.623h178.101V118.655
		L189.138,118.655z M189.121,169.853c-0.046,7.846-4.299,12.406-11.966,12.843c-1.517,0.07-2.821,0.095-3.901,0.104v-0.004h-2.711
		l-0.545-0.003v0.003H30.313v-0.006l-1.109,0.006c-1.168,0.01-3.34,0.023-6.159-0.104c-7.79-0.434-12.11-4.994-12.155-12.841
		c0-0.005-0.017-0.676-0.017-0.676l-0.02-1.136l0.031-3.19l-0.024-0.003l0.048-40.248h178.228v40.252l-0.012,0.001l0.012,1.33v2.997
		C189.138,169.177,189.121,169.85,189.121,169.853L189.121,169.853z M195,18.032v-5.938H5.134v5.938h0.071L5,167.163h0.023v0.936
		l0.002,2.462c0,9.562,7.931,17.34,17.682,17.34h6.863v0.005l143.683,0.001v-0.003h4.232c9.6,0,17.408-7.776,17.408-17.339
		l0.002-2.463v-2.438l0.099-147.631H195z"/>
</g>
</svg>
