<?xml version="1.0" encoding="utf-8"?>
<!-- Generator: Adobe Illustrator 16.0.0, SVG Export Plug-In . SVG Version: 6.00 Build 0)  -->
<!DOCTYPE svg PUBLIC "-//W3C//DTD SVG 1.1//EN" "http://www.w3.org/Graphics/SVG/1.1/DTD/svg11.dtd">
<svg version="1.1" id="Layer_1" xmlns="http://www.w3.org/2000/svg" xmlns:xlink="http://www.w3.org/1999/xlink" x="0px" y="0px"
	 width="200px" height="200px" viewBox="0 0 200 200" enable-background="new 0 0 200 200" xml:space="preserve">
<rect x="36.667" y="5" fill="#FFFFFF" stroke="#000000" stroke-miterlimit="10" width="126.666" height="190"/>
<rect x="44.105" y="108.476" fill="#FFF200" width="111.523" height="78.773"/>
<polygon fill="#FFF200" points="99.817,19.157 56.502,94.632 142.372,94.632 "/>
<path d="M149.489,95.067l-46.611-81.92c0,0-0.712-1.771-3.012-1.771c-2.296,0-3.358,1.771-3.358,1.771l-46.85,81.7
	c0,0-1.186,2.017-0.094,3.906c0,0,1.123,1.86,2.979,1.86h93.408c0,0,2.506,0.07,3.512-1.886
	C150.302,97.092,149.892,95.828,149.489,95.067 M57.348,94.188l42.459-73.991l41.728,73.991H57.348z"/>
<g>
	<path d="M55.273,127.5h7.458c1.477,0,2.578,0.062,3.303,0.185s1.375,0.38,1.947,0.77c0.573,0.391,1.05,0.91,1.432,1.56
		s0.573,1.377,0.573,2.183c0,0.874-0.236,1.676-0.707,2.406c-0.471,0.729-1.109,1.276-1.916,1.642
		c1.137,0.331,2.011,0.896,2.622,1.692c0.611,0.798,0.916,1.735,0.916,2.813c0,0.849-0.197,1.674-0.592,2.476
		s-0.934,1.442-1.616,1.922c-0.683,0.479-1.525,0.774-2.527,0.885c-0.628,0.067-2.143,0.11-4.543,0.127h-6.352V127.5z
		 M59.041,130.605v4.314h2.469c1.468,0,2.38-0.021,2.736-0.063c0.645-0.076,1.152-0.299,1.521-0.668s0.554-0.854,0.554-1.457
		c0-0.577-0.159-1.046-0.477-1.407c-0.318-0.36-0.792-0.579-1.419-0.655c-0.374-0.042-1.447-0.063-3.22-0.063H59.041z
		 M59.041,138.026v4.989h3.487c1.358,0,2.219-0.038,2.584-0.115c0.56-0.102,1.016-0.35,1.368-0.744s0.528-0.923,0.528-1.585
		c0-0.56-0.136-1.035-0.407-1.425c-0.272-0.391-0.664-0.675-1.177-0.854c-0.514-0.178-1.627-0.267-3.341-0.267H59.041z"/>
	<path d="M81.888,141.857l3.564,0.598c-0.458,1.307-1.182,2.302-2.17,2.985c-0.988,0.683-2.225,1.024-3.71,1.024
		c-2.351,0-4.09-0.768-5.219-2.304c-0.891-1.23-1.336-2.783-1.336-4.659c0-2.239,0.585-3.994,1.757-5.263
		c1.171-1.269,2.651-1.902,4.442-1.902c2.011,0,3.598,0.664,4.76,1.991c1.163,1.328,1.718,3.362,1.667,6.104h-8.96
		c0.025,1.061,0.313,1.886,0.865,2.476s1.239,0.885,2.062,0.885c0.56,0,1.031-0.153,1.413-0.458
		C81.404,143.028,81.692,142.536,81.888,141.857z M82.091,138.242c-0.025-1.035-0.292-1.822-0.802-2.361
		c-0.509-0.538-1.128-0.808-1.858-0.808c-0.781,0-1.425,0.284-1.935,0.853s-0.76,1.341-0.751,2.316H82.091z"/>
	<path d="M91.078,146.159l-4.276-13.518h3.475l2.533,8.859l2.33-8.859h3.449l2.252,8.859l2.584-8.859h3.525l-4.34,13.518h-3.437
		l-2.329-8.693l-2.292,8.693H91.078z"/>
	<path d="M111.506,136.766l-3.246-0.585c0.365-1.307,0.993-2.274,1.884-2.902c0.892-0.628,2.215-0.941,3.972-0.941
		c1.595,0,2.783,0.188,3.563,0.566c0.781,0.377,1.33,0.856,1.648,1.438c0.318,0.582,0.478,1.648,0.478,3.201l-0.038,4.175
		c0,1.188,0.057,2.064,0.172,2.629c0.114,0.564,0.328,1.169,0.643,1.813h-3.538c-0.094-0.237-0.208-0.59-0.344-1.057
		c-0.06-0.212-0.103-0.352-0.128-0.42c-0.61,0.594-1.264,1.04-1.96,1.337c-0.695,0.297-1.438,0.445-2.228,0.445
		c-1.392,0-2.488-0.378-3.29-1.133s-1.203-1.71-1.203-2.864c0-0.764,0.183-1.444,0.548-2.043c0.364-0.598,0.876-1.056,1.533-1.374
		c0.658-0.318,1.606-0.597,2.845-0.834c1.672-0.313,2.83-0.606,3.476-0.878v-0.356c0-0.688-0.17-1.178-0.51-1.471
		c-0.339-0.292-0.979-0.438-1.922-0.438c-0.636,0-1.133,0.125-1.489,0.375C112.015,135.699,111.727,136.138,111.506,136.766z
		 M116.292,139.668c-0.459,0.152-1.185,0.335-2.177,0.547c-0.993,0.213-1.642,0.42-1.947,0.624c-0.467,0.331-0.7,0.751-0.7,1.26
		c0,0.501,0.187,0.934,0.56,1.299c0.374,0.364,0.849,0.547,1.426,0.547c0.645,0,1.26-0.212,1.846-0.637
		c0.433-0.322,0.717-0.717,0.853-1.184c0.094-0.305,0.141-0.886,0.141-1.743V139.668z"/>
	<path d="M126.754,146.159h-3.576v-13.518h3.321v1.922c0.568-0.907,1.08-1.506,1.534-1.794c0.454-0.289,0.969-0.433,1.546-0.433
		c0.815,0,1.6,0.225,2.355,0.674l-1.107,3.119c-0.603-0.391-1.163-0.586-1.681-0.586c-0.501,0-0.925,0.138-1.272,0.414
		c-0.348,0.275-0.622,0.774-0.821,1.495c-0.199,0.722-0.299,2.231-0.299,4.531V146.159z"/>
	<path d="M141.303,141.857l3.563,0.598c-0.458,1.307-1.182,2.302-2.17,2.985c-0.989,0.683-2.226,1.024-3.711,1.024
		c-2.35,0-4.09-0.768-5.218-2.304c-0.892-1.23-1.337-2.783-1.337-4.659c0-2.239,0.586-3.994,1.757-5.263s2.651-1.902,4.442-1.902
		c2.011,0,3.598,0.664,4.76,1.991c1.162,1.328,1.719,3.362,1.667,6.104h-8.96c0.025,1.061,0.313,1.886,0.865,2.476
		s1.239,0.885,2.062,0.885c0.56,0,1.03-0.153,1.412-0.458C140.818,143.028,141.107,142.536,141.303,141.857z M141.506,138.242
		c-0.025-1.035-0.293-1.822-0.802-2.361c-0.509-0.538-1.129-0.808-1.858-0.808c-0.78,0-1.426,0.284-1.935,0.853
		s-0.76,1.341-0.751,2.316H141.506z"/>
</g>
<g>
	<path d="M54.998,163.849c0-0.868,0.214-1.709,0.642-2.521c0.428-0.812,1.034-1.432,1.818-1.859
		c0.785-0.429,1.661-0.643,2.628-0.643c1.494,0,2.719,0.485,3.674,1.456s1.433,2.196,1.433,3.679c0,1.494-0.482,2.733-1.446,3.716
		c-0.964,0.982-2.178,1.475-3.642,1.475c-0.905,0-1.769-0.205-2.59-0.614c-0.822-0.409-1.446-1.009-1.875-1.8
		C55.212,165.945,54.998,164.983,54.998,163.849z M57.677,163.987c0,0.98,0.232,1.73,0.698,2.251
		c0.465,0.521,1.039,0.781,1.721,0.781s1.254-0.26,1.716-0.781c0.462-0.521,0.693-1.277,0.693-2.27c0-0.967-0.231-1.711-0.693-2.231
		c-0.462-0.521-1.034-0.782-1.716-0.782s-1.256,0.261-1.721,0.782C57.909,162.258,57.677,163.008,57.677,163.987z"/>
	<path d="M66.094,159.049h1.451v-0.744c0-0.831,0.088-1.451,0.265-1.86s0.502-0.742,0.977-1c0.474-0.257,1.074-0.386,1.8-0.386
		c0.744,0,1.473,0.111,2.186,0.335l-0.353,1.823c-0.416-0.1-0.816-0.149-1.2-0.149c-0.378,0-0.649,0.089-0.814,0.266
		c-0.164,0.177-0.246,0.516-0.246,1.019v0.697h1.953v2.056h-1.953v7.822h-2.614v-7.822h-1.451V159.049z"/>
	<path d="M83.404,159.049v2.083h-1.786v3.981c0,0.806,0.017,1.275,0.051,1.409c0.034,0.134,0.112,0.243,0.233,0.33
		c0.121,0.087,0.268,0.13,0.442,0.13c0.242,0,0.592-0.083,1.051-0.251l0.223,2.028c-0.608,0.26-1.296,0.391-2.065,0.391
		c-0.471,0-0.896-0.079-1.274-0.237c-0.378-0.158-0.656-0.363-0.833-0.614s-0.299-0.591-0.368-1.019
		c-0.056-0.304-0.083-0.917-0.083-1.842v-4.307h-1.2v-2.083h1.2v-1.963l2.623-1.525v3.488H83.404z"/>
	<path d="M87.822,155.291v5.014c0.843-0.986,1.851-1.479,3.023-1.479c0.602,0,1.144,0.112,1.627,0.335
		c0.484,0.224,0.848,0.509,1.093,0.856c0.245,0.347,0.412,0.731,0.502,1.153c0.09,0.421,0.135,1.075,0.135,1.962v5.795h-2.614
		v-5.218c0-1.036-0.05-1.693-0.149-1.972c-0.099-0.279-0.274-0.501-0.525-0.665c-0.251-0.165-0.566-0.247-0.944-0.247
		c-0.434,0-0.822,0.105-1.163,0.316s-0.59,0.528-0.749,0.953s-0.237,1.053-0.237,1.884v4.948h-2.614v-13.636H87.822z"/>
	<path d="M102.574,165.783l2.604,0.437c-0.335,0.955-0.864,1.683-1.586,2.182c-0.723,0.499-1.627,0.749-2.712,0.749
		c-1.717,0-2.989-0.562-3.813-1.684c-0.651-0.899-0.977-2.034-0.977-3.404c0-1.638,0.428-2.919,1.284-3.847
		c0.855-0.927,1.938-1.391,3.246-1.391c1.47,0,2.63,0.485,3.479,1.456s1.256,2.457,1.218,4.46H98.77
		c0.019,0.775,0.229,1.378,0.633,1.809c0.403,0.432,0.905,0.646,1.507,0.646c0.409,0,0.753-0.111,1.032-0.334
		C102.221,166.639,102.432,166.279,102.574,165.783z M102.723,163.142c-0.019-0.757-0.214-1.332-0.586-1.726
		s-0.825-0.591-1.358-0.591c-0.57,0-1.042,0.208-1.414,0.623c-0.372,0.416-0.555,0.98-0.548,1.693H102.723z"/>
	<path d="M112.629,168.927v-13.636h2.613v4.911c0.807-0.918,1.761-1.377,2.865-1.377c1.203,0,2.198,0.437,2.985,1.308
		s1.182,2.122,1.182,3.753c0,1.687-0.401,2.985-1.205,3.896c-0.803,0.912-1.778,1.368-2.925,1.368c-0.564,0-1.121-0.142-1.67-0.424
		s-1.021-0.699-1.418-1.251v1.451H112.629z M115.224,163.773c0,1.023,0.161,1.78,0.483,2.27c0.453,0.695,1.055,1.042,1.805,1.042
		c0.577,0,1.068-0.246,1.475-0.739s0.609-1.27,0.609-2.33c0-1.129-0.205-1.942-0.614-2.441s-0.934-0.749-1.572-0.749
		c-0.626,0-1.146,0.243-1.562,0.73C115.432,162.042,115.224,162.782,115.224,163.773z"/>
	<path d="M130.878,168.927v-1.479c-0.36,0.526-0.833,0.942-1.419,1.246s-1.204,0.456-1.855,0.456c-0.663,0-1.259-0.146-1.786-0.438
		c-0.526-0.291-0.908-0.701-1.144-1.228c-0.235-0.527-0.354-1.256-0.354-2.187v-6.25h2.613v4.539c0,1.389,0.048,2.24,0.145,2.553
		c0.096,0.313,0.271,0.562,0.525,0.744c0.254,0.184,0.577,0.274,0.968,0.274c0.446,0,0.846-0.122,1.199-0.367
		s0.596-0.549,0.726-0.911c0.131-0.363,0.195-1.251,0.195-2.665v-4.167h2.614v9.878H130.878z"/>
	<path d="M136.012,168.927v-13.636h2.613v13.636H136.012z"/>
	<path d="M141.305,168.927v-13.636h2.613v13.636H141.305z"/>
</g>
<path fill-rule="evenodd" clip-rule="evenodd" d="M59.878,92.917c10.747-18.109,21.789-36.992,32.536-55.102
	c3.354,2.909,6.709,5.818,10.063,8.728c4.248,0.579,6.59,0.921,8.283,5.077c7.09,1.034,11.691,4.611,7.57,11.756
	c-1.098-3.37-0.842-4.673-4.721-5.255c1.013,5.734,0.676,6.943-1.959,12.023c-1.666,6.539-0.701,10.68-1.87,17.189
	c3.493,2.993,0.095,9.376-6.947,2.761c-5.428,0.795-8.93-2.176-12.218-3.514c-3.288-1.339-6.405-0.98-10.98,6.34l-9.88,0.003
	L59.878,92.917z"/>
<path fill="none" stroke="#000000" stroke-width="0.1267" stroke-miterlimit="22.9256" d="M59.878,92.917
	c10.747-18.109,21.789-36.992,32.536-55.102c3.354,2.909,6.709,5.818,10.063,8.728c4.248,0.579,6.59,0.921,8.283,5.077
	c7.09,1.034,11.691,4.611,7.57,11.756c-1.098-3.37-0.842-4.673-4.721-5.255c1.013,5.734,0.676,6.943-1.959,12.023
	c-1.666,6.539-0.701,10.68-1.87,17.189c3.493,2.993,0.095,9.376-6.947,2.761c-5.428,0.795-8.93-2.176-12.218-3.514
	c-3.288-1.339-6.405-0.98-10.98,6.34l-9.88,0.003L59.878,92.917z"/>
<path fill-rule="evenodd" clip-rule="evenodd" fill="#FFF200" d="M94.374,53.847c-10.01-3.256-12.513,8.517-8.461,9.529
	C86.896,55.758,99.698,60.139,94.374,53.847z"/>
<path fill="none" stroke="#000000" stroke-width="0.1267" stroke-miterlimit="22.9256" d="M94.374,53.847
	c-10.01-3.256-12.513,8.517-8.461,9.529C86.896,55.758,99.698,60.139,94.374,53.847z"/>
<path fill-rule="evenodd" clip-rule="evenodd" fill="#FFF200" d="M96.511,66.137c1.433,4.301,5.812,0.629,0.712-0.445
	C96.986,65.84,96.748,65.988,96.511,66.137"/>
<path fill-rule="evenodd" clip-rule="evenodd" fill="#FFF200" d="M108.267,88.492c-0.829,0.527-1.22,0.716-2.137,1.068
	c-0.393,0.705-0.515,0.595-0.268,1.336c0.178,0.119,0.356,0.237,0.534,0.356C107.997,92.549,112.24,90.446,108.267,88.492"/>
</svg>
