<?xml version="1.0" encoding="utf-8"?>
<!-- Generator: Adobe Illustrator 16.0.0, SVG Export Plug-In . SVG Version: 6.00 Build 0)  -->
<!DOCTYPE svg PUBLIC "-//W3C//DTD SVG 1.1//EN" "http://www.w3.org/Graphics/SVG/1.1/DTD/svg11.dtd">
<svg version="1.1" id="Layer_1" xmlns="http://www.w3.org/2000/svg" xmlns:xlink="http://www.w3.org/1999/xlink" x="0px" y="0px"
	 width="200px" height="200px" viewBox="0 -25 200 200" enable-background="new 0 -25 200 200" xml:space="preserve">
<g>
	<rect x="10.782" y="3.064" fill="#FFFFFE" width="184.218" height="139.323"/>
	<path fill="none" stroke="#1B171A" d="M195,142.387H10.787H195z M10.787,142.387H195V3.061H10.787V142.387z"/>
	<rect x="17.219" y="50.912" fill="#FFEC06" width="170.942" height="84.462"/>
	<polygon fill="#1B171A" points="56.917,78.081 52.533,78.081 49.136,64.432 49.079,64.432 45.734,78.081 41.273,78.081 
		35.962,58.025 40.367,58.025 43.541,71.679 43.603,71.679 47.087,58.025 51.212,58.025 54.644,71.845 54.696,71.845 57.984,58.025 
		62.311,58.025 	"/>
	<path fill="#1B171A" d="M68.128,58.025h4.519l7.501,20.056h-4.578l-1.519-4.466h-7.502l-1.569,4.466h-4.466L68.128,58.025z
		 M67.7,70.332h5.198l-2.529-7.361h-0.053L67.7,70.332z"/>
	<path fill="#1B171A" d="M81.611,58.025h10.815c3.593,0,5.869,2.503,5.869,5.533c0,2.365-0.954,4.135-3.174,5.032v0.053
		c2.163,0.562,2.782,2.674,2.922,4.691c0.087,1.267,0.057,3.63,0.847,4.746h-4.414c-0.532-1.261-0.479-3.201-0.707-4.796
		c-0.305-2.111-1.116-3.036-3.34-3.036h-4.409v7.832h-4.409V58.025z M86.021,67.1h4.833c1.967,0,3.031-0.836,3.031-2.865
		c0-1.939-1.064-2.782-3.031-2.782h-4.833V67.1z"/>
	<polygon fill="#1B171A" points="101.611,58.025 105.993,58.025 114.366,71.483 114.424,71.483 114.424,58.025 118.553,58.025 
		118.553,78.081 114.14,78.081 105.797,64.658 105.741,64.658 105.741,78.081 101.611,78.081 	"/>
	<line fill="none" stroke="#1B171A" stroke-width="4.4104" x1="124.353" y1="78.081" x2="124.353" y2="58.025"/>
	<polygon fill="#1B171A" points="130.153,58.025 134.536,58.025 142.909,71.483 142.966,71.483 142.966,58.025 147.096,58.025 
		147.096,78.081 142.683,78.081 134.34,64.658 134.283,64.658 134.283,78.081 130.153,78.081 	"/>
	<path fill="#1B171A" d="M165.185,75.813c-1.544,1.988-3.568,2.746-5.504,2.746c-6.211,0-9.859-4.63-9.859-10.423
		c0-5.953,3.648-10.588,9.859-10.588c4.099,0,7.975,2.529,8.456,7.078h-4.214c-0.506-2.22-2.163-3.372-4.242-3.372
		c-3.96,0-5.451,3.372-5.451,6.882c0,3.345,1.491,6.716,5.451,6.716c2.865,0,4.522-1.544,4.774-4.325h-4.438v-3.289h8.431V78.08
		h-2.81L165.185,75.813z"/>
	<polygon fill="#1B171A" points="26.918,86.062 29.538,86.062 29.538,95.787 35.347,95.787 35.347,97.984 26.918,97.984 	"/>
	<path fill="#1B171A" d="M41.988,85.783c3.688,0,5.861,2.755,5.861,6.297c0,3.437-2.173,6.191-5.861,6.191
		c-3.689,0-5.856-2.755-5.856-6.191C36.133,88.538,38.299,85.783,41.988,85.783 M41.988,96.065c2.354,0,3.24-2.008,3.24-3.985
		c0-2.094-0.886-4.092-3.24-4.092s-3.235,1.998-3.235,4.092C38.753,94.058,39.634,96.065,41.988,96.065z"/>
	<path fill="#1B171A" d="M54.81,85.783c3.689,0,5.861,2.755,5.861,6.297c0,3.437-2.172,6.191-5.861,6.191
		c-3.69,0-5.861-2.755-5.861-6.191C48.949,88.538,51.119,85.783,54.81,85.783 M54.81,96.065c2.354,0,3.24-2.008,3.24-3.985
		c0-2.094-0.886-4.092-3.24-4.092s-3.235,1.998-3.235,4.092C51.574,94.058,52.455,96.065,54.81,96.065z"/>
	<path fill="#1B171A" d="M64.072,94.033c0,1.578,1.238,2.197,2.638,2.197c0.921,0,2.325-0.262,2.325-1.481
		c0-1.292-1.788-1.51-3.541-1.973c-1.771-0.471-3.559-1.15-3.559-3.392c0-2.434,2.307-3.602,4.456-3.602
		c2.49,0,4.776,1.08,4.776,3.837H68.63c-0.084-1.43-1.099-1.797-2.351-1.797c-0.837,0-1.806,0.349-1.806,1.354
		c0,0.914,0.567,1.027,3.559,1.796c0.863,0.218,3.536,0.767,3.536,3.471c0,2.189-1.719,3.828-4.959,3.828
		c-2.633,0-5.102-1.3-5.075-4.238H64.072z"/>
	<polygon fill="#1B171A" points="72.951,86.062 81.864,86.062 81.864,88.268 75.577,88.268 75.577,90.824 81.35,90.824 
		81.35,92.864 75.577,92.864 75.577,95.787 82.004,95.787 82.004,97.984 72.951,97.984 	"/>
	<polygon fill="#1B171A" points="88.078,86.062 90.701,86.062 90.701,95.787 96.509,95.787 96.509,97.984 88.078,97.984 	"/>
	<line fill="none" stroke="#1B171A" stroke-width="2.62" x1="99.117" y1="97.984" x2="99.117" y2="86.062"/>
	<polygon fill="#1B171A" points="108.103,97.984 105.155,97.984 101.28,86.062 103.987,86.062 106.639,94.443 106.669,94.443 
		109.354,86.062 112.06,86.062 	"/>
	<polygon fill="#1B171A" points="112.915,86.062 121.828,86.062 121.828,88.268 115.535,88.268 115.535,90.824 121.31,90.824 
		121.31,92.864 115.535,92.864 115.535,95.787 121.959,95.787 121.959,97.984 112.915,97.984 	"/>
	<path fill="#1B171A" d="M125.352,94.033c0,1.578,1.234,2.197,2.634,2.197c0.916,0,2.32-0.262,2.32-1.481
		c0-1.292-1.784-1.51-3.537-1.973c-1.771-0.471-3.554-1.15-3.554-3.392c0-2.434,2.302-3.602,4.457-3.602
		c2.485,0,4.771,1.08,4.771,3.837h-2.539c-0.078-1.43-1.1-1.797-2.351-1.797c-0.838,0-1.805,0.349-1.805,1.354
		c0,0.914,0.565,1.027,3.559,1.796c0.866,0.218,3.535,0.767,3.535,3.471c0,2.189-1.719,3.828-4.953,3.828
		c-2.639,0-5.111-1.3-5.075-4.238H125.352z"/>
	<polygon fill="#1B171A" points="136.864,88.268 133.297,88.268 133.297,86.062 143.06,86.062 143.06,88.268 139.489,88.268 
		139.489,97.984 136.864,97.984 	"/>
	<path fill="#1B171A" d="M149.603,85.783c3.689,0,5.856,2.755,5.856,6.297c0,3.437-2.167,6.191-5.856,6.191
		s-5.855-2.755-5.855-6.191C143.747,88.538,145.913,85.783,149.603,85.783 M149.603,96.065c2.354,0,3.239-2.008,3.239-3.985
		c0-2.094-0.886-4.092-3.239-4.092s-3.239,1.998-3.239,4.092C146.363,94.058,147.249,96.065,149.603,96.065z"/>
	<path fill="#1B171A" d="M165.022,90.074c-0.166-1.186-1.299-2.085-2.599-2.085c-2.354,0-3.239,1.997-3.239,4.091
		c0,1.979,0.885,3.985,3.239,3.985c1.6,0,2.502-1.106,2.703-2.668h2.537c-0.271,2.974-2.323,4.875-5.241,4.875
		c-3.692,0-5.861-2.756-5.861-6.19c0-3.543,2.166-6.299,5.861-6.299c2.62,0,4.822,1.536,5.137,4.291H165.022L165.022,90.074z"/>
	<polygon fill="#1B171A" points="169.284,86.062 171.905,86.062 171.905,91.006 176.561,86.062 179.833,86.062 175.175,90.771 
		180.286,97.984 176.993,97.984 173.404,92.628 171.905,94.146 171.905,97.984 169.284,97.984 	"/>
	<path fill="#1B171A" d="M50.335,104.926h4.327c2.599,0,4.553,1.631,4.553,4.963c0,2.904-1.492,5.068-4.553,5.068h-4.327V104.926z
		 M52.542,113.108h1.963c1.282,0,2.503-0.793,2.503-3.01c0-2.024-0.697-3.313-2.896-3.313h-1.569V113.108z"/>
	<path fill="#1B171A" d="M65.102,104.691c3.101,0,4.928,2.319,4.928,5.294c0,2.894-1.827,5.206-4.928,5.206
		c-3.105,0-4.937-2.312-4.937-5.206C60.165,107.011,61.996,104.691,65.102,104.691 M65.102,113.343c1.976,0,2.721-1.691,2.721-3.357
		c0-1.754-0.745-3.438-2.721-3.438c-1.983,0-2.729,1.684-2.729,3.438C62.371,111.651,63.118,113.343,65.102,113.343z"/>
	<path fill="#1B171A" d="M78.638,113.822c-0.772,0.996-1.783,1.37-2.752,1.37c-3.104,0-4.933-2.312-4.933-5.207
		c0-2.974,1.827-5.293,4.933-5.293c2.051,0,3.99,1.265,4.227,3.541h-2.106c-0.248-1.107-1.082-1.683-2.12-1.683
		c-1.984,0-2.725,1.683-2.725,3.437c0,1.666,0.742,3.357,2.725,3.357c1.435,0,2.265-0.777,2.386-2.163h-2.215v-1.649h4.212v5.425
		h-1.403L78.638,113.822z"/>
	<path fill="#1B171A" d="M83.418,111.624c0,1.344,1.037,1.859,2.214,1.859c0.776,0,1.953-0.218,1.953-1.248
		c0-1.082-1.5-1.264-2.978-1.657c-1.488-0.392-2.992-0.968-2.992-2.852c0-2.06,1.94-3.035,3.751-3.035
		c2.093,0,4.017,0.906,4.017,3.227h-2.137c-0.07-1.203-0.924-1.518-1.979-1.518c-0.698,0-1.519,0.297-1.519,1.143
		c0,0.768,0.479,0.871,2.996,1.518c0.728,0.184,2.979,0.646,2.979,2.922c0,1.84-1.448,3.21-4.175,3.21
		c-2.219,0-4.295-1.09-4.269-3.568H83.418z"/>
	<polygon fill="#1B171A" points="94.651,104.926 97.756,104.926 100.103,111.825 100.128,111.825 102.352,104.926 105.453,104.926 
		105.453,114.957 103.39,114.957 103.39,107.848 103.36,107.848 100.905,114.957 99.204,114.957 96.745,107.918 96.718,107.918 
		96.718,114.957 94.651,114.957 	"/>
	<path fill="#1B171A" d="M115.762,111.163c0,2.712-1.601,4.029-4.282,4.029c-2.699,0-4.269-1.299-4.269-4.029v-6.237h2.208v6.237
		c0,1.098,0.279,2.18,2.062,2.18c1.574,0,2.08-0.689,2.08-2.18v-6.237h2.201L115.762,111.163L115.762,111.163z"/>
	<path fill="#1B171A" d="M119.024,111.624c0,1.344,1.037,1.859,2.22,1.859c0.771,0,1.949-0.218,1.949-1.248
		c0-1.082-1.501-1.264-2.979-1.657c-1.488-0.392-2.991-0.968-2.991-2.852c0-2.06,1.94-3.035,3.75-3.035
		c2.093,0,4.021,0.906,4.021,3.227h-2.137c-0.07-1.203-0.929-1.518-1.981-1.518c-0.7,0-1.516,0.297-1.516,1.143
		c0,0.768,0.473,0.871,2.991,1.518c0.732,0.184,2.979,0.646,2.979,2.922c0,1.84-1.449,3.21-4.175,3.21
		c-2.22,0-4.295-1.09-4.27-3.568H119.024z"/>
	<polygon fill="#1B171A" points="128.713,106.785 125.709,106.785 125.709,104.926 133.925,104.926 133.925,106.785 
		130.919,106.785 130.919,114.957 128.713,114.957 	"/>
	<path fill="#1B171A" d="M138.701,104.926h4.721c1.911,0,3.201,0.62,3.201,2.495c0,0.977-0.492,1.666-1.361,2.085
		c1.222,0.356,1.837,1.289,1.837,2.546c0,2.032-1.728,2.905-3.538,2.905h-4.86L138.701,104.926L138.701,104.926z M140.908,108.991
		h2.231c0.772,0,1.348-0.358,1.348-1.195c0-0.959-0.729-1.151-1.513-1.151h-2.066V108.991L140.908,108.991z M140.908,113.238h2.358
		c0.871,0,1.631-0.271,1.631-1.316c0-1.021-0.646-1.432-1.587-1.432h-2.402V113.238z"/>
	<polygon fill="#1B171A" points="148.451,104.926 155.952,104.926 155.952,106.785 150.654,106.785 150.654,108.931 
		155.517,108.931 155.517,110.648 150.654,110.648 150.654,113.108 156.062,113.108 156.062,114.957 148.451,114.957 	"/>
	<polygon fill="#1B171A" points="48.324,119.562 50.532,119.562 50.532,123.723 54.452,119.562 57.204,119.562 53.283,123.522 
		57.583,129.593 54.819,129.593 51.796,125.084 50.532,126.356 50.532,129.593 48.324,129.593 	"/>
	<polygon fill="#1B171A" points="58.325,119.562 65.825,119.562 65.825,121.411 60.532,121.411 60.532,123.566 65.39,123.566 
		65.39,125.284 60.532,125.284 60.532,127.733 65.938,127.733 65.938,129.593 58.325,129.593 	"/>
	<path fill="#1B171A" d="M67.29,119.562h4.522c2.5,0,3.467,1.587,3.467,3.219c0,1.622-0.969,3.21-3.467,3.21h-2.316v3.603H67.29
		V119.562z M69.496,124.28h1.71c1.024,0,1.941-0.227,1.941-1.499c0-1.282-0.916-1.499-1.941-1.499h-1.71V124.28z"/>
	<polygon fill="#1B171A" points="78.738,121.411 75.733,121.411 75.733,119.562 83.949,119.562 83.949,121.411 80.94,121.411 
		80.94,129.593 78.738,129.593 	"/>
	<path fill="#1B171A" d="M93.221,119.325c3.104,0,4.928,2.313,4.928,5.287c0,2.904-1.823,5.215-4.928,5.215
		s-4.934-2.311-4.934-5.215C88.289,121.639,90.116,119.325,93.221,119.325 M93.221,127.97c1.979,0,2.722-1.683,2.722-3.357
		c0-1.754-0.742-3.437-2.722-3.437c-1.98,0-2.729,1.683-2.729,3.437C90.491,126.287,91.24,127.97,93.221,127.97z"/>
	<polygon fill="#1B171A" points="99.509,119.562 101.702,119.562 105.889,126.287 105.92,126.287 105.92,119.562 107.981,119.562 
		107.981,129.593 105.775,129.593 101.602,122.877 101.576,122.877 101.576,129.593 99.509,129.593 	"/>
	<polygon fill="#1B171A" points="113.543,119.562 115.748,119.562 115.748,127.733 120.638,127.733 120.638,129.593 
		113.543,129.593 	"/>
	<polygon fill="#1B171A" points="121.732,119.562 129.232,119.562 129.232,121.411 123.938,121.411 123.938,123.566 
		128.797,123.566 128.797,125.284 123.938,125.284 123.938,127.733 129.348,127.733 129.348,129.593 121.732,129.593 	"/>
	<path fill="#1B171A" d="M133.433,119.562h2.264l3.749,10.031h-2.288l-0.76-2.233h-3.751l-0.785,2.233h-2.231L133.433,119.562z
		 M133.223,125.71h2.599l-1.264-3.682h-0.025L133.223,125.71z"/>
	<path fill="#1B171A" d="M140.179,119.562h4.325c2.596,0,4.549,1.631,4.549,4.954c0,2.913-1.488,5.077-4.549,5.077h-4.325V119.562z
		 M142.382,127.733h1.966c1.277,0,2.503-0.784,2.503-3.01c0-2.014-0.705-3.313-2.895-3.313h-1.574V127.733z"/>
	<path fill="#1B171A" d="M151.948,126.26c0,1.334,1.038,1.857,2.22,1.857c0.771,0,1.948-0.227,1.948-1.256
		c0-1.081-1.499-1.265-2.973-1.657c-1.493-0.393-2.997-0.968-2.997-2.852c0-2.05,1.941-3.027,3.751-3.027
		c2.094,0,4.021,0.908,4.021,3.228h-2.135c-0.071-1.212-0.926-1.518-1.981-1.518c-0.702,0-1.518,0.298-1.518,1.135
		c0,0.776,0.479,0.872,2.991,1.518c0.729,0.183,2.978,0.645,2.978,2.922c0,1.842-1.446,3.218-4.174,3.218
		c-2.219,0-4.296-1.089-4.269-3.565h2.138V126.26z"/>
	<polygon fill="#FFEC06" points="103.08,11.568 84.08,44.676 121.751,44.676 	"/>
	<path fill="#1B171A" d="M124.876,44.868L104.423,8.934c0,0-0.31-0.776-1.32-0.776c-1.007,0-1.474,0.776-1.474,0.776L81.077,44.772
		c0,0-0.519,0.886-0.04,1.714c0,0,0.487,0.815,1.308,0.815h40.98c0,0,1.098,0.036,1.534-0.827
		C125.229,45.757,125.051,45.199,124.876,44.868 M84.45,44.484l18.63-32.459l18.303,32.459H84.45z"/>
	<path fill="#1B171A" d="M99.928,21.643l1.321,12.499c0,0,0.31,1.553,1.605,1.553c1.505,0,1.736-1.526,1.736-1.526l1.369-12.551
		c0,0-0.171-3.027-3.006-3.027C99.932,18.589,99.928,21.643,99.928,21.643"/>
	<path fill="#1B171A" d="M102.994,43.29c1.653,0,2.982-1.334,2.982-2.983c0-1.649-1.329-2.978-2.982-2.978
		c-1.645,0-2.979,1.33-2.979,2.978S101.35,43.29,102.994,43.29"/>
	<polygon fill="#FFFFFE" points="41.832,146.939 101.062,119.319 64.229,40.347 5,67.963 	"/>
	<path fill="none" stroke="#1B171A" d="M101.062,119.319l-59.233,27.62L101.062,119.319z M41.826,146.939l59.234-27.62
		L64.233,40.342L5,67.963L41.826,146.939z"/>
	<path fill="#1B171A" d="M44.984,135.636c-0.301-0.507-0.781-0.654-1.304-0.41c-0.593,0.27-0.715,0.951-0.253,1.937
		c0.336,0.724,0.812,1.327,1.666,0.925c0.541-0.253,0.62-0.749,0.454-1.273l1.622-0.751c0.471,1.396-0.104,2.636-1.46,3.272
		c-1.697,0.793-3.215,0.226-3.99-1.44c-0.776-1.666-0.131-3.228,1.299-3.891c1.578-0.732,2.812-0.366,3.567,0.89L44.984,135.636z"/>
	<polygon fill="#1B171A" points="48.854,137.703 46.458,132.566 48.143,131.782 49.978,135.713 52.289,134.642 52.848,135.837 	"/>
	<polygon fill="#1B171A" points="53.61,135.479 51.217,130.342 55.402,128.389 55.961,129.593 53.458,130.761 53.798,131.493 
		55.922,130.508 56.479,131.703 54.356,132.688 54.735,133.499 57.339,132.287 57.897,133.481 	"/>
	<polygon fill="#1B171A" points="58.298,133.3 57.741,127.299 59.454,126.505 63.688,130.777 62.014,131.562 61.499,130.979 
		59.824,131.764 59.947,132.531 	"/>
	<polygon fill="#FFFFFE" points="59.306,128.458 59.643,130.543 60.705,130.045 	"/>
	<polygon fill="#1B171A" points="66.585,126.591 65.974,125.448 65.211,123.818 66.819,123.068 69.218,128.205 67.64,128.938 
		64.505,127.001 65.114,128.136 65.869,129.767 64.261,130.517 61.865,125.379 63.444,124.646 	"/>
	<line fill="none" stroke="#1B171A" stroke-width="1.8582" x1="73.466" y1="126.226" x2="71.072" y2="121.088"/>
	<polygon fill="#1B171A" points="72.681,120.339 77.392,118.141 78.02,119.483 76.505,120.189 78.271,123.983 76.589,124.77 
		74.826,120.975 73.309,121.683 	"/>
	<path fill="#1B171A" d="M80.481,116.701l1.688-0.794l1.43,3.079c0.24,0.506,0.54,0.897,1.233,0.575
		c0.606-0.288,0.606-0.759,0.346-1.308l-1.436-3.079l1.684-0.785l1.355,2.904c0.768,1.648,0.342,2.73-1.364,3.523
		c-1.591,0.741-2.76,0.55-3.584-1.222L80.481,116.701z"/>
	<path fill="#1B171A" d="M88.729,119.107l-2.399-5.137l2.478-1.159c1.479-0.69,2.507-0.341,2.999,0.714
		c0.515,1.109,0.184,2.111-1.29,2.801l-0.85,0.392l0.746,1.604L88.729,119.107z"/>
	<path fill="#FFFFFE" d="M89.807,115.2c0.392-0.183,0.605-0.47,0.396-0.915c-0.224-0.479-0.794-0.287-1.151-0.121l-0.479,0.218
		l0.535,1.143L89.807,115.2z"/>
	<polygon fill="#1B171A" points="92.095,112.829 91.503,111.556 93.024,110.848 93.612,112.122 94.171,114.276 93.36,114.651 	"/>
	<line fill="none" stroke="#1B171A" stroke-width="1.621" x1="94.643" y1="116.352" x2="93.997" y2="114.965"/>
	<path fill="#E3001A" d="M21.014,96.562c-7.097-15.219-0.512-33.312,14.71-40.409c15.224-7.101,33.316-0.515,40.413,14.71
		c7.1,15.223,0.514,33.313-14.71,40.413C46.21,118.377,28.112,111.791,21.014,96.562"/>
	<path fill="#FFFFFE" d="M58.84,105.729c12.157-5.669,17.417-20.122,11.747-32.279c-5.669-12.159-20.121-17.418-32.28-11.749
		c-12.153,5.67-17.413,20.123-11.744,32.28C32.229,106.139,46.681,111.398,58.84,105.729"/>
	<path fill="#1B171A" d="M55.683,73.703l-4.265,0.402c-0.019,0.112-0.04,0.209-0.07,0.288c-0.819,2.58-3.942,4.744-5.285,5.372
		c-3.472,1.623-5.582,0.035-6.855-1.57c-0.279-0.358-0.371-0.2-0.615,0.026c-0.24,0.235-0.297,0.514,0.131,1.431
		c0.371,0.802,1.867,1.884,2.142,2.093c-0.083,0.271-0.502,2.121,0.275,3.786c0.371,0.801,0.649,1.003,0.938,1.612
		c0.664,1.422,0.812,3.532-0.27,6.01c-0.188,0.436-0.218,1.178-0.062,1.612c0.156,0.438,0.793,2.557,0.812,2.835
		c0.009,0.271,0.009,0.664,0.384,1.074l1.604-0.751c0,0-1.024-2.755-1.082-2.868c-0.052-0.114-0.066-0.29-0.022-0.499
		c0.039-0.209,0.405-2.075,0.959-2.686c0,0,0.345,2.198,0.642,2.826c0.288,0.628,1.325,2.094,1.565,2.258l1.531-0.706
		c0,0-0.942-0.934-1.378-1.865c-0.441-0.934-0.332-1.099-0.366-1.318c-0.027-0.218,0.2-2.329,0.515-3.341
		c0.322-1.011,0.794-2.991,0.837-3.803c0.047-0.986,0.209-1.518,1.021-1.9c0.672-0.313,1.186-0.201,1.431-0.227
		c0.636-0.053,4.378-0.035,5.006,0.113c0.366,0.085,0.681,0.304,0.741,0.584c0.058,0.279,1.466,7.432,1.466,7.432l1.66-0.777
		c0,0-0.191-5.085-0.091-5.363l2.407,4.291l1.85-0.864C63.235,89.21,56.72,76.05,55.683,73.703"/>
	<path fill="#1B171A" d="M59.019,65.138c-0.091-0.097-0.122-0.358-0.519-0.315c-0.401,0.045-2.572,0.219-4.218,0.986
		c-0.912,0.426-1.138,0.633-1.408,0.824c-0.297,0.205-0.575,0.105-0.702-0.16c-0.126-0.271-0.235-0.402-0.131-0.734
		c0.101-0.322,0.477-1.617,0.433-1.805c-0.04-0.191-0.097-0.562-0.664-0.131c-0.82,0.611-2.036,2.15-2.268,2.773
		c-0.078,0.227-0.122,0.289,0,0.445c0.118,0.157,0.771,1.059,1.155,1.879c0.563,1.208,0.807,3.102,0.781,4.385l4.03-0.377
		c0.008-0.994,0.335-2.912,0.981-3.218c0.938-0.437,3.214-0.657,3.492-0.697c0.349-0.044,0.515-0.236,0.471-0.384
		c-0.044-0.14-0.166-0.453-0.279-0.68l-1.688-0.241l1.146-0.928C59.634,66.761,59.109,65.232,59.019,65.138"/>
	<path fill="#1B171A" d="M36.624,95.22c0.384,0.819,1.039,1.421,1.431,1.779c0.118,0.104,0.245,0.226,0.271,0.27
		c0.131,0.271,0.062,0.463,0.057,0.471V97.73c-0.039,0.105,0.005,0.208,0.101,0.252c0.062,0.025,0.127,0.019,0.18-0.018l0.118-0.305
		c0.008-0.14-0.005-0.333-0.109-0.559c-0.044-0.097-0.14-0.184-0.357-0.384c-0.371-0.341-0.99-0.908-1.339-1.666
		c-0.257-0.55-0.335-1.213-0.41-1.858c-0.074-0.653-0.148-1.272-0.388-1.788c-0.322-0.688-0.886-1.203-1.295-1.569
		c-0.175-0.157-0.354-0.322-0.389-0.392c-0.092-0.202-0.039-0.523-0.014-0.628c0.027-0.105-0.034-0.209-0.139-0.236
		c-0.096-0.025-0.2,0.034-0.228,0.139c-0.017,0.054-0.131,0.523,0.035,0.882c0.068,0.139,0.244,0.296,0.479,0.514
		c0.384,0.349,0.915,0.828,1.203,1.448c0.218,0.463,0.288,1.056,0.358,1.675C36.267,93.911,36.346,94.608,36.624,95.22"/>
	<path fill="#1B171A" d="M35.377,95.394c-0.004,0.226,0.026,0.758,0.419,0.96h0.013l0.009,0.009
		c-0.022-0.009-0.031-0.027-0.031-0.027c0.044,0.054,0.093,0.298,0.074,0.412c-0.018,0.096,0.048,0.183,0.148,0.201
		c0.101,0.018,0.188-0.053,0.205-0.149c0.027-0.156-0.017-0.68-0.278-0.777l0.021,0.009c-0.171-0.086-0.227-0.375-0.224-0.628
		c0.009-0.095-0.068-0.173-0.169-0.182C35.465,95.22,35.387,95.297,35.377,95.394"/>
	<path fill="#1B171A" d="M39.103,93.928c-0.005,0.218,0.025,0.75,0.419,0.95h0.009l0.009,0.011
		c-0.019-0.011-0.032-0.019-0.032-0.019c0.044,0.044,0.092,0.289,0.074,0.401c-0.013,0.097,0.053,0.184,0.148,0.201
		c0.1,0.018,0.191-0.053,0.208-0.148c0.019-0.157-0.018-0.681-0.279-0.776l0.019,0.008c-0.171-0.087-0.227-0.374-0.219-0.619
		c0.004-0.104-0.073-0.183-0.175-0.192C39.189,93.744,39.103,93.823,39.103,93.928"/>
	<path fill="#1B171A" d="M37.514,100.932l0.603-1.553l-0.284-0.113c-0.597,0.385-1.26,0.812-1.539,1.136
		c-0.432,0.497-0.445,0.671-0.223,0.942c0.223,0.261,0.405,0.443,0.784,0.096C37.012,101.299,37.262,101.125,37.514,100.932"/>
	<path fill="#1B171A" d="M41.739,98.42c-0.345-0.235-1.182-0.487-2.08-0.226l-0.234,0.602l1.623,0.628
		c0.069-0.01,0.144-0.018,0.208-0.034C41.719,99.274,42.216,98.751,41.739,98.42"/>
	<polygon fill="#E3001A" points="40.396,96.283 39.451,95.917 38.482,98.429 35.727,97.365 35.364,98.315 38.116,99.379 
		37.026,102.196 37.973,102.562 39.059,99.746 41.609,100.731 41.976,99.781 39.425,98.795 	"/>
	<polygon fill="#1B171A" points="46.297,104.552 45.957,104.708 45.286,103.27 45.286,103.27 45.63,104.856 45.281,105.022 
		44.296,103.732 44.291,103.732 44.962,105.171 44.623,105.328 43.824,103.609 44.353,103.365 45.295,104.578 45.299,104.569 
		44.973,103.069 45.495,102.833 	"/>
	<polygon fill="#1B171A" points="46.887,104.272 46.507,104.446 46.318,102.441 46.733,102.249 48.137,103.688 47.749,103.871 
		47.475,103.565 46.838,103.862 	"/>
	<polygon fill="#FFFFFE" points="46.799,103.521 47.234,103.322 46.707,102.737 46.703,102.737 	"/>
	<polygon fill="#1B171A" points="49.755,102.938 49.314,103.139 48.718,102.703 48.644,103.452 48.226,103.653 48.368,102.511 
		47.453,101.918 47.884,101.717 48.451,102.127 48.504,101.43 48.919,101.237 48.778,102.301 	"/>
	<line fill="none" stroke="#1B171A" stroke-width="0.3965" x1="50.126" y1="102.764" x2="49.324" y2="101.045"/>
	<polygon fill="#1B171A" points="52.289,101.753 51.958,101.907 51.286,100.47 51.277,100.479 51.631,102.066 51.277,102.222 
		50.291,100.94 50.291,100.94 50.959,102.371 50.623,102.529 49.82,100.811 50.35,100.565 51.291,101.777 51.294,101.777 
		50.972,100.278 51.486,100.034 	"/>
	<path fill="#1B171A" d="M53.736,100.348c0.21,0.452,0.027,0.777-0.404,0.976c-0.161,0.07-0.41,0.141-0.646,0.044
		c-0.14-0.062-0.24-0.182-0.327-0.348l-0.532-1.143l0.366-0.175l0.523,1.117c0.109,0.244,0.296,0.278,0.462,0.2
		c0.249-0.112,0.296-0.28,0.2-0.489l-0.532-1.133l0.366-0.165L53.736,100.348z"/>
	<polygon fill="#1B171A" points="56.022,100.017 55.687,100.172 55.02,98.734 55.01,98.734 55.358,100.321 55.01,100.486 
		54.025,99.196 54.02,99.196 54.688,100.635 54.356,100.792 53.554,99.074 54.078,98.83 55.02,100.042 55.028,100.034 
		54.696,98.533 55.22,98.299 	"/>
	<path fill="#1B171A" d="M57.392,99.37l-0.358,0.166l-0.802-1.719l0.789-0.366c0.331-0.148,0.633-0.035,0.789,0.306
		c0.073,0.155,0.17,0.584-0.293,0.802l-0.413,0.191L57.392,99.37z"/>
	<path fill="#FFFFFE" d="M57.304,98.299c0.262-0.122,0.175-0.314,0.139-0.394c-0.078-0.165-0.201-0.192-0.426-0.087l-0.289,0.131
		l0.236,0.506L57.304,98.299z"/>
	<polygon fill="#1B171A" points="59.24,96.79 58.329,97.217 58.499,97.574 59.336,97.181 59.476,97.486 58.639,97.88 58.848,98.324 
		59.799,97.88 59.942,98.185 58.639,98.795 57.836,97.076 59.101,96.484 	"/>
	<polygon fill="#1B171A" points="60.488,95.837 60.819,95.683 61.622,97.398 61.264,97.566 59.99,96.667 59.981,96.677 
		60.558,97.896 60.218,98.054 59.419,96.335 59.799,96.161 61.037,97.043 61.046,97.034 	"/>
	<polygon fill="#1B171A" points="62.214,97.131 61.835,97.305 61.647,95.297 62.062,95.105 63.47,96.545 63.078,96.721 
		62.804,96.423 62.17,96.711 	"/>
	<polygon fill="#FFFFFE" points="62.127,96.371 62.563,96.17 62.032,95.595 62.032,95.595 	"/>
	<polygon fill="#1B171A" points="63.915,95.952 64.771,95.551 64.918,95.864 63.702,96.432 62.899,94.713 63.262,94.548 	"/>
	<polygon fill="#1B171A" points="65.686,95.507 65.323,95.673 64.665,94.26 64.142,94.504 64.002,94.199 65.398,93.545 
		65.542,93.85 65.023,94.094 	"/>
	<polygon fill="#1B171A" points="67.226,94.792 66.863,94.958 66.562,94.304 65.468,93.518 65.896,93.318 66.598,93.894 
		66.588,92.994 66.994,92.802 66.924,94.146 	"/>
	<path fill="#1B171A" d="M55.294,102.737l-0.284,0.131c0.026,0.036,0.049,0.079,0.07,0.123c0.017,0.034,0.068,0.139,0.017,0.313
		c-0.009,0.026-0.038,0.112-0.078,0.191h0.009c0.082-0.087,0.156-0.148,0.24-0.183c0.065-0.035,0.117-0.044,0.183-0.053
		c0.049-0.01,0.112-0.018,0.145-0.026c0.077-0.044,0.16-0.139,0.2-0.201l0.218,0.218c-0.061,0.088-0.156,0.201-0.313,0.271
		c-0.061,0.035-0.184,0.062-0.253,0.07c-0.118,0.009-0.184,0.026-0.253,0.053c-0.065,0.034-0.101,0.062-0.226,0.209l-0.236-0.175
		c0.031-0.034,0.184-0.296,0.105-0.472c-0.035-0.068-0.113-0.155-0.157-0.19l-0.217,0.105l-0.07-0.141l0.14-0.069
		c-0.153-0.131-0.2-0.175-0.253-0.289c-0.087-0.174-0.078-0.54,0.348-0.74c0.254-0.113,0.62-0.149,0.838,0.288l-0.314,0.149
		c-0.1-0.157-0.191-0.262-0.4-0.166c-0.184,0.087-0.167,0.261-0.131,0.333c0.025,0.042,0.044,0.068,0.266,0.26l0.345-0.156
		L55.294,102.737z"/>
	<path fill="#1B171A" d="M56.022,102.083c0.044-0.068,0.096-0.155,0.262-0.235c0.227-0.104,0.593-0.078,0.776,0.314
		c0.104,0.227,0.166,0.662-0.336,0.898c-0.267,0.122-0.61,0.086-0.79-0.244l0.341-0.157c0.079,0.131,0.192,0.192,0.34,0.122
		c0.166-0.078,0.193-0.252,0.109-0.437c-0.069-0.155-0.214-0.27-0.392-0.191c-0.048,0.026-0.161,0.079-0.171,0.235l-0.306,0.122
		l-0.318-0.995l0.938-0.435l0.131,0.286l-0.694,0.325L56.022,102.083z"/>
	<path fill="#1B171A" d="M57.291,100.671c0.397-0.193,0.72,0,0.998,0.592c0.28,0.595,0.215,0.97-0.182,1.151
		c-0.402,0.185-0.719-0.009-0.994-0.601C56.829,101.22,56.89,100.854,57.291,100.671"/>
	<path fill="#FFFFFE" d="M57.979,102.145c0.196-0.087,0.171-0.279-0.039-0.715c-0.2-0.445-0.332-0.586-0.523-0.498
		c-0.19,0.088-0.166,0.28,0.034,0.725C57.661,102.092,57.792,102.232,57.979,102.145"/>
	<path fill="#1B171A" d="M58.625,100.042c0.396-0.184,0.72,0,0.999,0.603c0.274,0.593,0.219,0.96-0.184,1.142
		c-0.4,0.192-0.723,0-0.999-0.593C58.163,100.592,58.224,100.234,58.625,100.042"/>
	<path fill="#FFFFFE" d="M59.314,101.525c0.191-0.087,0.166-0.288-0.04-0.726c-0.201-0.435-0.331-0.574-0.522-0.487
		c-0.192,0.088-0.165,0.279,0.035,0.725C58.991,101.472,59.122,101.612,59.314,101.525"/>
</g>
</svg>
