<?xml version="1.0" encoding="utf-8"?>
<!-- Generator: Adobe Illustrator 16.0.0, SVG Export Plug-In . SVG Version: 6.00 Build 0)  -->
<!DOCTYPE svg PUBLIC "-//W3C//DTD SVG 1.1//EN" "http://www.w3.org/Graphics/SVG/1.1/DTD/svg11.dtd">
<svg version="1.1" id="Layer_1" xmlns="http://www.w3.org/2000/svg" xmlns:xlink="http://www.w3.org/1999/xlink" x="0px" y="0px"
	 width="200px" height="200px" viewBox="0 0 200 200" enable-background="new 0 0 200 200" xml:space="preserve">
<g>
	<path fill-rule="evenodd" clip-rule="evenodd" d="M55.328,69.425c-0.482-0.758-0.758-1.104-1.447-1.104h-0.414
		c-0.758,0-1.31,0.552-1.31,1.311v20.199c0,0.138,0,0.275,0.069,0.414l2.275,3.998v28.886c0,0-4.343,9.583-4.343,10.549v0.482
		h-0.069v10.134c0.275,2.827,2.413,5.102,5.239,5.516h1.724c2.826-0.414,4.963-2.688,5.239-5.516v-9.376c0,0,0,0,0.069-0.069
		l13.443-21.096l35.986,8.617L73.735,84.315c-5.722,0-9.79,0-9.79,0L55.328,69.425L55.328,69.425z"/>
	<path fill-rule="evenodd" clip-rule="evenodd" d="M112.272,144.57c0.208,2.688,2.276,4.825,4.896,5.239h1.723
		c2.688-0.414,4.688-2.552,4.963-5.239v-10.135l-11.582-11.65V144.57L112.272,144.57z"/>
	<path fill-rule="evenodd" clip-rule="evenodd" d="M111.478,84.315c0,0-7.789,0-17.027,0l32.264,32.333l6.482-10.616L111.478,84.315
		L111.478,84.315z"/>
	<path fill-rule="evenodd" clip-rule="evenodd" d="M161.392,80.869l-9.1-5.86v-4.067c0-1.034-0.76-2.344-1.725-2.896l-7.583-4.343
		v-9.031c0-1.104-0.621-1.379-1.379-0.621l-24.888,25.025l20.269,20.269l5.723-9.927h13.925c1.104,0,2.415-0.759,2.965-1.655l0,0
		l0.138-0.345l2.346-3.998C162.632,82.523,162.288,81.352,161.392,80.869L161.392,80.869z"/>
	<path fill-rule="evenodd" clip-rule="evenodd" fill="#ED1C24" d="M195,100l-0.139-4.274l-0.274-4.274l-0.482-4.205l-0.69-4.206
		l-0.826-4.205l-1.034-4.137l-1.242-4.067l-1.378-3.998l-1.586-3.999l-1.792-3.86l-1.93-3.792l-2.068-3.723l-2.276-3.585
		l-2.481-3.516l-2.551-3.378l-2.757-3.31l-2.827-3.103l-3.033-3.033l-3.172-2.896l-3.239-2.688l-3.38-2.62l-3.516-2.413
		l-3.652-2.274l-3.654-2.068l-3.792-1.999l-3.93-1.724l-3.929-1.586l-4.067-1.447l-4.068-1.172l-4.137-1.104l-4.137-0.827
		l-4.206-0.689l-4.272-0.482l-4.206-0.276L100,5l-4.274,0.068l-4.274,0.276l-4.206,0.482l-4.206,0.689l-4.205,0.827l-4.137,1.104
		l-4.067,1.172l-3.999,1.447l-3.999,1.586l-3.861,1.724l-3.792,1.999l-3.722,2.068l-3.585,2.274l-3.516,2.413l-3.378,2.62
		l-3.309,2.688l-3.103,2.896l-3.033,3.033l-2.896,3.103l-2.758,3.31l-2.551,3.378l-2.413,3.516l-2.275,3.585l-2.137,3.723
		l-1.93,3.792l-1.724,3.86l-1.585,3.999l-1.448,3.998l-1.241,4.067l-1.034,4.137L6.517,83.04l-0.689,4.206l-0.482,4.205
		l-0.276,4.274L5,100l0.069,4.274l0.276,4.205l0.482,4.273l0.689,4.206l0.827,4.205l1.034,4.067l1.241,4.137l1.448,3.999l1.585,3.93
		l1.724,3.93l1.93,3.791l2.137,3.723l2.275,3.585l2.413,3.516l2.551,3.379l2.758,3.31l2.896,3.103l3.033,3.033l3.103,2.895
		l3.309,2.689l3.378,2.619l3.516,2.413l3.585,2.275l3.722,2.068l3.792,1.999l3.861,1.724l3.999,1.586l3.999,1.447l4.067,1.172
		l4.137,1.034l4.205,0.896l4.206,0.62l4.206,0.482l4.274,0.345L100,195l4.274-0.069l4.206-0.345l4.272-0.482l4.206-0.62l4.137-0.896
		l4.137-1.034l4.068-1.172l4.067-1.447l3.929-1.586l3.93-1.724l3.792-1.999l3.654-2.068l3.652-2.275l3.516-2.413l3.38-2.619
		l3.239-2.689l3.172-2.895l3.033-3.033l2.827-3.103l2.757-3.31l2.551-3.379l2.481-3.516l2.276-3.585l2.068-3.723l1.93-3.791
		l1.792-3.93l1.586-3.93l1.378-3.999l1.242-4.137l1.034-4.067l0.826-4.205l0.69-4.206l0.482-4.273l0.274-4.205L195,100L195,100z
		 M158.808,148.12l2.412-3.033l2.205-3.172l2.068-3.309l1.793-3.378l1.723-3.447l1.517-3.516l1.38-3.586l1.171-3.722l0.965-3.723
		l0.76-3.792l0.552-3.792l0.413-3.86l0.208-3.792v-3.86l-0.208-3.861l-0.344-3.86l-0.621-3.791l-0.76-3.792l-0.965-3.724
		l-1.171-3.653l-1.311-3.653l-1.517-3.517l-1.723-3.447l-1.862-3.378l-1.999-3.309l-2.205-3.172l-2.414-3.033l-2.482-2.896
		l-2.687-2.826l-2.759-2.62l-2.964-2.551l-3.034-2.344l-3.171-2.206l-3.239-2l-3.38-1.93l-3.446-1.655l-3.585-1.517l-3.585-1.379
		l-3.654-1.103l-3.791-0.965l-3.724-0.828l-3.859-0.551l-3.793-0.414l-3.86-0.138h-3.86l-3.861,0.138l-3.861,0.414l-3.792,0.62
		l-3.792,0.759l-3.723,0.965l-3.654,1.172l-3.585,1.31L68.15,30.99l-3.447,1.654l-3.378,1.861l-3.24,2.068l-3.171,2.206
		l-3.034,2.345L158.808,148.12L158.808,148.12z M148.121,158.807L41.125,51.879l-2.413,3.103l-2.206,3.103l-2,3.31l-1.861,3.378
		l-1.724,3.446l-1.517,3.517l-1.379,3.654l-1.103,3.653l-0.966,3.723l-0.827,3.792l-0.551,3.792l-0.414,3.86l-0.207,3.86v3.86
		l0.207,3.792l0.414,3.861l0.551,3.791l0.827,3.792l0.896,3.723l1.172,3.724l1.379,3.584l1.517,3.517l1.655,3.446l1.93,3.447l2,3.24
		l2.206,3.171l2.344,3.033l2.551,2.896l2.62,2.826l2.826,2.619l2.896,2.551l3.033,2.345l3.171,2.206l3.309,2.068l3.378,1.861
		l3.447,1.654l3.517,1.517l3.654,1.379l3.653,1.103l3.723,0.966l3.792,0.759l3.792,0.62l3.86,0.414l3.861,0.138H102l3.86-0.207
		l3.792-0.345l3.791-0.62l3.793-0.759l3.722-0.966l3.723-1.172l3.586-1.379l3.516-1.517l3.446-1.654l3.378-1.93l3.31-2l3.172-2.206
		L148.121,158.807L148.121,158.807z"/>
</g>
</svg>
