<?xml version="1.0" encoding="utf-8"?>
<!-- Generator: Adobe Illustrator 16.0.0, SVG Export Plug-In . SVG Version: 6.00 Build 0)  -->
<!DOCTYPE svg PUBLIC "-//W3C//DTD SVG 1.1//EN" "http://www.w3.org/Graphics/SVG/1.1/DTD/svg11.dtd">
<svg version="1.1" id="Layer_1" xmlns="http://www.w3.org/2000/svg" xmlns:xlink="http://www.w3.org/1999/xlink" x="0px" y="0px"
	 width="200px" height="200px" viewBox="0 0 200 200" enable-background="new 0 0 200 200" xml:space="preserve">
<rect x="5" y="28.75" fill="#FFFFFF" stroke="#000000" stroke-miterlimit="10" width="190" height="142.5"/>
<path fill-rule="evenodd" clip-rule="evenodd" fill="#ED1C24" d="M15.265,124.136h78.98c0.715,0,1.3,0.585,1.3,1.3v36.826
	c0,0.715-0.585,1.299-1.3,1.299h-78.98c-0.715,0-1.3-0.584-1.3-1.299v-36.826C13.965,124.721,14.55,124.136,15.265,124.136z"/>
<path fill-rule="evenodd" clip-rule="evenodd" fill="#FFF200" d="M105.243,124.354h78.98c0.715,0,1.299,0.585,1.299,1.3v36.826
	c0,0.715-0.584,1.299-1.299,1.299h-78.98c-0.715,0-1.3-0.584-1.3-1.299v-36.826C103.943,124.938,104.528,124.354,105.243,124.354z"
	/>
<g>
	<path fill="#FFFFFF" d="M38.33,140.864h-2.352l-0.935-2.432h-4.28l-0.884,2.432h-2.293l4.17-10.707h2.286L38.33,140.864z
		 M34.35,136.628l-1.476-3.973l-1.446,3.973H34.35z"/>
	<path fill="#FFFFFF" d="M39.462,140.864v-10.707h2.052v10.707H39.462z"/>
	<path fill="#FFFFFF" d="M50.38,135.401l-2.023,0.365c-0.068-0.404-0.223-0.709-0.464-0.913c-0.241-0.204-0.554-0.307-0.938-0.307
		c-0.511,0-0.919,0.177-1.223,0.529c-0.304,0.354-0.457,0.943-0.457,1.771c0,0.92,0.155,1.57,0.464,1.95
		c0.309,0.379,0.724,0.569,1.245,0.569c0.39,0,0.708-0.11,0.957-0.332c0.248-0.222,0.423-0.603,0.526-1.144l2.016,0.344
		c-0.209,0.925-0.611,1.624-1.205,2.096c-0.594,0.473-1.39,0.708-2.388,0.708c-1.135,0-2.039-0.357-2.713-1.073
		s-1.012-1.706-1.012-2.973c0-1.28,0.338-2.277,1.015-2.99c0.677-0.714,1.592-1.07,2.746-1.07c0.945,0,1.696,0.203,2.253,0.61
		C49.737,133.949,50.137,134.568,50.38,135.401z"/>
	<path fill="#FFFFFF" d="M51.462,136.877c0-0.682,0.168-1.342,0.504-1.979s0.812-1.125,1.428-1.461
		c0.616-0.336,1.304-0.504,2.063-0.504c1.173,0,2.135,0.381,2.885,1.144c0.75,0.762,1.125,1.725,1.125,2.888
		c0,1.174-0.379,2.146-1.136,2.918c-0.757,0.771-1.71,1.157-2.859,1.157c-0.711,0-1.389-0.16-2.034-0.481
		c-0.646-0.321-1.136-0.793-1.472-1.413C51.63,138.523,51.462,137.768,51.462,136.877z M53.565,136.986
		c0,0.77,0.183,1.358,0.548,1.768c0.365,0.408,0.815,0.613,1.351,0.613s0.985-0.205,1.348-0.613
		c0.363-0.409,0.544-1.003,0.544-1.782c0-0.76-0.181-1.344-0.544-1.753s-0.812-0.613-1.348-0.613s-0.986,0.204-1.351,0.613
		S53.565,136.217,53.565,136.986z"/>
	<path fill="#FFFFFF" d="M63.118,130.157v3.937c0.662-0.774,1.453-1.161,2.374-1.161c0.472,0,0.898,0.088,1.278,0.263
		c0.379,0.176,0.666,0.399,0.858,0.672c0.192,0.273,0.324,0.575,0.395,0.906c0.07,0.331,0.106,0.845,0.106,1.541v4.55h-2.052v-4.098
		c0-0.812-0.039-1.329-0.117-1.548c-0.078-0.219-0.215-0.394-0.413-0.522s-0.444-0.193-0.741-0.193
		c-0.341,0-0.645,0.083-0.913,0.248c-0.268,0.166-0.463,0.415-0.588,0.749c-0.124,0.333-0.186,0.826-0.186,1.479v3.886h-2.052
		v-10.707H63.118z"/>
	<path fill="#FFFFFF" d="M69.735,136.877c0-0.682,0.168-1.342,0.504-1.979s0.812-1.125,1.428-1.461
		c0.616-0.336,1.304-0.504,2.063-0.504c1.173,0,2.135,0.381,2.885,1.144c0.75,0.762,1.125,1.725,1.125,2.888
		c0,1.174-0.379,2.146-1.136,2.918c-0.757,0.771-1.71,1.157-2.859,1.157c-0.711,0-1.389-0.16-2.034-0.481
		c-0.646-0.321-1.136-0.793-1.472-1.413C69.903,138.523,69.735,137.768,69.735,136.877z M71.838,136.986
		c0,0.77,0.183,1.358,0.548,1.768c0.365,0.408,0.815,0.613,1.351,0.613s0.985-0.205,1.348-0.613
		c0.363-0.409,0.544-1.003,0.544-1.782c0-0.76-0.181-1.344-0.544-1.753s-0.812-0.613-1.348-0.613s-0.986,0.204-1.351,0.613
		S71.838,136.217,71.838,136.986z"/>
	<path fill="#FFFFFF" d="M79.346,140.864v-10.707h2.052v10.707H79.346z"/>
	<path fill="#FFFFFF" d="M23.997,148.065h1.139v-0.585c0-0.652,0.069-1.139,0.208-1.46c0.139-0.322,0.394-0.583,0.767-0.785
		s0.844-0.304,1.413-0.304c0.584,0,1.157,0.088,1.716,0.263l-0.277,1.432c-0.326-0.077-0.64-0.116-0.942-0.116
		c-0.297,0-0.51,0.069-0.639,0.208c-0.129,0.139-0.194,0.405-0.194,0.8v0.548h1.534v1.613h-1.534v6.143h-2.052v-6.143h-1.139
		V148.065z"/>
	<path fill="#FFFFFF" d="M31.841,155.821h-2.052v-7.756h1.906v1.103c0.326-0.521,0.62-0.864,0.88-1.03
		c0.26-0.165,0.556-0.248,0.887-0.248c0.467,0,0.917,0.129,1.351,0.387l-0.635,1.79c-0.346-0.225-0.667-0.336-0.964-0.336
		c-0.287,0-0.531,0.079-0.73,0.237c-0.2,0.158-0.357,0.444-0.471,0.858c-0.115,0.413-0.172,1.28-0.172,2.6V155.821z"/>
	<path fill="#FFFFFF" d="M40.189,153.353l2.045,0.344c-0.263,0.75-0.678,1.32-1.246,1.712c-0.567,0.393-1.277,0.588-2.129,0.588
		c-1.349,0-2.347-0.44-2.994-1.321c-0.511-0.706-0.767-1.597-0.767-2.673c0-1.286,0.336-2.292,1.008-3.021
		c0.672-0.728,1.521-1.092,2.549-1.092c1.154,0,2.064,0.381,2.731,1.144c0.667,0.762,0.986,1.929,0.957,3.502h-5.142
		c0.015,0.608,0.18,1.082,0.497,1.42c0.316,0.339,0.711,0.508,1.183,0.508c0.321,0,0.592-0.088,0.811-0.263
		C39.911,154.024,40.077,153.742,40.189,153.353z M40.306,151.278c-0.015-0.594-0.168-1.045-0.46-1.354
		c-0.292-0.31-0.648-0.464-1.066-0.464c-0.448,0-0.818,0.163-1.11,0.489c-0.292,0.326-0.436,0.77-0.431,1.329H40.306z"/>
	<path fill="#FFFFFF" d="M48.508,153.353l2.045,0.344c-0.263,0.75-0.678,1.32-1.246,1.712c-0.567,0.393-1.277,0.588-2.129,0.588
		c-1.349,0-2.347-0.44-2.994-1.321c-0.511-0.706-0.767-1.597-0.767-2.673c0-1.286,0.336-2.292,1.008-3.021
		c0.672-0.728,1.521-1.092,2.549-1.092c1.154,0,2.064,0.381,2.731,1.144c0.667,0.762,0.986,1.929,0.957,3.502h-5.142
		c0.015,0.608,0.18,1.082,0.497,1.42c0.316,0.339,0.711,0.508,1.183,0.508c0.321,0,0.592-0.088,0.811-0.263
		C48.23,154.024,48.396,153.742,48.508,153.353z M48.625,151.278c-0.015-0.594-0.168-1.045-0.46-1.354
		c-0.292-0.31-0.648-0.464-1.066-0.464c-0.448,0-0.818,0.163-1.11,0.489c-0.292,0.326-0.436,0.77-0.431,1.329H48.625z"/>
	<path fill="#FFFFFF" d="M58.024,150.432l-1.862-0.336c0.209-0.75,0.569-1.305,1.081-1.665s1.271-0.541,2.279-0.541
		c0.916,0,1.597,0.108,2.045,0.325c0.448,0.217,0.763,0.492,0.946,0.825c0.183,0.334,0.274,0.945,0.274,1.837l-0.022,2.396
		c0,0.682,0.033,1.185,0.099,1.508c0.066,0.324,0.188,0.671,0.369,1.041h-2.031c-0.054-0.137-0.119-0.338-0.197-0.606
		c-0.034-0.121-0.058-0.202-0.073-0.241c-0.351,0.342-0.726,0.597-1.125,0.768c-0.399,0.17-0.825,0.255-1.278,0.255
		c-0.799,0-1.428-0.216-1.888-0.649c-0.46-0.434-0.69-0.981-0.69-1.644c0-0.438,0.104-0.829,0.314-1.172
		c0.209-0.344,0.503-0.606,0.88-0.789c0.377-0.183,0.921-0.342,1.632-0.479c0.959-0.18,1.624-0.348,1.994-0.504v-0.204
		c0-0.395-0.098-0.676-0.292-0.844c-0.195-0.168-0.562-0.252-1.103-0.252c-0.365,0-0.65,0.072-0.854,0.216
		S58.15,150.071,58.024,150.432z M60.77,152.097c-0.263,0.088-0.679,0.192-1.249,0.313c-0.57,0.122-0.942,0.241-1.117,0.358
		c-0.268,0.189-0.402,0.431-0.402,0.723c0,0.288,0.107,0.536,0.321,0.745c0.214,0.21,0.487,0.314,0.818,0.314
		c0.37,0,0.723-0.122,1.059-0.365c0.249-0.186,0.412-0.412,0.489-0.68c0.054-0.175,0.081-0.509,0.081-1V152.097z"/>
	<path fill="#FFFFFF" d="M66.773,155.821h-2.052v-7.756h1.906v1.103c0.326-0.521,0.62-0.864,0.88-1.03
		c0.26-0.165,0.556-0.248,0.887-0.248c0.467,0,0.917,0.129,1.351,0.387l-0.635,1.79c-0.346-0.225-0.667-0.336-0.964-0.336
		c-0.287,0-0.531,0.079-0.73,0.237c-0.2,0.158-0.357,0.444-0.471,0.858c-0.115,0.413-0.172,1.28-0.172,2.6V155.821z"/>
	<path fill="#FFFFFF" d="M75.122,153.353l2.045,0.344c-0.263,0.75-0.678,1.32-1.246,1.712c-0.567,0.393-1.277,0.588-2.129,0.588
		c-1.349,0-2.347-0.44-2.994-1.321c-0.511-0.706-0.767-1.597-0.767-2.673c0-1.286,0.336-2.292,1.008-3.021
		c0.672-0.728,1.521-1.092,2.549-1.092c1.154,0,2.064,0.381,2.731,1.144c0.667,0.762,0.986,1.929,0.957,3.502h-5.142
		c0.015,0.608,0.18,1.082,0.497,1.42c0.316,0.339,0.711,0.508,1.183,0.508c0.321,0,0.592-0.088,0.811-0.263
		C74.844,154.024,75.009,153.742,75.122,153.353z M75.238,151.278c-0.015-0.594-0.168-1.045-0.46-1.354
		c-0.292-0.31-0.648-0.464-1.066-0.464c-0.448,0-0.818,0.163-1.11,0.489c-0.292,0.326-0.436,0.77-0.431,1.329H75.238z"/>
	<path fill="#FFFFFF" d="M80.482,150.432l-1.862-0.336c0.209-0.75,0.569-1.305,1.081-1.665s1.271-0.541,2.279-0.541
		c0.916,0,1.597,0.108,2.045,0.325c0.448,0.217,0.763,0.492,0.946,0.825c0.183,0.334,0.274,0.945,0.274,1.837l-0.022,2.396
		c0,0.682,0.033,1.185,0.099,1.508c0.066,0.324,0.188,0.671,0.369,1.041h-2.031c-0.054-0.137-0.119-0.338-0.197-0.606
		c-0.034-0.121-0.058-0.202-0.073-0.241c-0.351,0.342-0.726,0.597-1.125,0.768c-0.399,0.17-0.825,0.255-1.278,0.255
		c-0.799,0-1.428-0.216-1.888-0.649c-0.46-0.434-0.69-0.981-0.69-1.644c0-0.438,0.104-0.829,0.314-1.172
		c0.209-0.344,0.503-0.606,0.88-0.789c0.377-0.183,0.921-0.342,1.632-0.479c0.959-0.18,1.624-0.348,1.994-0.504v-0.204
		c0-0.395-0.098-0.676-0.292-0.844c-0.195-0.168-0.562-0.252-1.103-0.252c-0.365,0-0.65,0.072-0.854,0.216
		S80.608,150.071,80.482,150.432z M83.228,152.097c-0.263,0.088-0.679,0.192-1.249,0.313c-0.57,0.122-0.942,0.241-1.117,0.358
		c-0.268,0.189-0.402,0.431-0.402,0.723c0,0.288,0.107,0.536,0.321,0.745c0.214,0.21,0.487,0.314,0.818,0.314
		c0.37,0,0.723-0.122,1.059-0.365c0.249-0.186,0.412-0.412,0.489-0.68c0.054-0.175,0.081-0.509,0.081-1V152.097z"/>
</g>
<g>
	<path d="M111.223,130.329h2.322c0.523,0,0.924,0.04,1.199,0.12c0.369,0.109,0.686,0.303,0.949,0.58
		c0.262,0.277,0.463,0.618,0.6,1.02c0.139,0.402,0.207,0.898,0.207,1.488c0,0.519-0.064,0.965-0.193,1.34
		c-0.158,0.458-0.383,0.829-0.674,1.112c-0.221,0.215-0.52,0.383-0.895,0.503c-0.279,0.089-0.654,0.133-1.125,0.133h-2.391V130.329z
		 M112.492,131.395v4.17h0.949c0.355,0,0.611-0.021,0.77-0.061c0.207-0.052,0.377-0.139,0.514-0.262
		c0.135-0.123,0.246-0.325,0.332-0.607s0.129-0.667,0.129-1.153s-0.043-0.86-0.129-1.121c-0.086-0.26-0.205-0.464-0.361-0.609
		c-0.154-0.146-0.35-0.245-0.588-0.297c-0.178-0.04-0.525-0.06-1.043-0.06H112.492z"/>
	<path d="M118.725,136.625h-1.207v-4.561h1.121v0.648c0.191-0.307,0.363-0.508,0.518-0.605c0.152-0.098,0.326-0.146,0.521-0.146
		c0.275,0,0.539,0.076,0.795,0.228l-0.373,1.053c-0.205-0.132-0.393-0.198-0.568-0.198c-0.168,0-0.311,0.047-0.43,0.14
		c-0.117,0.094-0.209,0.262-0.275,0.505c-0.068,0.243-0.102,0.753-0.102,1.529V136.625z"/>
	<path d="M120.992,131.446v-1.117h1.207v1.117H120.992z M120.992,136.625v-4.561h1.207v4.561H120.992z"/>
	<path d="M127.584,136.625h-1.207v-2.327c0-0.493-0.025-0.812-0.076-0.956c-0.053-0.145-0.137-0.257-0.252-0.337
		s-0.256-0.12-0.418-0.12c-0.209,0-0.398,0.057-0.564,0.172c-0.166,0.114-0.279,0.266-0.34,0.455
		c-0.062,0.188-0.094,0.538-0.094,1.048v2.065h-1.205v-4.561h1.119v0.67c0.398-0.516,0.9-0.773,1.504-0.773
		c0.266,0,0.51,0.048,0.73,0.145c0.221,0.096,0.387,0.218,0.5,0.367c0.113,0.148,0.191,0.317,0.236,0.507
		c0.045,0.188,0.066,0.459,0.066,0.812V136.625z"/>
	<path d="M128.764,136.625v-6.296h1.207v3.342l1.414-1.606h1.484l-1.559,1.666l1.672,2.895h-1.303l-1.146-2.049l-0.562,0.589v1.46
		H128.764z"/>
	<path d="M133.699,131.446v-1.117h1.207v1.117H133.699z M133.699,136.625v-4.561h1.207v4.561H133.699z"/>
	<path d="M140.291,136.625h-1.207v-2.327c0-0.493-0.025-0.812-0.076-0.956c-0.053-0.145-0.137-0.257-0.252-0.337
		s-0.256-0.12-0.418-0.12c-0.209,0-0.398,0.057-0.564,0.172c-0.166,0.114-0.279,0.266-0.34,0.455
		c-0.062,0.188-0.094,0.538-0.094,1.048v2.065h-1.205v-4.561h1.119v0.67c0.398-0.516,0.9-0.773,1.504-0.773
		c0.266,0,0.51,0.048,0.73,0.145c0.221,0.096,0.387,0.218,0.5,0.367c0.113,0.148,0.191,0.317,0.236,0.507
		c0.045,0.188,0.066,0.459,0.066,0.812V136.625z"/>
	<path d="M141.402,136.926l1.379,0.167c0.023,0.16,0.076,0.271,0.158,0.331c0.115,0.086,0.295,0.129,0.541,0.129
		c0.316,0,0.553-0.048,0.709-0.142c0.107-0.063,0.188-0.165,0.24-0.305c0.037-0.101,0.057-0.285,0.057-0.555v-0.665
		c-0.361,0.492-0.816,0.738-1.365,0.738c-0.613,0-1.098-0.259-1.457-0.777c-0.279-0.409-0.42-0.919-0.42-1.528
		c0-0.765,0.184-1.349,0.551-1.753c0.369-0.403,0.826-0.605,1.373-0.605c0.564,0,1.029,0.248,1.396,0.743v-0.64h1.129v4.093
		c0,0.538-0.045,0.94-0.133,1.206c-0.09,0.267-0.215,0.476-0.375,0.627c-0.16,0.152-0.373,0.271-0.641,0.356
		s-0.607,0.129-1.016,0.129c-0.773,0-1.322-0.132-1.645-0.396c-0.324-0.266-0.486-0.601-0.486-1.008
		C141.398,137.031,141.4,136.982,141.402,136.926z M142.48,134.25c0,0.484,0.094,0.838,0.281,1.063
		c0.188,0.225,0.42,0.337,0.693,0.337c0.295,0,0.545-0.115,0.748-0.346s0.305-0.572,0.305-1.024c0-0.473-0.098-0.823-0.293-1.052
		c-0.193-0.229-0.439-0.344-0.738-0.344c-0.289,0-0.527,0.112-0.715,0.337S142.48,133.789,142.48,134.25z"/>
	<path d="M150.232,133.456l-1.094-0.198c0.123-0.44,0.334-0.767,0.635-0.979s0.748-0.318,1.34-0.318
		c0.539,0,0.939,0.064,1.203,0.191c0.262,0.127,0.447,0.289,0.555,0.485s0.162,0.556,0.162,1.08l-0.014,1.408
		c0,0.401,0.02,0.696,0.059,0.887s0.111,0.395,0.217,0.612h-1.193c-0.031-0.08-0.07-0.199-0.117-0.356
		c-0.02-0.071-0.033-0.119-0.043-0.142c-0.205,0.2-0.426,0.351-0.66,0.451c-0.236,0.1-0.486,0.15-0.752,0.15
		c-0.471,0-0.84-0.128-1.109-0.383c-0.271-0.255-0.406-0.577-0.406-0.966c0-0.258,0.061-0.487,0.184-0.689s0.297-0.356,0.518-0.464
		c0.223-0.107,0.543-0.201,0.961-0.281c0.562-0.105,0.955-0.205,1.172-0.296v-0.121c0-0.231-0.057-0.396-0.172-0.496
		c-0.115-0.099-0.33-0.147-0.648-0.147c-0.215,0-0.383,0.042-0.502,0.127C150.404,133.096,150.307,133.244,150.232,133.456z
		 M151.848,134.435c-0.154,0.052-0.4,0.113-0.734,0.185c-0.336,0.072-0.555,0.142-0.656,0.211c-0.158,0.111-0.236,0.253-0.236,0.425
		c0,0.169,0.062,0.315,0.188,0.438c0.127,0.123,0.287,0.185,0.482,0.185c0.217,0,0.424-0.071,0.621-0.215
		c0.146-0.108,0.242-0.242,0.289-0.399c0.031-0.104,0.047-0.299,0.047-0.588V134.435z"/>
	<path d="M154.223,136.625v-6.296h1.207v6.296H154.223z"/>
	<path d="M160.643,133.413l-1.189,0.215c-0.041-0.238-0.131-0.417-0.273-0.537c-0.141-0.12-0.324-0.181-0.551-0.181
		c-0.301,0-0.541,0.104-0.719,0.312c-0.18,0.208-0.27,0.555-0.27,1.041c0,0.541,0.092,0.924,0.273,1.147
		c0.182,0.223,0.426,0.335,0.732,0.335c0.229,0,0.416-0.065,0.562-0.196c0.145-0.13,0.248-0.354,0.309-0.672l1.186,0.202
		c-0.123,0.544-0.359,0.955-0.709,1.232s-0.818,0.417-1.404,0.417c-0.668,0-1.199-0.211-1.596-0.632s-0.594-1.003-0.594-1.748
		c0-0.753,0.199-1.339,0.596-1.758c0.398-0.42,0.938-0.63,1.615-0.63c0.555,0,0.996,0.12,1.324,0.359
		C160.264,132.559,160.5,132.923,160.643,133.413z"/>
	<path d="M161.279,134.28c0-0.4,0.098-0.789,0.295-1.164s0.479-0.661,0.84-0.858c0.363-0.198,0.768-0.297,1.213-0.297
		c0.691,0,1.256,0.225,1.697,0.673c0.439,0.447,0.66,1.014,0.66,1.698c0,0.689-0.223,1.262-0.668,1.716
		c-0.443,0.453-1.004,0.681-1.68,0.681c-0.418,0-0.816-0.095-1.197-0.284c-0.379-0.188-0.668-0.466-0.865-0.831
		C161.377,135.249,161.279,134.804,161.279,134.28z M162.516,134.345c0,0.452,0.107,0.799,0.322,1.039s0.479,0.361,0.793,0.361
		c0.316,0,0.58-0.121,0.793-0.361s0.32-0.59,0.32-1.048c0-0.446-0.107-0.79-0.32-1.03c-0.213-0.241-0.477-0.361-0.793-0.361
		c-0.314,0-0.578,0.12-0.793,0.361C162.623,133.546,162.516,133.893,162.516,134.345z"/>
	<path d="M168.133,130.329v2.315c0.389-0.456,0.854-0.684,1.395-0.684c0.277,0,0.529,0.052,0.752,0.155
		c0.223,0.103,0.391,0.234,0.504,0.395s0.191,0.338,0.232,0.532c0.041,0.195,0.062,0.497,0.062,0.906v2.676h-1.207v-2.409
		c0-0.479-0.023-0.781-0.068-0.91c-0.047-0.129-0.127-0.231-0.242-0.308c-0.117-0.075-0.262-0.113-0.436-0.113
		c-0.201,0-0.381,0.049-0.537,0.146c-0.158,0.098-0.273,0.244-0.346,0.44c-0.074,0.196-0.109,0.486-0.109,0.87v2.284h-1.207v-6.296
		H168.133z"/>
	<path d="M172.023,134.28c0-0.4,0.098-0.789,0.295-1.164s0.479-0.661,0.84-0.858c0.363-0.198,0.768-0.297,1.213-0.297
		c0.691,0,1.256,0.225,1.697,0.673c0.439,0.447,0.66,1.014,0.66,1.698c0,0.689-0.223,1.262-0.668,1.716
		c-0.443,0.453-1.004,0.681-1.68,0.681c-0.418,0-0.816-0.095-1.197-0.284c-0.379-0.188-0.668-0.466-0.865-0.831
		C172.121,135.249,172.023,134.804,172.023,134.28z M173.26,134.345c0,0.452,0.107,0.799,0.322,1.039s0.479,0.361,0.793,0.361
		c0.316,0,0.58-0.121,0.793-0.361s0.32-0.59,0.32-1.048c0-0.446-0.107-0.79-0.32-1.03c-0.213-0.241-0.477-0.361-0.793-0.361
		c-0.314,0-0.578,0.12-0.793,0.361C173.367,133.546,173.26,133.893,173.26,134.345z"/>
	<path d="M177.674,136.625v-6.296h1.207v6.296H177.674z"/>
	<path d="M122.449,140.241v-1.117h1.207v1.117H122.449z M122.449,145.42v-4.561h1.207v4.561H122.449z"/>
	<path d="M129.041,145.42h-1.205v-2.327c0-0.493-0.027-0.812-0.078-0.956s-0.135-0.257-0.252-0.337
		c-0.115-0.08-0.254-0.12-0.418-0.12c-0.209,0-0.396,0.057-0.562,0.172c-0.166,0.114-0.279,0.266-0.342,0.455
		c-0.061,0.188-0.092,0.538-0.092,1.048v2.065h-1.207v-4.561h1.121v0.67c0.398-0.516,0.898-0.773,1.504-0.773
		c0.266,0,0.508,0.048,0.729,0.145c0.221,0.096,0.389,0.218,0.5,0.367c0.113,0.148,0.193,0.317,0.236,0.507
		c0.045,0.188,0.066,0.459,0.066,0.812V145.42z"/>
	<path d="M134.801,140.859v0.962h-0.824v1.838c0,0.372,0.008,0.589,0.023,0.65s0.053,0.112,0.107,0.152
		c0.057,0.04,0.125,0.061,0.205,0.061c0.111,0,0.273-0.039,0.484-0.116l0.104,0.937c-0.281,0.12-0.6,0.181-0.953,0.181
		c-0.219,0-0.414-0.037-0.59-0.11c-0.174-0.072-0.303-0.167-0.383-0.283c-0.082-0.116-0.139-0.272-0.17-0.47
		c-0.025-0.141-0.039-0.424-0.039-0.851v-1.988h-0.555v-0.962h0.555v-0.906l1.211-0.704v1.61H134.801z"/>
	<path d="M136.842,139.124v2.315c0.389-0.456,0.854-0.684,1.395-0.684c0.277,0,0.529,0.052,0.752,0.155
		c0.223,0.103,0.391,0.234,0.504,0.395s0.191,0.338,0.232,0.532c0.041,0.195,0.062,0.497,0.062,0.906v2.676h-1.207v-2.409
		c0-0.479-0.023-0.781-0.068-0.91c-0.047-0.129-0.127-0.231-0.242-0.308c-0.117-0.075-0.262-0.113-0.436-0.113
		c-0.201,0-0.381,0.049-0.537,0.146c-0.158,0.098-0.273,0.244-0.346,0.44c-0.074,0.196-0.109,0.486-0.109,0.87v2.284h-1.207v-6.296
		H136.842z"/>
	<path d="M141.01,140.241v-1.117h1.207v1.117H141.01z M141.01,145.42v-4.561h1.207v4.561H141.01z"/>
	<path d="M143.029,144.119l1.211-0.186c0.051,0.235,0.156,0.413,0.312,0.535c0.158,0.122,0.379,0.183,0.662,0.183
		c0.312,0,0.547-0.058,0.705-0.172c0.105-0.08,0.158-0.188,0.158-0.322c0-0.092-0.029-0.167-0.086-0.228
		c-0.061-0.058-0.195-0.11-0.404-0.159c-0.973-0.215-1.59-0.41-1.85-0.588c-0.361-0.246-0.541-0.589-0.541-1.026
		c0-0.396,0.154-0.728,0.467-0.996c0.312-0.27,0.797-0.404,1.451-0.404c0.625,0,1.088,0.102,1.393,0.306
		c0.303,0.203,0.512,0.504,0.627,0.901l-1.139,0.21c-0.049-0.177-0.141-0.313-0.277-0.407c-0.135-0.095-0.33-0.142-0.582-0.142
		c-0.316,0-0.545,0.044-0.682,0.133c-0.092,0.062-0.139,0.145-0.139,0.245c0,0.086,0.041,0.158,0.121,0.219
		c0.109,0.08,0.484,0.193,1.127,0.339c0.643,0.146,1.092,0.325,1.346,0.537c0.252,0.215,0.379,0.514,0.379,0.897
		c0,0.418-0.174,0.777-0.523,1.078s-0.867,0.451-1.551,0.451c-0.621,0-1.113-0.126-1.475-0.378
		C143.377,144.894,143.141,144.551,143.029,144.119z"/>
	<path d="M151.691,142.251l-1.096-0.198c0.123-0.44,0.336-0.767,0.635-0.979c0.301-0.212,0.748-0.318,1.34-0.318
		c0.539,0,0.939,0.064,1.203,0.191s0.449,0.289,0.557,0.485s0.16,0.556,0.16,1.08l-0.012,1.408c0,0.401,0.02,0.696,0.057,0.887
		c0.039,0.19,0.111,0.395,0.217,0.612h-1.193c-0.031-0.08-0.07-0.199-0.115-0.356c-0.02-0.071-0.035-0.119-0.043-0.142
		c-0.207,0.2-0.428,0.351-0.662,0.451c-0.234,0.1-0.484,0.15-0.752,0.15c-0.469,0-0.838-0.128-1.109-0.383
		c-0.27-0.255-0.406-0.577-0.406-0.966c0-0.258,0.062-0.487,0.186-0.689s0.295-0.356,0.518-0.464
		c0.221-0.107,0.541-0.201,0.959-0.281c0.564-0.105,0.955-0.205,1.172-0.296v-0.121c0-0.231-0.057-0.396-0.172-0.496
		c-0.113-0.099-0.33-0.147-0.648-0.147c-0.213,0-0.381,0.042-0.502,0.127C151.863,141.891,151.766,142.039,151.691,142.251z
		 M153.305,143.229c-0.154,0.052-0.398,0.113-0.734,0.185c-0.334,0.072-0.553,0.142-0.656,0.211
		c-0.158,0.111-0.236,0.253-0.236,0.425c0,0.169,0.062,0.315,0.189,0.438c0.125,0.123,0.285,0.185,0.48,0.185
		c0.217,0,0.426-0.071,0.623-0.215c0.146-0.108,0.242-0.242,0.287-0.399c0.031-0.104,0.047-0.299,0.047-0.588V143.229z"/>
	<path d="M156.836,145.42h-1.207v-4.561h1.121v0.648c0.191-0.307,0.363-0.508,0.518-0.605c0.152-0.098,0.326-0.146,0.521-0.146
		c0.275,0,0.539,0.076,0.795,0.228l-0.373,1.053c-0.205-0.132-0.393-0.198-0.568-0.198c-0.168,0-0.311,0.047-0.43,0.14
		c-0.117,0.094-0.209,0.262-0.275,0.505c-0.068,0.243-0.102,0.753-0.102,1.529V145.42z"/>
	<path d="M161.744,143.969l1.203,0.201c-0.154,0.441-0.398,0.777-0.732,1.008s-0.75,0.346-1.252,0.346
		c-0.793,0-1.381-0.26-1.76-0.777c-0.301-0.415-0.451-0.939-0.451-1.572c0-0.756,0.197-1.348,0.592-1.775
		c0.395-0.429,0.895-0.643,1.498-0.643c0.68,0,1.215,0.225,1.607,0.673c0.393,0.447,0.58,1.134,0.562,2.059h-3.023
		c0.008,0.358,0.105,0.637,0.291,0.835c0.188,0.199,0.418,0.299,0.697,0.299c0.188,0,0.348-0.052,0.477-0.154
		C161.582,144.363,161.678,144.197,161.744,143.969z M161.812,142.749c-0.008-0.35-0.098-0.615-0.27-0.797s-0.381-0.272-0.627-0.272
		c-0.264,0-0.48,0.096-0.652,0.287c-0.172,0.192-0.258,0.453-0.254,0.782H161.812z"/>
	<path d="M164.896,142.251l-1.096-0.198c0.123-0.44,0.336-0.767,0.635-0.979c0.301-0.212,0.748-0.318,1.34-0.318
		c0.539,0,0.939,0.064,1.203,0.191s0.449,0.289,0.557,0.485s0.16,0.556,0.16,1.08l-0.012,1.408c0,0.401,0.02,0.696,0.057,0.887
		c0.039,0.19,0.111,0.395,0.217,0.612h-1.193c-0.031-0.08-0.07-0.199-0.115-0.356c-0.02-0.071-0.035-0.119-0.043-0.142
		c-0.207,0.2-0.428,0.351-0.662,0.451c-0.234,0.1-0.484,0.15-0.752,0.15c-0.469,0-0.838-0.128-1.109-0.383
		c-0.27-0.255-0.406-0.577-0.406-0.966c0-0.258,0.062-0.487,0.186-0.689s0.295-0.356,0.518-0.464
		c0.221-0.107,0.541-0.201,0.959-0.281c0.564-0.105,0.955-0.205,1.172-0.296v-0.121c0-0.231-0.057-0.396-0.172-0.496
		c-0.113-0.099-0.33-0.147-0.648-0.147c-0.213,0-0.381,0.042-0.502,0.127C165.068,141.891,164.971,142.039,164.896,142.251z
		 M166.51,143.229c-0.154,0.052-0.398,0.113-0.734,0.185c-0.334,0.072-0.553,0.142-0.656,0.211
		c-0.158,0.111-0.236,0.253-0.236,0.425c0,0.169,0.062,0.315,0.189,0.438c0.125,0.123,0.285,0.185,0.48,0.185
		c0.217,0,0.426-0.071,0.623-0.215c0.146-0.108,0.242-0.242,0.287-0.399c0.031-0.104,0.047-0.299,0.047-0.588V143.229z"/>
	<path d="M119.283,149.036v-1.117h1.207v1.117H119.283z M119.283,154.215v-4.561h1.207v4.561H119.283z"/>
	<path d="M121.301,152.914l1.211-0.186c0.053,0.235,0.156,0.413,0.314,0.535c0.156,0.122,0.377,0.183,0.66,0.183
		c0.312,0,0.547-0.058,0.705-0.172c0.105-0.08,0.158-0.188,0.158-0.322c0-0.092-0.027-0.167-0.086-0.228
		c-0.059-0.058-0.193-0.11-0.402-0.159c-0.975-0.215-1.592-0.41-1.852-0.588c-0.361-0.246-0.541-0.589-0.541-1.026
		c0-0.396,0.156-0.728,0.469-0.996c0.311-0.27,0.795-0.404,1.451-0.404c0.623,0,1.088,0.102,1.391,0.306
		c0.305,0.203,0.514,0.504,0.627,0.901l-1.137,0.21c-0.049-0.177-0.143-0.313-0.277-0.407c-0.137-0.095-0.33-0.142-0.582-0.142
		c-0.318,0-0.545,0.044-0.684,0.133c-0.092,0.062-0.137,0.145-0.137,0.245c0,0.086,0.039,0.158,0.119,0.219
		c0.109,0.08,0.486,0.193,1.129,0.339c0.643,0.146,1.09,0.325,1.346,0.537c0.252,0.215,0.377,0.514,0.377,0.897
		c0,0.418-0.174,0.777-0.523,1.078s-0.865,0.451-1.551,0.451c-0.621,0-1.111-0.126-1.475-0.378
		C121.65,153.688,121.412,153.346,121.301,152.914z"/>
	<path d="M129.027,149.654h1.125v0.67c0.146-0.229,0.344-0.415,0.592-0.559c0.25-0.143,0.525-0.215,0.83-0.215
		c0.529,0,0.979,0.208,1.348,0.623s0.555,0.993,0.555,1.735c0,0.761-0.188,1.354-0.559,1.775c-0.373,0.422-0.822,0.634-1.354,0.634
		c-0.252,0-0.48-0.051-0.684-0.15c-0.205-0.101-0.42-0.272-0.646-0.516v2.298h-1.207V149.654z M130.221,151.857
		c0,0.513,0.102,0.891,0.305,1.136s0.451,0.367,0.744,0.367c0.279,0,0.514-0.112,0.699-0.337s0.279-0.594,0.279-1.106
		c0-0.478-0.096-0.833-0.287-1.064c-0.193-0.232-0.43-0.348-0.713-0.348c-0.295,0-0.541,0.113-0.734,0.341
		C130.318,151.073,130.221,151.41,130.221,151.857z"/>
	<path d="M135.588,154.215h-1.205v-4.561h1.119v0.648c0.193-0.307,0.365-0.508,0.518-0.605c0.154-0.098,0.328-0.146,0.523-0.146
		c0.273,0,0.539,0.076,0.793,0.228l-0.373,1.053c-0.203-0.132-0.393-0.198-0.566-0.198c-0.17,0-0.312,0.047-0.43,0.14
		c-0.117,0.094-0.209,0.262-0.277,0.505c-0.066,0.243-0.102,0.753-0.102,1.529V154.215z"/>
	<path d="M137.578,151.87c0-0.4,0.098-0.789,0.295-1.164s0.479-0.661,0.84-0.858c0.363-0.198,0.768-0.297,1.213-0.297
		c0.691,0,1.256,0.225,1.697,0.673c0.439,0.447,0.66,1.014,0.66,1.698c0,0.689-0.223,1.262-0.668,1.716
		c-0.443,0.453-1.004,0.681-1.68,0.681c-0.418,0-0.816-0.095-1.197-0.284c-0.379-0.188-0.668-0.466-0.865-0.831
		C137.676,152.839,137.578,152.394,137.578,151.87z M138.814,151.935c0,0.452,0.107,0.799,0.322,1.039s0.479,0.361,0.793,0.361
		c0.316,0,0.58-0.121,0.793-0.361s0.32-0.59,0.32-1.048c0-0.446-0.107-0.79-0.32-1.03c-0.213-0.241-0.477-0.361-0.793-0.361
		c-0.314,0-0.578,0.12-0.793,0.361C138.922,151.136,138.814,151.482,138.814,151.935z"/>
	<path d="M144.432,147.919v2.315c0.389-0.456,0.854-0.684,1.395-0.684c0.277,0,0.529,0.052,0.752,0.155
		c0.223,0.103,0.391,0.234,0.504,0.395s0.191,0.338,0.232,0.532c0.041,0.195,0.062,0.497,0.062,0.906v2.676h-1.207v-2.409
		c0-0.479-0.023-0.781-0.068-0.91c-0.047-0.129-0.127-0.231-0.242-0.308c-0.117-0.075-0.262-0.113-0.436-0.113
		c-0.201,0-0.381,0.049-0.537,0.146c-0.158,0.098-0.273,0.244-0.346,0.44c-0.074,0.196-0.109,0.486-0.109,0.87v2.284h-1.207v-6.296
		H144.432z"/>
	<path d="M148.602,149.036v-1.117h1.207v1.117H148.602z M148.602,154.215v-4.561h1.207v4.561H148.602z"/>
	<path d="M150.994,154.215v-6.296h1.205v2.268c0.373-0.424,0.814-0.636,1.324-0.636c0.555,0,1.014,0.201,1.377,0.604
		c0.365,0.402,0.547,0.98,0.547,1.733c0,0.778-0.186,1.378-0.557,1.799s-0.82,0.632-1.352,0.632c-0.26,0-0.518-0.065-0.77-0.196
		c-0.254-0.13-0.473-0.322-0.656-0.577v0.67H150.994z M152.191,151.836c0,0.473,0.074,0.821,0.223,1.048
		c0.209,0.32,0.488,0.48,0.834,0.48c0.266,0,0.492-0.113,0.68-0.341s0.281-0.587,0.281-1.076c0-0.521-0.094-0.896-0.283-1.127
		c-0.188-0.23-0.43-0.346-0.725-0.346c-0.289,0-0.529,0.112-0.723,0.337C152.287,151.036,152.191,151.378,152.191,151.836z"/>
	<path d="M156.416,149.036v-1.117h1.207v1.117H156.416z M156.416,154.215v-4.561h1.207v4.561H156.416z"/>
	<path d="M160.951,149.654v0.962h-0.824v1.838c0,0.372,0.008,0.589,0.023,0.65s0.053,0.112,0.107,0.152
		c0.057,0.04,0.125,0.061,0.205,0.061c0.111,0,0.273-0.039,0.484-0.116l0.104,0.937c-0.281,0.12-0.6,0.181-0.953,0.181
		c-0.219,0-0.414-0.037-0.59-0.11c-0.174-0.072-0.303-0.167-0.383-0.283c-0.082-0.116-0.139-0.272-0.17-0.47
		c-0.025-0.141-0.039-0.424-0.039-0.851v-1.988h-0.555v-0.962h0.555v-0.906l1.211-0.704v1.61H160.951z"/>
	<path d="M164.43,152.764l1.203,0.201c-0.154,0.441-0.398,0.777-0.732,1.008s-0.75,0.346-1.252,0.346
		c-0.793,0-1.381-0.26-1.76-0.777c-0.301-0.415-0.451-0.939-0.451-1.572c0-0.756,0.197-1.348,0.592-1.775
		c0.395-0.429,0.895-0.643,1.498-0.643c0.68,0,1.215,0.225,1.607,0.673c0.393,0.447,0.58,1.134,0.562,2.059h-3.023
		c0.008,0.358,0.105,0.637,0.291,0.835c0.188,0.199,0.418,0.299,0.697,0.299c0.188,0,0.348-0.052,0.477-0.154
		C164.268,153.158,164.363,152.992,164.43,152.764z M164.498,151.544c-0.008-0.35-0.098-0.615-0.27-0.797s-0.381-0.272-0.627-0.272
		c-0.264,0-0.48,0.096-0.652,0.287c-0.172,0.192-0.258,0.453-0.254,0.782H164.498z"/>
	<path d="M170.863,154.215h-1.121v-0.67c-0.186,0.261-0.406,0.454-0.658,0.582c-0.254,0.127-0.51,0.191-0.768,0.191
		c-0.523,0-0.973-0.212-1.346-0.634s-0.561-1.012-0.561-1.768c0-0.772,0.182-1.36,0.545-1.763s0.824-0.604,1.379-0.604
		c0.51,0,0.951,0.212,1.322,0.636v-2.268h1.207V154.215z M167.643,151.836c0,0.486,0.066,0.839,0.201,1.057
		c0.195,0.314,0.467,0.472,0.816,0.472c0.277,0,0.514-0.118,0.709-0.354c0.195-0.236,0.291-0.59,0.291-1.059
		c0-0.524-0.094-0.901-0.283-1.132c-0.188-0.23-0.43-0.346-0.725-0.346c-0.287,0-0.527,0.113-0.721,0.341
		S167.643,151.384,167.643,151.836z"/>
</g>
<polygon fill-rule="evenodd" clip-rule="evenodd" fill="#FFF200" points="145.824,45.713 111.09,106.233 179.957,106.233 "/>
<path fill-rule="evenodd" clip-rule="evenodd" d="M111.771,105.875l34.052-59.327l33.46,59.327H111.771L111.771,105.875z
	 M185.665,106.586L148.28,40.895c0,0-0.568-1.417-2.413-1.417c-1.842,0-2.695,1.417-2.695,1.417l-37.571,65.516
	c0,0-0.95,1.618-0.074,3.132c0,0,0.899,1.489,2.388,1.489h74.913c0,0,2.009,0.062,2.814-1.514
	C186.314,108.207,185.988,107.197,185.665,106.586z"/>
<circle fill-rule="evenodd" clip-rule="evenodd" cx="143.085" cy="85.844" r="2.253"/>
<circle fill-rule="evenodd" clip-rule="evenodd" cx="150.071" cy="94.989" r="2.028"/>
<rect x="163.502" y="89.375" fill-rule="evenodd" clip-rule="evenodd" width="3.879" height="12.272"/>
<rect x="162.31" y="92.687" fill-rule="evenodd" clip-rule="evenodd" width="3.879" height="5.54"/>
<path fill-rule="evenodd" clip-rule="evenodd" d="M163.35,94.855l-10.636-0.234c0,0,0.034,0.203,0.021,0.533
	c-0.01,0.332-0.105,0.663-0.105,0.663l10.725,0.229L163.35,94.855z"/>
<path fill-rule="evenodd" clip-rule="evenodd" d="M148.445,92.897c0.245-0.187,0.415-0.243,0.415-0.243l-3.652-4.864
	c0,0-0.138,0.178-0.362,0.357c-0.213,0.166-0.48,0.313-0.48,0.313l3.66,4.845C148.025,93.306,148.202,93.083,148.445,92.897z"/>
<rect x="125.506" y="90.409" transform="matrix(-0.5664 -0.8241 0.8241 -0.5664 125.7749 247.4325)" fill-rule="evenodd" clip-rule="evenodd" width="4.945" height="0.441"/>
<rect x="125.777" y="89.91" transform="matrix(-0.8244 0.566 -0.566 -0.8244 282.8112 95.4763)" fill-rule="evenodd" clip-rule="evenodd" width="1.635" height="3.399"/>
<path fill-rule="evenodd" clip-rule="evenodd" d="M145.523,84.391c-0.496-0.83-1.401-1.384-2.438-1.384
	c-1.566,0-2.836,1.269-2.836,2.838c0,0.659,0.225,1.268,0.604,1.75l-9.426,6.484l-5.299-7.712l21.063-14.477l5.301,7.713
	L145.523,84.391z"/>
<g>
	<g>
		<g>
			<path fill-rule="evenodd" clip-rule="evenodd" d="M50.194,47.343c-1.036,0.22-2.02,0.453-2.181,1.582
				c-0.582,4.087,0.535,2.052-0.128,6.666c-0.155,1.079-0.117,2.338-0.282,3.345c-0.167,1.024-0.284,2.301-0.377,3.368
				c-0.249,2.84-2.573,1.681-2.462,8.583c0.078,4.821,0.206,9.641,0.244,14.454c0.021,2.647,0.2,4.118,1.89,5.514
				c2.613,2.158,7.083,2.175,9.611-0.292c1.712-1.669,1.192-5.41,1.278-7.909c0.116-3.365,1.076-14.71-0.504-17.336
				c-0.234-0.39-0.535-0.817-0.761-1.088c-0.375-0.449-0.64-0.545-0.759-1.044l-0.954-10.155c-0.026-0.867,0.363-0.641,0.25-1.521
				c-0.092-0.722-0.341-0.591-0.29-1.59c0.075-1.448-0.021-1.829-1.31-2.344C52.53,47.203,51.32,47.104,50.194,47.343z"/>
			<path fill-rule="evenodd" clip-rule="evenodd" fill="#FFFFFF" d="M50.668,53.143l-1.26-0.005
				c-0.093,2.22-0.326,4.461-0.539,6.691c-0.471,4.946,0.104,2.848-1.703,5.668c-0.658,1.026-1.607,4.792-0.879,6.005
				c1.289,2.15,5.799,2.622,8.219,1.754c0.639-0.229,1.976-1.022,2.179-1.486c0.531-1.212-0.279-5.296-0.878-6.271
				c-0.633-1.029-1.246-0.996-1.38-2.261c-0.126-1.181-0.187-2.244-0.307-3.407c-0.12-1.166-0.221-2.211-0.295-3.372l-0.229-2.419
				c-0.028-0.274-0.108-0.515-0.122-0.927c-0.632,0.075-0.674,0.256-1.177-0.081c-0.019-0.783,0.015-0.347,0.954-0.722
				c0.842-0.336,0.447-1.139,0.014-1.675c-1.164,0.505-2.847,0.192-3.938-0.125c-0.071,0.517-0.301,1.084,0.071,1.568
				C49.966,52.814,50.398,51.959,50.668,53.143z"/>
			<path fill-rule="evenodd" clip-rule="evenodd" fill="#FFFFFF" d="M56.697,72.826c-2.518,1.505-5.107,2.159-8.3,0.945
				c-1.895-0.721-1.275-0.718-2.261-1.196c-0.042,1.393,0.044,10.275,0.164,12.07c0.139,2.094,5.9,3.759,8.984,1.715
				c1.558-1.033,1.129-1.45,1.159-3.834C56.482,79.348,56.521,75.98,56.697,72.826z"/>
			<path fill-rule="evenodd" clip-rule="evenodd" fill="#FFFFFF" d="M56.304,86.641l-1.135,0.618
				c-1.868,0.965-4.869,0.954-6.797,0.144c-0.772-0.324-1.478-0.944-1.968-1.135c0,2.952,1.615,4.596,4.616,4.839
				c1.389,0.113,2.994-0.21,3.853-0.896C56.197,89.153,56.303,88.634,56.304,86.641z"/>
			<path fill-rule="evenodd" clip-rule="evenodd" fill="#FFFFFF" d="M49.315,49.105c0.942-1.025,3.039-1.121,4.157-0.042
				C52.465,50.16,50.482,50.201,49.315,49.105z"/>
		</g>
		<g>
			<path fill-rule="evenodd" clip-rule="evenodd" d="M41.617,74.85c-1.715,0.253-3.068,0.756-4.112,1.636
				c-1.398,1.178-1.49,2.117-1.601,4.219c-0.143,2.718-0.749,0.008-0.67,5.098L35.4,97.138c0.042,2.399-0.481,3,1.007,4.746
				c4.225,4.959,14.891,2.762,15.055-2.615c0.114-3.739,0.021-7.705,0.075-11.483c0.021-1.471,0.303-4.212-0.298-5.405
				c-0.97-1.925,0.281-3.231-0.766-5.037C49.254,75.24,44.964,74.356,41.617,74.85z"/>
			<path fill-rule="evenodd" clip-rule="evenodd" fill="#FFFFFF" d="M36.759,96.9c0.417-0.193,0.752-0.606,1.25-0.935
				c0.452-0.299,0.91-0.489,1.429-0.691c1.114-0.436,2.427-0.709,3.701-0.769c4.839-0.228,6.249,1.744,6.872,1.904
				c0.005-2.234,0.453-12.097,0.015-13.379c-1.689,1.707-3.641,2.093-6.748,2.144c-1.769,0.029-3.762-0.429-5.292-1.452
				c-0.439-0.294-0.745-0.759-1.122-0.964c-0.574,1.191-0.207,5.334-0.185,6.869C36.713,92.064,36.67,94.501,36.759,96.9z"/>
			<path fill-rule="evenodd" clip-rule="evenodd" fill="#FFFFFF" d="M42.183,95.275c-9.599,1.772-4.648,7.687,2.785,6.763
				c1.64-0.204,4.477-1.206,5.014-2.442c0.25-0.575,0.096-1.762-0.186-2.176C48.606,95.676,45.106,94.735,42.183,95.275z"/>
			<path fill-rule="evenodd" clip-rule="evenodd" fill="#FFFFFF" d="M41.946,77.744c-6.949,1.178-3.829,3.815-0.477,4.399
				c4.655,0.812,9.666-1.555,7.257-3.205C46.978,77.741,44.163,77.369,41.946,77.744z"/>
			<path fill-rule="evenodd" clip-rule="evenodd" fill="#FFFFFF" d="M37.483,101.064c2.674,3.212,8.542,3.444,11.712,0.62
				C44.873,103.577,41.257,103.802,37.483,101.064z"/>
			<path fill-rule="evenodd" clip-rule="evenodd" fill="#FFFFFF" d="M37.691,81.75c2.674,3.212,8.541,3.444,11.712,0.619
				C45.081,84.262,41.464,84.487,37.691,81.75z"/>
			<path fill-rule="evenodd" clip-rule="evenodd" fill="#FFFFFF" d="M37.53,78.458c2.702-3.189,8.571-3.371,11.717-0.519
				C44.941,76.009,41.328,75.754,37.53,78.458z"/>
		</g>
		<g>
			<path fill-rule="evenodd" clip-rule="evenodd" fill="#FFFFFF" d="M60.645,86.215c0.979-0.234,4.466,0.095,5.565,0.235
				c4.671,0.598,4.591,3.264,3.19,7.49c-2.021,6.093-7.509,6.697-9.637,1.218C58.782,92.63,57.222,87.031,60.645,86.215
				L60.645,86.215z M63.904,67.66c-0.633,0.65-0.991,0.066-1.953-0.09c-0.305,1.128-1.467,5.114-1.575,6.109
				c-0.108,0.991,0.299,1.389,0.296,2.429c-0.407,0.333-1.02,0.672-1.464,1.015c-1.771,1.367-2.51,2.731-2.45,5.197
				c0.076,3.096,0.508,6.359,0.714,9.453c0.062,0.925,0.413,4.015,0.24,4.659c-0.222,0.829-0.989,1.351-0.254,4.221
				c1.21,4.724,11.667,4.828,13.096-0.026c0.187-0.633,0.27-1.667,0.236-2.397c-0.147-3.149-0.783,0.763,0.102-6.759
				c0.335-2.854,0.606-6.025,1.125-8.902c0.31-1.716-0.1-2.807-0.86-4.018c-1.01-1.609-1.281-1.365-2.832-2.336
				c-0.136-1.418,0.94-2.373,0.323-4.475c-0.383-1.306-0.822-2.577-1.152-4.037c-0.823,0.051-1.024,0.516-1.764-0.106
				c0.602-0.61,0.105-0.252,0.96-0.526c0.892-0.286,1.142-0.777,0.885-1.997c-0.201-0.956-0.038-0.552,0.031-1.242
				c-0.839,0.085-1.383,0.437-2.731,0.463c-1.4,0.028-1.775-0.371-2.778-0.527c0.044,0.647,0.199,0.549,0.026,1.269
				c-0.511,2.123,0.423,1.694,1.367,2.131C64.195,67.495,63.806,67.2,63.904,67.66z"/>
			<path fill-rule="evenodd" clip-rule="evenodd" d="M61.951,67.569c0.962,0.157,1.32,0.741,1.953,0.09
				c-0.098-0.459,0.291-0.165-0.412-0.491c-0.944-0.437-1.878-0.009-1.367-2.131c0.173-0.72,0.018-0.622-0.026-1.269
				c1.003,0.156,1.378,0.555,2.778,0.527c1.348-0.026,1.892-0.377,2.731-0.463c-0.069,0.689-0.232,0.286-0.031,1.242
				c0.256,1.219,0.007,1.71-0.885,1.997c-0.855,0.274-0.359-0.084-0.96,0.526c0.74,0.622,0.94,0.157,1.764,0.106
				c0.33,1.46,0.769,2.731,1.152,4.037c0.617,2.102-0.459,3.057-0.323,4.475c1.551,0.971,1.822,0.727,2.832,2.336
				c0.76,1.211,1.169,2.302,0.86,4.018c-0.519,2.877-0.79,6.049-1.125,8.902c-0.885,7.521-0.25,3.61-0.102,6.759
				c0.034,0.729-0.049,1.764-0.236,2.397c-1.429,4.854-11.886,4.75-13.096,0.026c-0.735-2.871,0.032-3.393,0.254-4.221
				c0.172-0.644-0.178-3.734-0.24-4.659c-0.206-3.094-0.638-6.357-0.714-9.453c-0.06-2.465,0.679-3.83,2.45-5.197
				c0.444-0.343,1.057-0.682,1.464-1.015c0.002-1.041-0.404-1.438-0.296-2.429C60.484,72.683,61.646,68.697,61.951,67.569
				L61.951,67.569z M70.055,75.384c-0.014-1.764,0.529-1.961-0.183-4.793c-1.251-4.978-0.464-1.386-0.766-5.701
				c-0.09-1.289,0.521-4.864-4.386-4.644c-4.135,0.187-4.24,2.554-4.18,6.361c0.013,0.817-0.7,3.043-0.969,4.292
				c-0.518,2.405-0.881,1.804-0.506,4.541c-1.007,0.537-2.361,1.824-2.846,2.631c-2.236,3.723,0.224,13.498,0.041,17.497
				c-0.037,0.808-0.486,1.292-0.56,2.193c-0.432,5.249,3.257,8.087,8.392,8.02c5.086-0.065,8.901-2.999,8.097-8.48
				c-0.165-1.125-0.426-0.938-0.211-2.346c0.11-0.723,0.196-1.642,0.3-2.403c0.438-3.207,0.84-6.526,1.187-9.825
				c0.218-2.07,0.018-3-0.806-4.571C71.786,76.495,71.252,76.451,70.055,75.384z"/>
			<path fill-rule="evenodd" clip-rule="evenodd" fill="#FFFFFF" d="M59.38,90.201c0.336,2.711,1.154,6.271,3.178,7.51
				c2.144,1.312,4.958-0.38,6.094-3.749c1.23-3.65,1.767-6.124-2.384-6.728c-1.127-0.164-3.938-0.44-5.026-0.386
				C59.53,86.934,59.164,88.452,59.38,90.201z"/>
			<path fill-rule="evenodd" clip-rule="evenodd" d="M59.38,90.201c-0.217-1.75,0.149-3.268,1.861-3.353
				c1.088-0.054,3.899,0.222,5.026,0.386c4.151,0.604,3.615,3.078,2.384,6.728c-1.136,3.369-3.95,5.061-6.094,3.749
				C60.535,96.472,59.716,92.913,59.38,90.201L59.38,90.201z M60.645,86.215c-3.423,0.816-1.863,6.415-0.881,8.943
				c2.128,5.479,7.616,4.875,9.637-1.218c1.401-4.227,1.481-6.893-3.19-7.49C65.111,86.311,61.624,85.981,60.645,86.215z"/>
			<path fill-rule="evenodd" clip-rule="evenodd" fill="#FFFFFF" d="M62.611,62.413c1.048-1.14,3.38-1.246,4.625-0.046
				C66.115,63.587,63.909,63.632,62.611,62.413z"/>
		</g>
	</g>
	<path fill-rule="evenodd" clip-rule="evenodd" fill="#ED1C24" d="M80.538,96.335L35.289,51.089
		c5.452-4.204,12.261-6.728,19.674-6.728c17.838,0,32.298,14.46,32.298,32.301C87.261,84.075,84.737,90.883,80.538,96.335
		L80.538,96.335z M54.963,108.962c7.403,0,14.202-2.516,19.65-6.708L29.378,57c-4.194,5.452-6.714,12.253-6.714,19.662
		C22.664,94.498,37.127,108.962,54.963,108.962L54.963,108.962z M54.963,36.222c-22.333,0-40.438,18.104-40.438,40.44
		c0,22.335,18.104,40.439,40.438,40.439c22.334,0,40.441-18.104,40.441-40.439C95.404,54.326,77.297,36.222,54.963,36.222z"/>
</g>
</svg>
