<?xml version="1.0" encoding="utf-8"?>
<!-- Generator: Adobe Illustrator 16.0.0, SVG Export Plug-In . SVG Version: 6.00 Build 0)  -->
<!DOCTYPE svg PUBLIC "-//W3C//DTD SVG 1.1//EN" "http://www.w3.org/Graphics/SVG/1.1/DTD/svg11.dtd">
<svg version="1.1" id="Layer_1" xmlns="http://www.w3.org/2000/svg" xmlns:xlink="http://www.w3.org/1999/xlink" x="0px" y="0px"
	 width="200px" height="200px" viewBox="0 0 200 200" enable-background="new 0 0 200 200" xml:space="preserve">
<polygon fill="#FDEC0A" stroke="#1C181B" stroke-width="1.4615" points="174.538,195 25.462,195 25.462,5 174.538,5 "/>
<g>
	<g>
		<path fill="#2C2A29" d="M163,178.776c0,2.867-2.347,5.214-5.214,5.214H42.214c-2.868,0-5.214-2.347-5.214-5.214v-43.94
			c0-2.867,2.346-5.214,5.214-5.214h115.572c2.867,0,5.214,2.347,5.214,5.214V178.776z"/>
	</g>
	<g>
		<path fill="#FFFFFF" d="M46.214,179.641c-2.868,0-5.214-2.347-5.214-5.214v-35.241c0-2.867,2.346-5.214,5.214-5.214h107.572
			c2.867,0,5.214,2.347,5.214,5.214v35.241c0,2.867-2.347,5.214-5.214,5.214H46.214z"/>
	</g>
</g>
<g>
	<g enable-background="new    ">
		<path fill="#2C2A29" d="M81.158,147.277l3.733,1.128c-0.251,1.047-0.646,1.922-1.186,2.624s-1.208,1.231-2.007,1.589
			c-0.8,0.357-1.816,0.536-3.052,0.536c-1.498,0-2.723-0.218-3.672-0.653c-0.95-0.436-1.77-1.201-2.459-2.298
			c-0.689-1.096-1.034-2.499-1.034-4.21c0-2.28,0.606-4.032,1.819-5.258c1.213-1.225,2.929-1.837,5.148-1.837
			c1.736,0,3.102,0.352,4.095,1.054c0.994,0.702,1.732,1.78,2.215,3.234l-3.762,0.837c-0.131-0.42-0.27-0.728-0.413-0.922
			c-0.238-0.325-0.53-0.576-0.875-0.752s-0.73-0.264-1.156-0.264c-0.966,0-1.705,0.389-2.22,1.165
			c-0.389,0.576-0.583,1.48-0.583,2.714c0,1.528,0.232,2.575,0.696,3.142c0.464,0.567,1.115,0.851,1.956,0.851
			c0.814,0,1.431-0.229,1.848-0.687S80.97,148.148,81.158,147.277z"/>
		<path fill="#2C2A29" d="M85.606,142.933h4.038l2.06,6.648l1.913-6.648h3.771l-3.962,10.67c-0.451,1.218-0.912,2.039-1.382,2.466
			c-0.665,0.603-1.677,0.903-3.036,0.903c-0.552,0-1.404-0.075-2.557-0.226l-0.301-2.671c0.551,0.176,1.165,0.264,1.842,0.264
			c0.45,0,0.815-0.104,1.094-0.311c0.279-0.207,0.516-0.578,0.71-1.111L85.606,142.933z"/>
		<path fill="#2C2A29" d="M105.589,149.007l3.639,0.414c-0.201,0.759-0.529,1.415-0.987,1.97s-1.042,0.986-1.754,1.293
			c-0.712,0.308-1.616,0.461-2.713,0.461c-1.06,0-1.942-0.099-2.647-0.296s-1.312-0.517-1.819-0.958s-0.906-0.96-1.194-1.555
			c-0.288-0.596-0.433-1.385-0.433-2.368c0-1.026,0.176-1.882,0.527-2.564c0.257-0.501,0.607-0.95,1.053-1.349
			c0.445-0.397,0.902-0.693,1.373-0.888c0.746-0.307,1.702-0.46,2.868-0.46c1.63,0,2.873,0.291,3.729,0.874s1.455,1.436,1.801,2.558
			l-3.602,0.48c-0.113-0.427-0.318-0.748-0.616-0.964c-0.298-0.217-0.697-0.325-1.198-0.325c-0.634,0-1.146,0.228-1.538,0.681
			c-0.392,0.454-0.587,1.141-0.587,2.061c0,0.82,0.193,1.442,0.582,1.868s0.885,0.638,1.486,0.638c0.501,0,0.923-0.128,1.265-0.385
			C105.163,149.935,105.419,149.54,105.589,149.007z"/>
		<path fill="#2C2A29" d="M110.618,139.134h3.838v13.785h-3.838V139.134z"/>
		<path fill="#2C2A29" d="M127.987,148.876h-7.674c0.069,0.614,0.235,1.071,0.498,1.372c0.37,0.433,0.854,0.649,1.449,0.649
			c0.375,0,0.732-0.095,1.071-0.282c0.207-0.119,0.429-0.329,0.668-0.63l3.771,0.348c-0.576,1.003-1.272,1.723-2.088,2.158
			c-0.814,0.436-1.984,0.653-3.508,0.653c-1.322,0-2.363-0.187-3.121-0.56c-0.759-0.373-1.387-0.965-1.885-1.777
			c-0.499-0.812-0.748-1.766-0.748-2.863c0-1.561,0.5-2.824,1.5-3.789c1-0.966,2.381-1.448,4.142-1.448
			c1.43,0,2.558,0.216,3.386,0.648c0.827,0.433,1.457,1.06,1.89,1.881s0.649,1.891,0.649,3.207V148.876z M124.094,147.042
			c-0.075-0.74-0.274-1.27-0.597-1.589c-0.323-0.32-0.748-0.48-1.274-0.48c-0.608,0-1.095,0.242-1.458,0.725
			c-0.231,0.301-0.379,0.749-0.441,1.345H124.094z"/>
	</g>
	<g enable-background="new    ">
		<path fill="#2C2A29" d="M71.259,160.703h11.416v2.943h-7.146v2.19h6.629v2.812h-6.629v2.718h7.354v3.122H71.259V160.703z"/>
		<path fill="#2C2A29" d="M83.794,164.502h3.982l1.938,6.328l2.01-6.328h3.862l-4.244,9.986h-3.395L83.794,164.502z"/>
		<path fill="#2C2A29" d="M107.274,170.445h-7.674c0.069,0.614,0.235,1.071,0.499,1.372c0.369,0.433,0.853,0.649,1.448,0.649
			c0.376,0,0.733-0.095,1.072-0.282c0.207-0.119,0.429-0.329,0.668-0.63l3.77,0.348c-0.576,1.003-1.271,1.723-2.087,2.158
			s-1.984,0.653-3.508,0.653c-1.323,0-2.363-0.187-3.122-0.56s-1.387-0.965-1.885-1.777c-0.499-0.812-0.748-1.766-0.748-2.863
			c0-1.561,0.5-2.824,1.5-3.789c1-0.966,2.381-1.448,4.143-1.448c1.43,0,2.558,0.216,3.385,0.648
			c0.828,0.433,1.457,1.06,1.891,1.881c0.432,0.821,0.648,1.891,0.648,3.207V170.445z M103.382,168.611
			c-0.076-0.74-0.275-1.27-0.598-1.589c-0.322-0.32-0.748-0.48-1.273-0.48c-0.609,0-1.095,0.242-1.458,0.725
			c-0.232,0.301-0.38,0.749-0.442,1.345H103.382z"/>
		<path fill="#2C2A29" d="M109.032,164.502h3.564v1.627c0.533-0.665,1.072-1.14,1.617-1.425s1.21-0.428,1.994-0.428
			c1.059,0,1.888,0.314,2.486,0.945c0.599,0.63,0.898,1.603,0.898,2.919v6.348h-3.846v-5.491c0-0.627-0.117-1.07-0.349-1.331
			c-0.231-0.26-0.558-0.39-0.978-0.39c-0.465,0-0.84,0.175-1.129,0.526c-0.288,0.351-0.432,0.981-0.432,1.89v4.796h-3.828V164.502z"
			/>
		<path fill="#2C2A29" d="M126.494,160.703v3.799h2.106v2.802h-2.106v3.538c0,0.426,0.041,0.707,0.122,0.845
			c0.125,0.213,0.346,0.319,0.658,0.319c0.283,0,0.678-0.081,1.186-0.244l0.281,2.642c-0.946,0.207-1.83,0.311-2.651,0.311
			c-0.952,0-1.655-0.122-2.106-0.366s-0.785-0.615-1.001-1.113c-0.216-0.497-0.325-1.304-0.325-2.418v-3.513h-1.41v-2.802h1.41
			v-1.834L126.494,160.703z"/>
	</g>
</g>
<g>
	<path fill="#EC1C24" d="M154.819,120.345c2.823-0.071,5.543-1.557,7.058-4.179c1.516-2.633,1.444-5.729,0.096-8.208L107.153,13
		c-1.475-2.408-4.124-4.02-7.154-4.02c-3.03,0-5.679,1.611-7.153,4.02l-54.819,94.958c-1.353,2.479-1.419,5.575,0.096,8.208
		c1.515,2.622,4.235,4.107,7.057,4.179H154.819z"/>
	<polygon fill="#FFFFFF" points="99.999,23.043 50.175,109.342 149.824,109.342 	"/>
	<g>
		<path fill-rule="evenodd" clip-rule="evenodd" fill="#231F20" d="M102.592,90.496c-0.403-0.801-0.807-1.668-1.27-2.527
			c-0.664,0-1.327,0-1.991,0c0-0.536,0-1.069,0-1.668c0.397,0,0.865,0,1.327,0c0,0,0,0,0.071,0c0.201-0.266,0.534-0.397,0.927-0.397
			c0.332,0,0.663,0.131,0.864,0.397c0,0,0,0,0.071,0c0.533,0,1.125,0,1.729,0c0,0.534,0,1.062,0,1.668c-0.474,0-0.995,0-1.528,0
			c0.261,0.664,0.594,1.328,0.924,1.993c0,0,0.071,0,0.131-0.066c0.474-0.13,1.007-0.267,1.541-0.267c0.059,0,0.13,0,0.191,0
			c0,0,0,0,0.07,0c1.6-3.861,3.188-7.789,4.789-11.718c-7.516,0-15.038,0-22.619,0c-0.202,0.797-0.469,1.597-0.73,2.397
			c5.056,3.459,10.112,6.924,15.17,10.455C102.319,90.697,102.461,90.632,102.592,90.496 M125.412,94.156
			c0.06,0.136,0.13,0.337,0.13,0.533c0,0.665-0.604,1.264-1.268,1.264c-2.856,0-5.784,0-8.714,0c0,0,0,0,0,0.071
			c0.664,4.266,4.326,7.46,8.714,7.46c4.859,0,8.786-3.928,8.786-8.794c0-4.859-3.927-8.787-8.786-8.787
			c-0.995,0-2.062,0.131-2.987,0.463C122.615,88.964,124.013,91.563,125.412,94.156z M118.689,87.897
			c-1.8,1.399-2.796,3.263-3.129,5.463c0,0,0,0,0,0.065c1.993,0,4.055,0,6.117,0c-0.995-1.862-1.991-3.731-2.988-5.594
			C118.689,87.832,118.689,87.832,118.689,87.897z M108.779,90.893c1.66-4.13,3.32-8.253,4.99-12.382
			c0.996,1.927,2.063,3.927,3.12,5.927c0,0,0,0,0,0.066c-2.989,2.128-4.79,5.261-5.122,8.921c-0.463,0-0.996,0-1.529,0
			c-0.201-0.997-0.664-1.731-1.459-2.461C108.779,90.964,108.779,90.964,108.779,90.893z M84.625,88.698
			c-0.196,0.729-0.398,1.465-0.665,2.267c-0.728,2.324-3.194,4.259-5.524,4.923c-0.065,0.065-0.194,0.065-0.259,0.065
			c-0.669,0-1.269-0.599-1.269-1.264c0-0.397,0.202-0.794,0.534-1.061c0.066,0,0.136-0.07,0.201-0.138
			c1.394-0.931,2.597-2.063,3.059-3.465c0.332-1.126,0.664-2.259,1.067-3.393c0,0,0,0-0.071,0c-1.062-0.469-2.259-0.73-3.521-0.73
			c-4.861,0-8.786,3.927-8.786,8.787c0,4.866,3.925,8.794,8.786,8.794c4.855,0,8.778-3.928,8.778-8.794
			c0-2.26-0.865-4.396-2.264-5.927C84.69,88.762,84.69,88.762,84.625,88.698z M102.058,94.689c0,1.87,1.528,3.329,3.331,3.329
			c1.861,0,3.391-1.458,3.391-3.329c0-1.863-1.529-3.328-3.391-3.328C103.586,91.361,102.058,92.826,102.058,94.689z M82.829,82.972
			c1.066-3.529,2.127-7.059,3.195-10.656c0-0.071,0-0.071,0-0.136c0-0.131-0.13-0.268-0.267-0.333c0,0,0,0-0.066-0.065
			c-1.262-0.534-2.062-1.731-2.062-3.062c0-1.868,1.464-3.399,3.326-3.399c0.397,0,0.8,0,1.263,0c1.528,0,3.063,0,4.593,0
			c0,1.067,0,2.201,0,3.328c-1.399,0-2.798,0-4.192,0c-0.264,0-0.531,0-0.798,0c-0.267,0-0.469,0.203-0.469,0.468
			c0,0.131,0.071,0.267,0.202,0.334c0,0,0,0,0.065,0c1.065,0.6,1.795,1.399,1.795,2.597c0,0.535-0.066,0.667-0.196,1.2
			c-0.071,0.266-0.534,1.731-0.534,1.731c7.583,0,15.235,0,22.882,0c0.473-1.066,0.937-2.199,1.399-3.333
			c-1.731-0.397-3.463-0.86-5.182-1.328c-0.402-0.066-0.604-0.398-0.604-0.801c0-0.464,0.332-0.868,0.796-0.868
			c3.863,0,7.787,0,11.711,0c0,0,0,0,0.07,0.071c0,1.798-1.528,3.328-3.4,3.328c-0.332,0.933-0.725,1.93-1.128,2.931
			c1.4,2.665,2.858,5.328,4.327,8.058c1.459-0.599,3.131-0.931,4.719-0.931c6.923,0,12.578,5.66,12.578,12.583
			c0,6.929-5.655,12.589-12.578,12.589c-6.448,0-11.902-4.865-12.507-11.326c-0.463,0-0.926,0-1.459,0c0,0,0,0-0.07,0
			c-0.262,1.205-0.996,2.202-2.062,2.931c0,0,0,0,0-0.065c0.404,0.867,0.864,1.732,1.327,2.599c0.675,0,1.339,0,2.003,0
			c0,0.534,0,1.067,0,1.662c-0.462,0-0.937,0-1.398,0c-0.272,0.271-0.604,0.404-0.937,0.404c-0.392,0-0.723-0.133-0.924-0.404
			c-0.604,0-1.197,0-1.802,0c0-0.534,0-1.069,0-1.662c0.532,0,1.066,0,1.601,0c-0.332-0.665-0.664-1.33-0.996-1.998
			c-0.735,0.267-0.866,0.336-1.661,0.336c-2.736,0-4.997-2.336-4.997-5.066c0-0.533,0.066-0.996,0.196-1.466c0,0,0,0,0-0.065
			c-4.784-3.263-9.573-6.526-14.363-9.854c-0.136,0.397-0.267,0.865-0.403,1.33c0,0,0,0,0,0.071
			c3.129,2.461,4.926,5.993,4.926,9.984c0,6.929-5.655,12.589-12.572,12.589c-6.923,0-12.579-5.66-12.579-12.589
			c0-6.922,5.655-12.583,12.579-12.583c1.99,0,2.726,0.13,4.522,0.865C82.699,82.972,82.764,82.972,82.829,82.972z"/>
	</g>
</g>
</svg>
