<?xml version="1.0" encoding="utf-8"?>
<!-- Generator: Adobe Illustrator 16.0.0, SVG Export Plug-In . SVG Version: 6.00 Build 0)  -->
<!DOCTYPE svg PUBLIC "-//W3C//DTD SVG 1.1//EN" "http://www.w3.org/Graphics/SVG/1.1/DTD/svg11.dtd">
<svg version="1.1" id="Layer_1" xmlns="http://www.w3.org/2000/svg" xmlns:xlink="http://www.w3.org/1999/xlink" x="0px" y="0px"
	 width="200px" height="200px" viewBox="0 0 200 200" enable-background="new 0 0 200 200" xml:space="preserve">
<g>
	<g>
		<rect x="5" y="108.437" fill="#FFFFFE" width="190" height="61.754"/>
		<path fill="none" stroke="#1B171A" d="M195,170.19 M5,170.19h190v-61.754H5V170.19z"/>
		<path fill="#ED1C24" d="M185.334,165.381c2.623,0,4.75-2.127,4.75-4.751v-42.749c0-2.624-2.127-4.751-4.75-4.751H14.332
			c-2.624,0-4.749,2.127-4.749,4.751v42.749c0,2.624,2.125,4.751,4.749,4.751"/>
		<path fill="#FFFFFE" d="M63.966,126.45c0,0-5.736-1.798-8.826-11.699c-1.444,3.613-2.687,12.377,8.826,18.344"/>
		<path fill="#FFFFFE" d="M62.907,136.862c0,0-5.5-1.016-9.14-9.228c-1.119-2.526-3.425-9.14-12.528-9.14
			c2.696,2.061,4.047,4.145,5.756,8.294C52.126,139.254,61.696,137.448,62.907,136.862"/>
		<path fill="#FFFFFE" d="M63.966,142.427c0,0-11.215-0.995-20.399-13.692c0,16.148,19.862,19.956,20.399,20.062"/>
		<path fill="#FFFFFE" d="M62.907,153.156c0,0-5.763-0.585-11.51-6.56c-5.374-5.587-11.544-3.513-13.629-1.779
			c2.638-0.239,5.686,1.538,9.607,5.459C54.261,157.163,62.272,153.79,62.907,153.156"/>
		<path fill="#FFFFFE" d="M63.966,157.546c0,0-12.15,1.843-20.104-5.449c-0.276-0.832,1.525,12.148,20.104,11.427"/>
		<path fill="#FFFFFE" d="M27.211,114.538h-4.042l0.318,1.227h-3.619l-6.625,4.189c0,0-1.141,0.824-1.141,2.266v3.343h1.482v-1.271
			c0,0-0.066-0.443,0.38-0.719c0.445-0.275,6.411-4.084,6.411-4.084h2.645l-0.498,0.498v3.162h-1.279c0,0-4.76-0.112-4.76,4.508
			v35.866h17.435c0.022,0,0-35.739,0-35.739s-0.233-4.613-4.189-4.613h-1.776v-3.682h2.157l1.82-0.678v-2.37l-1.588-0.698h-3.427"/>
	</g>
	<g>
		<rect x="5" y="29.81" fill="#FFFFFE" width="190" height="61.753"/>
		<path fill="none" stroke="#1B171A" d="M195,91.561 M5,91.561h190V29.81H5V91.561z"/>
		<path fill="#ED1C24" d="M185.334,86.753c2.621,0,4.75-2.127,4.75-4.752v-42.75c0-2.623-2.129-4.75-4.75-4.75H14.329
			c-2.62,0-4.749,2.128-4.749,4.75v42.75c0,2.625,2.129,4.752,4.749,4.752"/>
		<path fill="#FFFFFE" d="M10.295,48.242c0,0,5.35-1.678,8.229-10.916c1.35,3.371,2.507,11.547-8.229,17.113"/>
		<path fill="#FFFFFE" d="M11.284,57.952c0,0,5.13-0.945,8.526-8.604c1.044-2.357,3.194-8.527,11.686-8.527
			c-2.517,1.922-3.776,3.866-5.371,7.737C21.338,60.185,12.413,58.499,11.284,57.952"/>
		<path fill="#FFFFFE" d="M10.295,63.144c0,0,10.462-0.928,19.027-12.77c0,15.06-18.526,18.611-19.027,18.712"/>
		<path fill="#FFFFFE" d="M11.284,73.152c0,0,5.377-0.547,10.737-6.121c5.014-5.208,10.77-3.276,12.714-1.655
			c-2.463-0.223-5.306,1.433-8.963,5.092C19.35,76.889,11.875,73.744,11.284,73.152"/>
		<path fill="#FFFFFE" d="M10.295,77.249c0,0,11.334,1.719,18.752-5.082c0.26-0.777-1.419,11.329-18.752,10.656"/>
		<path fill="#FFFFFE" d="M51.852,50.342H55.8V36.863h-13.48v13.479h3.57c0.021-0.828,0.494-1.244,0.494-1.244h-2.823V38.105h10.996
			v10.993h-3.218C51.339,49.098,51.852,49.712,51.852,50.342"/>
		<path fill="#FFFFFE" d="M49.06,39.346c-2.352,0-4.258,1.905-4.258,4.256c0,2.351,1.906,4.256,4.258,4.256
			c2.348,0,4.258-1.905,4.258-4.256C53.317,41.25,51.407,39.346,49.06,39.346"/>
		<path fill="#FFFFFE" d="M51.418,59.956v-9.435c0,0-0.22-2.271-2.624-2.271c-2.41,0-2.488,2.19-2.488,2.19v21.218h-0.711v-8.405
			c0,0,0.079-2.823-2.466-2.823c-2.548,0-2.626,2.723-2.626,2.723v8.329c0,0,0.059,2.586,0.119,2.884
			c0.059,0.295,0.097,0.475,0.175,0.612c0.08,0.137,4.977,7.282,4.977,7.282s0.453,0.831,0.453,1.875v0.889h16.777v-0.77
			c0,0-0.116-2.171,1.737-3.674c0.828-0.669,0.906-0.707,0.906-0.707s0.535-0.594,0.535-0.988V63.943c0,0,0.019-2.388-2.33-2.388
			c-2.348,0-2.585,2.427-2.585,2.427c-0.035-0.506-0.06-4.105-2.271-4.105c-2.109,0-2.27,2.35-2.27,2.35
			c-0.109-0.578,0.106-4.187-2.625-4.187c-1.983,0-2.132,1.659-2.132,1.659S51.772,60.153,51.418,59.956"/>
		<path fill="none" stroke="#ED1C24" stroke-width="0.7273" d="M51.418,59.956v-9.435c0,0-0.22-2.271-2.624-2.271
			c-2.41,0-2.488,2.19-2.488,2.19v21.218h-0.711v-8.405c0,0,0.079-2.823-2.466-2.823c-2.548,0-2.626,2.723-2.626,2.723v8.329
			c0,0,0.059,2.586,0.119,2.884c0.059,0.295,0.097,0.475,0.175,0.612c0.08,0.137,4.977,7.282,4.977,7.282s0.453,0.831,0.453,1.875
			v0.889h16.777v-0.77c0,0-0.116-2.171,1.737-3.674c0.828-0.669,0.906-0.707,0.906-0.707s0.535-0.594,0.535-0.988V63.943
			c0,0,0.019-2.388-2.33-2.388c-2.348,0-2.585,2.427-2.585,2.427c-0.035-0.506-0.06-4.105-2.271-4.105c-2.109,0-2.27,2.35-2.27,2.35
			c-0.109-0.578,0.106-4.187-2.625-4.187c-1.983,0-2.132,1.659-2.132,1.659S51.772,60.153,51.418,59.956z"/>
	</g>
</g>
</svg>
