<?xml version="1.0" encoding="UTF-8"?>
<!DOCTYPE svg PUBLIC "-//W3C//DTD SVG 1.1//EN" "http://www.w3.org/Graphics/SVG/1.1/DTD/svg11.dtd">
<!-- Creator: CorelDRAW X8 -->
<svg xmlns="http://www.w3.org/2000/svg" xml:space="preserve" width="16.9332mm" height="12.6998mm" version="1.1" style="shape-rendering:geometricPrecision; text-rendering:geometricPrecision; image-rendering:optimizeQuality; fill-rule:evenodd; clip-rule:evenodd"
viewBox="0 0 1693 1270"
 xmlns:xlink="http://www.w3.org/1999/xlink">
 <defs>
  <style type="text/css">
   <![CDATA[
    .str0 {stroke:#2B2A29;stroke-width:20}
    .str1 {stroke:#21251E;stroke-width:41.81}
    .str3 {stroke:#21251E;stroke-width:29.87}
    .str2 {stroke:#21251E;stroke-width:32.85}
    .fil7 {fill:none}
    .fil10 {fill:none;fill-rule:nonzero}
    .fil4 {fill:#FEFEFE}
    .fil11 {fill:#B8292F}
    .fil3 {fill:#009745}
    .fil2 {fill:#E80314}
    .fil6 {fill:#FEFEFE;fill-rule:nonzero}
    .fil9 {fill:#2B2A29;fill-rule:nonzero}
    .fil8 {fill:#FFED00;fill-rule:nonzero}
    .fil0 {fill:#E80314;fill-rule:nonzero}
    .fil1 {fill:#FEFEFE;fill-rule:nonzero}
    .fil5 {fill:#006EC7;fill-rule:nonzero}
   ]]>
  </style>
 </defs>
 <g id="Layer_x0020_1">
  <metadata id="CorelCorpID_0Corel-Layer"/>
  <g id="_1378675280">
   <path class="fil0" d="M264 135c0,-28 25,-50 51,-50l1064 0c26,0 50,22 50,49l0 1001c0,28 -24,50 -50,50l-1064 0c-27,0 -51,-22 -51,-50l0 -1000z"/>
   <path class="fil1" d="M1364 382c0,0 -113,-35 -174,-229 -29,71 -54,243 174,359l0 -130z"/>
   <path class="fil1" d="M1343 586c0,0 -108,-20 -181,-181 -22,-49 -67,-179 -248,-179 54,41 80,82 114,163 102,244 291,209 315,197z"/>
   <path class="fil1" d="M1364 695c0,0 -222,-19 -404,-268 0,316 394,391 404,393l0 -125z"/>
   <path class="fil1" d="M1343 905c0,0 -114,-11 -228,-128 -106,-110 -228,-69 -269,-35 52,-5 112,30 190,107 136,135 295,69 307,56z"/>
   <path class="fil1" d="M1364 992c0,0 -240,36 -398,-107 -5,-17 30,238 398,224l0 -117z"/>
   <path class="fil1" d="M637 149l-80 0 6 24 -72 0 -131 82c0,0 -23,16 -23,44l0 66 30 0 0 -25c0,0 -2,-9 7,-14 9,-6 127,-80 127,-80l53 0 -10 10 0 62 -26 0c0,0 -94,-3 -94,88l0 703 345 0c1,0 0,-701 0,-701 0,0 -4,-90 -83,-90l-35 0 0 -72 43 0 36 -13 0 -47 -31 -14 -68 0 6 -23z"/>
   <polygon class="fil2" points="480,496 715,496 715,638 480,638 "/>
  </g>
  <g id="_1378672112">
   <polygon class="fil3" points="-808,4095 -1852,4095 -1852,5196 -808,5196 "/>
   <path class="fil4" d="M-970 4971l0 143 72 73 -661 0 -74 -73 1 -946 661 0 0 680c40,0 67,20 84,37 17,16 44,87 44,87l-127 -1z"/>
   <path class="fil3" d="M-1393 4419c44,0 79,-35 79,-78 0,-44 -35,-79 -79,-79 -43,0 -78,35 -78,79 0,43 35,78 78,78z"/>
   <path class="fil3" d="M-1258 4741c0,0 -146,286 -162,312 -15,26 -34,29 -46,29l-76 0 192 -391 -60 -129c0,0 -48,64 -64,82 -10,9 -20,13 -30,13l-140 0 0 -75 117 0c0,0 58,-73 80,-103 25,-32 47,-42 95,-42l161 0c30,0 74,-2 95,29l69 115 0 0c4,6 6,13 6,21 0,20 -17,37 -37,37 -14,0 -26,-7 -32,-18l2 3c0,0 -61,-98 -63,-105 -3,-7 -9,-11 -14,-11l-79 0 63 126c23,47 21,138 21,138l8 78c0,9 6,12 10,12l123 0c65,0 96,14 116,33 20,20 27,56 27,56l-192 0 -115 0c-41,0 -56,-21 -59,-37l-7 -70 -9 -101 0 -2z"/>
   <path class="fil3" d="M-1435 5190l-90 -87 82 0c12,0 37,16 63,42 26,26 46,44 46,44l-101 1z"/>
   <polygon class="fil3" points="-819,5192 -1618,5192 -1618,5183 -819,5183 "/>
  </g>
  <g id="_1378671216">
   <path class="fil5" d="M-1245 2780c327,0 593,265 593,593 0,327 -266,592 -593,592 -327,0 -593,-265 -593,-592 0,-328 266,-593 593,-593z"/>
   <path class="fil6" d="M-1369 3001l54 502c0,0 12,62 64,62 60,0 70,-61 70,-61l55 -504c0,0 -7,-122 -121,-122 -121,0 -122,123 -122,123z"/>
   <path class="fil6" d="M-1245 3871c66,0 120,-54 120,-120 0,-66 -54,-120 -120,-120 -67,0 -120,54 -120,120 0,66 53,120 120,120z"/>
  </g>
  <g id="_1378665968">
   <rect class="fil7 str0" x="-2052" y="1388" width="1693" height="1270"/>
   <g>
    <polygon class="fil8" points="-1202,1534 -1777,2536 -636,2536 "/>
    <path class="fil9" d="M-1766 2531l564 -983 554 983 -1118 0zm1224 11l-619 -1088c0,0 -10,-23 -40,-23 -31,0 -45,23 -45,23l-622 1085c0,0 -16,27 -1,52 0,0 15,25 39,25l1241 0c0,0 33,1 47,-25 11,-22 5,-39 0,-49z"/>
    <path class="fil9" d="M-1297 1839l40 378c0,0 9,47 48,47 46,0 53,-46 53,-46l41 -380c0,0 -5,-91 -91,-91 -91,0 -91,92 -91,92z"/>
    <path class="fil9" d="M-1204 2494c50,0 90,-40 90,-90 0,-50 -40,-90 -90,-90 -50,0 -91,40 -91,90 0,50 41,90 91,90z"/>
   </g>
  </g>
  <rect class="fil7 str0" x="-2048" y="-22" width="1693" height="1270"/>
  <g id="ISO_7010_2011-P002.eps">
   <polyline class="fil10 str1" points="-1322,926 -809,579 -859,504 -1372,851 "/>
   <path class="fil10 str2" d="M-1373 984l-73 -108m113 81l-73 -108"/>
   <path class="fil10 str3" d="M-1473 453c14,19 10,61 -10,73 -7,4 -6,5 -13,9 -47,28 -28,78 -5,88 16,9 29,6 60,4 34,-3 45,4 55,21 18,28 2,54 -20,77 -11,12 -16,19 -20,46 -3,21 -1,43 15,66m-152 -326c13,18 6,44 -12,59 -6,6 -5,6 -11,11 -42,36 -16,82 8,89 18,5 28,2 58,-3 25,-4 40,4 51,21 11,18 -5,44 -9,74 -2,13 -5,23 -1,39 1,8 11,40 27,64"/>
   <path class="fil11" d="M-902 980l-667 -667 -15 20 -14 19 -12 21 -12 21 -11 21 -9 22 -9 23 -7 23 -6 23 -5 23 -3 24 -3 24 -1 24 0 24 1 24 3 24 3 24 5 23 6 24 7 23 9 22 9 22 11 22 12 21 12 20 14 20 15 19 15 18 17 18 17 16 18 16 19 15 20 13 21 13 21 12 21 10 22 10 23 8 23 7 23 6 24 5 23 4 25 2 24 1 24 0 24 -1 23 -2 24 -4 24 -5 23 -6 23 -7 23 -9 22 -9 21 -10 21 -12 21 -13 20 -14 18 -15 0 0zm293 -366l0 -1 -1 -26 -2 -27 -3 -26 -4 -26 -5 -27 -7 -25 -7 -26 -9 -25 -10 -25 -11 -24 -12 -23 -13 -24 -14 -22 -16 -22 -16 -21 -17 -21 -17 -19 -19 -19 -20 -18 -20 -17 -21 -16 -22 -15 -23 -14 -23 -13 -24 -13 -24 -11 -25 -9 -25 -9 -25 -8 -26 -7 -26 -5 -26 -4 -27 -3 -26 -2 -26 0 -1 0 -26 0 -27 2 -26 3 -27 4 -26 5 -26 7 -25 8 -25 9 -25 9 -24 11 -24 13 -23 13 -22 14 -22 15 -21 16 -21 17 -19 18 -19 19 -18 19 -17 21 -16 21 -15 22 -15 22 -13 24 -12 23 -11 24 -10 25 -9 25 -7 26 -7 25 -5 27 -4 26 -3 26 -2 27 0 26 0 27 2 26 3 27 4 26 5 26 7 26 7 26 9 25 10 24 11 25 12 23 13 23 15 23 15 22 16 21 17 20 18 20 19 19 19 18 21 17 21 16 22 15 22 14 23 13 24 13 24 10 25 10 25 9 25 8 26 6 26 6 27 3 26 3 27 3 26 0 27 0 26 -3 27 -3 26 -3 26 -6 26 -6 25 -8 25 -9 25 -10 24 -10 24 -13 23 -13 23 -14 22 -15 21 -16 20 -17 20 -18 19 -19 17 -20 17 -20 16 -21 16 -22 14 -23 13 -23 12 -23 11 -25 10 -24 9 -25 7 -26 7 -26 5 -26 4 -26 3 -27 2 -26 1 -26zm-226 300l15 -19 14 -20 13 -21 11 -21 11 -21 9 -22 9 -23 7 -23 6 -23 5 -24 3 -23 3 -25 1 -23 0 -24 -1 -24 -2 -24 -4 -24 -5 -24 -6 -23 -7 -23 -8 -23 -10 -21 -11 -22 -11 -21 -13 -21 -13 -19 -15 -19 -16 -18 -17 -18 -17 -16 -18 -16 -19 -15 -20 -14 -20 -12 -21 -12 -22 -11 -22 -9 -23 -9 -22 -7 -24 -6 -23 -5 -24 -3 -24 -3 -24 -1 -24 0 -24 1 -24 3 -24 4 -24 4 -23 6 -23 8 -22 8 -22 10 -22 10 -21 12 -20 13 -20 13 -19 15 667 668 0 0z"/>
  </g>
 </g>
</svg>
