<?xml version="1.0" encoding="utf-8"?>
<!-- Generator: Adobe Illustrator 16.0.0, SVG Export Plug-In . SVG Version: 6.00 Build 0)  -->
<!DOCTYPE svg PUBLIC "-//W3C//DTD SVG 1.1//EN" "http://www.w3.org/Graphics/SVG/1.1/DTD/svg11.dtd">
<svg version="1.1" id="Layer_1" xmlns="http://www.w3.org/2000/svg" xmlns:xlink="http://www.w3.org/1999/xlink" x="0px" y="0px"
	 width="200px" height="150px" viewBox="0 0 200 150" enable-background="new 0 0 200 150" xml:space="preserve">
<rect x="49.09" y="5" fill="#FFFFFF" width="101.82" height="140"/>
<path fill="none" stroke="#1B181B" stroke-width="0.5674" d="M150.91,145 M49.09,145h101.82V5H49.09V145z"/>
<path fill="#016BB2" d="M62.326,15.438c4.5,0,8.147,3.646,8.147,8.145c0,4.5-3.648,8.146-8.147,8.146
	c-4.498,0-8.146-3.646-8.146-8.146C54.18,19.083,57.828,15.438,62.326,15.438"/>
<path fill="#FFFFFF" d="M60.631,18.472l0.729,6.901c0,0,0.173,0.858,0.887,0.858c0.83,0,0.958-0.843,0.958-0.843l0.757-6.93
	c0,0-0.093-1.672-1.657-1.672C60.633,16.787,60.631,18.472,60.631,18.472"/>
<path fill="#FFFFFF" d="M62.324,30.429c0.911,0,1.646-0.735,1.646-1.646c0-0.908-0.735-1.646-1.646-1.646
	c-0.91,0-1.647,0.738-1.647,1.646C60.677,29.693,61.414,30.429,62.324,30.429"/>
<path fill="#016BB2" d="M145.818,33c0,0.84-0.687,1.527-1.526,1.527H75.563c-0.84,0-1.528-0.688-1.528-1.527V14.165
	c0-0.843,0.688-1.529,1.528-1.529h68.729c0.84,0,1.526,0.687,1.526,1.529"/>
<path fill="#E31F26" d="M145.818,58.456c0,0.84-0.687,1.526-1.526,1.526H75.563c-0.84,0-1.528-0.687-1.528-1.526V39.618
	c0-0.839,0.688-1.527,1.528-1.527h68.729c0.84,0,1.526,0.688,1.526,1.527"/>
<path fill="#039046" d="M145.818,83.909c0,0.84-0.687,1.527-1.526,1.527H75.563c-0.84,0-1.528-0.688-1.528-1.527V65.074
	c0-0.84,0.688-1.528,1.528-1.528h68.729c0.84,0,1.526,0.688,1.526,1.528"/>
<path fill="#039046" d="M145.818,109.364c0,0.841-0.687,1.527-1.526,1.527H75.563c-0.84,0-1.528-0.687-1.528-1.527V90.527
	c0-0.84,0.688-1.527,1.528-1.527h68.729c0.84,0,1.526,0.688,1.526,1.527"/>
<path fill="#E31F26" d="M145.818,134.818c0,0.84-0.687,1.529-1.526,1.529H75.563c-0.84,0-1.528-0.689-1.528-1.529v-18.836
	c0-0.84,0.688-1.526,1.528-1.526h68.729c0.84,0,1.526,0.687,1.526,1.526"/>
<path fill="#039046" d="M70.474,108.937c0,1.075-0.881,1.955-1.955,1.955H56.136c-1.075,0-1.956-0.88-1.956-1.955V90.955
	c0-1.075,0.881-1.955,1.956-1.955h12.383c1.074,0,1.955,0.88,1.955,1.955"/>
<path fill="#E31F26" d="M62.329,117.255c-4.5,0-8.149,3.646-8.149,8.146s3.648,8.146,8.149,8.146c4.497,0,8.145-3.646,8.145-8.146
	S66.826,117.255,62.329,117.255 M62.329,131.908c-3.593,0-6.507-2.913-6.507-6.508c0-1.491,0.507-2.861,1.352-3.958l9.11,9.113
	C65.188,131.4,63.818,131.908,62.329,131.908 M67.479,129.363l-9.114-9.114c1.097-0.847,2.469-1.352,3.963-1.352
	c3.593,0,6.504,2.91,6.504,6.503C68.833,126.895,68.323,128.267,67.479,129.363"/>
<path fill="#E31F26" d="M70.474,58.028c0,1.074-0.881,1.954-1.955,1.954H56.136c-1.075,0-1.956-0.88-1.956-1.954V40.046
	c0-1.074,0.881-1.955,1.956-1.955h12.383c1.074,0,1.955,0.881,1.955,1.955"/>
<path fill="#FFFFFF" d="M67.232,44c0,0-2.148-0.713-3.307-4.636c-0.542,1.431-1.007,4.902,3.307,7.273"/>
<path fill="#FFFFFF" d="M66.834,48.127c0,0-2.062-0.401-3.423-3.654c-0.42-1.002-1.283-3.626-4.693-3.626
	c1.01,0.818,1.515,1.642,2.157,3.289C62.798,49.075,66.379,48.359,66.834,48.127"/>
<path fill="#FFFFFF" d="M67.232,50.334c0,0-4.203-0.391-7.644-5.426c0,6.4,7.439,7.91,7.644,7.95"/>
<path fill="#FFFFFF" d="M66.834,54.59c0,0-2.16-0.232-4.311-2.604c-2.014-2.213-4.325-1.392-5.103-0.703
	c0.987-0.096,2.126,0.61,3.596,2.163C63.593,56.176,66.595,54.838,66.834,54.59"/>
<path fill="#FFFFFF" d="M67.232,56.328c0,0-4.553,0.73-7.533-2.159c-0.1-0.333,0.572,4.814,7.533,4.53"/>
<path fill="#039046" d="M70.474,83.481c0,1.074-0.881,1.955-1.955,1.955H56.136c-1.075,0-1.956-0.881-1.956-1.955V65.502
	c0-1.076,0.881-1.956,1.956-1.956h12.383c1.074,0,1.955,0.88,1.955,1.956"/>
<path fill="#FFFFFF" d="M80.773,53.659h-1.734v-5.871h-2.15v-1.384c1.209,0.026,2.322-0.414,2.505-1.797h1.379"/>
<path fill="#FFFFFF" d="M76.437,73.561c-0.061-2.068,1.05-3.66,3.103-3.66c1.564,0,2.933,1.06,2.933,2.832
	c0,1.357-0.685,2.108-1.528,2.741c-0.842,0.634-1.845,1.152-2.467,2.081h4.044v1.58h-6.28c0.012-2.097,1.222-2.987,2.701-4.047
	c0.757-0.545,1.783-1.1,1.795-2.213c0-0.854-0.536-1.396-1.282-1.396c-1.026,0-1.357,1.125-1.357,2.082"/>
<path fill="#FFFFFF" d="M78.77,99.193c0.746,0.064,1.821-0.089,1.821-1.126c0-0.76-0.574-1.201-1.21-1.201
	c-0.866,0-1.331,0.685-1.32,1.616h-1.648c0.061-1.849,1.197-3.128,2.956-3.128c1.369,0,2.872,0.891,2.872,2.507
	c0,0.855-0.403,1.618-1.198,1.851v0.024c0.94,0.222,1.515,1.046,1.515,2.057c0,1.902-1.501,2.975-3.176,2.975
	c-1.917,0-3.212-1.215-3.176-3.298h1.649c0.038,0.984,0.502,1.784,1.503,1.784c0.782,0,1.393-0.567,1.393-1.421
	c0-1.372-1.136-1.348-1.979-1.348"/>
<path fill="#FFFFFF" d="M79.796,127.949h-3.615v-1.683l3.714-5.274h1.551v5.443h1.136v1.514h-1.136v2.095h-1.65 M79.796,123.295
	H79.76l-2.211,3.141h2.248V123.295z"/>
<polyline fill="#FFFFFF" points="80.025,13.772 86.267,13.772 86.267,15.413 81.977,15.413 81.977,17.465 85.695,17.465 
	85.695,18.981 81.977,18.981 81.977,22.65 80.025,22.65 "/>
<path fill="#FFFFFF" d="M88.927,15.228h-1.766v-1.455h1.766V15.228z M87.161,16.222h1.766v6.427h-1.766V16.222z"/>
<path fill="#FFFFFF" d="M90.221,16.222h1.678v1.193h0.025c0.321-0.809,1.192-1.368,2.05-1.368c0.125,0,0.274,0.025,0.386,0.062
	v1.642c-0.161-0.037-0.423-0.062-0.634-0.062c-1.293,0-1.741,0.933-1.741,2.064v2.897h-1.764"/>
<path fill="#FFFFFF" d="M96.19,19.864c0.05,1.118,0.596,1.628,1.578,1.628c0.709,0,1.28-0.435,1.393-0.832h1.555
	c-0.497,1.517-1.555,2.163-3.01,2.163c-2.026,0-3.283-1.393-3.283-3.382c0-1.927,1.332-3.395,3.283-3.395
	c2.188,0,3.245,1.84,3.121,3.817 M99.062,18.746c-0.163-0.896-0.547-1.369-1.406-1.369c-1.118,0-1.442,0.871-1.466,1.369H99.062z"/>
<path fill="#FFFFFF" d="M105.054,18.197c0.1-1.653,1.58-2.15,3.021-2.15c1.28,0,2.823,0.286,2.823,1.828v3.345
	c0,0.584,0.062,1.169,0.224,1.431h-1.791c-0.063-0.2-0.112-0.411-0.124-0.623c-0.561,0.585-1.38,0.796-2.164,0.796
	c-1.217,0-2.188-0.609-2.188-1.927c0-1.455,1.094-1.804,2.188-1.952c1.081-0.162,2.089-0.124,2.089-0.846
	c0-0.759-0.521-0.87-1.144-0.87c-0.671,0-1.106,0.273-1.168,0.969 M109.132,19.504c-0.298,0.262-0.92,0.273-1.468,0.372
	c-0.546,0.112-1.044,0.299-1.044,0.945c0,0.659,0.51,0.82,1.082,0.82c1.38,0,1.43-1.094,1.43-1.479V19.504z"/>
<path fill="#FFFFFF" d="M116.542,18.483c-0.111-0.72-0.571-1.106-1.304-1.106c-1.132,0-1.505,1.145-1.505,2.09
	c0,0.919,0.358,2.025,1.466,2.025c0.821,0,1.293-0.521,1.406-1.306h1.703c-0.225,1.704-1.406,2.637-3.096,2.637
	c-1.939,0-3.246-1.367-3.246-3.294c0-2.002,1.194-3.482,3.282-3.482c1.518,0,2.909,0.796,3.021,2.437"/>
<path fill="#FFFFFF" d="M121.44,16.222h1.293v1.181h-1.293v3.183c0,0.597,0.149,0.746,0.747,0.746c0.187,0,0.359-0.013,0.546-0.05
	v1.38c-0.299,0.05-0.684,0.062-1.032,0.062c-1.082,0-2.026-0.249-2.026-1.528v-3.793h-1.069v-1.181h1.069v-1.928h1.766"/>
<path fill="#FFFFFF" d="M125.295,15.228h-1.766v-1.455h1.766V15.228z M123.529,16.222h1.766v6.427h-1.766V16.222z"/>
<path fill="#FFFFFF" d="M129.709,16.047c2.027,0,3.331,1.343,3.331,3.395c0,2.039-1.304,3.382-3.331,3.382
	c-2.015,0-3.32-1.343-3.32-3.382C126.389,17.39,127.694,16.047,129.709,16.047 M129.709,21.492c1.206,0,1.565-1.031,1.565-2.051
	c0-1.031-0.359-2.064-1.565-2.064c-1.194,0-1.555,1.033-1.555,2.064C128.154,20.461,128.515,21.492,129.709,21.492"/>
<path fill="#FFFFFF" d="M134.084,16.222h1.679v0.895h0.037c0.449-0.721,1.219-1.069,1.965-1.069c1.877,0,2.351,1.057,2.351,2.649
	v3.954h-1.767v-3.632c0-1.057-0.311-1.579-1.131-1.579c-0.958,0-1.367,0.535-1.367,1.84v3.371h-1.767"/>
<rect x="85.157" y="23.42" fill="#FFFFFF" width="0.976" height="4.438"/>
<path fill="#FFFFFF" d="M87.041,25.236h-0.529v-0.592h0.529v-0.249c0-0.564,0.354-0.976,1.075-0.976c0.155,0,0.317,0.02,0.466,0.025
	v0.659c-0.105-0.013-0.211-0.02-0.324-0.02c-0.236,0-0.334,0.1-0.334,0.367v0.192h0.608v0.592h-0.608v2.622h-0.883"/>
<path fill="#FFFFFF" d="M92.132,28.263c-0.192,0.517-0.498,0.728-1.105,0.728c-0.182,0-0.361-0.013-0.542-0.031v-0.727
	c0.168,0.012,0.341,0.037,0.517,0.03c0.304-0.03,0.404-0.348,0.304-0.604l-1.13-3.015h0.945l0.726,2.2h0.013l0.703-2.2h0.913"/>
<path fill="#FFFFFF" d="M95.285,24.559c1.012,0,1.665,0.671,1.665,1.696c0,1.02-0.653,1.691-1.665,1.691
	c-1.009,0-1.661-0.672-1.661-1.691C93.624,25.229,94.276,24.559,95.285,24.559 M95.285,27.28c0.602,0,0.782-0.516,0.782-1.025
	c0-0.517-0.181-1.031-0.782-1.031c-0.598,0-0.778,0.515-0.778,1.031C94.506,26.765,94.687,27.28,95.285,27.28"/>
<path fill="#FFFFFF" d="M100.486,27.858h-0.84v-0.447h-0.019c-0.223,0.361-0.608,0.535-0.981,0.535
	c-0.939,0-1.175-0.529-1.175-1.323v-1.979h0.883v1.816c0,0.527,0.155,0.789,0.566,0.789c0.479,0,0.683-0.268,0.683-0.92v-1.686
	h0.883"/>
<path fill="#FFFFFF" d="M105.08,27.448h-0.013c-0.206,0.349-0.564,0.498-0.976,0.498c-0.97,0-1.443-0.834-1.443-1.722
	c0-0.865,0.479-1.666,1.426-1.666c0.379,0,0.75,0.161,0.956,0.479h-0.006h0.013V23.42h0.883v4.438h-0.84 M104.309,25.224
	c-0.578,0-0.776,0.497-0.776,1.024c0,0.504,0.23,1.032,0.776,1.032c0.585,0,0.759-0.509,0.759-1.037
	C105.067,25.721,104.882,25.224,104.309,25.224"/>
<path fill="#FFFFFF" d="M107.441,24.147h-0.883V23.42h0.883V24.147z M106.56,24.645h0.883v3.214h-0.883V24.645z"/>
<path fill="#FFFFFF" d="M108.771,26.814c0.007,0.386,0.329,0.542,0.677,0.542c0.257,0,0.579-0.101,0.579-0.411
	c0-0.269-0.366-0.361-1.001-0.497c-0.509-0.113-1.02-0.293-1.02-0.858c0-0.82,0.709-1.031,1.398-1.031
	c0.703,0,1.35,0.235,1.418,1.024h-0.841c-0.022-0.342-0.285-0.435-0.602-0.435c-0.198,0-0.492,0.038-0.492,0.299
	c0,0.316,0.498,0.36,1.002,0.479c0.516,0.118,1.02,0.305,1.02,0.901c0,0.846-0.733,1.119-1.467,1.119
	c-0.747,0-1.473-0.28-1.511-1.132"/>
<path fill="#FFFFFF" d="M113.564,25.776c-0.056-0.359-0.286-0.553-0.652-0.553c-0.566,0-0.752,0.572-0.752,1.044
	c0,0.46,0.18,1.013,0.732,1.013c0.411,0,0.647-0.261,0.703-0.651h0.853c-0.112,0.851-0.703,1.317-1.549,1.317
	c-0.97,0-1.622-0.685-1.622-1.648c0-0.999,0.596-1.739,1.641-1.739c0.76,0,1.454,0.397,1.511,1.218"/>
<path fill="#FFFFFF" d="M116.455,24.559c1.013,0,1.666,0.671,1.666,1.696c0,1.02-0.653,1.691-1.666,1.691
	c-1.008,0-1.66-0.672-1.66-1.691C114.795,25.229,115.447,24.559,116.455,24.559 M116.455,27.28c0.603,0,0.783-0.516,0.783-1.025
	c0-0.517-0.181-1.031-0.783-1.031c-0.597,0-0.777,0.515-0.777,1.031C115.678,26.765,115.858,27.28,116.455,27.28"/>
<polyline fill="#FFFFFF" points="120.42,27.858 119.438,27.858 118.338,24.645 119.264,24.645 119.941,26.84 119.953,26.84 
	120.632,24.645 121.508,24.645 "/>
<path fill="#FFFFFF" d="M122.552,26.466c0.025,0.56,0.3,0.814,0.791,0.814c0.354,0,0.64-0.218,0.695-0.416h0.777
	c-0.249,0.758-0.777,1.082-1.505,1.082c-1.014,0-1.641-0.696-1.641-1.691c0-0.964,0.665-1.696,1.641-1.696
	c1.095,0,1.623,0.919,1.56,1.907 M123.988,25.906c-0.081-0.447-0.273-0.683-0.702-0.683c-0.56,0-0.721,0.435-0.734,0.683H123.988z"
	/>
<path fill="#FFFFFF" d="M125.344,24.645h0.839v0.597h0.013c0.161-0.403,0.597-0.683,1.025-0.683c0.062,0,0.138,0.012,0.193,0.03
	v0.82c-0.081-0.018-0.211-0.03-0.318-0.03c-0.645,0-0.869,0.466-0.869,1.032v1.447h-0.883"/>
<path fill="#FFFFFF" d="M130.951,24.559c1.012,0,1.666,0.671,1.666,1.696c0,1.02-0.654,1.691-1.666,1.691
	c-1.007,0-1.66-0.672-1.66-1.691C129.291,25.229,129.944,24.559,130.951,24.559 M130.951,27.28c0.603,0,0.783-0.516,0.783-1.025
	c0-0.517-0.181-1.031-0.783-1.031c-0.598,0-0.776,0.515-0.776,1.031C130.175,26.765,130.354,27.28,130.951,27.28"/>
<path fill="#FFFFFF" d="M133.138,24.645h0.84v0.597h0.013c0.161-0.403,0.597-0.683,1.026-0.683c0.061,0,0.136,0.012,0.192,0.03v0.82
	c-0.082-0.018-0.212-0.03-0.318-0.03c-0.645,0-0.869,0.466-0.869,1.032v1.447h-0.884"/>
<path fill="#FFFFFF" d="M91.29,31.805c0.005,0.386,0.329,0.541,0.678,0.541c0.255,0,0.577-0.1,0.577-0.41
	c0-0.268-0.367-0.36-1-0.498c-0.511-0.111-1.021-0.291-1.021-0.857c0-0.821,0.709-1.032,1.399-1.032
	c0.702,0,1.349,0.236,1.417,1.026h-0.84c-0.025-0.342-0.286-0.435-0.603-0.435c-0.199,0-0.491,0.036-0.491,0.297
	c0,0.317,0.496,0.361,1,0.479c0.515,0.117,1.019,0.305,1.019,0.901c0,0.845-0.732,1.118-1.467,1.118
	c-0.745,0-1.473-0.279-1.511-1.131"/>
<path fill="#FFFFFF" d="M96.909,32.85h-0.84v-0.448h-0.018c-0.224,0.36-0.609,0.534-0.983,0.534c-0.938,0-1.175-0.527-1.175-1.323
	v-1.977h0.883v1.814c0,0.528,0.155,0.79,0.565,0.79c0.479,0,0.684-0.268,0.684-0.921v-1.684h0.883"/>
<path fill="#FFFFFF" d="M98.215,31.805c0.005,0.386,0.329,0.541,0.677,0.541c0.255,0,0.579-0.1,0.579-0.41
	c0-0.268-0.368-0.36-1-0.498c-0.511-0.111-1.021-0.291-1.021-0.857c0-0.821,0.709-1.032,1.4-1.032c0.703,0,1.35,0.236,1.417,1.026
	h-0.84c-0.024-0.342-0.286-0.435-0.603-0.435c-0.2,0-0.491,0.036-0.491,0.297c0,0.317,0.498,0.361,1.001,0.479
	c0.516,0.117,1.02,0.305,1.02,0.901c0,0.845-0.734,1.118-1.467,1.118c-0.746,0-1.472-0.279-1.511-1.131"/>
<path fill="#FFFFFF" d="M100.819,29.636h0.838v0.409h0.013c0.212-0.341,0.56-0.497,0.958-0.497c1.006,0,1.46,0.815,1.46,1.729
	c0,0.858-0.472,1.659-1.41,1.659c-0.386,0-0.753-0.167-0.963-0.484h-0.014v1.529h-0.882 M103.206,31.251
	c0-0.509-0.206-1.038-0.771-1.038c-0.577,0-0.765,0.517-0.765,1.038c0,0.522,0.199,1.021,0.771,1.021
	C103.019,32.271,103.206,31.773,103.206,31.251"/>
<path fill="#FFFFFF" d="M105.293,31.457c0.025,0.56,0.3,0.814,0.79,0.814c0.355,0,0.642-0.218,0.697-0.417h0.776
	c-0.249,0.759-0.776,1.081-1.505,1.081c-1.013,0-1.64-0.695-1.64-1.689c0-0.964,0.665-1.698,1.64-1.698
	c1.094,0,1.624,0.921,1.561,1.909 M106.73,30.897c-0.081-0.447-0.274-0.685-0.703-0.685c-0.56,0-0.72,0.437-0.734,0.685H106.73z"/>
<path fill="#FFFFFF" d="M110.273,30.767c-0.057-0.36-0.286-0.554-0.653-0.554c-0.566,0-0.752,0.572-0.752,1.045
	c0,0.46,0.181,1.014,0.732,1.014c0.411,0,0.647-0.261,0.702-0.653h0.853c-0.112,0.853-0.702,1.317-1.547,1.317
	c-0.971,0-1.624-0.683-1.624-1.646c0-1.001,0.598-1.741,1.642-1.741c0.759,0,1.455,0.398,1.511,1.219"/>
<path fill="#FFFFFF" d="M112.721,29.636h0.647v0.59h-0.647v1.592c0,0.298,0.076,0.373,0.374,0.373c0.093,0,0.181-0.006,0.273-0.025
	v0.689c-0.148,0.025-0.341,0.032-0.515,0.032c-0.541,0-1.015-0.125-1.015-0.765v-1.896h-0.535v-0.59h0.535v-0.964h0.882"/>
<path fill="#FFFFFF" d="M115.383,30.624c0.049-0.827,0.788-1.076,1.511-1.076c0.64,0,1.41,0.144,1.41,0.914v1.673
	c0,0.291,0.031,0.584,0.112,0.715h-0.896c-0.03-0.1-0.055-0.206-0.062-0.312c-0.279,0.292-0.69,0.397-1.082,0.397
	c-0.609,0-1.094-0.304-1.094-0.963c0-0.727,0.547-0.901,1.094-0.977c0.541-0.08,1.044-0.062,1.044-0.422
	c0-0.379-0.262-0.435-0.571-0.435c-0.335,0-0.554,0.136-0.584,0.484 M117.421,31.276c-0.148,0.131-0.46,0.136-0.733,0.187
	c-0.272,0.056-0.522,0.149-0.522,0.473c0,0.329,0.257,0.41,0.541,0.41c0.689,0,0.715-0.548,0.715-0.74V31.276z"/>
<path fill="#FFFFFF" d="M120.81,30.226h-0.529v-0.59h0.529v-0.249c0-0.565,0.354-0.976,1.074-0.976c0.156,0,0.318,0.019,0.468,0.024
	v0.658c-0.106-0.012-0.212-0.018-0.325-0.018c-0.235,0-0.334,0.1-0.334,0.366v0.193h0.609v0.59h-0.609v2.624h-0.883"/>
<path fill="#FFFFFF" d="M123.544,29.139h-0.882v-0.728h0.882V29.139z M122.663,29.636h0.882v3.214h-0.882V29.636z"/>
<path fill="#FFFFFF" d="M124.191,29.636h0.839v0.597h0.012c0.161-0.404,0.598-0.685,1.026-0.685c0.062,0,0.138,0.013,0.193,0.031
	V30.4c-0.081-0.019-0.213-0.031-0.318-0.031c-0.646,0-0.869,0.466-0.869,1.031v1.449h-0.883"/>
<path fill="#FFFFFF" d="M127.176,31.457c0.025,0.56,0.298,0.814,0.789,0.814c0.354,0,0.641-0.218,0.695-0.417h0.778
	c-0.249,0.759-0.778,1.081-1.505,1.081c-1.013,0-1.642-0.695-1.642-1.689c0-0.964,0.666-1.698,1.642-1.698
	c1.094,0,1.622,0.921,1.561,1.909 M128.612,30.897c-0.081-0.447-0.274-0.685-0.703-0.685c-0.56,0-0.722,0.437-0.733,0.685H128.612z"
	/>
<path fill="#FFFFFF" d="M85.273,46.304h3.042c1.013,0,1.652,0.704,1.652,1.557c0,0.664-0.269,1.162-0.893,1.414v0.016
	c0.608,0.157,0.782,0.752,0.822,1.32c0.023,0.355,0.016,1.021,0.237,1.335h-1.24c-0.152-0.355-0.135-0.899-0.2-1.351
	c-0.086-0.593-0.314-0.854-0.939-0.854h-1.24v2.205h-1.241 M86.514,48.855h1.359c0.554,0,0.853-0.236,0.853-0.806
	c0-0.545-0.299-0.782-0.853-0.782h-1.359V48.855z"/>
<path fill="#FFFFFF" d="M90.75,49.117c0.063-1.051,1.003-1.368,1.919-1.368c0.815,0,1.793,0.183,1.793,1.162v2.126
	c0,0.371,0.041,0.742,0.143,0.908h-1.138c-0.04-0.126-0.071-0.26-0.078-0.395c-0.357,0.371-0.878,0.506-1.375,0.506
	c-0.774,0-1.392-0.388-1.392-1.225c0-0.925,0.696-1.147,1.392-1.24c0.687-0.104,1.328-0.08,1.328-0.539
	c0-0.481-0.333-0.552-0.728-0.552c-0.427,0-0.704,0.173-0.741,0.616 M93.342,49.946c-0.189,0.166-0.585,0.175-0.933,0.237
	c-0.348,0.071-0.664,0.189-0.664,0.601c0,0.419,0.325,0.521,0.687,0.521c0.877,0,0.91-0.695,0.91-0.94V49.946z"/>
<path fill="#FFFFFF" d="M96.423,47.229H95.3v-0.925h1.123V47.229z M95.301,47.86h1.123v4.085h-1.123V47.86z"/>
<path fill="#FFFFFF" d="M98.114,50.618c0.009,0.489,0.419,0.688,0.861,0.688c0.325,0,0.734-0.126,0.734-0.521
	c0-0.339-0.466-0.459-1.272-0.632c-0.647-0.142-1.295-0.372-1.295-1.091c0-1.044,0.901-1.312,1.778-1.312
	c0.892,0,1.714,0.301,1.802,1.304h-1.067c-0.032-0.434-0.365-0.552-0.767-0.552c-0.254,0-0.624,0.047-0.624,0.379
	c0,0.402,0.631,0.458,1.272,0.607c0.655,0.151,1.295,0.388,1.295,1.146c0,1.074-0.933,1.423-1.864,1.423
	c-0.95,0-1.874-0.356-1.92-1.438"/>
<path fill="#FFFFFF" d="M102.35,50.176c0.032,0.712,0.379,1.035,1.003,1.035c0.451,0,0.814-0.276,0.886-0.528h0.988
	c-0.317,0.963-0.988,1.374-1.913,1.374c-1.289,0-2.087-0.886-2.087-2.149c0-1.225,0.846-2.158,2.087-2.158
	c1.391,0,2.062,1.171,1.982,2.427 M104.176,49.464c-0.104-0.568-0.349-0.869-0.894-0.869c-0.711,0-0.917,0.554-0.933,0.869H104.176z
	"/>
<path fill="#FFFFFF" d="M109.453,47.86h0.822v0.751h-0.822v2.022c0,0.379,0.094,0.474,0.475,0.474c0.118,0,0.229-0.006,0.348-0.03
	v0.877c-0.189,0.031-0.435,0.04-0.656,0.04c-0.688,0-1.288-0.159-1.288-0.973v-2.41h-0.68V47.86h0.68v-1.226h1.122"/>
<path fill="#FFFFFF" d="M110.75,46.304h1.121v2.126h0.024c0.284-0.458,0.773-0.681,1.192-0.681c1.193,0,1.494,0.673,1.494,1.685
	v2.512h-1.122v-2.307c0-0.672-0.198-1.005-0.719-1.005c-0.608,0-0.87,0.342-0.87,1.171v2.141h-1.121"/>
<path fill="#FFFFFF" d="M116.298,50.176c0.03,0.712,0.379,1.035,1.003,1.035c0.45,0,0.814-0.276,0.885-0.528h0.987
	c-0.315,0.963-0.987,1.374-1.912,1.374c-1.288,0-2.086-0.886-2.086-2.149c0-1.225,0.846-2.158,2.086-2.158
	c1.392,0,2.063,1.171,1.983,2.427 M118.123,49.464c-0.104-0.568-0.349-0.869-0.894-0.869c-0.712,0-0.918,0.554-0.932,0.869H118.123z
	"/>
<path fill="#FFFFFF" d="M121.932,49.117c0.064-1.051,1.003-1.368,1.921-1.368c0.812,0,1.793,0.183,1.793,1.162v2.126
	c0,0.371,0.041,0.742,0.143,0.908h-1.138c-0.04-0.126-0.071-0.26-0.079-0.395c-0.356,0.371-0.878,0.506-1.375,0.506
	c-0.773,0-1.391-0.388-1.391-1.225c0-0.925,0.694-1.147,1.391-1.24c0.688-0.104,1.327-0.08,1.327-0.539
	c0-0.481-0.332-0.552-0.727-0.552c-0.427,0-0.704,0.173-0.743,0.616 M124.523,49.946c-0.189,0.166-0.584,0.175-0.933,0.237
	c-0.347,0.071-0.664,0.189-0.664,0.601c0,0.419,0.324,0.521,0.688,0.521c0.876,0,0.908-0.695,0.908-0.94V49.946z"/>
<rect x="126.484" y="46.304" fill="#FFFFFF" width="1.121" height="5.642"/>
<path fill="#FFFFFF" d="M128.38,49.117c0.063-1.051,1.003-1.368,1.92-1.368c0.813,0,1.794,0.183,1.794,1.162v2.126
	c0,0.371,0.04,0.742,0.142,0.908h-1.138c-0.04-0.126-0.07-0.26-0.079-0.395c-0.355,0.371-0.876,0.506-1.375,0.506
	c-0.773,0-1.391-0.388-1.391-1.225c0-0.925,0.695-1.147,1.391-1.24c0.688-0.104,1.328-0.08,1.328-0.539
	c0-0.481-0.333-0.552-0.728-0.552c-0.427,0-0.702,0.173-0.742,0.616 M130.972,49.946c-0.189,0.166-0.584,0.175-0.933,0.237
	c-0.348,0.071-0.664,0.189-0.664,0.601c0,0.419,0.325,0.521,0.688,0.521c0.878,0,0.909-0.695,0.909-0.94V49.946z"/>
<path fill="#FFFFFF" d="M132.899,47.86h1.067v0.759h0.016c0.205-0.514,0.759-0.87,1.304-0.87c0.079,0,0.174,0.017,0.245,0.04v1.042
	c-0.102-0.022-0.269-0.037-0.403-0.037c-0.821,0-1.105,0.592-1.105,1.31v1.842h-1.123"/>
<path fill="#FFFFFF" d="M135.941,47.86h1.06v0.552h0.016c0.293-0.417,0.719-0.663,1.25-0.663c0.512,0,0.971,0.189,1.192,0.681
	c0.237-0.356,0.664-0.681,1.232-0.681c0.869,0,1.495,0.403,1.495,1.464v2.732h-1.123V49.63c0-0.545-0.048-0.996-0.688-0.996
	c-0.632,0-0.752,0.523-0.752,1.036v2.275h-1.12v-2.292c0-0.474,0.029-1.02-0.682-1.02c-0.22,0-0.758,0.143-0.758,0.941v2.37h-1.123"
	/>
<polyline fill="#FFFFFF" points="85.125,65.455 86.026,65.455 86.026,68.799 88.027,68.799 88.027,69.559 85.125,69.559 "/>
<path fill="#FFFFFF" d="M89.072,68.271c0.023,0.517,0.276,0.752,0.73,0.752c0.328,0,0.592-0.2,0.643-0.384h0.721
	c-0.231,0.7-0.721,1-1.392,1c-0.938,0-1.517-0.645-1.517-1.565c0-0.891,0.615-1.566,1.517-1.566c1.011,0,1.5,0.851,1.443,1.764
	 M90.399,67.753c-0.074-0.413-0.252-0.632-0.648-0.632c-0.518,0-0.667,0.402-0.68,0.632H90.399z"/>
<path fill="#FFFFFF" d="M91.619,67.5c0.045-0.765,0.73-0.992,1.396-0.992c0.592,0,1.304,0.131,1.304,0.843v1.546
	c0,0.271,0.029,0.541,0.103,0.662h-0.827c-0.03-0.092-0.052-0.189-0.058-0.287c-0.259,0.271-0.638,0.368-1,0.368
	c-0.563,0-1.012-0.282-1.012-0.892c0-0.674,0.505-0.833,1.012-0.901c0.5-0.076,0.965-0.059,0.965-0.393
	c0-0.351-0.241-0.401-0.528-0.401c-0.312,0-0.512,0.126-0.541,0.447 M93.503,68.104c-0.138,0.121-0.425,0.126-0.678,0.172
	c-0.253,0.052-0.483,0.138-0.483,0.437c0,0.306,0.235,0.38,0.5,0.38c0.637,0,0.661-0.506,0.661-0.684V68.104z"/>
<polyline fill="#FFFFFF" points="96.548,69.559 95.642,69.559 94.624,66.587 95.479,66.587 96.107,68.615 96.118,68.615 
	96.744,66.587 97.555,66.587 "/>
<path fill="#FFFFFF" d="M98.521,68.271c0.023,0.517,0.275,0.752,0.73,0.752c0.326,0,0.59-0.2,0.643-0.384h0.718
	c-0.23,0.7-0.718,1-1.391,1c-0.936,0-1.517-0.645-1.517-1.565c0-0.891,0.615-1.566,1.517-1.566c1.011,0,1.501,0.851,1.442,1.764
	 M99.847,67.753c-0.073-0.413-0.253-0.632-0.649-0.632c-0.517,0-0.667,0.402-0.677,0.632H99.847z"/>
<path fill="#FFFFFF" d="M103.686,66.587h0.599v0.546h-0.599v1.472c0,0.274,0.069,0.345,0.346,0.345c0.086,0,0.167-0.006,0.253-0.023
	v0.638c-0.139,0.022-0.316,0.029-0.478,0.029c-0.501,0-0.937-0.115-0.937-0.707v-1.753h-0.494v-0.546h0.494v-0.891h0.815"/>
<path fill="#FFFFFF" d="M104.628,65.455h0.817v1.547h0.017c0.207-0.335,0.563-0.494,0.867-0.494c0.869,0,1.086,0.487,1.086,1.223
	v1.828h-0.814V67.88c0-0.488-0.145-0.729-0.523-0.729c-0.441,0-0.632,0.247-0.632,0.85v1.559h-0.817"/>
<path fill="#FFFFFF" d="M108.664,68.271c0.022,0.517,0.273,0.752,0.729,0.752c0.326,0,0.592-0.2,0.644-0.384h0.718
	c-0.23,0.7-0.718,1-1.392,1c-0.936,0-1.518-0.645-1.518-1.565c0-0.891,0.615-1.566,1.518-1.566c1.012,0,1.501,0.851,1.443,1.764
	 M109.99,67.753c-0.074-0.413-0.254-0.632-0.649-0.632c-0.518,0-0.667,0.402-0.677,0.632H109.99z"/>
<path fill="#FFFFFF" d="M112.794,65.455h0.816v1.493h0.012c0.202-0.305,0.569-0.44,0.937-0.44c0.592,0,1.23,0.477,1.23,1.562
	c0,1.09-0.639,1.569-1.23,1.569c-0.437,0-0.799-0.132-0.977-0.461h-0.012v0.38h-0.776 M114.277,67.121
	c-0.482,0-0.695,0.455-0.695,0.953c0,0.496,0.213,0.949,0.695,0.949c0.481,0,0.695-0.453,0.695-0.949
	C114.973,67.576,114.759,67.121,114.277,67.121"/>
<path fill="#FFFFFF" d="M119.047,69.559h-0.775v-0.415h-0.019c-0.206,0.334-0.562,0.496-0.907,0.496
	c-0.868,0-1.086-0.489-1.086-1.226v-1.827h0.815v1.678c0,0.489,0.146,0.73,0.524,0.73c0.442,0,0.632-0.247,0.632-0.851v-1.558h0.815
	"/>
<path fill="#FFFFFF" d="M120.461,66.129h-0.815v-0.673h0.815V66.129z M119.646,66.587h0.815v2.972h-0.815V66.587z"/>
<rect x="121.081" y="65.455" fill="#FFFFFF" width="0.817" height="4.104"/>
<path fill="#FFFFFF" d="M124.615,69.179h-0.011c-0.189,0.321-0.521,0.461-0.902,0.461c-0.896,0-1.334-0.771-1.334-1.593
	c0-0.799,0.443-1.539,1.316-1.539c0.352,0,0.696,0.148,0.886,0.44h-0.006h0.012v-1.493h0.815v4.104h-0.776 M123.903,67.121
	c-0.533,0-0.719,0.46-0.719,0.949c0,0.465,0.212,0.953,0.719,0.953c0.539,0,0.701-0.47,0.701-0.96
	C124.604,67.581,124.432,67.121,123.903,67.121"/>
<path fill="#FFFFFF" d="M126.8,66.129h-0.815v-0.673h0.815V66.129z M125.984,66.587h0.815v2.972h-0.815V66.587z"/>
<path fill="#FFFFFF" d="M127.397,66.587h0.775v0.415h0.018c0.207-0.335,0.563-0.494,0.908-0.494c0.867,0,1.086,0.487,1.086,1.223
	v1.828h-0.814V67.88c0-0.488-0.146-0.729-0.524-0.729c-0.442,0-0.632,0.247-0.632,0.85v1.559h-0.816"/>
<path fill="#FFFFFF" d="M133.615,69.369c0,0.487-0.172,1.316-1.54,1.316c-0.586,0-1.271-0.277-1.311-0.955h0.811
	c0.075,0.305,0.322,0.408,0.609,0.408c0.454,0,0.66-0.311,0.655-0.736v-0.391h-0.012c-0.178,0.311-0.535,0.46-0.891,0.46
	c-0.891,0-1.27-0.677-1.27-1.495c0-0.769,0.441-1.469,1.275-1.469c0.39,0,0.689,0.131,0.885,0.477h0.012v-0.397h0.775
	 M132.84,68.034c0-0.482-0.168-0.913-0.695-0.913c-0.461,0-0.661,0.402-0.661,0.845c0,0.426,0.162,0.891,0.661,0.891
	C132.61,68.856,132.84,68.46,132.84,68.034"/>
<path fill="#FFFFFF" d="M85.038,72.201h0.815v1.494h0.012c0.202-0.306,0.57-0.443,0.937-0.443c0.592,0,1.23,0.477,1.23,1.563
	c0,1.092-0.638,1.568-1.23,1.568c-0.437,0-0.799-0.131-0.976-0.458h-0.012v0.379h-0.776 M86.521,73.867
	c-0.482,0-0.695,0.453-0.695,0.954c0,0.494,0.212,0.946,0.695,0.946c0.482,0,0.696-0.452,0.696-0.946
	C87.217,74.32,87.003,73.867,86.521,73.867"/>
<path fill="#FFFFFF" d="M89.968,76.679c-0.178,0.477-0.458,0.672-1.021,0.672c-0.167,0-0.333-0.011-0.501-0.031v-0.672
	c0.155,0.012,0.317,0.036,0.478,0.031c0.282-0.031,0.374-0.323,0.282-0.559l-1.046-2.788h0.874l0.673,2.035h0.011l0.649-2.035h0.843
	"/>
<path fill="#FFFFFF" d="M94.027,73.332h0.598v0.546h-0.598v1.471c0,0.277,0.068,0.347,0.343,0.347c0.088,0,0.167-0.007,0.255-0.024
	v0.638c-0.138,0.024-0.317,0.029-0.478,0.029c-0.501,0-0.938-0.115-0.938-0.705v-1.755h-0.494v-0.546h0.494v-0.89h0.817"/>
<path fill="#FFFFFF" d="M94.969,72.201h0.815v1.545h0.019c0.206-0.332,0.562-0.494,0.867-0.494c0.868,0,1.086,0.49,1.086,1.225
	v1.828h-0.814v-1.68c0-0.488-0.144-0.73-0.523-0.73c-0.445,0-0.634,0.249-0.634,0.852v1.559h-0.815"/>
<path fill="#FFFFFF" d="M99.002,75.017c0.023,0.517,0.276,0.751,0.73,0.751c0.328,0,0.592-0.199,0.643-0.383h0.72
	c-0.23,0.7-0.72,0.999-1.392,0.999c-0.938,0-1.517-0.643-1.517-1.562c0-0.891,0.615-1.569,1.517-1.569
	c1.012,0,1.501,0.852,1.443,1.765 M100.33,74.5c-0.074-0.415-0.253-0.633-0.648-0.633c-0.518,0-0.668,0.402-0.68,0.633H100.33z"/>
<path fill="#FFFFFF" d="M103.135,73.332h0.776v0.414h0.017c0.207-0.332,0.562-0.494,0.908-0.494c0.868,0,1.086,0.49,1.086,1.225
	v1.828h-0.816v-1.68c0-0.488-0.144-0.73-0.523-0.73c-0.441,0-0.631,0.249-0.631,0.852v1.559h-0.816"/>
<path fill="#FFFFFF" d="M107.169,75.017c0.023,0.517,0.276,0.751,0.729,0.751c0.328,0,0.593-0.199,0.644-0.383h0.718
	c-0.229,0.7-0.718,0.999-1.39,0.999c-0.938,0-1.517-0.643-1.517-1.562c0-0.891,0.615-1.569,1.517-1.569
	c1.011,0,1.501,0.852,1.442,1.765 M108.497,74.5c-0.074-0.415-0.253-0.633-0.651-0.633c-0.516,0-0.666,0.402-0.677,0.633H108.497z"
	/>
<path fill="#FFFFFF" d="M109.715,74.246c0.046-0.765,0.729-0.994,1.396-0.994c0.592,0,1.305,0.133,1.305,0.845v1.547
	c0,0.269,0.029,0.539,0.104,0.661h-0.827c-0.029-0.094-0.052-0.19-0.059-0.288c-0.258,0.271-0.637,0.367-1,0.367
	c-0.563,0-1.011-0.281-1.011-0.891c0-0.672,0.506-0.834,1.011-0.902c0.5-0.075,0.966-0.058,0.966-0.39
	c0-0.351-0.24-0.404-0.528-0.404c-0.311,0-0.511,0.128-0.54,0.449 M111.6,74.851c-0.138,0.119-0.426,0.126-0.678,0.173
	c-0.253,0.05-0.482,0.138-0.482,0.437c0,0.304,0.234,0.379,0.5,0.379c0.637,0,0.66-0.508,0.66-0.685V74.851z"/>
<path fill="#FFFFFF" d="M113.002,73.332h0.775v0.552h0.012c0.15-0.372,0.553-0.632,0.948-0.632c0.058,0,0.127,0.011,0.178,0.029
	v0.758c-0.075-0.017-0.194-0.028-0.292-0.028c-0.599,0-0.805,0.431-0.805,0.953v1.341h-0.816"/>
<path fill="#FFFFFF" d="M115.762,75.017c0.022,0.517,0.276,0.751,0.729,0.751c0.328,0,0.593-0.199,0.644-0.383h0.719
	c-0.229,0.7-0.719,0.999-1.39,0.999c-0.938,0-1.519-0.643-1.519-1.562c0-0.891,0.616-1.569,1.519-1.569
	c1.011,0,1.498,0.852,1.441,1.765 M117.089,74.5c-0.074-0.415-0.253-0.633-0.649-0.633c-0.517,0-0.666,0.402-0.678,0.633H117.089z"
	/>
<path fill="#FFFFFF" d="M118.975,75.338c0.005,0.357,0.304,0.501,0.625,0.501c0.236,0,0.534-0.093,0.534-0.379
	c0-0.248-0.338-0.335-0.924-0.46c-0.471-0.104-0.943-0.271-0.943-0.794c0-0.759,0.656-0.954,1.293-0.954
	c0.649,0,1.247,0.22,1.312,0.949h-0.777c-0.021-0.317-0.264-0.404-0.556-0.404c-0.185,0-0.455,0.036-0.455,0.277
	c0,0.293,0.46,0.333,0.925,0.441c0.479,0.109,0.944,0.283,0.944,0.833c0,0.783-0.68,1.035-1.357,1.035
	c-0.689,0-1.362-0.259-1.396-1.046"/>
<path fill="#FFFFFF" d="M122.416,73.332h0.599v0.546h-0.599v1.471c0,0.277,0.069,0.347,0.346,0.347c0.086,0,0.166-0.007,0.253-0.024
	v0.638c-0.138,0.024-0.317,0.029-0.477,0.029c-0.501,0-0.938-0.115-0.938-0.705v-1.755h-0.495v-0.546h0.495v-0.89h0.815"/>
<path fill="#FFFFFF" d="M85.003,80.992c0.047-0.765,0.73-0.995,1.396-0.995c0.592,0,1.305,0.133,1.305,0.847v1.545
	c0,0.268,0.029,0.541,0.103,0.66H86.98c-0.029-0.093-0.052-0.19-0.058-0.288c-0.259,0.271-0.638,0.368-1,0.368
	c-0.563,0-1.012-0.281-1.012-0.892c0-0.671,0.506-0.831,1.012-0.901c0.5-0.073,0.965-0.056,0.965-0.391
	c0-0.35-0.242-0.403-0.528-0.403c-0.311,0-0.512,0.127-0.541,0.45 M86.889,81.595c-0.137,0.12-0.425,0.127-0.678,0.173
	c-0.252,0.052-0.482,0.138-0.482,0.437c0,0.307,0.235,0.38,0.5,0.38c0.639,0,0.661-0.506,0.661-0.686V81.595z"/>
<polyline fill="#FFFFFF" points="89.935,83.049 89.026,83.049 88.009,80.079 88.866,80.079 89.492,82.107 89.503,82.107 
	90.13,80.079 90.94,80.079 "/>
<path fill="#FFFFFF" d="M91.199,80.992c0.045-0.765,0.73-0.995,1.396-0.995c0.592,0,1.305,0.133,1.305,0.847v1.545
	c0,0.268,0.029,0.541,0.104,0.66h-0.828c-0.029-0.093-0.052-0.19-0.058-0.288c-0.259,0.271-0.639,0.368-1,0.368
	c-0.563,0-1.012-0.281-1.012-0.892c0-0.671,0.507-0.831,1.012-0.901c0.5-0.073,0.965-0.056,0.965-0.391
	c0-0.35-0.241-0.403-0.528-0.403c-0.311,0-0.512,0.127-0.541,0.45 M93.083,81.595c-0.137,0.12-0.425,0.127-0.678,0.173
	c-0.252,0.052-0.482,0.138-0.482,0.437c0,0.307,0.236,0.38,0.5,0.38c0.638,0,0.66-0.506,0.66-0.686V81.595z"/>
<path fill="#FFFFFF" d="M95.326,79.618h-0.817v-0.672h0.817V79.618z M94.509,80.079h0.817v2.97h-0.817V80.079z"/>
<rect x="95.946" y="78.946" fill="#FFFFFF" width="0.815" height="4.103"/>
<path fill="#FFFFFF" d="M97.325,80.992c0.046-0.765,0.729-0.995,1.396-0.995c0.592,0,1.305,0.133,1.305,0.847v1.545
	c0,0.268,0.029,0.541,0.104,0.66h-0.827c-0.03-0.093-0.052-0.19-0.059-0.288c-0.258,0.271-0.637,0.368-1,0.368
	c-0.563,0-1.011-0.281-1.011-0.892c0-0.671,0.506-0.831,1.011-0.901c0.501-0.073,0.967-0.056,0.967-0.391
	c0-0.35-0.242-0.403-0.53-0.403c-0.31,0-0.511,0.127-0.54,0.45 M99.211,81.595c-0.139,0.12-0.426,0.127-0.679,0.173
	c-0.253,0.052-0.482,0.138-0.482,0.437c0,0.307,0.235,0.38,0.5,0.38c0.637,0,0.662-0.506,0.662-0.686V81.595z"/>
<path fill="#FFFFFF" d="M100.611,78.946h0.817v1.494h0.011c0.202-0.304,0.568-0.443,0.938-0.443c0.591,0,1.23,0.479,1.23,1.564
	c0,1.091-0.64,1.567-1.23,1.567c-0.438,0-0.799-0.133-0.978-0.459h-0.012v0.379h-0.776 M102.096,80.613
	c-0.484,0-0.696,0.452-0.696,0.953c0,0.494,0.212,0.948,0.696,0.948c0.482,0,0.693-0.454,0.693-0.948
	C102.789,81.065,102.578,80.613,102.096,80.613"/>
<rect x="104.101" y="78.946" fill="#FFFFFF" width="0.815" height="4.103"/>
<path fill="#FFFFFF" d="M106.187,81.762c0.022,0.516,0.275,0.753,0.73,0.753c0.327,0,0.591-0.201,0.643-0.386h0.719
	c-0.229,0.703-0.719,1-1.391,1c-0.938,0-1.518-0.643-1.518-1.562c0-0.892,0.615-1.569,1.518-1.569c1.011,0,1.5,0.851,1.442,1.765
	 M107.514,81.245c-0.074-0.415-0.253-0.632-0.648-0.632c-0.518,0-0.668,0.401-0.679,0.632H107.514z"/>
<path fill="#FFFFFF" d="M110.991,81.762c0.022,0.516,0.276,0.753,0.729,0.753c0.328,0,0.592-0.201,0.644-0.386h0.718
	c-0.229,0.703-0.718,1-1.39,1c-0.938,0-1.517-0.643-1.517-1.562c0-0.892,0.615-1.569,1.517-1.569c1.011,0,1.499,0.851,1.442,1.765
	 M112.317,81.245c-0.074-0.415-0.251-0.632-0.649-0.632c-0.518,0-0.666,0.401-0.677,0.632H112.317z"/>
<polyline fill="#FFFFFF" points="114.329,81.484 113.353,80.079 114.282,80.079 114.806,80.854 115.323,80.079 116.227,80.079 
	115.249,81.469 116.348,83.049 115.415,83.049 114.795,82.113 114.174,83.049 113.261,83.049 "/>
<path fill="#FFFFFF" d="M117.45,79.618h-0.816v-0.672h0.816V79.618z M116.634,80.079h0.816v2.97h-0.816V80.079z"/>
<path fill="#FFFFFF" d="M119.082,80.079h0.599v0.545h-0.599v1.47c0,0.277,0.069,0.346,0.345,0.346c0.087,0,0.168-0.007,0.254-0.022
	v0.637c-0.138,0.024-0.316,0.028-0.478,0.028c-0.5,0-0.937-0.113-0.937-0.707v-1.751h-0.495v-0.545h0.495v-0.892h0.815"/>
<path fill="#FFFFFF" d="M85.125,90.908h2.213c0.735,0,1.2,0.513,1.2,1.133c0,0.483-0.195,0.845-0.649,1.028v0.014
	c0.443,0.112,0.569,0.543,0.599,0.959c0.017,0.258,0.011,0.741,0.172,0.969h-0.902c-0.108-0.257-0.097-0.653-0.144-0.981
	c-0.062-0.433-0.228-0.621-0.684-0.621h-0.902v1.603h-0.902 M86.026,92.766h0.989c0.402,0,0.621-0.173,0.621-0.587
	c0-0.397-0.218-0.57-0.621-0.57h-0.989V92.766z"/>
<path fill="#FFFFFF" d="M89.814,93.724c0.022,0.519,0.275,0.753,0.729,0.753c0.327,0,0.592-0.199,0.644-0.383h0.718
	c-0.23,0.7-0.718,0.999-1.391,0.999c-0.937,0-1.516-0.645-1.516-1.564c0-0.891,0.614-1.567,1.516-1.567
	c1.012,0,1.5,0.852,1.442,1.763 M91.141,93.207c-0.074-0.415-0.252-0.632-0.649-0.632c-0.518,0-0.666,0.401-0.677,0.632H91.141z"/>
<path fill="#FFFFFF" d="M92.393,92.041h0.777v0.379h0.011c0.195-0.314,0.518-0.459,0.885-0.459c0.932,0,1.35,0.754,1.35,1.599
	c0,0.791-0.437,1.533-1.304,1.533c-0.357,0-0.695-0.155-0.89-0.447H93.21v1.414h-0.817 M94.601,93.535
	c0-0.473-0.189-0.96-0.712-0.96c-0.534,0-0.707,0.479-0.707,0.96c0,0.483,0.184,0.941,0.712,0.941
	C94.429,94.477,94.601,94.019,94.601,93.535"/>
<path fill="#FFFFFF" d="M97.301,91.961c0.938,0,1.541,0.621,1.541,1.567c0,0.944-0.603,1.564-1.541,1.564
	c-0.93,0-1.534-0.62-1.534-1.564C95.768,92.582,96.372,91.961,97.301,91.961 M97.301,94.477c0.558,0,0.725-0.477,0.725-0.948
	c0-0.475-0.167-0.953-0.725-0.953c-0.551,0-0.718,0.479-0.718,0.953C96.583,94,96.75,94.477,97.301,94.477"/>
<path fill="#FFFFFF" d="M99.325,92.041h0.774v0.552h0.013c0.149-0.374,0.552-0.632,0.948-0.632c0.058,0,0.128,0.012,0.179,0.027
	v0.76c-0.075-0.018-0.196-0.028-0.294-0.028c-0.598,0-0.805,0.432-0.805,0.952v1.339h-0.815"/>
<path fill="#FFFFFF" d="M102.549,92.041h0.599v0.545h-0.599v1.472c0,0.275,0.068,0.344,0.346,0.344c0.085,0,0.166-0.004,0.253-0.022
	v0.639c-0.139,0.024-0.317,0.029-0.478,0.029c-0.501,0-0.937-0.115-0.937-0.707v-1.754h-0.494v-0.545h0.494V91.15h0.815"/>
<path fill="#FFFFFF" d="M106.077,92.041h0.599v0.545h-0.599v1.472c0,0.275,0.069,0.344,0.345,0.344c0.087,0,0.168-0.004,0.254-0.022
	v0.639c-0.138,0.024-0.316,0.029-0.477,0.029c-0.501,0-0.938-0.115-0.938-0.707v-1.754h-0.494v-0.545h0.494V91.15h0.815"/>
<path fill="#FFFFFF" d="M108.462,91.961c0.938,0,1.541,0.621,1.541,1.567c0,0.944-0.604,1.564-1.541,1.564
	c-0.93,0-1.533-0.62-1.533-1.564C106.929,92.582,107.532,91.961,108.462,91.961 M108.462,94.477c0.558,0,0.726-0.477,0.726-0.948
	c0-0.475-0.168-0.953-0.726-0.953c-0.551,0-0.718,0.479-0.718,0.953C107.744,94,107.911,94.477,108.462,94.477"/>
<path fill="#FFFFFF" d="M112.037,92.041h0.775v0.379h0.013c0.195-0.314,0.516-0.459,0.884-0.459c0.932,0,1.352,0.754,1.352,1.599
	c0,0.791-0.437,1.533-1.306,1.533c-0.355,0-0.694-0.155-0.891-0.447h-0.011v1.414h-0.816 M114.245,93.535
	c0-0.473-0.189-0.96-0.713-0.96c-0.536,0-0.707,0.479-0.707,0.96c0,0.483,0.183,0.941,0.713,0.941
	C114.072,94.477,114.245,94.019,114.245,93.535"/>
<path fill="#FFFFFF" d="M116.175,93.724c0.022,0.519,0.275,0.753,0.729,0.753c0.328,0,0.592-0.199,0.644-0.383h0.719
	c-0.229,0.7-0.719,0.999-1.391,0.999c-0.938,0-1.518-0.645-1.518-1.564c0-0.891,0.615-1.567,1.518-1.567
	c1.012,0,1.5,0.852,1.442,1.763 M117.503,93.207c-0.075-0.415-0.254-0.632-0.65-0.632c-0.517,0-0.666,0.401-0.678,0.632H117.503z"/>
<path fill="#FFFFFF" d="M118.756,92.041h0.774v0.552h0.013c0.148-0.374,0.551-0.632,0.948-0.632c0.058,0,0.126,0.012,0.177,0.027
	v0.76c-0.074-0.018-0.195-0.028-0.292-0.028c-0.598,0-0.805,0.432-0.805,0.952v1.339h-0.815"/>
<path fill="#FFFFFF" d="M121.577,94.047c0.005,0.354,0.305,0.501,0.626,0.501c0.236,0,0.534-0.093,0.534-0.379
	c0-0.248-0.338-0.335-0.925-0.461c-0.471-0.104-0.942-0.271-0.942-0.794c0-0.758,0.656-0.953,1.293-0.953
	c0.649,0,1.247,0.218,1.312,0.949h-0.777c-0.022-0.317-0.264-0.403-0.557-0.403c-0.185,0-0.454,0.033-0.454,0.274
	c0,0.293,0.46,0.335,0.926,0.443c0.478,0.11,0.941,0.281,0.941,0.833c0,0.783-0.678,1.035-1.356,1.035
	c-0.689,0-1.361-0.259-1.396-1.046"/>
<path fill="#FFFFFF" d="M125.428,91.961c0.937,0,1.541,0.621,1.541,1.567c0,0.944-0.604,1.564-1.541,1.564
	c-0.932,0-1.533-0.62-1.533-1.564C123.895,92.582,124.496,91.961,125.428,91.961 M125.428,94.477c0.558,0,0.724-0.477,0.724-0.948
	c0-0.475-0.166-0.953-0.724-0.953c-0.551,0-0.718,0.479-0.718,0.953C124.71,94,124.877,94.477,125.428,94.477"/>
<path fill="#FFFFFF" d="M127.45,92.041h0.776v0.412h0.018c0.207-0.332,0.563-0.492,0.907-0.492c0.868,0,1.086,0.488,1.086,1.224
	v1.826h-0.814v-1.676c0-0.489-0.144-0.731-0.522-0.731c-0.443,0-0.633,0.249-0.633,0.852v1.556h-0.817"/>
<path fill="#FFFFFF" d="M133.203,91.582h-0.816v-0.674h0.816V91.582z M132.387,92.041h0.816v2.97h-0.816V92.041z"/>
<path fill="#FFFFFF" d="M133.801,92.041h0.776v0.412h0.017c0.206-0.332,0.563-0.492,0.908-0.492c0.868,0,1.086,0.488,1.086,1.224
	v1.826h-0.815v-1.676c0-0.489-0.145-0.731-0.523-0.731c-0.442,0-0.633,0.249-0.633,0.852v1.556h-0.815"/>
<path fill="#FFFFFF" d="M87.062,99.832c-0.051-0.333-0.265-0.51-0.604-0.51c-0.523,0-0.696,0.527-0.696,0.964
	c0,0.426,0.167,0.938,0.679,0.938c0.379,0,0.596-0.241,0.648-0.603h0.788c-0.103,0.786-0.649,1.219-1.431,1.219
	c-0.897,0-1.501-0.634-1.501-1.524c0-0.925,0.553-1.609,1.518-1.609c0.701,0,1.344,0.368,1.397,1.126"/>
<path fill="#FFFFFF" d="M88.291,97.653h0.817V99.2h0.017c0.207-0.333,0.563-0.494,0.868-0.494c0.868,0,1.087,0.489,1.087,1.224
	v1.828h-0.817v-1.678c0-0.49-0.144-0.731-0.523-0.731c-0.442,0-0.632,0.248-0.632,0.851v1.559h-0.817"/>
<path fill="#FFFFFF" d="M91.619,99.701c0.045-0.765,0.73-0.995,1.396-0.995c0.592,0,1.304,0.133,1.304,0.844v1.548
	c0,0.271,0.029,0.538,0.103,0.66h-0.827c-0.03-0.093-0.052-0.19-0.058-0.286c-0.259,0.269-0.638,0.368-1,0.368
	c-0.563,0-1.012-0.284-1.012-0.891c0-0.674,0.505-0.836,1.012-0.902c0.5-0.078,0.965-0.058,0.965-0.393
	c0-0.35-0.241-0.403-0.528-0.403c-0.312,0-0.512,0.129-0.541,0.45 M93.503,100.304c-0.138,0.122-0.425,0.127-0.678,0.173
	c-0.253,0.051-0.483,0.138-0.483,0.437c0,0.307,0.235,0.379,0.5,0.379c0.637,0,0.661-0.505,0.661-0.683V100.304z"/>
<path fill="#FFFFFF" d="M94.906,98.785h0.775v0.555h0.011c0.149-0.375,0.552-0.634,0.947-0.634c0.059,0,0.128,0.013,0.18,0.028
	v0.758c-0.075-0.015-0.196-0.026-0.293-0.026c-0.599,0-0.805,0.431-0.805,0.953v1.339h-0.815"/>
<path fill="#FFFFFF" d="M99.951,101.567c0,0.489-0.172,1.316-1.541,1.316c-0.586,0-1.27-0.274-1.31-0.953h0.81
	c0.075,0.304,0.322,0.408,0.609,0.408c0.455,0,0.661-0.311,0.655-0.736v-0.393h-0.011c-0.179,0.311-0.536,0.462-0.891,0.462
	c-0.891,0-1.27-0.679-1.27-1.494c0-0.771,0.442-1.472,1.275-1.472c0.39,0,0.69,0.133,0.886,0.479h0.011v-0.399h0.776
	 M99.175,100.235c0-0.483-0.167-0.913-0.696-0.913c-0.459,0-0.661,0.401-0.661,0.844c0,0.424,0.162,0.89,0.661,0.89
	C98.946,101.056,99.175,100.661,99.175,100.235"/>
<path fill="#FFFFFF" d="M101.232,100.47c0.023,0.519,0.275,0.754,0.73,0.754c0.328,0,0.592-0.201,0.644-0.386h0.72
	c-0.23,0.7-0.72,1.002-1.393,1.002c-0.938,0-1.517-0.645-1.517-1.564c0-0.892,0.615-1.569,1.517-1.569
	c1.012,0,1.501,0.851,1.443,1.764 M102.56,99.954c-0.074-0.415-0.252-0.632-0.649-0.632c-0.516,0-0.666,0.401-0.678,0.632H102.56z"
	/>
<path fill="#FFFFFF" d="M106.807,98.706c0.938,0,1.54,0.62,1.54,1.569c0,0.944-0.603,1.564-1.54,1.564
	c-0.93,0-1.534-0.62-1.534-1.564C105.272,99.326,105.877,98.706,106.807,98.706 M106.807,101.224c0.558,0,0.725-0.477,0.725-0.948
	c0-0.477-0.167-0.953-0.725-0.953c-0.551,0-0.718,0.477-0.718,0.953C106.089,100.747,106.256,101.224,106.807,101.224"/>
<path fill="#FFFFFF" d="M109.009,99.333h-0.489v-0.548h0.489v-0.23c0-0.521,0.327-0.901,0.994-0.901c0.143,0,0.292,0.02,0.431,0.024
	v0.609c-0.099-0.014-0.196-0.018-0.299-0.018c-0.219,0-0.311,0.091-0.311,0.339v0.177h0.563v0.548h-0.563v2.425h-0.815"/>
<path fill="#FFFFFF" d="M113.456,97.653h0.927l1.533,4.104h-0.937l-0.311-0.913h-1.534l-0.322,0.913h-0.914 M113.37,100.173h1.063
	l-0.517-1.507h-0.014L113.37,100.173z"/>
<path fill="#FFFFFF" d="M116.772,100.794c0.005,0.354,0.305,0.498,0.627,0.498c0.234,0,0.535-0.093,0.535-0.379
	c0-0.246-0.341-0.334-0.927-0.461c-0.471-0.104-0.942-0.268-0.942-0.791c0-0.758,0.655-0.955,1.294-0.955
	c0.648,0,1.246,0.217,1.31,0.948h-0.775c-0.023-0.314-0.266-0.403-0.558-0.403c-0.185,0-0.454,0.035-0.454,0.277
	c0,0.292,0.46,0.334,0.925,0.44c0.478,0.111,0.943,0.282,0.943,0.836c0,0.78-0.679,1.035-1.357,1.035
	c-0.688,0-1.362-0.262-1.396-1.046"/>
<path fill="#FFFFFF" d="M119.812,100.794c0.007,0.354,0.305,0.498,0.627,0.498c0.236,0,0.534-0.093,0.534-0.379
	c0-0.246-0.339-0.334-0.926-0.461c-0.472-0.104-0.942-0.268-0.942-0.791c0-0.758,0.655-0.955,1.293-0.955
	c0.651,0,1.248,0.217,1.312,0.948h-0.777c-0.021-0.314-0.265-0.403-0.557-0.403c-0.185,0-0.454,0.035-0.454,0.277
	c0,0.292,0.459,0.334,0.925,0.44c0.478,0.111,0.943,0.282,0.943,0.836c0,0.78-0.679,1.035-1.356,1.035
	c-0.689,0-1.362-0.262-1.396-1.046"/>
<path fill="#FFFFFF" d="M122.895,100.47c0.022,0.519,0.273,0.754,0.729,0.754c0.327,0,0.591-0.201,0.644-0.386h0.718
	c-0.23,0.7-0.718,1.002-1.392,1.002c-0.936,0-1.517-0.645-1.517-1.564c0-0.892,0.614-1.569,1.517-1.569
	c1.012,0,1.501,0.851,1.443,1.764 M124.221,99.954c-0.074-0.415-0.253-0.632-0.649-0.632c-0.518,0-0.667,0.401-0.677,0.632H124.221z
	"/>
<path fill="#FFFFFF" d="M125.498,98.785h0.769v0.404h0.012c0.214-0.307,0.522-0.483,0.907-0.483c0.373,0,0.707,0.137,0.869,0.494
	c0.172-0.26,0.481-0.494,0.896-0.494c0.632,0,1.086,0.295,1.086,1.063v1.988h-0.816v-1.685c0-0.396-0.034-0.725-0.5-0.725
	c-0.46,0-0.547,0.379-0.547,0.754v1.655h-0.815v-1.667c0-0.344,0.023-0.742-0.493-0.742c-0.162,0-0.553,0.104-0.553,0.685v1.725
	h-0.814"/>
<path fill="#FFFFFF" d="M130.635,97.653h0.816v1.496h0.011c0.202-0.307,0.568-0.443,0.938-0.443c0.591,0,1.23,0.479,1.23,1.564
	c0,1.091-0.64,1.569-1.23,1.569c-0.438,0-0.799-0.133-0.978-0.461h-0.011v0.379h-0.776 M132.118,99.322
	c-0.484,0-0.696,0.452-0.696,0.953c0,0.494,0.212,0.948,0.696,0.948c0.482,0,0.693-0.454,0.693-0.948
	C132.812,99.774,132.601,99.322,132.118,99.322"/>
<rect x="134.123" y="97.653" fill="#FFFFFF" width="0.815" height="4.104"/>
<path fill="#FFFFFF" d="M137.002,102.133c-0.179,0.477-0.46,0.671-1.022,0.671c-0.166,0-0.334-0.011-0.5-0.028v-0.674
	c0.155,0.013,0.315,0.035,0.477,0.031c0.281-0.031,0.373-0.324,0.281-0.559l-1.045-2.789h0.873l0.672,2.035h0.014l0.647-2.035h0.845
	"/>
<path fill="#FFFFFF" d="M85.038,105.532h0.776v0.379h0.012c0.195-0.316,0.517-0.461,0.884-0.461c0.931,0,1.351,0.754,1.351,1.601
	c0,0.793-0.437,1.533-1.305,1.533c-0.356,0-0.694-0.154-0.89-0.447h-0.012v1.414h-0.815 M87.246,107.026
	c0-0.47-0.189-0.96-0.712-0.96c-0.536,0-0.707,0.477-0.707,0.96s0.184,0.941,0.712,0.941
	C87.073,107.968,87.246,107.51,87.246,107.026"/>
<path fill="#FFFFFF" d="M89.946,105.45c0.938,0,1.539,0.621,1.539,1.569c0,0.944-0.602,1.564-1.539,1.564
	c-0.931,0-1.535-0.62-1.535-1.564C88.412,106.071,89.016,105.45,89.946,105.45 M89.946,107.968c0.556,0,0.724-0.476,0.724-0.948
	c0-0.477-0.167-0.953-0.724-0.953c-0.552,0-0.718,0.477-0.718,0.953C89.228,107.492,89.395,107.968,89.946,107.968"/>
<path fill="#FFFFFF" d="M92.808,105.071h-0.815v-0.672h0.815V105.071z M91.992,105.532h0.815v2.973h-0.815V105.532z"/>
<path fill="#FFFFFF" d="M93.406,105.532h0.774v0.415H94.2c0.206-0.335,0.563-0.497,0.908-0.497c0.866,0,1.086,0.49,1.086,1.226
	v1.829h-0.816v-1.681c0-0.487-0.144-0.729-0.523-0.729c-0.443,0-0.633,0.248-0.633,0.851v1.559h-0.815"/>
<path fill="#FFFFFF" d="M97.802,105.532h0.599v0.546h-0.599v1.472c0,0.274,0.068,0.346,0.345,0.346c0.086,0,0.167-0.007,0.254-0.024
	v0.638c-0.139,0.022-0.317,0.029-0.479,0.029c-0.5,0-0.935-0.115-0.935-0.707v-1.753h-0.496v-0.546h0.496v-0.891h0.815"/>
<path fill="#FFFFFF" d="M85.099,117.018h1.66c0.996,0,1.745,0.625,1.745,1.902c0,1.114-0.571,1.943-1.745,1.943h-1.66
	 M85.946,120.152H86.7c0.491,0,0.959-0.302,0.959-1.153c0-0.775-0.27-1.271-1.109-1.271h-0.604V120.152z"/>
<path fill="#FFFFFF" d="M90.321,118.002c0.878,0,1.443,0.583,1.443,1.472c0,0.882-0.565,1.465-1.443,1.465
	c-0.873,0-1.439-0.583-1.439-1.465C88.881,118.585,89.448,118.002,90.321,118.002 M90.321,120.362c0.522,0,0.678-0.447,0.678-0.889
	c0-0.447-0.156-0.894-0.678-0.894c-0.518,0-0.675,0.446-0.675,0.894C89.646,119.915,89.803,120.362,90.321,120.362"/>
<path fill="#FFFFFF" d="M93.672,118.077h0.727v0.388h0.016c0.194-0.312,0.529-0.463,0.851-0.463c0.816,0,1.02,0.459,1.02,1.148
	v1.713h-0.765v-1.573c0-0.459-0.135-0.686-0.492-0.686c-0.414,0-0.592,0.233-0.592,0.798v1.461h-0.765"/>
<path fill="#FFFFFF" d="M98.176,118.002c0.878,0,1.444,0.583,1.444,1.472c0,0.882-0.566,1.465-1.444,1.465
	c-0.873,0-1.439-0.583-1.439-1.465C96.736,118.585,97.303,118.002,98.176,118.002 M98.176,120.362c0.523,0,0.679-0.447,0.679-0.889
	c0-0.447-0.156-0.894-0.679-0.894c-0.518,0-0.672,0.446-0.672,0.894C97.503,119.915,97.658,120.362,98.176,120.362"/>
<path fill="#FFFFFF" d="M101.042,118.077h0.561v0.513h-0.561v1.378c0,0.26,0.065,0.324,0.323,0.324c0.081,0,0.157-0.005,0.237-0.021
	v0.597c-0.129,0.021-0.296,0.028-0.448,0.028c-0.467,0-0.877-0.108-0.877-0.662v-1.645h-0.465v-0.513h0.465v-0.833h0.765"/>
<path fill="#FFFFFF" d="M103.973,119.959c0.006,0.333,0.286,0.468,0.589,0.468c0.22,0,0.5-0.086,0.5-0.356
	c0-0.23-0.317-0.311-0.867-0.431c-0.442-0.098-0.884-0.252-0.884-0.742c0-0.712,0.613-0.896,1.212-0.896
	c0.609,0,1.169,0.206,1.229,0.889h-0.728c-0.021-0.297-0.249-0.377-0.521-0.377c-0.174,0-0.427,0.031-0.427,0.26
	c0,0.274,0.431,0.312,0.867,0.414c0.447,0.103,0.885,0.264,0.885,0.78c0,0.733-0.638,0.971-1.272,0.971
	c-0.647,0-1.277-0.241-1.31-0.979"/>
<path fill="#FFFFFF" d="M107.201,118.077h0.561v0.513h-0.561v1.378c0,0.26,0.064,0.324,0.323,0.324c0.08,0,0.155-0.005,0.237-0.021
	v0.597c-0.131,0.021-0.298,0.028-0.448,0.028c-0.468,0-0.877-0.108-0.877-0.662v-1.645h-0.465v-0.513h0.465v-0.833h0.765"/>
<path fill="#FFFFFF" d="M109.437,118.002c0.879,0,1.444,0.583,1.444,1.472c0,0.882-0.565,1.465-1.444,1.465
	c-0.872,0-1.439-0.583-1.439-1.465C107.997,118.585,108.564,118.002,109.437,118.002 M109.437,120.362
	c0.523,0,0.678-0.447,0.678-0.889c0-0.447-0.154-0.894-0.678-0.894c-0.518,0-0.674,0.446-0.674,0.894
	C108.763,119.915,108.919,120.362,109.437,120.362"/>
<path fill="#FFFFFF" d="M111.333,118.077h0.727v0.357h0.012c0.184-0.297,0.484-0.433,0.829-0.433c0.874,0,1.267,0.707,1.267,1.498
	c0,0.745-0.409,1.438-1.223,1.438c-0.334,0-0.653-0.144-0.836-0.419h-0.011v1.326h-0.765 M113.401,119.479
	c0-0.441-0.177-0.898-0.667-0.898c-0.502,0-0.663,0.446-0.663,0.898s0.171,0.884,0.668,0.884
	C113.24,120.362,113.401,119.931,113.401,119.479"/>
<path fill="#FFFFFF" d="M117.007,118.077h0.561v0.513h-0.561v1.378c0,0.26,0.064,0.324,0.323,0.324c0.081,0,0.156-0.005,0.237-0.021
	v0.597c-0.13,0.021-0.296,0.028-0.447,0.028c-0.468,0-0.878-0.108-0.878-0.662v-1.645h-0.465v-0.513h0.465v-0.833h0.765"/>
<path fill="#FFFFFF" d="M119.242,118.002c0.879,0,1.444,0.583,1.444,1.472c0,0.882-0.565,1.465-1.444,1.465
	c-0.872,0-1.438-0.583-1.438-1.465C117.804,118.585,118.37,118.002,119.242,118.002 M119.242,120.362c0.522,0,0.68-0.447,0.68-0.889
	c0-0.447-0.157-0.894-0.68-0.894c-0.518,0-0.673,0.446-0.673,0.894C118.569,119.915,118.725,120.362,119.242,120.362"/>
<path fill="#FFFFFF" d="M124.489,119.06c-0.049-0.315-0.247-0.479-0.565-0.479c-0.489,0-0.651,0.495-0.651,0.904
	c0,0.397,0.156,0.878,0.636,0.878c0.355,0,0.56-0.226,0.608-0.565h0.739c-0.099,0.736-0.609,1.142-1.343,1.142
	c-0.841,0-1.406-0.594-1.406-1.427c0-0.869,0.518-1.51,1.424-1.51c0.656,0,1.26,0.346,1.308,1.058"/>
<path fill="#FFFFFF" d="M126.995,118.002c0.879,0,1.443,0.583,1.443,1.472c0,0.882-0.564,1.465-1.443,1.465
	c-0.873,0-1.438-0.583-1.438-1.465C125.557,118.585,126.122,118.002,126.995,118.002 M126.995,120.362
	c0.521,0,0.679-0.447,0.679-0.889c0-0.447-0.157-0.894-0.679-0.894c-0.518,0-0.674,0.446-0.674,0.894
	C126.321,119.915,126.478,120.362,126.995,120.362"/>
<rect x="128.913" y="117.018" fill="#FFFFFF" width="0.765" height="3.846"/>
<rect x="130.26" y="117.018" fill="#FFFFFF" width="0.766" height="3.846"/>
<path fill="#FFFFFF" d="M132.217,119.657c0.021,0.486,0.258,0.705,0.684,0.705c0.309,0,0.556-0.188,0.604-0.361h0.673
	c-0.216,0.658-0.673,0.938-1.304,0.938c-0.879,0-1.422-0.603-1.422-1.465c0-0.836,0.575-1.472,1.422-1.472
	c0.948,0,1.405,0.798,1.352,1.655 M133.461,119.17c-0.069-0.388-0.236-0.59-0.609-0.59c-0.484,0-0.625,0.377-0.635,0.59H133.461z"/>
<path fill="#FFFFFF" d="M136.532,119.06c-0.049-0.315-0.248-0.479-0.566-0.479c-0.489,0-0.652,0.495-0.652,0.904
	c0,0.397,0.156,0.878,0.637,0.878c0.354,0,0.561-0.226,0.608-0.565h0.738c-0.098,0.736-0.609,1.142-1.342,1.142
	c-0.84,0-1.406-0.594-1.406-1.427c0-0.869,0.518-1.51,1.423-1.51c0.657,0,1.261,0.346,1.309,1.058"/>
<path fill="#FFFFFF" d="M138.654,118.077h0.561v0.513h-0.561v1.378c0,0.26,0.064,0.324,0.324,0.324c0.08,0,0.156-0.005,0.236-0.021
	v0.597c-0.129,0.021-0.297,0.028-0.447,0.028c-0.469,0-0.878-0.108-0.878-0.662v-1.645h-0.463v-0.513h0.463v-0.833h0.765"/>
<path fill="#FFFFFF" d="M85.019,123.424h0.727v0.356h0.011c0.183-0.297,0.484-0.433,0.83-0.433c0.872,0,1.267,0.707,1.267,1.499
	c0,0.742-0.41,1.438-1.224,1.438c-0.333,0-0.653-0.145-0.835-0.419h-0.011v1.325h-0.765 M87.087,124.824
	c0-0.441-0.176-0.897-0.667-0.897c-0.501,0-0.663,0.445-0.663,0.897s0.172,0.885,0.667,0.885
	C86.926,125.709,87.087,125.276,87.087,124.824"/>
<path fill="#FFFFFF" d="M88.899,125.004c0.021,0.485,0.257,0.705,0.684,0.705c0.307,0,0.554-0.188,0.603-0.361h0.674
	c-0.215,0.658-0.674,0.938-1.303,0.938c-0.879,0-1.424-0.604-1.424-1.466c0-0.835,0.577-1.472,1.424-1.472
	c0.946,0,1.405,0.798,1.352,1.656 M90.143,124.516c-0.071-0.388-0.237-0.589-0.608-0.589c-0.485,0-0.625,0.377-0.635,0.589H90.143z"
	/>
<path fill="#FFFFFF" d="M91.317,123.424h0.727v0.516h0.01c0.141-0.348,0.518-0.592,0.89-0.592c0.053,0,0.12,0.012,0.167,0.027v0.711
	c-0.071-0.016-0.184-0.026-0.275-0.026c-0.561,0-0.754,0.403-0.754,0.896v1.254h-0.765"/>
<path fill="#FFFFFF" d="M93.963,125.303c0.004,0.335,0.285,0.47,0.586,0.47c0.221,0,0.501-0.086,0.501-0.356
	c0-0.23-0.318-0.311-0.868-0.43c-0.441-0.098-0.882-0.253-0.882-0.743c0-0.711,0.614-0.896,1.21-0.896
	c0.609,0,1.17,0.206,1.229,0.89h-0.727c-0.022-0.298-0.247-0.377-0.522-0.377c-0.174,0-0.427,0.03-0.427,0.259
	c0,0.275,0.431,0.312,0.868,0.415c0.448,0.102,0.884,0.264,0.884,0.78c0,0.733-0.637,0.971-1.272,0.971
	c-0.647,0-1.277-0.242-1.31-0.982"/>
<path fill="#FFFFFF" d="M97.572,123.348c0.879,0,1.445,0.583,1.445,1.472c0,0.883-0.566,1.466-1.445,1.466
	c-0.872,0-1.438-0.583-1.438-1.466C96.133,123.931,96.7,123.348,97.572,123.348 M97.572,125.709c0.523,0,0.678-0.448,0.678-0.89
	c0-0.447-0.155-0.893-0.678-0.893c-0.518,0-0.674,0.445-0.674,0.893C96.898,125.261,97.054,125.709,97.572,125.709"/>
<path fill="#FFFFFF" d="M99.468,123.424h0.727v0.388h0.017c0.193-0.312,0.528-0.464,0.851-0.464c0.814,0,1.019,0.459,1.019,1.148
	v1.713h-0.766v-1.573c0-0.459-0.134-0.685-0.49-0.685c-0.414,0-0.593,0.232-0.593,0.798v1.46h-0.764"/>
<path fill="#FFFFFF" d="M102.588,124.279c0.043-0.716,0.685-0.932,1.31-0.932c0.556,0,1.224,0.124,1.224,0.792v1.449
	c0,0.253,0.025,0.508,0.097,0.62h-0.777c-0.026-0.086-0.049-0.177-0.053-0.27c-0.243,0.255-0.598,0.346-0.938,0.346
	c-0.528,0-0.949-0.264-0.949-0.836c0-0.63,0.475-0.78,0.949-0.847c0.468-0.068,0.905-0.053,0.905-0.365
	c0-0.328-0.227-0.377-0.497-0.377c-0.29,0-0.479,0.119-0.506,0.419 M104.355,124.847c-0.13,0.112-0.399,0.119-0.637,0.161
	c-0.236,0.049-0.453,0.129-0.453,0.408c0,0.286,0.222,0.356,0.469,0.356c0.599,0,0.621-0.474,0.621-0.641V124.847z"/>
<rect x="105.691" y="122.364" fill="#FFFFFF" width="0.765" height="3.845"/>
<path fill="#FFFFFF" d="M108.473,122.364h0.765v1.398h0.01c0.189-0.286,0.533-0.415,0.878-0.415c0.555,0,1.153,0.448,1.153,1.468
	c0,1.021-0.599,1.47-1.153,1.47c-0.409,0-0.747-0.124-0.916-0.431h-0.01v0.354h-0.727 M109.862,123.927
	c-0.453,0-0.653,0.426-0.653,0.893c0,0.464,0.2,0.89,0.653,0.89s0.651-0.426,0.651-0.89
	C110.514,124.353,110.315,123.927,109.862,123.927"/>
<path fill="#FFFFFF" d="M112.351,125.004c0.021,0.485,0.259,0.705,0.685,0.705c0.308,0,0.555-0.188,0.604-0.361h0.673
	c-0.215,0.658-0.673,0.938-1.304,0.938c-0.879,0-1.423-0.604-1.423-1.466c0-0.835,0.578-1.472,1.423-1.472
	c0.949,0,1.405,0.798,1.353,1.656 M113.596,124.516c-0.071-0.388-0.237-0.589-0.609-0.589c-0.484,0-0.625,0.377-0.636,0.589H113.596
	z"/>
<rect x="114.791" y="122.364" fill="#FFFFFF" width="0.765" height="3.845"/>
<path fill="#FFFFFF" d="M117.47,123.348c0.878,0,1.443,0.583,1.443,1.472c0,0.883-0.565,1.466-1.443,1.466
	c-0.874,0-1.439-0.583-1.439-1.466C116.03,123.931,116.596,123.348,117.47,123.348 M117.47,125.709c0.522,0,0.679-0.448,0.679-0.89
	c0-0.447-0.156-0.893-0.679-0.893c-0.518,0-0.674,0.445-0.674,0.893C116.796,125.261,116.952,125.709,117.47,125.709"/>
<path fill="#FFFFFF" d="M119.366,123.424h0.727v0.388h0.017c0.194-0.312,0.527-0.464,0.852-0.464c0.813,0,1.018,0.459,1.018,1.148
	v1.713h-0.765v-1.573c0-0.459-0.135-0.685-0.49-0.685c-0.414,0-0.593,0.232-0.593,0.798v1.46h-0.765"/>
<path fill="#FFFFFF" d="M125.195,126.032c0,0.456-0.162,1.234-1.443,1.234c-0.551,0-1.191-0.259-1.229-0.896h0.759
	c0.07,0.286,0.302,0.384,0.572,0.384c0.426,0,0.619-0.293,0.613-0.691v-0.366h-0.01c-0.168,0.293-0.502,0.431-0.837,0.431
	c-0.835,0-1.189-0.635-1.189-1.399c0-0.723,0.415-1.381,1.195-1.381c0.367,0,0.647,0.124,0.831,0.448h0.01v-0.372h0.728
	 M124.468,124.782c0-0.454-0.156-0.855-0.652-0.855c-0.43,0-0.619,0.377-0.619,0.791c0,0.396,0.15,0.833,0.619,0.833
	C124.252,125.551,124.468,125.179,124.468,124.782"/>
<path fill="#FFFFFF" d="M126.553,122.991h-0.765v-0.63h0.765V122.991z M125.788,123.424h0.765v2.785h-0.765V123.424z"/>
<path fill="#FFFFFF" d="M127.113,123.424h0.728v0.388h0.016c0.194-0.312,0.529-0.464,0.851-0.464c0.814,0,1.02,0.459,1.02,1.148
	v1.713h-0.766v-1.573c0-0.459-0.134-0.685-0.491-0.685c-0.413,0-0.592,0.232-0.592,0.798v1.46h-0.765"/>
<path fill="#FFFFFF" d="M132.944,126.032c0,0.456-0.162,1.234-1.444,1.234c-0.55,0-1.191-0.259-1.229-0.896h0.76
	c0.069,0.286,0.302,0.384,0.57,0.384c0.426,0,0.62-0.293,0.614-0.691v-0.366h-0.011c-0.167,0.293-0.501,0.431-0.835,0.431
	c-0.836,0-1.19-0.635-1.19-1.399c0-0.723,0.414-1.381,1.196-1.381c0.366,0,0.646,0.124,0.829,0.448h0.011v-0.372h0.729
	 M132.216,124.782c0-0.454-0.156-0.855-0.651-0.855c-0.432,0-0.62,0.377-0.62,0.791c0,0.396,0.151,0.833,0.62,0.833
	C132.001,125.551,132.216,125.179,132.216,124.782"/>
<path fill="#FFFFFF" d="M134.107,125.303c0.005,0.335,0.285,0.47,0.587,0.47c0.221,0,0.501-0.086,0.501-0.356
	c0-0.23-0.317-0.311-0.868-0.43c-0.441-0.098-0.883-0.253-0.883-0.743c0-0.711,0.614-0.896,1.212-0.896
	c0.609,0,1.169,0.206,1.228,0.89h-0.726c-0.021-0.298-0.248-0.377-0.523-0.377c-0.173,0-0.426,0.03-0.426,0.259
	c0,0.275,0.432,0.312,0.867,0.415c0.448,0.102,0.884,0.264,0.884,0.78c0,0.733-0.636,0.971-1.271,0.971
	c-0.647,0-1.278-0.242-1.311-0.982"/>
<path fill="#FFFFFF" d="M85.099,129.49h1.66c0.996,0,1.745,0.625,1.745,1.901c0,1.114-0.571,1.946-1.745,1.946h-1.66
	 M85.946,132.626H86.7c0.491,0,0.959-0.304,0.959-1.154c0-0.776-0.27-1.271-1.109-1.271h-0.604V132.626z"/>
<path fill="#FFFFFF" d="M90.321,130.474c0.878,0,1.443,0.583,1.443,1.475c0,0.882-0.565,1.462-1.443,1.462
	c-0.873,0-1.439-0.58-1.439-1.462C88.881,131.057,89.448,130.474,90.321,130.474 M90.321,132.834c0.522,0,0.678-0.445,0.678-0.886
	c0-0.45-0.156-0.896-0.678-0.896c-0.518,0-0.675,0.445-0.675,0.896C89.646,132.389,89.803,132.834,90.321,132.834"/>
<path fill="#FFFFFF" d="M93.672,130.552h0.727v0.386h0.016c0.194-0.311,0.529-0.464,0.851-0.464c0.816,0,1.02,0.459,1.02,1.15v1.714
	h-0.765v-1.574c0-0.459-0.135-0.685-0.492-0.685c-0.414,0-0.592,0.23-0.592,0.798v1.461h-0.765"/>
<path fill="#FFFFFF" d="M98.176,130.474c0.878,0,1.444,0.583,1.444,1.475c0,0.882-0.566,1.462-1.444,1.462
	c-0.873,0-1.439-0.58-1.439-1.462C96.736,131.057,97.303,130.474,98.176,130.474 M98.176,132.834c0.523,0,0.679-0.445,0.679-0.886
	c0-0.45-0.156-0.896-0.679-0.896c-0.518,0-0.672,0.445-0.672,0.896C97.503,132.389,97.658,132.834,98.176,132.834"/>
<path fill="#FFFFFF" d="M101.042,130.552h0.561v0.512h-0.561v1.379c0,0.257,0.065,0.323,0.323,0.323
	c0.081,0,0.157-0.005,0.237-0.022v0.599c-0.129,0.021-0.296,0.026-0.448,0.026c-0.467,0-0.877-0.108-0.877-0.662v-1.643h-0.465
	v-0.512h0.465v-0.836h0.765"/>
<path fill="#FFFFFF" d="M104.35,130.552h0.561v0.512h-0.561v1.379c0,0.257,0.065,0.323,0.323,0.323c0.082,0,0.156-0.005,0.237-0.022
	v0.599c-0.129,0.021-0.296,0.026-0.446,0.026c-0.469,0-0.879-0.108-0.879-0.662v-1.643h-0.463v-0.512h0.463v-0.836h0.765"/>
<path fill="#FFFFFF" d="M105.202,131.407c0.043-0.716,0.685-0.934,1.31-0.934c0.555,0,1.223,0.127,1.223,0.794v1.449
	c0,0.253,0.027,0.508,0.098,0.621h-0.776c-0.027-0.089-0.049-0.18-0.055-0.271c-0.242,0.252-0.598,0.343-0.936,0.343
	c-0.53,0-0.949-0.261-0.949-0.833c0-0.629,0.475-0.782,0.949-0.847c0.467-0.071,0.904-0.053,0.904-0.365
	c0-0.331-0.227-0.379-0.497-0.379c-0.29,0-0.479,0.119-0.505,0.421 M106.97,131.972c-0.13,0.113-0.399,0.12-0.637,0.162
	c-0.236,0.051-0.452,0.129-0.452,0.41c0,0.286,0.221,0.356,0.469,0.356c0.598,0,0.62-0.474,0.62-0.643V131.972z"/>
<polyline fill="#FFFFFF" points="108.354,129.49 109.118,129.49 109.118,131.554 110.084,130.552 110.988,130.552 109.938,131.575 
	111.106,133.338 110.181,133.338 109.415,132.092 109.118,132.378 109.118,133.338 108.354,133.338 "/>
<path fill="#FFFFFF" d="M111.963,132.13c0.022,0.485,0.259,0.704,0.686,0.704c0.306,0,0.555-0.188,0.604-0.358h0.673
	c-0.216,0.656-0.673,0.935-1.305,0.935c-0.878,0-1.423-0.601-1.423-1.462c0-0.836,0.576-1.475,1.423-1.475
	c0.947,0,1.406,0.798,1.354,1.656 M113.208,131.645c-0.071-0.389-0.236-0.592-0.608-0.592c-0.484,0-0.625,0.376-0.637,0.592H113.208
	z"/>
<path fill="#FFFFFF" d="M115.836,130.552h0.729v0.516h0.011c0.14-0.35,0.518-0.594,0.889-0.594c0.055,0,0.119,0.014,0.167,0.029
	v0.711c-0.069-0.016-0.184-0.028-0.275-0.028c-0.559,0-0.752,0.405-0.752,0.896v1.257h-0.768"/>
<path fill="#FFFFFF" d="M118.676,130.119h-0.765v-0.629h0.765V130.119z M117.911,130.552h0.765v2.786h-0.765V130.552z"/>
<path fill="#FFFFFF" d="M119.829,132.431c0.006,0.335,0.286,0.47,0.588,0.47c0.22,0,0.501-0.086,0.501-0.356
	c0-0.232-0.318-0.312-0.868-0.433c-0.441-0.095-0.883-0.25-0.883-0.742c0-0.711,0.613-0.896,1.211-0.896
	c0.609,0,1.17,0.206,1.229,0.892h-0.727c-0.021-0.298-0.248-0.379-0.522-0.379c-0.174,0-0.426,0.033-0.426,0.261
	c0,0.275,0.431,0.311,0.867,0.412c0.448,0.104,0.885,0.265,0.885,0.783c0,0.731-0.637,0.968-1.272,0.968
	c-0.647,0-1.276-0.241-1.31-0.979"/>
<polyline fill="#FFFFFF" points="122.156,129.49 122.921,129.49 122.921,131.554 123.887,130.552 124.792,130.552 123.74,131.575 
	124.909,133.338 123.984,133.338 123.217,132.092 122.921,132.378 122.921,133.338 122.156,133.338 "/>
<path fill="#FFFFFF" d="M125.729,132.431c0.005,0.335,0.286,0.47,0.587,0.47c0.222,0,0.501-0.086,0.501-0.356
	c0-0.232-0.318-0.312-0.867-0.433c-0.441-0.095-0.884-0.25-0.884-0.742c0-0.711,0.614-0.896,1.213-0.896
	c0.608,0,1.169,0.206,1.228,0.892h-0.727c-0.022-0.298-0.249-0.379-0.522-0.379c-0.173,0-0.426,0.033-0.426,0.261
	c0,0.275,0.431,0.311,0.867,0.412c0.446,0.104,0.884,0.265,0.884,0.783c0,0.731-0.637,0.968-1.271,0.968
	c-0.646,0-1.277-0.241-1.31-0.979"/>
<g>
	
		<polygon fill-rule="evenodd" clip-rule="evenodd" fill="#FFFFFF" stroke="#039046" stroke-width="0.0264" stroke-linecap="round" stroke-miterlimit="22.9256" points="
		65.14,98.558 65.14,101.056 65.137,101.095 65.129,101.133 65.119,101.173 65.104,101.21 65.084,101.243 65.063,101.277 
		65.038,101.301 65.009,101.323 64.978,101.344 64.945,101.354 64.914,101.363 64.879,101.368 64.846,101.363 64.812,101.354 
		64.78,101.344 64.75,101.323 64.721,101.301 64.696,101.277 64.672,101.243 64.655,101.21 64.64,101.173 64.629,101.133 
		64.623,101.095 64.62,101.056 64.62,98.617 64.618,98.6 64.611,98.584 64.602,98.57 64.588,98.563 64.575,98.562 64.562,98.563 
		64.548,98.57 64.537,98.584 64.531,98.6 64.529,98.617 64.529,104.439 64.527,104.481 64.521,104.524 64.51,104.566 
		64.495,104.605 64.478,104.642 64.456,104.677 64.43,104.708 64.401,104.734 64.371,104.757 64.339,104.772 64.304,104.788 
		64.268,104.792 64.234,104.797 64.197,104.792 64.162,104.788 64.128,104.772 64.096,104.757 64.064,104.734 64.037,104.708 
		64.012,104.677 63.99,104.642 63.972,104.605 63.956,104.566 63.946,104.524 63.938,104.481 63.937,104.439 63.937,100.92 
		63.934,100.904 63.928,100.887 63.918,100.876 63.907,100.869 63.892,100.867 63.876,100.869 63.866,100.876 63.855,100.887 
		63.849,100.904 63.847,100.92 63.847,104.439 63.846,104.481 63.839,104.524 63.828,104.566 63.813,104.605 63.794,104.642 
		63.772,104.677 63.747,104.708 63.719,104.734 63.688,104.757 63.655,104.772 63.623,104.788 63.586,104.792 63.55,104.797 
		63.516,104.792 63.48,104.788 63.446,104.772 63.412,104.757 63.383,104.734 63.354,104.708 63.328,104.677 63.306,104.642 
		63.289,104.605 63.274,104.566 63.263,104.524 63.257,104.481 63.254,104.439 63.254,98.617 63.251,98.6 63.246,98.584 
		63.235,98.57 63.222,98.563 63.208,98.562 63.196,98.563 63.182,98.57 63.173,98.584 63.167,98.6 63.164,98.617 63.164,101.056 
		63.161,101.095 63.156,101.133 63.144,101.173 63.128,101.21 63.111,101.243 63.088,101.277 63.062,101.301 63.036,101.323 
		63.003,101.344 62.972,101.354 62.938,101.363 62.904,101.368 62.872,101.363 62.838,101.354 62.806,101.344 62.775,101.323 
		62.746,101.301 62.721,101.277 62.7,101.243 62.68,101.21 62.666,101.173 62.654,101.133 62.648,101.095 62.646,101.056 
		62.646,98.558 62.648,98.486 62.654,98.415 62.667,98.345 62.683,98.275 62.703,98.209 62.727,98.146 62.756,98.083 62.789,98.023 
		62.826,97.968 62.866,97.915 62.91,97.868 62.955,97.821 63.004,97.784 63.057,97.748 63.11,97.72 63.165,97.693 63.222,97.675 
		63.28,97.662 63.339,97.653 63.399,97.648 64.386,97.648 64.446,97.653 64.504,97.662 64.562,97.675 64.618,97.693 64.673,97.72 
		64.728,97.748 64.779,97.784 64.829,97.821 64.876,97.868 64.918,97.915 64.957,97.968 64.996,98.023 65.028,98.083 65.058,98.146 
		65.081,98.209 65.101,98.275 65.119,98.345 65.129,98.415 65.137,98.486 65.14,98.558 	"/>
	
		<polygon fill-rule="evenodd" clip-rule="evenodd" fill="#FFFFFF" stroke="#039046" stroke-width="0.0264" stroke-linecap="round" stroke-miterlimit="22.9256" points="
		61.257,97.648 60.268,97.648 60.209,97.653 60.15,97.662 60.092,97.675 60.036,97.693 59.979,97.72 59.926,97.748 59.875,97.784 
		59.826,97.821 59.779,97.868 59.736,97.915 59.695,97.968 59.659,98.023 59.627,98.083 59.598,98.146 59.572,98.209 59.552,98.275 
		59.536,98.345 59.525,98.415 59.518,98.486 59.517,98.558 59.517,101.056 59.518,101.095 59.525,101.133 59.535,101.173 
		59.549,101.21 59.568,101.243 59.592,101.277 59.617,101.301 59.645,101.323 59.675,101.344 59.708,101.354 59.74,101.363 
		59.773,101.368 59.81,101.363 59.842,101.354 59.875,101.344 59.905,101.323 59.933,101.301 59.958,101.277 59.98,101.243 
		59.999,101.21 60.015,101.173 60.025,101.133 60.031,101.095 60.033,101.056 60.033,98.617 60.036,98.6 60.042,98.584 
		60.053,98.57 60.065,98.563 60.08,98.562 60.092,98.563 60.106,98.57 60.117,98.584 60.122,98.6 60.125,98.617 60.125,104.439 
		60.126,104.481 60.133,104.524 60.144,104.566 60.159,104.605 60.176,104.642 60.199,104.677 60.225,104.708 60.252,104.734 
		60.283,104.757 60.315,104.772 60.35,104.788 60.386,104.792 60.419,104.797 60.456,104.792 60.491,104.788 60.525,104.772 
		60.559,104.757 60.59,104.734 60.617,104.708 60.642,104.677 60.664,104.642 60.684,104.605 60.698,104.566 60.709,104.524 
		60.714,104.481 60.717,104.439 60.717,100.92 60.719,100.904 60.726,100.887 60.735,100.876 60.749,100.869 60.763,100.867 
		60.776,100.869 60.788,100.876 60.799,100.887 60.805,100.904 60.808,100.92 60.808,104.439 60.808,104.481 60.816,104.524 
		60.827,104.566 60.841,104.605 60.859,104.642 60.881,104.677 60.907,104.708 60.936,104.734 60.965,104.757 60.998,104.772 
		61.031,104.788 61.068,104.792 61.104,104.797 61.14,104.792 61.174,104.788 61.208,104.772 61.241,104.757 61.272,104.734 
		61.3,104.708 61.325,104.677 61.347,104.642 61.365,104.605 61.381,104.566 61.391,104.524 61.397,104.481 61.4,104.439 
		61.4,98.617 61.402,98.6 61.408,98.584 61.418,98.57 61.43,98.563 61.445,98.562 61.459,98.563 61.472,98.57 61.481,98.584 
		61.488,98.6 61.489,98.617 61.489,101.056 61.492,101.095 61.5,101.133 61.51,101.173 61.525,101.21 61.543,101.243 
		61.565,101.277 61.59,101.301 61.62,101.323 61.65,101.344 61.683,101.354 61.715,101.363 61.75,101.368 61.783,101.363 
		61.816,101.354 61.848,101.344 61.878,101.323 61.907,101.301 61.933,101.277 61.954,101.243 61.973,101.21 61.989,101.173 
		62,101.133 62.006,101.095 62.009,101.056 62.009,98.558 62.006,98.486 61.998,98.415 61.988,98.345 61.971,98.275 61.951,98.209 
		61.927,98.146 61.897,98.083 61.865,98.023 61.828,97.968 61.788,97.915 61.744,97.868 61.699,97.821 61.649,97.784 61.599,97.748 
		61.543,97.72 61.488,97.693 61.432,97.675 61.373,97.662 61.315,97.653 61.257,97.648 	"/>
	<polygon fill-rule="evenodd" clip-rule="evenodd" fill="#FFFFFF" points="58.093,91.642 58.093,94.022 56.117,91.642 55.439,92.46 
		57.415,94.841 55.439,94.841 56.34,95.927 58.993,95.927 58.993,92.726 58.093,91.642 	"/>
	<polygon fill-rule="evenodd" clip-rule="evenodd" fill="#FFFFFF" points="69.215,94.841 67.241,94.841 69.215,92.46 68.536,91.642 
		66.561,94.022 66.561,91.642 65.66,92.726 65.66,95.927 68.315,95.927 69.215,94.841 	"/>
	<polygon fill-rule="evenodd" clip-rule="evenodd" fill="#FFFFFF" points="69.215,107.435 67.241,105.054 69.215,105.054 
		68.315,103.968 65.66,103.968 65.66,107.168 66.561,108.252 66.561,105.874 68.536,108.252 69.215,107.435 	"/>
	<polygon fill-rule="evenodd" clip-rule="evenodd" fill="#FFFFFF" points="56.34,103.968 58.993,103.968 58.993,107.168 
		58.093,108.252 58.093,105.874 56.117,108.252 55.439,107.435 57.415,105.054 55.439,105.054 56.34,103.968 	"/>
	<polygon fill-rule="evenodd" clip-rule="evenodd" fill="#FFFFFF" points="61.281,96.847 61.278,96.786 61.272,96.731 61.26,96.674 
		61.246,96.62 61.227,96.567 61.202,96.519 61.176,96.47 61.146,96.423 61.112,96.383 61.074,96.348 61.034,96.314 60.994,96.285 
		60.949,96.264 60.904,96.243 60.857,96.23 60.81,96.224 60.763,96.222 60.714,96.224 60.666,96.23 60.62,96.243 60.575,96.264 
		60.531,96.285 60.488,96.314 60.449,96.348 60.413,96.383 60.379,96.423 60.349,96.47 60.321,96.519 60.298,96.567 60.279,96.62 
		60.262,96.674 60.252,96.731 60.246,96.786 60.243,96.847 60.246,96.904 60.252,96.962 60.262,97.017 60.279,97.072 60.298,97.126 
		60.321,97.177 60.349,97.223 60.379,97.268 60.413,97.308 60.449,97.345 60.488,97.376 60.531,97.407 60.575,97.429 60.62,97.447 
		60.666,97.46 60.714,97.469 60.763,97.472 60.81,97.469 60.857,97.46 60.904,97.447 60.949,97.429 60.994,97.407 61.034,97.376 
		61.074,97.345 61.112,97.308 61.146,97.268 61.176,97.223 61.202,97.177 61.227,97.126 61.246,97.072 61.26,97.017 61.272,96.962 
		61.278,96.904 61.281,96.847 	"/>
	<polygon fill-rule="evenodd" clip-rule="evenodd" fill="#FFFFFF" points="64.411,96.847 64.408,96.786 64.401,96.731 64.39,96.674 
		64.376,96.62 64.357,96.567 64.333,96.519 64.306,96.47 64.274,96.423 64.241,96.383 64.204,96.348 64.164,96.314 64.122,96.285 
		64.079,96.264 64.035,96.243 63.988,96.23 63.94,96.224 63.892,96.222 63.843,96.224 63.796,96.23 63.749,96.243 63.705,96.264 
		63.662,96.285 63.62,96.314 63.58,96.348 63.543,96.383 63.509,96.423 63.478,96.47 63.451,96.519 63.428,96.567 63.407,96.62 
		63.394,96.674 63.383,96.731 63.376,96.786 63.373,96.847 63.376,96.904 63.383,96.962 63.394,97.017 63.407,97.072 63.428,97.126 
		63.451,97.177 63.478,97.223 63.509,97.268 63.543,97.308 63.58,97.345 63.62,97.376 63.662,97.407 63.705,97.429 63.749,97.447 
		63.796,97.46 63.843,97.469 63.892,97.472 63.94,97.469 63.988,97.46 64.035,97.447 64.079,97.429 64.122,97.407 64.164,97.376 
		64.204,97.345 64.241,97.308 64.274,97.268 64.306,97.223 64.333,97.177 64.357,97.126 64.376,97.072 64.39,97.017 64.401,96.962 
		64.408,96.904 64.411,96.847 	"/>
	<polygon fill-rule="evenodd" clip-rule="evenodd" fill="#FFFFFF" points="62.846,95.689 62.843,95.63 62.836,95.572 62.826,95.517 
		62.811,95.463 62.791,95.408 62.769,95.359 62.74,95.311 62.71,95.266 62.676,95.226 62.641,95.188 62.6,95.155 62.558,95.129 
		62.515,95.104 62.469,95.084 62.423,95.073 62.375,95.064 62.328,95.062 62.279,95.064 62.232,95.073 62.185,95.084 62.139,95.104 
		62.096,95.129 62.054,95.155 62.015,95.188 61.977,95.226 61.943,95.266 61.914,95.311 61.886,95.359 61.862,95.408 61.843,95.463 
		61.828,95.517 61.816,95.572 61.811,95.63 61.808,95.689 61.811,95.745 61.816,95.803 61.828,95.86 61.843,95.913 61.862,95.967 
		61.886,96.018 61.914,96.063 61.943,96.108 61.977,96.15 62.015,96.188 62.054,96.219 62.096,96.248 62.139,96.272 62.185,96.29 
		62.232,96.301 62.279,96.31 62.328,96.314 62.375,96.31 62.423,96.301 62.469,96.29 62.515,96.272 62.558,96.248 62.6,96.219 
		62.641,96.188 62.676,96.15 62.71,96.108 62.74,96.063 62.769,96.018 62.791,95.967 62.811,95.913 62.826,95.86 62.836,95.803 
		62.843,95.745 62.846,95.689 	"/>
</g>
<g>
	<path fill-rule="evenodd" clip-rule="evenodd" fill="#FFFFFF" d="M58.317,78.607v2.015l-1.024,1.021h9.314l1.035-1.035
		l-0.003-13.31h-9.305v9.577c-0.565,0-0.946,0.271-1.185,0.508s-0.623,1.236-0.623,1.236L58.317,78.607L58.317,78.607z"/>
	<path fill-rule="evenodd" clip-rule="evenodd" fill="#039046" d="M64.266,70.832c-0.612,0-1.108-0.494-1.108-1.106
		c0-0.61,0.497-1.107,1.108-1.107c0.609,0,1.105,0.497,1.105,1.107C65.371,70.338,64.875,70.832,64.266,70.832L64.266,70.832z"/>
	<path fill-rule="evenodd" clip-rule="evenodd" fill="#039046" d="M62.375,75.369c0,0,2.056,4.021,2.27,4.389
		c0.213,0.368,0.483,0.401,0.654,0.401h1.066l-2.695-5.495l0.843-1.817c0,0,0.673,0.902,0.901,1.146
		c0.135,0.136,0.271,0.188,0.417,0.188h1.98V73.13H66.16c0,0-0.82-1.031-1.13-1.45c-0.345-0.462-0.655-0.601-1.344-0.601h-2.263
		c-0.417,0-1.044-0.02-1.332,0.41l-0.975,1.624V73.11c-0.054,0.083-0.085,0.184-0.085,0.29c0,0.29,0.236,0.527,0.529,0.527
		c0.188,0,0.354-0.1,0.448-0.249l-0.027,0.036c0,0,0.857-1.379,0.889-1.478c0.034-0.099,0.115-0.147,0.197-0.147h1.114l-0.894,1.764
		c-0.319,0.671-0.302,1.941-0.302,1.941L60.877,76.9c-0.002,0.131-0.082,0.171-0.14,0.171c0,0-1.492,0-1.737,0
		c-0.91,0-1.349,0.187-1.63,0.468c-0.279,0.279-0.385,0.778-0.385,0.778h2.703h1.622c0.574,0,0.795-0.295,0.829-0.523l0.098-0.986
		l0.14-1.416V75.369L62.375,75.369z"/>
	<path fill-rule="evenodd" clip-rule="evenodd" fill="#039046" d="M64.855,81.682l1.279-1.219h-1.158
		c-0.172,0-0.52,0.219-0.886,0.585c-0.365,0.365-0.649,0.622-0.649,0.622L64.855,81.682L64.855,81.682z"/>
	<polygon fill-rule="evenodd" clip-rule="evenodd" fill="#039046" points="68.126,81.684 56.865,81.684 56.865,81.568 
		68.126,81.568 68.126,81.684 	"/>
</g>
</svg>
