<?xml version="1.0" encoding="utf-8"?>
<!-- Generator: Adobe Illustrator 16.0.0, SVG Export Plug-In . SVG Version: 6.00 Build 0)  -->
<!DOCTYPE svg PUBLIC "-//W3C//DTD SVG 1.1//EN" "http://www.w3.org/Graphics/SVG/1.1/DTD/svg11.dtd">
<svg version="1.1" id="Layer_1" xmlns="http://www.w3.org/2000/svg" xmlns:xlink="http://www.w3.org/1999/xlink" x="0px" y="0px"
	 width="200px" height="200px" viewBox="0 0 200 200" enable-background="new 0 0 200 200" xml:space="preserve">
<g>
	<polyline fill="#FFFFFE" points="12.304,135.381 100.311,152.623 188.313,135.381 188.313,135.236 195,135.236 195,47.376 
		188.168,47.376 188.168,47.39 100.311,55.759 12.304,47.376 5,47.376 5,135.236 12.14,135.236 	"/>
	<path fill="none" stroke="#1B171A" stroke-width="0.9408" d="M100.311,152.623V55.759 M12.304,135.381l88.007,17.242l88.003-17.242
		v-0.145H195v-87.86h-6.832v0.014l-87.857,8.369l-88.007-8.382H5v87.86h7.14L12.304,135.381z"/>
	<line fill="#FFFFFE" x1="188.313" y1="135.381" x2="188.313" y2="47.376"/>
	<line fill="none" stroke="#1B171A" stroke-width="0.9408" x1="188.313" y1="135.381" x2="188.313" y2="47.376"/>
	<line fill="#FFFFFE" x1="12.14" y1="135.236" x2="12.14" y2="47.376"/>
	<line fill="none" stroke="#1B171A" stroke-width="0.9408" x1="12.14" y1="135.236" x2="12.14" y2="47.376"/>
	<path fill="#FFFFFE" d="M8.521,59.45c1.246,0,2.256-1.009,2.256-2.257c0-1.248-1.011-2.258-2.256-2.258s-2.258,1.01-2.258,2.258
		C6.262,58.441,7.275,59.45,8.521,59.45"/>
	<circle fill="none" stroke="#1B171A" stroke-width="0.9408" cx="8.521" cy="57.193" r="2.258"/>
	<path fill="#FFFFFE" d="M8.521,127.678c1.246,0,2.256-1.01,2.256-2.256c0-1.25-1.011-2.26-2.256-2.26s-2.258,1.01-2.258,2.26
		C6.262,126.668,7.275,127.678,8.521,127.678"/>
	<path fill="none" stroke="#1B171A" stroke-width="0.9408" d="M8.521,127.678c1.246,0,2.256-1.01,2.256-2.256
		c0-1.25-1.011-2.26-2.256-2.26s-2.258,1.01-2.258,2.26C6.262,126.668,7.275,127.678,8.521,127.678z"/>
	<path fill="#FFFFFE" d="M191.688,59.45c1.247,0,2.258-1.009,2.258-2.257c0-1.248-1.011-2.258-2.258-2.258
		c-1.244,0-2.255,1.01-2.255,2.258C189.433,58.441,190.443,59.45,191.688,59.45"/>
	<path fill="none" stroke="#1B171A" stroke-width="0.9408" d="M191.688,59.45c1.247,0,2.258-1.009,2.258-2.257
		c0-1.248-1.011-2.258-2.258-2.258c-1.244,0-2.255,1.01-2.255,2.258C189.433,58.441,190.443,59.45,191.688,59.45z"/>
	<path fill="#FFFFFE" d="M191.688,127.678c1.247,0,2.258-1.01,2.258-2.256c0-1.25-1.011-2.26-2.258-2.26
		c-1.244,0-2.255,1.01-2.255,2.26C189.433,126.668,190.443,127.678,191.688,127.678"/>
	<path fill="none" stroke="#1B171A" stroke-width="0.9408" d="M191.688,127.678c1.247,0,2.258-1.01,2.258-2.256
		c0-1.25-1.011-2.26-2.258-2.26c-1.244,0-2.255,1.01-2.255,2.26C189.433,126.668,190.443,127.678,191.688,127.678z"/>
	<path fill="#ED1C24" d="M182.875,132.65c0.968-0.191,1.754-1.139,1.754-2.117V52.647c0-0.978-0.786-1.689-1.754-1.59l-77.282,7.912
		c-0.966,0.1-1.753,1.046-1.753,2.115v85.189c0,1.07,0.787,1.779,1.753,1.588"/>
	<path fill="#FFFFFE" d="M178.4,74.249c0,0-7.653-1.474-11.776-14.553c-1.929,5.187-3.587,17.464,11.776,23.557"/>
	<path fill="#FFFFFE" d="M176.989,88.562c0,0-7.345-0.327-12.202-10.932c-1.496-3.286-4.57-12.046-16.718-10.636
		c3.6,2.459,5.4,5.149,7.683,10.64C162.601,93.943,175.37,89.589,176.989,88.562"/>
	<path fill="#FFFFFE" d="M178.4,95.896c0,0-14.968,0.928-27.224-14.95c0,22.564,26.511,23.552,27.224,23.582"/>
	<path fill="#FFFFFE" d="M176.989,110.676c0,0-7.691,0.504-15.365-6.447c-7.175-6.629-15.406-2.471-18.187,0.404
		c3.521-0.889,7.589,0.955,12.819,5.572C165.448,118.146,176.143,111.682,176.989,110.676"/>
	<path fill="#FFFFFE" d="M178.4,116.383c0,0-16.214,5.412-26.83-2.859c-0.368-1.102,2.035,16.584,26.83,10.959"/>
	<path fill="#FFFFFE" d="M130.017,62.35l-5.672,0.617l0.446,1.808l-5.077,0.563l-9.29,7.464c0,0-1.605,1.458-1.605,3.671v5.144
		l2.081-0.264v-1.949c0,0-0.09-0.672,0.533-1.172c0.625-0.497,8.994-7.316,8.994-7.316l3.712-0.435l-0.696,0.835v4.793l-1.797,0.22
		c0,0-6.68,0.648-6.68,7.709v54.814c0,0,24.431-4.623,24.462-4.627c0.029-0.006,0-53.185,0-53.185s-0.327-6.824-5.878-6.143
		l-2.493,0.306v-5.53l3.028-0.354l2.552-1.309v-3.537l-2.225-0.799l-4.812,0.533"/>
	<path fill="#ED1C24" d="M94.844,147.875c0.959,0.191,1.74-0.521,1.74-1.59V61.097c0-1.068-0.781-2.017-1.74-2.117l-76.671-7.911
		c-0.961-0.1-1.742,0.613-1.742,1.591v77.887c0,0.979,0.781,1.924,1.742,2.115"/>
	<path fill="#FFFFFE" d="M90.403,83.048c0,0-7.59-3.591-11.684-18.401c-1.913,4.994-3.558,17.401,11.684,28.112"/>
	<path fill="#FFFFFE" d="M89.005,98.06c0,0-7.286-2.532-12.107-15.053c-1.482-3.83-4.535-13.699-16.586-15.11
		c3.572,3.347,5.36,6.525,7.622,12.723C74.729,99.415,87.4,98.679,89.005,98.06"/>
	<path fill="#FFFFFE" d="M90.403,106.398c0,0-14.848-3.727-27.009-23.607c0,22.914,26.3,32.642,27.009,32.916"/>
	<path fill="#FFFFFE" d="M89.005,121.84c0,0-7.635-2.158-15.244-12.033c-7.118-9.103-15.288-7.422-18.044-5.408
		c3.493,0.213,7.526,3.373,12.717,9.805C77.554,125.65,88.163,122.621,89.005,121.84"/>
	<path fill="#FFFFFE" d="M90.403,128.496c0,0-16.087-0.227-26.615-12.484c-0.37-1.246,2.018,17.623,26.615,21.223"/>
	<path fill="#FFFFFE" d="M42.401,59.271l-5.626-0.618l0.443,1.828l-5.035-0.563l-9.222,4.939c0,0-1.589,0.985-1.589,3.032v4.756
		l2.06,0.262v-1.81c0,0-0.086-0.642,0.533-0.958c0.619-0.316,8.924-4.773,8.924-4.773l3.683,0.433l-0.693,0.637v4.575l-1.784-0.221
		c0,0-6.626-0.98-6.626,5.634v51.371c0,0,24.242,4.623,24.269,4.629c0.031,0.004,0-52.624,0-52.624s-0.323-6.833-5.83-7.515
		l-2.477-0.307v-5.37l3.008,0.352l2.532-0.694v-3.479l-2.208-1.271l-4.772-0.534"/>
</g>
</svg>
