<?xml version="1.0" encoding="utf-8"?>
<!-- Generator: Adobe Illustrator 16.0.0, SVG Export Plug-In . SVG Version: 6.00 Build 0)  -->
<!DOCTYPE svg PUBLIC "-//W3C//DTD SVG 1.1//EN" "http://www.w3.org/Graphics/SVG/1.1/DTD/svg11.dtd">
<svg version="1.1" id="Layer_1" xmlns="http://www.w3.org/2000/svg" xmlns:xlink="http://www.w3.org/1999/xlink" x="0px" y="0px"
	 width="200px" height="200px" viewBox="0 -25 200 200" enable-background="new 0 -25 200 200" xml:space="preserve">
<rect x="30.908" y="-20" fill="#FFFFFF" width="138.185" height="190"/>
<path fill="none" stroke="#1B181B" d="M30.908,170h138.185V-20H30.908V170z"/>
<path fill="#016BB2" d="M48.871-5.834c6.107,0,11.057,4.948,11.057,11.054c0,6.107-4.951,11.055-11.057,11.055
	c-6.104,0-11.055-4.948-11.055-11.055C37.816-0.887,42.767-5.834,48.871-5.834"/>
<path fill="#FFFFFF" d="M46.57-1.716l0.989,9.365c0,0,0.235,1.165,1.204,1.165c1.127,0,1.3-1.144,1.3-1.144l1.027-9.405
	c0,0-0.126-2.269-2.249-2.269C46.573-4.003,46.57-1.716,46.57-1.716"/>
<path fill="#FFFFFF" d="M48.869,14.511c1.236,0,2.234-0.998,2.234-2.234c0-1.233-0.998-2.234-2.234-2.234
	c-1.235,0-2.236,1.001-2.236,2.234C46.633,13.512,47.633,14.511,48.869,14.511"/>
<path fill="#016BB2" d="M162.182,18c0,1.14-0.933,2.072-2.071,2.072H66.835c-1.14,0-2.073-0.934-2.073-2.072V-7.562
	c0-1.145,0.934-2.076,2.073-2.076h93.275c1.14,0,2.071,0.933,2.071,2.076"/>
<path fill="#ED1C24" d="M162.182,52.547c0,1.14-0.933,2.071-2.071,2.071H66.835c-1.14,0-2.073-0.932-2.073-2.071V26.982
	c0-1.139,0.934-2.073,2.073-2.073h93.275c1.14,0,2.071,0.934,2.071,2.073"/>
<path fill="#0D9C4A" d="M162.182,87.091c0,1.14-0.933,2.071-2.071,2.071H66.835c-1.14,0-2.073-0.933-2.073-2.071V61.529
	c0-1.141,0.934-2.074,2.073-2.074h93.275c1.14,0,2.071,0.934,2.071,2.074"/>
<path fill="#0D9C4A" d="M162.182,121.637c0,1.142-0.933,2.072-2.071,2.072H66.835c-1.14,0-2.073-0.932-2.073-2.072V96.073
	c0-1.141,0.934-2.073,2.073-2.073h93.275c1.14,0,2.071,0.933,2.071,2.073"/>
<path fill="#ED1C24" d="M162.182,156.182c0,1.141-0.933,2.076-2.071,2.076H66.835c-1.14,0-2.073-0.936-2.073-2.076v-25.562
	c0-1.14,0.934-2.071,2.073-2.071h93.275c1.14,0,2.071,0.932,2.071,2.071"/>
<path fill="#0D9C4A" d="M59.929,121.058c0,1.458-1.196,2.653-2.653,2.653H40.471c-1.459,0-2.655-1.195-2.655-2.653V96.653
	c0-1.459,1.195-2.653,2.655-2.653h16.805c1.457,0,2.653,1.194,2.653,2.653"/>
<path fill="#ED1C24" d="M48.875,132.346c-6.107,0-11.059,4.947-11.059,11.055s4.951,11.056,11.059,11.056
	c6.104,0,11.054-4.948,11.054-11.056S54.979,132.346,48.875,132.346 M48.875,152.232c-4.876,0-8.831-3.953-8.831-8.832
	c0-2.023,0.688-3.883,1.835-5.373l12.364,12.368C52.755,151.543,50.896,152.232,48.875,152.232 M55.864,148.778l-12.369-12.369
	c1.488-1.148,3.351-1.835,5.378-1.835c4.876,0,8.827,3.949,8.827,8.826C57.702,145.429,57.01,147.292,55.864,148.778"/>
<path fill="#ED1C24" d="M59.929,51.966c0,1.458-1.196,2.652-2.653,2.652H40.471c-1.459,0-2.655-1.194-2.655-2.652V27.562
	c0-1.458,1.195-2.653,2.655-2.653h16.805c1.457,0,2.653,1.196,2.653,2.653"/>
<path fill="#FFFFFF" d="M55.529,32.929c0,0-2.916-0.968-4.488-6.292c-0.736,1.941-1.367,6.652,4.488,9.871"/>
<path fill="#FFFFFF" d="M54.989,38.529c0,0-2.798-0.544-4.645-4.958c-0.57-1.36-1.742-4.921-6.37-4.921
	c1.371,1.11,2.056,2.229,2.928,4.463C49.511,39.816,54.372,38.844,54.989,38.529"/>
<path fill="#FFFFFF" d="M55.529,41.525c0,0-5.705-0.531-10.375-7.364c0,8.686,10.096,10.734,10.375,10.789"/>
<path fill="#FFFFFF" d="M54.989,47.3c0,0-2.932-0.314-5.851-3.534c-2.733-3.003-5.869-1.889-6.925-0.954
	c1.34-0.13,2.885,0.828,4.88,2.935C50.59,49.453,54.665,47.637,54.989,47.3"/>
<path fill="#FFFFFF" d="M55.529,49.66c0,0-6.179,0.991-10.223-2.93c-0.136-0.452,0.776,6.533,10.223,6.148"/>
<path fill="#0D9C4A" d="M59.929,86.509c0,1.458-1.196,2.653-2.653,2.653H40.471c-1.459,0-2.655-1.195-2.655-2.653V62.11
	c0-1.46,1.195-2.655,2.655-2.655h16.805c1.457,0,2.653,1.194,2.653,2.655"/>
<path fill="#FFFFFF" d="M73.906,46.038h-2.353v-7.968h-2.918v-1.878c1.641,0.036,3.151-0.562,3.399-2.438h1.872"/>
<path fill="#FFFFFF" d="M68.021,73.047c-0.083-2.806,1.425-4.967,4.211-4.967c2.123,0,3.98,1.439,3.98,3.844
	c0,1.841-0.93,2.861-2.074,3.72c-1.143,0.859-2.504,1.563-3.348,2.823h5.488v2.145h-8.522c0.016-2.846,1.658-4.053,3.665-5.492
	c1.028-0.739,2.42-1.493,2.436-3.003c0-1.159-0.727-1.895-1.739-1.895c-1.393,0-1.842,1.526-1.842,2.825"/>
<path fill="#FFFFFF" d="M71.188,107.834c1.012,0.086,2.471-0.122,2.471-1.529c0-1.031-0.779-1.629-1.642-1.629
	c-1.175,0-1.807,0.929-1.792,2.193h-2.236c0.083-2.511,1.624-4.246,4.012-4.246c1.857,0,3.898,1.21,3.898,3.403
	c0,1.159-0.547,2.194-1.626,2.511v0.033c1.276,0.301,2.057,1.42,2.057,2.792c0,2.581-2.037,4.036-4.311,4.036
	c-2.602,0-4.359-1.648-4.31-4.474h2.238c0.051,1.334,0.681,2.42,2.04,2.42c1.062,0,1.891-0.769,1.891-1.929
	c0-1.862-1.542-1.83-2.686-1.83"/>
<path fill="#FFFFFF" d="M72.58,146.859h-4.906v-2.284l5.041-7.157h2.104v7.388h1.542v2.054h-1.542v2.843H72.58 M72.58,140.543
	h-0.049l-3,4.263h3.051v-4.263H72.58z"/>
<polyline fill="#FFFFFF" points="72.891,-8.095 81.362,-8.095 81.362,-5.868 75.54,-5.868 75.54,-3.083 80.586,-3.083 
	80.586,-1.026 75.54,-1.026 75.54,3.954 72.891,3.954 "/>
<path fill="#FFFFFF" d="M84.972-6.119h-2.396v-1.975h2.396V-6.119z M82.576-4.77h2.396v8.722h-2.396V-4.77z"/>
<path fill="#FFFFFF" d="M86.729-4.77h2.277v1.619h0.034c0.436-1.098,1.618-1.857,2.783-1.857c0.169,0,0.372,0.034,0.523,0.084v2.229
	c-0.218-0.05-0.574-0.084-0.86-0.084c-1.755,0-2.363,1.267-2.363,2.801v3.932h-2.394"/>
<path fill="#FFFFFF" d="M94.829,0.173c0.068,1.517,0.809,2.209,2.142,2.209c0.962,0,1.737-0.59,1.891-1.129h2.11
	c-0.674,2.059-2.11,2.936-4.085,2.936c-2.75,0-4.456-1.89-4.456-4.59c0-2.615,1.808-4.608,4.456-4.608
	c2.97,0,4.404,2.497,4.236,5.18 M98.727-1.345c-0.221-1.216-0.742-1.858-1.909-1.858c-1.517,0-1.957,1.182-1.989,1.858H98.727z"/>
<path fill="#FFFFFF" d="M106.86-2.09c0.135-2.243,2.143-2.918,4.099-2.918c1.737,0,3.832,0.388,3.832,2.481v4.54
	c0,0.792,0.083,1.586,0.303,1.941h-2.43c-0.087-0.271-0.153-0.557-0.169-0.845c-0.761,0.794-1.872,1.081-2.937,1.081
	c-1.651,0-2.969-0.827-2.969-2.615c0-1.975,1.484-2.449,2.969-2.649c1.467-0.22,2.835-0.168,2.835-1.148
	c0-1.03-0.707-1.181-1.553-1.181c-0.911,0-1.501,0.37-1.585,1.315 M112.394-0.316c-0.404,0.355-1.249,0.37-1.992,0.505
	c-0.741,0.152-1.417,0.405-1.417,1.282c0,0.895,0.691,1.113,1.469,1.113c1.872,0,1.94-1.485,1.94-2.007V-0.316z"/>
<path fill="#FFFFFF" d="M122.45-1.702c-0.15-0.977-0.775-1.501-1.77-1.501c-1.537,0-2.044,1.554-2.044,2.836
	c0,1.248,0.486,2.749,1.991,2.749c1.113,0,1.754-0.707,1.908-1.772h2.312c-0.307,2.312-1.909,3.579-4.203,3.579
	c-2.631,0-4.405-1.855-4.405-4.471c0-2.717,1.621-4.726,4.454-4.726c2.06,0,3.948,1.08,4.101,3.308"/>
<path fill="#FFFFFF" d="M129.097-4.77h1.755v1.603h-1.755v4.32c0,0.811,0.202,1.013,1.015,1.013c0.254,0,0.486-0.018,0.74-0.068
	V3.97c-0.406,0.067-0.928,0.084-1.4,0.084c-1.468,0-2.75-0.338-2.75-2.074v-5.147h-1.451V-4.77h1.451v-2.617h2.397"/>
<path fill="#FFFFFF" d="M134.329-6.119h-2.396v-1.975h2.396V-6.119z M131.933-4.77h2.396v8.722h-2.396V-4.77z"/>
<path fill="#FFFFFF" d="M140.319-5.008c2.751,0,4.521,1.823,4.521,4.607c0,2.768-1.77,4.59-4.521,4.59
	c-2.735,0-4.506-1.823-4.506-4.59C135.813-3.185,137.584-5.008,140.319-5.008 M140.319,2.382c1.637,0,2.123-1.399,2.123-2.784
	c0-1.399-0.486-2.801-2.123-2.801c-1.619,0-2.11,1.402-2.11,2.801C138.209,0.983,138.7,2.382,140.319,2.382"/>
<path fill="#FFFFFF" d="M146.257-4.77h2.279v1.215h0.05c0.609-0.979,1.655-1.451,2.667-1.451c2.548,0,3.19,1.435,3.19,3.595v5.366
	h-2.397v-4.929c0-1.435-0.423-2.143-1.536-2.143c-1.3,0-1.854,0.726-1.854,2.497v4.575h-2.398"/>
<rect x="79.856" y="4.999" fill="#FFFFFF" width="1.324" height="6.023"/>
<path fill="#FFFFFF" d="M82.413,7.463h-0.717V6.66h0.717V6.322c0-0.765,0.48-1.325,1.459-1.325c0.21,0,0.43,0.027,0.632,0.034v0.895
	c-0.143-0.018-0.287-0.027-0.44-0.027c-0.32,0-0.453,0.136-0.453,0.498v0.261h0.826V7.46h-0.826v3.559h-1.198"/>
<path fill="#FFFFFF" d="M89.322,11.571c-0.26,0.701-0.676,0.988-1.5,0.988c-0.247,0-0.49-0.018-0.736-0.042V11.53
	c0.228,0.017,0.463,0.05,0.702,0.041c0.413-0.041,0.548-0.472,0.413-0.819L86.667,6.66h1.283l0.985,2.985h0.017l0.954-2.985h1.239"
	/>
<path fill="#FFFFFF" d="M93.601,6.544c1.373,0,2.26,0.911,2.26,2.301c0,1.385-0.887,2.295-2.26,2.295
	c-1.37,0-2.254-0.912-2.254-2.295C91.347,7.454,92.231,6.544,93.601,6.544 M93.601,10.237c0.817,0,1.061-0.7,1.061-1.391
	c0-0.702-0.245-1.398-1.061-1.398c-0.812,0-1.056,0.699-1.056,1.398C92.543,9.539,92.79,10.237,93.601,10.237"/>
<path fill="#FFFFFF" d="M100.659,11.021h-1.14v-0.606h-0.026c-0.303,0.49-0.825,0.726-1.331,0.726c-1.274,0-1.595-0.718-1.595-1.795
	V6.66h1.198v2.464c0,0.715,0.21,1.071,0.768,1.071c0.65,0,0.927-0.364,0.927-1.249V6.659h1.198"/>
<path fill="#FFFFFF" d="M106.895,10.465h-0.019c-0.278,0.473-0.765,0.675-1.324,0.675c-1.316,0-1.957-1.132-1.957-2.336
	c0-1.174,0.649-2.261,1.935-2.261c0.515,0,1.018,0.218,1.296,0.65h-0.008h0.019V4.999h1.198v6.023h-1.14 M105.848,7.447
	c-0.785,0-1.053,0.674-1.053,1.389c0,0.684,0.312,1.4,1.053,1.4c0.795,0,1.031-0.69,1.031-1.407
	C106.876,8.122,106.625,7.447,105.848,7.447"/>
<path fill="#FFFFFF" d="M110.099,5.985h-1.197V4.999h1.197V5.985z M108.903,6.661h1.198v4.362h-1.198V6.661z"/>
<path fill="#FFFFFF" d="M111.904,9.604c0.008,0.524,0.445,0.736,0.918,0.736c0.349,0,0.786-0.137,0.786-0.558
	c0-0.365-0.497-0.49-1.359-0.674c-0.689-0.154-1.384-0.398-1.384-1.165c0-1.113,0.962-1.399,1.897-1.399
	c0.954,0,1.832,0.319,1.925,1.39h-1.143c-0.029-0.464-0.387-0.59-0.816-0.59c-0.268,0-0.668,0.052-0.668,0.405
	c0,0.43,0.676,0.489,1.359,0.65c0.7,0.16,1.386,0.414,1.386,1.223c0,1.148-0.996,1.518-1.992,1.518
	c-1.013,0-1.999-0.379-2.049-1.536"/>
<path fill="#FFFFFF" d="M118.409,8.196c-0.077-0.487-0.39-0.75-0.886-0.75c-0.769,0-1.021,0.776-1.021,1.417
	c0,0.625,0.244,1.375,0.994,1.375c0.557,0,0.877-0.354,0.954-0.883h1.157c-0.152,1.155-0.954,1.787-2.104,1.787
	c-1.314,0-2.2-0.93-2.2-2.236c0-1.356,0.809-2.36,2.227-2.36c1.031,0,1.974,0.539,2.052,1.653"/>
<path fill="#FFFFFF" d="M122.332,6.544c1.374,0,2.261,0.911,2.261,2.301c0,1.385-0.887,2.295-2.261,2.295
	c-1.368,0-2.253-0.912-2.253-2.295C120.079,7.454,120.964,6.544,122.332,6.544 M122.332,10.237c0.819,0,1.062-0.7,1.062-1.391
	c0-0.702-0.246-1.398-1.062-1.398c-0.812,0-1.055,0.699-1.055,1.398C121.277,9.539,121.521,10.237,122.332,10.237"/>
<polyline fill="#FFFFFF" points="127.713,11.021 126.38,11.021 124.887,6.661 126.144,6.661 127.063,9.64 127.079,9.64 128,6.661 
	129.189,6.661 "/>
<path fill="#FFFFFF" d="M130.605,9.132c0.035,0.76,0.407,1.104,1.074,1.104c0.48,0,0.868-0.295,0.943-0.564h1.054
	c-0.337,1.028-1.054,1.468-2.041,1.468c-1.377,0-2.228-0.944-2.228-2.295c0-1.308,0.902-2.301,2.228-2.301
	c1.484,0,2.203,1.247,2.116,2.588 M132.556,8.373c-0.11-0.607-0.371-0.927-0.953-0.927c-0.76,0-0.979,0.59-0.997,0.927H132.556z"/>
<path fill="#FFFFFF" d="M134.396,6.661h1.14v0.811h0.016c0.22-0.547,0.812-0.927,1.392-0.927c0.085,0,0.188,0.016,0.263,0.041v1.113
	c-0.11-0.024-0.286-0.041-0.433-0.041c-0.874,0-1.18,0.633-1.18,1.401v1.963h-1.197"/>
<path fill="#FFFFFF" d="M142.005,6.544c1.373,0,2.262,0.911,2.262,2.301c0,1.385-0.889,2.295-2.262,2.295
	c-1.367,0-2.253-0.912-2.253-2.295C139.752,7.454,140.638,6.544,142.005,6.544 M142.005,10.237c0.819,0,1.063-0.7,1.063-1.391
	c0-0.702-0.247-1.398-1.063-1.398c-0.811,0-1.054,0.699-1.054,1.398C140.951,9.539,141.194,10.237,142.005,10.237"/>
<path fill="#FFFFFF" d="M144.974,6.661h1.14v0.811h0.018c0.219-0.547,0.81-0.927,1.393-0.927c0.083,0,0.184,0.016,0.26,0.041v1.113
	c-0.111-0.024-0.287-0.041-0.432-0.041c-0.875,0-1.18,0.633-1.18,1.401v1.963h-1.198"/>
<path fill="#FFFFFF" d="M88.179,16.378c0.007,0.523,0.447,0.734,0.92,0.734c0.347,0,0.783-0.136,0.783-0.557
	c0-0.364-0.498-0.488-1.357-0.676c-0.693-0.15-1.386-0.395-1.386-1.163c0-1.115,0.962-1.401,1.898-1.401
	c0.953,0,1.831,0.321,1.923,1.393h-1.14c-0.034-0.464-0.388-0.59-0.818-0.59c-0.27,0-0.666,0.048-0.666,0.403
	c0,0.43,0.673,0.49,1.357,0.65c0.698,0.159,1.382,0.414,1.382,1.223c0,1.147-0.994,1.518-1.991,1.518c-1.011,0-2-0.378-2.051-1.535"
	/>
<path fill="#FFFFFF" d="M95.805,17.796h-1.14v-0.608H94.64c-0.303,0.489-0.826,0.725-1.333,0.725c-1.273,0-1.595-0.715-1.595-1.796
	v-2.683h1.198v2.462c0,0.717,0.211,1.072,0.767,1.072c0.65,0,0.929-0.364,0.929-1.25v-2.285h1.199"/>
<path fill="#FFFFFF" d="M97.577,16.378c0.007,0.523,0.447,0.734,0.919,0.734c0.346,0,0.786-0.136,0.786-0.557
	c0-0.364-0.5-0.488-1.357-0.676c-0.694-0.15-1.386-0.395-1.386-1.163c0-1.115,0.962-1.401,1.9-1.401
	c0.954,0,1.832,0.321,1.923,1.393h-1.14c-0.033-0.464-0.388-0.59-0.818-0.59c-0.271,0-0.667,0.048-0.667,0.403
	c0,0.43,0.676,0.49,1.358,0.65c0.7,0.159,1.384,0.414,1.384,1.223c0,1.147-0.996,1.518-1.991,1.518
	c-1.013,0-1.998-0.378-2.051-1.535"/>
<path fill="#FFFFFF" d="M101.11,13.434h1.139v0.556h0.018c0.287-0.463,0.761-0.675,1.3-0.675c1.365,0,1.981,1.106,1.981,2.347
	c0,1.164-0.64,2.251-1.914,2.251c-0.523,0-1.021-0.227-1.307-0.657h-0.019v2.075h-1.198 M104.352,15.626
	c0-0.69-0.28-1.409-1.046-1.409c-0.785,0-1.039,0.702-1.039,1.409c0,0.708,0.271,1.385,1.047,1.385
	C104.098,17.011,104.352,16.335,104.352,15.626"/>
<path fill="#FFFFFF" d="M107.184,15.906c0.034,0.76,0.406,1.105,1.072,1.105c0.48,0,0.87-0.296,0.944-0.566h1.056
	c-0.34,1.03-1.056,1.467-2.044,1.467c-1.374,0-2.226-0.943-2.226-2.292c0-1.308,0.902-2.305,2.226-2.305
	c1.484,0,2.204,1.25,2.118,2.591 M109.134,15.146c-0.111-0.606-0.372-0.93-0.954-0.93c-0.761,0-0.978,0.593-0.996,0.93H109.134z"/>
<path fill="#FFFFFF" d="M113.942,14.97c-0.078-0.488-0.39-0.752-0.887-0.752c-0.768,0-1.021,0.777-1.021,1.418
	c0,0.624,0.245,1.376,0.993,1.376c0.559,0,0.878-0.354,0.954-0.886h1.155c-0.15,1.158-0.951,1.787-2.099,1.787
	c-1.317,0-2.203-0.927-2.203-2.234c0-1.358,0.812-2.363,2.228-2.363c1.03,0,1.976,0.54,2.051,1.654"/>
<path fill="#FFFFFF" d="M117.264,13.434h0.879v0.801h-0.879v2.16c0,0.405,0.104,0.506,0.509,0.506c0.125,0,0.244-0.008,0.37-0.034
	v0.935c-0.2,0.034-0.463,0.043-0.698,0.043c-0.734,0-1.379-0.169-1.379-1.038v-2.573h-0.726v-0.801h0.726v-1.308h1.198"/>
<path fill="#FFFFFF" d="M120.877,14.775c0.066-1.123,1.069-1.46,2.052-1.46c0.868,0,1.913,0.195,1.913,1.241v2.27
	c0,0.395,0.041,0.792,0.151,0.971h-1.217c-0.04-0.136-0.074-0.279-0.083-0.423c-0.378,0.396-0.938,0.539-1.469,0.539
	c-0.826,0-1.484-0.413-1.484-1.307c0-0.987,0.742-1.223,1.484-1.326c0.734-0.109,1.417-0.084,1.417-0.573
	c0-0.515-0.355-0.59-0.774-0.59c-0.456,0-0.753,0.184-0.792,0.657 M123.643,15.66c-0.2,0.178-0.624,0.185-0.995,0.254
	c-0.368,0.076-0.708,0.202-0.708,0.642c0,0.447,0.349,0.557,0.734,0.557c0.936,0,0.97-0.744,0.97-1.005L123.643,15.66L123.643,15.66
	z"/>
<path fill="#FFFFFF" d="M128.243,14.235h-0.719v-0.801h0.719v-0.337c0-0.767,0.479-1.324,1.456-1.324
	c0.212,0,0.433,0.025,0.635,0.032v0.893c-0.143-0.016-0.286-0.024-0.439-0.024c-0.319,0-0.453,0.135-0.453,0.497v0.262h0.825v0.801
	h-0.825v3.561h-1.198"/>
<path fill="#FFFFFF" d="M131.952,12.76h-1.196v-0.988h1.196V12.76z M130.757,13.434h1.197v4.362h-1.197V13.434z"/>
<path fill="#FFFFFF" d="M132.831,13.434h1.138v0.811h0.017c0.219-0.548,0.812-0.93,1.394-0.93c0.083,0,0.187,0.018,0.262,0.042
	v1.114c-0.111-0.026-0.29-0.042-0.432-0.042c-0.878,0-1.18,0.632-1.18,1.399v1.967h-1.198"/>
<path fill="#FFFFFF" d="M136.882,15.906c0.034,0.76,0.405,1.105,1.07,1.105c0.479,0,0.869-0.296,0.943-0.566h1.056
	c-0.337,1.03-1.056,1.467-2.041,1.467c-1.376,0-2.229-0.943-2.229-2.292c0-1.308,0.904-2.305,2.229-2.305
	c1.484,0,2.2,1.25,2.117,2.591 M138.83,15.146c-0.109-0.606-0.371-0.93-0.953-0.93c-0.76,0-0.979,0.593-0.995,0.93H138.83z"/>
<path fill="#FFFFFF" d="M80.013,36.056h4.128c1.375,0,2.242,0.955,2.242,2.113c0,0.901-0.364,1.577-1.211,1.919v0.022
	c0.825,0.213,1.061,1.021,1.115,1.791c0.031,0.482,0.021,1.386,0.321,1.812h-1.683c-0.206-0.481-0.184-1.22-0.271-1.833
	c-0.117-0.805-0.426-1.159-1.274-1.159h-1.683v2.992h-1.685 M81.698,39.518h1.844c0.751,0,1.158-0.32,1.158-1.094
	c0-0.739-0.406-1.061-1.158-1.061h-1.844V39.518z"/>
<path fill="#FFFFFF" d="M87.446,39.874c0.085-1.427,1.361-1.857,2.604-1.857c1.106,0,2.433,0.249,2.433,1.577v2.885
	c0,0.503,0.056,1.006,0.194,1.232h-1.545c-0.054-0.171-0.096-0.353-0.105-0.536c-0.484,0.503-1.191,0.687-1.866,0.687
	c-1.05,0-1.889-0.527-1.889-1.663c0-1.255,0.944-1.557,1.889-1.683c0.932-0.141,1.802-0.109,1.802-0.731
	c0-0.653-0.452-0.749-0.988-0.749c-0.579,0-0.955,0.235-1.005,0.836 M90.964,40.998c-0.256,0.225-0.794,0.238-1.266,0.322
	c-0.473,0.096-0.901,0.256-0.901,0.816c0,0.568,0.441,0.707,0.933,0.707c1.19,0,1.234-0.944,1.234-1.276V40.998z"/>
<path fill="#FFFFFF" d="M95.146,37.311h-1.524v-1.255h1.524V37.311z M93.623,38.167h1.524v5.544h-1.524V38.167z"/>
<path fill="#FFFFFF" d="M97.44,41.91c0.013,0.664,0.569,0.934,1.169,0.934c0.441,0,0.996-0.171,0.996-0.707
	c0-0.461-0.632-0.623-1.726-0.858c-0.878-0.193-1.757-0.504-1.757-1.48c0-1.417,1.223-1.78,2.413-1.78
	c1.211,0,2.326,0.408,2.446,1.77h-1.449c-0.043-0.589-0.495-0.75-1.04-0.75c-0.345,0-0.847,0.063-0.847,0.514
	c0,0.546,0.856,0.622,1.727,0.824c0.889,0.205,1.757,0.527,1.757,1.555c0,1.458-1.267,1.932-2.53,1.932
	c-1.289,0-2.543-0.483-2.605-1.952"/>
<path fill="#FFFFFF" d="M103.188,41.31c0.044,0.967,0.515,1.405,1.362,1.405c0.612,0,1.104-0.375,1.201-0.716h1.341
	c-0.429,1.307-1.341,1.865-2.595,1.865c-1.749,0-2.833-1.203-2.833-2.917c0-1.663,1.148-2.929,2.833-2.929
	c1.888,0,2.798,1.589,2.689,3.293 M105.667,40.344c-0.141-0.771-0.473-1.179-1.213-1.179c-0.966,0-1.244,0.751-1.266,1.179H105.667z
	"/>
<path fill="#FFFFFF" d="M112.829,38.167h1.116v1.019h-1.116v2.744c0,0.515,0.127,0.644,0.645,0.644c0.16,0,0.312-0.008,0.472-0.041
	v1.19c-0.256,0.042-0.59,0.054-0.89,0.054c-0.935,0-1.748-0.216-1.748-1.321v-3.271h-0.922v-1.019h0.922v-1.664h1.522"/>
<path fill="#FFFFFF" d="M114.589,36.056h1.521v2.885h0.032c0.387-0.622,1.05-0.924,1.618-0.924c1.618,0,2.028,0.913,2.028,2.287
	v3.409h-1.523v-3.13c0-0.912-0.268-1.364-0.976-1.364c-0.825,0-1.181,0.464-1.181,1.59v2.905h-1.521"/>
<path fill="#FFFFFF" d="M122.118,41.31c0.041,0.967,0.515,1.405,1.361,1.405c0.611,0,1.105-0.375,1.201-0.716h1.34
	c-0.429,1.307-1.34,1.865-2.594,1.865c-1.75,0-2.832-1.203-2.832-2.917c0-1.663,1.148-2.929,2.832-2.929
	c1.887,0,2.799,1.589,2.69,3.293 M124.596,40.344c-0.141-0.771-0.475-1.179-1.214-1.179c-0.965,0-1.246,0.751-1.265,1.179H124.596z"
	/>
<path fill="#FFFFFF" d="M129.765,39.874c0.087-1.427,1.362-1.857,2.608-1.857c1.101,0,2.433,0.249,2.433,1.577v2.885
	c0,0.503,0.056,1.006,0.193,1.232h-1.545c-0.053-0.171-0.096-0.353-0.106-0.536c-0.483,0.503-1.192,0.687-1.865,0.687
	c-1.05,0-1.888-0.527-1.888-1.663c0-1.255,0.941-1.557,1.888-1.683c0.933-0.141,1.8-0.109,1.8-0.731
	c0-0.653-0.451-0.749-0.986-0.749c-0.579,0-0.956,0.235-1.008,0.836 M133.282,40.998c-0.258,0.225-0.793,0.238-1.268,0.322
	c-0.471,0.096-0.901,0.256-0.901,0.816c0,0.568,0.44,0.707,0.934,0.707c1.189,0,1.232-0.944,1.232-1.276v-0.569H133.282z"/>
<rect x="135.943" y="36.056" fill="#FFFFFF" width="1.521" height="7.656"/>
<path fill="#FFFFFF" d="M138.516,39.874c0.086-1.427,1.361-1.857,2.605-1.857c1.104,0,2.435,0.249,2.435,1.577v2.885
	c0,0.503,0.055,1.006,0.193,1.232h-1.545c-0.053-0.171-0.096-0.353-0.106-0.536c-0.482,0.503-1.189,0.687-1.866,0.687
	c-1.049,0-1.888-0.527-1.888-1.663c0-1.255,0.943-1.557,1.888-1.683c0.934-0.141,1.803-0.109,1.803-0.731
	c0-0.653-0.453-0.749-0.988-0.749c-0.581,0-0.953,0.235-1.008,0.836 M142.034,40.998c-0.257,0.225-0.792,0.238-1.267,0.322
	c-0.472,0.096-0.901,0.256-0.901,0.816c0,0.568,0.441,0.707,0.933,0.707c1.193,0,1.235-0.944,1.235-1.276V40.998z"/>
<path fill="#FFFFFF" d="M144.647,38.167h1.449v1.03h0.022c0.278-0.698,1.029-1.181,1.77-1.181c0.107,0,0.235,0.023,0.332,0.054
	v1.414c-0.138-0.03-0.365-0.05-0.547-0.05c-1.115,0-1.499,0.803-1.499,1.778v2.5h-1.524"/>
<path fill="#FFFFFF" d="M148.777,38.167h1.438v0.75h0.022c0.397-0.566,0.976-0.9,1.696-0.9c0.694,0,1.317,0.256,1.617,0.924
	c0.32-0.483,0.901-0.924,1.672-0.924c1.18,0,2.028,0.547,2.028,1.987v3.708h-1.524v-3.142c0-0.74-0.063-1.352-0.933-1.352
	c-0.857,0-1.021,0.71-1.021,1.406v3.087h-1.521V40.6c0-0.643,0.04-1.384-0.927-1.384c-0.297,0-1.028,0.194-1.028,1.278v3.216h-1.523
	"/>
<polyline fill="#FFFFFF" points="79.812,62.046 81.035,62.046 81.035,66.584 83.751,66.584 83.751,67.616 79.812,67.616 "/>
<path fill="#FFFFFF" d="M85.169,65.868c0.032,0.702,0.375,1.021,0.991,1.021c0.445,0,0.804-0.271,0.873-0.521h0.979
	c-0.313,0.95-0.979,1.357-1.89,1.357c-1.273,0-2.059-0.875-2.059-2.124c0-1.209,0.835-2.125,2.059-2.125
	c1.373,0,2.036,1.155,1.958,2.394 M86.97,65.165c-0.1-0.561-0.342-0.857-0.879-0.857c-0.703,0-0.905,0.545-0.923,0.857H86.97z"/>
<path fill="#FFFFFF" d="M88.626,64.821c0.061-1.038,0.991-1.346,1.895-1.346c0.803,0,1.77,0.178,1.77,1.144v2.098
	c0,0.368,0.04,0.734,0.14,0.898h-1.122c-0.041-0.125-0.071-0.256-0.079-0.39c-0.352,0.368-0.866,0.5-1.357,0.5
	c-0.764,0-1.374-0.383-1.374-1.211c0-0.915,0.685-1.13,1.374-1.223c0.679-0.103,1.31-0.08,1.31-0.533
	c0-0.477-0.327-0.544-0.716-0.544c-0.423,0-0.695,0.171-0.734,0.606 M91.183,65.641c-0.187,0.165-0.577,0.171-0.92,0.233
	c-0.344,0.071-0.656,0.188-0.656,0.593c0,0.416,0.319,0.516,0.678,0.516c0.865,0,0.897-0.687,0.897-0.928V65.641z"/>
<polyline fill="#FFFFFF" points="95.315,67.616 94.086,67.616 92.704,63.582 93.864,63.582 94.717,66.335 94.732,66.335 
	95.582,63.582 96.682,63.582 "/>
<path fill="#FFFFFF" d="M97.993,65.868c0.031,0.702,0.373,1.021,0.991,1.021c0.443,0,0.801-0.271,0.873-0.521h0.974
	c-0.312,0.95-0.974,1.357-1.887,1.357c-1.27,0-2.059-0.875-2.059-2.124c0-1.209,0.834-2.125,2.059-2.125
	c1.372,0,2.038,1.155,1.958,2.394 M99.792,65.165c-0.099-0.561-0.343-0.857-0.88-0.857c-0.702,0-0.906,0.545-0.919,0.857H99.792z"/>
<path fill="#FFFFFF" d="M105.002,63.582h0.813v0.741h-0.813v1.998c0,0.372,0.094,0.468,0.471,0.468c0.116,0,0.227-0.009,0.343-0.032
	v0.866c-0.188,0.03-0.43,0.039-0.649,0.039c-0.679,0-1.271-0.156-1.271-0.959v-2.38h-0.671v-0.741h0.671v-1.209h1.106"/>
<path fill="#FFFFFF" d="M106.281,62.046h1.108v2.099h0.022c0.281-0.455,0.766-0.67,1.178-0.67c1.18,0,1.474,0.661,1.474,1.66v2.481
	h-1.104v-2.279c0-0.662-0.197-0.989-0.71-0.989c-0.6,0-0.859,0.335-0.859,1.154v2.116h-1.107"/>
<path fill="#FFFFFF" d="M111.759,65.868c0.028,0.702,0.371,1.021,0.988,1.021c0.442,0,0.803-0.271,0.875-0.521h0.974
	c-0.312,0.95-0.974,1.357-1.889,1.357c-1.271,0-2.06-0.875-2.06-2.124c0-1.209,0.834-2.125,2.06-2.125
	c1.373,0,2.036,1.155,1.959,2.394 M113.559,65.165c-0.102-0.561-0.345-0.857-0.882-0.857c-0.702,0-0.905,0.545-0.918,0.857H113.559z
	"/>
<path fill="#FFFFFF" d="M117.363,62.046h1.106v2.026h0.018c0.274-0.415,0.772-0.598,1.271-0.598c0.804,0,1.67,0.647,1.67,2.12
	c0,1.48-0.866,2.13-1.67,2.13c-0.592,0-1.084-0.18-1.325-0.626h-0.016v0.517h-1.054 M119.376,64.307
	c-0.654,0-0.943,0.618-0.943,1.293c0,0.673,0.289,1.288,0.943,1.288c0.652,0,0.944-0.615,0.944-1.288
	C120.32,64.925,120.029,64.307,119.376,64.307"/>
<path fill="#FFFFFF" d="M125.85,67.616h-1.053v-0.563h-0.025c-0.279,0.453-0.762,0.673-1.23,0.673c-1.178,0-1.475-0.664-1.475-1.664
	v-2.48h1.107v2.278c0,0.663,0.197,0.991,0.711,0.991c0.6,0,0.856-0.335,0.856-1.155v-2.114h1.106"/>
<path fill="#FFFFFF" d="M127.769,62.96h-1.105v-0.913h1.105V62.96z M126.663,63.582h1.105v4.034h-1.105V63.582z"/>
<rect x="128.61" y="62.046" fill="#FFFFFF" width="1.109" height="5.569"/>
<path fill="#FFFFFF" d="M133.406,67.101h-0.016c-0.256,0.435-0.707,0.625-1.224,0.625c-1.215,0-1.811-1.046-1.811-2.163
	c0-1.084,0.601-2.088,1.785-2.088c0.479,0,0.945,0.201,1.204,0.598h-0.008h0.016v-2.026h1.105v5.569h-1.053 M132.438,64.307
	c-0.722,0-0.975,0.625-0.975,1.288c0,0.631,0.288,1.293,0.975,1.293c0.732,0,0.952-0.637,0.952-1.303
	C133.391,64.932,133.157,64.307,132.438,64.307"/>
<path fill="#FFFFFF" d="M136.371,62.96h-1.106v-0.913h1.106V62.96z M135.265,63.582h1.105v4.034h-1.105V63.582z"/>
<path fill="#FFFFFF" d="M137.181,63.582h1.053v0.563h0.023c0.281-0.455,0.765-0.67,1.232-0.67c1.178,0,1.475,0.661,1.475,1.66v2.481
	h-1.104v-2.279c0-0.662-0.197-0.989-0.712-0.989c-0.599,0-0.857,0.335-0.857,1.154v2.116h-1.106"/>
<path fill="#FFFFFF" d="M145.621,67.358c0,0.661-0.233,1.786-2.091,1.786c-0.795,0-1.724-0.376-1.779-1.296h1.101
	c0.103,0.415,0.437,0.554,0.826,0.554c0.617,0,0.896-0.422,0.89-1v-0.531h-0.017c-0.242,0.422-0.726,0.625-1.21,0.625
	c-1.208,0-1.723-0.919-1.723-2.029c0-1.044,0.599-1.994,1.73-1.994c0.529,0,0.935,0.178,1.201,0.647h0.016v-0.539h1.053
	 M144.568,65.546c0-0.655-0.228-1.239-0.943-1.239c-0.626,0-0.896,0.545-0.896,1.146c0,0.579,0.221,1.209,0.896,1.209
	C144.256,66.662,144.568,66.124,144.568,65.546"/>
<path fill="#FFFFFF" d="M79.694,71.202h1.106v2.027h0.016c0.274-0.415,0.773-0.601,1.271-0.601c0.804,0,1.67,0.647,1.67,2.122
	c0,1.482-0.866,2.128-1.67,2.128c-0.592,0-1.084-0.178-1.324-0.622h-0.017v0.516h-1.053 M81.707,73.462
	c-0.654,0-0.943,0.615-0.943,1.294c0,0.67,0.288,1.285,0.943,1.285c0.654,0,0.944-0.615,0.944-1.285
	C82.651,74.077,82.361,73.462,81.707,73.462"/>
<path fill="#FFFFFF" d="M86.385,77.279c-0.241,0.647-0.622,0.912-1.386,0.912c-0.227,0-0.452-0.016-0.68-0.042v-0.912
	c0.211,0.016,0.431,0.048,0.649,0.042c0.383-0.042,0.507-0.439,0.383-0.759l-1.419-3.784h1.186l0.913,2.762h0.015l0.881-2.762h1.144
	"/>
<path fill="#FFFFFF" d="M91.894,72.736h0.812v0.741h-0.812v1.997c0,0.376,0.093,0.47,0.466,0.47c0.119,0,0.227-0.008,0.346-0.031
	v0.866c-0.188,0.032-0.43,0.039-0.649,0.039c-0.68,0-1.273-0.155-1.273-0.957v-2.382h-0.671v-0.741h0.671V71.53h1.108"/>
<path fill="#FFFFFF" d="M93.172,71.202h1.106v2.097h0.026c0.279-0.451,0.763-0.671,1.176-0.671c1.178,0,1.474,0.666,1.474,1.663
	v2.48H95.85v-2.279c0-0.662-0.195-0.991-0.709-0.991c-0.604,0-0.86,0.338-0.86,1.156v2.117h-1.106"/>
<path fill="#FFFFFF" d="M98.646,75.023c0.031,0.701,0.375,1.019,0.991,1.019c0.445,0,0.804-0.271,0.873-0.52h0.979
	c-0.313,0.95-0.979,1.355-1.89,1.355c-1.273,0-2.059-0.872-2.059-2.12c0-1.209,0.834-2.129,2.059-2.129
	c1.373,0,2.037,1.156,1.958,2.396 M100.448,74.321c-0.101-0.563-0.343-0.859-0.879-0.859c-0.703,0-0.906,0.545-0.923,0.859H100.448z
	"/>
<path fill="#FFFFFF" d="M104.254,72.736h1.054v0.562h0.022c0.281-0.451,0.764-0.671,1.233-0.671c1.178,0,1.474,0.666,1.474,1.663
	v2.48h-1.108v-2.279c0-0.662-0.194-0.991-0.709-0.991c-0.598,0-0.856,0.338-0.856,1.156v2.117h-1.106"/>
<path fill="#FFFFFF" d="M109.729,75.023c0.03,0.701,0.375,1.019,0.99,1.019c0.445,0,0.804-0.271,0.873-0.52h0.974
	c-0.31,0.95-0.974,1.355-1.886,1.355c-1.273,0-2.058-0.872-2.058-2.12c0-1.209,0.833-2.129,2.058-2.129
	c1.372,0,2.037,1.156,1.958,2.396 M111.531,74.321c-0.101-0.563-0.343-0.859-0.884-0.859c-0.699,0-0.903,0.545-0.918,0.859H111.531z
	"/>
<path fill="#FFFFFF" d="M113.185,73.977c0.063-1.039,0.988-1.35,1.896-1.35c0.803,0,1.771,0.181,1.771,1.147v2.1
	c0,0.364,0.039,0.731,0.141,0.896h-1.122c-0.039-0.127-0.071-0.257-0.08-0.39c-0.351,0.367-0.864,0.497-1.357,0.497
	c-0.765,0-1.372-0.38-1.372-1.209c0-0.912,0.687-1.131,1.372-1.224c0.679-0.102,1.311-0.078,1.311-0.529
	c0-0.477-0.326-0.549-0.716-0.549c-0.421,0-0.694,0.174-0.732,0.61 M115.742,74.798c-0.187,0.162-0.578,0.171-0.92,0.234
	c-0.343,0.068-0.654,0.188-0.654,0.594c0,0.413,0.318,0.514,0.679,0.514c0.865,0,0.896-0.689,0.896-0.93V74.798z"/>
<path fill="#FFFFFF" d="M117.646,72.736h1.053v0.749h0.016c0.204-0.504,0.75-0.858,1.285-0.858c0.08,0,0.173,0.016,0.243,0.04v1.028
	c-0.103-0.023-0.264-0.039-0.396-0.039c-0.813,0-1.092,0.585-1.092,1.294v1.819h-1.108"/>
<path fill="#FFFFFF" d="M121.391,75.023c0.031,0.701,0.375,1.019,0.99,1.019c0.444,0,0.805-0.271,0.873-0.52h0.976
	c-0.31,0.95-0.976,1.355-1.886,1.355c-1.273,0-2.061-0.872-2.061-2.12c0-1.209,0.835-2.129,2.061-2.129
	c1.372,0,2.033,1.156,1.955,2.396 M123.192,74.321c-0.1-0.563-0.344-0.859-0.882-0.859c-0.701,0-0.903,0.545-0.92,0.859H123.192z"/>
<path fill="#FFFFFF" d="M125.751,75.458c0.008,0.485,0.414,0.68,0.849,0.68c0.32,0,0.725-0.126,0.725-0.515
	c0-0.336-0.458-0.455-1.254-0.624c-0.64-0.141-1.278-0.368-1.278-1.078c0-1.03,0.889-1.295,1.755-1.295
	c0.88,0,1.69,0.299,1.779,1.289h-1.054c-0.029-0.431-0.358-0.549-0.755-0.549c-0.252,0-0.618,0.049-0.618,0.376
	c0,0.397,0.624,0.452,1.255,0.598c0.651,0.148,1.282,0.384,1.282,1.131c0,1.062-0.923,1.404-1.843,1.404
	c-0.934,0-1.847-0.352-1.894-1.42"/>
<path fill="#FFFFFF" d="M130.422,72.736h0.813v0.741h-0.813v1.997c0,0.376,0.093,0.47,0.469,0.47c0.117,0,0.226-0.008,0.345-0.031
	v0.866c-0.188,0.032-0.431,0.039-0.647,0.039c-0.681,0-1.274-0.155-1.274-0.957v-2.382h-0.67v-0.741h0.67V71.53h1.106"/>
<path fill="#FFFFFF" d="M79.647,83.132c0.063-1.039,0.991-1.351,1.895-1.351c0.804,0,1.771,0.181,1.771,1.149v2.097
	c0,0.364,0.039,0.734,0.14,0.896H82.33c-0.039-0.126-0.07-0.258-0.079-0.392c-0.351,0.368-0.865,0.5-1.357,0.5
	c-0.764,0-1.373-0.382-1.373-1.212c0-0.909,0.687-1.126,1.373-1.222c0.679-0.098,1.31-0.077,1.31-0.53
	c0-0.475-0.329-0.547-0.717-0.547c-0.422,0-0.695,0.172-0.734,0.61 M82.207,83.951c-0.186,0.162-0.577,0.173-0.92,0.233
	c-0.342,0.071-0.654,0.188-0.654,0.594c0,0.416,0.319,0.516,0.678,0.516c0.868,0,0.897-0.687,0.897-0.932v-0.411H82.207z"/>
<polyline fill="#FFFFFF" points="86.34,85.924 85.106,85.924 83.726,81.893 84.89,81.893 85.739,84.646 85.754,84.646 
	86.605,81.893 87.704,81.893 "/>
<path fill="#FFFFFF" d="M88.056,83.132c0.061-1.039,0.991-1.351,1.895-1.351c0.803,0,1.771,0.181,1.771,1.149v2.097
	c0,0.364,0.04,0.734,0.141,0.896h-1.124c-0.04-0.126-0.07-0.258-0.079-0.392c-0.352,0.368-0.867,0.5-1.357,0.5
	c-0.764,0-1.374-0.382-1.374-1.212c0-0.909,0.688-1.126,1.374-1.222c0.679-0.098,1.31-0.077,1.31-0.53
	c0-0.475-0.328-0.547-0.716-0.547c-0.422,0-0.695,0.172-0.734,0.61 M90.613,83.951c-0.187,0.162-0.577,0.173-0.92,0.233
	c-0.342,0.071-0.654,0.188-0.654,0.594c0,0.416,0.321,0.516,0.679,0.516c0.866,0,0.896-0.687,0.896-0.932V83.951z"/>
<path fill="#FFFFFF" d="M93.657,81.268h-1.109v-0.913h1.109V81.268z M92.548,81.893h1.109v4.031h-1.109V81.893z"/>
<rect x="94.498" y="80.354" fill="#FFFFFF" width="1.106" height="5.569"/>
<path fill="#FFFFFF" d="M96.37,83.132c0.062-1.039,0.989-1.351,1.895-1.351c0.803,0,1.771,0.181,1.771,1.149v2.097
	c0,0.364,0.04,0.734,0.141,0.896h-1.122c-0.041-0.126-0.071-0.258-0.08-0.392c-0.351,0.368-0.865,0.5-1.357,0.5
	c-0.764,0-1.373-0.382-1.373-1.212c0-0.909,0.687-1.126,1.373-1.222c0.68-0.098,1.312-0.077,1.312-0.53
	c0-0.475-0.328-0.547-0.719-0.547c-0.42,0-0.694,0.172-0.733,0.61 M98.929,83.951c-0.189,0.162-0.578,0.173-0.921,0.233
	c-0.344,0.071-0.654,0.188-0.654,0.594c0,0.416,0.319,0.516,0.678,0.516c0.865,0,0.899-0.687,0.899-0.932v-0.411H98.929z"/>
<path fill="#FFFFFF" d="M100.83,80.354h1.107v2.027h0.016c0.273-0.412,0.771-0.601,1.272-0.601c0.802,0,1.67,0.651,1.67,2.122
	c0,1.482-0.869,2.128-1.67,2.128c-0.594,0-1.084-0.181-1.328-0.623h-0.016v0.514h-1.052 M102.844,82.618
	c-0.657,0-0.943,0.612-0.943,1.293c0,0.671,0.286,1.286,0.943,1.286c0.655,0,0.941-0.615,0.941-1.286
	C103.785,83.23,103.499,82.618,102.844,82.618"/>
<rect x="105.566" y="80.354" fill="#FFFFFF" width="1.105" height="5.569"/>
<path fill="#FFFFFF" d="M108.397,84.177c0.029,0.699,0.372,1.023,0.99,1.023c0.443,0,0.802-0.273,0.873-0.525h0.976
	c-0.312,0.954-0.976,1.357-1.888,1.357c-1.273,0-2.061-0.872-2.061-2.121c0-1.21,0.834-2.128,2.061-2.128
	c1.371,0,2.036,1.155,1.956,2.396 M110.197,83.476c-0.101-0.563-0.342-0.857-0.879-0.857c-0.704,0-0.906,0.543-0.921,0.857H110.197z
	"/>
<path fill="#FFFFFF" d="M114.917,84.177c0.03,0.699,0.375,1.023,0.989,1.023c0.444,0,0.804-0.273,0.872-0.525h0.976
	c-0.31,0.954-0.976,1.357-1.887,1.357c-1.272,0-2.059-0.872-2.059-2.121c0-1.21,0.835-2.128,2.059-2.128
	c1.373,0,2.035,1.155,1.957,2.396 M116.715,83.476c-0.1-0.563-0.339-0.857-0.88-0.857c-0.702,0-0.903,0.543-0.918,0.857H116.715z"/>
<polyline fill="#FFFFFF" points="119.446,83.8 118.123,81.893 119.383,81.893 120.095,82.944 120.796,81.893 122.021,81.893 
	120.695,83.779 122.187,85.924 120.92,85.924 120.079,84.653 119.236,85.924 117.998,85.924 "/>
<path fill="#FFFFFF" d="M123.683,81.268h-1.108v-0.913h1.108V81.268z M122.574,81.893h1.108v4.031h-1.108V81.893z"/>
<path fill="#FFFFFF" d="M125.897,81.893h0.813v0.74h-0.813v1.994c0,0.377,0.093,0.47,0.468,0.47c0.117,0,0.229-0.008,0.346-0.029
	v0.864c-0.188,0.033-0.43,0.038-0.649,0.038c-0.679,0-1.272-0.152-1.272-0.96v-2.376h-0.671v-0.739h0.671v-1.212h1.106"/>
<path fill="#FFFFFF" d="M79.812,96.59h3.003c0.998,0,1.628,0.695,1.628,1.537c0,0.655-0.265,1.146-0.88,1.395v0.02
	c0.601,0.152,0.772,0.737,0.812,1.302c0.023,0.35,0.015,1.006,0.234,1.314h-1.225c-0.146-0.349-0.131-0.887-0.196-1.332
	c-0.084-0.586-0.309-0.841-0.928-0.841h-1.225v2.175h-1.224 M81.035,99.11h1.343c0.545,0,0.843-0.234,0.843-0.795
	c0-0.54-0.296-0.774-0.843-0.774h-1.343V99.11z"/>
<path fill="#FFFFFF" d="M86.176,100.412c0.03,0.703,0.373,1.021,0.989,1.021c0.444,0,0.803-0.271,0.874-0.52h0.974
	c-0.312,0.95-0.974,1.355-1.887,1.355c-1.272,0-2.058-0.874-2.058-2.122c0-1.208,0.833-2.127,2.058-2.127
	c1.373,0,2.036,1.157,1.957,2.393 M87.977,99.71c-0.101-0.563-0.342-0.858-0.88-0.858c-0.703,0-0.904,0.545-0.919,0.858H87.977z"/>
<path fill="#FFFFFF" d="M89.676,98.127h1.054v0.515h0.016c0.264-0.427,0.703-0.623,1.201-0.623c1.265,0,1.832,1.023,1.832,2.171
	c0,1.073-0.593,2.079-1.77,2.079c-0.484,0-0.943-0.211-1.207-0.605h-0.017v1.919h-1.109 M92.673,100.155
	c0-0.642-0.256-1.304-0.966-1.304c-0.725,0-0.959,0.651-0.959,1.304c0,0.654,0.25,1.277,0.966,1.277
	C92.439,101.433,92.673,100.812,92.673,100.155"/>
<path fill="#FFFFFF" d="M96.337,98.019c1.273,0,2.091,0.843,2.091,2.126c0,1.282-0.818,2.123-2.091,2.123
	c-1.262,0-2.082-0.841-2.082-2.123C94.257,98.861,95.076,98.019,96.337,98.019 M96.337,101.433c0.757,0,0.984-0.646,0.984-1.286
	c0-0.644-0.227-1.293-0.984-1.293c-0.748,0-0.974,0.649-0.974,1.293C95.363,100.786,95.589,101.433,96.337,101.433"/>
<path fill="#FFFFFF" d="M99.084,98.127h1.051v0.749h0.017c0.203-0.508,0.75-0.857,1.288-0.857c0.078,0,0.172,0.016,0.241,0.037
	v1.031c-0.101-0.024-0.266-0.037-0.397-0.037c-0.812,0-1.093,0.586-1.093,1.291v1.816h-1.106"/>
<path fill="#FFFFFF" d="M103.459,98.127h0.813v0.739h-0.813v1.999c0,0.372,0.093,0.467,0.47,0.467c0.116,0,0.225-0.006,0.344-0.031
	v0.868c-0.189,0.032-0.431,0.039-0.649,0.039c-0.68,0-1.271-0.155-1.271-0.96v-2.38h-0.671v-0.739h0.671v-1.211h1.106"/>
<path fill="#FFFFFF" d="M108.248,98.127h0.812v0.739h-0.812v1.999c0,0.372,0.094,0.467,0.468,0.467c0.117,0,0.228-0.006,0.344-0.031
	v0.868c-0.187,0.032-0.429,0.039-0.646,0.039c-0.68,0-1.272-0.155-1.272-0.96v-2.38h-0.67v-0.739h0.67v-1.211h1.105"/>
<path fill="#FFFFFF" d="M111.484,98.019c1.273,0,2.091,0.843,2.091,2.126c0,1.282-0.82,2.123-2.091,2.123
	c-1.262,0-2.08-0.841-2.08-2.123C109.404,98.861,110.223,98.019,111.484,98.019 M111.484,101.433c0.757,0,0.984-0.646,0.984-1.286
	c0-0.644-0.228-1.293-0.984-1.293c-0.748,0-0.975,0.649-0.975,1.293C110.51,100.786,110.736,101.433,111.484,101.433"/>
<path fill="#FFFFFF" d="M116.336,98.127h1.053v0.515h0.017c0.264-0.427,0.7-0.623,1.2-0.623c1.264,0,1.834,1.023,1.834,2.171
	c0,1.073-0.593,2.079-1.772,2.079c-0.48,0-0.942-0.211-1.21-0.605h-0.013v1.919h-1.108 M119.333,100.155
	c0-0.642-0.256-1.304-0.968-1.304c-0.728,0-0.96,0.651-0.96,1.304c0,0.654,0.248,1.277,0.968,1.277
	C119.098,101.433,119.333,100.812,119.333,100.155"/>
<path fill="#FFFFFF" d="M121.951,100.412c0.031,0.703,0.374,1.021,0.99,1.021c0.445,0,0.804-0.271,0.873-0.52h0.978
	c-0.312,0.95-0.978,1.355-1.889,1.355c-1.273,0-2.062-0.874-2.062-2.122c0-1.208,0.835-2.127,2.062-2.127
	c1.374,0,2.035,1.157,1.957,2.393 M123.754,99.71c-0.102-0.563-0.345-0.858-0.881-0.858c-0.703,0-0.904,0.545-0.922,0.858H123.754z"
	/>
<path fill="#FFFFFF" d="M125.454,98.127h1.05v0.749h0.019c0.201-0.508,0.748-0.857,1.287-0.857c0.078,0,0.171,0.016,0.24,0.037
	v1.031c-0.102-0.024-0.266-0.037-0.396-0.037c-0.812,0-1.094,0.586-1.094,1.291v1.816h-1.105"/>
<path fill="#FFFFFF" d="M129.283,100.85c0.007,0.479,0.414,0.68,0.85,0.68c0.32,0,0.724-0.126,0.724-0.515
	c0-0.336-0.459-0.454-1.254-0.625c-0.64-0.142-1.278-0.367-1.278-1.078c0-1.028,0.889-1.293,1.754-1.293
	c0.882,0,1.692,0.297,1.78,1.288h-1.055c-0.029-0.431-0.358-0.547-0.756-0.547c-0.25,0-0.615,0.045-0.615,0.372
	c0,0.397,0.623,0.454,1.257,0.602c0.648,0.148,1.277,0.38,1.277,1.129c0,1.063-0.921,1.405-1.842,1.405
	c-0.935,0-1.847-0.352-1.895-1.42"/>
<path fill="#FFFFFF" d="M134.509,98.019c1.272,0,2.092,0.843,2.092,2.126c0,1.282-0.819,2.123-2.092,2.123
	c-1.264,0-2.08-0.841-2.08-2.123C132.429,98.861,133.245,98.019,134.509,98.019 M134.509,101.433c0.759,0,0.983-0.646,0.983-1.286
	c0-0.644-0.225-1.293-0.983-1.293c-0.747,0-0.974,0.649-0.974,1.293C133.535,100.786,133.762,101.433,134.509,101.433"/>
<path fill="#FFFFFF" d="M137.254,98.127h1.054v0.56h0.023c0.281-0.451,0.764-0.668,1.23-0.668c1.18,0,1.474,0.662,1.474,1.662v2.477
	h-1.104v-2.274c0-0.664-0.194-0.992-0.709-0.992c-0.601,0-0.858,0.339-0.858,1.157v2.111h-1.108"/>
<path fill="#FFFFFF" d="M145.062,97.504h-1.108V96.59h1.108V97.504z M143.953,98.127h1.108v4.03h-1.108V98.127z"/>
<path fill="#FFFFFF" d="M145.872,98.127h1.054v0.56h0.022c0.28-0.451,0.765-0.668,1.233-0.668c1.178,0,1.474,0.662,1.474,1.662
	v2.477h-1.105v-2.274c0-0.664-0.197-0.992-0.711-0.992c-0.599,0-0.858,0.339-0.858,1.157v2.111h-1.106"/>
<path fill="#FFFFFF" d="M82.441,108.7c-0.069-0.451-0.36-0.691-0.82-0.691c-0.709,0-0.944,0.716-0.944,1.308
	c0,0.578,0.227,1.274,0.921,1.274c0.514,0,0.809-0.329,0.879-0.819h1.07c-0.14,1.066-0.881,1.654-1.942,1.654
	c-1.217,0-2.037-0.86-2.037-2.067c0-1.257,0.751-2.185,2.061-2.185c0.951,0,1.824,0.5,1.896,1.528"/>
<path fill="#FFFFFF" d="M84.109,105.742h1.108v2.101h0.023c0.281-0.451,0.764-0.67,1.178-0.67c1.177,0,1.475,0.664,1.475,1.66v2.481
	h-1.109v-2.277c0-0.665-0.195-0.991-0.709-0.991c-0.601,0-0.858,0.337-0.858,1.154v2.115h-1.108"/>
<path fill="#FFFFFF" d="M88.626,108.523c0.061-1.039,0.991-1.351,1.895-1.351c0.803,0,1.77,0.18,1.77,1.145v2.101
	c0,0.369,0.04,0.73,0.14,0.896h-1.122c-0.041-0.126-0.071-0.258-0.079-0.388c-0.352,0.365-0.866,0.499-1.357,0.499
	c-0.764,0-1.374-0.385-1.374-1.209c0-0.914,0.685-1.135,1.374-1.225c0.679-0.106,1.31-0.079,1.31-0.533
	c0-0.474-0.327-0.547-0.716-0.547c-0.423,0-0.695,0.175-0.734,0.611 M91.183,109.342c-0.187,0.165-0.577,0.173-0.92,0.233
	c-0.344,0.069-0.656,0.188-0.656,0.594c0,0.416,0.319,0.515,0.678,0.515c0.865,0,0.897-0.686,0.897-0.928V109.342z"/>
<path fill="#FFFFFF" d="M93.086,107.28h1.052v0.752h0.015c0.202-0.509,0.75-0.859,1.286-0.859c0.08,0,0.173,0.017,0.244,0.038v1.028
	c-0.101-0.021-0.266-0.036-0.397-0.036c-0.813,0-1.092,0.585-1.092,1.294v1.817h-1.106"/>
<path fill="#FFFFFF" d="M99.934,111.055c0,0.665-0.234,1.786-2.091,1.786c-0.795,0-1.724-0.371-1.778-1.293h1.099
	c0.102,0.413,0.437,0.554,0.827,0.554c0.618,0,0.897-0.422,0.889-0.999v-0.533h-0.015c-0.243,0.422-0.728,0.627-1.209,0.627
	c-1.209,0-1.724-0.921-1.724-2.028c0-1.045,0.6-1.997,1.73-1.997c0.529,0,0.936,0.181,1.203,0.649h0.015v-0.54h1.054 M98.88,109.247
	c0-0.655-0.227-1.238-0.944-1.238c-0.623,0-0.897,0.543-0.897,1.146c0,0.575,0.22,1.208,0.897,1.208
	C98.569,110.362,98.88,109.826,98.88,109.247"/>
<path fill="#FFFFFF" d="M101.673,109.567c0.03,0.704,0.372,1.023,0.989,1.023c0.445,0,0.805-0.273,0.874-0.525h0.978
	c-0.312,0.95-0.978,1.36-1.89,1.36c-1.273,0-2.06-0.875-2.06-2.123c0-1.211,0.835-2.129,2.06-2.129c1.373,0,2.036,1.155,1.958,2.394
	 M103.475,108.866c-0.101-0.563-0.342-0.857-0.881-0.857c-0.701,0-0.904,0.543-0.921,0.857H103.475z"/>
<path fill="#FFFFFF" d="M109.237,107.173c1.274,0,2.092,0.841,2.092,2.13c0,1.28-0.819,2.121-2.092,2.121
	c-1.262,0-2.08-0.841-2.08-2.121C107.154,108.014,107.976,107.173,109.237,107.173 M109.237,110.591
	c0.759,0,0.985-0.648,0.985-1.288c0-0.647-0.227-1.293-0.985-1.293c-0.747,0-0.974,0.647-0.974,1.293
	C108.264,109.942,108.49,110.591,109.237,110.591"/>
<path fill="#FFFFFF" d="M112.227,108.023h-0.664v-0.743h0.664v-0.313c0-0.706,0.443-1.222,1.349-1.222
	c0.195,0,0.396,0.026,0.585,0.032v0.826c-0.134-0.019-0.266-0.023-0.406-0.023c-0.297,0-0.421,0.122-0.421,0.459v0.241h0.764v0.743
	h-0.764v3.291h-1.106"/>
<path fill="#FFFFFF" d="M118.262,105.742h1.258l2.081,5.57h-1.272l-0.422-1.239h-2.082l-0.436,1.239h-1.241 M118.146,109.163h1.443
	l-0.703-2.045h-0.019L118.146,109.163z"/>
<path fill="#FFFFFF" d="M122.762,110.006c0.008,0.481,0.414,0.676,0.851,0.676c0.318,0,0.727-0.126,0.727-0.514
	c0-0.334-0.463-0.453-1.258-0.626c-0.64-0.142-1.279-0.364-1.279-1.073c0-1.03,0.891-1.296,1.758-1.296
	c0.878,0,1.69,0.294,1.776,1.286h-1.051c-0.031-0.427-0.361-0.547-0.758-0.547c-0.252,0-0.616,0.048-0.616,0.375
	c0,0.397,0.624,0.453,1.255,0.598c0.649,0.151,1.28,0.383,1.28,1.136c0,1.058-0.922,1.403-1.842,1.403
	c-0.934,0-1.848-0.354-1.895-1.419"/>
<path fill="#FFFFFF" d="M126.889,110.006c0.008,0.481,0.413,0.676,0.851,0.676c0.319,0,0.724-0.126,0.724-0.514
	c0-0.334-0.46-0.453-1.257-0.626c-0.64-0.142-1.277-0.364-1.277-1.073c0-1.03,0.888-1.296,1.755-1.296
	c0.883,0,1.693,0.294,1.78,1.286h-1.054c-0.029-0.427-0.36-0.547-0.757-0.547c-0.251,0-0.616,0.048-0.616,0.375
	c0,0.397,0.623,0.453,1.256,0.598c0.648,0.151,1.279,0.383,1.279,1.136c0,1.058-0.921,1.403-1.841,1.403
	c-0.935,0-1.848-0.354-1.894-1.419"/>
<path fill="#FFFFFF" d="M131.071,109.567c0.03,0.704,0.371,1.023,0.99,1.023c0.443,0,0.802-0.273,0.873-0.525h0.976
	c-0.312,0.95-0.976,1.36-1.89,1.36c-1.271,0-2.059-0.875-2.059-2.123c0-1.211,0.834-2.129,2.059-2.129
	c1.373,0,2.038,1.155,1.958,2.394 M132.871,108.866c-0.101-0.563-0.344-0.857-0.88-0.857c-0.703,0-0.907,0.543-0.92,0.857H132.871z"
	/>
<path fill="#FFFFFF" d="M134.604,107.28h1.044v0.548h0.017c0.29-0.417,0.707-0.655,1.229-0.655c0.507,0,0.96,0.186,1.18,0.67
	c0.233-0.354,0.653-0.67,1.217-0.67c0.857,0,1.474,0.399,1.474,1.443v2.696h-1.108v-2.286c0-0.538-0.045-0.983-0.678-0.983
	c-0.625,0-0.742,0.515-0.742,1.023v2.245h-1.105v-2.263c0-0.466,0.03-1.006-0.67-1.006c-0.22,0-0.751,0.141-0.751,0.93v2.34h-1.104"
	/>
<path fill="#FFFFFF" d="M141.576,105.742h1.107v2.03h0.015c0.274-0.416,0.771-0.6,1.273-0.6c0.802,0,1.669,0.65,1.669,2.121
	c0,1.482-0.868,2.13-1.669,2.13c-0.595,0-1.084-0.18-1.328-0.625h-0.015v0.514h-1.053 M143.589,108.009
	c-0.657,0-0.945,0.612-0.945,1.294c0,0.67,0.288,1.285,0.945,1.285c0.653,0,0.939-0.615,0.939-1.285
	C144.531,108.621,144.245,108.009,143.589,108.009"/>
<rect x="146.31" y="105.742" fill="#FFFFFF" width="1.105" height="5.57"/>
<path fill="#FFFFFF" d="M150.217,111.823c-0.242,0.646-0.624,0.912-1.386,0.912c-0.226,0-0.454-0.017-0.679-0.04v-0.915
	c0.209,0.019,0.427,0.048,0.646,0.043c0.382-0.043,0.506-0.44,0.382-0.758l-1.418-3.785h1.185l0.912,2.762h0.019l0.877-2.762h1.147"
	/>
<path fill="#FFFFFF" d="M79.694,116.437h1.053v0.515h0.017c0.264-0.429,0.701-0.626,1.199-0.626c1.264,0,1.833,1.023,1.833,2.172
	c0,1.076-0.593,2.081-1.771,2.081c-0.483,0-0.942-0.209-1.208-0.606h-0.017v1.919h-1.106 M82.691,118.463
	c0-0.636-0.256-1.302-0.966-1.302c-0.728,0-0.959,0.647-0.959,1.302c0,0.656,0.25,1.277,0.966,1.277
	C82.457,119.742,82.691,119.12,82.691,118.463"/>
<path fill="#FFFFFF" d="M86.355,116.325c1.273,0,2.089,0.842,2.089,2.13c0,1.28-0.817,2.122-2.089,2.122
	c-1.263,0-2.083-0.842-2.083-2.122C84.273,117.167,85.093,116.325,86.355,116.325 M86.355,119.742c0.755,0,0.983-0.646,0.983-1.287
	c0-0.646-0.227-1.294-0.983-1.294c-0.749,0-0.974,0.648-0.974,1.294C85.381,119.097,85.607,119.742,86.355,119.742"/>
<path fill="#FFFFFF" d="M90.24,115.81h-1.106v-0.912h1.106V115.81z M89.132,116.437h1.106v4.034h-1.106V116.437z"/>
<path fill="#FFFFFF" d="M91.051,116.437h1.051V117h0.027c0.279-0.456,0.764-0.675,1.232-0.675c1.175,0,1.474,0.664,1.474,1.663
	v2.482h-1.107v-2.28c0-0.662-0.195-0.989-0.709-0.989c-0.601,0-0.859,0.336-0.859,1.153v2.116h-1.106"/>
<path fill="#FFFFFF" d="M97.017,116.437h0.813v0.741h-0.813v1.997c0,0.372,0.093,0.471,0.469,0.471c0.116,0,0.227-0.011,0.344-0.033
	v0.865c-0.188,0.03-0.43,0.04-0.65,0.04c-0.679,0-1.269-0.156-1.269-0.96v-2.379h-0.672v-0.741h0.672v-1.208h1.107"/>
<path fill="#FFFFFF" d="M79.777,132.023h2.252c1.352,0,2.368,0.849,2.368,2.582c0,1.513-0.774,2.638-2.368,2.638h-2.252
	 M80.926,136.278h1.024c0.666,0,1.302-0.411,1.302-1.565c0-1.051-0.367-1.725-1.506-1.725h-0.82V136.278z"/>
<path fill="#FFFFFF" d="M86.864,133.359c1.192,0,1.959,0.792,1.959,1.999c0,1.195-0.767,1.988-1.959,1.988
	c-1.184,0-1.953-0.793-1.953-1.988C84.91,134.151,85.68,133.359,86.864,133.359 M86.864,136.562c0.708,0,0.92-0.605,0.92-1.206
	c0-0.606-0.212-1.213-0.92-1.213c-0.702,0-0.916,0.606-0.916,1.213C85.948,135.956,86.162,136.562,86.864,136.562"/>
<path fill="#FFFFFF" d="M91.412,133.462h0.987v0.526h0.022c0.263-0.425,0.718-0.629,1.155-0.629c1.107,0,1.385,0.623,1.385,1.559
	v2.325h-1.039v-2.136c0-0.622-0.184-0.932-0.668-0.932c-0.562,0-0.803,0.317-0.803,1.085v1.982h-1.039"/>
<path fill="#FFFFFF" d="M97.524,133.359c1.192,0,1.96,0.792,1.96,1.999c0,1.195-0.768,1.988-1.96,1.988
	c-1.185,0-1.953-0.793-1.953-1.988C95.57,134.151,96.34,133.359,97.524,133.359 M97.524,136.562c0.71,0,0.922-0.605,0.922-1.206
	c0-0.606-0.211-1.213-0.922-1.213c-0.703,0-0.912,0.606-0.912,1.213C96.611,135.956,96.822,136.562,97.524,136.562"/>
<path fill="#FFFFFF" d="M101.414,133.462h0.762v0.695h-0.762v1.87c0,0.354,0.089,0.44,0.438,0.44c0.109,0,0.212-0.007,0.321-0.028
	v0.811c-0.175,0.027-0.4,0.038-0.607,0.038c-0.634,0-1.19-0.147-1.19-0.898v-2.233h-0.631v-0.695h0.631v-1.131h1.038"/>
<path fill="#FFFFFF" d="M105.392,136.016c0.008,0.452,0.388,0.635,0.801,0.635c0.298,0,0.678-0.116,0.678-0.483
	c0-0.312-0.431-0.422-1.177-0.583c-0.6-0.134-1.2-0.342-1.2-1.008c0-0.967,0.832-1.217,1.646-1.217c0.826,0,1.585,0.28,1.668,1.206
	h-0.989c-0.027-0.402-0.337-0.511-0.706-0.511c-0.236,0-0.579,0.042-0.579,0.353c0,0.372,0.584,0.424,1.177,0.562
	c0.606,0.141,1.2,0.359,1.2,1.059c0,0.996-0.866,1.319-1.726,1.319c-0.878,0-1.733-0.327-1.778-1.329"/>
<path fill="#FFFFFF" d="M109.773,133.462h0.761v0.695h-0.761v1.87c0,0.354,0.087,0.44,0.437,0.44c0.109,0,0.213-0.007,0.324-0.028
	v0.811c-0.18,0.027-0.406,0.038-0.61,0.038c-0.633,0-1.189-0.147-1.189-0.898v-2.233h-0.631v-0.695h0.631v-1.131h1.039"/>
<path fill="#FFFFFF" d="M112.808,133.359c1.193,0,1.959,0.792,1.959,1.999c0,1.195-0.766,1.988-1.959,1.988
	c-1.185,0-1.953-0.793-1.953-1.988C110.854,134.151,111.623,133.359,112.808,133.359 M112.808,136.562c0.71,0,0.92-0.605,0.92-1.206
	c0-0.606-0.209-1.213-0.92-1.213c-0.703,0-0.914,0.606-0.914,1.213C111.894,135.956,112.104,136.562,112.808,136.562"/>
<path fill="#FFFFFF" d="M115.381,133.462h0.987v0.483h0.016c0.249-0.402,0.657-0.587,1.124-0.587c1.188,0,1.72,0.96,1.72,2.033
	c0,1.011-0.555,1.952-1.659,1.952c-0.453,0-0.887-0.196-1.134-0.57h-0.017v1.8h-1.037 M118.187,135.363
	c0-0.598-0.239-1.218-0.904-1.218c-0.681,0-0.901,0.605-0.901,1.218c0,0.615,0.233,1.201,0.907,1.201
	C117.969,136.562,118.187,135.979,118.187,135.363"/>
<path fill="#FFFFFF" d="M123.081,133.462h0.762v0.695h-0.762v1.87c0,0.354,0.086,0.44,0.438,0.44c0.109,0,0.212-0.007,0.32-0.028
	v0.811c-0.175,0.027-0.4,0.038-0.605,0.038c-0.635,0-1.191-0.147-1.191-0.898v-2.233h-0.631v-0.695h0.631v-1.131h1.038"/>
<path fill="#FFFFFF" d="M126.114,133.359c1.193,0,1.959,0.792,1.959,1.999c0,1.195-0.766,1.988-1.959,1.988
	c-1.184,0-1.951-0.793-1.951-1.988C124.163,134.151,124.931,133.359,126.114,133.359 M126.114,136.562
	c0.708,0,0.923-0.605,0.923-1.206c0-0.606-0.212-1.213-0.923-1.213c-0.702,0-0.914,0.606-0.914,1.213
	C125.2,135.956,125.412,136.562,126.114,136.562"/>
<path fill="#FFFFFF" d="M133.234,134.797c-0.066-0.429-0.334-0.651-0.767-0.651c-0.662,0-0.883,0.672-0.883,1.227
	c0,0.539,0.213,1.192,0.863,1.192c0.481,0,0.76-0.308,0.825-0.768h1.002c-0.134,1-0.826,1.55-1.822,1.55
	c-1.141,0-1.908-0.806-1.908-1.936c0-1.18,0.704-2.05,1.934-2.05c0.89,0,1.71,0.471,1.773,1.436"/>
<path fill="#FFFFFF" d="M136.637,133.359c1.192,0,1.957,0.792,1.957,1.999c0,1.195-0.765,1.988-1.957,1.988
	c-1.186,0-1.953-0.793-1.953-1.988C134.684,134.151,135.451,133.359,136.637,133.359 M136.637,136.562
	c0.706,0,0.921-0.605,0.921-1.206c0-0.606-0.212-1.213-0.921-1.213c-0.704,0-0.916,0.606-0.916,1.213
	C135.721,135.956,135.936,136.562,136.637,136.562"/>
<rect x="139.239" y="132.023" fill="#FFFFFF" width="1.038" height="5.221"/>
<rect x="141.066" y="132.023" fill="#FFFFFF" width="1.039" height="5.221"/>
<path fill="#FFFFFF" d="M143.723,135.606c0.029,0.658,0.35,0.955,0.928,0.955c0.42,0,0.756-0.254,0.82-0.489h0.913
	c-0.293,0.894-0.913,1.274-1.769,1.274c-1.193,0-1.93-0.819-1.93-1.988c0-1.135,0.78-1.999,1.93-1.999
	c1.286,0,1.906,1.083,1.835,2.247 M145.411,134.945c-0.093-0.526-0.32-0.801-0.827-0.801c-0.656,0-0.848,0.512-0.861,0.801H145.411z
	"/>
<path fill="#FFFFFF" d="M149.579,134.797c-0.067-0.429-0.336-0.651-0.769-0.651c-0.664,0-0.884,0.672-0.884,1.227
	c0,0.539,0.212,1.192,0.864,1.192c0.479,0,0.761-0.308,0.824-0.768h1.002c-0.133,1-0.827,1.55-1.821,1.55
	c-1.14,0-1.908-0.806-1.908-1.936c0-1.18,0.702-2.05,1.933-2.05c0.891,0,1.709,0.471,1.775,1.436"/>
<path fill="#FFFFFF" d="M152.459,133.462h0.761v0.695h-0.761v1.87c0,0.354,0.087,0.44,0.44,0.44c0.108,0,0.211-0.007,0.319-0.028
	v0.811c-0.175,0.027-0.402,0.038-0.605,0.038c-0.638,0-1.193-0.147-1.193-0.898v-2.233h-0.628v-0.695h0.628v-1.131h1.039"/>
<path fill="#FFFFFF" d="M79.669,140.718h0.986v0.482h0.015c0.249-0.402,0.657-0.586,1.126-0.586c1.184,0,1.72,0.96,1.72,2.033
	c0,1.008-0.557,1.952-1.661,1.952c-0.452,0-0.886-0.197-1.133-0.568h-0.015v1.797h-1.038 M82.475,142.618
	c0-0.599-0.239-1.218-0.905-1.218c-0.68,0-0.9,0.604-0.9,1.218c0,0.612,0.234,1.201,0.905,1.201
	C82.256,143.819,82.475,143.23,82.475,142.618"/>
<path fill="#FFFFFF" d="M84.934,142.862c0.029,0.659,0.35,0.957,0.929,0.957c0.417,0,0.752-0.255,0.818-0.49h0.915
	c-0.292,0.894-0.915,1.273-1.768,1.273c-1.193,0-1.933-0.82-1.933-1.989c0-1.135,0.783-1.999,1.933-1.999
	c1.284,0,1.906,1.085,1.835,2.248 M86.623,142.2c-0.097-0.526-0.322-0.8-0.825-0.8c-0.659,0-0.848,0.513-0.862,0.8H86.623z"/>
<path fill="#FFFFFF" d="M88.216,140.718h0.987v0.7h0.014c0.191-0.472,0.703-0.804,1.208-0.804c0.072,0,0.163,0.017,0.227,0.037
	v0.965c-0.096-0.021-0.25-0.034-0.373-0.034c-0.761,0-1.023,0.546-1.023,1.216v1.701h-1.039"/>
<path fill="#FFFFFF" d="M91.807,143.268c0.005,0.456,0.387,0.64,0.795,0.64c0.3,0,0.68-0.117,0.68-0.484
	c0-0.312-0.431-0.423-1.177-0.584c-0.599-0.133-1.198-0.342-1.198-1.008c0-0.965,0.834-1.217,1.642-1.217
	c0.827,0,1.588,0.281,1.668,1.209h-0.986c-0.03-0.405-0.335-0.512-0.708-0.512c-0.236,0-0.58,0.04-0.58,0.352
	c0,0.372,0.585,0.423,1.179,0.563c0.607,0.138,1.199,0.357,1.199,1.058c0,0.995-0.864,1.318-1.726,1.318
	c-0.878,0-1.733-0.329-1.778-1.332"/>
<path fill="#FFFFFF" d="M96.705,140.614c1.193,0,1.961,0.793,1.961,1.999c0,1.198-0.768,1.989-1.961,1.989
	c-1.183,0-1.952-0.791-1.952-1.989C94.751,141.407,95.521,140.614,96.705,140.614 M96.705,143.819c0.71,0,0.92-0.608,0.92-1.209
	c0-0.605-0.21-1.211-0.92-1.211c-0.703,0-0.915,0.604-0.915,1.211C95.79,143.211,96.002,143.819,96.705,143.819"/>
<path fill="#FFFFFF" d="M99.278,140.718h0.987v0.527h0.023c0.262-0.424,0.717-0.631,1.155-0.631c1.104,0,1.383,0.623,1.383,1.559
	v2.325h-1.039v-2.134c0-0.624-0.183-0.931-0.665-0.931c-0.562,0-0.805,0.315-0.805,1.083v1.981h-1.037"/>
<path fill="#FFFFFF" d="M103.512,141.879c0.059-0.973,0.931-1.265,1.779-1.265c0.754,0,1.66,0.167,1.66,1.074v1.967
	c0,0.343,0.033,0.688,0.132,0.841h-1.056c-0.034-0.116-0.066-0.239-0.071-0.366c-0.329,0.347-0.812,0.47-1.272,0.47
	c-0.717,0-1.288-0.358-1.288-1.134c0-0.855,0.645-1.06,1.288-1.149c0.635-0.093,1.228-0.073,1.228-0.496
	c0-0.445-0.308-0.511-0.674-0.511c-0.395,0-0.65,0.161-0.687,0.566 M105.911,142.65c-0.178,0.151-0.542,0.16-0.865,0.218
	c-0.319,0.065-0.614,0.175-0.614,0.554c0,0.389,0.3,0.482,0.637,0.482c0.812,0,0.843-0.643,0.843-0.869V142.65z"/>
<rect x="107.724" y="139.28" fill="#FFFFFF" width="1.038" height="5.218"/>
<path fill="#FFFFFF" d="M111.499,139.28h1.039v1.896h0.013c0.257-0.387,0.724-0.562,1.191-0.562c0.754,0,1.565,0.607,1.565,1.991
	c0,1.386-0.813,1.996-1.565,1.996c-0.555,0-1.014-0.169-1.243-0.586h-0.013v0.48h-0.987 M113.383,141.4
	c-0.613,0-0.885,0.579-0.885,1.213c0,0.63,0.271,1.207,0.885,1.207c0.615,0,0.886-0.577,0.886-1.207
	C114.269,141.979,113.998,141.4,113.383,141.4"/>
<path fill="#FFFFFF" d="M116.763,142.862c0.028,0.659,0.35,0.957,0.929,0.957c0.418,0,0.753-0.255,0.821-0.49h0.911
	c-0.291,0.894-0.911,1.273-1.77,1.273c-1.192,0-1.931-0.82-1.931-1.989c0-1.135,0.785-1.999,1.931-1.999
	c1.289,0,1.907,1.085,1.836,2.248 M118.451,142.2c-0.096-0.526-0.32-0.8-0.827-0.8c-0.655,0-0.848,0.513-0.861,0.8H118.451z"/>
<rect x="120.073" y="139.28" fill="#FFFFFF" width="1.039" height="5.218"/>
<path fill="#FFFFFF" d="M123.71,140.614c1.19,0,1.958,0.793,1.958,1.999c0,1.198-0.768,1.989-1.958,1.989
	c-1.188,0-1.953-0.791-1.953-1.989C121.754,141.407,122.522,140.614,123.71,140.614 M123.71,143.819c0.708,0,0.92-0.608,0.92-1.209
	c0-0.605-0.211-1.211-0.92-1.211c-0.703,0-0.915,0.604-0.915,1.211C122.795,143.211,123.007,143.819,123.71,143.819"/>
<path fill="#FFFFFF" d="M126.283,140.718h0.985v0.527h0.022c0.266-0.424,0.716-0.631,1.157-0.631c1.104,0,1.383,0.623,1.383,1.559
	v2.325h-1.039v-2.134c0-0.624-0.184-0.931-0.666-0.931c-0.562,0-0.804,0.315-0.804,1.083v1.981h-1.038"/>
<path fill="#FFFFFF" d="M134.193,144.258c0,0.619-0.22,1.674-1.959,1.674c-0.747,0-1.616-0.351-1.667-1.215h1.03
	c0.094,0.388,0.409,0.521,0.775,0.521c0.577,0,0.84-0.397,0.832-0.938v-0.495h-0.014c-0.228,0.397-0.681,0.584-1.136,0.584
	c-1.133,0-1.612-0.861-1.612-1.899c0-0.98,0.562-1.874,1.62-1.874c0.499,0,0.879,0.17,1.128,0.608h0.014v-0.505h0.988
	 M133.206,142.562c0-0.616-0.211-1.161-0.884-1.161c-0.583,0-0.84,0.513-0.84,1.074c0,0.537,0.204,1.13,0.84,1.13
	C132.913,143.604,133.206,143.101,133.206,142.562"/>
<path fill="#FFFFFF" d="M136.036,140.131h-1.038v-0.854h1.038V140.131z M134.998,140.718h1.038v3.78h-1.038V140.718z"/>
<path fill="#FFFFFF" d="M136.797,140.718h0.987v0.527h0.022c0.263-0.424,0.718-0.631,1.154-0.631c1.104,0,1.385,0.623,1.385,1.559
	v2.325h-1.04v-2.134c0-0.624-0.182-0.931-0.667-0.931c-0.56,0-0.803,0.315-0.803,1.083v1.981h-1.039"/>
<path fill="#FFFFFF" d="M144.709,144.258c0,0.619-0.219,1.674-1.959,1.674c-0.746,0-1.617-0.351-1.667-1.215h1.031
	c0.093,0.388,0.409,0.521,0.773,0.521c0.578,0,0.841-0.397,0.832-0.938v-0.495h-0.015c-0.227,0.397-0.68,0.584-1.133,0.584
	c-1.135,0-1.614-0.861-1.614-1.899c0-0.98,0.561-1.874,1.622-1.874c0.497,0,0.878,0.17,1.125,0.608h0.015v-0.505h0.989
	 M143.722,142.562c0-0.616-0.211-1.161-0.884-1.161c-0.586,0-0.841,0.513-0.841,1.074c0,0.537,0.204,1.13,0.841,1.13
	C143.43,143.604,143.722,143.101,143.722,142.562"/>
<path fill="#FFFFFF" d="M146.289,143.268c0.005,0.456,0.387,0.64,0.795,0.64c0.301,0,0.681-0.117,0.681-0.484
	c0-0.312-0.431-0.423-1.178-0.584c-0.598-0.133-1.199-0.342-1.199-1.008c0-0.965,0.835-1.217,1.646-1.217
	c0.827,0,1.587,0.281,1.666,1.209h-0.984c-0.029-0.405-0.337-0.512-0.711-0.512c-0.234,0-0.577,0.04-0.577,0.352
	c0,0.372,0.586,0.423,1.177,0.563c0.606,0.138,1.199,0.357,1.199,1.058c0,0.995-0.862,1.318-1.725,1.318
	c-0.878,0-1.734-0.329-1.779-1.332"/>
<path fill="#FFFFFF" d="M79.777,148.951h2.252c1.352,0,2.368,0.848,2.368,2.579c0,1.512-0.774,2.642-2.368,2.642h-2.252
	 M80.926,153.207h1.024c0.666,0,1.302-0.412,1.302-1.565c0-1.055-0.367-1.726-1.506-1.726h-0.82V153.207z"/>
<path fill="#FFFFFF" d="M86.864,150.287c1.192,0,1.959,0.79,1.959,2.001c0,1.197-0.767,1.984-1.959,1.984
	c-1.184,0-1.953-0.787-1.953-1.984C84.91,151.077,85.68,150.287,86.864,150.287 M86.864,153.489c0.708,0,0.92-0.604,0.92-1.202
	c0-0.611-0.212-1.217-0.92-1.217c-0.702,0-0.916,0.604-0.916,1.217C85.948,152.885,86.162,153.489,86.864,153.489"/>
<path fill="#FFFFFF" d="M91.412,150.392h0.987v0.523h0.022c0.263-0.421,0.718-0.628,1.155-0.628c1.107,0,1.385,0.623,1.385,1.56
	v2.326h-1.039v-2.137c0-0.623-0.184-0.929-0.668-0.929c-0.562,0-0.803,0.312-0.803,1.083v1.982h-1.039"/>
<path fill="#FFFFFF" d="M97.524,150.287c1.192,0,1.96,0.79,1.96,2.001c0,1.197-0.768,1.984-1.96,1.984
	c-1.185,0-1.953-0.787-1.953-1.984C95.57,151.077,96.34,150.287,97.524,150.287 M97.524,153.489c0.71,0,0.922-0.604,0.922-1.202
	c0-0.611-0.211-1.217-0.922-1.217c-0.703,0-0.912,0.604-0.912,1.217C96.611,152.885,96.822,153.489,97.524,153.489"/>
<path fill="#FFFFFF" d="M101.414,150.392h0.762v0.696h-0.762v1.871c0,0.349,0.089,0.438,0.438,0.438
	c0.109,0,0.212-0.007,0.321-0.029v0.812c-0.175,0.027-0.4,0.035-0.607,0.035c-0.634,0-1.19-0.146-1.19-0.898v-2.229h-0.631v-0.696
	h0.631v-1.135h1.038"/>
<path fill="#FFFFFF" d="M105.903,150.392h0.762v0.696h-0.762v1.871c0,0.349,0.089,0.438,0.438,0.438
	c0.111,0,0.212-0.007,0.322-0.029v0.812c-0.175,0.027-0.403,0.035-0.605,0.035c-0.637,0-1.193-0.146-1.193-0.898v-2.229h-0.628
	v-0.696h0.628v-1.135h1.038"/>
<path fill="#FFFFFF" d="M107.061,151.553c0.058-0.972,0.929-1.269,1.776-1.269c0.753,0,1.66,0.173,1.66,1.079v1.965
	c0,0.344,0.037,0.691,0.134,0.844h-1.054c-0.037-0.121-0.066-0.244-0.074-0.367c-0.329,0.342-0.812,0.465-1.27,0.465
	c-0.72,0-1.289-0.354-1.289-1.131c0-0.854,0.645-1.062,1.289-1.15c0.633-0.095,1.227-0.071,1.227-0.494
	c0-0.449-0.309-0.516-0.676-0.516c-0.393,0-0.649,0.162-0.685,0.573 M109.46,152.32c-0.178,0.152-0.543,0.161-0.865,0.219
	c-0.319,0.07-0.613,0.176-0.613,0.557c0,0.388,0.299,0.483,0.636,0.483c0.812,0,0.843-0.645,0.843-0.873V152.32z"/>
<polyline fill="#FFFFFF" points="111.337,148.951 112.375,148.951 112.375,151.753 113.686,150.392 114.913,150.392 113.486,151.78 
	115.071,154.173 113.818,154.173 112.777,152.481 112.375,152.87 112.375,154.173 111.337,154.173 "/>
<path fill="#FFFFFF" d="M116.235,152.533c0.029,0.659,0.353,0.956,0.931,0.956c0.416,0,0.754-0.255,0.82-0.485h0.913
	c-0.293,0.89-0.913,1.269-1.771,1.269c-1.191,0-1.933-0.815-1.933-1.984c0-1.135,0.782-2.001,1.933-2.001
	c1.285,0,1.908,1.081,1.837,2.246 M117.925,151.875c-0.097-0.527-0.319-0.804-0.825-0.804c-0.656,0-0.849,0.512-0.864,0.804H117.925
	z"/>
<path fill="#FFFFFF" d="M121.491,150.392h0.989v0.701h0.016c0.189-0.476,0.702-0.806,1.206-0.806c0.074,0,0.162,0.019,0.227,0.038
	v0.965c-0.094-0.021-0.249-0.038-0.372-0.038c-0.76,0-1.021,0.55-1.021,1.217v1.705h-1.043"/>
<path fill="#FFFFFF" d="M125.346,149.805h-1.038v-0.854h1.038V149.805z M124.308,150.392h1.038v3.781h-1.038V150.392z"/>
<path fill="#FFFFFF" d="M126.911,152.943c0.008,0.453,0.388,0.636,0.798,0.636c0.298,0,0.68-0.116,0.68-0.482
	c0-0.315-0.432-0.424-1.178-0.589c-0.599-0.127-1.198-0.339-1.198-1.006c0-0.965,0.831-1.215,1.644-1.215
	c0.825,0,1.587,0.278,1.668,1.21h-0.987c-0.027-0.404-0.337-0.516-0.709-0.516c-0.236,0-0.578,0.045-0.578,0.355
	c0,0.373,0.586,0.421,1.177,0.559c0.608,0.141,1.201,0.359,1.201,1.063c0,0.991-0.864,1.313-1.726,1.313
	c-0.877,0-1.732-0.327-1.778-1.329"/>
<polyline fill="#FFFFFF" points="130.069,148.951 131.107,148.951 131.107,151.753 132.418,150.392 133.646,150.392 132.219,151.78 
	133.806,154.173 132.55,154.173 131.509,152.481 131.107,152.87 131.107,154.173 130.069,154.173 "/>
<path fill="#FFFFFF" d="M134.917,152.943c0.008,0.453,0.39,0.636,0.798,0.636c0.301,0,0.679-0.116,0.679-0.482
	c0-0.315-0.431-0.424-1.176-0.589c-0.599-0.127-1.199-0.339-1.199-1.006c0-0.965,0.832-1.215,1.646-1.215
	c0.824,0,1.585,0.278,1.666,1.21h-0.987c-0.029-0.404-0.337-0.516-0.708-0.516c-0.234,0-0.578,0.045-0.578,0.355
	c0,0.373,0.586,0.421,1.177,0.559c0.604,0.141,1.199,0.359,1.199,1.063c0,0.991-0.865,1.313-1.724,1.313
	c-0.878,0-1.733-0.327-1.778-1.329"/>
<g>
	<polygon fill="#FFFFFF" stroke="#0D9C4A" stroke-width="0.0358" stroke-linecap="round" stroke-miterlimit="22.9256" points="
		52.69,106.973 52.69,110.362 52.686,110.416 52.675,110.466 52.662,110.521 52.641,110.57 52.614,110.615 52.585,110.662 
		52.552,110.694 52.512,110.725 52.47,110.752 52.425,110.766 52.383,110.778 52.335,110.785 52.291,110.778 52.245,110.766 
		52.201,110.752 52.161,110.725 52.122,110.694 52.087,110.662 52.055,110.615 52.031,110.57 52.012,110.521 51.997,110.466 
		51.988,110.416 51.984,110.362 51.984,107.052 51.982,107.028 51.972,107.007 51.96,106.988 51.941,106.978 51.923,106.978 
		51.906,106.978 51.886,106.988 51.872,107.007 51.864,107.028 51.86,107.052 51.86,114.953 51.858,115.009 51.85,115.067 
		51.834,115.126 51.815,115.179 51.792,115.229 51.762,115.275 51.727,115.318 51.687,115.354 51.646,115.385 51.603,115.404 
		51.556,115.427 51.507,115.432 51.46,115.438 51.41,115.432 51.363,115.427 51.316,115.404 51.273,115.385 51.229,115.354 
		51.193,115.318 51.159,115.275 51.129,115.229 51.105,115.179 51.083,115.126 51.069,115.067 51.059,115.009 51.058,114.953 
		51.058,110.177 51.053,110.156 51.045,110.132 51.032,110.117 51.017,110.108 50.997,110.105 50.975,110.108 50.961,110.117 
		50.946,110.132 50.938,110.156 50.936,110.177 50.936,114.953 50.934,115.009 50.924,115.067 50.91,115.126 50.889,115.179 
		50.863,115.229 50.833,115.275 50.8,115.318 50.761,115.354 50.719,115.385 50.674,115.404 50.631,115.427 50.581,115.432 
		50.532,115.438 50.486,115.432 50.437,115.427 50.391,115.404 50.345,115.385 50.305,115.354 50.266,115.318 50.231,115.275 
		50.201,115.229 50.178,115.179 50.157,115.126 50.143,115.067 50.134,115.009 50.13,114.953 50.13,107.052 50.126,107.028 
		50.12,107.007 50.104,106.988 50.087,106.978 50.068,106.978 50.051,106.978 50.033,106.988 50.021,107.007 50.012,107.028 
		50.008,107.052 50.008,110.362 50.004,110.416 49.998,110.466 49.981,110.521 49.959,110.57 49.936,110.615 49.905,110.662 
		49.87,110.694 49.835,110.725 49.79,110.752 49.748,110.766 49.702,110.778 49.655,110.785 49.612,110.778 49.566,110.766 
		49.522,110.752 49.48,110.725 49.441,110.694 49.407,110.662 49.379,110.615 49.352,110.57 49.333,110.521 49.316,110.466 
		49.308,110.416 49.305,110.362 49.305,106.973 49.308,106.874 49.316,106.777 49.334,106.684 49.355,106.588 49.383,106.498 
		49.415,106.413 49.455,106.327 49.5,106.246 49.55,106.171 49.604,106.099 49.664,106.035 49.725,105.971 49.791,105.922 
		49.863,105.872 49.935,105.835 50.01,105.798 50.087,105.773 50.166,105.756 50.246,105.742 50.327,105.737 51.667,105.737 
		51.748,105.742 51.827,105.756 51.906,105.773 51.982,105.798 52.056,105.835 52.131,105.872 52.2,105.922 52.268,105.971 
		52.332,106.035 52.389,106.099 52.442,106.171 52.495,106.246 52.538,106.327 52.579,106.413 52.61,106.498 52.637,106.588 
		52.662,106.684 52.675,106.777 52.686,106.874 	"/>
	<polygon fill="#FFFFFF" stroke="#0D9C4A" stroke-width="0.0358" stroke-linecap="round" stroke-miterlimit="22.9256" points="
		47.42,105.737 46.078,105.737 45.998,105.742 45.918,105.756 45.839,105.773 45.763,105.798 45.686,105.835 45.614,105.872 
		45.544,105.922 45.479,105.971 45.414,106.035 45.356,106.099 45.3,106.171 45.252,106.246 45.208,106.327 45.169,106.413 
		45.133,106.498 45.106,106.588 45.085,106.684 45.069,106.777 45.06,106.874 45.059,106.973 45.059,110.362 45.06,110.416 
		45.069,110.466 45.083,110.521 45.102,110.57 45.128,110.615 45.16,110.662 45.195,110.694 45.232,110.725 45.273,110.752 
		45.318,110.766 45.362,110.778 45.406,110.785 45.457,110.778 45.5,110.766 45.544,110.752 45.585,110.725 45.624,110.694 
		45.657,110.662 45.687,110.615 45.713,110.57 45.735,110.521 45.748,110.466 45.757,110.416 45.759,110.362 45.759,107.052 
		45.763,107.028 45.771,107.007 45.787,106.988 45.802,106.978 45.823,106.978 45.839,106.978 45.858,106.988 45.874,107.007 
		45.88,107.028 45.884,107.052 45.884,114.953 45.885,115.009 45.895,115.067 45.91,115.126 45.93,115.179 45.953,115.229 
		45.985,115.275 46.02,115.318 46.056,115.354 46.099,115.385 46.142,115.404 46.189,115.427 46.238,115.432 46.283,115.438 
		46.333,115.432 46.381,115.427 46.427,115.404 46.473,115.385 46.515,115.354 46.552,115.318 46.586,115.275 46.616,115.229 
		46.643,115.179 46.662,115.126 46.676,115.067 46.683,115.009 46.687,114.953 46.687,110.177 46.69,110.156 46.7,110.132 
		46.711,110.117 46.731,110.108 46.75,110.105 46.767,110.108 46.784,110.117 46.798,110.132 46.807,110.156 46.811,110.177 
		46.811,114.953 46.811,115.009 46.822,115.067 46.837,115.126 46.855,115.179 46.88,115.229 46.91,115.275 46.945,115.318 
		46.984,115.354 47.024,115.385 47.069,115.404 47.114,115.427 47.164,115.432 47.212,115.438 47.262,115.432 47.307,115.427 
		47.354,115.404 47.399,115.385 47.44,115.354 47.479,115.318 47.513,115.275 47.542,115.229 47.567,115.179 47.588,115.126 
		47.602,115.067 47.61,115.009 47.614,114.953 47.614,107.052 47.617,107.028 47.625,107.007 47.639,106.988 47.655,106.978 
		47.675,106.978 47.694,106.978 47.712,106.988 47.724,107.007 47.733,107.028 47.735,107.052 47.735,110.362 47.739,110.416 
		47.75,110.466 47.763,110.521 47.784,110.57 47.808,110.615 47.838,110.662 47.872,110.694 47.913,110.725 47.954,110.752 
		47.999,110.766 48.042,110.778 48.089,110.785 48.134,110.778 48.179,110.766 48.223,110.752 48.263,110.725 48.303,110.694 
		48.338,110.662 48.366,110.615 48.392,110.57 48.413,110.521 48.429,110.466 48.437,110.416 48.44,110.362 48.44,106.973 
		48.437,106.874 48.426,106.777 48.412,106.684 48.39,106.588 48.362,106.498 48.329,106.413 48.289,106.327 48.246,106.246 
		48.195,106.171 48.141,106.099 48.082,106.035 48.021,105.971 47.952,105.922 47.885,105.872 47.808,105.835 47.733,105.798 
		47.658,105.773 47.578,105.756 47.499,105.742 	"/>
	<polygon fill="#FFFFFF" points="43.126,97.586 43.126,100.814 40.445,97.586 39.524,98.695 42.206,101.927 39.524,101.927 
		40.747,103.4 44.348,103.4 44.348,99.058 	"/>
	<polygon fill="#FFFFFF" points="58.22,101.927 55.542,101.927 58.22,98.695 57.299,97.586 54.619,100.814 54.619,97.586 
		53.396,99.058 53.396,103.4 56.999,103.4 	"/>
	<polygon fill="#FFFFFF" points="58.22,119.02 55.542,115.788 58.22,115.788 56.999,114.313 53.396,114.313 53.396,118.656 
		54.619,120.128 54.619,116.9 57.299,120.128 	"/>
	<polygon fill="#FFFFFF" points="40.747,114.313 44.348,114.313 44.348,118.656 43.126,120.128 43.126,116.9 40.445,120.128 
		39.524,119.02 42.206,115.788 39.524,115.788 	"/>
	<polygon fill="#FFFFFF" points="47.453,104.65 47.448,104.566 47.44,104.491 47.424,104.414 47.405,104.342 47.379,104.269 
		47.346,104.205 47.31,104.139 47.27,104.074 47.223,104.02 47.172,103.972 47.118,103.927 47.063,103.887 47.002,103.857 
		46.941,103.83 46.877,103.812 46.813,103.805 46.75,103.802 46.683,103.805 46.618,103.812 46.556,103.83 46.495,103.857 
		46.435,103.887 46.376,103.927 46.324,103.972 46.275,104.02 46.229,104.074 46.188,104.139 46.149,104.205 46.119,104.269 
		46.093,104.342 46.07,104.414 46.056,104.491 46.048,104.566 46.044,104.65 46.048,104.728 46.056,104.806 46.07,104.881 
		46.093,104.955 46.119,105.028 46.149,105.097 46.188,105.159 46.229,105.221 46.275,105.276 46.324,105.326 46.376,105.367 
		46.435,105.41 46.495,105.44 46.556,105.464 46.618,105.481 46.683,105.493 46.75,105.499 46.813,105.493 46.877,105.481 
		46.941,105.464 47.002,105.44 47.063,105.41 47.118,105.367 47.172,105.326 47.223,105.276 47.27,105.221 47.31,105.159 
		47.346,105.097 47.379,105.028 47.405,104.955 47.424,104.881 47.44,104.806 47.448,104.728 	"/>
	<polygon fill="#FFFFFF" points="51.701,104.65 51.697,104.566 51.687,104.491 51.672,104.414 51.653,104.342 51.627,104.269 
		51.595,104.205 51.559,104.139 51.515,104.074 51.47,104.02 51.42,103.972 51.366,103.927 51.309,103.887 51.25,103.857 
		51.19,103.83 51.126,103.812 51.062,103.805 50.997,103.802 50.93,103.805 50.866,103.812 50.802,103.83 50.743,103.857 
		50.684,103.887 50.627,103.927 50.573,103.972 50.522,104.02 50.476,104.074 50.435,104.139 50.398,104.205 50.367,104.269 
		50.338,104.342 50.32,104.414 50.305,104.491 50.296,104.566 50.292,104.65 50.296,104.728 50.305,104.806 50.32,104.881 
		50.338,104.955 50.367,105.028 50.398,105.097 50.435,105.159 50.476,105.221 50.522,105.276 50.573,105.326 50.627,105.367 
		50.684,105.41 50.743,105.44 50.802,105.464 50.866,105.481 50.93,105.493 50.997,105.499 51.062,105.493 51.126,105.481 
		51.19,105.464 51.25,105.44 51.309,105.41 51.366,105.367 51.42,105.326 51.47,105.276 51.515,105.221 51.559,105.159 
		51.595,105.097 51.627,105.028 51.653,104.955 51.672,104.881 51.687,104.806 51.697,104.728 	"/>
	<polygon fill="#FFFFFF" points="49.577,103.078 49.572,102.998 49.563,102.92 49.55,102.846 49.529,102.771 49.502,102.697 
		49.472,102.631 49.433,102.564 49.392,102.503 49.346,102.45 49.299,102.397 49.243,102.353 49.186,102.317 49.128,102.283 
		49.065,102.257 49.002,102.242 48.938,102.23 48.874,102.228 48.807,102.23 48.743,102.242 48.68,102.257 48.617,102.283 
		48.559,102.317 48.502,102.353 48.449,102.397 48.397,102.45 48.351,102.503 48.312,102.564 48.274,102.631 48.241,102.697 
		48.215,102.771 48.195,102.846 48.179,102.92 48.172,102.998 48.168,103.078 48.172,103.154 48.179,103.232 48.195,103.31 
		48.215,103.382 48.241,103.455 48.274,103.523 48.312,103.585 48.351,103.646 48.397,103.704 48.449,103.755 48.502,103.797 
		48.559,103.837 48.617,103.868 48.68,103.894 48.743,103.908 48.807,103.922 48.874,103.927 48.938,103.922 49.002,103.908 
		49.065,103.894 49.128,103.868 49.186,103.837 49.243,103.797 49.299,103.755 49.346,103.704 49.392,103.646 49.433,103.585 
		49.472,103.523 49.502,103.455 49.529,103.382 49.55,103.31 49.563,103.232 49.572,103.154 	"/>
</g>
<g>
	<path fill="#FFFFFF" d="M43.43,79.896v2.734l-1.39,1.385h12.64l1.405-1.404l-0.004-18.063H43.453v12.998
		c-0.767,0-1.283,0.368-1.608,0.688C41.521,78.556,41,79.912,41,79.912L43.43,79.896L43.43,79.896z"/>
	<path fill="#0D9C4A" d="M51.504,69.343c-0.831,0-1.503-0.67-1.503-1.5c0-0.828,0.674-1.502,1.503-1.502
		c0.827,0,1.5,0.674,1.5,1.502C53.003,68.673,52.331,69.343,51.504,69.343L51.504,69.343z"/>
	<path fill="#0D9C4A" d="M48.938,75.501c0,0,2.791,5.458,3.081,5.956c0.289,0.5,0.656,0.545,0.888,0.545h1.447l-3.658-7.458
		l1.145-2.466c0,0,0.913,1.224,1.223,1.556c0.183,0.184,0.368,0.255,0.566,0.255h2.687v-1.427h-2.24c0,0-1.113-1.399-1.534-1.967
		c-0.468-0.627-0.889-0.816-1.824-0.816h-3.071c-0.566,0-1.417-0.027-1.808,0.557l-1.323,2.204v-0.004
		c-0.073,0.113-0.115,0.25-0.115,0.394c0,0.394,0.32,0.715,0.718,0.715c0.255,0,0.48-0.135,0.608-0.337l-0.037,0.048
		c0,0,1.163-1.871,1.207-2.006c0.046-0.134,0.156-0.199,0.267-0.199h1.512l-1.213,2.394c-0.433,0.911-0.41,2.634-0.41,2.634
		l-0.146,1.502c-0.002,0.178-0.111,0.23-0.19,0.23c0,0-2.024,0-2.357,0c-1.235,0-1.831,0.255-2.212,0.637
		c-0.379,0.379-0.523,1.055-0.523,1.055h3.669h2.201c0.779,0,1.079-0.4,1.125-0.709l0.133-1.338l0.19-1.922v-0.031H48.938z"/>
	<path fill="#0D9C4A" d="M52.303,84.068l1.735-1.654h-1.571c-0.233,0-0.706,0.297-1.203,0.794c-0.495,0.495-0.88,0.844-0.88,0.844
		L52.303,84.068L52.303,84.068z"/>
	<polygon fill="#0D9C4A" points="56.742,84.07 41.46,84.07 41.46,83.914 56.742,83.914 	"/>
</g>
</svg>
