<?xml version="1.0" encoding="utf-8"?>
<!-- Generator: Adobe Illustrator 16.0.0, SVG Export Plug-In . SVG Version: 6.00 Build 0)  -->
<!DOCTYPE svg PUBLIC "-//W3C//DTD SVG 1.1//EN" "http://www.w3.org/Graphics/SVG/1.1/DTD/svg11.dtd">
<svg version="1.1" id="Layer_1" xmlns="http://www.w3.org/2000/svg" xmlns:xlink="http://www.w3.org/1999/xlink" x="0px" y="0px"
	 width="200px" height="200px" viewBox="0 0 200 200" enable-background="new 0 0 200 200" xml:space="preserve">
<g>
	<rect x="45.043" y="5" fill="#FFFFFF" width="109.916" height="190"/>
	<path fill="none" stroke="#1B181B" d="M154.959,195 M45.042,195h109.917V5H45.042V195z"/>
	<path fill="#ED1C24" d="M49.34,13.543c0-2.402,2.125-4.394,4.396-4.394h92.649c2.273,0,4.389,1.981,4.389,4.384v94.842
		c0,2.402-2.115,4.391-4.389,4.391H53.727c-2.271,0-4.387-1.988-4.387-4.391"/>
	<path fill="#ED1C24" d="M49.404,119.769c0-2.401,2.124-4.396,4.395-4.396h92.646c2.273,0,4.393,1.985,4.393,4.387v31.708
		c0,2.401-2.119,4.39-4.393,4.39H53.79c-2.275,0-4.385-1.988-4.385-4.39"/>
	<polyline fill="#ED1C24" points="49.266,158.416 99.824,190.651 150.633,158.416 	"/>
	<polyline fill="#FFFFFF" points="82.053,118.903 92.901,118.903 92.901,121.757 85.444,121.757 85.444,125.323 91.907,125.323 
		91.907,127.961 85.444,127.961 85.444,134.336 82.053,134.336 	"/>
	<path fill="#FFFFFF" d="M97.702,121.432h-3.069v-2.528h3.069V121.432z M94.632,123.161h3.069v11.175h-3.069V123.161z"/>
	<path fill="#FFFFFF" d="M100.122,123.161h2.917v2.073h0.041c0.564-1.404,2.076-2.376,3.566-2.376c0.219,0,0.479,0.044,0.672,0.11
		v2.853c-0.281-0.066-0.736-0.11-1.102-0.11c-2.248,0-3.025,1.622-3.025,3.589v5.036h-3.069"/>
	<path fill="#FFFFFF" d="M110.672,129.495c0.086,1.947,1.039,2.831,2.746,2.831c1.23,0,2.227-0.758,2.422-1.448h2.701
		c-0.865,2.638-2.701,3.762-5.232,3.762c-3.521,0-5.705-2.421-5.705-5.88c0-3.349,2.312-5.901,5.705-5.901
		c3.805,0,5.645,3.2,5.428,6.637 M115.666,127.551c-0.279-1.559-0.951-2.379-2.441-2.379c-1.945,0-2.508,1.515-2.553,2.379H115.666z
		"/>
	<path fill="#FFFFFF" d="M53.91,136.792h3.071v5.813h0.064c0.776-1.253,2.118-1.859,3.263-1.859c3.263,0,4.085,1.84,4.085,4.604
		v6.874h-3.071v-6.312c0-1.837-0.54-2.745-1.966-2.745c-1.665,0-2.376,0.931-2.376,3.2v5.857H53.91"/>
	<path fill="#FFFFFF" d="M72.152,140.746c3.522,0,5.793,2.336,5.793,5.901c0,3.545-2.271,5.88-5.793,5.88
		c-3.501,0-5.772-2.335-5.772-5.88C66.38,143.082,68.651,140.746,72.152,140.746 M72.152,150.214c2.096,0,2.722-1.792,2.722-3.566
		c0-1.792-0.626-3.588-2.722-3.588c-2.076,0-2.701,1.796-2.701,3.588C69.451,148.422,70.076,150.214,72.152,150.214"/>
	<path fill="#FFFFFF" d="M82.312,148.592c0.021,1.342,1.146,1.881,2.356,1.881c0.887,0,2.01-0.344,2.01-1.427
		c0-0.928-1.275-1.253-3.479-1.729c-1.773-0.388-3.547-1.016-3.547-2.981c0-2.854,2.466-3.589,4.865-3.589
		c2.443,0,4.69,0.824,4.928,3.566h-2.917c-0.088-1.187-0.994-1.512-2.099-1.512c-0.689,0-1.706,0.129-1.706,1.038
		c0,1.102,1.729,1.253,3.481,1.663c1.791,0.41,3.542,1.061,3.542,3.134c0,2.941-2.55,3.892-5.1,3.892
		c-2.593,0-5.122-0.972-5.251-3.936"/>
	<path fill="#FFFFFF" d="M94.069,147.383c0.086,1.944,1.038,2.831,2.744,2.831c1.234,0,2.226-0.757,2.42-1.448h2.702
		c-0.863,2.639-2.702,3.762-5.229,3.762c-3.524,0-5.706-2.421-5.706-5.88c0-3.348,2.312-5.901,5.706-5.901
		c3.803,0,5.644,3.2,5.425,6.637 M99.063,145.436c-0.283-1.556-0.952-2.376-2.444-2.376c-1.944,0-2.507,1.515-2.55,2.376H99.063z"/>
	<path fill="#FFFFFF" d="M109.957,141.049h2.916v2.077h0.043c0.564-1.408,2.076-2.38,3.566-2.38c0.219,0,0.477,0.044,0.67,0.107
		v2.856c-0.281-0.066-0.732-0.11-1.1-0.11c-2.25,0-3.027,1.622-3.027,3.588v5.037h-3.068"/>
	<path fill="#FFFFFF" d="M120.506,147.383c0.09,1.944,1.039,2.831,2.746,2.831c1.23,0,2.227-0.757,2.422-1.448h2.703
		c-0.867,2.639-2.703,3.762-5.234,3.762c-3.521,0-5.703-2.421-5.703-5.88c0-3.348,2.311-5.901,5.703-5.901
		c3.807,0,5.643,3.2,5.428,6.637 M125.5,145.436c-0.281-1.556-0.951-2.376-2.441-2.376c-1.947,0-2.508,1.515-2.553,2.376H125.5z"/>
	<path fill="#FFFFFF" d="M132.912,147.383c0.09,1.944,1.041,2.831,2.746,2.831c1.234,0,2.227-0.757,2.42-1.448h2.703
		c-0.863,2.639-2.703,3.762-5.23,3.762c-3.523,0-5.705-2.421-5.705-5.88c0-3.348,2.311-5.901,5.705-5.901
		c3.803,0,5.641,3.2,5.424,6.637 M137.906,145.436c-0.281-1.556-0.949-2.376-2.441-2.376c-1.945,0-2.506,1.515-2.553,2.376H137.906z
		"/>
	<rect x="142.879" y="136.792" fill="#FFFFFF" width="3.07" height="15.433"/>
	<g>
		<polygon fill-rule="evenodd" clip-rule="evenodd" fill="#FFFFFF" points="55.26,18.25 55.26,77.275 57.116,79.629 60.445,79.629 
			60.445,16.201 57.345,16.201 55.26,18.25 		"/>
		<path fill-rule="evenodd" clip-rule="evenodd" fill="#FFFFFF" d="M62.491,92.828c0,0-0.23,0.04-0.27,0.118
			c-0.04,0.158,0.079,0.309,0.079,0.309s0.191,1.161,0.386,2.479c0.23,1.625,0.544,3.408,0.544,3.408s0.807,0.04,1.428,0
			c0.775,0,1.396,0.04,1.396,0.04s0.347-1.941,0.702-3.6c0.223-1.324,0.491-2.517,0.491-2.517s0.079-0.119,0-0.197
			c-0.11-0.04-0.347-0.04-0.347-0.04H62.491L62.491,92.828z"/>
		<path fill-rule="evenodd" clip-rule="evenodd" fill="#FFFFFF" d="M111.033,40.274c-3.684,0-6.699,2.786-7.203,6.384h-1.736V18.211
			l-2.091-2.049h-3.062v63.434h3.33l1.823-2.359v-28.14h1.814c0.623,3.408,3.6,5.965,7.125,5.965c4.018,0,7.275-3.29,7.275-7.394
			C118.309,43.604,115.051,40.274,111.033,40.274L111.033,40.274z M116.564,46.658h-4.299v-4.607
			C114.475,42.556,116.172,44.339,116.564,46.658L116.564,46.658z M109.48,42.13v4.528h-4.018
			C105.842,44.456,107.428,42.752,109.48,42.13L109.48,42.13z M105.572,49.097h3.908v4.104
			C107.586,52.617,106.078,51.07,105.572,49.097L105.572,49.097z M112.266,53.279v-4.183h4.26
			C115.982,51.188,114.318,52.814,112.266,53.279L112.266,53.279z"/>
		<path fill-rule="evenodd" clip-rule="evenodd" fill="#FFFFFF" d="M71.785,19.141c-2.051,0-2.668,1.897-2.668,1.897L69.15,74.41
			c0,0,0.079,2.163,2.365,2.282c2.471,0.157,2.741-2.243,2.741-2.243V20.96C74.256,20.96,73.875,19.141,71.785,19.141L71.785,19.141
			z"/>
		<path fill-rule="evenodd" clip-rule="evenodd" fill="#FFFFFF" d="M78.824,19.141c-2.084,0-2.668,1.897-2.668,1.897l0.04,53.372
			c0,0,0.04,2.163,2.359,2.282c2.479,0.157,2.754-2.243,2.754-2.243V20.96C81.308,20.96,80.915,19.141,78.824,19.141L78.824,19.141z
			"/>
		<path fill-rule="evenodd" clip-rule="evenodd" fill="#FFFFFF" d="M85.831,19.141c-2.084,0-2.706,1.897-2.706,1.897l0.039,53.372
			c0,0,0.078,2.163,2.359,2.282c2.478,0.157,2.793-2.243,2.793-2.243V20.96C88.316,20.96,87.921,19.141,85.831,19.141L85.831,19.141
			z"/>
		<path fill-rule="evenodd" clip-rule="evenodd" fill="#FFFFFF" d="M92.838,19.141c-2.091,0-2.668,1.897-2.668,1.897l0.033,53.372
			c0,0,0.079,2.163,2.365,2.282c2.471,0.157,2.748-2.243,2.748-2.243V20.96C95.316,20.96,94.929,19.141,92.838,19.141L92.838,19.141
			z"/>
		<path fill-rule="evenodd" clip-rule="evenodd" fill="#FFFFFF" d="M64.896,18.873c-2.091,0-2.714,1.894-2.714,1.894l0.079,68.312
			l5.067,0.033V20.728C67.327,20.728,66.947,18.873,64.896,18.873L64.896,18.873z"/>
		<polygon fill-rule="evenodd" clip-rule="evenodd" fill="#FFFFFF" points="144.855,88.11 142.457,87.435 141.258,87.048 
			140.057,86.662 138.902,86.215 137.736,85.73 136.602,85.213 135.494,84.616 134.42,83.975 133.896,83.627 133.391,83.266 
			132.447,82.453 131.516,81.601 130.631,80.736 129.799,79.806 128.973,78.861 128.527,78.415 128.08,77.989 127.111,77.177 
			126.129,76.43 125.107,75.694 124.045,75.021 123.48,74.732 122.922,74.477 121.744,74.051 120.545,73.67 119.947,73.513 
			119.324,73.375 118.709,73.296 118.092,73.283 117.477,73.323 116.834,73.394 115.602,73.591 114.383,73.841 113.768,74.018 
			113.184,74.208 112.586,74.416 112.029,74.692 111.479,75 110.941,75.308 109.9,76.022 111.156,76.331 112.389,76.698 
			113.609,77.144 114.213,77.413 114.77,77.702 115.346,78.01 115.889,78.356 116.434,78.725 116.939,79.111 117.922,79.963 
			118.826,80.886 119.672,81.851 120.49,82.84 122.07,84.885 122.904,85.889 123.775,86.851 124.699,87.742 125.689,88.567 
			126.207,88.956 126.744,89.322 127.309,89.65 127.865,89.945 129.066,90.463 130.283,90.889 131.543,91.236 132.814,91.465 
			134.086,91.623 135.385,91.644 136.682,91.564 137.953,91.413 139.23,91.157 139.846,90.987 140.463,90.791 141.066,90.561 
			141.65,90.293 142.219,89.984 142.783,89.65 143.826,88.902 144.855,88.11 		"/>
		<polygon fill-rule="evenodd" clip-rule="evenodd" fill="#FFFFFF" points="144.855,105.715 144.855,93.976 143.15,94.401 
			141.434,94.788 139.689,95.116 138.824,95.234 137.953,95.326 137.088,95.385 136.189,95.405 135.305,95.405 134.439,95.366 
			133.549,95.287 132.682,95.195 131.811,95.037 130.959,94.867 129.262,94.401 127.578,93.865 125.938,93.242 125.125,92.895 
			124.332,92.527 123.539,92.121 122.785,91.683 122.051,91.217 121.336,90.691 120.662,90.135 120.02,89.538 118.787,88.26 
			119.352,90.411 119.967,92.527 120.314,93.57 120.701,94.599 121.141,95.603 121.631,96.604 122.189,97.568 122.785,98.492 
			123.461,99.384 124.176,100.235 124.949,101.022 125.779,101.757 126.672,102.432 127.596,103.015 128.561,103.534 
			129.568,103.979 130.611,104.364 131.674,104.692 132.762,104.961 133.855,105.197 134.957,105.368 136.059,105.507 
			137.166,105.617 138.26,105.677 140.463,105.756 142.666,105.756 144.855,105.715 		"/>
		<polygon fill-rule="evenodd" clip-rule="evenodd" fill="#FFFFFF" points="144.855,63.767 143.465,64.127 142.744,64.264 
			142.031,64.363 141.316,64.44 140.602,64.474 139.887,64.474 139.152,64.455 138.432,64.403 137.725,64.304 137.027,64.166 
			136.314,63.977 135.633,63.74 134.957,63.472 133.668,62.875 132.389,62.18 131.17,61.406 130.572,61.02 129.994,60.594 
			129.459,60.115 128.953,59.592 128.023,58.49 127.137,57.35 126.285,56.195 125.512,54.976 124.797,53.725 124.143,52.446 
			123.539,51.135 123.002,49.786 122.496,48.448 122.051,47.085 121.318,44.279 120.57,41.5 120.256,40.091 120.145,39.744 
			119.967,39.437 119.602,38.82 118.846,37.58 118.42,37.004 117.955,36.44 117.457,35.942 116.912,35.457 115.773,34.572 
			117.148,34.454 117.824,34.435 118.518,34.435 119.193,34.494 119.869,34.611 120.523,34.762 121.188,34.998 121.822,35.267 
			122.42,35.575 123.002,35.923 123.559,36.31 124.641,37.181 125.67,38.085 126.672,39.029 127.137,39.534 127.562,40.071 
			127.965,40.615 128.311,41.192 128.639,41.795 128.928,42.411 131.117,47.433 131.693,48.664 132.289,49.902 132.932,51.096 
			133.602,52.297 134.957,54.668 135.697,55.828 136.445,56.95 137.299,58.031 138.221,59.034 139.205,59.979 140.248,60.87 
			141.316,61.714 142.416,62.528 142.992,62.895 143.596,63.223 144.855,63.767 		"/>
		<polygon fill-rule="evenodd" clip-rule="evenodd" fill="#FFFFFF" points="144.855,58.28 144.855,46.075 144.213,45.846 
			143.609,45.577 143.014,45.249 142.436,44.902 141.891,44.516 141.355,44.109 140.85,43.663 140.371,43.198 139.926,42.7 
			139.5,42.176 138.707,41.101 137.992,39.96 137.338,38.78 136.721,37.601 136.117,36.388 135.561,35.168 135.037,33.932 
			134.086,31.425 133.279,28.854 132.795,30.942 132.605,32.001 132.426,33.047 132.289,34.105 132.197,35.188 132.139,36.25 
			132.119,37.312 132.119,38.394 132.158,39.455 132.256,40.517 132.389,41.579 132.605,42.621 132.873,43.663 133.182,44.686 
			133.588,45.676 134.053,46.64 134.551,47.583 135.115,48.515 135.697,49.399 136.314,50.264 136.988,51.096 138.379,52.715 
			139.133,53.489 139.887,54.242 141.465,55.69 142.279,56.385 143.117,57.042 143.957,57.684 144.855,58.28 		"/>
		<polygon fill-rule="evenodd" clip-rule="evenodd" fill="#FFFFFF" points="144.855,82.276 144.855,70.149 143.826,70.149 
			143.328,70.137 142.822,70.072 141.82,69.882 140.83,69.632 139.846,69.324 138.885,68.99 137.914,68.63 136.988,68.243 
			136.045,67.836 135.135,67.392 134.23,66.926 133.332,66.427 131.574,65.365 129.896,64.225 128.277,62.992 126.686,61.714 
			125.164,60.345 123.717,58.916 123.021,58.162 122.34,57.389 121.684,56.622 121.068,55.81 119.908,54.132 118.787,52.407 
			118.709,53.764 118.676,55.115 118.729,56.484 118.865,57.814 119.076,59.166 119.404,60.483 119.809,61.754 120.314,63.031 
			120.871,64.264 121.475,65.483 122.109,66.677 122.812,67.836 123.539,68.978 124.312,70.072 125.139,71.141 126.035,72.176 
			126.961,73.165 127.932,74.108 128.953,75 130.016,75.846 131.117,76.619 132.27,77.334 133.457,78.01 134.67,78.612 
			135.908,79.188 137.141,79.707 138.418,80.192 139.689,80.657 142.266,81.482 144.855,82.276 		"/>
	</g>
</g>
</svg>
