<?xml version="1.0" encoding="utf-8"?>
<!-- Generator: Adobe Illustrator 16.0.0, SVG Export Plug-In . SVG Version: 6.00 Build 0)  -->
<!DOCTYPE svg PUBLIC "-//W3C//DTD SVG 1.1//EN" "http://www.w3.org/Graphics/SVG/1.1/DTD/svg11.dtd">
<svg version="1.1" id="Layer_1" xmlns="http://www.w3.org/2000/svg" xmlns:xlink="http://www.w3.org/1999/xlink" x="0px" y="0px"
	 width="200px" height="200px" viewBox="0 0 200 200" enable-background="new 0 0 200 200" xml:space="preserve">
<g>
	<g>
		<rect x="6.057" y="4.5" fill="#FFFFFF" width="187.887" height="61"/>
		<path fill="none" stroke="#1C181B" d="M6.057,65.5 M193.94,65.5H6.057v-61H193.94V65.5z"/>
		<path fill="#0D9C4A" d="M190.269,12.222c0-2.048-1.808-3.751-3.746-3.751H13.654c-1.939,0-3.747,1.693-3.747,3.742v46.05
			c0,2.049,1.808,3.745,3.747,3.745h172.877c1.939,0,3.745-1.696,3.745-3.745"/>
		<polyline fill="#FFFFFF" points="48.557,18.512 25.196,18.512 25.196,41.871 34.833,51.509 34.851,34.917 56.201,56.267 
			62.953,49.516 41.602,28.166 58.211,28.166 		"/>
		<polyline fill="#FFFFFF" points="128.441,13.625 142.479,13.625 142.479,17.317 132.83,17.317 132.83,21.932 141.193,21.932 
			141.193,25.342 132.83,25.342 132.83,33.591 128.441,33.591 		"/>
		<path fill="#FFFFFF" d="M148.687,16.898h-3.969v-3.272h3.969V16.898z M144.714,19.135h3.972v14.456h-3.972V19.135z"/>
		<path fill="#FFFFFF" d="M151.816,19.135h3.777v2.685h0.053c0.729-1.818,2.687-3.076,4.615-3.076c0.282,0,0.615,0.057,0.868,0.139
			v3.692c-0.364-0.085-0.952-0.141-1.428-0.141c-2.906,0-3.912,2.098-3.912,4.643v6.514h-3.974"/>
		<path fill="#FFFFFF" d="M165.47,27.33c0.11,2.516,1.344,3.662,3.55,3.662c1.596,0,2.881-0.979,3.13-1.874h3.499
			c-1.12,3.412-3.499,4.866-6.768,4.866c-4.558,0-7.382-3.131-7.382-7.605c0-4.335,2.991-7.634,7.382-7.634
			c4.919,0,7.298,4.138,7.018,8.585 M171.93,24.811c-0.366-2.013-1.233-3.074-3.162-3.074c-2.515,0-3.243,1.957-3.298,3.074H171.93z
			"/>
		<path fill="#FFFFFF" d="M131.295,50.528c0.111,2.515,1.341,3.66,3.552,3.66c1.592,0,2.879-0.977,3.13-1.874h3.494
			c-1.118,3.411-3.494,4.867-6.767,4.867c-4.557,0-7.383-3.133-7.383-7.606c0-4.333,2.994-7.635,7.383-7.635
			c4.923,0,7.3,4.14,7.02,8.587 M137.753,48.01c-0.364-2.012-1.23-3.074-3.158-3.074c-2.519,0-3.245,1.955-3.3,3.074H137.753z"/>
		<polyline fill="#FFFFFF" points="147.763,49.185 143.009,42.333 147.54,42.333 150.085,46.107 152.602,42.333 156.992,42.333 
			152.238,49.101 157.579,56.791 153.048,56.791 150.028,52.234 147.01,56.791 142.562,56.791 		"/>
		<path fill="#FFFFFF" d="M163.171,40.096H159.2v-3.272h3.971V40.096z M159.198,42.333h3.971v14.458h-3.971V42.333z"/>
		<path fill="#FFFFFF" d="M171.335,42.333h2.908v2.657h-2.908v7.16c0,1.339,0.336,1.676,1.677,1.676
			c0.419,0,0.812-0.029,1.231-0.114v3.104c-0.669,0.114-1.54,0.139-2.32,0.139c-2.434,0-4.561-0.556-4.561-3.437V44.99h-2.404
			v-2.657h2.404v-4.334h3.973"/>
		<g>
			<polygon fill-rule="evenodd" clip-rule="evenodd" fill="#0D9C4A" points="124.82,62.008 124.82,8.471 71.282,8.471 
				71.282,62.008 124.82,62.008 			"/>
			<path fill-rule="evenodd" clip-rule="evenodd" fill="#FFFFFF" d="M114.166,51.078v6.958l3.534,3.535H85.523l-3.574-3.577
				l0.013-45.984h32.142v33.087c1.954,0,3.271,0.936,4.094,1.755c0.822,0.822,2.149,4.266,2.149,4.266L114.166,51.078
				L114.166,51.078z"/>
			<path fill-rule="evenodd" clip-rule="evenodd" fill="#0D9C4A" d="M93.618,24.216c2.111,0,3.822-1.71,3.822-3.822
				c0-2.11-1.711-3.822-3.822-3.822s-3.822,1.712-3.822,3.822C89.795,22.506,91.507,24.216,93.618,24.216L93.618,24.216z"/>
			<path fill-rule="evenodd" clip-rule="evenodd" fill="#0D9C4A" d="M100.145,39.887c0,0-7.103,13.89-7.838,15.163
				c-0.736,1.272-1.67,1.385-2.264,1.385h-3.679l9.311-18.981l-2.915-6.276c0,0-2.321,3.111-3.114,3.961
				c-0.467,0.466-0.934,0.651-1.442,0.651h-6.835v-3.635h5.704c0,0,2.83-3.566,3.905-5.01c1.19-1.597,2.266-2.076,4.641-2.076h7.818
				c1.444,0,3.603-0.065,4.603,1.416l3.37,5.612v-0.008c0.187,0.286,0.297,0.629,0.297,0.998c0,1.008-0.818,1.826-1.825,1.826
				c-0.657,0-1.23-0.343-1.551-0.861l0.091,0.126c0,0-2.955-4.769-3.068-5.108c-0.112-0.34-0.397-0.508-0.68-0.508h-3.848
				l3.084,6.092c1.104,2.322,1.046,6.706,1.046,6.706l0.369,3.819c0.003,0.456,0.281,0.596,0.481,0.596c0,0,5.149,0,5.997,0
				c3.144,0,4.664,0.643,5.632,1.611c0.968,0.968,1.33,2.689,1.33,2.689h-9.337h-5.603c-1.983,0-2.746-1.019-2.86-1.812
				l-0.336-3.398l-0.484-4.894V39.887L100.145,39.887z"/>
			<path fill-rule="evenodd" clip-rule="evenodd" fill="#0D9C4A" d="M91.581,61.697l-4.417-4.208h3.997
				c0.593,0,1.796,0.754,3.062,2.02c1.266,1.265,2.237,2.146,2.237,2.146L91.581,61.697L91.581,61.697z"/>
			<polygon fill-rule="evenodd" clip-rule="evenodd" fill="#0D9C4A" points="121.545,61.785 82.64,61.785 82.64,61.383 
				121.545,61.383 121.545,61.785 			"/>
		</g>
	</g>
	<g>
		<rect x="38.87" y="134.5" fill="#FFFFFF" width="122.26" height="61"/>
		<path fill="none" stroke="#1C181B" d="M38.87,195.498 M161.13,195.498H38.87V134.5h122.26V195.498z"/>
		<path fill="#0D9C4A" d="M42.611,142.151c0-2.047,1.804-3.749,3.745-3.749h106.833c1.938,0,3.744,1.692,3.744,3.741v46.05
			c0,2.051-1.806,3.746-3.744,3.746H46.348c-1.939,0-3.745-1.695-3.745-3.746"/>
		<polyline fill="#FFFFFF" points="133.089,149.338 149.606,165.858 133.089,182.373 119.46,182.373 131.179,170.632 
			100.987,170.632 100.987,161.081 131.179,161.081 119.435,149.338 		"/>
		<g>
			<polygon fill-rule="evenodd" clip-rule="evenodd" fill="#0D9C4A" points="47.293,191.939 47.293,138.402 93.647,138.402 
				93.647,191.939 47.293,191.939 			"/>
			<path fill-rule="evenodd" clip-rule="evenodd" fill="#FFFFFF" d="M57.947,181.011v6.958l-3.534,3.534h32.176l3.576-3.576
				l-0.016-45.985h-32.14v33.088c-1.955,0-3.272,0.936-4.094,1.755c-0.822,0.821-2.149,4.265-2.149,4.265L57.947,181.011
				L57.947,181.011z"/>
			<path fill-rule="evenodd" clip-rule="evenodd" fill="#0D9C4A" d="M78.495,154.147c-2.11,0-3.822-1.711-3.822-3.822
				c0-2.11,1.712-3.822,3.822-3.822c2.11,0,3.822,1.712,3.822,3.822C82.317,152.437,80.605,154.147,78.495,154.147L78.495,154.147z"
				/>
			<path fill-rule="evenodd" clip-rule="evenodd" fill="#0D9C4A" d="M71.967,169.819c0,0,7.104,13.891,7.839,15.162
				c0.734,1.271,1.67,1.385,2.265,1.385h3.677l-9.308-18.98l2.913-6.277c0,0,2.32,3.112,3.113,3.96
				c0.466,0.468,0.935,0.653,1.443,0.653h6.835v-3.636h-5.702c0,0-2.832-3.566-3.906-5.01C79.945,155.479,78.87,155,76.495,155
				h-7.819c-1.443,0-3.602-0.064-4.602,1.416l-3.369,5.611v-0.008c-0.188,0.286-0.298,0.63-0.298,0.998
				c0,1.009,0.819,1.824,1.825,1.824c0.657,0,1.23-0.342,1.55-0.859l-0.09,0.126c0,0,2.955-4.769,3.068-5.108
				s0.398-0.508,0.68-0.508h3.848l-3.084,6.091c-1.104,2.323-1.045,6.709-1.045,6.709l-0.369,3.818
				c-0.003,0.457-0.282,0.596-0.482,0.596c0,0-5.149,0-5.997,0c-3.142,0-4.664,0.645-5.631,1.611
				c-0.968,0.968-1.33,2.689-1.33,2.689h9.336h5.602c1.984,0,2.748-1.02,2.861-1.812l0.336-3.398l0.482-4.894V169.819
				L71.967,169.819z"/>
			<path fill-rule="evenodd" clip-rule="evenodd" fill="#0D9C4A" d="M80.534,191.629l4.414-4.207h-3.994
				c-0.595,0-1.796,0.754-3.064,2.02c-1.266,1.265-2.236,2.146-2.236,2.146L80.534,191.629L80.534,191.629z"/>
			<polygon fill-rule="evenodd" clip-rule="evenodd" fill="#0D9C4A" points="50.568,191.716 89.472,191.716 89.472,191.314 
				50.568,191.314 50.568,191.716 			"/>
		</g>
	</g>
	<g>
		<rect x="6.06" y="69.5" fill="#FFFFFF" width="187.881" height="61"/>
		<path fill="none" stroke="#1C181B" d="M6.06,130.498 M193.938,130.498H6.06V69.5h187.879V130.498z"/>
		<path fill="#0D9C4A" d="M190.141,77.137c0-2.049-1.804-3.749-3.744-3.749H13.529c-1.94,0-3.749,1.691-3.749,3.739v46.049
			c0,2.053,1.809,3.748,3.749,3.748h172.877c1.938,0,3.743-1.695,3.743-3.748"/>
		<polyline fill="#FFFFFF" points="161.395,84.1 177.912,100.617 161.395,117.135 147.765,117.135 159.485,105.391 129.292,105.391 
			129.292,95.844 159.485,95.844 147.742,84.099 		"/>
		<polyline fill="#FFFFFF" points="20.244,89.547 33.683,89.547 33.683,92.869 24.196,92.869 24.196,96.721 32.901,96.721 
			32.901,99.79 24.196,99.79 24.196,104.193 33.885,104.193 33.885,107.515 20.244,107.515 		"/>
		<polyline fill="#FFFFFF" points="39.496,100.67 35.217,94.506 39.295,94.506 41.584,97.901 43.848,94.506 47.8,94.506 
			43.521,100.594 48.329,107.515 44.253,107.515 41.533,103.415 38.816,107.515 34.814,107.515 		"/>
		<path fill="#FFFFFF" d="M53.361,92.49h-3.574v-2.941h3.574V92.49z M49.787,94.506h3.574v13.011h-3.574V94.506z"/>
		<path fill="#FFFFFF" d="M60.71,94.506h2.616v2.39H60.71v6.442c0,1.208,0.301,1.509,1.509,1.509c0.377,0,0.731-0.024,1.107-0.101
			v2.795c-0.604,0.101-1.384,0.124-2.088,0.124c-2.19,0-4.104-0.503-4.104-3.096v-7.674h-2.163v-2.39h2.163v-3.901h3.575"/>
		<g>
			<polygon fill-rule="evenodd" clip-rule="evenodd" fill="#0D9C4A" points="71.286,126.925 71.286,73.388 124.82,73.388 
				124.82,126.925 71.286,126.925 			"/>
			<path fill-rule="evenodd" clip-rule="evenodd" fill="#FFFFFF" d="M81.939,115.995v6.959l-3.534,3.534h32.175l3.575-3.577
				l-0.015-45.984h-32.14v33.087c-1.955,0-3.272,0.937-4.094,1.755c-0.822,0.822-2.149,4.266-2.149,4.266L81.939,115.995
				L81.939,115.995z"/>
			<path fill-rule="evenodd" clip-rule="evenodd" fill="#0D9C4A" d="M102.487,89.133c-2.11,0-3.822-1.711-3.822-3.822
				c0-2.11,1.712-3.822,3.822-3.822s3.821,1.712,3.821,3.822C106.309,87.422,104.598,89.133,102.487,89.133L102.487,89.133z"/>
			<path fill-rule="evenodd" clip-rule="evenodd" fill="#0D9C4A" d="M95.959,104.805c0,0,7.103,13.89,7.838,15.162
				c0.734,1.272,1.67,1.385,2.264,1.385h3.679l-9.31-18.98l2.915-6.277c0,0,2.321,3.112,3.113,3.961
				c0.466,0.467,0.935,0.653,1.443,0.653h6.835v-3.637h-5.703c0,0-2.831-3.566-3.905-5.01c-1.19-1.597-2.265-2.075-4.641-2.075
				h-7.819c-1.443,0-3.602-0.065-4.602,1.415l-3.37,5.611v-0.007c-0.188,0.285-0.297,0.629-0.297,0.998
				c0,1.008,0.818,1.825,1.825,1.825c0.657,0,1.23-0.344,1.55-0.861l-0.09,0.126c0,0,2.955-4.768,3.068-5.108
				c0.113-0.34,0.397-0.508,0.68-0.508h3.848l-3.084,6.093c-1.103,2.321-1.045,6.706-1.045,6.706l-0.369,3.819
				c-0.003,0.456-0.282,0.597-0.482,0.597c0,0-5.149,0-5.997,0c-3.143,0-4.664,0.643-5.631,1.611
				c-0.968,0.968-1.331,2.689-1.331,2.689h9.337h5.602c1.984,0,2.748-1.02,2.861-1.812l0.336-3.398l0.482-4.893V104.805
				L95.959,104.805z"/>
			<path fill-rule="evenodd" clip-rule="evenodd" fill="#0D9C4A" d="M104.524,126.614l4.416-4.208h-3.995
				c-0.594,0-1.797,0.755-3.062,2.021c-1.266,1.265-2.237,2.146-2.237,2.146L104.524,126.614L104.524,126.614z"/>
			<polygon fill-rule="evenodd" clip-rule="evenodd" fill="#0D9C4A" points="74.561,126.702 113.464,126.702 113.464,126.3 
				74.561,126.3 74.561,126.702 			"/>
		</g>
	</g>
</g>
</svg>
