<?xml version="1.0" encoding="utf-8"?>
<!-- Generator: Adobe Illustrator 16.0.0, SVG Export Plug-In . SVG Version: 6.00 Build 0)  -->
<!DOCTYPE svg PUBLIC "-//W3C//DTD SVG 1.1//EN" "http://www.w3.org/Graphics/SVG/1.1/DTD/svg11.dtd">
<svg version="1.1" id="Layer_1" xmlns="http://www.w3.org/2000/svg" xmlns:xlink="http://www.w3.org/1999/xlink" x="0px" y="0px"
	 width="200px" height="200px" viewBox="0 0 200 200" enable-background="new 0 0 200 200" xml:space="preserve">
<g>
	<path fill="#FFFFFF" d="M195,28.75C195,15.687,184.31,5,171.25,5H28.749C15.685,5,5,15.687,5,28.75v142.5
		C5,184.314,15.685,195,28.749,195H171.25c13.06,0,23.75-10.686,23.75-23.75"/>
	<path fill="none" stroke="#1C181B" d="M195,28.75C195,15.687,184.31,5,171.25,5H28.749C15.685,5,5,15.687,5,28.75v142.5
		C5,184.314,15.685,195,28.749,195H171.25c13.06,0,23.75-10.686,23.75-23.75V28.75z"/>
	<path fill="#056BB3" d="M99.994,12.124c23.614,0,42.755,19.142,42.755,42.75s-19.141,42.752-42.755,42.752
		c-23.608,0-42.743-19.144-42.743-42.752S76.386,12.124,99.994,12.124"/>
	<path fill="#FFFFFF" d="M91.098,28.06l3.824,36.227c0,0,0.899,4.494,4.647,4.494c4.363,0,5.029-4.421,5.029-4.421l3.971-36.374
		c0,0-0.485-8.775-8.695-8.775C91.104,19.209,91.098,28.06,91.098,28.06"/>
	<path fill="#FFFFFF" d="M99.983,90.815c4.773,0,8.646-3.874,8.646-8.645c0-4.778-3.872-8.647-8.646-8.647
		c-4.772,0-8.646,3.869-8.646,8.647C91.338,86.941,95.211,90.815,99.983,90.815"/>
	<path fill="#056BB3" d="M187.877,166.504c0,11.756-9.623,21.373-21.378,21.373H33.495c-11.756,0-21.372-9.617-21.372-21.373V123.75
		c0-11.754,9.616-21.376,21.372-21.376h133.004c11.755,0,21.378,9.622,21.378,21.376"/>
	<polyline fill="#FFFFFF" points="59.729,113.861 64.988,113.861 64.988,123.777 74.341,113.861 80.911,113.861 71.559,123.309 
		81.813,137.791 75.211,137.791 68.005,127.029 64.988,130.078 64.988,137.791 59.729,137.791 	"/>
	<path fill="#FFFFFF" d="M88.013,130.279c0.137,3.018,1.606,4.391,4.258,4.391c1.912,0,3.45-1.172,3.753-2.24h4.189
		c-1.34,4.084-4.189,5.83-8.109,5.83c-5.465,0-8.848-3.758-8.848-9.121c0-5.191,3.584-9.146,8.848-9.146
		c5.895,0,8.744,4.959,8.414,10.287 M95.756,127.264c-0.437-2.412-1.479-3.682-3.788-3.682c-3.017,0-3.887,2.344-3.955,3.682H95.756
		z"/>
	<path fill="#FFFFFF" d="M107.92,130.279c0.134,3.018,1.604,4.391,4.261,4.391c1.906,0,3.447-1.172,3.75-2.24h4.189
		c-1.34,4.084-4.189,5.83-8.111,5.83c-5.463,0-8.848-3.758-8.848-9.121c0-5.191,3.584-9.146,8.848-9.146
		c5.894,0,8.746,4.959,8.414,10.287 M115.666,127.264c-0.441-2.412-1.481-3.682-3.791-3.682c-3.017,0-3.884,2.344-3.955,3.682
		H115.666z"/>
	<path fill="#FFFFFF" d="M123.908,120.461h4.522v2.215h0.067c1.144-1.844,3.014-2.684,5.16-2.684c5.425,0,7.877,4.391,7.877,9.316
		c0,4.625-2.547,8.951-7.606,8.951c-2.078,0-4.053-0.906-5.195-2.617h-0.068v8.246h-4.757 M136.773,129.178
		c0-2.75-1.104-5.596-4.154-5.596c-3.114,0-4.121,2.775-4.121,5.596c0,2.814,1.069,5.492,4.154,5.492
		C135.772,134.67,136.773,131.992,136.773,129.178"/>
	<path fill="#FFFFFF" d="M72.564,163.428c-0.303-1.947-1.543-2.982-3.521-2.982c-3.05,0-4.056,3.082-4.056,5.629
		c0,2.482,0.974,5.465,3.955,5.465c2.214,0,3.485-1.406,3.788-3.523h4.59c-0.603,4.594-3.782,7.107-8.343,7.107
		c-5.226,0-8.747-3.688-8.747-8.881c0-5.395,3.216-9.381,8.848-9.381c4.089,0,7.842,2.143,8.145,6.566"/>
	<rect x="80.807" y="150.725" fill="#FFFFFF" width="4.76" height="23.93"/>
	<path fill="#FFFFFF" d="M93.912,167.148c0.131,3.018,1.609,4.391,4.258,4.391c1.912,0,3.45-1.172,3.756-2.246h4.188
		c-1.345,4.09-4.188,5.83-8.116,5.83c-5.46,0-8.843-3.752-8.843-9.115c0-5.191,3.584-9.146,8.843-9.146
		c5.902,0,8.749,4.957,8.414,10.287 M101.655,164.133c-0.434-2.418-1.476-3.688-3.788-3.688c-3.017,0-3.887,2.346-3.955,3.688
		H101.655z"/>
	<path fill="#FFFFFF" d="M109.695,162.654c0.271-4.457,4.258-5.793,8.145-5.793c3.453,0,7.612,0.77,7.612,4.926v9.01
		c0,1.578,0.163,3.154,0.6,3.857h-4.822c-0.172-0.535-0.305-1.107-0.338-1.674c-1.506,1.576-3.72,2.143-5.831,2.143
		c-3.286,0-5.896-1.641-5.896-5.193c0-3.922,2.945-4.859,5.896-5.264c2.918-0.436,5.629-0.332,5.629-2.279
		c0-2.041-1.407-2.346-3.084-2.346c-1.809,0-2.981,0.736-3.15,2.613 M120.689,166.178c-0.807,0.703-2.477,0.736-3.954,1.004
		c-1.476,0.299-2.814,0.801-2.814,2.547c0,1.773,1.374,2.209,2.918,2.209c3.72,0,3.851-2.945,3.851-3.986V166.178z"/>
	<path fill="#FFFFFF" d="M129.802,157.33h4.527v3.213h0.068c0.87-2.176,3.216-3.682,5.528-3.682c0.333,0,0.739,0.064,1.037,0.164
		v4.424c-0.437-0.1-1.141-0.164-1.708-0.164c-3.482,0-4.69,2.508-4.69,5.559v7.811h-4.763"/>
</g>
</svg>
