<?xml version="1.0" encoding="utf-8"?>
<!-- Generator: Adobe Illustrator 16.0.0, SVG Export Plug-In . SVG Version: 6.00 Build 0)  -->
<!DOCTYPE svg PUBLIC "-//W3C//DTD SVG 1.1//EN" "http://www.w3.org/Graphics/SVG/1.1/DTD/svg11.dtd">
<svg version="1.1" id="Layer_1" xmlns="http://www.w3.org/2000/svg" xmlns:xlink="http://www.w3.org/1999/xlink" x="0px" y="0px"
	 width="200px" height="200px" viewBox="0 -25 200 200" enable-background="new 0 -25 200 200" xml:space="preserve">
<g>
	<rect x="38.202" y="-20" fill="none" stroke="#000000" stroke-miterlimit="22.9256" width="123.596" height="187.886"/>
	<rect x="42.072" y="-16.313" fill="#3AABE2" width="115.779" height="112.979"/>
	<path fill="#976640" d="M90.316,36.169c0.688,1.693,1.218,4.187,2.699,9.004c0.74,2.413,1.66,3.562,3.22,3.562
		s2.325-1.231,2.759-3.58c0.863-4.694,3.402-18.728,3.402-18.732c1.452-6.552,8.764-6.887,12.187-1.795
		c3.424,5.095,4.343,6.637,5.607,8.497c1.219,1.792,2.097,3.064,4.486,3.157c-0.622-13.229-11.539-23.763-24.922-23.763
		c-12.771,0-23.293,9.593-24.771,21.962c2.026-1.539,4.293-3.479,7.545-3.479C86.39,31.003,89.283,33.63,90.316,36.169
		 M117.847,39.527c-1.701-2.285-7.582-11.477-8.159-12.213c-0.776-0.986-1.547-0.837-1.893,0.048
		c-0.343,0.883-1.575,10.12-3.491,19.43c-1.914,9.308-13.507,9.764-16.277,0.08c-2.77-9.688-3.391-10.389-5.572-10.389
		c-2.024,0-4.178,2.875-7.418,4.396c1.663,12.165,12.089,21.543,24.716,21.543c12.314,0,22.538-8.923,24.575-20.656h-0.041
		C121.136,41.77,119.544,41.812,117.847,39.527z"/>
	<path fill="#2307A2" d="M74.981,34.48C76.46,22.11,86.98,12.518,99.752,12.518c13.383,0,24.3,10.535,24.922,23.763
		c0.092,0.003,0.186,0.008,0.281,0.008h21.165l-0.875-8.909l-2.364-0.109c-0.32-1.363-0.704-2.698-1.147-4.007l1.971-1.378
		l-5.161-10.237l-2.244,0.754c-0.792-1.147-1.634-2.256-2.521-3.319l1.344-2.003l-8.504-7.683l-1.821,1.51
		c-1.146-0.785-2.329-1.518-3.546-2.194l0.529-2.342l-10.702-4.102l-1.153,2.062c-1.485-0.347-2.995-0.622-4.534-0.815l-0.375-2.379
		l-11.46,0.15l-0.311,2.349c-1.385,0.203-2.748,0.471-4.091,0.797l-1.202-2.077L77.311-3.368l0.56,2.297
		c-1.208,0.691-2.385,1.433-3.521,2.229l-1.877-1.507l-8.38,7.828l1.354,1.949c-0.878,1.071-1.707,2.188-2.482,3.341l-2.296-0.729
		l-4.995,10.317l1.955,1.321c-0.429,1.315-0.798,2.656-1.104,4.023l-2.401,0.145l-0.694,8.512
		c6.414-0.011,15.528-0.023,17.657-0.023C72.422,36.332,73.651,35.495,74.981,34.48"/>
	<path fill="#2307A2" d="M143.654,43.513c0.079-0.582,0.143-1.17,0.198-1.76c-7.709,0.008-17.557,0.019-19.525,0.019
		c-2.04,11.732-12.261,20.656-24.575,20.656c-12.627,0-23.054-9.376-24.716-21.543c-1.172,0.549-2.482,0.928-3.98,0.928
		c-3.045,0-9.804,0.001-15.396,0.004c0.068,0.718,0.153,1.426,0.256,2.133l-2.188,1.005l3.252,10.992l2.336-0.337
		c0.572,1.273,1.201,2.512,1.884,3.719l-1.674,1.725l6.993,9.081l2.072-1.162c0.984,0.973,2.018,1.905,3.092,2.783l-0.944,2.22
		l9.8,5.949l1.503-1.822c1.269,0.555,2.568,1.049,3.895,1.48l-0.078,2.4l11.288,2.012l0.746-2.25
		c0.808,0.031,1.621,0.047,2.438,0.035c0.579-0.01,1.155-0.029,1.727-0.061L102.85,84l11.253-2.193l-0.114-2.359
		c1.321-0.451,2.618-0.961,3.879-1.527l1.555,1.828l9.705-6.103l-0.963-2.168c1.064-0.891,2.087-1.835,3.063-2.818l2.122,1.151
		l6.849-9.197l-1.677-1.669c0.673-1.211,1.293-2.457,1.852-3.736l2.38,0.305l3.069-11.045L143.654,43.513z"/>
	<path fill="#FFFFFF" d="M82.793,11.091l-1.942,1.256l-3.644-5.625l1.656-1.07c1.129-0.731,2.115-0.594,2.67,0.258
		c0.349,0.539,0.333,1.146-0.062,1.629c0.834-0.358,1.664-0.092,2.173,0.689C84.146,9.004,84.14,10.217,82.793,11.091 M79.454,6.62
		l-0.531,0.344l0.802,1.242l0.498-0.324c0.454-0.295,0.582-0.711,0.336-1.091C80.312,6.41,79.901,6.332,79.454,6.62z M81.159,8.628
		l-0.817,0.529l0.99,1.528l0.733-0.476c0.565-0.367,0.733-0.847,0.427-1.32C82.12,8.317,81.583,8.355,81.159,8.628z"/>
	<path fill="#FFFFFF" d="M89.697,7.741l-2.684-1.83l-0.565,0.216l0.959,2.496l-1.22,0.471l-2.405-6.257l2.027-0.78
		c1.284-0.494,2.387-0.141,2.832,1.01c0.297,0.772,0.097,1.545-0.547,2.106l3.039,2.021L89.697,7.741z M86.105,3.158l-0.693,0.267
		l0.633,1.642l0.579-0.224c0.715-0.273,1.013-0.756,0.806-1.299C87.238,3.057,86.741,2.914,86.105,3.158z"/>
	<path fill="#FFFFFF" d="M95.325,6.589c-1.914,0.263-3.687-0.963-3.965-2.975c-0.276-2.001,1.105-3.662,3.008-3.925
		c1.901-0.265,3.685,0.961,3.963,2.972C98.608,4.663,97.224,6.326,95.325,6.589 M94.547,0.962c-1.244,0.174-2.039,1.247-1.868,2.48
		c0.169,1.225,1.226,2.044,2.47,1.871c1.243-0.174,2.038-1.245,1.869-2.47C96.847,1.609,95.789,0.792,94.547,0.962z"/>
	<polygon fill="#FFFFFF" points="105.261,6.621 102.275,1.593 101.706,6.182 100.411,6.02 101.232,-0.633 102.532,-0.471 
		105.512,4.574 106.082,-0.033 107.377,0.128 106.553,6.781 	"/>
	<polygon fill="#FFFFFF" points="107.901,7.14 113.037,3.167 109.935,2 110.349,0.897 115.504,2.84 110.423,6.777 113.573,7.965 
		113.14,9.113 	"/>
	<polygon fill="#FFFFFF" points="114.494,9.864 118.073,4.198 121.59,6.417 120.968,7.403 118.556,5.879 117.811,7.061 
		119.799,8.316 119.174,9.311 117.184,8.055 116.235,9.55 118.863,11.207 118.226,12.22 	"/>
	<rect x="42.072" y="91.293" fill="#2307A2" width="115.811" height="63.293"/>
	<polygon fill="#FFFFFF" points="59.008,101.99 59.008,107.725 68.02,107.725 68.02,112.518 59.008,112.518 59.008,124.557 
		53.686,124.557 53.686,97.24 70.396,97.24 70.396,101.99 	"/>
	<path fill="#FFFFFF" d="M87.43,125.092c-7.863,0-14.336-5.939-14.336-14.211c0-8.234,6.514-14.17,14.336-14.17
		s14.336,5.936,14.336,14.207C101.766,119.152,95.252,125.092,87.43,125.092 M87.43,101.951c-5.119,0-8.928,3.889-8.928,8.967
		c0,5.039,3.809,8.928,8.928,8.928s8.929-3.889,8.929-8.928C96.358,105.84,92.549,101.951,87.43,101.951z"/>
	<path fill="#FFFFFF" d="M121.345,124.557l-7.537-10.893h-2.461v10.893h-5.323V97.24h8.847c5.609,0,9.297,2.949,9.297,7.99
		c0,3.354-1.885,6.016-5.159,7.203l8.601,12.123H121.345L121.345,124.557z M114.378,101.867h-3.031v7.168h2.54
		c3.113,0,4.954-1.393,4.954-3.768C118.841,103.137,117.163,101.867,114.378,101.867z"/>
	<path fill="#FFFFFF" d="M138.377,125.092c-4.544,0-8.029-2.826-9.335-5.775l4.545-2.584c1.186,2.338,2.786,3.443,5.078,3.443
		c2.132,0,3.48-1.512,3.48-3.48c0-1.801-1.062-2.865-3.89-4.342l-3.234-1.678c-3.071-1.596-4.547-4.096-4.547-6.84
		c0-4.258,3.562-7.125,8.068-7.125c3.809,0,6.554,1.762,7.779,4.709l-4.463,2.416c-0.696-1.434-1.68-2.416-3.4-2.416
		c-1.719,0-2.825,0.941-2.825,2.295c0,1.518,1.229,2.211,3.602,3.355l3.033,1.477c3.439,1.68,5.121,4.381,5.121,8.027
		C147.388,121.773,143.824,125.092,138.377,125.092"/>
	<polygon fill="#FFFFFF" points="59.008,101.99 59.008,107.725 68.02,107.725 68.02,112.518 59.008,112.518 59.008,124.557 
		53.686,124.557 53.686,97.24 70.396,97.24 70.396,101.99 	"/>
	<path fill="#FFFFFF" d="M87.43,125.092c-7.863,0-14.336-5.939-14.336-14.211c0-8.234,6.514-14.17,14.336-14.17
		s14.336,5.936,14.336,14.207C101.766,119.152,95.252,125.092,87.43,125.092 M87.43,101.951c-5.119,0-8.928,3.889-8.928,8.967
		c0,5.039,3.809,8.928,8.928,8.928s8.929-3.889,8.929-8.928C96.358,105.84,92.549,101.951,87.43,101.951z"/>
	<path fill="#FFFFFF" d="M121.345,124.557l-7.537-10.893h-2.461v10.893h-5.323V97.24h8.847c5.609,0,9.297,2.949,9.297,7.99
		c0,3.354-1.885,6.016-5.159,7.203l8.601,12.123H121.345L121.345,124.557z M114.378,101.867h-3.031v7.168h2.54
		c3.113,0,4.954-1.393,4.954-3.768C118.841,103.137,117.163,101.867,114.378,101.867z"/>
	<path fill="#FFFFFF" d="M138.377,125.092c-4.544,0-8.029-2.826-9.335-5.775l4.545-2.584c1.186,2.338,2.786,3.443,5.078,3.443
		c2.132,0,3.48-1.512,3.48-3.48c0-1.801-1.062-2.865-3.89-4.342l-3.234-1.678c-3.071-1.596-4.547-4.096-4.547-6.84
		c0-4.258,3.562-7.125,8.068-7.125c3.809,0,6.554,1.762,7.779,4.709l-4.463,2.416c-0.696-1.434-1.68-2.416-3.4-2.416
		c-1.719,0-2.825,0.941-2.825,2.295c0,1.518,1.229,2.211,3.602,3.355l3.033,1.477c3.439,1.68,5.121,4.381,5.121,8.027
		C147.388,121.773,143.824,125.092,138.377,125.092"/>
	<polygon fill="#FFFFFF" points="53.868,138.477 53.868,130.73 58.384,130.73 58.384,131.805 55.052,131.805 55.052,133.736 
		57.873,133.736 57.873,134.818 55.052,134.818 55.052,138.477 	"/>
	<polygon fill="#FFFFFF" points="60.001,138.477 60.001,130.73 61.188,130.73 61.188,137.371 64.913,137.371 64.913,138.477 	"/>
	<polygon fill="#FFFFFF" points="66.53,138.477 66.53,130.73 71.34,130.73 71.34,131.805 67.716,131.805 67.716,133.713 
		70.757,133.713 70.757,134.797 67.716,134.797 67.716,137.393 71.521,137.393 71.521,138.477 	"/>
	<polygon fill="#FFFFFF" points="73.142,138.477 73.142,130.73 77.951,130.73 77.951,131.805 74.326,131.805 74.326,133.713 
		77.365,133.713 77.365,134.797 74.326,134.797 74.326,137.393 78.132,137.393 78.132,138.477 	"/>
	<polygon fill="#FFFFFF" points="81.614,138.477 81.614,131.805 79.144,131.805 79.144,130.73 85.281,130.73 85.281,131.805 
		82.803,131.805 82.803,138.477 	"/>
	<path fill="#FFFFFF" d="M93.135,138.631c-0.732,0-1.413-0.176-2.039-0.527c-0.627-0.35-1.118-0.84-1.477-1.463
		c-0.36-0.629-0.541-1.305-0.541-2.043c0-0.734,0.181-1.412,0.541-2.029c0.358-0.621,0.85-1.105,1.477-1.461
		c0.627-0.354,1.307-0.531,2.039-0.531c0.729,0,1.408,0.174,2.033,0.529c0.626,0.352,1.121,0.838,1.482,1.461
		c0.358,0.621,0.538,1.297,0.538,2.031c0,0.742-0.18,1.424-0.538,2.047c-0.361,0.625-0.857,1.113-1.482,1.463
		C94.545,138.455,93.865,138.631,93.135,138.631 M93.135,137.523c0.821,0,1.501-0.275,2.038-0.832
		c0.541-0.553,0.81-1.252,0.81-2.094c0-0.838-0.269-1.531-0.81-2.086c-0.539-0.553-1.217-0.83-2.038-0.83
		c-0.814,0-1.496,0.277-2.036,0.83c-0.542,0.557-0.812,1.248-0.812,2.086c0,0.84,0.271,1.537,0.812,2.092
		C91.641,137.246,92.32,137.523,93.135,137.523z"/>
	<path fill="#FFFFFF" d="M99.996,135.465v3.012h-1.184v-7.746h2.25c0.94,0,1.663,0.195,2.171,0.588
		c0.513,0.391,0.768,0.975,0.768,1.742c0,0.762-0.258,1.354-0.768,1.775c-0.513,0.42-1.198,0.629-2.058,0.629H99.996L99.996,135.465
		z M99.996,131.807v2.58h1.101c1.131,0,1.693-0.426,1.693-1.275c0-0.871-0.562-1.305-1.693-1.305H99.996z"/>
	<polygon fill="#FFFFFF" points="105.506,138.477 105.506,130.73 110.313,130.73 110.313,131.805 106.688,131.805 106.688,133.713 
		109.729,133.713 109.729,134.797 106.688,134.797 106.688,137.393 110.494,137.393 110.494,138.477 	"/>
	<path fill="#FFFFFF" d="M116.359,138.477l-2.096-3.232H113.3v3.232h-1.185v-7.746h1.994c0.927,0,1.632,0.197,2.117,0.59
		c0.488,0.396,0.731,0.949,0.731,1.658c0,0.502-0.133,0.932-0.396,1.293c-0.263,0.359-0.632,0.605-1.101,0.738l2.309,3.467H116.359z
		 M113.3,131.787v2.402h0.951c0.488,0.002,0.863-0.098,1.126-0.309c0.26-0.211,0.394-0.514,0.394-0.912
		c0-0.4-0.142-0.699-0.433-0.891c-0.289-0.197-0.729-0.291-1.32-0.291H113.3L113.3,131.787z"/>
	<path fill="#FFFFFF" d="M124.396,138.477l-0.754-1.863h-3.337l-0.732,1.863h-1.253l3.124-7.748h1.001l3.238,7.748H124.396z
		 M123.233,135.539l-1.276-3.211l-1.232,3.211H123.233z"/>
	<polygon fill="#FFFFFF" points="127.671,138.477 127.671,131.805 125.2,131.805 125.2,130.73 131.335,130.73 131.335,131.805 
		128.856,131.805 128.856,138.477 	"/>
	<path fill="#FFFFFF" d="M135.936,138.631c-0.733,0-1.414-0.176-2.038-0.527c-0.627-0.35-1.117-0.84-1.477-1.463
		c-0.358-0.629-0.539-1.305-0.539-2.043c0-0.734,0.181-1.412,0.539-2.029c0.359-0.621,0.85-1.105,1.477-1.461
		c0.627-0.354,1.305-0.531,2.038-0.531c0.731,0,1.409,0.174,2.032,0.529c0.628,0.352,1.119,0.838,1.48,1.461
		c0.361,0.621,0.544,1.297,0.544,2.031c0,0.742-0.183,1.424-0.544,2.047c-0.361,0.625-0.854,1.113-1.48,1.463
		C137.345,138.455,136.667,138.631,135.936,138.631 M135.936,137.523c0.818,0,1.499-0.275,2.038-0.832
		c0.539-0.553,0.811-1.252,0.811-2.094c0-0.838-0.271-1.531-0.811-2.086c-0.539-0.553-1.22-0.83-2.038-0.83
		c-0.815,0-1.494,0.277-2.036,0.83c-0.542,0.557-0.81,1.248-0.81,2.086c0,0.84,0.268,1.537,0.81,2.092
		C134.441,137.246,135.12,137.523,135.936,137.523z"/>
	<path fill="#FFFFFF" d="M145.857,138.477l-2.097-3.232h-0.966v3.232h-1.184v-7.746h1.994c0.926,0,1.629,0.197,2.117,0.59
		c0.488,0.396,0.733,0.949,0.733,1.658c0,0.502-0.134,0.932-0.397,1.293c-0.266,0.359-0.633,0.605-1.102,0.738l2.308,3.467H145.857z
		 M142.795,131.787v2.402h0.951c0.491,0.002,0.865-0.098,1.128-0.309c0.261-0.211,0.391-0.514,0.391-0.912
		c0-0.4-0.144-0.699-0.432-0.891c-0.291-0.197-0.73-0.291-1.318-0.291H142.795L142.795,131.787z"/>
	<path fill="#FFFFFF" d="M56.891,148.57l-1.612-2.486h-0.743v2.486h-0.912v-5.959h1.535c0.709,0,1.252,0.152,1.626,0.455
		c0.377,0.305,0.564,0.73,0.564,1.277c0,0.385-0.103,0.715-0.307,0.992c-0.203,0.279-0.484,0.469-0.844,0.57l1.774,2.666h-1.082
		V148.57z M54.535,143.422v1.85h0.732c0.376,0.002,0.662-0.074,0.867-0.236c0.201-0.162,0.301-0.395,0.301-0.701
		s-0.109-0.537-0.333-0.686c-0.224-0.15-0.56-0.227-1.016-0.227H54.535z"/>
	<polygon fill="#FFFFFF" points="58.746,148.57 58.746,142.611 62.448,142.611 62.448,143.439 59.658,143.439 59.658,144.904 
		61.997,144.904 61.997,145.738 59.658,145.738 59.658,147.738 62.586,147.738 62.586,148.57 	"/>
	<path fill="#FFFFFF" d="M66.244,148.684c-0.889,0-1.629-0.297-2.226-0.891c-0.597-0.6-0.896-1.338-0.896-2.215
		c0-0.562,0.14-1.078,0.415-1.553c0.276-0.479,0.652-0.852,1.132-1.119c0.479-0.271,0.995-0.41,1.551-0.412
		c0.756,0,1.402,0.156,1.938,0.469v0.896c-0.344-0.203-0.658-0.342-0.944-0.418s-0.608-0.113-0.966-0.113
		c-0.623,0-1.143,0.213-1.562,0.639s-0.629,0.951-0.629,1.572c0,0.668,0.206,1.221,0.619,1.658c0.41,0.439,0.94,0.66,1.59,0.66
		c0.37,0,0.694-0.043,0.976-0.121c0.28-0.084,0.587-0.221,0.92-0.418v0.906C67.602,148.531,66.966,148.684,66.244,148.684"/>
	<path fill="#FFFFFF" d="M72.034,148.688c-0.563,0-1.087-0.133-1.566-0.404c-0.481-0.271-0.86-0.643-1.14-1.125
		c-0.272-0.48-0.414-1.002-0.414-1.57c0-0.564,0.14-1.084,0.414-1.561c0.279-0.479,0.656-0.854,1.14-1.125
		c0.479-0.27,1.005-0.408,1.566-0.408c0.562,0,1.082,0.135,1.565,0.404c0.48,0.273,0.86,0.648,1.139,1.125
		c0.274,0.48,0.416,1,0.416,1.564c0,0.57-0.14,1.096-0.416,1.576c-0.278,0.479-0.658,0.854-1.139,1.121
		C73.116,148.555,72.597,148.688,72.034,148.688 M72.034,147.838c0.633,0,1.155-0.213,1.568-0.639
		c0.416-0.426,0.623-0.963,0.623-1.611c0-0.643-0.209-1.178-0.623-1.604c-0.413-0.426-0.937-0.639-1.568-0.639
		c-0.63,0-1.15,0.213-1.565,0.639s-0.622,0.961-0.622,1.604c0,0.646,0.206,1.182,0.622,1.609
		C70.884,147.623,71.405,147.838,72.034,147.838z"/>
	<path fill="#FFFFFF" d="M79.034,148.684c-0.888,0-1.628-0.297-2.225-0.891c-0.597-0.6-0.896-1.338-0.896-2.215
		c0-0.562,0.142-1.078,0.424-1.553c0.28-0.479,0.666-0.852,1.156-1.119c0.485-0.271,1.004-0.41,1.559-0.412
		c0.393,0,0.754,0.041,1.083,0.123s0.673,0.225,1.034,0.432v0.939c-0.43-0.264-0.797-0.439-1.102-0.527
		c-0.306-0.088-0.634-0.133-0.989-0.133c-0.629,0-1.155,0.213-1.588,0.643c-0.431,0.43-0.646,0.953-0.646,1.568
		c0,0.67,0.209,1.225,0.621,1.662c0.412,0.443,0.941,0.664,1.589,0.664c0.459,0,0.894-0.088,1.304-0.258v-1.438h-1.115v-0.836h2.027
		v2.783c-0.311,0.172-0.668,0.311-1.068,0.412C79.8,148.633,79.412,148.684,79.034,148.684"/>
	<polygon fill="#FFFFFF" points="87.768,148.57 86.932,148.57 83.426,144.119 83.426,148.57 82.514,148.57 82.514,142.611 
		83.341,142.611 86.853,147.061 86.853,142.611 87.768,142.611 	"/>
	<rect x="89.099" y="142.609" fill="#FFFFFF" width="0.913" height="5.961"/>
	<polygon fill="#FFFFFF" points="92.776,148.57 92.776,143.439 90.876,143.439 90.876,142.611 95.596,142.611 95.596,143.439 
		93.688,143.439 93.688,148.57 	"/>
	<rect x="96.467" y="142.609" fill="#FFFFFF" width="0.912" height="5.961"/>
	<path fill="#FFFFFF" d="M101.54,148.688c-0.566,0-1.089-0.133-1.568-0.404c-0.48-0.271-0.86-0.643-1.137-1.125
		c-0.277-0.48-0.414-1.002-0.414-1.57c0-0.564,0.137-1.084,0.414-1.561c0.276-0.479,0.658-0.854,1.137-1.125
		c0.48-0.27,1.004-0.408,1.568-0.408c0.562,0,1.081,0.135,1.563,0.404c0.482,0.273,0.861,0.648,1.141,1.125
		c0.276,0.48,0.418,1,0.418,1.564c0,0.57-0.142,1.096-0.418,1.576c-0.279,0.479-0.658,0.854-1.141,1.121
		C102.621,148.555,102.102,148.688,101.54,148.688 M101.54,147.838c0.632,0,1.155-0.213,1.569-0.639
		c0.415-0.426,0.621-0.963,0.621-1.611c0-0.643-0.206-1.178-0.621-1.604c-0.414-0.426-0.938-0.639-1.569-0.639
		c-0.63,0-1.151,0.213-1.566,0.639c-0.414,0.426-0.625,0.961-0.625,1.604c0,0.646,0.209,1.182,0.625,1.609
		C100.391,147.623,100.912,147.838,101.54,147.838z"/>
	<polygon fill="#FFFFFF" points="110.961,148.57 110.13,148.57 106.621,144.119 106.621,148.57 105.708,148.57 105.708,142.611 
		106.539,142.611 110.049,147.061 110.049,142.611 110.961,142.611 	"/>
	<path fill="#FFFFFF" d="M115.928,148.684c-0.409,0-0.768-0.102-1.075-0.307c-0.308-0.203-0.579-0.52-0.817-0.957l0.714-0.486
		c0.143,0.305,0.311,0.531,0.513,0.68c0.2,0.15,0.432,0.225,0.691,0.225c0.321,0,0.576-0.08,0.777-0.242
		c0.198-0.162,0.298-0.373,0.298-0.633c0-0.227-0.076-0.43-0.227-0.605c-0.151-0.172-0.486-0.393-1.007-0.666
		c-0.387-0.189-0.67-0.357-0.858-0.496c-0.186-0.137-0.33-0.303-0.433-0.506c-0.102-0.199-0.154-0.434-0.154-0.703
		c-0.003-0.428,0.155-0.783,0.482-1.066c0.319-0.285,0.74-0.426,1.249-0.426c0.753,0.002,1.318,0.311,1.707,0.922l-0.689,0.5
		c-0.122-0.195-0.271-0.342-0.448-0.439s-0.376-0.15-0.604-0.15c-0.242,0-0.436,0.057-0.572,0.172
		c-0.139,0.117-0.206,0.27-0.206,0.453c0,0.172,0.067,0.32,0.206,0.445c0.137,0.123,0.432,0.299,0.88,0.527
		c0.41,0.207,0.723,0.396,0.937,0.568c0.216,0.168,0.385,0.367,0.501,0.598c0.115,0.232,0.175,0.502,0.175,0.811
		c0,0.506-0.197,0.928-0.587,1.27C116.992,148.516,116.506,148.684,115.928,148.684"/>
	<path fill="#FFFFFF" d="M121.827,148.684c-0.885,0-1.629-0.297-2.222-0.891c-0.598-0.6-0.894-1.338-0.894-2.215
		c0-0.562,0.138-1.078,0.411-1.553c0.273-0.479,0.649-0.852,1.129-1.119c0.48-0.271,0.995-0.41,1.553-0.412
		c0.754,0,1.403,0.156,1.936,0.469v0.896c-0.344-0.203-0.659-0.342-0.944-0.418s-0.61-0.113-0.969-0.113
		c-0.622,0-1.141,0.213-1.558,0.639c-0.421,0.426-0.63,0.951-0.63,1.572c0,0.668,0.206,1.221,0.618,1.658
		c0.409,0.439,0.94,0.66,1.591,0.66c0.37,0,0.692-0.043,0.974-0.121c0.281-0.084,0.586-0.221,0.919-0.418v0.906
		C123.187,148.531,122.55,148.684,121.827,148.684"/>
	<polygon fill="#FFFFFF" points="128.719,148.57 128.719,145.727 125.7,145.727 125.7,148.57 124.785,148.57 124.785,142.611 
		125.7,142.611 125.7,144.896 128.719,144.896 128.719,142.611 129.631,142.611 129.631,148.57 	"/>
	<polygon fill="#FFFFFF" points="130.963,148.57 130.963,142.611 134.663,142.611 134.663,143.439 131.877,143.439 131.877,144.904 
		134.214,144.904 134.214,145.738 131.877,145.738 131.877,147.738 134.804,147.738 134.804,148.57 	"/>
	<polygon fill="#FFFFFF" points="141.886,148.57 140.978,148.57 140.978,143.959 138.863,146.49 136.763,143.959 136.763,148.57 
		135.851,148.57 135.851,142.611 136.763,142.611 138.868,145.129 140.978,142.611 141.886,142.611 	"/>
	<polygon fill="#FFFFFF" points="143.226,148.57 143.226,142.611 146.925,142.611 146.925,143.439 144.138,143.439 144.138,144.904 
		146.478,144.904 146.478,145.738 144.138,145.738 144.138,147.738 147.063,147.738 147.063,148.57 	"/>
	<text transform="matrix(1 0 0 1 67.3369 165.7285)" font-family="'ArialMT'" font-size="13.152">ID: 001234</text>
	<path fill="#FFFFFF" d="M90.318,36.167c0.69,1.689,1.216,4.187,2.697,9.007c0.74,2.408,1.66,3.556,3.22,3.556
		s2.327-1.228,2.761-3.579c0.861-4.691,3.402-18.728,3.4-18.731c1.454-6.552,8.764-6.885,12.187-1.794
		c3.425,5.092,4.343,6.634,5.61,8.497c1.216,1.793,2.096,3.058,4.483,3.152c-0.622-13.226-11.539-23.76-24.922-23.76
		c-12.771,0-23.291,9.593-24.77,21.962c2.024-1.539,4.293-3.479,7.543-3.479C86.39,31,89.285,33.625,90.318,36.167 M117.847,39.524
		c-1.701-2.285-7.584-11.476-8.157-12.211c-0.778-0.993-1.55-0.838-1.892,0.048c-0.345,0.881-1.578,10.118-3.494,19.426
		c-1.914,9.309-13.507,9.77-16.275,0.08c-2.769-9.685-3.392-10.389-5.574-10.389c-2.022,0-4.176,2.875-7.42,4.399
		C76.699,53.045,87.125,62.42,99.752,62.42c12.314,0,22.537-8.921,24.573-20.653h-0.042
		C121.137,41.77,119.544,41.809,117.847,39.524z"/>
	<path fill="#2307A2" d="M74.982,34.477c1.479-12.373,12-21.966,24.771-21.966c13.382,0,24.302,10.539,24.923,23.763
		c0.093,0.005,0.185,0.011,0.282,0.011c2.204,0,13.484,0,21.164-0.003l-0.877-8.907l-2.362-0.111
		c-0.319-1.361-0.703-2.696-1.145-4.006l1.969-1.375l-5.162-10.237l-2.245,0.752c-0.79-1.145-1.632-2.253-2.521-3.317l1.347-2.005
		l-8.507-7.685l-1.822,1.513c-1.145-0.785-2.327-1.517-3.546-2.195l0.531-2.345l-10.703-4.099l-1.154,2.064
		c-1.483-0.349-2.995-0.623-4.532-0.819l-0.375-2.376L93.555-8.72l-0.308,2.35c-1.385,0.208-2.751,0.471-4.092,0.799L87.951-7.65
		L77.314-3.375l0.557,2.299c-1.208,0.69-2.381,1.433-3.519,2.229l-1.878-1.507l-8.379,7.825l1.355,1.951
		c-0.879,1.076-1.708,2.19-2.484,3.34l-2.297-0.728l-4.993,10.319l1.957,1.32c-0.431,1.315-0.799,2.657-1.106,4.021l-2.402,0.148
		l-0.694,8.51c6.414-0.009,15.529-0.023,17.657-0.023C72.422,36.329,73.651,35.49,74.982,34.477"/>
	<path fill="#2307A2" d="M143.654,43.51c0.081-0.584,0.143-1.171,0.199-1.76c-7.709,0.004-17.558,0.016-19.525,0.016
		C122.29,53.5,112.069,62.421,99.753,62.421c-12.626,0-23.052-9.375-24.717-21.543c-1.169,0.55-2.479,0.928-3.979,0.928
		c-3.045,0-9.806,0.002-15.398,0.005c0.069,0.716,0.153,1.425,0.256,2.132l-2.188,1.003l3.252,10.997l2.336-0.341
		c0.572,1.273,1.201,2.514,1.886,3.717l-1.675,1.728l6.993,9.078l2.073-1.159c0.985,0.973,2.018,1.902,3.092,2.784l-0.944,2.22
		l9.801,5.947l1.502-1.822c1.269,0.555,2.567,1.051,3.895,1.482l-0.078,2.4l11.286,2.006l0.746-2.246
		c0.809,0.033,1.621,0.047,2.439,0.035c0.576-0.008,1.153-0.029,1.724-0.061l0.796,2.277l11.253-2.193l-0.117-2.361
		c1.322-0.447,2.62-0.955,3.882-1.523l1.555,1.83l9.705-6.106l-0.963-2.169c1.064-0.891,2.087-1.831,3.063-2.815l2.122,1.147
		l6.849-9.193l-1.677-1.669c0.673-1.212,1.291-2.458,1.852-3.737l2.38,0.306l3.068-11.045L143.654,43.51z"/>
	<path fill="#FFFFFF" d="M82.905,11.467l-1.091,0.896l-1.172-0.681l-2.104,1.723l0.435,1.288L77.9,15.57l-2.235-6.73l1.051-0.862
		L82.905,11.467z M79.554,11.055l-2.266-1.302l0.844,2.47L79.554,11.055z"/>
	<path fill="#FFFFFF" d="M80.598,5.224l1.966-1.041c0.627-0.331,1.209-0.433,1.745-0.305c0.538,0.127,0.956,0.471,1.257,1.032
		c0.298,0.561,0.344,1.114,0.143,1.656c-0.203,0.542-0.626,0.98-1.267,1.318l-0.763,0.406l1.157,2.185l-1.138,0.604L80.598,5.224z
		 M82.263,5.61l0.878,1.657l0.686-0.363c0.695-0.369,0.899-0.832,0.605-1.383c-0.292-0.553-0.789-0.641-1.493-0.269L82.263,5.61z"/>
	<path fill="#FFFFFF" d="M86.562,2.312l2.118-0.674c0.679-0.219,1.268-0.216,1.772,0.005c0.504,0.221,0.855,0.633,1.054,1.239
		c0.193,0.607,0.143,1.157-0.152,1.653c-0.298,0.497-0.789,0.855-1.479,1.077l-0.823,0.26l0.753,2.356l-1.228,0.393L86.562,2.312z
		 M88.132,2.986l0.571,1.79l0.737-0.238c0.753-0.239,1.033-0.658,0.842-1.256c-0.188-0.593-0.663-0.769-1.418-0.527L88.132,2.986z"
		/>
	<path fill="#FFFFFF" d="M98.975,6.41l-1.507,0.186l-2.139-2.397l-0.591,0.074l0.323,2.622l-1.277,0.159l-0.817-6.574l2.13-0.26
		c0.685-0.088,1.25,0.021,1.697,0.315c0.442,0.295,0.702,0.737,0.776,1.325c0.05,0.403-0.014,0.772-0.19,1.101
		c-0.178,0.328-0.455,0.593-0.834,0.791L98.975,6.41z M94.386,1.436L94.6,3.162l0.609-0.076c0.381-0.048,0.662-0.165,0.85-0.351
		c0.189-0.187,0.268-0.422,0.231-0.705c-0.03-0.253-0.15-0.44-0.358-0.562c-0.205-0.122-0.479-0.162-0.814-0.122L94.386,1.436z"/>
	<path fill="#FFFFFF" d="M102.793,6.775c-0.962-0.085-1.75-0.487-2.365-1.201c-0.612-0.715-0.876-1.559-0.787-2.538
		c0.089-0.979,0.499-1.764,1.23-2.355c0.733-0.59,1.58-0.843,2.543-0.754c0.96,0.091,1.75,0.487,2.361,1.197
		c0.611,0.707,0.874,1.553,0.79,2.538c-0.086,0.971-0.496,1.757-1.229,2.353C104.603,6.61,103.753,6.864,102.793,6.775
		 M102.906,5.512c0.615,0.057,1.142-0.104,1.595-0.481c0.447-0.374,0.7-0.869,0.754-1.474c0.055-0.618-0.104-1.15-0.478-1.604
		c-0.375-0.451-0.868-0.705-1.479-0.76c-0.616-0.054-1.146,0.105-1.596,0.484c-0.451,0.377-0.705,0.873-0.759,1.488
		c-0.054,0.607,0.104,1.138,0.479,1.588C101.798,5.203,102.291,5.459,102.906,5.512z"/>
	<polygon fill="#FFFFFF" points="114.124,2.522 109.76,8.101 108.631,7.75 108.146,0.661 109.486,1.078 109.763,6.079 
		112.797,2.107 	"/>
	<polygon fill="#FFFFFF" points="116.323,11.094 112.458,9.078 115.521,3.208 119.165,5.111 118.635,6.128 116.134,4.82 
		115.496,6.047 117.557,7.123 117.021,8.154 114.959,7.081 114.147,8.626 116.87,10.045 	"/>
	<path fill="#FFFFFF" d="M121.558,6.601l1.752,1.434c0.825,0.674,1.293,1.451,1.399,2.333c0.053,0.439,0.021,0.859-0.096,1.259
		c-0.117,0.397-0.321,0.778-0.615,1.135c-0.313,0.38-0.666,0.672-1.058,0.873c-0.394,0.203-0.829,0.315-1.305,0.338
		c-0.954,0.051-1.9-0.31-2.84-1.076l-1.429-1.17L121.558,6.601z M119.099,11.645l0.493,0.4c0.593,0.484,1.195,0.723,1.812,0.711
		c0.612-0.012,1.129-0.272,1.547-0.783c0.419-0.51,0.581-1.054,0.491-1.63c-0.092-0.572-0.433-1.103-1.02-1.584l-0.574-0.474
		L119.099,11.645z"/>
</g>
</svg>
