<?xml version="1.0" encoding="utf-8"?>
<!-- Generator: Adobe Illustrator 16.0.0, SVG Export Plug-In . SVG Version: 6.00 Build 0)  -->
<!DOCTYPE svg PUBLIC "-//W3C//DTD SVG 1.1//EN" "http://www.w3.org/Graphics/SVG/1.1/DTD/svg11.dtd">
<svg version="1.1" id="Layer_1" xmlns="http://www.w3.org/2000/svg" xmlns:xlink="http://www.w3.org/1999/xlink" x="0px" y="0px"
	 width="200px" height="200px" viewBox="0 0 200 200" enable-background="new 0 0 200 200" xml:space="preserve">
<path fill="#F8EECC" d="M161.966,194.839c4.181,0,7.597-3.419,7.597-7.601V12.442c0-4.183-3.416-7.603-7.597-7.603H37.834
	c-4.181,0-7.602,3.42-7.602,7.603v174.796c0,4.182,3.42,7.601,7.602,7.601"/>
<path fill="none" stroke="#1C181B" stroke-width="0.9575" d="M161.966,194.839c4.181,0,7.597-3.419,7.597-7.601V12.442
	c0-4.183-3.416-7.603-7.597-7.603H37.834c-4.181,0-7.602,3.42-7.602,7.603v174.796c0,4.182,3.42,7.601,7.602,7.601H161.966z"/>
<path fill="#F7F0DF" d="M166.4,187.238c0,2.44-1.995,4.434-4.435,4.434H37.834c-2.441,0-4.435-1.993-4.435-4.434V12.441
	c0-2.441,1.994-4.435,4.435-4.435h124.131c2.439,0,4.435,1.994,4.435,4.435"/>
<path fill="none" stroke="#1C181B" stroke-width="0.2873" d="M166.4,187.238c0,2.44-1.995,4.434-4.435,4.434H37.834
	c-2.441,0-4.435-1.993-4.435-4.434V12.441c0-2.441,1.994-4.435,4.435-4.435h124.131c2.439,0,4.435,1.994,4.435,4.435V187.238z"/>
<path fill="#F5F0F0" d="M164.454,187.874c0,1.043-0.855,1.898-1.898,1.898H37.244c-1.043,0-1.898-0.855-1.898-1.898V11.807
	c0-1.043,0.854-1.9,1.898-1.9h125.312c1.043,0,1.898,0.856,1.898,1.9"/>
<path fill="none" stroke="#1C181B" stroke-width="0.2873" d="M164.454,187.874c0,1.043-0.855,1.898-1.898,1.898H37.244
	c-1.043,0-1.898-0.855-1.898-1.898V11.807c0-1.043,0.854-1.9,1.898-1.9h125.312c1.043,0,1.898,0.856,1.898,1.9V187.874z"/>
<path fill="#F5F0F0" d="M163.23,187.556c0,0.523-0.423,0.95-0.946,0.95H37.517c-0.522,0-0.948-0.427-0.948-0.95V12.125
	c0-0.525,0.426-0.95,0.948-0.95h124.768c0.523,0,0.946,0.424,0.946,0.95"/>
<path fill="#FFFFFF" d="M163.23,175.841c0,6.967-5.694,12.665-12.665,12.665H49.232c-6.965,0-12.664-5.698-12.664-12.665v-152
	c0-6.966,5.699-12.666,12.664-12.666h101.333c6.971,0,12.665,5.699,12.665,12.666"/>
<path fill="none" stroke="#1C181B" stroke-width="0.2873" d="M163.23,175.841c0,6.967-5.694,12.665-12.665,12.665H49.232
	c-6.965,0-12.664-5.698-12.664-12.665v-152c0-6.966,5.699-12.666,12.664-12.666h101.333c6.971,0,12.665,5.699,12.665,12.666V175.841
	z"/>
<g>
	<path fill="#026CB3" d="M52.18,24.396c5.7,0,10.319,4.618,10.319,10.317c0,5.7-4.621,10.318-10.319,10.318
		c-5.697,0-10.318-4.618-10.318-10.318C41.862,29.014,46.482,24.396,52.18,24.396"/>
	<path fill="#FFFFFF" d="M50.033,28.24l0.923,8.741c0,0,0.219,1.086,1.124,1.086c1.051,0,1.213-1.067,1.213-1.067l0.959-8.778
		c0,0-0.118-2.118-2.099-2.118C50.035,26.105,50.033,28.24,50.033,28.24"/>
	<path fill="#FFFFFF" d="M52.177,43.385c1.154,0,2.085-0.932,2.085-2.085c0-1.15-0.931-2.085-2.085-2.085
		c-1.153,0-2.086,0.935-2.086,2.085C50.091,42.453,51.024,43.385,52.177,43.385"/>
	<path fill="#026CB3" d="M157.936,46.642c0,1.063-0.871,1.934-1.934,1.934H68.946c-1.064,0-1.935-0.872-1.935-1.934V22.784
		c0-1.068,0.871-1.937,1.935-1.937h87.056c1.063,0,1.934,0.871,1.934,1.937"/>
	<path fill="#E22428" d="M157.936,78.885c0,1.064-0.871,1.933-1.934,1.933H68.946c-1.064,0-1.935-0.871-1.935-1.933V55.024
		c0-1.063,0.871-1.935,1.935-1.935h87.056c1.063,0,1.934,0.872,1.934,1.935"/>
	<path fill="#0B9146" d="M157.936,111.127c0,1.062-0.871,1.932-1.934,1.932H68.946c-1.064,0-1.935-0.869-1.935-1.932V87.269
		c0-1.064,0.871-1.936,1.935-1.936h87.056c1.063,0,1.934,0.872,1.934,1.936"/>
	<path fill="#0B9146" d="M157.936,143.369c0,1.064-0.871,1.934-1.934,1.934H68.946c-1.064,0-1.935-0.871-1.935-1.934V119.51
		c0-1.064,0.871-1.936,1.935-1.936h87.056c1.063,0,1.934,0.871,1.934,1.936"/>
	<path fill="#E22428" d="M157.936,175.609c0,1.064-0.871,1.938-1.934,1.938H68.946c-1.064,0-1.935-0.873-1.935-1.938v-23.857
		c0-1.064,0.871-1.934,1.935-1.934h87.056c1.063,0,1.934,0.869,1.934,1.934"/>
	<path fill="#0B9146" d="M62.5,142.828c0,1.361-1.116,2.477-2.477,2.477H44.339c-1.362,0-2.478-1.115-2.478-2.477v-22.777
		c0-1.361,1.116-2.477,2.478-2.477h15.685c1.36,0,2.477,1.115,2.477,2.477"/>
	<path fill="#E22428" d="M52.184,153.363c-5.7,0-10.322,4.617-10.322,10.318c0,5.699,4.621,10.318,10.322,10.318
		c5.696,0,10.317-4.619,10.317-10.318C62.5,157.98,57.88,153.363,52.184,153.363 M52.184,171.924c-4.551,0-8.243-3.689-8.243-8.242
		c0-1.889,0.643-3.625,1.713-5.016l11.54,11.543C55.805,171.281,54.069,171.924,52.184,171.924 M58.707,168.701l-11.544-11.545
		c1.389-1.072,3.127-1.713,5.02-1.713c4.551,0,8.238,3.686,8.238,8.238C60.422,165.574,59.776,167.312,58.707,168.701"/>
	<path fill="#E22428" d="M62.5,78.343c0,1.36-1.116,2.475-2.477,2.475H44.339c-1.362,0-2.478-1.115-2.478-2.475V55.566
		c0-1.36,1.116-2.477,2.478-2.477h15.685c1.36,0,2.477,1.116,2.477,2.477"/>
	<path fill="#FFFFFF" d="M58.394,60.575c0,0-2.721-0.903-4.189-5.872c-0.687,1.812-1.275,6.209,4.189,9.212"/>
	<path fill="#FFFFFF" d="M57.89,65.802c0,0-2.612-0.508-4.335-4.628c-0.532-1.269-1.625-4.593-5.945-4.593
		c1.28,1.036,1.919,2.08,2.732,4.166C52.777,67.003,57.313,66.096,57.89,65.802"/>
	<path fill="#FFFFFF" d="M58.394,68.598c0,0-5.324-0.496-9.682-6.873c0,8.106,9.422,10.019,9.682,10.069"/>
	<path fill="#FFFFFF" d="M57.89,73.988c0,0-2.736-0.294-5.46-3.298c-2.551-2.803-5.478-1.763-6.464-0.89
		c1.25-0.122,2.693,0.772,4.555,2.739C53.784,75.997,57.587,74.302,57.89,73.988"/>
	<path fill="#FFFFFF" d="M58.394,76.19c0,0-5.767,0.925-9.541-2.735c-0.127-0.422,0.724,6.098,9.541,5.738"/>
	<path fill="#0B9146" d="M62.5,110.584c0,1.359-1.116,2.475-2.477,2.475H44.339c-1.362,0-2.478-1.115-2.478-2.475V87.81
		c0-1.363,1.116-2.478,2.478-2.478h15.685c1.36,0,2.477,1.114,2.477,2.478"/>
	<path fill="#FFFFFF" d="M75.545,72.81h-2.196v-7.437h-2.723V63.62c1.531,0.033,2.941-0.524,3.173-2.276h1.747"/>
	<path fill="#FFFFFF" d="M70.053,98.018c-0.077-2.619,1.33-4.636,3.931-4.636c1.981,0,3.715,1.343,3.715,3.587
		c0,1.719-0.868,2.67-1.936,3.474c-1.066,0.801-2.336,1.458-3.125,2.635h5.122v2h-7.954c0.015-2.654,1.547-3.781,3.421-5.125
		c0.959-0.691,2.259-1.394,2.273-2.803c0-1.082-0.679-1.769-1.624-1.769c-1.299,0-1.719,1.425-1.719,2.637"/>
	<path fill="#FFFFFF" d="M73.008,130.486c0.945,0.08,2.307-0.115,2.307-1.428c0-0.963-0.727-1.52-1.533-1.52
		c-1.097,0-1.686,0.865-1.672,2.047h-2.087c0.078-2.344,1.516-3.963,3.745-3.963c1.733,0,3.638,1.129,3.638,3.176
		c0,1.082-0.511,2.049-1.518,2.344v0.031c1.19,0.281,1.919,1.324,1.919,2.605c0,2.408-1.901,3.768-4.023,3.768
		c-2.428,0-4.068-1.539-4.022-4.176h2.089c0.048,1.244,0.636,2.258,1.903,2.258c0.991,0,1.765-0.717,1.765-1.799
		c0-1.738-1.438-1.709-2.507-1.709"/>
	<path fill="#FFFFFF" d="M74.308,166.91h-4.579v-2.133l4.704-6.68h1.964v6.895h1.439v1.918h-1.439v2.652h-2.09 M74.308,161.014
		h-0.046l-2.801,3.979h2.848L74.308,161.014L74.308,161.014z"/>
	<polyline fill="#FFFFFF" points="74.598,22.286 82.504,22.286 82.504,24.365 77.071,24.365 77.071,26.964 81.78,26.964 
		81.78,28.884 77.071,28.884 77.071,33.532 74.598,33.532 	"/>
	<path fill="#FFFFFF" d="M85.874,24.131h-2.236v-1.843h2.236V24.131z M83.637,25.39h2.236v8.141h-2.236V25.39z"/>
	<path fill="#FFFFFF" d="M87.513,25.39h2.125v1.511h0.032c0.407-1.025,1.51-1.733,2.597-1.733c0.159,0,0.347,0.031,0.489,0.079v2.08
		c-0.204-0.047-0.536-0.079-0.803-0.079c-1.638,0-2.206,1.182-2.206,2.615v3.669h-2.234"/>
	<path fill="#FFFFFF" d="M95.073,30.003c0.064,1.416,0.755,2.062,1.999,2.062c0.898,0,1.621-0.551,1.765-1.054h1.969
		c-0.63,1.921-1.969,2.74-3.812,2.74c-2.566,0-4.159-1.764-4.159-4.284c0-2.44,1.688-4.3,4.159-4.3c2.771,0,4.11,2.331,3.954,4.835
		 M98.711,28.587c-0.207-1.135-0.693-1.734-1.781-1.734c-1.416,0-1.827,1.104-1.857,1.734H98.711z"/>
	<path fill="#FFFFFF" d="M106.302,27.891c0.126-2.094,2.001-2.723,3.826-2.723c1.622,0,3.576,0.362,3.576,2.315v4.237
		c0,0.74,0.077,1.48,0.283,1.812h-2.269c-0.08-0.253-0.143-0.52-0.157-0.789c-0.71,0.741-1.748,1.009-2.741,1.009
		c-1.541,0-2.771-0.772-2.771-2.441c0-1.843,1.386-2.285,2.771-2.473c1.369-0.205,2.646-0.157,2.646-1.071
		c0-0.961-0.66-1.102-1.449-1.102c-0.852,0-1.401,0.346-1.479,1.228 M111.467,29.547c-0.378,0.332-1.166,0.346-1.859,0.471
		c-0.691,0.142-1.322,0.378-1.322,1.197c0,0.835,0.646,1.039,1.37,1.039c1.748,0,1.812-1.386,1.812-1.874V29.547z"/>
	<path fill="#FFFFFF" d="M120.853,28.253c-0.14-0.912-0.724-1.401-1.651-1.401c-1.436,0-1.908,1.45-1.908,2.647
		c0,1.164,0.455,2.565,1.858,2.565c1.039,0,1.638-0.66,1.781-1.654h2.157c-0.285,2.159-1.781,3.34-3.922,3.34
		c-2.455,0-4.111-1.731-4.111-4.173c0-2.536,1.512-4.41,4.156-4.41c1.923,0,3.686,1.008,3.828,3.087"/>
	<path fill="#FFFFFF" d="M127.056,25.39h1.638v1.496h-1.638v4.032c0,0.756,0.189,0.945,0.948,0.945c0.235,0,0.453-0.017,0.689-0.063
		v1.748c-0.379,0.063-0.865,0.079-1.307,0.079c-1.37,0-2.566-0.315-2.566-1.936v-4.805h-1.354V25.39h1.354v-2.442h2.238"/>
	<path fill="#FFFFFF" d="M131.939,24.131h-2.236v-1.843h2.236V24.131z M129.703,25.39h2.236v8.141h-2.236V25.39z"/>
	<path fill="#FFFFFF" d="M137.53,25.168c2.567,0,4.22,1.701,4.22,4.3c0,2.583-1.652,4.284-4.22,4.284
		c-2.554,0-4.206-1.702-4.206-4.284C133.324,26.869,134.977,25.168,137.53,25.168 M137.53,32.065c1.528,0,1.981-1.306,1.981-2.598
		c0-1.306-0.453-2.614-1.981-2.614c-1.512,0-1.97,1.309-1.97,2.614C135.561,30.759,136.019,32.065,137.53,32.065"/>
	<path fill="#FFFFFF" d="M143.072,25.39h2.127v1.134h0.046c0.569-0.914,1.545-1.354,2.49-1.354c2.378,0,2.978,1.339,2.978,3.355
		v5.008h-2.238v-4.6c0-1.339-0.395-2-1.434-2c-1.213,0-1.73,0.678-1.73,2.33v4.27h-2.238"/>
	<rect x="81.099" y="34.507" fill="#FFFFFF" width="1.236" height="5.622"/>
	<path fill="#FFFFFF" d="M83.485,36.807h-0.67v-0.75h0.67v-0.315c0-0.714,0.448-1.236,1.362-1.236c0.196,0,0.401,0.025,0.59,0.031
		v0.835c-0.133-0.017-0.268-0.025-0.411-0.025c-0.299,0-0.423,0.127-0.423,0.465v0.243h0.771v0.75h-0.771v3.321h-1.118"/>
	<path fill="#FFFFFF" d="M89.933,40.642c-0.243,0.654-0.631,0.922-1.399,0.922c-0.23,0-0.457-0.017-0.687-0.04v-0.921
		c0.213,0.015,0.432,0.047,0.655,0.038c0.385-0.038,0.512-0.441,0.385-0.765l-1.432-3.819h1.197l0.92,2.786h0.016l0.891-2.786h1.156
		"/>
	<path fill="#FFFFFF" d="M93.927,35.95c1.282,0,2.109,0.85,2.109,2.148c0,1.292-0.828,2.142-2.109,2.142
		c-1.278,0-2.104-0.851-2.104-2.142C91.823,36.798,92.649,35.95,93.927,35.95 M93.927,39.396c0.763,0,0.99-0.653,0.99-1.298
		c0-0.655-0.229-1.306-0.99-1.306c-0.757,0-0.986,0.653-0.986,1.306C92.94,38.744,93.17,39.396,93.927,39.396"/>
	<path fill="#FFFFFF" d="M100.516,40.128h-1.064v-0.566h-0.024c-0.283,0.457-0.77,0.677-1.242,0.677
		c-1.189,0-1.488-0.67-1.488-1.676v-2.506h1.118v2.3c0,0.667,0.196,1,0.717,1c0.607,0,0.865-0.339,0.865-1.165v-2.136h1.119"/>
	<path fill="#FFFFFF" d="M106.334,39.609h-0.018c-0.26,0.441-0.713,0.63-1.235,0.63c-1.229,0-1.827-1.057-1.827-2.181
		c0-1.096,0.606-2.11,1.807-2.11c0.479,0,0.949,0.203,1.209,0.606h-0.008h0.018v-2.048h1.119v5.622h-1.064 M105.357,36.792
		c-0.732,0-0.982,0.63-0.982,1.297c0,0.638,0.291,1.307,0.982,1.307c0.742,0,0.962-0.645,0.962-1.313
		C106.316,37.422,106.083,36.792,105.357,36.792"/>
	<path fill="#FFFFFF" d="M109.325,35.428h-1.118v-0.921h1.118V35.428z M108.209,36.059h1.119v4.071h-1.119V36.059z"/>
	<path fill="#FFFFFF" d="M111.01,38.806c0.008,0.489,0.416,0.687,0.857,0.687c0.325,0,0.733-0.128,0.733-0.521
		c0-0.341-0.464-0.457-1.269-0.629c-0.645-0.144-1.292-0.372-1.292-1.087c0-1.039,0.897-1.306,1.771-1.306
		c0.891,0,1.71,0.298,1.796,1.297h-1.066c-0.027-0.433-0.361-0.551-0.762-0.551c-0.25,0-0.623,0.048-0.623,0.378
		c0,0.401,0.631,0.457,1.269,0.607c0.653,0.149,1.292,0.386,1.292,1.142c0,1.071-0.928,1.417-1.858,1.417
		c-0.944,0-1.865-0.354-1.913-1.434"/>
	<path fill="#FFFFFF" d="M117.081,37.491c-0.071-0.455-0.364-0.7-0.827-0.7c-0.717,0-0.951,0.724-0.951,1.322
		c0,0.583,0.227,1.283,0.928,1.283c0.52,0,0.818-0.33,0.891-0.824h1.079c-0.142,1.078-0.891,1.668-1.963,1.668
		c-1.228,0-2.054-0.868-2.054-2.087c0-1.266,0.755-2.203,2.078-2.203c0.963,0,1.842,0.503,1.915,1.542"/>
	<path fill="#FFFFFF" d="M120.742,35.95c1.283,0,2.11,0.85,2.11,2.148c0,1.292-0.827,2.142-2.11,2.142
		c-1.276,0-2.104-0.851-2.104-2.142C118.639,36.798,119.466,35.95,120.742,35.95 M120.742,39.396c0.765,0,0.992-0.653,0.992-1.298
		c0-0.655-0.23-1.306-0.992-1.306c-0.757,0-0.984,0.653-0.984,1.306C119.758,38.744,119.985,39.396,120.742,39.396"/>
	<polyline fill="#FFFFFF" points="125.764,40.128 124.52,40.128 123.127,36.059 124.3,36.059 125.158,38.839 125.173,38.839 
		126.033,36.059 127.143,36.059 	"/>
	<path fill="#FFFFFF" d="M128.465,38.365c0.031,0.709,0.379,1.031,1.002,1.031c0.449,0,0.811-0.276,0.881-0.526h0.982
		c-0.313,0.96-0.982,1.37-1.904,1.37c-1.285,0-2.08-0.881-2.08-2.142c0-1.221,0.844-2.148,2.08-2.148
		c1.385,0,2.056,1.164,1.976,2.416 M130.284,37.656c-0.103-0.566-0.347-0.865-0.89-0.865c-0.709,0-0.914,0.551-0.93,0.865H130.284z"
		/>
	<path fill="#FFFFFF" d="M132.001,36.059h1.063v0.756h0.016c0.205-0.511,0.757-0.865,1.299-0.865c0.078,0,0.176,0.015,0.244,0.038
		v1.039c-0.102-0.022-0.267-0.038-0.402-0.038c-0.816,0-1.102,0.591-1.102,1.308v1.833h-1.118"/>
	<path fill="#FFFFFF" d="M139.104,35.95c1.281,0,2.11,0.85,2.11,2.148c0,1.292-0.829,2.142-2.11,2.142
		c-1.276,0-2.103-0.851-2.103-2.142C137.001,36.798,137.827,35.95,139.104,35.95 M139.104,39.396c0.765,0,0.992-0.653,0.992-1.298
		c0-0.655-0.23-1.306-0.992-1.306c-0.757,0-0.983,0.653-0.983,1.306C138.12,38.744,138.347,39.396,139.104,39.396"/>
	<path fill="#FFFFFF" d="M141.875,36.059h1.063v0.756h0.017c0.203-0.511,0.755-0.865,1.299-0.865c0.077,0,0.172,0.015,0.243,0.038
		v1.039c-0.104-0.022-0.269-0.038-0.403-0.038c-0.816,0-1.102,0.591-1.102,1.308v1.833h-1.117"/>
	<path fill="#FFFFFF" d="M88.867,45.128c0.006,0.489,0.417,0.686,0.858,0.686c0.323,0,0.731-0.127,0.731-0.52
		c0-0.34-0.464-0.456-1.267-0.631c-0.647-0.141-1.293-0.369-1.293-1.085c0-1.041,0.898-1.308,1.772-1.308
		c0.89,0,1.709,0.299,1.795,1.3h-1.064c-0.031-0.434-0.362-0.551-0.764-0.551c-0.252,0-0.622,0.045-0.622,0.376
		c0,0.401,0.628,0.457,1.267,0.607c0.652,0.148,1.29,0.386,1.29,1.141c0,1.07-0.927,1.416-1.858,1.416
		c-0.944,0-1.866-0.353-1.914-1.432"/>
	<path fill="#FFFFFF" d="M95.984,46.452H94.92v-0.568h-0.023c-0.283,0.457-0.771,0.677-1.245,0.677
		c-1.188,0-1.488-0.667-1.488-1.676V42.38h1.118v2.298c0,0.669,0.197,1.001,0.716,1.001c0.606,0,0.866-0.339,0.866-1.167v-2.133
		h1.119"/>
	<path fill="#FFFFFF" d="M97.638,45.128c0.007,0.489,0.417,0.686,0.858,0.686c0.323,0,0.733-0.127,0.733-0.52
		c0-0.34-0.466-0.456-1.267-0.631c-0.647-0.141-1.293-0.369-1.293-1.085c0-1.041,0.898-1.308,1.773-1.308
		c0.891,0,1.71,0.299,1.795,1.3h-1.065c-0.03-0.434-0.362-0.551-0.763-0.551c-0.253,0-0.622,0.045-0.622,0.376
		c0,0.401,0.631,0.457,1.268,0.607c0.654,0.148,1.292,0.386,1.292,1.141c0,1.07-0.929,1.416-1.857,1.416
		c-0.945,0-1.865-0.353-1.914-1.432"/>
	<path fill="#FFFFFF" d="M100.936,42.38h1.062v0.518h0.017c0.269-0.432,0.71-0.629,1.214-0.629c1.273,0,1.849,1.032,1.849,2.19
		c0,1.086-0.597,2.102-1.786,2.102c-0.488,0-0.953-0.211-1.22-0.613h-0.017v1.937h-1.119 M103.961,44.426
		c0-0.645-0.262-1.315-0.977-1.315c-0.732,0-0.97,0.655-0.97,1.315c0,0.661,0.253,1.293,0.978,1.293
		C103.725,45.718,103.961,45.087,103.961,44.426"/>
	<path fill="#FFFFFF" d="M106.604,44.687c0.032,0.709,0.38,1.031,1.001,1.031c0.449,0,0.812-0.276,0.882-0.528h0.984
		c-0.316,0.961-0.984,1.369-1.907,1.369c-1.282,0-2.077-0.88-2.077-2.139c0-1.221,0.843-2.151,2.077-2.151
		c1.386,0,2.058,1.167,1.978,2.418 M108.425,43.978c-0.104-0.566-0.348-0.868-0.891-0.868c-0.71,0-0.913,0.554-0.931,0.868H108.425z
		"/>
	<path fill="#FFFFFF" d="M112.912,43.813c-0.072-0.456-0.363-0.702-0.827-0.702c-0.716,0-0.952,0.725-0.952,1.323
		c0,0.583,0.229,1.285,0.926,1.285c0.521,0,0.82-0.331,0.891-0.827h1.078c-0.141,1.081-0.888,1.668-1.959,1.668
		c-1.229,0-2.056-0.865-2.056-2.085c0-1.268,0.757-2.206,2.079-2.206c0.961,0,1.844,0.504,1.914,1.544"/>
	<path fill="#FFFFFF" d="M116.012,42.38h0.82v0.748h-0.82v2.016c0,0.378,0.097,0.473,0.476,0.473c0.116,0,0.228-0.007,0.345-0.032
		v0.873c-0.187,0.031-0.432,0.041-0.652,0.041c-0.685,0-1.285-0.158-1.285-0.969v-2.401h-0.679V42.38h0.679v-1.221h1.117"/>
	<path fill="#FFFFFF" d="M119.385,43.632c0.061-1.047,0.998-1.363,1.914-1.363c0.811,0,1.786,0.182,1.786,1.158v2.119
		c0,0.369,0.038,0.74,0.142,0.906h-1.137c-0.037-0.127-0.068-0.261-0.077-0.395c-0.353,0.37-0.874,0.502-1.37,0.502
		c-0.771,0-1.386-0.385-1.386-1.219c0-0.921,0.692-1.142,1.386-1.238c0.685-0.102,1.322-0.079,1.322-0.534
		c0-0.481-0.332-0.551-0.723-0.551c-0.426,0-0.703,0.172-0.74,0.613 M121.966,44.458c-0.187,0.167-0.583,0.173-0.929,0.237
		c-0.344,0.071-0.661,0.189-0.661,0.6c0,0.417,0.325,0.52,0.686,0.52c0.873,0,0.905-0.695,0.905-0.938L121.966,44.458
		L121.966,44.458z"/>
	<path fill="#FFFFFF" d="M126.26,43.128h-0.671V42.38h0.671v-0.315c0-0.716,0.447-1.236,1.359-1.236c0.197,0,0.402,0.024,0.592,0.03
		v0.833c-0.133-0.015-0.268-0.022-0.41-0.022c-0.299,0-0.424,0.126-0.424,0.463v0.245h0.771v0.748h-0.771v3.324h-1.117"/>
	<path fill="#FFFFFF" d="M129.721,41.751h-1.116v-0.922h1.116V41.751z M128.605,42.38h1.117v4.071h-1.117V42.38z"/>
	<path fill="#FFFFFF" d="M130.541,42.38h1.062v0.756h0.017c0.203-0.512,0.758-0.868,1.3-0.868c0.078,0,0.175,0.017,0.245,0.04v1.04
		c-0.104-0.024-0.271-0.039-0.403-0.039c-0.819,0-1.101,0.59-1.101,1.306v1.835h-1.119"/>
	<path fill="#FFFFFF" d="M134.322,44.687c0.031,0.709,0.378,1.031,0.999,1.031c0.448,0,0.812-0.276,0.88-0.528h0.985
		c-0.314,0.961-0.985,1.369-1.905,1.369c-1.283,0-2.08-0.88-2.08-2.139c0-1.221,0.844-2.151,2.08-2.151
		c1.386,0,2.054,1.167,1.977,2.418 M136.141,43.978c-0.102-0.566-0.348-0.868-0.891-0.868c-0.708,0-0.914,0.554-0.928,0.868H136.141
		z"/>
	<path fill="#FFFFFF" d="M81.246,63.493h3.853c1.283,0,2.092,0.891,2.092,1.972c0,0.841-0.34,1.472-1.131,1.792v0.02
		c0.77,0.199,0.99,0.953,1.041,1.672c0.029,0.45,0.021,1.293,0.3,1.691h-1.57c-0.192-0.45-0.171-1.139-0.254-1.71
		c-0.109-0.751-0.397-1.082-1.189-1.082h-1.57v2.792h-1.572 M82.817,66.724h1.721c0.702,0,1.081-0.299,1.081-1.021
		c0-0.69-0.379-0.99-1.081-0.99h-1.721V66.724z"/>
	<path fill="#FFFFFF" d="M88.183,67.056c0.08-1.332,1.27-1.733,2.431-1.733c1.032,0,2.271,0.232,2.271,1.472v2.693
		c0,0.47,0.052,0.939,0.181,1.15h-1.442c-0.051-0.16-0.089-0.329-0.098-0.5c-0.452,0.47-1.112,0.641-1.742,0.641
		c-0.98,0-1.763-0.492-1.763-1.552c0-1.171,0.881-1.453,1.763-1.571c0.87-0.132,1.682-0.102,1.682-0.683
		c0-0.609-0.422-0.699-0.922-0.699c-0.541,0-0.891,0.219-0.938,0.781 M91.466,68.106c-0.239,0.21-0.741,0.222-1.181,0.301
		c-0.441,0.089-0.841,0.239-0.841,0.761c0,0.531,0.411,0.66,0.87,0.66c1.111,0,1.152-0.88,1.152-1.19V68.106z"/>
	<path fill="#FFFFFF" d="M95.369,64.665h-1.423v-1.171h1.423V64.665z M93.947,65.464h1.422v5.174h-1.422V65.464z"/>
	<path fill="#FFFFFF" d="M97.51,68.958c0.012,0.619,0.531,0.872,1.091,0.872c0.412,0,0.93-0.16,0.93-0.66
		c0-0.43-0.59-0.581-1.611-0.801c-0.819-0.18-1.64-0.471-1.64-1.382c0-1.322,1.141-1.662,2.252-1.662
		c1.13,0,2.171,0.381,2.284,1.652h-1.353c-0.04-0.55-0.462-0.7-0.971-0.7c-0.322,0-0.791,0.06-0.791,0.48
		c0,0.51,0.799,0.58,1.611,0.769c0.83,0.191,1.64,0.492,1.64,1.452c0,1.36-1.182,1.803-2.361,1.803
		c-1.203,0-2.374-0.451-2.432-1.821"/>
	<path fill="#FFFFFF" d="M102.875,68.397c0.041,0.902,0.48,1.311,1.271,1.311c0.572,0,1.031-0.35,1.121-0.668h1.252
		c-0.4,1.219-1.252,1.74-2.422,1.74c-1.633,0-2.645-1.123-2.645-2.722c0-1.552,1.072-2.733,2.645-2.733
		c1.762,0,2.611,1.483,2.51,3.074 M105.188,67.496c-0.131-0.719-0.441-1.101-1.132-1.101c-0.901,0-1.161,0.702-1.182,1.101H105.188z
		"/>
	<path fill="#FFFFFF" d="M111.873,65.464h1.041v0.951h-1.041v2.561c0,0.48,0.119,0.601,0.602,0.601c0.149,0,0.291-0.007,0.439-0.038
		v1.111c-0.238,0.039-0.55,0.051-0.829,0.051c-0.872,0-1.632-0.202-1.632-1.233v-3.053h-0.861v-0.951h0.861v-1.553h1.422"/>
	<path fill="#FFFFFF" d="M113.516,63.493h1.42v2.693h0.03c0.36-0.58,0.979-0.863,1.511-0.863c1.51,0,1.893,0.853,1.893,2.134v3.182
		h-1.422v-2.922c0-0.852-0.25-1.273-0.91-1.273c-0.771,0-1.103,0.434-1.103,1.484v2.711h-1.42"/>
	<path fill="#FFFFFF" d="M120.543,68.397c0.039,0.902,0.48,1.311,1.271,1.311c0.57,0,1.032-0.35,1.12-0.668h1.251
		c-0.399,1.219-1.251,1.74-2.421,1.74c-1.633,0-2.643-1.123-2.643-2.722c0-1.552,1.072-2.733,2.643-2.733
		c1.762,0,2.613,1.483,2.512,3.074 M122.855,67.496c-0.132-0.719-0.443-1.101-1.134-1.101c-0.9,0-1.163,0.702-1.18,1.101H122.855z"
		/>
	<path fill="#FFFFFF" d="M127.68,67.056c0.081-1.332,1.271-1.733,2.434-1.733c1.028,0,2.271,0.232,2.271,1.472v2.693
		c0,0.47,0.052,0.939,0.18,1.15h-1.441c-0.05-0.16-0.09-0.329-0.1-0.5c-0.451,0.47-1.113,0.641-1.741,0.641
		c-0.979,0-1.761-0.492-1.761-1.552c0-1.171,0.877-1.453,1.761-1.571c0.87-0.132,1.68-0.102,1.68-0.683
		c0-0.609-0.421-0.699-0.921-0.699c-0.54,0-0.891,0.219-0.939,0.781 M130.962,68.106c-0.239,0.21-0.739,0.222-1.183,0.301
		c-0.439,0.089-0.841,0.239-0.841,0.761c0,0.531,0.411,0.66,0.87,0.66c1.111,0,1.15-0.88,1.15-1.19v-0.531H130.962z"/>
	<rect x="133.445" y="63.493" fill="#FFFFFF" width="1.42" height="7.146"/>
	<path fill="#FFFFFF" d="M135.847,67.056c0.081-1.332,1.271-1.733,2.433-1.733c1.029,0,2.271,0.232,2.271,1.472v2.693
		c0,0.47,0.051,0.939,0.181,1.15h-1.442c-0.049-0.16-0.089-0.329-0.099-0.5c-0.45,0.47-1.11,0.641-1.741,0.641
		c-0.98,0-1.764-0.492-1.764-1.552c0-1.171,0.881-1.453,1.764-1.571c0.87-0.132,1.682-0.102,1.682-0.683
		c0-0.609-0.423-0.699-0.923-0.699c-0.542,0-0.89,0.219-0.94,0.781 M139.131,68.106c-0.24,0.21-0.74,0.222-1.183,0.301
		c-0.44,0.089-0.841,0.239-0.841,0.761c0,0.531,0.412,0.66,0.871,0.66c1.113,0,1.152-0.88,1.152-1.19V68.106z"/>
	<path fill="#FFFFFF" d="M141.57,65.464h1.352v0.961h0.021c0.26-0.651,0.961-1.102,1.651-1.102c0.101,0,0.22,0.022,0.311,0.051v1.32
		c-0.129-0.028-0.342-0.047-0.511-0.047c-1.041,0-1.399,0.75-1.399,1.659v2.333h-1.423"/>
	<path fill="#FFFFFF" d="M145.425,65.464h1.342v0.699h0.021c0.371-0.528,0.911-0.84,1.584-0.84c0.648,0,1.229,0.239,1.51,0.863
		c0.299-0.451,0.84-0.863,1.561-0.863c1.101,0,1.893,0.51,1.893,1.854v3.46h-1.423v-2.933c0-0.69-0.06-1.262-0.87-1.262
		c-0.801,0-0.953,0.663-0.953,1.312v2.882h-1.419v-2.903c0-0.6,0.037-1.292-0.864-1.292c-0.277,0-0.96,0.181-0.96,1.192v3.001
		h-1.423"/>
	<polyline fill="#FFFFFF" points="81.058,87.751 82.199,87.751 82.199,91.986 84.733,91.986 84.733,92.949 81.058,92.949 	"/>
	<path fill="#FFFFFF" d="M86.057,91.317c0.03,0.655,0.35,0.953,0.925,0.953c0.416,0,0.75-0.253,0.814-0.486h0.914
		c-0.292,0.886-0.914,1.267-1.763,1.267c-1.188,0-1.922-0.817-1.922-1.982c0-1.129,0.779-1.984,1.922-1.984
		c1.281,0,1.9,1.078,1.828,2.235 M87.738,90.661c-0.093-0.523-0.319-0.8-0.821-0.8c-0.656,0-0.845,0.509-0.861,0.8H87.738z"/>
	<path fill="#FFFFFF" d="M89.284,90.341c0.057-0.969,0.925-1.257,1.769-1.257c0.75,0,1.651,0.167,1.651,1.068v1.958
		c0,0.343,0.037,0.686,0.13,0.839h-1.047c-0.038-0.117-0.066-0.239-0.073-0.364c-0.329,0.343-0.809,0.466-1.267,0.466
		c-0.713,0-1.282-0.357-1.282-1.13c0-0.854,0.639-1.055,1.282-1.141c0.633-0.097,1.222-0.075,1.222-0.498
		c0-0.445-0.305-0.508-0.668-0.508c-0.395,0-0.649,0.16-0.685,0.566 M91.67,91.106c-0.174,0.153-0.538,0.16-0.858,0.218
		c-0.321,0.066-0.612,0.175-0.612,0.554c0,0.388,0.298,0.481,0.633,0.481c0.807,0,0.837-0.641,0.837-0.866V91.106z"/>
	<polyline fill="#FFFFFF" points="95.527,92.949 94.379,92.949 93.09,89.185 94.173,89.185 94.968,91.753 94.982,91.753 
		95.775,89.185 96.803,89.185 	"/>
	<path fill="#FFFFFF" d="M98.026,91.317c0.029,0.655,0.348,0.953,0.925,0.953c0.413,0,0.747-0.253,0.814-0.486h0.909
		c-0.291,0.886-0.909,1.267-1.761,1.267c-1.186,0-1.922-0.817-1.922-1.982c0-1.129,0.779-1.984,1.922-1.984
		c1.281,0,1.902,1.078,1.826,2.235 M99.706,90.661c-0.093-0.523-0.321-0.8-0.822-0.8c-0.655,0-0.845,0.509-0.858,0.8H99.706z"/>
	<path fill="#FFFFFF" d="M104.568,89.185h0.759v0.691h-0.759v1.865c0,0.347,0.088,0.437,0.438,0.437c0.108,0,0.212-0.008,0.32-0.03
		v0.809c-0.176,0.028-0.401,0.037-0.606,0.037c-0.633,0-1.186-0.146-1.186-0.895v-2.221h-0.626v-0.691h0.626v-1.128h1.033"/>
	<path fill="#FFFFFF" d="M105.762,87.751h1.035v1.959h0.021c0.262-0.424,0.713-0.626,1.098-0.626c1.102,0,1.375,0.618,1.375,1.549
		v2.316h-1.029v-2.127c0-0.618-0.185-0.923-0.664-0.923c-0.559,0-0.801,0.313-0.801,1.077v1.975h-1.034"/>
	<path fill="#FFFFFF" d="M110.873,91.317c0.027,0.655,0.348,0.953,0.924,0.953c0.412,0,0.749-0.253,0.816-0.486h0.908
		c-0.29,0.886-0.908,1.267-1.762,1.267c-1.187,0-1.922-0.817-1.922-1.982c0-1.129,0.777-1.984,1.922-1.984
		c1.281,0,1.899,1.078,1.828,2.235 M112.554,90.661c-0.095-0.523-0.321-0.8-0.823-0.8c-0.655,0-0.844,0.509-0.857,0.8H112.554z"/>
	<path fill="#FFFFFF" d="M116.105,87.751h1.032v1.891h0.017c0.256-0.387,0.721-0.558,1.186-0.558c0.75,0,1.559,0.604,1.559,1.979
		c0,1.381-0.809,1.988-1.559,1.988c-0.553,0-1.012-0.167-1.236-0.584h-0.016v0.482h-0.982 M117.984,89.861
		c-0.611,0-0.881,0.577-0.881,1.208c0,0.627,0.27,1.202,0.881,1.202c0.607,0,0.881-0.574,0.881-1.202
		C118.865,90.438,118.594,89.861,117.984,89.861"/>
	<path fill="#FFFFFF" d="M124.025,92.949h-0.982v-0.526h-0.023c-0.262,0.423-0.711,0.628-1.149,0.628
		c-1.099,0-1.376-0.62-1.376-1.553v-2.314h1.033v2.125c0,0.619,0.185,0.925,0.664,0.925c0.56,0,0.8-0.313,0.8-1.078v-1.974h1.032"/>
	<path fill="#FFFFFF" d="M125.816,88.604h-1.031v-0.853h1.031V88.604z M124.785,89.185h1.031v3.765h-1.031V89.185z"/>
	<rect x="126.602" y="87.751" fill="#FFFFFF" width="1.035" height="5.198"/>
	<path fill="#FFFFFF" d="M131.078,92.468h-0.015c-0.239,0.406-0.659,0.584-1.142,0.584c-1.135,0-1.689-0.977-1.689-2.018
		c0-1.012,0.561-1.95,1.666-1.95c0.446,0,0.882,0.188,1.123,0.558h-0.008h0.016v-1.891h1.031v5.198h-0.982 M130.176,89.861
		c-0.675,0-0.91,0.583-0.91,1.202c0,0.59,0.27,1.208,0.91,1.208c0.682,0,0.888-0.595,0.888-1.216
		C131.063,90.444,130.846,89.861,130.176,89.861"/>
	<path fill="#FFFFFF" d="M133.846,88.604h-1.033v-0.853h1.033V88.604z M132.812,89.185h1.031v3.765h-1.031V89.185z"/>
	<path fill="#FFFFFF" d="M134.602,89.185h0.982v0.525h0.021c0.262-0.424,0.714-0.626,1.15-0.626c1.099,0,1.375,0.618,1.375,1.549
		v2.316h-1.029v-2.127c0-0.618-0.185-0.923-0.664-0.923c-0.56,0-0.801,0.313-0.801,1.077v1.975h-1.033"/>
	<path fill="#FFFFFF" d="M142.479,92.708c0,0.617-0.219,1.667-1.951,1.667c-0.742,0-1.609-0.351-1.661-1.21h1.028
		c0.095,0.387,0.406,0.517,0.77,0.517c0.577,0,0.837-0.394,0.83-0.933v-0.496h-0.014c-0.227,0.394-0.678,0.583-1.13,0.583
		c-1.128,0-1.608-0.858-1.608-1.894c0-0.974,0.56-1.861,1.615-1.861c0.494,0,0.873,0.167,1.121,0.604h0.016v-0.502h0.981
		 M141.496,91.018c0-0.611-0.213-1.157-0.881-1.157c-0.584,0-0.836,0.509-0.836,1.07c0,0.54,0.205,1.128,0.836,1.128
		C141.204,92.059,141.496,91.557,141.496,91.018"/>
	<path fill="#FFFFFF" d="M80.948,96.296h1.032v1.892h0.016c0.255-0.387,0.722-0.561,1.186-0.561c0.75,0,1.559,0.604,1.559,1.98
		c0,1.383-0.808,1.987-1.559,1.987c-0.553,0-1.012-0.166-1.235-0.58h-0.016v0.48h-0.983 M82.826,98.406
		c-0.61,0-0.88,0.574-0.88,1.208c0,0.626,0.268,1.2,0.88,1.2c0.61,0,0.881-0.574,0.881-1.2
		C83.708,98.979,83.437,98.406,82.826,98.406"/>
	<path fill="#FFFFFF" d="M87.192,101.969c-0.225,0.604-0.58,0.852-1.293,0.852c-0.211,0-0.422-0.016-0.635-0.039v-0.852
		c0.197,0.014,0.402,0.045,0.605,0.039c0.357-0.039,0.474-0.41,0.357-0.709l-1.325-3.532h1.107l0.852,2.578h0.014l0.823-2.578h1.067
		"/>
	<path fill="#FFFFFF" d="M92.333,97.728h0.758v0.691h-0.758v1.863c0,0.352,0.086,0.439,0.435,0.439c0.111,0,0.211-0.008,0.323-0.031
		v0.811c-0.175,0.029-0.401,0.035-0.605,0.035c-0.635,0-1.188-0.145-1.188-0.893v-2.223h-0.625v-0.691h0.625v-1.127h1.035"/>
	<path fill="#FFFFFF" d="M93.527,96.296h1.032v1.957h0.024c0.26-0.42,0.712-0.626,1.098-0.626c1.1,0,1.375,0.621,1.375,1.552v2.316
		h-1.031v-2.128c0-0.618-0.183-0.924-0.663-0.924c-0.563,0-0.803,0.315-0.803,1.079v1.976h-1.032"/>
	<path fill="#FFFFFF" d="M98.635,99.863c0.029,0.654,0.35,0.951,0.925,0.951c0.416,0,0.75-0.254,0.814-0.486h0.913
		c-0.292,0.887-0.913,1.266-1.764,1.266c-1.188,0-1.922-0.815-1.922-1.979c0-1.128,0.779-1.987,1.922-1.987
		c1.281,0,1.901,1.079,1.828,2.236 M100.317,99.208c-0.094-0.526-0.32-0.802-0.821-0.802c-0.656,0-0.846,0.509-0.861,0.802H100.317z
		"/>
	<path fill="#FFFFFF" d="M103.87,97.728h0.983v0.524h0.021c0.262-0.42,0.712-0.626,1.15-0.626c1.1,0,1.375,0.621,1.375,1.552v2.316
		h-1.034v-2.128c0-0.618-0.182-0.924-0.661-0.924c-0.559,0-0.8,0.315-0.8,1.079v1.976h-1.032"/>
	<path fill="#FFFFFF" d="M108.98,99.863c0.027,0.654,0.35,0.951,0.924,0.951c0.416,0,0.75-0.254,0.814-0.486h0.91
		c-0.29,0.887-0.91,1.266-1.761,1.266c-1.188,0-1.921-0.815-1.921-1.979c0-1.128,0.777-1.987,1.921-1.987
		c1.28,0,1.901,1.079,1.827,2.236 M110.662,99.208c-0.094-0.526-0.32-0.802-0.824-0.802c-0.654,0-0.844,0.509-0.857,0.802H110.662z"
		/>
	<path fill="#FFFFFF" d="M112.205,98.886c0.059-0.969,0.922-1.259,1.769-1.259c0.749,0,1.652,0.168,1.652,1.071v1.96
		c0,0.34,0.037,0.682,0.132,0.836h-1.047c-0.037-0.119-0.066-0.24-0.076-0.363c-0.326,0.342-0.807,0.463-1.266,0.463
		c-0.715,0-1.281-0.355-1.281-1.127c0-0.853,0.641-1.057,1.281-1.144c0.633-0.095,1.223-0.073,1.223-0.494
		c0-0.445-0.305-0.512-0.668-0.512c-0.393,0-0.648,0.162-0.684,0.569 M114.592,99.652c-0.174,0.151-0.539,0.16-0.858,0.219
		c-0.32,0.064-0.61,0.176-0.61,0.555c0,0.385,0.297,0.479,0.633,0.479c0.808,0,0.836-0.643,0.836-0.867V99.652z"/>
	<path fill="#FFFFFF" d="M116.368,97.728h0.982v0.699h0.015c0.19-0.47,0.7-0.8,1.2-0.8c0.073,0,0.161,0.015,0.226,0.037v0.96
		c-0.095-0.021-0.246-0.036-0.369-0.036c-0.76,0-1.02,0.546-1.02,1.207v1.7h-1.034"/>
	<path fill="#FFFFFF" d="M119.863,99.863c0.029,0.654,0.351,0.951,0.925,0.951c0.414,0,0.751-0.254,0.815-0.486h0.91
		c-0.289,0.887-0.91,1.266-1.76,1.266c-1.189,0-1.924-0.815-1.924-1.979c0-1.128,0.779-1.987,1.924-1.987
		c1.279,0,1.896,1.079,1.824,2.236 M121.545,99.208c-0.093-0.526-0.32-0.802-0.822-0.802c-0.654,0-0.844,0.509-0.859,0.802H121.545z
		"/>
	<path fill="#FFFFFF" d="M123.934,100.269c0.008,0.453,0.386,0.635,0.791,0.635c0.3,0,0.678-0.117,0.678-0.48
		c0-0.314-0.428-0.424-1.17-0.582c-0.598-0.133-1.194-0.344-1.194-1.006c0-0.961,0.83-1.208,1.638-1.208
		c0.821,0,1.578,0.279,1.661,1.203h-0.983c-0.027-0.402-0.335-0.512-0.705-0.512c-0.234,0-0.576,0.046-0.576,0.351
		c0,0.371,0.582,0.422,1.172,0.559c0.607,0.138,1.195,0.358,1.195,1.054c0,0.993-0.861,1.313-1.719,1.313
		c-0.873,0-1.725-0.328-1.768-1.327"/>
	<path fill="#FFFFFF" d="M128.293,97.728h0.76v0.691h-0.76v1.863c0,0.352,0.086,0.439,0.438,0.439c0.109,0,0.211-0.008,0.322-0.031
		v0.811c-0.176,0.029-0.402,0.035-0.605,0.035c-0.635,0-1.188-0.145-1.188-0.893v-2.223h-0.626v-0.691h0.626v-1.127h1.032"/>
	<path fill="#FFFFFF" d="M80.903,107.432c0.06-0.971,0.925-1.262,1.768-1.262c0.75,0,1.653,0.17,1.653,1.074v1.955
		c0,0.342,0.037,0.686,0.13,0.838h-1.047c-0.037-0.119-0.065-0.24-0.074-0.365c-0.328,0.344-0.808,0.467-1.267,0.467
		c-0.713,0-1.282-0.357-1.282-1.131c0-0.85,0.641-1.053,1.282-1.141c0.633-0.092,1.223-0.072,1.223-0.496
		c0-0.441-0.307-0.51-0.669-0.51c-0.394,0-0.648,0.16-0.686,0.57 M83.292,108.195c-0.174,0.15-0.539,0.162-0.859,0.219
		c-0.319,0.066-0.61,0.176-0.61,0.553c0,0.389,0.297,0.482,0.633,0.482c0.81,0,0.837-0.641,0.837-0.869v-0.385H83.292z"/>
	<polyline fill="#FFFFFF" points="87.151,110.037 85.999,110.037 84.711,106.275 85.797,106.275 86.59,108.844 86.604,108.844 
		87.397,106.275 88.423,106.275 	"/>
	<path fill="#FFFFFF" d="M88.752,107.432c0.057-0.971,0.925-1.262,1.768-1.262c0.75,0,1.653,0.17,1.653,1.074v1.955
		c0,0.342,0.037,0.686,0.132,0.838h-1.049c-0.036-0.119-0.065-0.24-0.073-0.365c-0.329,0.344-0.81,0.467-1.267,0.467
		c-0.713,0-1.282-0.357-1.282-1.131c0-0.85,0.642-1.053,1.282-1.141c0.633-0.092,1.222-0.072,1.222-0.496
		c0-0.441-0.306-0.51-0.669-0.51c-0.394,0-0.648,0.16-0.685,0.57 M91.138,108.195c-0.174,0.15-0.538,0.162-0.859,0.219
		c-0.319,0.066-0.61,0.176-0.61,0.553c0,0.389,0.299,0.482,0.633,0.482c0.809,0,0.836-0.641,0.836-0.869V108.195z"/>
	<path fill="#FFFFFF" d="M93.979,105.691h-1.036v-0.854h1.036V105.691z M92.944,106.275h1.036v3.762h-1.036V106.275z"/>
	<rect x="94.764" y="104.838" fill="#FFFFFF" width="1.033" height="5.199"/>
	<path fill="#FFFFFF" d="M96.511,107.432c0.058-0.971,0.923-1.262,1.769-1.262c0.75,0,1.652,0.17,1.652,1.074v1.955
		c0,0.342,0.037,0.686,0.132,0.838h-1.047c-0.038-0.119-0.066-0.24-0.075-0.365c-0.327,0.344-0.807,0.467-1.267,0.467
		c-0.713,0-1.281-0.357-1.281-1.131c0-0.85,0.641-1.053,1.281-1.141c0.635-0.092,1.225-0.072,1.225-0.496
		c0-0.441-0.306-0.51-0.671-0.51c-0.393,0-0.647,0.16-0.684,0.57 M98.9,108.195c-0.176,0.15-0.539,0.162-0.86,0.219
		c-0.321,0.066-0.611,0.176-0.611,0.553c0,0.389,0.298,0.482,0.633,0.482c0.807,0,0.839-0.641,0.839-0.869v-0.385H98.9z"/>
	<path fill="#FFFFFF" d="M100.674,104.838h1.034v1.893h0.015c0.255-0.385,0.719-0.561,1.188-0.561c0.748,0,1.559,0.607,1.559,1.98
		c0,1.383-0.812,1.986-1.559,1.986c-0.555,0-1.012-0.168-1.239-0.582h-0.015v0.48h-0.982 M102.554,106.951
		c-0.613,0-0.88,0.572-0.88,1.207c0,0.627,0.267,1.201,0.88,1.201c0.611,0,0.878-0.574,0.878-1.201
		C103.432,107.523,103.165,106.951,102.554,106.951"/>
	<rect x="105.095" y="104.838" fill="#FFFFFF" width="1.032" height="5.199"/>
	<path fill="#FFFFFF" d="M107.736,108.406c0.027,0.652,0.348,0.955,0.924,0.955c0.415,0,0.749-0.256,0.816-0.49h0.91
		c-0.291,0.891-0.91,1.268-1.762,1.268c-1.189,0-1.924-0.814-1.924-1.98c0-1.129,0.778-1.986,1.924-1.986
		c1.279,0,1.9,1.078,1.826,2.236 M109.416,107.752c-0.094-0.525-0.318-0.801-0.819-0.801c-0.657,0-0.847,0.508-0.86,0.801H109.416z"
		/>
	<path fill="#FFFFFF" d="M113.821,108.406c0.028,0.652,0.351,0.955,0.925,0.955c0.414,0,0.749-0.256,0.813-0.49h0.91
		c-0.29,0.891-0.91,1.268-1.761,1.268c-1.188,0-1.922-0.814-1.922-1.98c0-1.129,0.779-1.986,1.922-1.986
		c1.281,0,1.899,1.078,1.826,2.236 M115.5,107.752c-0.093-0.525-0.316-0.801-0.821-0.801c-0.655,0-0.844,0.508-0.857,0.801H115.5z"
		/>
	<polyline fill="#FFFFFF" points="118.049,108.055 116.813,106.275 117.99,106.275 118.654,107.256 119.309,106.275 
		120.453,106.275 119.215,108.035 120.605,110.037 119.425,110.037 118.639,108.852 117.853,110.037 116.697,110.037 	"/>
	<path fill="#FFFFFF" d="M122.003,105.691h-1.034v-0.854h1.034V105.691z M120.969,106.275h1.034v3.762h-1.034V106.275z"/>
	<path fill="#FFFFFF" d="M124.07,106.275h0.759v0.689h-0.759v1.861c0,0.352,0.086,0.438,0.436,0.438c0.11,0,0.215-0.006,0.323-0.027
		v0.807c-0.176,0.031-0.401,0.037-0.606,0.037c-0.633,0-1.188-0.143-1.188-0.896v-2.217h-0.625v-0.691h0.625v-1.131h1.033"/>
	<path fill="#FFFFFF" d="M81.058,119.992h2.803c0.932,0,1.521,0.648,1.521,1.434c0,0.611-0.248,1.07-0.822,1.303v0.018
		c0.561,0.143,0.721,0.688,0.758,1.215c0.022,0.326,0.014,0.939,0.218,1.227h-1.143c-0.137-0.324-0.123-0.826-0.183-1.242
		c-0.079-0.547-0.288-0.785-0.866-0.785h-1.143v2.029h-1.143 M82.199,122.344h1.253c0.509,0,0.787-0.219,0.787-0.742
		c0-0.504-0.276-0.723-0.787-0.723h-1.253V122.344z"/>
	<path fill="#FFFFFF" d="M86.997,123.559c0.028,0.656,0.349,0.953,0.924,0.953c0.414,0,0.75-0.252,0.815-0.484h0.909
		c-0.291,0.887-0.909,1.264-1.761,1.264c-1.187,0-1.92-0.816-1.92-1.98c0-1.127,0.777-1.984,1.92-1.984
		c1.281,0,1.9,1.08,1.826,2.232 M88.678,122.902c-0.094-0.525-0.319-0.799-0.822-0.799c-0.656,0-0.844,0.508-0.858,0.799H88.678z"/>
	<path fill="#FFFFFF" d="M90.264,121.426h0.984v0.48h0.014c0.247-0.398,0.656-0.582,1.121-0.582c1.181,0,1.71,0.955,1.71,2.027
		c0,1.002-0.554,1.939-1.652,1.939c-0.452,0-0.88-0.195-1.126-0.564h-0.016v1.791h-1.035 M93.061,123.318
		c0-0.598-0.24-1.215-0.902-1.215c-0.677,0-0.896,0.607-0.896,1.215c0,0.611,0.233,1.193,0.902,1.193
		C92.843,124.512,93.061,123.932,93.061,123.318"/>
	<path fill="#FFFFFF" d="M96.48,121.324c1.188,0,1.952,0.787,1.952,1.984s-0.764,1.982-1.952,1.982
		c-1.178,0-1.943-0.785-1.943-1.982C94.539,122.111,95.304,121.324,96.48,121.324 M96.48,124.512c0.707,0,0.918-0.604,0.918-1.201
		c0-0.6-0.211-1.207-0.918-1.207c-0.698,0-0.909,0.607-0.909,1.207C95.571,123.908,95.783,124.512,96.48,124.512"/>
	<path fill="#FFFFFF" d="M99.045,121.426h0.98v0.699h0.015c0.19-0.473,0.7-0.801,1.202-0.801c0.074,0,0.161,0.016,0.226,0.035v0.963
		c-0.094-0.023-0.247-0.035-0.371-0.035c-0.757,0-1.019,0.547-1.019,1.205v1.695h-1.033"/>
	<path fill="#FFFFFF" d="M103.128,121.426h0.759v0.691h-0.759v1.865c0,0.348,0.087,0.436,0.438,0.436
		c0.108,0,0.209-0.006,0.32-0.029v0.811c-0.176,0.029-0.401,0.035-0.605,0.035c-0.635,0-1.188-0.145-1.188-0.895v-2.223h-0.626
		v-0.689h0.626v-1.129h1.033"/>
	<path fill="#FFFFFF" d="M107.598,121.426h0.758v0.691h-0.758v1.865c0,0.348,0.088,0.436,0.436,0.436
		c0.11,0,0.213-0.006,0.322-0.029v0.811c-0.175,0.029-0.4,0.035-0.604,0.035c-0.635,0-1.188-0.145-1.188-0.895v-2.223h-0.626v-0.689
		h0.626v-1.129h1.031"/>
	<path fill="#FFFFFF" d="M110.617,121.324c1.189,0,1.953,0.787,1.953,1.984s-0.767,1.982-1.953,1.982
		c-1.178,0-1.94-0.785-1.94-1.982S109.439,121.324,110.617,121.324 M110.617,124.512c0.707,0,0.92-0.604,0.92-1.201
		c0-0.6-0.213-1.207-0.92-1.207c-0.697,0-0.908,0.607-0.908,1.207C109.709,123.908,109.92,124.512,110.617,124.512"/>
	<path fill="#FFFFFF" d="M115.146,121.426h0.982v0.48h0.016c0.246-0.398,0.652-0.582,1.119-0.582c1.18,0,1.713,0.955,1.713,2.027
		c0,1.002-0.554,1.939-1.654,1.939c-0.449,0-0.88-0.195-1.129-0.564h-0.014v1.791h-1.033 M117.943,123.318
		c0-0.598-0.239-1.215-0.903-1.215c-0.679,0-0.896,0.607-0.896,1.215c0,0.611,0.231,1.193,0.902,1.193
		C117.725,124.512,117.943,123.932,117.943,123.318"/>
	<path fill="#FFFFFF" d="M120.387,123.559c0.029,0.656,0.35,0.953,0.924,0.953c0.416,0,0.75-0.252,0.816-0.484h0.911
		c-0.29,0.887-0.911,1.264-1.763,1.264c-1.189,0-1.924-0.816-1.924-1.98c0-1.127,0.779-1.984,1.924-1.984
		c1.283,0,1.9,1.08,1.827,2.232 M122.069,122.902c-0.095-0.525-0.321-0.799-0.822-0.799c-0.655,0-0.844,0.508-0.86,0.799H122.069z"
		/>
	<path fill="#FFFFFF" d="M123.656,121.426h0.98v0.699h0.017c0.188-0.473,0.698-0.801,1.201-0.801c0.073,0,0.159,0.016,0.224,0.035
		v0.963c-0.094-0.023-0.247-0.035-0.369-0.035c-0.759,0-1.021,0.547-1.021,1.205v1.695h-1.031"/>
	<path fill="#FFFFFF" d="M127.23,123.967c0.006,0.447,0.386,0.635,0.793,0.635c0.299,0,0.675-0.117,0.675-0.48
		c0-0.314-0.428-0.424-1.17-0.584c-0.598-0.131-1.194-0.342-1.194-1.006c0-0.959,0.83-1.207,1.639-1.207
		c0.822,0,1.579,0.277,1.66,1.203h-0.984c-0.027-0.402-0.334-0.512-0.705-0.512c-0.233,0-0.573,0.043-0.573,0.348
		c0,0.371,0.581,0.426,1.173,0.562c0.604,0.139,1.191,0.355,1.191,1.053c0,0.992-0.859,1.312-1.719,1.312
		c-0.872,0-1.723-0.328-1.768-1.326"/>
	<path fill="#FFFFFF" d="M132.107,121.324c1.188,0,1.952,0.787,1.952,1.984s-0.765,1.982-1.952,1.982
		c-1.18,0-1.941-0.785-1.941-1.982S130.928,121.324,132.107,121.324 M132.107,124.512c0.707,0,0.918-0.604,0.918-1.201
		c0-0.6-0.211-1.207-0.918-1.207c-0.697,0-0.909,0.607-0.909,1.207C131.198,123.908,131.41,124.512,132.107,124.512"/>
	<path fill="#FFFFFF" d="M134.67,121.426h0.982v0.523h0.022c0.263-0.422,0.712-0.625,1.147-0.625c1.102,0,1.376,0.619,1.376,1.553
		v2.311h-1.03v-2.123c0-0.619-0.182-0.926-0.662-0.926c-0.561,0-0.801,0.316-0.801,1.08v1.971h-1.035"/>
	<path fill="#FFFFFF" d="M141.956,120.846h-1.034v-0.854h1.034V120.846z M140.922,121.426h1.034v3.762h-1.034V121.426z"/>
	<path fill="#FFFFFF" d="M142.713,121.426h0.984v0.523h0.021c0.261-0.422,0.714-0.625,1.15-0.625c1.1,0,1.376,0.619,1.376,1.553
		v2.311h-1.032v-2.123c0-0.619-0.185-0.926-0.663-0.926c-0.559,0-0.802,0.316-0.802,1.08v1.971h-1.032"/>
	<path fill="#FFFFFF" d="M83.512,131.295c-0.064-0.422-0.336-0.646-0.765-0.646c-0.663,0-0.881,0.668-0.881,1.221
		c0,0.541,0.211,1.189,0.859,1.189c0.48,0,0.755-0.307,0.821-0.764h0.999c-0.131,0.994-0.822,1.543-1.813,1.543
		c-1.136,0-1.901-0.803-1.901-1.93c0-1.172,0.701-2.039,1.923-2.039c0.888,0,1.703,0.467,1.77,1.428"/>
	<path fill="#FFFFFF" d="M85.068,128.533h1.035v1.961h0.021c0.262-0.422,0.713-0.625,1.1-0.625c1.099,0,1.377,0.619,1.377,1.549
		v2.316h-1.035v-2.125c0-0.621-0.183-0.926-0.663-0.926c-0.56,0-0.801,0.314-0.801,1.078v1.973h-1.035"/>
	<path fill="#FFFFFF" d="M89.284,131.129c0.057-0.969,0.925-1.26,1.769-1.26c0.75,0,1.651,0.168,1.651,1.068v1.961
		c0,0.344,0.037,0.682,0.13,0.836h-1.047c-0.038-0.117-0.066-0.24-0.073-0.361c-0.329,0.34-0.809,0.465-1.267,0.465
		c-0.713,0-1.282-0.359-1.282-1.129c0-0.854,0.639-1.059,1.282-1.143c0.633-0.098,1.222-0.074,1.222-0.496
		c0-0.443-0.305-0.512-0.668-0.512c-0.395,0-0.649,0.164-0.685,0.57 M91.67,131.893c-0.174,0.154-0.538,0.162-0.858,0.219
		c-0.321,0.064-0.612,0.176-0.612,0.555c0,0.389,0.298,0.479,0.633,0.479c0.807,0,0.837-0.639,0.837-0.865V131.893z"/>
	<path fill="#FFFFFF" d="M93.447,129.969h0.982v0.703h0.014c0.189-0.475,0.7-0.803,1.2-0.803c0.075,0,0.162,0.016,0.228,0.035v0.961
		c-0.095-0.021-0.248-0.035-0.371-0.035c-0.759,0-1.02,0.547-1.02,1.209v1.695h-1.033"/>
	<path fill="#FFFFFF" d="M99.837,133.492c0,0.621-0.218,1.666-1.952,1.666c-0.742,0-1.609-0.346-1.66-1.207h1.026
		c0.095,0.387,0.407,0.518,0.771,0.518c0.577,0,0.837-0.393,0.83-0.932v-0.498h-0.014c-0.227,0.393-0.679,0.584-1.129,0.584
		c-1.128,0-1.608-0.859-1.608-1.891c0-0.977,0.56-1.865,1.615-1.865c0.494,0,0.874,0.168,1.123,0.605h0.014v-0.504h0.983
		 M98.854,131.805c0-0.611-0.211-1.156-0.881-1.156c-0.581,0-0.837,0.508-0.837,1.07c0,0.535,0.206,1.127,0.837,1.127
		C98.564,132.846,98.854,132.346,98.854,131.805"/>
	<path fill="#FFFFFF" d="M101.461,132.104c0.027,0.656,0.348,0.955,0.924,0.955c0.416,0,0.75-0.254,0.814-0.49h0.913
		c-0.292,0.887-0.913,1.27-1.764,1.27c-1.188,0-1.922-0.816-1.922-1.982c0-1.129,0.779-1.986,1.922-1.986
		c1.281,0,1.899,1.08,1.827,2.234 M103.143,131.449c-0.094-0.525-0.318-0.801-0.822-0.801c-0.654,0-0.844,0.508-0.859,0.801H103.143
		z"/>
	<path fill="#FFFFFF" d="M108.521,129.869c1.188,0,1.951,0.785,1.951,1.986c0,1.195-0.764,1.98-1.951,1.98
		c-1.178,0-1.942-0.785-1.942-1.98C106.576,130.654,107.344,129.869,108.521,129.869 M108.521,133.059
		c0.707,0,0.918-0.605,0.918-1.203c0-0.604-0.211-1.205-0.918-1.205c-0.698,0-0.91,0.604-0.91,1.205
		C107.611,132.453,107.823,133.059,108.521,133.059"/>
	<path fill="#FFFFFF" d="M111.311,130.662h-0.619v-0.693h0.619v-0.291c0-0.66,0.414-1.141,1.26-1.141
		c0.182,0,0.369,0.023,0.545,0.029v0.771c-0.125-0.018-0.248-0.021-0.379-0.021c-0.277,0-0.393,0.113-0.393,0.428v0.225h0.712v0.693
		h-0.712v3.072h-1.033"/>
	<path fill="#FFFFFF" d="M116.943,128.533h1.174l1.942,5.199h-1.188l-0.394-1.156h-1.943l-0.406,1.156h-1.158 M116.834,131.727
		h1.348l-0.655-1.908h-0.018L116.834,131.727z"/>
	<path fill="#FFFFFF" d="M121.143,132.514c0.008,0.449,0.388,0.631,0.795,0.631c0.297,0,0.678-0.117,0.678-0.48
		c0-0.312-0.432-0.424-1.174-0.584c-0.597-0.133-1.193-0.34-1.193-1.002c0-0.961,0.83-1.209,1.64-1.209
		c0.82,0,1.578,0.273,1.659,1.201h-0.981c-0.03-0.398-0.337-0.512-0.708-0.512c-0.234,0-0.574,0.045-0.574,0.35
		c0,0.371,0.582,0.424,1.171,0.559c0.606,0.141,1.194,0.357,1.194,1.061c0,0.986-0.86,1.309-1.719,1.309
		c-0.871,0-1.725-0.33-1.768-1.324"/>
	<path fill="#FFFFFF" d="M124.995,132.514c0.007,0.449,0.386,0.631,0.794,0.631c0.298,0,0.676-0.117,0.676-0.48
		c0-0.312-0.43-0.424-1.173-0.584c-0.598-0.133-1.192-0.34-1.192-1.002c0-0.961,0.828-1.209,1.638-1.209
		c0.823,0,1.581,0.273,1.661,1.201h-0.983c-0.027-0.398-0.337-0.512-0.706-0.512c-0.234,0-0.576,0.045-0.576,0.35
		c0,0.371,0.582,0.424,1.174,0.559c0.604,0.141,1.193,0.357,1.193,1.061c0,0.986-0.859,1.309-1.719,1.309
		c-0.871,0-1.725-0.33-1.768-1.324"/>
	<path fill="#FFFFFF" d="M128.898,132.104c0.029,0.656,0.347,0.955,0.924,0.955c0.415,0,0.749-0.254,0.815-0.49h0.911
		c-0.293,0.887-0.911,1.27-1.764,1.27c-1.186,0-1.922-0.816-1.922-1.982c0-1.129,0.778-1.986,1.922-1.986
		c1.281,0,1.902,1.08,1.828,2.234 M130.578,131.449c-0.094-0.525-0.32-0.801-0.82-0.801c-0.656,0-0.847,0.508-0.859,0.801H130.578z"
		/>
	<path fill="#FFFFFF" d="M132.196,129.969h0.976v0.512h0.014c0.271-0.389,0.661-0.611,1.148-0.611c0.473,0,0.896,0.172,1.102,0.625
		c0.217-0.33,0.609-0.625,1.135-0.625c0.801,0,1.375,0.373,1.375,1.346v2.518h-1.033V131.6c0-0.502-0.043-0.918-0.634-0.918
		c-0.583,0-0.692,0.48-0.692,0.955v2.096h-1.031v-2.111c0-0.436,0.027-0.939-0.625-0.939c-0.205,0-0.701,0.131-0.701,0.867v2.184
		h-1.031"/>
	<path fill="#FFFFFF" d="M138.703,128.533h1.033v1.896h0.014c0.257-0.389,0.719-0.561,1.189-0.561c0.748,0,1.557,0.607,1.557,1.98
		c0,1.383-0.81,1.986-1.557,1.986c-0.556,0-1.012-0.168-1.24-0.584h-0.013v0.48h-0.983 M140.582,130.648
		c-0.613,0-0.883,0.572-0.883,1.207c0,0.627,0.27,1.201,0.883,1.201c0.609,0,0.877-0.574,0.877-1.201
		C141.461,131.221,141.194,130.648,140.582,130.648"/>
	<rect x="143.121" y="128.533" fill="#FFFFFF" width="1.031" height="5.199"/>
	<path fill="#FFFFFF" d="M146.768,134.209c-0.227,0.604-0.582,0.852-1.293,0.852c-0.211,0-0.424-0.016-0.634-0.037v-0.854
		c0.195,0.018,0.398,0.045,0.604,0.039c0.356-0.039,0.473-0.41,0.356-0.707l-1.324-3.533h1.106l0.851,2.578h0.018l0.818-2.578h1.072
		"/>
	<path fill="#FFFFFF" d="M80.948,138.516h0.983v0.479h0.016c0.247-0.398,0.654-0.584,1.119-0.584c1.18,0,1.711,0.955,1.711,2.027
		c0,1.006-0.553,1.943-1.653,1.943c-0.451,0-0.879-0.195-1.126-0.566h-0.016v1.791h-1.032 M83.745,140.406
		c0-0.594-0.239-1.215-0.902-1.215c-0.679,0-0.896,0.604-0.896,1.215c0,0.613,0.233,1.193,0.902,1.193
		C83.526,141.6,83.745,141.02,83.745,140.406"/>
	<path fill="#FFFFFF" d="M87.164,138.41c1.188,0,1.95,0.787,1.95,1.988c0,1.195-0.763,1.98-1.95,1.98
		c-1.179,0-1.944-0.785-1.944-1.98C85.222,139.197,85.987,138.41,87.164,138.41 M87.164,141.6c0.705,0,0.917-0.602,0.917-1.201
		c0-0.604-0.211-1.207-0.917-1.207c-0.699,0-0.909,0.605-0.909,1.207C86.255,140.998,86.467,141.6,87.164,141.6"/>
	<path fill="#FFFFFF" d="M90.79,137.93h-1.033v-0.852h1.033V137.93z M89.756,138.516h1.032v3.766h-1.032V138.516z"/>
	<path fill="#FFFFFF" d="M91.547,138.516h0.981v0.525h0.025c0.26-0.426,0.713-0.631,1.149-0.631c1.097,0,1.375,0.621,1.375,1.553
		v2.318h-1.033v-2.129c0-0.617-0.183-0.924-0.663-0.924c-0.561,0-0.801,0.312-0.801,1.076v1.977h-1.032"/>
	<path fill="#FFFFFF" d="M97.115,138.516h0.759v0.691h-0.759v1.863c0,0.348,0.086,0.439,0.437,0.439c0.109,0,0.211-0.01,0.322-0.031
		v0.809c-0.176,0.027-0.401,0.037-0.607,0.037c-0.633,0-1.184-0.146-1.184-0.896v-2.221h-0.628v-0.691h0.628v-1.127h1.033"/>
	<path fill="#FFFFFF" d="M81.025,153.062h2.102c1.262,0,2.21,0.793,2.21,2.41c0,1.412-0.723,2.461-2.21,2.461h-2.102
		 M82.098,157.033h0.956c0.622,0,1.215-0.383,1.215-1.461c0-0.98-0.342-1.609-1.405-1.609h-0.765V157.033z"/>
	<path fill="#FFFFFF" d="M87.639,154.311c1.113,0,1.828,0.738,1.828,1.865c0,1.115-0.715,1.855-1.828,1.855
		c-1.105,0-1.823-0.74-1.823-1.855C85.815,155.049,86.534,154.311,87.639,154.311 M87.639,157.299c0.661,0,0.859-0.566,0.859-1.127
		c0-0.566-0.198-1.131-0.859-1.131c-0.655,0-0.854,0.564-0.854,1.131C86.785,156.732,86.984,157.299,87.639,157.299"/>
	<path fill="#FFFFFF" d="M91.884,154.404h0.921v0.492h0.021c0.246-0.396,0.67-0.586,1.078-0.586c1.033,0,1.292,0.58,1.292,1.453
		v2.17h-0.969v-1.992c0-0.582-0.171-0.869-0.624-0.869c-0.524,0-0.75,0.295-0.75,1.012v1.85h-0.969"/>
	<path fill="#FFFFFF" d="M97.589,154.311c1.112,0,1.83,0.738,1.83,1.865c0,1.115-0.717,1.855-1.83,1.855
		c-1.105,0-1.823-0.74-1.823-1.855C95.765,155.049,96.483,154.311,97.589,154.311 M97.589,157.299c0.663,0,0.86-0.566,0.86-1.127
		c0-0.566-0.197-1.131-0.86-1.131c-0.656,0-0.851,0.564-0.851,1.131C96.736,156.732,96.933,157.299,97.589,157.299"/>
	<path fill="#FFFFFF" d="M101.219,154.404h0.712v0.65h-0.712v1.744c0,0.332,0.084,0.412,0.41,0.412c0.102,0,0.197-0.006,0.299-0.027
		v0.756c-0.163,0.027-0.373,0.037-0.566,0.037c-0.591,0-1.111-0.139-1.111-0.84v-2.084h-0.589v-0.648h0.589v-1.057h0.968"/>
	<path fill="#FFFFFF" d="M104.932,156.789c0.008,0.422,0.362,0.592,0.747,0.592c0.278,0,0.634-0.109,0.634-0.451
		c0-0.291-0.402-0.393-1.1-0.545c-0.561-0.125-1.12-0.318-1.12-0.939c0-0.902,0.776-1.135,1.536-1.135
		c0.771,0,1.479,0.26,1.557,1.125h-0.924c-0.025-0.377-0.313-0.479-0.658-0.479c-0.221,0-0.541,0.041-0.541,0.33
		c0,0.348,0.545,0.396,1.099,0.523c0.566,0.133,1.12,0.336,1.12,0.988c0,0.93-0.809,1.232-1.61,1.232
		c-0.819,0-1.618-0.307-1.659-1.242"/>
	<path fill="#FFFFFF" d="M109.021,154.404h0.709v0.65h-0.709v1.744c0,0.332,0.081,0.412,0.408,0.412
		c0.101,0,0.197-0.006,0.301-0.027v0.756c-0.166,0.027-0.379,0.037-0.568,0.037c-0.592,0-1.111-0.139-1.111-0.84v-2.084h-0.588
		v-0.648h0.588v-1.057h0.971"/>
	<path fill="#FFFFFF" d="M111.854,154.311c1.113,0,1.828,0.738,1.828,1.865c0,1.115-0.715,1.855-1.828,1.855
		c-1.105,0-1.823-0.74-1.823-1.855C110.029,155.049,110.748,154.311,111.854,154.311 M111.854,157.299
		c0.662,0,0.858-0.566,0.858-1.127c0-0.566-0.195-1.131-0.858-1.131c-0.656,0-0.854,0.564-0.854,1.131
		C111,156.732,111.197,157.299,111.854,157.299"/>
	<path fill="#FFFFFF" d="M114.254,154.404h0.922v0.453h0.016c0.232-0.377,0.613-0.549,1.049-0.549c1.107,0,1.605,0.895,1.605,1.896
		c0,0.945-0.519,1.822-1.549,1.822c-0.424,0-0.828-0.182-1.059-0.531h-0.016v1.68h-0.969 M116.873,156.18
		c0-0.557-0.223-1.137-0.844-1.137c-0.636,0-0.841,0.566-0.841,1.137c0,0.574,0.218,1.121,0.846,1.121
		C116.67,157.299,116.873,156.754,116.873,156.18"/>
	<path fill="#FFFFFF" d="M121.441,154.404h0.711v0.65h-0.711v1.744c0,0.332,0.08,0.412,0.409,0.412c0.103,0,0.198-0.006,0.3-0.027
		v0.756c-0.164,0.027-0.374,0.037-0.566,0.037c-0.592,0-1.111-0.139-1.111-0.84v-2.084h-0.589v-0.648h0.589v-1.057h0.969"/>
	<path fill="#FFFFFF" d="M124.272,154.311c1.113,0,1.828,0.738,1.828,1.865c0,1.115-0.715,1.855-1.828,1.855
		c-1.104,0-1.821-0.74-1.821-1.855C122.451,155.049,123.168,154.311,124.272,154.311 M124.272,157.299
		c0.661,0,0.86-0.566,0.86-1.127c0-0.566-0.197-1.131-0.86-1.131c-0.655,0-0.854,0.564-0.854,1.131
		C123.419,156.732,123.617,157.299,124.272,157.299"/>
	<path fill="#FFFFFF" d="M130.918,155.65c-0.062-0.398-0.312-0.607-0.715-0.607c-0.619,0-0.824,0.627-0.824,1.145
		c0,0.504,0.197,1.113,0.805,1.113c0.449,0,0.709-0.287,0.771-0.717h0.935c-0.125,0.934-0.772,1.447-1.7,1.447
		c-1.065,0-1.781-0.752-1.781-1.807c0-1.102,0.656-1.914,1.805-1.914c0.83,0,1.596,0.439,1.654,1.34"/>
	<path fill="#FFFFFF" d="M134.093,154.311c1.113,0,1.827,0.738,1.827,1.865c0,1.115-0.714,1.855-1.827,1.855
		c-1.106,0-1.822-0.74-1.822-1.855C132.271,155.049,132.986,154.311,134.093,154.311 M134.093,157.299
		c0.659,0,0.86-0.566,0.86-1.127c0-0.566-0.199-1.131-0.86-1.131c-0.657,0-0.854,0.564-0.854,1.131
		C133.238,156.732,133.438,157.299,134.093,157.299"/>
	<rect x="136.521" y="153.062" fill="#FFFFFF" width="0.969" height="4.873"/>
	<rect x="138.229" y="153.062" fill="#FFFFFF" width="0.969" height="4.873"/>
	<path fill="#FFFFFF" d="M140.707,156.406c0.027,0.615,0.326,0.893,0.865,0.893c0.393,0,0.705-0.238,0.766-0.457h0.853
		c-0.272,0.834-0.853,1.189-1.651,1.189c-1.113,0-1.801-0.766-1.801-1.855c0-1.059,0.729-1.865,1.801-1.865
		c1.201,0,1.78,1.01,1.713,2.096 M142.283,155.789c-0.087-0.49-0.3-0.746-0.772-0.746c-0.612,0-0.792,0.477-0.804,0.746H142.283z"/>
	<path fill="#FFFFFF" d="M146.173,155.65c-0.063-0.398-0.313-0.607-0.718-0.607c-0.619,0-0.824,0.627-0.824,1.145
		c0,0.504,0.197,1.113,0.807,1.113c0.447,0,0.709-0.287,0.77-0.717h0.935c-0.124,0.934-0.772,1.447-1.7,1.447
		c-1.063,0-1.781-0.752-1.781-1.807c0-1.102,0.656-1.914,1.805-1.914c0.83,0,1.596,0.439,1.656,1.34"/>
	<path fill="#FFFFFF" d="M148.861,154.404h0.709v0.65h-0.709v1.744c0,0.332,0.08,0.412,0.41,0.412c0.102,0,0.197-0.006,0.299-0.027
		v0.756c-0.164,0.027-0.377,0.037-0.566,0.037c-0.595,0-1.113-0.139-1.113-0.84v-2.084h-0.586v-0.648h0.586v-1.057h0.971"/>
	<path fill="#FFFFFF" d="M80.924,161.178h0.921v0.449h0.014c0.232-0.375,0.613-0.547,1.051-0.547c1.104,0,1.605,0.896,1.605,1.898
		c0,0.939-0.52,1.822-1.55,1.822c-0.422,0-0.827-0.186-1.058-0.531h-0.014v1.678h-0.969 M83.543,162.951
		c0-0.559-0.223-1.137-0.845-1.137c-0.635,0-0.84,0.564-0.84,1.137s0.218,1.121,0.845,1.121
		C83.339,164.072,83.543,163.523,83.543,162.951"/>
	<path fill="#FFFFFF" d="M85.838,163.18c0.026,0.613,0.326,0.893,0.866,0.893c0.389,0,0.702-0.238,0.764-0.459h0.854
		c-0.272,0.834-0.854,1.189-1.65,1.189c-1.113,0-1.804-0.766-1.804-1.857c0-1.059,0.731-1.865,1.804-1.865
		c1.198,0,1.779,1.012,1.713,2.1 M87.414,162.561c-0.09-0.492-0.3-0.746-0.77-0.746c-0.615,0-0.792,0.479-0.805,0.746H87.414z"/>
	<path fill="#FFFFFF" d="M88.901,161.178h0.921v0.652h0.013c0.178-0.439,0.655-0.75,1.127-0.75c0.067,0,0.152,0.016,0.211,0.035v0.9
		c-0.09-0.02-0.233-0.031-0.348-0.031c-0.711,0-0.955,0.51-0.955,1.133v1.59h-0.969"/>
	<path fill="#FFFFFF" d="M92.252,163.557c0.005,0.426,0.361,0.598,0.742,0.598c0.28,0,0.635-0.109,0.635-0.453
		c0-0.289-0.403-0.395-1.099-0.545c-0.559-0.123-1.118-0.318-1.118-0.939c0-0.9,0.778-1.137,1.533-1.137
		c0.772,0,1.482,0.264,1.557,1.129h-0.92c-0.028-0.379-0.313-0.477-0.661-0.477c-0.221,0-0.541,0.037-0.541,0.326
		c0,0.348,0.546,0.395,1.1,0.527c0.567,0.127,1.12,0.334,1.12,0.986c0,0.93-0.807,1.23-1.611,1.23c-0.819,0-1.617-0.307-1.659-1.242
		"/>
	<path fill="#FFFFFF" d="M96.824,161.08c1.114,0,1.831,0.74,1.831,1.865c0,1.119-0.717,1.857-1.831,1.857
		c-1.104,0-1.821-0.738-1.821-1.857C95.001,161.82,95.72,161.08,96.824,161.08 M96.824,164.072c0.663,0,0.859-0.568,0.859-1.129
		c0-0.564-0.196-1.131-0.859-1.131c-0.656,0-0.854,0.564-0.854,1.131C95.97,163.504,96.168,164.072,96.824,164.072"/>
	<path fill="#FFFFFF" d="M99.225,161.178h0.922v0.492h0.021c0.244-0.396,0.669-0.59,1.077-0.59c1.032,0,1.292,0.582,1.292,1.455
		v2.17h-0.971v-1.992c0-0.582-0.17-0.867-0.621-0.867c-0.524,0-0.752,0.295-0.752,1.01v1.85h-0.967"/>
	<path fill="#FFFFFF" d="M103.178,162.262c0.055-0.908,0.868-1.182,1.66-1.182c0.703,0,1.549,0.156,1.549,1.002v1.836
		c0,0.32,0.031,0.645,0.123,0.785h-0.984c-0.032-0.107-0.062-0.223-0.066-0.342c-0.308,0.324-0.758,0.439-1.188,0.439
		c-0.67,0-1.203-0.336-1.203-1.059c0-0.799,0.602-0.988,1.203-1.072c0.592-0.088,1.145-0.068,1.145-0.463
		c0-0.416-0.287-0.479-0.628-0.479c-0.368,0-0.607,0.152-0.642,0.529 M105.416,162.98c-0.166,0.141-0.506,0.15-0.808,0.203
		c-0.298,0.062-0.573,0.164-0.573,0.518c0,0.361,0.28,0.449,0.594,0.449c0.759,0,0.787-0.6,0.787-0.811V162.98z"/>
	<rect x="107.108" y="159.836" fill="#FFFFFF" width="0.969" height="4.869"/>
	<path fill="#FFFFFF" d="M110.631,159.836h0.971v1.77h0.012c0.24-0.361,0.676-0.525,1.112-0.525c0.704,0,1.461,0.566,1.461,1.859
		s-0.76,1.861-1.461,1.861c-0.519,0-0.946-0.156-1.16-0.545h-0.013v0.447h-0.922 M112.391,161.814c-0.573,0-0.826,0.541-0.826,1.131
		c0,0.588,0.253,1.127,0.826,1.127c0.574,0,0.826-0.539,0.826-1.127C113.217,162.355,112.965,161.814,112.391,161.814"/>
	<path fill="#FFFFFF" d="M115.545,163.18c0.025,0.613,0.326,0.893,0.867,0.893c0.389,0,0.702-0.238,0.766-0.459h0.851
		c-0.272,0.834-0.851,1.189-1.651,1.189c-1.113,0-1.803-0.766-1.803-1.857c0-1.059,0.732-1.865,1.803-1.865
		c1.202,0,1.78,1.012,1.713,2.1 M117.121,162.561c-0.09-0.492-0.3-0.746-0.772-0.746c-0.612,0-0.792,0.479-0.804,0.746H117.121z"/>
	<rect x="118.635" y="159.836" fill="#FFFFFF" width="0.969" height="4.869"/>
	<path fill="#FFFFFF" d="M122.029,161.08c1.11,0,1.826,0.74,1.826,1.865c0,1.119-0.716,1.857-1.826,1.857
		c-1.109,0-1.824-0.738-1.824-1.857C120.203,161.82,120.92,161.08,122.029,161.08 M122.029,164.072c0.66,0,0.857-0.568,0.857-1.129
		c0-0.564-0.196-1.131-0.857-1.131c-0.657,0-0.855,0.564-0.855,1.131C121.174,163.504,121.372,164.072,122.029,164.072"/>
	<path fill="#FFFFFF" d="M124.43,161.178h0.92v0.492h0.021c0.247-0.396,0.668-0.59,1.08-0.59c1.03,0,1.29,0.582,1.29,1.455v2.17
		h-0.97v-1.992c0-0.582-0.171-0.867-0.621-0.867c-0.524,0-0.751,0.295-0.751,1.01v1.85h-0.969"/>
	<path fill="#FFFFFF" d="M131.812,164.48c0,0.578-0.205,1.562-1.828,1.562c-0.697,0-1.509-0.328-1.556-1.133h0.961
		c0.088,0.361,0.382,0.484,0.724,0.484c0.539,0,0.784-0.371,0.777-0.875v-0.463h-0.013c-0.213,0.371-0.636,0.545-1.06,0.545
		c-1.059,0-1.506-0.803-1.506-1.771c0-0.916,0.524-1.75,1.513-1.75c0.466,0,0.82,0.158,1.053,0.568h0.013v-0.471h0.922
		 M130.892,162.898c0-0.576-0.196-1.084-0.825-1.084c-0.545,0-0.784,0.479-0.784,1.002c0,0.502,0.19,1.055,0.784,1.055
		C130.618,163.871,130.892,163.402,130.892,162.898"/>
	<path fill="#FFFFFF" d="M133.532,160.629h-0.968v-0.797h0.968V160.629z M132.564,161.178h0.968v3.527h-0.968V161.178z"/>
	<path fill="#FFFFFF" d="M134.242,161.178h0.922v0.492h0.021c0.244-0.396,0.67-0.59,1.076-0.59c1.031,0,1.293,0.582,1.293,1.455
		v2.17h-0.971v-1.992c0-0.582-0.17-0.867-0.622-0.867c-0.522,0-0.749,0.295-0.749,1.01v1.85h-0.971"/>
	<path fill="#FFFFFF" d="M141.627,164.48c0,0.578-0.204,1.562-1.828,1.562c-0.696,0-1.51-0.328-1.557-1.133h0.963
		c0.086,0.361,0.383,0.484,0.723,0.484c0.539,0,0.784-0.371,0.776-0.875v-0.463h-0.013c-0.213,0.371-0.635,0.545-1.059,0.545
		c-1.059,0-1.506-0.803-1.506-1.771c0-0.916,0.523-1.75,1.514-1.75c0.464,0,0.818,0.158,1.051,0.568h0.013v-0.471h0.923
		 M140.705,162.898c0-0.576-0.196-1.084-0.824-1.084c-0.547,0-0.785,0.479-0.785,1.002c0,0.502,0.191,1.055,0.785,1.055
		C140.434,163.871,140.705,163.402,140.705,162.898"/>
	<path fill="#FFFFFF" d="M143.102,163.557c0.005,0.426,0.361,0.598,0.742,0.598c0.281,0,0.636-0.109,0.636-0.453
		c0-0.289-0.401-0.395-1.1-0.545c-0.558-0.123-1.12-0.318-1.12-0.939c0-0.9,0.779-1.137,1.537-1.137c0.771,0,1.48,0.264,1.555,1.129
		h-0.919c-0.027-0.379-0.314-0.477-0.663-0.477c-0.219,0-0.539,0.037-0.539,0.326c0,0.348,0.547,0.395,1.098,0.527
		c0.566,0.127,1.12,0.334,1.12,0.986c0,0.93-0.806,1.23-1.609,1.23c-0.82,0-1.619-0.307-1.661-1.242"/>
	<path fill="#FFFFFF" d="M81.025,168.861h2.102c1.262,0,2.21,0.791,2.21,2.406c0,1.412-0.723,2.467-2.21,2.467h-2.102
		 M82.098,172.834h0.956c0.622,0,1.215-0.385,1.215-1.461c0-0.984-0.342-1.611-1.405-1.611h-0.765V172.834z"/>
	<path fill="#FFFFFF" d="M87.639,170.107c1.113,0,1.828,0.738,1.828,1.869c0,1.117-0.715,1.852-1.828,1.852
		c-1.105,0-1.823-0.734-1.823-1.852C85.815,170.846,86.534,170.107,87.639,170.107 M87.639,173.098c0.661,0,0.859-0.564,0.859-1.123
		c0-0.57-0.198-1.135-0.859-1.135c-0.655,0-0.854,0.564-0.854,1.135C86.785,172.533,86.984,173.098,87.639,173.098"/>
	<path fill="#FFFFFF" d="M91.884,170.205h0.921v0.49h0.021c0.246-0.395,0.67-0.588,1.078-0.588c1.033,0,1.292,0.582,1.292,1.457
		v2.17h-0.969v-1.994c0-0.58-0.171-0.867-0.624-0.867c-0.524,0-0.75,0.291-0.75,1.012v1.85h-0.969"/>
	<path fill="#FFFFFF" d="M97.589,170.107c1.112,0,1.83,0.738,1.83,1.869c0,1.117-0.717,1.852-1.83,1.852
		c-1.105,0-1.823-0.734-1.823-1.852C95.765,170.846,96.483,170.107,97.589,170.107 M97.589,173.098c0.663,0,0.86-0.564,0.86-1.123
		c0-0.57-0.197-1.135-0.86-1.135c-0.656,0-0.851,0.564-0.851,1.135C96.736,172.533,96.933,173.098,97.589,173.098"/>
	<path fill="#FFFFFF" d="M101.219,170.205h0.712v0.65h-0.712v1.746c0,0.326,0.084,0.408,0.41,0.408c0.102,0,0.197-0.006,0.299-0.027
		v0.758c-0.163,0.027-0.373,0.035-0.566,0.035c-0.591,0-1.111-0.139-1.111-0.84v-2.08h-0.589v-0.65h0.589v-1.059h0.968"/>
	<path fill="#FFFFFF" d="M105.408,170.205h0.712v0.65h-0.712v1.746c0,0.326,0.084,0.408,0.41,0.408c0.104,0,0.197-0.006,0.301-0.027
		v0.758c-0.164,0.027-0.377,0.035-0.565,0.035c-0.594,0-1.113-0.139-1.113-0.84v-2.08h-0.587v-0.65h0.587v-1.059h0.968"/>
	<path fill="#FFFFFF" d="M106.488,171.289c0.055-0.906,0.867-1.184,1.659-1.184c0.702,0,1.549,0.16,1.549,1.008v1.834
		c0,0.32,0.034,0.645,0.125,0.787h-0.983c-0.035-0.113-0.062-0.229-0.069-0.344c-0.307,0.32-0.757,0.436-1.185,0.436
		c-0.672,0-1.203-0.332-1.203-1.057c0-0.797,0.602-0.99,1.203-1.072c0.591-0.09,1.145-0.068,1.145-0.463
		c0-0.418-0.288-0.48-0.631-0.48c-0.365,0-0.605,0.15-0.639,0.535 M108.729,172.006c-0.166,0.143-0.507,0.15-0.808,0.203
		c-0.298,0.066-0.572,0.166-0.572,0.52c0,0.363,0.279,0.453,0.594,0.453c0.758,0,0.786-0.602,0.786-0.816V172.006z"/>
	<polyline fill="#FFFFFF" points="110.48,168.861 111.449,168.861 111.449,171.477 112.672,170.205 113.818,170.205 
		112.486,171.502 113.967,173.734 112.796,173.734 111.825,172.156 111.449,172.52 111.449,173.734 110.48,173.734 	"/>
	<path fill="#FFFFFF" d="M115.053,172.205c0.027,0.615,0.328,0.893,0.867,0.893c0.389,0,0.705-0.238,0.766-0.453h0.854
		c-0.273,0.83-0.854,1.184-1.653,1.184c-1.112,0-1.804-0.762-1.804-1.852c0-1.059,0.73-1.869,1.804-1.869
		c1.2,0,1.781,1.01,1.715,2.098 M116.629,171.59c-0.09-0.492-0.298-0.75-0.77-0.75c-0.613,0-0.793,0.479-0.807,0.75H116.629z"/>
	<path fill="#FFFFFF" d="M119.958,170.205h0.923v0.654h0.015c0.177-0.443,0.655-0.752,1.126-0.752c0.068,0,0.15,0.018,0.211,0.037
		v0.9c-0.088-0.02-0.232-0.037-0.348-0.037c-0.709,0-0.952,0.514-0.952,1.137v1.592h-0.974"/>
	<path fill="#FFFFFF" d="M123.555,169.658h-0.969v-0.797h0.969V169.658z M122.586,170.205h0.969v3.529h-0.969V170.205z"/>
	<path fill="#FFFFFF" d="M125.016,172.588c0.008,0.422,0.363,0.594,0.745,0.594c0.278,0,0.634-0.109,0.634-0.451
		c0-0.295-0.402-0.396-1.1-0.549c-0.557-0.119-1.117-0.316-1.117-0.939c0-0.9,0.775-1.135,1.533-1.135
		c0.771,0,1.482,0.26,1.558,1.131h-0.922c-0.026-0.379-0.313-0.482-0.661-0.482c-0.221,0-0.539,0.043-0.539,0.332
		c0,0.35,0.546,0.393,1.098,0.521c0.568,0.131,1.121,0.336,1.121,0.992c0,0.926-0.807,1.227-1.611,1.227
		c-0.818,0-1.616-0.307-1.66-1.24"/>
	<polyline fill="#FFFFFF" points="127.964,168.861 128.932,168.861 128.932,171.477 130.156,170.205 131.303,170.205 
		129.971,171.502 131.451,173.734 130.279,173.734 129.307,172.156 128.932,172.52 128.932,173.734 127.964,173.734 	"/>
	<path fill="#FFFFFF" d="M132.488,172.588c0.008,0.422,0.363,0.594,0.744,0.594c0.281,0,0.634-0.109,0.634-0.451
		c0-0.295-0.401-0.396-1.097-0.549c-0.56-0.119-1.119-0.316-1.119-0.939c0-0.9,0.776-1.135,1.535-1.135
		c0.77,0,1.48,0.26,1.555,1.131h-0.921c-0.027-0.379-0.313-0.482-0.661-0.482c-0.219,0-0.539,0.043-0.539,0.332
		c0,0.35,0.547,0.393,1.099,0.521c0.564,0.131,1.12,0.336,1.12,0.992c0,0.926-0.809,1.227-1.609,1.227
		c-0.819,0-1.618-0.307-1.66-1.24"/>
	<g>
		<polygon fill="#FFFFFF" stroke="#0B9146" stroke-width="0.0334" stroke-linecap="round" stroke-miterlimit="22.9256" points="
			55.744,129.682 55.744,132.846 55.74,132.895 55.73,132.943 55.718,132.992 55.698,133.041 55.673,133.082 55.646,133.125 
			55.615,133.154 55.578,133.184 55.539,133.209 55.497,133.223 55.458,133.234 55.413,133.24 55.372,133.234 55.329,133.223 
			55.288,133.209 55.25,133.184 55.213,133.154 55.181,133.125 55.151,133.082 55.129,133.041 55.111,132.992 55.097,132.943 
			55.089,132.895 55.085,132.846 55.085,129.756 55.083,129.734 55.074,129.715 55.062,129.697 55.044,129.688 55.029,129.688 
			55.012,129.688 54.994,129.697 54.98,129.715 54.973,129.734 54.97,129.756 54.97,137.131 54.967,137.184 54.96,137.236 
			54.946,137.291 54.927,137.342 54.905,137.389 54.878,137.432 54.845,137.471 54.808,137.504 54.77,137.533 54.729,137.551 
			54.686,137.572 54.64,137.578 54.596,137.584 54.549,137.578 54.505,137.572 54.462,137.551 54.422,137.533 54.381,137.504 
			54.347,137.471 54.315,137.432 54.288,137.389 54.265,137.342 54.244,137.291 54.231,137.236 54.222,137.184 54.22,137.131 
			54.22,132.672 54.216,132.652 54.209,132.631 54.196,132.617 54.183,132.609 54.164,132.605 54.143,132.609 54.13,132.617 
			54.116,132.631 54.109,132.652 54.106,132.672 54.106,137.131 54.105,137.184 54.096,137.236 54.083,137.291 54.063,137.342 
			54.039,137.389 54.011,137.432 53.979,137.471 53.944,137.504 53.905,137.533 53.863,137.551 53.823,137.572 53.775,137.578 
			53.73,137.584 53.687,137.578 53.641,137.572 53.598,137.551 53.555,137.533 53.518,137.504 53.482,137.471 53.449,137.432 
			53.421,137.389 53.399,137.342 53.38,137.291 53.367,137.236 53.359,137.184 53.355,137.131 53.355,129.756 53.351,129.734 
			53.345,129.715 53.331,129.697 53.315,129.688 53.297,129.688 53.281,129.688 53.264,129.697 53.252,129.715 53.245,129.734 
			53.241,129.756 53.241,132.846 53.237,132.895 53.231,132.943 53.216,132.992 53.195,133.041 53.174,133.082 53.145,133.125 
			53.112,133.154 53.079,133.184 53.037,133.209 52.998,133.223 52.955,133.234 52.912,133.24 52.871,133.234 52.828,133.223 
			52.788,133.209 52.748,133.184 52.712,133.154 52.68,133.125 52.654,133.082 52.628,133.041 52.61,132.992 52.595,132.943 
			52.587,132.895 52.585,132.846 52.585,129.682 52.587,129.59 52.595,129.5 52.611,129.412 52.632,129.322 52.657,129.238 
			52.688,129.16 52.724,129.08 52.766,129.004 52.813,128.934 52.864,128.867 52.919,128.807 52.977,128.746 53.038,128.701 
			53.106,128.654 53.172,128.621 53.242,128.586 53.315,128.562 53.388,128.547 53.462,128.533 53.539,128.529 54.789,128.529 
			54.865,128.533 54.938,128.547 55.012,128.562 55.083,128.586 55.152,128.621 55.222,128.654 55.287,128.701 55.35,128.746 
			55.41,128.807 55.463,128.867 55.512,128.934 55.562,129.004 55.602,129.08 55.64,129.16 55.669,129.238 55.695,129.322 
			55.718,129.412 55.73,129.5 55.74,129.59 		"/>
		<polygon fill="#FFFFFF" stroke="#0B9146" stroke-width="0.0334" stroke-linecap="round" stroke-miterlimit="22.9256" points="
			50.825,128.529 49.573,128.529 49.498,128.533 49.423,128.547 49.35,128.562 49.279,128.586 49.207,128.621 49.14,128.654 
			49.075,128.701 49.013,128.746 48.953,128.807 48.899,128.867 48.847,128.934 48.802,129.004 48.761,129.08 48.725,129.16 
			48.691,129.238 48.666,129.322 48.646,129.412 48.632,129.5 48.623,129.59 48.622,129.682 48.622,132.846 48.623,132.895 
			48.632,132.943 48.645,132.992 48.662,133.041 48.686,133.082 48.716,133.125 48.749,133.154 48.784,133.184 48.821,133.209 
			48.864,133.223 48.904,133.234 48.946,133.24 48.993,133.234 49.033,133.223 49.075,133.209 49.113,133.184 49.149,133.154 
			49.18,133.125 49.208,133.082 49.232,133.041 49.252,132.992 49.265,132.943 49.273,132.895 49.275,132.846 49.275,129.756 
			49.279,129.734 49.287,129.715 49.301,129.697 49.316,129.688 49.335,129.688 49.35,129.688 49.368,129.697 49.382,129.715 
			49.388,129.734 49.392,129.756 49.392,137.131 49.393,137.184 49.402,137.236 49.416,137.291 49.435,137.342 49.456,137.389 
			49.486,137.432 49.519,137.471 49.553,137.504 49.592,137.533 49.632,137.551 49.677,137.572 49.723,137.578 49.764,137.584 
			49.811,137.578 49.855,137.572 49.898,137.551 49.941,137.533 49.98,137.504 50.015,137.471 50.047,137.432 50.075,137.389 
			50.1,137.342 50.118,137.291 50.131,137.236 50.138,137.184 50.141,137.131 50.141,132.672 50.144,132.652 50.153,132.631 
			50.164,132.617 50.182,132.609 50.2,132.605 50.216,132.609 50.231,132.617 50.245,132.631 50.253,132.652 50.257,132.672 
			50.257,137.131 50.257,137.184 50.267,137.236 50.281,137.291 50.298,137.342 50.321,137.389 50.349,137.432 50.382,137.471 
			50.419,137.504 50.456,137.533 50.498,137.551 50.54,137.572 50.586,137.578 50.632,137.584 50.678,137.578 50.72,137.572 
			50.764,137.551 50.806,137.533 50.845,137.504 50.88,137.471 50.912,137.432 50.94,137.389 50.963,137.342 50.982,137.291 
			50.996,137.236 51.003,137.184 51.007,137.131 51.007,129.756 51.009,129.734 51.017,129.715 51.029,129.697 51.045,129.688 
			51.063,129.688 51.082,129.688 51.098,129.697 51.109,129.715 51.118,129.734 51.119,129.756 51.119,132.846 51.124,132.895 
			51.133,132.943 51.146,132.992 51.165,133.041 51.188,133.082 51.216,133.125 51.247,133.154 51.286,133.184 51.323,133.209 
			51.365,133.223 51.406,133.234 51.45,133.24 51.492,133.234 51.534,133.223 51.574,133.209 51.612,133.184 51.649,133.154 
			51.682,133.125 51.708,133.082 51.733,133.041 51.752,132.992 51.767,132.943 51.774,132.895 51.778,132.846 51.778,129.682 
			51.774,129.59 51.764,129.5 51.751,129.412 51.73,129.322 51.705,129.238 51.674,129.16 51.636,129.08 51.596,129.004 
			51.549,128.934 51.499,128.867 51.443,128.807 51.386,128.746 51.322,128.701 51.259,128.654 51.188,128.621 51.118,128.586 
			51.047,128.562 50.973,128.547 50.899,128.533 		"/>
		<polygon fill="#FFFFFF" points="46.818,120.922 46.818,123.936 44.315,120.922 43.456,121.957 45.959,124.973 43.456,124.973 
			44.597,126.348 47.958,126.348 47.958,122.295 		"/>
		<polygon fill="#FFFFFF" points="60.905,124.973 58.405,124.973 60.905,121.957 60.046,120.922 57.544,123.936 57.544,120.922 
			56.403,122.295 56.403,126.348 59.766,126.348 		"/>
		<polygon fill="#FFFFFF" points="60.905,140.926 58.405,137.91 60.905,137.91 59.766,136.533 56.403,136.533 56.403,140.586 
			57.544,141.959 57.544,138.947 60.046,141.959 		"/>
		<polygon fill="#FFFFFF" points="44.597,136.533 47.958,136.533 47.958,140.586 46.818,141.959 46.818,138.947 44.315,141.959 
			43.456,140.926 45.959,137.91 43.456,137.91 		"/>
		<polygon fill="#FFFFFF" points="50.856,127.516 50.852,127.438 50.845,127.367 50.829,127.295 50.812,127.227 50.788,127.158 
			50.756,127.1 50.723,127.037 50.685,126.977 50.642,126.926 50.594,126.881 50.543,126.84 50.493,126.803 50.436,126.775 
			50.378,126.748 50.319,126.732 50.259,126.725 50.2,126.723 50.138,126.725 50.077,126.732 50.019,126.748 49.962,126.775 
			49.906,126.803 49.851,126.84 49.802,126.881 49.757,126.926 49.713,126.977 49.676,127.037 49.64,127.1 49.611,127.158 
			49.586,127.227 49.565,127.295 49.553,127.367 49.545,127.438 49.542,127.516 49.545,127.586 49.553,127.66 49.565,127.73 
			49.586,127.799 49.611,127.867 49.64,127.932 49.676,127.99 49.713,128.047 49.757,128.098 49.802,128.145 49.851,128.184 
			49.906,128.223 49.962,128.252 50.019,128.273 50.077,128.291 50.138,128.301 50.2,128.307 50.259,128.301 50.319,128.291 
			50.378,128.273 50.436,128.252 50.493,128.223 50.543,128.184 50.594,128.145 50.642,128.098 50.685,128.047 50.723,127.99 
			50.756,127.932 50.788,127.867 50.812,127.799 50.829,127.73 50.845,127.66 50.852,127.586 		"/>
		<polygon fill="#FFFFFF" points="54.821,127.516 54.817,127.438 54.808,127.367 54.794,127.295 54.776,127.227 54.752,127.158 
			54.722,127.1 54.688,127.037 54.647,126.977 54.605,126.926 54.559,126.881 54.508,126.84 54.455,126.803 54.4,126.775 
			54.345,126.748 54.285,126.732 54.224,126.725 54.164,126.723 54.101,126.725 54.042,126.732 53.982,126.748 53.926,126.775 
			53.872,126.803 53.819,126.84 53.768,126.881 53.721,126.926 53.678,126.977 53.639,127.037 53.605,127.1 53.576,127.158 
			53.549,127.227 53.533,127.295 53.518,127.367 53.51,127.438 53.506,127.516 53.51,127.586 53.518,127.66 53.533,127.73 
			53.549,127.799 53.576,127.867 53.605,127.932 53.639,127.99 53.678,128.047 53.721,128.098 53.768,128.145 53.819,128.184 
			53.872,128.223 53.926,128.252 53.982,128.273 54.042,128.291 54.101,128.301 54.164,128.307 54.224,128.301 54.285,128.291 
			54.345,128.273 54.4,128.252 54.455,128.223 54.508,128.184 54.559,128.145 54.605,128.098 54.647,128.047 54.688,127.99 
			54.722,127.932 54.752,127.867 54.776,127.799 54.794,127.73 54.808,127.66 54.817,127.586 		"/>
		<polygon fill="#FFFFFF" points="52.838,126.047 52.834,125.973 52.826,125.898 52.813,125.83 52.794,125.76 52.769,125.691 
			52.741,125.629 52.704,125.568 52.666,125.512 52.623,125.461 52.579,125.412 52.527,125.369 52.474,125.338 52.419,125.305 
			52.36,125.281 52.302,125.268 52.242,125.256 52.182,125.254 52.12,125.256 52.061,125.268 52.001,125.281 51.943,125.305 
			51.889,125.338 51.835,125.369 51.786,125.412 51.738,125.461 51.694,125.512 51.658,125.568 51.623,125.629 51.592,125.691 
			51.567,125.76 51.549,125.83 51.534,125.898 51.527,125.973 51.523,126.047 51.527,126.117 51.534,126.191 51.549,126.264 
			51.567,126.33 51.592,126.398 51.623,126.463 51.658,126.52 51.694,126.576 51.738,126.631 51.786,126.678 51.835,126.719 
			51.889,126.756 51.943,126.785 52.001,126.809 52.061,126.822 52.12,126.834 52.182,126.84 52.242,126.834 52.302,126.822 
			52.36,126.809 52.419,126.785 52.474,126.756 52.527,126.719 52.579,126.678 52.623,126.631 52.666,126.576 52.704,126.52 
			52.741,126.463 52.769,126.398 52.794,126.33 52.813,126.264 52.826,126.191 52.834,126.117 		"/>
	</g>
	<g>
		<path fill="#FFFFFF" d="M47.102,104.41v2.553l-1.297,1.293h11.797l1.311-1.312L58.91,90.085H47.123v12.132
			c-0.715,0-1.198,0.344-1.501,0.643c-0.302,0.301-0.789,1.566-0.789,1.566L47.102,104.41L47.102,104.41z"/>
		<path fill="#0B9146" d="M54.637,94.562c-0.776,0-1.403-0.626-1.403-1.401c0-0.772,0.629-1.402,1.403-1.402
			c0.771,0,1.399,0.63,1.399,1.402C56.037,93.936,55.408,94.562,54.637,94.562L54.637,94.562z"/>
		<path fill="#0B9146" d="M52.242,100.308c0,0,2.604,5.094,2.875,5.559c0.27,0.467,0.611,0.51,0.828,0.51h1.351l-3.414-6.961
			l1.068-2.302c0,0,0.852,1.143,1.141,1.452c0.17,0.172,0.343,0.238,0.528,0.238h2.508v-1.332h-2.091c0,0-1.039-1.306-1.432-1.836
			c-0.437-0.585-0.83-0.761-1.702-0.761h-2.867c-0.528,0-1.322-0.025-1.687,0.52l-1.235,2.056v-0.003
			c-0.068,0.105-0.107,0.233-0.107,0.367c0,0.368,0.299,0.667,0.67,0.667c0.238,0,0.448-0.126,0.567-0.315l-0.034,0.045
			c0,0,1.085-1.747,1.126-1.872c0.043-0.125,0.146-0.187,0.25-0.187h1.411l-1.132,2.235c-0.404,0.85-0.383,2.459-0.383,2.459
			l-0.137,1.401c-0.002,0.166-0.104,0.215-0.178,0.215c0,0-1.889,0-2.2,0c-1.153,0-1.709,0.238-2.064,0.594
			c-0.354,0.355-0.488,0.986-0.488,0.986h3.424h2.054c0.727,0,1.007-0.375,1.05-0.662l0.124-1.248l0.177-1.795v-0.029H52.242z"/>
		<path fill="#0B9146" d="M55.383,108.305l1.62-1.543h-1.467c-0.217,0-0.658,0.275-1.122,0.74c-0.462,0.463-0.822,0.787-0.822,0.787
			L55.383,108.305L55.383,108.305z"/>
		<polygon fill="#0B9146" points="59.526,108.307 45.263,108.307 45.263,108.16 59.526,108.16 		"/>
	</g>
</g>
</svg>
