<?xml version="1.0" encoding="utf-8"?>
<!-- Generator: Adobe Illustrator 16.0.0, SVG Export Plug-In . SVG Version: 6.00 Build 0)  -->
<!DOCTYPE svg PUBLIC "-//W3C//DTD SVG 1.1//EN" "http://www.w3.org/Graphics/SVG/1.1/DTD/svg11.dtd">
<svg version="1.1" id="Layer_1" xmlns="http://www.w3.org/2000/svg" xmlns:xlink="http://www.w3.org/1999/xlink" x="0px" y="0px"
	 width="200px" height="200px" viewBox="0 0 200 200" enable-background="new 0 0 200 200" xml:space="preserve">
<g>
	<rect x="28.75" y="5" fill="#FFFFFF" stroke="#000000" stroke-miterlimit="10" width="142.5" height="190"/>
	<path fill-rule="evenodd" clip-rule="evenodd" fill="#005CB9" d="M37.3,130.325h125.4v50.425c0,3.135-2.564,5.7-5.699,5.7H43
		c-3.135,0-5.7-2.565-5.7-5.7V130.325z"/>
	<circle fill-rule="evenodd" clip-rule="evenodd" fill="#005CB9" cx="100" cy="69.912" r="53.41"/>
	<path fill-rule="evenodd" clip-rule="evenodd" fill="#FFFFFF" d="M142.457,57.166l0.567,2.111l0.489,2.131l0.352,2.17l0.273,2.169
		l0.139,2.17l0.058,2.189l-0.078,2.19l-0.156,2.189l-0.294,2.169h-13.79v-19.49H142.457z M97.233,94.935L78.162,83.929l-1.683,2.913
		l11.13,6.412H64.626v3.363h22.983l-11.13,6.432l1.683,2.913L97.233,94.935z M135.377,93.254v3.363h-22.983l11.129,6.432
		l-1.682,2.913l-19.072-11.027l19.072-11.006l1.682,2.913l-11.129,6.412H135.377z M120.1,62.327h-9.154v9.169h9.154V62.327z
		 M121.625,60.802v12.219h-12.206V60.802H121.625z M126.202,79.882h-21.359l-0.509-0.059l-0.489-0.176l-0.43-0.274l-0.372-0.352
		l-0.274-0.43l-0.155-0.489l-0.06-0.507V56.227l0.06-0.508l0.155-0.489l0.274-0.431l0.372-0.371l0.43-0.274l0.489-0.156l0.509-0.059
		h21.359l0.508,0.059l0.489,0.156l0.432,0.274l0.372,0.371l0.272,0.431l0.157,0.489l0.059,0.508v21.369L126.202,79.882z
		 M126.202,79.882l0.508-0.059l0.489-0.176l0.432-0.274l0.372-0.352l0.272-0.43l0.157-0.489l0.059-0.507L126.202,79.882z
		 M97.253,59.12v15.582l-0.059,0.391l-0.157,0.372l-0.234,0.312l-0.312,0.234l-0.372,0.156l-0.392,0.059h-9.623l-3.149,3.401H71.785
		v-3.401H56.137l-0.274-2.346l-0.156-2.346l-0.02-2.346l0.098-2.346L56,64.497l0.352-2.327l0.47-2.307l0.606-2.268h14.357v-3.402
		h11.169l3.149,3.402h9.623l0.392,0.059l0.372,0.137l0.312,0.254l0.234,0.312l0.157,0.371L97.253,59.12z M94.162,61.603v10.616
		h-6.553V61.603H94.162z M76.362,77.497V56.325h-2.523v21.172H76.362z"/>
	<polygon fill="#FFFFFF" points="76.797,153.75 72.96,137.675 76.28,137.675 78.705,148.716 81.644,137.675 85.503,137.675 
		88.321,148.903 90.787,137.675 94.055,137.675 90.151,153.75 86.708,153.75 83.508,141.732 80.314,153.75 	"/>
	<path fill="#FFFFFF" d="M102.203,146.931c-0.022-0.895-0.251-1.571-0.689-2.036c-0.437-0.464-0.973-0.696-1.602-0.696
		c-0.674,0-1.228,0.247-1.665,0.738c-0.438,0.486-0.655,1.152-0.647,1.994H102.203z M102.027,150.045l3.072,0.513
		c-0.396,1.126-1.018,1.983-1.871,2.571c-0.85,0.592-1.916,0.884-3.196,0.884c-2.025,0-3.522-0.659-4.495-1.984
		c-0.768-1.06-1.153-2.399-1.153-4.012c0-1.932,0.506-3.443,1.517-4.536c1.007-1.094,2.283-1.64,3.824-1.64
		c1.733,0,3.1,0.572,4.103,1.718c1,1.146,1.479,2.897,1.438,5.259h-7.722c0.022,0.913,0.27,1.624,0.745,2.13
		c0.476,0.509,1.07,0.763,1.778,0.763c0.482,0,0.887-0.131,1.216-0.393C101.611,151.052,101.862,150.629,102.027,150.045z"/>
	<path fill="#FFFFFF" d="M114.199,148.158c-0.394,0.131-1.018,0.289-1.876,0.473c-0.854,0.183-1.411,0.362-1.677,0.534
		c-0.399,0.289-0.602,0.648-0.602,1.085c0,0.436,0.16,0.806,0.482,1.12c0.321,0.313,0.729,0.472,1.228,0.472
		c0.558,0,1.085-0.184,1.591-0.547c0.374-0.276,0.618-0.617,0.733-1.021c0.083-0.262,0.12-0.764,0.12-1.501V148.158z
		 M110.078,145.658l-2.796-0.506c0.314-1.126,0.853-1.957,1.621-2.499c0.771-0.539,1.908-0.812,3.42-0.812
		c1.378,0,2.399,0.165,3.073,0.49c0.67,0.326,1.146,0.737,1.419,1.239c0.272,0.501,0.411,1.418,0.411,2.758l-0.033,3.597
		c0,1.022,0.048,1.778,0.149,2.265c0.098,0.483,0.284,1.007,0.554,1.561h-3.05c-0.079-0.206-0.181-0.509-0.296-0.909
		c-0.049-0.184-0.086-0.304-0.109-0.363c-0.527,0.513-1.088,0.895-1.687,1.153c-0.6,0.255-1.239,0.382-1.921,0.382
		c-1.197,0-2.145-0.326-2.833-0.974c-0.692-0.65-1.037-1.475-1.037-2.47c0-0.655,0.157-1.243,0.472-1.76s0.756-0.909,1.321-1.183
		c0.565-0.272,1.385-0.513,2.451-0.719c1.438-0.269,2.437-0.523,2.991-0.756v-0.307c0-0.596-0.146-1.015-0.438-1.269
		c-0.292-0.251-0.842-0.379-1.654-0.379c-0.55,0-0.977,0.108-1.283,0.326C110.516,144.737,110.269,145.115,110.078,145.658z"/>
	<path fill="#FFFFFF" d="M123.215,153.75h-3.079v-11.644h2.858v1.654c0.49-0.782,0.933-1.299,1.322-1.546
		c0.393-0.246,0.834-0.374,1.332-0.374c0.703,0,1.377,0.194,2.028,0.584l-0.954,2.684c-0.517-0.333-1-0.502-1.445-0.502
		c-0.434,0-0.797,0.116-1.096,0.355c-0.304,0.236-0.536,0.667-0.708,1.288s-0.259,1.924-0.259,3.903V153.75z"/>
	<path fill="#FFFFFF" d="M55.109,175.515l3.091-0.472c0.131,0.599,0.397,1.056,0.801,1.366c0.4,0.311,0.962,0.468,1.688,0.468
		c0.797,0,1.396-0.146,1.796-0.441c0.273-0.203,0.408-0.479,0.408-0.82c0-0.235-0.074-0.43-0.221-0.583
		c-0.153-0.146-0.498-0.281-1.029-0.404c-2.485-0.547-4.061-1.048-4.727-1.501c-0.921-0.629-1.382-1.505-1.382-2.624
		c0-1.007,0.397-1.856,1.194-2.541c0.797-0.688,2.032-1.033,3.705-1.033c1.595,0,2.781,0.262,3.556,0.778
		c0.775,0.521,1.307,1.288,1.599,2.306l-2.904,0.535c-0.124-0.453-0.359-0.801-0.708-1.041c-0.348-0.242-0.842-0.362-1.485-0.362
		c-0.812,0-1.393,0.112-1.744,0.341c-0.232,0.16-0.349,0.37-0.349,0.625c0,0.221,0.102,0.403,0.307,0.558
		c0.277,0.206,1.235,0.494,2.879,0.868c1.64,0.37,2.784,0.827,3.436,1.369c0.645,0.551,0.966,1.314,0.966,2.291
		c0,1.066-0.445,1.987-1.34,2.755c-0.891,0.768-2.208,1.148-3.956,1.148c-1.587,0-2.841-0.321-3.769-0.965
		C55.996,177.494,55.394,176.618,55.109,175.515"/>
	<path fill="#FFFFFF" d="M75.601,172.019c-0.022-0.895-0.251-1.571-0.688-2.036c-0.438-0.464-0.973-0.695-1.602-0.695
		c-0.674,0-1.228,0.246-1.666,0.736c-0.438,0.487-0.654,1.153-0.647,1.995H75.601z M75.425,175.133l3.073,0.513
		c-0.397,1.127-1.019,1.983-1.872,2.571c-0.85,0.591-1.916,0.883-3.196,0.883c-2.024,0-3.521-0.658-4.495-1.983
		c-0.767-1.059-1.152-2.398-1.152-4.012c0-1.932,0.505-3.443,1.516-4.536c1.007-1.093,2.283-1.64,3.825-1.64
		c1.733,0,3.099,0.573,4.103,1.718c0.999,1.146,1.478,2.897,1.437,5.259h-7.721c0.021,0.913,0.269,1.625,0.744,2.129
		c0.476,0.51,1.07,0.765,1.778,0.765c0.482,0,0.887-0.131,1.216-0.394C75.01,176.14,75.26,175.717,75.425,175.133z"/>
	<path fill="#FFFFFF" d="M87.597,173.247c-0.394,0.131-1.018,0.288-1.875,0.471c-0.854,0.184-1.411,0.363-1.677,0.536
		c-0.4,0.287-0.603,0.646-0.603,1.085c0,0.434,0.16,0.805,0.482,1.118c0.322,0.315,0.729,0.473,1.228,0.473
		c0.558,0,1.086-0.184,1.591-0.547c0.374-0.277,0.618-0.617,0.733-1.021c0.083-0.262,0.12-0.764,0.12-1.501V173.247z
		 M83.476,170.746l-2.796-0.505c0.314-1.127,0.854-1.957,1.621-2.501c0.771-0.538,1.908-0.812,3.421-0.812
		c1.377,0,2.398,0.164,3.072,0.49c0.67,0.325,1.146,0.737,1.419,1.238c0.272,0.502,0.412,1.42,0.412,2.76l-0.034,3.597
		c0,1.021,0.049,1.777,0.149,2.264c0.098,0.483,0.284,1.007,0.555,1.561h-3.051c-0.079-0.205-0.18-0.509-0.296-0.909
		c-0.049-0.183-0.086-0.303-0.108-0.363c-0.527,0.514-1.089,0.895-1.688,1.153c-0.6,0.254-1.239,0.381-1.921,0.381
		c-1.197,0-2.145-0.325-2.833-0.973c-0.692-0.651-1.036-1.475-1.036-2.47c0-0.655,0.156-1.243,0.472-1.76
		c0.313-0.516,0.756-0.909,1.32-1.183c0.565-0.273,1.385-0.513,2.452-0.719c1.437-0.27,2.436-0.523,2.99-0.756v-0.307
		c0-0.595-0.146-1.015-0.438-1.269c-0.292-0.251-0.842-0.378-1.654-0.378c-0.55,0-0.977,0.108-1.283,0.325
		C83.914,169.825,83.666,170.204,83.476,170.746z"/>
	<path fill="#FFFFFF" d="M99.001,167.194v2.456h-2.104v4.692c0,0.951,0.019,1.505,0.06,1.662s0.132,0.284,0.273,0.39
		c0.143,0.101,0.318,0.153,0.521,0.153c0.288,0,0.7-0.102,1.242-0.296l0.263,2.388c-0.719,0.307-1.527,0.46-2.437,0.46
		c-0.555,0-1.056-0.094-1.501-0.276c-0.445-0.188-0.771-0.431-0.981-0.727c-0.209-0.296-0.352-0.695-0.434-1.201
		c-0.063-0.355-0.098-1.081-0.098-2.171v-5.074h-1.414v-2.456h1.414v-2.316l3.092-1.797v4.113H99.001z"/>
	<path fill="#FFFFFF" d="M110.309,172.764c0,1.205,0.19,2.096,0.568,2.676c0.535,0.819,1.242,1.229,2.13,1.229
		c0.677,0,1.258-0.292,1.736-0.872c0.479-0.581,0.719-1.498,0.719-2.747c0-1.329-0.243-2.291-0.727-2.879
		c-0.479-0.588-1.096-0.883-1.852-0.883c-0.738,0-1.352,0.287-1.842,0.86C110.552,170.724,110.309,171.592,110.309,172.764
		 M107.25,178.838v-16.074h3.08v5.789c0.951-1.081,2.074-1.624,3.377-1.624c1.418,0,2.59,0.517,3.521,1.542
		c0.929,1.025,1.393,2.5,1.393,4.424c0,1.987-0.475,3.522-1.422,4.597s-2.097,1.608-3.447,1.608c-0.666,0-1.321-0.164-1.969-0.497
		s-1.205-0.823-1.673-1.475v1.71H107.25z"/>
	<path fill="#FFFFFF" d="M128.016,172.019c-0.022-0.895-0.251-1.571-0.688-2.036c-0.438-0.464-0.974-0.695-1.603-0.695
		c-0.674,0-1.228,0.246-1.665,0.736c-0.438,0.487-0.655,1.153-0.647,1.995H128.016z M127.84,175.133l3.073,0.513
		c-0.397,1.127-1.019,1.983-1.872,2.571c-0.85,0.591-1.916,0.883-3.196,0.883c-2.024,0-3.521-0.658-4.495-1.983
		c-0.768-1.059-1.152-2.398-1.152-4.012c0-1.932,0.505-3.443,1.516-4.536c1.007-1.093,2.283-1.64,3.824-1.64
		c1.733,0,3.1,0.573,4.103,1.718c0.999,1.146,1.479,2.897,1.438,5.259h-7.722c0.022,0.913,0.27,1.625,0.745,2.129
		c0.476,0.51,1.07,0.765,1.778,0.765c0.482,0,0.887-0.131,1.216-0.394C127.425,176.14,127.675,175.717,127.84,175.133z"/>
	<rect x="133.589" y="162.764" fill="#FFFFFF" width="3.08" height="16.074"/>
	<path fill="#FFFFFF" d="M145.165,167.194v2.456h-2.104v4.692c0,0.951,0.019,1.505,0.06,1.662c0.042,0.157,0.132,0.284,0.273,0.39
		c0.143,0.101,0.318,0.153,0.521,0.153c0.288,0,0.7-0.102,1.242-0.296l0.263,2.388c-0.719,0.307-1.527,0.46-2.437,0.46
		c-0.554,0-1.056-0.094-1.501-0.276c-0.445-0.188-0.771-0.431-0.98-0.727c-0.21-0.296-0.353-0.695-0.435-1.201
		c-0.063-0.355-0.098-1.081-0.098-2.171v-5.074h-1.414v-2.456h1.414v-2.316l3.092-1.797v4.113H145.165z"/>
</g>
</svg>
