<?xml version="1.0" encoding="UTF-8"?>
<!DOCTYPE svg PUBLIC "-//W3C//DTD SVG 1.1//EN" "http://www.w3.org/Graphics/SVG/1.1/DTD/svg11.dtd">
<!-- Creator: CorelDRAW X8 -->
<svg xmlns="http://www.w3.org/2000/svg" xml:space="preserve" width="200px" height="150px" version="1.1" style="shape-rendering:geometricPrecision; text-rendering:geometricPrecision; image-rendering:optimizeQuality; fill-rule:evenodd; clip-rule:evenodd"
viewBox="0 0 200 150"
 xmlns:xlink="http://www.w3.org/1999/xlink">
 <defs>
  <style type="text/css">
   <![CDATA[
    .fil1 {fill:#FEFEFE;fill-rule:nonzero}
    .fil2 {fill:#2B2A29;fill-rule:nonzero}
    .fil0 {fill:#006EC7;fill-rule:nonzero}
   ]]>
  </style>
 </defs>
 <g id="Layer_x0020_3">
  <metadata id="CorelCorpID_0Corel-Layer"/>
  <g id="_1326379376">
   <g>
    <path class="fil0" d="M191 129c0,1 -1,2 -2,2l-178 0c-1,0 -2,-1 -2,-2l0 -108c0,-1 1,-2 2,-2l178 0c1,0 2,1 2,2l0 108z"/>
    <polygon class="fil1" points="23,33 37,33 47,63 47,63 57,33 70,33 70,77 61,77 61,46 61,46 50,77 43,77 32,46 32,46 32,77 23,77 "/>
    <polygon class="fil1" points="74,77 84,77 84,68 74,68 "/>
    <path class="fil1" d="M108 70c9,0 12,-7 12,-15 0,-7 -3,-15 -12,-15 -9,0 -12,8 -12,15 0,8 3,15 12,15zm0 -38c14,0 22,10 22,23 0,13 -8,23 -22,23 -14,0 -22,-10 -22,-23 0,-13 8,-23 22,-23z"/>
    <polygon class="fil1" points="131,77 140,77 140,68 131,68 "/>
    <polygon class="fil1" points="152,41 139,41 139,33 175,33 175,41 162,41 162,77 152,77 "/>
    <polygon class="fil1" points="169,77 179,77 179,68 169,68 "/>
    <path class="fil1" d="M28 102l5 0c3,0 5,-1 5,-4 0,-3 -2,-4 -5,-4l-5 0 0 8zm-5 -13l12 0c6,0 9,5 9,9 0,4 -3,9 -9,9l-7 0 0 9 -5 0 0 -27z"/>
    <path class="fil1" d="M49 106l7 0 -3 -10 0 0 -4 10zm1 -17l6 0 10 27 -6 0 -2 -6 -10 0 -2 6 -6 0 10 -27z"/>
    <path class="fil1" d="M73 102l6 0c3,0 4,-2 4,-4 0,-3 -1,-4 -4,-4l-6 0 0 8zm-6 -13l14 0c5,0 8,4 8,8 0,3 -1,5 -4,7l0 0c3,0 4,3 4,6 0,2 0,5 1,6l-6 0c-1,-1 -1,-4 -1,-6 0,-3 -2,-4 -4,-4l-6 0 0 10 -6 0 0 -27z"/>
    <polygon class="fil1" points="92,89 98,89 98,101 109,89 116,89 106,100 117,116 110,116 102,104 98,108 98,116 92,116 "/>
    <polygon class="fil1" points="120,116 125,116 125,89 120,89 "/>
    <polygon class="fil1" points="129,89 135,89 146,107 146,107 146,89 152,89 152,116 146,116 135,98 135,98 135,116 129,116 "/>
    <path class="fil1" d="M175 113c-2,3 -5,4 -7,4 -9,0 -14,-6 -14,-14 0,-8 5,-14 14,-14 5,0 10,3 11,9l-6 0c0,-3 -3,-4 -5,-4 -6,0 -8,4 -8,9 0,4 2,9 8,9 3,0 6,-2 6,-6l-6 0 0 -4 11 0 0 14 -3 0 -1 -3z"/>
   </g>
   <g>
    <path class="fil2" d="M195 15l-190 0 0 0 190 0 0 0 0 0zm0 0l0 0 0 0 0 0zm0 120l0 -120 0 0 0 120 0 0 0 0zm0 0l0 0 0 0 0 0zm-190 0l190 0 0 0 -190 0 0 0 0 0zm0 0l0 0 0 0 0 0zm0 -120l0 120 0 0 0 -120 0 0 0 0zm0 0l0 0 0 0 0 0z"/>
   </g>
  </g>
 </g>
</svg>
