<?xml version="1.0" encoding="utf-8"?>
<!-- Generator: Adobe Illustrator 16.0.0, SVG Export Plug-In . SVG Version: 6.00 Build 0)  -->
<!DOCTYPE svg PUBLIC "-//W3C//DTD SVG 1.1//EN" "http://www.w3.org/Graphics/SVG/1.1/DTD/svg11.dtd">
<svg version="1.1" id="Layer_1" xmlns="http://www.w3.org/2000/svg" xmlns:xlink="http://www.w3.org/1999/xlink" x="0px" y="0px"
	 width="200px" height="200px" viewBox="0 0 200 200" enable-background="new 0 0 200 200" xml:space="preserve">
<g>
	<rect x="5" y="28.75" fill="#FFFFFF" stroke="#000000" stroke-miterlimit="10" width="190" height="142.5"/>
	<polygon fill="#FFF200" points="99.657,35.188 79.831,69.737 119.148,69.737 	"/>
	<path d="M122.404,69.941l-21.338-37.508c0,0-0.324-0.807-1.382-0.807c-1.048,0-1.54,0.807-1.54,0.807L76.695,69.839
		c0,0-0.538,0.918-0.037,1.781c0,0,0.51,0.854,1.354,0.854h42.778c0,0,1.141,0.037,1.596-0.863
		C122.775,70.869,122.59,70.285,122.404,69.941 M80.221,69.533l19.436-33.872l19.102,33.872H80.221z"/>
	<polygon points="81.26,64.431 81.26,65.767 94.322,65.767 94.322,71.055 95.899,71.055 95.899,64.431 	"/>
	<polygon points="104.546,64.431 104.546,71.055 106.123,71.055 106.123,65.767 119.186,65.767 119.186,64.431 	"/>
	<path d="M96.66,61.972c0.009,0.176-0.093,0.51-0.213,0.594c-0.13,0.083-0.186,0.121-0.186,0.278
		c0.009,0.158,0.046,0.51,0.009,0.668c-0.046,0.148-0.195,0.427-0.464,0.51c-0.278,0.083-0.594,0.111-0.705,0.009
		c-0.111-0.093-0.204-0.176-0.362-0.074c-0.158,0.111-0.278,0.176-0.445,0.186c-0.176,0.009-0.816-0.009-0.918-0.028
		c-0.111-0.009-0.371-0.278-0.315-0.464c0.065-0.176,0.241-0.455,0.557-0.529c0.306-0.074,0.705-0.334,0.807-0.408
		c0.111-0.074,0.158-0.093,0.111-0.148c-0.046-0.065-0.083-0.148-0.083-0.278c0.009-0.733-0.102-3.117,0.121-3.878
		c0.121-0.39,0.325-0.705,0.891-0.993c0.584-0.288,2.282-0.891,2.663-0.993c0,0,0.909-0.111,1.225-0.705
		c0.538-0.993,0.807-1.818,0.807-2.449c0-0.186,0.102-0.343-0.111-0.39c-0.204-0.056-0.288-0.083-0.575,0.083
		c-0.38,0.213-1.039,0.297-1.735,0.232c-0.445-0.037-1.735-0.167-1.93-0.213c-0.195-0.028-0.64-0.167-0.798-0.306
		c-0.167-0.139-0.436-0.399-0.622-0.371c-0.195,0.019-0.547-0.037-0.631-0.167c-0.083-0.121,0.028-0.213,0.148-0.297
		c0.111-0.083,0.167-0.278-0.019-0.223c-0.186,0.046-0.557,0.269-0.733-0.046c-0.111-0.195,0.26-0.631,0.362-0.687
		c0.139-0.083,0.77-0.232,1.002-0.186c0.232,0.056,0.297,0.139,0.445,0.325c0.148,0.195,0.223,0.269,0.501,0.241
		s0.826-0.056,1.271,0.111c0.603,0.232,1.113,0.195,1.781-0.065c1.021-0.417,1.744-0.965,2.719-1.002
		c0.463-0.019,0.816-0.046,1.104,0.019c0,0-0.278-0.343-0.223-0.529c0.047-0.167,0.139-0.353,0.084-0.436
		c-0.047-0.102-0.047-0.223,0.027-0.325c0,0,0.213-0.167,0.297-0.195c0.084-0.019,0.139-0.056,0.148-0.148s0.074-0.538,0.584-0.835
		c0.668-0.38,1.801-0.186,2.218,0.547c0.454,0.789-0.14,1.855-0.649,2.143c-0.51,0.297-0.324,0.148-0.445,0.26
		c-0.13,0.102-0.25,0.315,0.037,0.529c0,0,0.455,0.371,0.891,1.048c0.361,0.575,0.492,0.77,1.113,1.419c0,0,0.955,0.909,0.965,1.791
		c0,0,0.037,1.429-0.241,2.496c-0.083,0.288-0.12,0.306-0.223,0.427c-0.111,0.121-0.194,0.139-0.214,0.315
		c-0.018,0.167-0.157,0.983-0.723,1.308c-0.566,0.334-1.216,0.241-1.318,0.083c-0.102-0.148,0.103-0.445,0.214-0.566
		c0.103-0.121,0.103-0.232-0.046-0.195c-0.131,0.037-0.334,0.093-0.399-0.019c-0.056-0.111-0.037-0.417,0.38-0.659
		c0.418-0.232,0.445-0.148,0.557-0.148c0.111-0.009,0.381-0.195,0.307-0.325c-0.111-0.213-0.102-0.186-0.102-0.52
		c-0.01-0.186,0.231-1.549-0.084-2.022c0,0-0.631-0.937-0.881-1.132c-0.242-0.195-0.354-0.083-0.474,0.148
		c-0.111,0.223-0.779,1.503-0.909,1.698c-0.139,0.195-0.25,0.269-0.27,0.557c-0.009,0.278-0.074,0.835-0.314,1.197
		c0,0-1.327,2.162-1.401,2.31c-0.083,0.148-0.25,0.51-0.14,0.742c0.103,0.232,0.882,1.828,0.956,1.995
		c0.093,0.176,0.13,0.315,0.083,0.39c-0.037,0.083-0.148,0.121-0.055,0.288c0.092,0.167,0.25,0.38,0.287,0.52
		c0.027,0.139,0.019,0.232-0.093,0.334c-0.093,0.102-0.575,0.482-0.677,0.482c-0.103,0-0.26-0.009-0.316,0.111
		c-0.064,0.121-0.352,0.343-0.593,0.417c-0.232,0.074-0.696,0.241-0.844,0.195c-0.158-0.037-0.315-0.111-0.399-0.25
		c-0.074-0.139,0.009-0.547,0.38-0.751c0.353-0.204,0.668-0.501,0.724-0.631c0.065-0.111,0.074-0.176-0.037-0.186
		c-0.102-0.019-0.325-0.037-0.455-0.26c-0.13-0.241-1.039-2.106-1.132-2.347c-0.102-0.26-0.167-1.15-0.093-1.401
		c0.083-0.25,0.436-1.512,0.492-1.661c-0.325,0.139-2.143,0.751-2.412,0.798c-0.26,0.046-0.473,0.083-0.455,0.26
		C96.475,59.783,96.651,61.805,96.66,61.972"/>
	<rect x="9.416" y="75.638" fill="#FFF200" width="181.446" height="92.588"/>
	<path d="M27.609,82.995h13.907c5.631,0,9.444,1.818,9.444,7.32c0,2.904-1.447,4.926-4.017,6.169c3.6,1.039,5.418,3.813,5.418,7.497
		c0,6.002-5.093,8.562-10.428,8.562H27.609V82.995z M34.112,94.953h6.578c2.273,0,3.971-1.03,3.971-3.516
		c0-2.811-2.152-3.396-4.472-3.396h-6.077V94.953z M34.112,107.496h6.949c2.57,0,4.806-0.826,4.806-3.887
		c0-3.025-1.902-4.231-4.676-4.231h-7.079V107.496z"/>
	<path d="M60.97,103.275c0.167,3.729,1.985,5.427,5.26,5.427c2.356,0,4.258-1.456,4.629-2.783h5.177
		c-1.661,5.056-5.177,7.208-10.02,7.208c-6.745,0-10.929-4.639-10.929-11.262c0-6.411,4.435-11.3,10.929-11.3
		c7.283,0,10.808,6.123,10.391,12.71H60.97z M70.535,99.545C69.997,96.567,68.708,95,65.85,95c-3.72,0-4.796,2.895-4.88,4.546
		H70.535z"/>
	<polygon points="104.342,112.543 98.302,112.543 94.499,98.182 94.415,98.182 90.769,112.543 84.683,112.543 77.901,91.149 
		84.108,91.149 88.042,105.678 88.125,105.678 91.688,91.149 97.393,91.149 101.039,105.631 101.123,105.631 105.047,91.149 
		111.096,91.149 	"/>
	<path d="M113.332,97.727c0.324-5.501,5.25-7.162,10.057-7.162c4.258,0,9.397,0.956,9.397,6.086v11.132
		c0,1.949,0.204,3.888,0.742,4.76h-5.966c-0.203-0.658-0.371-1.363-0.408-2.068c-1.864,1.947-4.592,2.652-7.199,2.652
		c-4.062,0-7.291-2.031-7.291-6.42c0-4.842,3.646-6.002,7.291-6.494c3.591-0.538,6.949-0.417,6.949-2.82
		c0-2.523-1.744-2.895-3.812-2.895c-2.227,0-3.674,0.909-3.888,3.229H113.332z M126.904,102.078
		c-0.992,0.863-3.062,0.909-4.889,1.234c-1.818,0.38-3.471,0.992-3.471,3.154c0,2.189,1.698,2.727,3.6,2.727
		c4.593,0,4.76-3.646,4.76-4.926V102.078z"/>
	<path d="M137.332,91.149h5.585v3.971h0.093c1.076-2.69,3.971-4.555,6.828-4.555c0.408,0,0.909,0.083,1.28,0.213v5.464
		c-0.538-0.13-1.41-0.213-2.115-0.213c-4.305,0-5.789,3.108-5.789,6.875v9.639h-5.882V91.149z"/>
	<path d="M158.28,103.275c0.167,3.729,1.985,5.427,5.251,5.427c2.356,0,4.268-1.456,4.639-2.783h5.177
		c-1.651,5.056-5.177,7.208-10.02,7.208c-6.754,0-10.929-4.639-10.929-11.262c0-6.411,4.435-11.3,10.929-11.3
		c7.292,0,10.799,6.123,10.391,12.71H158.28z M167.836,99.545C167.298,96.567,166.018,95,163.16,95c-3.729,0-4.806,2.895-4.88,4.546
		H167.836z"/>
	<path d="M32.025,130.448c6.735,0,11.086,4.472,11.086,11.3c0,6.791-4.351,11.263-11.086,11.263
		c-6.708,0-11.059-4.472-11.059-11.263C20.966,134.92,25.317,130.448,32.025,130.448 M32.025,148.576
		c4.008,0,5.214-3.433,5.214-6.828c0-3.433-1.206-6.865-5.214-6.865c-3.98,0-5.177,3.433-5.177,6.865
		C26.848,145.144,28.045,148.576,32.025,148.576z"/>
	<path d="M46.915,131.023h5.594v2.746h0.083c1.401-2.282,3.72-3.321,6.374-3.321c6.698,0,9.723,5.418,9.723,11.504
		c0,5.715-3.145,11.059-9.398,11.059c-2.561,0-5.01-1.113-6.411-3.229h-0.083v10.187h-5.882V131.023z M62.816,141.785
		c0-3.396-1.373-6.902-5.14-6.902c-3.841,0-5.084,3.433-5.084,6.902c0,3.488,1.317,6.791,5.13,6.791
		C61.573,148.576,62.816,145.273,62.816,141.785z"/>
	<path d="M77.048,143.158c0.167,3.729,1.985,5.418,5.26,5.418c2.356,0,4.268-1.447,4.639-2.765h5.167
		c-1.651,5.047-5.167,7.199-10.01,7.199c-6.754,0-10.929-4.639-10.929-11.263c0-6.42,4.425-11.3,10.929-11.3
		c7.283,0,10.799,6.123,10.391,12.71H77.048z M86.613,139.429c-0.538-2.969-1.818-4.546-4.676-4.546
		c-3.729,0-4.806,2.895-4.889,4.546H86.613z"/>
	<path d="M95.964,131.023h5.594v2.987h0.121c1.484-2.412,4.054-3.562,6.54-3.562c6.243,0,7.821,3.525,7.821,8.813v13.174h-5.883
		v-12.098c0-3.507-1.029-5.251-3.766-5.251c-3.183,0-4.547,1.781-4.547,6.123v11.226h-5.881V131.023z"/>
	<path d="M132.007,131.023h5.604v2.746h0.074c1.41-2.282,3.729-3.321,6.383-3.321c6.698,0,9.723,5.418,9.723,11.504
		c0,5.715-3.154,11.059-9.407,11.059c-2.561,0-4.991-1.113-6.401-3.229h-0.093v10.187h-5.882V131.023z M147.908,141.785
		c0-3.396-1.373-6.902-5.14-6.902c-3.841,0-5.084,3.433-5.084,6.902c0,3.488,1.317,6.791,5.14,6.791
		C146.665,148.576,147.908,145.273,147.908,141.785z"/>
	<path d="M163.346,127.721h-5.882v-4.843h5.882V127.721z M157.464,131.023h5.882v21.412h-5.882V131.023z"/>
	<path d="M175.425,131.023h4.305v3.934h-4.305v10.595c0,1.985,0.501,2.486,2.486,2.486c0.631,0,1.206-0.037,1.818-0.167v4.602
		c-0.983,0.167-2.264,0.204-3.433,0.204c-3.6,0-6.735-0.835-6.735-5.103v-12.617h-3.562v-3.934h3.562v-6.401h5.863V131.023z"/>
</g>
</svg>
