<?xml version="1.0" encoding="utf-8"?>
<!-- Generator: Adobe Illustrator 16.0.0, SVG Export Plug-In . SVG Version: 6.00 Build 0)  -->
<!DOCTYPE svg PUBLIC "-//W3C//DTD SVG 1.1//EN" "http://www.w3.org/Graphics/SVG/1.1/DTD/svg11.dtd">
<svg version="1.1" id="Layer_1" xmlns="http://www.w3.org/2000/svg" xmlns:xlink="http://www.w3.org/1999/xlink" x="0px" y="0px"
	 width="200px" height="200px" viewBox="0 0 200 200" enable-background="new 0 0 200 200" xml:space="preserve">
<g>
	<rect x="5.197" y="5.196" fill-rule="evenodd" clip-rule="evenodd" width="190" height="190"/>
	<polyline fill="none" stroke="#000000" stroke-width="0.1267" stroke-miterlimit="22.9256" points="195.196,195.196 5.197,195.196 
		5.197,5.196 	"/>
	<path fill-rule="evenodd" clip-rule="evenodd" fill="#FFF200" d="M19.62,9.903h161.199c5.319,0,9.671,4.353,9.671,9.672v161.198
		c0,5.319-4.352,9.672-9.671,9.672H19.62c-5.319,0-9.672-4.353-9.672-9.672V19.575C9.948,14.256,14.3,9.903,19.62,9.903z"/>
	<path fill="none" stroke="#000000" stroke-width="0.1267" stroke-miterlimit="22.9256" d="M19.62,9.903h161.199
		c5.319,0,9.671,4.353,9.671,9.672v161.198c0,5.319-4.352,9.672-9.671,9.672H19.62c-5.319,0-9.672-4.353-9.672-9.672V19.575
		C9.948,14.256,14.3,9.903,19.62,9.903z"/>
	<path fill="#000003" d="M77.489,119.944l-1.211,5.919h-1.747c-0.459,2.972-2.695,8.316-4.708,12.236
		c-2.554,4.978-10.891,16.678-11.835,18.694c-0.941,2.018-0.401,3.229-0.401,3.229l7.261,7.666c1.211,1.346,2.287,9.012-4.708,6.859
		c-13.065-4.022-19.125-11.594-19.662-13.206c-0.54-1.615,0.27-3.093,0.27-3.093c0.701-2.396,2.312-5.624,5.595-9.256
		c2.255-2.496,3.308-15.868,4.518-19.23c1.211-3.363,4.843-6.591,4.843-6.591s-5.649-1.747-5.379-3.495
		c0.267-1.749,1.076-12.561,1.076-12.561l-7.399-0.082l-2.824-2.287c0,0-0.554-23.266,0.27-24.072
		c0.823-0.806,8.606-2.422,8.606-2.422s-0.135-4.034,1.478-8.742c1.087-3.179,13.585-19.768,17.484-21.182
		c0.537-0.193,0.135-3.024,0.135-3.024c-1.612-1.345-5.916-2.421-5.916-13.45s13.717-14.793,19.903-14.793
		c0,0,9.818,0.537,10.894,6.992c1.076,6.456-0.404,7.532-0.404,7.532s1.75,3.095,1.48,4.708c-0.27,1.615,0,7.844-2.152,9.278
		c-1.615,1.076-4.975-0.132-7.531,1.481c-1.331,0.84-0.135,3.228-0.135,3.228c10.222,0,16.272,16.543,16.272,16.543
		s11.97,18.425,13.181,22.323c1.211,3.9,3.094-0.269,3.094-0.269c0.135-4.706,7.801-7.532,7.801-7.532s0.749-1.076,0.077-1.477
		c-0.671-0.405-0.887-2.826-0.887-2.826c-1.478,4.438-7.127,4.708-7.127,4.708c3.899-5.245-3.093-10.759-3.093-15.467
		c0-4.706,2.958-10.49,6.321-10.49c3.497,0,5.648,2.287,5.648,2.287c1.613-4.708,7.531-7.13,10.895-7.13
		c3.494,0,5.915,1.615,7.933,3.632c2.017,2.017,2.422,5.515,2.422,5.515s-1.882-0.672-0.672,4.438
		c1.208,5.11-1.21,11.431-1.21,11.431c-0.81,2.958-4.574,2.958-5.515,3.497c-0.941,0.537-0.136,3.093-0.136,3.093
		s6.456,8.607,10.355,13.583c3.901,4.978,9.683,10.759,11.433,12.778c1.748,2.017,3.899,5.245,3.899,10.22s-1.211,8.742-4.709,8.473
		c-3.099-0.238-3.629-5.109-6.455-5.109c-0.806,0-0.671,4.169-0.671,4.169s0.499,0.054,0.941,0.671
		c1.345,1.885,0.94,3.632,0.269,4.172c-2.039,1.629-5.648,7.396-5.648,7.396c-0.806,22.459,1.75,23.804,1.75,23.804
		c3.495,8.74,9.95,4.84,10.22,9.279c0.129,2.151-1.48,1.882-7.666,3.093s-12.236,0-12.236,0l-2.021-2.152
		c0,0,1.48,2.557-6.455,2.958c-7.934,0.405-13.447-2.688-13.447-2.688c-1.346,0.806-9.279,0.671-16.81,0.671
		c-7.532,0-8.071-1.612-9.417-2.286c-1.343-0.672-0.537-3.63-0.401-8.068c0.134-4.438-1.211-7.531-5.38-14.928
		c-4.169-7.396-2.691-18.561-2.691-18.561h-1.478c-0.404-4.438-5.784-9.817-5.784-9.817L77.489,119.944z M102.369,121.29
		c3.362-9.279,4.034-11.164,6.32-10.759l1.076-6.321l1.615-1.747c0,0-4.168-1.076-7.936-5.784c-3.245-4.055-7.262-9.279-7.262-9.279
		s-2.017,3.629,0.27,10.891c2.287,7.265,6.456,13.854,5.515,14.931c-0.944,1.076-1.346,1.747-1.346,1.747L102.369,121.29z
		 M129.132,141.195c-4.169,3.899-5.244,3.36-11.295,0.402c-3.406-1.662-13.046-6.726-13.046-6.726s-0.671,8.742-0.136,13.315
		c0.54,4.572,0.271,9.413,1.883,11.028c1.615,1.612,8.341,6.051,9.952,6.591c0,0,0.672-4.979,1.883-5.515
		c1.71-0.76,2.421-7.936,5.515-12.239C125.804,145.387,129.132,141.195,129.132,141.195z M136.528,155.988
		c0,0-3.764,4.706-4.975,7.801c-1.211,3.093,0.27,3.093,0.27,3.093s5.296,1.839,6.909,2.78c0,0,0.353-2.646-0.319-3.855
		C138.413,165.807,136.798,164.056,136.528,155.988z"/>
	<path d="M77.489,119.944l-1.211,5.919h-1.747c-0.459,2.972-2.695,8.316-4.708,12.236c-2.554,4.978-10.891,16.678-11.835,18.694
		c-0.941,2.018-0.401,3.229-0.401,3.229l7.261,7.666c1.211,1.346,2.287,9.012-4.708,6.859
		c-13.065-4.022-19.125-11.594-19.662-13.206c-0.54-1.615,0.27-3.093,0.27-3.093c0.701-2.396,2.312-5.624,5.595-9.256
		c2.255-2.496,3.308-15.868,4.518-19.23c1.211-3.363,4.843-6.591,4.843-6.591s-5.649-1.747-5.379-3.495
		c0.267-1.749,1.076-12.561,1.076-12.561l-7.399-0.082l-2.824-2.287c0,0-0.554-23.266,0.27-24.072
		c0.823-0.806,8.606-2.422,8.606-2.422s-0.135-4.034,1.478-8.742c1.087-3.179,13.585-19.768,17.484-21.182
		c0.537-0.193,0.135-3.024,0.135-3.024c-1.612-1.345-5.916-2.421-5.916-13.45s13.717-14.793,19.903-14.793
		c0,0,9.818,0.537,10.894,6.992c1.076,6.456-0.404,7.532-0.404,7.532s1.75,3.095,1.48,4.708c-0.27,1.615,0,7.844-2.152,9.278
		c-1.615,1.076-4.975-0.132-7.531,1.481c-1.331,0.84-0.135,3.228-0.135,3.228c10.222,0,16.272,16.543,16.272,16.543
		s11.97,18.425,13.181,22.323c1.211,3.9,3.094-0.269,3.094-0.269c0.135-4.706,7.801-7.532,7.801-7.532s0.749-1.076,0.077-1.477
		c-0.671-0.405-0.887-2.826-0.887-2.826c-1.478,4.438-7.127,4.708-7.127,4.708c3.899-5.245-3.093-10.759-3.093-15.467
		c0-4.706,2.958-10.49,6.321-10.49c3.497,0,5.648,2.287,5.648,2.287c1.613-4.708,7.531-7.13,10.895-7.13
		c3.494,0,5.915,1.615,7.933,3.632c2.017,2.017,2.422,5.515,2.422,5.515s-1.882-0.672-0.672,4.438
		c1.208,5.11-1.21,11.431-1.21,11.431c-0.81,2.958-4.574,2.958-5.515,3.497c-0.941,0.537-0.136,3.093-0.136,3.093
		s6.456,8.607,10.355,13.583c3.901,4.978,9.683,10.759,11.433,12.778c1.748,2.017,3.899,5.245,3.899,10.22s-1.211,8.742-4.709,8.473
		c-3.099-0.238-3.629-5.109-6.455-5.109c-0.806,0-0.671,4.169-0.671,4.169s0.499,0.054,0.941,0.671
		c1.345,1.885,0.94,3.632,0.269,4.172c-2.039,1.629-5.648,7.396-5.648,7.396c-0.806,22.459,1.75,23.804,1.75,23.804
		c3.495,8.74,9.95,4.84,10.22,9.279c0.129,2.151-1.48,1.882-7.666,3.093s-12.236,0-12.236,0l-2.021-2.152
		c0,0,1.48,2.557-6.455,2.958c-7.934,0.405-13.447-2.688-13.447-2.688c-1.346,0.806-9.279,0.671-16.81,0.671
		c-7.532,0-8.071-1.612-9.417-2.286c-1.343-0.672-0.537-3.63-0.401-8.068c0.134-4.438-1.211-7.531-5.38-14.928
		c-4.169-7.396-2.691-18.561-2.691-18.561h-1.478c-0.404-4.438-5.784-9.817-5.784-9.817L77.489,119.944z M102.369,121.29
		c3.362-9.279,4.034-11.164,6.32-10.759l1.076-6.321l1.615-1.747c0,0-4.168-1.076-7.936-5.784c-3.245-4.055-7.262-9.279-7.262-9.279
		s-2.017,3.629,0.27,10.891c2.287,7.265,6.456,13.854,5.515,14.931c-0.944,1.076-1.346,1.747-1.346,1.747L102.369,121.29z
		 M129.132,141.195c-4.169,3.899-5.244,3.36-11.295,0.402c-3.406-1.662-13.046-6.726-13.046-6.726s-0.671,8.742-0.136,13.315
		c0.54,4.572,0.271,9.413,1.883,11.028c1.615,1.612,8.341,6.051,9.952,6.591c0,0,0.672-4.979,1.883-5.515
		c1.71-0.76,2.421-7.936,5.515-12.239C125.804,145.387,129.132,141.195,129.132,141.195z M136.528,155.988
		c0,0-3.764,4.706-4.975,7.801c-1.211,3.093,0.27,3.093,0.27,3.093s5.296,1.839,6.909,2.78c0,0,0.353-2.646-0.319-3.855
		C138.413,165.807,136.798,164.056,136.528,155.988z"/>
</g>
</svg>
