<?xml version="1.0" encoding="utf-8"?>
<!-- Generator: Adobe Illustrator 16.0.0, SVG Export Plug-In . SVG Version: 6.00 Build 0)  -->
<!DOCTYPE svg PUBLIC "-//W3C//DTD SVG 1.1//EN" "http://www.w3.org/Graphics/SVG/1.1/DTD/svg11.dtd">
<svg version="1.1" id="Layer_1" xmlns="http://www.w3.org/2000/svg" xmlns:xlink="http://www.w3.org/1999/xlink" x="0px" y="0px"
	 width="200px" height="200px" viewBox="0 0 200 200" enable-background="new 0 0 200 200" xml:space="preserve">
<path fill="none" stroke="#1C181B" d="M193.955,195 M6.045,195h187.91V5H6.045V195z"/>
<path fill="#099146" d="M182.337,190.018c3.136,0,6.06-2.717,6.06-5.991l0.056-166.995c0-3.275-2.991-5.995-6.128-5.995H16.851
	c-3.133,0-6.054,2.72-6.054,5.995l-0.012,166.995c0,3.274,2.921,5.991,6.054,5.991h165.485"/>
<polyline fill="#FFFFFF" points="146.174,50.326 113.709,50.326 113.709,18.218 85.526,18.218 85.526,50.326 53.063,50.326 
	53.063,78.199 85.526,78.199 85.526,110.302 113.709,110.302 113.709,78.199 146.174,78.199 "/>
<polyline fill="#FFFFFF" points="37.999,123.198 32.849,123.198 32.849,120.023 46.927,120.023 46.927,123.198 41.776,123.198 
	41.776,137.202 37.999,137.202 "/>
<path fill="#FFFFFF" d="M48.539,120.023h3.414v6.473h0.074c0.862-1.394,2.354-2.072,3.629-2.072c3.633,0,4.546,2.046,4.546,5.126
	v7.652h-3.414v-7.026c0-2.043-0.6-3.053-2.188-3.053c-1.854,0-2.646,1.033-2.646,3.558v6.521h-3.414"/>
<path fill="#FFFFFF" d="M66.314,122.841H62.9v-2.817h3.414V122.841z M62.9,124.763h3.414v12.437H62.9V124.763z"/>
<path fill="#FFFFFF" d="M71.654,133.156c0.026,1.494,1.279,2.094,2.623,2.094c0.989,0,2.238-0.384,2.238-1.586
	c0-1.037-1.418-1.397-3.875-1.926c-1.97-0.432-3.942-1.131-3.942-3.319c0-3.175,2.741-3.995,5.413-3.995
	c2.714,0,5.216,0.915,5.481,3.975h-3.245c-0.095-1.325-1.105-1.689-2.334-1.689c-0.771,0-1.898,0.145-1.898,1.155
	c0,1.229,1.92,1.399,3.871,1.854c1.997,0.458,3.946,1.182,3.946,3.489c0,3.274-2.838,4.328-5.676,4.328
	c-2.889,0-5.703-1.08-5.848-4.379"/>
<polyline fill="#FFFFFF" points="95.496,137.202 91.692,137.202 87.437,124.763 91.022,124.763 93.645,133.254 93.688,133.254 
	96.314,124.763 99.708,124.763 "/>
<path fill="#FFFFFF" d="M103.939,131.812c0.095,2.162,1.158,3.151,3.057,3.151c1.371,0,2.478-0.846,2.691-1.613h3.011
	c-0.965,2.934-3.011,4.185-5.823,4.185c-3.919,0-6.35-2.692-6.35-6.544c0-3.725,2.573-6.567,6.35-6.567
	c4.234,0,6.278,3.561,6.04,7.389 M109.498,129.647c-0.316-1.733-1.061-2.646-2.717-2.646c-2.166,0-2.791,1.681-2.842,2.646H109.498z
	"/>
<path fill="#FFFFFF" d="M114.935,120.023h3.417v6.473h0.07c0.865-1.394,2.356-2.072,3.63-2.072c3.632,0,4.548,2.046,4.548,5.126
	v7.652h-3.416v-7.026c0-2.043-0.597-3.053-2.186-3.053c-1.855,0-2.646,1.033-2.646,3.558v6.521h-3.417"/>
<path fill="#FFFFFF" d="M132.713,122.841h-3.417v-2.817h3.417V122.841z M129.296,124.763h3.417v12.437h-3.417V124.763z"/>
<path fill="#FFFFFF" d="M143.876,129.143c-0.218-1.394-1.106-2.142-2.53-2.142c-2.186,0-2.909,2.213-2.909,4.043
	c0,1.778,0.7,3.92,2.841,3.92c1.587,0,2.501-1.011,2.715-2.525h3.298c-0.434,3.293-2.717,5.097-5.989,5.097
	c-3.756,0-6.281-2.645-6.281-6.372c0-3.875,2.312-6.739,6.353-6.739c2.936,0,5.629,1.541,5.848,4.719"/>
<rect x="149.313" y="120.023" fill="#FFFFFF" width="3.414" height="17.179"/>
<path fill="#FFFFFF" d="M158.238,131.812c0.092,2.162,1.154,3.151,3.054,3.151c1.373,0,2.475-0.846,2.696-1.613h3.007
	c-0.966,2.934-3.007,4.185-5.824,4.185c-3.919,0-6.353-2.692-6.353-6.544c0-3.725,2.578-6.567,6.353-6.567
	c4.231,0,6.282,3.561,6.039,7.389 M163.793,129.647c-0.312-1.733-1.061-2.646-2.717-2.646c-2.165,0-2.791,1.681-2.838,2.646H163.793
	z"/>
<path fill="#FFFFFF" d="M60.122,153.2c-0.216-1.397-1.107-2.142-2.525-2.142c-2.194,0-2.912,2.212-2.912,4.043
	c0,1.778,0.694,3.92,2.836,3.92c1.592,0,2.504-1.011,2.723-2.526h3.296c-0.435,3.297-2.723,5.098-5.995,5.098
	c-3.751,0-6.276-2.646-6.276-6.373c0-3.871,2.311-6.739,6.354-6.739c2.93,0,5.628,1.542,5.841,4.72"/>
<path fill="#FFFFFF" d="M65.316,152.645c0.192-3.198,3.054-4.164,5.848-4.164c2.479,0,5.461,0.555,5.461,3.538v6.474
	c0,1.128,0.121,2.259,0.431,2.764h-3.461c-0.121-0.383-0.219-0.794-0.242-1.201c-1.087,1.131-2.67,1.538-4.185,1.538
	c-2.36,0-4.235-1.175-4.235-3.727c0-2.817,2.118-3.49,4.235-3.774c2.088-0.316,4.04-0.242,4.04-1.637
	c0-1.471-1.011-1.688-2.212-1.688c-1.3,0-2.141,0.532-2.266,1.878 M73.208,155.17c-0.576,0.505-1.781,0.528-2.838,0.72
	c-1.058,0.223-2.021,0.58-2.021,1.831c0,1.276,0.986,1.586,2.091,1.586c2.673,0,2.768-2.117,2.768-2.861V155.17z"/>
<path fill="#FFFFFF" d="M79.271,148.823h3.249v2.307h0.047c0.626-1.562,2.307-2.649,3.967-2.649c0.238,0,0.531,0.05,0.747,0.121
	v3.175c-0.311-0.067-0.815-0.118-1.226-0.118c-2.501,0-3.367,1.808-3.367,3.993v5.604h-3.417"/>
<path fill="#FFFFFF" d="M88.63,148.823h3.245v2.307h0.048c0.623-1.562,2.312-2.649,3.972-2.649c0.239,0,0.528,0.05,0.745,0.121
	v3.175c-0.313-0.067-0.819-0.118-1.226-0.118c-2.502,0-3.373,1.808-3.373,3.993v5.604H88.63"/>
<path fill="#FFFFFF" d="M101.497,146.895H98.08v-2.814h3.417V146.895z M98.083,148.823h3.417v12.433h-3.417V148.823z"/>
<path fill="#FFFFFF" d="M107.008,155.87c0.098,2.161,1.155,3.151,3.054,3.151c1.374,0,2.48-0.846,2.697-1.613h3.002
	c-0.959,2.933-3.002,4.185-5.82,4.185c-3.919,0-6.35-2.69-6.35-6.544c0-3.725,2.573-6.568,6.35-6.568
	c4.237,0,6.281,3.562,6.043,7.39 M112.566,153.705c-0.313-1.73-1.061-2.646-2.723-2.646c-2.165,0-2.791,1.681-2.836,2.646H112.566z"
	/>
<path fill="#FFFFFF" d="M120.646,157.213c0.023,1.494,1.275,2.094,2.625,2.094c0.987,0,2.235-0.383,2.235-1.586
	c0-1.036-1.42-1.396-3.871-1.926c-1.976-0.431-3.946-1.131-3.946-3.315c0-3.179,2.738-3.999,5.414-3.999
	c2.714,0,5.218,0.915,5.48,3.975h-3.248c-0.092-1.325-1.102-1.688-2.33-1.688c-0.771,0-1.898,0.145-1.898,1.155
	c0,1.229,1.923,1.396,3.871,1.854c1.994,0.458,3.945,1.179,3.945,3.491c0,3.271-2.841,4.326-5.676,4.326
	c-2.889,0-5.703-1.08-5.851-4.38"/>
<path fill="#FFFFFF" d="M137.465,152.645c0.192-3.198,3.054-4.164,5.845-4.164c2.478,0,5.457,0.555,5.457,3.538v6.474
	c0,1.128,0.121,2.259,0.438,2.764h-3.467c-0.122-0.383-0.213-0.794-0.242-1.201c-1.078,1.131-2.67,1.538-4.186,1.538
	c-2.356,0-4.231-1.175-4.231-3.727c0-2.817,2.115-3.49,4.231-3.774c2.097-0.316,4.043-0.242,4.043-1.637
	c0-1.471-1.013-1.688-2.211-1.688c-1.303,0-2.142,0.532-2.263,1.878 M145.353,155.17c-0.575,0.505-1.777,0.528-2.837,0.72
	c-1.061,0.223-2.021,0.58-2.021,1.831c0,1.276,0.986,1.586,2.091,1.586c2.669,0,2.767-2.117,2.767-2.861V155.17z"/>
<polyline fill="#FFFFFF" points="34.887,168.138 46.959,168.138 46.959,171.312 38.664,171.312 38.664,175.284 45.855,175.284 
	45.855,178.217 38.664,178.217 38.664,185.313 34.887,185.313 "/>
<path fill="#FFFFFF" d="M52.302,170.952h-3.414v-2.814h3.414V170.952z M48.888,172.881h3.414v12.433h-3.414V172.881z"/>
<path fill="#FFFFFF" d="M54.995,172.881h3.248v2.306h0.048c0.623-1.562,2.312-2.646,3.973-2.646c0.238,0,0.528,0.047,0.744,0.117
	v3.179c-0.316-0.071-0.821-0.122-1.226-0.122c-2.502,0-3.373,1.809-3.373,3.993v5.605h-3.414"/>
<path fill="#FFFFFF" d="M66.997,181.273c0.029,1.491,1.279,2.091,2.622,2.091c0.99,0,2.242-0.384,2.242-1.586
	c0-1.036-1.421-1.397-3.878-1.926c-1.97-0.431-3.939-1.131-3.939-3.316c0-3.181,2.74-3.995,5.41-3.995
	c2.72,0,5.219,0.912,5.484,3.972h-3.246c-0.097-1.326-1.107-1.688-2.333-1.688c-0.771,0-1.901,0.145-1.901,1.153
	c0,1.229,1.923,1.398,3.874,1.855c1.997,0.458,3.946,1.179,3.946,3.491c0,3.271-2.841,4.326-5.679,4.326
	c-2.886,0-5.7-1.081-5.845-4.377"/>
<path fill="#FFFFFF" d="M81.601,172.881h2.502v2.282h-2.502v6.161c0,1.15,0.293,1.44,1.447,1.44c0.36,0,0.694-0.026,1.055-0.098
	v2.673c-0.573,0.095-1.32,0.121-1.996,0.121c-2.092,0-3.923-0.481-3.923-2.962v-7.336H76.12v-2.282h2.063v-3.733h3.417"/>
<path fill="#FFFFFF" d="M97.478,168.138h3.879l6.422,17.176h-3.922l-1.299-3.824h-6.424l-1.347,3.824h-3.824 M97.117,178.678h4.454
	l-2.165-6.305h-0.05L97.117,178.678z"/>
<path fill="#FFFFFF" d="M112.421,170.952h-3.417v-2.814h3.417V170.952z M109.004,172.881h3.417v12.433h-3.417V172.881z"/>
<path fill="#FFFFFF" d="M123.992,183.728h-0.051c-0.791,1.347-2.185,1.923-3.777,1.923c-3.75,0-5.578-3.222-5.578-6.663
	c0-3.343,1.853-6.446,5.508-6.446c1.465,0,2.912,0.623,3.704,1.854h-0.021h0.045v-6.257h3.42v17.176h-3.249 M121.01,175.112
	c-2.242,0-3.01,1.929-3.01,3.97c0,1.949,0.89,3.996,3.01,3.996c2.262,0,2.932-1.976,2.932-4.017
	C123.941,177.041,123.221,175.112,121.01,175.112"/>
<polyline fill="#FFFFFF" points="136.862,168.138 140.64,168.138 140.64,175.261 147.353,168.138 152.066,168.138 145.353,174.921 
	152.715,185.313 147.979,185.313 142.804,177.591 140.64,179.779 140.64,185.313 136.862,185.313 "/>
<path fill="#FFFFFF" d="M157.385,170.952h-3.417v-2.814h3.417V170.952z M153.968,172.881h3.417v12.433h-3.417V172.881z"/>
<path fill="#FFFFFF" d="M164.404,172.881h2.502v2.282h-2.502v6.161c0,1.15,0.293,1.44,1.447,1.44c0.36,0,0.694-0.026,1.055-0.098
	v2.673c-0.573,0.095-1.32,0.121-1.994,0.121c-2.091,0-3.925-0.481-3.925-2.962v-7.336h-2.063v-2.282h2.063v-3.733h3.417"/>
</svg>
