<?xml version="1.0" encoding="utf-8"?>
<!-- Generator: Adobe Illustrator 16.0.0, SVG Export Plug-In . SVG Version: 6.00 Build 0)  -->
<!DOCTYPE svg PUBLIC "-//W3C//DTD SVG 1.1//EN" "http://www.w3.org/Graphics/SVG/1.1/DTD/svg11.dtd">
<svg version="1.1" id="Layer_1" xmlns="http://www.w3.org/2000/svg" xmlns:xlink="http://www.w3.org/1999/xlink" x="0px" y="0px"
	 width="200px" height="200px" viewBox="0 0 200 200" enable-background="new 0 0 200 200" xml:space="preserve">
<g>
	<g>
		<rect x="52.501" y="5" fill="none" stroke="#1C181B" width="94.998" height="190"/>
		<path fill="#ED1C24" d="M144.888,188.635c0,1.566-1.276,2.844-2.839,2.844H80.278c-1.561,0-2.839-1.277-2.839-2.844V150.15
			c0-1.566,1.278-2.846,2.839-2.846h61.771c1.562,0,2.839,1.279,2.839,2.846"/>
		<path fill="#ED1C24" d="M144.888,142.322c0,1.566-1.276,2.844-2.839,2.844H80.278c-1.561,0-2.839-1.277-2.839-2.844v-38.484
			c0-1.568,1.278-2.847,2.839-2.847h61.771c1.562,0,2.839,1.278,2.839,2.847"/>
		<path fill="#FFF200" d="M144.888,96.008c0,1.566-1.276,2.847-2.839,2.847H80.278c-1.561,0-2.839-1.281-2.839-2.847V57.526
			c0-1.564,1.278-2.847,2.839-2.847h61.771c1.562,0,2.839,1.283,2.839,2.847"/>
		<path fill="#FFF200" d="M144.888,49.695c0,1.566-1.276,2.845-2.839,2.845H80.278c-1.561,0-2.839-1.279-2.839-2.845V11.211
			c0-1.567,1.278-2.845,2.839-2.845h61.771c1.562,0,2.839,1.278,2.839,2.845"/>
		<polyline fill="#1C181B" points="80.381,61.807 82.297,61.807 82.297,65.985 85.822,65.985 85.822,61.807 87.736,61.807 
			87.736,72.694 85.822,72.694 85.822,67.997 82.297,67.997 82.297,72.694 80.381,72.694 		"/>
		<path fill="#1C181B" d="M90.775,63.589h-1.732v-1.783h1.732V63.589z M89.043,64.812h1.732v7.881h-1.732V64.812z"/>
		<path fill="#1C181B" d="M97.96,72.19c0,1.296-0.366,3.493-3.269,3.493c-1.243,0-2.696-0.731-2.781-2.533h1.721
			c0.157,0.807,0.684,1.082,1.294,1.082c0.963,0,1.401-0.82,1.391-1.95v-1.039h-0.026c-0.378,0.825-1.135,1.222-1.89,1.222
			c-1.89,0-2.697-1.8-2.697-3.964c0-2.044,0.94-3.903,2.708-3.903c0.831,0,1.464,0.351,1.879,1.265h0.026v-1.051h1.645
			 M96.315,68.651c0-1.278-0.356-2.422-1.478-2.422c-0.978,0-1.4,1.067-1.4,2.239c0,1.132,0.338,2.365,1.4,2.365
			C95.824,70.833,96.315,69.782,96.315,68.651"/>
		<path fill="#1C181B" d="M99.107,61.807h1.732v4.102h0.037c0.437-0.884,1.193-1.311,1.84-1.311c1.844,0,2.306,1.296,2.306,3.247
			v4.85h-1.73v-4.453c0-1.296-0.308-1.938-1.11-1.938c-0.939,0-1.342,0.655-1.342,2.256v4.135h-1.732"/>
		<line fill="none" stroke="#1C181B" stroke-width="1.7315" x1="107.011" y1="72.694" x2="107.011" y2="61.807"/>
		<path fill="#1C181B" d="M112.109,73.687c-0.377,1.266-0.973,1.783-2.169,1.783c-0.354,0-0.709-0.033-1.061-0.076v-1.785
			c0.327,0.031,0.67,0.092,1.011,0.079c0.598-0.079,0.794-0.855,0.598-1.479l-2.219-7.396h1.854l1.425,5.398h0.026l1.376-5.398
			h1.796"/>
		<polyline fill="#1C181B" points="80.381,80.071 86.505,80.071 86.505,82.083 82.297,82.083 82.297,84.599 85.944,84.599 
			85.944,86.46 82.297,86.46 82.297,90.959 80.381,90.959 		"/>
		<line fill="none" stroke="#1C181B" stroke-width="1.7315" x1="88.103" y1="90.959" x2="88.103" y2="80.071"/>
		<path fill="#1C181B" d="M90.021,85.5c0.096-2.027,1.549-2.636,2.963-2.636c1.257,0,2.771,0.347,2.771,2.238v4.102
			c0,0.718,0.06,1.432,0.219,1.754h-1.757c-0.063-0.245-0.108-0.502-0.122-0.764c-0.55,0.716-1.354,0.978-2.123,0.978
			c-1.195,0-2.146-0.747-2.146-2.365c0-1.783,1.073-2.212,2.146-2.392c1.061-0.201,2.049-0.152,2.049-1.039
			c0-0.929-0.513-1.067-1.121-1.067c-0.659,0-1.087,0.334-1.146,1.189 M94.02,87.102c-0.292,0.318-0.903,0.336-1.439,0.458
			c-0.535,0.135-1.023,0.362-1.023,1.156c0,0.81,0.499,1.008,1.062,1.008c1.353,0,1.4-1.344,1.4-1.815V87.102z"/>
		<path fill="#1C181B" d="M96.899,83.074h1.633v1.069h0.025c0.45-0.807,1.111-1.278,1.927-1.278c0.795,0,1.499,0.362,1.844,1.309
			c0.364-0.688,1.023-1.309,1.902-1.309c1.342,0,2.305,0.777,2.305,2.819v5.276h-1.73V86.49c0-1.051-0.074-1.92-1.062-1.92
			c-0.976,0-1.159,1.004-1.159,1.997v4.392h-1.731v-4.425c0-0.912,0.048-1.964-1.05-1.964c-0.343,0-1.172,0.275-1.172,1.813v4.576
			h-1.73"/>
		<path fill="#1C181B" d="M107.706,83.074h1.635v1.069h0.023c0.454-0.807,1.113-1.278,1.927-1.278c0.794,0,1.504,0.362,1.844,1.309
			c0.366-0.688,1.023-1.309,1.902-1.309c1.342,0,2.305,0.777,2.305,2.819v5.276h-1.73V86.49c0-1.051-0.074-1.92-1.062-1.92
			c-0.976,0-1.158,1.004-1.158,1.997v4.392h-1.732v-4.425c0-0.912,0.05-1.964-1.048-1.964c-0.343,0-1.172,0.275-1.172,1.813v4.576
			h-1.732"/>
		<path fill="#1C181B" d="M118.394,85.5c0.098-2.027,1.549-2.636,2.965-2.636c1.257,0,2.767,0.347,2.767,2.238v4.102
			c0,0.718,0.063,1.432,0.223,1.754h-1.759c-0.061-0.245-0.106-0.502-0.122-0.764c-0.548,0.716-1.353,0.978-2.121,0.978
			c-1.195,0-2.146-0.747-2.146-2.365c0-1.783,1.073-2.212,2.146-2.392c1.061-0.201,2.049-0.152,2.049-1.039
			c0-0.929-0.513-1.067-1.121-1.067c-0.659,0-1.087,0.334-1.147,1.189 M122.395,87.102c-0.292,0.318-0.903,0.336-1.439,0.458
			c-0.535,0.135-1.025,0.362-1.025,1.156c0,0.81,0.501,1.008,1.064,1.008c1.351,0,1.4-1.344,1.4-1.815V87.102z"/>
		<path fill="#1C181B" d="M125.225,80.071h1.732v3.964h0.024c0.428-0.809,1.206-1.171,1.987-1.171c1.257,0,2.609,1.263,2.609,4.146
			c0,2.897-1.353,4.163-2.609,4.163c-0.928,0-1.695-0.354-2.072-1.222h-0.026v1.008h-1.646 M128.371,84.492
			c-1.023,0-1.475,1.205-1.475,2.533c0,1.312,0.451,2.516,1.475,2.516c1.025,0,1.477-1.204,1.477-2.516
			C129.848,85.696,129.396,84.492,128.371,84.492"/>
		<line fill="none" stroke="#1C181B" stroke-width="1.7315" x1="133.348" y1="90.959" x2="133.348" y2="80.071"/>
		<path fill="#1C181B" d="M136.765,87.542c0.05,1.375,0.585,1.999,1.549,1.999c0.696,0,1.255-0.532,1.366-1.021h1.525
			c-0.487,1.859-1.525,2.653-2.952,2.653c-1.988,0-3.223-1.708-3.223-4.148c0-2.363,1.309-4.161,3.223-4.161
			c2.146,0,3.183,2.256,3.061,4.678 M139.581,86.172c-0.156-1.1-0.534-1.68-1.376-1.68c-1.1,0-1.419,1.069-1.44,1.68H139.581z"/>
		<polyline fill="#1C181B" points="80.372,17.748 86.429,17.748 86.429,19.518 82.269,19.518 82.269,21.728 85.873,21.728 
			85.873,23.364 82.269,23.364 82.269,27.318 80.372,27.318 		"/>
		<line fill="none" stroke="#1C181B" stroke-width="1.7137" x1="88.009" y1="27.318" x2="88.009" y2="17.748"/>
		<path fill="#1C181B" d="M89.904,22.52c0.097-1.783,1.532-2.319,2.931-2.319c1.244,0,2.74,0.31,2.74,1.972v3.604
			c0,0.631,0.06,1.261,0.216,1.541h-1.738c-0.057-0.214-0.107-0.441-0.118-0.667c-0.543,0.628-1.34,0.855-2.102,0.855
			c-1.182,0-2.12-0.654-2.12-2.077c0-1.566,1.061-1.942,2.12-2.103c1.05-0.175,2.027-0.135,2.027-0.912
			c0-0.818-0.506-0.938-1.11-0.938c-0.65,0-1.071,0.294-1.133,1.045 M93.86,23.927c-0.288,0.281-0.89,0.297-1.423,0.401
			c-0.532,0.122-1.015,0.323-1.015,1.021c0,0.709,0.496,0.883,1.05,0.883c1.34,0,1.388-1.18,1.388-1.595V23.927z"/>
		<path fill="#1C181B" d="M96.708,20.388h1.616v0.938h0.022c0.447-0.711,1.1-1.126,1.909-1.126c0.783,0,1.483,0.323,1.819,1.152
			c0.362-0.602,1.015-1.152,1.885-1.152c1.324,0,2.278,0.685,2.278,2.481v4.636h-1.713v-3.927c0-0.925-0.072-1.689-1.05-1.689
			c-0.964,0-1.146,0.886-1.146,1.756v3.86h-1.712v-3.886c0-0.805,0.045-1.73-1.039-1.73c-0.338,0-1.158,0.242-1.158,1.597v4.019
			h-1.713"/>
		<path fill="#1C181B" d="M107.396,20.388h1.617v0.938h0.021c0.449-0.711,1.1-1.126,1.909-1.126c0.783,0,1.483,0.323,1.819,1.152
			c0.362-0.602,1.015-1.152,1.883-1.152c1.327,0,2.28,0.685,2.28,2.481v4.636h-1.71v-3.927c0-0.925-0.074-1.689-1.052-1.689
			c-0.965,0-1.146,0.886-1.146,1.756v3.86h-1.713v-3.886c0-0.805,0.048-1.73-1.041-1.73c-0.336,0-1.156,0.242-1.156,1.597v4.019
			h-1.713"/>
		<path fill="#1C181B" d="M117.966,22.52c0.096-1.783,1.533-2.319,2.933-2.319c1.241,0,2.738,0.31,2.738,1.972v3.604
			c0,0.631,0.061,1.261,0.216,1.541h-1.737c-0.059-0.214-0.106-0.441-0.12-0.667c-0.541,0.628-1.339,0.855-2.099,0.855
			c-1.183,0-2.123-0.654-2.123-2.077c0-1.566,1.062-1.942,2.123-2.103c1.05-0.175,2.027-0.135,2.027-0.912
			c0-0.818-0.509-0.938-1.111-0.938c-0.649,0-1.073,0.294-1.132,1.045 M121.924,23.927c-0.288,0.281-0.893,0.297-1.425,0.401
			c-0.528,0.122-1.015,0.323-1.015,1.021c0,0.709,0.497,0.883,1.052,0.883c1.339,0,1.388-1.18,1.388-1.595V23.927z"/>
		<path fill="#1C181B" d="M124.723,17.748h1.713v3.485h0.024c0.423-0.709,1.193-1.032,1.968-1.032c1.241,0,2.579,1.113,2.579,3.648
			c0,2.544-1.338,3.657-2.579,3.657c-0.916,0-1.68-0.305-2.051-1.071h-0.026v0.884h-1.628 M127.834,21.636
			c-1.015,0-1.457,1.058-1.457,2.226c0,1.152,0.442,2.21,1.457,2.21s1.462-1.059,1.462-2.21
			C129.296,22.694,128.849,21.636,127.834,21.636"/>
		<line fill="none" stroke="#1C181B" stroke-width="1.7137" x1="132.757" y1="27.318" x2="132.757" y2="17.748"/>
		<path fill="#1C181B" d="M136.134,24.315c0.051,1.209,0.583,1.757,1.534,1.757c0.688,0,1.243-0.469,1.351-0.897h1.51
			c-0.484,1.634-1.51,2.33-2.922,2.33c-1.966,0-3.183-1.501-3.183-3.644c0-2.079,1.289-3.661,3.183-3.661
			c2.126,0,3.151,1.985,3.031,4.115 M138.923,23.111c-0.155-0.967-0.53-1.475-1.362-1.475c-1.086,0-1.4,0.938-1.427,1.475H138.923z"
			/>
		<polyline fill="#1C181B" points="83.641,42.995 81.735,42.995 79.6,36.063 81.397,36.063 82.713,40.797 82.737,40.797 
			84.053,36.063 85.753,36.063 		"/>
		<path fill="#1C181B" d="M86.152,38.197c0.096-1.785,1.531-2.321,2.932-2.321c1.242,0,2.738,0.31,2.738,1.972v3.604
			c0,0.63,0.062,1.261,0.219,1.542h-1.739c-0.062-0.216-0.106-0.443-0.12-0.67c-0.543,0.628-1.34,0.857-2.099,0.857
			c-1.185,0-2.125-0.657-2.125-2.079c0-1.566,1.062-1.942,2.125-2.104c1.047-0.174,2.026-0.135,2.026-0.912
			c0-0.816-0.508-0.938-1.11-0.938c-0.65,0-1.075,0.297-1.135,1.047 M90.109,39.602c-0.29,0.284-0.895,0.296-1.422,0.403
			c-0.532,0.12-1.015,0.321-1.015,1.019c0,0.711,0.495,0.886,1.049,0.886c1.338,0,1.388-1.183,1.388-1.597V39.602z"/>
		<path fill="#1C181B" d="M92.909,36.063h1.63v0.886h0.021c0.41-0.737,1.087-1.073,1.859-1.073c1.955,0,2.834,1.758,2.834,3.727
			c0,1.85-0.916,3.58-2.738,3.58c-0.748,0-1.46-0.362-1.867-1.045h-0.026v3.297h-1.713 M97.541,39.549
			c0-1.1-0.399-2.238-1.494-2.238c-1.122,0-1.486,1.113-1.486,2.238c0,1.126,0.387,2.2,1.497,2.2
			C97.179,41.749,97.541,40.675,97.541,39.549"/>
		<path fill="#1C181B" d="M103.065,35.875c1.966,0,3.233,1.449,3.233,3.661c0,2.199-1.268,3.646-3.233,3.646
			c-1.955,0-3.22-1.446-3.22-3.646C99.846,37.324,101.11,35.875,103.065,35.875 M103.065,41.749c1.172,0,1.519-1.113,1.519-2.212
			c0-1.113-0.347-2.226-1.519-2.226c-1.156,0-1.508,1.113-1.508,2.226C101.558,40.636,101.909,41.749,103.065,41.749"/>
		<path fill="#1C181B" d="M113.02,42.995h-1.628v-0.966h-0.037c-0.435,0.779-1.183,1.154-1.905,1.154
			c-1.823,0-2.282-1.141-2.282-2.856v-4.263h1.716v3.914c0,1.141,0.301,1.704,1.095,1.704c0.93,0,1.329-0.578,1.329-1.983v-3.635
			h1.713"/>
		<path fill="#1C181B" d="M114.08,36.063h1.63v1.287h0.023c0.316-0.871,1.161-1.475,1.992-1.475c0.12,0,0.264,0.028,0.375,0.069
			v1.768c-0.159-0.039-0.412-0.065-0.617-0.065c-1.252,0-1.688,1.003-1.688,2.226v3.122h-1.715"/>
		<polyline fill="#FFFFFF" points="80.602,105.023 83.003,105.023 87.585,113.211 87.616,113.211 87.616,105.023 89.876,105.023 
			89.876,117.225 87.461,117.225 82.893,109.057 82.864,109.057 82.864,117.225 80.602,117.225 		"/>
		<path fill="#FFFFFF" d="M95.322,108.148c2.507,0,4.122,1.846,4.122,4.67c0,2.801-1.615,4.646-4.122,4.646
			c-2.491,0-4.106-1.846-4.106-4.646C91.216,109.994,92.831,108.148,95.322,108.148 M95.322,115.637
			c1.492,0,1.938-1.418,1.938-2.818c0-1.418-0.445-2.836-1.938-2.836c-1.478,0-1.925,1.418-1.925,2.836
			C93.397,114.219,93.845,115.637,95.322,115.637"/>
		<path fill="#FFFFFF" d="M82.246,132.611c0,1.629,1.142,2.256,2.433,2.256c0.847,0,2.139-0.27,2.139-1.518
			c0-1.318-1.647-1.541-3.262-2.016c-1.63-0.48-3.277-1.184-3.277-3.471c0-2.494,2.123-3.691,4.106-3.691
			c2.293,0,4.4,1.109,4.4,3.928h-2.337c-0.078-1.467-1.017-1.846-2.171-1.846c-0.768,0-1.662,0.363-1.662,1.389
			c0,0.938,0.525,1.059,3.279,1.846c0.799,0.223,3.262,0.785,3.262,3.557c0,2.238-1.586,3.914-4.568,3.914
			c-2.434,0-4.709-1.336-4.681-4.348"/>
		<path fill="#FFFFFF" d="M90.107,127.83h2.062v1.195h0.028c0.569-0.908,1.4-1.436,2.431-1.436c1.001,0,1.894,0.41,2.323,1.471
			c0.463-0.77,1.292-1.471,2.4-1.471c1.69,0,2.905,0.873,2.905,3.164v5.912h-2.182v-5.01c0-1.178-0.094-2.15-1.337-2.15
			c-1.232,0-1.462,1.125-1.462,2.238v4.922h-2.187v-4.957c0-1.025,0.063-2.203-1.322-2.203c-0.43,0-1.477,0.305-1.477,2.033v5.127
			h-2.185"/>
		<path fill="#FFFFFF" d="M107.536,127.59c2.507,0,4.122,1.846,4.122,4.664c0,2.807-1.615,4.652-4.122,4.652
			c-2.494,0-4.106-1.846-4.106-4.652C103.43,129.436,105.042,127.59,107.536,127.59 M107.536,135.072
			c1.492,0,1.938-1.418,1.938-2.818c0-1.418-0.445-2.836-1.938-2.836c-1.478,0-1.925,1.418-1.925,2.836
			C105.611,133.654,106.059,135.072,107.536,135.072"/>
		<polyline fill="#FFFFFF" points="112.965,124.461 115.151,124.461 115.151,131.006 117.902,127.83 120.488,127.83 
			117.487,131.076 120.826,136.666 118.18,136.666 115.997,132.717 115.151,133.625 115.151,136.666 112.965,136.666 		"/>
		<path fill="#FFFFFF" d="M123.534,126.459h-2.185v-1.998h2.185V126.459z M121.35,127.83h2.187v8.836h-2.187V127.83z"/>
		<path fill="#FFFFFF" d="M124.95,127.83h2.074v1.23h0.048c0.555-0.99,1.508-1.471,2.431-1.471c2.322,0,2.906,1.453,2.906,3.639
			v5.438h-2.184v-4.992c0-1.453-0.384-2.168-1.398-2.168c-1.185,0-1.691,0.732-1.691,2.525v4.635h-2.186"/>
		<path fill="#FFFFFF" d="M141.407,136.1c0,1.453-0.46,3.914-4.121,3.914c-1.568,0-3.399-0.82-3.506-2.838h2.166
			c0.201,0.908,0.864,1.213,1.632,1.213c1.216,0,1.77-0.92,1.755-2.186v-1.16H139.3c-0.478,0.92-1.429,1.365-2.383,1.365
			c-2.385,0-3.401-2.016-3.401-4.441c0-2.291,1.188-4.377,3.417-4.377c1.045,0,1.846,0.393,2.367,1.418h0.033v-1.178h2.074
			 M139.333,132.137c0-1.436-0.447-2.719-1.861-2.719c-1.232,0-1.77,1.195-1.77,2.514c0,1.266,0.43,2.648,1.77,2.648
			C138.718,134.58,139.333,133.402,139.333,132.137"/>
		<polyline fill="#FFFFFF" points="80.508,152.785 82.695,152.785 86.876,160.248 86.902,160.248 86.902,152.785 88.967,152.785 
			88.967,163.908 86.763,163.908 82.598,156.459 82.569,156.459 82.569,163.908 80.508,163.908 		"/>
		<path fill="#FFFFFF" d="M93.931,155.635c2.284,0,3.757,1.686,3.757,4.256c0,2.557-1.473,4.236-3.757,4.236
			c-2.271,0-3.744-1.68-3.744-4.236C90.187,157.32,91.659,155.635,93.931,155.635 M93.931,162.465c1.361,0,1.767-1.297,1.767-2.574
			c0-1.297-0.405-2.588-1.767-2.588c-1.347,0-1.755,1.291-1.755,2.588C92.176,161.168,92.584,162.465,93.931,162.465"/>
		<polyline fill="#FFFFFF" points="102.526,152.785 104.715,152.785 108.896,160.248 108.924,160.248 108.924,152.785 
			110.985,152.785 110.985,163.908 108.782,163.908 104.617,156.459 104.589,156.459 104.589,163.908 102.526,163.908 		"/>
		<path fill="#FFFFFF" d="M112.345,158.332c0.111-2.072,1.78-2.697,3.406-2.697c1.446,0,3.188,0.357,3.188,2.291v4.193
			c0,0.729,0.067,1.467,0.249,1.789h-2.017c-0.071-0.248-0.128-0.51-0.142-0.775c-0.633,0.732-1.558,0.994-2.441,0.994
			c-1.374,0-2.47-0.764-2.47-2.412c0-1.824,1.237-2.262,2.47-2.449c1.222-0.201,2.356-0.152,2.356-1.061
			c0-0.951-0.589-1.09-1.292-1.09c-0.755,0-1.245,0.344-1.315,1.217 M116.944,159.969c-0.336,0.326-1.036,0.34-1.656,0.467
			c-0.615,0.139-1.176,0.375-1.176,1.188c0,0.824,0.574,1.025,1.22,1.025c1.558,0,1.612-1.371,1.612-1.855V159.969z"/>
		<polyline fill="#FFFFFF" points="120.381,152.785 122.371,152.785 122.371,158.75 124.882,155.854 127.238,155.854 
			124.503,158.812 127.549,163.908 125.135,163.908 123.144,160.309 122.371,161.139 122.371,163.908 120.381,163.908 		"/>
		<path fill="#FFFFFF" d="M129.608,160.418c0.057,1.404,0.674,2.047,1.78,2.047c0.801,0,1.446-0.551,1.57-1.047h1.755
			c-0.561,1.902-1.755,2.709-3.393,2.709c-2.287,0-3.703-1.746-3.703-4.236c0-2.418,1.499-4.256,3.703-4.256
			c2.467,0,3.658,2.305,3.519,4.783 M132.848,159.018c-0.181-1.121-0.617-1.715-1.584-1.715c-1.263,0-1.625,1.09-1.655,1.715
			H132.848z"/>
		<path fill="#FFFFFF" d="M140.914,162.883h-0.03c-0.462,0.873-1.274,1.244-2.199,1.244c-2.19,0-3.255-2.086-3.255-4.316
			c0-2.164,1.077-4.176,3.211-4.176c0.855,0,1.695,0.406,2.158,1.201h-0.013h0.03v-4.051h1.99v11.123h-1.893 M139.174,157.303
			c-1.306,0-1.753,1.248-1.753,2.57c0,1.266,0.52,2.592,1.753,2.592c1.319,0,1.71-1.283,1.71-2.605
			C140.884,158.551,140.465,157.303,139.174,157.303"/>
		<polyline fill="#FFFFFF" points="80.508,171.219 82.709,171.219 82.709,180.285 87.592,180.285 87.592,182.342 80.508,182.342 		
			"/>
		<path fill="#FFFFFF" d="M90.383,173.037h-1.992v-1.818h1.992V173.037z M88.391,174.285h1.992v8.057h-1.992V174.285z"/>
		<path fill="#FFFFFF" d="M98.646,181.83c0,1.322-0.424,3.566-3.762,3.566c-1.429,0-3.099-0.746-3.196-2.588h1.977
			c0.184,0.828,0.788,1.107,1.488,1.107c1.106,0,1.61-0.842,1.597-1.994v-1.061h-0.026c-0.436,0.844-1.305,1.248-2.173,1.248
			c-2.178,0-3.103-1.842-3.103-4.053c0-2.086,1.08-3.988,3.116-3.988c0.953,0,1.682,0.357,2.159,1.291h0.026v-1.074h1.896
			 M96.749,178.213c0-1.309-0.405-2.479-1.695-2.479c-1.123,0-1.612,1.092-1.612,2.291c0,1.152,0.391,2.418,1.612,2.418
			C96.188,180.443,96.749,179.365,96.749,178.213"/>
		<path fill="#FFFFFF" d="M99.961,171.219h1.992v4.189h0.043c0.504-0.904,1.373-1.34,2.117-1.34c2.118,0,2.65,1.326,2.65,3.32v4.953
			h-1.992v-4.553c0-1.322-0.349-1.977-1.276-1.977c-1.08,0-1.542,0.668-1.542,2.305v4.225h-1.992"/>
		<path fill="#FFFFFF" d="M110.521,174.285h1.459v1.484h-1.459v3.988c0,0.746,0.17,0.934,0.842,0.934
			c0.212,0,0.408-0.018,0.617-0.064v1.732c-0.338,0.061-0.77,0.078-1.165,0.078c-1.22,0-2.284-0.314-2.284-1.916v-4.752h-1.207
			v-1.484h1.207v-2.416h1.99"/>
		<path fill="#FFFFFF" d="M114.197,179.723c0.014,0.969,0.744,1.357,1.527,1.357c0.574,0,1.305-0.248,1.305-1.025
			c0-0.672-0.829-0.908-2.258-1.248c-1.152-0.283-2.3-0.732-2.3-2.15c0-2.061,1.597-2.588,3.155-2.588
			c1.586,0,3.043,0.592,3.196,2.57h-1.892c-0.057-0.855-0.646-1.092-1.361-1.092c-0.447,0-1.106,0.096-1.106,0.75
			c0,0.795,1.121,0.904,2.258,1.201c1.163,0.291,2.298,0.764,2.298,2.26c0,2.117-1.654,2.807-3.308,2.807
			c-1.685,0-3.325-0.703-3.41-2.842"/>
	</g>
	<g>
		<polyline fill="none" stroke="#000000" stroke-width="0.6535" stroke-miterlimit="2.6131" points="62.974,127.955 70.988,122.535 
			70.2,121.371 62.184,126.791 		"/>
		<path fill="none" stroke="#000000" stroke-width="0.5135" stroke-miterlimit="2.6131" d="M62.793,128.445l-1.14-1.682
			 M62.173,128.863l-1.139-1.68"/>
		<path fill="none" stroke="#000000" stroke-width="0.4668" stroke-miterlimit="2.6131" d="M59.201,121.471
			c0.21,0.297,0.092,0.699-0.184,0.939c-0.096,0.082-0.085,0.086-0.176,0.166c-0.655,0.553-0.242,1.273,0.131,1.383
			c0.279,0.088,0.427,0.039,0.9-0.039c0.391-0.066,0.629,0.053,0.795,0.318c0.183,0.297-0.077,0.693-0.138,1.156
			c-0.028,0.213-0.072,0.371-0.016,0.611c0.022,0.135,0.173,0.637,0.428,1.004 M60.613,120.564c0.214,0.309,0.148,0.955-0.159,1.146
			c-0.107,0.066-0.099,0.074-0.201,0.135c-0.735,0.451-0.438,1.223-0.09,1.393c0.265,0.127,0.461,0.084,0.94,0.049
			c0.535-0.039,0.705,0.07,0.873,0.336c0.275,0.439,0.021,0.838-0.323,1.203c-0.168,0.184-0.242,0.289-0.31,0.721
			c-0.046,0.318-0.015,0.664,0.242,1.025"/>
		<g>
			<path fill-rule="evenodd" clip-rule="evenodd" fill="#ED1C24" d="M74.11,123.078l-0.014-0.416l-0.025-0.418l-0.049-0.41
				l-0.067-0.41l-0.081-0.41l-0.1-0.402l-0.12-0.396l-0.136-0.389l-0.154-0.389l-0.175-0.379l-0.188-0.367l-0.203-0.367
				l-0.221-0.348l-0.242-0.342l-0.248-0.33l-0.269-0.324l-0.277-0.301l-0.295-0.297l-0.31-0.279l-0.316-0.266l-0.329-0.254
				l-0.343-0.234l-0.355-0.223l-0.355-0.201l-0.371-0.197l-0.382-0.164l-0.384-0.158l-0.397-0.139l-0.395-0.113l-0.404-0.109
				l-0.403-0.08l-0.41-0.068l-0.417-0.049l-0.41-0.025l-0.417-0.006l-0.416,0.006l-0.417,0.025l-0.41,0.049l-0.41,0.068l-0.41,0.08
				l-0.404,0.109l-0.395,0.113l-0.391,0.139l-0.391,0.158l-0.375,0.164l-0.371,0.197l-0.362,0.201l-0.349,0.223l-0.343,0.234
				l-0.329,0.254l-0.323,0.266l-0.304,0.279l-0.294,0.297l-0.284,0.301l-0.269,0.324l-0.248,0.33l-0.236,0.342l-0.22,0.348
				l-0.21,0.367l-0.188,0.367l-0.168,0.379l-0.155,0.389l-0.142,0.389l-0.12,0.396l-0.1,0.402l-0.081,0.41l-0.067,0.41l-0.048,0.41
				l-0.026,0.418l-0.007,0.416l0.007,0.418l0.026,0.41l0.048,0.414l0.067,0.41l0.081,0.41l0.1,0.398l0.12,0.404l0.142,0.389
				l0.155,0.385l0.168,0.379l0.188,0.371l0.21,0.363l0.22,0.348l0.236,0.346l0.248,0.332l0.269,0.318l0.284,0.305l0.294,0.297
				l0.304,0.279l0.323,0.262l0.329,0.258l0.343,0.236l0.349,0.223l0.362,0.199l0.371,0.193l0.375,0.17l0.391,0.152l0.391,0.145
				l0.395,0.113l0.404,0.1l0.41,0.088l0.41,0.061l0.41,0.049l0.417,0.029l0.416,0.01l0.417-0.01l0.41-0.029l0.417-0.049l0.41-0.061
				l0.403-0.088l0.404-0.1l0.395-0.113l0.397-0.145l0.384-0.152l0.382-0.17l0.371-0.193l0.355-0.199l0.355-0.223l0.343-0.236
				l0.329-0.258l0.316-0.262l0.31-0.279l0.295-0.297l0.277-0.305l0.269-0.318l0.248-0.332l0.242-0.346l0.221-0.348l0.203-0.363
				l0.188-0.371l0.175-0.379l0.154-0.385l0.136-0.389l0.12-0.404l0.1-0.398l0.081-0.41l0.067-0.41l0.049-0.414l0.025-0.41
				L74.11,123.078L74.11,123.078z M70.582,127.773l0.235-0.297l0.214-0.311l0.203-0.322l0.175-0.332l0.168-0.336l0.146-0.34
				l0.136-0.35l0.113-0.363l0.096-0.365l0.074-0.367l0.053-0.371l0.042-0.375l0.02-0.371v-0.375l-0.02-0.375l-0.035-0.381
				l-0.06-0.365l-0.074-0.371l-0.096-0.363l-0.113-0.357l-0.127-0.357l-0.148-0.34l-0.168-0.336l-0.181-0.332l-0.196-0.322
				l-0.214-0.307l-0.235-0.297l-0.242-0.283l-0.262-0.275l-0.269-0.258l-0.29-0.248l-0.295-0.227l-0.31-0.215l-0.316-0.195
				l-0.33-0.188l-0.336-0.162l-0.349-0.148l-0.35-0.135l-0.357-0.105l-0.369-0.096l-0.362-0.078l-0.377-0.057l-0.369-0.039
				l-0.377-0.014h-0.375l-0.378,0.014l-0.375,0.039l-0.371,0.061l-0.369,0.074l-0.364,0.096l-0.355,0.113l-0.349,0.127l-0.35,0.158
				l-0.336,0.156l-0.329,0.184l-0.316,0.201l-0.311,0.217l-0.294,0.229L70.582,127.773L70.582,127.773z M69.539,128.811
				l-10.432-10.424l-0.235,0.305l-0.214,0.301l-0.196,0.324l-0.182,0.326l-0.168,0.336l-0.148,0.346l-0.133,0.354l-0.109,0.357
				l-0.094,0.361l-0.08,0.371l-0.053,0.371l-0.041,0.375l-0.021,0.375v0.381l0.021,0.367l0.041,0.375l0.053,0.371l0.08,0.369
				l0.088,0.363l0.115,0.361l0.133,0.35l0.148,0.346l0.162,0.336l0.188,0.336l0.196,0.314l0.214,0.309l0.229,0.297l0.249,0.283
				l0.255,0.275l0.275,0.254l0.283,0.248l0.295,0.23l0.31,0.215l0.323,0.201l0.329,0.184l0.336,0.16l0.343,0.148l0.355,0.135
				l0.358,0.105l0.362,0.096l0.368,0.074l0.371,0.061l0.375,0.041l0.378,0.012h0.375l0.378-0.021l0.368-0.031l0.371-0.061
				l0.369-0.074l0.364-0.096l0.362-0.113l0.349-0.135l0.343-0.148l0.336-0.162l0.329-0.188l0.323-0.197l0.31-0.213L69.539,128.811
				L69.539,128.811z"/>
		</g>
	</g>
	<g>
		<path fill-rule="evenodd" clip-rule="evenodd" stroke="#000000" stroke-width="0.1601" stroke-miterlimit="2.6131" d="
			M63.314,174.041c-0.35-0.279-0.873-0.209-1.161,0.158c-0.292,0.365-0.301,0.881,0.048,1.16c0.354,0.279,0.891,0.18,1.222-0.152
			C63.751,174.879,63.663,174.32,63.314,174.041L63.314,174.041z"/>
		<path fill="none" stroke="#000000" stroke-width="0.2801" stroke-miterlimit="2.6131" d="M62.542,173.98
			c0,0,0.995-0.336,1.305-0.82c0.31-0.48,0.209-0.961,0.497-1.41 M64.344,171.75l0.092-0.131l4.766-5.58h0.981l-6.555,7.676
			 M70.34,165.93l0.122,0.924l-4.835,5.643l-0.152,0.154 M65.475,172.65c-0.376,0.379-0.864,0.393-1.266,0.803
			c-0.401,0.404-0.672,1.453-0.672,1.453"/>
		<path fill-rule="evenodd" clip-rule="evenodd" stroke="#000000" stroke-width="0.1001" stroke-miterlimit="2.6131" d="
			M63.567,174.613c0.039-0.463,0.362-0.693,0.362-0.693c0.108-0.393,0.209-0.441,0.209-0.441c0.223-0.318,0.926-0.555,0.926-0.555
			c-0.528,0.131-0.646,0.027-0.646,0.027c-0.384-0.049-0.161-1.004-0.161-1.004s-0.118,0.393-0.157,0.602s-0.087,0.354-0.118,0.402
			c-0.034,0.043-0.052,0.156-0.165,0.314c-0.109,0.156-0.275,0.213-0.314,0.238c-0.039,0.027-0.17,0.115-0.262,0.158
			c-0.092,0.047-0.219,0.162-0.284,0.191L63.567,174.613L63.567,174.613z"/>
		<path fill-rule="evenodd" clip-rule="evenodd" stroke="#000000" stroke-width="0.0958" stroke-miterlimit="2.6131" d="
			M62.852,173.553c-0.044-0.357-1.017-0.785-1.527-0.729c-0.624,0.064-1.052-0.533-1.052-0.533l0.275,0.035l-0.022-0.135
			l-0.223-0.096c-0.776-0.398-0.833-1.152-0.833-1.152c0.223,0.205,0.659,0.057,0.659,0.057c-1.248-1.266-0.454-3.168-0.454-3.168
			s0.428,0.68,0.537,0.471c0.108-0.205-0.646-1.916,2.068-3.469l1.034-0.619c0,0-1.209,1.723,0.205,2.422l-0.026-0.773
			c0,0,0.895,1.191,1.087,2.453c0,0,0.253,1.008,0.004,1.867c0,0-0.624,1.166-0.859,1.471
			C63.467,171.99,62.773,173.043,62.852,173.553L62.852,173.553z"/>
		<path fill-rule="evenodd" clip-rule="evenodd" d="M62.882,173.531c0,0,0.978-0.488,0.686-1.27l-0.284,0.33
			c0,0-0.519,0.525-0.44,0.682L62.882,173.531L62.882,173.531z"/>
		<path fill="none" stroke="#000000" stroke-width="0.0492" stroke-miterlimit="2.6131" d="M62.882,173.531
			c0,0,0.978-0.488,0.686-1.27 M63.567,172.262l-0.284,0.33 M63.283,172.592c0,0-0.519,0.525-0.44,0.682"/>
		
			<path fill-rule="evenodd" clip-rule="evenodd" fill="#FFFFFF" stroke="#FFFFFF" stroke-width="0.04" stroke-miterlimit="2.6131" d="
			M60.647,168.871c0,0-0.379,1.174,0.781,2.508c0,0-0.2-0.047-0.362,0.01c-0.34,0.121-0.706-0.279-0.706-0.279
			s0.253,1.17,1.514,1.365c0,0,0.716,0,0.947,0.58c0,0,0.03-0.816,0.108-0.951c0.079-0.139-0.008-0.166,0.59-0.842
			c0.598-0.682-0.157-1.82-0.707-1.924c0,0,0.345,1.061,0.117,1.1c0,0-0.078-1.061-1.461-1.1l0.188,0.262
			C61.656,169.6,60.818,169.6,60.647,168.871L60.647,168.871z"/>
		<polygon fill-rule="evenodd" clip-rule="evenodd" points="63.274,164.188 63.41,164.141 63.318,164.268 63.274,164.188 		"/>
		<path fill-rule="evenodd" clip-rule="evenodd" fill="#ED1C24" d="M74.11,169.395l-0.014-0.414l-0.025-0.42l-0.049-0.41
			l-0.065-0.41l-0.083-0.41l-0.1-0.402l-0.118-0.396l-0.136-0.389l-0.156-0.389l-0.175-0.379l-0.188-0.367l-0.201-0.365l-0.223-0.35
			l-0.239-0.34l-0.249-0.332l-0.271-0.322l-0.275-0.303l-0.297-0.297l-0.31-0.279l-0.314-0.266l-0.331-0.252l-0.341-0.236
			l-0.357-0.223l-0.354-0.201l-0.371-0.195l-0.384-0.166l-0.384-0.158l-0.397-0.139l-0.393-0.113l-0.406-0.109l-0.401-0.078
			l-0.41-0.07l-0.419-0.049l-0.41-0.025l-0.414-0.004l-0.419,0.004l-0.415,0.025l-0.41,0.049l-0.41,0.07l-0.41,0.078l-0.406,0.109
			l-0.393,0.113l-0.393,0.139l-0.389,0.158l-0.375,0.166l-0.371,0.195l-0.362,0.201l-0.349,0.223l-0.345,0.236l-0.327,0.252
			l-0.323,0.266l-0.306,0.279l-0.292,0.297l-0.283,0.303l-0.271,0.322l-0.248,0.332l-0.236,0.34l-0.218,0.35l-0.209,0.365
			l-0.188,0.367l-0.17,0.379l-0.152,0.389l-0.145,0.389l-0.117,0.396l-0.101,0.402l-0.083,0.41l-0.065,0.41l-0.048,0.41l-0.026,0.42
			l-0.009,0.414l0.009,0.418l0.026,0.41l0.048,0.416l0.065,0.41l0.083,0.41l0.101,0.396l0.117,0.406l0.145,0.389l0.152,0.383
			l0.17,0.381l0.188,0.369l0.209,0.363l0.218,0.35l0.236,0.344l0.248,0.332l0.271,0.318l0.283,0.305l0.292,0.297l0.306,0.279
			l0.323,0.262l0.327,0.258l0.345,0.236l0.349,0.223l0.362,0.201l0.371,0.191l0.375,0.17l0.389,0.152l0.393,0.145l0.393,0.113
			l0.406,0.1l0.41,0.088l0.41,0.061l0.41,0.049l0.415,0.031l0.419,0.008l0.414-0.008l0.41-0.031l0.419-0.049l0.41-0.061l0.401-0.088
			l0.406-0.1l0.393-0.113l0.397-0.145l0.384-0.152l0.384-0.17l0.371-0.191l0.354-0.201l0.357-0.223l0.341-0.236l0.331-0.258
			l0.314-0.262l0.31-0.279l0.297-0.297l0.275-0.305l0.271-0.318l0.249-0.332l0.239-0.344l0.223-0.35l0.201-0.363l0.188-0.369
			l0.175-0.381l0.156-0.383l0.136-0.389l0.118-0.406l0.1-0.396l0.083-0.41l0.065-0.41l0.049-0.416l0.025-0.41L74.11,169.395
			L74.11,169.395z M70.584,174.09l0.235-0.297l0.214-0.311l0.201-0.322l0.175-0.332l0.17-0.336l0.144-0.34l0.136-0.35l0.113-0.361
			l0.096-0.367l0.074-0.367l0.053-0.371l0.044-0.375l0.018-0.371v-0.375l-0.018-0.375l-0.035-0.379l-0.062-0.367l-0.074-0.371
			l-0.096-0.361l-0.113-0.359l-0.127-0.357l-0.148-0.34l-0.165-0.336l-0.184-0.332l-0.196-0.322l-0.214-0.307l-0.235-0.297
			l-0.24-0.283l-0.262-0.275l-0.271-0.256l-0.288-0.25l-0.297-0.227l-0.31-0.213l-0.314-0.197l-0.332-0.188l-0.336-0.162
			l-0.349-0.148l-0.35-0.135l-0.357-0.105l-0.366-0.096l-0.362-0.078l-0.38-0.057l-0.366-0.039l-0.38-0.014h-0.375l-0.376,0.014
			l-0.375,0.039l-0.371,0.061l-0.371,0.074l-0.362,0.096l-0.357,0.115l-0.349,0.125l-0.35,0.158l-0.336,0.156l-0.327,0.184
			l-0.318,0.201l-0.311,0.219l-0.292,0.227L70.584,174.09L70.584,174.09z M69.541,175.129l-10.434-10.426l-0.235,0.305l-0.214,0.303
			l-0.196,0.322l-0.179,0.326l-0.171,0.336l-0.148,0.346l-0.131,0.354l-0.108,0.357l-0.097,0.363l-0.078,0.369l-0.053,0.371
			l-0.043,0.377l-0.018,0.375v0.379l0.018,0.367l0.043,0.375l0.053,0.371l0.078,0.371l0.088,0.361l0.117,0.363l0.131,0.348
			l0.148,0.346l0.162,0.336l0.188,0.336l0.196,0.314l0.214,0.309l0.231,0.297l0.248,0.285l0.253,0.273l0.275,0.254l0.283,0.248
			l0.297,0.232l0.311,0.213l0.322,0.201l0.327,0.184l0.336,0.16l0.345,0.148l0.354,0.137l0.358,0.104l0.362,0.096l0.371,0.074
			l0.37,0.062l0.376,0.039l0.375,0.014h0.375l0.38-0.023l0.366-0.029l0.371-0.062l0.371-0.074l0.362-0.096l0.362-0.113l0.349-0.135
			l0.345-0.148l0.336-0.162l0.327-0.188l0.323-0.195l0.31-0.215L69.541,175.129L69.541,175.129z"/>
	</g>
	<g>
		<polygon fill-rule="evenodd" clip-rule="evenodd" stroke="#000000" stroke-width="0.0117" stroke-miterlimit="2.6131" points="
			73.909,83.955 65.309,69.044 65.254,68.965 65.188,68.904 65.114,68.852 65.029,68.813 64.944,68.787 64.851,68.778 
			64.757,68.787 64.665,68.813 64.586,68.852 64.506,68.904 64.446,68.965 64.392,69.044 55.791,83.955 55.75,84.042 55.724,84.129 
			55.717,84.221 55.724,84.313 55.75,84.409 55.791,84.487 55.844,84.566 55.902,84.627 55.983,84.68 56.062,84.719 56.155,84.745 
			56.247,84.753 73.453,84.753 73.545,84.745 73.632,84.719 73.718,84.68 73.792,84.627 73.857,84.566 73.909,84.487 73.951,84.409 
			73.977,84.313 73.983,84.221 73.977,84.129 73.951,84.042 73.909,83.955 		"/>
		
			<polygon fill-rule="evenodd" clip-rule="evenodd" fill="#FFF200" stroke="#000000" stroke-width="0.0117" stroke-miterlimit="2.6131" points="
			64.851,70.44 72.472,83.658 57.229,83.658 64.851,70.44 		"/>
		<path fill-rule="evenodd" clip-rule="evenodd" d="M61.106,82.079v0.733h7.257v-0.733H61.106L61.106,82.079z M62.206,79.84
			c0,0.598,0.331,1.148,0.722,1.432c0.498,0.371,1.054,0.279,1.08,0.279l0.14-0.026l-0.113-0.087
			c-0.768-0.628-0.928-1.497-0.96-1.88c0.085,0.091,0.172,0.152,0.179,0.157l0.107,0.065l-0.009-0.122
			c-0.007-0.035-0.007-0.07-0.007-0.1c0-0.384,0.101-0.633,0.188-0.768c0.014,0.846,0.537,1.475,0.563,1.501l0.104-0.065
			c-0.079-0.209-0.104-0.432-0.104-0.642c0-0.292,0.052-0.559,0.111-0.742c0.087,0.371,0.331,0.707,0.345,0.729l0.073,0.105
			l0.04-0.126c0.14-0.463,0.172-1.065,0.172-1.549c0-0.266-0.013-0.498-0.02-0.642c0.476,0.476,0.589,1.039,0.589,1.449
			c0,0.328-0.065,0.55-0.071,0.559l-0.068,0.231l0.173-0.166c0.191-0.174,0.352-0.506,0.438-0.715
			c0.026,0.14,0.046,0.279,0.046,0.397c0,0.31-0.065,0.537-0.065,0.545l-0.048,0.148l0.14-0.079c0.1-0.057,0.186-0.118,0.246-0.17
			c-0.113,1.283-1.307,1.863-1.32,1.868l-0.211,0.1l0.231,0.026c2.009,0.192,2.413-1.191,2.491-1.798
			c0.074-0.502-0.124-0.886-0.138-0.829l-0.013,0.174c-0.035,0.126-0.153,0.218-0.233,0.271c-0.014-0.065-0.014-0.131-0.014-0.205
			c0-0.24,0.04-0.484,0.04-0.484c0.08-0.371,0.106-0.667,0.106-0.908c0-0.733-0.279-0.925-0.299-0.934l-0.078-0.061l-0.014,0.1
			c0,0.354-0.233,0.484-0.233,0.484c-0.046-1.357-0.722-1.946-0.755-1.99c-0.039-0.031-0.12-0.07-0.12-0.07l0.022,0.131
			c0.025,0.24-0.035,0.458-0.074,0.498c-0.079-0.498-0.134-0.689-0.537-1.047c-0.371-0.336-0.491-1.108-0.491-1.108l-0.072,0.153
			c-0.191,0.384-0.225,0.842-0.218,0.978c0.013,0.257-0.055,0.563-0.094,0.742c-0.192-0.279-0.497-0.585-0.511-0.598l-0.124-0.127
			l0.013,0.175c0.033,0.358,0.046,0.663,0.046,0.912c0,0.633-0.081,0.956-0.14,1.108c-0.126-0.231-0.437-0.533-0.511-0.603
			l-0.126-0.113l0.015,0.17c0.007,0.048,0.007,0.1,0.007,0.148c0,0.401-0.028,0.58-0.126,0.833c-0.134,0.328-0.095,0.768-0.095,0.79
			c-0.152-0.153-0.37-0.266-0.403-0.279l-0.146-0.074l0.055,0.153C62.245,78.461,62.206,79.251,62.206,79.84L62.206,79.84z"/>
	</g>
	<g>
		<polyline fill="#FFF200" points="64.898,23.809 57.146,37.315 72.518,37.315 		"/>
		<path fill="#1C181B" d="M73.792,37.394l-8.344-14.657c0,0-0.127-0.321-0.537-0.321c-0.414,0-0.602,0.321-0.602,0.321
			l-8.386,14.617c0,0-0.211,0.362-0.018,0.703c0,0,0.201,0.332,0.535,0.332h16.718c0,0,0.447,0.013,0.628-0.34
			C73.936,37.756,73.861,37.534,73.792,37.394 M57.301,37.237l7.598-13.241l7.466,13.241H57.301z"/>
		<polyline fill="#1C181B" points="61.438,30.983 64.423,30.983 64.423,32.035 62.314,32.035 62.314,33.257 64.248,33.257 
			64.248,34.23 62.314,34.23 62.314,35.626 64.469,35.626 64.469,36.683 61.438,36.683 		"/>
		<polyline fill="#1C181B" points="66.037,33.693 64.752,30.983 65.769,30.983 66.55,32.799 67.361,30.983 68.321,30.983 
			67.045,33.702 68.438,36.683 67.39,36.683 66.518,34.71 65.631,36.683 64.641,36.683 		"/>
	</g>
</g>
</svg>
