<?xml version="1.0" encoding="utf-8"?>
<!-- Generator: Adobe Illustrator 16.0.0, SVG Export Plug-In . SVG Version: 6.00 Build 0)  -->
<!DOCTYPE svg PUBLIC "-//W3C//DTD SVG 1.1//EN" "http://www.w3.org/Graphics/SVG/1.1/DTD/svg11.dtd">
<svg version="1.1" id="Layer_1" xmlns="http://www.w3.org/2000/svg" xmlns:xlink="http://www.w3.org/1999/xlink" x="0px" y="0px"
	 width="200px" height="200px" viewBox="0 0 200 200" enable-background="new 0 0 200 200" xml:space="preserve">
<g>
	<rect x="5" y="28.751" fill="#FFFFFF" width="190" height="142.498"/>
	<path fill="none" stroke="#1C181B" d="M195,171.249 M5,171.249h190V28.751H5V171.249z"/>
	<polyline fill="#ED1C24" points="10.292,120.468 189.278,120.452 189.278,143.22 10.277,143.22 	"/>
	<polyline fill="#FFFFFF" points="47.818,125.33 50.723,125.33 56.27,134.245 56.307,134.245 56.307,125.33 59.046,125.33 
		59.046,138.624 56.123,138.624 50.593,129.724 50.558,129.724 50.558,138.624 47.818,138.624 	"/>
	<path fill="#FFFFFF" d="M66.008,128.734c3.036,0,4.992,2.011,4.992,5.086c0,3.052-1.956,5.062-4.992,5.062
		c-3.015,0-4.974-2.01-4.974-5.062C61.034,130.745,62.993,128.734,66.008,128.734 M66.008,136.892c1.807,0,2.347-1.547,2.347-3.071
		c0-1.549-0.54-3.093-2.347-3.093c-1.785,0-2.325,1.544-2.325,3.093C63.683,135.345,64.223,136.892,66.008,136.892"/>
	<path fill="#FFFFFF" d="M79.935,135.497c0.02,1.153,0.987,1.617,2.028,1.617c0.766,0,1.732-0.299,1.732-1.227
		c0-0.803-1.1-1.083-2.994-1.493c-1.529-0.333-3.054-0.873-3.054-2.567c0-2.459,2.12-3.093,4.188-3.093
		c2.105,0,4.04,0.707,4.244,3.076h-2.514c-0.074-1.024-0.856-1.307-1.805-1.307c-0.596,0-1.473,0.111-1.473,0.896
		c0,0.95,1.49,1.077,3,1.431c1.544,0.356,3.054,0.913,3.054,2.7c0,2.531-2.199,3.351-4.395,3.351c-2.235,0-4.415-0.837-4.525-3.385"
		/>
	<path fill="#FFFFFF" d="M87.959,128.997h2.496v1.301h0.037c0.689-0.984,1.693-1.563,2.94-1.563c1.21,0,2.29,0.447,2.813,1.605
		c0.557-0.84,1.563-1.605,2.903-1.605c2.048,0,3.518,0.95,3.518,3.446v6.443h-2.644v-5.454c0-1.288-0.11-2.349-1.62-2.349
		c-1.487,0-1.768,1.227-1.768,2.438v5.365H93.99v-5.402c0-1.117,0.076-2.4-1.601-2.4c-0.521,0-1.787,0.334-1.787,2.214v5.589h-2.644
		"/>
	<path fill="#FFFFFF" d="M109.428,128.734c3.031,0,4.99,2.011,4.99,5.086c0,3.052-1.959,5.062-4.99,5.062
		c-3.017,0-4.971-2.01-4.971-5.062C104.457,130.745,106.411,128.734,109.428,128.734 M109.428,136.892
		c1.807,0,2.344-1.547,2.344-3.071c0-1.549-0.537-3.093-2.344-3.093c-1.79,0-2.33,1.544-2.33,3.093
		C107.098,135.345,107.638,136.892,109.428,136.892"/>
	<polyline fill="#FFFFFF" points="116.372,125.33 119.018,125.33 119.018,132.461 122.349,128.997 125.476,128.997 121.846,132.537 
		125.886,138.624 122.685,138.624 120.039,134.323 119.018,135.308 119.018,138.624 116.372,138.624 	"/>
	<path fill="#FFFFFF" d="M129.536,127.51h-2.644v-2.18h2.644V127.51z M126.893,128.997h2.644v9.627h-2.644V128.997z"/>
	<path fill="#FFFFFF" d="M131.62,128.997h2.513v1.343h0.057c0.67-1.082,1.824-1.605,2.943-1.605c2.811,0,3.518,1.583,3.518,3.967
		v5.923h-2.644v-5.437c0-1.583-0.467-2.366-1.694-2.366c-1.433,0-2.049,0.803-2.049,2.754v5.049h-2.644"/>
	<path fill="#FFFFFF" d="M151.914,138.011c0,1.578-0.557,4.261-4.99,4.261c-1.897,0-4.111-0.894-4.243-3.09h2.626
		c0.24,0.986,1.041,1.323,1.971,1.323c1.471,0,2.144-1.007,2.124-2.387v-1.264h-0.037c-0.577,1.004-1.73,1.487-2.885,1.487
		c-2.886,0-4.118-2.196-4.118-4.838c0-2.496,1.436-4.77,4.134-4.77c1.269,0,2.235,0.43,2.869,1.547h0.037v-1.284h2.513
		 M149.401,133.69c0-1.563-0.54-2.963-2.254-2.963c-1.487,0-2.141,1.306-2.141,2.737c0,1.379,0.521,2.887,2.141,2.887
		C148.654,136.352,149.401,135.067,149.401,133.69"/>
	<polyline fill="#056BB3" points="10.292,142.964 189.278,142.954 189.278,165.716 10.277,165.716 	"/>
	<path fill="#FFFFFF" d="M26.017,156.71c0,1.77,1.38,2.459,2.94,2.459c1.023,0,2.59-0.299,2.59-1.659
		c0-1.434-1.993-1.674-3.949-2.196c-1.974-0.521-3.962-1.281-3.962-3.778c0-2.72,2.567-4.021,4.971-4.021
		c2.771,0,5.324,1.208,5.324,4.281h-2.83c-0.094-1.604-1.23-2.011-2.627-2.011c-0.93,0-2.01,0.391-2.01,1.51
		c0,1.021,0.633,1.153,3.966,2.011c0.968,0.24,3.947,0.854,3.947,3.873c0,2.438-1.917,4.264-5.527,4.264
		c-2.946,0-5.7-1.453-5.66-4.732"/>
	<polyline fill="#FFFFFF" points="46.832,161.123 44.114,161.123 42.401,154.665 42.364,154.665 40.725,161.123 37.99,161.123 
		34.937,151.499 37.728,151.499 39.497,158.033 39.532,158.033 41.132,151.499 43.702,151.499 45.342,158.016 45.379,158.016 
		47.148,151.499 49.868,151.499 	"/>
	<path fill="#FFFFFF" d="M53.7,150.009h-2.642v-2.178H53.7V150.009z M51.059,151.499h2.646v9.624h-2.646V151.499z"/>
	<path fill="#FFFFFF" d="M59.14,151.499h1.937v1.767H59.14v4.768c0,0.896,0.221,1.119,1.119,1.119c0.277,0,0.54-0.022,0.817-0.076
		v2.069c-0.447,0.071-1.023,0.093-1.544,0.093c-1.62,0-3.034-0.375-3.034-2.29v-5.683h-1.603v-1.767h1.603v-2.887h2.642"/>
	<path fill="#FFFFFF" d="M68.896,154.886c-0.167-1.077-0.856-1.656-1.956-1.656c-1.694,0-2.254,1.713-2.254,3.127
		c0,1.377,0.543,3.036,2.199,3.036c1.228,0,1.938-0.783,2.102-1.956h2.553c-0.336,2.553-2.104,3.947-4.639,3.947
		c-2.901,0-4.855-2.048-4.855-4.935c0-2.997,1.787-5.213,4.914-5.213c2.271,0,4.356,1.192,4.526,3.649"/>
	<path fill="#FFFFFF" d="M73.027,147.831h2.646v5.008h0.057c0.67-1.08,1.823-1.603,2.811-1.603c2.808,0,3.52,1.583,3.52,3.967v5.92
		h-2.646v-5.435c0-1.585-0.465-2.366-1.694-2.366c-1.434,0-2.047,0.803-2.047,2.754v5.047h-2.646"/>
	<path fill="#FFFFFF" d="M93.916,151.236c3.039,0,4.993,2.01,4.993,5.086c0,3.054-1.954,5.062-4.993,5.062
		c-3.014,0-4.97-2.008-4.97-5.062C88.946,153.246,90.902,151.236,93.916,151.236 M93.916,159.393c1.81,0,2.35-1.546,2.35-3.07
		c0-1.549-0.54-3.093-2.35-3.093c-1.781,0-2.321,1.544-2.321,3.093C91.595,157.847,92.135,159.393,93.916,159.393"/>
	<path fill="#FFFFFF" d="M101.197,153.266h-1.581v-1.767h1.581v-0.746c0-1.694,1.065-2.922,3.223-2.922
		c0.464,0,0.95,0.055,1.396,0.071v1.977c-0.313-0.037-0.633-0.055-0.967-0.055c-0.707,0-1.007,0.295-1.007,1.095v0.58h1.824v1.767
		h-1.824v7.857h-2.646"/>
	<path fill="#FFFFFF" d="M107.397,153.266h-1.581v-1.767h1.581v-0.746c0-1.694,1.065-2.922,3.223-2.922
		c0.464,0,0.95,0.055,1.396,0.071v1.977c-0.313-0.037-0.633-0.055-0.969-0.055c-0.705,0-1.004,0.295-1.004,1.095v0.58h1.823v1.767
		h-1.823v7.857h-2.646"/>
	<path fill="#FFFFFF" d="M120.378,156.955c0.073,1.677,0.894,2.438,2.363,2.438c1.061,0,1.917-0.65,2.087-1.249h2.326
		c-0.746,2.275-2.326,3.24-4.506,3.24c-3.034,0-4.914-2.084-4.914-5.062c0-2.89,1.99-5.086,4.914-5.086
		c3.276,0,4.857,2.756,4.676,5.719 M124.678,155.279c-0.243-1.343-0.819-2.05-2.105-2.05c-1.675,0-2.16,1.306-2.194,2.05H124.678z"
		/>
	<path fill="#FFFFFF" d="M128.885,151.499h2.514v1.34h0.057c0.67-1.08,1.824-1.603,2.943-1.603c2.811,0,3.518,1.583,3.518,3.967
		v5.92h-2.644v-5.435c0-1.585-0.467-2.366-1.694-2.366c-1.434,0-2.049,0.803-2.049,2.754v5.047h-2.645"/>
	<path fill="#FFFFFF" d="M149.18,160.512c0,1.581-0.557,4.262-4.992,4.262c-1.896,0-4.109-0.892-4.242-3.091h2.624
		c0.243,0.987,1.044,1.321,1.974,1.321c1.473,0,2.144-1.007,2.124-2.382v-1.266h-0.037c-0.577,1.004-1.73,1.489-2.885,1.489
		c-2.886,0-4.116-2.199-4.116-4.84c0-2.494,1.434-4.77,4.131-4.77c1.267,0,2.236,0.43,2.87,1.546h0.037v-1.283h2.513
		 M146.667,156.189c0-1.563-0.54-2.96-2.254-2.96c-1.487,0-2.141,1.306-2.141,2.736c0,1.377,0.521,2.89,2.141,2.89
		C145.92,158.855,146.667,157.569,146.667,156.189"/>
	<path fill="#FFFFFF" d="M154.021,150.009h-2.641v-2.178h2.641V150.009z M151.38,151.499h2.641v9.624h-2.641V151.499z"/>
	<path fill="#FFFFFF" d="M156.107,151.499h2.513v1.34h0.057c0.67-1.08,1.824-1.603,2.94-1.603c2.811,0,3.518,1.583,3.518,3.967v5.92
		h-2.641v-5.435c0-1.585-0.467-2.366-1.694-2.366c-1.433,0-2.052,0.803-2.052,2.754v5.047h-2.641"/>
	<path fill="#FFFFFF" d="M169.322,156.955c0.079,1.677,0.896,2.438,2.366,2.438c1.061,0,1.92-0.65,2.087-1.249h2.327
		c-0.746,2.275-2.327,3.24-4.507,3.24c-3.034,0-4.914-2.084-4.914-5.062c0-2.89,1.993-5.086,4.914-5.086
		c3.279,0,4.86,2.756,4.676,5.719 M173.628,155.279c-0.245-1.343-0.819-2.05-2.105-2.05c-1.675,0-2.16,1.306-2.2,2.05H173.628z"/>
	<polyline fill="#FFF200" points="10.292,75.314 189.278,75.303 189.278,120.448 10.277,120.448 	"/>
	<path fill="#1C181B" d="M30.253,80.18h5.997c3.312,0,4.598,2.104,4.598,4.262c0,2.16-1.286,4.264-4.598,4.264h-3.075v4.77h-2.922
		 M33.175,86.435h2.272c1.36,0,2.57-0.3,2.57-1.993c0-1.694-1.21-1.991-2.57-1.991h-2.272V86.435z"/>
	<path fill="#1C181B" d="M44.573,89.304c0.071,1.677,0.892,2.438,2.364,2.438c1.058,0,1.917-0.65,2.084-1.249h2.327
		c-0.744,2.275-2.327,3.239-4.507,3.239c-3.034,0-4.914-2.084-4.914-5.061c0-2.89,1.993-5.087,4.914-5.087
		c3.279,0,4.86,2.757,4.676,5.72 M48.874,87.627c-0.245-1.343-0.819-2.05-2.105-2.05c-1.675,0-2.16,1.307-2.195,2.05H48.874z"/>
	<path fill="#1C181B" d="M56.432,83.847h1.937v1.771h-1.937v4.764c0,0.896,0.224,1.12,1.117,1.12c0.28,0,0.54-0.022,0.819-0.076
		v2.069c-0.446,0.071-1.025,0.091-1.546,0.091c-1.617,0-3.034-0.373-3.034-2.288v-5.68h-1.603v-1.771h1.603v-2.886h2.644"/>
	<path fill="#1C181B" d="M59.635,83.847h2.514v1.79h0.035c0.485-1.213,1.789-2.053,3.075-2.053c0.184,0,0.407,0.037,0.577,0.094
		v2.457c-0.243-0.054-0.634-0.091-0.953-0.091c-1.934,0-2.606,1.395-2.606,3.091v4.34h-2.642"/>
	<path fill="#1C181B" d="M71.55,83.584c3.036,0,4.99,2.011,4.99,5.087c0,3.053-1.954,5.061-4.99,5.061
		c-3.014,0-4.973-2.008-4.973-5.061C66.577,85.595,68.536,83.584,71.55,83.584 M71.55,91.741c1.807,0,2.347-1.547,2.347-3.07
		c0-1.55-0.54-3.094-2.347-3.094c-1.787,0-2.327,1.544-2.327,3.094C69.223,90.194,69.763,91.741,71.55,91.741"/>
	<line fill="none" stroke="#1C181B" stroke-width="2.6442" x1="79.65" y1="93.475" x2="79.65" y2="80.18"/>
	<path fill="#1C181B" d="M85.234,89.304c0.076,1.677,0.896,2.438,2.364,2.438c1.06,0,1.919-0.65,2.086-1.249h2.327
		c-0.746,2.275-2.327,3.239-4.507,3.239c-3.034,0-4.914-2.084-4.914-5.061c0-2.89,1.993-5.087,4.914-5.087
		c3.279,0,4.86,2.757,4.676,5.72 M89.537,87.627c-0.245-1.343-0.819-2.05-2.105-2.05c-1.675,0-2.16,1.307-2.197,2.05H89.537z"/>
	<path fill="#1C181B" d="M102.773,93.475h-2.514v-1.341h-0.055c-0.673,1.078-1.826,1.598-2.94,1.598c-2.813,0-3.52-1.583-3.52-3.964
		v-5.921h2.641v5.438c0,1.583,0.467,2.363,1.698,2.363c1.432,0,2.048-0.802,2.048-2.754v-5.047h2.642"/>
	<path fill="#1C181B" d="M104.859,83.847h2.496v1.302h0.037c0.688-0.984,1.693-1.564,2.94-1.564c1.21,0,2.293,0.447,2.813,1.604
		c0.56-0.84,1.561-1.604,2.903-1.604c2.05,0,3.518,0.95,3.518,3.446v6.444h-2.641v-5.457c0-1.286-0.113-2.347-1.623-2.347
		c-1.49,0-1.768,1.229-1.768,2.438v5.366h-2.644v-5.403c0-1.116,0.074-2.4-1.601-2.4c-0.52,0-1.786,0.334-1.786,2.214v5.59h-2.646"
		/>
	<path fill="#1C181B" d="M128.875,90.347c0.021,1.154,0.989,1.618,2.033,1.618c0.763,0,1.728-0.3,1.728-1.23
		c0-0.797-1.097-1.08-2.994-1.489c-1.527-0.334-3.054-0.872-3.054-2.567c0-2.46,2.121-3.094,4.188-3.094
		c2.106,0,4.04,0.707,4.246,3.073h-2.514c-0.073-1.021-0.856-1.303-1.806-1.303c-0.597,0-1.471,0.11-1.471,0.896
		c0,0.95,1.49,1.078,2.997,1.432c1.544,0.355,3.054,0.913,3.054,2.699c0,2.531-2.199,3.351-4.394,3.351
		c-2.234,0-4.414-0.837-4.526-3.385"/>
	<path fill="#1C181B" d="M136.828,83.847h2.514v1.228h0.037c0.631-1.021,1.672-1.49,2.867-1.49c3.014,0,4.374,2.44,4.374,5.18
		c0,2.567-1.417,4.968-4.225,4.968c-1.153,0-2.253-0.503-2.887-1.45h-0.039v4.58h-2.642 M143.977,88.688
		c0-1.526-0.614-3.11-2.308-3.11c-1.733,0-2.29,1.544-2.29,3.11s0.597,3.054,2.308,3.054
		C143.417,91.741,143.977,90.254,143.977,88.688"/>
	<path fill="#1C181B" d="M150.92,82.357h-2.644V80.18h2.644V82.357z M148.276,83.847h2.644v9.628h-2.644V83.847z"/>
	<path fill="#1C181B" d="M153.007,83.847h2.514v1.79h0.037c0.483-1.213,1.786-2.053,3.072-2.053c0.188,0,0.408,0.037,0.577,0.094
		v2.457c-0.243-0.054-0.633-0.091-0.95-0.091c-1.934,0-2.606,1.395-2.606,3.091v4.34h-2.644"/>
	<path fill="#1C181B" d="M162.968,82.357h-2.644V80.18h2.644V82.357z M160.324,83.847h2.644v9.628h-2.644V83.847z"/>
	<path fill="#1C181B" d="M168.404,83.847h1.935v1.771h-1.935v4.764c0,0.896,0.224,1.12,1.115,1.12c0.279,0,0.539-0.022,0.819-0.076
		v2.069c-0.444,0.071-1.021,0.091-1.546,0.091c-1.618,0-3.034-0.373-3.034-2.288v-5.68h-1.601v-1.771h1.601v-2.886h2.646"/>
	<polyline fill="#1C181B" points="21.824,98.796 24.748,98.796 24.748,103.896 30.131,103.896 30.131,98.796 33.052,98.796 
		33.052,112.09 30.131,112.09 30.131,106.358 24.748,106.358 24.748,112.09 21.824,112.09 	"/>
	<path fill="#1C181B" d="M38.06,100.976h-2.645v-2.18h2.645V100.976z M35.418,102.463h2.646v9.627h-2.646V102.463z"/>
	<path fill="#1C181B" d="M49.399,111.477c0,1.583-0.56,4.264-4.99,4.264c-1.897,0-4.111-0.892-4.244-3.089h2.627
		c0.24,0.984,1.04,1.318,1.973,1.318c1.469,0,2.141-1.004,2.121-2.383v-1.267h-0.034c-0.579,1.006-1.733,1.492-2.892,1.492
		c-2.882,0-4.114-2.197-4.114-4.843c0-2.492,1.437-4.768,4.137-4.768c1.267,0,2.233,0.43,2.869,1.549h0.034v-1.288h2.514
		 M46.886,107.156c0-1.563-0.54-2.961-2.253-2.961c-1.487,0-2.141,1.304-2.141,2.737c0,1.377,0.521,2.889,2.141,2.889
		C46.14,109.821,46.886,108.533,46.886,107.156"/>
	<path fill="#1C181B" d="M51.522,98.796h2.644v5.01h0.055c0.672-1.08,1.826-1.604,2.812-1.604c2.813,0,3.521,1.584,3.521,3.97v5.918
		h-2.645v-5.438c0-1.583-0.469-2.361-1.695-2.361c-1.434,0-2.048,0.798-2.048,2.752v5.047h-2.644"/>
	<line fill="none" stroke="#1C181B" stroke-width="2.6442" x1="63.96" y1="112.09" x2="63.96" y2="98.796"/>
	<path fill="#1C181B" d="M72.114,113.3c-0.576,1.549-1.487,2.18-3.313,2.18c-0.54,0-1.08-0.039-1.62-0.091v-2.182
		c0.503,0.036,1.023,0.112,1.547,0.093c0.91-0.093,1.207-1.043,0.91-1.804l-3.39-9.033h2.833l2.18,6.593h0.034l2.104-6.593h2.736"/>
	<polyline fill="#1C181B" points="82.482,98.796 91.83,98.796 91.83,101.255 85.409,101.255 85.409,104.326 90.976,104.326 
		90.976,106.597 85.409,106.597 85.409,112.09 82.482,112.09 	"/>
	<line fill="none" stroke="#1C181B" stroke-width="2.6442" x1="94.643" y1="112.09" x2="94.643" y2="98.796"/>
	<path fill="#1C181B" d="M97.938,105.426c0.151-2.477,2.366-3.224,4.526-3.224c1.914,0,4.227,0.43,4.227,2.737v5.01
		c0,0.874,0.094,1.753,0.334,2.141h-2.683c-0.091-0.297-0.165-0.613-0.185-0.931c-0.839,0.877-2.066,1.193-3.24,1.193
		c-1.823,0-3.279-0.913-3.279-2.89c0-2.177,1.64-2.697,3.279-2.921c1.62-0.242,3.128-0.184,3.128-1.267
		c0-1.136-0.781-1.301-1.714-1.301c-1.006,0-1.657,0.41-1.748,1.451 M104.045,107.379c-0.447,0.391-1.38,0.41-2.195,0.561
		c-0.819,0.166-1.565,0.446-1.565,1.413c0,0.989,0.764,1.23,1.62,1.23c2.066,0,2.141-1.64,2.141-2.215V107.379z"/>
	<path fill="#1C181B" d="M108.812,102.463h2.494v1.306h0.039c0.688-0.989,1.693-1.566,2.94-1.566c1.208,0,2.29,0.447,2.813,1.604
		c0.56-0.84,1.563-1.604,2.901-1.604c2.052,0,3.52,0.95,3.52,3.449v6.438h-2.644v-5.454c0-1.286-0.11-2.345-1.618-2.345
		c-1.492,0-1.771,1.228-1.771,2.436v5.363h-2.642v-5.397c0-1.12,0.073-2.401-1.603-2.401c-0.521,0-1.787,0.332-1.787,2.212v5.587
		h-2.644"/>
	<path fill="#1C181B" d="M125.68,102.463h2.496v1.306h0.037c0.688-0.989,1.693-1.566,2.94-1.566c1.21,0,2.29,0.447,2.813,1.604
		c0.56-0.84,1.563-1.604,2.903-1.604c2.05,0,3.518,0.95,3.518,3.449v6.438h-2.644v-5.454c0-1.286-0.11-2.345-1.618-2.345
		c-1.492,0-1.77,1.228-1.77,2.436v5.363h-2.644v-5.397c0-1.12,0.073-2.401-1.601-2.401c-0.521,0-1.789,0.332-1.789,2.212v5.587
		h-2.644"/>
	<path fill="#1C181B" d="M142.361,105.426c0.152-2.477,2.366-3.224,4.526-3.224c1.917,0,4.225,0.43,4.225,2.737v5.01
		c0,0.874,0.096,1.753,0.336,2.141h-2.681c-0.093-0.297-0.169-0.613-0.187-0.931c-0.84,0.877-2.066,1.193-3.24,1.193
		c-1.826,0-3.279-0.913-3.279-2.89c0-2.177,1.64-2.697,3.279-2.921c1.62-0.242,3.127-0.184,3.127-1.267
		c0-1.136-0.78-1.301-1.713-1.301c-1.007,0-1.654,0.41-1.748,1.451 M148.468,107.379c-0.446,0.391-1.379,0.41-2.194,0.561
		c-0.824,0.166-1.565,0.446-1.565,1.413c0,0.989,0.763,1.23,1.62,1.23c2.066,0,2.14-1.64,2.14-2.215V107.379z"/>
	<path fill="#1C181B" d="M153.161,98.796h2.642v4.843h0.039c0.653-0.989,1.846-1.437,3.036-1.437c1.915,0,3.984,1.549,3.984,5.064
		c0,3.539-2.069,5.086-3.984,5.086c-1.416,0-2.589-0.428-3.169-1.49h-0.034v1.228h-2.514 M157.963,104.195
		c-1.562,0-2.254,1.471-2.254,3.091c0,1.603,0.692,3.075,2.254,3.075c1.565,0,2.253-1.473,2.253-3.075
		C160.216,105.666,159.528,104.195,157.963,104.195"/>
	<line fill="none" stroke="#1C181B" stroke-width="2.6442" x1="165.936" y1="112.09" x2="165.936" y2="98.796"/>
	<path fill="#1C181B" d="M171.518,107.919c0.078,1.677,0.896,2.442,2.366,2.442c1.06,0,1.919-0.652,2.086-1.252h2.327
		c-0.746,2.276-2.327,3.243-4.507,3.243c-3.034,0-4.914-2.087-4.914-5.066c0-2.887,1.993-5.084,4.914-5.084
		c3.279,0,4.86,2.757,4.674,5.717 M175.817,106.243c-0.24-1.338-0.817-2.048-2.101-2.048c-1.675,0-2.16,1.304-2.199,2.048H175.817z"
		/>
	<path fill="#056BB3" d="M146.605,35.02c9.663,0,17.499,7.835,17.499,17.497c0,9.666-7.836,17.501-17.499,17.501
		c-9.664,0-17.499-7.835-17.499-17.501C129.106,42.854,136.941,35.02,146.605,35.02"/>
	<path fill="#FFFFFF" d="M142.577,40.349l1.733,16.432c0,0,0.407,2.042,2.11,2.042c1.977,0,2.278-2.011,2.278-2.011l1.802-16.495
		c0,0-0.224-3.979-3.947-3.979C142.582,36.338,142.577,40.349,142.577,40.349"/>
	<path fill="#FFFFFF" d="M146.605,68.811c2.167,0,3.92-1.756,3.92-3.918c0-2.168-1.753-3.923-3.92-3.923
		c-2.163,0-3.92,1.755-3.92,3.923C142.686,67.055,144.442,68.811,146.605,68.811"/>
	<g>
		<polygon fill-rule="evenodd" clip-rule="evenodd" stroke="#000000" stroke-width="0.0258" stroke-miterlimit="2.6131" points="
			73.183,68.842 54.312,36.132 54.193,35.96 54.049,35.825 53.887,35.71 53.7,35.624 53.514,35.567 53.308,35.548 53.101,35.567 
			52.899,35.624 52.728,35.71 52.551,35.825 52.421,35.96 52.304,36.132 33.433,68.842 33.342,69.033 33.285,69.225 33.271,69.426 
			33.285,69.628 33.342,69.839 33.433,70.011 33.548,70.183 33.678,70.317 33.854,70.433 34.026,70.519 34.232,70.575 
			34.434,70.595 72.181,70.595 72.382,70.575 72.573,70.519 72.76,70.433 72.922,70.317 73.067,70.183 73.183,70.011 73.273,69.839 
			73.329,69.628 73.345,69.426 73.329,69.225 73.273,69.033 73.183,68.842 		"/>
		
			<polygon fill-rule="evenodd" clip-rule="evenodd" fill="#FFF200" stroke="#000000" stroke-width="0.0258" stroke-miterlimit="2.6131" points="
			53.308,39.195 70.028,68.191 36.586,68.191 53.308,39.195 		"/>
		<path fill-rule="evenodd" clip-rule="evenodd" d="M45.094,64.726v1.61h15.921v-1.61H45.094L45.094,64.726z M47.507,59.816
			c0,1.311,0.727,2.516,1.583,3.14c1.093,0.812,2.312,0.611,2.369,0.611l0.307-0.057l-0.248-0.191
			c-1.687-1.38-2.035-3.284-2.105-4.126c0.187,0.201,0.378,0.336,0.393,0.346l0.233,0.143l-0.021-0.268
			c-0.015-0.076-0.015-0.155-0.015-0.221c0-0.843,0.222-1.388,0.413-1.685c0.029,1.855,1.178,3.235,1.234,3.292l0.23-0.143
			c-0.172-0.459-0.23-0.947-0.23-1.406c0-0.644,0.115-1.228,0.245-1.63c0.191,0.814,0.727,1.551,0.756,1.601l0.162,0.228
			l0.086-0.277c0.308-1.014,0.378-2.334,0.378-3.396c0-0.585-0.026-1.093-0.041-1.409c1.043,1.046,1.291,2.28,1.291,3.179
			c0,0.719-0.143,1.208-0.157,1.228l-0.149,0.505l0.38-0.363c0.42-0.383,0.769-1.109,0.96-1.57c0.059,0.307,0.101,0.613,0.101,0.871
			c0,0.68-0.143,1.179-0.143,1.198l-0.105,0.324l0.307-0.172c0.222-0.123,0.408-0.258,0.54-0.373
			c-0.248,2.815-2.866,4.087-2.896,4.097l-0.464,0.221l0.509,0.057c4.408,0.422,5.294-2.612,5.466-3.942
			c0.162-1.103-0.272-1.944-0.302-1.819l-0.029,0.383c-0.076,0.278-0.334,0.479-0.511,0.592c-0.029-0.143-0.029-0.287-0.029-0.449
			c0-0.525,0.086-1.062,0.086-1.062c0.177-0.812,0.235-1.466,0.235-1.991c0-1.607-0.613-2.029-0.655-2.049l-0.174-0.133
			l-0.027,0.219c0,0.775-0.513,1.062-0.513,1.062c-0.101-2.978-1.586-4.269-1.657-4.364c-0.086-0.066-0.263-0.152-0.263-0.152
			l0.047,0.287c0.059,0.525-0.076,1.004-0.162,1.09c-0.172-1.09-0.292-1.512-1.179-2.298c-0.812-0.736-1.074-2.432-1.074-2.432
			l-0.16,0.336c-0.42,0.842-0.493,1.849-0.479,2.146c0.029,0.564-0.118,1.234-0.206,1.627c-0.42-0.613-1.09-1.283-1.119-1.313
			l-0.272-0.277l0.029,0.384c0.071,0.785,0.101,1.455,0.101,2c0,1.39-0.177,2.097-0.307,2.433c-0.277-0.508-0.958-1.168-1.119-1.32
			l-0.28-0.251l0.034,0.373c0.015,0.105,0.015,0.222,0.015,0.327c0,0.881-0.062,1.273-0.277,1.828
			c-0.292,0.717-0.206,1.685-0.206,1.733c-0.334-0.337-0.814-0.584-0.886-0.614l-0.319-0.161l0.118,0.333
			C47.593,56.79,47.507,58.522,47.507,59.816L47.507,59.816z"/>
	</g>
	<g>
		<polyline fill="none" stroke="#000000" stroke-width="1.2529" stroke-miterlimit="2.6131" points="97.378,61.871 112.746,51.478 
			111.234,49.244 95.865,59.632 		"/>
		<path fill="none" stroke="#000000" stroke-width="0.9845" stroke-miterlimit="2.6131" d="M97.031,62.804l-2.18-3.226
			 M95.844,63.608l-2.18-3.225"/>
		<path fill="none" stroke="#000000" stroke-width="0.895" stroke-miterlimit="2.6131" d="M90.146,49.436
			c0.399,0.564,0.174,1.336-0.349,1.792c-0.185,0.162-0.167,0.172-0.342,0.319c-1.257,1.07-0.461,2.444,0.251,2.661
			c0.537,0.161,0.819,0.068,1.73-0.079c0.746-0.123,1.202,0.104,1.521,0.613c0.352,0.561-0.145,1.326-0.265,2.215
			c-0.055,0.407-0.138,0.712-0.029,1.173c0.041,0.256,0.331,1.223,0.822,1.92 M92.854,47.698c0.41,0.589,0.285,1.826-0.305,2.194
			c-0.206,0.132-0.191,0.147-0.385,0.265c-1.409,0.854-0.84,2.337-0.17,2.661c0.506,0.245,0.882,0.162,1.802,0.098
			c1.021-0.073,1.353,0.133,1.672,0.639c0.527,0.85,0.044,1.61-0.621,2.317c-0.321,0.344-0.461,0.545-0.592,1.379
			c-0.086,0.604-0.029,1.267,0.462,1.964"/>
		<g>
			<path fill-rule="evenodd" clip-rule="evenodd" fill="#ED1C24" d="M118.733,52.519l-0.027-0.8l-0.052-0.801l-0.088-0.785
				l-0.131-0.785l-0.154-0.786l-0.194-0.775l-0.23-0.761l-0.258-0.746l-0.297-0.746l-0.334-0.722l-0.36-0.712l-0.388-0.692
				l-0.425-0.673l-0.464-0.657l-0.477-0.629l-0.516-0.623l-0.53-0.579l-0.566-0.565l-0.592-0.54l-0.606-0.505l-0.631-0.491
				l-0.657-0.446l-0.683-0.428l-0.685-0.388l-0.707-0.373l-0.736-0.324l-0.734-0.294l-0.761-0.271l-0.759-0.221l-0.773-0.206
				l-0.775-0.152l-0.785-0.128l-0.798-0.093l-0.788-0.05l-0.798-0.015l-0.8,0.015l-0.798,0.05l-0.786,0.093l-0.788,0.128
				l-0.785,0.152L96.243,35.4l-0.761,0.221l-0.746,0.271l-0.749,0.294l-0.722,0.324l-0.709,0.373l-0.694,0.388l-0.671,0.428
				l-0.657,0.446l-0.631,0.491l-0.619,0.505l-0.579,0.54l-0.566,0.565l-0.543,0.579l-0.516,0.623l-0.476,0.629l-0.452,0.657
				l-0.425,0.673L85.328,44.1l-0.361,0.712l-0.321,0.722l-0.297,0.746l-0.271,0.746l-0.233,0.761l-0.193,0.775l-0.152,0.786
				l-0.13,0.785l-0.091,0.785l-0.052,0.801l-0.013,0.8l0.013,0.796l0.052,0.785l0.091,0.8l0.13,0.786l0.152,0.785l0.193,0.761
				l0.233,0.775l0.271,0.747l0.297,0.736l0.321,0.731l0.361,0.712l0.399,0.691l0.425,0.673l0.452,0.658l0.476,0.633l0.516,0.619
				l0.543,0.579l0.566,0.564l0.579,0.54l0.619,0.506l0.631,0.49l0.657,0.447l0.671,0.427l0.694,0.388l0.709,0.373l0.722,0.324
				l0.749,0.295l0.746,0.27l0.761,0.222l0.773,0.191l0.785,0.167l0.788,0.117l0.786,0.089l0.798,0.063l0.8,0.015l0.798-0.015
				l0.788-0.063l0.798-0.089l0.785-0.117l0.775-0.167l0.773-0.191l0.759-0.222l0.761-0.27l0.734-0.295l0.736-0.324l0.707-0.373
				l0.685-0.388l0.683-0.427l0.657-0.447l0.631-0.49l0.606-0.506l0.592-0.54l0.566-0.564l0.53-0.579l0.516-0.619l0.477-0.633
				l0.464-0.658l0.425-0.673l0.388-0.691l0.36-0.712l0.334-0.731l0.297-0.736l0.258-0.747l0.23-0.775l0.194-0.761l0.154-0.785
				l0.131-0.786l0.088-0.8l0.052-0.785L118.733,52.519L118.733,52.519z M111.968,61.513l0.449-0.569l0.412-0.59l0.389-0.618
				l0.333-0.633l0.322-0.644l0.284-0.658l0.258-0.672l0.219-0.692l0.182-0.697l0.143-0.712l0.103-0.707l0.076-0.722l0.039-0.707
				V52.17l-0.039-0.722l-0.063-0.722l-0.115-0.712l-0.143-0.706l-0.182-0.697l-0.219-0.683l-0.245-0.683l-0.282-0.657l-0.321-0.644
				l-0.349-0.634l-0.376-0.618L112.43,44.1l-0.449-0.564l-0.464-0.545l-0.504-0.525l-0.515-0.491l-0.555-0.477l-0.567-0.437
				l-0.592-0.412l-0.606-0.373l-0.631-0.363l-0.646-0.31l-0.67-0.285l-0.67-0.255l-0.683-0.206l-0.709-0.182l-0.697-0.152
				l-0.722-0.104l-0.707-0.078l-0.722-0.024h-0.722l-0.722,0.024l-0.722,0.078l-0.71,0.113l-0.709,0.143l-0.694,0.182l-0.686,0.216
				l-0.67,0.245l-0.67,0.3l-0.644,0.31l-0.63,0.349l-0.606,0.383l-0.595,0.412l-0.566,0.442L111.968,61.513L111.968,61.513z
				 M109.97,63.511l-20.003-19.99L89.516,44.1l-0.413,0.579l-0.373,0.618l-0.349,0.634l-0.321,0.643l-0.282,0.658l-0.258,0.683
				l-0.206,0.683l-0.182,0.696l-0.154,0.712l-0.104,0.707l-0.076,0.722l-0.039,0.722v0.722l0.039,0.707l0.076,0.722l0.104,0.712
				l0.154,0.707l0.167,0.697l0.221,0.697l0.258,0.667l0.282,0.658l0.31,0.643l0.36,0.648l0.373,0.604l0.413,0.595l0.439,0.564
				l0.476,0.545l0.491,0.525l0.527,0.49l0.54,0.477l0.567,0.437l0.594,0.413l0.619,0.388l0.631,0.349l0.646,0.309l0.657,0.285
				l0.683,0.255l0.683,0.207l0.697,0.182l0.707,0.142l0.709,0.113l0.722,0.078l0.722,0.025h0.722l0.722-0.035l0.71-0.068
				l0.709-0.113l0.709-0.142l0.695-0.182l0.697-0.217l0.67-0.26l0.655-0.285l0.646-0.309l0.631-0.358l0.618-0.373l0.595-0.413
				L109.97,63.511L109.97,63.511z"/>
		</g>
	</g>
</g>
</svg>
