<?xml version="1.0" encoding="utf-8"?>
<!-- Generator: Adobe Illustrator 16.0.0, SVG Export Plug-In . SVG Version: 6.00 Build 0)  -->
<!DOCTYPE svg PUBLIC "-//W3C//DTD SVG 1.1//EN" "http://www.w3.org/Graphics/SVG/1.1/DTD/svg11.dtd">
<svg version="1.1" id="Layer_1" xmlns="http://www.w3.org/2000/svg" xmlns:xlink="http://www.w3.org/1999/xlink" x="0px" y="0px"
	 width="200px" height="200px" viewBox="0 0 200 200" enable-background="new 0 0 200 200" xml:space="preserve">
<rect x="5" y="4.999" fill="#DBDADB" width="190" height="190.002"/>
<path fill="none" stroke="#1C181B" d="M195,195.001 M5,195.001h190V4.999H5V195.001z"/>
<path fill="#1C181B" d="M23.473,187.076c-5.832,0-10.557-4.721-10.557-10.551V23.47c0-5.829,4.725-10.555,10.557-10.555h153.055
	c5.834,0,10.556,4.726,10.556,10.555v153.056c0,5.83-4.722,10.551-10.556,10.551 M159.166,38.087
	c0-6.627-5.229-11.859-11.504-11.859c-6.628,0-12.208,5.232-12.208,11.859c0,6.624,5.58,11.853,12.208,11.853
	C153.938,49.939,159.166,44.711,159.166,38.087 M174.852,104.326V66.328c0-5.928-6.628-13.251-14.646-13.251h-26.494
	c-8.014,0-14.642,7.323-14.642,13.251v37.998c0,2.434,2.095,5.229,5.232,5.229c2.442,0,4.877-2.442,4.877-5.229V70.157
	c0-2.091,3.485-2.091,3.485,0v95.879c0,3.489,2.095,6.275,5.58,6.275c3.838,0,6.275-2.786,6.275-6.275v-54.044
	c0-2.786,4.533-3.138,4.533,0v54.044c0,3.489,2.79,6.275,6.275,6.275c3.486,0,5.924-2.786,5.924-6.275V70.157
	c0-2.091,3.494-2.091,3.494,0v34.169c0,2.786,2.431,5.229,4.877,5.229C172.413,109.555,174.852,106.76,174.852,104.326
	 M69.467,38.087c0-6.627-5.228-11.859-11.852-11.859c-6.622,0-11.854,5.232-11.854,11.859c0,6.624,5.232,11.853,11.854,11.853
	C64.239,49.939,69.467,44.711,69.467,38.087 M92.479,99.098l-13.247-37.65c-1.047-3.142-5.232-8.722-11.504-8.722H45.417
	c-5.928,0-9.066,4.88-10.465,8.722l-13.247,37.65c-1.047,2.434,0.7,5.229,3.138,6.271c2.79,1.047,5.58-0.348,6.623-3.138
	L41.924,71.9c1.047-2.442,4.189-1.048,3.142,1.395l-18.827,53.688h17.432v40.097c0,3.142,2.442,5.58,5.58,5.58
	s5.576-2.438,5.576-5.58v-40.097h4.531v40.097c0,3.142,2.442,5.58,5.576,5.58c3.138,0,5.58-2.438,5.58-5.58v-40.097h17.432
	L69.119,73.295c-1.047-2.79,2.095-3.837,3.142-1.395l10.457,30.331c1.047,2.79,4.181,4.185,6.276,3.138
	C91.78,104.326,93.527,101.531,92.479,99.098"/>
<line fill="#1C181B" stroke="#DBDADB" x1="102.132" y1="26.723" x2="102.132" y2="170.708"/>
</svg>
