<?xml version="1.0" encoding="utf-8"?>
<!-- Generator: Adobe Illustrator 16.0.0, SVG Export Plug-In . SVG Version: 6.00 Build 0)  -->
<!DOCTYPE svg PUBLIC "-//W3C//DTD SVG 1.1//EN" "http://www.w3.org/Graphics/SVG/1.1/DTD/svg11.dtd">
<svg version="1.1" id="Layer_1" xmlns="http://www.w3.org/2000/svg" xmlns:xlink="http://www.w3.org/1999/xlink" x="0px" y="0px"
	 width="200px" height="200px" viewBox="0 0 200 200" enable-background="new 0 0 200 200" xml:space="preserve">
<g>
	
		<rect x="32.825" y="32.825" transform="matrix(0.7071 -0.7071 0.7071 0.7071 -41.4214 100)" fill="#ED1C24" width="134.35" height="134.35"/>
	
		<rect x="44.494" y="44.494" transform="matrix(0.7071 -0.7071 0.7071 0.7071 -41.4212 100.0012)" fill="#FFFFFF" width="111.012" height="111.012"/>
	<g>
		<polyline fill="#1D1612" points="69.821,141.205 69.821,137.873 73.15,137.873 73.15,137.039 73.981,137.039 73.981,136.209 
			78.144,136.209 78.144,135.377 78.977,134.547 79.809,134.547 79.809,133.713 80.642,133.713 80.642,134.547 81.473,134.547 
			81.473,133.713 82.306,133.713 83.138,132.881 84.802,132.881 84.802,133.713 85.635,132.881 86.467,132.881 86.467,132.047 
			88.964,132.047 88.964,129.553 90.628,129.553 90.628,130.381 94.166,130.381 94.166,131.215 94.997,130.381 95.83,130.381 
			96.661,131.215 96.661,135.377 95.83,136.209 96.661,137.039 96.661,141.205 97.494,142.033 95.83,143.697 95.83,146.195 
			96.661,146.195 97.494,147.029 97.494,151.188 98.326,152.021 98.326,152.854 99.159,152.854 99.159,153.688 98.326,154.52 
			98.326,155.354 97.494,156.184 98.326,157.016 98.326,160.346 97.494,161.178 97.494,162.012 96.661,162.012 96.661,162.842 
			97.494,162.842 97.494,163.674 96.661,164.504 97.494,164.504 97.494,166.17 96.661,166.17 97.494,167.004 97.494,167.836 
			96.661,167.836 69.821,141.205 		"/>
		<polygon fill="#1D1612" points="99.99,158.68 100.823,158.68 100.823,157.846 99.99,157.016 99.99,154.52 100.823,153.688 
			100.823,152.854 101.656,152.021 100.823,151.188 100.823,147.861 99.99,147.861 99.99,147.029 99.159,147.029 99.159,145.363 
			99.99,144.529 99.99,142.867 100.823,142.033 101.656,142.033 102.488,142.867 102.488,144.529 103.319,144.529 103.319,142.867 
			104.153,142.867 103.319,142.033 103.319,138.705 102.488,138.705 102.488,135.377 101.656,135.377 101.656,132.881 
			102.488,132.047 103.319,132.047 104.153,132.881 104.153,130.381 104.985,129.553 105.817,129.553 107.481,131.215 
			108.315,131.215 108.315,130.381 110.811,130.381 111.644,131.215 112.476,131.215 114.14,132.881 114.14,134.547 
			116.636,134.547 116.636,135.377 117.468,135.377 117.468,134.547 119.135,132.881 120.797,134.547 121.631,134.547 
			123.293,136.209 124.126,136.209 124.126,137.873 126.625,137.873 126.625,138.705 128.288,138.705 129.952,140.371 
			99.99,167.836 		"/>
		<polyline fill="#1D1612" points="98.326,127.055 98.326,127.889 97.494,128.719 95.83,128.719 95.83,127.889 94.997,127.889 
			94.997,127.055 95.83,127.055 95.83,126.223 97.494,126.223 98.326,127.055 		"/>
		<polyline fill="#1D1612" points="88.964,112.906 88.964,114.568 87.3,114.568 86.467,113.738 86.467,112.072 88.964,112.072 
			88.964,112.906 		"/>
		<polygon fill="#1D1612" points="108.315,124.555 107.481,124.555 107.481,126.223 106.651,126.223 106.651,127.889 
			107.481,127.889 108.315,127.889 108.315,127.055 109.978,127.055 109.978,124.555 		"/>
		<polygon fill="#1D1612" points="104.985,115.402 104.985,114.568 103.319,114.568 103.319,116.232 104.985,116.232 
			104.985,117.064 105.817,117.898 107.481,117.898 107.481,116.232 107.481,115.402 		"/>
		<polygon fill="#1D1612" points="99.159,104.582 98.326,105.416 98.326,107.08 98.326,108.744 99.99,108.744 99.99,107.08 
			100.823,107.08 100.823,104.582 		"/>
		<polygon fill="#1D1612" points="89.795,117.064 89.795,117.898 88.964,117.064 87.3,117.064 87.3,118.732 88.964,118.732 
			88.964,119.564 89.795,119.564 89.795,120.398 90.628,120.398 90.628,119.564 91.459,119.564 91.459,117.898 91.459,117.064 		"/>
		<polyline fill="#1D1612" points="88.964,127.055 88.964,127.889 88.131,128.719 87.3,128.719 87.3,126.223 88.131,126.223 
			88.964,127.055 		"/>
		<polyline fill="#1D1612" points="97.494,112.072 96.661,112.072 96.661,110.408 98.326,110.408 98.326,111.24 		"/>
		<polyline fill="#1D1612" points="98.326,111.24 98.326,112.072 97.494,112.072 		"/>
		<polygon fill="#1D1612" points="99.99,137.873 99.99,136.209 98.326,136.209 98.326,137.873 99.159,137.873 98.326,138.705 
			98.326,140.371 100.823,140.371 100.823,138.705 		"/>
		<path fill="#1D1612" d="M110.811,87.788c0,0,10.022-12.776,10.022-25.048c0-12.272-6.501-25.721-21.932-25.721
			S76.971,50.468,76.971,62.74c0,12.272,9.496,25.048,9.496,25.048l-0.832,7.639l-14.982,4.994l-0.831,0.832v1.664h2.496l2.497,2.5
			h1.665v1.664h2.497l0.832,0.83v0.834h2.497v0.83h0.832v0.834h3.329v-0.834h3.328v0.834h0.833v0.832h0.831l0.833,0.832v0.834h0.832
			l1.042-0.834v-0.832l1.664-1.666v-3.326l0.831-0.832H95.83v-1.666h0.831v-1.666h0.833l0.832-0.832v-1.663l-0.832-0.833
			l0.832-0.832V96.26H95.83v-0.833l0.831-0.832v-2.706l0.833-0.832v-0.833h0.832v-0.832l-0.832-0.833v-0.832l0.832-0.832v-0.832
			h0.833l-0.833-0.834v-2.495h0.833l0.831,3.329h0.833v1.664h0.833v2.497l0.832,0.833v1.665h-0.832v1.873l0.832,0.832v1.664
			l0.831,0.833h0.834v3.328h-1.665l-0.832,0.832v0.832h0.832v0.834l0.831,2.498v3.326h0.834v2.498l0.832,0.834h0.832l1.664-1.666
			h1.664l0.832,0.832h0.833v-0.832h0.833v-0.832l-0.833-0.834v-0.83l0.833-0.834v0.834h0.832l0.834,0.83h1.664v-0.83l0.829,0.83
			h3.332l0.833-0.83h0.829v-1.664h0.834v-0.832h0.83v-0.832h3.332v-0.834h0.832l0.834-1.666h0.829v-1.664h-0.829l-16.648-5.825
			V87.788z"/>
		<path d="M51.51,122.891c0,0,0.16-7.469,0.16-12.814c0-3.668,13.158-7.16,13.158-7.16h1.664v0.834h2.496v0.832h2.497v0.834h0.832
			v1.664h1.664v0.83h0.833v1.664h0.832v0.834h3.33l0.832,0.832v2.498l0.833-0.832v0.832h0.831l0.833,0.83v0.834l0.832-0.834h0.833
			l0.831,0.834h0.833v2.496h0.832l0.833,0.834v0.832h0.831v2.496H87.3v0.83l0.831,0.832v1.666h-1.664v-0.834h-0.832l-0.833,0.834
			v4.164h-2.496v-1.664h-0.833v-0.834h-0.831l-0.833,0.834v2.492h-2.498v0.834h-0.831v2.498H73.15l-0.833,0.834v1.662h-1.665v0.83
			h-2.495v0.834h-1.665v-0.834L51.51,122.891z"/>
		<path d="M109.978,123.723v-1.662l0.833-0.834h-0.833v-1.662l1.666-1.666h0.832v-0.834l0.834-0.832h0.83v-0.83h0.834v-0.834
			l0.829-0.83h0.833v-0.832h3.332v-0.834h0.829v-0.832l0.834-0.832v-0.834h0.83l0.832-0.83h0.833l0.834-0.834h0.833v-0.83
			l1.666-1.664h2.493l0.832-0.834h1.666v-0.832h0.833v-0.834h1.663c0,0,13.319,4.643,13.319,9.99s0,10.816,0,10.816l-14.149,12.486
			l-1.666,1.664h-2.498v-1.664h-2.493v-0.832h-0.834v-0.83l-0.832-0.834v-0.832l-0.833,0.832h-0.834l-0.833-0.832h-0.832v-1.666
			l-0.83,0.832h-1.663l-1.666-1.666h-0.834v0.834h-0.832l-0.833-0.834v-0.828l0.833-0.834h0.832h-0.832v-1.664h-0.833l-0.829-0.832
			l-0.834,0.832v0.834h-0.83l-0.834-0.834v-1.666h0.834v-1.666H109.978z"/>
	</g>
</g>
</svg>
