<?xml version="1.0" encoding="utf-8"?>
<!-- Generator: Adobe Illustrator 16.0.0, SVG Export Plug-In . SVG Version: 6.00 Build 0)  -->
<!DOCTYPE svg PUBLIC "-//W3C//DTD SVG 1.1//EN" "http://www.w3.org/Graphics/SVG/1.1/DTD/svg11.dtd">
<svg version="1.1" id="Layer_1" xmlns="http://www.w3.org/2000/svg" xmlns:xlink="http://www.w3.org/1999/xlink" x="0px" y="0px"
	 width="200px" height="200px" viewBox="0 0 200 200" enable-background="new 0 0 200 200" xml:space="preserve">
<g>
	<path fill="#C6C6C6" d="M84.913,102.497c-22.479,3.454-45.127,7.097-67.606,10.551c-16.061-2.416-15.023-24.196,0.189-25.933
		c22.46,3.454,44.938,7.437,67.417,11.06c0.17-1.208,0.339-2.416,0.849-3.454C64.17,86.606,42.561,78.471,20.95,70.355
		c-10.551-10.21-2.945-26.971,13.136-22.818c17.968,14.174,35.955,28.858,53.941,43.202c0.68-0.85,1.378-1.718,2.246-2.416
		C75.74,70.355,61.227,52.539,46.712,34.571c-4.511-15.91,14.174-25.592,22.818-12.286c8.286,21.1,16.59,42.352,24.875,63.623
		c1.038-0.34,2.076-0.699,3.114-0.868c-3.624-22.29-7.248-44.769-10.89-67.078c1.906-17.797,25.422-16.93,25.592,0.529
		c-3.454,22.12-6.926,44.259-10.38,66.549c1.208,0.169,2.435,0.34,3.643,0.868c8.115-21.441,16.25-42.881,24.365-64.303
		c9.513-12.457,28.179-2.246,22.648,12.098c-14.514,17.967-29.046,36.124-43.56,54.11c0.868,0.68,1.717,1.378,2.415,2.246
		c17.798-14.363,35.785-28.876,53.771-43.221c15.382-5.7,25.064,13.834,12.269,22.988c-21.102,8.304-42.184,16.59-63.266,24.895
		c0.51,1.038,0.68,2.076,0.85,3.114c21.271-3.454,43.92-7.606,65.171-11.06c18.496,0.339,19.194,26.102,0.358,25.743
		c-21.78-3.453-43.749-6.907-65.529-10.36c-0.17,1.207-0.509,2.415-1.038,3.623c20.761,7.965,41.504,15.74,62.246,23.687
		c14.174,6.907,6.907,28.009-9.853,23.328c-18.156-14.345-36.483-28.858-54.45-43.202c-0.868,0.849-1.737,1.718-2.605,2.416
		c14.533,17.968,29.047,35.784,43.392,53.583c6.397,16.608-15.552,24.554-23.158,10.89c-7.965-20.742-16.081-41.484-24.026-62.227
		c-1.038,0.339-2.076,0.698-3.284,0.868c3.624,22.648,7.247,45.637,10.701,68.115c-4.491,20.912-29.726,10.701-24.875-5.549
		c2.756-18.666,6.738-43.901,9.664-62.566c-1.019-0.359-2.057-0.529-2.925-0.698c-8.475,21.439-16.949,43.391-25.234,65.001
		c-12.796,12.438-31.292-4.322-19.194-17.288c12.796-15.911,27.65-34.219,40.446-50.129c-0.868-0.528-1.718-1.208-2.416-2.076
		c-17.288,14.004-34.577,27.839-52.035,41.654c-17.289,9.513-27.669-15.213-12.098-22.29c20.572-7.606,40.975-15.911,61.717-23.517
		C85.423,104.743,85.083,103.535,84.913,102.497L84.913,102.497z"/>
	<path fill="#FFFFFF" d="M111.884,99.912c0-6.568-5.36-11.928-11.929-11.928c-6.587,0-11.928,5.36-11.928,11.928
		s5.341,11.928,11.928,11.928C106.523,111.84,111.884,106.479,111.884,99.912L111.884,99.912z"/>
</g>
</svg>
