<?xml version="1.0" encoding="utf-8"?>
<!-- Generator: Adobe Illustrator 16.0.0, SVG Export Plug-In . SVG Version: 6.00 Build 0)  -->
<!DOCTYPE svg PUBLIC "-//W3C//DTD SVG 1.1//EN" "http://www.w3.org/Graphics/SVG/1.1/DTD/svg11.dtd">
<svg version="1.1" id="Layer_1" xmlns="http://www.w3.org/2000/svg" xmlns:xlink="http://www.w3.org/1999/xlink" x="0px" y="0px"
	 width="200px" height="200px" viewBox="0 0 200 200" enable-background="new 0 0 200 200" xml:space="preserve">
<g>
	<polyline fill="#FFFFFF" points="100.73,9.729 10.73,99.729 100.73,189.729 190.729,99.729 	"/>
	
		<rect x="37.09" y="36.09" transform="matrix(0.7071 -0.7071 0.7071 0.7071 -41.0163 100.4369)" fill="none" stroke="#1C181B" width="127.279" height="127.279"/>
	<polyline fill="#1C181B" points="100.663,18.195 19.105,99.755 100.663,181.315 182.221,99.755 	"/>
	<polyline fill="#FFFFFF" points="21.867,99.755 100.663,20.958 179.463,99.755 	"/>
	<path fill="#FFFFFF" d="M65.251,109.582c0-2.001-0.405-2.871-1.657-2.871c-1.406,0-1.734,1.406-1.734,5.301
		c0,4.159,0.579,4.91,1.773,4.91c1.002,0,1.733-0.521,1.733-3.485h2.773c0,2.965-0.731,5.526-4.373,5.526
		c-4.161,0-4.681-2.966-4.681-7.145s0.52-7.146,4.681-7.146c3.968,0,4.257,2.908,4.257,4.909"/>
	<path fill="#FFFFFF" d="M73.728,104.673c4.161,0,4.681,2.967,4.681,7.146s-0.52,7.145-4.681,7.145s-4.682-2.966-4.682-7.145
		S69.566,104.673,73.728,104.673 M73.728,116.922c1.637,0,1.907-1.406,1.907-5.104c0-3.678-0.27-5.107-1.907-5.107
		c-1.638,0-1.907,1.43-1.907,5.107C71.82,115.516,72.089,116.922,73.728,116.922"/>
	<path fill="#FFFFFF" d="M79.66,104.94h5.124c2.273,0,3.66,1.194,3.66,3.546c0,1.827-0.731,3.064-2.292,3.389v0.038
		c1.888,0.251,2.177,1.293,2.216,4.204c0.019,1.439,0.096,2.191,0.616,2.462v0.115h-3.005c-0.27-0.386-0.328-0.905-0.347-1.443
		l-0.076-2.639c-0.039-1.082-0.521-1.735-1.638-1.735h-1.484v5.817H79.66 M82.434,110.951h1.156c1.33,0,2.081-0.579,2.081-2.058
		c0-1.274-0.675-1.909-1.927-1.909h-1.31V110.951z"/>
	<path fill="#FFFFFF" d="M89.986,104.94h5.124c2.273,0,3.66,1.194,3.66,3.546c0,1.827-0.732,3.064-2.293,3.389v0.038
		c1.889,0.251,2.178,1.293,2.215,4.204c0.02,1.439,0.096,2.191,0.617,2.462v0.115h-3.005c-0.27-0.386-0.328-0.905-0.347-1.443
		l-0.078-2.639c-0.038-1.082-0.52-1.735-1.637-1.735h-1.484v5.817h-2.773 M92.759,110.951h1.156c1.33,0,2.082-0.579,2.082-2.058
		c0-1.274-0.675-1.909-1.927-1.909h-1.31V110.951z"/>
	<path fill="#FFFFFF" d="M104.703,104.673c4.159,0,4.682,2.967,4.682,7.146s-0.522,7.145-4.682,7.145
		c-4.161,0-4.681-2.966-4.681-7.145S100.542,104.673,104.703,104.673 M104.703,116.922c1.639,0,1.907-1.406,1.907-5.104
		c0-3.678-0.269-5.107-1.907-5.107c-1.637,0-1.907,1.43-1.907,5.107C102.796,115.516,103.066,116.922,104.703,116.922"/>
	<path fill="#FFFFFF" d="M112.87,114.398v0.404c0,1.291,0.366,2.119,1.831,2.119c0.847,0,1.658-0.539,1.658-1.693
		c0-1.254-0.638-1.717-2.469-2.352c-2.465-0.847-3.601-1.867-3.601-4.162c0-2.676,1.637-4.042,4.257-4.042
		c2.466,0,4.258,1.061,4.258,3.696v0.386h-2.659c0-1.291-0.442-2.044-1.503-2.044c-1.251,0-1.58,0.79-1.58,1.6
		c0,0.849,0.252,1.368,1.425,1.869l2.141,0.924c2.078,0.908,2.619,1.966,2.619,3.641c0,2.911-1.773,4.219-4.778,4.219
		c-3.14,0-4.371-1.463-4.371-4.003v-0.562"/>
	<rect x="120.385" y="104.94" fill="#FFFFFF" width="2.772" height="13.754"/>
	<polyline fill="#FFFFFF" points="126.895,104.94 128.842,115.115 128.897,115.115 130.938,104.94 133.811,104.94 130.652,118.694 
		127.087,118.694 123.927,104.94 	"/>
	<polyline fill="#FFFFFF" points="142.132,104.94 142.132,107.215 137.22,107.215 137.22,110.45 141.846,110.45 141.846,112.722 
		137.22,112.722 137.22,116.423 142.325,116.423 142.325,118.694 134.447,118.694 134.447,104.94 	"/>
	<path fill="#FFFFFF" d="M98.926,165.913v-0.028c-1.185-0.312-1.589-1.326-1.589-2.123c0-2.171,1.231-3.043,3.244-3.043
		c2.013,0,3.246,0.872,3.246,3.043c0,0.797-0.405,1.811-1.59,2.123v0.028c1.246,0.252,1.872,1.343,1.872,2.732
		c0,1.266-0.452,3.34-3.528,3.34c-3.072,0-3.525-2.074-3.525-3.34C97.056,167.256,97.679,166.165,98.926,165.913 M100.581,170.518
		c1.016,0,1.28-0.858,1.28-1.905c0-1.058-0.264-1.899-1.28-1.899c-1.013,0-1.278,0.842-1.278,1.899
		C99.303,169.659,99.567,170.518,100.581,170.518 M100.581,165.245c0.655,0,1.093-0.515,1.093-1.547
		c0-0.997-0.358-1.515-1.093-1.515s-1.091,0.518-1.091,1.515C99.49,164.73,99.926,165.245,100.581,165.245"/>
	<g>
		<path fill-rule="evenodd" clip-rule="evenodd" stroke="#000000" stroke-width="0.1595" stroke-miterlimit="2.6131" d="
			M97.432,56.854l-19.821-2.112l-0.559,5.016h22.683l0.027-0.341l-0.027-0.341l-0.073-0.341l-0.107-0.325l-0.161-0.306l-0.199-0.289
			l-0.226-0.25l-0.26-0.228l-0.296-0.176l-0.306-0.146l-0.334-0.108L97.432,56.854L97.432,56.854z M76.917,61.054l19.796,2.31
			l0.413,0.026l0.415-0.017l0.413-0.063l0.406-0.11l0.387-0.144l0.377-0.179l0.352-0.224l0.322-0.261l0.296-0.296l0.262-0.315
			l0.234-0.351l0.188-0.369l0.154-0.386l0.107-0.407l0.072-0.412l0.019-0.414l-0.019-0.414l-0.062-0.414l-0.108-0.404l-0.145-0.383
			l-0.189-0.372l-0.225-0.351l-0.261-0.322l-0.297-0.299l-0.323-0.259L99.15,56l-0.368-0.188l-0.387-0.153l-0.405-0.108
			l-0.414-0.063l-19.821-2.039l-0.01-0.219L77.7,53.017l-0.089-0.188l-0.144-0.171l-0.162-0.134l-0.197-0.089l-0.216-0.054h-0.217
			l-0.207,0.054l-0.198,0.089l-0.162,0.134l-0.134,0.171l-0.1,0.198L75.83,53.23l-0.836,7.605v0.226l0.054,0.205l0.089,0.202
			l0.134,0.16l0.171,0.134l0.2,0.099l0.207,0.045h0.215l0.216-0.045l0.188-0.099l0.171-0.134l0.134-0.172l0.09-0.195L76.917,61.054
			L76.917,61.054z"/>
		<polygon fill-rule="evenodd" clip-rule="evenodd" stroke="#000000" stroke-width="0.1595" stroke-miterlimit="2.6131" points="
			70.109,87.882 70.227,87.894 70.281,87.908 70.334,87.927 70.442,87.979 70.541,88.035 70.63,88.106 70.722,88.179 70.866,88.36 
			70.945,88.44 71.019,88.529 71.135,88.724 71.388,89.115 71.621,89.5 71.854,89.893 72.097,90.288 72.359,90.669 72.646,91.029 
			72.719,91.118 72.8,91.198 72.979,91.342 73.15,91.495 73.241,91.567 73.338,91.622 73.546,91.723 73.762,91.81 73.87,91.847 
			73.987,91.864 74.21,91.892 74.327,91.892 74.446,91.892 74.67,91.856 74.777,91.828 74.886,91.791 75.002,91.755 75.056,91.739 
			75.11,91.713 75.308,91.603 75.497,91.469 75.678,91.332 75.839,91.172 76.163,90.838 76.325,90.679 76.487,90.516 76.667,90.371 
			76.855,90.236 76.955,90.182 77.052,90.14 77.269,90.058 77.493,90.013 77.611,90.003 77.728,90.003 77.952,89.985 78.069,89.976 
			78.186,89.95 78.294,89.912 78.402,89.879 78.502,89.822 78.555,89.799 78.6,89.759 78.744,89.58 78.797,89.481 78.824,89.427 
			78.852,89.374 78.923,89.157 79.023,88.953 79.06,88.844 79.114,88.746 79.167,88.647 79.238,88.545 79.311,88.456 79.392,88.386 
			79.481,88.306 79.572,88.24 79.778,88.144 79.994,88.061 80.101,88.028 80.21,87.988 80.443,87.956 80.668,87.918 80.786,87.908 
			80.894,87.899 81.351,87.882 89.87,87.882 89.87,95.854 54.523,95.854 54.523,87.882 70.109,87.882 		"/>
		<polygon fill-rule="evenodd" clip-rule="evenodd" stroke="#000000" stroke-width="0.1595" stroke-miterlimit="2.6131" points="
			72.708,84.414 72.771,84.555 72.835,84.699 72.907,84.844 72.979,84.969 73.06,85.105 73.158,85.239 73.241,85.357 73.348,85.463 
			73.446,85.573 73.546,85.682 73.653,85.778 73.779,85.858 73.896,85.94 74.013,86.013 74.14,86.083 74.255,86.147 74.373,86.192 
			74.508,86.246 74.624,86.265 74.759,86.293 74.877,86.319 75.011,86.319 75.146,86.319 75.271,86.293 75.406,86.265 
			75.524,86.246 75.659,86.192 75.785,86.147 75.919,86.083 76.037,86.013 76.163,85.94 76.28,85.858 76.395,85.778 76.504,85.682 
			76.613,85.573 76.721,85.463 76.82,85.357 76.917,85.239 77.009,85.105 77.089,84.969 77.161,84.844 77.233,84.699 77.294,84.555 
			77.358,84.414 77.404,84.261 77.449,84.099 77.476,83.937 77.503,83.774 77.512,83.612 77.512,83.44 77.512,83.271 77.485,83.092 
			77.467,82.93 77.431,82.751 75.785,76.833 75.74,76.656 75.678,76.487 75.606,76.341 75.515,76.224 75.461,76.181 75.406,76.125 
			75.354,76.083 75.299,76.045 75.228,76.017 75.156,76 75.083,75.981 75.011,75.981 74.93,75.981 74.858,76 74.787,76.017 
			74.723,76.045 74.661,76.083 74.607,76.125 74.552,76.181 74.508,76.224 74.408,76.341 74.337,76.487 74.265,76.656 74.22,76.833 
			72.655,82.751 72.619,82.93 72.583,83.092 72.566,83.271 72.556,83.44 72.556,83.612 72.583,83.774 72.593,83.937 72.628,84.099 
			72.665,84.261 72.708,84.414 		"/>
		<polygon fill-rule="evenodd" clip-rule="evenodd" stroke="#000000" stroke-width="0.1596" stroke-miterlimit="2.6131" points="
			75.011,63.774 75.083,63.784 75.156,63.791 75.228,63.812 75.299,63.848 75.354,63.883 75.406,63.92 75.461,63.965 75.515,64.01 
			75.606,64.144 75.678,64.287 75.74,64.442 75.785,64.619 77.431,70.552 77.467,70.714 77.485,70.895 77.512,71.064 77.512,71.234 
			77.512,71.396 77.503,71.567 77.476,71.73 77.449,71.892 77.404,72.047 77.358,72.198 77.294,72.341 77.233,72.503 77.161,72.628 
			77.089,72.774 77.009,72.908 76.917,73.023 76.82,73.148 76.721,73.268 76.613,73.376 76.504,73.475 76.395,73.562 76.28,73.663 
			76.163,73.745 76.037,73.815 75.919,73.879 75.785,73.943 75.659,73.994 75.524,74.032 75.406,74.067 75.271,74.096 
			75.146,74.103 75.011,74.103 74.877,74.103 74.759,74.096 74.624,74.067 74.508,74.032 74.373,73.994 74.255,73.943 74.14,73.879 
			74.013,73.815 73.896,73.745 73.779,73.663 73.653,73.562 73.546,73.475 73.446,73.376 73.348,73.268 73.241,73.148 
			73.158,73.023 73.06,72.908 72.979,72.774 72.907,72.628 72.835,72.503 72.771,72.341 72.708,72.198 72.665,72.047 72.628,71.892 
			72.593,71.73 72.583,71.567 72.556,71.396 72.556,71.234 72.566,71.064 72.583,70.895 72.619,70.714 72.655,70.552 74.22,64.619 
			74.265,64.442 74.337,64.287 74.408,64.144 74.508,64.01 74.552,63.965 74.607,63.92 74.661,63.883 74.723,63.848 74.787,63.812 
			74.858,63.791 74.93,63.784 75.011,63.774 		"/>
		<path fill-rule="evenodd" clip-rule="evenodd" stroke="#000000" stroke-width="0.1595" stroke-miterlimit="2.6131" d="
			M109.998,37.296l-19.471,4.341l-0.334,0.092l-0.315,0.141l-0.298,0.181l-0.26,0.223l-0.243,0.252l-0.196,0.28l-0.163,0.303
			l-0.118,0.334h17.17l5.331-1.232L109.998,37.296L109.998,37.296z M113.279,43.058l-1.688-7.461l-0.075-0.207L111.4,35.21
			l-0.153-0.153l-0.181-0.115l-0.205-0.073l-0.207-0.028l-0.216,0.028l-0.207,0.073l-0.179,0.106l-0.165,0.153l-0.105,0.188
			l-0.073,0.207l-0.028,0.207l0.028,0.216L90.237,40.29l-0.403,0.118l-0.389,0.153l-0.368,0.188l-0.351,0.226l-0.314,0.271
			l-0.297,0.294l-0.26,0.325l-0.218,0.348L87.45,42.59l-0.144,0.386l-0.108,0.404l-0.054,0.414l-0.019,0.414l0.028,0.417
			l0.071,0.411l0.109,0.402l0.153,0.39l0.197,0.367l0.234,0.343l0.26,0.322l0.307,0.287l0.323,0.251l0.352,0.224l0.377,0.181
			l0.386,0.143l0.406,0.099l0.413,0.063l0.424,0.009l0.413-0.028l0.405-0.07l19.41-4.539l0.071,0.207l0.117,0.188l0.153,0.153
			l0.176,0.115l0.209,0.073l0.215,0.019l0.216-0.019l0.207-0.073l0.181-0.115l0.153-0.153l0.117-0.181l0.071-0.205l0.027-0.216
			L113.279,43.058L113.279,43.058z"/>
		<polygon fill-rule="evenodd" clip-rule="evenodd" stroke="#000000" stroke-width="0.1596" stroke-miterlimit="2.6131" points="
			114.026,46.949 114.098,46.949 114.18,46.959 114.233,46.987 114.304,47.02 114.367,47.058 114.432,47.103 114.474,47.156 
			114.521,47.208 114.619,47.328 114.692,47.469 114.753,47.631 114.81,47.784 116.383,53.771 116.428,53.943 116.453,54.103 
			116.473,54.274 116.491,54.446 116.491,54.608 116.473,54.771 116.463,54.931 116.438,55.086 116.393,55.229 116.354,55.389 
			116.294,55.533 116.239,55.676 116.167,55.819 116.096,55.946 116.007,56.083 115.925,56.2 115.835,56.325 115.734,56.44 
			115.628,56.548 115.518,56.649 115.409,56.736 115.297,56.828 115.17,56.908 115.052,56.979 114.935,57.052 114.803,57.115 
			114.666,57.162 114.549,57.195 114.412,57.233 114.288,57.259 114.153,57.268 114.026,57.277 113.891,57.268 113.756,57.259 
			113.632,57.233 113.495,57.195 113.378,57.162 113.243,57.115 113.107,57.052 112.992,56.979 112.874,56.908 112.747,56.828 
			112.63,56.736 112.524,56.649 112.418,56.548 112.311,56.44 112.216,56.325 112.119,56.2 112.04,56.083 111.948,55.946 
			111.875,55.819 111.807,55.676 111.75,55.533 111.689,55.389 111.643,55.229 111.607,55.086 111.581,54.931 111.553,54.771 
			111.553,54.608 111.553,54.446 111.571,54.274 111.591,54.103 111.616,53.943 111.661,53.771 113.236,47.784 113.288,47.631 
			113.352,47.469 113.425,47.328 113.523,47.208 113.57,47.156 113.613,47.103 113.677,47.058 113.74,47.02 113.811,46.987 
			113.862,46.959 113.956,46.949 114.026,46.949 		"/>
		<polygon fill-rule="evenodd" clip-rule="evenodd" stroke="#000000" stroke-width="0.1595" stroke-miterlimit="2.6131" points="
			114.026,62.958 114.098,62.968 114.18,62.975 114.233,62.994 114.304,63.02 114.367,63.046 114.432,63.095 114.474,63.147 
			114.521,63.189 114.619,63.326 114.692,63.469 114.753,63.622 114.81,63.8 116.383,69.717 116.428,69.896 116.453,70.074 
			116.473,70.246 116.491,70.411 116.491,70.58 116.473,70.751 116.463,70.912 116.438,71.064 116.393,71.229 116.354,71.377 
			116.294,71.523 116.239,71.667 116.167,71.812 116.096,71.956 116.007,72.09 115.925,72.207 115.835,72.325 115.734,72.449 
			115.628,72.558 115.518,72.647 115.409,72.743 115.297,72.845 115.17,72.927 115.052,72.998 114.935,73.061 114.803,73.115 
			114.666,73.167 114.549,73.214 114.412,73.249 114.288,73.277 114.153,73.284 114.026,73.284 113.891,73.284 113.756,73.277 
			113.632,73.249 113.495,73.214 113.378,73.167 113.243,73.115 113.107,73.061 112.992,72.998 112.874,72.927 112.747,72.845 
			112.63,72.743 112.524,72.647 112.418,72.558 112.311,72.449 112.216,72.325 112.119,72.207 112.04,72.09 111.948,71.956 
			111.875,71.812 111.807,71.667 111.75,71.523 111.689,71.377 111.643,71.229 111.607,71.064 111.581,70.912 111.553,70.751 
			111.553,70.58 111.553,70.411 111.571,70.246 111.591,70.074 111.616,69.896 111.661,69.717 113.236,63.8 113.288,63.622 
			113.352,63.469 113.425,63.326 113.523,63.189 113.57,63.147 113.613,63.095 113.677,63.046 113.74,63.02 113.811,62.994 
			113.862,62.975 113.956,62.968 114.026,62.958 		"/>
		<polygon fill-rule="evenodd" clip-rule="evenodd" stroke="#000000" stroke-width="0.1595" stroke-miterlimit="2.6131" points="
			117.3,77.545 117.191,77.437 117.084,77.303 116.994,77.186 116.896,77.051 116.815,76.927 116.727,76.791 116.653,76.647 
			116.6,76.501 116.536,76.351 116.473,76.188 116.438,76.036 116.401,75.883 116.364,75.723 116.348,75.558 116.326,75.389 
			116.326,75.217 116.354,75.156 116.266,75.198 116.014,75.328 115.753,75.452 115.564,75.514 115.349,75.605 114.972,75.704 
			114.629,75.765 114.269,75.803 114.026,75.803 113.775,75.803 113.415,75.765 113.072,75.704 112.695,75.605 112.479,75.514 
			112.291,75.452 112.028,75.328 111.778,75.198 111.501,75.039 111.247,74.857 111.015,74.669 110.853,74.535 110.689,74.382 
			110.429,74.131 110.25,73.896 110.104,73.717 109.944,73.484 109.756,73.195 109.629,72.936 109.521,72.72 109.423,72.494 
			109.314,72.233 109.206,71.883 109.136,71.542 109.089,71.281 109.053,71.029 102.542,69.95 102.297,69.886 102.058,69.834 
			101.931,69.804 101.804,69.78 101.686,69.771 101.578,69.771 84.896,69.771 84.743,69.771 84.59,69.78 84.42,69.804 
			84.266,69.834 84.123,69.87 83.96,69.915 83.815,69.959 83.672,70.022 83.528,70.084 83.403,70.157 83.268,70.237 83.142,70.312 
			83.008,70.411 82.89,70.498 82.782,70.599 82.656,70.705 82.567,70.815 82.458,70.93 82.36,71.057 82.279,71.172 82.188,71.309 
			82.107,71.434 82.045,71.575 81.973,71.711 81.919,71.854 81.864,72.007 81.829,72.151 81.792,72.315 81.757,72.466 
			81.749,72.621 81.738,72.774 81.721,72.943 81.738,73.115 81.749,73.268 81.757,73.418 81.792,73.581 81.829,73.733 
			81.864,73.879 81.919,74.032 81.973,74.173 82.045,74.307 82.107,74.453 82.188,74.587 82.279,74.716 82.36,74.841 82.458,74.956 
			82.567,75.074 82.656,75.182 82.782,75.29 82.89,75.389 83.008,75.488 83.142,75.577 83.268,75.667 83.403,75.742 83.528,75.81 
			83.672,75.866 83.815,75.927 83.96,75.972 84.123,76.026 84.266,76.063 84.42,76.083 84.59,76.106 84.743,76.115 84.896,76.115 
			100.922,76.115 111.823,83.737 112.056,83.92 112.254,84.089 112.451,84.261 112.616,84.414 112.757,84.564 112.894,84.71 
			113.001,84.873 113.101,85.016 113.18,85.159 113.243,85.303 113.288,85.456 113.326,85.599 113.352,85.743 113.352,85.886 
			113.352,86.041 113.335,86.201 113.316,86.31 113.288,86.398 113.265,86.507 113.228,86.615 113.18,86.723 113.136,86.82 
			113.072,86.921 113.011,87.01 112.954,87.109 112.884,87.191 112.822,87.262 112.74,87.334 112.668,87.396 112.597,87.443 
			112.508,87.495 112.435,87.513 106.977,88.475 106.697,88.539 106.436,88.59 106.168,88.682 105.914,88.764 105.662,88.87 
			105.411,88.988 105.176,89.115 104.95,89.258 104.72,89.399 104.503,89.562 104.287,89.733 104.099,89.912 103.91,90.103 
			103.713,90.3 103.548,90.495 103.379,90.714 103.224,90.937 103.083,91.172 102.946,91.396 102.81,91.647 102.702,91.892 
			102.596,92.144 102.516,92.404 102.434,92.663 102.372,92.934 102.325,93.204 102.29,93.484 102.253,93.761 102.236,94.032 
			102.253,94.319 102.262,94.603 102.297,94.893 102.297,94.984 102.297,95.073 102.325,95.161 102.363,95.243 102.396,95.323 
			102.443,95.398 102.485,95.469 102.542,95.532 102.596,95.593 102.657,95.638 102.729,95.683 102.801,95.737 102.876,95.772 
			102.946,95.793 103.02,95.819 103.1,95.845 103.172,95.845 103.262,95.854 103.297,95.845 103.407,95.826 103.567,95.812 
			103.81,95.772 104.124,95.72 104.493,95.647 104.95,95.574 105.475,95.494 106.086,95.389 106.77,95.271 107.551,95.137 
			108.397,94.994 109.34,94.822 110.372,94.643 111.516,94.453 112.74,94.239 113.039,94.175 113.358,94.093 113.702,93.992 
			114.081,93.886 114.459,93.771 114.873,93.634 115.285,93.484 115.708,93.329 116.608,92.978 117.517,92.593 118.452,92.188 
			119.396,91.765 120.319,91.351 121.231,90.928 122.093,90.525 122.911,90.14 123.668,89.778 124.333,89.456 124.909,89.185 
			125.366,88.964 125.408,88.945 141.944,81.289 134.262,67.972 127.129,72.047 127.04,72.08 126.826,72.207 126.509,72.36 
			126.085,72.548 125.864,72.647 125.62,72.736 125.361,72.835 125.107,72.936 124.837,73.014 124.575,73.087 124.314,73.134 
			124.065,73.186 123.894,73.223 123.703,73.24 123.489,73.258 123.254,73.258 123.021,73.24 122.77,73.23 122.516,73.204 
			122.264,73.186 122.445,73.599 122.554,73.778 122.643,73.978 122.732,74.166 122.803,74.373 122.85,74.573 122.895,74.785 
			122.92,75.001 122.92,75.217 122.92,75.389 122.911,75.558 122.885,75.723 122.859,75.883 122.821,76.036 122.776,76.188 
			122.713,76.351 122.661,76.501 122.596,76.647 122.525,76.791 122.445,76.927 122.355,77.051 122.264,77.186 122.165,77.303 
			122.058,77.437 121.951,77.545 121.834,77.653 121.716,77.762 121.589,77.858 121.465,77.95 121.33,78.042 121.185,78.121 
			121.051,78.194 120.897,78.265 120.755,78.328 120.602,78.373 120.439,78.417 120.286,78.453 120.134,78.479 119.962,78.509 
			119.793,78.517 119.628,78.517 119.459,78.517 119.285,78.509 119.134,78.479 118.965,78.453 118.81,78.417 118.659,78.373 
			118.497,78.328 118.354,78.265 118.208,78.194 118.062,78.121 117.921,78.042 117.794,77.95 117.66,77.858 117.545,77.762 
			117.427,77.653 117.3,77.545 		"/>
		<polygon fill-rule="evenodd" clip-rule="evenodd" stroke="#000000" stroke-width="0.1596" stroke-miterlimit="2.6131" points="
			94.257,85.42 94.195,85.319 94.141,85.232 94.079,85.122 94.042,85.023 93.961,84.809 93.908,84.593 93.872,84.379 93.862,84.15 
			93.872,83.937 93.908,83.72 93.961,83.506 94.033,83.297 94.124,83.092 94.231,82.904 94.366,82.711 94.51,82.542 94.681,82.389 
			94.86,82.246 95.76,81.644 103.621,79.532 105.176,80.567 97.432,86.022 97.334,86.074 97.244,86.138 97.145,86.201 
			97.037,86.246 96.821,86.319 96.605,86.363 96.389,86.398 96.173,86.417 95.958,86.398 95.733,86.363 95.526,86.319 
			95.311,86.246 95.112,86.147 94.915,86.041 94.735,85.914 94.555,85.771 94.402,85.599 94.257,85.42 		"/>
		<polygon fill-rule="evenodd" clip-rule="evenodd" stroke="#000000" stroke-width="0.1595" stroke-miterlimit="2.6131" points="
			102.415,78.695 100.445,77.376 88.808,77.376 88.628,77.484 88.466,77.609 88.312,77.752 88.178,77.896 88.053,78.051 
			87.943,78.201 87.846,78.382 87.765,78.561 87.693,78.742 87.647,78.939 87.594,79.128 87.585,79.334 87.576,79.532 
			87.585,79.739 87.622,79.946 87.665,80.144 87.729,80.376 87.818,80.593 87.927,80.791 88.053,80.99 88.196,81.169 88.349,81.322 
			88.529,81.465 88.709,81.599 88.916,81.708 89.113,81.787 89.33,81.86 89.545,81.905 89.78,81.942 90.013,81.942 90.121,81.931 
			90.247,81.924 90.363,81.905 90.479,81.889 102.415,78.695 		"/>
	</g>
</g>
</svg>
