<?xml version="1.0" encoding="utf-8"?>
<!-- Generator: Adobe Illustrator 16.0.0, SVG Export Plug-In . SVG Version: 6.00 Build 0)  -->
<!DOCTYPE svg PUBLIC "-//W3C//DTD SVG 1.1//EN" "http://www.w3.org/Graphics/SVG/1.1/DTD/svg11.dtd">
<svg version="1.1" id="Layer_1" xmlns="http://www.w3.org/2000/svg" xmlns:xlink="http://www.w3.org/1999/xlink" x="0px" y="0px"
	 width="200px" height="200px" viewBox="0 -25 200 200" enable-background="new 0 -25 200 200" xml:space="preserve">
<g>
	<polyline fill="#ED1C24" points="100,-19.999 5,74.997 100,169.999 195,74.997 	"/>
	<polygon fill="none" stroke="#ED1C24" stroke-width="2.2893" points="100,-19.999 5,74.997 100,169.999 195,74.997 	"/>
	
		<rect x="39.053" y="14.151" transform="matrix(0.7071 -0.7071 0.7071 0.7071 -23.7832 92.6342)" fill="none" stroke="#1B181B" stroke-width="2.1621" width="121.748" height="121.75"/>
	<polyline fill="#1B181B" points="59.515,79.764 66.093,79.764 66.093,81.712 61.889,81.712 61.889,84.479 65.843,84.479 
		65.843,86.424 61.889,86.424 61.889,91.531 59.515,91.531 	"/>
	<polyline fill="#1B181B" points="67.148,91.531 67.148,79.764 69.522,79.764 69.522,89.586 73.724,89.586 73.724,91.531 	"/>
	<path fill="#1B181B" d="M77.069,79.764h2.937l3.11,11.768h-2.469L80.1,89.045h-3.13l-0.542,2.486h-2.473 M77.382,87.097h2.311
		l-1.138-5.291H78.52L77.382,87.097z"/>
	<polyline fill="#1B181B" points="83.993,79.764 87.517,79.764 89.202,88.071 89.236,88.071 90.93,79.764 94.443,79.764 
		94.443,91.531 92.267,91.531 92.267,82.139 92.232,82.139 90.141,91.531 88.292,91.531 86.201,82.139 86.166,82.139 86.166,91.531 
		83.993,91.531 	"/>
	<polyline fill="#1B181B" points="96.189,79.764 99.719,79.764 101.396,88.071 101.434,88.071 103.127,79.764 106.639,79.764 
		106.639,91.531 104.463,91.531 104.463,82.139 104.432,82.139 102.338,91.531 100.489,91.531 98.397,82.139 98.363,82.139 
		98.363,91.531 96.189,91.531 	"/>
	<path fill="#1B181B" d="M110.629,79.764h2.934l3.111,11.768h-2.469l-0.543-2.486h-3.133l-0.547,2.486h-2.469 M110.939,87.097h2.311
		l-1.141-5.291h-0.029L110.939,87.097z"/>
	<path fill="#1B181B" d="M117.502,79.764h3.973c1.943,0,3.342,0.726,3.342,2.983c0,1.27-0.605,2.241-1.777,2.571v0.03
		c1.301,0.184,2.141,1.172,2.141,2.737c0,1.848-0.904,3.445-3.674,3.445h-4.004 M119.875,84.593h0.674
		c1.303,0,1.896-0.441,1.896-1.55c0-1.118-0.545-1.535-1.711-1.535h-0.859V84.593z M119.875,89.785h0.92
		c1.141,0,1.916-0.413,1.916-1.779c0-1.368-0.775-1.766-1.812-1.766h-1.023V89.785z"/>
	<polyline fill="#1B181B" points="126.666,91.531 126.666,79.764 129.037,79.764 129.037,89.586 133.242,89.586 133.242,91.531 	"/>
	<polyline fill="#1B181B" points="140.873,79.764 140.873,81.712 136.672,81.712 136.672,84.479 140.625,84.479 140.625,86.424 
		136.672,86.424 136.672,89.586 141.035,89.586 141.035,91.531 134.297,91.531 134.297,79.764 	"/>
	<polyline fill="#1B181B" points="79.057,110.074 79.057,98.305 81.429,98.305 81.429,108.132 85.634,108.132 85.634,110.074 	"/>
	<line fill="none" stroke="#1B181B" stroke-width="2.3732" x1="87.989" y1="110.074" x2="87.989" y2="98.305"/>
	<path fill="#1B181B" d="M97.665,111.525l-1.401-1.451c-0.216,0.085-0.459,0.149-0.725,0.184c-0.246,0.03-0.527,0.048-0.84,0.048
		c-3.56,0-4.007-2.539-4.007-6.113c0-3.577,0.447-6.116,4.007-6.116s4.004,2.539,4.004,6.116c0,1.992-0.132,3.656-0.906,4.779
		l1.267,1.286 M94.699,108.559c1.398,0,1.632-1.202,1.632-4.366c0-3.15-0.233-4.369-1.632-4.369c-1.401,0-1.632,1.219-1.632,4.369
		C93.067,107.356,93.297,108.559,94.699,108.559"/>
	<path fill="#1B181B" d="M102.33,98.305v8.208c0,1.172,0.279,2.046,1.383,2.046s1.387-0.874,1.387-2.046v-8.208h2.375v8.208
		c0,3-1.834,3.793-3.762,3.793s-3.755-0.644-3.755-3.793v-8.208"/>
	<line fill="none" stroke="#1B181B" stroke-width="2.3732" x1="110.271" y1="110.074" x2="110.271" y2="98.305"/>
	<path fill="#1B181B" d="M113.338,98.305h3.893c3.295,0,3.891,2.259,3.891,5.721c0,4.171-0.893,6.049-4.041,6.049h-3.742
		 M115.711,108.325h1.057c1.648,0,1.979-1.038,1.979-4.232c0-2.668-0.217-4.039-2.031-4.039h-1.004V108.325z"/>
	<path fill="#1B181B" d="M98.696,147.871c0.032,1.352,0.263,2.092,1.301,2.092c1.154,0,1.302-0.857,1.302-1.878
		c0-1.038-0.23-1.995-1.533-1.995h-0.793v-1.55h0.775c0.988,0,1.351-0.89,1.351-1.846c0-1.088-0.363-1.532-1.137-1.532
		c-1.021,0-1.202,0.792-1.202,1.895h-2.176c0-2.29,1.222-3.447,3.428-3.447c2.111,0,3.363,0.943,3.363,3.001
		c0,1.4-0.676,2.324-1.781,2.573v0.029c1.5,0.233,2.08,1.287,2.08,2.753c0,1.567-0.646,3.547-3.875,3.547
		c-2.258,0-3.381-1.369-3.381-3.595v-0.047"/>
	<path fill-rule="evenodd" clip-rule="evenodd" d="M71.289,63.71v5.771h57.42V63.71H71.289L71.289,63.71z M79.996,45.986
		c0,4.717,2.621,9.074,5.713,11.327c3.935,2.937,8.338,2.203,8.55,2.203l1.098-0.211l-0.89-0.681
		c-6.083-4.982-7.342-11.854-7.604-14.895c0.681,0.733,1.364,1.208,1.414,1.258l0.84,0.526l-0.05-0.996
		c-0.055-0.264-0.055-0.524-0.055-0.788c0-3.04,0.788-4.982,1.471-6.083c0.104,6.712,4.248,11.697,4.457,11.906l0.839-0.524
		c-0.631-1.679-0.839-3.41-0.839-5.09c0-2.305,0.417-4.404,0.892-5.872c0.681,2.938,2.62,5.611,2.728,5.768l0.576,0.84l0.315-0.996
		c1.1-3.671,1.362-8.443,1.362-12.271c0-2.097-0.105-3.933-0.16-5.088c3.779,3.778,4.67,8.234,4.67,11.483
		c0,2.571-0.525,4.354-0.576,4.407l-0.525,1.836l1.365-1.312c1.518-1.363,2.777-3.986,3.457-5.663
		c0.213,1.103,0.369,2.203,0.369,3.145c0,2.467-0.521,4.248-0.521,4.303l-0.369,1.204l1.102-0.628
		c0.787-0.472,1.467-0.944,1.939-1.364c-0.893,10.175-10.33,14.735-10.436,14.788l-1.676,0.787l1.833,0.211
		c15.889,1.518,19.088-9.441,19.719-14.213c0.576-3.982-0.996-7.025-1.104-6.556l-0.102,1.366c-0.264,0.996-1.207,1.731-1.836,2.148
		c-0.104-0.521-0.104-1.048-0.104-1.627c0-1.888,0.312-3.828,0.312-3.828c0.631-2.936,0.84-5.293,0.84-7.184
		c0-5.82-2.203-7.34-2.359-7.393l-0.631-0.472l-0.105,0.785c0,2.779-1.836,3.828-1.836,3.828
		c-0.367-10.749-5.715-15.419-5.979-15.729c-0.312-0.263-0.941-0.578-0.941-0.578l0.156,1.048c0.209,1.891-0.26,3.619-0.576,3.935
		c-0.631-3.935-1.049-5.452-4.248-8.286c-2.935-2.673-3.879-8.757-3.879-8.757L98.035-0.79c-1.522,3.043-1.783,6.659-1.733,7.708
		c0.106,2.047-0.418,4.456-0.733,5.875c-1.521-2.204-3.932-4.616-4.036-4.72l-0.999-0.996L90.64,8.44
		c0.261,2.829,0.364,5.241,0.364,7.236c0,4.98-0.625,7.554-1.1,8.756c-0.996-1.833-3.46-4.195-4.037-4.77l-0.999-0.894l0.107,1.363
		c0.052,0.367,0.052,0.787,0.052,1.155c0,3.196-0.208,4.615-0.999,6.607c-1.048,2.568-0.733,6.083-0.733,6.239
		c-1.205-1.207-2.934-2.096-3.197-2.2l-1.153-0.581l0.417,1.209C80.309,35.079,79.996,41.321,79.996,45.986L79.996,45.986z"/>
</g>
</svg>
