<?xml version="1.0" encoding="utf-8"?>
<!-- Generator: Adobe Illustrator 16.0.0, SVG Export Plug-In . SVG Version: 6.00 Build 0)  -->
<!DOCTYPE svg PUBLIC "-//W3C//DTD SVG 1.1//EN" "http://www.w3.org/Graphics/SVG/1.1/DTD/svg11.dtd">
<svg version="1.1" id="Layer_1" xmlns="http://www.w3.org/2000/svg" xmlns:xlink="http://www.w3.org/1999/xlink" x="0px" y="0px"
	 width="200px" height="200px" viewBox="0 0 200 200" enable-background="new 0 0 200 200" xml:space="preserve">
<g>
	<path fill="#FFFFFF" d="M78.884,53.893c-2.49,0-4.573-1.762-5.101-4.119l-0.04-0.219c-2.581-11.913-13.182-20.838-25.868-20.838
		c-14.617,0-26.466,11.849-26.466,26.467c0,14.616,11.849,26.466,26.466,26.466c12.317,0,22.669-8.415,25.623-19.808l0.047-0.233
		c0.64-2.205,2.673-3.815,5.083-3.815h11.063c2.923,0,5.294,2.37,5.294,5.292v114.372c0,4.078-3.335,7.413-7.411,7.413H12.41
		c-4.076,0-7.41-3.335-7.41-7.413V22.895c0-4.077,3.334-7.411,7.41-7.411h75.165c4.076,0,7.411,3.334,7.411,7.411V48.6
		c0,2.923-2.342,5.293-5.229,5.293"/>
	<path fill="none" stroke="#1C181B" d="M78.884,53.893c-2.49,0-4.573-1.762-5.101-4.119l-0.04-0.219
		c-2.581-11.913-13.182-20.838-25.868-20.838c-14.617,0-26.466,11.849-26.466,26.467c0,14.616,11.849,26.466,26.466,26.466
		c12.317,0,22.669-8.415,25.623-19.808l0.047-0.233c0.64-2.205,2.673-3.815,5.083-3.815h11.063c2.923,0,5.294,2.37,5.294,5.292
		v114.372c0,4.078-3.335,7.413-7.411,7.413H12.41c-4.076,0-7.41-3.335-7.41-7.413V22.895c0-4.077,3.334-7.411,7.41-7.411h75.165
		c4.076,0,7.411,3.334,7.411,7.411V48.6c0,2.923-2.342,5.293-5.229,5.293H78.884z"/>
	<path fill="#ED1C24" d="M34.828,91.305c-0.037-1.509-0.092-3.024-0.165-4.546c0.317,0.045,0.664,0.083,1.037,0.116
		c0.375,0.032,0.795,0.05,1.262,0.05c0.617,0,1.308-0.028,2.075-0.083c0.767-0.055,1.767-0.083,3.001-0.083
		c1.606,0,3.07,0.182,4.388,0.545c1.318,0.362,2.454,0.977,3.407,1.843s1.691,2.031,2.215,3.493
		c0.523,1.463,0.785,3.306,0.785,5.528c0,1.943-0.257,3.699-0.771,5.267c-0.514,1.568-1.215,2.909-2.104,4.021
		c-0.888,1.111-1.916,1.959-3.084,2.544c-1.168,0.586-2.417,0.878-3.744,0.878c-1.402,0-2.599-0.013-3.589-0.041
		c-0.991-0.027-1.851-0.041-2.58-0.041H35.7c-0.374,0-0.72,0.028-1.037,0.082c0.073-1.451,0.128-2.932,0.165-4.44
		c0.037-1.51,0.055-3.235,0.055-5.179v-4.774C34.883,94.541,34.864,92.815,34.828,91.305 M39.04,103.813v2.106
		c0,0.679,0.004,1.298,0.014,1.858c0.009,0.563,0.014,0.925,0.014,1.089c0.28,0.025,0.616,0.049,1.009,0.074
		c0.392,0.023,0.878,0.036,1.457,0.036c2.111,0,3.785-0.901,5.018-2.703c1.232-1.802,1.849-4.527,1.849-8.179
		c0-1.451-0.154-2.749-0.462-3.896c-0.309-1.147-0.744-2.124-1.304-2.933c-0.56-0.807-1.233-1.427-2.018-1.859
		s-1.663-0.649-2.635-0.649c-0.672,0-1.22,0.018-1.64,0.053s-0.846,0.076-1.275,0.122c0,0.164-0.006,0.527-0.018,1.089
		c-0.013,0.562-0.018,1.192-0.018,1.895l0.007,2.106v8V103.813z"/>
	<path fill="#ED1C24" d="M54.896,98.794c0.382-1.169,0.892-2.146,1.528-2.929c0.635-0.783,1.369-1.368,2.201-1.755
		c0.832-0.386,1.687-0.578,2.565-0.578c2.187,0,3.878,0.771,5.075,2.315c1.197,1.543,1.795,3.637,1.795,6.279
		c0,1.426-0.168,2.713-0.505,3.858c-0.336,1.146-0.809,2.122-1.416,2.929c-0.608,0.808-1.332,1.41-2.174,1.808
		c-0.841,0.397-1.765,0.596-2.775,0.596c-0.842,0-1.669-0.14-2.481-0.421c-0.813-0.28-1.547-0.753-2.201-1.42
		s-1.183-1.538-1.584-2.613c-0.402-1.077-0.603-2.398-0.603-3.965S54.511,99.964,54.896,98.794 M63.287,96.827
		c-0.411-1.132-1.091-1.698-2.041-1.698c-0.858,0-1.534,0.631-2.027,1.891c-0.495,1.26-0.741,3.232-0.741,5.916
		c0,0.979,0.046,1.89,0.14,2.73c0.092,0.839,0.247,1.569,0.461,2.187c0.214,0.62,0.494,1.104,0.839,1.453
		c0.344,0.351,0.777,0.526,1.3,0.526c1.789,0,2.684-2.743,2.684-8.227C63.902,99.552,63.697,97.958,63.287,96.827"/>
	<path fill="#ED1C24" d="M36.719,127.852c0.524-0.982,1.137-1.743,1.839-2.281c0.701-0.539,1.501-0.809,2.4-0.809
		c1.403,0,2.484,0.51,3.242,1.528c0.758,1.018,1.138,2.663,1.138,4.933c0,1.194-0.019,2.247-0.056,3.16s-0.055,1.826-0.055,2.739
		c0,0.749,0.014,1.562,0.042,2.439c0.027,0.878,0.059,1.728,0.096,2.547c-0.243-0.056-0.552-0.083-0.927-0.083h-2.359
		c-0.374,0-0.684,0.027-0.926,0.083c0.127-1.219,0.21-2.651,0.247-4.304c0.037-1.65,0.056-3.542,0.056-5.674
		c0-1.475-0.201-2.558-0.603-3.248c-0.402-0.692-0.967-1.037-1.695-1.037c-0.84,0-1.457,0.457-1.849,1.37
		c-0.393,0.914-0.589,2.178-0.589,3.794v1.405c0,1.428,0.014,2.775,0.042,4.039c0.028,1.266,0.089,2.482,0.183,3.654
		c-0.244-0.056-0.549-0.083-0.913-0.083h-2.376c-0.356,0-0.665,0.027-0.927,0.083c0.091-1.171,0.151-2.389,0.179-3.652
		c0.027-1.264,0.041-2.609,0.041-4.038v-1.404c0-1.428-0.014-2.769-0.041-4.02c-0.028-1.253-0.088-2.512-0.179-3.775
		c0.337,0.047,0.67,0.088,0.998,0.123c0.328,0.035,0.661,0.053,0.998,0.053c0.336,0,0.669-0.018,0.998-0.053
		c0.328-0.035,0.678-0.076,1.053-0.123l-0.111,2.633"/>
	<path fill="#ED1C24" d="M47.523,130.025c0.382-1.171,0.892-2.146,1.527-2.931c0.636-0.783,1.37-1.368,2.201-1.754
		c0.833-0.385,1.687-0.579,2.565-0.579c2.188,0,3.879,0.772,5.076,2.315c1.195,1.544,1.794,3.638,1.794,6.279
		c0,1.428-0.168,2.714-0.505,3.859c-0.335,1.146-0.808,2.122-1.416,2.929c-0.607,0.808-1.332,1.41-2.172,1.808
		c-0.842,0.396-1.767,0.597-2.776,0.597c-0.841,0-1.667-0.141-2.481-0.422c-0.813-0.28-1.547-0.753-2.2-1.421
		c-0.655-0.666-1.183-1.537-1.584-2.612c-0.402-1.076-0.604-2.397-0.604-3.965S47.14,131.193,47.523,130.025 M55.915,128.058
		c-0.411-1.133-1.091-1.698-2.041-1.698c-0.858,0-1.533,0.63-2.028,1.89c-0.493,1.262-0.741,3.232-0.741,5.916
		c0,0.98,0.046,1.891,0.14,2.731c0.093,0.84,0.247,1.569,0.461,2.187c0.215,0.62,0.494,1.104,0.839,1.453
		c0.345,0.351,0.777,0.525,1.3,0.525c1.79,0,2.684-2.742,2.684-8.227C56.529,130.781,56.325,129.188,55.915,128.058"/>
	<path fill="#ED1C24" d="M69.587,126.342c0,0.304,0.028,0.596,0.084,0.876l-2.471-0.06c-0.037,0.537-0.069,1.155-0.097,1.856
		c-0.027,0.701-0.046,1.413-0.055,2.138c-0.01,0.725-0.019,1.426-0.027,2.103c-0.01,0.677-0.014,1.249-0.014,1.718
		c0,1.215,0.023,2.195,0.071,2.942c0.046,0.748,0.126,1.319,0.239,1.717c0.112,0.397,0.271,0.666,0.478,0.807
		c0.205,0.141,0.468,0.21,0.786,0.21c0.356,0,0.618-0.028,0.786-0.087c0.169-0.057,0.337-0.143,0.505-0.258v1.438
		c-0.374,0.21-0.842,0.397-1.404,0.561c-0.561,0.164-1.114,0.246-1.657,0.246c-2.383,0-3.574-1.778-3.574-5.333
		c0-0.677,0.009-1.443,0.027-2.297c0.019-0.854,0.042-1.729,0.069-2.63c0.027-0.901,0.051-1.789,0.069-2.667
		c0.019-0.876,0.028-1.688,0.028-2.438l-1.966,0.035c0.056-0.28,0.084-0.572,0.084-0.877c0-0.28-0.028-0.597-0.084-0.946
		l1.966,0.104c0-0.726-0.01-1.404-0.028-2.035c-0.018-0.632-0.046-1.393-0.082-2.282c0.657-0.327,1.303-0.673,1.941-1.034
		c0.637-0.363,1.275-0.744,1.913-1.141l0.28,0.245c-0.037,0.374-0.069,0.812-0.098,1.315c-0.028,0.504-0.056,1.03-0.084,1.58
		s-0.047,1.111-0.057,1.685c-0.009,0.572-0.013,1.116-0.013,1.631l2.471-0.068C69.615,125.746,69.587,126.062,69.587,126.342"/>
	<path fill="#ED1C24" d="M24.247,170.247c0.037,1.92,0.092,3.828,0.166,5.723c-0.244-0.046-0.554-0.069-0.928-0.069h-2.263
		c-0.346,0-0.614,0.023-0.801,0.069c0.019-0.046,0.037-0.197,0.056-0.456c0.02-0.256,0.042-0.549,0.07-0.877
		c0.029-0.328,0.051-0.632,0.071-0.913c0.019-0.28,0.028-0.455,0.028-0.525l-0.056-0.071c-0.355,1.054-0.842,1.865-1.458,2.439
		c-0.617,0.572-1.467,0.859-2.552,0.859c-0.953,0-1.766-0.229-2.438-0.685c-0.673-0.456-1.225-1.093-1.655-1.912
		c-0.43-0.818-0.747-1.777-0.953-2.877c-0.205-1.098-0.309-2.28-0.309-3.542c0-1.264,0.141-2.427,0.421-3.491
		c0.28-1.063,0.663-1.987,1.15-2.771c0.486-0.783,1.061-1.397,1.725-1.842c0.663-0.443,1.37-0.667,2.118-0.667
		c0.842,0,1.594,0.246,2.258,0.734c0.663,0.488,1.154,1.105,1.472,1.852h0.052c0-2.107-0.019-4.09-0.055-5.95
		c-0.037-1.862-0.092-3.787-0.165-5.776c0.243,0.053,0.552,0.098,0.926,0.136c0.375,0.037,0.767,0.058,1.18,0.058
		c0.412,0,0.805-0.021,1.18-0.058c0.373-0.038,0.684-0.083,0.927-0.136c-0.074,1.966-0.128,3.909-0.166,5.828
		c-0.037,1.92-0.055,4.026-0.055,6.32v2.281C24.192,166.222,24.21,168.329,24.247,170.247 M15.578,170.957
		c0.13,0.818,0.308,1.479,0.532,1.982c0.224,0.503,0.48,0.866,0.77,1.088s0.592,0.333,0.91,0.333c0.765,0,1.395-0.543,1.889-1.632
		c0.495-1.087,0.742-2.894,0.742-5.421c0-2.175-0.234-3.76-0.7-4.755c-0.466-0.992-1.063-1.491-1.792-1.491
		c-0.298,0-0.597,0.106-0.896,0.316c-0.298,0.212-0.569,0.58-0.812,1.104c-0.242,0.527-0.443,1.235-0.601,2.124
		c-0.159,0.889-0.238,2-0.238,3.333C15.382,169.133,15.447,170.139,15.578,170.957"/>
	<path fill="#ED1C24" d="M27.385,150.497c0.431-0.537,0.955-0.806,1.572-0.806c0.617,0,1.141,0.269,1.571,0.806
		s0.645,1.191,0.645,1.962s-0.215,1.425-0.645,1.961c-0.43,0.537-0.954,0.806-1.571,0.806c-0.617,0-1.141-0.269-1.572-0.806
		c-0.43-0.536-0.645-1.19-0.645-1.961S26.955,151.034,27.385,150.497 M27.029,162.873c-0.027-1.252-0.087-2.509-0.179-3.773
		c0.262,0.047,0.571,0.089,0.927,0.124s0.749,0.052,1.18,0.052c0.879,0,1.582-0.058,2.106-0.176
		c-0.092,1.265-0.152,2.521-0.179,3.773c-0.027,1.253-0.042,2.593-0.042,4.02v1.404c0,1.428,0.015,2.774,0.042,4.037
		c0.027,1.265,0.087,2.481,0.179,3.651c-0.243-0.056-0.548-0.083-0.913-0.083h-2.373c-0.356,0-0.665,0.027-0.927,0.083
		c0.092-1.17,0.152-2.387,0.179-3.651c0.027-1.263,0.041-2.609,0.041-4.037v-1.404C27.07,165.466,27.057,164.126,27.029,162.873"/>
	<path fill="#ED1C24" d="M34.406,172.718c0.177,0.339,0.396,0.644,0.658,0.912c0.262,0.27,0.574,0.487,0.938,0.65
		c0.364,0.163,0.789,0.245,1.275,0.245c0.653,0,1.158-0.21,1.513-0.631c0.354-0.421,0.532-0.877,0.532-1.368
		c0-0.538-0.159-0.97-0.477-1.297c-0.317-0.327-0.714-0.626-1.19-0.896c-0.477-0.268-0.994-0.542-1.555-0.823
		c-0.56-0.281-1.078-0.637-1.554-1.069c-0.477-0.433-0.873-0.976-1.19-1.631c-0.318-0.655-0.477-1.496-0.477-2.524
		c0-0.982,0.146-1.829,0.437-2.544c0.289-0.712,0.669-1.296,1.138-1.752c0.468-0.457,0.998-0.795,1.588-1.018
		c0.589-0.222,1.174-0.334,1.755-0.334c0.786,0,1.484,0.142,2.092,0.421c0.609,0.281,1.231,0.692,1.868,1.229
		c-0.168,0.469-0.309,0.973-0.421,1.511c-0.113,0.537-0.197,1.064-0.253,1.579h-0.786c-0.056-0.281-0.15-0.591-0.281-0.93
		c-0.131-0.339-0.31-0.663-0.534-0.966c-0.225-0.305-0.496-0.556-0.814-0.755c-0.318-0.198-0.702-0.299-1.151-0.299
		c-0.562,0-1.035,0.188-1.418,0.562c-0.384,0.374-0.576,0.866-0.576,1.474c0,0.561,0.163,1.012,0.49,1.351
		c0.327,0.339,0.733,0.637,1.218,0.895c0.484,0.257,1.017,0.515,1.596,0.771c0.579,0.258,1.111,0.59,1.596,0.999
		c0.485,0.41,0.891,0.941,1.218,1.598c0.327,0.654,0.49,1.496,0.49,2.524c0,1.029-0.15,1.913-0.449,2.649
		c-0.298,0.736-0.7,1.344-1.205,1.824c-0.505,0.479-1.079,0.824-1.724,1.034s-1.322,0.316-2.032,0.316
		c-0.841,0-1.598-0.153-2.271-0.457c-0.672-0.305-1.205-0.622-1.597-0.95c0.224-1.124,0.364-2.248,0.42-3.371h0.699
		C34.084,172.021,34.229,172.378,34.406,172.718"/>
	<path fill="#ED1C24" d="M50.911,160.219c0,0.304,0.028,0.596,0.084,0.876l-2.472-0.061c-0.037,0.538-0.069,1.156-0.096,1.857
		c-0.028,0.701-0.047,1.413-0.056,2.138c-0.01,0.725-0.019,1.426-0.027,2.103c-0.01,0.678-0.014,1.25-0.014,1.717
		c0,1.215,0.023,2.196,0.07,2.943c0.046,0.748,0.125,1.319,0.239,1.717c0.112,0.398,0.271,0.666,0.478,0.807
		c0.205,0.141,0.468,0.21,0.787,0.21c0.355,0,0.617-0.028,0.786-0.087c0.168-0.057,0.337-0.143,0.505-0.258v1.438
		c-0.374,0.21-0.842,0.397-1.404,0.561c-0.562,0.163-1.114,0.246-1.657,0.246c-2.383,0-3.575-1.777-3.575-5.332
		c0-0.678,0.009-1.444,0.027-2.298s0.042-1.729,0.068-2.63c0.028-0.901,0.051-1.789,0.07-2.667c0.018-0.875,0.027-1.688,0.027-2.438
		l-1.965,0.036c0.055-0.281,0.084-0.573,0.084-0.878c0-0.28-0.029-0.597-0.084-0.947l1.965,0.104c0-0.725-0.01-1.403-0.027-2.034
		c-0.019-0.632-0.046-1.393-0.083-2.282c0.656-0.327,1.303-0.672,1.94-1.034c0.638-0.363,1.275-0.743,1.913-1.142l0.281,0.246
		c-0.038,0.374-0.07,0.813-0.098,1.315c-0.028,0.504-0.057,1.03-0.084,1.58c-0.029,0.55-0.048,1.111-0.057,1.685
		c-0.01,0.573-0.014,1.117-0.014,1.632l2.472-0.07C50.938,159.623,50.911,159.939,50.911,160.219"/>
	<path fill="#ED1C24" d="M60.75,173.44c-0.524,0.983-1.138,1.727-1.839,2.23c-0.702,0.502-1.501,0.755-2.4,0.755
		c-1.403,0-2.484-0.492-3.242-1.475c-0.758-0.984-1.137-2.61-1.137-4.882c0-1.193,0.019-2.246,0.056-3.159
		c0.036-0.914,0.055-1.826,0.055-2.739c0-0.749-0.013-1.562-0.042-2.439c-0.027-0.879-0.059-1.762-0.096-2.651
		c0.244,0.052,0.552,0.097,0.927,0.135c0.374,0.038,0.767,0.058,1.179,0.058s0.805-0.02,1.179-0.058s0.684-0.083,0.927-0.135
		c-0.128,1.266-0.21,2.729-0.248,4.392c-0.037,1.664-0.055,3.562-0.055,5.692c0,1.477,0.201,2.561,0.603,3.251
		c0.402,0.691,0.968,1.037,1.697,1.037c0.84,0,1.458-0.456,1.85-1.37c0.394-0.915,0.59-2.179,0.59-3.795v-1.406
		c0-1.429-0.014-2.77-0.042-4.023c-0.029-1.253-0.09-2.512-0.183-3.777c0.523,0.128,1.226,0.192,2.106,0.192
		c0.43,0,0.824-0.02,1.18-0.058c0.355-0.038,0.665-0.083,0.927-0.135c-0.092,1.264-0.151,2.521-0.179,3.774
		c-0.028,1.252-0.042,2.593-0.042,4.021v1.404c0,1.428,0.014,2.773,0.042,4.036c0.027,1.265,0.086,2.482,0.179,3.652
		c-0.337-0.047-0.67-0.07-0.998-0.07h-1.996c-0.328,0-0.679,0.023-1.054,0.07l0.11-2.528"/>
	<path fill="#ED1C24" d="M70.925,163.453c0.484-1.614,1.073-2.803,1.766-3.563c0.692-0.759,1.516-1.141,2.471-1.141
		c0.095,0,0.174,0.006,0.239,0.015c0.066,0.009,0.137,0.013,0.211,0.013c-0.056,0.354-0.098,0.729-0.127,1.128
		c-0.027,0.399-0.042,0.87-0.042,1.411v1.728c0,0.21,0.01,0.41,0.029,0.598l-0.254,0.281c-0.187-0.141-0.397-0.257-0.632-0.352
		c-0.233-0.093-0.5-0.14-0.799-0.14c-0.843,0-1.508,0.344-1.994,1.034c-0.487,0.69-0.73,1.502-0.73,2.437v1.402
		c0,1.428,0.014,2.771,0.041,4.034c0.029,1.263,0.09,2.478,0.184,3.647c-0.243-0.056-0.546-0.083-0.909-0.083h-2.359
		c-0.353,0-0.661,0.027-0.921,0.083c0.092-1.17,0.151-2.387,0.179-3.651c0.028-1.263,0.041-2.608,0.041-4.037v-1.404
		c0-1.427-0.013-2.767-0.041-4.018c-0.028-1.253-0.087-2.511-0.179-3.773c0.317,0.046,0.638,0.087,0.964,0.122
		c0.326,0.035,0.647,0.053,0.963,0.053c0.316,0,0.638-0.018,0.964-0.053c0.326-0.035,0.647-0.076,0.964-0.122l-0.084,4.282"/>
	<path fill="#ED1C24" d="M77.124,155.326c-0.037-1.919-0.092-3.862-0.164-5.828c0.243,0.053,0.553,0.098,0.927,0.136
		c0.374,0.037,0.768,0.058,1.179,0.058c0.412,0,0.806-0.021,1.179-0.058c0.376-0.038,0.686-0.083,0.928-0.136
		c-0.073,1.966-0.129,3.909-0.165,5.828c-0.036,1.92-0.055,4.026-0.055,6.319h0.057c0.316-0.979,0.807-1.725,1.471-2.237
		c0.663-0.513,1.416-0.77,2.257-0.77c0.804,0,1.538,0.224,2.201,0.667c0.663,0.444,1.233,1.041,1.71,1.79
		c0.477,0.748,0.847,1.631,1.107,2.648c0.262,1.017,0.393,2.111,0.393,3.279c0,1.755-0.191,3.233-0.574,4.438
		c-0.384,1.204-0.88,2.18-1.487,2.93c-0.609,0.747-1.287,1.273-2.034,1.577c-0.75,0.304-1.488,0.457-2.218,0.457
		c-0.898,0-1.655-0.217-2.273-0.649c-0.616-0.433-1.122-1.001-1.514-1.703c-0.395,0.281-0.791,0.608-1.193,0.983
		s-0.809,0.725-1.221,1.053H76.96c0.072-1.965,0.127-3.915,0.164-5.846c0.037-1.93,0.056-4.042,0.056-6.337v-2.281
		C77.18,159.353,77.161,157.245,77.124,155.326 M81.05,170.559c0.065,0.888,0.186,1.651,0.363,2.295
		c0.177,0.642,0.421,1.151,0.728,1.524c0.309,0.374,0.714,0.561,1.219,0.561c0.802,0,1.441-0.625,1.918-1.875
		c0.476-1.25,0.713-3.301,0.713-6.15c0-4.065-0.802-6.099-2.407-6.099c-0.392,0-0.751,0.117-1.077,0.351
		c-0.327,0.233-0.606,0.625-0.84,1.174c-0.233,0.548-0.411,1.262-0.532,2.138c-0.122,0.877-0.182,1.945-0.182,3.208
		C80.952,168.712,80.984,169.67,81.05,170.559"/>
	<path fill="#FFFFFF" d="M120.926,53.596c2.497,0,4.585-1.766,5.113-4.13l0.039-0.219c2.588-11.943,13.216-20.892,25.936-20.892
		c14.654,0,26.536,11.88,26.536,26.534c0,14.655-11.882,26.535-26.536,26.535c-12.349,0-22.729-8.437-25.689-19.858l-0.047-0.234
		c-0.642-2.211-2.681-3.826-5.098-3.826h-11.092c-2.931,0-5.308,2.377-5.308,5.307V177.48c0,4.089,3.344,7.433,7.43,7.433h75.359
		c4.087,0,7.431-3.344,7.431-7.433V22.518c0-4.087-3.344-7.431-7.431-7.431H112.21c-4.086,0-7.43,3.344-7.43,7.431V48.29
		c0,2.93,2.348,5.306,5.241,5.306"/>
	<path fill="none" stroke="#1C181B" d="M120.926,53.596c2.497,0,4.585-1.766,5.113-4.13l0.039-0.219
		c2.588-11.943,13.216-20.892,25.936-20.892c14.654,0,26.536,11.88,26.536,26.534c0,14.655-11.882,26.535-26.536,26.535
		c-12.349,0-22.729-8.437-25.689-19.858l-0.047-0.234c-0.642-2.211-2.681-3.826-5.098-3.826h-11.092
		c-2.931,0-5.308,2.377-5.308,5.307V177.48c0,4.089,3.344,7.433,7.43,7.433h75.359c4.087,0,7.431-3.344,7.431-7.433V22.518
		c0-4.087-3.344-7.431-7.431-7.431H112.21c-4.086,0-7.43,3.344-7.43,7.431V48.29c0,2.93,2.348,5.306,5.241,5.306H120.926z"/>
	<path fill="#ED1C24" d="M116.763,103.181c-0.556-0.169-1.037-0.449-1.446-0.843c-0.409-0.393-0.731-0.898-0.968-1.516
		c-0.234-0.618-0.351-1.37-0.351-2.257c0-0.499,0.001-0.945,0.007-1.338c0.005-0.394,0.007-0.759,0.007-1.097
		c0-0.336,0.001-0.66,0.007-0.974c0.004-0.312,0.007-0.636,0.007-0.973c0-1.011-0.005-1.828-0.014-2.452s-0.023-1.092-0.042-1.404
		c0.2,0.025,0.405,0.048,0.614,0.067s0.413,0.028,0.613,0.028c0.198,0,0.403-0.009,0.612-0.028c0.21-0.02,0.415-0.042,0.614-0.067
		c-0.1,1.21-0.16,2.336-0.179,3.378c-0.021,1.043-0.031,2.101-0.031,3.173c0,1.136,0.065,2.053,0.195,2.752
		c0.13,0.698,0.323,1.238,0.577,1.618c0.255,0.381,0.566,0.634,0.937,0.758c0.37,0.125,0.8,0.188,1.29,0.188
		c0.6,0,1.069-0.188,1.408-0.562c0.34-0.374,0.597-0.873,0.772-1.497s0.282-1.339,0.322-2.144c0.041-0.805,0.06-1.644,0.06-2.518
		c0-0.86-0.01-1.718-0.03-2.573c-0.021-0.854-0.052-1.712-0.094-2.573c0.14,0.025,0.275,0.048,0.404,0.067
		c0.131,0.02,0.252,0.028,0.361,0.028c0.13,0,0.255-0.009,0.374-0.028c0.12-0.02,0.246-0.042,0.375-0.067
		c-0.019,0.274-0.04,0.643-0.059,1.104c-0.021,0.462-0.04,0.996-0.061,1.601c-0.02,0.605-0.036,1.273-0.051,2.004
		c-0.015,0.729-0.022,1.5-0.022,2.312c0,2.172-0.375,3.729-1.124,4.671c-0.748,0.942-1.848,1.414-3.297,1.414
		C117.913,103.434,117.317,103.349,116.763,103.181"/>
	<path fill="#ED1C24" d="M126.771,95.597c0.278-0.524,0.605-0.931,0.98-1.217c0.374-0.287,0.802-0.432,1.28-0.432
		c0.748,0,1.326,0.271,1.73,0.814s0.606,1.42,0.606,2.632c0,0.636-0.01,1.198-0.027,1.686c-0.02,0.486-0.028,0.974-0.028,1.46
		c0,0.399,0.008,0.833,0.021,1.302c0.014,0.468,0.029,0.92,0.048,1.357c-0.13-0.027-0.296-0.041-0.495-0.041h-1.259
		c-0.199,0-0.365,0.014-0.495,0.041c0.072-0.648,0.119-1.412,0.139-2.293c0.021-0.879,0.031-1.887,0.031-3.022
		c0-0.786-0.107-1.363-0.321-1.731c-0.215-0.368-0.519-0.552-0.907-0.552c-0.45,0-0.779,0.243-0.989,0.729
		c-0.211,0.486-0.314,1.161-0.314,2.021v0.749c0,0.761,0.007,1.479,0.022,2.152c0.014,0.674,0.047,1.322,0.098,1.946
		c-0.131-0.027-0.294-0.041-0.488-0.041h-1.271c-0.19,0-0.355,0.014-0.495,0.041c0.051-0.624,0.084-1.273,0.1-1.947
		c0.017-0.674,0.023-1.392,0.023-2.153V98.35c0-0.762-0.007-1.477-0.023-2.145c-0.016-0.668-0.049-1.339-0.1-2.013
		c0.18,0.024,0.355,0.046,0.533,0.064c0.174,0.02,0.352,0.028,0.531,0.028s0.358-0.009,0.534-0.028
		c0.175-0.019,0.362-0.04,0.562-0.064l-0.057,1.404"/>
	<path fill="#ED1C24" d="M132.533,96.755c0.204-0.624,0.477-1.145,0.816-1.562c0.339-0.418,0.73-0.729,1.176-0.936
		c0.443-0.205,0.9-0.309,1.369-0.309c1.169,0,2.072,0.412,2.71,1.235c0.64,0.822,0.959,1.938,0.959,3.349
		c0,0.761-0.09,1.446-0.27,2.058s-0.431,1.133-0.756,1.562c-0.324,0.43-0.711,0.751-1.161,0.963
		c-0.449,0.213-0.943,0.318-1.482,0.318c-0.449,0-0.892-0.075-1.325-0.225c-0.435-0.15-0.825-0.402-1.175-0.758
		s-0.632-0.819-0.847-1.394c-0.214-0.574-0.322-1.278-0.322-2.114C132.226,98.108,132.329,97.379,132.533,96.755 M137.018,95.696
		c-0.22-0.605-0.584-0.908-1.092-0.908c-0.46,0-0.822,0.337-1.087,1.011c-0.264,0.674-0.396,1.728-0.396,3.163
		c0,0.524,0.025,1.011,0.075,1.46c0.051,0.448,0.131,0.839,0.246,1.169c0.116,0.331,0.266,0.59,0.449,0.777
		c0.186,0.187,0.417,0.28,0.697,0.28c0.958,0,1.437-1.466,1.437-4.398C137.347,97.152,137.237,96.302,137.018,95.696"/>
	<path fill="#ED1C24" d="M145.38,95.413c-0.234-0.344-0.582-0.515-1.041-0.515c-0.6,0-1.049,0.341-1.349,1.021
		s-0.45,1.627-0.45,2.837c0,1.137,0.191,2.008,0.57,2.613c0.38,0.605,0.934,0.908,1.664,0.908c0.309,0,0.607-0.091,0.896-0.272
		c0.29-0.181,0.504-0.383,0.645-0.607l0.181,0.187c-0.07,0.175-0.131,0.355-0.181,0.544l-0.149,0.56
		c-0.221,0.212-0.497,0.389-0.831,0.532c-0.334,0.142-0.731,0.214-1.19,0.214c-0.73,0-1.344-0.131-1.842-0.394
		c-0.497-0.261-0.899-0.616-1.203-1.065c-0.304-0.45-0.52-0.958-0.65-1.525c-0.129-0.567-0.192-1.139-0.192-1.712
		c0-0.686,0.091-1.321,0.275-1.908c0.184-0.586,0.448-1.091,0.792-1.516c0.343-0.424,0.759-0.757,1.249-1
		c0.487-0.243,1.032-0.365,1.63-0.365c0.571,0,1.051,0.081,1.446,0.242c0.395,0.161,0.771,0.372,1.131,0.633
		c-0.12,0.25-0.232,0.556-0.337,0.918c-0.105,0.362-0.183,0.705-0.232,1.029h-0.359C145.772,96.209,145.613,95.757,145.38,95.413"/>
	<path fill="#ED1C24" d="M152.419,95.413c-0.235-0.344-0.582-0.515-1.041-0.515c-0.6,0-1.049,0.341-1.349,1.021
		s-0.449,1.627-0.449,2.837c0,1.137,0.191,2.008,0.569,2.613c0.381,0.605,0.935,0.908,1.662,0.908c0.311,0,0.609-0.091,0.898-0.272
		c0.291-0.181,0.506-0.383,0.646-0.607l0.179,0.187c-0.068,0.175-0.129,0.355-0.179,0.544l-0.15,0.56
		c-0.22,0.212-0.497,0.389-0.83,0.532c-0.336,0.142-0.731,0.214-1.192,0.214c-0.729,0-1.343-0.131-1.84-0.394
		c-0.499-0.261-0.9-0.616-1.204-1.065c-0.304-0.45-0.52-0.958-0.649-1.525c-0.129-0.567-0.194-1.139-0.194-1.712
		c0-0.686,0.093-1.321,0.277-1.908c0.184-0.586,0.447-1.091,0.791-1.516c0.345-0.424,0.759-0.757,1.248-1
		c0.488-0.243,1.032-0.365,1.631-0.365c0.569,0,1.052,0.081,1.446,0.242s0.771,0.372,1.131,0.633
		c-0.12,0.25-0.231,0.556-0.338,0.918c-0.104,0.362-0.181,0.705-0.23,1.029h-0.36C152.812,96.209,152.653,95.757,152.419,95.413"/>
	<path fill="#ED1C24" d="M159.096,101.844c-0.279,0.523-0.606,0.919-0.98,1.188c-0.375,0.269-0.801,0.402-1.279,0.402
		c-0.75,0-1.325-0.262-1.729-0.786c-0.404-0.522-0.606-1.39-0.606-2.599c0-0.636,0.009-1.197,0.027-1.683
		c0.019-0.486,0.028-0.973,0.028-1.459c0-0.398-0.007-0.832-0.021-1.3c-0.013-0.468-0.029-0.938-0.047-1.411
		c0.13,0.022,0.293,0.041,0.492,0.058c0.2,0.017,0.41,0.024,0.629,0.024c0.22,0,0.43-0.008,0.629-0.024
		c0.198-0.017,0.363-0.035,0.492-0.058c-0.068,0.673-0.114,1.451-0.134,2.335c-0.021,0.885-0.031,1.894-0.031,3.026
		c0,0.784,0.108,1.36,0.322,1.728c0.215,0.367,0.516,0.552,0.906,0.552c0.448,0,0.778-0.243,0.987-0.729
		c0.209-0.484,0.314-1.158,0.314-2.017v-0.747c0-0.761-0.008-1.474-0.022-2.14c-0.016-0.666-0.049-1.335-0.099-2.008
		c0.28,0.055,0.654,0.082,1.123,0.082c0.229,0,0.438-0.008,0.628-0.024s0.354-0.035,0.493-0.058
		c-0.046,0.674-0.076,1.343-0.089,2.01c-0.015,0.667-0.021,1.381-0.021,2.142v0.747c0,0.762,0.007,1.478,0.021,2.15
		c0.013,0.674,0.043,1.322,0.089,1.945c-0.179-0.024-0.355-0.037-0.529-0.037h-1.059c-0.174,0-0.36,0.013-0.559,0.037l0.054-1.347"
		/>
	<path fill="#ED1C24" d="M162.443,97.298c-0.02-1.023-0.051-2.059-0.092-3.106c0.17,0.024,0.345,0.046,0.526,0.064
		c0.181,0.02,0.356,0.028,0.527,0.028c0.17,0,0.344-0.009,0.519-0.028c0.176-0.019,0.349-0.04,0.521-0.064
		c-0.021,0.212-0.045,0.465-0.07,0.758c-0.028,0.293-0.04,0.577-0.04,0.852h0.03c0.141-0.524,0.395-0.964,0.764-1.318
		c0.37-0.355,0.825-0.534,1.364-0.534c0.38,0,0.745,0.088,1.094,0.263c0.35,0.174,0.659,0.448,0.929,0.822
		c0.271,0.375,0.484,0.854,0.645,1.44c0.16,0.587,0.241,1.285,0.241,2.096c0,0.886-0.086,1.641-0.255,2.264
		c-0.172,0.623-0.395,1.132-0.669,1.524s-0.589,0.671-0.943,0.833c-0.355,0.162-0.719,0.243-1.088,0.243
		c-0.45,0-0.841-0.105-1.17-0.317c-0.33-0.213-0.585-0.543-0.765-0.99h-0.025v1.516c0,0.437,0.002,0.883,0.007,1.338
		s0.012,0.89,0.021,1.301c0.011,0.411,0.022,0.779,0.037,1.104s0.031,0.567,0.051,0.73c-0.13-0.023-0.294-0.041-0.495-0.059
		c-0.2-0.017-0.41-0.024-0.63-0.024s-0.431,0.008-0.63,0.024c-0.2,0.018-0.365,0.035-0.494,0.059
		c0.02-0.524,0.038-1.043,0.054-1.554s0.029-1.029,0.038-1.553c0.011-0.524,0.019-1.055,0.023-1.591
		c0.006-0.536,0.007-1.109,0.007-1.722v-1.029C162.474,99.444,162.465,98.32,162.443,97.298 M166.816,95.938
		c-0.243-0.555-0.565-0.832-0.965-0.832c-0.189,0-0.368,0.068-0.538,0.205c-0.169,0.138-0.322,0.355-0.456,0.655
		c-0.136,0.299-0.242,0.691-0.322,1.178c-0.079,0.486-0.118,1.078-0.118,1.776c0,1.136,0.116,1.974,0.351,2.517
		c0.234,0.542,0.576,0.812,1.024,0.812c0.428,0,0.768-0.292,1.017-0.879c0.249-0.586,0.374-1.502,0.374-2.749
		C167.183,97.387,167.062,96.492,166.816,95.938"/>
	<path fill="#ED1C24" d="M170.684,89.603c0.23-0.287,0.511-0.431,0.84-0.431c0.33,0,0.609,0.144,0.839,0.431
		s0.345,0.636,0.345,1.049c0,0.412-0.115,0.762-0.345,1.049s-0.509,0.432-0.839,0.432c-0.329,0-0.609-0.145-0.84-0.432
		c-0.229-0.287-0.344-0.637-0.344-1.049C170.34,90.238,170.455,89.89,170.684,89.603 M170.495,96.207
		c-0.016-0.668-0.049-1.339-0.101-2.014c0.142,0.025,0.307,0.047,0.497,0.066c0.19,0.019,0.401,0.027,0.632,0.027
		c0.472,0,0.849-0.031,1.129-0.094c-0.052,0.675-0.084,1.346-0.101,2.014c-0.016,0.668-0.023,1.382-0.023,2.144V99.1
		c0,0.761,0.008,1.479,0.023,2.152c0.017,0.675,0.049,1.323,0.101,1.947c-0.131-0.027-0.293-0.041-0.488-0.041h-1.272
		c-0.19,0-0.355,0.014-0.497,0.041c0.052-0.624,0.085-1.272,0.101-1.947c0.017-0.673,0.023-1.392,0.023-2.152v-0.749
		C170.519,97.589,170.512,96.875,170.495,96.207"/>
	<path fill="#ED1C24" d="M175.99,100.128c0.08,0.436,0.203,0.812,0.368,1.13c0.164,0.318,0.374,0.567,0.629,0.748
		c0.254,0.181,0.551,0.271,0.891,0.271c0.689,0,1.303-0.281,1.844-0.843l0.179,0.169l-0.329,1.047
		c-0.249,0.235-0.551,0.426-0.899,0.569c-0.35,0.142-0.809,0.214-1.377,0.214c-0.49,0-0.955-0.085-1.394-0.253
		c-0.439-0.168-0.826-0.445-1.161-0.832c-0.334-0.387-0.6-0.877-0.794-1.469c-0.194-0.593-0.292-1.301-0.292-2.124
		c0-0.81,0.087-1.515,0.263-2.114c0.174-0.598,0.417-1.096,0.726-1.495s0.675-0.699,1.101-0.898c0.423-0.199,0.884-0.3,1.384-0.3
		c0.987,0,1.744,0.362,2.268,1.087s0.785,1.748,0.785,3.072v0.394c0,0.112-0.004,0.188-0.013,0.224h-4.295
		C175.872,99.224,175.91,99.691,175.99,100.128 M177.894,95.633c-0.164-0.563-0.44-0.845-0.828-0.845
		c-0.219,0-0.402,0.094-0.553,0.281c-0.148,0.188-0.269,0.43-0.358,0.723c-0.089,0.294-0.157,0.626-0.201,0.995
		c-0.045,0.369-0.071,0.735-0.081,1.099h2.298C178.15,96.947,178.059,96.196,177.894,95.633"/>
	<path fill="#ED1C24" d="M187.647,100.139c0.017,1.024,0.045,2.041,0.082,3.053c-0.131-0.025-0.296-0.038-0.496-0.038h-1.21
		c-0.186,0-0.328,0.013-0.428,0.038c0.01-0.025,0.02-0.106,0.029-0.244c0.011-0.137,0.022-0.294,0.038-0.469
		c0.015-0.174,0.026-0.336,0.038-0.485c0.009-0.15,0.014-0.245,0.014-0.281l-0.029-0.038c-0.19,0.562-0.449,0.996-0.777,1.301
		c-0.329,0.306-0.781,0.459-1.359,0.459c-0.508,0-0.941-0.122-1.3-0.365c-0.359-0.243-0.652-0.583-0.883-1.02
		c-0.229-0.436-0.397-0.948-0.508-1.534c-0.109-0.585-0.164-1.215-0.164-1.89c0-0.674,0.075-1.294,0.225-1.861
		s0.354-1.06,0.613-1.478c0.26-0.418,0.567-0.745,0.922-0.982c0.354-0.236,0.73-0.355,1.129-0.355c0.45,0,0.852,0.131,1.206,0.392
		s0.616,0.591,0.785,0.988h0.035c0-1.124-0.01-2.182-0.031-3.174c-0.02-0.992-0.051-2.019-0.092-3.079
		c0.129,0.025,0.294,0.048,0.492,0.067c0.199,0.02,0.409,0.029,0.629,0.029c0.219,0,0.427-0.01,0.628-0.029
		c0.2-0.02,0.363-0.042,0.494-0.067c-0.037,1.048-0.065,2.084-0.082,3.107c-0.02,1.023-0.027,2.146-0.027,3.37v1.217
		C187.62,97.993,187.628,99.116,187.647,100.139 M183.016,100.519c0.07,0.436,0.164,0.788,0.285,1.056
		c0.12,0.268,0.257,0.462,0.412,0.58s0.317,0.178,0.487,0.178c0.41,0,0.746-0.29,1.012-0.869c0.266-0.58,0.397-1.544,0.397-2.892
		c0-1.159-0.125-2.004-0.375-2.533c-0.25-0.531-0.569-0.796-0.96-0.796c-0.159,0-0.319,0.057-0.479,0.169
		c-0.16,0.112-0.305,0.309-0.436,0.589c-0.13,0.281-0.237,0.658-0.322,1.132c-0.085,0.475-0.126,1.066-0.126,1.776
		C182.912,99.545,182.946,100.081,183.016,100.519"/>
	<path fill="#ED1C24" d="M138.572,116.105c-0.021-0.805-0.052-1.614-0.093-2.427c0.449,0.013,0.893,0.032,1.332,0.058
		c0.438,0.025,0.883,0.038,1.332,0.038c0.737,0,1.396-0.009,1.968-0.028c0.575-0.019,0.962-0.042,1.162-0.067
		c-0.041,0.2-0.061,0.465-0.061,0.79c0,0.202,0.005,0.358,0.016,0.472c0.01,0.114,0.024,0.238,0.045,0.376
		c-0.29-0.024-0.606-0.049-0.952-0.074c-0.344-0.025-0.678-0.051-1.003-0.075c-0.324-0.025-0.617-0.044-0.876-0.056
		c-0.26-0.014-0.443-0.02-0.554-0.02c-0.043,0.687-0.069,1.366-0.074,2.041c-0.005,0.673-0.009,1.353-0.009,2.038
		c0.654-0.013,1.242-0.03,1.768-0.056c0.523-0.025,1.07-0.058,1.64-0.096c-0.029,0.213-0.05,0.375-0.061,0.487
		c-0.008,0.112-0.015,0.231-0.015,0.355c0,0.102,0.008,0.203,0.022,0.31c0.015,0.105,0.032,0.259,0.053,0.459
		c-1.139-0.109-2.273-0.166-3.407-0.166v0.955c0,1.037,0.011,1.958,0.031,2.762c0.021,0.805,0.052,1.595,0.093,2.368
		c-0.17-0.027-0.354-0.041-0.554-0.041h-1.345c-0.199,0-0.384,0.014-0.552,0.041c0.036-0.774,0.063-1.564,0.082-2.37
		s0.028-1.727,0.028-2.763l0.014-2.548C138.604,117.832,138.593,116.911,138.572,116.105"/>
	<path fill="#ED1C24" d="M146.827,119.864c0.262-0.86,0.578-1.496,0.947-1.901c0.369-0.406,0.81-0.608,1.317-0.608
		c0.051,0,0.093,0.002,0.129,0.007c0.034,0.004,0.072,0.007,0.111,0.007c-0.03,0.188-0.053,0.388-0.067,0.601
		s-0.022,0.464-0.022,0.751v0.92c0,0.112,0.006,0.219,0.015,0.318l-0.135,0.15c-0.1-0.076-0.212-0.138-0.337-0.188
		c-0.124-0.05-0.267-0.075-0.427-0.075c-0.449,0-0.804,0.185-1.063,0.554c-0.26,0.368-0.389,0.802-0.389,1.301v0.749
		c0,0.762,0.007,1.479,0.022,2.153s0.048,1.323,0.097,1.947c-0.13-0.027-0.292-0.041-0.486-0.041h-1.261
		c-0.189,0-0.353,0.014-0.492,0.041c0.051-0.624,0.085-1.273,0.1-1.948c0.017-0.673,0.023-1.392,0.023-2.153v-0.75
		c0-0.761-0.007-1.475-0.023-2.143c-0.015-0.668-0.049-1.34-0.1-2.014c0.169,0.024,0.34,0.046,0.514,0.065
		c0.173,0.019,0.344,0.028,0.514,0.028c0.168,0,0.339-0.01,0.513-0.028c0.174-0.02,0.345-0.041,0.515-0.065l-0.045,2.284"/>
	<path fill="#ED1C24" d="M152.086,123.479c0.08,0.437,0.202,0.812,0.366,1.13c0.165,0.318,0.375,0.567,0.63,0.748
		s0.552,0.271,0.891,0.271c0.688,0,1.304-0.281,1.842-0.843l0.18,0.169l-0.329,1.047c-0.25,0.236-0.549,0.426-0.898,0.568
		c-0.35,0.144-0.809,0.215-1.379,0.215c-0.488,0-0.953-0.085-1.393-0.252c-0.438-0.169-0.827-0.446-1.16-0.833
		c-0.334-0.387-0.6-0.876-0.794-1.468c-0.194-0.594-0.291-1.301-0.291-2.125c0-0.811,0.087-1.515,0.261-2.113
		c0.175-0.599,0.418-1.097,0.727-1.496c0.309-0.398,0.676-0.698,1.1-0.898c0.424-0.199,0.886-0.3,1.385-0.3
		c0.987,0,1.743,0.362,2.268,1.087c0.523,0.725,0.785,1.748,0.785,3.072v0.394c0,0.112-0.004,0.188-0.015,0.225h-4.295
		C151.965,122.574,152.007,123.042,152.086,123.479 M153.988,118.983c-0.164-0.563-0.44-0.845-0.828-0.845
		c-0.22,0-0.403,0.094-0.553,0.281s-0.269,0.43-0.358,0.723c-0.09,0.295-0.156,0.627-0.201,0.996s-0.072,0.734-0.083,1.098h2.3
		C154.245,120.298,154.152,119.547,153.988,118.983"/>
	<path fill="#ED1C24" d="M159.125,123.479c0.081,0.437,0.202,0.812,0.367,1.13c0.165,0.318,0.375,0.567,0.63,0.748
		c0.254,0.181,0.552,0.271,0.89,0.271c0.689,0,1.304-0.281,1.844-0.843l0.179,0.169l-0.33,1.047
		c-0.249,0.236-0.549,0.426-0.897,0.568c-0.35,0.144-0.81,0.215-1.379,0.215c-0.488,0-0.953-0.085-1.393-0.252
		c-0.439-0.169-0.825-0.446-1.161-0.833c-0.334-0.387-0.599-0.876-0.793-1.468c-0.194-0.594-0.292-1.301-0.292-2.125
		c0-0.811,0.087-1.515,0.262-2.113s0.417-1.097,0.726-1.496c0.31-0.398,0.676-0.698,1.102-0.898c0.423-0.199,0.884-0.3,1.383-0.3
		c0.988,0,1.743,0.362,2.268,1.087c0.523,0.725,0.785,1.748,0.785,3.072v0.394c0,0.112-0.003,0.188-0.013,0.225h-4.295
		C159.006,122.574,159.046,123.042,159.125,123.479 M161.028,118.983c-0.164-0.563-0.44-0.845-0.829-0.845
		c-0.219,0-0.403,0.094-0.553,0.281c-0.147,0.188-0.269,0.43-0.357,0.723c-0.09,0.295-0.157,0.627-0.202,0.996
		c-0.044,0.369-0.072,0.734-0.081,1.098h2.299C161.285,120.298,161.192,119.547,161.028,118.983"/>
	<path fill="#ED1C24" d="M146.311,141.257c-0.011,0.075-0.016,0.154-0.016,0.243c0,0.075,0.005,0.152,0.016,0.233
		c0.009,0.082,0.019,0.16,0.029,0.234l-1.407-0.037v1.553c0,1.224,0.008,2.346,0.027,3.367c0.018,1.023,0.045,2.041,0.082,3.051
		c-0.129-0.028-0.294-0.042-0.493-0.042h-1.258c-0.2,0-0.363,0.014-0.492,0.042c0.041-1.012,0.072-2.027,0.092-3.052
		c0.021-1.023,0.032-2.146,0.032-3.37v-1.535l-1.049,0.018c0.029-0.147,0.043-0.303,0.043-0.465c0-0.148-0.014-0.316-0.043-0.502
		l1.049,0.055c0.1-0.762,0.224-1.469,0.375-2.12c0.149-0.65,0.346-1.213,0.592-1.688c0.245-0.476,0.552-0.848,0.922-1.117
		c0.37-0.269,0.824-0.402,1.363-0.402c0.17,0,0.38,0.031,0.63,0.097c-0.03,0.199-0.049,0.471-0.054,0.815
		c-0.003,0.343-0.007,0.677-0.007,1.002v0.619l-0.179,0.073c-0.2-0.137-0.431-0.261-0.69-0.373c-0.26-0.113-0.509-0.169-0.748-0.169
		c-0.29,0-0.513,0.059-0.668,0.178c-0.155,0.118-0.232,0.328-0.232,0.629c0,0.287,0.067,0.656,0.203,1.106
		c0.135,0.45,0.303,0.894,0.503,1.331l1.407-0.036C146.329,141.094,146.319,141.183,146.311,141.257"/>
	<path fill="#ED1C24" d="M146.672,143.456c0.205-0.623,0.477-1.145,0.815-1.562c0.339-0.418,0.731-0.729,1.176-0.936
		c0.445-0.206,0.901-0.309,1.37-0.309c1.168,0,2.071,0.412,2.711,1.234c0.639,0.823,0.957,1.939,0.957,3.349
		c0,0.761-0.089,1.447-0.269,2.058c-0.179,0.611-0.432,1.134-0.756,1.562c-0.324,0.431-0.712,0.752-1.161,0.964
		s-0.942,0.318-1.482,0.318c-0.448,0-0.891-0.075-1.325-0.226c-0.434-0.149-0.825-0.4-1.176-0.757
		c-0.349-0.355-0.63-0.821-0.845-1.394c-0.215-0.574-0.322-1.279-0.322-2.114C146.365,144.81,146.467,144.08,146.672,143.456
		 M151.156,142.397c-0.219-0.604-0.583-0.907-1.093-0.907c-0.459,0-0.821,0.337-1.086,1.011c-0.264,0.673-0.396,1.728-0.396,3.162
		c0,0.524,0.025,1.012,0.075,1.46c0.05,0.449,0.132,0.84,0.247,1.17c0.115,0.331,0.264,0.589,0.449,0.777
		c0.185,0.187,0.417,0.28,0.695,0.28c0.959,0,1.438-1.467,1.438-4.398C151.486,143.854,151.377,143.003,151.156,142.397"/>
	<path fill="#ED1C24" d="M156.697,143.215c0.262-0.86,0.578-1.495,0.947-1.9c0.37-0.406,0.809-0.608,1.318-0.608
		c0.051,0,0.092,0.002,0.128,0.007c0.034,0.004,0.072,0.006,0.112,0.006c-0.031,0.188-0.053,0.388-0.069,0.601
		c-0.014,0.214-0.021,0.464-0.021,0.751v0.921c0,0.111,0.005,0.219,0.015,0.318l-0.134,0.149c-0.101-0.075-0.213-0.138-0.338-0.188
		c-0.124-0.05-0.267-0.074-0.427-0.074c-0.449,0-0.804,0.185-1.063,0.553s-0.389,0.801-0.389,1.301v0.749
		c0,0.762,0.007,1.479,0.022,2.154s0.048,1.323,0.097,1.947c-0.13-0.028-0.291-0.042-0.485-0.042h-1.262
		c-0.189,0-0.353,0.014-0.492,0.042c0.052-0.624,0.085-1.272,0.1-1.948c0.017-0.674,0.024-1.393,0.024-2.153v-0.75
		c0-0.761-0.008-1.476-0.024-2.143c-0.015-0.669-0.048-1.34-0.1-2.014c0.169,0.024,0.34,0.046,0.513,0.065
		c0.174,0.018,0.346,0.027,0.515,0.027s0.339-0.01,0.513-0.027c0.174-0.02,0.346-0.041,0.515-0.065l-0.045,2.283"/>
	<path fill="#ED1C24" d="M130.46,165.466c-0.234-0.344-0.581-0.515-1.041-0.515c-0.599,0-1.048,0.34-1.347,1.02
		c-0.3,0.682-0.449,1.627-0.449,2.838c0,1.136,0.189,2.008,0.568,2.612c0.38,0.606,0.934,0.909,1.662,0.909
		c0.311,0,0.61-0.091,0.899-0.271s0.504-0.385,0.644-0.609l0.18,0.188c-0.069,0.175-0.13,0.355-0.18,0.542
		c-0.05,0.188-0.1,0.375-0.149,0.562c-0.22,0.211-0.496,0.389-0.831,0.531c-0.334,0.144-0.731,0.214-1.191,0.214
		c-0.729,0-1.342-0.131-1.84-0.392c-0.499-0.263-0.899-0.618-1.204-1.067c-0.304-0.448-0.52-0.957-0.648-1.524
		c-0.13-0.566-0.194-1.138-0.194-1.711c0-0.687,0.091-1.323,0.275-1.908c0.184-0.587,0.448-1.092,0.792-1.517
		c0.344-0.423,0.759-0.757,1.248-1c0.489-0.244,1.033-0.365,1.632-0.365c0.568,0,1.051,0.08,1.445,0.242
		c0.395,0.161,0.771,0.372,1.131,0.633c-0.121,0.25-0.232,0.555-0.338,0.917c-0.104,0.362-0.182,0.706-0.231,1.03h-0.358
		C130.853,166.262,130.695,165.809,130.46,165.466"/>
	<path fill="#ED1C24" d="M132.787,162.237c-0.021-1.023-0.052-2.061-0.093-3.11c0.129,0.026,0.294,0.048,0.492,0.068
		c0.201,0.02,0.41,0.029,0.63,0.029c0.219,0,0.428-0.01,0.628-0.029c0.199-0.021,0.363-0.042,0.493-0.068
		c-0.036,1.05-0.064,2.087-0.082,3.11c-0.02,1.023-0.027,2.148-0.027,3.372v1.217c0,1.225,0.008,2.349,0.027,3.372
		c0.018,1.024,0.046,2.043,0.082,3.054c-0.13-0.028-0.294-0.041-0.493-0.041h-1.258c-0.198,0-0.363,0.013-0.492,0.041
		c0.041-1.011,0.072-2.029,0.093-3.054c0.021-1.023,0.031-2.147,0.031-3.372v-1.217
		C132.818,164.386,132.808,163.261,132.787,162.237"/>
	<path fill="#ED1C24" d="M138.276,170.18c0.079,0.437,0.202,0.813,0.366,1.131c0.165,0.318,0.375,0.567,0.63,0.748
		s0.553,0.271,0.891,0.271c0.689,0,1.304-0.282,1.843-0.844l0.179,0.17l-0.329,1.046c-0.249,0.237-0.549,0.427-0.898,0.569
		c-0.349,0.144-0.809,0.214-1.378,0.214c-0.489,0-0.953-0.084-1.394-0.251c-0.438-0.169-0.825-0.446-1.16-0.833
		c-0.334-0.388-0.599-0.877-0.793-1.469c-0.195-0.592-0.292-1.3-0.292-2.124c0-0.811,0.087-1.515,0.262-2.113
		c0.175-0.6,0.417-1.099,0.726-1.497c0.31-0.399,0.676-0.699,1.099-0.897c0.426-0.2,0.887-0.3,1.386-0.3
		c0.987,0,1.743,0.362,2.267,1.087c0.524,0.725,0.786,1.747,0.786,3.071v0.394c0,0.112-0.004,0.188-0.014,0.226h-4.295
		C138.156,169.276,138.197,169.744,138.276,170.18 M140.18,165.686c-0.165-0.563-0.44-0.845-0.829-0.845
		c-0.219,0-0.403,0.094-0.553,0.281c-0.148,0.188-0.269,0.429-0.358,0.723c-0.089,0.295-0.156,0.627-0.201,0.995
		c-0.045,0.37-0.072,0.736-0.082,1.098h2.3C140.436,167,140.343,166.249,140.18,165.686"/>
	<path fill="#ED1C24" d="M144.71,164.338c0.484-0.225,0.967-0.337,1.445-0.337c0.399,0,0.766,0.056,1.099,0.168
		c0.333,0.113,0.621,0.291,0.865,0.533c0.242,0.244,0.432,0.56,0.565,0.945c0.133,0.387,0.2,0.854,0.2,1.403
		c0,0.798-0.007,1.536-0.02,2.217c-0.015,0.679-0.021,1.356-0.021,2.029c0,0.3,0.018,0.533,0.053,0.701
		c0.035,0.169,0.087,0.296,0.157,0.384c0.069,0.086,0.161,0.144,0.277,0.168c0.115,0.025,0.247,0.038,0.397,0.038v0.449
		c-0.29,0.15-0.535,0.263-0.733,0.336c-0.2,0.076-0.415,0.112-0.645,0.112c-0.368,0-0.668-0.112-0.897-0.337
		c-0.229-0.225-0.402-0.548-0.523-0.972c-0.229,0.398-0.497,0.717-0.804,0.954c-0.306,0.236-0.689,0.354-1.149,0.354
		c-0.38,0-0.702-0.062-0.97-0.186c-0.269-0.126-0.491-0.304-0.665-0.534s-0.301-0.492-0.381-0.786
		c-0.079-0.293-0.118-0.589-0.118-0.888c0-0.411,0.052-0.768,0.156-1.066s0.256-0.555,0.45-0.768
		c0.194-0.211,0.428-0.39,0.696-0.532c0.271-0.144,0.575-0.265,0.916-0.365c0.419-0.124,0.751-0.233,0.996-0.327
		c0.244-0.094,0.427-0.187,0.547-0.281c0.121-0.094,0.197-0.195,0.232-0.309c0.034-0.111,0.053-0.248,0.053-0.411
		c0-0.449-0.128-0.832-0.383-1.149c-0.254-0.318-0.606-0.479-1.056-0.479c-0.17,0-0.344,0.028-0.524,0.084
		c-0.18,0.058-0.352,0.135-0.516,0.235c-0.165,0.099-0.315,0.209-0.449,0.327c-0.136,0.118-0.237,0.247-0.309,0.385h-0.104
		l-0.195-1.124C143.774,164.888,144.225,164.562,144.71,164.338 M146.909,169.173c0.006-0.28,0.008-0.526,0.008-0.738
		c-0.211,0.149-0.434,0.271-0.668,0.365c-0.236,0.093-0.451,0.211-0.646,0.354c-0.195,0.143-0.355,0.341-0.48,0.588
		c-0.124,0.25-0.188,0.611-0.188,1.084c0,0.462,0.078,0.813,0.232,1.056c0.156,0.244,0.363,0.364,0.624,0.364
		c0.33,0,0.599-0.154,0.805-0.466c0.203-0.312,0.307-0.773,0.307-1.384C146.902,169.861,146.906,169.453,146.909,169.173"/>
	<path fill="#ED1C24" d="M152.441,165.648c0.28-0.524,0.606-0.929,0.981-1.217c0.375-0.287,0.802-0.431,1.281-0.431
		c0.749,0,1.324,0.271,1.729,0.814c0.405,0.543,0.607,1.42,0.607,2.631c0,0.637-0.009,1.198-0.028,1.686
		c-0.019,0.486-0.027,0.974-0.027,1.461c0,0.399,0.007,0.833,0.021,1.302c0.014,0.468,0.029,0.921,0.049,1.357
		c-0.129-0.028-0.295-0.041-0.494-0.041h-1.261c-0.199,0-0.363,0.013-0.493,0.041c0.071-0.649,0.117-1.413,0.138-2.293
		c0.021-0.879,0.031-1.888,0.031-3.023c0-0.785-0.106-1.362-0.321-1.731c-0.216-0.367-0.519-0.551-0.907-0.551
		c-0.449,0-0.779,0.243-0.989,0.729c-0.21,0.487-0.315,1.16-0.315,2.021v0.749c0,0.762,0.007,1.479,0.022,2.152
		c0.016,0.675,0.049,1.323,0.099,1.947c-0.131-0.028-0.293-0.041-0.489-0.041h-1.27c-0.189,0-0.355,0.013-0.496,0.041
		c0.052-0.625,0.086-1.274,0.101-1.948c0.017-0.673,0.023-1.392,0.023-2.153v-0.749c0-0.762-0.007-1.475-0.023-2.144
		c-0.015-0.668-0.049-1.34-0.101-2.014c0.18,0.024,0.358,0.047,0.533,0.065c0.176,0.02,0.354,0.028,0.532,0.028
		c0.181,0,0.358-0.009,0.533-0.028c0.176-0.019,0.363-0.041,0.563-0.065l-0.058,1.404"/>
	<path fill="#ED1C24" d="M158.642,159.655c0.229-0.287,0.51-0.431,0.839-0.431c0.33,0,0.608,0.144,0.839,0.431
		c0.229,0.287,0.346,0.637,0.346,1.048c0,0.413-0.116,0.763-0.346,1.05c-0.23,0.287-0.509,0.43-0.839,0.43
		c-0.329,0-0.61-0.143-0.839-0.43c-0.229-0.287-0.345-0.637-0.345-1.05C158.297,160.292,158.412,159.942,158.642,159.655
		 M158.452,166.26c-0.016-0.668-0.049-1.339-0.1-2.014c0.14,0.026,0.305,0.048,0.496,0.065c0.19,0.02,0.401,0.029,0.632,0.029
		c0.472,0,0.848-0.032,1.129-0.095c-0.051,0.675-0.085,1.346-0.101,2.014c-0.016,0.667-0.022,1.382-0.022,2.144v0.749
		c0,0.761,0.007,1.479,0.022,2.152c0.016,0.675,0.05,1.322,0.101,1.947c-0.13-0.028-0.293-0.041-0.489-0.041h-1.271
		c-0.191,0-0.356,0.013-0.496,0.041c0.051-0.625,0.084-1.272,0.1-1.947c0.016-0.674,0.023-1.392,0.023-2.152v-0.749
		C158.476,167.642,158.468,166.927,158.452,166.26"/>
	<path fill="#ED1C24" d="M164.034,165.648c0.28-0.524,0.606-0.929,0.981-1.217c0.374-0.287,0.802-0.431,1.281-0.431
		c0.748,0,1.325,0.271,1.729,0.814s0.606,1.42,0.606,2.631c0,0.637-0.01,1.198-0.027,1.686c-0.019,0.486-0.028,0.974-0.028,1.461
		c0,0.399,0.007,0.833,0.021,1.302c0.014,0.468,0.029,0.921,0.048,1.357c-0.129-0.028-0.295-0.041-0.494-0.041h-1.26
		c-0.199,0-0.364,0.013-0.493,0.041c0.07-0.649,0.116-1.413,0.138-2.293c0.021-0.879,0.03-1.888,0.03-3.023
		c0-0.785-0.106-1.362-0.321-1.731c-0.215-0.367-0.519-0.551-0.907-0.551c-0.449,0-0.779,0.243-0.989,0.729
		c-0.21,0.487-0.315,1.16-0.315,2.021v0.749c0,0.762,0.008,1.479,0.022,2.152c0.015,0.675,0.048,1.323,0.099,1.947
		c-0.131-0.028-0.293-0.041-0.489-0.041h-1.27c-0.189,0-0.355,0.013-0.495,0.041c0.051-0.625,0.086-1.274,0.101-1.948
		c0.015-0.673,0.022-1.392,0.022-2.153v-0.749c0-0.762-0.008-1.475-0.022-2.144c-0.015-0.668-0.05-1.34-0.101-2.014
		c0.18,0.024,0.357,0.047,0.533,0.065c0.176,0.02,0.352,0.028,0.532,0.028c0.18,0,0.357-0.009,0.532-0.028
		c0.176-0.019,0.363-0.041,0.563-0.065l-0.057,1.404"/>
	<path fill="#ED1C24" d="M174.879,164.946c0.25,0.226,0.444,0.51,0.591,0.854c0.145,0.345,0.217,0.754,0.217,1.229
		c0,0.463-0.071,0.885-0.21,1.266c-0.14,0.382-0.338,0.71-0.591,0.984c-0.255,0.274-0.558,0.487-0.912,0.637
		c-0.354,0.15-0.75,0.225-1.188,0.225c-0.108,0-0.217-0.001-0.321-0.006s-0.222-0.007-0.351-0.007c-0.12,0-0.223,0.068-0.307,0.206
		c-0.085,0.136-0.127,0.292-0.127,0.465c0,0.299,0.092,0.535,0.276,0.71c0.185,0.174,0.476,0.267,0.874,0.28l1.106,0.018
		c0.838,0.013,1.453,0.21,1.846,0.59c0.395,0.38,0.592,0.988,0.592,1.824c0,0.747-0.123,1.373-0.366,1.879
		c-0.244,0.505-0.56,0.916-0.943,1.234s-0.81,0.545-1.278,0.683s-0.922,0.205-1.361,0.205c-0.937,0-1.667-0.228-2.19-0.683
		s-0.784-1.058-0.784-1.806c0-0.599,0.132-1.083,0.397-1.451c0.263-0.368,0.621-0.658,1.07-0.87v-0.036
		c-0.258-0.111-0.464-0.282-0.618-0.513c-0.154-0.231-0.23-0.521-0.23-0.87c0-0.412,0.127-0.81,0.381-1.196
		c0.253-0.386,0.59-0.647,1.008-0.786v-0.037c-0.607-0.188-1.075-0.524-1.404-1.011c-0.339-0.5-0.508-1.148-0.508-1.947
		c0-0.474,0.076-0.897,0.231-1.273c0.154-0.373,0.369-0.688,0.65-0.944c0.277-0.256,0.611-0.452,0.999-0.59
		c0.39-0.137,0.817-0.206,1.286-0.206c0.179,0,0.362,0.008,0.552,0.026c0.189,0.017,0.374,0.031,0.553,0.043
		c0.13,0.013,0.263,0.022,0.397,0.03c0.134,0.007,0.28,0.011,0.44,0.011c0.248,0,0.508-0.003,0.776-0.007
		c0.27-0.006,0.538-0.008,0.809-0.008c-0.011,0.074-0.019,0.147-0.023,0.22c-0.005,0.074-0.008,0.148-0.008,0.221
		c0,0.074,0.003,0.148,0.008,0.221c0.005,0.073,0.013,0.147,0.023,0.22l-1.316-0.068 M174.489,174.337
		c-0.099-0.23-0.242-0.408-0.426-0.533c-0.185-0.124-0.411-0.208-0.68-0.252s-0.574-0.066-0.912-0.066
		c-0.519,0-0.878,0.062-1.077,0.188c-0.119,0.075-0.246,0.256-0.38,0.542c-0.135,0.286-0.203,0.648-0.203,1.085
		c0,0.362,0.053,0.676,0.158,0.943c0.104,0.269,0.246,0.49,0.425,0.665c0.181,0.175,0.387,0.309,0.621,0.402
		c0.234,0.093,0.485,0.14,0.755,0.14c0.289,0,0.548-0.059,0.776-0.178c0.23-0.118,0.427-0.28,0.592-0.485
		c0.164-0.206,0.289-0.443,0.374-0.711c0.084-0.268,0.126-0.552,0.126-0.852C174.639,174.863,174.588,174.566,174.489,174.337
		 M171.639,167.244c0,0.411,0.029,0.757,0.088,1.037c0.061,0.282,0.138,0.51,0.232,0.686c0.095,0.174,0.199,0.299,0.313,0.373
		c0.113,0.075,0.231,0.112,0.351,0.112c0.328,0,0.571-0.182,0.731-0.543c0.158-0.361,0.239-0.974,0.239-1.835
		c0-0.849-0.091-1.444-0.27-1.788c-0.178-0.342-0.403-0.514-0.672-0.514C171.976,164.772,171.639,165.596,171.639,167.244"/>
</g>
</svg>
