<?xml version="1.0" encoding="utf-8"?>
<!-- Generator: Adobe Illustrator 16.0.0, SVG Export Plug-In . SVG Version: 6.00 Build 0)  -->
<!DOCTYPE svg PUBLIC "-//W3C//DTD SVG 1.1//EN" "http://www.w3.org/Graphics/SVG/1.1/DTD/svg11.dtd">
<svg version="1.1" id="Layer_1" xmlns="http://www.w3.org/2000/svg" xmlns:xlink="http://www.w3.org/1999/xlink" x="0px" y="0px"
	 width="200px" height="200px" viewBox="0 0 200 200" enable-background="new 0 0 200 200" xml:space="preserve">
<g>
	<rect x="4.999" y="5" fill="#FFFFFF" width="190.002" height="190"/>
	<path fill="none" stroke="#1C181B" d="M195.001,195 M4.999,195h190.002V5H4.999V195z"/>
	<path fill="#056BB3" d="M179.929,101.807c0-4.195-3.408-7.599-7.596-7.599H27.662c-4.191,0-7.595,3.404-7.595,7.599v74.196
		c0,4.188,3.404,7.596,7.595,7.596h144.671c4.188,0,7.596-3.408,7.596-7.596"/>
	<polyline fill="#FFFFFF" points="70.769,100.551 75.269,100.551 83.862,114.353 83.917,114.353 83.917,100.551 88.146,100.551 
		88.146,121.127 83.621,121.127 75.065,107.349 75.01,107.349 75.01,121.127 70.769,121.127 	"/>
	<path fill="#FFFFFF" d="M98.93,105.826c4.694,0,7.727,3.104,7.727,7.866c0,4.729-3.032,7.832-7.727,7.832
		c-4.668,0-7.692-3.104-7.692-7.832C91.237,108.931,94.261,105.826,98.93,105.826 M98.93,118.446c2.796,0,3.629-2.386,3.629-4.754
		c0-2.394-0.833-4.787-3.629-4.787c-2.761,0-3.603,2.394-3.603,4.787C95.327,116.061,96.168,118.446,98.93,118.446"/>
	<polyline fill="#FFFFFF" points="126.338,121.127 122.135,121.127 119.479,111.121 119.424,111.121 116.891,121.127 
		112.648,121.127 107.925,106.225 112.247,106.225 114.983,116.34 115.043,116.34 117.521,106.225 121.496,106.225 124.033,116.314 
		124.093,116.314 126.829,106.225 131.037,106.225 	"/>
	<polyline fill="#FFFFFF" points="47.856,149.284 43.652,149.284 40.996,139.278 40.946,139.278 38.408,149.284 34.167,149.284 
		29.442,134.381 33.765,134.381 36.501,144.497 36.564,144.497 39.038,134.381 43.014,134.381 45.551,144.463 45.614,144.463 
		48.351,134.381 52.554,134.381 	"/>
	<path fill="#FFFFFF" d="M54.115,138.957c0.229-3.832,3.663-4.981,7.003-4.981c2.969,0,6.542,0.668,6.542,4.237v7.747
		c0,1.362,0.148,2.715,0.521,3.324h-4.153c-0.144-0.465-0.262-0.956-0.292-1.446c-1.29,1.354-3.197,1.844-5.016,1.844
		c-2.821,0-5.071-1.412-5.071-4.466c0-3.375,2.538-4.179,5.071-4.525c2.512-0.372,4.847-0.287,4.847-1.962
		c0-1.759-1.209-2.013-2.652-2.013c-1.556,0-2.567,0.634-2.707,2.241 M63.567,141.985c-0.694,0.608-2.136,0.643-3.4,0.862
		c-1.269,0.262-2.419,0.693-2.419,2.19c0,1.531,1.18,1.912,2.508,1.912c3.197,0,3.312-2.538,3.312-3.435V141.985z"/>
	<path fill="#FFFFFF" d="M74,144.438c0.03,1.793,1.531,2.513,3.143,2.513c1.184,0,2.681-0.466,2.681-1.912
		c0-1.234-1.7-1.666-4.639-2.301c-2.36-0.516-4.732-1.353-4.732-3.975c0-3.807,3.294-4.787,6.487-4.787
		c3.256,0,6.255,1.091,6.576,4.753H79.62c-0.114-1.582-1.324-2.013-2.795-2.013c-0.922,0-2.275,0.169-2.275,1.387
		c0,1.463,2.309,1.666,4.644,2.216c2.39,0.542,4.724,1.413,4.724,4.179c0,3.916-3.404,5.185-6.809,5.185
		c-3.451,0-6.826-1.294-7.003-5.244"/>
	<path fill="#FFFFFF" d="M86.302,128.706H90.4v7.747h0.081c1.04-1.675,2.829-2.478,4.36-2.478c4.352,0,5.447,2.444,5.447,6.14v9.169
		h-4.093v-8.424c0-2.444-0.719-3.654-2.622-3.654c-2.225,0-3.172,1.243-3.172,4.263v7.815h-4.098"/>
	<path fill="#FFFFFF" d="M118.76,151.153c-0.896,2.394-2.313,3.375-5.13,3.375c-0.837,0-1.675-0.06-2.508-0.152v-3.366
		c0.778,0.06,1.582,0.169,2.394,0.144c1.413-0.144,1.865-1.615,1.413-2.791l-5.249-13.981h4.382l3.37,10.2h0.06l3.256-10.2h4.238"/>
	<path fill="#FFFFFF" d="M133.6,133.976c4.694,0,7.722,3.112,7.722,7.865c0,4.729-3.027,7.841-7.722,7.841
		c-4.669,0-7.692-3.112-7.692-7.841C125.907,137.088,128.931,133.976,133.6,133.976 M133.6,146.603c2.795,0,3.628-2.394,3.628-4.762
		c0-2.394-0.833-4.787-3.628-4.787c-2.762,0-3.604,2.394-3.604,4.787C129.996,144.209,130.838,146.603,133.6,146.603"/>
	<path fill="#FFFFFF" d="M157.95,149.284h-3.887v-2.081h-0.089c-1.036,1.675-2.82,2.479-4.55,2.479
		c-4.352,0-5.447-2.453-5.447-6.141v-9.16h4.09v8.416c0,2.444,0.723,3.654,2.626,3.654c2.216,0,3.167-1.235,3.167-4.264v-7.807h4.09
		"/>
	<path fill="#FFFFFF" d="M161.067,134.381h3.891v2.766h0.059c0.753-1.877,2.767-3.171,4.754-3.171c0.287,0,0.635,0.059,0.896,0.144
		v3.806c-0.372-0.093-0.981-0.144-1.472-0.144c-2.994,0-4.034,2.157-4.034,4.778v6.725h-4.094"/>
	<path fill="#FFFFFF" d="M59.646,156.854h4.089v7.747h0.089c1.036-1.675,2.821-2.478,4.356-2.478c4.352,0,5.447,2.444,5.447,6.14
		v9.169H69.53v-8.424c0-2.444-0.719-3.654-2.618-3.654c-2.221,0-3.176,1.243-3.176,4.263v7.815h-4.089"/>
	<path fill="#FFFFFF" d="M76.558,167.105c0.237-3.832,3.667-4.981,7.008-4.981c2.969,0,6.542,0.668,6.542,4.237v7.747
		c0,1.362,0.148,2.715,0.516,3.324h-4.148c-0.144-0.465-0.254-0.956-0.284-1.446c-1.302,1.354-3.201,1.844-5.016,1.844
		c-2.829,0-5.07-1.412-5.07-4.466c0-3.375,2.537-4.178,5.07-4.525c2.508-0.372,4.842-0.287,4.842-1.962
		c0-1.759-1.209-2.013-2.651-2.013c-1.561,0-2.567,0.634-2.711,2.241 M86.019,170.134c-0.693,0.608-2.131,0.643-3.4,0.862
		c-1.269,0.262-2.423,0.693-2.423,2.19c0,1.531,1.18,1.912,2.503,1.912c3.202,0,3.32-2.538,3.32-3.435V170.134z"/>
	<path fill="#FFFFFF" d="M93.284,162.529h3.886v2.072h0.089c1.041-1.675,2.825-2.478,4.55-2.478c4.352,0,5.447,2.444,5.447,6.14
		v9.169h-4.09v-8.424c0-2.444-0.723-3.654-2.626-3.654c-2.216,0-3.163,1.243-3.163,4.263v7.815h-4.094"/>
	<path fill="#FFFFFF" d="M121.01,175.521h-0.063c-0.951,1.615-2.618,2.309-4.525,2.309c-4.499,0-6.686-3.865-6.686-7.976
		c0-4.018,2.22-7.73,6.602-7.73c1.755,0,3.488,0.744,4.432,2.216h-0.021h0.056v-7.485h4.098v20.578h-3.891 M117.432,165.202
		c-2.681,0-3.603,2.317-3.603,4.762c0,2.335,1.065,4.787,3.603,4.787c2.711,0,3.515-2.368,3.515-4.82
		C120.946,167.52,120.084,165.202,117.432,165.202"/>
	<path fill="#FFFFFF" d="M131.151,172.586c0.029,1.793,1.526,2.513,3.138,2.513c1.184,0,2.686-0.466,2.686-1.912
		c0-1.234-1.705-1.666-4.644-2.301c-2.368-0.516-4.724-1.353-4.724-3.975c0-3.807,3.281-4.787,6.487-4.787
		c3.256,0,6.25,1.091,6.567,4.753h-3.891c-0.118-1.582-1.324-2.013-2.8-2.013c-0.922,0-2.271,0.169-2.271,1.387
		c0,1.463,2.306,1.666,4.64,2.216c2.39,0.542,4.724,1.413,4.724,4.179c0,3.916-3.399,5.185-6.8,5.185
		c-3.46,0-6.834-1.294-7.008-5.244"/>
	<g>
		<path fill-rule="evenodd" clip-rule="evenodd" fill="#056BB3" d="M100,87.153c18.27,0,33.079-14.814,33.079-33.069
			c0-18.274-14.81-33.088-33.079-33.088c-18.268,0-33.082,14.814-33.082,33.088C66.918,72.339,81.732,87.153,100,87.153L100,87.153z
			"/>
		<path fill-rule="evenodd" clip-rule="evenodd" fill="#FFFFFF" d="M105.312,37.794l8.678,0.19v-0.871h4.026v6.147h-4.026v-1.262
			l-7.07-0.15l-0.119,0.004l-0.127,0.023l-0.127,0.038l-0.109,0.053l-0.102,0.068l-0.093,0.084l-0.085,0.093l-0.076,0.105
			l-0.051,0.11l-0.042,0.12l-0.025,0.123l-0.009,0.125v0.818h-3.78v-2.749l0.008-0.234l0.025-0.229l0.043-0.226l0.067-0.227
			l0.076-0.22l0.093-0.214l0.11-0.203l0.127-0.195l0.135-0.186l0.152-0.178l0.169-0.163l0.178-0.15l0.194-0.133l0.195-0.125
			l0.211-0.105l0.212-0.089l0.22-0.076l0.229-0.057l0.229-0.034l0.228-0.023L105.312,37.794L105.312,37.794z M118.016,33.806h-4.026
			v2.364h4.026V33.806L118.016,33.806z"/>
		<path fill-rule="evenodd" clip-rule="evenodd" fill="#FFFFFF" d="M108.839,60.863l10.783-5.701l0.136-0.061l0.136-0.049
			l0.144-0.032l0.144-0.013h0.144l0.152,0.017l0.136,0.036l0.144,0.048l0.127,0.062l0.127,0.076l0.11,0.093l0.101,0.102l0.094,0.114
			l0.084,0.121l0.06,0.137l0.051,0.133l0.034,0.142l0.017,0.146v0.142l-0.009,0.15l-0.033,0.142l-0.043,0.133l-0.059,0.135
			l-0.076,0.125l-0.085,0.119l-0.102,0.108l-0.109,0.093l-0.119,0.083l-10.487,6.268l-0.051,0.04l-0.043,0.053l-0.033,0.062
			l-0.025,0.065v0.072l0.017,0.07l0.025,0.063l0.034,0.057l0.059,0.044l0.06,0.036l0.067,0.017l0.067,0.004l0.068-0.008l0.067-0.023
			l9.719-5.103l0.135-0.061l0.127-0.044l0.144-0.03l0.145-0.015h0.151l0.145,0.019l0.144,0.034l0.136,0.049l0.135,0.063l0.118,0.078
			l0.11,0.089l0.102,0.102l0.102,0.116l0.067,0.118l0.067,0.138l0.051,0.133l0.034,0.142l0.017,0.146v0.142l-0.017,0.15
			l-0.025,0.142l-0.042,0.133l-0.06,0.138l-0.076,0.123l-0.093,0.121l-0.093,0.102l-0.11,0.093l-0.127,0.081l-10.59,6.331
			l-0.059,0.047l-0.042,0.051l-0.034,0.063l-0.017,0.063v0.068l0.008,0.067l0.025,0.068l0.043,0.051l0.05,0.051l0.06,0.034
			l0.067,0.017l0.068,0.008l0.067-0.013l0.067-0.021l7.494-3.846l0.136-0.062l0.144-0.044l0.152-0.032l0.144-0.008l0.152,0.004
			l0.152,0.027l0.144,0.036l0.136,0.057l0.135,0.066l0.118,0.088l0.119,0.102l0.102,0.116l0.084,0.119l0.076,0.133l0.051,0.137
			l0.042,0.146l0.025,0.144l0.009,0.152l-0.009,0.152L120.849,66l-0.042,0.14l-0.06,0.14l-0.076,0.131l-0.093,0.123l-0.102,0.11
			l-0.109,0.097l-0.127,0.089l-9.786,5.857l-0.288,0.182l-0.287,0.199l-0.279,0.22l-0.474,0.381l-0.49,0.372l-0.508,0.355
			l-0.508,0.342l-0.516,0.326l-0.533,0.313l-0.532,0.288l-0.559,0.288l-0.55,0.262l-0.558,0.245l-0.575,0.229l-0.575,0.22
			l-0.584,0.195l-0.584,0.177l-0.592,0.169l-0.601,0.148l-0.601,0.127l-0.6,0.114l-0.474,0.084l-0.467,0.11l-0.457,0.119
			l-0.461,0.135l-0.457,0.152l-0.448,0.169l-0.44,0.186l-0.436,0.195l-0.427,0.211l-0.423,0.232l-1.708,0.96l-4.436-7.875
			l-0.643-0.11l-0.634-0.135l-0.63-0.152l-0.63-0.178l-0.622-0.186l-0.613-0.211l-0.453-0.152l-0.461-0.144l-0.457-0.119
			l-0.47-0.102l-0.469-0.093l-0.474-0.076L81.999,70.8l-0.482-0.038l-0.469-0.021l-0.478-0.008h-1.971V58.916h0.964l0.351-0.008
			l0.351-0.032l0.351-0.04l0.342-0.062l0.347-0.084l0.334-0.093l0.334-0.114l0.326-0.129l0.321-0.15l0.309-0.165l0.309-0.175
			l0.292-0.195l0.288-0.205l0.271-0.224l0.258-0.235l0.25-0.247l0.241-0.267l0.271-0.305l0.288-0.298l0.3-0.288l0.313-0.265
			l0.321-0.262l0.334-0.243l0.338-0.235l0.355-0.211l0.36-0.203l8.082-4.312l0.131-0.057l0.14-0.04l0.135-0.025l0.152-0.004
			l0.135,0.021l0.144,0.031l0.135,0.053l0.123,0.065l0.114,0.089l0.105,0.097l0.093,0.114l0.072,0.125l0.055,0.129l0.038,0.142
			l0.021,0.142v0.146l-0.021,0.142l-0.034,0.137l-0.114,0.317l-0.131,0.307l-0.148,0.296l-0.165,0.292l-0.182,0.279l-0.19,0.271
			l-0.211,0.256l-0.22,0.251l-0.233,0.239l-0.253,0.218l-0.258,0.211l-0.271,0.195l-0.275,0.178l-0.296,0.169L91.87,56l-0.081,0.053
			l-0.076,0.065l-0.063,0.076l-0.046,0.084l-0.038,0.093L91.54,56.47l-0.004,0.097l0.008,0.097l0.025,0.097l0.038,0.089l0.051,0.087
			l0.063,0.076l0.076,0.061l0.088,0.053l0.089,0.041l0.097,0.019l0.098,0.008h3.857l2.178-3.417l0.084-0.114l0.102-0.102
			l0.119-0.093l0.118-0.072l0.131-0.057l0.139-0.04l0.144-0.021h0.144l0.146,0.017l0.135,0.04l0.136,0.053l0.126,0.07l0.11,0.084
			l0.102,0.106l0.085,0.116l0.076,0.123l0.051,0.138l0.042,0.137l0.051,0.332l0.034,0.34l0.017,0.34v0.347l-0.017,0.336l-0.043,0.34
			l-0.059,0.336l-0.076,0.336l-0.11,0.324l6.741,0.243l8.475-4.373l0.136-0.062l0.144-0.044l0.144-0.027l0.152-0.013l0.145,0.004
			l0.152,0.023l0.144,0.04l0.144,0.053l0.127,0.069l0.127,0.085l0.109,0.097l0.102,0.11l0.094,0.121l0.067,0.133l0.06,0.135
			l0.051,0.142l0.017,0.146l0.009,0.152v0.154l-0.025,0.146l-0.043,0.142l-0.059,0.142l-0.068,0.129l-0.093,0.123l-0.093,0.11
			l-0.119,0.104l-0.118,0.082l-7.984,4.957l-0.051,0.044l-0.042,0.049l-0.034,0.063l-0.017,0.07v0.065l0.009,0.067l0.033,0.066
			l0.034,0.053l0.06,0.049l0.059,0.031l0.067,0.021l0.068,0.006l0.067-0.019L108.839,60.863L108.839,60.863z M98.64,61.938
			l-0.089,0.044l-0.093,0.023l-0.097,0.017l-0.106-0.009l-0.093-0.019l-0.097-0.029l-0.084-0.049l-0.076-0.057l-0.067-0.072
			l-0.06-0.084l-0.038-0.089l-0.029-0.097l-0.017-0.098l0.004-0.097l0.021-0.102l0.03-0.089l0.046-0.086l1.537-2.413l0.144-0.243
			l0.144-0.248l0.347-0.004l5.084,0.184L98.64,61.938L98.64,61.938z M93.282,61.5l-0.216,0.353l-0.203,0.359l-0.178,0.373
			l-0.173,0.372l-0.152,0.385l-0.139,0.389l-0.123,0.393l-0.105,0.404l-0.089,0.402l-0.076,0.34l-0.097,0.341l-0.11,0.334
			l-0.127,0.326l-0.144,0.326l-0.165,0.313l-0.178,0.3l-0.19,0.296l-0.207,0.288l-0.216,0.275l-0.237,0.262l-0.25,0.245
			l-0.258,0.237l-0.275,0.229l-0.279,0.211l-0.292,0.194l-0.3,0.178l-0.842,0.474l0.761,1.354l-0.58-0.127l-0.571-0.144
			l-0.571-0.156l-0.567-0.178l-0.558-0.195l-0.486-0.156L84.6,70.343l-0.49-0.127l-0.499-0.118L83.107,70L82.6,69.929l-0.503-0.068
			l-0.507-0.042l-0.516-0.025l-0.503-0.008h-1.023v-9.925h0.017l0.376-0.011l0.372-0.025l0.381-0.044l0.372-0.062l0.368-0.084
			l0.364-0.093l0.359-0.121l0.355-0.131l0.342-0.15l0.343-0.165l0.334-0.182l0.321-0.199l0.309-0.212l0.3-0.23l0.292-0.239
			l0.279-0.251l0.271-0.275l0.245-0.275l0.284-0.319l0.296-0.296l0.313-0.288l0.317-0.265l0.338-0.262l0.347-0.239l0.351-0.222
			l0.368-0.207l8.078-4.31l0.042-0.015h0.047l0.038,0.011l0.038,0.025l0.021,0.032l0.021,0.04l0.004,0.038l-0.009,0.04l-0.105,0.288
			l-0.119,0.279l-0.139,0.266l-0.152,0.265l-0.169,0.253l-0.182,0.243l-0.199,0.235l-0.208,0.22l-0.224,0.203l-0.232,0.201
			l-0.241,0.176l-0.258,0.165l-0.267,0.15l-2.521,1.345l-0.144,0.089l-0.131,0.102l-0.123,0.116l-0.11,0.123l-0.097,0.138
			l-0.076,0.15l-0.063,0.15l-0.051,0.165l-0.03,0.163l-0.008,0.169l0.004,0.167l0.025,0.165l0.038,0.163l0.055,0.159l0.081,0.148
			l0.084,0.146l0.106,0.131l0.118,0.121l0.127,0.105l0.14,0.089L91.519,58l0.161,0.062l0.157,0.04l0.169,0.029l0.165,0.011h3.256
			L93.282,61.5L93.282,61.5z"/>
		<polygon fill-rule="evenodd" clip-rule="evenodd" fill="#FFFFFF" points="104.635,52.636 104.626,52.534 104.601,52.441 
			104.559,52.348 104.5,52.274 104.424,52.203 104.348,52.146 104.254,52.101 104.161,52.078 104.06,52.065 103.967,52.078 
			103.874,52.101 103.78,52.146 103.696,52.203 103.628,52.274 103.577,52.348 103.526,52.441 103.51,52.534 103.493,52.636 
			103.51,52.733 103.526,52.826 103.577,52.919 103.628,53 103.696,53.069 103.78,53.122 103.874,53.167 103.967,53.194 
			104.06,53.203 104.161,53.194 104.254,53.167 104.348,53.122 104.424,53.069 104.5,53 104.559,52.919 104.601,52.826 
			104.626,52.733 104.635,52.636 		"/>
		<polygon fill-rule="evenodd" clip-rule="evenodd" fill="#FFFFFF" points="104.635,45.261 104.626,45.167 104.601,45.07 
			104.559,44.981 104.5,44.897 104.424,44.825 104.348,44.772 104.254,44.732 104.161,44.707 104.06,44.698 103.967,44.707 
			103.874,44.732 103.78,44.772 103.696,44.825 103.628,44.897 103.577,44.981 103.526,45.07 103.51,45.167 103.493,45.261 
			103.51,45.362 103.526,45.459 103.577,45.548 103.628,45.63 103.696,45.698 103.78,45.755 103.874,45.8 103.967,45.821 
			104.06,45.829 104.161,45.821 104.254,45.8 104.348,45.755 104.424,45.698 104.5,45.63 104.559,45.548 104.601,45.459 
			104.626,45.362 104.635,45.261 		"/>
		<polygon fill-rule="evenodd" clip-rule="evenodd" fill="#FFFFFF" points="104.635,47.72 104.626,47.623 104.601,47.529 
			104.559,47.437 104.5,47.356 104.424,47.286 104.348,47.229 104.254,47.189 104.161,47.162 104.06,47.153 103.967,47.162 
			103.874,47.189 103.78,47.229 103.696,47.286 103.628,47.356 103.577,47.437 103.526,47.529 103.51,47.623 103.493,47.72 
			103.51,47.821 103.526,47.914 103.577,48.003 103.628,48.083 103.696,48.153 103.78,48.21 103.874,48.255 103.967,48.278 
			104.06,48.291 104.161,48.278 104.254,48.255 104.348,48.21 104.424,48.153 104.5,48.083 104.559,48.003 104.601,47.914 
			104.626,47.821 104.635,47.72 		"/>
		<polygon fill-rule="evenodd" clip-rule="evenodd" fill="#FFFFFF" points="104.635,50.177 104.626,50.08 104.601,49.982 
			104.559,49.897 104.5,49.813 104.424,49.743 104.348,49.684 104.254,49.65 104.161,49.619 104.06,49.61 103.967,49.619 
			103.874,49.65 103.78,49.684 103.696,49.743 103.628,49.813 103.577,49.897 103.526,49.982 103.51,50.08 103.493,50.177 
			103.51,50.278 103.526,50.371 103.577,50.46 103.628,50.542 103.696,50.614 103.78,50.671 103.874,50.708 103.967,50.737 
			104.06,50.748 104.161,50.737 104.254,50.708 104.348,50.671 104.424,50.614 104.5,50.542 104.559,50.46 104.601,50.371 
			104.626,50.278 104.635,50.177 		"/>
		<polygon fill-rule="evenodd" clip-rule="evenodd" fill="#FFFFFF" points="102.309,44.795 102.301,44.694 102.275,44.597 
			102.232,44.508 102.182,44.423 102.105,44.357 102.021,44.298 101.937,44.26 101.835,44.233 101.742,44.225 101.641,44.233 
			101.548,44.26 101.463,44.298 101.379,44.357 101.303,44.423 101.252,44.508 101.201,44.597 101.184,44.694 101.176,44.795 
			101.184,44.888 101.201,44.985 101.252,45.074 101.303,45.157 101.379,45.225 101.463,45.282 101.548,45.326 101.641,45.347 
			101.742,45.358 101.835,45.347 101.937,45.326 102.021,45.282 102.105,45.225 102.182,45.157 102.232,45.074 102.275,44.985 
			102.301,44.888 102.309,44.795 		"/>
		<polygon fill-rule="evenodd" clip-rule="evenodd" fill="#FFFFFF" points="101.354,47.056 101.336,46.954 101.319,46.857 
			101.277,46.768 101.218,46.688 101.142,46.618 101.065,46.561 100.973,46.521 100.88,46.493 100.778,46.485 100.685,46.493 
			100.583,46.521 100.499,46.561 100.414,46.618 100.347,46.688 100.287,46.768 100.245,46.857 100.229,46.954 100.22,47.056 
			100.229,47.149 100.245,47.246 100.287,47.339 100.347,47.419 100.414,47.485 100.499,47.542 100.583,47.586 100.685,47.61 
			100.778,47.618 100.88,47.61 100.973,47.586 101.065,47.542 101.142,47.485 101.218,47.419 101.277,47.339 101.319,47.246 
			101.336,47.149 101.354,47.056 		"/>
		<polygon fill-rule="evenodd" clip-rule="evenodd" fill="#FFFFFF" points="100.389,49.318 100.381,49.215 100.355,49.124 
			100.312,49.031 100.254,48.95 100.186,48.885 100.102,48.826 100.017,48.781 99.915,48.756 99.822,48.748 99.721,48.756 
			99.628,48.781 99.543,48.826 99.458,48.885 99.391,48.95 99.332,49.031 99.29,49.124 99.264,49.215 99.255,49.318 99.264,49.416 
			99.29,49.509 99.332,49.602 99.391,49.68 99.458,49.748 99.543,49.805 99.628,49.849 99.721,49.87 99.822,49.878 99.915,49.87 
			100.017,49.849 100.102,49.805 100.186,49.748 100.254,49.68 100.312,49.602 100.355,49.509 100.381,49.416 100.389,49.318 		"/>
		<polygon fill-rule="evenodd" clip-rule="evenodd" fill="#FFFFFF" points="99.433,51.579 99.425,51.477 99.399,51.384 
			99.357,51.291 99.298,51.211 99.222,51.145 99.144,51.088 99.055,51.044 98.961,51.021 98.86,51.012 98.767,51.021 98.67,51.044 
			98.577,51.088 98.497,51.145 98.424,51.211 98.374,51.291 98.332,51.384 98.306,51.477 98.298,51.579 98.306,51.676 
			98.332,51.769 98.374,51.862 98.424,51.942 98.497,52.008 98.577,52.065 98.67,52.109 98.767,52.137 98.86,52.146 98.961,52.137 
			99.055,52.109 99.144,52.065 99.222,52.008 99.298,51.942 99.357,51.862 99.399,51.769 99.425,51.676 99.433,51.579 		"/>
		<polygon fill-rule="evenodd" clip-rule="evenodd" fill="#FFFFFF" points="109.837,51.579 109.828,51.477 109.803,51.384 
			109.761,51.291 109.701,51.211 109.625,51.145 109.549,51.088 109.456,51.044 109.363,51.021 109.262,51.012 109.168,51.021 
			109.075,51.044 108.982,51.088 108.897,51.145 108.83,51.211 108.779,51.291 108.737,51.384 108.712,51.477 108.694,51.579 
			108.712,51.676 108.737,51.769 108.779,51.862 108.83,51.942 108.897,52.008 108.982,52.065 109.075,52.109 109.168,52.137 
			109.262,52.146 109.363,52.137 109.456,52.109 109.549,52.065 109.625,52.008 109.701,51.942 109.761,51.862 109.803,51.769 
			109.828,51.676 109.837,51.579 		"/>
		<polygon fill-rule="evenodd" clip-rule="evenodd" fill="#FFFFFF" points="108.872,49.318 108.864,49.215 108.839,49.124 
			108.796,49.031 108.737,48.95 108.669,48.885 108.593,48.826 108.5,48.781 108.398,48.756 108.306,48.748 108.204,48.756 
			108.111,48.781 108.019,48.826 107.942,48.885 107.874,48.95 107.815,49.031 107.772,49.124 107.747,49.215 107.739,49.318 
			107.747,49.416 107.772,49.509 107.815,49.602 107.874,49.68 107.942,49.748 108.019,49.805 108.111,49.849 108.204,49.87 
			108.306,49.878 108.398,49.87 108.5,49.849 108.593,49.805 108.669,49.748 108.737,49.68 108.796,49.602 108.839,49.509 
			108.864,49.416 108.872,49.318 		"/>
		<polygon fill-rule="evenodd" clip-rule="evenodd" fill="#FFFFFF" points="107.917,47.056 107.908,46.954 107.883,46.857 
			107.841,46.768 107.781,46.688 107.714,46.618 107.629,46.561 107.544,46.521 107.443,46.493 107.342,46.485 107.248,46.493 
			107.155,46.521 107.062,46.561 106.978,46.618 106.91,46.688 106.859,46.768 106.817,46.857 106.783,46.954 106.783,47.056 
			106.783,47.149 106.817,47.246 106.859,47.339 106.91,47.419 106.978,47.485 107.062,47.542 107.155,47.586 107.248,47.61 
			107.342,47.618 107.443,47.61 107.544,47.586 107.629,47.542 107.714,47.485 107.781,47.419 107.841,47.339 107.883,47.246 
			107.908,47.149 107.917,47.056 		"/>
		<polygon fill-rule="evenodd" clip-rule="evenodd" fill="#FFFFFF" points="106.952,44.795 106.944,44.694 106.919,44.597 
			106.876,44.508 106.817,44.423 106.749,44.357 106.673,44.298 106.58,44.26 106.487,44.233 106.386,44.225 106.284,44.233 
			106.191,44.26 106.098,44.298 106.022,44.357 105.954,44.423 105.896,44.508 105.853,44.597 105.827,44.694 105.819,44.795 
			105.827,44.888 105.853,44.985 105.896,45.074 105.954,45.157 106.022,45.225 106.098,45.282 106.191,45.326 106.284,45.347 
			106.386,45.358 106.487,45.347 106.58,45.326 106.673,45.282 106.749,45.225 106.817,45.157 106.876,45.074 106.919,44.985 
			106.944,44.888 106.952,44.795 		"/>
	</g>
</g>
</svg>
