<?xml version="1.0" encoding="utf-8"?>
<!-- Generator: Adobe Illustrator 16.0.0, SVG Export Plug-In . SVG Version: 6.00 Build 0)  -->
<!DOCTYPE svg PUBLIC "-//W3C//DTD SVG 1.1//EN" "http://www.w3.org/Graphics/SVG/1.1/DTD/svg11.dtd">
<svg version="1.1" id="Layer_1" xmlns="http://www.w3.org/2000/svg" xmlns:xlink="http://www.w3.org/1999/xlink" x="0px" y="0px"
	 width="200px" height="200px" viewBox="0 0 200 200" enable-background="new 0 0 200 200" xml:space="preserve">
<g>
	<path fill-rule="evenodd" clip-rule="evenodd" fill="#056BB3" d="M100.005,194.994c52.468,0,94.995-42.545,94.995-94.966
		c0-52.48-42.527-95.021-94.995-95.021C47.544,5.006,5,47.548,5,100.028C5,152.449,47.544,194.994,100.005,194.994L100.005,194.994z
		"/>
	<path fill-rule="evenodd" clip-rule="evenodd" fill="#FFFFFF" d="M115.257,53.244l24.921,0.547v-2.501h11.565v17.654h-11.565
		v-3.626l-20.305-0.432l-0.342,0.014l-0.365,0.064l-0.364,0.109l-0.314,0.151l-0.291,0.196l-0.264,0.241l-0.247,0.27l-0.219,0.303
		l-0.146,0.317l-0.118,0.345l-0.073,0.353l-0.027,0.356v2.35h-10.854v-7.895l0.022-0.673l0.072-0.656l0.124-0.648l0.19-0.65
		l0.219-0.631l0.27-0.614l0.313-0.583l0.365-0.558l0.387-0.536l0.438-0.51l0.488-0.466l0.51-0.432l0.556-0.381l0.561-0.359
		l0.606-0.303l0.611-0.255l0.628-0.219l0.656-0.166l0.656-0.096l0.656-0.067L115.257,53.244L115.257,53.244z M151.743,41.793
		h-11.565v6.79h11.565V41.793L151.743,41.793z"/>
	<path fill-rule="evenodd" clip-rule="evenodd" fill="#FFFFFF" d="M125.387,119.494l30.967-16.37l0.393-0.177l0.388-0.14l0.415-0.09
		l0.409-0.037h0.415l0.438,0.048l0.387,0.104l0.415,0.14l0.365,0.177l0.364,0.219l0.314,0.267l0.291,0.292l0.27,0.328l0.241,0.345
		l0.168,0.396l0.146,0.381l0.101,0.407l0.045,0.42v0.407l-0.022,0.432l-0.096,0.407l-0.123,0.381l-0.168,0.39l-0.219,0.356
		l-0.247,0.342l-0.292,0.309l-0.313,0.267l-0.343,0.238L129.98,127.73l-0.146,0.115l-0.124,0.151l-0.095,0.177l-0.073,0.188v0.205
		l0.045,0.202l0.073,0.183l0.101,0.162l0.168,0.129l0.169,0.104l0.196,0.048l0.19,0.012l0.196-0.022l0.196-0.067l27.91-14.653
		l0.387-0.177l0.365-0.126l0.409-0.087l0.415-0.042h0.438l0.415,0.056l0.409,0.096l0.393,0.14l0.388,0.183l0.336,0.225l0.32,0.255
		l0.291,0.292l0.292,0.333l0.19,0.34l0.196,0.396l0.146,0.384l0.095,0.407l0.051,0.417v0.407l-0.051,0.432l-0.072,0.407
		l-0.118,0.381l-0.174,0.396l-0.219,0.354l-0.264,0.345l-0.27,0.292l-0.313,0.267l-0.365,0.232l-30.411,18.179l-0.169,0.135
		l-0.123,0.146l-0.096,0.183l-0.05,0.182v0.194l0.022,0.193l0.072,0.196l0.124,0.146l0.146,0.146l0.168,0.096l0.196,0.051
		l0.196,0.022l0.191-0.037l0.196-0.059l21.521-11.047l0.387-0.177l0.415-0.126l0.438-0.093l0.409-0.022l0.438,0.012l0.438,0.078
		l0.415,0.104l0.388,0.163l0.387,0.19l0.342,0.253l0.343,0.291l0.291,0.334l0.241,0.342l0.219,0.382l0.146,0.396l0.117,0.418
		l0.073,0.415l0.028,0.435l-0.028,0.438l-0.073,0.427l-0.117,0.4l-0.174,0.401l-0.219,0.376l-0.264,0.354l-0.292,0.313l-0.314,0.28
		l-0.364,0.256l-28.106,16.818l-0.824,0.524l-0.825,0.569l-0.802,0.631l-1.363,1.094l-1.407,1.068l-1.459,1.021l-1.458,0.984
		l-1.48,0.934l-1.531,0.9l-1.526,0.824l-1.604,0.827l-1.582,0.752l-1.599,0.704l-1.654,0.656l-1.649,0.631l-1.677,0.561
		l-1.678,0.508l-1.699,0.488l-1.726,0.423l-1.725,0.365l-1.724,0.328l-1.36,0.243l-1.342,0.314l-1.312,0.342l-1.324,0.388
		l-1.311,0.438l-1.287,0.485l-1.263,0.535l-1.251,0.559l-1.227,0.608l-1.214,0.667l-4.906,2.757l-12.74-22.615l-1.847-0.314
		l-1.821-0.39l-1.811-0.438l-1.809-0.51l-1.785-0.533l-1.761-0.608l-1.3-0.438l-1.324-0.412l-1.311-0.34l-1.349-0.292l-1.348-0.266
		l-1.36-0.219l-1.36-0.172l-1.385-0.109l-1.348-0.062l-1.373-0.022h-5.659v-33.934h2.769l1.008-0.022l1.008-0.093l1.008-0.115
		l0.983-0.177l0.996-0.241l0.96-0.27l0.959-0.328l0.935-0.37l0.923-0.429l0.886-0.474l0.887-0.505l0.837-0.559l0.826-0.589
		l0.777-0.645l0.742-0.674l0.716-0.709l0.691-0.766l0.778-0.875l0.826-0.855l0.862-0.827l0.899-0.76l0.923-0.752l0.959-0.698
		l0.972-0.673l1.02-0.609l1.034-0.583l23.208-12.382l0.375-0.163l0.401-0.115l0.388-0.073l0.438-0.014l0.389,0.062l0.414,0.09
		l0.388,0.154l0.352,0.188l0.328,0.255l0.303,0.278l0.268,0.328l0.206,0.359l0.159,0.37l0.109,0.407l0.06,0.407v0.42l-0.06,0.407
		l-0.097,0.393l-0.328,0.912l-0.377,0.88l-0.425,0.85l-0.474,0.838l-0.521,0.802l-0.547,0.776L89.08,97.47l-0.631,0.724
		l-0.669,0.685l-0.728,0.625l-0.742,0.609l-0.777,0.558l-0.79,0.51l-0.85,0.485l-7.239,3.861l-0.231,0.154l-0.219,0.188
		l-0.182,0.219l-0.133,0.241l-0.109,0.266l-0.073,0.281l-0.011,0.28l0.024,0.277l0.073,0.28l0.109,0.256l0.146,0.249l0.182,0.219
		l0.219,0.174l0.254,0.151l0.255,0.118l0.279,0.054l0.28,0.024h11.077l6.254-9.812l0.243-0.328l0.292-0.292l0.341-0.267l0.339-0.208
		l0.377-0.166l0.4-0.115l0.414-0.059h0.412l0.419,0.048l0.389,0.115l0.39,0.151l0.363,0.202l0.315,0.241l0.292,0.306l0.244,0.333
		l0.219,0.351l0.146,0.396l0.12,0.396l0.146,0.954l0.098,0.976l0.048,0.979v0.995l-0.048,0.965l-0.123,0.979l-0.168,0.965
		l-0.219,0.965l-0.317,0.931l19.36,0.698L143.678,97.1l0.387-0.177l0.415-0.126l0.409-0.079l0.438-0.037l0.416,0.011l0.438,0.067
		l0.415,0.115l0.409,0.151l0.364,0.199l0.364,0.244l0.314,0.281l0.292,0.314l0.269,0.348l0.197,0.381l0.168,0.39l0.146,0.406
		l0.051,0.418l0.022,0.438v0.443l-0.073,0.42l-0.123,0.407l-0.169,0.406l-0.196,0.37l-0.263,0.351l-0.27,0.317l-0.343,0.297
		l-0.336,0.235l-22.93,14.235l-0.146,0.127l-0.124,0.14l-0.095,0.183l-0.051,0.202v0.188l0.028,0.193l0.095,0.188l0.096,0.151
		l0.174,0.14l0.168,0.09l0.191,0.062l0.196,0.02l0.196-0.056L125.387,119.494L125.387,119.494z M96.1,122.579l-0.255,0.129
		l-0.267,0.067l-0.279,0.048l-0.304-0.025l-0.268-0.054l-0.279-0.084l-0.243-0.14l-0.219-0.166l-0.193-0.205l-0.171-0.243
		l-0.109-0.256l-0.084-0.277l-0.049-0.28l0.013-0.28l0.061-0.292l0.085-0.255l0.133-0.247l4.414-6.93l0.414-0.698l0.413-0.71
		l0.995-0.014l14.599,0.529L96.1,122.579L96.1,122.579z M80.712,121.322l-0.62,1.016l-0.583,1.032l-0.51,1.068l-0.498,1.068
		l-0.438,1.104l-0.4,1.119l-0.354,1.128l-0.303,1.161l-0.255,1.152l-0.219,0.979l-0.279,0.979l-0.315,0.959l-0.365,0.934
		l-0.414,0.937l-0.473,0.897l-0.51,0.861l-0.547,0.853l-0.595,0.824l-0.62,0.791l-0.68,0.752l-0.716,0.703l-0.741,0.682l-0.79,0.656
		l-0.802,0.606l-0.837,0.558l-0.862,0.511l-2.417,1.36l2.186,3.887l-1.665-0.364l-1.639-0.413l-1.639-0.448l-1.628-0.511
		l-1.603-0.561l-1.397-0.449l-1.409-0.438l-1.408-0.364l-1.433-0.339l-1.446-0.278l-1.457-0.207l-1.446-0.193l-1.457-0.124
		l-1.482-0.072l-1.446-0.022h-2.939v-28.505h0.049l1.082-0.031l1.068-0.073l1.094-0.126l1.068-0.177l1.056-0.244l1.044-0.266
		l1.032-0.346l1.021-0.378l0.983-0.43l0.984-0.474l0.959-0.521l0.923-0.572l0.887-0.608l0.863-0.662l0.837-0.685l0.802-0.724
		l0.777-0.788l0.704-0.79l0.815-0.918l0.85-0.85l0.899-0.824l0.912-0.76l0.97-0.755l0.997-0.684l1.008-0.64l1.056-0.595
		l23.197-12.376l0.121-0.042h0.135l0.109,0.031l0.108,0.073l0.062,0.092l0.061,0.115l0.013,0.109l-0.025,0.115l-0.303,0.825
		l-0.341,0.802l-0.4,0.766l-0.438,0.76l-0.486,0.727l-0.521,0.698l-0.571,0.676l-0.596,0.631l-0.644,0.583l-0.667,0.575
		l-0.693,0.505l-0.74,0.474l-0.766,0.432l-7.238,3.862l-0.412,0.256l-0.377,0.291l-0.352,0.334l-0.315,0.351l-0.279,0.396
		l-0.219,0.432l-0.183,0.432l-0.146,0.475l-0.086,0.465l-0.023,0.488L73,107.521l0.073,0.472l0.109,0.468l0.157,0.457l0.231,0.424
		l0.243,0.421l0.304,0.376l0.339,0.345l0.365,0.303l0.401,0.255l0.425,0.233l0.461,0.177l0.45,0.114l0.485,0.084l0.474,0.031h9.352
		L80.712,121.322L80.712,121.322z"/>
	<polygon fill-rule="evenodd" clip-rule="evenodd" fill="#FFFFFF" points="113.316,95.866 113.288,95.575 113.215,95.308 
		113.098,95.042 112.929,94.829 112.71,94.624 112.491,94.458 112.223,94.332 111.953,94.265 111.661,94.229 111.397,94.265 
		111.129,94.332 110.859,94.458 110.618,94.624 110.422,94.829 110.276,95.042 110.13,95.308 110.085,95.575 110.035,95.866 
		110.085,96.146 110.13,96.413 110.276,96.682 110.422,96.912 110.618,97.111 110.859,97.263 111.129,97.392 111.397,97.47 
		111.661,97.496 111.953,97.47 112.223,97.392 112.491,97.263 112.71,97.111 112.929,96.912 113.098,96.682 113.215,96.413 
		113.288,96.146 113.316,95.866 	"/>
	<polygon fill-rule="evenodd" clip-rule="evenodd" fill="#FFFFFF" points="113.316,74.687 113.288,74.42 113.215,74.14 
		113.098,73.885 112.929,73.644 112.71,73.436 112.491,73.284 112.223,73.169 111.953,73.097 111.661,73.071 111.397,73.097 
		111.129,73.169 110.859,73.284 110.618,73.436 110.422,73.644 110.276,73.885 110.13,74.14 110.085,74.42 110.035,74.687 
		110.085,74.979 110.13,75.259 110.276,75.511 110.422,75.75 110.618,75.943 110.859,76.108 111.129,76.235 111.397,76.296 
		111.661,76.319 111.953,76.296 112.223,76.235 112.491,76.108 112.71,75.943 112.929,75.75 113.098,75.511 113.215,75.259 
		113.288,74.979 113.316,74.687 	"/>
	<polygon fill-rule="evenodd" clip-rule="evenodd" fill="#FFFFFF" points="113.316,81.749 113.288,81.471 113.215,81.202 
		113.098,80.935 112.929,80.705 112.71,80.503 112.491,80.34 112.223,80.226 111.953,80.147 111.661,80.122 111.397,80.147 
		111.129,80.226 110.859,80.34 110.618,80.503 110.422,80.705 110.276,80.935 110.13,81.202 110.085,81.471 110.035,81.749 
		110.085,82.04 110.13,82.307 110.276,82.562 110.422,82.794 110.618,82.994 110.859,83.159 111.129,83.285 111.397,83.353 
		111.661,83.389 111.953,83.353 112.223,83.285 112.491,83.159 112.71,82.994 112.929,82.794 113.098,82.562 113.215,82.307 
		113.288,82.04 113.316,81.749 	"/>
	<polygon fill-rule="evenodd" clip-rule="evenodd" fill="#FFFFFF" points="113.316,88.805 113.288,88.527 113.215,88.247 
		113.098,88.002 112.929,87.761 112.71,87.559 112.491,87.391 112.223,87.293 111.953,87.203 111.661,87.178 111.397,87.203 
		111.129,87.293 110.859,87.391 110.618,87.559 110.422,87.761 110.276,88.002 110.13,88.247 110.085,88.527 110.035,88.805 
		110.085,89.096 110.13,89.363 110.276,89.618 110.422,89.856 110.618,90.061 110.859,90.227 111.129,90.33 111.397,90.414 
		111.661,90.445 111.953,90.414 112.223,90.33 112.491,90.227 112.71,90.061 112.929,89.856 113.098,89.618 113.215,89.363 
		113.288,89.096 113.316,88.805 	"/>
	<polygon fill-rule="evenodd" clip-rule="evenodd" fill="#FFFFFF" points="106.636,73.352 106.613,73.06 106.541,72.78 
		106.417,72.524 106.271,72.283 106.053,72.093 105.812,71.924 105.564,71.815 105.272,71.736 105.01,71.711 104.718,71.736 
		104.448,71.815 104.207,71.924 103.966,72.093 103.747,72.283 103.602,72.524 103.456,72.78 103.405,73.06 103.383,73.352 
		103.405,73.618 103.456,73.896 103.602,74.151 103.747,74.39 103.966,74.583 104.207,74.749 104.448,74.875 104.718,74.937 
		105.01,74.967 105.272,74.937 105.564,74.875 105.812,74.749 106.053,74.583 106.271,74.39 106.417,74.151 106.541,73.896 
		106.613,73.618 106.636,73.352 	"/>
	<polygon fill-rule="evenodd" clip-rule="evenodd" fill="#FFFFFF" points="103.894,79.841 103.843,79.55 103.792,79.272 
		103.675,79.017 103.5,78.787 103.281,78.585 103.062,78.422 102.798,78.305 102.531,78.226 102.24,78.204 101.971,78.226 
		101.679,78.305 101.438,78.422 101.193,78.585 101,78.787 100.829,79.017 100.708,79.272 100.661,79.55 100.636,79.841 
		100.661,80.11 100.708,80.388 100.829,80.655 101,80.887 101.193,81.075 101.438,81.238 101.679,81.367 101.971,81.434 
		102.24,81.457 102.531,81.434 102.798,81.367 103.062,81.238 103.281,81.075 103.5,80.887 103.675,80.655 103.792,80.388 
		103.843,80.11 103.894,79.841 	"/>
	<polygon fill-rule="evenodd" clip-rule="evenodd" fill="#FFFFFF" points="101.121,86.339 101.099,86.042 101.025,85.781 
		100.902,85.515 100.734,85.282 100.538,85.094 100.296,84.926 100.052,84.797 99.761,84.724 99.494,84.702 99.203,84.724 
		98.936,84.797 98.692,84.926 98.45,85.094 98.255,85.282 98.085,85.515 97.964,85.781 97.892,86.042 97.866,86.339 97.892,86.62 
		97.964,86.886 98.085,87.153 98.255,87.377 98.45,87.573 98.692,87.736 98.936,87.865 99.203,87.924 99.494,87.949 99.761,87.924 
		100.052,87.865 100.296,87.736 100.538,87.573 100.734,87.377 100.902,87.153 101.025,86.886 101.099,86.62 101.121,86.339 	"/>
	<polygon fill-rule="evenodd" clip-rule="evenodd" fill="#FFFFFF" points="98.376,92.832 98.353,92.54 98.28,92.273 98.158,92.004 
		97.988,91.774 97.77,91.586 97.545,91.421 97.29,91.295 97.022,91.228 96.732,91.205 96.464,91.228 96.185,91.295 95.917,91.421 
		95.687,91.586 95.479,91.774 95.335,92.004 95.213,92.273 95.14,92.54 95.116,92.832 95.14,93.109 95.213,93.378 95.335,93.645 
		95.479,93.875 95.687,94.063 95.917,94.229 96.185,94.354 96.464,94.433 96.732,94.458 97.022,94.433 97.29,94.354 97.545,94.229 
		97.77,94.063 97.988,93.875 98.158,93.645 98.28,93.378 98.353,93.109 98.376,92.832 	"/>
	<polygon fill-rule="evenodd" clip-rule="evenodd" fill="#FFFFFF" points="128.253,92.832 128.23,92.54 128.157,92.273 
		128.034,92.004 127.866,91.774 127.647,91.586 127.429,91.421 127.159,91.295 126.896,91.228 126.604,91.205 126.335,91.228 
		126.065,91.295 125.802,91.421 125.555,91.586 125.364,91.774 125.219,92.004 125.095,92.273 125.022,92.54 124.972,92.832 
		125.022,93.109 125.095,93.378 125.219,93.645 125.364,93.875 125.555,94.063 125.802,94.229 126.065,94.354 126.335,94.433 
		126.604,94.458 126.896,94.433 127.159,94.354 127.429,94.229 127.647,94.063 127.866,93.875 128.034,93.645 128.157,93.378 
		128.23,93.109 128.253,92.832 	"/>
	<polygon fill-rule="evenodd" clip-rule="evenodd" fill="#FFFFFF" points="125.482,86.339 125.46,86.042 125.387,85.781 
		125.264,85.515 125.095,85.282 124.898,85.094 124.68,84.926 124.416,84.797 124.125,84.724 123.855,84.702 123.563,84.724 
		123.3,84.797 123.031,84.926 122.812,85.094 122.616,85.282 122.447,85.515 122.324,85.781 122.251,86.042 122.229,86.339 
		122.251,86.62 122.324,86.886 122.447,87.153 122.616,87.377 122.812,87.573 123.031,87.736 123.3,87.865 123.563,87.924 
		123.855,87.949 124.125,87.924 124.416,87.865 124.68,87.736 124.898,87.573 125.095,87.377 125.264,87.153 125.387,86.886 
		125.46,86.62 125.482,86.339 	"/>
	<polygon fill-rule="evenodd" clip-rule="evenodd" fill="#FFFFFF" points="122.739,79.841 122.717,79.55 122.644,79.272 
		122.521,79.017 122.353,78.787 122.156,78.585 121.915,78.422 121.668,78.305 121.382,78.226 121.09,78.204 120.821,78.226 
		120.552,78.305 120.288,78.422 120.041,78.585 119.851,78.787 119.705,79.017 119.581,79.272 119.486,79.55 119.486,79.841 
		119.486,80.11 119.581,80.388 119.705,80.655 119.851,80.887 120.041,81.075 120.288,81.238 120.552,81.367 120.821,81.434 
		121.09,81.457 121.382,81.434 121.668,81.367 121.915,81.238 122.156,81.075 122.353,80.887 122.521,80.655 122.644,80.388 
		122.717,80.11 122.739,79.841 	"/>
	<polygon fill-rule="evenodd" clip-rule="evenodd" fill="#FFFFFF" points="119.969,73.352 119.946,73.06 119.873,72.78 
		119.75,72.524 119.581,72.283 119.385,72.093 119.166,71.924 118.902,71.815 118.634,71.736 118.342,71.711 118.05,71.736 
		117.786,71.815 117.518,71.924 117.299,72.093 117.103,72.283 116.934,72.524 116.811,72.78 116.737,73.06 116.715,73.352 
		116.737,73.618 116.811,73.896 116.934,74.151 117.103,74.39 117.299,74.583 117.518,74.749 117.786,74.875 118.05,74.937 
		118.342,74.967 118.634,74.937 118.902,74.875 119.166,74.749 119.385,74.583 119.581,74.39 119.75,74.151 119.873,73.896 
		119.946,73.618 119.969,73.352 	"/>
</g>
</svg>
