<?xml version="1.0" encoding="utf-8"?>
<!-- Generator: Adobe Illustrator 16.0.0, SVG Export Plug-In . SVG Version: 6.00 Build 0)  -->
<!DOCTYPE svg PUBLIC "-//W3C//DTD SVG 1.1//EN" "http://www.w3.org/Graphics/SVG/1.1/DTD/svg11.dtd">
<svg version="1.1" id="Layer_1" xmlns="http://www.w3.org/2000/svg" xmlns:xlink="http://www.w3.org/1999/xlink" x="0px" y="0px"
	 width="200px" height="200px" viewBox="0 0 200 200" enable-background="new 0 0 200 200" xml:space="preserve">
<g>
	<rect x="5" y="5" fill="#FFFFFF" stroke="#000000" stroke-width="0.6703" stroke-miterlimit="10" width="190" height="190"/>
	<g>
		<path fill="#FFF200" d="M184.587,22.042c0-4.442-3.604-8.042-8.039-8.042H23.464c-4.441,0-8.047,3.599-8.047,8.042v155.92
			c0,4.444,3.606,8.038,8.047,8.038h153.083c4.435,0,8.039-3.594,8.039-8.038"/>
		<polyline fill="#FFF200" points="100.17,31.688 75.113,75.35 124.791,75.35 		"/>
		<path d="M128.901,75.6l-26.96-47.38c0,0-0.41-1.023-1.743-1.023c-1.327,0-1.94,1.023-1.94,1.023L71.154,75.473
			c0,0-0.681,1.172-0.051,2.263c0,0,0.647,1.074,1.722,1.074h54.038c0,0,1.446,0.038,2.025-1.091
			C129.376,76.771,129.139,76.043,128.901,75.6 M75.608,75.084l24.558-42.789L124.3,75.084H75.608z"/>
		<path d="M95.78,52.275c-0.063,0.065-1.51,1.651-1.552,5.776c-0.013,1.954,0.621,3.161,1.23,4.322
			c0.596,1.131,1.163,2.21,1.192,4.049c0.05,3.612-0.85,4.479-0.859,4.483c0,0,0.009-0.004,0.026-0.012
			c-0.267,0.189-0.33,0.562-0.136,0.829c0.194,0.266,0.576,0.317,0.842,0.122c0.224-0.169,1.383-1.226,1.315-5.438
			c-0.029-2.131-0.719-3.442-1.323-4.59c-0.592-1.127-1.1-2.1-1.091-3.756c0.034-3.592,1.218-4.958,1.23-4.976l-0.004,0.009
			c0.229-0.233,0.215-0.616-0.025-0.844C96.385,52.019,96.009,52.038,95.78,52.275"/>
		<path d="M90.989,52.319c-0.06,0.063-1.51,1.645-1.548,5.772c-0.017,1.965,0.613,3.166,1.23,4.327
			c0.592,1.129,1.159,2.203,1.184,4.047c0.051,3.611-0.85,4.474-0.858,4.483c0,0,0.008-0.009,0.024-0.017
			c-0.262,0.194-0.316,0.567-0.122,0.841c0.194,0.258,0.567,0.321,0.829,0.127c0.237-0.169,1.387-1.235,1.324-5.451
			c-0.034-2.127-0.719-3.434-1.333-4.58c-0.583-1.135-1.104-2.11-1.086-3.76c0.038-3.603,1.222-4.963,1.23-4.971H91.86
			c0.22-0.24,0.211-0.62-0.025-0.846C91.594,52.072,91.217,52.08,90.989,52.319"/>
		<path d="M93.387,52.275c-0.072,0.065-1.518,1.651-1.552,5.776c-0.021,1.954,0.609,3.161,1.23,4.322
			c0.592,1.131,1.155,2.21,1.18,4.049c0.06,3.612-0.841,4.479-0.85,4.483c0,0,0.008-0.004,0.025-0.012
			c-0.275,0.189-0.321,0.562-0.127,0.829c0.194,0.266,0.562,0.317,0.829,0.122c0.237-0.169,1.383-1.226,1.32-5.438
			c-0.034-2.131-0.719-3.442-1.324-4.59c-0.596-1.127-1.108-2.1-1.087-3.756c0.029-3.592,1.213-4.958,1.222-4.976l-0.004,0.009
			c0.229-0.233,0.22-0.616-0.025-0.844C93.987,52.019,93.606,52.038,93.387,52.275"/>
		<path d="M106.323,64.202h-0.004V47.803c0,0,0.038-2.11-2.453-2.11c-2.432,0-2.432,2.032-2.432,2.032v16.428
			c-1.181,0.778-1.95,2.11-1.95,3.671c0,2.432,1.95,4.394,4.382,4.394c2.453,0,4.453-2.005,4.453-4.394
			C108.319,66.333,107.512,64.993,106.323,64.202 M105.059,51.985h-2.386v-4.092c0,0,0-1.161,1.193-1.161
			c1.192,0,1.192,1.161,1.192,1.161V51.985z"/>
		<path d="M47.717,93.95c-0.398-2.821-3.104-4.969-6.195-4.969c-5.604,0-7.714,4.774-7.714,9.735c0,4.728,2.11,9.502,7.714,9.502
			c3.81,0,5.958-2.626,6.436-6.36h6.035c-0.63,7.071-5.519,11.605-12.471,11.605c-8.784,0-13.948-6.556-13.948-14.747
			c0-8.42,5.164-14.979,13.948-14.979c6.233,0,11.481,3.658,12.238,10.213"/>
		<path d="M57.41,98.559c0.317-5.282,5.045-6.876,9.655-6.876c4.089,0,9.021,0.914,9.021,5.845v10.69
			c0,1.861,0.199,3.73,0.715,4.563h-5.717c-0.203-0.63-0.36-1.307-0.398-1.987c-1.792,1.873-4.419,2.546-6.922,2.546
			c-3.886,0-6.986-1.95-6.986-6.162c0-4.647,3.498-5.76,6.986-6.233c3.463-0.516,6.678-0.402,6.678-2.707
			c0-2.423-1.667-2.778-3.654-2.778c-2.144,0-3.536,0.875-3.734,3.1 M70.44,102.729c-0.948,0.834-2.935,0.876-4.69,1.193
			c-1.743,0.359-3.333,0.951-3.333,3.02c0,2.106,1.628,2.622,3.456,2.622c4.415,0,4.567-3.494,4.567-4.729V102.729z"/>
		<path d="M99.726,112.781h-5.367v-2.858h-0.123c-1.43,2.301-3.887,3.417-6.272,3.417c-6.001,0-7.511-3.379-7.511-8.467V92.241
			h5.642v11.604c0,3.375,0.998,5.041,3.615,5.041c3.058,0,4.37-1.709,4.37-5.874V92.241h5.646"/>
		<path d="M111.166,92.241h4.135v3.772h-4.135v10.175c0,1.903,0.478,2.385,2.38,2.385c0.601,0,1.154-0.042,1.755-0.16v4.406
			c-0.955,0.161-2.186,0.198-3.299,0.198c-3.459,0-6.479-0.794-6.479-4.884v-12.12h-3.417v-3.772h3.417v-6.158h5.643"/>
		<path d="M123.802,89.061h-5.642v-4.644h5.642V89.061z M118.16,92.241h5.642v20.54h-5.642V92.241z"/>
		<path d="M138.223,91.683c6.479,0,10.648,4.297,10.648,10.848c0,6.518-4.17,10.81-10.648,10.81c-6.44,0-10.61-4.292-10.61-10.81
			C127.612,95.979,131.782,91.683,138.223,91.683 M138.223,109.089c3.853,0,5.008-3.303,5.008-6.559
			c0-3.299-1.155-6.593-5.008-6.593c-3.814,0-4.966,3.294-4.966,6.593C133.257,105.786,134.408,109.089,138.223,109.089"/>
		<path d="M152.525,92.241h5.364V95.1h0.127c1.43-2.305,3.882-3.417,6.276-3.417c5.996,0,7.511,3.383,7.511,8.463v12.636h-5.643
			v-11.6c0-3.38-1.006-5.05-3.62-5.05c-3.062,0-4.372,1.709-4.372,5.882v10.768h-5.644"/>
		<polyline points="53.638,142.943 48.419,142.943 41.577,121.887 46.36,121.887 51.05,136.696 51.1,136.696 55.858,121.887 
			60.637,121.887 		"/>
		<path d="M65.441,136.342c0.114,2.651,1.413,3.856,3.743,3.856c1.683,0,3.036-1.031,3.303-1.975h3.683
			c-1.171,3.599-3.683,5.138-7.13,5.138c-4.809,0-7.79-3.307-7.79-8.026c0-4.567,3.16-8.052,7.79-8.052
			c5.185,0,7.692,4.364,7.4,9.059 M72.254,133.686c-0.389-2.127-1.303-3.243-3.333-3.243c-2.656,0-3.421,2.059-3.48,3.243H72.254z"
			/>
		<path d="M78.915,127.697h3.98v2.834h0.063c0.769-1.921,2.829-3.248,4.867-3.248c0.292,0,0.643,0.059,0.918,0.147v3.895
			c-0.389-0.093-1.011-0.151-1.51-0.151c-3.07,0-4.123,2.212-4.123,4.896v6.873h-4.195"/>
		<path d="M97.912,144.858c-0.914,2.453-2.36,3.451-5.252,3.451c-0.854,0-1.708-0.06-2.567-0.147v-3.451
			c0.799,0.059,1.624,0.178,2.449,0.147c1.446-0.147,1.919-1.649,1.446-2.858l-5.366-14.303h4.482l3.451,10.438h0.06l3.333-10.438
			h4.335"/>
		<path d="M113.893,121.887h4.187v7.934h0.094c1.061-1.713,2.889-2.537,4.453-2.537c4.449,0,5.57,2.508,5.57,6.279v9.381h-4.188
			v-8.606c0-2.512-0.739-3.747-2.685-3.747c-2.267,0-3.244,1.269-3.244,4.364v7.989h-4.187"/>
		<path d="M138.784,127.283c4.809,0,7.904,3.185,7.904,8.052c0,4.838-3.096,8.026-7.904,8.026c-4.774,0-7.869-3.188-7.869-8.026
			C130.915,130.468,134.01,127.283,138.784,127.283 M138.784,140.198c2.863,0,3.718-2.444,3.718-4.863
			c0-2.444-0.854-4.893-3.718-4.893c-2.833,0-3.683,2.448-3.683,4.893C135.102,137.754,135.951,140.198,138.784,140.198"/>
		<path d="M154.711,127.697h3.06v2.8h-3.06v7.549c0,1.421,0.352,1.776,1.768,1.776c0.446,0,0.861-0.029,1.292-0.123v3.273
			c-0.692,0.118-1.612,0.147-2.438,0.147c-2.567,0-4.812-0.588-4.812-3.628v-8.995h-2.533v-2.8h2.533v-4.571h4.19"/>
		<polyline points="79.168,174.445 74.864,174.445 72.148,164.211 72.089,164.211 69.492,174.445 65.162,174.445 60.32,159.199 
			64.747,159.199 67.543,169.548 67.606,169.548 70.144,159.199 74.208,159.199 76.809,169.522 76.868,169.522 79.667,159.199 
			83.973,159.199 		"/>
		<path d="M85.562,163.885c0.242-3.92,3.751-5.1,7.173-5.1c3.037,0,6.694,0.681,6.694,4.335v7.934c0,1.387,0.148,2.773,0.529,3.392
			h-4.25c-0.139-0.474-0.258-0.973-0.292-1.473c-1.332,1.384-3.274,1.887-5.134,1.887c-2.889,0-5.185-1.446-5.185-4.567
			c0-3.451,2.597-4.284,5.185-4.635c2.571-0.385,4.956-0.296,4.956-2.005c0-1.802-1.235-2.063-2.711-2.063
			c-1.594,0-2.63,0.646-2.774,2.296 M95.239,166.985c-0.702,0.621-2.182,0.646-3.476,0.884c-1.303,0.266-2.479,0.706-2.479,2.245
			c0,1.557,1.21,1.945,2.563,1.945c3.269,0,3.392-2.601,3.392-3.514V166.985z"/>
		<path d="M107.98,159.199h3.062v2.804h-3.062v7.545c0,1.421,0.351,1.776,1.769,1.776c0.443,0,0.857-0.034,1.293-0.118v3.269
			c-0.697,0.122-1.615,0.148-2.439,0.148c-2.567,0-4.812-0.593-4.812-3.629v-8.991h-2.533v-2.804h2.533v-4.571h4.19"/>
		<path d="M116.502,167.84c0.115,2.66,1.421,3.865,3.742,3.865c1.688,0,3.037-1.032,3.309-1.979h3.683
			c-1.176,3.603-3.683,5.134-7.13,5.134c-4.812,0-7.795-3.299-7.795-8.019c0-4.576,3.159-8.056,7.795-8.056
			c5.181,0,7.692,4.364,7.4,9.055 M123.315,165.184c-0.385-2.123-1.303-3.24-3.329-3.24c-2.66,0-3.425,2.064-3.484,3.24H123.315z"/>
		<path d="M129.98,159.199h3.983v2.829h0.06c0.766-1.915,2.824-3.243,4.867-3.243c0.292,0,0.643,0.06,0.913,0.147v3.891
			c-0.385-0.084-1.01-0.144-1.509-0.144c-3.062,0-4.124,2.216-4.124,4.897v6.868h-4.19"/>
	</g>
</g>
</svg>
