<?xml version="1.0" encoding="utf-8"?>
<!-- Generator: Adobe Illustrator 16.0.0, SVG Export Plug-In . SVG Version: 6.00 Build 0)  -->
<!DOCTYPE svg PUBLIC "-//W3C//DTD SVG 1.1//EN" "http://www.w3.org/Graphics/SVG/1.1/DTD/svg11.dtd">
<svg version="1.1" id="Layer_1" xmlns="http://www.w3.org/2000/svg" xmlns:xlink="http://www.w3.org/1999/xlink" x="0px" y="0px"
	 width="200px" height="200px" viewBox="0 0 200 200" enable-background="new 0 0 200 200" xml:space="preserve">
<g>
	<rect x="29.348" y="4.465" fill="#FFFFFF" stroke="#000000" stroke-miterlimit="10" width="142.5" height="190"/>
	<g>
		<g>
			<path fill="#00A44F" d="M38.848,189.716c-2.612,0-4.75-2.138-4.75-4.75v-171c0-2.612,2.138-4.75,4.75-4.75h123.5
				c2.612,0,4.75,2.138,4.75,4.75v171c0,2.612-2.138,4.75-4.75,4.75H38.848z"/>
		</g>
		<polyline fill="#FFFFFF" points="47.231,98.683 45.29,98.683 45.29,97.482 50.6,97.482 50.6,98.683 48.658,98.683 48.658,103.965 
			47.231,103.965 		"/>
		<polyline fill="#FFFFFF" points="51.344,97.482 52.765,97.482 52.765,99.97 55.392,99.97 55.392,97.482 56.816,97.482 
			56.816,103.965 55.392,103.965 55.392,101.17 52.765,101.17 52.765,103.965 51.344,103.965 		"/>
		<polyline fill="#FFFFFF" points="58.07,97.482 62.914,97.482 62.914,98.683 59.494,98.683 59.494,100.068 62.636,100.068 
			62.636,101.178 59.494,101.178 59.494,102.763 62.988,102.763 62.988,103.965 58.07,103.965 		"/>
		<polyline fill="#FFFFFF" points="66.473,97.482 67.889,97.482 70.594,101.83 70.613,101.83 70.613,97.482 71.947,97.482 
			71.947,103.965 70.523,103.965 67.826,99.626 67.81,99.626 67.81,103.965 66.473,103.965 		"/>
		<polyline fill="#FFFFFF" points="73.199,97.482 78.048,97.482 78.048,98.683 74.625,98.683 74.625,100.068 77.765,100.068 
			77.765,101.178 74.625,101.178 74.625,102.763 78.119,102.763 78.119,103.965 73.199,103.965 		"/>
		<path fill="#FFFFFF" d="M80.852,97.482h1.459l2.425,6.482h-1.481l-0.488-1.447h-2.427l-0.505,1.447h-1.445 M80.713,101.459h1.683
			l-0.818-2.378h-0.019L80.713,101.459z"/>
		<path fill="#FFFFFF" d="M85.3,97.482h3.494c1.162,0,1.896,0.808,1.896,1.79c0,0.761-0.308,1.333-1.028,1.625v0.017
			c0.701,0.18,0.903,0.862,0.944,1.516c0.03,0.406,0.022,1.167,0.275,1.535h-1.424c-0.171-0.411-0.158-1.036-0.226-1.557
			c-0.101-0.677-0.368-0.977-1.083-0.977h-1.423v2.533H85.3 M86.724,100.414h1.56c0.635,0,0.982-0.272,0.982-0.924
			c0-0.627-0.347-0.9-0.982-0.9h-1.56V100.414z"/>
		<polyline fill="#FFFFFF" points="91.852,97.482 96.698,97.482 96.698,98.683 93.275,98.683 93.275,100.068 96.415,100.068 
			96.415,101.178 93.275,101.178 93.275,102.763 96.769,102.763 96.769,103.965 91.852,103.965 		"/>
		<path fill="#FFFFFF" d="M98.706,101.811c0,0.865,0.671,1.197,1.432,1.197c0.502,0,1.26-0.142,1.26-0.807
			c0-0.698-0.969-0.818-1.92-1.069c-0.965-0.254-1.934-0.627-1.934-1.844c0-1.326,1.252-1.958,2.425-1.958
			c1.347,0,2.59,0.589,2.59,2.084h-1.379c-0.042-0.777-0.598-0.979-1.28-0.979c-0.453,0-0.977,0.191-0.977,0.734
			c0,0.502,0.309,0.567,1.934,0.982c0.472,0.12,1.923,0.42,1.923,1.89c0,1.187-0.936,2.078-2.695,2.078
			c-1.435,0-2.779-0.709-2.763-2.308"/>
		<polyline fill="#FFFFFF" points="105.058,98.683 103.115,98.683 103.115,97.482 108.426,97.482 108.426,98.683 106.483,98.683 
			106.483,103.965 105.058,103.965 		"/>
		<polyline fill="#FFFFFF" points="111.693,97.482 116.251,97.482 116.251,98.683 113.119,98.683 113.119,100.177 115.83,100.177 
			115.83,101.287 113.119,101.287 113.119,103.965 111.693,103.965 		"/>
		<rect x="117.077" y="97.482" fill="#FFFFFF" width="1.423" height="6.482"/>
		<path fill="#FFFFFF" d="M119.753,97.482h3.496c1.162,0,1.893,0.808,1.893,1.79c0,0.761-0.305,1.333-1.025,1.625v0.017
			c0.698,0.18,0.903,0.862,0.946,1.516c0.027,0.406,0.02,1.167,0.272,1.535h-1.423c-0.175-0.411-0.159-1.036-0.229-1.557
			c-0.099-0.677-0.362-0.977-1.083-0.977h-1.421v2.533h-1.426 M121.179,100.414h1.56c0.636,0,0.982-0.272,0.982-0.924
			c0-0.627-0.347-0.9-0.982-0.9h-1.56V100.414z"/>
		<path fill="#FFFFFF" d="M127.277,101.811c0,0.865,0.671,1.197,1.435,1.197c0.497,0,1.263-0.142,1.263-0.807
			c0-0.698-0.974-0.818-1.928-1.069c-0.961-0.254-1.932-0.627-1.932-1.844c0-1.326,1.252-1.958,2.422-1.958
			c1.356,0,2.6,0.589,2.6,2.084h-1.38c-0.05-0.777-0.6-0.979-1.279-0.979c-0.456,0-0.984,0.191-0.984,0.734
			c0,0.502,0.311,0.567,1.936,0.982c0.473,0.12,1.926,0.42,1.926,1.89c0,1.187-0.935,2.078-2.7,2.078
			c-1.432,0-2.773-0.709-2.757-2.308"/>
		<polyline fill="#FFFFFF" points="133.63,98.683 131.688,98.683 131.688,97.482 137.001,97.482 137.001,98.683 135.053,98.683 
			135.053,103.965 133.63,103.965 		"/>
		<path fill="#FFFFFF" d="M142.035,97.482h1.462l2.425,6.482h-1.48l-0.488-1.447h-2.425l-0.508,1.447h-1.445 M141.898,101.459h1.681
			l-0.815-2.378h-0.02L141.898,101.459z"/>
		<rect x="146.484" y="97.482" fill="#FFFFFF" width="1.426" height="6.482"/>
		<path fill="#FFFFFF" d="M149.162,97.482h2.795c1.681,0,2.94,1.053,2.94,3.202c0,1.882-0.96,3.281-2.94,3.281h-2.795
			 M150.585,102.763h1.271c0.826,0,1.617-0.508,1.617-1.939c0-1.306-0.455-2.141-1.871-2.141h-1.018V102.763z"/>
		<path fill="#FFFFFF" d="M57.323,108.654h3.055c1.23,0,2.064,0.397,2.064,1.606c0,0.635-0.313,1.08-0.875,1.35
			c0.789,0.229,1.189,0.835,1.189,1.647c0,1.314-1.118,1.879-2.291,1.879h-3.142 M58.752,111.277h1.443
			c0.496,0,0.873-0.229,0.873-0.771c0-0.619-0.475-0.745-0.982-0.745h-1.333V111.277z M58.752,114.026h1.525
			c0.562,0,1.052-0.18,1.052-0.854c0-0.662-0.42-0.924-1.025-0.924h-1.552V114.026z"/>
		<path fill="#FFFFFF" d="M66.618,108.501c2.01,0,3.188,1.495,3.188,3.42c0,1.871-1.178,3.369-3.188,3.369
			c-2.002,0-3.183-1.498-3.183-3.369C63.435,109.996,64.616,108.501,66.618,108.501 M66.618,114.092
			c1.279,0,1.762-1.091,1.762-2.171c0-1.135-0.482-2.223-1.762-2.223s-1.759,1.088-1.759,2.223
			C64.859,113.001,65.338,114.092,66.618,114.092"/>
		<polyline fill="#FFFFFF" points="72.367,111.741 70.278,108.654 71.931,108.654 73.202,110.724 74.516,108.654 76.079,108.654 
			74.001,111.747 76.259,115.137 74.562,115.137 73.144,112.893 71.704,115.137 70.095,115.137 		"/>
		<rect x="79.354" y="108.654" fill="#FFFFFF" width="1.427" height="6.482"/>
		<path fill="#FFFFFF" d="M83.004,112.982c0,0.864,0.671,1.197,1.432,1.197c0.502,0,1.263-0.142,1.263-0.808
			c0-0.698-0.968-0.818-1.923-1.069c-0.963-0.253-1.934-0.627-1.934-1.844c0-1.325,1.252-1.958,2.425-1.958
			c1.353,0,2.594,0.589,2.594,2.084h-1.38c-0.044-0.777-0.6-0.979-1.282-0.979c-0.45,0-0.976,0.191-0.976,0.734
			c0,0.501,0.308,0.566,1.934,0.981c0.472,0.12,1.923,0.42,1.923,1.891c0,1.186-0.933,2.078-2.695,2.078
			c-1.435,0-2.776-0.71-2.763-2.308"/>
		<path fill="#FFFFFF" d="M91.415,112.982c0,0.864,0.671,1.197,1.438,1.197c0.499,0,1.263-0.142,1.263-0.808
			c0-0.698-0.974-0.818-1.926-1.069c-0.962-0.253-1.936-0.627-1.936-1.844c0-1.325,1.252-1.958,2.424-1.958
			c1.356,0,2.6,0.589,2.6,2.084h-1.38c-0.049-0.777-0.6-0.979-1.282-0.979c-0.453,0-0.982,0.191-0.982,0.734
			c0,0.501,0.311,0.566,1.937,0.981c0.472,0.12,1.92,0.42,1.92,1.891c0,1.186-0.933,2.078-2.695,2.078
			c-1.432,0-2.776-0.71-2.757-2.308"/>
		<rect x="96.338" y="108.654" fill="#FFFFFF" width="1.424" height="6.482"/>
		<polyline fill="#FFFFFF" points="100.451,109.854 98.503,109.854 98.503,108.654 103.816,108.654 103.816,109.854 
			101.872,109.854 101.872,115.137 100.451,115.137 		"/>
		<path fill="#FFFFFF" d="M110.062,112.685c0,1.751-1.037,2.605-2.769,2.605c-1.743,0-2.76-0.843-2.76-2.605v-4.03h1.424v4.03
			c0,0.71,0.183,1.407,1.336,1.407c1.018,0,1.339-0.446,1.339-1.407v-4.03h1.43"/>
		<path fill="#FFFFFF" d="M113.054,108.654h1.465l2.422,6.482h-1.478l-0.491-1.448h-2.422l-0.511,1.448h-1.445 M112.918,112.631
			h1.683l-0.818-2.379h-0.019L112.918,112.631z"/>
		<polyline fill="#FFFFFF" points="118.939,109.854 116.992,109.854 116.992,108.654 122.306,108.654 122.306,109.854 
			120.363,109.854 120.363,115.137 118.939,115.137 		"/>
		<polyline fill="#FFFFFF" points="123.047,108.654 127.896,108.654 127.896,109.854 124.477,109.854 124.477,111.239 
			127.612,111.239 127.612,112.35 124.477,112.35 124.477,113.934 127.97,113.934 127.97,115.137 123.047,115.137 		"/>
		<path fill="#FFFFFF" d="M128.933,108.654h2.796c1.675,0,2.939,1.053,2.939,3.201c0,1.882-0.962,3.281-2.939,3.281h-2.796
			 M130.356,113.934h1.271c0.826,0,1.614-0.507,1.614-1.938c0-1.307-0.452-2.142-1.868-2.142h-1.018V113.934z"/>
		<path fill="#FFFFFF" d="M139.951,108.654h1.463l2.422,6.482h-1.479l-0.49-1.448h-2.425l-0.507,1.448h-1.445 M139.812,112.631
			h1.683l-0.818-2.379h-0.02L139.812,112.631z"/>
		<polyline fill="#FFFFFF" points="145.832,109.854 143.888,109.854 143.888,108.654 149.2,108.654 149.2,109.854 147.256,109.854 
			147.256,115.137 145.832,115.137 		"/>
		<polyline fill="#FFFFFF" points="54.175,149.255 58.032,149.255 58.032,150.27 55.384,150.27 55.384,151.534 57.677,151.534 
			57.677,152.47 55.384,152.47 55.384,154.739 54.175,154.739 		"/>
		<rect x="58.733" y="149.255" fill="#FFFFFF" width="1.206" height="5.484"/>
		<path fill="#FFFFFF" d="M60.997,149.255h2.954c0.987,0,1.606,0.682,1.606,1.511c0,0.646-0.259,1.129-0.865,1.374v0.017
			c0.592,0.153,0.758,0.729,0.799,1.282c0.022,0.344,0.014,0.99,0.229,1.301h-1.208c-0.145-0.347-0.128-0.878-0.188-1.317
			c-0.084-0.572-0.308-0.829-0.916-0.829H62.2v2.146h-1.203 M62.2,151.733h1.325c0.535,0,0.829-0.229,0.829-0.782
			c0-0.529-0.294-0.759-0.829-0.759H62.2V151.733z"/>
		<path fill="#FFFFFF" d="M67.365,152.917c0,0.729,0.567,1.015,1.213,1.015c0.42,0,1.063-0.123,1.063-0.685
			c0-0.592-0.821-0.692-1.628-0.908c-0.813-0.21-1.637-0.526-1.637-1.558c0-1.12,1.061-1.657,2.054-1.657
			c1.146,0,2.196,0.499,2.196,1.767h-1.167c-0.041-0.662-0.507-0.829-1.085-0.829c-0.379,0-0.829,0.158-0.829,0.619
			c0,0.423,0.265,0.478,1.637,0.829c0.401,0.102,1.628,0.354,1.628,1.602c0,1.004-0.788,1.756-2.277,1.756
			c-1.216,0-2.351-0.6-2.334-1.95"/>
		<polyline fill="#FFFFFF" points="72.741,150.27 71.096,150.27 71.096,149.255 75.588,149.255 75.588,150.27 73.943,150.27 
			73.943,154.739 72.741,154.739 		"/>
		<path fill="#FFFFFF" d="M79.851,149.255h1.238l2.049,5.484h-1.25l-0.415-1.225H79.42l-0.428,1.225H77.77 M79.736,152.614h1.418
			l-0.689-2.01h-0.017L79.736,152.614z"/>
		<rect x="83.612" y="149.255" fill="#FFFFFF" width="1.208" height="5.484"/>
		<path fill="#FFFFFF" d="M85.881,149.255h2.364c1.418,0,2.491,0.889,2.491,2.708c0,1.59-0.816,2.776-2.491,2.776h-2.364
			 M87.084,153.722h1.075c0.701,0,1.369-0.431,1.369-1.642c0-1.107-0.382-1.811-1.582-1.811h-0.862V153.722z"/>
		<polyline fill="#FFFFFF" points="91.573,149.255 95.672,149.255 95.672,150.27 92.779,150.27 92.779,151.441 95.435,151.441 
			95.435,152.38 92.779,152.38 92.779,153.722 95.735,153.722 95.735,154.739 91.573,154.739 		"/>
		<path fill="#FFFFFF" d="M96.548,149.255h2.959c0.979,0,1.604,0.682,1.604,1.511c0,0.646-0.265,1.129-0.871,1.374v0.017
			c0.592,0.153,0.764,0.729,0.801,1.282c0.021,0.344,0.012,0.99,0.229,1.301h-1.205c-0.147-0.347-0.131-0.878-0.191-1.317
			c-0.087-0.572-0.311-0.829-0.917-0.829h-1.206v2.146h-1.206 M97.753,151.733h1.32c0.54,0,0.829-0.229,0.829-0.782
			c0-0.529-0.289-0.759-0.829-0.759h-1.32V151.733z"/>
		<rect x="104.229" y="149.255" fill="#FFFFFF" width="1.205" height="5.484"/>
		<polyline fill="#FFFFFF" points="106.495,149.255 107.689,149.255 109.98,152.931 109.997,152.931 109.997,149.255 
			111.126,149.255 111.126,154.739 109.918,154.739 107.641,151.065 107.624,151.065 107.624,154.739 106.495,154.739 		"/>
		<path fill="#FFFFFF" d="M117.977,151.099c-0.076-0.546-0.602-0.963-1.199-0.963c-1.08,0-1.489,0.922-1.489,1.885
			c0,0.91,0.409,1.832,1.489,1.832c0.738,0,1.15-0.504,1.246-1.227h1.168c-0.123,1.363-1.07,2.241-2.414,2.241
			c-1.697,0-2.698-1.268-2.698-2.847c0-1.632,1.001-2.896,2.698-2.896c1.208,0,2.218,0.703,2.367,1.975"/>
		<polyline fill="#FFFFFF" points="120.012,149.255 121.214,149.255 121.214,151.36 123.438,151.36 123.438,149.255 
			124.643,149.255 124.643,154.739 123.438,154.739 123.438,152.369 121.214,152.369 121.214,154.739 120.012,154.739 		"/>
		<path fill="#FFFFFF" d="M127.201,149.255h1.235l2.051,5.484h-1.255l-0.411-1.225h-2.054l-0.429,1.225h-1.219 M127.086,152.614
			h1.422l-0.696-2.01h-0.011L127.086,152.614z"/>
		<path fill="#FFFFFF" d="M130.962,149.255h2.96c0.981,0,1.601,0.682,1.601,1.511c0,0.646-0.259,1.129-0.864,1.374v0.017
			c0.592,0.153,0.76,0.729,0.799,1.282c0.024,0.344,0.017,0.99,0.231,1.301h-1.208c-0.147-0.347-0.131-0.878-0.191-1.317
			c-0.084-0.572-0.311-0.829-0.913-0.829h-1.205v2.146h-1.209 M132.171,151.733h1.319c0.537,0,0.829-0.229,0.829-0.782
			c0-0.529-0.292-0.759-0.829-0.759h-1.319V151.733z"/>
		<path fill="#FFFFFF" d="M140.473,154.115c-0.426,0.545-0.977,0.752-1.506,0.752c-1.699,0-2.695-1.268-2.695-2.847
			c0-1.632,0.996-2.896,2.695-2.896c1.121,0,2.182,0.692,2.312,1.934h-1.153c-0.14-0.605-0.592-0.922-1.159-0.922
			c-1.083,0-1.492,0.922-1.492,1.885c0,0.91,0.409,1.832,1.492,1.832c0.783,0,1.236-0.42,1.304-1.181h-1.211v-0.9h2.305v2.968
			h-0.769"/>
		<polyline fill="#FFFFFF" points="142.338,149.255 146.438,149.255 146.438,150.27 143.541,150.27 143.541,151.441 146.2,151.441 
			146.2,152.38 143.541,152.38 143.541,153.722 146.5,153.722 146.5,154.739 142.338,154.739 		"/>
		<rect x="43.618" y="118.5" fill="#FFFFFF" width="113.11" height="22.691"/>
		<rect x="43.618" y="158.8" fill="#FFFFFF" width="113.11" height="22.692"/>
		<g>
			<polyline fill="#FFFFFF" points="126.895,30.256 108.614,30.256 108.614,12.173 92.744,12.173 92.744,30.256 74.462,30.256 
				74.462,45.95 92.744,45.95 92.744,64.028 108.614,64.028 108.614,45.95 126.895,45.95 			"/>
			<polyline fill="#FFFFFF" points="49.136,78.426 55.854,78.426 55.854,81.425 49.136,81.425 49.136,86.458 44.745,86.458 
				44.745,72.738 56.426,72.738 56.426,75.736 49.136,75.736 			"/>
			<rect x="58.421" y="72.74" fill="#FFFFFF" width="4.389" height="13.718"/>
			<path fill="#FFFFFF" d="M65.425,72.738h8.471c3.799,0.056,5.665,0.734,5.665,4.154c0,2.285,0,3.621-3.119,4.224v0.148
				c1.799,0.054,2.965,0.875,2.965,2.432v2.762h-4.394v-1.923c0.049-1.024-0.481-1.718-1.796-1.718h-3.407v3.641h-4.386
				 M73.218,79.634c1.887,0,1.822-0.584,1.822-2.138c0-1.227-0.375-1.574-1.822-1.574h-3.407v3.712H73.218z"/>
			<path fill="#FFFFFF" d="M89.306,78.118c4.872,0.29,6.084,0.803,6.084,3.949c0,2.266,0.108,4.501-7.136,4.501
				c-4.192,0-6.98-0.076-6.98-4.574h4.215c0,1.424,0.61,1.57,2.765,1.57c2.061,0,2.744-0.109,2.744-1.261
				c0-1.187-0.241-1.172-2.302-1.281l-0.967-0.052c-4.064-0.239-6.435-0.221-6.435-4.151c0-3.936,2.656-4.19,6.959-4.19
				c3.599,0,6.673,0.056,6.673,3.842v0.566h-4.215c0-1.41-0.702-1.41-2.458-1.41c-2.373,0-2.567,0.404-2.567,1.171
				c0,1.099,0.634,1.137,1.798,1.208"/>
			<polyline fill="#FFFFFF" points="104.802,86.458 100.41,86.458 100.41,75.922 96.194,75.922 96.194,72.738 109.237,72.738 
				109.237,75.922 104.802,75.922 			"/>
			<path fill="#FFFFFF" d="M122.251,84.099l-0.811,2.359h-4.566l4.936-13.721h6.676l5.005,13.721h-4.478l-0.854-2.359
				 M125.234,75.483h-0.039l-2.001,5.941h4.085L125.234,75.483z"/>
			<rect x="134.587" y="72.74" fill="#FFFFFF" width="4.389" height="13.718"/>
			<path fill="#FFFFFF" d="M141.48,72.738h8.342c4.584,0,6.629,1.429,6.629,5.322v2.874c0,3.748-1.447,5.525-6.039,5.525h-8.932
				 M145.867,83.272h3.847c1.624,0,2.216-0.894,2.216-2.339V78.06c0-1.772-0.681-2.137-2.216-2.137h-3.847V83.272z"/>
		</g>
	</g>
</g>
</svg>
