<?xml version="1.0" encoding="utf-8"?>
<!-- Generator: Adobe Illustrator 16.0.0, SVG Export Plug-In . SVG Version: 6.00 Build 0)  -->
<!DOCTYPE svg PUBLIC "-//W3C//DTD SVG 1.1//EN" "http://www.w3.org/Graphics/SVG/1.1/DTD/svg11.dtd">
<svg version="1.1" id="Layer_1" xmlns="http://www.w3.org/2000/svg" xmlns:xlink="http://www.w3.org/1999/xlink" x="0px" y="0px"
	 width="200px" height="200px" viewBox="0 0 200 200" enable-background="new 0 0 200 200" xml:space="preserve">
<rect x="5" y="5" fill="#E1EA9F" stroke="#000000" stroke-miterlimit="10" width="190" height="190"/>
<g enable-background="new    ">
	<path d="M175.675,102.938v2.375h-8.964c0.098-0.897,0.389-1.749,0.874-2.553s1.443-1.87,2.876-3.198
		c1.152-1.074,1.859-1.802,2.119-2.185c0.353-0.527,0.528-1.049,0.528-1.564c0-0.57-0.153-1.009-0.46-1.315s-0.729-0.459-1.27-0.459
		c-0.533,0-0.958,0.16-1.273,0.481c-0.315,0.322-0.498,0.855-0.546,1.602l-2.548-0.254c0.151-1.408,0.627-2.418,1.428-3.031
		c0.802-0.612,1.803-0.919,3.004-0.919c1.316,0,2.351,0.355,3.104,1.065c0.752,0.709,1.128,1.592,1.128,2.647
		c0,0.601-0.108,1.173-0.323,1.716s-0.557,1.111-1.023,1.706c-0.31,0.395-0.867,0.962-1.675,1.701
		c-0.807,0.74-1.317,1.232-1.533,1.475c-0.216,0.243-0.39,0.479-0.523,0.71H175.675z"/>
</g>
<path d="M81.705,56.33l22.46,0.109l-0.113-1.752l-3.192-2.074H88.198L81.705,56.33z M22.908,52.613l48.776,3.936v-3.936h9.248
	l7.266-1.866h13.872l5.508,2.957v15.764l-2.094,0.877l-2.09-0.987l-5.285-3.505l-6.39-1.421H81.705v6.13l2.09,6.023H69.152
	l2.532-5.693v-5.913l-48.776,3.94V52.613L22.908,52.613z"/>
<path fill="none" stroke="#000000" stroke-width="0.7837" stroke-miterlimit="22.926" d="M81.705,56.33l22.46,0.109l-0.113-1.752
	l-3.192-2.074H88.198L81.705,56.33z M22.908,52.613l48.776,3.936v-3.936h9.248l7.266-1.866h13.872l5.508,2.957v15.764l-2.094,0.877
	l-2.09-0.987l-5.285-3.505l-6.39-1.421H81.705v6.13l2.09,6.023H69.152l2.532-5.693v-5.913l-48.776,3.94V52.613L22.908,52.613z"/>
<path fill="#CF0A2C" d="M76.555,71.978L76.555,71.978c8.973,0,16.314,7.285,16.314,16.194v42.327
	c0,8.905-7.341,16.194-16.314,16.194c-8.977,0-16.318-7.289-16.318-16.194V88.172C60.237,79.263,67.579,71.978,76.555,71.978z"/>
<path fill="none" stroke="#000000" stroke-width="2.5283" stroke-miterlimit="22.926" d="M76.555,71.978L76.555,71.978
	c8.973,0,16.314,7.285,16.314,16.194v42.327c0,8.905-7.341,16.194-16.314,16.194c-8.977,0-16.318-7.289-16.318-16.194V88.172
	C60.237,79.263,67.579,71.978,76.555,71.978z"/>
<g enable-background="new    ">
	<path d="M124.147,94.009l6.065,1.909c-0.93,3.356-2.477,5.849-4.639,7.478c-2.163,1.63-4.906,2.444-8.232,2.444
		c-4.114,0-7.496-1.396-10.145-4.185c-2.648-2.791-3.973-6.605-3.973-11.444c0-5.119,1.331-9.094,3.994-11.926
		c2.662-2.832,6.164-4.248,10.504-4.248c3.79,0,6.869,1.112,9.236,3.335c1.408,1.314,2.465,3.203,3.17,5.664l-6.192,1.468
		c-0.366-1.594-1.131-2.853-2.294-3.776c-1.162-0.923-2.574-1.385-4.236-1.385c-2.297,0-4.161,0.818-5.591,2.455
		c-1.431,1.636-2.146,4.287-2.146,7.951c0,3.888,0.705,6.657,2.113,8.307c1.409,1.65,3.241,2.475,5.496,2.475
		c1.662,0,3.092-0.524,4.29-1.573C122.767,97.911,123.627,96.261,124.147,94.009z"/>
	<path d="M134.313,90.128c0-3.132,0.472-5.762,1.416-7.888c0.704-1.566,1.666-2.972,2.886-4.216
		c1.218-1.245,2.553-2.167,4.004-2.769c1.931-0.811,4.156-1.217,6.68-1.217c4.564,0,8.218,1.405,10.958,4.216s4.11,6.72,4.11,11.727
		c0,4.965-1.359,8.85-4.078,11.653c-2.72,2.805-6.355,4.206-10.906,4.206c-4.607,0-8.271-1.396-10.99-4.185
		C135.674,98.866,134.313,95.023,134.313,90.128z M140.76,89.919c0,3.482,0.811,6.122,2.431,7.919
		c1.62,1.797,3.677,2.695,6.171,2.695s4.541-0.891,6.141-2.674c1.599-1.783,2.398-4.458,2.398-8.024
		c0-3.524-0.779-6.153-2.336-7.888c-1.557-1.734-3.624-2.602-6.203-2.602c-2.578,0-4.656,0.878-6.234,2.633
		C141.549,83.734,140.76,86.381,140.76,89.919z"/>
</g>
<g enable-background="new    ">
	<path d="M122.217,122.862l-5.604,0.618c-0.139-1.153-0.495-2.005-1.072-2.555c-0.577-0.549-1.326-0.824-2.246-0.824
		c-1.223,0-2.256,0.55-3.102,1.648c-0.844,1.1-1.377,3.387-1.597,6.862c1.442-1.704,3.235-2.556,5.378-2.556
		c2.418,0,4.488,0.921,6.213,2.762s2.586,4.217,2.586,7.129c0,3.092-0.906,5.571-2.72,7.439s-4.142,2.803-6.985,2.803
		c-3.05,0-5.557-1.186-7.521-3.555c-1.965-2.37-2.946-6.254-2.946-11.653c0-5.536,1.022-9.526,3.07-11.972
		c2.046-2.445,4.704-3.668,7.975-3.668c2.294,0,4.193,0.642,5.697,1.927C120.848,118.553,121.805,120.418,122.217,122.862z
		 M109.092,135.494c0,1.883,0.432,3.335,1.298,4.358c0.865,1.023,1.854,1.535,2.968,1.535c1.07,0,1.964-0.419,2.678-1.257
		c0.715-0.838,1.072-2.212,1.072-4.121c0-1.965-0.385-3.403-1.154-4.317c-0.77-0.913-1.73-1.37-2.885-1.37
		c-1.113,0-2.054,0.437-2.823,1.309S109.092,133.791,109.092,135.494z"/>
</g>
</svg>
