<?xml version="1.0" encoding="utf-8"?>
<!-- Generator: Adobe Illustrator 16.0.0, SVG Export Plug-In . SVG Version: 6.00 Build 0)  -->
<!DOCTYPE svg PUBLIC "-//W3C//DTD SVG 1.1//EN" "http://www.w3.org/Graphics/SVG/1.1/DTD/svg11.dtd">
<svg version="1.1" id="Layer_1" xmlns="http://www.w3.org/2000/svg" xmlns:xlink="http://www.w3.org/1999/xlink" x="0px" y="0px"
	 width="200px" height="200px" viewBox="0 0 200 200" enable-background="new 0 0 200 200" xml:space="preserve">
<g>
	<path fill-rule="evenodd" clip-rule="evenodd" fill="#016BB2" d="M195,100.068c0,52.464-42.566,94.933-95,94.933
		S5,152.532,5,100.068C5,47.536,47.566,4.999,100,4.999S195,47.536,195,100.068L195,100.068z"/>
	<path fill-rule="evenodd" clip-rule="evenodd" fill="#FFFFFF" d="M101.862,106.066
		C101.794,106.135,101.862,106.066,101.862,106.066L101.862,106.066z"/>
	<path fill-rule="evenodd" clip-rule="evenodd" fill="#FFFFFF" d="M101.862,106.066
		C101.794,106.135,101.862,106.066,101.862,106.066L101.862,106.066z"/>
	<path fill-rule="evenodd" clip-rule="evenodd" fill="#FFFFFF" d="M104.141,94.347v-1.448c0-1.379-1.727-2.482-3.864-2.482h-0.62
		c-2.14,0-3.864,1.104-3.864,2.482v1.448H104.141L104.141,94.347z"/>
	<path fill-rule="evenodd" clip-rule="evenodd" fill="#FFFFFF" d="M104.141,99.655v-1.38c0-1.447-1.727-2.55-3.864-2.55h-0.62
		c-2.14,0-3.864,1.103-3.864,2.55v1.38H104.141L104.141,99.655z"/>
	<path fill-rule="evenodd" clip-rule="evenodd" fill="#FFFFFF" d="M100.897,106.066
		C100.967,106.135,100.897,106.066,100.897,106.066L100.897,106.066z"/>
	<path fill-rule="evenodd" clip-rule="evenodd" fill="#FFFFFF" d="M100.897,106.066
		C100.967,106.135,100.897,106.066,100.897,106.066L100.897,106.066z"/>
	
		<path fill-rule="evenodd" clip-rule="evenodd" fill="#FFFFFF" stroke="#016BB2" stroke-width="1.9149" stroke-miterlimit="2.6131" d="
		M61.986,114.339c0,0-4.209-2.274-5.933-4.48c-1.519-1.931-4.277-22.682-4.277-22.682l10.21,0.345V114.339L61.986,114.339z"/>
	
		<line fill="none" stroke="#000000" stroke-width="0.9926" stroke-miterlimit="2.6131" x1="76.681" y1="105.446" x2="76.681" y2="105.446"/>
	<polygon fill-rule="evenodd" clip-rule="evenodd" fill="#FFFFFF" points="50.188,83.66 78.82,86.9 60.261,89.382 50.188,83.66 	"/>
	
		<path fill-rule="evenodd" clip-rule="evenodd" fill="#FFFFFF" stroke="#016BB2" stroke-width="1.9149" stroke-miterlimit="2.6131" d="
		M76.544,123.37c-8.556,0.139-15.937-6.204-16.075-14.27l-0.482-20.545c0,0,12.624-1.173,16.694-1.104
		c4.003,0.139,17.87,0.275,17.87,0.275l0.482,20.062v0.207c-0.139,8.962-6.691,15.305-15.248,15.235L76.544,123.37L76.544,123.37z"
		/>
	<path fill="none" stroke="#016BB2" stroke-width="1.9149" stroke-miterlimit="2.6131" d="M76.75,117.786
		c-5.864,0.069-10.969-4.274-11.038-9.789l-0.346-14.202c0,0,8.693-0.828,11.522-0.759c2.76,0.069,12.349,0.139,12.349,0.139
		l0.276,13.857v0.137c-0.068,6.205-4.623,10.549-10.487,10.549L76.75,117.786L76.75,117.786z"/>
	
		<path fill-rule="evenodd" clip-rule="evenodd" fill="#FFFFFF" stroke="#016BB2" stroke-width="1.9537" stroke-miterlimit="2.6131" d="
		M60.33,96.759c-4.484-4.826-16.558-8.686-16.558-8.686v-5.999c0,0,12.073,2.966,16.558,7.79V96.759L60.33,96.759z"/>
	
		<path fill-rule="evenodd" clip-rule="evenodd" fill="#FFFFFF" stroke="#016BB2" stroke-width="1.9149" stroke-miterlimit="2.6131" d="
		M137.945,114.339c0,0,4.208-2.274,6.001-4.48c1.519-1.931,4.21-22.682,4.21-22.682l-10.211,0.345V114.339L137.945,114.339z"/>
	
		<line fill="none" stroke="#000000" stroke-width="0.9926" stroke-miterlimit="2.6131" x1="123.25" y1="105.446" x2="123.25" y2="105.446"/>
	<polygon fill-rule="evenodd" clip-rule="evenodd" fill="#FFFFFF" points="149.742,83.66 121.112,86.9 139.67,89.382 149.742,83.66 
			"/>
	
		<path fill-rule="evenodd" clip-rule="evenodd" fill="#FFFFFF" stroke="#016BB2" stroke-width="1.9149" stroke-miterlimit="2.6131" d="
		M123.388,123.37c8.557,0.139,16.007-6.204,16.076-14.27l0.552-20.545c0,0-12.694-1.173-16.766-1.104
		c-4.001,0.139-17.868,0.275-17.868,0.275l-0.483,20.062v0.207c0.138,8.962,6.692,15.305,15.247,15.235L123.388,123.37
		L123.388,123.37z"/>
	<path fill="none" stroke="#016BB2" stroke-width="1.9149" stroke-miterlimit="2.6131" d="M123.181,117.786
		c5.864,0.069,11.039-4.274,11.108-9.789l0.345-14.202c0,0-8.762-0.828-11.522-0.759c-2.828,0.069-12.349,0.139-12.349,0.139
		l-0.344,13.857v0.137c0.136,6.205,4.621,10.549,10.485,10.549L123.181,117.786L123.181,117.786z"/>
	
		<path fill-rule="evenodd" clip-rule="evenodd" fill="#FFFFFF" stroke="#016BB2" stroke-width="1.9537" stroke-miterlimit="2.6131" d="
		M139.67,96.759c4.415-4.826,16.558-8.686,16.558-8.686v-5.999c0,0-12.143,2.966-16.558,7.79V96.759L139.67,96.759z"/>
	<path fill-rule="evenodd" clip-rule="evenodd" fill="#FFFFFF" d="M35.978,93.933c0.068-0.069,0.068-0.138,0.068-0.138
		c0.068-0.069,0.068-0.138,0.068-0.138L35.978,93.933L35.978,93.933z M156.987,110.617c-3.035,8.548-7.245,13.512-9.315,14.27
		l-0.205,0.069c-0.139,0-0.76,0.069-0.76,0.069c-0.344,0-1.449-0.414-2.207-0.827c-0.346-0.276-0.759-0.414-1.241-0.482
		c-1.588-0.276-3.037,0.827-3.243,2.344c-0.759,5.446-2.414,11.169-4.967,16.614c-6.348,13.65-16.767,23.578-25.941,24.819
		c-2.07,0.275-4.554,0.482-7.106,0.552l-2.276,0.068v0.068c-3.037-0.068-6.762-0.344-8.899-0.688
		c-9.246-1.241-19.732-11.169-26.01-24.819c-2.622-5.515-5.037-16.753-5.106-16.822c-0.275-1.517-1.793-2.481-3.312-2.136
		c-0.621,0.137-1.173,0.482-1.586,0.965c-0.621,0.275-1.242,0.552-1.519,0.552l-0.621-0.139c-0.069,0-0.344-0.068-0.344-0.068
		c-2.001-0.759-6.278-5.723-9.245-14.271c-1.656-4.55-2.347-8.548-2.347-11.375c0-1.379,0.208-2.413,0.415-3.171
		c0-0.069,0.068-0.139,0.068-0.207c0.207-0.896,0.689-1.586,1.173-1.861c0.346-0.414,0.896-0.689,1.518-0.689
		c0.69,0,1.381,0.345,1.726,0.965v-0.068c0.483,0.965,1.518,1.654,2.621,1.654c1.449,0,2.622-1.034,2.897-2.413
		c0.069-0.275,0-0.621-0.068-0.965c-0.828-3.585-1.241-7.309-1.241-11.1c0-27.508,22.352-50.052,49.947-50.188
		c0.139,0,0.277,0,0.277,0c27.526,0.137,49.95,22.681,49.95,50.188c0,3.378-0.347,6.688-1.036,9.927l0.069-0.068
		c0,0.138-0.069,0.207-0.137,0.276c0,0.206-0.069,0.413-0.069,0.62c-0.069,0.206-0.069,0.414-0.069,0.62
		c0,1.586,1.38,2.896,2.966,2.896c0.829,0,1.586-0.345,2.14-0.965c0.069-0.138,0.137-0.276,0.206-0.414
		c0.069-0.068,0.069-0.068,0.138-0.138l-0.138,0.138c0,0,0,0,0.069,0c0.068-0.068,0.138-0.138,0.138-0.206
		c0.413-0.552,1.034-0.896,1.794-0.896c0.621,0,1.172,0.275,1.519,0.688c0.482,0.276,0.965,0.966,1.173,1.793
		c0.068,0.138,0.068,0.207,0.068,0.275c0.275,0.759,0.414,1.793,0.414,3.172C159.264,102.067,158.643,105.997,156.987,110.617
		L156.987,110.617z M163.955,93.657c-0.346-1.104-1.036-2.138-1.932-2.896l-1.036-0.828c-1.378-1.034-3.241-1.586-5.173-1.447
		c-0.207,0-0.415,0-0.621,0.069c0.275-2.345,0.483-4.688,0.483-7.032c0-30.61-24.907-55.705-55.607-55.911h-0.208
		c-0.069,0-0.137,0-0.137,0c-30.563,0.206-55.606,25.301-55.606,55.911c0,2.413,0.206,4.756,0.482,7.17
		c-0.139-0.068-0.276-0.068-0.413-0.068c-1.933-0.069-3.795,0.413-5.244,1.517l-0.896,0.757c-0.966,0.76-1.587,1.794-2.001,2.896
		c-0.62,1.447-0.897,3.378-0.897,5.584c0,3.792,0.897,8.479,2.622,13.237c3.174,9.1,8.141,15.994,12.626,17.648l1.034,0.275
		c-0.138-0.068,1.587,0.207,1.587,0.207c0.689,0.069,1.38-0.069,2.001-0.207c1.035,3.93,2.689,10.41,4.622,14.479
		c7.244,15.58,19.18,26.681,30.425,28.128c2.829,0.413,8.279,0.827,11.936,0.827h2.346c0,0,0.068-0.275,0.068-0.345
		c1.933-0.069,3.864-0.276,5.45-0.482c11.178-1.447,23.113-12.548,30.356-28.128c2.208-4.757,3.863-9.722,4.83-14.615
		c0.621,0.137,1.312,0.274,1.932,0.206l1.725-0.275l0.897-0.276c4.483-1.654,9.452-8.479,12.693-17.58
		c1.726-4.757,2.553-9.445,2.553-13.236C164.852,97.035,164.576,95.104,163.955,93.657L163.955,93.657z M148.708,130.334
		L148.708,130.334L148.708,130.334z M163.887,93.519c0.068,0,0.068,0.069,0.068,0.139c0,0,0.069,0.068,0.069,0.138L163.887,93.519
		L163.887,93.519z"/>
</g>
</svg>
