<?xml version="1.0" encoding="utf-8"?>
<!-- Generator: Adobe Illustrator 16.0.0, SVG Export Plug-In . SVG Version: 6.00 Build 0)  -->
<!DOCTYPE svg PUBLIC "-//W3C//DTD SVG 1.1//EN" "http://www.w3.org/Graphics/SVG/1.1/DTD/svg11.dtd">
<svg version="1.1" id="Layer_1" xmlns="http://www.w3.org/2000/svg" xmlns:xlink="http://www.w3.org/1999/xlink" x="0px" y="0px"
	 width="200px" height="200px" viewBox="0 0 200 200" enable-background="new 0 0 200 200" xml:space="preserve">
<g>
	<path fill="#016BB2" d="M100,189.992c49.699,0,90-40.285,90-89.993c0-49.705-40.301-89.991-90-89.991
		c-49.714,0-90,40.286-90,89.991C10,149.707,50.286,189.992,100,189.992"/>
	<path fill="#FFFFFE" d="M67.333,57.607L84.89,72.105c1.21,0.991,2.988,0.823,3.992-0.378c0.991-1.211,0.832-3.002-0.378-3.993
		L70.933,53.238c-1.202-1.007-2.987-0.832-3.985,0.386C65.949,54.825,66.124,56.603,67.333,57.607"/>
	<path fill="none" stroke="#016BB2" stroke-width="2.7229" d="M67.333,57.607L84.89,72.105c1.21,0.991,2.988,0.823,3.992-0.378
		c0.991-1.211,0.832-3.002-0.378-3.993L70.933,53.238c-1.202-1.007-2.987-0.832-3.985,0.386
		C65.949,54.825,66.124,56.603,67.333,57.607z"/>
	<path fill="#FFFFFE" d="M66.604,58.496c-0.801-0.655-1.281-1.558-1.412-2.505c-0.715-0.233-1.363-0.655-1.837-1.238l-9.921-11.904
		c-0.599-0.722-0.918-1.61-0.918-2.557c0-1.071,0.422-2.092,1.179-2.842c0.758-0.765,1.777-1.188,2.841-1.188
		c1.211,0,2.347,0.539,3.119,1.473l9.85,11.816c0.51,0.597,0.829,1.333,0.918,2.098c0.438,0.152,0.859,0.393,1.253,0.698l2.71,2.244
		c0.233-0.772,0.364-1.596,0.364-2.439c0-1.952-0.7-3.854-1.953-5.355c0,0.008-9.849-11.802-9.849-11.802
		c-1.574-1.923-3.92-3.022-6.412-3.022c-4.575,0-8.305,3.736-8.305,8.319c0,1.931,0.671,3.81,1.896,5.297
		c0,0,9.937,11.91,9.937,11.917c1.58,1.881,3.904,2.965,6.366,2.965c0.758,0,1.501-0.108,2.2-0.299"/>
	<path fill="#FFFFFE" d="M133.802,57.607l-17.557,14.498c-1.209,0.991-2.993,0.823-3.991-0.378c-0.992-1.211-0.816-3.002,0.37-3.993
		l17.579-14.496c1.209-1.007,2.986-0.832,3.993,0.386C135.187,54.825,135.004,56.603,133.802,57.607"/>
	<path fill="none" stroke="#016BB2" stroke-width="2.7229" d="M133.802,57.607l-17.557,14.498c-1.209,0.991-2.993,0.823-3.991-0.378
		c-0.992-1.211-0.816-3.002,0.37-3.993l17.579-14.496c1.209-1.007,2.986-0.832,3.993,0.386
		C135.187,54.825,135.004,56.603,133.802,57.607z"/>
	<path fill="#FFFFFE" d="M134.545,58.496c0.78-0.655,1.268-1.558,1.393-2.505c0.721-0.233,1.362-0.655,1.856-1.238
		c-0.014,0,9.923-11.904,9.908-11.904c0.598-0.722,0.918-1.61,0.918-2.557c0-1.071-0.422-2.092-1.188-2.842
		c-0.751-0.765-1.756-1.188-2.834-1.188c-1.209,0-2.346,0.539-3.118,1.473l-9.849,11.816c-0.51,0.597-0.816,1.333-0.918,2.098
		c-0.438,0.152-0.859,0.393-1.238,0.698l-2.725,2.244c-0.233-0.772-0.365-1.596-0.365-2.439c0-1.952,0.7-3.854,1.952-5.355
		c0,0.008,9.851-11.802,9.851-11.802c1.573-1.923,3.92-3.022,6.41-3.022c4.575,0,8.319,3.736,8.319,8.319
		c0,1.931-0.685,3.81-1.908,5.297c0,0-9.938,11.91-9.938,11.917c-1.587,1.881-3.904,2.965-6.373,2.965
		c-0.751,0-1.494-0.108-2.194-0.299"/>
	<path fill="#FFFFFE" d="M69.402,80.833v8.742h9.5v-8.742c0-3.628,0.831-7.095,2.404-10.198l-7.445-6.142
		C70.962,69.352,69.402,74.961,69.402,80.833"/>
	<path fill="#FFFFFE" d="M100.567,49.282c-8.26,0-15.982,3.16-21.797,8.924l7.373,6.09c3.949-3.569,9.019-5.521,14.424-5.521
		c5.406,0,10.49,1.952,14.426,5.521l7.387-6.09C116.551,52.442,108.829,49.282,100.567,49.282"/>
	<path fill="#FFFFFE" d="M127.29,64.493l-7.461,6.142c1.573,3.104,2.405,6.57,2.405,10.198v8.742h9.499v-8.742
		C131.733,74.961,130.174,69.352,127.29,64.493"/>
	<path fill="#FFFFFE" d="M135.478,91.178v36.309c0,19.466-15.778,35.245-35.26,35.245c-19.466,0-35.245-15.779-35.245-35.245V91.178
		"/>
	<path fill="none" stroke="#016BB2" stroke-width="2.7229" d="M135.478,91.178v36.309c0,19.466-15.778,35.245-35.26,35.245
		c-19.466,0-35.245-15.779-35.245-35.245V91.178H135.478z"/>
	<path fill="#016BB2" d="M107.445,115.554c0-3.985-3.235-7.22-7.228-7.22s-7.226,3.234-7.226,7.22c0,2.762,1.544,5.158,3.816,6.382
		v17.614h6.833v-17.614C105.915,120.712,107.445,118.315,107.445,115.554"/>
</g>
</svg>
