<?xml version="1.0" encoding="utf-8"?>
<!-- Generator: Adobe Illustrator 16.0.0, SVG Export Plug-In . SVG Version: 6.00 Build 0)  -->
<!DOCTYPE svg PUBLIC "-//W3C//DTD SVG 1.1//EN" "http://www.w3.org/Graphics/SVG/1.1/DTD/svg11.dtd">
<svg version="1.1" id="Layer_1" xmlns="http://www.w3.org/2000/svg" xmlns:xlink="http://www.w3.org/1999/xlink" x="0px" y="0px"
	 width="200px" height="200px" viewBox="0 0 200 200" enable-background="new 0 0 200 200" xml:space="preserve">
<g>
	<rect x="30.908" y="5" fill="#FFFFFF" width="138.184" height="190"/>
	<path fill="#FFFFFF" stroke="#1B181B" d="M169.092,195 M30.908,195h138.184V5H30.908V195z"/>
	<path fill="#016BB2" d="M48.87,19.165c6.107,0,11.059,4.948,11.059,11.054c0,6.108-4.951,11.056-11.059,11.056
		c-6.103,0-11.054-4.948-11.054-11.056C37.816,24.113,42.768,19.165,48.87,19.165"/>
	<path fill="#FFFFFF" d="M46.57,23.283l0.99,9.367c0,0,0.234,1.164,1.203,1.164c1.126,0,1.299-1.142,1.299-1.142l1.029-9.407
		c0,0-0.126-2.267-2.25-2.267C46.573,20.999,46.57,23.283,46.57,23.283"/>
	<path fill="#FFFFFF" d="M48.867,39.511c1.238,0,2.235-0.997,2.235-2.235c0-1.233-0.997-2.234-2.235-2.234
		c-1.233,0-2.233,1-2.233,2.234C46.634,38.514,47.634,39.511,48.867,39.511"/>
	<path fill="#016BB2" d="M162.181,43.002c0,1.138-0.931,2.071-2.07,2.071H66.834c-1.139,0-2.071-0.933-2.071-2.071V17.438
		c0-1.143,0.933-2.076,2.071-2.076h93.276c1.14,0,2.07,0.933,2.07,2.076"/>
	<path fill="#EC1C24" d="M162.181,77.548c0,1.14-0.931,2.073-2.07,2.073H66.834c-1.139,0-2.071-0.933-2.071-2.073V51.984
		c0-1.142,0.933-2.074,2.071-2.074h93.276c1.14,0,2.07,0.933,2.07,2.074"/>
	<path fill="#039046" d="M162.181,112.092c0,1.141-0.931,2.072-2.07,2.072H66.834c-1.139,0-2.071-0.932-2.071-2.072V86.53
		c0-1.141,0.933-2.072,2.071-2.072h93.276c1.14,0,2.07,0.932,2.07,2.072"/>
	<path fill="#039046" d="M162.181,146.637c0,1.141-0.931,2.072-2.07,2.072H66.834c-1.139,0-2.071-0.932-2.071-2.072v-25.564
		c0-1.141,0.933-2.072,2.071-2.072h93.276c1.14,0,2.07,0.932,2.07,2.072"/>
	<path fill="#EC1C24" d="M162.181,181.182c0,1.139-0.931,2.074-2.07,2.074H66.834c-1.139,0-2.071-0.936-2.071-2.074v-25.562
		c0-1.141,0.933-2.072,2.071-2.072h93.276c1.14,0,2.07,0.932,2.07,2.072"/>
	<path fill="#039046" d="M59.929,146.057c0,1.459-1.193,2.652-2.654,2.652H40.471c-1.459,0-2.654-1.193-2.654-2.652v-24.404
		c0-1.459,1.195-2.652,2.654-2.652h16.804c1.461,0,2.654,1.193,2.654,2.652"/>
	<path fill="#EC1C24" d="M48.875,157.346c-6.107,0-11.059,4.947-11.059,11.055c0,6.105,4.951,11.055,11.059,11.055
		c6.103,0,11.054-4.949,11.054-11.055C59.929,162.293,54.978,157.346,48.875,157.346 M48.875,177.232
		c-4.876,0-8.832-3.953-8.832-8.832c0-2.025,0.689-3.887,1.834-5.373l12.365,12.369C52.755,176.543,50.896,177.232,48.875,177.232
		 M55.864,173.779L43.496,161.41c1.489-1.15,3.352-1.838,5.379-1.838c4.874,0,8.828,3.951,8.828,8.828
		C57.703,170.428,57.01,172.289,55.864,173.779"/>
	<path fill="#EC1C24" d="M59.929,76.967c0,1.459-1.193,2.653-2.654,2.653H40.471c-1.459,0-2.654-1.194-2.654-2.653V52.564
		c0-1.46,1.195-2.655,2.654-2.655h16.804c1.461,0,2.654,1.194,2.654,2.655"/>
	<path fill="#039046" d="M59.929,111.512c0,1.459-1.193,2.652-2.654,2.652H40.471c-1.459,0-2.654-1.193-2.654-2.652V87.11
		c0-1.459,1.195-2.652,2.654-2.652h16.804c1.461,0,2.654,1.193,2.654,2.652"/>
	<path fill="#FFFFFF" d="M73.91,71.045h-2.355v-7.967h-2.919v-1.88c1.643,0.035,3.152-0.56,3.399-2.439h1.875"/>
	<path fill="#FFFFFF" d="M68.023,98.053c-0.083-2.81,1.426-4.966,4.211-4.966c2.122,0,3.98,1.44,3.98,3.841
		c0,1.844-0.93,2.863-2.074,3.721c-1.145,0.861-2.505,1.562-3.349,2.824h5.488v2.143h-8.522c0.017-2.842,1.658-4.051,3.665-5.493
		c1.027-0.737,2.421-1.489,2.437-2.999c0-1.161-0.729-1.895-1.74-1.895c-1.393,0-1.841,1.524-1.841,2.824"/>
	<path fill="#FFFFFF" d="M71.189,132.84c1.013,0.088,2.471-0.123,2.471-1.527c0-1.033-0.778-1.631-1.642-1.631
		c-1.177,0-1.807,0.93-1.792,2.195h-2.237c0.084-2.512,1.626-4.25,4.014-4.25c1.856,0,3.897,1.213,3.897,3.408
		c0,1.158-0.55,2.193-1.628,2.508v0.033c1.277,0.299,2.057,1.424,2.057,2.791c0,2.578-2.038,4.037-4.311,4.037
		c-2.603,0-4.36-1.65-4.311-4.475h2.237c0.052,1.334,0.682,2.42,2.041,2.42c1.061,0,1.89-0.77,1.89-1.93
		c0-1.859-1.542-1.826-2.687-1.826"/>
	<path fill="#FFFFFF" d="M72.582,171.865h-4.906v-2.283l5.04-7.158h2.105v7.387h1.542v2.055h-1.542v2.842h-2.239 M72.582,165.545
		h-0.05l-3.002,4.266h3.052V165.545z"/>
	<polyline fill="#FFFFFF" points="72.892,16.912 81.362,16.912 81.362,19.14 75.542,19.14 75.542,21.923 80.587,21.923 
		80.587,23.982 75.542,23.982 75.542,28.959 72.892,28.959 	"/>
	<path fill="#FFFFFF" d="M84.972,18.887h-2.396v-1.975h2.396V18.887z M82.576,20.236h2.396v8.723h-2.396V20.236z"/>
	<path fill="#FFFFFF" d="M86.728,20.236h2.278v1.62h0.033C89.479,20.759,90.66,20,91.824,20c0.167,0,0.372,0.034,0.522,0.085v2.226
		c-0.219-0.051-0.573-0.084-0.859-0.084c-1.757,0-2.362,1.267-2.362,2.802v3.93h-2.397"/>
	<path fill="#FFFFFF" d="M94.831,25.18c0.066,1.521,0.808,2.211,2.142,2.211c0.961,0,1.737-0.591,1.891-1.131h2.106
		c-0.674,2.059-2.106,2.938-4.081,2.938c-2.751,0-4.455-1.891-4.455-4.59c0-2.615,1.805-4.606,4.455-4.606
		c2.969,0,4.401,2.497,4.234,5.18 M98.727,23.661c-0.219-1.214-0.742-1.856-1.906-1.856c-1.519,0-1.958,1.182-1.989,1.856H98.727z"
		/>
	<path fill="#FFFFFF" d="M106.859,22.92c0.134-2.244,2.144-2.92,4.101-2.92c1.738,0,3.83,0.388,3.83,2.48v4.541
		c0,0.791,0.084,1.583,0.303,1.938h-2.428c-0.086-0.269-0.153-0.556-0.17-0.842c-0.76,0.791-1.872,1.08-2.936,1.08
		c-1.654,0-2.969-0.827-2.969-2.616c0-1.975,1.484-2.445,2.969-2.648c1.468-0.221,2.833-0.17,2.833-1.147
		c0-1.029-0.708-1.182-1.552-1.182c-0.91,0-1.501,0.372-1.585,1.317 M112.393,24.691c-0.402,0.353-1.246,0.371-1.989,0.505
		c-0.743,0.153-1.418,0.407-1.418,1.283c0,0.894,0.692,1.114,1.469,1.114c1.873,0,1.938-1.486,1.938-2.009V24.691z"/>
	<path fill="#FFFFFF" d="M122.45,23.309c-0.152-0.979-0.776-1.504-1.771-1.504c-1.535,0-2.041,1.554-2.041,2.836
		c0,1.247,0.487,2.75,1.99,2.75c1.112,0,1.755-0.708,1.905-1.772h2.312c-0.302,2.312-1.905,3.578-4.2,3.578
		c-2.632,0-4.404-1.856-4.404-4.473c0-2.714,1.622-4.724,4.455-4.724c2.058,0,3.946,1.08,4.1,3.309"/>
	<path fill="#FFFFFF" d="M129.098,20.236h1.755v1.604h-1.755v4.319c0,0.809,0.203,1.012,1.013,1.012c0.252,0,0.49-0.015,0.742-0.068
		v1.873c-0.404,0.068-0.926,0.084-1.401,0.084c-1.468,0-2.749-0.337-2.749-2.076v-5.145h-1.45v-1.604h1.45v-2.615h2.396"/>
	<path fill="#FFFFFF" d="M134.329,18.887h-2.396v-1.975h2.396V18.887z M131.933,20.236h2.396v8.723h-2.396V20.236z"/>
	<path fill="#FFFFFF" d="M140.319,20c2.749,0,4.521,1.824,4.521,4.606c0,2.766-1.771,4.59-4.521,4.59
		c-2.734,0-4.506-1.824-4.506-4.59C135.813,21.824,137.585,20,140.319,20 M140.319,27.391c1.636,0,2.126-1.399,2.126-2.784
		c0-1.402-0.49-2.802-2.126-2.802c-1.622,0-2.109,1.4-2.109,2.802C138.21,25.992,138.697,27.391,140.319,27.391"/>
	<path fill="#FFFFFF" d="M146.258,20.236h2.279v1.215h0.05c0.607-0.978,1.654-1.451,2.666-1.451c2.548,0,3.19,1.436,3.19,3.593
		v5.366h-2.399v-4.927c0-1.432-0.42-2.142-1.534-2.142c-1.299,0-1.855,0.725-1.855,2.499v4.57h-2.396"/>
	<rect x="79.857" y="30.006" fill="#FFFFFF" width="1.324" height="6.023"/>
	<path fill="#FFFFFF" d="M82.414,32.471h-0.718v-0.803h0.718v-0.337c0-0.769,0.481-1.325,1.459-1.325
		c0.21,0,0.432,0.027,0.633,0.035v0.895c-0.143-0.018-0.289-0.027-0.439-0.027c-0.32,0-0.455,0.135-0.455,0.498v0.262h0.827v0.803
		h-0.827v3.559h-1.197"/>
	<path fill="#FFFFFF" d="M89.323,36.58c-0.262,0.7-0.676,0.985-1.503,0.985c-0.243,0-0.488-0.015-0.732-0.042v-0.987
		c0.229,0.017,0.464,0.051,0.7,0.043c0.411-0.043,0.547-0.475,0.411-0.819l-1.533-4.092h1.281l0.988,2.988h0.017l0.953-2.988h1.239"
		/>
	<path fill="#FFFFFF" d="M93.599,31.549c1.377,0,2.263,0.912,2.263,2.304c0,1.385-0.886,2.295-2.263,2.295
		c-1.367,0-2.253-0.91-2.253-2.295C91.346,32.46,92.231,31.549,93.599,31.549 M93.599,35.244c0.818,0,1.063-0.699,1.063-1.391
		c0-0.701-0.245-1.4-1.063-1.4c-0.809,0-1.054,0.7-1.054,1.4C92.545,34.545,92.79,35.244,93.599,35.244"/>
	<path fill="#FFFFFF" d="M100.662,36.029h-1.141v-0.606h-0.025c-0.302,0.487-0.825,0.725-1.332,0.725
		c-1.274,0-1.595-0.716-1.595-1.797v-2.683h1.197v2.463c0,0.719,0.211,1.071,0.767,1.071c0.651,0,0.93-0.362,0.93-1.247v-2.288
		h1.199"/>
	<path fill="#FFFFFF" d="M106.896,35.473h-0.018c-0.278,0.474-0.769,0.675-1.323,0.675c-1.318,0-1.959-1.131-1.959-2.337
		c0-1.173,0.65-2.262,1.932-2.262c0.515,0,1.021,0.221,1.301,0.65h-0.009h0.017v-2.193h1.197v6.023h-1.138 M105.848,32.453
		c-0.784,0-1.053,0.674-1.053,1.392c0,0.686,0.312,1.4,1.053,1.4c0.794,0,1.03-0.692,1.03-1.408
		C106.878,33.126,106.624,32.453,105.848,32.453"/>
	<path fill="#FFFFFF" d="M110.101,30.994h-1.198v-0.988h1.198V30.994z M108.902,31.668h1.198v4.361h-1.198V31.668z"/>
	<path fill="#FFFFFF" d="M111.905,34.613c0.008,0.521,0.447,0.734,0.919,0.734c0.348,0,0.784-0.136,0.784-0.557
		c0-0.364-0.497-0.49-1.356-0.675c-0.693-0.152-1.384-0.397-1.384-1.164c0-1.113,0.962-1.402,1.897-1.402
		c0.954,0,1.831,0.322,1.924,1.393h-1.14c-0.033-0.461-0.389-0.589-0.817-0.589c-0.271,0-0.667,0.051-0.667,0.405
		c0,0.432,0.675,0.49,1.357,0.649c0.699,0.161,1.384,0.414,1.384,1.223c0,1.148-0.994,1.519-1.991,1.519
		c-1.012,0-1.999-0.38-2.05-1.535"/>
	<path fill="#FFFFFF" d="M118.41,33.203c-0.076-0.489-0.388-0.75-0.887-0.75c-0.768,0-1.021,0.776-1.021,1.417
		c0,0.624,0.245,1.375,0.997,1.375c0.558,0,0.878-0.354,0.953-0.886h1.155c-0.151,1.157-0.953,1.79-2.101,1.79
		c-1.314,0-2.202-0.929-2.202-2.236c0-1.358,0.81-2.363,2.228-2.363c1.03,0,1.973,0.542,2.05,1.654"/>
	<path fill="#FFFFFF" d="M122.331,31.549c1.376,0,2.262,0.912,2.262,2.304c0,1.385-0.886,2.295-2.262,2.295
		c-1.365,0-2.251-0.91-2.251-2.295C120.08,32.46,120.966,31.549,122.331,31.549 M122.331,35.244c0.82,0,1.063-0.699,1.063-1.391
		c0-0.701-0.243-1.4-1.063-1.4c-0.808,0-1.054,0.7-1.054,1.4C121.277,34.545,121.523,35.244,122.331,35.244"/>
	<polyline fill="#FFFFFF" points="127.714,36.029 126.38,36.029 124.888,31.668 126.146,31.668 127.064,34.646 127.081,34.646 
		128.001,31.668 129.189,31.668 	"/>
	<path fill="#FFFFFF" d="M130.606,34.142c0.034,0.757,0.407,1.103,1.072,1.103c0.481,0,0.871-0.294,0.946-0.564h1.054
		c-0.338,1.029-1.054,1.468-2.042,1.468c-1.375,0-2.227-0.946-2.227-2.295c0-1.307,0.902-2.304,2.227-2.304
		c1.484,0,2.203,1.251,2.117,2.593 M132.557,33.382c-0.109-0.609-0.371-0.93-0.953-0.93c-0.76,0-0.979,0.591-0.997,0.93H132.557z"/>
	<path fill="#FFFFFF" d="M134.395,31.668h1.141v0.812h0.017c0.219-0.55,0.811-0.931,1.393-0.931c0.082,0,0.185,0.018,0.262,0.044
		v1.113c-0.111-0.025-0.287-0.041-0.432-0.041c-0.876,0-1.181,0.631-1.181,1.398v1.966h-1.199"/>
	<path fill="#FFFFFF" d="M142.005,31.549c1.375,0,2.261,0.912,2.261,2.304c0,1.385-0.886,2.295-2.261,2.295
		c-1.365,0-2.253-0.91-2.253-2.295C139.752,32.46,140.64,31.549,142.005,31.549 M142.005,35.244c0.819,0,1.062-0.699,1.062-1.391
		c0-0.701-0.242-1.4-1.062-1.4c-0.811,0-1.056,0.7-1.056,1.4C140.949,34.545,141.194,35.244,142.005,35.244"/>
	<path fill="#FFFFFF" d="M144.974,31.668h1.139v0.812h0.019c0.219-0.55,0.809-0.931,1.391-0.931c0.084,0,0.187,0.018,0.262,0.044
		v1.113c-0.109-0.025-0.287-0.041-0.43-0.041c-0.877,0-1.181,0.631-1.181,1.398v1.966h-1.199"/>
	<path fill="#FFFFFF" d="M88.18,41.385c0.008,0.523,0.447,0.734,0.919,0.734c0.347,0,0.785-0.135,0.785-0.558
		c0-0.361-0.497-0.487-1.359-0.672c-0.69-0.153-1.382-0.397-1.382-1.164c0-1.116,0.961-1.402,1.896-1.402
		c0.953,0,1.832,0.322,1.924,1.392h-1.138c-0.034-0.465-0.388-0.591-0.819-0.591c-0.27,0-0.665,0.051-0.665,0.408
		c0,0.429,0.674,0.487,1.356,0.649c0.701,0.158,1.384,0.411,1.384,1.223c0,1.147-0.995,1.517-1.991,1.517
		c-1.012,0-1.999-0.38-2.05-1.535"/>
	<path fill="#FFFFFF" d="M95.806,42.803h-1.139v-0.609h-0.025c-0.304,0.49-0.827,0.726-1.333,0.726
		c-1.273,0-1.594-0.717-1.594-1.797v-2.682h1.197v2.462c0,0.717,0.21,1.072,0.769,1.072c0.649,0,0.926-0.364,0.926-1.25v-2.284
		h1.199"/>
	<path fill="#FFFFFF" d="M97.578,41.385c0.008,0.523,0.445,0.734,0.919,0.734c0.345,0,0.784-0.135,0.784-0.558
		c0-0.361-0.498-0.487-1.358-0.672c-0.691-0.153-1.384-0.397-1.384-1.164c0-1.116,0.961-1.402,1.898-1.402
		c0.953,0,1.83,0.322,1.924,1.392h-1.139c-0.033-0.465-0.389-0.591-0.82-0.591c-0.269,0-0.664,0.051-0.664,0.408
		c0,0.429,0.674,0.487,1.357,0.649c0.7,0.158,1.384,0.411,1.384,1.223c0,1.147-0.997,1.517-1.991,1.517
		c-1.012,0-1.999-0.38-2.05-1.535"/>
	<path fill="#FFFFFF" d="M101.113,38.442h1.137v0.555h0.018c0.286-0.463,0.759-0.674,1.299-0.674c1.366,0,1.983,1.104,1.983,2.345
		c0,1.164-0.643,2.253-1.916,2.253c-0.522,0-1.02-0.229-1.309-0.659h-0.017v2.077h-1.195 M104.351,40.635
		c0-0.693-0.277-1.41-1.045-1.41c-0.785,0-1.038,0.701-1.038,1.41c0,0.708,0.27,1.382,1.046,1.382
		C104.099,42.017,104.351,41.343,104.351,40.635"/>
	<path fill="#FFFFFF" d="M107.185,40.913c0.034,0.758,0.406,1.104,1.072,1.104c0.479,0,0.868-0.293,0.946-0.562h1.053
		c-0.337,1.029-1.053,1.466-2.043,1.466c-1.374,0-2.226-0.944-2.226-2.293c0-1.31,0.904-2.304,2.226-2.304
		c1.485,0,2.204,1.249,2.118,2.59 M109.136,40.153c-0.111-0.607-0.373-0.928-0.955-0.928c-0.76,0-0.979,0.59-0.996,0.928H109.136z"
		/>
	<path fill="#FFFFFF" d="M113.943,39.978c-0.078-0.491-0.39-0.752-0.888-0.752c-0.767,0-1.021,0.776-1.021,1.417
		c0,0.625,0.246,1.375,0.995,1.375c0.559,0,0.879-0.354,0.954-0.884h1.156c-0.151,1.157-0.955,1.788-2.103,1.788
		c-1.314,0-2.2-0.928-2.2-2.235c0-1.359,0.809-2.363,2.228-2.363c1.028,0,1.975,0.539,2.05,1.655"/>
	<path fill="#FFFFFF" d="M117.266,38.442h0.879v0.8h-0.879v2.162c0,0.403,0.103,0.505,0.506,0.505c0.128,0,0.246-0.009,0.373-0.035
		v0.938c-0.203,0.031-0.465,0.041-0.701,0.041c-0.732,0-1.375-0.168-1.375-1.038v-2.573h-0.727v-0.8h0.727v-1.309h1.197"/>
	<path fill="#FFFFFF" d="M120.877,39.782c0.067-1.122,1.071-1.459,2.052-1.459c0.867,0,1.913,0.194,1.913,1.239v2.27
		c0,0.399,0.042,0.793,0.151,0.972h-1.214c-0.042-0.137-0.075-0.28-0.085-0.422c-0.378,0.396-0.936,0.54-1.467,0.54
		c-0.827,0-1.484-0.414-1.484-1.308c0-0.985,0.741-1.223,1.484-1.325c0.732-0.107,1.417-0.084,1.417-0.573
		c0-0.515-0.355-0.591-0.776-0.591c-0.456,0-0.75,0.187-0.794,0.659 M123.645,40.667c-0.202,0.178-0.624,0.185-0.996,0.253
		c-0.371,0.077-0.708,0.203-0.708,0.641c0,0.448,0.346,0.558,0.733,0.558c0.936,0,0.971-0.743,0.971-1.005V40.667z"/>
	<path fill="#FFFFFF" d="M128.242,39.242h-0.718v-0.8h0.718v-0.338c0-0.769,0.481-1.324,1.459-1.324c0.21,0,0.43,0.024,0.633,0.032
		v0.895c-0.143-0.016-0.287-0.024-0.439-0.024c-0.32,0-0.454,0.134-0.454,0.498v0.262h0.826v0.8h-0.826v3.562h-1.198"/>
	<path fill="#FFFFFF" d="M131.954,37.765h-1.197v-0.987h1.197V37.765z M130.757,38.442h1.197v4.361h-1.197V38.442z"/>
	<path fill="#FFFFFF" d="M132.831,38.442h1.14v0.808h0.017c0.218-0.546,0.809-0.927,1.393-0.927c0.083,0,0.184,0.017,0.262,0.042
		v1.114c-0.111-0.027-0.289-0.043-0.432-0.043c-0.878,0-1.181,0.633-1.181,1.4v1.967h-1.198"/>
	<path fill="#FFFFFF" d="M136.881,40.913c0.033,0.758,0.404,1.104,1.072,1.104c0.481,0,0.868-0.293,0.944-0.562h1.055
		c-0.337,1.029-1.055,1.466-2.041,1.466c-1.375,0-2.229-0.944-2.229-2.293c0-1.31,0.903-2.304,2.229-2.304
		c1.484,0,2.2,1.249,2.117,2.59 M138.83,40.153c-0.108-0.607-0.37-0.928-0.953-0.928c-0.759,0-0.979,0.59-0.996,0.928H138.83z"/>
	<path fill="#FFFFFF" d="M82.309,52.375c1.722,0,2.735,1.286,2.735,2.94c0,1.606-1.014,2.894-2.735,2.894
		c-1.724,0-2.739-1.287-2.739-2.894C79.569,53.661,80.585,52.375,82.309,52.375 M82.309,57.18c1.1,0,1.513-0.938,1.513-1.865
		c0-0.976-0.413-1.912-1.513-1.912c-1.101,0-1.515,0.936-1.515,1.912C80.794,56.242,81.208,57.18,82.309,57.18"/>
	<path fill="#FFFFFF" d="M85.7,54.044h1.053v0.515h0.017c0.265-0.43,0.701-0.626,1.2-0.626c1.264,0,1.833,1.023,1.833,2.169
		c0,1.079-0.593,2.083-1.77,2.083c-0.484,0-0.945-0.21-1.21-0.609h-0.015v1.92H85.7 M88.696,56.07c0-0.639-0.258-1.302-0.968-1.302
		c-0.726,0-0.959,0.648-0.959,1.302c0,0.657,0.249,1.28,0.967,1.28C88.461,57.35,88.696,56.727,88.696,56.07"/>
	<path fill="#FFFFFF" d="M91.316,56.327c0.029,0.703,0.374,1.023,0.989,1.023c0.445,0,0.805-0.274,0.874-0.523h0.976
		c-0.312,0.952-0.976,1.358-1.888,1.358c-1.272,0-2.059-0.872-2.059-2.122c0-1.209,0.835-2.13,2.059-2.13
		c1.372,0,2.035,1.155,1.957,2.395 M93.118,55.626c-0.103-0.561-0.344-0.859-0.883-0.859c-0.701,0-0.904,0.547-0.919,0.859H93.118z"
		/>
	<path fill="#FFFFFF" d="M94.817,54.044h1.053v0.748h0.017c0.201-0.505,0.749-0.859,1.286-0.859c0.078,0,0.173,0.017,0.242,0.041
		v1.03c-0.103-0.026-0.265-0.041-0.397-0.041c-0.812,0-1.092,0.585-1.092,1.295v1.818h-1.108"/>
	<path fill="#FFFFFF" d="M97.742,55.282c0.063-1.036,0.991-1.349,1.896-1.349c0.802,0,1.77,0.181,1.77,1.148v2.1
		c0,0.364,0.039,0.731,0.14,0.896h-1.122c-0.039-0.125-0.071-0.257-0.077-0.389c-0.352,0.364-0.866,0.498-1.359,0.498
		c-0.763,0-1.371-0.383-1.371-1.209c0-0.913,0.687-1.131,1.371-1.225c0.68-0.101,1.312-0.078,1.312-0.531
		c0-0.474-0.328-0.544-0.718-0.544c-0.421,0-0.694,0.17-0.733,0.606 M100.301,56.102c-0.187,0.164-0.577,0.173-0.919,0.235
		c-0.345,0.07-0.657,0.187-0.657,0.594c0,0.412,0.32,0.515,0.68,0.515c0.865,0,0.896-0.688,0.896-0.93V56.102z"/>
	<path fill="#FFFFFF" d="M103.606,54.044h0.812v0.74h-0.812v1.996c0,0.375,0.095,0.469,0.47,0.469c0.117,0,0.226-0.007,0.343-0.031
		v0.866c-0.187,0.03-0.431,0.038-0.646,0.038c-0.681,0-1.272-0.157-1.272-0.959v-2.378h-0.671v-0.74h0.671v-1.21h1.106"/>
	<path fill="#FFFFFF" d="M105.801,56.327c0.03,0.703,0.372,1.023,0.989,1.023c0.444,0,0.804-0.274,0.874-0.523h0.975
		c-0.312,0.952-0.975,1.358-1.889,1.358c-1.27,0-2.059-0.872-2.059-2.122c0-1.209,0.834-2.13,2.059-2.13
		c1.373,0,2.036,1.155,1.958,2.395 M107.602,55.626c-0.102-0.561-0.345-0.859-0.882-0.859c-0.702,0-0.905,0.547-0.919,0.859H107.602
		z"/>
	<path fill="#FFFFFF" d="M112.811,54.044h0.812v0.74h-0.812v1.996c0,0.375,0.092,0.469,0.468,0.469c0.118,0,0.226-0.007,0.345-0.031
		v0.866c-0.188,0.03-0.43,0.038-0.649,0.038c-0.679,0-1.27-0.157-1.27-0.959v-2.378h-0.672v-0.74h0.672v-1.21h1.106"/>
	<path fill="#FFFFFF" d="M114.09,52.505h1.108v2.098h0.022c0.281-0.453,0.764-0.671,1.178-0.671c1.177,0,1.474,0.664,1.474,1.662
		v2.481h-1.105v-2.278c0-0.662-0.197-0.99-0.712-0.99c-0.6,0-0.856,0.334-0.856,1.155v2.113h-1.108"/>
	<path fill="#FFFFFF" d="M119.565,56.327c0.031,0.703,0.373,1.023,0.991,1.023c0.442,0,0.802-0.274,0.872-0.523h0.975
		c-0.312,0.952-0.975,1.358-1.888,1.358c-1.271,0-2.059-0.872-2.059-2.122c0-1.209,0.835-2.13,2.059-2.13
		c1.372,0,2.037,1.155,1.957,2.395 M121.365,55.626c-0.099-0.561-0.343-0.859-0.881-0.859c-0.701,0-0.905,0.547-0.919,0.859H121.365
		z"/>
	<path fill="#FFFFFF" d="M125.171,54.044h1.055v0.56h0.022c0.282-0.453,0.764-0.671,1.232-0.671c1.178,0,1.473,0.664,1.473,1.662
		v2.481h-1.106v-2.278c0-0.662-0.194-0.99-0.709-0.99c-0.602,0-0.858,0.334-0.858,1.155v2.113h-1.108"/>
	<path fill="#FFFFFF" d="M130.646,56.327c0.03,0.703,0.375,1.023,0.99,1.023c0.445,0,0.805-0.274,0.874-0.523h0.976
		c-0.312,0.952-0.976,1.358-1.888,1.358c-1.272,0-2.059-0.872-2.059-2.122c0-1.209,0.835-2.13,2.059-2.13
		c1.372,0,2.035,1.155,1.957,2.395 M132.448,55.626c-0.102-0.561-0.343-0.859-0.881-0.859c-0.702,0-0.905,0.547-0.921,0.859H132.448
		z"/>
	<path fill="#FFFFFF" d="M134.103,55.282c0.062-1.036,0.99-1.349,1.894-1.349c0.804,0,1.772,0.181,1.772,1.148v2.1
		c0,0.364,0.037,0.731,0.14,0.896h-1.124c-0.039-0.125-0.07-0.257-0.078-0.389c-0.35,0.364-0.864,0.498-1.356,0.498
		c-0.766,0-1.373-0.383-1.373-1.209c0-0.913,0.686-1.131,1.373-1.225c0.679-0.101,1.312-0.078,1.312-0.531
		c0-0.474-0.329-0.544-0.719-0.544c-0.421,0-0.693,0.17-0.732,0.606 M136.661,56.102c-0.188,0.164-0.577,0.173-0.922,0.235
		c-0.343,0.07-0.654,0.187-0.654,0.594c0,0.412,0.319,0.515,0.679,0.515c0.864,0,0.897-0.688,0.897-0.93V56.102z"/>
	<path fill="#FFFFFF" d="M138.562,54.044h1.054v0.748h0.016c0.203-0.505,0.747-0.859,1.286-0.859c0.078,0,0.173,0.017,0.243,0.041
		v1.03c-0.103-0.026-0.268-0.041-0.4-0.041c-0.811,0-1.092,0.585-1.092,1.295v1.818h-1.106"/>
	<path fill="#FFFFFF" d="M142.309,56.327c0.03,0.703,0.373,1.023,0.99,1.023c0.444,0,0.805-0.274,0.873-0.523h0.975
		c-0.311,0.952-0.975,1.358-1.887,1.358c-1.271,0-2.06-0.872-2.06-2.122c0-1.209,0.835-2.13,2.06-2.13
		c1.373,0,2.036,1.155,1.958,2.395 M144.11,55.626c-0.102-0.561-0.344-0.859-0.883-0.859c-0.701,0-0.903,0.547-0.919,0.859H144.11z"
		/>
	<path fill="#FFFFFF" d="M146.669,56.765c0.008,0.484,0.412,0.68,0.849,0.68c0.32,0,0.726-0.126,0.726-0.515
		c0-0.337-0.46-0.453-1.256-0.625c-0.641-0.142-1.278-0.367-1.278-1.077c0-1.029,0.888-1.295,1.754-1.295
		c0.883,0,1.692,0.298,1.779,1.288h-1.055c-0.029-0.429-0.357-0.544-0.756-0.544c-0.248,0-0.615,0.045-0.615,0.373
		c0,0.398,0.622,0.453,1.254,0.602c0.65,0.147,1.28,0.382,1.28,1.129c0,1.061-0.921,1.405-1.84,1.405
		c-0.937,0-1.85-0.352-1.896-1.42"/>
	<path fill="#FFFFFF" d="M151.339,54.044h0.812v0.74h-0.812v1.996c0,0.375,0.095,0.469,0.469,0.469c0.116,0,0.226-0.007,0.344-0.031
		v0.866c-0.187,0.03-0.431,0.038-0.647,0.038c-0.68,0-1.272-0.157-1.272-0.959v-2.378h-0.669v-0.74h0.669v-1.21h1.107"/>
	<path fill="#FFFFFF" d="M79.938,63.939h-0.665v-0.742h0.665v-0.311c0-0.71,0.443-1.226,1.349-1.226
		c0.194,0,0.397,0.024,0.584,0.032v0.827c-0.133-0.015-0.265-0.024-0.406-0.024c-0.296,0-0.421,0.125-0.421,0.462v0.24h0.766v0.742
		h-0.766v3.291h-1.105"/>
	<path fill="#FFFFFF" d="M83.369,62.575h-1.107V61.66h1.107V62.575z M82.262,63.197h1.107v4.032h-1.107V63.197z"/>
	<path fill="#FFFFFF" d="M84.18,63.197h1.053v0.749h0.015c0.205-0.507,0.751-0.857,1.288-0.857c0.079,0,0.173,0.015,0.242,0.038
		v1.03c-0.102-0.024-0.265-0.037-0.397-0.037c-0.812,0-1.092,0.583-1.092,1.293v1.817H84.18"/>
	<path fill="#FFFFFF" d="M87.926,65.482c0.032,0.703,0.373,1.023,0.991,1.023c0.442,0,0.802-0.272,0.872-0.523h0.975
		c-0.312,0.954-0.975,1.358-1.887,1.358c-1.271,0-2.06-0.874-2.06-2.122c0-1.209,0.835-2.128,2.06-2.128
		c1.371,0,2.036,1.155,1.956,2.393 M89.727,64.781c-0.1-0.562-0.343-0.857-0.882-0.857c-0.702,0-0.905,0.544-0.919,0.857H89.727z"/>
	<path fill="#FFFFFF" d="M93.486,64.438c0.062-1.036,0.989-1.349,1.894-1.349c0.805,0,1.771,0.18,1.771,1.147v2.097
		c0,0.365,0.038,0.734,0.14,0.896h-1.122c-0.039-0.125-0.072-0.257-0.079-0.389c-0.351,0.365-0.865,0.499-1.356,0.499
		c-0.765,0-1.372-0.383-1.372-1.209c0-0.913,0.686-1.131,1.372-1.225c0.68-0.102,1.312-0.078,1.312-0.529
		c0-0.477-0.328-0.547-0.72-0.547c-0.421,0-0.691,0.171-0.732,0.609 M96.045,65.256c-0.187,0.164-0.578,0.171-0.923,0.235
		c-0.341,0.069-0.653,0.187-0.653,0.592c0,0.414,0.32,0.515,0.68,0.515c0.864,0,0.896-0.685,0.896-0.928V65.256z"/>
	<rect x="97.979" y="61.66" fill="#FFFFFF" width="1.107" height="5.569"/>
	<path fill="#FFFFFF" d="M99.85,64.438c0.063-1.036,0.989-1.349,1.896-1.349c0.803,0,1.771,0.18,1.771,1.147v2.097
		c0,0.365,0.039,0.734,0.138,0.896h-1.122c-0.039-0.125-0.068-0.257-0.078-0.389c-0.35,0.365-0.864,0.499-1.357,0.499
		c-0.765,0-1.372-0.383-1.372-1.209c0-0.913,0.688-1.131,1.372-1.225c0.68-0.102,1.312-0.078,1.312-0.529
		c0-0.477-0.327-0.547-0.716-0.547c-0.423,0-0.696,0.171-0.734,0.609 M102.408,65.256c-0.187,0.164-0.578,0.171-0.921,0.235
		c-0.343,0.069-0.655,0.187-0.655,0.592c0,0.414,0.32,0.515,0.68,0.515c0.864,0,0.896-0.685,0.896-0.928V65.256z"/>
	<path fill="#FFFFFF" d="M104.311,63.197h1.053v0.749h0.017c0.201-0.507,0.749-0.857,1.286-0.857c0.078,0,0.173,0.015,0.242,0.038
		v1.03c-0.103-0.024-0.265-0.037-0.397-0.037c-0.812,0-1.092,0.583-1.092,1.293v1.817h-1.108"/>
	<path fill="#FFFFFF" d="M107.313,63.197h1.046v0.546h0.015c0.289-0.414,0.71-0.654,1.233-0.654c0.507,0,0.96,0.188,1.176,0.669
		c0.235-0.349,0.657-0.669,1.217-0.669c0.86,0,1.475,0.397,1.475,1.442v2.698h-1.107v-2.283c0-0.54-0.047-0.985-0.678-0.985
		c-0.623,0-0.74,0.515-0.74,1.021v2.247h-1.107v-2.262c0-0.466,0.03-1.006-0.672-1.006c-0.218,0-0.747,0.14-0.747,0.93v2.338h-1.109
		"/>
	<path fill="#FFFFFF" d="M119.137,64.619c-0.069-0.454-0.357-0.695-0.818-0.695c-0.708,0-0.942,0.716-0.942,1.309
		c0,0.578,0.227,1.272,0.919,1.272c0.514,0,0.812-0.328,0.883-0.82h1.067c-0.14,1.069-0.881,1.654-1.943,1.654
		c-1.217,0-2.034-0.857-2.034-2.066c0-1.257,0.749-2.184,2.059-2.184c0.953,0,1.824,0.498,1.895,1.529"/>
	<path fill="#FFFFFF" d="M120.76,64.438c0.063-1.036,0.991-1.349,1.895-1.349c0.804,0,1.772,0.18,1.772,1.147v2.097
		c0,0.365,0.037,0.734,0.14,0.896h-1.122c-0.041-0.125-0.072-0.257-0.08-0.389c-0.351,0.365-0.864,0.499-1.357,0.499
		c-0.765,0-1.372-0.383-1.372-1.209c0-0.913,0.686-1.131,1.372-1.225c0.68-0.102,1.312-0.078,1.312-0.529
		c0-0.477-0.328-0.547-0.719-0.547c-0.421,0-0.693,0.171-0.732,0.609 M123.319,65.256c-0.188,0.164-0.577,0.171-0.922,0.235
		c-0.343,0.069-0.654,0.187-0.654,0.592c0,0.414,0.319,0.515,0.679,0.515c0.864,0,0.897-0.685,0.897-0.928V65.256z"/>
	<rect x="125.252" y="61.66" fill="#FFFFFF" width="1.107" height="5.569"/>
	<rect x="127.203" y="61.66" fill="#FFFFFF" width="1.106" height="5.569"/>
	<path fill="#FFFFFF" d="M79.694,72.352h1.053v0.515h0.016c0.268-0.429,0.702-0.624,1.201-0.624c1.264,0,1.834,1.022,1.834,2.168
		c0,1.077-0.595,2.084-1.771,2.084c-0.482,0-0.944-0.21-1.209-0.611h-0.016v1.919h-1.108 M82.689,74.38
		c0-0.639-0.256-1.303-0.968-1.303c-0.725,0-0.959,0.648-0.959,1.303c0,0.656,0.249,1.281,0.969,1.281
		C82.456,75.662,82.689,75.036,82.689,74.38"/>
	<path fill="#FFFFFF" d="M86.355,72.243c1.271,0,2.091,0.842,2.091,2.132c0,1.278-0.819,2.121-2.091,2.121
		c-1.263,0-2.083-0.842-2.083-2.121C84.272,73.084,85.093,72.243,86.355,72.243 M86.355,75.662c0.755,0,0.982-0.649,0.982-1.287
		c0-0.649-0.228-1.297-0.982-1.297c-0.749,0-0.976,0.648-0.976,1.297C85.38,75.012,85.606,75.662,86.355,75.662"/>
	<path fill="#FFFFFF" d="M90.239,71.728h-1.107v-0.913h1.107V71.728z M89.132,72.352h1.107v4.032h-1.107V72.352z"/>
	<path fill="#FFFFFF" d="M91.051,72.352h1.054v0.561h0.023c0.28-0.451,0.763-0.67,1.232-0.67c1.177,0,1.474,0.665,1.474,1.662v2.479
		h-1.108v-2.277c0-0.662-0.195-0.99-0.71-0.99c-0.601,0-0.857,0.335-0.857,1.156v2.112h-1.107"/>
	<path fill="#FFFFFF" d="M97.018,72.352h0.811v0.743h-0.811v1.995c0,0.376,0.092,0.466,0.468,0.466c0.117,0,0.228-0.006,0.343-0.027
		v0.863c-0.187,0.033-0.429,0.039-0.648,0.039c-0.678,0-1.271-0.156-1.271-0.959v-2.377h-0.671v-0.743h0.671v-1.209h1.108"/>
	<polyline fill="#FFFFFF" points="79.813,87.05 81.036,87.05 81.036,91.589 83.751,91.589 83.751,92.621 79.813,92.621 	"/>
	<path fill="#FFFFFF" d="M85.171,90.874c0.031,0.703,0.373,1.022,0.991,1.022c0.443,0,0.802-0.273,0.872-0.523h0.975
		c-0.312,0.95-0.975,1.359-1.888,1.359c-1.271,0-2.059-0.875-2.059-2.123c0-1.21,0.834-2.13,2.059-2.13
		c1.372,0,2.036,1.155,1.957,2.395 M86.971,90.172c-0.099-0.562-0.343-0.86-0.88-0.86c-0.702,0-0.906,0.548-0.92,0.86H86.971z"/>
	<path fill="#FFFFFF" d="M88.625,89.827c0.062-1.035,0.99-1.348,1.894-1.348c0.805,0,1.771,0.181,1.771,1.146v2.1
		c0,0.367,0.04,0.731,0.141,0.896h-1.122c-0.039-0.126-0.071-0.259-0.078-0.391c-0.353,0.367-0.866,0.502-1.358,0.502
		c-0.763,0-1.371-0.385-1.371-1.212c0-0.911,0.686-1.131,1.371-1.222c0.68-0.105,1.312-0.081,1.312-0.532
		c0-0.476-0.328-0.547-0.718-0.547c-0.422,0-0.694,0.174-0.733,0.607 M91.184,90.648c-0.188,0.165-0.577,0.171-0.921,0.234
		c-0.343,0.069-0.655,0.187-0.655,0.593c0,0.415,0.319,0.514,0.679,0.514c0.864,0,0.897-0.686,0.897-0.926V90.648z"/>
	<polyline fill="#FFFFFF" points="95.315,92.621 94.085,92.621 92.704,88.587 93.867,88.587 94.717,91.339 94.731,91.339 
		95.581,88.587 96.683,88.587 	"/>
	<path fill="#FFFFFF" d="M97.992,90.874c0.03,0.703,0.373,1.022,0.989,1.022c0.444,0,0.804-0.273,0.874-0.523h0.975
		c-0.312,0.95-0.975,1.359-1.888,1.359c-1.271,0-2.058-0.875-2.058-2.123c0-1.21,0.834-2.13,2.058-2.13
		c1.373,0,2.035,1.155,1.957,2.395 M99.792,90.172c-0.101-0.562-0.341-0.86-0.881-0.86c-0.702,0-0.904,0.548-0.919,0.86H99.792z"/>
	<path fill="#FFFFFF" d="M105.002,88.587h0.812v0.742h-0.812v1.998c0,0.373,0.095,0.466,0.47,0.466c0.115,0,0.226-0.009,0.343-0.03
		v0.863c-0.188,0.033-0.431,0.042-0.648,0.042c-0.678,0-1.271-0.159-1.271-0.959v-2.38h-0.671v-0.742h0.671v-1.21h1.106"/>
	<path fill="#FFFFFF" d="M106.282,87.05h1.106v2.1h0.024c0.28-0.451,0.764-0.671,1.178-0.671c1.176,0,1.474,0.664,1.474,1.66v2.481
		h-1.106v-2.277c0-0.664-0.195-0.992-0.71-0.992c-0.602,0-0.859,0.337-0.859,1.155v2.114h-1.106"/>
	<path fill="#FFFFFF" d="M111.757,90.874c0.031,0.703,0.373,1.022,0.991,1.022c0.443,0,0.802-0.273,0.872-0.523h0.977
		c-0.313,0.95-0.977,1.359-1.89,1.359c-1.271,0-2.059-0.875-2.059-2.123c0-1.21,0.835-2.13,2.059-2.13
		c1.375,0,2.036,1.155,1.958,2.395 M113.559,90.172c-0.101-0.562-0.343-0.86-0.882-0.86c-0.702,0-0.905,0.548-0.92,0.86H113.559z"/>
	<path fill="#FFFFFF" d="M117.363,87.05h1.108v2.03h0.016c0.273-0.415,0.771-0.602,1.271-0.602c0.805,0,1.67,0.646,1.67,2.12
		c0,1.483-0.865,2.133-1.67,2.133c-0.593,0-1.084-0.184-1.325-0.626h-0.017v0.515h-1.053 M119.376,89.312
		c-0.654,0-0.943,0.616-0.943,1.297c0,0.67,0.289,1.287,0.943,1.287s0.944-0.617,0.944-1.287
		C120.32,89.928,120.03,89.312,119.376,89.312"/>
	<path fill="#FFFFFF" d="M125.849,92.621h-1.051v-0.562h-0.025c-0.28,0.451-0.765,0.674-1.232,0.674
		c-1.177,0-1.474-0.665-1.474-1.663v-2.481h1.107v2.279c0,0.662,0.195,0.99,0.71,0.99c0.602,0,0.858-0.337,0.858-1.155v-2.114h1.106
		"/>
	<path fill="#FFFFFF" d="M127.769,87.964h-1.107V87.05h1.107V87.964z M126.661,88.587h1.107v4.033h-1.107V88.587z"/>
	<rect x="128.61" y="87.05" fill="#FFFFFF" width="1.107" height="5.57"/>
	<path fill="#FFFFFF" d="M133.406,92.106h-0.013c-0.259,0.437-0.71,0.626-1.227,0.626c-1.217,0-1.811-1.047-1.811-2.163
		c0-1.085,0.604-2.09,1.787-2.09c0.477,0,0.944,0.204,1.201,0.602h-0.007h0.015v-2.03h1.106v5.57h-1.053 M132.439,89.312
		c-0.724,0-0.973,0.626-0.973,1.287c0,0.632,0.287,1.297,0.973,1.297c0.732,0,0.954-0.641,0.954-1.303
		C133.394,89.938,133.157,89.312,132.439,89.312"/>
	<path fill="#FFFFFF" d="M136.371,87.964h-1.107V87.05h1.107V87.964z M135.264,88.587h1.107v4.033h-1.107V88.587z"/>
	<path fill="#FFFFFF" d="M137.184,88.587h1.051v0.562h0.022c0.283-0.451,0.766-0.671,1.235-0.671c1.176,0,1.474,0.664,1.474,1.66
		v2.481h-1.108v-2.277c0-0.664-0.195-0.992-0.71-0.992c-0.601,0-0.857,0.337-0.857,1.155v2.114h-1.106"/>
	<path fill="#FFFFFF" d="M145.62,92.362c0,0.665-0.232,1.787-2.089,1.787c-0.797,0-1.725-0.376-1.779-1.294h1.1
		c0.103,0.412,0.438,0.554,0.827,0.554c0.617,0,0.896-0.421,0.889-0.998v-0.533h-0.017c-0.24,0.422-0.725,0.626-1.207,0.626
		c-1.209,0-1.724-0.92-1.724-2.027c0-1.047,0.6-1.997,1.73-1.997c0.531,0,0.936,0.181,1.2,0.646h0.017v-0.538h1.053 M144.567,90.554
		c0-0.655-0.227-1.242-0.942-1.242c-0.626,0-0.898,0.548-0.898,1.146c0,0.577,0.219,1.209,0.898,1.209
		C144.257,91.667,144.567,91.131,144.567,90.554"/>
	<path fill="#FFFFFF" d="M79.694,96.207h1.108v2.027h0.016c0.273-0.412,0.771-0.602,1.271-0.602c0.805,0,1.67,0.649,1.67,2.123
		c0,1.481-0.865,2.129-1.67,2.129c-0.593,0-1.084-0.18-1.326-0.621h-0.016v0.514h-1.053 M81.707,98.468
		c-0.654,0-0.944,0.616-0.944,1.294c0,0.673,0.29,1.287,0.944,1.287s0.944-0.614,0.944-1.287
		C82.651,99.084,82.361,98.468,81.707,98.468"/>
	<path fill="#FFFFFF" d="M86.388,102.283c-0.244,0.648-0.626,0.914-1.39,0.914c-0.226,0-0.453-0.018-0.679-0.043v-0.91
		c0.211,0.014,0.431,0.047,0.648,0.039c0.382-0.039,0.507-0.438,0.382-0.756l-1.42-3.784h1.186l0.914,2.761h0.016l0.879-2.761h1.146
		"/>
	<path fill="#FFFFFF" d="M91.894,97.744h0.812v0.739h-0.812v1.998c0,0.373,0.092,0.469,0.466,0.469c0.119,0,0.228-0.009,0.347-0.033
		v0.867c-0.188,0.029-0.431,0.039-0.65,0.039c-0.678,0-1.27-0.156-1.27-0.959v-2.38h-0.672v-0.739h0.672v-1.21h1.107"/>
	<path fill="#FFFFFF" d="M93.172,96.207h1.108v2.097h0.022c0.281-0.451,0.765-0.671,1.178-0.671c1.178,0,1.474,0.664,1.474,1.663
		v2.482h-1.105v-2.281c0-0.661-0.195-0.989-0.71-0.989c-0.602,0-0.858,0.334-0.858,1.155v2.115h-1.108"/>
	<path fill="#FFFFFF" d="M98.647,100.027c0.032,0.703,0.373,1.022,0.991,1.022c0.444,0,0.802-0.273,0.871-0.523h0.977
		c-0.312,0.953-0.977,1.359-1.888,1.359c-1.271,0-2.06-0.871-2.06-2.123c0-1.21,0.835-2.13,2.06-2.13
		c1.371,0,2.036,1.155,1.956,2.395 M100.448,99.326c-0.1-0.56-0.343-0.857-0.882-0.857c-0.7,0-0.905,0.548-0.919,0.857H100.448z"/>
	<path fill="#FFFFFF" d="M104.255,97.744h1.053v0.56h0.022c0.281-0.451,0.764-0.671,1.233-0.671c1.178,0,1.474,0.664,1.474,1.663
		v2.482h-1.108v-2.281c0-0.661-0.193-0.989-0.708-0.989c-0.602,0-0.859,0.334-0.859,1.155v2.115h-1.106"/>
	<path fill="#FFFFFF" d="M109.729,100.027c0.03,0.703,0.374,1.022,0.989,1.022c0.445,0,0.805-0.273,0.874-0.523h0.977
		c-0.313,0.953-0.977,1.359-1.888,1.359c-1.272,0-2.06-0.871-2.06-2.123c0-1.21,0.835-2.13,2.06-2.13
		c1.371,0,2.034,1.155,1.956,2.395 M111.531,99.326c-0.103-0.56-0.343-0.857-0.883-0.857c-0.701,0-0.904,0.548-0.919,0.857H111.531z
		"/>
	<path fill="#FFFFFF" d="M113.184,98.983c0.063-1.038,0.991-1.351,1.896-1.351c0.803,0,1.771,0.181,1.771,1.148v2.1
		c0,0.364,0.038,0.731,0.14,0.897h-1.122c-0.04-0.127-0.071-0.26-0.079-0.391c-0.351,0.363-0.865,0.498-1.356,0.498
		c-0.766,0-1.373-0.385-1.373-1.208c0-0.914,0.686-1.131,1.373-1.225c0.678-0.102,1.312-0.078,1.312-0.532
		c0-0.473-0.33-0.544-0.72-0.544c-0.421,0-0.693,0.171-0.732,0.607 M115.744,99.801c-0.188,0.165-0.578,0.174-0.922,0.234
		c-0.344,0.072-0.654,0.187-0.654,0.596c0,0.412,0.318,0.513,0.678,0.513c0.865,0,0.898-0.688,0.898-0.928V99.801z"/>
	<path fill="#FFFFFF" d="M117.645,97.744h1.055v0.749h0.015c0.203-0.506,0.749-0.86,1.286-0.86c0.078,0,0.173,0.018,0.242,0.042
		v1.028c-0.101-0.023-0.265-0.039-0.398-0.039c-0.811,0-1.092,0.584-1.092,1.294v1.82h-1.107"/>
	<path fill="#FFFFFF" d="M121.392,100.027c0.029,0.703,0.373,1.022,0.989,1.022c0.445,0,0.805-0.273,0.874-0.523h0.975
		c-0.312,0.953-0.975,1.359-1.888,1.359c-1.271,0-2.059-0.871-2.059-2.123c0-1.21,0.834-2.13,2.059-2.13
		c1.373,0,2.036,1.155,1.958,2.395 M123.193,99.326c-0.103-0.56-0.345-0.857-0.883-0.857c-0.701,0-0.904,0.548-0.919,0.857H123.193z
		"/>
	<path fill="#FFFFFF" d="M125.751,100.465c0.008,0.484,0.412,0.679,0.849,0.679c0.32,0,0.727-0.125,0.727-0.513
		c0-0.337-0.46-0.454-1.256-0.626c-0.64-0.142-1.278-0.367-1.278-1.077c0-1.028,0.887-1.296,1.754-1.296
		c0.883,0,1.691,0.298,1.778,1.287h-1.054c-0.03-0.427-0.358-0.544-0.757-0.544c-0.248,0-0.615,0.045-0.615,0.373
		c0,0.399,0.624,0.454,1.255,0.602c0.649,0.146,1.279,0.382,1.279,1.131c0,1.058-0.92,1.404-1.839,1.404
		c-0.938,0-1.85-0.352-1.896-1.419"/>
	<path fill="#FFFFFF" d="M130.421,97.744h0.812v0.739h-0.812v1.998c0,0.373,0.095,0.469,0.47,0.469c0.115,0,0.226-0.009,0.343-0.033
		v0.867c-0.187,0.029-0.43,0.039-0.646,0.039c-0.68,0-1.272-0.156-1.272-0.959v-2.38h-0.669v-0.739h0.669v-1.21h1.106"/>
	<path fill="#FFFFFF" d="M79.648,108.139c0.062-1.037,0.99-1.35,1.896-1.35c0.801,0,1.769,0.18,1.769,1.148v2.096
		c0,0.365,0.039,0.734,0.14,0.896h-1.122c-0.039-0.125-0.07-0.258-0.076-0.391c-0.354,0.367-0.868,0.5-1.358,0.5
		c-0.765,0-1.373-0.383-1.373-1.209c0-0.912,0.688-1.131,1.373-1.225c0.678-0.104,1.31-0.078,1.31-0.529
		c0-0.477-0.328-0.547-0.717-0.547c-0.422,0-0.695,0.17-0.734,0.609 M82.206,108.957c-0.187,0.162-0.577,0.172-0.919,0.234
		c-0.344,0.07-0.657,0.188-0.657,0.594c0,0.412,0.32,0.514,0.68,0.514c0.865,0,0.896-0.686,0.896-0.93V108.957z"/>
	<polyline fill="#FFFFFF" points="86.339,110.93 85.107,110.93 83.729,106.896 84.89,106.896 85.739,109.648 85.754,109.648 
		86.605,106.896 87.705,106.896 	"/>
	<path fill="#FFFFFF" d="M88.056,108.139c0.062-1.037,0.991-1.35,1.896-1.35c0.802,0,1.769,0.18,1.769,1.148v2.096
		c0,0.365,0.039,0.734,0.14,0.896h-1.122c-0.039-0.125-0.07-0.258-0.078-0.391c-0.352,0.367-0.866,0.5-1.356,0.5
		c-0.764,0-1.373-0.383-1.373-1.209c0-0.912,0.688-1.131,1.373-1.225c0.678-0.104,1.31-0.078,1.31-0.529
		c0-0.477-0.327-0.547-0.717-0.547c-0.422,0-0.695,0.17-0.734,0.609 M90.613,108.957c-0.187,0.162-0.577,0.172-0.919,0.234
		c-0.344,0.07-0.657,0.188-0.657,0.594c0,0.412,0.32,0.514,0.68,0.514c0.865,0,0.896-0.686,0.896-0.93V108.957z"/>
	<path fill="#FFFFFF" d="M93.654,106.273h-1.106v-0.914h1.106V106.273z M92.548,106.896h1.106v4.033h-1.106V106.896z"/>
	<rect x="94.498" y="105.359" fill="#FFFFFF" width="1.107" height="5.57"/>
	<path fill="#FFFFFF" d="M96.371,108.139c0.062-1.037,0.989-1.35,1.894-1.35c0.803,0,1.771,0.18,1.771,1.148v2.096
		c0,0.365,0.037,0.734,0.14,0.896h-1.123c-0.039-0.125-0.071-0.258-0.078-0.391c-0.351,0.367-0.865,0.5-1.356,0.5
		c-0.766,0-1.374-0.383-1.374-1.209c0-0.912,0.687-1.131,1.374-1.225c0.678-0.104,1.311-0.078,1.311-0.529
		c0-0.477-0.329-0.547-0.719-0.547c-0.421,0-0.693,0.17-0.732,0.609 M98.929,108.957c-0.188,0.162-0.577,0.172-0.922,0.234
		c-0.343,0.07-0.654,0.188-0.654,0.594c0,0.412,0.319,0.514,0.679,0.514c0.865,0,0.897-0.686,0.897-0.93V108.957z"/>
	<path fill="#FFFFFF" d="M100.83,105.359h1.107v2.031h0.017c0.273-0.412,0.771-0.602,1.271-0.602c0.803,0,1.671,0.646,1.671,2.123
		c0,1.48-0.868,2.127-1.671,2.127c-0.593,0-1.083-0.182-1.325-0.623h-0.015v0.514h-1.055 M102.844,107.625
		c-0.657,0-0.944,0.613-0.944,1.293c0,0.67,0.287,1.287,0.944,1.287c0.654,0,0.941-0.617,0.941-1.287
		C103.785,108.238,103.498,107.625,102.844,107.625"/>
	<rect x="105.564" y="105.359" fill="#FFFFFF" width="1.107" height="5.57"/>
	<path fill="#FFFFFF" d="M108.396,109.184c0.032,0.699,0.373,1.021,0.991,1.021c0.442,0,0.802-0.273,0.872-0.523h0.975
		c-0.312,0.953-0.975,1.357-1.887,1.357c-1.271,0-2.06-0.873-2.06-2.121c0-1.209,0.835-2.129,2.06-2.129
		c1.371,0,2.036,1.154,1.956,2.395 M110.197,108.482c-0.1-0.562-0.343-0.857-0.882-0.857c-0.7,0-0.905,0.545-0.919,0.857H110.197z"
		/>
	<path fill="#FFFFFF" d="M114.917,109.184c0.029,0.699,0.374,1.021,0.989,1.021c0.445,0,0.805-0.273,0.874-0.523h0.975
		c-0.312,0.953-0.975,1.357-1.887,1.357c-1.271,0-2.06-0.873-2.06-2.121c0-1.209,0.834-2.129,2.06-2.129
		c1.372,0,2.034,1.154,1.957,2.395 M116.717,108.482c-0.101-0.562-0.343-0.857-0.881-0.857c-0.701,0-0.904,0.545-0.919,0.857
		H116.717z"/>
	<polyline fill="#FFFFFF" points="119.446,108.807 118.122,106.896 119.384,106.896 120.094,107.949 120.796,106.896 
		122.02,106.896 120.695,108.785 122.186,110.93 120.921,110.93 120.078,109.658 119.236,110.93 117.997,110.93 	"/>
	<path fill="#FFFFFF" d="M123.682,106.273h-1.106v-0.914h1.106V106.273z M122.575,106.896h1.106v4.033h-1.106V106.896z"/>
	<path fill="#FFFFFF" d="M125.897,106.896h0.811v0.742h-0.811v1.996c0,0.375,0.093,0.469,0.468,0.469
		c0.117,0,0.227-0.01,0.343-0.031v0.863c-0.186,0.033-0.429,0.039-0.646,0.039c-0.679,0-1.271-0.152-1.271-0.959v-2.377h-0.671
		v-0.742h0.671v-1.205h1.107"/>
	<path fill="#FFFFFF" d="M79.813,121.596h3c0.999,0,1.631,0.695,1.631,1.537c0,0.656-0.265,1.146-0.882,1.396v0.014
		c0.601,0.156,0.773,0.74,0.812,1.307c0.022,0.348,0.015,1.004,0.233,1.314h-1.225c-0.147-0.35-0.132-0.889-0.195-1.332
		c-0.084-0.588-0.312-0.844-0.928-0.844h-1.225v2.176h-1.223 M81.036,124.117h1.343c0.545,0,0.841-0.234,0.841-0.797
		c0-0.539-0.296-0.773-0.841-0.773h-1.343V124.117z"/>
	<path fill="#FFFFFF" d="M86.177,125.416c0.03,0.703,0.375,1.023,0.989,1.023c0.445,0,0.804-0.271,0.874-0.523h0.975
		c-0.312,0.953-0.975,1.359-1.886,1.359c-1.272,0-2.059-0.875-2.059-2.125c0-1.209,0.834-2.125,2.059-2.125
		c1.372,0,2.033,1.154,1.957,2.391 M87.978,124.715c-0.102-0.562-0.342-0.857-0.882-0.857c-0.702,0-0.904,0.545-0.919,0.857H87.978z
		"/>
	<path fill="#FFFFFF" d="M89.677,123.133h1.054v0.514h0.016c0.266-0.426,0.702-0.621,1.201-0.621c1.264,0,1.832,1.021,1.832,2.168
		c0,1.074-0.593,2.082-1.77,2.082c-0.483,0-0.943-0.211-1.208-0.611h-0.016v1.92h-1.109 M92.673,125.16
		c0-0.641-0.258-1.303-0.968-1.303c-0.725,0-0.959,0.646-0.959,1.303s0.249,1.279,0.967,1.279
		C92.438,126.439,92.673,125.816,92.673,125.16"/>
	<path fill="#FFFFFF" d="M96.338,123.025c1.272,0,2.091,0.838,2.091,2.125c0,1.283-0.818,2.125-2.091,2.125
		c-1.262,0-2.082-0.842-2.082-2.125C94.256,123.863,95.076,123.025,96.338,123.025 M96.338,126.439c0.757,0,0.982-0.646,0.982-1.289
		c0-0.646-0.226-1.293-0.982-1.293c-0.748,0-0.975,0.646-0.975,1.293C95.363,125.793,95.59,126.439,96.338,126.439"/>
	<path fill="#FFFFFF" d="M99.084,123.133h1.052v0.75h0.018c0.201-0.51,0.748-0.857,1.286-0.857c0.078,0,0.171,0.014,0.24,0.035
		v1.031c-0.101-0.023-0.265-0.039-0.396-0.039c-0.811,0-1.092,0.584-1.092,1.295v1.816h-1.107"/>
	<path fill="#FFFFFF" d="M103.459,123.133h0.812v0.74h-0.812v1.998c0,0.373,0.095,0.465,0.468,0.465
		c0.117,0,0.228-0.006,0.345-0.029v0.865c-0.188,0.031-0.431,0.039-0.648,0.039c-0.679,0-1.271-0.156-1.271-0.959v-2.379h-0.673
		v-0.74h0.673v-1.209h1.106"/>
	<path fill="#FFFFFF" d="M108.248,123.133h0.811v0.74h-0.811v1.998c0,0.373,0.093,0.465,0.468,0.465
		c0.117,0,0.227-0.006,0.343-0.029v0.865c-0.185,0.031-0.429,0.039-0.646,0.039c-0.679,0-1.271-0.156-1.271-0.959v-2.379h-0.671
		v-0.74h0.671v-1.209h1.107"/>
	<path fill="#FFFFFF" d="M111.484,123.025c1.272,0,2.091,0.838,2.091,2.125c0,1.283-0.818,2.125-2.091,2.125
		c-1.262,0-2.081-0.842-2.081-2.125C109.403,123.863,110.223,123.025,111.484,123.025 M111.484,126.439
		c0.757,0,0.983-0.646,0.983-1.289c0-0.646-0.227-1.293-0.983-1.293c-0.747,0-0.975,0.646-0.975,1.293
		C110.51,125.793,110.737,126.439,111.484,126.439"/>
	<path fill="#FFFFFF" d="M116.336,123.133h1.052v0.514h0.017c0.267-0.426,0.701-0.621,1.201-0.621c1.264,0,1.834,1.021,1.834,2.168
		c0,1.074-0.593,2.082-1.771,2.082c-0.483,0-0.945-0.211-1.21-0.611h-0.015v1.92h-1.107 M119.332,125.16
		c0-0.641-0.259-1.303-0.969-1.303c-0.725,0-0.959,0.646-0.959,1.303s0.25,1.279,0.969,1.279
		C119.098,126.439,119.332,125.816,119.332,125.16"/>
	<path fill="#FFFFFF" d="M121.951,125.416c0.031,0.703,0.374,1.023,0.991,1.023c0.444,0,0.803-0.271,0.872-0.523h0.978
		c-0.313,0.953-0.978,1.359-1.89,1.359c-1.271,0-2.059-0.875-2.059-2.125c0-1.209,0.835-2.125,2.059-2.125
		c1.374,0,2.037,1.154,1.959,2.391 M123.753,124.715c-0.102-0.562-0.344-0.857-0.88-0.857c-0.703,0-0.905,0.545-0.922,0.857H123.753
		z"/>
	<path fill="#FFFFFF" d="M125.453,123.133h1.052v0.75h0.018c0.202-0.51,0.748-0.857,1.286-0.857c0.078,0,0.172,0.014,0.241,0.035
		v1.031c-0.102-0.023-0.265-0.039-0.397-0.039c-0.811,0-1.092,0.584-1.092,1.295v1.816h-1.107"/>
	<path fill="#FFFFFF" d="M129.284,125.855c0.006,0.48,0.412,0.676,0.849,0.676c0.32,0,0.726-0.123,0.726-0.514
		c0-0.334-0.46-0.451-1.255-0.623c-0.64-0.141-1.279-0.367-1.279-1.076c0-1.029,0.89-1.293,1.754-1.293
		c0.882,0,1.692,0.295,1.779,1.287h-1.054c-0.03-0.43-0.358-0.547-0.757-0.547c-0.248,0-0.615,0.045-0.615,0.371
		c0,0.398,0.624,0.455,1.254,0.604c0.65,0.15,1.28,0.381,1.28,1.131c0,1.061-0.92,1.404-1.841,1.404
		c-0.936,0-1.849-0.352-1.896-1.42"/>
	<path fill="#FFFFFF" d="M134.509,123.025c1.271,0,2.091,0.838,2.091,2.125c0,1.283-0.819,2.125-2.091,2.125
		c-1.265,0-2.081-0.842-2.081-2.125C132.428,123.863,133.244,123.025,134.509,123.025 M134.509,126.439
		c0.757,0,0.982-0.646,0.982-1.289c0-0.646-0.226-1.293-0.982-1.293c-0.749,0-0.975,0.646-0.975,1.293
		C133.534,125.793,133.76,126.439,134.509,126.439"/>
	<path fill="#FFFFFF" d="M137.254,123.133h1.053v0.561h0.024c0.281-0.451,0.764-0.668,1.231-0.668c1.178,0,1.474,0.66,1.474,1.66
		v2.479h-1.105v-2.273c0-0.666-0.196-0.994-0.711-0.994c-0.601,0-0.857,0.338-0.857,1.156v2.111h-1.108"/>
	<path fill="#FFFFFF" d="M145.06,122.51h-1.107v-0.914h1.107V122.51z M143.952,123.133h1.107v4.031h-1.107V123.133z"/>
	<path fill="#FFFFFF" d="M145.872,123.133h1.053v0.561h0.023c0.28-0.451,0.765-0.668,1.232-0.668c1.178,0,1.474,0.66,1.474,1.66
		v2.479h-1.107v-2.273c0-0.666-0.195-0.994-0.709-0.994c-0.602,0-0.859,0.338-0.859,1.156v2.111h-1.106"/>
	<path fill="#FFFFFF" d="M82.44,133.707c-0.068-0.453-0.359-0.695-0.819-0.695c-0.71,0-0.942,0.719-0.942,1.311
		c0,0.578,0.227,1.273,0.918,1.273c0.515,0,0.812-0.328,0.882-0.822h1.069c-0.14,1.072-0.881,1.658-1.941,1.658
		c-1.217,0-2.037-0.861-2.037-2.07c0-1.258,0.751-2.184,2.06-2.184c0.952,0,1.824,0.5,1.896,1.529"/>
	<path fill="#FFFFFF" d="M84.11,130.75h1.106v2.1h0.023c0.281-0.451,0.764-0.672,1.179-0.672c1.176,0,1.474,0.664,1.474,1.66v2.482
		h-1.108v-2.277c0-0.664-0.195-0.992-0.71-0.992c-0.6,0-0.857,0.336-0.857,1.154v2.115H84.11"/>
	<path fill="#FFFFFF" d="M88.625,133.525c0.062-1.035,0.99-1.348,1.894-1.348c0.805,0,1.771,0.182,1.771,1.146v2.1
		c0,0.367,0.04,0.73,0.141,0.896h-1.122c-0.039-0.127-0.071-0.26-0.078-0.391c-0.353,0.367-0.866,0.502-1.358,0.502
		c-0.763,0-1.371-0.385-1.371-1.213c0-0.91,0.686-1.131,1.371-1.221c0.68-0.105,1.312-0.082,1.312-0.533
		c0-0.475-0.328-0.547-0.718-0.547c-0.422,0-0.694,0.174-0.733,0.607 M91.184,134.348c-0.188,0.164-0.577,0.17-0.921,0.234
		c-0.343,0.068-0.655,0.186-0.655,0.592c0,0.416,0.319,0.514,0.679,0.514c0.864,0,0.897-0.686,0.897-0.926V134.348z"/>
	<path fill="#FFFFFF" d="M93.085,132.287h1.054v0.752h0.016c0.203-0.51,0.749-0.861,1.285-0.861c0.079,0,0.174,0.018,0.244,0.039
		v1.029c-0.103-0.021-0.267-0.039-0.398-0.039c-0.811,0-1.092,0.586-1.092,1.297v1.816h-1.108"/>
	<path fill="#FFFFFF" d="M99.934,136.061c0,0.666-0.232,1.787-2.089,1.787c-0.797,0-1.725-0.375-1.779-1.293h1.1
		c0.103,0.412,0.438,0.553,0.827,0.553c0.616,0,0.896-0.42,0.889-0.998v-0.533h-0.015c-0.242,0.422-0.727,0.627-1.209,0.627
		c-1.21,0-1.724-0.92-1.724-2.027c0-1.047,0.6-1.998,1.73-1.998c0.531,0,0.936,0.182,1.202,0.646h0.015v-0.537h1.053
		 M98.881,134.254c0-0.656-0.227-1.242-0.942-1.242c-0.626,0-0.898,0.547-0.898,1.146c0,0.576,0.22,1.209,0.898,1.209
		C98.569,135.367,98.881,134.83,98.881,134.254"/>
	<path fill="#FFFFFF" d="M101.673,134.572c0.031,0.703,0.374,1.023,0.99,1.023c0.445,0,0.804-0.273,0.873-0.523h0.978
		c-0.313,0.949-0.978,1.359-1.89,1.359c-1.271,0-2.059-0.875-2.059-2.123c0-1.211,0.835-2.131,2.059-2.131
		c1.374,0,2.037,1.156,1.959,2.395 M103.475,133.871c-0.102-0.562-0.344-0.859-0.88-0.859c-0.703,0-0.905,0.547-0.922,0.859H103.475
		z"/>
	<path fill="#FFFFFF" d="M109.237,132.178c1.272,0,2.091,0.842,2.091,2.131c0,1.281-0.818,2.123-2.091,2.123
		c-1.262,0-2.081-0.842-2.081-2.123C107.156,133.02,107.976,132.178,109.237,132.178 M109.237,135.596
		c0.757,0,0.983-0.646,0.983-1.287c0-0.648-0.227-1.297-0.983-1.297c-0.747,0-0.975,0.648-0.975,1.297
		C108.263,134.949,108.49,135.596,109.237,135.596"/>
	<path fill="#FFFFFF" d="M112.226,133.029h-0.664v-0.742h0.664v-0.314c0-0.707,0.445-1.223,1.35-1.223
		c0.193,0,0.396,0.025,0.585,0.033v0.826c-0.134-0.018-0.267-0.023-0.406-0.023c-0.296,0-0.421,0.123-0.421,0.459v0.242h0.764v0.742
		h-0.764v3.291h-1.107"/>
	<path fill="#FFFFFF" d="M118.262,130.75h1.256l2.083,5.57h-1.271l-0.422-1.24h-2.082l-0.438,1.24h-1.239 M118.146,134.166h1.442
		l-0.701-2.043h-0.018L118.146,134.166z"/>
	<path fill="#FFFFFF" d="M122.763,135.012c0.008,0.48,0.412,0.676,0.85,0.676c0.319,0,0.727-0.125,0.727-0.514
		c0-0.336-0.462-0.453-1.257-0.625c-0.64-0.143-1.278-0.365-1.278-1.074c0-1.029,0.889-1.297,1.753-1.297
		c0.883,0,1.694,0.295,1.779,1.287h-1.053c-0.031-0.426-0.359-0.547-0.756-0.547c-0.25,0-0.617,0.049-0.617,0.377
		c0,0.396,0.624,0.451,1.256,0.598c0.648,0.15,1.28,0.383,1.28,1.135c0,1.059-0.922,1.404-1.841,1.404
		c-0.938,0-1.851-0.355-1.896-1.42"/>
	<path fill="#FFFFFF" d="M126.889,135.012c0.007,0.48,0.413,0.676,0.851,0.676c0.319,0,0.726-0.125,0.726-0.514
		c0-0.336-0.461-0.453-1.258-0.625c-0.639-0.143-1.278-0.365-1.278-1.074c0-1.029,0.891-1.297,1.757-1.297
		c0.88,0,1.692,0.295,1.776,1.287h-1.053c-0.032-0.426-0.359-0.547-0.757-0.547c-0.25,0-0.615,0.049-0.615,0.377
		c0,0.396,0.623,0.451,1.256,0.598c0.646,0.15,1.278,0.383,1.278,1.135c0,1.059-0.92,1.404-1.841,1.404
		c-0.936,0-1.847-0.355-1.895-1.42"/>
	<path fill="#FFFFFF" d="M131.069,134.572c0.031,0.703,0.373,1.023,0.991,1.023c0.443,0,0.802-0.273,0.874-0.523h0.975
		c-0.313,0.949-0.975,1.359-1.89,1.359c-1.271,0-2.057-0.875-2.057-2.123c0-1.211,0.834-2.131,2.057-2.131
		c1.375,0,2.037,1.156,1.959,2.395 M132.871,133.871c-0.101-0.562-0.343-0.859-0.881-0.859c-0.703,0-0.904,0.547-0.921,0.859
		H132.871z"/>
	<path fill="#FFFFFF" d="M134.604,132.287h1.044v0.547h0.016c0.288-0.416,0.709-0.656,1.231-0.656c0.508,0,0.961,0.188,1.179,0.672
		c0.233-0.354,0.654-0.672,1.217-0.672c0.857,0,1.475,0.4,1.475,1.443v2.699h-1.109v-2.287c0-0.537-0.046-0.982-0.677-0.982
		c-0.625,0-0.741,0.514-0.741,1.021v2.248h-1.108v-2.262c0-0.471,0.031-1.008-0.671-1.008c-0.218,0-0.749,0.141-0.749,0.93v2.34
		h-1.105"/>
	<path fill="#FFFFFF" d="M141.575,130.75h1.106v2.029h0.019c0.271-0.414,0.771-0.602,1.269-0.602c0.804,0,1.671,0.646,1.671,2.121
		c0,1.482-0.867,2.133-1.671,2.133c-0.592,0-1.082-0.184-1.324-0.627h-0.016v0.516h-1.054 M143.589,133.012
		c-0.657,0-0.944,0.615-0.944,1.297c0,0.67,0.287,1.287,0.944,1.287c0.654,0,0.941-0.617,0.941-1.287
		C144.53,133.627,144.243,133.012,143.589,133.012"/>
	<rect x="146.31" y="130.75" fill="#FFFFFF" width="1.106" height="5.57"/>
	<path fill="#FFFFFF" d="M150.217,136.826c-0.242,0.646-0.624,0.914-1.389,0.914c-0.226,0-0.452-0.018-0.678-0.039v-0.914
		c0.21,0.018,0.429,0.047,0.648,0.039c0.382-0.039,0.507-0.438,0.382-0.756l-1.42-3.783h1.186l0.911,2.76h0.018l0.88-2.76h1.146"/>
	<path fill="#FFFFFF" d="M79.694,141.443h1.053v0.514h0.016c0.268-0.43,0.702-0.625,1.201-0.625c1.264,0,1.834,1.021,1.834,2.168
		c0,1.08-0.595,2.084-1.771,2.084c-0.482,0-0.944-0.209-1.209-0.609h-0.016v1.922h-1.108 M82.689,143.471
		c0-0.641-0.256-1.303-0.968-1.303c-0.725,0-0.959,0.646-0.959,1.303c0,0.654,0.249,1.277,0.969,1.277
		C82.456,144.748,82.689,144.125,82.689,143.471"/>
	<path fill="#FFFFFF" d="M86.355,141.332c1.271,0,2.091,0.842,2.091,2.129c0,1.281-0.819,2.123-2.091,2.123
		c-1.263,0-2.083-0.842-2.083-2.123C84.272,142.174,85.093,141.332,86.355,141.332 M86.355,144.748c0.755,0,0.982-0.646,0.982-1.287
		c0-0.646-0.228-1.293-0.982-1.293c-0.749,0-0.976,0.646-0.976,1.293C85.38,144.102,85.606,144.748,86.355,144.748"/>
	<path fill="#FFFFFF" d="M90.239,140.816h-1.107v-0.91h1.107V140.816z M89.132,141.443h1.107v4.033h-1.107V141.443z"/>
	<path fill="#FFFFFF" d="M91.051,141.443h1.054v0.559h0.023c0.28-0.451,0.763-0.67,1.232-0.67c1.177,0,1.474,0.664,1.474,1.662
		v2.482h-1.108v-2.281c0-0.66-0.195-0.988-0.71-0.988c-0.601,0-0.857,0.334-0.857,1.154v2.115h-1.107"/>
	<path fill="#FFFFFF" d="M97.018,141.443h0.811v0.738h-0.811v1.998c0,0.373,0.092,0.469,0.468,0.469
		c0.117,0,0.228-0.008,0.343-0.033v0.867c-0.187,0.029-0.429,0.039-0.648,0.039c-0.678,0-1.271-0.156-1.271-0.959v-2.381h-0.671
		v-0.738h0.671v-1.211h1.108"/>
	<path fill="#FFFFFF" d="M79.779,157.027h2.251c1.353,0,2.369,0.848,2.369,2.58c0,1.514-0.774,2.639-2.369,2.639h-2.251
		 M80.927,161.279h1.023c0.665,0,1.302-0.404,1.302-1.561c0-1.055-0.366-1.727-1.506-1.727h-0.819V161.279z"/>
	<path fill="#FFFFFF" d="M86.864,158.363c1.191,0,1.96,0.791,1.96,2c0,1.197-0.769,1.988-1.96,1.988
		c-1.186,0-1.954-0.791-1.954-1.988C84.91,159.154,85.679,158.363,86.864,158.363 M86.864,161.566c0.71,0,0.92-0.607,0.92-1.203
		c0-0.611-0.21-1.215-0.92-1.215c-0.702,0-0.916,0.604-0.916,1.215C85.948,160.959,86.162,161.566,86.864,161.566"/>
	<path fill="#FFFFFF" d="M91.411,158.465h0.987v0.525h0.022c0.262-0.42,0.717-0.627,1.155-0.627c1.104,0,1.383,0.621,1.383,1.561
		v2.322h-1.038v-2.133c0-0.623-0.184-0.93-0.666-0.93c-0.564,0-0.804,0.312-0.804,1.08v1.982h-1.04"/>
	<path fill="#FFFFFF" d="M97.526,158.363c1.189,0,1.958,0.791,1.958,2c0,1.197-0.769,1.988-1.958,1.988
		c-1.188,0-1.956-0.791-1.956-1.988C95.57,159.154,96.339,158.363,97.526,158.363 M97.526,161.566c0.708,0,0.92-0.607,0.92-1.203
		c0-0.611-0.212-1.215-0.92-1.215c-0.704,0-0.916,0.604-0.916,1.215C96.61,160.959,96.822,161.566,97.526,161.566"/>
	<path fill="#FFFFFF" d="M101.414,158.465h0.761v0.695h-0.761v1.873c0,0.352,0.089,0.439,0.438,0.439
		c0.11,0,0.213-0.006,0.322-0.029v0.811c-0.176,0.031-0.401,0.037-0.606,0.037c-0.636,0-1.192-0.148-1.192-0.9v-2.23h-0.63v-0.695
		h0.63v-1.131h1.038"/>
	<path fill="#FFFFFF" d="M105.392,161.018c0.008,0.455,0.389,0.639,0.799,0.639c0.298,0,0.679-0.121,0.679-0.484
		c0-0.316-0.431-0.424-1.177-0.586c-0.599-0.129-1.2-0.34-1.2-1.008c0-0.967,0.833-1.215,1.646-1.215
		c0.827,0,1.588,0.279,1.668,1.209h-0.986c-0.03-0.404-0.339-0.516-0.71-0.516c-0.234,0-0.579,0.045-0.579,0.355
		c0,0.373,0.587,0.422,1.179,0.562c0.606,0.139,1.199,0.355,1.199,1.059c0,0.996-0.863,1.318-1.726,1.318
		c-0.878,0-1.732-0.332-1.777-1.334"/>
	<path fill="#FFFFFF" d="M109.772,158.465h0.76v0.695h-0.76v1.873c0,0.352,0.088,0.439,0.438,0.439c0.109,0,0.213-0.006,0.321-0.029
		v0.811c-0.174,0.031-0.401,0.037-0.607,0.037c-0.635,0-1.191-0.148-1.191-0.9v-2.23h-0.628v-0.695h0.628v-1.131h1.039"/>
	<path fill="#FFFFFF" d="M112.807,158.363c1.191,0,1.96,0.791,1.96,2c0,1.197-0.769,1.988-1.96,1.988
		c-1.186,0-1.954-0.791-1.954-1.988C110.853,159.154,111.621,158.363,112.807,158.363 M112.807,161.566
		c0.71,0,0.922-0.607,0.922-1.203c0-0.611-0.212-1.215-0.922-1.215c-0.702,0-0.913,0.604-0.913,1.215
		C111.894,160.959,112.104,161.566,112.807,161.566"/>
	<path fill="#FFFFFF" d="M115.38,158.465h0.986v0.484h0.017c0.247-0.402,0.657-0.586,1.125-0.586c1.186,0,1.719,0.959,1.719,2.033
		c0,1.01-0.556,1.955-1.66,1.955c-0.452,0-0.886-0.199-1.134-0.572h-0.014v1.799h-1.039 M118.189,160.369
		c0-0.602-0.242-1.221-0.907-1.221c-0.682,0-0.899,0.604-0.899,1.221c0,0.613,0.233,1.197,0.907,1.197
		C117.968,161.566,118.189,160.982,118.189,160.369"/>
	<path fill="#FFFFFF" d="M123.08,158.465h0.761v0.695h-0.761v1.873c0,0.352,0.087,0.439,0.439,0.439
		c0.108,0,0.212-0.006,0.321-0.029v0.811c-0.176,0.031-0.402,0.037-0.607,0.037c-0.636,0-1.19-0.148-1.19-0.9v-2.23h-0.631v-0.695
		h0.631v-1.131h1.037"/>
	<path fill="#FFFFFF" d="M126.114,158.363c1.192,0,1.961,0.791,1.961,2c0,1.197-0.769,1.988-1.961,1.988
		c-1.184,0-1.953-0.791-1.953-1.988C124.161,159.154,124.931,158.363,126.114,158.363 M126.114,161.566
		c0.709,0,0.923-0.607,0.923-1.203c0-0.611-0.214-1.215-0.923-1.215c-0.703,0-0.913,0.604-0.913,1.215
		C125.201,160.959,125.411,161.566,126.114,161.566"/>
	<path fill="#FFFFFF" d="M133.236,159.797c-0.065-0.424-0.337-0.648-0.769-0.648c-0.664,0-0.886,0.67-0.886,1.227
		c0,0.541,0.214,1.191,0.865,1.191c0.481,0,0.76-0.305,0.825-0.768h1.002c-0.132,1.002-0.825,1.553-1.821,1.553
		c-1.142,0-1.908-0.807-1.908-1.941c0-1.176,0.702-2.047,1.931-2.047c0.892,0,1.712,0.471,1.776,1.434"/>
	<path fill="#FFFFFF" d="M136.636,158.363c1.192,0,1.96,0.791,1.96,2c0,1.197-0.768,1.988-1.96,1.988
		c-1.186,0-1.952-0.791-1.952-1.988C134.684,159.154,135.45,158.363,136.636,158.363 M136.636,161.566
		c0.708,0,0.922-0.607,0.922-1.203c0-0.611-0.214-1.215-0.922-1.215c-0.702,0-0.914,0.604-0.914,1.215
		C135.722,160.959,135.934,161.566,136.636,161.566"/>
	<rect x="139.239" y="157.027" fill="#FFFFFF" width="1.038" height="5.221"/>
	<rect x="141.066" y="157.027" fill="#FFFFFF" width="1.038" height="5.221"/>
	<path fill="#FFFFFF" d="M143.723,160.609c0.028,0.658,0.351,0.957,0.928,0.957c0.418,0,0.754-0.256,0.819-0.488h0.913
		c-0.291,0.891-0.913,1.273-1.769,1.273c-1.192,0-1.931-0.822-1.931-1.988c0-1.137,0.783-2,1.931-2c1.287,0,1.907,1.082,1.835,2.246
		 M145.411,159.951c-0.096-0.527-0.321-0.803-0.827-0.803c-0.657,0-0.848,0.51-0.861,0.803H145.411z"/>
	<path fill="#FFFFFF" d="M149.579,159.797c-0.066-0.424-0.335-0.648-0.769-0.648c-0.665,0-0.885,0.67-0.885,1.227
		c0,0.541,0.211,1.191,0.863,1.191c0.481,0,0.76-0.305,0.824-0.768h1.004c-0.133,1.002-0.826,1.553-1.82,1.553
		c-1.142,0-1.91-0.807-1.91-1.941c0-1.176,0.702-2.047,1.932-2.047c0.892,0,1.711,0.471,1.777,1.434"/>
	<path fill="#FFFFFF" d="M152.459,158.465h0.763v0.695h-0.763v1.873c0,0.352,0.089,0.439,0.44,0.439
		c0.108,0,0.211-0.006,0.322-0.029v0.811c-0.178,0.031-0.404,0.037-0.609,0.037c-0.636,0-1.189-0.148-1.189-0.9v-2.23h-0.63v-0.695
		h0.63v-1.131h1.036"/>
	<path fill="#FFFFFF" d="M79.668,165.721h0.987v0.484h0.016c0.248-0.404,0.657-0.584,1.126-0.584c1.184,0,1.718,0.957,1.718,2.029
		c0,1.012-0.555,1.955-1.659,1.955c-0.454,0-0.886-0.197-1.134-0.57h-0.014v1.799h-1.04 M82.477,167.625
		c0-0.602-0.241-1.223-0.906-1.223c-0.682,0-0.899,0.605-0.899,1.223c0,0.613,0.234,1.195,0.906,1.195
		C82.258,168.82,82.477,168.238,82.477,167.625"/>
	<path fill="#FFFFFF" d="M84.933,167.865c0.03,0.658,0.351,0.955,0.93,0.955c0.415,0,0.754-0.254,0.82-0.49h0.912
		c-0.293,0.895-0.912,1.275-1.77,1.275c-1.191,0-1.932-0.82-1.932-1.988c0-1.137,0.782-1.996,1.932-1.996
		c1.285,0,1.908,1.08,1.836,2.244 M86.622,167.205c-0.097-0.525-0.322-0.803-0.826-0.803c-0.657,0-0.848,0.512-0.863,0.803H86.622z"
		/>
	<path fill="#FFFFFF" d="M88.216,165.721h0.987v0.703h0.014c0.19-0.475,0.703-0.803,1.207-0.803c0.074,0,0.163,0.016,0.228,0.035
		v0.963c-0.095-0.021-0.248-0.033-0.373-0.033c-0.761,0-1.024,0.547-1.024,1.213v1.703h-1.038"/>
	<path fill="#FFFFFF" d="M91.808,168.273c0.006,0.455,0.387,0.635,0.796,0.635c0.301,0,0.681-0.117,0.681-0.48
		c0-0.316-0.433-0.424-1.179-0.588c-0.599-0.129-1.197-0.342-1.197-1.008c0-0.965,0.833-1.211,1.644-1.211
		c0.826,0,1.587,0.277,1.667,1.205h-0.986c-0.03-0.402-0.336-0.514-0.709-0.514c-0.234,0-0.579,0.045-0.579,0.352
		c0,0.377,0.585,0.424,1.178,0.566c0.607,0.139,1.2,0.355,1.2,1.059c0,0.996-0.864,1.316-1.727,1.316
		c-0.877,0-1.732-0.33-1.776-1.332"/>
	<path fill="#FFFFFF" d="M96.705,165.621c1.19,0,1.959,0.787,1.959,1.996c0,1.197-0.769,1.988-1.959,1.988
		c-1.186,0-1.954-0.791-1.954-1.988C94.751,166.408,95.52,165.621,96.705,165.621 M96.705,168.82c0.71,0,0.92-0.607,0.92-1.203
		c0-0.609-0.21-1.215-0.92-1.215c-0.703,0-0.913,0.605-0.913,1.215C95.792,168.213,96.002,168.82,96.705,168.82"/>
	<path fill="#FFFFFF" d="M99.278,165.721h0.986v0.525h0.022c0.264-0.42,0.718-0.625,1.155-0.625c1.105,0,1.382,0.619,1.382,1.555
		v2.326h-1.037v-2.133c0-0.623-0.184-0.93-0.667-0.93c-0.562,0-0.803,0.312-0.803,1.08v1.982h-1.039"/>
	<path fill="#FFFFFF" d="M103.512,166.885c0.059-0.973,0.928-1.264,1.778-1.264c0.752,0,1.66,0.166,1.66,1.074v1.967
		c0,0.342,0.034,0.689,0.131,0.84h-1.053c-0.036-0.119-0.066-0.242-0.074-0.365c-0.329,0.344-0.812,0.469-1.272,0.469
		c-0.716,0-1.287-0.359-1.287-1.137c0-0.852,0.644-1.059,1.287-1.145c0.637-0.094,1.228-0.072,1.228-0.498
		c0-0.447-0.306-0.514-0.672-0.514c-0.395,0-0.65,0.162-0.688,0.572 M105.909,167.65c-0.173,0.156-0.54,0.164-0.861,0.223
		c-0.322,0.066-0.615,0.172-0.615,0.555c0,0.387,0.301,0.48,0.636,0.48c0.812,0,0.841-0.641,0.841-0.869V167.65z"/>
	<rect x="107.725" y="164.281" fill="#FFFFFF" width="1.038" height="5.223"/>
	<path fill="#FFFFFF" d="M111.496,164.281h1.04v1.902h0.014c0.257-0.389,0.725-0.562,1.19-0.562c0.755,0,1.565,0.604,1.565,1.988
		c0,1.389-0.811,1.996-1.565,1.996c-0.555,0-1.014-0.17-1.242-0.586h-0.014v0.482h-0.988 M113.384,166.402
		c-0.615,0-0.886,0.578-0.886,1.215c0,0.627,0.271,1.203,0.886,1.203c0.614,0,0.885-0.576,0.885-1.203
		C114.269,166.98,113.998,166.402,113.384,166.402"/>
	<path fill="#FFFFFF" d="M116.761,167.865c0.03,0.658,0.352,0.955,0.93,0.955c0.416,0,0.753-0.254,0.819-0.49h0.913
		c-0.294,0.895-0.913,1.275-1.771,1.275c-1.191,0-1.93-0.82-1.93-1.988c0-1.137,0.782-1.996,1.93-1.996
		c1.287,0,1.91,1.08,1.836,2.244 M118.451,167.205c-0.097-0.525-0.322-0.803-0.827-0.803c-0.657,0-0.847,0.512-0.863,0.803H118.451z
		"/>
	<rect x="120.074" y="164.281" fill="#FFFFFF" width="1.037" height="5.223"/>
	<path fill="#FFFFFF" d="M123.709,165.621c1.191,0,1.958,0.787,1.958,1.996c0,1.197-0.767,1.988-1.958,1.988
		c-1.187,0-1.954-0.791-1.954-1.988C121.755,166.408,122.522,165.621,123.709,165.621 M123.709,168.82
		c0.708,0,0.92-0.607,0.92-1.203c0-0.609-0.212-1.215-0.92-1.215c-0.702,0-0.916,0.605-0.916,1.215
		C122.793,168.213,123.007,168.82,123.709,168.82"/>
	<path fill="#FFFFFF" d="M126.282,165.721h0.986v0.525h0.022c0.264-0.42,0.716-0.625,1.155-0.625c1.104,0,1.383,0.619,1.383,1.555
		v2.326h-1.04v-2.133c0-0.623-0.182-0.93-0.664-0.93c-0.562,0-0.805,0.312-0.805,1.08v1.982h-1.038"/>
	<path fill="#FFFFFF" d="M134.193,169.26c0,0.623-0.218,1.676-1.958,1.676c-0.748,0-1.618-0.352-1.668-1.215h1.031
		c0.094,0.389,0.408,0.52,0.774,0.52c0.578,0,0.841-0.396,0.834-0.936v-0.498h-0.014c-0.229,0.396-0.682,0.586-1.136,0.586
		c-1.133,0-1.615-0.863-1.615-1.9c0-0.98,0.562-1.871,1.623-1.871c0.497,0,0.878,0.166,1.128,0.604h0.014v-0.504h0.986
		 M133.207,167.564c0-0.613-0.214-1.162-0.887-1.162c-0.583,0-0.84,0.512-0.84,1.074c0,0.541,0.204,1.135,0.84,1.135
		C132.913,168.611,133.207,168.105,133.207,167.564"/>
	<path fill="#FFFFFF" d="M136.036,165.137h-1.038v-0.855h1.038V165.137z M134.998,165.721h1.038v3.781h-1.038V165.721z"/>
	<path fill="#FFFFFF" d="M136.797,165.721h0.986v0.525h0.021c0.265-0.42,0.719-0.625,1.154-0.625c1.107,0,1.384,0.619,1.384,1.555
		v2.326h-1.039v-2.133c0-0.623-0.182-0.93-0.666-0.93c-0.562,0-0.804,0.312-0.804,1.08v1.982h-1.037"/>
	<path fill="#FFFFFF" d="M144.709,169.26c0,0.623-0.22,1.676-1.961,1.676c-0.744,0-1.615-0.352-1.667-1.215h1.03
		c0.097,0.389,0.411,0.52,0.778,0.52c0.577,0,0.839-0.396,0.833-0.936v-0.498h-0.017c-0.226,0.396-0.68,0.586-1.133,0.586
		c-1.134,0-1.616-0.863-1.616-1.9c0-0.98,0.562-1.871,1.624-1.871c0.498,0,0.878,0.166,1.125,0.604h0.017v-0.504h0.986
		 M143.723,167.564c0-0.613-0.214-1.162-0.886-1.162c-0.584,0-0.841,0.512-0.841,1.074c0,0.541,0.204,1.135,0.841,1.135
		C143.43,168.611,143.723,168.105,143.723,167.564"/>
	<path fill="#FFFFFF" d="M146.288,168.273c0.008,0.455,0.389,0.635,0.798,0.635c0.299,0,0.68-0.117,0.68-0.48
		c0-0.316-0.432-0.424-1.18-0.588c-0.599-0.129-1.197-0.342-1.197-1.008c0-0.965,0.833-1.211,1.645-1.211
		c0.827,0,1.586,0.277,1.668,1.205h-0.987c-0.03-0.402-0.337-0.514-0.71-0.514c-0.234,0-0.577,0.045-0.577,0.352
		c0,0.377,0.585,0.424,1.178,0.566c0.607,0.139,1.198,0.355,1.198,1.059c0,0.996-0.863,1.316-1.725,1.316
		c-0.879,0-1.734-0.33-1.778-1.332"/>
	<path fill="#FFFFFF" d="M79.779,173.953h2.251c1.353,0,2.369,0.852,2.369,2.584c0,1.51-0.774,2.637-2.369,2.637h-2.251
		 M80.927,178.209h1.023c0.665,0,1.302-0.408,1.302-1.564c0-1.053-0.366-1.727-1.506-1.727h-0.819V178.209z"/>
	<path fill="#FFFFFF" d="M86.864,175.291c1.191,0,1.96,0.791,1.96,1.998c0,1.197-0.769,1.988-1.96,1.988
		c-1.186,0-1.954-0.791-1.954-1.988C84.91,176.082,85.679,175.291,86.864,175.291 M86.864,178.494c0.71,0,0.92-0.607,0.92-1.205
		c0-0.607-0.21-1.215-0.92-1.215c-0.702,0-0.916,0.607-0.916,1.215C85.948,177.887,86.162,178.494,86.864,178.494"/>
	<path fill="#FFFFFF" d="M91.411,175.395h0.987v0.525h0.022c0.262-0.424,0.717-0.629,1.155-0.629c1.104,0,1.383,0.623,1.383,1.559
		v2.324h-1.038v-2.135c0-0.623-0.184-0.93-0.666-0.93c-0.564,0-0.804,0.316-0.804,1.084v1.98h-1.04"/>
	<path fill="#FFFFFF" d="M97.526,175.291c1.189,0,1.958,0.791,1.958,1.998c0,1.197-0.769,1.988-1.958,1.988
		c-1.188,0-1.956-0.791-1.956-1.988C95.57,176.082,96.339,175.291,97.526,175.291 M97.526,178.494c0.708,0,0.92-0.607,0.92-1.205
		c0-0.607-0.212-1.215-0.92-1.215c-0.704,0-0.916,0.607-0.916,1.215C96.61,177.887,96.822,178.494,97.526,178.494"/>
	<path fill="#FFFFFF" d="M101.414,175.395h0.761v0.693h-0.761v1.871c0,0.352,0.089,0.443,0.438,0.443c0.11,0,0.213-0.01,0.322-0.033
		v0.812c-0.176,0.029-0.401,0.035-0.606,0.035c-0.636,0-1.192-0.145-1.192-0.898v-2.23h-0.63v-0.693h0.63v-1.135h1.038"/>
	<path fill="#FFFFFF" d="M105.903,175.395h0.763v0.693h-0.763v1.871c0,0.352,0.09,0.443,0.44,0.443c0.11,0,0.211-0.01,0.322-0.033
		v0.812c-0.178,0.029-0.403,0.035-0.606,0.035c-0.638,0-1.192-0.145-1.192-0.898v-2.23h-0.631v-0.693h0.631v-1.135h1.036"/>
	<path fill="#FFFFFF" d="M107.06,176.555c0.059-0.971,0.93-1.264,1.778-1.264c0.753,0,1.658,0.168,1.658,1.074v1.971
		c0,0.34,0.036,0.686,0.133,0.838h-1.055c-0.036-0.117-0.066-0.24-0.073-0.365c-0.328,0.342-0.81,0.469-1.271,0.469
		c-0.717,0-1.287-0.357-1.287-1.135c0-0.854,0.644-1.059,1.287-1.148c0.635-0.094,1.229-0.07,1.229-0.496
		c0-0.445-0.308-0.512-0.674-0.512c-0.395,0-0.65,0.162-0.688,0.568 M109.459,177.324c-0.177,0.154-0.542,0.16-0.863,0.221
		c-0.322,0.066-0.614,0.174-0.614,0.553c0,0.389,0.3,0.484,0.637,0.484c0.811,0,0.841-0.645,0.841-0.869V177.324z"/>
	<polyline fill="#FFFFFF" points="111.337,173.953 112.375,173.953 112.375,176.754 113.684,175.395 114.913,175.395 
		113.486,176.783 115.073,179.174 113.817,179.174 112.776,177.484 112.375,177.873 112.375,179.174 111.337,179.174 	"/>
	<path fill="#FFFFFF" d="M116.235,177.535c0.03,0.658,0.351,0.959,0.93,0.959c0.415,0,0.752-0.256,0.819-0.49h0.913
		c-0.293,0.891-0.913,1.273-1.77,1.273c-1.191,0-1.93-0.818-1.93-1.988c0-1.135,0.78-1.998,1.93-1.998
		c1.285,0,1.908,1.084,1.836,2.244 M117.926,176.877c-0.096-0.523-0.321-0.803-0.827-0.803c-0.658,0-0.85,0.51-0.863,0.803H117.926z
		"/>
	<path fill="#FFFFFF" d="M121.493,175.395h0.988v0.703h0.014c0.189-0.479,0.702-0.807,1.208-0.807c0.072,0,0.159,0.016,0.226,0.037
		v0.965c-0.095-0.021-0.25-0.035-0.375-0.035c-0.759,0-1.022,0.547-1.022,1.211v1.705h-1.038"/>
	<path fill="#FFFFFF" d="M125.346,174.811h-1.038v-0.857h1.038V174.811z M124.308,175.395h1.038v3.779h-1.038V175.395z"/>
	<path fill="#FFFFFF" d="M126.912,177.947c0.007,0.455,0.387,0.635,0.796,0.635c0.299,0,0.682-0.117,0.682-0.484
		c0-0.312-0.434-0.424-1.18-0.584c-0.599-0.131-1.197-0.342-1.197-1.01c0-0.963,0.834-1.213,1.643-1.213
		c0.827,0,1.588,0.279,1.668,1.207h-0.986c-0.03-0.4-0.336-0.512-0.709-0.512c-0.234,0-0.579,0.045-0.579,0.352
		c0,0.373,0.586,0.424,1.178,0.562c0.608,0.139,1.2,0.357,1.2,1.059c0,0.996-0.864,1.318-1.727,1.318
		c-0.878,0-1.732-0.332-1.777-1.33"/>
	<polyline fill="#FFFFFF" points="130.069,173.953 131.107,173.953 131.107,176.754 132.415,175.395 133.646,175.395 
		132.219,176.783 133.806,179.174 132.55,179.174 131.509,177.484 131.107,177.873 131.107,179.174 130.069,179.174 	"/>
	<path fill="#FFFFFF" d="M134.917,177.947c0.006,0.455,0.386,0.635,0.797,0.635c0.301,0,0.68-0.117,0.68-0.484
		c0-0.312-0.43-0.424-1.178-0.584c-0.599-0.131-1.198-0.342-1.198-1.01c0-0.963,0.833-1.213,1.646-1.213
		c0.825,0,1.586,0.279,1.666,1.207h-0.985c-0.03-0.4-0.338-0.512-0.71-0.512c-0.234,0-0.577,0.045-0.577,0.352
		c0,0.373,0.585,0.424,1.176,0.562c0.606,0.139,1.2,0.357,1.2,1.059c0,0.996-0.863,1.318-1.725,1.318
		c-0.879,0-1.734-0.332-1.778-1.33"/>
	<g id="alarm">
		<path fill-rule="evenodd" clip-rule="evenodd" fill="#FFFFFF" d="M43.333,57.274c-0.748,0-1.35,0.602-1.35,1.334
			c0,0.734,0.602,1.335,1.35,1.335c0.747,0,1.349-0.602,1.349-1.335C44.682,57.875,44.08,57.274,43.333,57.274L43.333,57.274z"/>
		<polygon fill-rule="evenodd" clip-rule="evenodd" fill="#FFFFFF" points="42.3,60.266 41.773,60.266 41.773,56.931 45.063,56.931 
			45.063,60.266 44.336,60.266 44.336,60.911 45.737,60.911 45.737,56.278 41.105,56.278 41.105,60.911 42.3,60.911 42.3,60.266 		
			"/>
		<path fill-rule="evenodd" clip-rule="evenodd" fill="#FFFFFF" d="M48.282,64.973c-0.418,0-0.662,0.528-0.728,0.709h-0.058v-0.769
			c0,0-0.125-0.586-0.749-0.652c-0.44-0.044-0.665,0.365-0.746,0.556h-0.156v-0.674c0,0-0.292-0.558-0.782-0.558
			c-0.221,0-0.771,0.17-0.764,0.543c-0.161,0.104-0.271,0.059-0.307,0.028v-3.387c0,0,0.057-0.644-0.757-0.644
			c-0.718,0-0.746,0.644-0.746,0.644v7.536H42.27h-0.241l0.021-2.594c0,0-0.066-1.114-1.194-0.99
			c-0.301,0.036-0.469,0.373-0.469,0.373v3.981c0,0,1.134,2.076,1.678,3.249c0.197,0.432,0.205,0.814,0.205,0.82v0.089h5.916v-1.166
			c0.111-0.074,0.22-0.168,0.316-0.271c0.301-0.338,0.439-0.866,0.439-0.866v-5.19C48.941,65.741,49.064,64.973,48.282,64.973
			L48.282,64.973z M45.87,68.307h-0.024H45.87L45.87,68.307z"/>
		<polygon fill-rule="evenodd" clip-rule="evenodd" fill="#FFFFFF" points="57.357,69.909 56.906,69.781 56.678,69.709 
			56.452,69.635 56.232,69.551 56.015,69.459 55.799,69.36 55.59,69.247 55.384,69.127 55.285,69.061 55.188,68.992 55.011,68.838 
			54.834,68.677 54.667,68.512 54.509,68.336 54.353,68.157 54.269,68.073 54.184,67.993 53.999,67.838 53.813,67.695 
			53.621,67.558 53.417,67.429 53.312,67.375 53.206,67.327 52.983,67.247 52.755,67.173 52.643,67.145 52.525,67.118 
			52.409,67.104 52.292,67.101 52.175,67.107 52.053,67.124 51.819,67.16 51.588,67.208 51.471,67.239 51.362,67.275 51.248,67.316 
			51.143,67.367 51.041,67.426 50.938,67.484 50.738,67.619 50.978,67.677 51.211,67.748 51.44,67.832 51.558,67.883 51.662,67.938 
			51.773,67.996 51.874,68.062 51.976,68.131 52.072,68.205 52.259,68.364 52.431,68.542 52.593,68.724 52.746,68.912 
			53.045,69.298 53.2,69.489 53.366,69.671 53.543,69.84 53.729,69.996 53.829,70.07 53.932,70.139 54.036,70.202 54.145,70.256 
			54.37,70.354 54.602,70.436 54.84,70.5 55.08,70.545 55.321,70.575 55.567,70.578 55.812,70.563 56.055,70.535 56.294,70.486 
			56.411,70.455 56.528,70.417 56.642,70.372 56.751,70.323 56.862,70.264 56.968,70.202 57.165,70.058 57.357,69.909 		"/>
		<polygon fill-rule="evenodd" clip-rule="evenodd" fill="#FFFFFF" points="57.357,73.243 57.357,71.022 57.038,71.1 56.711,71.174 
			56.383,71.237 56.218,71.258 56.055,71.276 55.89,71.288 55.721,71.291 55.553,71.291 55.387,71.284 55.219,71.27 55.055,71.252 
			54.89,71.222 54.729,71.189 54.406,71.1 54.089,70.998 53.778,70.882 53.623,70.816 53.474,70.747 53.323,70.67 53.18,70.586 
			53.041,70.497 52.907,70.399 52.776,70.294 52.657,70.18 52.424,69.938 52.529,70.344 52.646,70.747 52.713,70.942 52.785,71.138 
			52.872,71.327 52.963,71.52 53.066,71.7 53.18,71.876 53.309,72.044 53.444,72.206 53.588,72.356 53.748,72.494 53.915,72.622 
			54.091,72.732 54.275,72.831 54.465,72.916 54.662,72.988 54.863,73.051 55.069,73.101 55.277,73.146 55.486,73.177 
			55.695,73.203 55.903,73.225 56.113,73.236 56.528,73.251 56.946,73.251 57.357,73.243 		"/>
		<polygon fill-rule="evenodd" clip-rule="evenodd" fill="#FFFFFF" points="57.357,65.298 57.096,65.367 56.962,65.393 
			56.825,65.411 56.689,65.426 56.558,65.433 56.419,65.433 56.28,65.429 56.146,65.418 56.01,65.4 55.877,65.375 55.742,65.338 
			55.612,65.293 55.486,65.242 55.243,65.129 54.999,64.997 54.771,64.851 54.656,64.779 54.545,64.698 54.444,64.606 
			54.347,64.507 54.174,64.299 54.005,64.083 53.841,63.864 53.696,63.634 53.562,63.395 53.438,63.155 53.323,62.905 
			53.222,62.651 53.125,62.396 53.041,62.138 52.902,61.607 52.761,61.082 52.701,60.814 52.68,60.75 52.646,60.689 52.577,60.572 
			52.435,60.337 52.353,60.228 52.267,60.123 52.17,60.028 52.066,59.936 51.853,59.769 52.111,59.748 52.241,59.742 52.372,59.742 
			52.499,59.754 52.629,59.775 52.752,59.805 52.875,59.849 52.997,59.9 53.113,59.958 53.222,60.025 53.326,60.099 53.532,60.262 
			53.727,60.434 53.915,60.613 54.005,60.708 54.085,60.81 54.163,60.912 54.228,61.023 54.289,61.135 54.347,61.253 54.759,62.204 
			54.868,62.438 54.981,62.672 55.102,62.897 55.229,63.126 55.486,63.576 55.626,63.794 55.77,64.006 55.929,64.212 56.104,64.403 
			56.293,64.581 56.488,64.749 56.689,64.91 56.898,65.063 57.009,65.132 57.123,65.195 57.357,65.298 		"/>
		<polygon fill-rule="evenodd" clip-rule="evenodd" fill="#FFFFFF" points="57.357,64.258 57.357,61.947 57.238,61.903 
			57.126,61.852 57.012,61.792 56.903,61.726 56.801,61.652 56.697,61.575 56.603,61.491 56.509,61.402 56.427,61.309 
			56.347,61.208 56.194,61.004 56.061,60.787 55.938,60.566 55.82,60.342 55.706,60.112 55.601,59.882 55.5,59.647 55.321,59.172 
			55.168,58.685 55.076,59.08 55.038,59.282 55.007,59.48 54.981,59.682 54.963,59.885 54.951,60.085 54.948,60.287 54.948,60.493 
			54.954,60.694 54.975,60.894 54.999,61.096 55.038,61.292 55.091,61.491 55.149,61.684 55.228,61.87 55.314,62.054 55.409,62.232 
			55.515,62.409 55.626,62.577 55.742,62.743 55.87,62.897 56.133,63.206 56.277,63.353 56.419,63.496 56.718,63.77 56.873,63.902 
			57.031,64.024 57.19,64.146 57.357,64.258 		"/>
		<polygon fill-rule="evenodd" clip-rule="evenodd" fill="#FFFFFF" points="57.357,68.804 57.357,66.508 57.165,66.508 
			57.071,66.505 56.976,66.494 56.786,66.458 56.598,66.409 56.411,66.351 56.229,66.289 56.046,66.218 55.87,66.145 55.69,66.068 
			55.52,65.985 55.347,65.898 55.18,65.802 54.846,65.602 54.526,65.387 54.22,65.15 53.922,64.91 53.631,64.649 53.356,64.38 
			53.225,64.237 53.095,64.09 52.972,63.944 52.854,63.791 52.635,63.472 52.424,63.147 52.409,63.404 52.4,63.658 52.412,63.92 
			52.439,64.171 52.479,64.427 52.538,64.677 52.617,64.917 52.713,65.158 52.818,65.393 52.933,65.623 53.053,65.85 53.186,66.068 
			53.323,66.284 53.47,66.494 53.628,66.693 53.796,66.892 53.972,67.079 54.154,67.257 54.347,67.426 54.551,67.587 54.759,67.733 
			54.978,67.868 55.202,67.996 55.433,68.11 55.667,68.22 55.898,68.318 56.141,68.41 56.383,68.497 56.87,68.655 57.357,68.804 		
			"/>
	</g>
	<g id="muster">
		
			<polygon fill-rule="evenodd" clip-rule="evenodd" fill="#FFFFFF" stroke="#039046" stroke-width="0.0326" stroke-linecap="round" stroke-miterlimit="22.9256" points="
			52.688,132.289 52.688,135.102 52.686,135.146 52.677,135.189 52.662,135.234 52.641,135.275 52.613,135.312 52.588,135.352 
			52.554,135.379 52.513,135.402 52.471,135.426 52.429,135.439 52.385,135.447 52.339,135.453 52.292,135.447 52.247,135.439 
			52.202,135.426 52.162,135.402 52.122,135.379 52.089,135.352 52.058,135.312 52.033,135.275 52.012,135.234 51.997,135.189 
			51.988,135.146 51.985,135.102 51.985,132.355 51.983,132.334 51.973,132.316 51.963,132.305 51.941,132.295 51.925,132.293 
			51.907,132.295 51.886,132.305 51.872,132.316 51.866,132.334 51.861,132.355 51.861,138.912 51.858,138.961 51.852,139.006 
			51.835,139.055 51.816,139.1 51.793,139.139 51.763,139.18 51.727,139.213 51.688,139.244 51.648,139.271 51.604,139.285 
			51.555,139.305 51.507,139.311 51.462,139.312 51.41,139.311 51.362,139.305 51.317,139.285 51.273,139.271 51.23,139.244 
			51.194,139.213 51.161,139.18 51.128,139.139 51.106,139.1 51.083,139.055 51.07,139.006 51.059,138.961 51.057,138.912 
			51.057,134.949 51.056,134.93 51.047,134.912 51.031,134.9 51.017,134.891 50.995,134.889 50.976,134.891 50.961,134.9 
			50.947,134.912 50.938,134.93 50.936,134.949 50.936,138.912 50.934,138.961 50.927,139.006 50.911,139.055 50.892,139.1 
			50.864,139.139 50.833,139.18 50.802,139.213 50.764,139.244 50.722,139.271 50.675,139.285 50.632,139.305 50.583,139.311 
			50.532,139.312 50.487,139.311 50.438,139.305 50.391,139.285 50.346,139.271 50.309,139.244 50.266,139.213 50.231,139.18 
			50.201,139.139 50.178,139.1 50.159,139.055 50.142,139.006 50.135,138.961 50.132,138.912 50.132,132.355 50.126,132.334 
			50.12,132.316 50.106,132.305 50.087,132.295 50.069,132.293 50.051,132.295 50.033,132.305 50.021,132.316 50.012,132.334 
			50.009,132.355 50.009,135.102 50.006,135.146 50,135.189 49.981,135.234 49.961,135.275 49.937,135.312 49.906,135.352 
			49.87,135.379 49.834,135.402 49.792,135.426 49.75,135.439 49.702,135.447 49.657,135.453 49.611,135.447 49.566,135.439 
			49.521,135.426 49.479,135.402 49.443,135.379 49.407,135.352 49.38,135.312 49.354,135.275 49.332,135.234 49.317,135.189 
			49.308,135.146 49.305,135.102 49.305,132.289 49.308,132.209 49.317,132.129 49.335,132.049 49.356,131.973 49.383,131.895 
			49.416,131.826 49.455,131.758 49.501,131.688 49.55,131.625 49.604,131.564 49.663,131.514 49.726,131.463 49.792,131.416 
			49.864,131.377 49.937,131.346 50.009,131.314 50.087,131.297 50.167,131.279 50.246,131.273 50.329,131.266 51.669,131.266 
			51.747,131.273 51.83,131.279 51.907,131.297 51.983,131.314 52.058,131.346 52.133,131.377 52.202,131.416 52.27,131.463 
			52.331,131.514 52.388,131.564 52.442,131.625 52.496,131.688 52.54,131.758 52.577,131.826 52.61,131.895 52.638,131.973 
			52.662,132.049 52.677,132.129 52.686,132.209 52.688,132.289 		"/>
		
			<polygon fill-rule="evenodd" clip-rule="evenodd" fill="#FFFFFF" stroke="#039046" stroke-width="0.0326" stroke-linecap="round" stroke-miterlimit="22.9256" points="
			47.421,131.266 46.077,131.266 45.999,131.273 45.918,131.279 45.84,131.297 45.762,131.314 45.687,131.346 45.612,131.377 
			45.545,131.416 45.479,131.463 45.416,131.514 45.354,131.564 45.3,131.625 45.253,131.688 45.208,131.758 45.167,131.826 
			45.133,131.895 45.104,131.973 45.083,132.049 45.069,132.129 45.061,132.209 45.057,132.289 45.057,135.102 45.061,135.146 
			45.069,135.189 45.083,135.234 45.103,135.275 45.13,135.312 45.16,135.352 45.194,135.379 45.232,135.402 45.274,135.426 
			45.319,135.439 45.361,135.447 45.406,135.453 45.455,135.447 45.5,135.439 45.545,135.426 45.586,135.402 45.623,135.379 
			45.656,135.352 45.688,135.312 45.714,135.275 45.734,135.234 45.749,135.189 45.756,135.146 45.759,135.102 45.759,132.355 
			45.765,132.334 45.771,132.316 45.785,132.305 45.804,132.295 45.82,132.293 45.84,132.295 45.857,132.305 45.873,132.316 
			45.879,132.334 45.884,132.355 45.884,138.912 45.885,138.961 45.894,139.006 45.909,139.055 45.93,139.1 45.952,139.139 
			45.984,139.18 46.021,139.213 46.057,139.244 46.099,139.271 46.142,139.285 46.188,139.305 46.238,139.311 46.285,139.312 
			46.333,139.311 46.381,139.305 46.427,139.285 46.475,139.271 46.517,139.244 46.551,139.213 46.586,139.18 46.616,139.139 
			46.642,139.1 46.661,139.055 46.676,139.006 46.685,138.961 46.688,138.912 46.688,134.949 46.689,134.93 46.7,134.912 
			46.711,134.9 46.73,134.891 46.748,134.889 46.768,134.891 46.784,134.9 46.8,134.912 46.809,134.93 46.812,134.949 
			46.812,138.912 46.812,138.961 46.822,139.006 46.837,139.055 46.856,139.1 46.881,139.139 46.91,139.18 46.943,139.213 
			46.985,139.244 47.023,139.271 47.067,139.285 47.113,139.305 47.163,139.311 47.211,139.312 47.263,139.311 47.308,139.305 
			47.353,139.285 47.399,139.271 47.441,139.244 47.479,139.213 47.513,139.18 47.542,139.139 47.566,139.1 47.587,139.055 
			47.603,139.006 47.611,138.961 47.614,138.912 47.614,132.355 47.617,132.334 47.627,132.316 47.639,132.305 47.656,132.295 
			47.678,132.293 47.695,132.295 47.712,132.305 47.726,132.316 47.734,132.334 47.734,132.355 47.734,135.102 47.741,135.146 
			47.75,135.189 47.762,135.234 47.783,135.275 47.81,135.312 47.84,135.352 47.872,135.379 47.914,135.402 47.954,135.426 
			47.999,135.439 48.042,135.447 48.09,135.453 48.135,135.447 48.18,135.439 48.222,135.426 48.265,135.402 48.304,135.379 
			48.338,135.352 48.366,135.312 48.394,135.275 48.415,135.234 48.43,135.189 48.438,135.146 48.441,135.102 48.441,132.289 
			48.438,132.209 48.427,132.129 48.415,132.049 48.388,131.973 48.36,131.895 48.33,131.826 48.29,131.758 48.246,131.688 
			48.195,131.625 48.141,131.564 48.081,131.514 48.021,131.463 47.951,131.416 47.885,131.377 47.81,131.346 47.734,131.314 
			47.656,131.297 47.578,131.279 47.5,131.273 47.421,131.266 		"/>
		<polygon fill-rule="evenodd" clip-rule="evenodd" fill="#FFFFFF" points="43.127,124.504 43.127,127.186 40.443,124.504 
			39.523,125.426 42.205,128.102 39.523,128.102 40.744,129.326 44.347,129.326 44.347,125.723 43.127,124.504 		"/>
		<polygon fill-rule="evenodd" clip-rule="evenodd" fill="#FFFFFF" points="58.222,128.102 55.544,128.102 58.222,125.426 
			57.3,124.504 54.618,127.186 54.618,124.504 53.396,125.723 53.396,129.326 56.999,129.326 58.222,128.102 		"/>
		<polygon fill-rule="evenodd" clip-rule="evenodd" fill="#FFFFFF" points="58.222,142.285 55.544,139.605 58.222,139.605 
			56.999,138.381 53.396,138.381 53.396,141.984 54.618,143.203 54.618,140.527 57.3,143.203 58.222,142.285 		"/>
		<polygon fill-rule="evenodd" clip-rule="evenodd" fill="#FFFFFF" points="40.744,138.381 44.347,138.381 44.347,141.984 
			43.127,143.203 43.127,140.527 40.443,143.203 39.523,142.285 42.205,139.605 39.523,139.605 40.744,138.381 		"/>
		<polygon fill-rule="evenodd" clip-rule="evenodd" fill="#FFFFFF" points="47.452,130.363 47.447,130.295 47.441,130.234 
			47.425,130.168 47.407,130.109 47.38,130.051 47.346,129.994 47.311,129.939 47.267,129.887 47.224,129.84 47.172,129.801 
			47.118,129.766 47.064,129.732 47.002,129.705 46.94,129.684 46.878,129.67 46.814,129.66 46.748,129.66 46.685,129.66 
			46.619,129.67 46.556,129.684 46.495,129.705 46.436,129.732 46.377,129.766 46.324,129.801 46.276,129.84 46.228,129.887 
			46.188,129.939 46.149,129.994 46.119,130.051 46.093,130.109 46.071,130.168 46.057,130.234 46.047,130.295 46.043,130.363 
			46.047,130.428 46.057,130.494 46.071,130.557 46.093,130.617 46.119,130.678 46.149,130.736 46.188,130.789 46.228,130.836 
			46.276,130.881 46.324,130.924 46.377,130.959 46.436,130.992 46.495,131.018 46.556,131.037 46.619,131.053 46.685,131.064 
			46.748,131.068 46.814,131.064 46.878,131.053 46.94,131.037 47.002,131.018 47.064,130.992 47.118,130.959 47.172,130.924 
			47.224,130.881 47.267,130.836 47.311,130.789 47.346,130.736 47.38,130.678 47.407,130.617 47.425,130.557 47.441,130.494 
			47.447,130.428 47.452,130.363 		"/>
		<polygon fill-rule="evenodd" clip-rule="evenodd" fill="#FFFFFF" points="51.702,130.363 51.696,130.295 51.688,130.234 
			51.672,130.168 51.654,130.109 51.629,130.051 51.594,129.994 51.56,129.939 51.518,129.887 51.471,129.84 51.421,129.801 
			51.365,129.766 51.31,129.732 51.251,129.705 51.191,129.684 51.128,129.67 51.062,129.66 50.995,129.66 50.933,129.66 
			50.866,129.67 50.803,129.684 50.743,129.705 50.683,129.732 50.627,129.766 50.571,129.801 50.523,129.84 50.479,129.887 
			50.433,129.939 50.398,129.994 50.367,130.051 50.34,130.109 50.32,130.168 50.309,130.234 50.298,130.295 50.292,130.363 
			50.298,130.428 50.309,130.494 50.32,130.557 50.34,130.617 50.367,130.678 50.398,130.736 50.433,130.789 50.479,130.836 
			50.523,130.881 50.571,130.924 50.627,130.959 50.683,130.992 50.743,131.018 50.803,131.037 50.866,131.053 50.933,131.064 
			50.995,131.068 51.062,131.064 51.128,131.053 51.191,131.037 51.251,131.018 51.31,130.992 51.365,130.959 51.421,130.924 
			51.471,130.881 51.518,130.836 51.56,130.789 51.594,130.736 51.629,130.678 51.654,130.617 51.672,130.557 51.688,130.494 
			51.696,130.428 51.702,130.363 		"/>
		<polygon fill-rule="evenodd" clip-rule="evenodd" fill="#FFFFFF" points="49.575,129.062 49.572,128.996 49.563,128.93 
			49.55,128.867 49.529,128.807 49.501,128.742 49.472,128.689 49.432,128.631 49.393,128.584 49.347,128.539 49.299,128.496 
			49.243,128.457 49.187,128.43 49.128,128.402 49.064,128.379 49.001,128.367 48.938,128.357 48.873,128.355 48.806,128.357 
			48.745,128.367 48.68,128.379 48.617,128.402 48.559,128.43 48.502,128.457 48.449,128.496 48.396,128.539 48.352,128.584 
			48.312,128.631 48.276,128.689 48.243,128.742 48.216,128.807 48.195,128.867 48.18,128.93 48.173,128.996 48.168,129.062 
			48.173,129.121 48.18,129.188 48.195,129.254 48.216,129.311 48.243,129.371 48.276,129.43 48.312,129.482 48.352,129.531 
			48.396,129.58 48.449,129.621 48.502,129.658 48.559,129.688 48.617,129.715 48.68,129.736 48.745,129.75 48.806,129.756 
			48.873,129.766 48.938,129.756 49.001,129.75 49.064,129.736 49.128,129.715 49.187,129.688 49.243,129.658 49.299,129.621 
			49.347,129.58 49.393,129.531 49.432,129.482 49.472,129.43 49.501,129.371 49.529,129.311 49.55,129.254 49.563,129.188 
			49.572,129.121 49.575,129.062 		"/>
	</g>
	<g id="running">
		<path fill-rule="evenodd" clip-rule="evenodd" fill="#FFFFFF" d="M43.431,104.898v2.732l-1.39,1.389h12.641l1.406-1.406
			l-0.006-18.064H43.454v13c-0.767,0-1.284,0.365-1.609,0.689c-0.321,0.32-0.845,1.676-0.845,1.676L43.431,104.898L43.431,104.898z"
			/>
		<path fill-rule="evenodd" clip-rule="evenodd" fill="#039046" d="M51.504,94.344c-0.83,0-1.504-0.671-1.504-1.501
			c0-0.828,0.674-1.502,1.504-1.502c0.827,0,1.499,0.674,1.499,1.502C53.003,93.673,52.331,94.344,51.504,94.344L51.504,94.344z"/>
		<path fill-rule="evenodd" clip-rule="evenodd" fill="#039046" d="M48.938,100.501c0,0,2.788,5.458,3.08,5.958
			c0.288,0.498,0.655,0.543,0.887,0.543h1.447l-3.658-7.457l1.144-2.467c0,0,0.914,1.225,1.224,1.555
			c0.184,0.186,0.367,0.258,0.566,0.258h2.686v-1.429h-2.239c0,0-1.113-1.399-1.534-1.968c-0.468-0.628-0.889-0.814-1.824-0.814
			h-3.071c-0.568,0-1.417-0.026-1.808,0.556l-1.323,2.205v-0.004c-0.074,0.111-0.116,0.248-0.116,0.394
			c0,0.395,0.32,0.716,0.718,0.716c0.255,0,0.48-0.135,0.607-0.338l-0.036,0.049c0,0,1.162-1.872,1.206-2.006
			c0.045-0.136,0.156-0.2,0.268-0.2h1.512l-1.214,2.395c-0.434,0.908-0.409,2.634-0.409,2.634l-0.145,1.5
			c-0.003,0.18-0.111,0.232-0.189,0.232c0,0-2.024,0-2.355,0c-1.235,0-1.831,0.252-2.214,0.635
			c-0.379,0.379-0.523,1.053-0.523,1.053h3.669h2.2c0.779,0,1.08-0.398,1.125-0.709l0.132-1.336l0.19-1.921V100.501L48.938,100.501z
			"/>
		<path fill-rule="evenodd" clip-rule="evenodd" fill="#039046" d="M52.304,109.072l1.735-1.656h-1.571
			c-0.233,0-0.705,0.295-1.201,0.793c-0.497,0.496-0.882,0.844-0.882,0.844L52.304,109.072L52.304,109.072z"/>
		<polygon fill-rule="evenodd" clip-rule="evenodd" fill="#039046" points="56.744,109.072 41.46,109.072 41.46,108.914 
			56.744,108.914 56.744,109.072 		"/>
	</g>
</g>
</svg>
