<?xml version="1.0" encoding="utf-8"?>
<!-- Generator: Adobe Illustrator 16.0.0, SVG Export Plug-In . SVG Version: 6.00 Build 0)  -->
<!DOCTYPE svg PUBLIC "-//W3C//DTD SVG 1.1//EN" "http://www.w3.org/Graphics/SVG/1.1/DTD/svg11.dtd">
<svg version="1.1" id="Layer_1" xmlns="http://www.w3.org/2000/svg" xmlns:xlink="http://www.w3.org/1999/xlink" x="0px" y="0px"
	 width="200px" height="200px" viewBox="0 0 200 200" enable-background="new 0 0 200 200" xml:space="preserve">
<g>
	<path fill="#016BB2" d="M99.998,5C47.535,5,5,47.535,5,100.001C5,152.463,47.535,195,99.998,195
		C152.461,195,195,152.463,195,100.001C195,47.535,152.461,5,99.998,5"/>
	<polygon fill="#FFFFFF" points="70.637,18.364 88.262,18.364 88.262,23 76.149,23 76.149,28.793 86.648,28.793 86.648,33.078 
		76.149,33.078 76.149,43.437 70.637,43.437 	"/>
	<path fill="#FFFFFF" d="M91.071,25.285L91.071,25.285h4.985v18.152h-4.985V25.285z M96.057,22.474h-4.985v-4.11h4.985V22.474z"/>
	<path fill="#FFFFFF" d="M99.989,25.285h4.739v3.368h0.072c0.912-2.283,3.369-3.861,5.793-3.861c0.351,0,0.771,0.071,1.086,0.174
		v4.635c-0.456-0.103-1.191-0.177-1.79-0.177c-3.653,0-4.914,2.637-4.914,5.831v8.183h-4.986V25.285z"/>
	<path fill="#FFFFFF" d="M125.239,32.407L125.239,32.407c-0.456-2.528-1.544-3.86-3.967-3.86c-3.162,0-4.07,2.458-4.144,3.86
		H125.239z M117.129,35.569c0.14,3.158,1.686,4.6,4.459,4.6c1.999,0,3.614-1.231,3.931-2.352h4.392
		c-1.406,4.284-4.392,6.109-8.496,6.109c-5.727,0-9.27-3.932-9.27-9.548c0-5.442,3.754-9.585,9.27-9.585
		c6.179,0,9.164,5.194,8.811,10.777H117.129z"/>
	<path fill="#FFFFFF" d="M71.233,61.813L71.233,61.813c-3.262,0-4.386,2.805-4.386,5.793c0,2.84,1.297,5.828,4.386,5.828
		c3.303,0,4.285-2.88,4.285-5.864C75.519,64.619,74.468,61.813,71.233,61.813 M75.591,74.378h-0.072
		c-1.157,1.966-3.195,2.807-5.513,2.807c-5.476,0-8.143-4.703-8.143-9.719c0-4.883,2.701-9.412,8.035-9.412
		c2.147,0,4.252,0.91,5.409,2.699h-0.035h0.073v-9.126h4.985v25.068h-4.739V74.378z"/>
	<path fill="#FFFFFF" d="M92.9,73.435L92.9,73.435c3.401,0,4.423-2.917,4.423-5.794c0-2.918-1.022-5.827-4.423-5.827
		c-3.37,0-4.388,2.909-4.388,5.827C88.513,70.517,89.53,73.435,92.9,73.435 M92.9,58.055c5.721,0,9.407,3.791,9.407,9.585
		c0,5.757-3.687,9.545-9.407,9.545c-5.69,0-9.374-3.788-9.374-9.545C83.526,61.846,87.21,58.055,92.9,58.055z"/>
	<path fill="#FFFFFF" d="M114.353,73.435L114.353,73.435c3.403,0,4.425-2.917,4.425-5.794c0-2.918-1.021-5.827-4.425-5.827
		c-3.373,0-4.39,2.909-4.39,5.827C109.963,70.517,110.979,73.435,114.353,73.435 M114.353,58.055c5.723,0,9.409,3.791,9.409,9.585
		c0,5.757-3.687,9.545-9.409,9.545c-5.688,0-9.374-3.788-9.374-9.545C104.979,61.846,108.665,58.055,114.353,58.055z"/>
	<path fill="#FFFFFF" d="M126.991,58.544h4.743v3.374h0.066c0.915-2.285,3.37-3.863,5.794-3.863c0.352,0,0.772,0.066,1.089,0.174
		v4.637c-0.454-0.108-1.195-0.175-1.789-0.175c-3.651,0-4.921,2.632-4.921,5.829v8.177h-4.982V58.544z"/>
	<polygon fill="#FFFFFF" points="61.142,84.891 66.128,84.891 66.128,98.342 72.413,91.811 78.312,91.811 71.464,98.479 
		79.082,109.959 73.044,109.959 68.061,101.851 66.128,103.715 66.128,109.959 61.142,109.959 	"/>
	<path fill="#FFFFFF" d="M93.056,98.938L93.056,98.938c-0.458-2.532-1.542-3.866-3.966-3.866c-3.158,0-4.073,2.459-4.141,3.866
		H93.056z M84.948,102.091c0.14,3.163,1.683,4.603,4.458,4.603c2,0,3.615-1.225,3.934-2.351h4.387
		c-1.403,4.28-4.387,6.108-8.495,6.108c-5.725,0-9.273-3.932-9.273-9.552c0-5.438,3.76-9.585,9.273-9.585
		c6.18,0,9.163,5.198,8.812,10.776H84.948z"/>
	<path fill="#FFFFFF" d="M113.214,98.938L113.214,98.938c-0.458-2.532-1.548-3.866-3.973-3.866c-3.156,0-4.07,2.459-4.141,3.866
		H113.214z M105.101,102.091c0.142,3.163,1.687,4.603,4.46,4.603c1.999,0,3.614-1.225,3.933-2.351h4.387
		c-1.403,4.28-4.387,6.108-8.499,6.108c-5.72,0-9.268-3.932-9.268-9.552c0-5.438,3.758-9.585,9.268-9.585
		c6.186,0,9.168,5.198,8.814,10.776H105.101z"/>
	<path fill="#FFFFFF" d="M134.627,100.936L134.627,100.936c0-2.875-1.156-5.864-4.354-5.864c-3.263,0-4.316,2.914-4.316,5.864
		c0,2.952,1.123,5.757,4.354,5.757C133.574,106.693,134.627,103.888,134.627,100.936 M121.146,91.811h4.737v2.317h0.073
		c1.191-1.937,3.162-2.814,5.401-2.814c5.693,0,8.258,4.602,8.258,9.764c0,4.846-2.669,9.373-7.971,9.373
		c-2.179,0-4.251-0.951-5.442-2.74h-0.073v8.643h-4.983V91.811z"/>
	<rect x="45.573" y="118.148" fill="#FFFFFF" width="4.983" height="25.074"/>
	<path fill="#FFFFFF" d="M63.301,139.957L63.301,139.957c3.406,0,4.425-2.91,4.425-5.795c0-2.91-1.019-5.828-4.425-5.828
		c-3.37,0-4.387,2.918-4.387,5.828C58.914,137.047,59.931,139.957,63.301,139.957 M63.301,124.576c5.72,0,9.412,3.797,9.412,9.586
		c0,5.762-3.692,9.549-9.412,9.549c-5.688,0-9.376-3.787-9.376-9.549C53.925,128.373,57.613,124.576,63.301,124.576z"/>
	<path fill="#FFFFFF" d="M88.301,131.461c-0.319-2.037-1.615-3.127-3.688-3.127c-3.193,0-4.25,3.232-4.25,5.898
		c0,2.6,1.022,5.725,4.146,5.725c2.317,0,3.652-1.479,3.966-3.688h4.81c-0.631,4.809-3.967,7.441-8.738,7.441
		c-5.482,0-9.167-3.857-9.167-9.303c0-5.654,3.371-9.832,9.268-9.832c4.285,0,8.216,2.248,8.532,6.885H88.301z"/>
	<polygon fill="#FFFFFF" points="96.552,118.148 101.537,118.148 101.537,131.605 107.822,125.074 113.722,125.074 106.872,131.742 
		114.492,143.223 108.453,143.223 103.47,135.109 101.537,136.973 101.537,143.223 96.552,143.223 	"/>
	<path fill="#FFFFFF" d="M128.466,132.197L128.466,132.197c-0.458-2.525-1.543-3.863-3.967-3.863c-3.16,0-4.072,2.461-4.145,3.863
		H128.466z M120.354,135.359c0.139,3.156,1.687,4.598,4.46,4.598c2.002,0,3.616-1.229,3.933-2.352h4.39
		c-1.402,4.285-4.39,6.105-8.498,6.105c-5.72,0-9.27-3.928-9.27-9.549c0-5.441,3.762-9.586,9.27-9.586
		c6.182,0,9.166,5.195,8.814,10.783H120.354z"/>
	<path fill="#FFFFFF" d="M145.002,128.334L145.002,128.334c-3.263,0-4.387,2.811-4.387,5.797c0,2.842,1.298,5.826,4.387,5.826
		c3.302,0,4.287-2.877,4.287-5.865C149.289,131.145,148.233,128.334,145.002,128.334 M149.358,140.904h-0.069
		c-1.158,1.971-3.197,2.807-5.515,2.807c-5.477,0-8.146-4.701-8.146-9.723c0-4.879,2.703-9.412,8.041-9.412
		c2.142,0,4.25,0.916,5.407,2.713h-0.033h0.064v-9.141h4.989v25.074h-4.738V140.904z"/>
	<path fill="#FFFFFF" d="M69.078,170.588c0.032,2.176,1.859,3.055,3.825,3.055c1.443,0,3.268-0.562,3.268-2.318
		c0-1.51-2.071-2.035-5.653-2.805c-2.881-0.635-5.76-1.656-5.76-4.852c0-4.631,4-5.828,7.901-5.828c3.966,0,7.62,1.338,8.004,5.795
		h-4.741c-0.136-1.93-1.611-2.459-3.404-2.459c-1.124,0-2.775,0.217-2.775,1.689c0,1.787,2.809,2.037,5.653,2.703
		c2.916,0.666,5.76,1.717,5.76,5.09c0,4.777-4.146,6.32-8.286,6.32c-4.213,0-8.323-1.576-8.532-6.391H69.078z"/>
	<path fill="#FFFFFF" d="M84.068,151.418h4.987v9.443h0.106c1.263-2.035,3.437-3.021,5.302-3.021c5.302,0,6.633,2.988,6.633,7.482
		v11.164h-4.986v-10.252c0-2.984-0.877-4.463-3.195-4.463c-2.704,0-3.861,1.512-3.861,5.199v9.516h-4.987V151.418z"/>
	<path fill="#FFFFFF" d="M121.918,176.486h-4.739v-2.529h-0.104c-1.265,2.037-3.441,3.021-5.548,3.021
		c-5.302,0-6.637-2.984-6.637-7.482v-11.162h4.987v10.252c0,2.982,0.879,4.461,3.195,4.461c2.7,0,3.86-1.512,3.86-5.199v-9.514
		h4.985V176.486z"/>
	<path fill="#FFFFFF" d="M132.029,158.334h3.649v3.334h-3.649v8.99c0,1.684,0.421,2.105,2.107,2.105
		c0.525,0,1.015-0.031,1.542-0.141v3.9c-0.839,0.141-1.927,0.174-2.912,0.174c-3.056,0-5.725-0.703-5.725-4.322v-10.707h-3.019
		v-3.334h3.019v-5.443h4.987V158.334z"/>
</g>
</svg>
