<?xml version="1.0" encoding="utf-8"?>
<!-- Generator: Adobe Illustrator 16.0.0, SVG Export Plug-In . SVG Version: 6.00 Build 0)  -->
<!DOCTYPE svg PUBLIC "-//W3C//DTD SVG 1.1//EN" "http://www.w3.org/Graphics/SVG/1.1/DTD/svg11.dtd">
<svg version="1.1" id="Layer_1" xmlns="http://www.w3.org/2000/svg" xmlns:xlink="http://www.w3.org/1999/xlink" x="0px" y="0px"
	 width="200px" height="200px" viewBox="0 0 200 200" enable-background="new 0 0 200 200" xml:space="preserve">
<g>
	<rect x="36.671" y="5" fill="#FFFFFE" stroke="#1B171A" width="126.658" height="190"/>
	<path fill="#016BB2" d="M43.941,82.366v98.411c0,3.881,3.149,7.035,7.037,7.035h98.516c3.884,0,7.035-3.154,7.035-7.035V82.366"/>
	<path fill="#016BB2" d="M100.862,10.474c18.516,0,33.529,15.016,33.529,33.532c0,18.516-15.014,33.527-33.529,33.527
		c-18.517,0-33.527-15.011-33.527-33.527C67.335,25.49,82.346,10.474,100.862,10.474"/>
	<path fill="#FFFFFE" d="M93.883,22.973l3.001,28.412c0,0,0.703,3.532,3.646,3.532c3.42,0,3.941-3.474,3.941-3.474l3.115-28.528
		c0,0-0.381-6.885-6.824-6.885C93.888,16.03,93.883,22.973,93.883,22.973"/>
	<path fill="#FFFFFE" d="M100.854,72.192c3.743,0,6.778-3.038,6.778-6.781c0-3.743-3.035-6.775-6.778-6.775
		c-3.745,0-6.782,3.033-6.782,6.775C94.072,69.154,97.109,72.192,100.854,72.192"/>
</g>
</svg>
