<?xml version="1.0" encoding="utf-8"?>
<!-- Generator: Adobe Illustrator 16.0.0, SVG Export Plug-In . SVG Version: 6.00 Build 0)  -->
<!DOCTYPE svg PUBLIC "-//W3C//DTD SVG 1.1//EN" "http://www.w3.org/Graphics/SVG/1.1/DTD/svg11.dtd">
<svg version="1.1" id="Layer_1" xmlns="http://www.w3.org/2000/svg" xmlns:xlink="http://www.w3.org/1999/xlink" x="0px" y="0px"
	 width="200px" height="200px" viewBox="0 0 200 200" enable-background="new 0 0 200 200" xml:space="preserve">
<g>
	<path fill-rule="evenodd" clip-rule="evenodd" fill="#016BB2" d="M195,100c0,52.465-42.536,95-95,95S5,152.465,5,100
		C5,47.537,47.536,5,100,5S195,47.537,195,100L195,100L195,100z"/>
	<path fill-rule="evenodd" clip-rule="evenodd" fill="#FFFFFF" d="M162.254,142.537c0,0-1.38,5.102-1.311,5.031
		c-0.069,0-10.754-2.48-10.754-2.48s0.413-3.654,0.413-3.586l5.238,1.035c2.207-3.311,3.654-8.895,2.276-11.789
		c-4.55-8.137-15.995-7.033-20.959-13.789c-5.789-9.721-13.373-18.614-20.13-27.92c-1.309-2.895-1.586-5.584-0.413-9.445
		l11.168-41.64l-40.536-9.582l-3.172,16.614h-3.31l3.792-20.82l47.638,11.169l-12.616,46.81c-0.689,3.171,0.965,5.791,2.689,8.136
		c6.136,8.065,12.408,15.994,17.718,24.406c4.756,5.996,23.371,6.41,22.404,19.717c-0.067,2.688-1.102,5.17-1.723,7.652
		L162.254,142.537L162.254,142.537z"/>
	<path fill-rule="evenodd" clip-rule="evenodd" fill="#FFFFFF" d="M92.279,50.225c0.206,16.271-1.104,32.953-1.312,48.879
		c0.208,2.343,1.173,4.343,2.828,6.136c8.41,6.617,16.271,11.857,24.129,19.924c8.894,5.238,26.748,0.758,26.817,16.062
		c0.965,2.137-2.138,5.238,1.104,5.516c0-0.068,0.069,5.859,0.138,5.859H99.655c-7.721-2.551-14.133-8.893-22.268-10.34l0,0
		l-0.414,10.34H44.227c-0.965-5.584-0.619-11.721-1.24-17.373c-4.137-5.723-2.207-14.684-0.896-21.025
		c2.068-8.137,5.032-16.203,3.17-25.44l-0.758-12.893c-0.276-8.065-1.173-17.304-1.793-25.646H92.279L92.279,50.225z"/>
	<path fill-rule="evenodd" clip-rule="evenodd" fill="#016BB2" d="M142.261,136.264c0.482,1.309,1.654,2.895,0.552,4.342
		c-0.966,1.242-2.757,1.242-4.137,0.896c-2.826-3.93-7.032-5.309-11.169-6.549c-1.171-0.621-1.171-2.068-0.826-3.172
		c3.654-2.688,8.825-0.412,12.408,1.311L142.261,136.264L142.261,136.264z"/>
	<path fill-rule="evenodd" clip-rule="evenodd" fill="#016BB2" d="M81.662,135.506c6.756,0.275,16.339,8.342,25.784,9.789h33.711
		l0.069,3.033c-0.069,0-34.745,0-34.745,0c-7.102-0.277-19.098-9.031-25.096-9.514H46.571v-3.309H81.662L81.662,135.506z"/>
</g>
</svg>
