<?xml version="1.0" encoding="utf-8"?>
<!-- Generator: Adobe Illustrator 16.0.0, SVG Export Plug-In . SVG Version: 6.00 Build 0)  -->
<!DOCTYPE svg PUBLIC "-//W3C//DTD SVG 1.1//EN" "http://www.w3.org/Graphics/SVG/1.1/DTD/svg11.dtd">
<svg version="1.1" id="Layer_1" xmlns="http://www.w3.org/2000/svg" xmlns:xlink="http://www.w3.org/1999/xlink" x="0px" y="0px"
	 width="200px" height="200px" viewBox="0 0 200 200" enable-background="new 0 0 200 200" xml:space="preserve">
<g>
	<rect x="5" y="57.777" fill="#FFFFFF" width="190" height="84.445"/>
	<rect x="5" y="57.777" fill="none" stroke="#1B181B" width="190" height="84.445"/>
	<path fill="#039046" d="M191.411,82.267c0,1.165-0.945,2.112-2.112,2.112H10.701c-1.168,0-2.111-0.947-2.111-2.112V64.11
		c0-1.165,0.943-2.11,2.111-2.11h178.598c1.167,0,2.112,0.945,2.112,2.11"/>
	<path fill="#FFF200" d="M191.411,108.865c0,1.166-0.945,2.112-2.112,2.112H41.523c-1.167,0-2.109-0.946-2.109-2.112V90.71
		c0-1.165,0.942-2.11,2.109-2.11h147.775c1.167,0,2.112,0.945,2.112,2.11"/>
	<polyline fill="#1B181B" points="53.425,96.209 50.389,96.209 50.389,94.105 58.684,94.105 58.684,96.209 55.65,96.209 
		55.65,105.485 53.425,105.485 	"/>
	<path fill="#1B181B" d="M59.567,94.105h2.013v4.288h0.043c0.511-0.925,1.391-1.368,2.144-1.368c2.141,0,2.679,1.352,2.679,3.393
		v5.067h-2.015v-4.653c0-1.355-0.354-2.024-1.289-2.024c-1.093,0-1.562,0.686-1.562,2.359v4.318h-2.013"/>
	<path fill="#1B181B" d="M69.979,95.972h-2.016v-1.864h2.016V95.972z M67.963,97.246h2.016v8.239h-2.016V97.246z"/>
	<path fill="#1B181B" d="M73.055,102.811c0.014,0.986,0.751,1.384,1.545,1.384c0.583,0,1.319-0.255,1.319-1.051
		c0-0.686-0.835-0.926-2.283-1.276c-1.163-0.286-2.325-0.749-2.325-2.197c0-2.104,1.617-2.645,3.191-2.645
		c1.602,0,3.079,0.604,3.233,2.627H75.82c-0.056-0.878-0.652-1.116-1.374-1.116c-0.455,0-1.123,0.098-1.123,0.766
		c0,0.813,1.136,0.926,2.284,1.228c1.177,0.303,2.327,0.78,2.327,2.311c0,2.168-1.676,2.87-3.348,2.87
		c-1.702,0-3.361-0.719-3.448-2.899"/>
	<path fill="#1B181B" d="M88.149,104.434h-0.031c-0.467,0.895-1.291,1.276-2.228,1.276c-2.212,0-3.291-2.136-3.291-4.415
		c0-2.216,1.094-4.27,3.249-4.27c0.865,0,1.718,0.412,2.185,1.226H88.02h0.028v-4.146h2.015v11.38h-1.913 M86.389,98.729
		c-1.319,0-1.774,1.273-1.774,2.629c0,1.292,0.527,2.647,1.774,2.647c1.332,0,1.729-1.31,1.729-2.663
		C88.118,100.002,87.692,98.729,86.389,98.729"/>
	<path fill="#1B181B" d="M95.069,97.025c2.312,0,3.802,1.719,3.802,4.348c0,2.617-1.489,4.337-3.802,4.337
		c-2.297,0-3.788-1.72-3.788-4.337C91.281,98.744,92.772,97.025,95.069,97.025 M95.069,104.005c1.376,0,1.789-1.322,1.789-2.632
		c0-1.322-0.413-2.645-1.789-2.645c-1.359,0-1.772,1.322-1.772,2.645C93.297,102.683,93.71,104.005,95.069,104.005"/>
	<path fill="#1B181B" d="M103.666,97.025c2.312,0,3.803,1.719,3.803,4.348c0,2.617-1.491,4.337-3.803,4.337
		c-2.298,0-3.787-1.72-3.787-4.337C99.879,98.744,101.368,97.025,103.666,97.025 M103.666,104.005c1.377,0,1.786-1.322,1.786-2.632
		c0-1.322-0.409-2.645-1.786-2.645c-1.362,0-1.774,1.322-1.774,2.645C101.892,102.683,102.304,104.005,103.666,104.005"/>
	<path fill="#1B181B" d="M108.699,97.246h1.914v1.528h0.03c0.368-1.034,1.361-1.749,2.34-1.749c0.141,0,0.311,0.029,0.438,0.077
		v2.104c-0.184-0.05-0.481-0.08-0.724-0.08c-1.474,0-1.984,1.196-1.984,2.647v3.711h-2.015"/>
	<path fill="#1B181B" d="M120.092,95.972h-2.013v-1.864h2.013V95.972z M118.079,97.246h2.013v8.239h-2.013V97.246z"/>
	<path fill="#1B181B" d="M123.168,102.811c0.014,0.986,0.751,1.384,1.545,1.384c0.583,0,1.319-0.255,1.319-1.051
		c0-0.686-0.837-0.926-2.281-1.276c-1.165-0.286-2.329-0.749-2.329-2.197c0-2.104,1.619-2.645,3.193-2.645
		c1.602,0,3.078,0.604,3.233,2.627h-1.915c-0.057-0.878-0.651-1.116-1.376-1.116c-0.452,0-1.121,0.098-1.121,0.766
		c0,0.813,1.136,0.926,2.284,1.228c1.179,0.303,2.326,0.78,2.326,2.311c0,2.168-1.675,2.87-3.347,2.87
		c-1.702,0-3.363-0.719-3.448-2.899"/>
	<path fill="#1B181B" d="M132.942,99.779c0.113-2.119,1.802-2.754,3.448-2.754c1.461,0,3.219,0.365,3.219,2.34v4.289
		c0,0.746,0.07,1.496,0.255,1.831h-2.042c-0.07-0.255-0.128-0.525-0.143-0.795c-0.638,0.748-1.572,1.02-2.468,1.02
		c-1.391,0-2.497-0.782-2.497-2.47c0-1.867,1.249-2.311,2.497-2.505c1.234-0.206,2.383-0.157,2.383-1.083
		c0-0.971-0.596-1.116-1.304-1.116c-0.767,0-1.264,0.352-1.334,1.243 M137.595,101.453c-0.34,0.336-1.049,0.351-1.674,0.479
		c-0.624,0.143-1.191,0.385-1.191,1.212c0,0.847,0.583,1.051,1.235,1.051c1.572,0,1.63-1.402,1.63-1.896V101.453z"/>
	<line fill="none" stroke="#1B181B" stroke-width="2.0142" x1="142.16" y1="105.485" x2="142.16" y2="94.105"/>
	<path fill="#1B181B" d="M144.601,99.779c0.112-2.119,1.802-2.754,3.447-2.754c1.46,0,3.219,0.365,3.219,2.34v4.289
		c0,0.746,0.07,1.496,0.256,1.831h-2.042c-0.07-0.255-0.128-0.525-0.143-0.795c-0.639,0.748-1.573,1.02-2.468,1.02
		c-1.391,0-2.497-0.782-2.497-2.47c0-1.867,1.248-2.311,2.497-2.505c1.233-0.206,2.383-0.157,2.383-1.083
		c0-0.971-0.596-1.116-1.305-1.116c-0.766,0-1.263,0.352-1.334,1.243 M149.253,101.453c-0.341,0.336-1.049,0.351-1.675,0.479
		c-0.623,0.143-1.19,0.385-1.19,1.212c0,0.847,0.582,1.051,1.235,1.051c1.572,0,1.63-1.402,1.63-1.896V101.453z"/>
	<path fill="#1B181B" d="M152.756,97.246h1.915v1.528h0.029c0.368-1.034,1.361-1.749,2.34-1.749c0.141,0,0.312,0.029,0.442,0.077
		v2.104c-0.187-0.05-0.484-0.08-0.727-0.08c-1.475,0-1.985,1.196-1.985,2.647v3.711h-2.015"/>
	<path fill="#1B181B" d="M158.26,97.246h1.899v1.116h0.031c0.521-0.846,1.288-1.337,2.24-1.337c0.921,0,1.744,0.38,2.141,1.368
		c0.425-0.719,1.191-1.368,2.212-1.368c1.562,0,2.681,0.811,2.681,2.945v5.515h-2.011v-4.668c0-1.1-0.087-2.01-1.237-2.01
		c-1.133,0-1.346,1.052-1.346,2.088v4.59h-2.014v-4.621c0-0.957,0.057-2.057-1.221-2.057c-0.398,0-1.362,0.288-1.362,1.896v4.781
		h-2.014"/>
	<path fill="#1B181B" d="M172.642,101.917c0.06,1.434,0.683,2.088,1.804,2.088c0.807,0,1.461-0.559,1.587-1.07h1.772
		c-0.564,1.945-1.772,2.775-3.43,2.775c-2.312,0-3.748-1.785-3.748-4.337c0-2.469,1.519-4.348,3.748-4.348
		c2.493,0,3.701,2.358,3.559,4.892 M175.92,100.481c-0.186-1.147-0.626-1.753-1.604-1.753c-1.274,0-1.645,1.115-1.674,1.753H175.92z
		"/>
	<path fill="#1B181B" d="M184.29,104.434h-0.031c-0.467,0.895-1.291,1.276-2.228,1.276c-2.211,0-3.291-2.136-3.291-4.415
		c0-2.216,1.094-4.27,3.249-4.27c0.865,0,1.716,0.412,2.185,1.226h-0.014h0.028v-4.146h2.015v11.38h-1.913 M182.529,98.729
		c-1.317,0-1.774,1.273-1.774,2.629c0,1.292,0.527,2.647,1.774,2.647c1.335,0,1.729-1.31,1.729-2.663
		C184.259,100.002,183.833,98.729,182.529,98.729"/>
	<path fill="#ED1C24" d="M191.411,135.89c0,1.165-0.945,2.11-2.112,2.11H41.523c-1.167,0-2.109-0.945-2.109-2.11v-18.157
		c0-1.165,0.942-2.112,2.109-2.112h147.775c1.167,0,2.112,0.947,2.112,2.112"/>
	<polyline fill="#FFFFFF" points="47.39,121.751 53.713,121.751 53.713,123.619 49.366,123.619 49.366,125.953 53.132,125.953 
		53.132,127.678 49.366,127.678 49.366,131.854 47.39,131.854 	"/>
	<path fill="#FFFFFF" d="M57.741,124.34c2.056,0,3.378,1.528,3.378,3.861c0,2.324-1.322,3.849-3.378,3.849
		c-2.039,0-3.362-1.524-3.362-3.849C54.379,125.868,55.702,124.34,57.741,124.34 M57.741,130.538c1.225,0,1.588-1.175,1.588-2.337
		c0-1.172-0.363-2.347-1.588-2.347c-1.209,0-1.574,1.175-1.574,2.347C56.167,129.363,56.532,130.538,57.741,130.538"/>
	<path fill="#FFFFFF" d="M62.188,124.539h1.7v1.358h0.026c0.325-0.92,1.208-1.558,2.078-1.558c0.124,0,0.275,0.029,0.388,0.071
		v1.869c-0.162-0.046-0.427-0.072-0.643-0.072c-1.31,0-1.761,1.061-1.761,2.347v3.299h-1.789"/>
	<path fill="#FFFFFF" d="M71.885,128.683c0.051,1.276,0.604,1.855,1.599,1.855c0.719,0,1.298-0.494,1.411-0.949h1.574
		c-0.503,1.729-1.574,2.461-3.047,2.461c-2.053,0-3.325-1.584-3.325-3.849c0-2.192,1.348-3.861,3.325-3.861
		c2.215,0,3.287,2.095,3.161,4.343 M74.796,127.409c-0.165-1.018-0.557-1.555-1.425-1.555c-1.135,0-1.462,0.988-1.486,1.555H74.796z
		"/>
	<path fill="#FFFFFF" d="M77.601,124.539h1.689v0.988h0.024c0.466-0.749,1.146-1.188,1.991-1.188c0.818,0,1.548,0.34,1.899,1.217
		c0.379-0.638,1.06-1.217,1.966-1.217c1.385,0,2.379,0.723,2.379,2.618v4.896h-1.786v-4.146c0-0.975-0.076-1.78-1.097-1.78
		c-1.008,0-1.194,0.933-1.194,1.853v4.074h-1.791v-4.104c0-0.848,0.051-1.823-1.083-1.823c-0.35,0-1.209,0.252-1.209,1.683v4.244
		h-1.789"/>
	<path fill="#FFFFFF" d="M90.346,128.683c0.05,1.276,0.604,1.855,1.599,1.855c0.718,0,1.297-0.494,1.41-0.949h1.574
		c-0.502,1.729-1.574,2.461-3.047,2.461c-2.054,0-3.323-1.584-3.323-3.849c0-2.192,1.347-3.861,3.323-3.861
		c2.216,0,3.287,2.095,3.163,4.343 M93.255,127.409c-0.164-1.018-0.555-1.555-1.424-1.555c-1.133,0-1.46,0.988-1.485,1.555H93.255z"
		/>
	<path fill="#FFFFFF" d="M96.014,124.539h1.698v1.358h0.025c0.325-0.92,1.209-1.558,2.078-1.558c0.126,0,0.276,0.029,0.391,0.071
		v1.869c-0.165-0.046-0.429-0.072-0.643-0.072c-1.312,0-1.765,1.061-1.765,2.347v3.299h-1.785"/>
	<path fill="#FFFFFF" d="M107.082,131.386c0,1.204-0.376,3.24-3.374,3.24c-1.286,0-2.785-0.678-2.873-2.347h1.775
		c0.163,0.75,0.705,1.005,1.335,1.005c0.995,0,1.448-0.766,1.438-1.813v-0.962h-0.028c-0.388,0.766-1.17,1.133-1.952,1.133
		c-1.952,0-2.781-1.67-2.781-3.679c0-1.896,0.969-3.623,2.795-3.623c0.857,0,1.511,0.327,1.938,1.175h0.028v-0.976h1.698
		 M105.384,128.104c0-1.188-0.368-2.249-1.525-2.249c-1.008,0-1.449,0.988-1.449,2.078c0,1.048,0.354,2.193,1.449,2.193
		C104.88,130.126,105.384,129.15,105.384,128.104"/>
	<path fill="#FFFFFF" d="M109.902,128.683c0.051,1.276,0.604,1.855,1.599,1.855c0.72,0,1.296-0.494,1.41-0.949h1.574
		c-0.504,1.729-1.574,2.461-3.047,2.461c-2.054,0-3.325-1.584-3.325-3.849c0-2.192,1.349-3.861,3.325-3.861
		c2.216,0,3.289,2.095,3.161,4.343 M112.812,127.409c-0.162-1.018-0.555-1.555-1.422-1.555c-1.136,0-1.463,0.988-1.487,1.555
		H112.812z"/>
	<path fill="#FFFFFF" d="M115.568,124.539h1.7v1.018h0.038c0.453-0.821,1.233-1.217,1.99-1.217c1.901,0,2.379,1.204,2.379,3.014v4.5
		h-1.788v-4.133c0-1.201-0.314-1.794-1.146-1.794c-0.971,0-1.387,0.605-1.387,2.092v3.835h-1.787"/>
	<path fill="#FFFFFF" d="M127.384,127.115c-0.116-0.822-0.581-1.261-1.324-1.261c-1.146,0-1.524,1.3-1.524,2.376
		c0,1.048,0.364,2.308,1.485,2.308c0.831,0,1.311-0.596,1.426-1.485h1.723c-0.226,1.938-1.422,2.997-3.136,2.997
		c-1.963,0-3.287-1.554-3.287-3.747c0-2.277,1.211-3.963,3.325-3.963c1.536,0,2.947,0.906,3.062,2.775"/>
	<path fill="#FFFFFF" d="M133.301,132.773c-0.39,1.175-1.008,1.656-2.242,1.656c-0.364,0-0.729-0.029-1.093-0.072v-1.652
		c0.337,0.026,0.69,0.082,1.044,0.068c0.615-0.068,0.818-0.792,0.615-1.371l-2.289-6.863h1.913l1.473,5.008h0.024l1.424-5.008h1.851
		"/>
	<path fill="#FFFFFF" d="M146.057,131.854h-1.7v-1.018h-0.038c-0.451,0.821-1.231,1.214-1.987,1.214c-1.903,0-2.38-1.2-2.38-3.014
		v-4.497h1.785v4.131c0,1.204,0.316,1.796,1.149,1.796c0.967,0,1.383-0.608,1.383-2.091v-3.836h1.788"/>
	<path fill="#FFFFFF" d="M148.714,129.478c0.014,0.877,0.668,1.23,1.373,1.23c0.518,0,1.174-0.229,1.174-0.936
		c0-0.608-0.745-0.818-2.027-1.129c-1.034-0.256-2.067-0.668-2.067-1.954c0-1.869,1.437-2.35,2.834-2.35
		c1.423,0,2.733,0.54,2.872,2.333h-1.701c-0.05-0.775-0.58-0.988-1.223-0.988c-0.402,0-0.993,0.085-0.993,0.678
		c0,0.723,1.006,0.821,2.027,1.09c1.046,0.269,2.065,0.693,2.065,2.052c0,1.925-1.488,2.546-2.972,2.546
		c-1.513,0-2.987-0.635-3.062-2.572"/>
	<path fill="#FFFFFF" d="M155.478,128.683c0.051,1.276,0.605,1.855,1.599,1.855c0.719,0,1.298-0.494,1.411-0.949h1.575
		c-0.504,1.729-1.575,2.461-3.049,2.461c-2.052,0-3.325-1.584-3.325-3.849c0-2.192,1.349-3.861,3.325-3.861
		c2.216,0,3.288,2.095,3.162,4.343 M158.389,127.409c-0.165-1.018-0.557-1.555-1.426-1.555c-1.132,0-1.461,0.988-1.485,1.555
		H158.389z"/>
	<path fill="#FFFFFF" d="M167.716,124.34c2.054,0,3.378,1.528,3.378,3.861c0,2.324-1.324,3.849-3.378,3.849
		c-2.038,0-3.362-1.524-3.362-3.849C164.354,125.868,165.678,124.34,167.716,124.34 M167.716,130.538
		c1.223,0,1.588-1.175,1.588-2.337c0-1.172-0.365-2.347-1.588-2.347c-1.209,0-1.574,1.175-1.574,2.347
		C166.142,129.363,166.507,130.538,167.716,130.538"/>
	<path fill="#FFFFFF" d="M172.162,124.539h1.7v1.018h0.038c0.453-0.821,1.235-1.217,1.989-1.217c1.903,0,2.38,1.204,2.38,3.014v4.5
		h-1.789v-4.133c0-1.201-0.313-1.794-1.146-1.794c-0.969,0-1.384,0.605-1.384,2.092v3.835h-1.789"/>
	<rect x="179.594" y="121.751" fill="#FFFFFF" width="1.788" height="10.103"/>
	<path fill="#FFFFFF" d="M185.916,132.773c-0.391,1.175-1.006,1.656-2.241,1.656c-0.363,0-0.73-0.029-1.095-0.072v-1.652
		c0.338,0.026,0.691,0.082,1.044,0.068c0.618-0.068,0.819-0.792,0.618-1.371l-2.293-6.863h1.917l1.473,5.008h0.022l1.424-5.008
		h1.851"/>
	<path fill="#FFFFFF" d="M38.147,65.506h5.295c2.93,0,4.062,1.935,4.062,3.923c0,1.986-1.132,3.924-4.062,3.924h-2.713v4.386h-2.582
		 M40.729,71.264h2.006c1.201,0,2.27-0.275,2.27-1.835s-1.068-1.834-2.27-1.834h-2.006V71.264z"/>
	<path fill="#FFFFFF" d="M56.436,77.738h-2.219v-1.235h-0.051c-0.591,0.993-1.612,1.473-2.599,1.473
		c-2.484,0-3.107-1.456-3.107-3.647v-5.446h2.337v5c0,1.456,0.409,2.178,1.494,2.178c1.266,0,1.808-0.738,1.808-2.538v-4.64h2.337"
		/>
	<path fill="#FFFFFF" d="M59.608,74.858c0.017,1.063,0.872,1.492,1.792,1.492c0.674,0,1.531-0.274,1.531-1.132
		c0-0.738-0.972-0.993-2.647-1.37c-1.35-0.31-2.698-0.805-2.698-2.364c0-2.26,1.875-2.845,3.7-2.845c1.858,0,3.568,0.653,3.75,2.828
		h-2.22c-0.067-0.944-0.758-1.198-1.596-1.198c-0.527,0-1.3,0.101-1.3,0.82c0,0.874,1.315,0.995,2.647,1.319
		c1.365,0.325,2.697,0.839,2.697,2.485c0,2.328-1.94,3.081-3.882,3.081c-1.974,0-3.895-0.771-3.996-3.117"/>
	<path fill="#FFFFFF" d="M66.218,65.506h2.335v4.608h0.048c0.593-0.995,1.613-1.475,2.484-1.475c2.482,0,3.107,1.457,3.107,3.651
		v5.447h-2.335v-5.004c0-1.456-0.409-2.173-1.496-2.173c-1.267,0-1.809,0.734-1.809,2.533v4.644h-2.335"/>
	<path fill="#FFFFFF" d="M78.896,65.506h2.337v4.453h0.031c0.574-0.908,1.628-1.319,2.683-1.319c1.691,0,3.517,1.424,3.517,4.659
		c0,3.257-1.825,4.677-3.517,4.677c-1.251,0-2.288-0.393-2.799-1.371h-0.032v1.134h-2.22 M83.139,70.477
		c-1.381,0-1.99,1.35-1.99,2.841c0,1.473,0.609,2.827,1.99,2.827s1.989-1.354,1.989-2.827C85.128,71.826,84.52,70.477,83.139,70.477
		"/>
	<path fill="#FFFFFF" d="M88.683,71.605c0.131-2.279,2.088-2.966,3.996-2.966c1.692,0,3.731,0.395,3.731,2.519v4.608
		c0,0.805,0.083,1.61,0.296,1.972h-2.368c-0.082-0.274-0.147-0.567-0.163-0.859c-0.74,0.808-1.826,1.097-2.862,1.097
		c-1.612,0-2.892-0.839-2.892-2.654c0-2.004,1.446-2.483,2.892-2.69c1.432-0.222,2.764-0.17,2.764-1.163
		c0-1.044-0.69-1.198-1.514-1.198c-0.889,0-1.463,0.375-1.546,1.336 M94.076,73.402c-0.396,0.361-1.218,0.378-1.94,0.515
		c-0.724,0.154-1.383,0.411-1.383,1.302c0,0.908,0.676,1.132,1.432,1.132c1.826,0,1.892-1.51,1.892-2.04V73.402z"/>
	<path fill="#FFFFFF" d="M97.809,68.882h2.219v1.642h0.035c0.429-1.112,1.577-1.884,2.711-1.884c0.166,0,0.362,0.036,0.513,0.089
		v2.26c-0.216-0.053-0.56-0.085-0.842-0.085c-1.71,0-2.301,1.283-2.301,2.841v3.994h-2.335"/>
	<path fill="#FFFFFF" d="M110.092,68.882h1.71v1.625h-1.71v4.388c0,0.821,0.198,1.027,0.986,1.027c0.249,0,0.479-0.018,0.724-0.068
		v1.901c-0.395,0.068-0.903,0.083-1.364,0.083c-1.431,0-2.681-0.342-2.681-2.105v-5.226h-1.414v-1.625h1.414v-2.654h2.335"/>
	<path fill="#FFFFFF" d="M116.636,68.64c2.682,0,4.408,1.853,4.408,4.678c0,2.81-1.727,4.658-4.408,4.658
		c-2.661,0-4.389-1.849-4.389-4.658C112.247,70.492,113.975,68.64,116.636,68.64 M116.636,76.145c1.597,0,2.075-1.424,2.075-2.827
		c0-1.423-0.479-2.841-2.075-2.841c-1.577,0-2.052,1.418-2.052,2.841C114.584,74.721,115.059,76.145,116.636,76.145"/>
	<path fill="#FFFFFF" d="M129.614,68.64c2.679,0,4.406,1.853,4.406,4.678c0,2.81-1.728,4.658-4.406,4.658
		c-2.666,0-4.391-1.849-4.391-4.658C125.224,70.492,126.948,68.64,129.614,68.64 M129.614,76.145c1.594,0,2.07-1.424,2.07-2.827
		c0-1.423-0.477-2.841-2.07-2.841c-1.581,0-2.058,1.418-2.058,2.841C127.557,74.721,128.033,76.145,129.614,76.145"/>
	<path fill="#FFFFFF" d="M135.122,68.882h2.219v1.128h0.033c0.56-0.941,1.48-1.37,2.533-1.37c2.664,0,3.863,2.244,3.863,4.763
		c0,2.364-1.248,4.573-3.732,4.573c-1.02,0-1.99-0.461-2.548-1.335h-0.033v4.212h-2.335 M141.436,73.337
		c0-1.407-0.542-2.86-2.037-2.86c-1.53,0-2.024,1.418-2.024,2.86c0,1.435,0.526,2.808,2.039,2.808
		C140.943,76.145,141.436,74.771,141.436,73.337"/>
	<path fill="#FFFFFF" d="M147.093,73.901c0.066,1.541,0.79,2.243,2.09,2.243c0.936,0,1.693-0.601,1.841-1.15h2.057
		c-0.659,2.092-2.057,2.981-3.979,2.981c-2.683,0-4.343-1.916-4.343-4.658c0-2.656,1.762-4.678,4.343-4.678
		c2.893,0,4.29,2.537,4.127,5.262 M150.893,72.356c-0.215-1.232-0.726-1.88-1.859-1.88c-1.478,0-1.908,1.197-1.94,1.88H150.893z"/>
	<path fill="#FFFFFF" d="M154.198,68.882h2.217v1.232h0.049c0.595-0.995,1.612-1.475,2.599-1.475c2.482,0,3.107,1.457,3.107,3.651
		v5.447h-2.335v-5.004c0-1.456-0.409-2.173-1.495-2.173c-1.267,0-1.809,0.734-1.809,2.533v4.644h-2.333"/>
	<rect x="163.569" y="66.854" fill="#FFFFFF" width="6.624" height="2.956"/>
	<rect x="29.807" y="66.854" fill="#FFFFFF" width="6.624" height="2.956"/>
	<rect x="183.072" y="66.854" fill="#FFFFFF" width="4.013" height="2.956"/>
	<rect x="186.24" y="66.433" fill="#FFFFFF" width="0.845" height="3.8"/>
	<rect x="12.917" y="66.854" fill="#FFFFFF" width="4.013" height="2.956"/>
	<rect x="12.917" y="66.433" fill="#FFFFFF" width="0.845" height="3.8"/>
	<path fill="#FFFFFF" d="M17.938,81.196l1.718-5.604c0.021-0.068,0.021-0.142,0-0.211c-0.013-0.051-1.497-4.971-0.798-9.269
		c0.006-0.031,0.132-0.769,0.662-0.783c0.205-0.006,0.353,0.054,0.474,0.183c0.388,0.424,0.366,1.436,0.325,1.79
		c0.021-0.18,0.175-0.317,0.358-0.318c0.18-0.005,0.337,0.129,0.363,0.309c-0.053-0.363-0.09-1.422,0.334-1.904
		c0.153-0.177,0.363-0.262,0.635-0.262c0.285,0.003,0.501,0.092,0.666,0.274c0.409,0.455,0.416,1.387,0.385,1.705
		c0.017-0.175,0.16-0.313,0.34-0.323c0.177-0.014,0.336,0.107,0.377,0.282c-0.075-0.338-0.184-1.313,0.192-1.766
		c0.147-0.178,0.363-0.258,0.665-0.252c0.267,0.007,0.468,0.094,0.612,0.269c0.373,0.447,0.323,1.371,0.274,1.688
		c0.028-0.177,0.179-0.304,0.356-0.306c0.181-0.002,0.331,0.128,0.358,0.305c-0.054-0.336-0.112-1.296,0.261-1.719
		c0.138-0.152,0.319-0.219,0.576-0.208c0.33,0.016,0.572,0.121,0.742,0.328c0.351,0.422,0.328,1.185,0.288,1.444
		c0,0.017,0,0.036,0,0.055v3.991l0.727-0.006l-0.003-3.99c0,0.02-0.002,0.037-0.005,0.055c0.008-0.05,0.182-1.25-0.443-2.008
		c-0.307-0.369-0.735-0.569-1.273-0.594c-0.471-0.02-0.87,0.138-1.152,0.453c-0.667,0.755-0.458,2.159-0.432,2.319
		c0.029,0.172,0.184,0.301,0.358,0.299c0.179,0,0.329-0.127,0.358-0.304c0.022-0.15,0.216-1.486-0.432-2.269
		c-0.28-0.334-0.678-0.516-1.154-0.53c-0.662-0.016-1.042,0.271-1.242,0.519c-0.666,0.804-0.378,2.223-0.343,2.382
		c0.037,0.173,0.196,0.294,0.374,0.284c0.179-0.01,0.322-0.148,0.341-0.325c0.006-0.061,0.141-1.475-0.564-2.262
		c-0.305-0.341-0.711-0.513-1.205-0.514c-0.48-0.004-0.89,0.17-1.185,0.506c-0.717,0.819-0.53,2.316-0.507,2.483
		c0.026,0.181,0.182,0.314,0.363,0.312c0.183-0.001,0.335-0.139,0.356-0.32c0.018-0.164,0.165-1.622-0.512-2.363
		c-0.261-0.286-0.617-0.431-1.026-0.42c-0.91,0.027-1.288,0.926-1.36,1.397c-0.728,4.46,0.757,9.385,0.82,9.592
		c-0.02-0.068-0.02-0.142,0-0.211l-1.829,5.827"/>
	<path fill="#FFFFFF" d="M30.514,71.584c0.021,1.012-1.314,2.18-2.492,3.207c-0.9,0.787-1.673,1.462-1.918,2.099
		c-0.53,1.393-0.937,4.169-0.953,4.282h0.767V81.1c0.003-0.027,0.363-2.636,0.865-3.952c0.179-0.468,0.961-1.146,1.713-1.81
		c1.3-1.134,2.771-2.417,2.746-3.769"/>
	<polyline fill="#FFFFFF" points="24.571,76.467 24.571,71.809 26.62,73.796 26.62,71.296 23.663,68.542 20.708,71.296 
		20.708,73.796 22.753,71.809 22.753,76.467 	"/>
	<path fill="#FFFFFF" d="M182.061,81.196l-1.72-5.604c-0.02-0.068-0.02-0.142,0-0.211c0.017-0.051,1.501-4.971,0.801-9.269
		c-0.005-0.031-0.133-0.769-0.665-0.783c-0.201-0.006-0.352,0.054-0.471,0.183c-0.388,0.424-0.368,1.436-0.326,1.79
		c-0.021-0.18-0.175-0.317-0.354-0.318c-0.186-0.005-0.339,0.129-0.365,0.309c0.049-0.363,0.09-1.422-0.337-1.904
		c-0.154-0.177-0.36-0.262-0.632-0.262c-0.285,0.003-0.504,0.092-0.668,0.274c-0.409,0.455-0.417,1.387-0.384,1.705
		c-0.019-0.175-0.162-0.313-0.339-0.323c-0.181-0.014-0.338,0.107-0.377,0.282c0.072-0.338,0.182-1.313-0.192-1.766
		c-0.147-0.178-0.365-0.258-0.666-0.252c-0.269,0.007-0.469,0.094-0.612,0.269c-0.375,0.447-0.326,1.371-0.275,1.688
		c-0.027-0.177-0.178-0.304-0.356-0.306s-0.33,0.128-0.36,0.305c0.058-0.336,0.118-1.296-0.26-1.719
		c-0.136-0.152-0.317-0.219-0.574-0.208c-0.331,0.016-0.573,0.121-0.745,0.328c-0.347,0.422-0.324,1.185-0.288,1.444
		c0.002,0.017,0.004,0.036,0.004,0.055l-0.005,3.991l-0.726-0.006l0.005-3.99c0,0.02,0,0.037,0.004,0.055
		c-0.009-0.05-0.179-1.25,0.446-2.008c0.307-0.369,0.731-0.569,1.271-0.594c0.474-0.02,0.871,0.138,1.152,0.453
		c0.669,0.755,0.46,2.159,0.432,2.319c-0.029,0.172-0.18,0.301-0.359,0.299c-0.177,0-0.329-0.127-0.357-0.304
		c-0.022-0.15-0.218-1.486,0.433-2.269c0.278-0.334,0.677-0.516,1.153-0.53c0.661-0.016,1.041,0.271,1.244,0.519
		c0.664,0.804,0.376,2.223,0.342,2.382c-0.038,0.173-0.198,0.294-0.375,0.284c-0.179-0.01-0.322-0.148-0.34-0.325
		c-0.007-0.061-0.143-1.475,0.564-2.262c0.308-0.341,0.71-0.513,1.204-0.514c0.482-0.004,0.891,0.17,1.183,0.506
		c0.721,0.819,0.532,2.316,0.511,2.483c-0.027,0.181-0.183,0.314-0.364,0.312c-0.184-0.001-0.334-0.139-0.357-0.32
		c-0.02-0.164-0.167-1.622,0.513-2.363c0.26-0.286,0.618-0.431,1.027-0.42c0.908,0.027,1.285,0.926,1.358,1.397
		c0.729,4.46-0.758,9.385-0.82,9.592c0.021-0.068,0.021-0.142,0-0.211l1.83,5.827"/>
	<path fill="#FFFFFF" d="M169.485,71.584c-0.021,1.012,1.313,2.18,2.493,3.207c0.897,0.787,1.671,1.462,1.915,2.099
		c0.533,1.393,0.938,4.169,0.954,4.282h-0.766V81.1c-0.004-0.027-0.363-2.636-0.866-3.952c-0.177-0.468-0.959-1.146-1.715-1.81
		c-1.298-1.134-2.771-2.417-2.742-3.769"/>
	<polyline fill="#FFFFFF" points="175.426,76.467 175.426,71.809 173.38,73.796 173.38,71.296 176.335,68.542 179.291,71.296 
		179.291,73.796 177.245,71.809 177.245,76.467 	"/>
	<path fill="#ED1C24" d="M23.367,115.62c-6.18,0-11.187,5.011-11.187,11.19c0,6.179,5.007,11.193,11.187,11.193
		c6.179,0,11.189-5.015,11.189-11.193C34.557,120.631,29.546,115.62,23.367,115.62 M23.367,135.749
		c-4.936,0-8.937-4.003-8.937-8.938c0-2.049,0.697-3.931,1.86-5.439l12.512,12.521C27.296,135.052,25.414,135.749,23.367,135.749
		 M30.443,132.257l-12.521-12.523c1.511-1.161,3.393-1.858,5.444-1.858c4.936,0,8.937,4,8.937,8.936
		C32.304,128.862,31.604,130.748,30.443,132.257"/>
	<polyline fill="#FFF200" points="23.444,89.705 11.866,108.633 34.822,108.633 	"/>
	<path fill="#1B181B" d="M36.724,108.742l-12.46-20.544c0,0-0.191-0.443-0.805-0.443c-0.615,0-0.897,0.443-0.897,0.443
		l-12.524,20.49c0,0-0.317,0.504-0.026,0.979c0,0,0.3,0.466,0.797,0.466h24.97c0,0,0.67,0.02,0.938-0.471
		C36.941,109.248,36.831,108.934,36.724,108.742 M12.092,108.521l11.351-18.553l11.153,18.553H12.092z"/>
	<path fill="#1B181B" d="M23.384,103.923c1.044,0,1.892-0.848,1.892-1.89c0-1.044-0.848-1.894-1.892-1.894s-1.891,0.85-1.891,1.894
		C21.493,103.075,22.34,103.923,23.384,103.923"/>
	<polyline fill="#1B181B" points="22.307,100.101 22.657,98.048 22.234,98.284 22.258,96.775 21.716,96.893 21.881,99.086 
		22.234,98.85 	"/>
	<polyline fill="#1B181B" points="21.48,100.888 20.762,98.936 20.512,99.351 19.78,98.033 19.367,98.408 20.608,100.223 
		20.795,99.842 	"/>
	<polyline fill="#1B181B" points="21.161,101.985 19.561,100.658 19.553,101.145 18.258,100.37 18.09,100.898 20.071,101.848 
		20.044,101.426 	"/>
	<polyline fill="#1B181B" points="21.435,103.097 19.384,102.748 19.62,103.172 18.114,103.152 18.232,103.69 20.425,103.521 
		20.186,103.17 	"/>
	<polyline fill="#1B181B" points="22.229,103.92 20.277,104.643 20.696,104.892 19.378,105.628 19.752,106.039 21.563,104.793 
		21.184,104.606 	"/>
	<polyline fill="#1B181B" points="23.324,104.233 21.999,105.838 22.485,105.844 21.716,107.144 22.244,107.309 23.19,105.327 
		22.765,105.354 	"/>
	<polyline fill="#1B181B" points="24.434,103.959 24.089,106.013 24.513,105.772 24.496,107.282 25.036,107.161 24.862,104.972 
		24.509,105.207 	"/>
	<polyline fill="#1B181B" points="25.256,103.165 25.985,105.116 26.23,104.697 26.974,106.013 27.38,105.635 26.133,103.824 
		25.946,104.209 	"/>
	<polyline fill="#1B181B" points="25.569,102.065 27.177,103.388 27.18,102.901 28.479,103.669 28.646,103.141 26.659,102.198 
		26.689,102.624 	"/>
	<polyline fill="#1B181B" points="25.291,100.958 27.342,101.298 27.104,100.876 28.613,100.889 28.492,100.348 26.301,100.527 
		26.538,100.879 	"/>
	<polyline fill="#1B181B" points="24.494,100.138 26.441,99.404 26.024,99.157 27.337,98.416 26.961,98.007 25.154,99.261 
		25.535,99.445 	"/>
	<polyline fill="#1B181B" points="23.395,99.827 24.714,98.219 24.228,98.215 24.992,96.912 24.464,96.749 23.525,98.735 
		23.949,98.706 	"/>
	<path fill="#FFF200" d="M23.36,102.286c0.15,0,0.275-0.122,0.275-0.274s-0.125-0.275-0.275-0.275s-0.274,0.123-0.274,0.275
		S23.21,102.286,23.36,102.286"/>
</g>
</svg>
