<?xml version="1.0" encoding="utf-8"?>
<!-- Generator: Adobe Illustrator 16.0.0, SVG Export Plug-In . SVG Version: 6.00 Build 0)  -->
<!DOCTYPE svg PUBLIC "-//W3C//DTD SVG 1.1//EN" "http://www.w3.org/Graphics/SVG/1.1/DTD/svg11.dtd">
<svg version="1.1" id="Layer_1" xmlns="http://www.w3.org/2000/svg" xmlns:xlink="http://www.w3.org/1999/xlink" x="0px" y="0px"
	 width="200px" height="200px" viewBox="0 0 200 200" enable-background="new 0 0 200 200" xml:space="preserve">
<g>
	<polygon fill-rule="evenodd" clip-rule="evenodd" fill="#016BB2" points="195,100 194.861,95.726 194.587,91.521 194.104,87.246 
		193.483,83.041 192.588,78.836 191.554,74.699 190.312,70.632 188.934,66.633 187.348,62.704 185.556,58.773 183.626,54.982 
		181.558,51.259 179.281,47.674 176.8,44.158 174.249,40.78 171.492,37.471 168.665,34.368 165.632,31.335 162.46,28.439 
		159.221,25.751 155.841,23.132 152.325,20.719 148.74,18.443 145.019,16.375 141.157,14.376 137.297,12.652 133.368,11.066 
		129.369,9.688 125.232,8.447 121.096,7.413 116.959,6.517 112.753,5.896 108.48,5.413 104.274,5.068 100,5 95.726,5.068 
		91.451,5.413 87.247,5.896 83.041,6.517 78.835,7.413 74.699,8.447 70.632,9.688 66.632,11.066 62.634,12.652 58.773,14.376 
		54.981,16.375 51.26,18.443 47.675,20.719 44.159,23.132 40.779,25.751 37.471,28.439 34.3,31.335 31.335,34.368 28.44,37.471 
		25.682,40.78 23.131,44.158 20.718,47.674 18.443,51.259 16.306,54.982 14.376,58.773 12.652,62.704 11.067,66.633 9.619,70.632 
		8.378,74.699 7.344,78.836 6.517,83.041 5.827,87.246 5.345,91.521 5.069,95.726 5,100 5.069,104.275 5.345,108.479 5.827,112.754 
		6.517,116.959 7.344,121.164 8.378,125.301 9.619,129.367 11.067,133.367 12.652,137.297 14.376,141.227 16.306,145.018 
		18.443,148.74 20.718,152.326 23.131,155.842 25.682,159.219 28.44,162.529 31.335,165.631 34.3,168.666 37.471,171.561 
		40.779,174.25 44.159,176.867 47.675,179.281 51.26,181.557 54.981,183.625 58.773,185.623 62.634,187.348 66.632,188.934 
		70.632,190.312 74.699,191.553 78.835,192.586 83.041,193.484 87.247,194.104 91.451,194.586 95.726,194.932 100,195 
		104.274,194.932 108.48,194.586 112.753,194.104 116.959,193.484 121.096,192.586 125.232,191.553 129.369,190.312 
		133.368,188.934 137.297,187.348 141.157,185.623 145.019,183.625 148.74,181.557 152.325,179.281 155.841,176.867 159.221,174.25 
		162.46,171.561 165.632,168.666 168.665,165.631 171.492,162.529 174.249,159.219 176.8,155.842 179.281,152.326 181.558,148.74 
		183.626,145.018 185.556,141.227 187.348,137.297 188.934,133.367 190.312,129.367 191.554,125.301 192.588,121.164 
		193.483,116.959 194.104,112.754 194.587,108.479 194.861,104.275 195,100 	"/>
	<path fill-rule="evenodd" clip-rule="evenodd" fill="#FFFFFF" d="M144.493,133.268l-0.542,0.137h-0.541h-0.607l-0.609-0.07
		l-0.541-0.135l-0.405,1.963l-0.474,1.959l-0.54,1.963l-0.678,1.959l-0.675,1.895l-0.744,1.893l-0.812,1.826l-0.879,1.824
		l-0.946,1.828l-1.014,1.758l-1.083,1.689l-1.15,1.758l-1.147,1.625l-1.285,1.553l-1.285,1.557l-1.352,1.555l-1.354,1.42
		l-1.486,1.42l-1.556,1.352l-1.014,0.879l-1.014,0.812l-1.15,0.744l-1.15,0.742l-1.216,0.609l-1.217,0.607l-1.218,0.543
		l-1.285,0.404l-1.284,0.406l-1.285,0.338l-1.352,0.271l-1.895,0.338l-1.893,0.203l-1.893,0.203l-1.962,0.066l-1.893,0.068
		l-1.962-0.068l-1.893-0.066l-1.895-0.203l-1.893-0.203l-1.961-0.338l-1.284-0.271l-1.354-0.338l-1.217-0.406l-1.284-0.404
		l-1.285-0.543l-1.217-0.607l-1.149-0.609l-1.15-0.742l-1.081-0.744l-1.15-0.812l-1.014-0.879l-1.488-1.352l-1.486-1.42l-1.353-1.42
		l-1.353-1.555l-1.353-1.557l-1.217-1.553l-1.217-1.625l-1.15-1.758l-1.014-1.689l-1.015-1.758l-0.946-1.828l-0.88-1.824
		l-0.812-1.826l-0.742-1.893l-0.745-1.895l-0.608-1.959l-0.541-1.963l-0.474-1.959l-0.405-1.963l-0.608,0.135l-0.54,0.07h-0.542
		h-0.608l-0.541-0.137l-0.811-0.203l-0.745-0.27l-0.744-0.34l-0.742-0.404l-0.677-0.404l-0.609-0.477l-0.878-0.811l-0.88-0.877
		l-0.743-0.949l-0.744-0.945l-1.014-1.557l-0.947-1.486l-0.811-1.557l-0.812-1.621l-0.745-1.689l-0.676-1.623l-0.676-1.691
		l-0.541-1.758l-0.474-1.691l-0.405-1.758l-0.338-1.758l-0.271-1.758l-0.202-1.824l-0.068-1.084v-1.15l0.136-1.148l0.135-1.082
		l0.271-1.08l0.338-1.083l0.27-0.676l0.339-0.609l0.405-0.54l0.474-0.541l0.473-0.541l0.541-0.406l0.609-0.337l0.743-0.406
		l0.812-0.271l0.744-0.202l0.879-0.136l0.812-0.068h0.812l-0.203-1.893l-0.136-1.962l-0.067-1.893v-1.962l0.067-1.893l0.203-1.961
		l0.203-1.894l0.271-1.893l0.337-1.894l0.475-1.893l0.473-1.827l0.608-1.893l0.608-1.826l0.743-1.758l0.744-1.758l0.812-1.758
		l0.946-1.69l0.946-1.69l1.016-1.623l1.081-1.623l1.15-1.555l1.217-1.488l1.217-1.42l1.353-1.419l1.353-1.354l1.42-1.284
		l1.487-1.284l1.488-1.218l1.555-1.15l1.555-1.08l1.691-1.016l1.623-1.014l1.69-0.879l1.758-0.812l1.758-0.745l1.825-0.743
		l1.826-0.608l1.825-0.608l1.826-0.473l1.893-0.406l1.895-0.338l1.96-0.339l1.894-0.202l1.894-0.136l1.961-0.067h1.894l1.96,0.067
		l1.895,0.136l1.893,0.202l1.962,0.339l1.893,0.338l1.825,0.406l1.895,0.473l1.825,0.608l1.825,0.608l1.758,0.743l1.827,0.745
		l1.69,0.812l1.688,0.879l1.69,1.014l1.624,1.016l1.623,1.08l1.554,1.15l1.489,1.218l1.486,1.284l1.421,1.284l1.353,1.354
		l1.285,1.419l1.284,1.42l1.148,1.488l1.218,1.555l1.016,1.623l1.08,1.623l0.946,1.69l0.88,1.69l0.879,1.758l0.812,1.758
		l0.609,1.758l0.675,1.826l0.61,1.893l0.473,1.827l0.406,1.893l0.405,1.894l0.27,1.893l0.204,1.894l0.202,1.961l0.066,1.893v1.962
		l-0.066,1.893l-0.135,1.962l-0.271,1.893h0.879l0.812,0.068l0.812,0.136l0.812,0.202l0.812,0.271l0.744,0.406l0.54,0.337
		l0.607,0.406l0.474,0.541l0.474,0.541l0.338,0.54l0.406,0.609l0.203,0.676l0.406,1.083l0.202,1.08l0.204,1.082l0.134,1.148v1.15
		l-0.067,1.084l-0.203,1.824l-0.27,1.758l-0.339,1.758l-0.405,1.758l-0.474,1.691l-0.609,1.758l-0.54,1.691l-0.678,1.623
		l-0.81,1.689l-0.812,1.621l-0.879,1.557l-0.879,1.486l-1.016,1.557l-0.742,0.945l-0.812,0.949l-0.812,0.877l-0.88,0.811
		l-0.677,0.477l-0.675,0.404l-0.677,0.404l-0.744,0.34l-0.743,0.27L144.493,133.268L144.493,133.268z M145.305,98.107l0.337-1.826
		l0.339-1.758l0.203-1.826l0.135-1.825l0.135-1.825v-1.826l-0.067-1.826l-0.135-1.825l-0.203-1.825l-0.27-1.826l-0.406-1.826
		l-0.338-1.759l-0.541-1.758l-0.542-1.758l-0.608-1.69l-0.677-1.69l-0.742-1.69l-0.879-1.623l-0.879-1.555l-0.946-1.623
		l-1.016-1.487l-1.081-1.488l-1.083-1.486l-1.217-1.353l-1.218-1.353l-1.283-1.285l-1.354-1.285l-1.353-1.216l-1.486-1.083
		l-1.422-1.081l-1.554-1.016l-1.556-0.946l-1.624-0.946l-1.621-0.812l-1.623-0.744l-1.69-0.742l-1.758-0.61l-1.691-0.54
		l-1.758-0.541l-1.758-0.405l-1.825-0.339l-1.827-0.338l-1.825-0.202l-1.825-0.136l-1.825-0.068h-1.826l-1.826,0.068l-1.825,0.136
		l-1.825,0.202l-1.758,0.338l-1.826,0.339l-1.758,0.405l-1.759,0.541l-1.759,0.54l-1.69,0.61l-1.689,0.742l-1.69,0.744l-1.622,0.812
		l-1.557,0.946l-1.555,0.946l-1.487,1.016l-1.488,1.081l-1.419,1.083l-1.421,1.216l-1.352,1.285l-1.285,1.285l-1.285,1.353
		l-1.149,1.353l-1.149,1.486l-1.015,1.488l-1.014,1.487l-0.946,1.623l-0.879,1.555l-0.812,1.623l-0.812,1.69l-0.677,1.69
		l-0.608,1.69l-0.541,1.758l-0.542,1.758l-0.404,1.759l-0.338,1.826l-0.271,1.826l-0.202,1.825l-0.136,1.825l-0.067,1.826v1.826
		l0.136,1.825l0.135,1.825l0.202,1.826l0.339,1.758l0.339,1.826l0.066,0.405v0.405l-0.066,0.406l-0.136,0.337L54.493,100
		l-0.271,0.406l-0.271,0.271l-0.338,0.202l-0.339,0.203l-0.405,0.135h-0.406H52.06l-0.406-0.066l-0.339-0.137l-0.404-0.202
		l-0.339-0.203l-0.271-0.27l-0.201-0.406l-0.271-0.271l-0.271-0.337l-0.337-0.203l-0.339-0.135l-0.406-0.068h-0.405h-0.406
		l-0.337,0.136l-0.339,0.203l-0.338,0.27l-0.271,0.271l-0.202,0.405l-0.271,0.811l-0.338,0.811l-0.135,0.879l-0.135,0.879v0.879
		v0.879l0.202,1.691l0.338,1.691l0.271,1.758l0.473,1.623l0.475,1.689l0.54,1.623l0.608,1.625l0.744,1.553l0.744,1.557l0.812,1.555
		l0.879,1.42l1.014,1.488l0.609,0.879l0.676,0.744l0.812,0.811l0.879,0.676l0.339,0.203l0.473,0.203l0.406,0.066h0.405l0.474-0.066
		l0.405-0.135l0.406-0.271l0.338-0.27l0.27-0.271l0.339-0.201l0.405-0.137h0.406h0.473l0.406,0.137l0.406,0.135l0.405,0.203
		l0.338,0.27l0.337,0.338l0.271,0.34l0.203,0.473l0.136,0.406l0.135,0.404l0.338,1.961l0.339,1.961l0.473,1.961l0.541,1.895
		l0.608,1.893l0.608,1.895l0.812,1.824l0.811,1.826l0.88,1.758l0.878,1.758l1.082,1.758l1.015,1.623l1.148,1.691l1.218,1.555
		l1.218,1.555l1.352,1.486l1.353,1.422l1.42,1.42l1.488,1.352l0.946,0.744l0.946,0.678l1.015,0.674l1.015,0.607l1.081,0.543
		l1.082,0.473l1.082,0.406l1.149,0.406l1.217,0.27l1.15,0.271l1.893,0.338l1.894,0.201l1.961,0.137l1.961,0.135h1.894l1.96-0.135
		l1.895-0.137l1.893-0.201l1.962-0.338l1.147-0.271l1.15-0.27l1.15-0.406l1.148-0.406l1.083-0.473l1.08-0.543l1.016-0.607
		l1.014-0.674l1.016-0.678l0.879-0.744l1.487-1.352l1.419-1.42l1.353-1.422l1.284-1.486l1.285-1.555l1.217-1.555l1.083-1.691
		l1.148-1.623l0.948-1.758l0.946-1.758l0.946-1.758l0.744-1.826l0.742-1.824l0.678-1.895l0.607-1.893l0.542-1.895l0.474-1.961
		l0.339-1.961l0.336-1.961l0.069-0.404l0.135-0.406l0.27-0.473l0.271-0.34l0.271-0.338l0.406-0.27l0.336-0.203l0.476-0.135
		l0.403-0.137h0.476h0.403l0.339,0.137l0.406,0.201l0.271,0.271l0.339,0.27l0.406,0.271l0.403,0.135l0.406,0.066h0.475l0.404-0.066
		l0.405-0.203l0.406-0.203l0.879-0.676l0.744-0.811l0.744-0.744l0.676-0.879l0.948-1.488l0.879-1.42l0.812-1.555l0.742-1.557
		l0.677-1.553l0.676-1.625l0.542-1.623l0.473-1.689l0.406-1.623l0.406-1.758l0.201-1.691l0.204-1.691l0.067-0.879l-0.067-0.879
		l-0.069-0.879l-0.202-0.879l-0.203-0.811l-0.404-0.811l-0.204-0.405l-0.271-0.271l-0.27-0.27l-0.339-0.203l-0.405-0.136h-0.339
		h-0.406l-0.405,0.068l-0.337,0.135l-0.405,0.203l-0.271,0.337l-0.202,0.271l-0.271,0.406l-0.271,0.27l-0.27,0.203l-0.406,0.202
		l-0.338,0.137l-0.406,0.066h-0.405h-0.406l-0.405-0.135l-0.339-0.203l-0.404-0.202l-0.271-0.271L145.642,100l-0.202-0.339
		l-0.135-0.337l-0.069-0.406v-0.405L145.305,98.107L145.305,98.107z"/>
	<path fill-rule="evenodd" clip-rule="evenodd" fill="#FFFFFF" d="M35.966,88.708c-2.231,3.448-3.043,7.167-2.299,10.818
		l5.409,26.235c0.744,3.584,2.907,6.693,6.356,8.994c4.801,3.109,11.225,4.191,17.716,2.84l-0.339-1.488
		c-6.085,1.285-12.104,0.34-16.565-2.637c-3.043-2.029-5.072-4.801-5.68-7.979l-5.41-26.304c-0.677-3.178,0.067-6.559,2.096-9.602
		c2.908-4.463,8.048-7.709,14.133-8.993l-0.271-1.487C44.621,80.459,39.143,83.975,35.966,88.708L35.966,88.708z"/>
	<polygon fill-rule="evenodd" clip-rule="evenodd" fill="#FFFFFF" points="51.314,80.729 50.91,88.979 46.312,91.21 45.5,94.523 
		53.547,125.965 59.159,130.631 60.24,137.393 57.671,137.393 53.479,137.189 47.867,135.432 44.756,133.268 41.307,129.346 
		39.955,126.236 38.265,117.986 34.072,97.701 34.951,91.616 38.265,86.611 43.675,82.69 48.678,80.729 51.314,80.729 	"/>
	<path fill-rule="evenodd" clip-rule="evenodd" fill="#FFFFFF" d="M45.838,97.836l2.771-2.908l3.314-0.201
		c0,0,2.163-1.758,1.961-2.367c-0.203-0.541-1.353-10.548-1.353-10.548l-3.381,0.405l-6.627,7.979L45.838,97.836L45.838,97.836z"/>
	<path fill-rule="evenodd" clip-rule="evenodd" fill="#FFFFFF" d="M30.488,88.708c-2.299,3.448-3.11,7.167-2.366,10.818
		l5.409,26.235c0.744,3.584,2.975,6.693,6.424,8.994c4.733,3.109,11.225,4.191,17.648,2.84l-0.27-1.488
		c-6.087,1.285-12.104,0.34-16.567-2.637c-3.11-2.029-5.071-4.801-5.748-7.979l-5.409-26.304c-0.676-3.178,0.067-6.559,2.096-9.602
		c2.908-4.463,8.115-7.709,14.2-8.993l-0.338-1.487C39.143,80.459,33.599,83.975,30.488,88.708L30.488,88.708z"/>
	<polygon fill-rule="evenodd" clip-rule="evenodd" fill="#FFFFFF" points="45.838,80.729 45.365,88.979 40.767,91.21 39.955,94.523 
		48.069,125.965 53.682,130.631 54.765,137.393 52.126,137.393 48.002,137.189 42.322,135.432 39.279,133.268 35.763,129.346 
		34.478,126.236 32.72,117.986 28.595,97.701 29.475,91.616 32.72,86.611 38.196,82.69 43.201,80.729 45.838,80.729 	"/>
	<path fill-rule="evenodd" clip-rule="evenodd" fill="#FFFFFF" d="M40.36,97.836l2.705-2.908l3.313-0.201
		c0,0,2.163-1.758,1.962-2.367c-0.137-0.541-1.354-10.548-1.354-10.548l-3.312,0.405l-6.627,7.979L40.36,97.836L40.36,97.836z"/>
	<path fill-rule="evenodd" clip-rule="evenodd" fill="#FFFFFF" d="M154.229,80.594c6.085,1.284,11.225,4.53,14.199,8.993
		c2.029,3.043,2.706,6.424,2.097,9.602l-5.408,26.304c-0.677,3.178-2.639,5.949-5.749,7.979c-4.462,2.977-10.48,3.922-16.565,2.637
		l-0.339,1.488c6.491,1.352,12.915,0.27,17.716-2.84c3.449-2.301,5.612-5.41,6.356-8.994l5.409-26.235
		c0.744-3.651-0.067-7.37-2.299-10.818c-3.177-4.733-8.655-8.249-15.146-9.602L154.229,80.594L154.229,80.594z"/>
	<polygon fill-rule="evenodd" clip-rule="evenodd" fill="#FFFFFF" points="154.297,80.729 154.771,88.979 159.301,91.21 
		160.112,94.523 152.065,125.965 146.453,130.631 145.372,137.393 148.009,137.393 152.133,137.189 157.814,135.432 
		160.857,133.268 164.306,129.346 165.657,126.236 167.349,117.986 171.539,97.701 170.66,91.616 167.349,86.611 161.938,82.69 
		156.936,80.729 154.297,80.729 	"/>
	<path fill-rule="evenodd" clip-rule="evenodd" fill="#FFFFFF" d="M159.774,97.836l-2.771-2.908l-3.314-0.201
		c0,0-2.163-1.758-1.96-2.367c0.202-0.541,1.42-10.548,1.42-10.548l3.312,0.405l6.628,7.979L159.774,97.836L159.774,97.836z"/>
	<path fill-rule="evenodd" clip-rule="evenodd" fill="#FFFFFF" d="M148.415,80.594c10.615,2.164,17.918,10.549,16.296,18.595
		l-5.41,26.304c-1.69,8.047-11.697,12.848-22.314,10.615l-0.269,1.488c11.426,2.367,22.245-2.977,24.072-11.834l5.408-26.235
		c1.825-8.926-6.019-18.054-17.444-20.42L148.415,80.594L148.415,80.594z"/>
	<polygon fill-rule="evenodd" clip-rule="evenodd" fill="#FFFFFF" points="148.482,80.729 148.955,88.979 153.554,91.21 
		154.366,94.523 146.251,125.965 140.639,130.631 139.556,137.393 142.193,137.393 146.318,137.189 151.998,135.432 
		155.041,133.268 158.557,129.346 159.842,126.236 161.6,117.986 165.725,97.701 164.846,91.616 161.6,86.611 156.124,82.69 
		151.119,80.729 148.482,80.729 	"/>
	<path fill-rule="evenodd" clip-rule="evenodd" fill="#FFFFFF" d="M153.96,97.836l-2.706-2.908l-3.38-0.201
		c0,0-2.096-1.758-1.894-2.367c0.136-0.541,1.352-10.548,1.352-10.548l3.314,0.405l6.625,7.979L153.96,97.836L153.96,97.836z"/>
	<polygon fill-rule="evenodd" clip-rule="evenodd" fill="#FFFFFF" points="51.924,85.124 44.282,85.124 44.282,64.365 
		51.924,64.365 51.924,85.124 	"/>
	<polygon fill-rule="evenodd" clip-rule="evenodd" fill="#FFFFFF" points="155.245,85.124 147.604,85.124 147.604,64.365 
		155.245,64.365 155.245,85.124 	"/>
	<path fill-rule="evenodd" clip-rule="evenodd" fill="#FFFFFF" d="M56.792,41.511C43.54,57.536,47.123,80.12,47.258,81.066
		l5.815-0.946c-0.067-0.202-3.313-20.962,8.25-34.891c6.896-8.249,17.716-12.645,32.186-12.915h13.051
		c14.401,0.271,25.221,4.666,32.117,12.915c11.563,13.929,8.318,34.688,8.318,34.891l5.747,0.946
		c0.202-0.946,3.787-23.53-9.533-39.556c-7.98-9.67-20.286-14.741-36.582-15.079H93.441C77.078,26.77,64.771,31.841,56.792,41.511
		L56.792,41.511z"/>
	<polygon fill-rule="evenodd" clip-rule="evenodd" fill="#FFFFFF" points="62.675,130.428 53.073,132.795 42.93,91.21 
		52.601,88.843 62.675,130.428 	"/>
	<polygon fill-rule="evenodd" clip-rule="evenodd" fill="#FFFFFF" points="136.784,131.713 146.386,134.012 156.529,92.495 
		146.859,90.128 136.784,131.713 	"/>
	<path fill-rule="evenodd" clip-rule="evenodd" fill="#FFFFFF" d="M61.12,111.156c0.337,1.354-0.744,2.771-2.367,3.111
		c-1.556,0.338-3.11-0.541-3.381-1.893l-1.623-7.643c-0.271-1.352,0.744-2.771,2.367-3.109c1.622-0.338,3.178,0.541,3.448,1.893
		L61.12,111.156L61.12,111.156z"/>
	<path fill-rule="evenodd" clip-rule="evenodd" fill="#FFFFFF" d="M138.069,111.156c-0.339,1.354,0.744,2.771,2.366,3.111
		c1.556,0.338,3.111-0.541,3.381-1.893l1.623-7.643c0.271-1.352-0.744-2.771-2.367-3.109c-1.622-0.338-3.11,0.541-3.449,1.893
		L138.069,111.156L138.069,111.156z"/>
</g>
</svg>
