<?xml version="1.0" encoding="utf-8"?>
<!-- Generator: Adobe Illustrator 16.0.0, SVG Export Plug-In . SVG Version: 6.00 Build 0)  -->
<!DOCTYPE svg PUBLIC "-//W3C//DTD SVG 1.1//EN" "http://www.w3.org/Graphics/SVG/1.1/DTD/svg11.dtd">
<svg version="1.1" id="Layer_1" xmlns="http://www.w3.org/2000/svg" xmlns:xlink="http://www.w3.org/1999/xlink" x="0px" y="0px"
	 width="200px" height="200px" viewBox="0 0 200 200" enable-background="new 0 0 200 200" xml:space="preserve">
<g>
	<path fill="#FFFFFE" d="M140.461,195c7.776,0,14.077-6.301,14.077-14.071V19.073c0-7.774-6.301-14.073-14.077-14.073H59.535
		c-7.772,0-14.073,6.299-14.073,14.073v161.856c0,7.771,6.301,14.071,14.073,14.071"/>
	<path fill="none" stroke="#1B171A" d="M140.461,195c7.776,0,14.077-6.301,14.077-14.071V19.073c0-7.774-6.301-14.073-14.077-14.073
		H59.535c-7.772,0-14.073,6.299-14.073,14.073v161.856c0,7.771,6.301,14.071,14.073,14.071H140.461z"/>
	<path fill="#FFFFFE" d="M99.616,16.901c1.944,0,3.519-1.579,3.519-3.521c0-1.94-1.574-3.52-3.519-3.52
		c-1.942,0-3.518,1.579-3.518,3.52C96.099,15.322,97.674,16.901,99.616,16.901"/>
	<path fill="none" stroke="#1B171A" stroke-width="0.9635" d="M99.616,16.901c1.944,0,3.519-1.579,3.519-3.521
		c0-1.94-1.574-3.52-3.519-3.52c-1.942,0-3.518,1.579-3.518,3.52C96.099,15.322,97.674,16.901,99.616,16.901z"/>
	<rect x="52.29" y="77.098" fill="#006AB3" width="94.955" height="80.781"/>
	<path fill="#006AB3" d="M56.61,163.894c-0.148-0.751-0.751-1.131-1.488-1.131c-1.267,0-1.805,1.043-1.805,2.151
		c0,1.214,0.538,2.228,1.812,2.228c0.93,0,1.464-0.654,1.533-1.533h0.708c-0.136,1.325-0.962,2.128-2.304,2.128
		c-1.65,0-2.456-1.221-2.456-2.768c0-1.542,0.879-2.803,2.519-2.803c1.108,0,2.022,0.597,2.187,1.728"/>
	<path fill="#006AB3" d="M59.804,163.674c1.222,0,1.871,0.885,1.871,2.018c0,1.123-0.649,2.008-1.871,2.008
		c-1.219,0-1.866-0.885-1.866-2.008C57.938,164.559,58.585,163.674,59.804,163.674 M59.804,167.142c0.665,0,1.199-0.521,1.199-1.45
		c0-0.941-0.534-1.461-1.199-1.461c-0.66,0-1.198,0.52-1.198,1.461C58.605,166.621,59.144,167.142,59.804,167.142"/>
	<path fill="#006AB3" d="M62.42,163.762h0.595v0.565h0.015c0.285-0.434,0.714-0.653,1.244-0.653c0.471,0,0.901,0.183,1.058,0.653
		c0.26-0.409,0.716-0.653,1.207-0.653c0.768,0,1.281,0.319,1.281,1.116v2.822h-0.634v-2.527c0-0.476-0.125-0.854-0.744-0.854
		c-0.611,0-1.007,0.386-1.007,0.982v2.399h-0.634v-2.527c0-0.499-0.154-0.854-0.719-0.854c-0.753,0-1.029,0.69-1.029,0.982v2.399
		H62.42"/>
	<path fill="#006AB3" d="M68.773,163.762h0.593v0.565h0.017c0.284-0.434,0.714-0.653,1.244-0.653c0.469,0,0.899,0.183,1.056,0.653
		c0.262-0.409,0.717-0.653,1.206-0.653c0.771,0,1.282,0.319,1.282,1.116v2.822h-0.635v-2.527c0-0.476-0.124-0.854-0.741-0.854
		c-0.613,0-1.009,0.386-1.009,0.982v2.399h-0.63v-2.527c0-0.499-0.156-0.854-0.723-0.854c-0.753,0-1.028,0.69-1.028,0.982v2.399
		h-0.632"/>
	<path fill="#006AB3" d="M78.411,166.392c-0.172,0.847-0.785,1.308-1.649,1.308c-1.227,0-1.809-0.849-1.844-2.023
		c0-1.155,0.758-2.002,1.809-2.002c1.362,0,1.78,1.272,1.742,2.202h-2.881c-0.022,0.67,0.355,1.266,1.198,1.266
		c0.52,0,0.887-0.252,0.998-0.75 M77.797,165.316c-0.028-0.601-0.483-1.086-1.108-1.086c-0.664,0-1.06,0.497-1.101,1.086H77.797z"/>
	<path fill="#006AB3" d="M79.124,163.762h0.595v0.61h0.017c0.268-0.479,0.698-0.698,1.252-0.698c1.012,0,1.324,0.577,1.324,1.403
		v2.535H81.68v-2.608c0-0.469-0.298-0.773-0.783-0.773c-0.768,0-1.139,0.512-1.139,1.206v2.176h-0.634"/>
	<path fill="#006AB3" d="M84.143,163.762h0.769v0.56h-0.769v2.39c0,0.288,0.081,0.343,0.477,0.343h0.292v0.559h-0.484
		c-0.654,0-0.916-0.136-0.916-0.843v-2.448h-0.657v-0.56h0.657v-1.155h0.632"/>
	<path fill="#006AB3" d="M85.999,166.398c0.022,0.566,0.514,0.743,1.032,0.743c0.396,0,0.934-0.088,0.934-0.571
		c0-0.491-0.626-0.574-1.261-0.718c-0.623-0.141-1.257-0.35-1.257-1.087c0-0.772,0.768-1.092,1.436-1.092
		c0.851,0,1.528,0.266,1.579,1.206H87.83c-0.044-0.493-0.479-0.649-0.893-0.649c-0.382,0-0.82,0.104-0.82,0.493
		c0,0.452,0.67,0.525,1.259,0.668c0.635,0.142,1.257,0.351,1.257,1.096c0,0.914-0.854,1.212-1.637,1.212
		c-0.864,0-1.592-0.351-1.63-1.301"/>
	<path fill="#006AB3" d="M54.316,172.224H55.1l2.077,5.317h-0.78l-0.582-1.601h-2.249l-0.597,1.601h-0.729 M53.786,175.344h1.805
		l-0.887-2.48h-0.015L53.786,175.344z"/>
	<path fill="#006AB3" d="M60.779,177.541h-0.593v-0.609h-0.016c-0.271,0.477-0.7,0.7-1.253,0.7c-1.011,0-1.323-0.583-1.323-1.409
		v-2.531h0.633v2.606c0,0.47,0.295,0.775,0.78,0.775c0.769,0,1.141-0.516,1.141-1.207v-2.175h0.631"/>
	<path fill="#006AB3" d="M62.612,173.691h0.77v0.557h-0.77v2.392c0,0.292,0.082,0.343,0.478,0.343h0.292v0.559h-0.485
		c-0.655,0-0.917-0.133-0.917-0.843v-2.45h-0.656v-0.557h0.656v-1.156h0.633"/>
	<path fill="#006AB3" d="M64.082,172.224h0.63v2.034h0.018c0.207-0.461,0.752-0.657,1.214-0.657c1.01,0,1.322,0.584,1.322,1.408
		v2.532h-0.632v-2.607c0-0.469-0.296-0.774-0.781-0.774c-0.766,0-1.141,0.517-1.141,1.207v2.175h-0.63"/>
	<path fill="#006AB3" d="M69.882,173.601c1.222,0,1.871,0.887,1.871,2.02c0,1.123-0.649,2.012-1.871,2.012s-1.871-0.889-1.871-2.012
		C68.011,174.487,68.66,173.601,69.882,173.601 M69.882,177.073c0.664,0,1.2-0.523,1.2-1.453c0-0.938-0.536-1.461-1.2-1.461
		c-0.662,0-1.199,0.523-1.199,1.461C68.683,176.55,69.22,177.073,69.882,177.073"/>
	<path fill="#006AB3" d="M72.475,173.691h0.595v0.812h0.016c0.303-0.621,0.73-0.926,1.413-0.903v0.672
		c-1.018,0-1.391,0.58-1.391,1.555v1.714h-0.633"/>
	<path fill="#006AB3" d="M75.646,172.999h-0.633v-0.775h0.633V172.999z M75.014,173.691h0.633v3.85h-0.633V173.691z"/>
	<path fill="#006AB3" d="M77.017,176.326c0.022,0.566,0.516,0.747,1.036,0.747c0.392,0,0.93-0.091,0.93-0.574
		c0-0.493-0.626-0.574-1.261-0.713c-0.623-0.144-1.255-0.353-1.255-1.09c0-0.775,0.764-1.096,1.436-1.096
		c0.849,0,1.528,0.271,1.577,1.206h-0.632c-0.044-0.491-0.475-0.647-0.895-0.647c-0.378,0-0.816,0.105-0.816,0.491
		c0,0.454,0.668,0.529,1.259,0.672c0.633,0.142,1.255,0.349,1.255,1.094c0,0.919-0.854,1.216-1.635,1.216
		c-0.866,0-1.596-0.352-1.632-1.306"/>
	<path fill="#006AB3" d="M83.639,176.32c-0.171,0.851-0.785,1.312-1.646,1.312c-1.231,0-1.811-0.851-1.847-2.027
		c0-1.155,0.759-2.004,1.809-2.004c1.362,0,1.778,1.274,1.743,2.206h-2.882c-0.022,0.67,0.356,1.267,1.199,1.267
		c0.52,0,0.887-0.255,0.995-0.753 M83.025,175.247c-0.028-0.604-0.484-1.088-1.108-1.088c-0.665,0-1.056,0.501-1.102,1.088H83.025z"
		/>
	<path fill="#006AB3" d="M87.794,177.541H87.16v-0.521h-0.014c-0.209,0.423-0.7,0.611-1.23,0.611c-1.184,0-1.773-0.941-1.773-2.027
		c0-1.085,0.582-2.004,1.758-2.004c0.394,0,0.96,0.148,1.246,0.604h0.014v-1.981h0.634 M86.006,177.073
		c0.849,0,1.175-0.732,1.175-1.453c0-0.761-0.341-1.461-1.212-1.461c-0.866,0-1.154,0.738-1.154,1.489
		C84.814,176.371,85.186,177.073,86.006,177.073"/>
	<path fill="#006AB3" d="M90.861,172.224h0.635v1.988h0.015c0.207-0.423,0.7-0.611,1.227-0.611c1.186,0,1.771,0.939,1.771,2.027
		c0,1.086-0.58,2.004-1.756,2.004c-0.394,0-0.96-0.148-1.242-0.606h-0.015v0.516h-0.635 M92.647,174.159
		c-0.847,0-1.175,0.73-1.175,1.453c0,0.759,0.343,1.461,1.214,1.461c0.864,0,1.154-0.74,1.154-1.491
		C93.841,174.859,93.466,174.159,92.647,174.159"/>
	<path fill="#006AB3" d="M96.767,178.058c-0.29,0.748-0.549,1.027-1.116,1.027c-0.148,0-0.297-0.018-0.441-0.068v-0.581
		c0.122,0.035,0.246,0.09,0.374,0.09c0.262,0,0.403-0.128,0.52-0.352l0.264-0.655l-1.528-3.827h0.713l1.126,3.152h0.017l1.08-3.152
		h0.668"/>
	<path fill="#006AB3" d="M52.873,182.152h1.823c1.64,0,2.554,0.82,2.554,2.533c0,1.782-0.78,2.785-2.554,2.785h-1.823
		 M53.581,186.878h1.174c0.483,0,1.79-0.138,1.79-2.095c0-1.267-0.471-2.034-1.773-2.034h-1.19V186.878z"/>
	<path fill="#006AB3" d="M61.421,187.455c-0.111,0.07-0.254,0.105-0.454,0.105c-0.327,0-0.536-0.179-0.536-0.595
		c-0.35,0.408-0.818,0.595-1.356,0.595c-0.698,0-1.274-0.314-1.274-1.078c0-0.873,0.649-1.058,1.307-1.186
		c0.697-0.136,1.296-0.091,1.296-0.566c0-0.552-0.455-0.642-0.856-0.642c-0.538,0-0.933,0.165-0.961,0.73H57.95
		c0.038-0.953,0.775-1.288,1.63-1.288c0.694,0,1.445,0.156,1.445,1.058v1.98c0,0.301,0,0.433,0.203,0.433
		c0.053,0,0.109-0.008,0.192-0.036 M60.396,185.481c-0.247,0.181-0.723,0.188-1.15,0.264c-0.414,0.075-0.771,0.222-0.771,0.69
		c0,0.418,0.357,0.566,0.743,0.566c0.834,0,1.179-0.52,1.179-0.871V185.481z"/>
	<path fill="#006AB3" d="M62.889,183.62h0.766v0.559h-0.766v2.391c0,0.291,0.083,0.342,0.478,0.342h0.288v0.56h-0.483
		c-0.655,0-0.915-0.134-0.915-0.84v-2.452h-0.654v-0.559h0.654v-1.151h0.633"/>
	<path fill="#006AB3" d="M67.641,186.249c-0.172,0.849-0.781,1.312-1.646,1.312c-1.228,0-1.809-0.849-1.849-2.026
		c0-1.152,0.763-2.003,1.812-2.003c1.362,0,1.78,1.272,1.743,2.204h-2.884c-0.024,0.672,0.357,1.267,1.199,1.267
		c0.521,0,0.886-0.254,0.999-0.753 M67.029,185.179c-0.028-0.604-0.486-1.09-1.11-1.09c-0.661,0-1.058,0.5-1.102,1.09H67.029z"/>
	<path fill="none" stroke="#006AB3" stroke-width="0.3854" d="M69.198,187.465h78.047 M99.458,177.536h47.787 M89.062,167.604
		h58.183"/>
	<polyline fill="#FFFFFE" points="83.381,80.296 83.381,86.366 83.422,86.366 87.286,80.296 90.598,80.296 86.48,86.79 
		91.064,95.45 87.626,95.45 84.506,89.232 83.381,90.951 83.381,95.45 80.324,95.45 80.324,80.296 	"/>
	<path fill="#FFFFFE" d="M94.142,90.188V91.1c0,1.338,0.359,2.653,1.443,2.653c0.977,0,1.38-0.741,1.549-2.144h2.633
		c-0.105,2.651-1.38,4.141-4.141,4.141c-4.243,0-4.414-3.271-4.414-6.112c0-3.059,0.596-5.904,4.542-5.904
		c3.418,0,4.182,2.294,4.182,5.795v0.66 M97.134,88.448c-0.063-1.743-0.274-2.72-1.484-2.72c-1.167,0-1.508,1.21-1.508,2.271v0.448
		H97.134z"/>
	<path fill="#FFFFFE" d="M103.967,90.188V91.1c0,1.338,0.363,2.653,1.443,2.653c0.977,0,1.38-0.741,1.553-2.144h2.629
		c-0.104,2.651-1.377,4.141-4.136,4.141c-4.246,0-4.415-3.271-4.415-6.112c0-3.059,0.593-5.904,4.539-5.904
		c3.419,0,4.182,2.294,4.182,5.795v0.66 M106.963,88.448c-0.063-1.743-0.276-2.72-1.486-2.72c-1.167,0-1.51,1.21-1.51,2.271v0.448
		H106.963z"/>
	<path fill="#FFFFFE" d="M111.291,84.031h2.801v1.21h0.045c0.637-1.06,1.443-1.508,2.59-1.508c2.397,0,3.502,1.762,3.502,6.008
		c0,4.247-1.104,6.009-3.502,6.009c-1.106,0-1.847-0.448-2.466-1.361h-0.039v4.799h-2.931 M115.769,93.499
		c1.276,0,1.528-1.274,1.528-3.758c0-2.484-0.252-3.757-1.528-3.757c-1.293,0-1.547,1.272-1.547,3.757
		C114.222,92.225,114.476,93.499,115.769,93.499"/>
	<path fill="#FFFFFE" d="M91.648,99.858c4.584,0,5.158,3.271,5.158,7.875c0,4.605-0.574,7.874-5.158,7.874
		c-4.585,0-5.158-3.269-5.158-7.874C86.49,103.129,87.063,99.858,91.648,99.858 M91.648,113.358c1.803,0,2.102-1.549,2.102-5.625
		c0-4.054-0.299-5.625-2.102-5.625c-1.807,0-2.101,1.571-2.101,5.625C89.548,111.81,89.842,113.358,91.648,113.358"/>
	<path fill="#FFFFFE" d="M104.381,113.976h-0.039c-0.617,1.124-1.677,1.632-2.908,1.632c-1.825,0-2.909-0.995-2.909-3.246v-8.471
		h2.931v7.876c0,1.148,0.382,1.592,1.251,1.592c0.997,0,1.551-0.617,1.551-1.887v-7.581h2.927v11.42h-2.803"/>
	<path fill="#FFFFFE" d="M109.774,100.622h2.931v3.269h1.695v1.995h-1.695v6.179c0,0.89,0.188,1.253,1.039,1.253
		c0.232,0,0.466-0.022,0.656-0.045v2.038c-0.636,0.063-1.229,0.128-1.91,0.128c-2.29,0-2.716-0.7-2.716-3.015v-6.538h-1.484v-1.995
		h1.484"/>
	<polyline fill="#FFFFFE" points="64.571,119.36 67.598,119.36 69.041,126.491 69.07,126.491 70.529,119.36 73.54,119.36 
		73.54,129.462 71.676,129.462 71.676,121.395 71.647,121.395 69.848,129.462 68.266,129.462 66.466,121.395 66.439,121.395 
		66.439,129.462 64.571,129.462 	"/>
	<path fill="#FFFFFE" d="M74.929,124.184v-0.183c0-1.754,1.203-2.351,2.675-2.351c2.322,0,2.759,0.962,2.759,2.336v4.003
		c0,0.707,0.043,1.032,0.239,1.473h-1.865c-0.13-0.238-0.185-0.538-0.241-0.792h-0.028c-0.453,0.792-1.005,0.99-1.938,0.99
		c-1.358,0-1.84-1.159-1.84-2.18c0-1.43,0.581-2.01,1.925-2.377l1.103-0.295c0.582-0.156,0.779-0.384,0.779-0.893
		c0-0.581-0.254-0.935-0.905-0.935c-0.597,0-0.907,0.395-0.907,0.989v0.213 M78.495,125.655c-0.269,0.199-0.595,0.325-0.835,0.382
		c-0.793,0.17-1.104,0.552-1.104,1.23c0,0.582,0.213,1.063,0.736,1.063s1.202-0.342,1.202-1.176V125.655z"/>
	<path fill="#FFFFFE" d="M81.818,119.245h1.956v1.67h-1.956V119.245z M81.818,121.85h1.956v7.612h-1.956V121.85z"/>
	<path fill="#FFFFFE" d="M85.146,121.85h1.866v0.891h0.028c0.412-0.749,1.118-1.09,1.94-1.09c1.216,0,1.938,0.666,1.938,2.164v5.647
		h-1.955v-5.25c0-0.763-0.255-1.062-0.832-1.062c-0.666,0-1.035,0.41-1.035,1.261v5.051h-1.951"/>
	<path fill="#FFFFFE" d="M92.644,119.671h1.955v2.179h1.131v1.329h-1.131v4.119c0,0.593,0.126,0.834,0.69,0.834
		c0.158,0,0.314-0.015,0.44-0.026v1.356c-0.425,0.042-0.822,0.087-1.271,0.087c-1.528,0-1.814-0.471-1.814-2.01v-4.36h-0.988v-1.329
		h0.988"/>
	<path fill="#FFFFFE" d="M98.078,125.952v0.61c0,0.892,0.241,1.769,0.964,1.769c0.651,0,0.917-0.496,1.033-1.43h1.754
		c-0.071,1.769-0.92,2.759-2.761,2.759c-2.828,0-2.941-2.18-2.941-4.076c0-2.038,0.396-3.934,3.026-3.934
		c2.278,0,2.789,1.528,2.789,3.863v0.438 M100.075,124.791c-0.045-1.159-0.185-1.81-0.993-1.81c-0.775,0-1.004,0.805-1.004,1.515
		v0.295H100.075z"/>
	<path fill="#FFFFFE" d="M102.962,121.85h1.867v0.891h0.026c0.41-0.749,1.118-1.09,1.938-1.09c1.22,0,1.94,0.666,1.94,2.164v5.647
		h-1.954v-5.25c0-0.763-0.254-1.062-0.833-1.062c-0.665,0-1.033,0.41-1.033,1.261v5.051h-1.952"/>
	<path fill="#FFFFFE" d="M110.023,124.184v-0.183c0-1.754,1.202-2.351,2.674-2.351c2.32,0,2.757,0.962,2.757,2.336v4.003
		c0,0.707,0.045,1.032,0.241,1.473h-1.867c-0.128-0.238-0.183-0.538-0.24-0.792h-0.028c-0.452,0.792-1.005,0.99-1.938,0.99
		c-1.359,0-1.839-1.159-1.839-2.18c0-1.43,0.579-2.01,1.923-2.377l1.104-0.295c0.581-0.156,0.779-0.384,0.779-0.893
		c0-0.581-0.255-0.935-0.905-0.935c-0.597,0-0.905,0.395-0.905,0.989v0.213 M113.588,125.655c-0.268,0.199-0.594,0.325-0.834,0.382
		c-0.793,0.17-1.104,0.552-1.104,1.23c0,0.582,0.212,1.063,0.735,1.063c0.525,0,1.203-0.342,1.203-1.176V125.655z"/>
	<path fill="#FFFFFE" d="M116.843,121.85h1.867v0.891h0.026c0.41-0.749,1.12-1.09,1.94-1.09c1.218,0,1.94,0.666,1.94,2.164v5.647
		h-1.956v-5.25c0-0.763-0.252-1.062-0.833-1.062c-0.666,0-1.033,0.41-1.033,1.261v5.051h-1.952"/>
	<path fill="#FFFFFE" d="M127.581,124.594c0-0.735-0.139-1.528-0.877-1.528c-0.963,0-1.116,0.851-1.116,2.603
		c0,1.882,0.17,2.663,1.047,2.663c0.651,0,0.946-0.551,0.946-1.786h1.869c0,1.997-0.836,3.115-2.9,3.115
		c-1.955,0-2.917-0.948-2.917-4.005c0-3.128,1.287-4.005,3.087-4.005c1.797,0,2.73,1.148,2.73,2.943"/>
	<path fill="#FFFFFE" d="M132.14,125.952v0.61c0,0.892,0.24,1.769,0.961,1.769c0.649,0,0.921-0.496,1.033-1.43h1.756
		c-0.071,1.769-0.922,2.759-2.763,2.759c-2.828,0-2.941-2.18-2.941-4.076c0-2.038,0.397-3.934,3.03-3.934
		c2.277,0,2.785,1.528,2.785,3.863v0.438 M134.134,124.791c-0.043-1.159-0.183-1.81-0.989-1.81c-0.779,0-1.005,0.805-1.005,1.515
		v0.295H134.134z"/>
	<path fill="#FFFFFE" d="M74.045,133.642h1.868v1.017h0.026c0.399-0.735,0.95-1.216,1.756-1.216c0.113,0,0.241,0.014,0.354,0.03
		v1.867c-0.198-0.014-0.413-0.03-0.608-0.03c-0.682,0-1.443,0.354-1.443,1.376v4.567h-1.953"/>
	<path fill="#FFFFFE" d="M80.428,137.746v0.606c0,0.892,0.239,1.769,0.962,1.769c0.649,0,0.92-0.494,1.033-1.428h1.754
		c-0.069,1.769-0.922,2.759-2.761,2.759c-2.83,0-2.941-2.178-2.941-4.076c0-2.036,0.396-3.934,3.026-3.934
		c2.28,0,2.787,1.528,2.787,3.863v0.44 M82.423,136.583c-0.045-1.161-0.185-1.808-0.991-1.808c-0.777,0-1.004,0.805-1.004,1.513
		v0.295H82.423z"/>
	<path fill="#FFFFFE" d="M85.31,133.642h1.867v0.808h0.026c0.427-0.709,0.963-1.007,1.729-1.007c1.598,0,2.333,1.175,2.333,4.005
		s-0.735,4.005-2.333,4.005c-0.736,0-1.232-0.298-1.644-0.905H87.26v3.199h-1.95 M88.295,139.952c0.849,0,1.02-0.849,1.02-2.505
		s-0.171-2.505-1.02-2.505c-0.864,0-1.035,0.849-1.035,2.505S87.431,139.952,88.295,139.952"/>
	<path fill="#FFFFFE" d="M92.371,135.978v-0.187c0-1.752,1.202-2.349,2.674-2.349c2.32,0,2.757,0.962,2.757,2.334v4.005
		c0,0.707,0.045,1.033,0.241,1.472h-1.869c-0.124-0.237-0.181-0.535-0.238-0.791h-0.027c-0.455,0.791-1.006,0.99-1.939,0.99
		c-1.357,0-1.839-1.159-1.839-2.178c0-1.432,0.579-2.01,1.925-2.381l1.104-0.293c0.579-0.156,0.777-0.382,0.777-0.895
		c0-0.579-0.255-0.931-0.905-0.931c-0.593,0-0.905,0.395-0.905,0.987v0.215 M95.936,137.447c-0.268,0.199-0.594,0.325-0.834,0.382
		c-0.793,0.17-1.104,0.554-1.104,1.231c0,0.579,0.212,1.061,0.733,1.061c0.527,0,1.205-0.34,1.205-1.172V137.447z"/>
	<path fill="#FFFFFE" d="M99.261,131.035h1.953v1.672h-1.953V131.035z M99.261,133.642h1.953v7.611h-1.953V133.642z"/>
	<path fill="#FFFFFE" d="M102.586,133.642h1.867v1.017h0.029c0.397-0.735,0.949-1.216,1.754-1.216c0.115,0,0.241,0.014,0.354,0.03
		v1.867c-0.2-0.014-0.41-0.03-0.61-0.03c-0.678,0-1.443,0.354-1.443,1.376v4.567h-1.951"/>
	<path fill="#FFFFFE" d="M108.729,138.763v0.256c0,0.664,0.354,1.103,1.016,1.103c0.597,0,0.992-0.295,0.992-0.905
		c0-0.496-0.323-0.723-0.708-0.863l-1.371-0.495c-1.077-0.382-1.63-1.048-1.63-2.121c0-1.261,0.792-2.294,2.802-2.294
		c1.77,0,2.606,0.793,2.606,2.164v0.312h-1.756c0-0.762-0.226-1.144-0.861-1.144c-0.495,0-0.921,0.28-0.921,0.818
		c0,0.369,0.198,0.68,0.847,0.89l1.177,0.397c1.229,0.41,1.685,1.033,1.685,2.18c0,1.6-1.189,2.392-2.831,2.392
		c-2.194,0-2.802-0.964-2.802-2.418v-0.271"/>
	<path fill="#FFFFFE" d="M117.048,131.035H119v1.672h-1.952V131.035z M117.048,133.642H119v7.611h-1.952V133.642z"/>
	<path fill="#FFFFFE" d="M120.374,133.642h1.866v0.893h0.026c0.41-0.753,1.12-1.092,1.938-1.092c1.22,0,1.942,0.664,1.942,2.164
		v5.646h-1.953v-5.249c0-0.763-0.255-1.062-0.836-1.062c-0.666,0-1.033,0.41-1.033,1.261v5.05h-1.951"/>
	<path fill="#FFFFFE" d="M76.006,145.435h1.864v0.807h0.03c0.426-0.707,0.964-1.007,1.728-1.007c1.598,0,2.332,1.177,2.332,4.005
		c0,2.83-0.734,4.007-2.332,4.007c-0.735,0-1.232-0.3-1.643-0.907h-0.03v3.197h-1.949 M78.988,151.744
		c0.851,0,1.022-0.849,1.022-2.505s-0.172-2.503-1.022-2.503c-0.86,0-1.033,0.847-1.033,2.503S78.128,151.744,78.988,151.744"/>
	<path fill="#FFFFFE" d="M83.08,145.435h1.866v1.016h0.03c0.396-0.735,0.948-1.216,1.754-1.216c0.113,0,0.241,0.014,0.354,0.028
		v1.869c-0.197-0.014-0.41-0.03-0.609-0.03c-0.678,0-1.443,0.355-1.443,1.374v4.569H83.08"/>
	<path fill="#FFFFFE" d="M90.538,145.234c2.347-0.041,2.997,1.359,2.997,4.005c0,2.603-0.762,4.007-2.997,4.007
		c-2.349,0.039-3-1.36-3-4.007C87.538,146.637,88.302,145.234,90.538,145.234 M90.538,151.913c0.792,0,1.046-0.776,1.046-2.674
		c0-1.896-0.254-2.672-1.046-2.672c-0.962,0-1.049,1.117-1.049,2.672C89.489,150.796,89.576,151.913,90.538,151.913"/>
	<path fill="#FFFFFE" d="M100.286,145.435v7.229c0,2.011-0.892,2.987-3.169,2.987c-1.656,0-2.59-0.736-2.59-2.04h1.869
		c0,0.258,0.11,0.453,0.297,0.581c0.183,0.126,0.41,0.211,0.651,0.211c0.792,0,1.074-0.595,1.074-1.372v-1.003h-0.028
		c-0.395,0.566-1.007,0.932-1.628,0.932c-1.556,0-2.333-1.062-2.333-3.849c0-1.782,0.269-3.877,2.388-3.877
		c0.54,0,1.205,0.254,1.573,1.047h0.028v-0.847 M97.357,151.462c0.821,0,1.062-0.891,1.062-2.182c0-1.854-0.24-2.544-1.02-2.544
		c-0.862,0-1.019,0.69-1.019,2.744C96.381,150.526,96.537,151.462,97.357,151.462"/>
	<path fill="#FFFFFE" d="M101.66,145.435h1.868v1.016h0.028c0.396-0.735,0.947-1.216,1.754-1.216c0.111,0,0.241,0.014,0.353,0.028
		v1.869c-0.196-0.014-0.411-0.03-0.606-0.03c-0.682,0-1.443,0.355-1.443,1.374v4.569h-1.953"/>
	<path fill="#FFFFFE" d="M108.041,149.538v0.606c0,0.892,0.241,1.769,0.962,1.769c0.651,0,0.919-0.494,1.033-1.43h1.756
		c-0.071,1.769-0.922,2.763-2.763,2.763c-2.826,0-2.941-2.18-2.941-4.078c0-2.036,0.397-3.934,3.028-3.934
		c2.278,0,2.789,1.528,2.789,3.864v0.439 M110.036,148.376c-0.043-1.16-0.183-1.809-0.991-1.809c-0.777,0-1.004,0.805-1.004,1.511
		v0.298H110.036z"/>
	<path fill="#FFFFFE" d="M114.354,150.555v0.254c0,0.668,0.354,1.104,1.016,1.104c0.597,0,0.992-0.295,0.992-0.904
		c0-0.495-0.325-0.723-0.708-0.864l-1.371-0.495c-1.077-0.382-1.63-1.048-1.63-2.121c0-1.261,0.792-2.294,2.802-2.294
		c1.77,0,2.606,0.793,2.606,2.164v0.312h-1.756c0-0.764-0.226-1.144-0.863-1.144c-0.495,0-0.919,0.28-0.919,0.818
		c0,0.367,0.196,0.68,0.847,0.89l1.177,0.397c1.229,0.41,1.685,1.035,1.685,2.18c0,1.6-1.189,2.394-2.831,2.394
		c-2.194,0-2.802-0.964-2.802-2.42v-0.271"/>
	<path fill="#FFFFFE" d="M120.635,150.555v0.254c0,0.668,0.353,1.104,1.019,1.104c0.595,0,0.992-0.295,0.992-0.904
		c0-0.495-0.326-0.723-0.708-0.864l-1.374-0.495c-1.074-0.382-1.626-1.048-1.626-2.121c0-1.261,0.793-2.294,2.803-2.294
		c1.767,0,2.603,0.793,2.603,2.164v0.312h-1.754c0-0.764-0.229-1.144-0.866-1.144c-0.494,0-0.918,0.28-0.918,0.818
		c0,0.367,0.197,0.68,0.849,0.89l1.176,0.397c1.229,0.41,1.683,1.035,1.683,2.18c0,1.6-1.189,2.394-2.83,2.394
		c-2.192,0-2.801-0.964-2.801-2.42v-0.271"/>
	<path fill="#006AB3" d="M99.488,19.274c14.457,0,26.172,11.721,26.172,26.177c0,14.457-11.715,26.173-26.172,26.173
		c-14.459,0-26.178-11.716-26.178-26.173C73.311,30.995,85.029,19.274,99.488,19.274"/>
	<path fill="#FFFFFE" d="M94.038,29.034l2.341,22.176c0,0,0.554,2.755,2.848,2.755c2.67,0,3.077-2.704,3.077-2.704l2.435-22.276
		c0,0-0.301-5.371-5.329-5.371C94.042,23.614,94.038,29.034,94.038,29.034"/>
	<path fill="#FFFFFE" d="M99.479,67.455c2.923,0,5.292-2.367,5.292-5.292c0-2.92-2.369-5.29-5.292-5.29s-5.29,2.37-5.29,5.29
		C94.188,65.088,96.556,67.455,99.479,67.455"/>
</g>
</svg>
