<?xml version="1.0" encoding="utf-8"?>
<!-- Generator: Adobe Illustrator 16.0.0, SVG Export Plug-In . SVG Version: 6.00 Build 0)  -->
<!DOCTYPE svg PUBLIC "-//W3C//DTD SVG 1.1//EN" "http://www.w3.org/Graphics/SVG/1.1/DTD/svg11.dtd">
<svg version="1.1" id="Layer_1" xmlns="http://www.w3.org/2000/svg" xmlns:xlink="http://www.w3.org/1999/xlink" x="0px" y="0px"
	 width="200px" height="200px" viewBox="0 0 200 200" enable-background="new 0 0 200 200" xml:space="preserve">
<g>
	<path fill-rule="evenodd" clip-rule="evenodd" fill="#016BB2" d="M100.035,195C152.457,195,195,152.465,195,100
		C195,47.536,152.457,5,100.035,5C47.544,5,5,47.536,5,100C5,152.465,47.544,195,100.035,195L100.035,195z"/>
	
		<path fill-rule="evenodd" clip-rule="evenodd" fill="#FFFFFF" stroke="#016BB2" stroke-width="8.0267" stroke-miterlimit="2.6131" d="
		M100.173,176.041c8.549,0,15.512-6.961,15.512-15.512c0-8.547-6.963-15.51-15.512-15.51s-15.512,6.963-15.512,15.51
		C84.661,169.08,91.624,176.041,100.173,176.041L100.173,176.041z"/>
	
		<path fill-rule="evenodd" clip-rule="evenodd" fill="#FFFFFF" stroke="#016BB2" stroke-width="5.2973" stroke-miterlimit="2.6131" d="
		M100.173,23.89c12.34,0,23.716,11.306,22.405,22.405l-10.616,78.179c-1.035,6.824-5.309,11.789-11.789,11.789
		c-6.55,0-10.754-4.965-11.788-11.789L77.768,46.295C76.388,35.196,87.764,23.89,100.173,23.89L100.173,23.89z"/>
</g>
</svg>
