<?xml version="1.0" encoding="utf-8"?>
<!-- Generator: Adobe Illustrator 16.0.0, SVG Export Plug-In . SVG Version: 6.00 Build 0)  -->
<!DOCTYPE svg PUBLIC "-//W3C//DTD SVG 1.1//EN" "http://www.w3.org/Graphics/SVG/1.1/DTD/svg11.dtd">
<svg version="1.1" id="Layer_1" xmlns="http://www.w3.org/2000/svg" xmlns:xlink="http://www.w3.org/1999/xlink" x="0px" y="0px"
	 width="200px" height="200px" viewBox="0 0 200 200" enable-background="new 0 0 200 200" xml:space="preserve">
<g>
	<rect x="5" y="28.525" fill="#FFFFFE" width="190" height="142.949"/>
	<path fill="none" stroke="#1B171A" stroke-width="0.7013" d="M195,171.475 M5,171.475h190V28.525H5V171.475z"/>
	<path fill="#016BB2" d="M9.95,94.399v66.515c0,2.92,2.373,5.291,5.295,5.291h169.036c2.928,0,5.294-2.371,5.294-5.291V94.399"/>
	<path fill="#016BB2" d="M100.453,34.681c14.969,0,27.104,12.137,27.104,27.104c0,14.97-12.135,27.105-27.104,27.105
		c-14.968,0-27.103-12.136-27.103-27.105C73.351,46.817,85.485,34.681,100.453,34.681"/>
	<path fill="#FFFFFE" d="M94.813,44.783l2.423,22.969c0,0,0.572,2.853,2.946,2.853c2.767,0,3.188-2.808,3.188-2.808l2.519-23.06
		c0,0-0.311-5.565-5.517-5.565C94.815,39.172,94.813,44.783,94.813,44.783"/>
	<path fill="#FFFFFE" d="M100.445,84.571c3.025,0,5.479-2.454,5.479-5.481s-2.454-5.48-5.479-5.48c-3.026,0-5.48,2.453-5.48,5.48
		S97.419,84.571,100.445,84.571"/>
	<polyline fill="#FFFFFE" points="29.872,104.782 34.268,104.782 34.268,113.065 42.076,104.782 47.562,104.782 39.754,112.676 
		48.318,124.766 42.804,124.766 36.786,115.782 34.268,118.328 34.268,124.766 29.872,124.766 	"/>
	<path fill="#FFFFFE" d="M52.937,118.496c0.109,2.521,1.343,3.666,3.555,3.666c1.595,0,2.882-0.979,3.134-1.874h3.499
		c-1.12,3.414-3.499,4.87-6.772,4.87c-4.562,0-7.391-3.135-7.391-7.613c0-4.34,2.995-7.641,7.391-7.641
		c4.927,0,7.304,4.143,7.022,8.592 M59.402,115.977c-0.364-2.014-1.231-3.078-3.163-3.078c-2.519,0-3.248,1.959-3.303,3.078H59.402z
		"/>
	<path fill="#FFFFFE" d="M69.003,118.496c0.111,2.521,1.344,3.666,3.555,3.666c1.595,0,2.882-0.979,3.134-1.874h3.499
		c-1.119,3.414-3.499,4.87-6.774,4.87c-4.561,0-7.391-3.135-7.391-7.613c0-4.34,2.996-7.641,7.391-7.641
		c4.928,0,7.306,4.143,7.025,8.592 M75.468,115.977c-0.363-2.014-1.23-3.078-3.163-3.078c-2.518,0-3.247,1.959-3.302,3.078H75.468z"
		/>
	<path fill="#FFFFFE" d="M81.794,110.295h3.778v1.848h0.057c0.948-1.539,2.517-2.238,4.311-2.238c4.533,0,6.577,3.667,6.577,7.78
		c0,3.862-2.128,7.474-6.354,7.474c-1.734,0-3.388-0.757-4.34-2.183h-0.055v6.883h-3.974 M92.541,117.572
		c0-2.296-0.924-4.674-3.471-4.674c-2.602,0-3.441,2.323-3.441,4.674c0,2.352,0.896,4.59,3.469,4.59
		C91.701,122.162,92.541,119.924,92.541,117.572"/>
	<path fill="#FFFFFE" d="M116.528,115.389c-0.25-1.623-1.286-2.49-2.94-2.49c-2.546,0-3.385,2.575-3.385,4.701
		c0,2.073,0.812,4.562,3.301,4.562c1.848,0,2.913-1.173,3.163-2.938h3.835c-0.502,3.835-3.163,5.935-6.968,5.935
		c-4.366,0-7.307-3.077-7.307-7.416c0-4.508,2.689-7.838,7.391-7.838c3.414,0,6.55,1.79,6.8,5.484"/>
	<rect x="122.855" y="104.782" fill="#FFFFFE" width="3.974" height="19.983"/>
	<path fill="#FFFFFE" d="M133.24,118.496c0.108,2.521,1.342,3.666,3.554,3.666c1.595,0,2.882-0.979,3.134-1.874h3.5
		c-1.121,3.414-3.5,4.87-6.773,4.87c-4.562,0-7.39-3.135-7.39-7.613c0-4.34,2.994-7.641,7.39-7.641c4.927,0,7.304,4.143,7.023,8.592
		 M139.703,115.977c-0.362-2.014-1.231-3.078-3.161-3.078c-2.519,0-3.246,1.959-3.302,3.078H139.703z"/>
	<path fill="#FFFFFE" d="M145.861,114.745c0.226-3.723,3.554-4.841,6.803-4.841c2.883,0,6.354,0.644,6.354,4.114v7.528
		c0,1.316,0.141,2.631,0.504,3.219h-4.031c-0.139-0.446-0.253-0.922-0.278-1.4c-1.261,1.316-3.107,1.793-4.871,1.793
		c-2.742,0-4.926-1.372-4.926-4.337c0-3.276,2.463-4.061,4.926-4.397c2.435-0.362,4.701-0.277,4.701-1.902
		c0-1.706-1.176-1.96-2.573-1.96c-1.512,0-2.493,0.616-2.634,2.184 M155.042,117.685c-0.671,0.589-2.072,0.614-3.303,0.839
		c-1.231,0.253-2.351,0.673-2.351,2.129c0,1.482,1.148,1.847,2.434,1.847c3.108,0,3.22-2.463,3.22-3.331V117.685z"/>
	<path fill="#FFFFFE" d="M162.097,110.295h3.778v2.688h0.057c0.726-1.819,2.687-3.078,4.616-3.078c0.279,0,0.615,0.055,0.869,0.14
		v3.695c-0.363-0.086-0.952-0.143-1.427-0.143c-2.912,0-3.919,2.102-3.919,4.647v6.521h-3.975"/>
	<polyline fill="#FFFFFE" points="48.527,134.636 62.578,134.636 62.578,138.332 52.92,138.332 52.92,142.949 61.289,142.949 
		61.289,146.365 52.92,146.365 52.92,154.623 48.527,154.623 	"/>
	<path fill="#FFFFFE" d="M68.79,137.913h-3.975v-3.273h3.975V137.913z M64.815,140.151h3.975v14.469h-3.975V140.151z"/>
	<path fill="#FFFFFE" d="M71.925,140.151h3.78v2.687h0.055c0.729-1.818,2.688-3.078,4.62-3.078c0.279,0,0.616,0.056,0.867,0.14
		v3.695c-0.365-0.084-0.952-0.14-1.427-0.14c-2.911,0-3.921,2.098-3.921,4.646v6.522h-3.975"/>
	<path fill="#FFFFFE" d="M85.592,148.352c0.11,2.52,1.343,3.668,3.554,3.668c1.594,0,2.882-0.98,3.136-1.875h3.498
		c-1.119,3.414-3.498,4.87-6.773,4.87c-4.564,0-7.39-3.137-7.39-7.614c0-4.339,2.995-7.641,7.39-7.641
		c4.927,0,7.306,4.143,7.024,8.592 M92.057,145.834c-0.365-2.017-1.231-3.08-3.165-3.08c-2.517,0-3.244,1.958-3.3,3.08H92.057z"/>
	<path fill="#FFFFFE" d="M109.439,148.352c0.108,2.52,1.341,3.668,3.554,3.668c1.595,0,2.882-0.98,3.136-1.875h3.497
		c-1.12,3.414-3.497,4.87-6.772,4.87c-4.562,0-7.391-3.137-7.391-7.614c0-4.339,2.995-7.641,7.391-7.641
		c4.926,0,7.304,4.143,7.023,8.592 M115.902,145.834c-0.362-2.017-1.231-3.08-3.161-3.08c-2.521,0-3.246,1.958-3.302,3.08H115.902z"
		/>
	<polyline fill="#FFFFFE" points="125.925,147.009 121.166,140.151 125.699,140.151 128.247,143.93 130.767,140.151 135.16,140.151 
		130.4,146.926 135.747,154.623 131.214,154.623 128.192,150.06 125.168,154.623 120.719,154.623 	"/>
	<path fill="#FFFFFE" d="M141.345,137.913h-3.974v-3.273h3.974V137.913z M137.372,140.151h3.975v14.469h-3.975V140.151z"/>
	<path fill="#FFFFFE" d="M149.521,140.151h2.908v2.658h-2.908v7.165c0,1.345,0.335,1.679,1.677,1.679
		c0.42,0,0.814-0.024,1.231-0.112v3.109c-0.672,0.111-1.538,0.14-2.323,0.14c-2.434,0-4.561-0.561-4.561-3.443v-8.537h-2.407v-2.658
		h2.407v-4.34h3.976"/>
</g>
</svg>
