<?xml version="1.0" encoding="utf-8"?>
<!-- Generator: Adobe Illustrator 16.0.0, SVG Export Plug-In . SVG Version: 6.00 Build 0)  -->
<!DOCTYPE svg PUBLIC "-//W3C//DTD SVG 1.1//EN" "http://www.w3.org/Graphics/SVG/1.1/DTD/svg11.dtd">
<svg version="1.1" id="Layer_1" xmlns="http://www.w3.org/2000/svg" xmlns:xlink="http://www.w3.org/1999/xlink" x="0px" y="0px"
	 width="200px" height="200px" viewBox="0 0 200 200" enable-background="new 0 0 200 200" xml:space="preserve">
<g>
	<rect x="5" y="5" fill="#EFEEA5" stroke="#000000" stroke-miterlimit="10" width="190" height="190"/>
	<rect x="18.909" y="18.909" fill-rule="evenodd" clip-rule="evenodd" fill="#009640" width="162.182" height="162.183"/>
	<g>
		<path fill="#EFEEA5" d="M49.029,169.64v-17.766h3.617v14.747h8.993v3.019H49.029z"/>
		<path fill="#EFEEA5" d="M64.192,154.904v-3.178h3.434v3.178H64.192z M64.192,169.64v-12.976h3.434v12.976H64.192z"/>
		<path fill="#EFEEA5" d="M69.642,156.664h1.906v-0.979c0-1.092,0.116-1.906,0.348-2.443c0.232-0.537,0.66-0.976,1.283-1.313
			c0.623-0.338,1.411-0.507,2.364-0.507c0.978,0,1.935,0.146,2.872,0.439l-0.464,2.395c-0.546-0.129-1.071-0.195-1.576-0.195
			c-0.497,0-0.854,0.117-1.069,0.349s-0.324,0.679-0.324,1.338v0.917h2.566v2.699h-2.566v10.276h-3.434v-10.276h-1.906V156.664z"/>
		<path fill="#EFEEA5" d="M86.993,165.51l3.421,0.574c-0.44,1.255-1.134,2.21-2.083,2.865c-0.949,0.656-2.137,0.984-3.562,0.984
			c-2.256,0-3.926-0.737-5.01-2.213c-0.855-1.18-1.283-2.671-1.283-4.471c0-2.151,0.563-3.836,1.687-5.053
			c1.124-1.218,2.545-1.827,4.264-1.827c1.931,0,3.454,0.638,4.57,1.913c1.116,1.274,1.649,3.227,1.601,5.857h-8.602
			c0.024,1.02,0.301,1.812,0.831,2.377c0.529,0.566,1.189,0.85,1.979,0.85c0.538,0,0.99-0.146,1.356-0.439
			C86.528,166.634,86.805,166.162,86.993,165.51z M87.188,162.039c-0.024-0.994-0.281-1.748-0.77-2.266s-1.083-0.776-1.784-0.776
			c-0.75,0-1.369,0.273-1.857,0.819c-0.489,0.545-0.729,1.287-0.721,2.223H87.188z"/>
		<path fill="#EFEEA5" d="M93.249,169.64v-17.913h3.434v6.452c1.059-1.206,2.313-1.809,3.763-1.809c1.581,0,2.888,0.573,3.923,1.717
			c1.034,1.144,1.552,2.788,1.552,4.931c0,2.215-0.527,3.922-1.582,5.119s-2.336,1.797-3.843,1.797
			c-0.741,0-1.472-0.186-2.193-0.557c-0.721-0.37-1.342-0.918-1.864-1.644v1.906H93.249z M96.658,162.871
			c0,1.344,0.211,2.338,0.635,2.98c0.594,0.913,1.385,1.369,2.37,1.369c0.757,0,1.403-0.324,1.937-0.972s0.8-1.668,0.8-3.062
			c0-1.482-0.269-2.551-0.807-3.207c-0.537-0.655-1.225-0.983-2.064-0.983c-0.823,0-1.507,0.319-2.053,0.96
			C96.931,160.596,96.658,161.567,96.658,162.871z"/>
		<path fill="#EFEEA5" d="M117.222,169.64v-1.942c-0.473,0.692-1.094,1.238-1.863,1.637s-1.582,0.6-2.438,0.6
			c-0.871,0-1.653-0.191-2.346-0.575c-0.692-0.382-1.193-0.919-1.503-1.612c-0.311-0.692-0.465-1.65-0.465-2.871v-8.211h3.434v5.962
			c0,1.825,0.063,2.943,0.189,3.354c0.126,0.412,0.356,0.737,0.69,0.977c0.334,0.242,0.758,0.361,1.271,0.361
			c0.587,0,1.112-0.16,1.576-0.482c0.465-0.322,0.782-0.721,0.953-1.197s0.257-1.645,0.257-3.502v-5.473h3.434v12.976H117.222z"/>
		<path fill="#EFEEA5" d="M123.173,162.969c0-1.141,0.281-2.244,0.843-3.312c0.563-1.067,1.358-1.882,2.39-2.444
			c1.029-0.562,2.181-0.843,3.451-0.843c1.963,0,3.572,0.638,4.826,1.913c1.255,1.274,1.882,2.885,1.882,4.832
			c0,1.963-0.634,3.59-1.899,4.881c-1.267,1.292-2.861,1.938-4.784,1.938c-1.189,0-2.324-0.27-3.402-0.807
			c-1.08-0.538-1.9-1.326-2.463-2.365C123.454,165.724,123.173,164.459,123.173,162.969z M126.692,163.151
			c0,1.288,0.305,2.272,0.916,2.957s1.364,1.026,2.261,1.026c0.896,0,1.647-0.342,2.254-1.026s0.91-1.677,0.91-2.981
			c0-1.271-0.304-2.248-0.91-2.932c-0.606-0.686-1.358-1.027-2.254-1.027c-0.896,0-1.649,0.342-2.261,1.027
			C126.997,160.879,126.692,161.864,126.692,163.151z"/>
		<path fill="#EFEEA5" d="M137.628,156.664h3.653l3.104,9.213l3.03-9.213h3.556l-4.582,12.486l-0.819,2.261
			c-0.301,0.758-0.588,1.337-0.861,1.735c-0.272,0.399-0.586,0.724-0.94,0.971c-0.354,0.25-0.79,0.443-1.308,0.581
			c-0.517,0.139-1.102,0.208-1.753,0.208c-0.66,0-1.308-0.069-1.943-0.208l-0.306-2.688c0.538,0.105,1.022,0.159,1.454,0.159
			c0.799,0,1.39-0.233,1.772-0.702s0.676-1.065,0.879-1.791L137.628,156.664z"/>
	</g>
	<path fill-rule="evenodd" clip-rule="evenodd" fill="#EFEEA5" d="M100.065,40.361c26.917,0,48.984,21.884,48.984,48.858
		c0,26.887-22.067,48.857-48.984,48.857c-27.048,0-49.115-21.97-49.115-48.857C50.95,62.246,73.017,40.361,100.065,40.361z
		 M100.022,60.897c15.644,0,28.447,12.703,28.447,28.322c0,15.619-12.803,28.367-28.447,28.367c-15.687,0-28.49-12.748-28.49-28.367
		C71.532,73.6,84.335,60.897,100.022,60.897z"/>
	<path fill="none" stroke="#EFEEA5" stroke-width="0.0965" stroke-miterlimit="22.9256" d="M100.065,40.361
		c26.917,0,48.984,21.884,48.984,48.858c0,26.887-22.067,48.857-48.984,48.857c-27.048,0-49.115-21.97-49.115-48.857
		C50.95,62.246,73.017,40.361,100.065,40.361z M100.022,60.897c15.644,0,28.447,12.703,28.447,28.322
		c0,15.619-12.803,28.367-28.447,28.367c-15.687,0-28.49-12.748-28.49-28.367C71.532,73.6,84.335,60.897,100.022,60.897z"/>
	<path fill="none" stroke="#EFEEA5" stroke-width="4.282" stroke-miterlimit="22.9256" d="M53.1,76.309
		c-23.159-9.223,26.875-57.385,35.396-34.37"/>
	<path fill="none" stroke="#EFEEA5" stroke-width="4.282" stroke-miterlimit="22.9256" d="M86.726,135.428
		c-9.264,23.059-57.288-25.408-34.171-33.891"/>
	<path fill="none" stroke="#EFEEA5" stroke-width="4.282" stroke-miterlimit="22.9256" d="M146.455,102.167
		c23.161,9.224-25.781,57.211-34.302,34.196"/>
	<path fill="none" stroke="#EFEEA5" stroke-width="4.282" stroke-miterlimit="22.9256" d="M113.967,42.456
		c9.264-23.06,56.106,27.756,32.991,36.24"/>
</g>
</svg>
