<?xml version="1.0" encoding="utf-8"?>
<!-- Generator: Adobe Illustrator 16.0.0, SVG Export Plug-In . SVG Version: 6.00 Build 0)  -->
<!DOCTYPE svg PUBLIC "-//W3C//DTD SVG 1.1//EN" "http://www.w3.org/Graphics/SVG/1.1/DTD/svg11.dtd">
<svg version="1.1" id="Layer_1" xmlns="http://www.w3.org/2000/svg" xmlns:xlink="http://www.w3.org/1999/xlink" x="0px" y="0px"
	 width="200px" height="200px" viewBox="0 -25 200 200" enable-background="new 0 -25 200 200" xml:space="preserve">
<rect x="37.507" y="-20" fill="none" stroke="#000000" stroke-miterlimit="22.9256" width="124.986" height="190"/>
<path fill="#006EC7" d="M40.839,105.56h118.32v53.787c0,3.851-3.15,6.999-6.999,6.999H47.838c-3.85,0-7-3.148-7-6.999V105.56z"/>
<path fill="#006EC7" d="M94.183-15.988C76.391-14.03,60.639-3.873,51.867,11.394c-5.87,10.216-8.828,22.263-7.305,34.672
	c3.809,31.036,31.179,52.733,61.91,49.362c28.514-3.127,53.09-28.781,49.509-61.891C152.882,4.842,127.035-19.604,94.183-15.988"/>
<path fill="#FFFFFF" d="M81.978,46.394l0.023,4.166l6.299,0.181l0.099-2.78l3.237-0.056l0.202,2.82l17.188,0.001l0.113-2.818
	l3.258,0.025l0.166,2.788l5.699-0.012l0.05-4.499c1.11,1.15,6.768,13.281,8.366,16.298c0.973,1.831,2.195,3.287,5.11,3.191
	c2.24-0.074,3.984-1.473,4.634-3.366c0.89-2.581-0.478-4.798-1.389-6.606l-14.931-30.558c-0.587-1.837,0.424-1.364,0.525-3.332
	c0.232-4.594-6.607-6.397-11.01-5.183c-2.782,0.767-3.43,1.651-4.726,3.582c-0.851,1.268-3.303,3.182-4.472,4.011
	c-0.972-0.374-1.721-1.093-2.388-1.611c-3.617-2.79-1.426-4.481-6.527-5.957c-4.577-1.325-11.115,0.612-11.16,4.866
	c-0.031,2.981,1.554,0.091-1.279,5.84c-0.951,1.93-1.782,3.665-2.711,5.606l-10.792,22.19c-0.842,1.799-2.353,3.79-1.951,6.327
	c0.729,4.589,7.213,6.005,9.744,1.467c1.238-2.219,7.268-15.036,8.232-16.189c0.05-0.06,0.145-0.149,0.188-0.197
	C81.826,46.542,81.911,46.458,81.978,46.394"/>
<path fill="#FFFFFF" d="M98.774-7.764C92.038-6.832,86.418-0.989,87.52,7.132c0.883,6.504,7.129,12.258,14.986,11.016
	C119.42,15.471,115.635-10.095,98.774-7.764"/>
<path fill="#FFFFFF" d="M84.78,63.149c-0.562,2.968-2.049,6.916-2.928,9.921c-0.482,1.644-0.953,3.178-1.486,4.912
	c-1.283,4.169-1.631,4.021,0.21,4.363c1.459-1.833,4.642-16.562,6.083-19.057l10.188-0.074c-0.375,4.153-6.596,20.461-6.173,22.83
	l1.103,0.266l0.578-1.133l1.282-4.471c0.934-3.172,4.497-16.263,5.188-17.435l2.784-0.065l6.721,23.098
	c2.081-0.32,1.777-0.006,0.366-4.842c-0.609-2.082-1.181-3.98-1.737-5.939c-0.662-2.338-3.367-10.546-3.349-12.293l10.188-0.01
	l5.75,19.082l1.608-0.32l-5.635-18.825c0.945-1.134,2.141-1.308,2.619-3.398c0.338-1.482,0.107-4.458,0.164-6.153l-5.743-0.049
	l-0.073,2.733l-3.324,0.059l-0.134-2.784l-17.24-0.01l-0.046,2.779l-3.346,0.006l-0.091-2.794l-6.286,0.006
	c-0.001,1.666-0.16,4.531,0.131,6.065C82.551,61.73,83.923,62.23,84.78,63.149"/>
<path fill="#006EC7" d="M98.706-6.039c-15.47,2.741-10.907,25.236,3.994,22.464c5.375-1,10.32-6.538,9.023-13.233
	C110.654-2.328,105.462-7.235,98.706-6.039"/>
<path fill="#006EC7" d="M118.397,25.795c-0.508,3.442-0.107,9.883-0.131,13.664c-0.027,3.899,1.572,5.58,3.779,10.073
	c1.527,3.112,3.064,6.095,4.612,9.159c1.267,2.507,3.385,7.913,7.292,4.373c1.521-1.378,1.336-3.026,0.36-4.982
	c-0.843-1.684-1.497-3.053-2.321-4.711C130.217,49.801,119.374,27.07,118.397,25.795"/>
<path fill="#006EC7" d="M81.965,25.935c-0.69,0.611-0.944,1.183-1.339,2.044l-3.314,6.937c-1.504,3.125-3.064,6.123-4.544,9.231
	c-1.535,3.224-2.986,6.166-4.517,9.247c-1.247,2.511-4.472,7.228-1.979,9.646c1.203,1.167,3.279,1.411,4.742,0.168
	c1.255-1.064,6.033-11.434,7.068-13.446c1.401-2.726,3.956-6.593,3.936-9.978C81.99,35.174,82.082,30.536,81.965,25.935"/>
<g enable-background="new    ">
	<path fill="#FFFFFF" d="M46.963,120.865h4.678c0.926,0,1.616,0.039,2.071,0.116s0.862,0.238,1.221,0.483
		c0.359,0.244,0.659,0.57,0.898,0.978c0.239,0.407,0.359,0.863,0.359,1.369c0,0.548-0.147,1.051-0.443,1.509
		c-0.295,0.457-0.696,0.801-1.201,1.029c0.713,0.208,1.261,0.562,1.644,1.062c0.383,0.501,0.575,1.089,0.575,1.765
		c0,0.532-0.124,1.05-0.371,1.553s-0.585,0.904-1.014,1.205c-0.429,0.301-0.957,0.485-1.584,0.555
		c-0.394,0.043-1.344,0.069-2.85,0.08h-3.983V120.865z M49.326,122.813v2.706h1.549c0.921,0,1.493-0.013,1.716-0.04
		c0.404-0.048,0.723-0.188,0.954-0.419s0.347-0.536,0.347-0.914c0-0.361-0.1-0.655-0.299-0.882s-0.497-0.363-0.89-0.411
		c-0.234-0.026-0.907-0.04-2.02-0.04H49.326z M49.326,127.468v3.129h2.188c0.852,0,1.392-0.024,1.621-0.072
		c0.351-0.063,0.637-0.219,0.858-0.467c0.221-0.247,0.332-0.578,0.332-0.994c0-0.351-0.085-0.648-0.255-0.894
		c-0.17-0.245-0.417-0.423-0.739-0.535c-0.322-0.111-1.021-0.167-2.095-0.167H49.326z"/>
	<path fill="#FFFFFF" d="M64.326,132.568v-1.27c-0.309,0.453-0.714,0.81-1.217,1.07s-1.034,0.391-1.593,0.391
		c-0.569,0-1.08-0.125-1.533-0.375c-0.452-0.25-0.78-0.602-0.982-1.054s-0.303-1.078-0.303-1.876v-5.364h2.243v3.896
		c0,1.192,0.041,1.923,0.124,2.191c0.082,0.269,0.232,0.481,0.451,0.639s0.495,0.235,0.83,0.235c0.383,0,0.727-0.105,1.03-0.315
		c0.304-0.21,0.511-0.471,0.623-0.782s0.167-1.074,0.167-2.287v-3.576h2.243v8.478H64.326z"/>
	<path fill="#FFFFFF" d="M68.214,128.21c0-0.745,0.184-1.466,0.551-2.163s0.887-1.229,1.561-1.597
		c0.673-0.367,1.425-0.551,2.255-0.551c1.283,0,2.333,0.416,3.153,1.249c0.819,0.833,1.229,1.886,1.229,3.157
		c0,1.282-0.414,2.346-1.242,3.189c-0.827,0.843-1.869,1.265-3.125,1.265c-0.777,0-1.518-0.176-2.223-0.526
		c-0.705-0.352-1.241-0.866-1.608-1.545S68.214,129.184,68.214,128.21z M70.513,128.329c0,0.842,0.2,1.485,0.599,1.933
		c0.399,0.446,0.892,0.67,1.477,0.67c0.585,0,1.076-0.224,1.473-0.67c0.396-0.447,0.595-1.097,0.595-1.948
		c0-0.83-0.198-1.469-0.595-1.916s-0.888-0.67-1.473-0.67c-0.585,0-1.078,0.223-1.477,0.67
		C70.712,126.845,70.513,127.488,70.513,128.329z"/>
	<path fill="#FFFFFF" d="M77.657,124.091h2.387l2.028,6.019l1.979-6.019h2.323l-2.994,8.158l-0.535,1.477
		c-0.197,0.495-0.385,0.873-0.563,1.134s-0.383,0.473-0.615,0.635s-0.516,0.288-0.854,0.379s-0.72,0.136-1.146,0.136
		c-0.431,0-0.854-0.045-1.27-0.136l-0.199-1.756c0.351,0.069,0.667,0.104,0.95,0.104c0.521,0,0.907-0.153,1.158-0.459
		c0.25-0.306,0.441-0.696,0.575-1.169L77.657,124.091z"/>
	<path fill="#FFFFFF" d="M89.487,126.677l-2.035-0.367c0.229-0.819,0.623-1.426,1.181-1.819c0.559-0.395,1.389-0.591,2.491-0.591
		c1,0,1.746,0.118,2.235,0.354c0.489,0.237,0.834,0.538,1.034,0.902c0.199,0.364,0.299,1.034,0.299,2.008l-0.024,2.618
		c0,0.745,0.036,1.295,0.107,1.648c0.072,0.354,0.207,0.733,0.403,1.138H92.96c-0.059-0.149-0.13-0.37-0.215-0.662
		c-0.038-0.134-0.064-0.222-0.08-0.264c-0.383,0.372-0.793,0.651-1.229,0.838c-0.437,0.187-0.902,0.279-1.397,0.279
		c-0.873,0-1.561-0.236-2.064-0.71s-0.754-1.072-0.754-1.797c0-0.479,0.115-0.905,0.343-1.281c0.229-0.375,0.55-0.662,0.962-0.861
		c0.413-0.2,1.007-0.374,1.784-0.523c1.048-0.196,1.775-0.38,2.18-0.551v-0.224c0-0.431-0.107-0.738-0.319-0.922
		c-0.213-0.184-0.615-0.275-1.206-0.275c-0.399,0-0.71,0.079-0.934,0.235C89.807,126.008,89.626,126.283,89.487,126.677z
		 M92.489,128.497c-0.288,0.096-0.743,0.21-1.365,0.344c-0.623,0.133-1.03,0.263-1.221,0.391c-0.293,0.208-0.439,0.471-0.439,0.79
		c0,0.314,0.117,0.586,0.352,0.814c0.234,0.229,0.532,0.344,0.894,0.344c0.404,0,0.79-0.133,1.157-0.399
		c0.271-0.202,0.45-0.449,0.535-0.742c0.059-0.191,0.088-0.557,0.088-1.094V128.497z"/>
	<path fill="#FFFFFF" d="M104.614,132.568h-2.242v-4.326c0-0.916-0.049-1.508-0.145-1.776s-0.252-0.478-0.467-0.627
		c-0.215-0.148-0.475-0.224-0.777-0.224c-0.389,0-0.738,0.106-1.046,0.319s-0.521,0.495-0.635,0.847
		c-0.114,0.351-0.171,1-0.171,1.947v3.84h-2.243v-8.478h2.083v1.245c0.739-0.958,1.67-1.437,2.793-1.437
		c0.496,0,0.947,0.089,1.357,0.268c0.41,0.178,0.719,0.405,0.93,0.682c0.211,0.277,0.357,0.591,0.439,0.942s0.123,0.854,0.123,1.509
		V132.568z"/>
	<path fill="#FFFFFF" d="M114.282,126.598l-2.211,0.398c-0.075-0.441-0.244-0.774-0.507-0.997c-0.264-0.224-0.605-0.336-1.026-0.336
		c-0.559,0-1.004,0.193-1.337,0.579s-0.499,1.031-0.499,1.936c0,1.006,0.169,1.717,0.507,2.132s0.792,0.622,1.361,0.622
		c0.426,0,0.774-0.121,1.046-0.363s0.463-0.658,0.574-1.249l2.203,0.375c-0.229,1.012-0.667,1.775-1.316,2.291
		c-0.649,0.517-1.52,0.774-2.61,0.774c-1.24,0-2.229-0.391-2.966-1.173c-0.737-0.783-1.105-1.865-1.105-3.249
		c0-1.4,0.37-2.489,1.109-3.27c0.739-0.779,1.74-1.169,3.002-1.169c1.032,0,1.853,0.222,2.462,0.666
		S114.016,125.688,114.282,126.598z"/>
	<path fill="#FFFFFF" d="M114.92,124.091h2.388l2.027,6.019l1.979-6.019h2.323l-2.994,8.158l-0.534,1.477
		c-0.197,0.495-0.385,0.873-0.563,1.134c-0.178,0.261-0.383,0.473-0.614,0.635s-0.517,0.288-0.854,0.379s-0.72,0.136-1.146,0.136
		c-0.431,0-0.854-0.045-1.269-0.136l-0.2-1.756c0.352,0.069,0.668,0.104,0.95,0.104c0.521,0,0.907-0.153,1.157-0.459
		s0.442-0.696,0.575-1.169L114.92,124.091z"/>
</g>
<g enable-background="new    ">
	<path fill="#FFFFFF" d="M139.574,132.568h-2.57l-1.021-2.658h-4.678l-0.966,2.658h-2.507l4.559-11.703h2.498L139.574,132.568z
		 M135.224,127.938l-1.612-4.343l-1.58,4.343H135.224z"/>
	<path fill="#FFFFFF" d="M140.812,122.941v-2.076h2.243v2.076H140.812z M140.812,132.568v-8.478h2.243v8.478H140.812z"/>
	<path fill="#FFFFFF" d="M153.129,132.568h-2.083v-1.245c-0.346,0.484-0.755,0.845-1.226,1.081
		c-0.471,0.237-0.945,0.355-1.425,0.355c-0.974,0-1.808-0.393-2.503-1.178c-0.694-0.784-1.041-1.88-1.041-3.284
		c0-1.438,0.338-2.529,1.014-3.277c0.676-0.747,1.529-1.121,2.562-1.121c0.947,0,1.767,0.394,2.458,1.181v-4.215h2.243V132.568z
		 M147.143,128.146c0,0.905,0.125,1.56,0.375,1.964c0.361,0.586,0.867,0.878,1.517,0.878c0.517,0,0.955-0.219,1.317-0.658
		c0.361-0.438,0.543-1.095,0.543-1.968c0-0.974-0.176-1.675-0.527-2.104c-0.352-0.428-0.801-0.643-1.349-0.643
		c-0.532,0-0.979,0.212-1.338,0.635C147.322,126.673,147.143,127.305,147.143,128.146z"/>
</g>
<g enable-background="new    ">
	<path fill="#FFFFFF" d="M46.329,150.832v-11.703h3.536l2.123,7.983l2.1-7.983h3.544v11.703h-2.195v-9.212l-2.322,9.212h-2.275
		l-2.315-9.212v9.212H46.329z"/>
	<path fill="#FFFFFF" d="M65.543,150.832v-1.27c-0.309,0.453-0.714,0.81-1.217,1.07s-1.034,0.391-1.593,0.391
		c-0.569,0-1.08-0.125-1.533-0.375c-0.452-0.25-0.779-0.602-0.981-1.054s-0.304-1.078-0.304-1.876v-5.364h2.243v3.896
		c0,1.192,0.041,1.923,0.124,2.191c0.082,0.269,0.232,0.481,0.451,0.639c0.218,0.157,0.495,0.235,0.83,0.235
		c0.383,0,0.727-0.105,1.029-0.315c0.304-0.21,0.512-0.471,0.623-0.782c0.112-0.312,0.168-1.074,0.168-2.287v-3.576h2.243v8.478
		H65.543z"/>
	<path fill="#FFFFFF" d="M69.159,148.413l2.251-0.343c0.096,0.437,0.29,0.768,0.583,0.993c0.293,0.227,0.702,0.34,1.229,0.34
		c0.58,0,1.017-0.106,1.309-0.319c0.197-0.149,0.296-0.349,0.296-0.599c0-0.171-0.054-0.312-0.16-0.423
		c-0.111-0.106-0.361-0.205-0.75-0.296c-1.81-0.399-2.956-0.764-3.44-1.094c-0.671-0.457-1.006-1.094-1.006-1.907
		c0-0.735,0.29-1.353,0.87-1.853s1.479-0.75,2.698-0.75c1.16,0,2.022,0.188,2.586,0.566c0.564,0.378,0.953,0.937,1.166,1.677
		l-2.115,0.391c-0.091-0.33-0.263-0.583-0.516-0.758c-0.253-0.176-0.613-0.264-1.081-0.264c-0.591,0-1.014,0.082-1.27,0.247
		c-0.17,0.117-0.256,0.27-0.256,0.455c0,0.16,0.075,0.296,0.224,0.407c0.202,0.149,0.901,0.359,2.096,0.631s2.029,0.604,2.503,0.998
		c0.468,0.398,0.702,0.955,0.702,1.668c0,0.777-0.324,1.445-0.974,2.004s-1.61,0.838-2.882,0.838c-1.155,0-2.069-0.234-2.742-0.702
		C69.808,149.853,69.367,149.217,69.159,148.413z"/>
	<path fill="#FFFFFF" d="M82.93,142.354v1.788h-1.533v3.417c0,0.691,0.015,1.095,0.044,1.209s0.096,0.209,0.2,0.283
		c0.104,0.075,0.229,0.112,0.379,0.112c0.207,0,0.508-0.072,0.902-0.216l0.191,1.74c-0.521,0.224-1.112,0.335-1.772,0.335
		c-0.404,0-0.769-0.067-1.094-0.203c-0.324-0.136-0.562-0.312-0.714-0.527c-0.152-0.215-0.257-0.507-0.315-0.874
		c-0.048-0.261-0.072-0.787-0.072-1.58v-3.696h-1.029v-1.788h1.029v-1.685l2.251-1.31v2.994H82.93z"/>
	<path fill="#FFFFFF" d="M89.052,139.129h4.679c0.926,0,1.616,0.039,2.071,0.116s0.862,0.238,1.221,0.483
		c0.359,0.244,0.659,0.57,0.898,0.978s0.359,0.863,0.359,1.369c0,0.548-0.147,1.051-0.443,1.509
		c-0.295,0.457-0.695,0.801-1.201,1.029c0.713,0.208,1.262,0.562,1.645,1.062c0.383,0.501,0.574,1.089,0.574,1.765
		c0,0.532-0.123,1.05-0.371,1.553c-0.247,0.503-0.585,0.904-1.014,1.205s-0.956,0.485-1.584,0.555
		c-0.395,0.043-1.344,0.069-2.851,0.08h-3.983V139.129z M91.415,141.077v2.706h1.549c0.921,0,1.492-0.013,1.716-0.04
		c0.404-0.048,0.723-0.188,0.954-0.419s0.348-0.536,0.348-0.914c0-0.361-0.1-0.655-0.3-0.882c-0.199-0.227-0.496-0.363-0.89-0.411
		c-0.234-0.026-0.907-0.04-2.02-0.04H91.415z M91.415,145.731v3.129h2.188c0.852,0,1.392-0.024,1.62-0.072
		c0.352-0.063,0.638-0.219,0.858-0.467c0.221-0.247,0.331-0.578,0.331-0.994c0-0.351-0.085-0.648-0.255-0.894
		c-0.171-0.245-0.417-0.423-0.739-0.535c-0.321-0.111-1.021-0.167-2.095-0.167H91.415z"/>
	<path fill="#FFFFFF" d="M105.745,148.134l2.234,0.375c-0.287,0.82-0.74,1.444-1.361,1.872c-0.619,0.429-1.395,0.643-2.326,0.643
		c-1.475,0-2.566-0.481-3.273-1.444c-0.559-0.771-0.838-1.746-0.838-2.922c0-1.405,0.367-2.506,1.102-3.301
		c0.734-0.796,1.662-1.193,2.785-1.193c1.262,0,2.258,0.416,2.986,1.249s1.078,2.108,1.045,3.828h-5.619
		c0.016,0.665,0.197,1.183,0.543,1.552c0.346,0.37,0.777,0.556,1.293,0.556c0.352,0,0.646-0.097,0.887-0.288
		C105.44,148.868,105.622,148.56,105.745,148.134z M105.872,145.867c-0.016-0.649-0.184-1.144-0.502-1.481
		c-0.32-0.338-0.709-0.507-1.166-0.507c-0.49,0-0.895,0.179-1.213,0.535c-0.32,0.356-0.477,0.841-0.473,1.453H105.872z"/>
	<path fill="#FFFFFF" d="M116.146,150.832l-2.794-11.703h2.419l1.765,8.039l2.139-8.039h2.811l2.051,8.175l1.797-8.175h2.379
		l-2.842,11.703h-2.507l-2.331-8.749l-2.323,8.749H116.146z"/>
</g>
<g enable-background="new    ">
	<path fill="#FFFFFF" d="M129.081,146.474c0-0.745,0.184-1.466,0.551-2.163s0.888-1.229,1.561-1.597
		c0.674-0.367,1.426-0.551,2.256-0.551c1.282,0,2.333,0.416,3.153,1.249c0.819,0.833,1.229,1.886,1.229,3.157
		c0,1.282-0.413,2.346-1.241,3.189c-0.827,0.843-1.869,1.265-3.125,1.265c-0.777,0-1.519-0.176-2.224-0.526
		c-0.705-0.352-1.241-0.866-1.608-1.545S129.081,147.447,129.081,146.474z M131.38,146.593c0,0.842,0.2,1.485,0.6,1.933
		c0.398,0.446,0.891,0.67,1.477,0.67c0.585,0,1.076-0.224,1.473-0.67c0.396-0.447,0.595-1.097,0.595-1.948
		c0-0.83-0.198-1.469-0.595-1.916s-0.888-0.67-1.473-0.67c-0.586,0-1.078,0.223-1.477,0.67
		C131.58,145.108,131.38,145.752,131.38,146.593z"/>
	<path fill="#FFFFFF" d="M141.734,150.832h-2.243v-8.478h2.083v1.205c0.356-0.569,0.677-0.944,0.962-1.125
		c0.285-0.182,0.608-0.271,0.97-0.271c0.511,0,1.003,0.141,1.477,0.423l-0.694,1.956c-0.378-0.245-0.729-0.367-1.054-0.367
		c-0.313,0-0.58,0.086-0.798,0.259c-0.219,0.173-0.39,0.486-0.515,0.938s-0.188,1.399-0.188,2.842V150.832z"/>
	<path fill="#FFFFFF" d="M153.66,150.832h-2.243v-4.326c0-0.916-0.048-1.508-0.144-1.776s-0.252-0.478-0.467-0.627
		c-0.216-0.148-0.476-0.224-0.778-0.224c-0.389,0-0.737,0.106-1.046,0.319s-0.521,0.495-0.635,0.847
		c-0.114,0.351-0.172,1-0.172,1.947v3.84h-2.243v-8.478h2.084v1.245c0.739-0.958,1.671-1.437,2.794-1.437
		c0.495,0,0.947,0.089,1.356,0.268c0.41,0.178,0.72,0.405,0.931,0.682c0.21,0.277,0.356,0.591,0.438,0.942
		c0.083,0.352,0.124,0.854,0.124,1.509V150.832z"/>
</g>
</svg>
