<?xml version="1.0" encoding="utf-8"?>
<!-- Generator: Adobe Illustrator 16.0.0, SVG Export Plug-In . SVG Version: 6.00 Build 0)  -->
<!DOCTYPE svg PUBLIC "-//W3C//DTD SVG 1.1//EN" "http://www.w3.org/Graphics/SVG/1.1/DTD/svg11.dtd">
<svg version="1.1" id="Layer_1" xmlns="http://www.w3.org/2000/svg" xmlns:xlink="http://www.w3.org/1999/xlink" x="0px" y="0px"
	 width="200px" height="200px" viewBox="0 0 200 200" enable-background="new 0 0 200 200" xml:space="preserve">
<rect x="5" y="5" fill="#FFFFFF" stroke="#010101" stroke-miterlimit="10" width="190" height="190"/>
<g>
	<path fill="#005CB9" d="M21.144,11.21h157.713c5.463,0,9.935,4.471,9.935,9.935v157.712c0,5.463-4.472,9.934-9.935,9.934H21.144
		c-5.464,0-9.935-4.471-9.935-9.934V21.145C11.209,15.681,15.68,11.21,21.144,11.21"/>
	<path fill="#FFFFFF" d="M36.231,90.535h55.345c0.441,0.801,0.445,0.801,0.885,1.601c-10.214,18.966-25.993,48.287-25.993,48.287
		h66.927c0,0-16.221-29.379-26.699-48.363l0.818-1.524h56.254l-36.299-63.419c0,0-16.558,30.756-27.424,50.93h-1.09
		C87.795,57.84,70.76,26.979,70.76,26.979L36.231,90.535z M70.846,52.992c2.621,4.752,7.37,13.347,13.834,25.054H57.236
		C61.729,69.78,66.084,61.763,70.846,52.992z M127.805,52.855c4.955,8.656,9.612,16.798,14.418,25.19h-27.979
		C120.586,66.27,125.253,57.599,127.805,52.855z M99.642,105.15c5.651,10.225,10.348,18.734,12.581,22.771h-24.84
		C89.546,123.909,94.146,115.365,99.642,105.15z"/>
	<g enable-background="new    ">
		<path fill="#FFFFFF" d="M23.992,162.238l-3.021-8.453h1.851l2.139,6.256l2.07-6.256h1.811l-3.027,8.453H23.992z"/>
		<path fill="#FFFFFF" d="M29.713,162.238v-8.453h6.268v1.43h-4.562v1.874h4.244v1.425h-4.244v2.301h4.723v1.424H29.713z"/>
		<path fill="#FFFFFF" d="M37.595,162.238v-8.453h1.707v3.327h3.345v-3.327h1.707v8.453h-1.707v-3.696h-3.345v3.696H37.595z"/>
		<path fill="#FFFFFF" d="M46.066,162.238v-8.453h1.707v8.453H46.066z"/>
		<path fill="#FFFFFF" d="M54.808,159.13l1.655,0.525c-0.253,0.922-0.675,1.607-1.266,2.056c-0.59,0.447-1.339,0.672-2.246,0.672
			c-1.123,0-2.045-0.384-2.768-1.15c-0.723-0.768-1.084-1.815-1.084-3.146c0-1.407,0.363-2.5,1.09-3.278s1.682-1.168,2.866-1.168
			c1.034,0,1.874,0.306,2.52,0.917c0.384,0.361,0.672,0.88,0.865,1.557l-1.689,0.403c-0.1-0.438-0.309-0.784-0.625-1.037
			c-0.317-0.254-0.703-0.381-1.156-0.381c-0.627,0-1.135,0.225-1.525,0.675c-0.39,0.449-0.585,1.178-0.585,2.186
			c0,1.068,0.192,1.83,0.577,2.283c0.385,0.453,0.884,0.681,1.5,0.681c0.454,0,0.844-0.145,1.17-0.433S54.666,159.749,54.808,159.13
			z"/>
		<path fill="#FFFFFF" d="M57.974,162.238v-8.385h1.707v6.961h4.244v1.424H57.974z"/>
		<path fill="#FFFFFF" d="M65.141,162.238v-8.453h6.268v1.43h-4.562v1.874h4.244v1.425h-4.244v2.301h4.723v1.424H65.141z"/>
		<path fill="#FFFFFF" d="M78.202,162.238v-7.023h-2.508v-1.43h6.718v1.43h-2.503v7.023H78.202z"/>
		<path fill="#FFFFFF" d="M83.513,162.238v-8.453h6.268v1.43h-4.562v1.874h4.244v1.425h-4.244v2.301h4.723v1.424H83.513z"/>
		<path fill="#FFFFFF" d="M90.957,159.487l1.661-0.161c0.1,0.558,0.303,0.967,0.608,1.229s0.718,0.392,1.237,0.392
			c0.55,0,0.964-0.116,1.243-0.349s0.418-0.505,0.418-0.815c0-0.2-0.059-0.37-0.176-0.511s-0.322-0.263-0.614-0.366
			c-0.2-0.069-0.655-0.192-1.367-0.369c-0.915-0.227-1.557-0.505-1.926-0.836c-0.519-0.465-0.778-1.032-0.778-1.701
			c0-0.431,0.122-0.833,0.366-1.208s0.596-0.66,1.055-0.856s1.014-0.294,1.664-0.294c1.061,0,1.859,0.232,2.396,0.697
			c0.536,0.466,0.818,1.087,0.845,1.863l-1.707,0.074c-0.073-0.434-0.229-0.746-0.47-0.937s-0.601-0.285-1.082-0.285
			c-0.496,0-0.884,0.102-1.165,0.306c-0.181,0.131-0.271,0.306-0.271,0.524c0,0.2,0.084,0.371,0.254,0.513
			c0.215,0.182,0.738,0.369,1.568,0.565c0.83,0.196,1.444,0.399,1.842,0.608c0.398,0.21,0.709,0.496,0.934,0.859
			s0.337,0.812,0.337,1.347c0,0.484-0.135,0.938-0.404,1.36s-0.649,0.737-1.142,0.943c-0.492,0.205-1.105,0.309-1.839,0.309
			c-1.069,0-1.89-0.247-2.462-0.741S91.068,160.434,90.957,159.487z"/>
		<path fill="#FFFFFF" d="M101.17,162.238v-7.023h-2.509v-1.43h6.718v1.43h-2.503v7.023H101.17z"/>
		<path fill="#FFFFFF" d="M106.428,162.238v-8.453h1.707v8.453H106.428z"/>
		<path fill="#FFFFFF" d="M109.778,162.238v-8.453h1.661l3.459,5.645v-5.645h1.586v8.453h-1.713l-3.407-5.513v5.513H109.778z"/>
		<path fill="#FFFFFF" d="M122.223,159.13v-1.424h3.678v3.367c-0.357,0.347-0.875,0.651-1.553,0.914
			c-0.68,0.264-1.367,0.396-2.062,0.396c-0.884,0-1.654-0.186-2.312-0.557c-0.656-0.371-1.15-0.901-1.481-1.592
			c-0.331-0.689-0.496-1.44-0.496-2.252c0-0.88,0.185-1.662,0.554-2.347s0.909-1.209,1.621-1.574
			c0.541-0.28,1.216-0.421,2.023-0.421c1.049,0,1.869,0.22,2.459,0.66s0.971,1.049,1.139,1.825l-1.695,0.317
			c-0.119-0.415-0.342-0.743-0.672-0.983c-0.328-0.24-0.738-0.36-1.23-0.36c-0.746,0-1.339,0.236-1.779,0.709
			c-0.439,0.473-0.66,1.175-0.66,2.104c0,1.004,0.223,1.756,0.669,2.258s1.03,0.753,1.753,0.753c0.357,0,0.717-0.07,1.076-0.211
			c0.359-0.14,0.668-0.311,0.926-0.51v-1.073H122.223z"/>
		<path fill="#FFFFFF" d="M130.324,159.487l1.661-0.161c0.1,0.558,0.303,0.967,0.607,1.229c0.306,0.262,0.719,0.392,1.237,0.392
			c0.55,0,0.964-0.116,1.243-0.349c0.278-0.232,0.418-0.505,0.418-0.815c0-0.2-0.059-0.37-0.176-0.511
			c-0.118-0.141-0.322-0.263-0.614-0.366c-0.2-0.069-0.656-0.192-1.367-0.369c-0.915-0.227-1.557-0.505-1.926-0.836
			c-0.519-0.465-0.778-1.032-0.778-1.701c0-0.431,0.122-0.833,0.366-1.208s0.596-0.66,1.055-0.856
			c0.46-0.196,1.015-0.294,1.664-0.294c1.061,0,1.859,0.232,2.396,0.697c0.537,0.466,0.818,1.087,0.845,1.863l-1.706,0.074
			c-0.073-0.434-0.23-0.746-0.471-0.937s-0.601-0.285-1.081-0.285c-0.496,0-0.884,0.102-1.165,0.306
			c-0.181,0.131-0.271,0.306-0.271,0.524c0,0.2,0.084,0.371,0.254,0.513c0.215,0.182,0.738,0.369,1.568,0.565
			s1.444,0.399,1.842,0.608c0.398,0.21,0.71,0.496,0.935,0.859s0.337,0.812,0.337,1.347c0,0.484-0.134,0.938-0.403,1.36
			s-0.649,0.737-1.142,0.943c-0.492,0.205-1.105,0.309-1.84,0.309c-1.068,0-1.889-0.247-2.462-0.741
			S130.436,160.434,130.324,159.487z"/>
		<path fill="#FFFFFF" d="M140.535,162.238v-7.023h-2.508v-1.43h6.718v1.43h-2.503v7.023H140.535z"/>
	</g>
	<g enable-background="new    ">
		<path fill="#FFFFFF" d="M152.594,162.238h-1.857l-0.738-1.92h-3.379l-0.697,1.92h-1.811l3.293-8.453h1.805L152.594,162.238z
			 M149.451,158.894l-1.165-3.137l-1.142,3.137H149.451z"/>
	</g>
	<g enable-background="new    ">
		<path fill="#FFFFFF" d="M154.525,162.238v-7.023h-2.508v-1.43h6.718v1.43h-2.503v7.023H154.525z"/>
		<path fill="#FFFFFF" d="M159.785,162.238v-8.453h1.707v8.453H159.785z"/>
		<path fill="#FFFFFF" d="M162.771,158.063c0-0.861,0.129-1.584,0.387-2.168c0.191-0.431,0.454-0.817,0.787-1.159
			c0.332-0.342,0.696-0.596,1.092-0.762c0.527-0.223,1.135-0.334,1.822-0.334c1.246,0,2.242,0.387,2.99,1.159
			s1.121,1.847,1.121,3.224c0,1.364-0.371,2.433-1.112,3.203c-0.742,0.771-1.733,1.156-2.976,1.156c-1.257,0-2.256-0.384-2.998-1.15
			C163.143,160.465,162.771,159.409,162.771,158.063z M164.53,158.006c0,0.957,0.222,1.683,0.663,2.177s1.004,0.741,1.684,0.741
			c0.681,0,1.238-0.245,1.676-0.735c0.436-0.49,0.654-1.226,0.654-2.206c0-0.969-0.213-1.691-0.638-2.168s-0.989-0.715-1.692-0.715
			s-1.271,0.241-1.701,0.724C164.746,156.306,164.53,157.033,164.53,158.006z"/>
		<path fill="#FFFFFF" d="M172.32,162.238v-8.453h1.661l3.46,5.645v-5.645h1.586v8.453h-1.713l-3.408-5.513v5.513H172.32z"/>
	</g>
	<g enable-background="new    ">
		<path fill="#FFFFFF" d="M76.578,172.146h-1.286l-0.511-1.33h-2.341l-0.483,1.33h-1.254l2.281-5.855h1.25L76.578,172.146z
			 M74.401,169.83l-0.807-2.173l-0.791,2.173H74.401z"/>
		<path fill="#FFFFFF" d="M77.205,172.146v-5.855h1.897c0.719,0,1.188,0.029,1.406,0.088c0.335,0.088,0.616,0.279,0.843,0.573
			c0.226,0.294,0.339,0.674,0.339,1.141c0,0.359-0.065,0.661-0.196,0.906s-0.296,0.438-0.497,0.577s-0.405,0.232-0.613,0.277
			c-0.282,0.057-0.691,0.084-1.226,0.084h-0.771v2.209H77.205z M78.387,167.281v1.662h0.647c0.466,0,0.778-0.031,0.935-0.092
			c0.157-0.062,0.28-0.157,0.37-0.288c0.089-0.13,0.134-0.282,0.134-0.455c0-0.213-0.062-0.389-0.188-0.527
			c-0.125-0.139-0.284-0.225-0.476-0.26c-0.141-0.026-0.425-0.04-0.851-0.04H78.387z"/>
		<path fill="#FFFFFF" d="M82.661,172.146v-5.855h1.897c0.719,0,1.188,0.029,1.406,0.088c0.335,0.088,0.616,0.279,0.843,0.573
			c0.226,0.294,0.339,0.674,0.339,1.141c0,0.359-0.065,0.661-0.196,0.906s-0.296,0.438-0.497,0.577s-0.405,0.232-0.613,0.277
			c-0.282,0.057-0.691,0.084-1.226,0.084h-0.771v2.209H82.661z M83.843,167.281v1.662h0.647c0.466,0,0.778-0.031,0.935-0.092
			c0.157-0.062,0.28-0.157,0.37-0.288c0.089-0.13,0.134-0.282,0.134-0.455c0-0.213-0.062-0.389-0.188-0.527
			c-0.125-0.139-0.284-0.225-0.476-0.26c-0.141-0.026-0.425-0.04-0.851-0.04H83.843z"/>
		<path fill="#FFFFFF" d="M88.121,172.146v-5.855h2.488c0.626,0,1.081,0.053,1.364,0.158c0.284,0.104,0.51,0.292,0.681,0.561
			c0.17,0.27,0.256,0.577,0.256,0.923c0,0.439-0.129,0.802-0.388,1.089c-0.258,0.286-0.644,0.466-1.158,0.541
			c0.256,0.148,0.467,0.312,0.633,0.491s0.391,0.495,0.673,0.95l0.715,1.143h-1.414l-0.855-1.274
			c-0.304-0.455-0.511-0.742-0.623-0.86s-0.23-0.2-0.355-0.244s-0.324-0.065-0.595-0.065h-0.24v2.444H88.121z M89.303,168.768h0.875
			c0.567,0,0.921-0.024,1.062-0.072s0.251-0.13,0.332-0.247c0.08-0.117,0.12-0.264,0.12-0.439c0-0.197-0.053-0.356-0.158-0.478
			c-0.105-0.121-0.254-0.198-0.445-0.229c-0.096-0.014-0.383-0.021-0.863-0.021h-0.923V168.768z"/>
		<path fill="#FFFFFF" d="M93.785,169.255c0-0.597,0.089-1.098,0.268-1.502c0.133-0.298,0.315-0.565,0.545-0.803
			c0.23-0.237,0.482-0.413,0.757-0.527c0.365-0.154,0.785-0.231,1.262-0.231c0.863,0,1.553,0.268,2.071,0.803
			s0.777,1.279,0.777,2.232c0,0.945-0.257,1.686-0.771,2.219c-0.514,0.534-1.201,0.801-2.061,0.801
			c-0.871,0-1.563-0.266-2.077-0.797C94.042,170.918,93.785,170.187,93.785,169.255z M95.003,169.215
			c0,0.663,0.153,1.166,0.459,1.508c0.306,0.342,0.695,0.513,1.166,0.513c0.472,0,0.858-0.169,1.161-0.509
			c0.302-0.34,0.453-0.849,0.453-1.527c0-0.672-0.147-1.172-0.441-1.502s-0.685-0.495-1.172-0.495s-0.88,0.167-1.178,0.501
			S95.003,168.541,95.003,169.215z"/>
		<path fill="#FFFFFF" d="M101.881,172.146l-2.093-5.855h1.282l1.481,4.334l1.435-4.334h1.254l-2.098,5.855H101.881z"/>
		<path fill="#FFFFFF" d="M105.844,172.146v-5.855h4.342v0.99h-3.16v1.299h2.939v0.986h-2.939v1.594h3.271v0.986H105.844z"/>
		<path fill="#FFFFFF" d="M111.295,166.291h2.161c0.487,0,0.858,0.037,1.114,0.112c0.344,0.101,0.638,0.28,0.883,0.539
			c0.245,0.258,0.432,0.574,0.559,0.948c0.129,0.374,0.192,0.836,0.192,1.384c0,0.482-0.06,0.897-0.18,1.246
			c-0.146,0.427-0.355,0.771-0.627,1.035c-0.205,0.199-0.481,0.355-0.831,0.467c-0.261,0.083-0.609,0.124-1.047,0.124h-2.225
			V166.291z M112.478,167.281v3.879h0.883c0.33,0,0.568-0.019,0.715-0.057c0.192-0.048,0.351-0.129,0.478-0.243
			c0.126-0.114,0.229-0.303,0.309-0.565c0.08-0.262,0.121-0.619,0.121-1.072c0-0.452-0.041-0.8-0.121-1.042
			c-0.079-0.243-0.191-0.432-0.335-0.567s-0.326-0.228-0.547-0.275c-0.165-0.038-0.489-0.057-0.971-0.057H112.478z"/>
		<path fill="#FFFFFF" d="M119.482,166.291h2.342c0.463,0,0.809,0.02,1.035,0.058c0.229,0.039,0.432,0.119,0.611,0.242
			c0.18,0.122,0.33,0.285,0.449,0.489c0.121,0.203,0.18,0.432,0.18,0.685c0,0.274-0.073,0.526-0.221,0.755
			c-0.148,0.229-0.349,0.401-0.602,0.516c0.357,0.104,0.631,0.281,0.822,0.531c0.192,0.25,0.288,0.544,0.288,0.883
			c0,0.266-0.062,0.525-0.186,0.776c-0.124,0.252-0.293,0.453-0.507,0.604c-0.215,0.15-0.479,0.243-0.793,0.277
			c-0.197,0.021-0.673,0.035-1.426,0.04h-1.994V166.291z M120.665,167.266v1.354h0.774c0.461,0,0.748-0.006,0.859-0.02
			c0.202-0.024,0.361-0.094,0.478-0.21c0.116-0.115,0.173-0.268,0.173-0.457c0-0.181-0.049-0.328-0.148-0.441
			c-0.101-0.113-0.249-0.182-0.445-0.206c-0.118-0.013-0.455-0.02-1.012-0.02H120.665z M120.665,169.594v1.566h1.095
			c0.426,0,0.696-0.013,0.811-0.036c0.176-0.032,0.318-0.11,0.43-0.233c0.11-0.124,0.166-0.29,0.166-0.498
			c0-0.175-0.043-0.324-0.129-0.447c-0.084-0.122-0.207-0.211-0.369-0.268c-0.16-0.056-0.51-0.084-1.049-0.084H120.665z"/>
		<path fill="#FFFFFF" d="M126.924,172.146v-2.465l-2.145-3.391h1.387l1.377,2.316l1.351-2.316h1.362l-2.153,3.399v2.456H126.924z"
			/>
	</g>
	<g enable-background="new    ">
		<path fill="#FFFFFF" d="M42.544,181.285v-4.865h-1.737v-0.99h4.653v0.99h-1.733v4.865H42.544z"/>
		<path fill="#FFFFFF" d="M46.227,181.285v-5.855h1.182v2.305h2.317v-2.305h1.182v5.855h-1.182v-2.561h-2.317v2.561H46.227z"/>
		<path fill="#FFFFFF" d="M52.13,181.285v-5.855h4.342v0.99h-3.16v1.299h2.94v0.986h-2.94v1.594h3.271v0.986H52.13z"/>
		<path fill="#FFFFFF" d="M61.353,181.285l-2.093-5.855h1.282l1.481,4.334l1.434-4.334h1.254l-2.097,5.855H61.353z"/>
		<path fill="#FFFFFF" d="M65.315,181.285v-5.855h4.342v0.99h-3.16v1.299h2.94v0.986h-2.94v1.594h3.271v0.986H65.315z"/>
		<path fill="#FFFFFF" d="M70.775,181.285v-5.855h1.182v2.305h2.317v-2.305h1.182v5.855h-1.182v-2.561h-2.317v2.561H70.775z"/>
		<path fill="#FFFFFF" d="M76.642,181.285v-5.855h1.183v5.855H76.642z"/>
		<path fill="#FFFFFF" d="M82.698,179.132l1.146,0.364c-0.175,0.639-0.468,1.113-0.876,1.424c-0.409,0.31-0.927,0.465-1.556,0.465
			c-0.778,0-1.417-0.266-1.917-0.797c-0.5-0.531-0.751-1.257-0.751-2.179c0-0.975,0.252-1.731,0.755-2.271
			c0.503-0.539,1.165-0.809,1.985-0.809c0.716,0,1.298,0.212,1.746,0.635c0.266,0.25,0.466,0.609,0.599,1.078l-1.17,0.28
			c-0.069-0.304-0.214-0.544-0.434-0.72c-0.219-0.176-0.486-0.263-0.801-0.263c-0.434,0-0.786,0.155-1.056,0.467
			c-0.271,0.312-0.406,0.816-0.406,1.514c0,0.74,0.133,1.268,0.399,1.582c0.267,0.314,0.613,0.471,1.039,0.471
			c0.314,0,0.584-0.1,0.811-0.299C82.437,179.875,82.599,179.562,82.698,179.132z"/>
		<path fill="#FFFFFF" d="M84.89,181.285v-5.808h1.183v4.821h2.939v0.986H84.89z"/>
		<path fill="#FFFFFF" d="M89.855,181.285v-5.855h4.342v0.99h-3.16v1.299h2.94v0.986h-2.94v1.594h3.271v0.986H89.855z"/>
		<path fill="#FFFFFF" d="M97.548,181.285v-5.855h1.183v5.855H97.548z"/>
		<path fill="#FFFFFF" d="M99.868,181.285v-5.855h1.15l2.396,3.91v-3.91h1.099v5.855h-1.187l-2.36-3.818v3.818H99.868z"/>
		<path fill="#FFFFFF" d="M105.465,179.38l1.15-0.111c0.068,0.386,0.209,0.669,0.421,0.851c0.212,0.181,0.497,0.271,0.856,0.271
			c0.381,0,0.668-0.081,0.861-0.242s0.289-0.349,0.289-0.564c0-0.139-0.041-0.257-0.121-0.354c-0.082-0.098-0.224-0.182-0.426-0.254
			c-0.139-0.048-0.454-0.133-0.947-0.256c-0.633-0.157-1.078-0.35-1.334-0.579c-0.359-0.322-0.539-0.715-0.539-1.178
			c0-0.299,0.085-0.577,0.254-0.837c0.17-0.26,0.413-0.458,0.73-0.594c0.318-0.136,0.703-0.203,1.152-0.203
			c0.735,0,1.289,0.161,1.66,0.483s0.566,0.752,0.585,1.29l-1.183,0.052c-0.051-0.301-0.158-0.518-0.325-0.649
			c-0.166-0.132-0.416-0.197-0.749-0.197c-0.344,0-0.612,0.07-0.807,0.212c-0.125,0.09-0.188,0.211-0.188,0.363
			c0,0.139,0.059,0.257,0.176,0.355c0.148,0.125,0.512,0.256,1.086,0.392c0.576,0.136,1.001,0.276,1.276,0.421
			c0.276,0.146,0.491,0.344,0.647,0.596c0.155,0.251,0.233,0.562,0.233,0.933c0,0.335-0.093,0.649-0.28,0.942
			c-0.186,0.293-0.449,0.511-0.79,0.653c-0.341,0.142-0.766,0.213-1.274,0.213c-0.74,0-1.309-0.171-1.705-0.513
			C105.779,180.533,105.541,180.035,105.465,179.38z"/>
		<path fill="#FFFFFF" d="M111.221,181.285v-5.855h1.896c0.719,0,1.188,0.029,1.406,0.088c0.336,0.088,0.616,0.279,0.843,0.573
			c0.226,0.294,0.339,0.674,0.339,1.141c0,0.359-0.064,0.661-0.195,0.906s-0.296,0.438-0.497,0.577s-0.405,0.232-0.613,0.277
			c-0.282,0.057-0.69,0.084-1.226,0.084h-0.771v2.209H111.221z M112.402,176.42v1.662h0.646c0.467,0,0.778-0.031,0.936-0.092
			c0.156-0.062,0.279-0.157,0.369-0.288c0.09-0.13,0.134-0.282,0.134-0.455c0-0.213-0.062-0.389-0.188-0.527
			c-0.126-0.139-0.284-0.225-0.476-0.26c-0.141-0.026-0.425-0.04-0.851-0.04H112.402z"/>
		<path fill="#FFFFFF" d="M116.676,181.285v-5.855h4.342v0.99h-3.159v1.299h2.94v0.986h-2.94v1.594h3.271v0.986H116.676z"/>
		<path fill="#FFFFFF" d="M125.879,179.132l1.146,0.364c-0.176,0.639-0.469,1.113-0.877,1.424c-0.408,0.31-0.928,0.465-1.556,0.465
			c-0.778,0-1.417-0.266-1.917-0.797c-0.501-0.531-0.752-1.257-0.752-2.179c0-0.975,0.252-1.731,0.756-2.271
			c0.503-0.539,1.164-0.809,1.984-0.809c0.717,0,1.299,0.212,1.746,0.635c0.266,0.25,0.466,0.609,0.6,1.078l-1.171,0.28
			c-0.069-0.304-0.214-0.544-0.434-0.72s-0.486-0.263-0.801-0.263c-0.435,0-0.786,0.155-1.056,0.467
			c-0.271,0.312-0.406,0.816-0.406,1.514c0,0.74,0.133,1.268,0.399,1.582s0.612,0.471,1.038,0.471c0.314,0,0.585-0.1,0.812-0.299
			C125.617,179.875,125.78,179.562,125.879,179.132z"/>
		<path fill="#FFFFFF" d="M129.357,181.285v-4.865h-1.737v-0.99h4.653v0.99h-1.733v4.865H129.357z"/>
	</g>
	<g enable-background="new    ">
		<path fill="#FFFFFF" d="M132.65,178.394c0-0.597,0.09-1.098,0.268-1.502c0.133-0.298,0.314-0.565,0.545-0.803
			s0.482-0.413,0.758-0.527c0.364-0.154,0.785-0.231,1.262-0.231c0.863,0,1.553,0.268,2.07,0.803
			c0.519,0.535,0.777,1.279,0.777,2.232c0,0.945-0.257,1.686-0.771,2.219c-0.514,0.534-1.2,0.801-2.061,0.801
			c-0.871,0-1.562-0.266-2.076-0.797C132.907,180.057,132.65,179.325,132.65,178.394z M133.869,178.354
			c0,0.663,0.152,1.166,0.459,1.508s0.695,0.513,1.166,0.513c0.472,0,0.858-0.169,1.16-0.509c0.303-0.34,0.453-0.849,0.453-1.527
			c0-0.672-0.146-1.172-0.441-1.502c-0.294-0.33-0.685-0.495-1.172-0.495s-0.88,0.167-1.178,0.501
			C134.018,177.176,133.869,177.68,133.869,178.354z"/>
		<path fill="#FFFFFF" d="M139.257,181.285v-5.855h2.488c0.626,0,1.081,0.053,1.364,0.158c0.283,0.104,0.51,0.292,0.681,0.561
			c0.171,0.27,0.256,0.577,0.256,0.923c0,0.439-0.13,0.802-0.388,1.089c-0.258,0.286-0.645,0.466-1.158,0.541
			c0.256,0.148,0.467,0.312,0.633,0.491c0.167,0.179,0.391,0.495,0.674,0.95l0.715,1.143h-1.414l-0.855-1.274
			c-0.303-0.455-0.511-0.742-0.623-0.86c-0.111-0.118-0.23-0.2-0.355-0.244s-0.323-0.065-0.595-0.065h-0.239v2.444H139.257z
			 M140.439,177.906h0.875c0.566,0,0.921-0.024,1.062-0.072c0.141-0.048,0.251-0.13,0.331-0.247c0.079-0.117,0.12-0.264,0.12-0.439
			c0-0.197-0.053-0.356-0.158-0.478s-0.254-0.198-0.445-0.229c-0.096-0.014-0.383-0.021-0.863-0.021h-0.922V177.906z"/>
		<path fill="#FFFFFF" d="M150.44,181.285h-1.286l-0.512-1.33h-2.34l-0.483,1.33h-1.255l2.281-5.855h1.25L150.44,181.285z
			 M148.264,178.969l-0.807-2.173l-0.791,2.173H148.264z"/>
	</g>
	<g enable-background="new    ">
		<path fill="#FFFFFF" d="M151.778,181.285v-4.865h-1.737v-0.99h4.653v0.99h-1.733v4.865H151.778z"/>
		<path fill="#FFFFFF" d="M155.457,181.285v-5.855h4.342v0.99h-3.16v1.299h2.94v0.986h-2.94v1.594h3.271v0.986H155.457z"/>
	</g>
</g>
</svg>
