<?xml version="1.0" encoding="utf-8"?>
<!-- Generator: Adobe Illustrator 16.0.0, SVG Export Plug-In . SVG Version: 6.00 Build 0)  -->
<!DOCTYPE svg PUBLIC "-//W3C//DTD SVG 1.1//EN" "http://www.w3.org/Graphics/SVG/1.1/DTD/svg11.dtd">
<svg version="1.1" id="Layer_1" xmlns="http://www.w3.org/2000/svg" xmlns:xlink="http://www.w3.org/1999/xlink" x="0px" y="0px"
	 width="200px" height="200px" viewBox="0 0 200 200" enable-background="new 0 0 200 200" xml:space="preserve">
<g>
	<rect x="5" y="28.75" fill="#FFFFFE" width="190" height="142.5"/>
	<path fill="none" stroke="#1B171A" d="M195,171.25 M5,171.25h190V28.75H5V171.25z"/>
	<path fill="#1B171A" d="M55.585,36.327c0,0-0.589-1.474-2.504-1.474c-1.916,0-2.799,1.474-2.799,1.474l-39.026,68.05
		c0,0-0.987,1.682-0.077,3.252c0,0,0.933,1.547,2.48,1.547h77.812c0,0,2.087,0.062,2.924-1.57c0.698-1.363,0.356-2.414,0.023-3.047"
		/>
	<polyline fill="#FFEC00" points="53.032,42.198 17.663,103.826 87.788,103.826 	"/>
	<path fill="#1B171A" d="M47.031,60.5l2.506,23.728c0,0,0.59,2.948,3.045,2.948c2.857,0,3.292-2.896,3.292-2.896l2.604-23.826
		c0,0-0.32-5.75-5.699-5.75C47.037,54.704,47.031,60.5,47.031,60.5"/>
	<path fill="#1B171A" d="M52.853,101.607c3.127,0,5.661-2.537,5.661-5.663c0-3.129-2.534-5.663-5.661-5.663
		c-3.127,0-5.661,2.534-5.661,5.663C47.192,99.071,49.726,101.607,52.853,101.607"/>
	<path fill="#006AB3" d="M146.469,33.167c20.336,0,36.82,16.484,36.82,36.82c0,20.335-16.484,36.82-36.82,36.82
		s-36.82-16.485-36.82-36.82C109.648,49.651,126.133,33.167,146.469,33.167"/>
	<path fill="#FFFFFE" d="M138.805,46.889l3.293,31.2c0,0,0.775,3.876,4.006,3.876c3.756,0,4.328-3.811,4.328-3.811l3.422-31.33
		c0,0-0.42-7.556-7.492-7.556C138.812,39.269,138.805,46.889,138.805,46.889"/>
	<path fill="#FFFFFE" d="M146.459,100.941c4.111,0,7.445-3.335,7.445-7.446s-3.334-7.447-7.445-7.447
		c-4.113,0-7.445,3.337-7.445,7.447S142.346,100.941,146.459,100.941"/>
	<rect x="10.349" y="113.635" fill="#FFEC00" width="84.445" height="52.777"/>
	<path fill="#1B171A" d="M14.68,133.281h5.733c3.446,0,6.034,2.158,6.034,6.572c0,3.854-1.975,6.721-6.034,6.721H14.68
		 M17.603,144.115h2.606c1.694,0,3.314-1.043,3.314-3.982c0-2.682-0.93-4.396-3.835-4.396h-2.084V144.115z"/>
	<path fill="#1B171A" d="M31.734,133.281h2.998l4.97,13.293h-3.033l-1.005-2.961h-4.972l-1.043,2.961h-2.959 M31.454,141.436h3.446
		l-1.678-4.877h-0.036L31.454,141.436z"/>
	<polyline fill="#1B171A" points="40.485,133.281 43.389,133.281 48.939,142.201 48.975,142.201 48.975,133.281 51.711,133.281 
		51.711,146.574 48.79,146.574 43.259,137.674 43.222,137.674 43.222,146.574 40.485,146.574 	"/>
	<path fill="#1B171A" d="M63.515,145.066c-1.022,1.322-2.365,1.824-3.647,1.824c-4.115,0-6.536-3.072-6.536-6.908
		c0-3.947,2.42-7.016,6.536-7.016c2.717,0,5.287,1.672,5.603,4.689h-2.793c-0.334-1.471-1.434-2.236-2.81-2.236
		c-2.626,0-3.614,2.236-3.614,4.562c0,2.219,0.988,4.451,3.614,4.451c1.898,0,2.998-1.025,3.166-2.867h-2.944v-2.18h5.585v7.188
		h-1.86"/>
	<polyline fill="#1B171A" points="67.667,133.281 77.61,133.281 77.61,135.736 70.591,135.736 70.591,138.588 77.033,138.588 
		77.033,140.857 70.591,140.857 70.591,144.115 77.759,144.115 77.759,146.574 67.667,146.574 	"/>
	<path fill="#1B171A" d="M79.36,133.281h7.167c2.385,0,3.893,1.654,3.893,3.668c0,1.564-0.633,2.736-2.104,3.332v0.035
		c1.434,0.373,1.843,1.77,1.938,3.109c0.054,0.84,0.035,2.404,0.557,3.148h-2.924c-0.353-0.84-0.315-2.121-0.465-3.184
		c-0.204-1.398-0.743-2.012-2.215-2.012h-2.923v5.195H79.36 M82.284,139.293h3.201c1.303,0,2.011-0.559,2.011-1.898
		c0-1.285-0.708-1.844-2.011-1.844h-3.201V139.293z"/>
	<rect x="104.686" y="113.635" fill="#006AB3" width="84.443" height="52.777"/>
	<polyline fill="#FFFFFE" points="117.193,119.982 120.994,119.982 120.994,127.146 127.748,119.982 132.49,119.982 
		125.738,126.811 133.146,137.266 128.377,137.266 123.172,129.496 120.994,131.697 120.994,137.266 117.193,137.266 	"/>
	<path fill="#FFFFFE" d="M137.141,131.842c0.094,2.18,1.16,3.172,3.07,3.172c1.381,0,2.494-0.848,2.713-1.621h3.025
		c-0.967,2.953-3.025,4.211-5.859,4.211c-3.943,0-6.387-2.711-6.387-6.582c0-3.752,2.588-6.609,6.387-6.609
		c4.262,0,6.32,3.582,6.076,7.43 M142.729,129.664c-0.312-1.742-1.062-2.662-2.734-2.662c-2.178,0-2.807,1.695-2.854,2.662H142.729z
		"/>
	<path fill="#FFFFFE" d="M151.031,131.842c0.096,2.18,1.164,3.172,3.074,3.172c1.379,0,2.494-0.848,2.713-1.621h3.023
		c-0.969,2.953-3.023,4.211-5.857,4.211c-3.943,0-6.391-2.711-6.391-6.582c0-3.752,2.59-6.609,6.391-6.609
		c4.26,0,6.318,3.582,6.076,7.43 M156.623,129.664c-0.314-1.742-1.064-2.662-2.736-2.662c-2.176,0-2.807,1.695-2.855,2.662H156.623z
		"/>
	<path fill="#FFFFFE" d="M162.092,124.752h3.27v1.596h0.047c0.824-1.33,2.178-1.936,3.729-1.936c3.92,0,5.686,3.172,5.686,6.73
		c0,3.338-1.838,6.461-5.492,6.461c-1.5,0-2.93-0.652-3.752-1.887h-0.049v5.953h-3.438 M171.387,131.043
		c0-1.982-0.801-4.041-3.002-4.041c-2.25,0-2.977,2.01-2.977,4.041c0,2.033,0.775,3.971,3.002,3.971
		C170.66,135.014,171.387,133.076,171.387,131.043"/>
	<path fill="#FFFFFE" d="M134.102,148.617c3.945,0,6.486,2.613,6.486,6.607c0,3.971-2.541,6.584-6.486,6.584
		c-3.92,0-6.461-2.613-6.461-6.584C127.641,151.23,130.182,148.617,134.102,148.617 M134.102,159.219
		c2.348,0,3.049-2.008,3.049-3.994c0-2.01-0.701-4.018-3.049-4.018c-2.322,0-3.023,2.008-3.023,4.018
		C131.078,157.211,131.779,159.219,134.102,159.219"/>
	<path fill="#FFFFFE" d="M154.555,161.469h-3.268v-1.742h-0.072c-0.873,1.402-2.373,2.082-3.822,2.082
		c-3.656,0-4.576-2.059-4.576-5.156v-7.697h3.438v7.068c0,2.059,0.604,3.074,2.201,3.074c1.863,0,2.662-1.039,2.662-3.582v-6.561
		h3.438"/>
	<path fill="#FFFFFE" d="M161.525,148.955h2.518v2.301h-2.518v6.197c0,1.162,0.291,1.451,1.451,1.451
		c0.363,0,0.701-0.023,1.066-0.098v2.689c-0.58,0.094-1.33,0.119-2.01,0.119c-2.104,0-3.945-0.486-3.945-2.979v-7.381h-2.082v-2.301
		h2.082v-3.75h3.438"/>
</g>
</svg>
