<?xml version="1.0" encoding="utf-8"?>
<!-- Generator: Adobe Illustrator 16.0.0, SVG Export Plug-In . SVG Version: 6.00 Build 0)  -->
<!DOCTYPE svg PUBLIC "-//W3C//DTD SVG 1.1//EN" "http://www.w3.org/Graphics/SVG/1.1/DTD/svg11.dtd">
<svg version="1.1" id="Layer_1" xmlns="http://www.w3.org/2000/svg" xmlns:xlink="http://www.w3.org/1999/xlink" x="0px" y="0px"
	 width="200px" height="200px" viewBox="0 -25 200 200" enable-background="new 0 -25 200 200" xml:space="preserve">
<g>
	<rect x="10" y="-14.998" fill="#FFFFFE" width="179.994" height="179.999"/>
	<path fill="none" stroke="#1B171A" d="M190,165.001H10H190z M10,165.001h180V-15.001H10V165.001z"/>
	<path fill="#FFF200" d="M70.374,43.2h110.021c2.609,0,4.728-1.902,4.728-4.239V-6.461c0-2.34-2.118-4.242-4.728-4.242H70.374V43.2z
		"/>
	<path fill="#0B6BB4" d="M70.593,102.194h110.022c2.609,0,4.72-1.898,4.72-4.242V51.721c0-2.344-2.11-4.245-4.72-4.245H70.593
		V102.194z"/>
	<path fill="#ED1C24" d="M70.593,160.612h110.022c2.609,0,4.72-1.898,4.72-4.24V110.14c0-2.351-2.11-4.249-4.72-4.249H70.593
		V160.612z"/>
	<polygon fill="#FFF200" points="41.116,-1.911 18.512,37.473 63.328,37.473 	"/>
	<path fill="#1B171A" d="M67.042,37.701L42.716-5.045c0,0-0.37-0.923-1.572-0.923c-1.2,0-1.75,0.923-1.75,0.923L14.94,37.589
		c0,0-0.613,1.051-0.044,2.036c0,0,0.583,0.972,1.552,0.972h48.747c0,0,1.306,0.033,1.833-0.989
		C67.466,38.758,67.252,38.099,67.042,37.701 M18.958,37.238L41.116-1.369l21.772,38.607H18.958z"/>
	<path fill="#1B171A" d="M37.981,11.372L39.408,24.9c0,0,0.335,1.683,1.736,1.683c1.628,0,1.876-1.654,1.876-1.654l1.484-13.584
		c0,0-0.184-3.278-3.25-3.278C37.984,8.066,37.981,11.372,37.981,11.372"/>
	<path fill="#1B171A" d="M41.299,34.807c1.782,0,3.228-1.44,3.228-3.225c0-1.783-1.445-3.229-3.228-3.229
		c-1.784,0-3.226,1.445-3.226,3.229C38.073,33.366,39.515,34.807,41.299,34.807"/>
	<path fill="#0B6BB4" d="M40.844,48.897c14.403,0,26.08,11.678,26.08,26.08c0,14.401-11.677,26.073-26.08,26.073
		c-14.399,0-26.076-11.672-26.076-26.073C14.769,60.575,26.445,48.897,40.844,48.897"/>
	<path fill="#FFFFFE" d="M35.417,58.619l2.333,22.093c0,0,0.548,2.75,2.837,2.75c2.658,0,3.064-2.704,3.064-2.704l2.426-22.185
		c0,0-0.302-5.354-5.307-5.354C35.419,53.22,35.417,58.619,35.417,58.619"/>
	<path fill="#FFFFFE" d="M40.839,96.899c2.911,0,5.271-2.361,5.271-5.274c0-2.914-2.361-5.273-5.271-5.273
		c-2.913,0-5.276,2.359-5.276,5.273C35.562,94.538,37.927,96.899,40.839,96.899"/>
	<path fill="#ED1C24" d="M15.117,134.167c0-14.164,11.482-25.645,25.642-25.645c14.163,0,25.644,11.482,25.644,25.645
		c0,14.164-11.481,25.644-25.644,25.644C26.6,159.812,15.117,148.332,15.117,134.167"/>
	<path fill="#FFFFFE" d="M56.975,146.642c2.666-3.453,4.269-7.77,4.269-12.475c0-11.312-9.173-20.479-20.485-20.479
		c-4.7,0-9.018,1.601-12.474,4.265L56.975,146.642z"/>
	<path fill="#FFFFFE" d="M24.541,121.7c-2.663,3.459-4.262,7.775-4.262,12.467c0,11.312,9.172,20.479,20.48,20.479
		c4.696,0,9.005-1.594,12.458-4.247L24.541,121.7z"/>
</g>
</svg>
