<?xml version="1.0" encoding="utf-8"?>
<!-- Generator: Adobe Illustrator 16.0.0, SVG Export Plug-In . SVG Version: 6.00 Build 0)  -->
<!DOCTYPE svg PUBLIC "-//W3C//DTD SVG 1.1//EN" "http://www.w3.org/Graphics/SVG/1.1/DTD/svg11.dtd">
<svg version="1.1" id="Layer_1" xmlns="http://www.w3.org/2000/svg" xmlns:xlink="http://www.w3.org/1999/xlink" x="0px" y="0px"
	 width="200px" height="150px" viewBox="0 0 200 150" enable-background="new 0 0 200 150" xml:space="preserve">
<g>
	<rect x="9.6" y="45.848" fill-rule="evenodd" clip-rule="evenodd" fill="#FFFFFF" width="129.865" height="97.006"/>
	<rect x="9.6" y="45.848" fill="none" stroke="#000000" stroke-miterlimit="22.9256" width="129.865" height="97.006"/>
	<path fill-rule="evenodd" clip-rule="evenodd" fill="#006EC7" d="M17.813,49.717h112.908c2.557,0,4.648,2.092,4.648,4.649v80.173
		c0,2.558-2.092,4.649-4.648,4.649H17.813c-2.558,0-4.65-2.092-4.65-4.649V54.366C13.163,51.809,15.255,49.717,17.813,49.717"/>
	<polygon fill="#FFFFFF" points="108.314,57.491 86.365,57.491 100.758,74.275 18.518,74.275 18.518,94.452 100.758,94.452 
		86.365,111.236 108.314,111.236 131.354,84.365 	"/>
	<polygon fill="#FFFFFF" points="38.213,133.621 34.567,133.621 31.736,122.259 31.695,122.259 28.911,133.621 25.191,133.621 
		20.776,116.934 24.448,116.934 27.087,128.29 27.135,128.29 30.032,116.934 33.468,116.934 36.318,128.432 36.369,128.432 
		39.102,116.934 42.702,116.934 	"/>
	<path fill="#FFFFFF" d="M48.941,116.934h3.767l6.242,16.688h-3.814l-1.259-3.716h-6.242l-1.311,3.716H42.61L48.941,116.934z
		 M48.591,127.169h4.325l-2.104-6.126h-0.047L48.591,127.169z"/>
	<polygon fill="#FFFFFF" points="64.719,127.121 58.575,116.934 62.709,116.934 66.616,123.524 70.495,116.934 74.586,116.934 
		68.392,127.216 68.392,133.622 64.719,133.622 	"/>
	<path fill="#FFFFFF" d="M89.965,116.533c5.164,0,8.204,3.855,8.204,8.815c0,4.812-3.04,8.67-8.204,8.67
		c-5.166,0-8.205-3.858-8.205-8.67C81.761,120.389,84.799,116.533,89.965,116.533 M89.965,130.933c3.297,0,4.535-2.804,4.535-5.584
		c0-2.923-1.238-5.729-4.535-5.729c-3.294,0-4.535,2.806-4.535,5.729C85.43,128.129,86.671,130.933,89.965,130.933z"/>
	<path fill="#FFFFFF" d="M114.836,127.311c0,4.51-2.668,6.708-7.131,6.708c-4.484,0-7.105-2.176-7.105-6.708v-10.377h3.674v10.377
		c0,1.823,0.465,3.622,3.432,3.622c2.621,0,3.461-1.144,3.461-3.622v-10.377h3.67V127.311z"/>
	<polygon fill="#FFFFFF" points="121.686,120.017 116.686,120.017 116.686,116.934 130.359,116.934 130.359,120.017 
		125.354,120.017 125.354,133.622 121.686,133.622 	"/>
	<path fill-rule="evenodd" clip-rule="evenodd" d="M90.052,89.558c-2.729-0.001-4.957-2.21-4.957-4.919V12.01
		c0-2.624,2.183-4.817,4.874-4.863h95.557c2.691,0.046,4.875,2.239,4.875,4.863v72.629c0,2.709-2.229,4.918-4.959,4.919H90.052z"/>
	<path fill-rule="evenodd" clip-rule="evenodd" fill="#FFFFFF" d="M184.992,86.723c1.385,0,2.486-1.095,2.486-2.411V12.338
		c0-1.315-1.102-2.41-2.486-2.41H90.409c-1.383,0-2.487,1.095-2.487,2.41v71.974c0,1.316,1.104,2.411,2.487,2.411H184.992z"/>
	<path fill-rule="evenodd" clip-rule="evenodd" fill="#006EC7" d="M92.96,16.648L92.96,16.648c0-1.256,1.019-2.275,2.274-2.275
		h27.402c1.301,0,2.33,1.03,2.33,2.275v27.399c0,1.244-1.029,2.272-2.33,2.272H95.234c-1.245,0-2.274-1.028-2.274-2.272V16.648z"/>
	<path fill-rule="evenodd" clip-rule="evenodd" fill="#FFFFFF" d="M101.408,18.543h13.16v0.054c2.811,0,5.09,2.281,5.09,5.09
		l-0.055,4.604c0,2.81-2.256,5.089-5.035,5.089h-8.07v9.531h-5.09V18.543v14.836V18.543z M112.131,22.496h-5.633v6.877h5.633
		c1.324,0,2.406-1.058,2.438-2.382v-2.058C114.568,23.588,113.477,22.496,112.131,22.496z"/>
	<path fill-rule="evenodd" clip-rule="evenodd" fill="#F99E0D" d="M124.912,52.603L124.912,52.603c0-1.254-1.02-2.274-2.275-2.274
		H95.234c-1.245,0-2.274,1.029-2.274,2.274v27.4c0,1.298,1.03,2.272,2.274,2.272h27.402c1.301,0,2.33-0.975,2.33-2.272
		L124.912,52.603z"/>
	<path fill-rule="evenodd" clip-rule="evenodd" d="M115.812,75.184l0.012,0.009c-1.455,3.561-4.951,5.893-8.836,5.893
		c-5.264,0-9.533-4.223-9.533-9.423c0-3.494,1.958-6.705,5.085-8.335l0.279,2.707c-1.807,1.315-2.875,3.405-2.875,5.628
		c0,3.855,3.156,6.984,7.042,6.984c3.885,0,7.039-3.129,7.039-6.984c0-0.073-0.002-0.146-0.004-0.219L115.812,75.184z"/>
	<path fill-rule="evenodd" clip-rule="evenodd" d="M103.088,53.795l-0.055,0.053c0-0.018,0-0.035,0-0.053
		c0-1.557,1.287-2.816,2.869-2.816c1.586,0,2.871,1.26,2.871,2.816c0,1.554-1.285,2.816-2.871,2.816
		c-0.035,0-0.072-0.003-0.109-0.003l0.002,0.056l0.379,5.524h7.475v2.325h-7.367l0.109,2.007h9.639l4.01,8.663l2.652-1.192
		l0.922,1.896l-5.146,2.219l-4.061-9.151H104.01l-0.977-15.106L103.088,53.795z"/>
	<path d="M132.775,27.812v5.905h1.344c0.502,0,0.865-0.027,1.09-0.086c0.291-0.072,0.533-0.194,0.727-0.369
		c0.193-0.174,0.35-0.463,0.471-0.861c0.121-0.399,0.184-0.945,0.184-1.634c0-0.689-0.062-1.218-0.184-1.587
		s-0.291-0.658-0.51-0.864c-0.221-0.207-0.498-0.347-0.836-0.419c-0.25-0.058-0.742-0.085-1.477-0.085H132.775z M130.975,26.303
		h3.291c0.742,0,1.307,0.057,1.697,0.171c0.523,0.153,0.971,0.428,1.344,0.822c0.373,0.393,0.658,0.874,0.854,1.442
		c0.191,0.571,0.289,1.273,0.289,2.109c0,0.733-0.09,1.366-0.273,1.898c-0.223,0.647-0.539,1.173-0.955,1.573
		c-0.311,0.306-0.732,0.542-1.264,0.713c-0.396,0.126-0.93,0.188-1.596,0.188h-3.387V26.303z"/>
	<path d="M139.965,28.762h1.709v6.459h-1.709V28.762z M139.965,26.303h1.709v1.582h-1.709V26.303z"/>
	<path d="M142.824,33.377l1.715-0.262c0.072,0.332,0.221,0.586,0.445,0.758c0.223,0.172,0.533,0.26,0.936,0.26
		c0.443,0,0.775-0.081,0.998-0.245c0.15-0.112,0.225-0.266,0.225-0.455c0-0.131-0.041-0.238-0.121-0.323
		c-0.086-0.081-0.277-0.156-0.572-0.225c-1.379-0.304-2.252-0.581-2.621-0.832c-0.512-0.35-0.768-0.835-0.768-1.456
		c0-0.559,0.221-1.029,0.662-1.409c0.443-0.383,1.129-0.573,2.057-0.573c0.885,0,1.543,0.146,1.973,0.432
		c0.43,0.288,0.725,0.714,0.887,1.279l-1.611,0.297c-0.068-0.252-0.199-0.444-0.393-0.577c-0.193-0.136-0.467-0.202-0.824-0.202
		c-0.451,0-0.773,0.062-0.969,0.189c-0.127,0.089-0.191,0.205-0.191,0.347c0,0.122,0.055,0.224,0.17,0.31
		c0.154,0.113,0.686,0.273,1.596,0.481c0.91,0.205,1.545,0.459,1.906,0.76c0.357,0.306,0.535,0.729,0.535,1.271
		c0,0.592-0.246,1.103-0.742,1.528c-0.494,0.426-1.225,0.638-2.195,0.638c-0.881,0-1.576-0.179-2.09-0.536
		C143.316,34.476,142.982,33.989,142.824,33.377"/>
	<path d="M153.918,32.118c-0.219,0.073-0.564,0.16-1.041,0.262c-0.473,0.103-0.781,0.202-0.93,0.298
		c-0.221,0.159-0.334,0.358-0.334,0.602c0,0.241,0.09,0.446,0.268,0.621c0.18,0.174,0.406,0.261,0.682,0.261
		c0.309,0,0.602-0.102,0.883-0.303c0.207-0.153,0.342-0.342,0.406-0.566c0.045-0.146,0.066-0.424,0.066-0.833V32.118z
		 M151.633,30.731l-1.551-0.28c0.174-0.625,0.473-1.086,0.898-1.387c0.428-0.299,1.059-0.45,1.896-0.45
		c0.766,0,1.332,0.091,1.705,0.271s0.637,0.409,0.787,0.688c0.152,0.278,0.229,0.787,0.229,1.53l-0.018,1.995
		c0,0.566,0.025,0.986,0.082,1.256c0.055,0.269,0.158,0.559,0.307,0.866h-1.691c-0.043-0.114-0.1-0.282-0.164-0.505
		c-0.027-0.102-0.047-0.168-0.061-0.201c-0.293,0.284-0.604,0.496-0.936,0.64c-0.332,0.142-0.688,0.212-1.066,0.212
		c-0.664,0-1.189-0.181-1.57-0.54c-0.385-0.361-0.576-0.818-0.576-1.37c0-0.363,0.088-0.689,0.262-0.977
		c0.174-0.286,0.42-0.504,0.732-0.655c0.314-0.152,0.77-0.285,1.361-0.398c0.797-0.15,1.352-0.291,1.658-0.42v-0.17
		c0-0.33-0.08-0.563-0.242-0.704c-0.162-0.14-0.469-0.21-0.918-0.21c-0.305,0-0.543,0.061-0.713,0.181
		C151.875,30.221,151.738,30.431,151.633,30.731z"/>
	<path d="M158.908,31.851c0,0.669,0.105,1.163,0.314,1.484c0.297,0.455,0.689,0.682,1.182,0.682c0.375,0,0.697-0.162,0.963-0.484
		c0.266-0.321,0.398-0.83,0.398-1.523c0-0.737-0.135-1.271-0.402-1.597c-0.266-0.326-0.607-0.49-1.027-0.49
		c-0.41,0-0.75,0.16-1.021,0.478C159.043,30.719,158.908,31.201,158.908,31.851 M157.211,35.221v-8.918h1.709v3.212
		c0.527-0.6,1.15-0.9,1.873-0.9c0.787,0,1.436,0.286,1.953,0.855c0.516,0.568,0.773,1.387,0.773,2.454
		c0,1.103-0.264,1.953-0.789,2.549c-0.525,0.597-1.164,0.894-1.912,0.894c-0.371,0-0.734-0.092-1.094-0.276
		c-0.357-0.185-0.668-0.457-0.928-0.818v0.949H157.211z"/>
	<rect x="164.893" y="26.303" width="1.709" height="8.918"/>
	<path d="M172.191,31.438c-0.012-0.496-0.139-0.872-0.383-1.129c-0.242-0.258-0.539-0.387-0.889-0.387
		c-0.373,0-0.68,0.137-0.924,0.409c-0.242,0.27-0.363,0.64-0.359,1.106H172.191z M172.094,33.165l1.705,0.284
		c-0.221,0.625-0.564,1.101-1.039,1.427c-0.471,0.328-1.062,0.49-1.773,0.49c-1.123,0-1.953-0.365-2.492-1.101
		c-0.426-0.588-0.641-1.331-0.641-2.226c0-1.071,0.281-1.91,0.842-2.517c0.559-0.606,1.266-0.909,2.121-0.909
		c0.961,0,1.719,0.317,2.275,0.953c0.555,0.635,0.82,1.606,0.797,2.917h-4.281c0.012,0.506,0.148,0.9,0.412,1.181
		c0.264,0.283,0.594,0.424,0.986,0.424c0.268,0,0.492-0.072,0.674-0.218C171.863,33.724,172.002,33.489,172.094,33.165z"/>
	<path d="M176.645,31.851c0,0.689,0.096,1.188,0.287,1.497c0.273,0.444,0.66,0.669,1.154,0.669c0.395,0,0.729-0.168,1.006-0.503
		c0.273-0.334,0.412-0.834,0.412-1.499c0-0.741-0.135-1.276-0.4-1.603c-0.268-0.326-0.611-0.49-1.029-0.49
		c-0.406,0-0.744,0.162-1.018,0.484C176.781,30.728,176.645,31.209,176.645,31.851 M181.207,35.221h-1.588v-0.949
		c-0.262,0.37-0.574,0.644-0.934,0.824s-0.721,0.271-1.086,0.271c-0.742,0-1.379-0.299-1.908-0.897
		c-0.527-0.598-0.793-1.433-0.793-2.502c0-1.096,0.258-1.929,0.773-2.497c0.514-0.569,1.166-0.855,1.953-0.855
		c0.721,0,1.346,0.301,1.873,0.9v-3.212h1.709V35.221z"/>
	<path d="M136.076,48.305c0,0.725,0.143,1.262,0.432,1.606c0.287,0.347,0.637,0.521,1.053,0.521c0.396,0,0.727-0.16,0.99-0.478
		s0.396-0.841,0.396-1.565c0-0.68-0.137-1.182-0.408-1.51c-0.273-0.328-0.609-0.492-1.01-0.492c-0.418,0-0.764,0.16-1.041,0.484
		C136.213,47.193,136.076,47.671,136.076,48.305 M134.383,45.184h1.596v0.949c0.205-0.326,0.486-0.59,0.838-0.791
		c0.354-0.204,0.746-0.306,1.176-0.306c0.75,0,1.387,0.295,1.908,0.883c0.523,0.587,0.785,1.407,0.785,2.458
		c0,1.077-0.264,1.916-0.789,2.515c-0.527,0.598-1.168,0.896-1.916,0.896c-0.357,0-0.682-0.07-0.973-0.212
		c-0.289-0.143-0.594-0.386-0.916-0.73v3.256h-1.709V45.184z"/>
	<path d="M145.605,48.541c-0.217,0.072-0.564,0.16-1.039,0.262s-0.783,0.201-0.932,0.297c-0.221,0.159-0.334,0.359-0.334,0.603
		c0,0.24,0.09,0.446,0.268,0.62c0.18,0.175,0.406,0.262,0.682,0.262c0.309,0,0.602-0.102,0.883-0.303
		c0.207-0.154,0.342-0.343,0.406-0.567c0.047-0.146,0.066-0.423,0.066-0.832V48.541z M143.32,47.154l-1.551-0.281
		c0.174-0.624,0.473-1.085,0.898-1.387c0.428-0.299,1.059-0.45,1.898-0.45c0.764,0,1.33,0.092,1.703,0.272s0.637,0.409,0.787,0.687
		c0.152,0.278,0.229,0.787,0.229,1.53l-0.018,1.996c0,0.566,0.025,0.985,0.082,1.256c0.055,0.268,0.158,0.559,0.307,0.865h-1.691
		c-0.043-0.114-0.1-0.282-0.164-0.504c-0.027-0.103-0.047-0.169-0.061-0.201c-0.293,0.284-0.604,0.496-0.936,0.639
		c-0.332,0.142-0.688,0.212-1.066,0.212c-0.664,0-1.189-0.181-1.57-0.54c-0.385-0.361-0.576-0.817-0.576-1.37
		c0-0.363,0.088-0.689,0.262-0.976c0.176-0.287,0.42-0.505,0.732-0.656c0.314-0.151,0.77-0.284,1.361-0.398
		c0.797-0.149,1.352-0.291,1.658-0.42v-0.17c0-0.33-0.08-0.562-0.242-0.704c-0.162-0.139-0.467-0.209-0.918-0.209
		c-0.305,0-0.543,0.06-0.713,0.181C143.562,46.644,143.426,46.854,143.32,47.154z"/>
	<path d="M150.607,51.643h-1.709v-6.459h1.586v0.918c0.273-0.435,0.518-0.721,0.734-0.857c0.217-0.138,0.463-0.208,0.738-0.208
		c0.391,0,0.764,0.108,1.125,0.324l-0.529,1.488c-0.287-0.185-0.555-0.278-0.801-0.278c-0.242,0-0.443,0.064-0.609,0.197
		c-0.168,0.131-0.297,0.37-0.393,0.715c-0.096,0.344-0.143,1.067-0.143,2.165V51.643z"/>
	<polygon points="153.758,51.643 153.758,42.726 155.469,42.726 155.469,47.457 157.467,45.184 159.572,45.184 157.365,47.542 
		159.73,51.643 157.889,51.643 156.264,48.742 155.469,49.575 155.469,51.643 	"/>
	<path d="M160.748,45.184h1.709v6.459h-1.709V45.184z M160.748,42.726h1.709v1.582h-1.709V42.726z"/>
	<path d="M170.086,51.643h-1.709v-3.297c0-0.697-0.039-1.148-0.111-1.354c-0.072-0.204-0.193-0.363-0.357-0.478
		c-0.164-0.112-0.359-0.17-0.592-0.17c-0.297,0-0.562,0.081-0.797,0.242c-0.234,0.164-0.396,0.378-0.482,0.646
		c-0.088,0.268-0.131,0.762-0.131,1.484v2.925h-1.709v-6.459h1.586v0.949c0.564-0.731,1.275-1.097,2.131-1.097
		c0.375,0,0.721,0.068,1.033,0.203c0.311,0.138,0.549,0.31,0.707,0.521c0.16,0.212,0.273,0.45,0.336,0.719
		c0.064,0.268,0.096,0.649,0.096,1.148V51.643z"/>
	<path d="M173.188,48.279c0,0.686,0.133,1.188,0.398,1.506c0.266,0.317,0.592,0.478,0.982,0.478c0.416,0,0.77-0.164,1.059-0.49
		c0.285-0.326,0.432-0.81,0.432-1.451c0-0.669-0.139-1.165-0.416-1.489c-0.273-0.326-0.623-0.487-1.043-0.487
		c-0.412,0-0.748,0.159-1.014,0.478C173.32,47.142,173.188,47.625,173.188,48.279 M171.66,52.068l1.953,0.237
		c0.033,0.228,0.107,0.384,0.223,0.469c0.162,0.122,0.42,0.183,0.768,0.183c0.445,0,0.781-0.066,1.004-0.201
		c0.15-0.089,0.264-0.232,0.342-0.432c0.051-0.142,0.078-0.403,0.078-0.785v-0.942c-0.512,0.697-1.156,1.046-1.936,1.046
		c-0.867,0-1.555-0.367-2.061-1.101c-0.396-0.581-0.598-1.302-0.598-2.165c0-1.084,0.262-1.91,0.783-2.483
		c0.521-0.571,1.17-0.857,1.943-0.857c0.797,0,1.459,0.352,1.977,1.053v-0.905h1.6v5.797c0,0.762-0.062,1.331-0.189,1.709
		c-0.125,0.378-0.301,0.673-0.527,0.889c-0.229,0.214-0.531,0.382-0.91,0.505c-0.379,0.12-0.859,0.182-1.438,0.182
		c-1.096,0-1.873-0.188-2.33-0.562c-0.459-0.376-0.688-0.851-0.688-1.426C171.654,52.219,171.656,52.149,171.66,52.068z"/>
	<path d="M147.82,64.695c0,0.669,0.107,1.163,0.316,1.484c0.297,0.455,0.689,0.682,1.182,0.682c0.375,0,0.697-0.162,0.963-0.484
		c0.266-0.321,0.398-0.83,0.398-1.523c0-0.737-0.135-1.271-0.402-1.597c-0.266-0.326-0.607-0.49-1.027-0.49
		c-0.41,0-0.75,0.16-1.021,0.478C147.955,63.563,147.82,64.046,147.82,64.695 M146.125,68.065v-8.918h1.709v3.212
		c0.527-0.6,1.15-0.901,1.873-0.901c0.787,0,1.436,0.287,1.953,0.855c0.516,0.569,0.771,1.388,0.771,2.455
		c0,1.103-0.264,1.953-0.787,2.549c-0.525,0.597-1.164,0.894-1.914,0.894c-0.369,0-0.732-0.092-1.092-0.276
		s-0.668-0.457-0.928-0.818v0.949H146.125z"/>
	<path d="M157.369,64.963c-0.217,0.073-0.564,0.16-1.039,0.262c-0.475,0.103-0.783,0.202-0.93,0.297
		c-0.223,0.16-0.336,0.359-0.336,0.603c0,0.241,0.09,0.446,0.27,0.621c0.178,0.174,0.404,0.261,0.68,0.261
		c0.311,0,0.602-0.102,0.883-0.303c0.207-0.153,0.342-0.343,0.406-0.566c0.047-0.146,0.066-0.424,0.066-0.833V64.963z
		 M155.084,63.576l-1.551-0.28c0.174-0.625,0.473-1.086,0.898-1.387c0.428-0.299,1.059-0.45,1.898-0.45
		c0.764,0,1.33,0.091,1.705,0.271c0.371,0.181,0.635,0.409,0.785,0.688c0.152,0.278,0.229,0.787,0.229,1.53l-0.018,1.995
		c0,0.566,0.027,0.986,0.082,1.256c0.055,0.268,0.158,0.559,0.309,0.866h-1.693c-0.043-0.114-0.1-0.283-0.164-0.505
		c-0.027-0.102-0.047-0.168-0.061-0.201c-0.291,0.284-0.604,0.496-0.936,0.64c-0.332,0.142-0.688,0.212-1.064,0.212
		c-0.664,0-1.189-0.181-1.572-0.54c-0.385-0.361-0.574-0.818-0.574-1.37c0-0.363,0.086-0.689,0.262-0.977
		c0.174-0.286,0.418-0.504,0.732-0.656c0.312-0.151,0.768-0.284,1.359-0.398c0.797-0.149,1.352-0.291,1.658-0.419V63.68
		c0-0.329-0.08-0.562-0.242-0.703c-0.162-0.14-0.467-0.21-0.918-0.21c-0.305,0-0.541,0.06-0.711,0.181
		C155.326,63.065,155.189,63.275,155.084,63.576z"/>
	<path d="M159.926,61.606h1.818l1.545,4.586l1.51-4.586h1.77l-2.279,6.216l-0.41,1.126c-0.148,0.375-0.293,0.664-0.428,0.863
		c-0.137,0.199-0.293,0.359-0.469,0.483c-0.178,0.123-0.393,0.221-0.65,0.289s-0.549,0.104-0.875,0.104s-0.648-0.035-0.967-0.104
		l-0.15-1.34c0.268,0.055,0.508,0.079,0.725,0.079c0.396,0,0.691-0.116,0.881-0.349s0.338-0.529,0.439-0.891L159.926,61.606z"/>
</g>
</svg>
