<?xml version="1.0" encoding="utf-8"?>
<!-- Generator: Adobe Illustrator 16.0.0, SVG Export Plug-In . SVG Version: 6.00 Build 0)  -->
<!DOCTYPE svg PUBLIC "-//W3C//DTD SVG 1.1//EN" "http://www.w3.org/Graphics/SVG/1.1/DTD/svg11.dtd">
<svg version="1.1" id="Layer_1" xmlns="http://www.w3.org/2000/svg" xmlns:xlink="http://www.w3.org/1999/xlink" x="0px" y="0px"
	 width="200px" height="200px" viewBox="0 0 200 200" enable-background="new 0 0 200 200" xml:space="preserve">
<g>
	<g>
		<g>
			<path fill="none" stroke="#005CB9" stroke-width="0.5507" stroke-miterlimit="10" d="M195,163.333
				c0,4.354-3.562,7.917-7.917,7.917H12.917c-4.354,0-7.917-3.562-7.917-7.917V36.667c0-4.354,3.562-7.917,7.917-7.917h174.167
				c4.354,0,7.917,3.562,7.917,7.917V163.333z"/>
		</g>
		<g>
			<path fill="#005CB9" d="M12.917,167.291c-2.177,0-3.958-1.781-3.958-3.958V36.667c0-2.177,1.781-3.958,3.958-3.958h174.167
				c2.177,0,3.958,1.781,3.958,3.958v126.666c0,2.177-1.781,3.958-3.958,3.958H12.917z"/>
		</g>
	</g>
	<g>
		<path fill="#FFFFFF" d="M90.418,49.022L80.334,92.477H69.025l-5.96-29.192l-6.128,29.192h-11.31l-9.972-43.454h9.304l6.741,29.416
			l6.128-29.416h10.417l6.017,29.416l6.908-29.416H90.418z"/>
		<path fill="#FFFFFF" d="M129.025,92.477h-9.86l-2.284-7.688H100.78l-2.284,7.688h-9.749l14.262-43.454h11.643L129.025,92.477z
			 M114.485,77.1l-5.683-18.663L103.12,77.1H114.485z"/>
		<path fill="#FFFFFF" d="M164.346,49.022L149.861,75.15v17.326h-8.914V75.15l-14.596-26.128h10.306l8.719,15.933l8.663-15.933
			H164.346z"/>
		<path fill="#FFFFFF" d="M80.696,128.137c0,3.417-0.538,6.527-1.615,9.331c-1.078,2.805-2.554,5.209-4.429,7.215
			c-1.876,2.005-4.077,3.557-6.602,4.651c-2.526,1.095-5.218,1.644-8.078,1.644c-2.86,0-5.553-0.558-8.078-1.672
			c-2.526-1.113-4.727-2.674-6.602-4.68c-1.875-2.005-3.352-4.409-4.429-7.214c-1.078-2.804-1.616-5.896-1.616-9.275
			c0-3.566,0.538-6.76,1.616-9.583c1.077-2.821,2.553-5.227,4.429-7.214c1.875-1.986,4.076-3.5,6.602-4.541
			c2.525-1.039,5.218-1.56,8.078-1.56c2.748,0,5.366,0.511,7.855,1.532c2.488,1.021,4.68,2.507,6.574,4.457
			c1.895,1.949,3.407,4.346,4.54,7.187S80.659,124.497,80.696,128.137z M70.892,128.137c0-2.303-0.278-4.336-0.835-6.101
			c-0.557-1.764-1.319-3.24-2.284-4.429c-0.966-1.188-2.108-2.09-3.426-2.702c-1.319-0.613-2.758-0.919-4.318-0.919
			c-1.523,0-2.98,0.297-4.374,0.891c-1.393,0.595-2.618,1.486-3.676,2.674c-1.059,1.189-1.904,2.666-2.536,4.43
			c-0.632,1.764-0.947,3.816-0.947,6.156c0,2.228,0.307,4.225,0.919,5.988c0.613,1.765,1.448,3.241,2.507,4.429
			c1.059,1.189,2.293,2.099,3.705,2.73c1.411,0.632,2.878,0.947,4.401,0.947c1.56,0,2.999-0.325,4.318-0.976
			c1.317-0.649,2.46-1.578,3.426-2.785c0.965-1.206,1.727-2.683,2.284-4.429C70.613,132.297,70.892,130.328,70.892,128.137z"/>
		<path fill="#FFFFFF" d="M123.594,131.089c0,3.528-0.513,6.527-1.535,8.997c-1.021,2.471-2.371,4.504-4.044,6.101
			c-1.674,1.597-3.591,2.768-5.748,3.51s-4.371,1.114-6.64,1.114c-2.231,0.036-4.417-0.372-6.557-1.226
			c-2.139-0.854-4.055-2.117-5.747-3.789c-1.691-1.671-3.05-3.75-4.072-6.239c-1.023-2.487-1.535-5.366-1.535-8.635l-0.056-24.624
			h9.081l-0.056,26.239c0,1.56,0.297,2.925,0.891,4.095s1.328,2.136,2.201,2.897c0.872,0.762,1.829,1.328,2.869,1.698
			c1.039,0.372,2.006,0.558,2.896,0.558c1.114,0,2.22-0.204,3.315-0.612c1.095-0.408,2.079-1.012,2.952-1.812
			c0.873-0.798,1.568-1.782,2.089-2.952c0.52-1.17,0.78-2.535,0.78-4.095c0-1.485,0-2.841,0-4.066s0-2.619,0-4.179
			c0-1.561,0-3.156,0-4.791c0-3.825,0.019-8.151,0.056-12.98h8.858V131.089z"/>
		<path fill="#FFFFFF" d="M162.145,114.877h-12.201v34.875h-8.913v-34.875h-12.2v-8.579h33.314V114.877z"/>
	</g>
</g>
</svg>
