<?xml version="1.0" encoding="utf-8"?>
<!-- Generator: Adobe Illustrator 16.0.0, SVG Export Plug-In . SVG Version: 6.00 Build 0)  -->
<!DOCTYPE svg PUBLIC "-//W3C//DTD SVG 1.1//EN" "http://www.w3.org/Graphics/SVG/1.1/DTD/svg11.dtd">
<svg version="1.1" id="Layer_1" xmlns="http://www.w3.org/2000/svg" xmlns:xlink="http://www.w3.org/1999/xlink" x="0px" y="0px"
	 width="200px" height="200px" viewBox="0 -25 200 200" enable-background="new 0 -25 200 200" xml:space="preserve">
<g>
	<rect x="5" y="44.365" fill="#FFFFFF" width="136.473" height="101.941"/>
	<rect x="5" y="44.365" fill="none" stroke="#000000" stroke-miterlimit="22.9256" width="136.473" height="101.941"/>
	<path fill="#006EC7" d="M13.631,48.43h118.653c2.687,0,4.885,2.199,4.885,4.886v84.252c0,2.689-2.198,4.885-4.885,4.885H13.631
		c-2.688,0-4.886-2.198-4.886-4.885V53.316C8.745,50.629,10.943,48.43,13.631,48.43"/>
	<polygon fill="#FFFFFF" points="108.737,56.6 85.671,56.6 100.796,74.238 14.372,74.238 14.372,95.442 100.796,95.442 
		85.671,113.08 108.737,113.08 132.949,84.842 	"/>
	<polygon fill="#FFFFFF" points="35.069,136.604 31.237,136.604 28.262,124.663 28.219,124.663 25.294,136.604 21.384,136.604 
		16.745,119.067 20.604,119.067 23.377,131.002 23.427,131.002 26.472,119.067 30.083,119.067 33.078,131.15 33.131,131.15 
		36.003,119.067 39.787,119.067 	"/>
	<path fill="#FFFFFF" d="M46.343,119.067h3.959l6.56,17.537h-4.008L51.53,132.7h-6.56l-1.377,3.904h-3.903L46.343,119.067z
		 M45.975,129.823h4.545l-2.211-6.438H48.26L45.975,129.823z"/>
	<polygon fill="#FFFFFF" points="62.923,129.773 56.467,119.067 60.812,119.067 64.917,125.992 68.994,119.067 73.293,119.067 
		66.784,129.873 66.784,136.604 62.923,136.604 	"/>
	<path fill="#FFFFFF" d="M89.454,118.646c5.427,0,8.622,4.052,8.622,9.263c0,5.058-3.195,9.111-8.622,9.111
		c-5.429,0-8.623-4.054-8.623-9.111C80.833,122.698,84.025,118.646,89.454,118.646 M89.454,133.779c3.465,0,4.766-2.947,4.766-5.868
		c0-3.072-1.301-6.021-4.766-6.021c-3.461,0-4.765,2.948-4.765,6.021C84.689,130.832,85.993,133.779,89.454,133.779z"/>
	<path fill="#FFFFFF" d="M115.591,129.973c0,4.739-2.804,7.05-7.494,7.05c-4.712,0-7.467-2.287-7.467-7.05v-10.905h3.861v10.905
		c0,1.916,0.488,3.807,3.607,3.807c2.754,0,3.637-1.202,3.637-3.807v-10.905h3.856L115.591,129.973L115.591,129.973z"/>
	<polygon fill="#FFFFFF" points="122.789,122.309 117.534,122.309 117.534,119.067 131.904,119.067 131.904,122.309 
		126.644,122.309 126.644,136.604 122.789,136.604 	"/>
	<path d="M89.545,90.3c-2.867-0.003-5.208-2.324-5.208-5.171V8.805c0-2.758,2.293-5.062,5.122-5.11h100.418
		C192.705,3.743,195,6.047,195,8.805v76.324c0,2.847-2.342,5.168-5.211,5.171H89.545z"/>
	<path fill="#FFFFFF" d="M189.316,87.319c1.456,0,2.613-1.15,2.613-2.533V9.149c0-1.382-1.158-2.532-2.613-2.532H89.921
		c-1.454,0-2.614,1.15-2.614,2.532v75.637c0,1.383,1.16,2.533,2.614,2.533H189.316z"/>
	<path fill="#006EC7" d="M92.602,13.679L92.602,13.679c0-1.32,1.071-2.391,2.39-2.391h28.797c1.367,0,2.448,1.082,2.448,2.391
		v28.793c0,1.308-1.081,2.388-2.448,2.388H94.991c-1.308,0-2.39-1.08-2.39-2.388V13.679z"/>
	<path fill="#FFFFFF" d="M101.479,15.67h13.83v0.057c2.954,0,5.349,2.397,5.349,5.349l-0.058,4.838c0,2.953-2.37,5.348-5.291,5.348
		h-8.48v10.016h-5.35V15.67v15.591V15.67z M112.748,19.825h-5.919v7.227h5.919c1.392,0,2.528-1.112,2.562-2.503v-2.163
		C115.31,20.972,114.162,19.825,112.748,19.825z"/>
	<path fill="#F99E0D" d="M126.18,51.463L126.18,51.463c0-1.318-1.071-2.39-2.392-2.39H94.991c-1.308,0-2.39,1.081-2.39,2.39v28.794
		c0,1.363,1.083,2.388,2.39,2.388h28.797c1.367,0,2.448-1.025,2.448-2.388L126.18,51.463z"/>
	<path d="M116.617,75.193l0.012,0.009c-1.528,3.743-5.202,6.193-9.285,6.193c-5.531,0-10.018-4.438-10.018-9.902
		c0-3.672,2.058-7.046,5.343-8.759l0.293,2.845c-1.898,1.382-3.021,3.578-3.021,5.914c0,4.051,3.316,7.339,7.401,7.339
		c4.082,0,7.397-3.288,7.397-7.339c0-0.077-0.002-0.153-0.004-0.23L116.617,75.193z"/>
	<path d="M103.245,52.716l-0.058,0.056c0-0.019,0-0.037,0-0.056c0-1.636,1.353-2.959,3.016-2.959c1.666,0,3.017,1.324,3.017,2.959
		c0,1.633-1.351,2.959-3.017,2.959c-0.037,0-0.076-0.003-0.115-0.003l0.002,0.059l0.398,5.805h7.854v2.443h-7.741l0.114,2.109
		h10.129l4.215,9.104l2.786-1.252l0.969,1.992l-5.407,2.332l-4.267-9.616h-10.927l-1.026-15.875L103.245,52.716z"/>
	<path d="M134.443,25.411v6.205h1.412c0.527,0,0.909-0.028,1.146-0.09c0.306-0.076,0.56-0.204,0.763-0.387s0.369-0.487,0.496-0.905
		c0.126-0.419,0.193-0.993,0.193-1.717c0-0.724-0.065-1.28-0.193-1.668s-0.306-0.691-0.537-0.908
		c-0.231-0.218-0.523-0.365-0.878-0.44c-0.263-0.061-0.78-0.089-1.552-0.089H134.443z M132.551,23.825h3.458
		c0.78,0,1.374,0.06,1.784,0.18c0.55,0.161,1.02,0.45,1.412,0.864c0.392,0.413,0.691,0.918,0.897,1.515
		c0.2,0.601,0.304,1.338,0.304,2.217c0,0.77-0.095,1.435-0.286,1.995c-0.234,0.68-0.566,1.232-1.004,1.653
		c-0.327,0.321-0.77,0.569-1.328,0.75c-0.416,0.132-0.979,0.197-1.679,0.197h-3.559V23.825L132.551,23.825z"/>
	<path d="M141.998,26.41h1.796v6.788h-1.796V26.41z M141.998,23.825h1.796v1.662h-1.796V23.825z"/>
	<path d="M145.003,31.259l1.803-0.275c0.075,0.349,0.231,0.616,0.468,0.796c0.233,0.181,0.561,0.273,0.983,0.273
		c0.466,0,0.814-0.085,1.049-0.257c0.157-0.118,0.235-0.28,0.235-0.479c0-0.138-0.043-0.25-0.127-0.339
		c-0.09-0.085-0.29-0.164-0.601-0.237c-1.45-0.319-2.366-0.61-2.754-0.875c-0.539-0.367-0.808-0.877-0.808-1.529
		c0-0.587,0.232-1.082,0.695-1.481c0.466-0.402,1.187-0.602,2.161-0.602c0.931,0,1.623,0.153,2.074,0.454
		c0.453,0.303,0.763,0.75,0.933,1.345l-1.693,0.312c-0.071-0.265-0.209-0.467-0.412-0.607c-0.203-0.143-0.491-0.212-0.866-0.212
		c-0.474,0-0.812,0.066-1.019,0.199c-0.134,0.093-0.2,0.215-0.2,0.364c0,0.128,0.057,0.236,0.178,0.326
		c0.162,0.119,0.721,0.287,1.678,0.506c0.956,0.215,1.623,0.482,2.003,0.799c0.376,0.321,0.562,0.766,0.562,1.335
		c0,0.622-0.259,1.159-0.78,1.605c-0.52,0.448-1.287,0.671-2.307,0.671c-0.926,0-1.656-0.188-2.196-0.563
		C145.521,32.414,145.17,31.902,145.003,31.259"/>
	<path d="M156.661,29.936c-0.229,0.077-0.593,0.168-1.094,0.275c-0.497,0.108-0.821,0.212-0.977,0.313
		c-0.232,0.167-0.352,0.376-0.352,0.632c0,0.253,0.095,0.469,0.281,0.653c0.189,0.183,0.427,0.274,0.717,0.274
		c0.325,0,0.633-0.107,0.928-0.318c0.218-0.161,0.36-0.359,0.427-0.595c0.047-0.153,0.069-0.445,0.069-0.875V29.936L156.661,29.936z
		 M154.26,28.479l-1.629-0.294c0.183-0.657,0.496-1.142,0.943-1.458c0.45-0.314,1.112-0.473,1.992-0.473
		c0.806,0,1.399,0.096,1.792,0.284c0.392,0.189,0.669,0.43,0.827,0.724c0.159,0.292,0.241,0.827,0.241,1.608l-0.02,2.096
		c0,0.595,0.025,1.036,0.086,1.32c0.058,0.283,0.165,0.588,0.322,0.911h-1.776c-0.045-0.12-0.105-0.297-0.172-0.531
		c-0.029-0.107-0.05-0.177-0.065-0.211c-0.308,0.298-0.634,0.521-0.982,0.672c-0.35,0.149-0.724,0.223-1.121,0.223
		c-0.697,0-1.249-0.19-1.649-0.567c-0.404-0.38-0.605-0.86-0.605-1.44c0-0.382,0.093-0.724,0.275-1.027
		c0.183-0.301,0.441-0.53,0.77-0.688c0.329-0.16,0.809-0.3,1.43-0.419c0.838-0.157,1.421-0.306,1.742-0.441v-0.178
		c0-0.347-0.084-0.592-0.254-0.74c-0.17-0.146-0.493-0.221-0.965-0.221c-0.32,0-0.57,0.064-0.749,0.19
		C154.515,27.943,154.371,28.163,154.26,28.479z"/>
	<path d="M161.905,29.655c0,0.703,0.111,1.223,0.331,1.56c0.312,0.479,0.724,0.717,1.241,0.717c0.395,0,0.733-0.17,1.013-0.508
		c0.278-0.338,0.418-0.873,0.418-1.601c0-0.774-0.143-1.335-0.423-1.678c-0.279-0.343-0.638-0.515-1.079-0.515
		c-0.432,0-0.788,0.168-1.073,0.502C162.047,28.465,161.905,28.973,161.905,29.655 M160.122,33.197v-9.372h1.796v3.375
		c0.554-0.63,1.209-0.946,1.969-0.946c0.827,0,1.508,0.3,2.052,0.898c0.542,0.597,0.813,1.458,0.813,2.579
		c0,1.159-0.278,2.053-0.829,2.679c-0.553,0.627-1.224,0.939-2.01,0.939c-0.39,0-0.771-0.097-1.149-0.291
		c-0.376-0.194-0.702-0.48-0.976-0.859v0.998L160.122,33.197L160.122,33.197z"/>
	<rect x="168.194" y="23.825" width="1.796" height="9.372"/>
	<path d="M175.865,29.221c-0.013-0.521-0.147-0.916-0.402-1.186c-0.255-0.271-0.567-0.407-0.936-0.407
		c-0.392,0-0.715,0.145-0.971,0.43c-0.255,0.284-0.382,0.673-0.377,1.162L175.865,29.221L175.865,29.221z M175.762,31.036
		l1.792,0.299c-0.231,0.657-0.593,1.157-1.092,1.5c-0.494,0.345-1.115,0.515-1.863,0.515c-1.181,0-2.052-0.384-2.618-1.157
		c-0.448-0.618-0.675-1.399-0.675-2.339c0-1.126,0.296-2.007,0.885-2.645c0.588-0.637,1.331-0.956,2.229-0.956
		c1.01,0,1.807,0.333,2.391,1.001c0.583,0.668,0.862,1.688,0.838,3.065h-4.499c0.013,0.532,0.156,0.946,0.433,1.241
		c0.278,0.297,0.624,0.446,1.037,0.446c0.281,0,0.517-0.076,0.708-0.229C175.52,31.624,175.666,31.377,175.762,31.036z"/>
	<path d="M180.545,29.655c0,0.724,0.102,1.249,0.301,1.573c0.288,0.467,0.694,0.703,1.214,0.703c0.414,0,0.766-0.176,1.057-0.528
		c0.287-0.351,0.433-0.876,0.433-1.575c0-0.779-0.142-1.341-0.42-1.685c-0.281-0.343-0.642-0.516-1.081-0.516
		c-0.427,0-0.782,0.17-1.07,0.509C180.688,28.475,180.545,28.981,180.545,29.655 M185.339,33.197h-1.669V32.2
		c-0.274,0.389-0.603,0.677-0.98,0.866c-0.379,0.188-0.759,0.285-1.142,0.285c-0.779,0-1.449-0.314-2.005-0.943
		c-0.555-0.628-0.833-1.506-0.833-2.629c0-1.152,0.271-2.027,0.812-2.624c0.541-0.598,1.226-0.898,2.053-0.898
		c0.758,0,1.415,0.316,1.968,0.946v-3.375h1.796L185.339,33.197L185.339,33.197z"/>
	<path d="M137.912,46.947c0,0.762,0.149,1.326,0.453,1.688c0.302,0.365,0.669,0.548,1.106,0.548c0.417,0,0.765-0.168,1.041-0.502
		c0.276-0.334,0.416-0.884,0.416-1.645c0-0.715-0.144-1.242-0.429-1.587c-0.287-0.345-0.641-0.517-1.062-0.517
		c-0.438,0-0.802,0.168-1.094,0.509C138.056,45.778,137.912,46.28,137.912,46.947 M136.133,43.667h1.677v0.997
		c0.215-0.342,0.511-0.62,0.88-0.832c0.373-0.214,0.784-0.321,1.237-0.321c0.788,0,1.457,0.31,2.004,0.928
		c0.55,0.617,0.825,1.479,0.825,2.583c0,1.132-0.277,2.013-0.829,2.643c-0.554,0.628-1.228,0.941-2.014,0.941
		c-0.375,0-0.717-0.074-1.022-0.223c-0.304-0.15-0.624-0.406-0.962-0.767v3.421h-1.796V43.667L136.133,43.667z"/>
	<path d="M147.926,47.195c-0.228,0.075-0.593,0.168-1.092,0.275c-0.5,0.107-0.823,0.211-0.98,0.312
		c-0.231,0.167-0.351,0.377-0.351,0.634c0,0.252,0.096,0.468,0.282,0.651c0.188,0.184,0.427,0.275,0.717,0.275
		c0.324,0,0.632-0.107,0.928-0.318c0.217-0.162,0.358-0.361,0.427-0.596c0.049-0.153,0.069-0.444,0.069-0.875V47.195z
		 M145.524,45.737l-1.63-0.295c0.183-0.656,0.497-1.14,0.943-1.458c0.45-0.314,1.113-0.473,1.994-0.473
		c0.804,0,1.397,0.097,1.79,0.286c0.392,0.189,0.669,0.429,0.827,0.722c0.16,0.292,0.241,0.827,0.241,1.608l-0.02,2.098
		c0,0.595,0.026,1.035,0.086,1.32c0.058,0.282,0.166,0.587,0.322,0.909h-1.776c-0.045-0.12-0.104-0.297-0.173-0.53
		c-0.027-0.108-0.049-0.178-0.063-0.211c-0.309,0.299-0.635,0.521-0.984,0.672c-0.349,0.149-0.722,0.223-1.12,0.223
		c-0.697,0-1.249-0.19-1.649-0.567c-0.404-0.379-0.605-0.858-0.605-1.44c0-0.381,0.094-0.724,0.276-1.026
		c0.185-0.301,0.441-0.53,0.769-0.689c0.329-0.159,0.81-0.299,1.43-0.418c0.838-0.157,1.421-0.306,1.742-0.441v-0.179
		c0-0.346-0.084-0.591-0.254-0.739c-0.17-0.146-0.491-0.22-0.965-0.22c-0.32,0-0.571,0.062-0.749,0.19
		C145.779,45.201,145.636,45.422,145.524,45.737z"/>
	<path d="M153.183,50.455h-1.796v-6.788h1.666v0.965c0.287-0.458,0.544-0.758,0.771-0.901c0.229-0.145,0.487-0.218,0.775-0.218
		c0.412,0,0.804,0.113,1.183,0.34l-0.557,1.564c-0.301-0.194-0.583-0.292-0.842-0.292c-0.254,0-0.465,0.067-0.639,0.208
		c-0.177,0.138-0.312,0.389-0.414,0.751s-0.15,1.122-0.15,2.275v2.097H153.183z"/>
	<polygon points="156.493,50.455 156.493,41.084 158.291,41.084 158.291,46.056 160.391,43.667 162.604,43.667 160.284,46.145 
		162.77,50.455 160.834,50.455 159.127,47.406 158.291,48.281 158.291,50.455 	"/>
	<path d="M163.839,43.667h1.796v6.788h-1.796V43.667z M163.839,41.084h1.796v1.663h-1.796V41.084z"/>
	<path d="M173.652,50.455h-1.796V46.99c0-0.732-0.041-1.206-0.117-1.423c-0.076-0.214-0.202-0.382-0.375-0.502
		c-0.172-0.118-0.377-0.179-0.623-0.179c-0.312,0-0.59,0.085-0.837,0.254c-0.245,0.172-0.416,0.397-0.506,0.679
		c-0.093,0.282-0.138,0.801-0.138,1.56v3.074h-1.796v-6.788h1.667v0.997c0.592-0.769,1.339-1.153,2.239-1.153
		c0.394,0,0.758,0.071,1.086,0.213c0.326,0.146,0.576,0.326,0.742,0.548c0.168,0.223,0.287,0.473,0.354,0.756
		c0.066,0.282,0.101,0.682,0.101,1.206L173.652,50.455L173.652,50.455z"/>
	<path d="M176.911,46.919c0,0.721,0.14,1.249,0.419,1.583c0.279,0.333,0.622,0.502,1.032,0.502c0.438,0,0.809-0.172,1.112-0.515
		c0.3-0.343,0.454-0.851,0.454-1.525c0-0.703-0.146-1.224-0.438-1.564c-0.286-0.343-0.654-0.512-1.096-0.512
		c-0.433,0-0.786,0.167-1.065,0.502C177.051,45.725,176.911,46.232,176.911,46.919 M175.307,50.901l2.053,0.25
		c0.034,0.24,0.112,0.403,0.233,0.493c0.171,0.128,0.441,0.192,0.807,0.192c0.468,0,0.821-0.069,1.055-0.211
		c0.158-0.093,0.278-0.244,0.36-0.454c0.054-0.149,0.081-0.424,0.081-0.825v-0.99c-0.537,0.732-1.214,1.099-2.034,1.099
		c-0.911,0-1.633-0.386-2.165-1.157c-0.417-0.61-0.628-1.368-0.628-2.275c0-1.139,0.275-2.007,0.822-2.609
		c0.547-0.6,1.23-0.9,2.042-0.9c0.838,0,1.533,0.37,2.078,1.106v-0.951h1.681v6.092c0,0.801-0.065,1.399-0.198,1.796
		c-0.132,0.397-0.316,0.708-0.555,0.935c-0.24,0.225-0.558,0.401-0.956,0.53c-0.398,0.126-0.902,0.191-1.511,0.191
		c-1.151,0-1.969-0.197-2.449-0.59c-0.482-0.395-0.722-0.895-0.722-1.499C175.301,51.06,175.303,50.986,175.307,50.901z"/>
	<path d="M150.254,64.17c0,0.704,0.111,1.222,0.332,1.56c0.312,0.478,0.724,0.716,1.242,0.716c0.394,0,0.732-0.17,1.012-0.509
		c0.279-0.337,0.419-0.872,0.419-1.6c0-0.774-0.143-1.336-0.423-1.679c-0.279-0.342-0.639-0.515-1.08-0.515
		c-0.431,0-0.788,0.168-1.073,0.502C150.396,62.981,150.254,63.488,150.254,64.17 M148.472,67.712V58.34h1.796v3.375
		c0.555-0.631,1.209-0.947,1.969-0.947c0.827,0,1.509,0.302,2.053,0.898c0.542,0.598,0.811,1.459,0.811,2.58
		c0,1.159-0.278,2.052-0.827,2.678c-0.552,0.628-1.224,0.939-2.012,0.939c-0.388,0-0.77-0.096-1.147-0.29
		c-0.38-0.193-0.702-0.48-0.976-0.859v0.997L148.472,67.712L148.472,67.712z"/>
	<path d="M160.288,64.452c-0.228,0.077-0.593,0.168-1.092,0.275c-0.499,0.108-0.823,0.212-0.977,0.312
		c-0.235,0.168-0.354,0.377-0.354,0.634c0,0.253,0.095,0.469,0.283,0.653c0.187,0.183,0.425,0.274,0.715,0.274
		c0.327,0,0.633-0.107,0.928-0.318c0.217-0.161,0.358-0.36,0.427-0.594c0.049-0.154,0.069-0.446,0.069-0.875V64.452z
		 M157.887,62.995l-1.63-0.295c0.183-0.657,0.497-1.141,0.944-1.457c0.449-0.314,1.112-0.473,1.994-0.473
		c0.803,0,1.397,0.095,1.792,0.285c0.389,0.19,0.667,0.43,0.824,0.723c0.16,0.292,0.241,0.827,0.241,1.608l-0.02,2.096
		c0,0.595,0.028,1.037,0.086,1.32c0.059,0.281,0.166,0.587,0.325,0.91h-1.778c-0.045-0.12-0.105-0.297-0.173-0.53
		c-0.028-0.107-0.049-0.177-0.064-0.211c-0.306,0.298-0.635,0.521-0.984,0.672c-0.349,0.149-0.722,0.223-1.117,0.223
		c-0.698,0-1.249-0.19-1.651-0.567c-0.405-0.379-0.604-0.859-0.604-1.44c0-0.381,0.091-0.724,0.275-1.026
		c0.183-0.301,0.439-0.53,0.77-0.69c0.327-0.158,0.807-0.298,1.428-0.418c0.837-0.157,1.421-0.306,1.742-0.44v-0.18
		c0-0.346-0.084-0.59-0.254-0.739c-0.171-0.147-0.491-0.221-0.965-0.221c-0.321,0-0.568,0.063-0.747,0.19
		C158.142,62.458,157.998,62.678,157.887,62.995z"/>
	<path d="M162.975,60.924h1.911l1.624,4.819l1.586-4.819h1.859l-2.394,6.533l-0.432,1.183c-0.154,0.394-0.308,0.697-0.449,0.907
		c-0.145,0.209-0.308,0.377-0.493,0.508c-0.188,0.129-0.413,0.232-0.683,0.304c-0.271,0.071-0.577,0.109-0.92,0.109
		s-0.681-0.037-1.016-0.109l-0.158-1.408c0.282,0.058,0.535,0.083,0.763,0.083c0.415,0,0.726-0.122,0.926-0.367
		c0.199-0.245,0.354-0.556,0.462-0.937L162.975,60.924z"/>
</g>
</svg>
