<?xml version="1.0" encoding="utf-8"?>
<!-- Generator: Adobe Illustrator 16.0.0, SVG Export Plug-In . SVG Version: 6.00 Build 0)  -->
<!DOCTYPE svg PUBLIC "-//W3C//DTD SVG 1.1//EN" "http://www.w3.org/Graphics/SVG/1.1/DTD/svg11.dtd">
<svg version="1.1" id="Layer_1" xmlns="http://www.w3.org/2000/svg" xmlns:xlink="http://www.w3.org/1999/xlink" x="0px" y="0px"
	 width="200px" height="200px" viewBox="0 0 200 200" enable-background="new 0 0 200 200" xml:space="preserve">
<path fill="#1B171A" d="M5,25.781 M195,25.781H5v148.438h190V25.781z"/>
<rect x="5" y="25.781" fill="#231F20" width="190" height="148.438"/>
<g>
	<path fill="#FFFFFF" d="M13,170.219c-2.2,0-4-1.8-4-4V33.781c0-2.2,1.8-4,4-4h174c2.2,0,4,1.8,4,4v132.438c0,2.2-1.8,4-4,4H13z"/>
</g>
<path fill-rule="evenodd" clip-rule="evenodd" fill="#006AB3" d="M60.408,105.941H45.724v23.65h3.077l4.9,11.082l3.543-1.551
	l1.207,2.701l-6.275,2.789l-5.304-12.035h-1.148v8.188c0.693-1.23,1.114-2.637,1.177-4.131l2.17,4.885
	c-0.786,1.688-1.929,3.166-3.347,4.342v7.576h14.685c2.188,0,3.972-1.77,3.972-3.965v-39.58
	C64.38,107.705,62.596,105.941,60.408,105.941 M45.724,105.941H20.838c-2.185,0-3.966,1.764-3.966,3.951v39.58
	c0,2.195,1.781,3.965,3.966,3.965h24.886v-7.576c-2.173,1.83-4.977,2.926-8.039,2.926c-6.921,0-12.548-5.607-12.548-12.525
	c0-4.951,2.866-9.215,7.06-11.258l0.255,3.682c-2.426,1.676-3.994,4.432-3.994,7.576c0,5.094,4.131,9.211,9.228,9.211
	c3.451,0,6.454-1.9,8.039-4.707v-8.188H34.275l-1.278-18.312v-0.014c0-1.777,1.446-3.225,3.228-3.225
	c1.792,0,3.241,1.447,3.241,3.225c0,1.797-1.449,3.229-3.241,3.229c0,0,0.347,4.855,0.482,6.967h8.716v2.988h-8.508l0.15,2.156
	h8.658V105.941z"/>
<path fill-rule="evenodd" clip-rule="evenodd" fill="#006AB3" d="M43.039,94.058h17.838c1.932,0,3.503-1.568,3.503-3.5V50.059
	c0-1.932-1.571-3.497-3.503-3.497H43.039v5.786h5.156c1.088-0.054,1.722,0.037,2.742,0.381c0.82,0.272,1.258,0.531,1.977,1.012
	c0.773,0.528,1.193,0.892,1.796,1.613c0.514,0.608,0.77,0.978,1.133,1.69c0.273,0.525,0.409,0.844,0.555,1.415
	c0.201,0.679,0.272,1.088,0.292,1.792v5.827c0.058,0.966-0.02,1.52-0.292,2.457c-0.299,1.071-0.646,1.643-1.312,2.549
	c-0.753,1.008-1.275,1.567-2.35,2.229c-0.815,0.512-1.341,0.722-2.278,0.955c-0.781,0.179-1.25,0.224-2.065,0.179h-5.353
	 M43.039,68.624V58.172h2.818c0.546,0.097,0.844,0.216,1.315,0.466c0.452,0.272,0.693,0.457,1.022,0.863
	c0.29,0.333,0.393,0.543,0.571,0.935c0.213,0.498,0.304,0.802,0.378,1.33v3.179c-0.074,0.696-0.21,1.103-0.568,1.705
	c-0.213,0.357-0.363,0.542-0.653,0.841c-0.36,0.352-0.588,0.531-1.022,0.755c-0.512,0.259-0.847,0.347-1.418,0.378H43.039z
	 M20.372,46.562c-1.932,0-3.5,1.565-3.5,3.497v40.499c0,1.932,1.568,3.5,3.5,3.5h22.667v-19.61h-6.107v14.511h-7.557v-36.61h13.664
	v-5.786H20.372z M43.039,68.624h-6.107V58.172h6.107V68.624z"/>
<path fill-rule="evenodd" clip-rule="evenodd" fill="#1B171A" d="M85.042,50.209c2.716,0.423,4.162,2.354,4.162,5.639
	c0,2.025-0.483,3.565-1.393,4.614c-0.673,0.775-1.488,1.167-2.77,1.304v3.435c2.579-0.071,4.193-0.69,5.625-2.122
	c1.719-1.676,2.604-4.147,2.604-7.23c0-3.06-0.966-5.46-2.804-7.119c-1.354-1.25-3.045-1.881-5.426-1.985 M80.892,50.122h2.957
	c0.421,0,0.812,0.028,1.193,0.088v-3.466c-0.244-0.018-0.483-0.028-0.741-0.028h-7.449v18.502h7.551c0.23,0,0.44,0,0.64-0.017
	v-3.435c-0.332,0.025-0.679,0.043-1.085,0.043h-3.065V50.122z"/>
<path fill-rule="evenodd" clip-rule="evenodd" fill="#1B171A" d="M98.798,51.812H95.13v13.405h3.668V51.812z M98.798,46.715H95.13
	v3.147h3.668V46.715z"/>
<path fill-rule="evenodd" clip-rule="evenodd" fill="#1B171A" d="M112.627,55.704c-0.216-2.807-2.177-4.225-5.796-4.225
	c-3.784,0-5.88,1.46-5.88,4.071c0,1.281,0.602,2.366,1.613,2.926c0.815,0.455,1.389,0.634,3.889,1.193
	c2.509,0.571,3.031,0.875,3.031,1.759c0,1.06-0.977,1.693-2.472,1.693c-1.838,0-2.653-0.68-2.852-2.248h-3.515
	c0.185,3.105,2.324,4.722,6.29,4.722c3.818,0,6.213-1.735,6.213-4.497c0-2.292-1.344-3.378-5.232-4.164
	c-2.924-0.603-3.302-0.781-3.302-1.714c0-0.832,0.781-1.267,2.094-1.267c1.568,0,2.296,0.48,2.478,1.75"/>
<path fill-rule="evenodd" clip-rule="evenodd" fill="#1B171A" d="M124.069,60.198c0,1.643-0.997,2.744-2.636,2.952v2.247
	c1.037-0.256,1.914-0.739,2.67-1.489c0,0.525,0.043,0.702,0.271,1.31h3.695c-0.335-0.906-0.438-1.692-0.438-3.588l0.028-5.508
	c0-1.961-0.229-2.622-1.158-3.378c-1.015-0.861-2.625-1.265-4.756-1.265h-0.312v2.475h0.19c1.69,0,2.479,0.554,2.479,1.716
	c0,1.012-0.318,1.238-2.67,1.537v2.17h0.045c1.688-0.267,1.943-0.298,2.591-0.722 M121.434,63.15
	c-0.199,0.031-0.412,0.048-0.619,0.048c-1.242,0-2.023-0.685-2.023-1.795c0-1.239,0.62-1.686,2.643-2.026v-2.17
	c-0.185,0.02-0.378,0.048-0.591,0.076c-1.9,0.259-2.699,0.406-3.406,0.711c-1.6,0.633-2.429,1.823-2.429,3.56
	c0,2.454,1.764,4.042,4.564,4.042c0.685,0,1.287-0.073,1.861-0.198V63.15z M121.434,51.479v2.475
	c-1.515,0.046-2.131,0.616-2.384,1.972h-3.44C115.789,53.059,117.814,51.556,121.434,51.479"/>
<path fill-rule="evenodd" clip-rule="evenodd" fill="#1B171A" d="M136.663,54.309c1.943,0,3.185,1.616,3.185,4.062
	c0,2.607-1.193,4.207-3.201,4.224v2.927c0.304,0.042,0.619,0.073,0.951,0.073c3.562,0,5.958-2.929,5.958-7.27
	c0-4.088-2.321-6.895-5.73-6.895c-0.421,0-0.815,0.048-1.179,0.107v2.771 M136.646,62.595h-0.025c-1.978,0-3.183-1.616-3.183-4.224
	c0-2.475,1.262-4.043,3.208-4.062v-2.771c-1.278,0.242-2.307,0.875-3.06,1.912v-6.735h-3.665v18.502h3.483v-1.692
	c0.741,1.122,1.826,1.795,3.241,1.997V62.595z"/>
<line fill="none" stroke="#1B171A" stroke-width="3.6799" stroke-linejoin="round" x1="147.237" y1="65.217" x2="147.237" y2="46.715"/>
<path fill-rule="evenodd" clip-rule="evenodd" fill="#1B171A" d="M157.598,54.101c0.025,0,0.043-0.011,0.06-0.011
	c1.613,0,2.656,1.085,2.878,3.045h-2.938v2.35h6.693v-0.554c0-4.497-2.622-7.452-6.588-7.452h-0.105 M157.598,65.595V62.97h0.21
	c1.341,0,2.171-0.56,2.728-1.917h3.534c-0.71,2.775-3.156,4.542-6.29,4.542H157.598z M154.672,57.135
	c0.179-1.86,1.312-3.017,2.926-3.034v-2.622c-3.875,0.04-6.682,3.015-6.682,7.068c0,4.182,2.67,6.975,6.682,7.048V62.97
	c-1.841-0.094-2.866-1.31-2.926-3.485h2.926v-2.35H154.672z"/>
<path fill-rule="evenodd" clip-rule="evenodd" fill="#1B171A" d="M173.021,54.309c1.997,0,3.23,1.539,3.23,4.091
	c0,2.653-1.205,4.195-3.23,4.195v2.94c1.435-0.185,2.48-0.86,3.23-2.04v1.722h3.517V46.715h-3.664v6.735
	c-0.693-1.037-1.771-1.704-3.083-1.932 M173.021,54.309v-2.79c-0.312-0.054-0.659-0.088-1.006-0.088
	c-3.514,0-5.883,2.778-5.883,6.94c0,4.372,2.369,7.224,5.988,7.224c0.318,0,0.619-0.031,0.9-0.06v-2.94
	c-2.014,0-3.207-1.567-3.207-4.119C169.813,55.823,170.97,54.309,173.021,54.309"/>
<path fill-rule="evenodd" clip-rule="evenodd" fill="#1B171A" d="M97.831,82.058c1.943,0,3.18,1.616,3.18,4.049
	c0,2.61-1.193,4.221-3.196,4.238v2.926c0.298,0.043,0.619,0.06,0.949,0.06c3.562,0,5.96-2.909,5.96-7.252
	c0-4.092-2.324-6.898-5.733-6.898c-0.409,0-0.798,0.034-1.176,0.108v2.77 M97.814,90.345H97.8c-1.994,0-3.185-1.611-3.185-4.238
	c0-2.458,1.268-4.028,3.199-4.049v-2.77c-1.27,0.225-2.29,0.875-3.045,1.912v-6.736h-3.686V92.97h3.489v-1.69
	c0.735,1.103,1.835,1.775,3.241,1.991V90.345z"/>
<path fill-rule="evenodd" clip-rule="evenodd" fill="#1B171A" d="M115.641,87.948c0,1.645-0.997,2.744-2.642,2.957v2.23
	c1.042-0.245,1.917-0.728,2.67-1.475c0,0.508,0.049,0.704,0.256,1.31h3.713c-0.335-0.909-0.457-1.69-0.457-3.608l0.048-5.505
	c0-1.946-0.224-2.625-1.158-3.367c-1.012-0.857-2.628-1.275-4.75-1.275c-0.108,0-0.214,0.012-0.321,0.012v2.457h0.198
	c1.69,0,2.472,0.58,2.472,1.728c0,1.006-0.315,1.247-2.67,1.551v2.168c0.017,0,0.028-0.012,0.048-0.012
	c1.685-0.258,1.946-0.304,2.594-0.707 M112.999,90.905c-0.193,0.028-0.406,0.043-0.616,0.043c-1.236,0-2.023-0.683-2.023-1.812
	c0-1.222,0.619-1.671,2.64-2.006v-2.168c-0.179,0.018-0.372,0.043-0.588,0.06c-1.912,0.271-2.699,0.424-3.406,0.705
	c-1.614,0.65-2.432,1.841-2.432,3.562c0,2.474,1.752,4.042,4.573,4.042c0.676,0,1.278-0.06,1.853-0.195V90.905z M112.999,79.226
	v2.457c-1.506,0.065-2.122,0.64-2.378,1.991h-3.443C107.359,80.797,109.38,79.305,112.999,79.226"/>
<path fill-rule="evenodd" clip-rule="evenodd" fill="#1B171A" d="M128.385,82.058c1.972,0,3.213,1.543,3.213,4.094
	c0,2.653-1.192,4.193-3.213,4.193v2.938c1.432-0.19,2.455-0.858,3.213-2.052v1.739h3.528V74.464h-3.685v6.736
	c-0.673-1.055-1.758-1.716-3.057-1.943 M128.385,90.345c-2.022,0-3.227-1.568-3.227-4.119c0-2.671,1.161-4.168,3.227-4.168v-2.801
	c-0.335-0.043-0.662-0.077-1.011-0.077c-3.528,0-5.884,2.778-5.884,6.927c0,4.386,2.355,7.224,5.988,7.224
	c0.315,0,0.619-0.017,0.906-0.048V90.345z"/>
<path fill-rule="evenodd" clip-rule="evenodd" fill="#1B171A" d="M143.782,82.058c1.796,0,3.003,1.497,3.003,3.821
	c0,2.426-1.193,3.923-3.079,3.94v2.653c1.295-0.211,2.292-0.878,3.079-1.98v1.54c0,2.46-0.909,3.472-3.003,3.472h-0.076v2.443
	c2.732,0,4.647-0.79,5.732-2.443c0.634-1.012,0.858-2.1,0.858-4.196V79.561h-3.483v1.796c-0.857-1.302-1.764-1.903-3.107-2.089v2.79
	 M143.706,89.82h-0.031c-1.838,0-3.031-1.497-3.031-3.94c0-2.366,1.134-3.772,3.062-3.821v-2.79
	c-0.284-0.028-0.603-0.054-0.932-0.054c-3.486,0-5.808,2.696-5.808,6.741c0,4.086,2.214,6.588,5.728,6.588
	c0.363,0,0.696-0.014,1.012-0.07V89.82z M143.706,95.504v2.443c-3.893,0-5.958-1.361-6.287-4.165h3.665
	C141.382,94.958,142.154,95.487,143.706,95.504"/>
<path fill-rule="evenodd" clip-rule="evenodd" fill="#1B171A" d="M158.83,81.839h0.062c1.6,0,2.654,1.088,2.881,3.031h-2.943v2.366
	h6.683v-0.57c0-4.483-2.622-7.452-6.589-7.452h-0.094 M158.83,93.331v-2.628c0.062,0.018,0.137,0.018,0.217,0.018
	c1.341,0,2.17-0.574,2.727-1.915h3.518c-0.711,2.772-3.14,4.525-6.29,4.525H158.83z M155.894,84.871
	c0.182-1.841,1.326-3.003,2.937-3.031v-2.625c-3.889,0.054-6.679,3.028-6.679,7.088c0,4.162,2.656,6.952,6.679,7.028v-2.628
	c-1.852-0.073-2.863-1.312-2.937-3.466h2.937v-2.366H155.894z"/>
<path fill-rule="evenodd" clip-rule="evenodd" fill="#1B171A" d="M87.317,102.217h-3.662v18.494h3.662v-6.551
	c0-1.537,0.077-2.096,0.332-2.65c0.5-0.986,1.384-1.543,2.552-1.543c1.642,0,2.318,0.785,2.318,2.883v7.861h3.667v-8.496
	c0-3.561-1.491-5.248-4.676-5.248c-1.838,0-3.031,0.631-4.193,2.17"/>
<path fill-rule="evenodd" clip-rule="evenodd" fill="#1B171A" d="M104.962,109.666c2.068,0,3.259,1.617,3.259,4.375
	c0,2.705-1.236,4.314-3.216,4.314h-0.043v2.73h0.043c4.147,0,6.895-2.807,6.895-7.045c0-4.225-2.699-7.074-6.784-7.074h-0.153
	 M104.962,109.666v-2.699c-4.222,0.076-6.92,2.867-6.92,7.074c0,4.193,2.789,7.027,6.92,7.045v-2.73
	c-2.034-0.016-3.256-1.627-3.256-4.314C101.706,111.309,102.939,109.666,104.962,109.666"/>
<line fill="none" stroke="#1B171A" stroke-width="3.6829" stroke-linejoin="round" x1="115.578" y1="120.705" x2="115.578" y2="102.217"/>
<path fill-rule="evenodd" clip-rule="evenodd" fill="#1B171A" d="M126.152,109.816c1.991,0,3.21,1.537,3.21,4.07
	c0,2.674-1.193,4.197-3.21,4.197v2.943c1.435-0.18,2.475-0.848,3.21-2.041v1.725h3.528v-18.494h-3.662v6.742
	c-0.695-1.057-1.764-1.723-3.076-1.947 M126.152,118.084c-2.021,0-3.228-1.568-3.228-4.119c0-2.656,1.162-4.148,3.228-4.148v-2.805
	c-0.315-0.045-0.665-0.078-1.012-0.078c-3.517,0-5.881,2.764-5.881,6.926c0,4.375,2.364,7.227,5.983,7.227
	c0.321,0,0.619-0.018,0.909-0.059V118.084z"/>
<path fill-rule="evenodd" clip-rule="evenodd" fill="#1B171A" d="M141.431,109.596h0.045c1.611,0,2.668,1.084,2.895,3.027h-2.939
	v2.35h6.679v-0.555c0-4.496-2.625-7.451-6.594-7.451h-0.085 M141.431,121.086v-2.627h0.192c1.361,0,2.171-0.557,2.747-1.898h3.515
	c-0.707,2.762-3.15,4.525-6.287,4.525H141.431z M138.487,112.623c0.185-1.855,1.312-3.002,2.943-3.027v-2.629
	c-3.89,0.045-6.683,3.029-6.683,7.074c0,4.178,2.656,6.969,6.683,7.045v-2.627c-1.858-0.092-2.867-1.312-2.943-3.486h2.943v-2.35
	H138.487z"/>
<path fill-rule="evenodd" clip-rule="evenodd" fill="#1B171A" d="M158.606,107.115c-0.333-0.029-0.68-0.072-0.827-0.072
	c-1.948,0-3.363,0.9-4.347,2.773v-2.52h-3.482v13.414h3.679v-5.586c0-1.494,0.15-2.352,0.483-3.033
	c0.602-1.113,1.719-1.75,3.076-1.75c0.409,0,0.738,0.035,1.418,0.154"/>
<path fill-rule="evenodd" clip-rule="evenodd" fill="#1B171A" d="M172.438,111.205c-0.228-2.82-2.174-4.238-5.807-4.238
	c-3.772,0-5.881,1.461-5.881,4.088c0,1.264,0.603,2.35,1.61,2.91c0.83,0.453,1.39,0.646,3.893,1.209
	c2.517,0.557,3.048,0.857,3.048,1.762c0,1.039-0.982,1.676-2.477,1.676c-1.839,0-2.671-0.662-2.847-2.246h-3.518
	c0.18,3.104,2.324,4.721,6.29,4.721c3.818,0,6.216-1.719,6.216-4.494c0-2.281-1.358-3.367-5.25-4.152
	c-2.909-0.604-3.293-0.793-3.293-1.734c0-0.812,0.787-1.266,2.1-1.266c1.568,0,2.278,0.482,2.475,1.766"/>
<path fill-rule="evenodd" clip-rule="evenodd" fill="#1B171A" d="M110.513,137.418c2.068,0,3.259,1.6,3.259,4.375
	c0,2.701-1.238,4.312-3.213,4.312h-0.046v2.73h0.046c4.145,0,6.892-2.805,6.892-7.043c0-4.225-2.698-7.074-6.786-7.074h-0.151
	 M110.513,146.105c-2.033-0.025-3.255-1.627-3.255-4.312c0-2.732,1.232-4.375,3.255-4.375v-2.699c-4.221,0.061-6.92,2.85-6.92,7.074
	c0,4.176,2.79,7.029,6.92,7.043V146.105z"/>
<path fill-rule="evenodd" clip-rule="evenodd" fill="#1B171A" d="M122.774,135.053h-3.483v13.404h3.662v-6.92
	c0-1.162,0.119-1.793,0.347-2.365c0.454-0.896,1.421-1.467,2.506-1.467c1.761,0,2.363,0.752,2.363,3.076v7.676h3.668v-8.432
	c0-1.75-0.193-2.607-0.708-3.482c-0.752-1.145-2.142-1.824-3.86-1.824c-1.943,0-3.335,0.68-4.494,2.199"/>
<line fill="none" stroke="#1B171A" stroke-width="3.6654" stroke-linejoin="round" x1="135.527" y1="148.455" x2="135.527" y2="129.969"/>
<path fill-rule="evenodd" clip-rule="evenodd" fill="#1B171A" d="M153.026,135.053h-3.786l-3.003,9.545l-3.06-9.545h-3.983
	l4.801,12.621c0.074,0.182,0.12,0.482,0.12,0.814c0,1.211-0.603,1.693-2.146,1.693h-1.46v3.029l1.537,0.043h0.335
	c3.196,0.184,4.159-0.678,5.728-4.824"/>
</svg>
