<?xml version="1.0" encoding="utf-8"?>
<!-- Generator: Adobe Illustrator 16.0.0, SVG Export Plug-In . SVG Version: 6.00 Build 0)  -->
<!DOCTYPE svg PUBLIC "-//W3C//DTD SVG 1.1//EN" "http://www.w3.org/Graphics/SVG/1.1/DTD/svg11.dtd">
<svg version="1.1" id="Layer_1" xmlns="http://www.w3.org/2000/svg" xmlns:xlink="http://www.w3.org/1999/xlink" x="0px" y="0px"
	 width="200px" height="200px" viewBox="0 0 200 200" enable-background="new 0 0 200 200" xml:space="preserve">
<g>
	<rect x="5.004" y="5.002" fill="#E9EDA0" width="189.996" height="189.996"/>
	<path fill="none" stroke="#1B181B" d="M195,194.998 M5,194.998h190V5.002H5V194.998z"/>
	<rect x="12.599" y="12.6" fill="#0D9C4A" width="174.8" height="174.798"/>
	<polyline fill="#E9EDA0" points="45.317,127.17 37.282,127.17 37.282,122.212 59.243,122.212 59.243,127.17 51.208,127.17 
		51.208,149.016 45.317,149.016 	"/>
	<path fill="#E9EDA0" d="M76.515,149.016H71.45v-2.708h-0.114c-1.348,2.185-3.682,3.231-5.932,3.231
		c-5.672,0-7.092-3.183-7.092-7.993v-11.938h5.324v10.963c0,3.191,0.943,4.771,3.422,4.771c2.886,0,4.124-1.62,4.124-5.563v-10.17
		h5.333"/>
	<path fill="#E9EDA0" d="M80.565,129.608h5.073v3.6h0.076c0.972-2.438,3.598-4.124,6.194-4.124c0.376,0,0.826,0.074,1.158,0.188
		v4.95c-0.487-0.106-1.272-0.188-1.915-0.188c-3.899,0-5.249,2.814-5.249,6.234v8.747h-5.337"/>
	<path fill="#E9EDA0" d="M95.834,129.608h5.073v2.699h0.114c1.351-2.168,3.674-3.224,5.924-3.224c5.671,0,7.094,3.191,7.094,7.994
		v11.938h-5.326v-10.964c0-3.183-0.94-4.762-3.412-4.762c-2.896,0-4.132,1.611-4.132,5.556v10.17h-5.334"/>
	<path fill="#E9EDA0" d="M135.288,129.608h3.902v3.566h-3.902v9.606c0,1.8,0.45,2.25,2.25,2.25c0.561,0,1.093-0.033,1.652-0.147
		v4.164c-0.899,0.156-2.062,0.188-3.108,0.188c-3.273,0-6.12-0.744-6.12-4.606v-11.455h-3.232v-3.566h3.232v-5.818h5.326"/>
	<path fill="#E9EDA0" d="M151.169,129.084c6.12,0,10.056,4.051,10.056,10.244c0,6.161-3.936,10.211-10.056,10.211
		c-6.083,0-10.022-4.05-10.022-10.211C141.146,133.135,145.086,129.084,151.169,129.084 M151.169,145.521
		c3.642,0,4.729-3.117,4.729-6.193c0-3.109-1.088-6.227-4.729-6.227c-3.6,0-4.692,3.117-4.692,6.227
		C146.477,142.404,147.569,145.521,151.169,145.521"/>
	<path fill="#E9EDA0" d="M66.338,155.896c6.12,0,10.054,4.05,10.054,10.244c0,6.161-3.934,10.211-10.054,10.211
		c-6.083,0-10.025-4.05-10.025-10.211C56.313,159.946,60.255,155.896,66.338,155.896 M66.338,172.334
		c3.641,0,4.729-3.108,4.729-6.193c0-3.117-1.088-6.227-4.729-6.227c-3.602,0-4.692,3.109-4.692,6.227
		C61.646,169.226,62.736,172.334,66.338,172.334"/>
	<path fill="#E9EDA0" d="M79.845,156.42h5.073v2.479h0.076c1.272-2.062,3.377-3.003,5.776-3.003c6.087,0,8.828,4.918,8.828,10.433
		c0,5.187-2.859,10.022-8.525,10.022c-2.326,0-4.541-1.007-5.819-2.921h-0.072v9.229h-5.337 M94.264,166.182
		c0-3.077-1.235-6.268-4.658-6.268c-3.485,0-4.612,3.109-4.612,6.268c0,3.149,1.203,6.152,4.653,6.152
		C93.135,172.334,94.264,169.331,94.264,166.182"/>
	<path fill="#E9EDA0" d="M107.175,167.417c0.155,3.388,1.8,4.917,4.771,4.917c2.135,0,3.861-1.309,4.205-2.512h4.688
		c-1.497,4.574-4.688,6.529-9.086,6.529c-6.12,0-9.904-4.205-9.904-10.211c0-5.81,4.017-10.244,9.904-10.244
		c6.606,0,9.798,5.556,9.417,11.521 M115.848,164.038c-0.491-2.7-1.657-4.124-4.238-4.124c-3.379,0-4.361,2.626-4.435,4.124H115.848
		z"/>
	<path fill="#E9EDA0" d="M124.32,156.42h5.077v2.709h0.114c1.35-2.185,3.674-3.232,5.924-3.232c5.67,0,7.094,3.191,7.094,7.994
		v11.938h-5.326v-10.956c0-3.199-0.941-4.77-3.412-4.77c-2.896,0-4.132,1.611-4.132,5.556v10.17h-5.339"/>
	<g>
		<polygon fill-rule="evenodd" clip-rule="evenodd" fill="#E9EDA0" points="46.215,16.522 112.542,16.522 112.542,115.224 
			46.215,115.224 46.215,16.522 		"/>
		<polygon fill-rule="evenodd" clip-rule="evenodd" fill="#E9EDA0" points="112.542,25.756 112.542,41.208 113.59,41.789 
			114.579,42.369 115.627,42.95 116.608,43.589 117.541,44.288 118.466,44.979 119.398,45.736 120.266,46.555 121.138,47.364 
			121.951,48.175 122.762,49.05 123.522,49.917 124.275,50.851 124.971,51.836 125.608,52.765 126.251,53.751 126.894,54.798 
			127.413,55.841 127.937,56.889 128.456,57.932 128.923,59.036 129.327,60.141 129.68,61.245 130.027,62.407 130.321,63.508 
			130.551,64.674 130.78,65.836 130.952,66.997 122.132,66.997 137.988,84.604 153.779,66.997 145.417,66.997 145.245,65.541 
			145.074,64.15 144.837,62.759 144.55,61.36 144.198,59.965 143.851,58.578 143.445,57.179 143.036,55.841 142.513,54.45 
			141.989,53.116 141.466,51.836 140.827,50.56 140.193,49.279 139.493,47.999 138.798,46.727 138.037,45.508 137.289,44.346 
			136.413,43.184 135.604,42.021 134.675,40.917 133.742,39.812 132.817,38.766 131.827,37.718 130.78,36.732 129.741,35.746 
			128.693,34.817 127.589,33.891 126.427,33.021 125.266,32.148 124.104,31.332 122.884,30.579 121.661,29.822 120.389,29.125 
			119.165,28.488 117.828,27.845 116.552,27.27 115.214,26.742 113.88,26.225 112.542,25.756 		"/>
		<polygon fill-rule="evenodd" clip-rule="evenodd" fill="#0D9C4A" points="107.838,106.608 107.257,106.608 106.676,106.551 
			106.095,106.437 105.514,106.322 104.933,106.142 104.353,105.904 103.828,105.618 103.247,105.332 102.728,104.98 
			102.143,104.63 101.623,104.229 101.161,103.759 100.637,103.243 100.171,102.716 99.647,102.196 99.247,101.554 98.78,100.978 
			98.313,100.277 97.905,99.64 97.561,98.887 97.152,98.183 96.804,97.431 96.514,96.62 96.162,95.806 95.933,94.988 95.638,94.12 
			95.409,93.249 95.176,92.382 95,91.507 94.833,90.573 94.656,89.646 94.538,88.717 94.419,87.792 94.366,86.806 94.309,85.873 
			94.309,84.944 94.309,83.95 94.309,83.025 94.366,82.036 94.419,81.111 94.538,80.183 94.656,79.254 94.833,78.321 95,77.393 
			95.176,76.46 95.409,75.593 95.638,74.721 95.933,73.907 96.162,73.031 96.514,72.278 96.804,71.469 97.152,70.712 97.561,69.955 
			97.905,69.264 98.313,68.564 98.78,67.926 99.247,67.288 99.647,66.703 100.171,66.126 100.637,65.599 101.161,65.14 
			101.623,64.674 102.143,64.265 102.728,63.859 103.247,63.508 103.828,63.222 104.353,62.988 104.933,62.759 105.514,62.583 
			106.095,62.407 106.676,62.289 107.257,62.231 107.838,62.231 80.481,62.231 79.9,62.231 79.319,62.289 78.738,62.407 
			78.157,62.583 77.634,62.759 77.053,62.988 76.472,63.222 75.952,63.508 75.372,63.859 74.848,64.265 74.324,64.674 73.8,65.14 
			73.338,65.599 72.814,66.126 72.353,66.703 71.886,67.288 71.481,67.926 71.015,68.564 70.609,69.264 70.205,69.955 
			69.857,70.712 69.505,71.469 69.157,72.278 68.867,73.031 68.576,73.907 68.343,74.721 68.053,75.593 67.877,76.46 67.647,77.393 
			67.472,78.321 67.357,79.254 67.239,80.183 67.124,81.111 67.067,82.036 67.009,83.025 66.952,83.95 66.952,84.944 67.009,85.873 
			67.067,86.806 67.124,87.792 67.239,88.717 67.357,89.646 67.472,90.573 67.647,91.507 67.877,92.382 68.053,93.249 68.343,94.12 
			68.576,94.988 68.867,95.806 69.157,96.62 69.505,97.431 69.857,98.183 70.205,98.887 70.609,99.64 71.015,100.277 
			71.481,100.978 71.886,101.554 72.353,102.196 72.814,102.716 73.338,103.243 73.8,103.759 74.324,104.229 74.848,104.63 
			75.372,104.98 75.952,105.332 76.472,105.618 77.053,105.904 77.634,106.142 78.157,106.322 78.738,106.437 79.319,106.551 
			79.9,106.608 80.481,106.608 107.838,106.608 		"/>
		<polygon fill-rule="evenodd" clip-rule="evenodd" fill="#E9EDA0" points="107.838,62.231 108.419,62.231 108.999,62.289 
			109.584,62.407 110.165,62.583 110.746,62.759 111.323,62.988 111.847,63.222 112.428,63.569 112.951,63.921 113.532,64.265 
			114.056,64.73 114.579,65.14 115.046,65.659 115.565,66.188 116.027,66.76 116.494,67.345 116.899,67.983 117.361,68.683 
			117.771,69.321 118.122,70.074 118.523,70.831 118.875,71.588 119.165,72.397 119.514,73.207 119.804,74.025 120.037,74.897 
			120.266,75.769 120.503,76.636 120.675,77.564 120.847,78.497 121.027,79.426 121.138,80.358 121.198,81.345 121.313,82.273 
			121.313,83.202 121.37,84.188 121.37,85.174 121.313,86.103 121.256,87.093 121.198,88.021 121.084,88.954 120.97,89.883 
			120.79,90.868 120.618,91.735 120.389,92.664 120.151,93.54 119.923,94.411 119.628,95.282 119.342,96.093 119.047,96.906 
			118.703,97.663 118.352,98.416 117.942,99.173 117.541,99.872 117.132,100.563 116.67,101.206 116.257,101.787 115.795,102.426 
			115.275,102.949 114.809,103.473 114.285,103.935 113.762,104.405 113.242,104.809 112.718,105.16 112.138,105.504 
			111.557,105.733 111.037,106.027 110.452,106.199 109.871,106.379 109.29,106.494 108.709,106.608 108.128,106.608 
			107.547,106.608 106.913,106.608 106.332,106.494 105.751,106.379 105.228,106.199 104.646,106.027 104.065,105.733 
			103.484,105.504 102.961,105.16 102.38,104.809 101.856,104.405 101.333,103.935 100.813,103.473 100.351,102.949 99.88,102.426 
			99.418,101.787 98.952,101.206 98.485,100.563 98.084,99.872 97.676,99.173 97.324,98.416 96.98,97.663 96.628,96.906 
			96.28,96.093 95.99,95.282 95.7,94.411 95.471,93.54 95.237,92.664 95.062,91.735 94.833,90.868 94.714,89.883 94.595,88.954 
			94.48,88.021 94.366,87.093 94.309,86.103 94.309,85.174 94.309,84.188 94.309,83.202 94.366,82.273 94.419,81.345 94.538,80.358 
			94.656,79.426 94.771,78.497 94.947,77.564 95.119,76.636 95.352,75.769 95.581,74.897 95.875,74.025 96.162,73.207 
			96.457,72.397 96.804,71.588 97.152,70.831 97.504,70.074 97.905,69.321 98.313,68.683 98.723,67.983 99.189,67.345 99.647,66.76 
			100.114,66.188 100.58,65.659 101.104,65.14 101.623,64.73 102.143,64.265 102.667,63.921 103.19,63.569 103.771,63.222 
			104.353,62.988 104.933,62.759 105.457,62.583 106.037,62.407 106.618,62.289 107.257,62.231 107.838,62.231 		"/>
		<polygon fill-rule="evenodd" clip-rule="evenodd" fill="#0D9C4A" points="112.542,41.208 111.438,40.741 110.395,40.279 
			109.29,39.87 108.189,39.469 107.023,39.117 105.923,38.822 104.761,38.536 103.6,38.308 102.438,38.131 101.275,37.955 
			100.114,37.837 98.952,37.779 97.79,37.779 96.628,37.779 95.409,37.837 94.247,37.955 93.085,38.07 91.924,38.246 90.762,38.475 
			89.657,38.708 88.495,39.056 87.391,39.351 86.237,39.756 85.186,40.16 84.085,40.627 82.985,41.089 81.934,41.67 80.947,42.198 
			79.9,42.832 78.914,43.474 77.985,44.112 77.053,44.865 76.128,45.561 75.2,46.321 74.381,47.132 73.514,47.945 72.7,48.821 
			71.947,49.75 71.19,50.617 70.491,51.546 69.799,52.531 69.157,53.518 68.576,54.504 67.996,55.555 67.472,56.598 66.952,57.646 
			66.543,58.75 66.081,59.851 65.729,60.955 65.381,62.06 65.029,63.222 64.8,64.379 64.567,65.483 64.396,66.646 64.219,67.864 
			64.162,69.026 64.043,70.188 64.043,71.354 49.701,71.354 49.701,69.955 49.754,68.507 49.872,67.112 50.048,65.717 
			50.224,64.322 50.453,62.935 50.687,61.536 51.034,60.141 51.386,58.808 51.791,57.416 52.196,56.078 52.662,54.741 
			53.182,53.407 53.706,52.127 54.287,50.851 54.929,49.574 55.567,48.293 56.267,47.07 57.019,45.908 57.776,44.693 58.586,43.531 
			59.458,42.369 60.268,41.265 61.196,40.222 62.129,39.117 63.115,38.131 64.105,37.084 65.091,36.098 66.191,35.165 
			67.239,34.298 68.343,33.363 69.505,32.554 70.667,31.741 71.829,30.984 73.048,30.228 74.271,29.477 75.486,28.837 
			76.767,28.196 78.047,27.615 79.319,27.034 80.657,26.513 81.991,26.048 83.329,25.584 84.662,25.179 86.061,24.827 
			87.391,24.479 88.79,24.25 90.181,23.958 91.58,23.782 92.971,23.606 94.419,23.489 95.818,23.435 97.209,23.377 98.666,23.435 
			100.057,23.435 101.451,23.547 102.847,23.665 104.295,23.841 105.694,24.074 107.085,24.304 108.479,24.651 109.813,25.003 
			111.151,25.354 112.542,25.756 112.542,41.208 		"/>
	</g>
</g>
</svg>
