<?xml version="1.0" encoding="utf-8"?>
<!-- Generator: Adobe Illustrator 16.0.0, SVG Export Plug-In . SVG Version: 6.00 Build 0)  -->
<!DOCTYPE svg PUBLIC "-//W3C//DTD SVG 1.1//EN" "http://www.w3.org/Graphics/SVG/1.1/DTD/svg11.dtd">
<svg version="1.1" id="Layer_1" xmlns="http://www.w3.org/2000/svg" xmlns:xlink="http://www.w3.org/1999/xlink" x="0px" y="0px"
	 width="200px" height="200px" viewBox="0 0 200 200" enable-background="new 0 0 200 200" xml:space="preserve">
<g>
	<polyline fill="#FFFFFE" points="16.018,157.373 100.467,175.327 184.92,157.373 184.92,157.154 195,157.154 195,24.673 
		184.698,24.673 184.698,24.689 100.467,29.27 16.018,24.673 5,24.673 5,157.154 15.768,157.154 	"/>
	<path fill="none" stroke="#1B171A" stroke-width="1.4186" d="M100.467,175.327V29.27 M16.018,157.373l84.45,17.954l84.453-17.954
		v-0.219H195V24.673h-10.302v0.017l-84.231,4.58l-84.45-4.597H5v132.481h10.768L16.018,157.373z"/>
	<line fill="#FFFFFE" x1="184.92" y1="157.373" x2="184.92" y2="24.673"/>
	<line fill="none" stroke="#1B171A" stroke-width="1.4186" x1="184.92" y1="157.373" x2="184.92" y2="24.673"/>
	<line fill="#FFFFFE" x1="15.768" y1="157.154" x2="15.768" y2="24.673"/>
	<line fill="none" stroke="#1B171A" stroke-width="1.4186" x1="15.768" y1="157.154" x2="15.768" y2="24.673"/>
	<path fill="#FFFFFE" d="M10.309,42.879c1.878,0,3.402-1.527,3.402-3.408s-1.524-3.405-3.402-3.405
		c-1.879,0-3.401,1.524-3.401,3.405S8.43,42.879,10.309,42.879"/>
	<circle fill="none" stroke="#1B171A" stroke-width="1.4186" cx="10.309" cy="39.473" r="3.407"/>
	<path fill="#FFFFFE" d="M10.309,145.759c1.878,0,3.402-1.524,3.402-3.405c0-1.882-1.524-3.405-3.402-3.405
		c-1.879,0-3.401,1.523-3.401,3.405C6.907,144.234,8.43,145.759,10.309,145.759"/>
	<circle fill="none" stroke="#1B171A" stroke-width="1.4186" cx="10.309" cy="142.354" r="3.405"/>
	<path fill="#FFFFFE" d="M190.007,42.879c1.879,0,3.402-1.527,3.402-3.408s-1.523-3.405-3.402-3.405s-3.402,1.524-3.402,3.405
		S188.128,42.879,190.007,42.879"/>
	<circle fill="none" stroke="#1B171A" stroke-width="1.4186" cx="190.007" cy="39.473" r="3.407"/>
	<path fill="#FFFFFE" d="M190.007,145.759c1.879,0,3.402-1.524,3.402-3.405c0-1.882-1.523-3.405-3.402-3.405
		s-3.402,1.523-3.402,3.405C186.604,144.234,188.128,145.759,190.007,145.759"/>
	<circle fill="none" stroke="#1B171A" stroke-width="1.4186" cx="190.007" cy="142.354" r="3.405"/>
	<path fill="#ED1C24" d="M176.71,88.111c1.466-0.288,2.652-1.718,2.652-3.192V32.617c0-1.474-1.187-2.546-2.652-2.394l-68.272,3.884
		c-1.463,0.152-2.649,1.577-2.649,3.189v60.499c0,1.609,1.187,2.682,2.649,2.394"/>
	<path fill="#ED1C24" d="M92.222,100.214c1.453,0.285,2.626-0.79,2.626-2.402V37.318c0-1.615-1.173-3.045-2.626-3.192L24.86,30.239
		c-1.446-0.152-2.627,0.925-2.627,2.396v52.303c0,1.474,1.181,2.901,2.627,3.189"/>
	<path fill="#ED1C24" d="M176.71,153.256c1.466-0.288,2.652-1.718,2.652-3.191v-57.13c0-1.471-1.187-2.543-2.652-2.396
		l-68.272,12.332c-1.463,0.15-2.649,1.577-2.649,3.189v59.695c0,1.612,1.187,2.682,2.649,2.394"/>
	<path fill="#ED1C24" d="M92.222,168.174c1.453,0.285,2.626-0.79,2.626-2.402v-59.692c0-1.609-1.173-3.039-2.626-3.192L24.86,90.555
		c-1.446-0.146-2.627,0.926-2.627,2.399v57.132c0,1.472,1.181,2.898,2.627,3.187"/>
	<path fill="#E9EDA0" d="M168.39,45.958c0,0-5.885-1.136-9.06-11.196c-1.479,3.99-2.755,13.435,9.06,18.115"/>
	<path fill="#E9EDA0" d="M167.304,56.963c0,0-5.646-0.25-9.382-8.407c-1.152-2.529-3.519-9.268-12.861-8.182
		c2.771,1.892,4.156,3.959,5.907,8.185C156.237,61.1,166.06,57.747,167.304,56.963"/>
	<path fill="#E9EDA0" d="M168.39,62.602c0,0-11.515,0.717-20.94-11.499c0,17.351,20.392,18.112,20.94,18.137"/>
	<path fill="#E9EDA0" d="M167.304,73.967c0,0-5.918,0.388-11.819-4.957c-5.515-5.098-11.848-1.898-13.987,0.313
		c2.707-0.685,5.841,0.736,9.864,4.283C158.427,79.713,166.649,74.739,167.304,73.967"/>
	<path fill="#E9EDA0" d="M168.39,78.358c0,0-12.474,4.156-20.639-2.203c-0.28-0.845,1.571,12.757,20.639,8.432"/>
	<path fill="#E9EDA0" d="M131.18,36.8l-4.361,0.474l0.344,1.394l-3.904,0.438l-7.146,5.732c0,0-1.236,1.125-1.236,2.829v3.957
		l1.602-0.208v-1.496c0,0-0.069-0.518,0.41-0.897c0.479-0.388,6.916-5.63,6.916-5.63l2.854-0.335l-0.532,0.646v3.679l-1.385,0.169
		c0,0-5.137,0.501-5.137,5.932v42.154c0,0,18.791-3.556,18.812-3.556c0.022-0.008,0-40.904,0-40.904s-0.249-5.248-4.519-4.727
		l-1.92,0.238v-4.253l2.327-0.269l1.967-1.008v-2.721l-1.712-0.615l-3.702,0.41"/>
	<path fill="#E9EDA0" d="M84.153,53.056c0,0-5.839-2.762-8.989-14.15c-1.469,3.84-2.735,13.38,8.989,21.618"/>
	<path fill="#E9EDA0" d="M83.077,64.599c0,0-5.603-1.947-9.311-11.573c-1.138-2.945-3.487-10.537-12.756-11.623
		c2.746,2.574,4.12,5.023,5.861,9.786C72.098,65.641,81.843,65.072,83.077,64.599"/>
	<path fill="#E9EDA0" d="M84.153,71.016c0,0-11.421-2.87-20.775-18.156c0,17.616,20.229,25.103,20.775,25.313"/>
	<path fill="#E9EDA0" d="M83.077,82.886c0,0-5.873-1.66-11.723-9.252c-5.474-7.001-11.757-5.707-13.877-4.158
		c2.685,0.163,5.788,2.596,9.781,7.536C74.268,85.814,82.427,83.486,83.077,82.886"/>
	<path fill="#E9EDA0" d="M84.153,88.006c0,0-12.374-0.175-20.469-9.601c-0.284-0.959,1.549,13.549,20.469,16.319"/>
	<path fill="#E9EDA0" d="M47.238,34.767l-4.327-0.471l0.338,1.402l-3.871-0.432l-7.093,3.799c0,0-1.22,0.756-1.22,2.33v3.657
		l1.583,0.203v-1.388c0,0-0.068-0.499,0.409-0.74c0.477-0.238,6.866-3.668,6.866-3.668l2.832,0.333l-0.536,0.487v3.516l-1.367-0.166
		c0,0-5.098-0.751-5.098,4.336v39.502c0,0,18.643,3.552,18.665,3.558c0.024,0.005,0-40.467,0-40.467s-0.252-5.256-4.484-5.779
		l-1.905-0.236v-4.134l2.31,0.271l1.952-0.529v-2.679l-1.701-0.975l-3.668-0.41"/>
	<polyline fill="#E9EDA0" points="135.479,104.732 135.479,134.564 121.193,123.679 121.193,141.134 141.833,156.021 
		162.466,132.453 162.466,115.001 148.181,131.891 148.181,102.056 	"/>
	<polyline fill="#E9EDA0" points="51.727,102.056 51.727,131.896 37.44,115.001 37.44,132.453 58.076,156.021 78.71,141.14 
		78.71,123.685 64.426,134.57 64.426,104.732 	"/>
</g>
</svg>
