<?xml version="1.0" encoding="utf-8"?>
<!-- Generator: Adobe Illustrator 16.0.0, SVG Export Plug-In . SVG Version: 6.00 Build 0)  -->
<!DOCTYPE svg PUBLIC "-//W3C//DTD SVG 1.1//EN" "http://www.w3.org/Graphics/SVG/1.1/DTD/svg11.dtd">
<svg version="1.1" id="Layer_1" xmlns="http://www.w3.org/2000/svg" xmlns:xlink="http://www.w3.org/1999/xlink" x="0px" y="0px"
	 width="200px" height="200px" viewBox="0 0 200 200" enable-background="new 0 0 200 200" xml:space="preserve">
<g>
	<rect x="5" y="4.999" fill="#E9EDA0" width="190" height="190.003"/>
	<path fill="none" stroke="#1B181B" d="M195,195.002 M5,195.002h190V4.999H5V195.002z"/>
	<polyline fill="#ED1C24" points="12.276,12.118 187.93,12.098 187.93,186.971 12.276,186.971 	"/>
	<g>
		<path fill-rule="evenodd" clip-rule="evenodd" fill="#E9EDA0" d="M50.308,32.209c-6.727,0-12.125,5.402-12.125,11.991
			c0,6.589,5.398,12.003,12.125,12.003c6.72,0,12.121-5.414,12.121-12.003C62.429,37.611,57.027,32.209,50.308,32.209L50.308,32.209
			z"/>
		<polygon fill-rule="evenodd" clip-rule="evenodd" fill="#E9EDA0" points="41.012,59.1 36.267,59.1 36.267,29.119 65.861,29.119 
			65.861,59.1 59.335,59.1 59.335,64.895 71.921,64.895 71.921,23.247 30.272,23.247 30.272,64.895 41.012,64.895 41.012,59.1 		"/>
		<path fill-rule="evenodd" clip-rule="evenodd" fill="#E9EDA0" d="M94.787,101.4c-3.76,0-5.932,4.75-6.526,6.395h-0.526v-6.916
			c0,0-1.125-5.271-6.72-5.872c-3.953-0.393-5.997,3.302-6.726,5.009h-1.384v-6.05c0,0-2.635-5.013-7.044-5.013
			c-1.978,0-6.922,1.514-6.859,4.879c-1.445,0.913-2.437,0.523-2.764,0.262V63.642c0,0,0.527-5.794-6.791-5.794
			c-6.458,0-6.723,5.794-6.723,5.794v67.737h-1.972h-2.175l0.196-23.326c0,0-0.592-10.005-10.744-8.884
			c-2.701,0.327-4.216,3.355-4.216,3.355v35.787c0,0,10.216,18.645,15.091,29.188c1.779,3.891,1.848,7.318,1.848,7.383v0.785h53.181
			v-10.477c0.981-0.654,1.972-1.512,2.829-2.439c2.7-3.027,3.956-7.775,3.956-7.775v-46.648
			C100.719,108.326,101.837,101.4,94.787,101.4L94.787,101.4z M73.107,131.379h-0.202H73.107L73.107,131.379z"/>
		<polygon fill-rule="evenodd" clip-rule="evenodd" fill="#E9EDA0" points="176.391,145.771 172.307,144.623 170.272,143.975 
			168.229,143.309 166.26,142.553 164.284,141.73 162.345,140.846 160.465,139.822 158.626,138.744 157.74,138.156 156.883,137.525 
			155.268,136.145 153.688,134.699 152.175,133.225 150.768,131.646 149.352,130.029 148.593,129.268 147.837,128.553 
			146.192,127.168 144.515,125.889 142.766,124.639 140.963,123.49 140.011,122.99 139.057,122.574 137.045,121.844 
			135.005,121.195 133.987,120.92 132.938,120.695 131.888,120.564 130.831,120.527 129.781,120.594 128.689,120.725 
			126.59,121.064 124.516,121.48 123.463,121.783 122.473,122.105 121.455,122.473 120.503,122.932 119.581,123.461 
			118.662,123.984 116.883,125.199 119.021,125.723 121.128,126.346 123.195,127.102 124.222,127.561 125.174,128.055 
			126.161,128.59 127.08,129.178 128.002,129.803 128.854,130.457 130.537,131.902 132.081,133.48 133.532,135.127 134.906,136.799 
			137.607,140.279 139.023,141.994 140.505,143.635 142.081,145.146 143.759,146.568 144.646,147.223 145.564,147.848 
			146.52,148.412 147.48,148.895 149.512,149.781 151.589,150.512 153.722,151.096 155.893,151.488 158.067,151.762 
			160.271,151.785 162.476,151.66 164.647,151.398 166.815,150.965 167.872,150.68 168.922,150.34 169.939,149.947 170.924,149.49 
			171.917,148.973 172.869,148.412 174.642,147.115 176.391,145.771 		"/>
		<polygon fill-rule="evenodd" clip-rule="evenodd" fill="#E9EDA0" points="176.391,175.756 176.391,155.766 173.494,156.486 
			170.566,157.152 167.604,157.711 166.123,157.908 164.647,158.062 163.166,158.17 161.651,158.193 160.141,158.193 
			158.659,158.127 157.148,158.002 155.667,157.842 154.183,157.58 152.736,157.283 149.839,156.486 146.98,155.576 
			144.185,154.516 142.808,153.928 141.457,153.303 140.106,152.613 138.821,151.857 137.575,151.072 136.355,150.186 
			135.207,149.234 134.124,148.217 132.019,146.039 132.97,149.686 134.021,153.303 134.612,155.076 135.272,156.824 
			136.028,158.533 136.849,160.246 137.804,161.887 138.821,163.465 139.976,164.969 141.189,166.416 142.507,167.771 
			143.923,169.016 145.437,170.156 147.017,171.15 148.658,172.037 150.369,172.793 152.142,173.447 153.956,174.012 
			155.795,174.465 157.675,174.869 159.546,175.154 161.42,175.393 163.3,175.59 165.171,175.689 168.922,175.82 172.673,175.82 
			176.391,175.756 		"/>
		<polygon fill-rule="evenodd" clip-rule="evenodd" fill="#E9EDA0" points="176.391,104.324 174.018,104.949 172.804,105.184 
			171.584,105.338 170.367,105.473 169.15,105.537 167.935,105.537 166.685,105.51 165.471,105.406 164.252,105.248 163.07,105.014 
			161.848,104.689 160.693,104.297 159.546,103.826 157.342,102.811 155.17,101.635 153.103,100.317 152.076,99.651 151.092,98.934 
			150.173,98.113 149.318,97.223 147.739,95.358 146.225,93.413 144.779,91.444 143.459,89.37 142.248,87.228 141.124,85.066 
			140.106,82.832 139.188,80.527 138.33,78.253 137.575,75.934 136.322,71.157 135.037,66.42 134.514,64.032 134.32,63.431 
			134.021,62.911 133.401,61.855 132.116,59.754 131.394,58.761 130.603,57.809 129.745,56.961 128.826,56.14 126.884,54.626 
			129.219,54.43 130.373,54.391 131.554,54.391 132.702,54.493 133.856,54.692 134.972,54.951 136.094,55.343 137.176,55.813 
			138.202,56.333 139.188,56.919 140.139,57.586 141.98,59.061 143.727,60.614 145.437,62.22 146.225,63.081 146.948,63.994 
			147.641,64.918 148.236,65.9 148.789,66.915 149.286,67.97 153.004,76.52 153.989,78.62 155.006,80.72 156.098,82.769 
			157.246,84.804 159.546,88.849 160.798,90.819 162.077,92.725 163.528,94.561 165.105,96.271 166.783,97.877 168.556,99.392 
			170.367,100.84 172.241,102.221 173.226,102.848 174.252,103.408 176.391,104.324 		"/>
		<polygon fill-rule="evenodd" clip-rule="evenodd" fill="#E9EDA0" points="176.391,94.996 176.391,74.223 175.303,73.819 
			174.285,73.361 173.265,72.801 172.274,72.212 171.355,71.561 170.436,70.868 169.582,70.112 168.758,69.315 168.003,68.47 
			167.276,67.581 165.926,65.743 164.716,63.797 163.591,61.787 162.541,59.793 161.523,57.717 160.562,55.643 159.68,53.543 
			158.067,49.263 156.684,44.893 155.863,48.439 155.536,50.253 155.232,52.029 155.006,53.844 154.843,55.682 154.744,57.482 
			154.712,59.296 154.712,61.137 154.777,62.934 154.94,64.751 155.17,66.563 155.536,68.336 155.991,70.112 156.518,71.849 
			157.211,73.53 158.002,75.175 158.855,76.779 159.808,78.358 160.798,79.872 161.848,81.347 162.996,82.769 165.373,85.524 
			166.649,86.838 167.935,88.118 170.632,90.583 172.013,91.771 173.432,92.895 174.877,93.975 176.391,94.996 		"/>
		<polygon fill-rule="evenodd" clip-rule="evenodd" fill="#E9EDA0" points="176.391,135.848 176.391,115.203 174.642,115.203 
			173.788,115.18 172.932,115.072 171.224,114.746 169.547,114.316 167.872,113.793 166.227,113.234 164.579,112.609 
			162.996,111.955 161.387,111.266 159.84,110.51 158.296,109.713 156.782,108.861 153.793,107.049 150.928,105.117 
			148.165,103.002 145.47,100.84 142.873,98.502 140.4,96.075 139.22,94.795 138.065,93.481 136.947,92.164 135.897,90.78 
			133.922,87.921 132.019,85 131.888,87.296 131.822,89.608 131.911,91.928 132.146,94.198 132.506,96.506 133.068,98.737 
			133.759,100.903 134.612,103.084 135.563,105.184 136.581,107.26 137.673,109.295 138.854,111.266 140.106,113.193 
			141.424,115.072 142.84,116.887 144.354,118.66 145.931,120.332 147.569,121.949 149.318,123.461 151.124,124.9 153.004,126.215 
			154.974,127.43 156.981,128.59 159.052,129.607 161.158,130.588 163.264,131.475 165.438,132.295 167.604,133.094 
			171.979,134.504 176.391,135.848 		"/>
	</g>
</g>
</svg>
