<?xml version="1.0" encoding="utf-8"?>
<!-- Generator: Adobe Illustrator 16.0.0, SVG Export Plug-In . SVG Version: 6.00 Build 0)  -->
<!DOCTYPE svg PUBLIC "-//W3C//DTD SVG 1.1//EN" "http://www.w3.org/Graphics/SVG/1.1/DTD/svg11.dtd">
<svg version="1.1" id="Layer_1" xmlns="http://www.w3.org/2000/svg" xmlns:xlink="http://www.w3.org/1999/xlink" x="0px" y="0px"
	 width="200px" height="200px" viewBox="0 0 200 200" enable-background="new 0 0 200 200" xml:space="preserve">
<g>
	<g>
		<rect x="5" y="112.499" fill="#E9EDA0" width="190" height="61.689"/>
		<path fill="none" stroke="#1B181B" d="M5,174.185 M195,174.185H5v-61.686h190V174.185z"/>
		<path fill="#0D9C4A" d="M191.233,120.152c0-2.07-1.828-3.79-3.789-3.79H12.625c-1.96,0-3.788,1.71-3.788,3.781v46.569
			c0,2.075,1.828,3.79,3.788,3.79h174.829c1.961,0,3.787-1.715,3.787-3.79"/>
		<polyline fill="#E9EDA0" points="33.804,127.193 17.101,143.898 33.804,160.605 47.587,160.605 35.737,148.729 66.269,148.729 
			66.269,139.07 35.737,139.07 47.612,127.193 		"/>
		<polyline fill="#E9EDA0" points="130.496,121.849 144.69,121.849 144.69,125.583 134.934,125.583 134.934,130.25 143.39,130.25 
			143.39,133.698 134.934,133.698 134.934,142.039 130.496,142.039 		"/>
		<path fill="#E9EDA0" d="M150.968,125.159h-4.015v-3.311h4.015V125.159z M146.952,127.423h4.016v14.616h-4.016V127.423z"/>
		<path fill="#E9EDA0" d="M154.133,127.423h3.819v2.713h0.057c0.735-1.838,2.715-3.109,4.666-3.109c0.282,0,0.621,0.056,0.877,0.141
			v3.733c-0.37-0.085-0.963-0.143-1.443-0.143c-2.94,0-3.959,2.121-3.959,4.696v6.585h-4.017"/>
		<path fill="#E9EDA0" d="M167.94,135.706c0.111,2.547,1.356,3.705,3.59,3.705c1.612,0,2.913-0.99,3.165-1.896h3.536
			c-1.131,3.45-3.536,4.923-6.843,4.923c-4.608,0-7.466-3.17-7.466-7.692c0-4.385,3.025-7.72,7.466-7.72
			c4.976,0,7.382,4.183,7.097,8.68 M174.472,133.16c-0.368-2.032-1.246-3.109-3.196-3.109c-2.545,0-3.281,1.98-3.335,3.109H174.472z
			"/>
		<path fill="#E9EDA0" d="M133.38,159.166c0.112,2.546,1.357,3.704,3.592,3.704c1.611,0,2.911-0.988,3.164-1.895h3.537
			c-1.133,3.449-3.537,4.922-6.844,4.922c-4.608,0-7.466-3.168-7.466-7.69c0-4.383,3.027-7.721,7.466-7.721
			c4.977,0,7.38,4.186,7.099,8.68 M139.912,156.623c-0.37-2.036-1.245-3.112-3.196-3.112c-2.544,0-3.28,1.983-3.336,3.112H139.912z"
			/>
		<polyline fill="#E9EDA0" points="150.035,157.811 145.227,150.882 149.809,150.882 152.382,154.698 154.926,150.882 
			159.365,150.882 154.56,157.726 159.96,165.502 155.379,165.502 152.324,160.894 149.271,165.502 144.775,165.502 		"/>
		<path fill="#E9EDA0" d="M165.615,148.621h-4.015v-3.31h4.015V148.621z M161.598,150.882h4.016v14.62h-4.016V150.882z"/>
		<path fill="#E9EDA0" d="M173.871,150.882h2.941v2.688h-2.941v7.239c0,1.355,0.338,1.695,1.698,1.695
			c0.422,0,0.818-0.026,1.243-0.114v3.139c-0.679,0.114-1.558,0.144-2.348,0.144c-2.46,0-4.61-0.566-4.61-3.479v-8.624h-2.432
			v-2.688h2.432V146.5h4.017"/>
		<g>
			<polygon fill-rule="evenodd" clip-rule="evenodd" fill="#0D9C4A" points="125.101,170.503 125.101,116.364 70.961,116.364 
				70.961,170.503 125.101,170.503 			"/>
			<path fill-rule="evenodd" clip-rule="evenodd" fill="#E9EDA0" d="M114.327,159.45v7.037l3.573,3.573H85.362l-3.615-3.616
				l0.014-46.503h32.503v33.461c1.977,0,3.309,0.946,4.14,1.773c0.832,0.832,2.174,4.314,2.174,4.314L114.327,159.45L114.327,159.45
				z"/>
			<path fill-rule="evenodd" clip-rule="evenodd" fill="#0D9C4A" d="M93.548,132.286c2.134,0,3.865-1.731,3.865-3.865
				s-1.731-3.865-3.865-3.865c-2.135,0-3.865,1.731-3.865,3.865S91.413,132.286,93.548,132.286L93.548,132.286z"/>
			<path fill-rule="evenodd" clip-rule="evenodd" fill="#0D9C4A" d="M100.148,148.133c0,0-7.182,14.047-7.926,15.333
				c-0.744,1.287-1.689,1.401-2.29,1.401h-3.72l9.415-19.195l-2.947-6.346c0,0-2.346,3.145-3.148,4.006
				c-0.472,0.471-0.944,0.657-1.458,0.657h-6.913v-3.675h5.768c0,0,2.861-3.606,3.949-5.066c1.204-1.617,2.291-2.102,4.693-2.102
				h7.907c1.46,0,3.643-0.065,4.653,1.434l3.407,5.676v-0.01c0.19,0.291,0.302,0.638,0.302,1.011c0,1.018-0.828,1.846-1.847,1.846
				c-0.664,0-1.243-0.347-1.567-0.87l0.092,0.128c0,0-2.988-4.824-3.103-5.168s-0.402-0.514-0.688-0.514h-3.892l3.12,6.162
				c1.116,2.347,1.058,6.781,1.058,6.781l0.373,3.862c0.003,0.461,0.284,0.602,0.487,0.602c0,0,5.207,0,6.064,0
				c3.178,0,4.716,0.651,5.694,1.63c0.979,0.979,1.346,2.72,1.346,2.72h-9.442h-5.665c-2.005,0-2.778-1.03-2.893-1.832l-0.34-3.437
				l-0.489-4.949V148.133L100.148,148.133z"/>
			<path fill-rule="evenodd" clip-rule="evenodd" fill="#0D9C4A" d="M91.487,170.188l-4.466-4.255h4.041
				c0.601,0,1.816,0.763,3.097,2.043c1.28,1.279,2.263,2.17,2.263,2.17L91.487,170.188L91.487,170.188z"/>
			<polygon fill-rule="evenodd" clip-rule="evenodd" fill="#0D9C4A" points="121.789,170.277 82.446,170.277 82.446,169.871 
				121.789,169.871 121.789,170.277 			"/>
		</g>
	</g>
	<g>
		<rect x="5" y="25.812" fill="#E9EDA0" width="190" height="61.688"/>
		<path fill="none" stroke="#1B181B" d="M5,87.496 M195,87.496H5V25.812h190V87.496z"/>
		<path fill="#0D9C4A" d="M191.282,33.496c0-2.072-1.826-3.793-3.786-3.793H12.675c-1.961,0-3.785,1.713-3.785,3.783v46.57
			c0,2.072,1.824,3.79,3.785,3.79h174.827c1.964,0,3.79-1.718,3.79-3.79"/>
		<polyline fill="#E9EDA0" points="171.718,50.86 171.718,74.483 148.094,74.483 138.345,64.733 155.124,64.721 133.533,43.13 
			140.363,36.301 161.951,57.891 161.951,41.096 		"/>
		<polyline fill="#E9EDA0" points="19.714,35.162 33.909,35.162 33.909,38.896 24.153,38.896 24.153,43.562 32.607,43.562 
			32.607,47.011 24.153,47.011 24.153,55.353 19.714,55.353 		"/>
		<path fill="#E9EDA0" d="M40.187,38.472h-4.015v-3.31h4.015V38.472z M36.17,40.734h4.015v14.618H36.17V40.734z"/>
		<path fill="#E9EDA0" d="M43.354,40.734h3.817v2.714h0.057c0.733-1.838,2.715-3.11,4.665-3.11c0.283,0,0.622,0.056,0.876,0.142
			v3.733c-0.368-0.086-0.961-0.143-1.442-0.143c-2.94,0-3.958,2.122-3.958,4.695v6.587h-4.015"/>
		<path fill="#E9EDA0" d="M57.158,49.019c0.111,2.546,1.357,3.705,3.591,3.705c1.612,0,2.912-0.99,3.166-1.895h3.535
			c-1.132,3.449-3.535,4.921-6.844,4.921c-4.608,0-7.465-3.169-7.465-7.691c0-4.384,3.025-7.721,7.465-7.721
			c4.977,0,7.381,4.185,7.099,8.681 M63.689,46.474c-0.367-2.034-1.245-3.11-3.195-3.11c-2.546,0-3.281,1.98-3.336,3.11H63.689z"/>
		<path fill="#E9EDA0" d="M22.599,72.477c0.111,2.547,1.357,3.705,3.591,3.705c1.612,0,2.912-0.988,3.165-1.895h3.536
			c-1.132,3.449-3.536,4.922-6.844,4.922c-4.608,0-7.465-3.168-7.465-7.69c0-4.383,3.025-7.721,7.465-7.721
			c4.977,0,7.381,4.186,7.099,8.679 M29.13,69.934c-0.369-2.035-1.245-3.112-3.195-3.112c-2.545,0-3.281,1.983-3.336,3.112H29.13z"
			/>
		<polyline fill="#E9EDA0" points="39.253,71.122 34.445,64.193 39.026,64.193 41.601,68.01 44.145,64.193 48.585,64.193 
			43.777,71.037 49.178,78.813 44.597,78.813 41.542,74.205 38.489,78.813 33.993,78.813 		"/>
		<path fill="#E9EDA0" d="M54.833,61.932h-4.015v-3.308h4.015V61.932z M50.816,64.193h4.016v14.62h-4.016V64.193z"/>
		<path fill="#E9EDA0" d="M63.09,64.193h2.94v2.688h-2.94v7.239c0,1.354,0.338,1.695,1.697,1.695c0.422,0,0.819-0.026,1.243-0.114
			v3.139c-0.678,0.114-1.557,0.144-2.347,0.144c-2.461,0-4.61-0.566-4.61-3.479v-8.623h-2.432v-2.688h2.432v-4.382h4.017"/>
		<g>
			<polygon fill-rule="evenodd" clip-rule="evenodd" fill="#0D9C4A" points="70.963,83.847 70.963,29.707 125.103,29.707 
				125.103,83.847 70.963,83.847 			"/>
			<path fill-rule="evenodd" clip-rule="evenodd" fill="#E9EDA0" d="M81.737,72.795v7.036l-3.574,3.574h32.539l3.614-3.617
				l-0.015-46.502H81.799v33.46c-1.977,0-3.309,0.946-4.14,1.774c-0.831,0.831-2.174,4.313-2.174,4.313L81.737,72.795L81.737,72.795
				z"/>
			<path fill-rule="evenodd" clip-rule="evenodd" fill="#0D9C4A" d="M102.517,45.63c-2.134,0-3.865-1.729-3.865-3.865
				c0-2.134,1.731-3.865,3.865-3.865s3.865,1.731,3.865,3.865C106.382,43.9,104.65,45.63,102.517,45.63L102.517,45.63z"/>
			<path fill-rule="evenodd" clip-rule="evenodd" fill="#0D9C4A" d="M95.915,61.477c0,0,7.184,14.048,7.927,15.334
				s1.689,1.4,2.289,1.4h3.72l-9.414-19.195l2.947-6.346c0,0,2.347,3.146,3.148,4.006c0.472,0.472,0.944,0.658,1.46,0.658h6.912
				v-3.676h-5.769c0,0-2.862-3.606-3.948-5.066c-1.205-1.615-2.291-2.1-4.694-2.1h-7.906c-1.46,0-3.644-0.065-4.654,1.432
				L84.525,53.6v-0.009c-0.189,0.29-0.301,0.637-0.301,1.01c0,1.02,0.828,1.846,1.846,1.846c0.664,0,1.243-0.347,1.567-0.87
				l-0.092,0.128c0,0,2.988-4.823,3.103-5.167c0.115-0.343,0.403-0.514,0.688-0.514h3.892l-3.119,6.161
				c-1.116,2.348-1.057,6.781-1.057,6.781l-0.373,3.862c-0.004,0.462-0.285,0.603-0.488,0.603c0,0-5.207,0-6.064,0
				c-3.178,0-4.716,0.651-5.694,1.63s-1.346,2.72-1.346,2.72h9.442h5.665c2.007,0,2.779-1.031,2.894-1.833l0.341-3.437l0.487-4.948
				V61.477L95.915,61.477z"/>
			<path fill-rule="evenodd" clip-rule="evenodd" fill="#0D9C4A" d="M104.577,83.532l4.466-4.254h-4.041
				c-0.601,0-1.816,0.763-3.098,2.042c-1.279,1.279-2.262,2.17-2.262,2.17L104.577,83.532L104.577,83.532z"/>
			<polygon fill-rule="evenodd" clip-rule="evenodd" fill="#0D9C4A" points="74.274,83.621 113.618,83.621 113.618,83.215 
				74.274,83.215 74.274,83.621 			"/>
		</g>
	</g>
</g>
</svg>
