<?xml version="1.0" encoding="utf-8"?>
<!-- Generator: Adobe Illustrator 16.0.0, SVG Export Plug-In . SVG Version: 6.00 Build 0)  -->
<!DOCTYPE svg PUBLIC "-//W3C//DTD SVG 1.1//EN" "http://www.w3.org/Graphics/SVG/1.1/DTD/svg11.dtd">
<svg version="1.1" id="Layer_1" xmlns="http://www.w3.org/2000/svg" xmlns:xlink="http://www.w3.org/1999/xlink" x="0px" y="0px"
	 width="200px" height="200px" viewBox="0 0 200 200" enable-background="new 0 0 200 200" xml:space="preserve">
<g>
	<g>
		<rect x="6.219" y="21.887" fill="#E9EDA0" width="190" height="20.307"/>
		<rect x="7.681" y="23.35" fill="#009035" width="58.499" height="17.55"/>
		<rect x="136.233" y="23.35" fill="#009035" width="58.499" height="17.55"/>
		<rect x="71.816" y="23.35" fill="#009035" width="58.499" height="17.55"/>
		<polyline fill="#E9EDA0" points="50.499,24.605 58.024,32.131 50.499,39.658 44.286,39.658 49.628,34.308 35.87,34.308 
			35.87,29.957 49.628,29.957 44.276,24.605 		"/>
		<polyline fill="#E9EDA0" points="19.982,31.617 19.303,35.069 15.997,35.069 15.227,36.44 20.418,36.44 21.188,32.726 
			24.037,38.757 25.557,38.757 22.413,32.107 23.744,29.633 25.268,31.332 27.269,31.332 27.269,38.77 25.855,40.174 24.009,40.174 
			25.133,39.154 23.595,39.154 22.691,40.174 15.166,40.174 16.749,38.799 16.749,36.816 14.546,36.816 15.707,34.68 16.749,34.68 
			16.749,24.17 27.269,24.17 27.269,30.255 25.746,30.255 23.528,27.778 18.862,27.778 17.338,30.428 18.271,30.965 19.486,28.854 
			21.445,28.854 		"/>
		<path fill="#009035" d="M23.68,24.998c-0.714,0-1.292,0.58-1.292,1.293c0,0.715,0.578,1.291,1.292,1.291
			c0.713,0,1.292-0.576,1.292-1.291C24.972,25.578,24.393,24.998,23.68,24.998"/>
		<polyline fill="#E9EDA0" points="115.377,24.605 122.901,32.131 115.377,39.658 109.164,39.658 114.506,34.308 100.749,34.308 
			100.749,29.957 114.506,29.957 109.154,24.605 		"/>
		<polyline fill="#E9EDA0" points="84.861,31.617 84.181,35.069 80.876,35.069 80.104,36.44 85.296,36.44 86.065,32.726 
			88.915,38.757 90.435,38.757 87.29,32.107 88.622,29.633 90.146,31.332 92.146,31.332 92.146,38.77 90.734,40.174 88.887,40.174 
			90.011,39.154 88.472,39.154 87.568,40.174 80.043,40.174 81.627,38.799 81.627,36.816 79.424,36.816 80.585,34.68 81.627,34.68 
			81.627,24.17 92.146,24.17 92.146,30.255 90.624,30.255 88.405,27.778 83.74,27.778 82.217,30.428 83.15,30.965 84.364,28.854 
			86.323,28.854 		"/>
		<path fill="#009035" d="M88.558,24.998c-0.714,0-1.291,0.58-1.291,1.293c0,0.715,0.577,1.291,1.291,1.291
			c0.713,0,1.291-0.576,1.291-1.291C89.849,25.578,89.271,24.998,88.558,24.998"/>
		<polyline fill="#E9EDA0" points="180.254,24.605 187.78,32.131 180.254,39.658 174.042,39.658 179.384,34.308 165.625,34.308 
			165.625,29.957 179.384,29.957 174.032,24.605 		"/>
		<polyline fill="#E9EDA0" points="149.738,31.617 149.059,35.069 145.754,35.069 144.982,36.44 150.174,36.44 150.942,32.726 
			153.794,38.757 155.312,38.757 152.169,32.107 153.5,29.633 155.023,31.332 157.024,31.332 157.024,38.77 155.612,40.174 
			153.765,40.174 154.889,39.154 153.35,39.154 152.447,40.174 144.922,40.174 146.504,38.799 146.504,36.816 144.303,36.816 
			145.463,34.68 146.504,34.68 146.504,24.17 157.024,24.17 157.024,30.255 155.503,30.255 153.284,27.778 148.618,27.778 
			147.095,30.428 148.028,30.965 149.242,28.854 151.201,28.854 		"/>
		<path fill="#009035" d="M153.436,24.998c-0.715,0-1.291,0.58-1.291,1.293c0,0.715,0.576,1.291,1.291,1.291
			c0.712,0,1.291-0.576,1.291-1.291C154.727,25.578,154.147,24.998,153.436,24.998"/>
	</g>
	<g>
		<g>
			<defs>
				<rect id="SVGID_1_" x="4.596" y="67.193" width="190.001" height="20.307"/>
			</defs>
			<clipPath id="SVGID_2_">
				<use xlink:href="#SVGID_1_"  overflow="visible"/>
			</clipPath>
			<rect x="4.596" y="67.193" clip-path="url(#SVGID_2_)" fill="#E9EDA0" width="190.001" height="20.307"/>
			<polyline clip-path="url(#SVGID_2_)" fill="#E30018" points="205.614,87.467 184.646,67.226 162.47,67.226 183.437,87.467 			"/>
		</g>
		<polyline fill="#E30018" points="161.286,87.467 140.317,67.226 118.142,67.226 139.11,87.467 		"/>
		<polyline fill="#E30018" points="116.958,87.467 95.993,67.226 73.816,67.226 94.783,87.467 		"/>
		<polyline fill="#E30018" points="72.633,87.467 51.666,67.226 29.488,67.226 50.457,87.467 		"/>
		<g>
			<defs>
				<rect id="SVGID_3_" x="4.596" y="67.193" width="190.001" height="20.307"/>
			</defs>
			<clipPath id="SVGID_4_">
				<use xlink:href="#SVGID_3_"  overflow="visible"/>
			</clipPath>
			<polyline clip-path="url(#SVGID_4_)" fill="#E30018" points="28.306,87.467 7.338,67.226 -14.839,67.226 6.129,87.467 			"/>
			<path clip-path="url(#SVGID_4_)" fill="none" stroke="#FFFFFE" stroke-width="0.5117" d="M4.596,87.5 M194.597,87.5H4.596V67.193
				h190.001V87.5z"/>
		</g>
	</g>
	<g>
		<g>
			<defs>
				<rect id="SVGID_5_" x="4.596" y="157.807" width="190" height="20.307"/>
			</defs>
			<clipPath id="SVGID_6_">
				<use xlink:href="#SVGID_5_"  overflow="visible"/>
			</clipPath>
			<rect x="4.596" y="157.807" clip-path="url(#SVGID_6_)" fill="#E9EDA0" width="190" height="20.307"/>
			<polyline clip-path="url(#SVGID_6_)" fill="#009035" points="205.615,178.08 184.647,157.838 162.471,157.838 183.438,178.08 			
				"/>
		</g>
		<polyline fill="#009035" points="161.287,178.08 140.319,157.838 118.144,157.838 139.11,178.08 		"/>
		<polyline fill="#009035" points="116.961,178.08 95.993,157.838 73.816,157.838 94.784,178.08 		"/>
		<polyline fill="#009035" points="72.634,178.08 51.666,157.838 29.489,157.838 50.456,178.08 		"/>
		<g>
			<defs>
				<rect id="SVGID_7_" x="4.596" y="157.807" width="190" height="20.307"/>
			</defs>
			<clipPath id="SVGID_8_">
				<use xlink:href="#SVGID_7_"  overflow="visible"/>
			</clipPath>
			<polyline clip-path="url(#SVGID_8_)" fill="#009035" points="28.307,178.08 7.339,157.838 -14.839,157.838 6.129,178.08 			"/>
		</g>
	</g>
	<g>
		<rect x="3.781" y="112.5" fill="#E9EDA0" width="190.001" height="20.307"/>
		<g>
			<defs>
				<rect id="SVGID_9_" x="3.781" y="112.5" width="190.001" height="20.307"/>
			</defs>
			<clipPath id="SVGID_10_">
				<use xlink:href="#SVGID_9_"  overflow="visible"/>
			</clipPath>
			<polyline clip-path="url(#SVGID_10_)" fill="#1B171A" points="204.8,132.773 183.832,112.532 161.655,112.532 182.622,132.773 
							"/>
		</g>
		<polyline fill="#1B171A" points="160.472,132.773 139.506,112.532 117.329,112.532 138.296,132.773 		"/>
		<polyline fill="#1B171A" points="116.146,132.773 95.179,112.532 73.002,112.532 93.97,132.773 		"/>
		<polyline fill="#1B171A" points="71.819,132.773 50.852,112.532 28.675,112.532 49.643,132.773 		"/>
		<g>
			<defs>
				<rect id="SVGID_11_" x="3.781" y="112.5" width="190.001" height="20.307"/>
			</defs>
			<clipPath id="SVGID_12_">
				<use xlink:href="#SVGID_11_"  overflow="visible"/>
			</clipPath>
			<polyline clip-path="url(#SVGID_12_)" fill="#1B171A" points="27.491,132.773 6.523,112.532 -15.653,112.532 5.314,132.773 			
				"/>
			<path clip-path="url(#SVGID_12_)" fill="none" stroke="#FFFFFE" stroke-width="0.5117" d="M3.781,132.807 M193.782,132.807H3.781
				V112.5h190.001V132.807z"/>
		</g>
	</g>
</g>
</svg>
