<?xml version="1.0" encoding="utf-8"?>
<!-- Generator: Adobe Illustrator 16.0.0, SVG Export Plug-In . SVG Version: 6.00 Build 0)  -->
<!DOCTYPE svg PUBLIC "-//W3C//DTD SVG 1.1//EN" "http://www.w3.org/Graphics/SVG/1.1/DTD/svg11.dtd">
<svg version="1.1" id="Layer_1" xmlns="http://www.w3.org/2000/svg" xmlns:xlink="http://www.w3.org/1999/xlink" x="0px" y="0px"
	 width="200px" height="200px" viewBox="0 0 200 200" enable-background="new 0 0 200 200" xml:space="preserve">
<rect x="5" y="52.5" fill="#E9EDA0" stroke="#231F20" stroke-miterlimit="10" width="190" height="95"/>
<g>
	<path fill="#0D9C4A" d="M9.086,60.007c0-2.078,1.831-3.805,3.799-3.805h174.236c1.969,0,3.801,1.719,3.801,3.792v80.001
		c0,2.078-1.832,3.801-3.801,3.801H12.875c-1.966,0-3.797-1.723-3.797-3.801"/>
	<path fill="#E9EDA0" d="M179.141,116.035h-15.486V103.23l-10.359-16.292h8.967l6.17,9.194l4.307-3.028l-8.27-11.757h-14.896
		c0.234-0.697,0.35-1.394,0.35-2.095c0-3.838-3.26-6.98-7.1-6.98c-3.844,0-6.984,3.142-6.984,6.98c0,3.378,2.447,6.17,5.705,6.871
		v10.708h-12.227v5.589h17.695v-5.009l5.354,7.683l-11.289,7.103v18.155h5.586v-14.084l11.404-6.748v12.103h21.074"/>
	<polyline fill="#E9EDA0" points="116.291,91.585 98.695,91.585 98.695,101.862 83.192,101.862 83.192,112.256 67.694,112.256 
		67.694,122.529 52.474,122.529 52.474,134.596 56.802,134.596 56.802,126.107 72.301,126.107 72.301,115.941 87.525,115.941 
		87.525,105.551 103.023,105.551 103.023,95.384 116.291,95.384 	"/>
	<polyline fill="#E9EDA0" points="86.436,70.677 83.906,85.01 98.239,87.536 105.195,82.667 95.017,80.861 110.422,70.071 
		107.012,65.202 91.605,75.988 93.399,65.799 	"/>
	<polyline fill="#E9EDA0" points="62.592,89.565 60.569,101.03 72.035,103.053 77.597,99.155 69.459,97.709 81.782,89.082 
		79.054,85.184 66.731,93.813 68.167,85.663 	"/>
	<polyline fill="#E9EDA0" points="43.225,105.189 41.608,114.363 50.776,115.98 55.231,112.863 48.715,111.707 58.579,104.807 
		56.393,101.686 46.532,108.59 47.683,102.065 	"/>
	<polyline fill="#E9EDA0" points="26.734,117.984 25.438,125.322 32.777,126.615 36.337,124.123 31.126,123.199 39.015,117.674 
		37.267,115.18 29.38,120.703 30.298,115.486 	"/>
</g>
</svg>
