<?xml version="1.0" encoding="utf-8"?>
<!-- Generator: Adobe Illustrator 16.0.0, SVG Export Plug-In . SVG Version: 6.00 Build 0)  -->
<!DOCTYPE svg PUBLIC "-//W3C//DTD SVG 1.1//EN" "http://www.w3.org/Graphics/SVG/1.1/DTD/svg11.dtd">
<svg version="1.1" id="Layer_1" xmlns="http://www.w3.org/2000/svg" xmlns:xlink="http://www.w3.org/1999/xlink" x="0px" y="0px"
	 width="200px" height="200px" viewBox="0 0 200 200" enable-background="new 0 0 200 200" xml:space="preserve">
<g>
	<g>
		<rect x="5" y="25.812" fill="#E9EDA0" width="190" height="61.688"/>
		<path fill="none" stroke="#1B181B" d="M5,87.5 M195,87.5H5V25.812h190V87.5z"/>
		<path fill="#039046" d="M191.184,33.454c0-2.071-1.826-3.792-3.787-3.792H12.575c-1.962,0-3.788,1.712-3.788,3.784v46.569
			c0,2.068,1.826,3.787,3.788,3.787h174.832c1.961,0,3.787-1.718,3.787-3.787"/>
		<polyline fill="#E9EDA0" points="170.935,65.078 154.233,81.782 137.528,65.078 137.528,51.295 149.405,63.147 149.405,32.616 
			159.058,32.616 159.058,63.147 170.935,51.273 		"/>
		<polyline fill="#E9EDA0" points="20.215,35.165 34.41,35.165 34.41,38.898 24.653,38.898 24.653,43.564 33.109,43.564 
			33.109,47.013 24.653,47.013 24.653,55.355 20.215,55.355 		"/>
		<path fill="#E9EDA0" d="M40.687,38.474h-4.016v-3.309h4.016V38.474z M36.671,40.737h4.016v14.618h-4.016V40.737z"/>
		<path fill="#E9EDA0" d="M43.854,40.737h3.818v2.714h0.057c0.733-1.838,2.715-3.11,4.666-3.11c0.283,0,0.624,0.056,0.877,0.141
			v3.733c-0.368-0.085-0.962-0.142-1.441-0.142c-2.942,0-3.96,2.122-3.96,4.696v6.586h-4.016"/>
		<path fill="#E9EDA0" d="M57.658,49.021c0.115,2.545,1.357,3.705,3.59,3.705c1.614,0,2.913-0.991,3.168-1.895h3.533
			c-1.13,3.45-3.533,4.921-6.842,4.921c-4.61,0-7.465-3.169-7.465-7.692c0-4.383,3.026-7.72,7.465-7.72
			c4.977,0,7.38,4.184,7.097,8.68 M64.191,46.476c-0.368-2.034-1.245-3.11-3.196-3.11c-2.546,0-3.279,1.981-3.337,3.11H64.191z"/>
		<path fill="#E9EDA0" d="M23.099,72.481c0.115,2.543,1.356,3.705,3.592,3.705c1.612,0,2.912-0.992,3.167-1.895h3.533
			c-1.131,3.449-3.533,4.919-6.842,4.919c-4.61,0-7.464-3.168-7.464-7.691c0-4.382,3.024-7.72,7.464-7.72
			c4.976,0,7.38,4.186,7.097,8.683 M29.631,69.935c-0.368-2.036-1.246-3.109-3.196-3.109c-2.546,0-3.28,1.98-3.337,3.109H29.631z"/>
		<polyline fill="#E9EDA0" points="39.754,71.123 34.946,64.194 39.527,64.194 42.101,68.014 44.647,64.194 49.085,64.194 
			44.277,71.038 49.679,78.814 45.099,78.814 42.043,74.206 38.992,78.814 34.493,78.814 		"/>
		<path fill="#E9EDA0" d="M55.334,61.933h-4.016v-3.308h4.016V61.933z M51.317,64.194h4.016v14.62h-4.016V64.194z"/>
		<path fill="#E9EDA0" d="M63.59,64.194h2.941v2.687H63.59v7.239c0,1.358,0.34,1.695,1.697,1.695c0.424,0,0.82-0.026,1.244-0.111
			v3.139c-0.679,0.111-1.555,0.141-2.347,0.141c-2.461,0-4.608-0.566-4.608-3.479v-8.624h-2.432v-2.687h2.432v-4.383h4.014"/>
		<g>
			<polygon fill-rule="evenodd" clip-rule="evenodd" fill="#039046" points="70.962,83.802 70.962,29.662 125.102,29.662 
				125.102,83.802 70.962,83.802 			"/>
			<path fill-rule="evenodd" clip-rule="evenodd" fill="#E9EDA0" d="M81.736,72.75v7.037l-3.574,3.574h32.539l3.614-3.616
				l-0.015-46.502H81.798v33.46c-1.977,0-3.309,0.946-4.14,1.774c-0.832,0.831-2.173,4.313-2.173,4.313L81.736,72.75L81.736,72.75z"
				/>
			<path fill-rule="evenodd" clip-rule="evenodd" fill="#039046" d="M102.516,45.584c-2.134,0-3.866-1.729-3.866-3.865
				c0-2.134,1.731-3.865,3.866-3.865c2.134,0,3.865,1.731,3.865,3.865C106.381,43.855,104.649,45.584,102.516,45.584L102.516,45.584
				z"/>
			<path fill-rule="evenodd" clip-rule="evenodd" fill="#039046" d="M95.914,61.432c0,0,7.184,14.047,7.927,15.333
				s1.688,1.401,2.29,1.401h3.719l-9.414-19.195l2.947-6.346c0,0,2.347,3.147,3.148,4.006c0.471,0.472,0.944,0.658,1.459,0.658
				h6.913v-3.676h-5.769c0,0-2.862-3.606-3.949-5.066c-1.204-1.615-2.291-2.099-4.693-2.099h-7.907
				c-1.459,0-3.643-0.066-4.654,1.432l-3.407,5.675v-0.008c-0.19,0.29-0.301,0.637-0.301,1.01c0,1.02,0.828,1.846,1.846,1.846
				c0.664,0,1.244-0.347,1.567-0.871l-0.091,0.128c0,0,2.988-4.823,3.103-5.167s0.403-0.514,0.688-0.514h3.891l-3.119,6.161
				c-1.116,2.348-1.057,6.781-1.057,6.781l-0.374,3.862c-0.003,0.462-0.285,0.603-0.487,0.603c0,0-5.208,0-6.065,0
				c-3.178,0-4.716,0.651-5.695,1.63c-0.979,0.979-1.345,2.72-1.345,2.72h9.442h5.666c2.006,0,2.778-1.031,2.893-1.833l0.34-3.437
				l0.488-4.948V61.432L95.914,61.432z"/>
			<path fill-rule="evenodd" clip-rule="evenodd" fill="#039046" d="M104.576,83.488l4.465-4.255h-4.04
				c-0.601,0-1.816,0.763-3.098,2.042c-1.28,1.279-2.262,2.169-2.262,2.169L104.576,83.488L104.576,83.488z"/>
			<polygon fill-rule="evenodd" clip-rule="evenodd" fill="#039046" points="74.274,83.576 113.617,83.576 113.617,83.17 
				74.274,83.17 74.274,83.576 			"/>
		</g>
	</g>
	<g>
		<rect x="5" y="112.5" fill="#E9EDA0" width="190" height="61.688"/>
		<path fill="none" stroke="#1B181B" d="M195,174.188 M5,112.5h190v61.688H5V112.5z"/>
		<path fill="#039046" d="M8.816,120.141c0-2.07,1.826-3.791,3.787-3.791h174.822c1.961,0,3.787,1.712,3.787,3.783v46.57
			c0,2.068-1.826,3.786-3.787,3.786H12.594c-1.961,0-3.787-1.718-3.787-3.786"/>
		<polyline fill="#E9EDA0" points="29.065,151.766 45.767,168.47 62.472,151.766 62.472,137.982 50.595,149.834 50.595,119.303 
			40.942,119.303 40.942,149.834 29.065,137.961 		"/>
		<g>
			<polyline fill="#E9EDA0" points="132.902,121.852 147.098,121.852 147.098,125.586 137.341,125.586 137.341,130.252 
				145.797,130.252 145.797,133.701 137.341,133.701 137.341,142.043 132.902,142.043 			"/>
			<path fill="#E9EDA0" d="M153.375,125.162h-4.016v-3.309h4.016V125.162z M149.359,127.424h4.016v14.619h-4.016V127.424z"/>
			<path fill="#E9EDA0" d="M156.541,127.424h3.818v2.715h0.057c0.732-1.839,2.715-3.11,4.666-3.11c0.283,0,0.623,0.056,0.877,0.141
				v3.733c-0.369-0.085-0.963-0.143-1.441-0.143c-2.943,0-3.961,2.122-3.961,4.696v6.587h-4.016"/>
			<path fill="#E9EDA0" d="M170.346,135.709c0.115,2.545,1.357,3.705,3.59,3.705c1.614,0,2.914-0.991,3.169-1.896h3.532
				c-1.13,3.45-3.532,4.921-6.842,4.921c-4.609,0-7.465-3.168-7.465-7.691c0-4.383,3.025-7.72,7.465-7.72
				c4.977,0,7.381,4.185,7.098,8.681 M176.879,133.163c-0.369-2.034-1.246-3.11-3.196-3.11c-2.546,0-3.279,1.981-3.337,3.11H176.879
				z"/>
			<path fill="#E9EDA0" d="M135.786,159.168c0.114,2.543,1.356,3.705,3.592,3.705c1.612,0,2.911-0.991,3.167-1.895h3.533
				c-1.131,3.449-3.533,4.919-6.842,4.919c-4.61,0-7.465-3.168-7.465-7.691c0-4.382,3.024-7.72,7.465-7.72
				c4.976,0,7.38,4.186,7.097,8.682 M142.318,156.622c-0.367-2.036-1.245-3.108-3.195-3.108c-2.547,0-3.279,1.979-3.337,3.108
				H142.318z"/>
			<polyline fill="#E9EDA0" points="152.441,157.811 147.634,150.882 152.215,150.882 154.789,154.701 157.334,150.882 
				161.772,150.882 156.965,157.725 162.367,165.502 157.786,165.502 154.73,160.893 151.68,165.502 147.181,165.502 			"/>
			<path fill="#E9EDA0" d="M168.021,148.62h-4.016v-3.308h4.016V148.62z M164.005,150.882h4.016v14.62h-4.016V150.882z"/>
			<path fill="#E9EDA0" d="M176.277,150.882h2.941v2.687h-2.941v7.24c0,1.357,0.341,1.695,1.697,1.695
				c0.424,0,0.82-0.026,1.244-0.111v3.139c-0.68,0.111-1.555,0.141-2.347,0.141c-2.462,0-4.608-0.566-4.608-3.479v-8.624h-2.432
				v-2.687h2.432v-4.383h4.014"/>
		</g>
		<g>
			<polygon fill-rule="evenodd" clip-rule="evenodd" fill="#039046" points="129.038,170.489 129.038,116.35 74.898,116.35 
				74.898,170.489 129.038,170.489 			"/>
			<path fill-rule="evenodd" clip-rule="evenodd" fill="#E9EDA0" d="M118.264,159.438v7.036l3.574,3.573H89.299l-3.614-3.615
				l0.015-46.503h32.502v33.46c1.978,0,3.31,0.945,4.141,1.773c0.832,0.832,2.174,4.314,2.174,4.314L118.264,159.438
				L118.264,159.438z"/>
			<path fill-rule="evenodd" clip-rule="evenodd" fill="#039046" d="M97.484,132.271c2.135,0,3.865-1.729,3.865-3.865
				c0-2.133-1.73-3.865-3.865-3.865c-2.134,0-3.865,1.732-3.865,3.865C93.619,130.543,95.351,132.271,97.484,132.271L97.484,132.271
				z"/>
			<path fill-rule="evenodd" clip-rule="evenodd" fill="#039046" d="M104.086,148.119c0,0-7.184,14.047-7.927,15.334
				c-0.743,1.285-1.688,1.4-2.29,1.4H90.15l9.414-19.195l-2.947-6.346c0,0-2.347,3.146-3.148,4.006
				c-0.471,0.471-0.944,0.658-1.459,0.658h-6.913v-3.676h5.769c0,0,2.862-3.607,3.949-5.066c1.204-1.615,2.291-2.1,4.693-2.1h7.906
				c1.46,0,3.643-0.066,4.654,1.432l3.407,5.676v-0.009c0.19,0.29,0.302,0.637,0.302,1.01c0,1.02-0.828,1.846-1.847,1.846
				c-0.664,0-1.243-0.347-1.567-0.87l0.092,0.127c0,0-2.988-4.822-3.104-5.166c-0.114-0.344-0.402-0.514-0.688-0.514h-3.891
				l3.119,6.161c1.115,2.348,1.057,6.781,1.057,6.781l0.373,3.862c0.004,0.461,0.285,0.602,0.488,0.602c0,0,5.207,0,6.064,0
				c3.178,0,4.716,0.652,5.695,1.631c0.979,0.979,1.344,2.719,1.344,2.719h-9.441h-5.666c-2.006,0-2.777-1.031-2.893-1.832
				l-0.34-3.438l-0.488-4.947V148.119L104.086,148.119z"/>
			<path fill-rule="evenodd" clip-rule="evenodd" fill="#039046" d="M95.424,170.176l-4.465-4.256h4.04
				c0.601,0,1.816,0.764,3.098,2.043c1.28,1.279,2.262,2.17,2.262,2.17L95.424,170.176L95.424,170.176z"/>
			<polygon fill-rule="evenodd" clip-rule="evenodd" fill="#039046" points="125.727,170.264 86.383,170.264 86.383,169.857 
				125.727,169.857 125.727,170.264 			"/>
		</g>
	</g>
</g>
</svg>
