<?xml version="1.0" encoding="utf-8"?>
<!-- Generator: Adobe Illustrator 16.0.0, SVG Export Plug-In . SVG Version: 6.00 Build 0)  -->
<!DOCTYPE svg PUBLIC "-//W3C//DTD SVG 1.1//EN" "http://www.w3.org/Graphics/SVG/1.1/DTD/svg11.dtd">
<svg version="1.1" id="Layer_1" xmlns="http://www.w3.org/2000/svg" xmlns:xlink="http://www.w3.org/1999/xlink" x="0px" y="0px"
	 width="200px" height="200px" viewBox="0 -25 200 200" enable-background="new 0 -25 200 200" xml:space="preserve">
<g>
	<g>
		<rect x="5.098" y="-14.428" fill="#FEF2E6" width="189.805" height="37.962"/>
		<path fill="none" stroke="#1B171A" d="M194.902,23.534H5.098H194.902z M5.098,23.534h189.805v-37.96H5.098V23.534z"/>
		<path fill="#1B171A" d="M82.291-6.591c-0.197-1.427-1.564-2.513-3.132-2.513c-2.831,0-3.897,2.412-3.897,4.921
			c0,2.392,1.066,4.804,3.897,4.804c1.928,0,3.012-1.324,3.256-3.215h3.051c-0.322,3.577-2.79,5.867-6.308,5.867
			c-4.437,0-7.05-3.318-7.05-7.456c0-4.255,2.613-7.573,7.05-7.573c3.153,0,5.804,1.854,6.187,5.166L82.291-6.591L82.291-6.591z"/>
		<path fill="#1B171A" d="M94.046-11.757c4.437,0,7.045,3.318,7.045,7.573c0,4.138-2.608,7.455-7.045,7.455
			c-4.44,0-7.05-3.317-7.05-7.455C86.996-8.438,89.605-11.757,94.046-11.757 M94.046,0.621c2.833,0,3.894-2.412,3.894-4.804
			c0-2.509-1.061-4.921-3.894-4.921c-2.835,0-3.897,2.412-3.897,4.921C90.148-1.791,91.211,0.621,94.046,0.621z"/>
		<polygon fill="#1B171A" points="103.244,-11.411 106.397,-11.411 106.397,0.278 113.393,0.278 113.393,2.929 103.244,2.929 		"/>
		<path fill="#1B171A" d="M115.152-11.411h6.192c3.714,0,6.507,2.33,6.507,7.09c0,4.16-2.131,7.252-6.507,7.252h-6.192V-11.411z
			 M118.308,0.278h2.818c1.823,0,3.574-1.124,3.574-4.298c0-2.893-1.01-4.74-4.139-4.74h-2.254V0.278z"/>
		<polygon fill="#1B171A" points="80.596,20.783 77.462,20.783 75.031,11.021 74.992,11.021 72.603,20.783 69.408,20.783 
			65.611,6.446 68.766,6.446 71.034,16.209 71.075,16.209 73.564,6.446 76.517,6.446 78.969,16.326 79.009,16.326 81.357,6.446 
			84.452,6.446 		"/>
		<path fill="#1B171A" d="M87.808,6.446h3.234l5.361,14.337h-3.271l-1.084-3.19h-5.365l-1.126,3.19H82.36L87.808,6.446z
			 M87.508,15.245h3.714l-1.809-5.266h-0.037L87.508,15.245z"/>
		<polygon fill="#1B171A" points="99.218,9.097 94.915,9.097 94.915,6.446 106.67,6.446 106.67,9.097 102.373,9.097 102.373,20.783 
			99.218,20.783 		"/>
		<polygon fill="#1B171A" points="108.314,6.446 119.047,6.446 119.047,9.097 111.465,9.097 111.465,12.169 118.422,12.169 
			118.422,14.618 111.465,14.618 111.465,18.133 119.203,18.133 119.203,20.783 108.314,20.783 		"/>
		<path fill="#1B171A" d="M121.333,6.446h7.732c2.575,0,4.199,1.783,4.199,3.956c0,1.688-0.684,2.952-2.271,3.595v0.041
			c1.549,0.401,1.988,1.908,2.091,3.351c0.061,0.907,0.039,2.593,0.603,3.395h-3.154c-0.386-0.898-0.342-2.287-0.499-3.433
			c-0.224-1.506-0.81-2.166-2.396-2.166h-3.147v5.599h-3.157V6.446L121.333,6.446z M124.49,12.932h3.454
			c1.405,0,2.166-0.604,2.166-2.048c0-1.388-0.761-1.989-2.166-1.989h-3.454V12.932z"/>
	</g>
	<g>
		<rect x="5.098" y="79.499" fill="#FEF2E6" width="189.807" height="37.965"/>
		<path fill="none" stroke="#1B171A" d="M194.904,117.464H5.095H194.904z M5.095,117.464h189.809V79.499H5.095V117.464z"/>
		<polygon fill="#1B171A" points="47.45,84.948 66.495,84.948 66.495,89.956 53.406,89.956 53.406,96.212 64.751,96.212 
			64.751,100.845 53.406,100.845 53.406,112.036 47.45,112.036 		"/>
		<polygon fill="#1B171A" points="69.95,84.948 75.905,84.948 75.905,107.03 89.112,107.03 89.112,112.036 69.95,112.036 		"/>
		<path fill="#1B171A" d="M104.594,84.302c8.385,0,13.316,6.258,13.316,14.304c0,7.815-4.93,14.078-13.316,14.078
			c-8.388,0-13.319-6.262-13.319-14.078C91.273,90.558,96.206,84.302,104.594,84.302 M104.594,107.669
			c5.35,0,7.359-4.549,7.359-9.063c0-4.749-2.01-9.296-7.359-9.296c-5.353,0-7.362,4.547-7.362,9.296
			C97.231,103.12,99.241,107.669,104.594,107.669z"/>
		<polygon fill="#1B171A" points="147.77,112.036 141.855,112.036 137.26,93.592 137.186,93.592 132.67,112.036 126.637,112.036 
			119.461,84.948 125.426,84.948 129.711,103.387 129.787,103.387 134.49,84.948 140.068,84.948 144.701,103.613 144.777,103.613 
			149.215,84.948 155.057,84.948 		"/>
	</g>
	<g>
		<rect x="5.097" y="126.464" fill="#FEF2E6" width="189.807" height="37.964"/>
		<path fill="none" stroke="#1B171A" d="M194.903,164.428H5.097H194.903z M5.097,164.428h189.807v-37.964H5.097V164.428z"/>
		<path fill="#1B171A" d="M23.222,131.907h14.609c4.858,0,7.93,3.379,7.93,7.478c0,3.188-1.291,5.579-4.286,6.791v0.076
			c2.921,0.759,3.754,3.605,3.945,6.337c0.118,1.71,0.077,4.894,1.139,6.414h-5.956c-0.722-1.71-0.645-4.327-0.95-6.488
			c-0.417-2.847-1.517-4.101-4.515-4.101H29.18v10.589h-5.959L23.222,131.907L23.222,131.907z M29.181,144.165h6.527
			c2.657,0,4.096-1.142,4.096-3.874c0-2.617-1.438-3.751-4.096-3.751h-6.527V144.165z"/>
		<polygon fill="#1B171A" points="50.619,131.907 70.883,131.907 70.883,136.915 56.577,136.915 56.577,142.721 69.703,142.721 
			69.703,147.354 56.577,147.354 56.577,153.995 71.186,153.995 71.186,159.001 50.619,159.001 		"/>
		<polygon fill="#1B171A" points="81.2,136.915 73.078,136.915 73.078,131.907 95.277,131.907 95.277,136.915 87.158,136.915 
			87.158,159.001 81.2,159.001 		"/>
		<path fill="#1B171A" d="M121.384,148.753c0,7.328-4.327,10.895-11.573,10.895c-7.283,0-11.538-3.53-11.538-10.895v-16.846h5.961
			v16.846c0,2.962,0.753,5.881,5.577,5.881c4.248,0,5.615-1.855,5.615-5.881v-16.846h5.958V148.753z"/>
		<path fill="#1B171A" d="M126.507,131.907h14.608c4.856,0,7.928,3.379,7.928,7.478c0,3.188-1.293,5.579-4.285,6.791v0.076
			c2.918,0.759,3.754,3.605,3.943,6.337c0.115,1.71,0.077,4.894,1.141,6.414h-5.956c-0.723-1.71-0.646-4.327-0.952-6.488
			c-0.416-2.847-1.516-4.101-4.514-4.101h-5.957v10.589h-5.959v-27.096H126.507z M132.463,144.165h6.53
			c2.654,0,4.093-1.142,4.093-3.874c0-2.617-1.438-3.751-4.093-3.751h-6.53V144.165z"/>
		<polygon fill="#1B171A" points="153.899,131.907 159.82,131.907 171.126,150.085 171.203,150.085 171.203,131.907 176.78,131.907 
			176.78,159.001 170.822,159.001 159.56,140.862 159.478,140.862 159.478,159.001 153.899,159.001 		"/>
	</g>
	<g>
		<rect x="5.095" y="32.534" fill="#FEF2E6" width="189.811" height="37.965"/>
		<path fill="none" stroke="#1B171A" d="M194.899,70.498H5.095H194.899z M5.095,70.498h189.805v-37.96H5.095V70.498z"/>
		<polygon fill="#1B171A" points="79.992,35.551 83.146,35.551 83.146,41.055 88.951,41.055 88.951,35.551 92.105,35.551 
			92.105,49.892 88.951,49.892 88.951,43.708 83.146,43.708 83.146,49.892 79.992,49.892 		"/>
		<path fill="#1B171A" d="M101.307,35.209c4.438,0,7.049,3.315,7.049,7.573c0,4.137-2.611,7.454-7.049,7.454
			c-4.439,0-7.051-3.317-7.051-7.454C94.255,38.524,96.867,35.209,101.307,35.209 M101.307,47.585c2.829,0,3.895-2.409,3.895-4.803
			c0-2.512-1.065-4.923-3.895-4.923c-2.834,0-3.899,2.412-3.899,4.923C97.408,45.176,98.472,47.585,101.307,47.585z"/>
		<polygon fill="#1B171A" points="113.679,38.204 109.378,38.204 109.378,35.551 121.138,35.551 121.138,38.204 116.835,38.204 
			116.835,49.892 113.679,49.892 		"/>
		<polygon fill="#1B171A" points="80.597,67.749 77.46,67.749 75.03,57.987 74.991,57.987 72.598,67.749 69.408,67.749 
			65.612,53.408 68.765,53.408 71.033,63.17 71.074,63.17 73.563,53.408 76.516,53.408 78.967,63.291 79.01,63.291 81.356,53.408 
			84.452,53.408 		"/>
		<path fill="#1B171A" d="M87.806,53.408h3.234l5.367,14.341h-3.275l-1.085-3.194h-5.363l-1.125,3.194h-3.194L87.806,53.408z
			 M87.507,62.207h3.715l-1.809-5.265h-0.041L87.507,62.207z"/>
		<polygon fill="#1B171A" points="99.216,56.06 94.915,56.06 94.915,53.408 106.668,53.408 106.668,56.06 102.372,56.06 
			102.372,67.749 99.216,67.749 		"/>
		<polygon fill="#1B171A" points="108.318,53.408 119.044,53.408 119.044,56.06 111.474,56.06 111.474,59.133 118.419,59.133 
			118.419,61.585 111.474,61.585 111.474,65.097 119.2,65.097 119.2,67.749 108.318,67.749 		"/>
		<path fill="#1B171A" d="M121.332,53.408h7.733c2.574,0,4.199,1.787,4.199,3.958c0,1.687-0.681,2.951-2.271,3.594V61
			c1.549,0.403,1.991,1.91,2.09,3.354c0.061,0.905,0.044,2.591,0.603,3.395h-3.148c-0.386-0.901-0.342-2.289-0.506-3.435
			c-0.222-1.505-0.805-2.166-2.391-2.166h-3.154v5.601h-3.154L121.332,53.408L121.332,53.408z M124.484,59.892h3.454
			c1.409,0,2.175-0.601,2.175-2.045c0-1.389-0.766-1.992-2.175-1.992h-3.454V59.892z"/>
		<polygon fill="#FFEC06" points="27.761,39.464 13.316,64.627 41.95,64.627 		"/>
		<path fill="#1B171A" d="M44.323,64.771L28.782,37.464c0,0-0.24-0.592-1.005-0.592c-0.766,0-1.122,0.592-1.122,0.592L11.035,64.7
			c0,0-0.394,0.674-0.029,1.301c0,0,0.373,0.623,0.989,0.623h31.148c0,0,0.834,0.025,1.17-0.631
			C44.594,65.446,44.456,65.025,44.323,64.771 M13.599,64.477l14.159-24.668L41.67,64.476L13.599,64.477L13.599,64.477z"/>
		<path fill="#1B171A" d="M25.233,51.331c-0.035,0.037-0.872,0.95-0.897,3.326c-0.008,1.127,0.356,1.822,0.706,2.492
			c0.348,0.651,0.674,1.271,0.688,2.333c0.032,2.084-0.489,2.58-0.494,2.586c0,0,0.005-0.006,0.016-0.012
			c-0.153,0.111-0.184,0.329-0.073,0.481c0.112,0.15,0.329,0.184,0.48,0.07c0.131-0.097,0.798-0.708,0.756-3.138
			c-0.016-1.225-0.414-1.979-0.762-2.642c-0.34-0.651-0.637-1.21-0.629-2.166c0.018-2.076,0.704-2.86,0.707-2.865v0.004
			c0.13-0.14,0.123-0.359-0.017-0.486C25.58,51.185,25.361,51.192,25.233,51.331"/>
		<path fill="#1B171A" d="M22.468,51.355c-0.035,0.035-0.871,0.954-0.893,3.33c-0.012,1.127,0.355,1.818,0.71,2.489
			c0.343,0.654,0.666,1.273,0.682,2.336c0.032,2.084-0.488,2.577-0.491,2.583c0,0,0.003-0.003,0.012-0.012
			c-0.149,0.114-0.188,0.329-0.072,0.479c0.116,0.155,0.329,0.186,0.479,0.075c0.136-0.098,0.795-0.709,0.762-3.139
			c-0.021-1.227-0.417-1.978-0.767-2.641c-0.337-0.651-0.634-1.213-0.627-2.169c0.024-2.073,0.702-2.857,0.709-2.865l-0.005,0.006
			c0.133-0.139,0.131-0.358-0.013-0.486C22.819,51.208,22.598,51.214,22.468,51.355"/>
		<path fill="#1B171A" d="M23.85,51.331c-0.04,0.037-0.873,0.95-0.896,3.326c-0.008,1.127,0.354,1.822,0.708,2.492
			c0.342,0.651,0.665,1.271,0.682,2.333c0.032,2.084-0.486,2.58-0.489,2.586c0,0,0.002-0.006,0.011-0.012
			c-0.153,0.111-0.186,0.329-0.074,0.481c0.111,0.15,0.331,0.184,0.481,0.07c0.135-0.097,0.797-0.708,0.761-3.138
			c-0.02-1.225-0.417-1.979-0.764-2.642c-0.347-0.651-0.638-1.21-0.629-2.166c0.02-2.076,0.7-2.86,0.706-2.865l-0.005,0.004
			c0.134-0.14,0.126-0.359-0.012-0.486C24.193,51.185,23.981,51.192,23.85,51.331"/>
		<path fill="#1B171A" d="M31.307,58.205h-0.003v-9.459c0,0,0.028-1.208-1.417-1.208c-1.393,0-1.393,1.17-1.393,1.17v9.468
			c-0.688,0.447-1.128,1.219-1.128,2.116c0,1.4,1.123,2.534,2.521,2.534c1.417,0,2.572-1.159,2.572-2.534
			C32.459,59.432,31.992,58.663,31.307,58.205 M30.577,51.161h-1.374v-2.356c0,0,0-0.674,0.685-0.674c0.69,0,0.69,0.674,0.69,0.674
			L30.577,51.161L30.577,51.161z"/>
		<polygon fill="#FFEC06" points="172.562,39.464 158.121,64.627 186.753,64.627 		"/>
		<path fill="#1B171A" d="M189.121,64.771l-15.538-27.307c0,0-0.24-0.592-1.007-0.592c-0.764,0-1.118,0.592-1.118,0.592L155.84,64.7
			c0,0-0.398,0.674-0.032,1.301c0,0,0.369,0.623,0.986,0.623h31.152c0,0,0.832,0.025,1.168-0.631
			C189.391,65.446,189.257,65.025,189.121,64.771 M158.403,64.477l14.153-24.668l13.914,24.667L158.403,64.477L158.403,64.477z"/>
		<path fill="#1B171A" d="M170.029,51.331c-0.031,0.037-0.866,0.95-0.889,3.326c-0.005,1.127,0.354,1.822,0.704,2.492
			c0.344,0.651,0.675,1.271,0.686,2.333c0.031,2.084-0.49,2.58-0.495,2.586c0,0,0.005-0.006,0.018-0.012
			c-0.157,0.111-0.185,0.329-0.07,0.481c0.107,0.15,0.326,0.184,0.476,0.07c0.132-0.097,0.8-0.708,0.762-3.138
			c-0.022-1.225-0.413-1.979-0.767-2.642c-0.336-0.651-0.635-1.21-0.624-2.166c0.016-2.076,0.701-2.86,0.706-2.865v0.004
			c0.131-0.14,0.119-0.359-0.019-0.486C170.384,51.185,170.161,51.192,170.029,51.331"/>
		<path fill="#1B171A" d="M167.272,51.355c-0.039,0.035-0.874,0.954-0.896,3.33c-0.012,1.127,0.358,1.818,0.71,2.489
			c0.343,0.654,0.663,1.273,0.687,2.336c0.028,2.084-0.489,2.577-0.494,2.583c0,0,0.005-0.003,0.01-0.012
			c-0.152,0.114-0.185,0.329-0.07,0.479c0.113,0.155,0.326,0.186,0.476,0.075c0.139-0.098,0.801-0.709,0.767-3.139
			c-0.021-1.227-0.422-1.978-0.767-2.641c-0.341-0.651-0.639-1.213-0.629-2.169c0.021-2.073,0.701-2.857,0.712-2.865l-0.006,0.006
			c0.132-0.139,0.125-0.358-0.017-0.486C167.619,51.208,167.396,51.214,167.272,51.355"/>
		<path fill="#1B171A" d="M168.65,51.331c-0.036,0.037-0.873,0.95-0.896,3.326c-0.005,1.127,0.354,1.822,0.706,2.492
			c0.35,0.651,0.676,1.271,0.686,2.333c0.031,2.084-0.483,2.58-0.488,2.586c0,0,0.005-0.006,0.01-0.012
			c-0.149,0.111-0.184,0.329-0.076,0.481c0.114,0.15,0.331,0.184,0.484,0.07c0.136-0.097,0.798-0.708,0.759-3.138
			c-0.016-1.225-0.412-1.979-0.759-2.642c-0.349-0.651-0.637-1.21-0.631-2.166c0.016-2.076,0.699-2.86,0.704-2.865l-0.005,0.004
			c0.131-0.14,0.131-0.359-0.011-0.486C168.993,51.185,168.782,51.192,168.65,51.331"/>
		<path fill="#1B171A" d="M176.108,58.205L176.108,58.205v-9.459c0,0,0.021-1.208-1.418-1.208c-1.396,0-1.396,1.17-1.396,1.17v9.468
			c-0.685,0.447-1.124,1.219-1.124,2.116c0,1.4,1.118,2.534,2.52,2.534c1.418,0,2.57-1.159,2.57-2.534
			C177.259,59.432,176.793,58.663,176.108,58.205 M175.374,51.161h-1.373v-2.356c0,0,0-0.674,0.689-0.674
			c0.686,0,0.686,0.674,0.686,0.674v2.356H175.374z"/>
	</g>
</g>
</svg>
