<?xml version="1.0" encoding="utf-8"?>
<!-- Generator: Adobe Illustrator 16.0.0, SVG Export Plug-In . SVG Version: 6.00 Build 0)  -->
<!DOCTYPE svg PUBLIC "-//W3C//DTD SVG 1.1//EN" "http://www.w3.org/Graphics/SVG/1.1/DTD/svg11.dtd">
<svg version="1.1" id="Layer_1" xmlns="http://www.w3.org/2000/svg" xmlns:xlink="http://www.w3.org/1999/xlink" x="0px" y="0px"
	 width="200px" height="200px" viewBox="0 0 200 200" enable-background="new 0 0 200 200" xml:space="preserve">
<g>
	<path fill="#1B181B" d="M150.862,62.182c0,0,7.362-6.319,6.905-6.877c-4.114-5.066-10.438-10.364-15.832-14.468
		c-3.899-2.957-7.64-5.094-11.739-7.341c-1.621,0.502-4.551,3.313-5.9,4.325c-3.2,2.413-6.074,4.605-8.637,7.583
		c-0.416,0.475-0.928,0.949-1.191,1.545c-0.838,1.908-1.427,3.878-1.711,5.949c-0.616,4.612-1.19,9.086-1.309,13.661
		c-0.104,3.56-0.347,7.039-0.873,10.603c-0.346,2.303-0.755,4.551-0.789,6.784c-0.056,3.145-0.166,6.271,0.346,9.484
		c0.021,0.121,0.194,0.447,0.423,0.305c0.686-0.398,0.194-1.354,0.714-1.617c0.63-0.332,0.63,1.077,1.107,1.185
		c0.499,0.121,0.409-1.299,1.074-1.087c0.18,0.052,0.512,0.235,0.491,0.581c0.513-0.211,0.388-0.855,0.817-1.125
		c0.18,0.332,0.526,0.724,0.699,0.426c0.45-0.717-0.159-2.867,0.866-2.562c0.471,0.135,0.852,1.008,1.44,0.616
		c1.302-0.907,1.281-2.552,1.517-3.976c1.053-6.517,1.628-12.584,2.749-19.121c0.271-1.572,0.79-2.958,1.205-4.481
		c0.284-1.094,0.679-2.178,1.088-3.221c0.623-1.558,1.322-3.051,2.673-4.203c1.164-1.001,2.667-1.312,3.969-0.725
		c2.742,1.233,5.693,4.069,4.807,7.086c-1.42,4.778-5.548,7.947-8.062,12.338c-1.08,1.88-2.341,3.781-1.787,6.057
		c0.215,0.921,0.492,1.793,1.088,2.576c2.14,2.784,5.935,2.777,8.781,1.517c2.666-1.178,3.969-3.902,5.402-6.396
		c2.403-4.135,5.014-7.747,7.237-11.909C148.868,64.876,150.862,62.182,150.862,62.182 M133.569,83.707
		c-2.667,0.502-5.776-0.184-6.399-3.016c-0.582-2.66,1.495-5.035,3.435-6.802c0.645-0.581,1.552-0.928,2.493-0.699
		c0.88,0.211,4.087,2.154,4.26,3.844C137.579,79.261,134.074,83.62,133.569,83.707"/>
	<path fill="#1B181B" d="M107.251,93.195h1.303v-4.823h-3.173c-0.097-1.572-0.312-3.097-0.603-4.609l3.068-0.807l-1.253-4.661
		l-3.055,0.803c-0.513-1.468-1.087-2.908-1.759-4.29l2.722-1.568l-2.41-4.184l-2.75,1.579c-0.859-1.274-1.773-2.531-2.792-3.685
		l2.209-2.229l-3.415-3.411l-2.237,2.233c-1.157-1.011-2.382-1.978-3.664-2.836l1.572-2.722l-4.19-2.421l-1.572,2.753
		c-1.378-0.675-2.805-1.284-4.273-1.787l0.79-3.058l-4.647-1.246l-0.817,3.064c-1.51-0.291-3.034-0.506-4.612-0.606v-3.168h-4.82
		v1.306"/>
	<path fill="#1B181B" d="M98.442,112.196L47.918,61.652c-0.838,0.616-1.697,1.212-2.479,1.891L43.23,61.31l-3.428,3.411l2.244,2.243
		c-1.011,1.153-1.953,2.396-2.812,3.678l-2.75-1.586l-2.41,4.184l2.729,1.575c-0.679,1.375-1.267,2.815-1.773,4.283l-3.047-0.803
		l-1.253,4.661l3.054,0.82c-0.291,1.499-0.478,3.037-0.582,4.596h-3.193v4.823h3.179c0.09,1.583,0.305,3.106,0.603,4.616
		l-3.061,0.803l1.253,4.665l3.047-0.813c0.506,1.468,1.094,2.891,1.773,4.276l-2.729,1.589l2.41,4.184l2.735-1.586
		c0.859,1.288,1.801,2.521,2.826,3.685l-2.244,2.229l3.428,3.422l2.237-2.244c1.15,1.025,2.39,1.967,3.664,2.826l-1.565,2.742
		l4.176,2.41l1.586-2.742c1.371,0.679,2.805,1.273,4.266,1.786l-0.803,3.048l4.668,1.253l0.81-3.04
		c1.496,0.305,3.041,0.484,4.606,0.582v3.172h4.82v-3.172c1.579-0.098,3.109-0.305,4.619-0.609l0.811,3.067l4.647-1.253
		l-0.783-3.048c1.448-0.484,2.875-1.094,4.246-1.772l1.593,2.729l4.19-2.41l-1.607-2.729c1.316-0.873,2.549-1.787,3.726-2.826
		l2.209,2.23l3.415-3.422l-2.237-2.229C97.209,113.838,97.832,113.021,98.442,112.196"/>
	<path fill="#1B181B" d="M106.496,120.258l-1.634,0.215l0.498,3.837l2.515-0.333c0.249,1.233,0.574,2.424,0.969,3.588l-2.348,0.963
		l1.476,3.566l2.341-0.97c0.554,1.108,1.163,2.188,1.842,3.214l-2.001,1.544l2.354,3.068l2.009-1.537
		c0.824,0.928,1.696,1.8,2.625,2.617l-1.538,2.009l3.055,2.354l1.551-2.008c1.032,0.679,2.099,1.302,3.2,1.855l-0.949,2.334
		l3.56,1.476l0.97-2.341c1.157,0.388,2.355,0.72,3.567,0.969l-0.319,2.508l3.83,0.498l0.222-1.62"/>
	<path fill="#1B181B" d="M167.151,124.31l0.513-3.837l-2.493-0.333c0.076-1.219,0.062-2.465-0.027-3.705l2.521-0.332l-0.513-3.83
		l-2.507,0.332c-0.242-1.232-0.567-2.424-0.963-3.594l2.334-0.963l-1.468-3.567l-2.341,0.963c-0.555-1.115-1.157-2.206-1.843-3.228
		l2.002-1.523l-2.354-3.064l-2.022,1.541c-0.804-0.925-1.662-1.825-2.598-2.632l1.531-1.995l-3.075-2.354l-1.538,2.009
		c-1.024-0.689-2.091-1.319-3.206-1.873l0.956-2.324l-3.561-1.475l-0.963,2.344c-1.17-0.401-2.354-0.724-3.573-0.97l0.318-2.503
		l-3.837-0.506l-0.318,2.511c-1.226-0.083-2.466-0.083-3.719,0l-0.333-2.511l-3.837,0.506l0.333,2.503
		c-1.233,0.253-2.424,0.568-3.595,0.97l-0.956-2.344l-3.56,1.475l0.949,2.345c-1.108,0.547-2.182,1.17-3.214,1.853l-1.537-2.009
		l-3.055,2.354l1.523,2.009c-0.921,0.821-1.808,1.687-2.617,2.618l-2.002-1.541l-0.354,0.475l44.297,44.297l0.472-0.36l-1.559-1.995
		c0.949-0.831,1.835-1.689,2.659-2.631l1.988,1.537l2.354-3.068l-2.016-1.544c0.699-1.039,1.309-2.105,1.863-3.241l2.334,0.997
		l1.468-3.566l-2.306-0.949c0.401-1.171,0.713-2.368,0.955-3.602"/>
	<path fill="#ED1C24" d="M100,5.007c-52.469,0-95,42.531-95,94.989c0,52.473,42.531,94.997,95,94.997c52.462,0,95-42.524,95-94.997
		C195,47.538,152.462,5.007,100,5.007 M100.187,175.878c-41.9,0-75.871-33.978-75.871-75.882c0-17.397,5.921-33.382,15.763-46.174
		l106.261,106.3C133.548,169.964,117.577,175.878,100.187,175.878 M160.066,146.222L53.785,39.93
		C66.583,30.064,82.582,24.129,100,24.129c41.9,0,75.871,33.971,75.871,75.867C175.871,117.411,169.942,133.409,160.066,146.222"/>
</g>
</svg>
