<?xml version="1.0" encoding="utf-8"?>
<!-- Generator: Adobe Illustrator 16.0.0, SVG Export Plug-In . SVG Version: 6.00 Build 0)  -->
<!DOCTYPE svg PUBLIC "-//W3C//DTD SVG 1.1//EN" "http://www.w3.org/Graphics/SVG/1.1/DTD/svg11.dtd">
<svg version="1.1" id="Layer_1" xmlns="http://www.w3.org/2000/svg" xmlns:xlink="http://www.w3.org/1999/xlink" x="0px" y="0px"
	 width="200px" height="200px" viewBox="0 0 200 200" enable-background="new 0 0 200 200" xml:space="preserve">
<path fill="#231F20" d="M59.725,120.076c-1.396,0.775-2.496-0.263-2.781-1.14c-0.29-0.982-0.033-2.646,0.431-4.239
	c0.446-1.568,1.056-3.093,1.379-3.74c0.631-1.168,2.094-1.67,2.345-0.844c0.297,0.989,0.805,3.798,0.582,5.438
	C61.333,117.642,60.524,119.511,59.725,120.076 M135.45,147.919l-40.599-42.335c-0.413-0.229-0.843-0.497-1.323-0.815
	c-0.117-0.324-0.229-0.631-0.353-0.949l-9.179-9.588c-0.542-0.117-1.107-0.223-1.682-0.307c-5.954-0.72-11.045,2.2-5.852,9.148
	c4.344,3.06,7.891,8.086,10.984,13.954c-0.983,0.776-5.702,1.24-14.581,1.206c-2.949,0.151-5.087-0.579-4.573-3.926
	c0.831-5.249,2.083-12.721,2.804-17.988c2.083-5.707,1.072-7.465,0.937-10.649c-3.624-6.879-10.688-13.441-18.774-13.447
	c-5.339-0.417-11.097,1.178-15.162,4.646c-4.356,3.736-6.126,9.55-7.165,14.979c-0.983,6.036-0.504,12.458,1.4,18.2
	c1.655,4.12,4.485,7.299,5.322,11.497c-0.011,1.301-0.871,2.229-2.954,2.29c-3.897,0.117-5.373,0.866-5.249,2.217
	c0.066,0.781,0.843,1.524,1.915,1.592c2.731,0.201,3.334,0.318,6.685-0.435c7.778-3.278-1.688-13.788-2.804-19.618
	c-3.038-10.578-2.821-27.995,10.645-30.805c9.806-3.206,19.668,2.932,22.398,12.332c0.748,1.262,0.228,2.875-0.715,3.663
	c-10.32,0.396-16.073,0.52-16.804,1.312c2.519,0.044,7.823,0.537,15.458,0.581c1.346-0.112,1.922,2.083,1.933,2.976
	c0.056,2.112-0.654,4.854-1.548,9.941c-1.346,7.337-1.507,16.088-8.404,20.723c-2.329,1.262-2.479,2.028-1.602,2.278
	c0.804,0.247,2.429,0.013,3.931-0.809c1.536-0.812,2.708-2.385,3.831-4.273c1.972-2.669,4.573-4.071,7.518-4.306
	c5.305-0.464,11.565,0.654,16.574-0.167c1.894,5.629,4.854,11.23,7.282,16.805c1.775,4.478,5.423,8.002,8.701,10.682
	c-0.105,0.161-1.044,0.095-4.216-0.604c-7.444-1.607-16.927-4.74-24.192-2.652c-6.958,2.4-9.952,9.79-13.312,15.658
	c-0.409,1.234-0.503,2.335-0.04,3.228c0.38,0.643,0.933,1.052,1.418,0.934c1.436-0.536,2.552-3.356,3.613-5.39
	c2.458-5.02,5.814-11.229,12.174-11.727c3.305-0.742,11.415,0.658,17.004,1.81c10.331,2.149,21.17,5.422,30.752,0.938
	C130.457,150.17,133.082,149.216,135.45,147.919z M51.683,95.102c-0.167,0.85,0.582,1.336,1.218,1.447
	c0.526,0.079,1.827,0.374,2.211,0.665c-0.513,0.631-1.021,1.272-1.546,1.893c0,0.15,0.574,0.122,1.368-0.134
	c1.162-0.396,1.44-0.447,2.441-0.844c0.932-0.178,3.009-0.67,2.061-2.044c-1.045-0.937-2.43-0.999-3.859-0.933
	C54.268,95.22,53.04,95.102,51.683,95.102z M59.971,122.829c3.423-2.774,4.792-10.768,2.502-14.481
	c-0.587-0.977-1.296-1.714-2.576-1.875c-4.73,1.708-6.561,8.092-5.974,12.647C53.973,122.756,57.034,125.577,59.971,122.829z
	 M66.343,95.353c-0.934-0.241-1.066-0.011-2.038,0.029c-1.028,0.033-2.018,0.184-2.715,1.005c-0.206,0.413-0.166,0.714,0.035,0.91
	c0.849,0.921,2.267,1.317,3.612,1.546c0.515,0.196,1.056-0.088,0.86-0.753c-0.297-0.581-1.463-0.911-0.959-1.714
	C66.008,96.135,66.388,96.387,66.343,95.353z M146.697,133.646c4.566-16.591,6.021-34.048,13.989-49.422
	c1.367-2.496,3.277-4.412,3.813-7.085c0.317-1.911-0.794-3.301-2.016-3.122c-1.961,0.307-5.032,2.947-7.193,5.684
	c-2.624,4.288-4.941,8.851-8.907,12.184c-1.452,0.961-2.373,0.336-1.915-3.886c0.972-11.464,3.714-22.717,4.479-34.181
	c0.989-4.747-1.15-10.007-6.712-7.272c-8.014,10.114-5.037,25.393-10.649,36.405c-0.631-4.485-0.631-8.963,0-13.43
	c-0.426-11.035,2.948-23.332-2.229-33.624c-1.318-1.681-3.546-0.943-5.06,0c-7.763,11.917-1.688,32.272-7.281,45.937
	c-2.491-9.336-3.938-19.137-3.033-28.804c-0.112-4.5-0.916-8.455-4.233-10.41c-1.457-0.223-3.479-0.201-4.484,2.246
	c-2.797,6.717-2.356,14.162-2.356,21.549c0,3.815,0.189,8.466-0.14,12.219c-0.201,2.479-0.987,5.764-1.272,8.236
	c0,0.023-0.012,0.023-0.012,0.051L146.697,133.646z"/>
<path fill="#ED1C24" d="M41.194,49.268l107.002,111.599c-30.419,24.052-74.938,22.13-103.065-6.02
	C16.131,125.863,14.628,79.825,41.194,49.268 M53.943,37.429C84.3,14.99,127.326,17.61,154.853,45.141
	c28.066,28.062,30.021,72.48,6.098,102.914L53.943,37.429z M32.823,32.82c-37.097,37.108-37.097,97.259,0,134.351
	c37.091,37.103,97.244,37.103,134.337,0c37.119-37.092,37.119-97.242,0-134.351C130.067-4.27,69.914-4.27,32.823,32.82z"/>
</svg>
