<?xml version="1.0" encoding="utf-8"?>
<!-- Generator: Adobe Illustrator 16.0.0, SVG Export Plug-In . SVG Version: 6.00 Build 0)  -->
<!DOCTYPE svg PUBLIC "-//W3C//DTD SVG 1.1//EN" "http://www.w3.org/Graphics/SVG/1.1/DTD/svg11.dtd">
<svg version="1.1" id="Layer_1" xmlns="http://www.w3.org/2000/svg" xmlns:xlink="http://www.w3.org/1999/xlink" x="0px" y="0px"
	 width="200px" height="200px" viewBox="0 0 200 200" enable-background="new 0 0 200 200" xml:space="preserve">
<path fill="none" stroke="#1B181B" d="M163.336,195 M36.664,195h126.672V5H36.664V195z"/>
<rect x="43.493" y="133.333" fill="#ED1C24" width="112.649" height="54.443"/>
<g>
	<path fill-rule="evenodd" clip-rule="evenodd" fill="#ED1C24" d="M99.776,123.459c30.693,0,55.609-24.918,55.609-55.652
		c0-30.693-24.916-55.609-55.609-55.609c-30.734,0-55.65,24.916-55.65,55.609C44.126,98.541,69.042,123.459,99.776,123.459
		L99.776,123.459z M127.925,102.295c-7.957,6.504-17.892,10.059-28.148,10.059c-24.594,0-44.544-19.952-44.544-44.547
		c0-10.256,3.554-20.193,10.054-28.148L127.925,102.295L127.925,102.295z M134.224,95.996c6.502-7.957,10.057-17.892,10.057-28.189
		c0-24.553-19.95-44.503-44.504-44.503c-10.297,0-20.234,3.554-28.189,10.054L134.224,95.996L134.224,95.996z"/>
</g>
</svg>
