<?xml version="1.0" encoding="utf-8"?>
<!-- Generator: Adobe Illustrator 16.0.0, SVG Export Plug-In . SVG Version: 6.00 Build 0)  -->
<!DOCTYPE svg PUBLIC "-//W3C//DTD SVG 1.1//EN" "http://www.w3.org/Graphics/SVG/1.1/DTD/svg11.dtd">
<svg version="1.1" id="Layer_1" xmlns="http://www.w3.org/2000/svg" xmlns:xlink="http://www.w3.org/1999/xlink" x="0px" y="0px"
	 width="200px" height="150px" viewBox="0 0 200 150" enable-background="new 0 0 200 150" xml:space="preserve">
<g>
	<polyline fill="none" stroke="#000000" stroke-width="4.9386" stroke-miterlimit="2.6131" points="85.951,111.88 146.521,70.919 
		140.562,62.107 79.991,103.068 	"/>
	<path fill="none" stroke="#000000" stroke-width="3.8805" stroke-miterlimit="2.6131" d="M84.583,115.562l-8.596-12.711
		 M79.9,118.728l-8.596-12.71"/>
	<path fill="none" stroke="#000000" stroke-width="3.5277" stroke-miterlimit="2.6131" d="M57.44,62.871
		c1.582,2.22,0.694,5.267-1.373,7.066c-0.726,0.631-0.658,0.678-1.344,1.26c-4.954,4.206-1.821,9.626,0.987,10.472
		c2.119,0.64,3.231,0.278,6.818-0.31c2.944-0.482,4.745,0.41,5.999,2.42c1.384,2.22-0.571,5.225-1.037,8.732
		c-0.213,1.605-0.542,2.803-0.119,4.629c0.162,0.997,1.301,4.808,3.24,7.561 M68.117,56.016c1.612,2.322,1.123,7.208-1.2,8.661
		c-0.815,0.509-0.756,0.566-1.524,1.033c-5.552,3.376-3.308,9.22-0.667,10.497c1.991,0.964,3.478,0.63,7.103,0.372
		c4.029-0.288,5.331,0.524,6.587,2.532c2.087,3.338,0.178,6.332-2.441,9.125c-1.27,1.355-1.824,2.148-2.334,5.438
		c-0.339,2.383-0.116,4.994,1.822,7.748"/>
	<g>
		<path fill-rule="evenodd" clip-rule="evenodd" fill="#ED1C24" d="M170.12,75.01l-0.103-3.149l-0.202-3.149l-0.355-3.099
			l-0.509-3.099l-0.608-3.099l-0.762-3.048l-0.915-2.997l-1.016-2.946l-1.17-2.947l-1.319-2.845l-1.422-2.794l-1.524-2.743
			l-1.678-2.642l-1.828-2.591l-1.88-2.489l-2.03-2.438l-2.084-2.286l-2.234-2.235l-2.337-2.134l-2.388-1.981l-2.49-1.93l-2.59-1.778
			l-2.691-1.676l-2.692-1.524l-2.795-1.473l-2.896-1.27l-2.895-1.168l-2.997-1.067l-2.998-0.864l-3.048-0.813l-3.048-0.609
			l-3.099-0.508l-3.148-0.355l-3.099-0.203l-3.15-0.051l-3.149,0.051l-3.149,0.203L90.723,5.62l-3.099,0.508l-3.099,0.609
			L81.477,7.55L78.48,8.414l-2.946,1.067l-2.946,1.168l-2.845,1.27l-2.794,1.473l-2.743,1.524l-2.642,1.676l-2.591,1.778
			l-2.489,1.93l-2.438,1.981l-2.286,2.134l-2.235,2.235l-2.134,2.286l-2.032,2.438l-1.879,2.489l-1.778,2.591l-1.676,2.642
			l-1.575,2.743l-1.422,2.794l-1.27,2.845l-1.168,2.947l-1.067,2.946l-0.914,2.997l-0.762,3.048l-0.609,3.099l-0.508,3.099
			l-0.355,3.099l-0.203,3.149L30.12,75.01l0.051,3.15l0.203,3.099l0.355,3.149l0.508,3.099l0.609,3.098l0.762,2.998l0.914,3.048
			l1.067,2.947l1.168,2.895l1.27,2.896l1.422,2.794l1.575,2.742l1.676,2.643l1.778,2.59l1.879,2.489l2.032,2.439l2.134,2.286
			l2.235,2.234l2.286,2.133l2.438,1.981l2.489,1.931l2.591,1.777l2.642,1.678l2.743,1.523l2.794,1.473l2.845,1.27l2.946,1.17
			l2.946,1.066l2.997,0.863l3.048,0.762l3.099,0.661l3.099,0.456l3.099,0.355l3.149,0.255l3.149,0.051l3.15-0.051l3.099-0.255
			l3.148-0.355l3.099-0.456l3.048-0.661l3.048-0.762l2.998-0.863l2.997-1.066l2.895-1.17l2.896-1.27l2.795-1.473l2.692-1.523
			l2.691-1.678l2.59-1.777l2.49-1.931l2.388-1.981l2.337-2.133l2.234-2.234l2.084-2.286l2.03-2.439l1.88-2.489l1.828-2.59
			l1.678-2.643l1.524-2.742l1.422-2.794l1.319-2.896l1.17-2.895l1.016-2.947l0.915-3.048l0.762-2.998l0.608-3.098l0.509-3.099
			l0.355-3.149l0.202-3.099L170.12,75.01L170.12,75.01z M143.452,110.468l1.777-2.235l1.625-2.337l1.523-2.438l1.321-2.489
			l1.27-2.539l1.117-2.591l1.018-2.643l0.862-2.742l0.711-2.743l0.56-2.794l0.406-2.794l0.305-2.844l0.153-2.795v-2.844
			l-0.153-2.845l-0.254-2.844l-0.457-2.794l-0.56-2.794l-0.711-2.743l-0.862-2.692l-0.967-2.692l-1.117-2.591l-1.27-2.54
			l-1.372-2.489l-1.473-2.438l-1.625-2.337l-1.778-2.235l-1.829-2.133l-1.979-2.083l-2.033-1.93l-2.184-1.879l-2.236-1.728
			l-2.337-1.625l-2.386-1.473l-2.491-1.422l-2.539-1.22l-2.642-1.118l-2.642-1.016l-2.692-0.812l-2.793-0.711l-2.744-0.61
			l-2.844-0.406l-2.794-0.305l-2.845-0.102h-2.845l-2.844,0.102l-2.845,0.305l-2.794,0.457l-2.793,0.559l-2.744,0.711l-2.692,0.864
			l-2.641,0.964l-2.641,1.169l-2.54,1.219l-2.489,1.372l-2.388,1.524l-2.336,1.625l-2.235,1.727L143.452,110.468L143.452,110.468z
			 M135.578,118.342L56.739,39.553l-1.778,2.286l-1.625,2.286l-1.473,2.438l-1.372,2.489l-1.27,2.54l-1.118,2.591l-1.016,2.693
			l-0.812,2.692l-0.712,2.743l-0.609,2.794l-0.406,2.794l-0.305,2.845l-0.153,2.845v2.845l0.153,2.794l0.305,2.846l0.406,2.793
			l0.609,2.794l0.661,2.743l0.864,2.744l1.016,2.64l1.118,2.592l1.22,2.539l1.422,2.54l1.473,2.389l1.625,2.336l1.728,2.234
			l1.879,2.135l1.93,2.082l2.083,1.931l2.133,1.879l2.235,1.728l2.337,1.626l2.438,1.524l2.49,1.371l2.539,1.219l2.591,1.117
			l2.692,1.017l2.692,0.812l2.743,0.712l2.794,0.559l2.794,0.457l2.844,0.305l2.845,0.102h2.845l2.845-0.152l2.794-0.254
			l2.793-0.457l2.795-0.559l2.742-0.712l2.743-0.863l2.643-1.017l2.59-1.117l2.539-1.219l2.489-1.422l2.439-1.474l2.337-1.626
			L135.578,118.342L135.578,118.342z"/>
	</g>
</g>
</svg>
