<?xml version="1.0" encoding="utf-8"?>
<!-- Generator: Adobe Illustrator 16.0.0, SVG Export Plug-In . SVG Version: 6.00 Build 0)  -->
<!DOCTYPE svg PUBLIC "-//W3C//DTD SVG 1.1//EN" "http://www.w3.org/Graphics/SVG/1.1/DTD/svg11.dtd">
<svg version="1.1" id="Layer_1" xmlns="http://www.w3.org/2000/svg" xmlns:xlink="http://www.w3.org/1999/xlink" x="0px" y="0px"
	 width="200px" height="200px" viewBox="0 0 200 200" enable-background="new 0 0 200 200" xml:space="preserve">
<g>
	<path fill="#FFFFFF" d="M140.448,194.999c7.771,0,14.068-6.301,14.068-14.063V19.069c0-7.771-6.298-14.068-14.068-14.068H59.552
		c-7.768,0-14.069,6.298-14.069,14.068v161.866c0,7.763,6.301,14.063,14.069,14.063"/>
	<path fill="none" stroke="#111820" stroke-width="1.3965" d="M140.448,194.999c7.771,0,14.068-6.301,14.068-14.063V19.069
		c0-7.771-6.298-14.068-14.068-14.068H59.552c-7.768,0-14.069,6.298-14.069,14.068v161.866c0,7.763,6.301,14.063,14.069,14.063
		H140.448z"/>
	<path fill="#FFFFFF" d="M99.618,16.901c1.944,0,3.513-1.574,3.513-3.519c0-1.945-1.568-3.516-3.513-3.516
		c-1.942,0-3.516,1.57-3.516,3.516C96.102,15.327,97.676,16.901,99.618,16.901"/>
	<path fill="none" stroke="#111820" stroke-width="1.2401" d="M99.618,16.901c1.944,0,3.513-1.574,3.513-3.519
		c0-1.945-1.568-3.516-3.513-3.516c-1.942,0-3.516,1.57-3.516,3.516C96.102,15.327,97.676,16.901,99.618,16.901z"/>
	<rect x="52.305" y="77.075" fill="#ED1C24" width="94.92" height="79.415"/>
	<path fill="#ED1C24" d="M99.457,19.413c-14.382,0-26.038,11.655-26.038,26.041c0,14.377,11.655,26.034,26.038,26.034
		c14.377,0,26.041-11.657,26.041-26.034C125.498,31.068,113.834,19.413,99.457,19.413 M99.457,66.246
		c-11.483,0-20.795-9.31-20.795-20.792c0-4.771,1.623-9.154,4.323-12.662l29.12,29.14C108.603,64.626,104.225,66.246,99.457,66.246
		 M115.924,58.118L86.79,28.984c3.511-2.703,7.894-4.331,12.667-4.331c11.486,0,20.798,9.312,20.798,20.801
		C120.255,50.227,118.63,54.607,115.924,58.118"/>
	<path fill="#ED1C24" d="M56.625,163.839c-0.153-0.753-0.753-1.135-1.489-1.135c-1.266,0-1.8,1.042-1.8,2.155
		c0,1.211,0.535,2.226,1.809,2.226c0.93,0,1.465-0.655,1.53-1.533h0.709c-0.134,1.325-0.96,2.128-2.302,2.128
		c-1.653,0-2.455-1.223-2.455-2.771c0-1.538,0.878-2.799,2.518-2.799c1.11,0,2.021,0.595,2.188,1.729"/>
	<path fill="#ED1C24" d="M59.817,163.615c1.222,0,1.871,0.89,1.871,2.019c0,1.124-0.649,2.013-1.871,2.013
		c-1.222,0-1.866-0.889-1.866-2.013C57.951,164.505,58.595,163.615,59.817,163.615 M59.817,167.085c0.666,0,1.2-0.524,1.2-1.451
		c0-0.938-0.535-1.457-1.2-1.457c-0.66,0-1.197,0.519-1.197,1.457C58.62,166.561,59.157,167.085,59.817,167.085"/>
	<path fill="#ED1C24" d="M62.43,163.708h0.598v0.562h0.016c0.281-0.431,0.715-0.654,1.241-0.654c0.469,0,0.9,0.186,1.058,0.654
		c0.262-0.409,0.715-0.654,1.206-0.654c0.764,0,1.282,0.322,1.282,1.118v2.82h-0.633v-2.525c0-0.475-0.131-0.852-0.748-0.852
		c-0.608,0-1.003,0.382-1.003,0.977v2.4h-0.633v-2.525c0-0.497-0.156-0.852-0.72-0.852c-0.753,0-1.028,0.693-1.028,0.977v2.4H62.43"
		/>
	<path fill="#ED1C24" d="M68.78,163.708h0.595v0.562h0.016c0.287-0.431,0.715-0.654,1.247-0.654c0.466,0,0.9,0.186,1.053,0.654
		c0.265-0.409,0.717-0.654,1.208-0.654c0.767,0,1.282,0.322,1.282,1.118v2.82h-0.633v-2.525c0-0.475-0.128-0.852-0.745-0.852
		c-0.613,0-1.006,0.382-1.006,0.977v2.4h-0.633v-2.525c0-0.497-0.158-0.852-0.72-0.852c-0.752,0-1.031,0.693-1.031,0.977v2.4H68.78"
		/>
	<path fill="#ED1C24" d="M78.417,166.332c-0.172,0.851-0.783,1.314-1.645,1.314c-1.233,0-1.811-0.851-1.846-2.029
		c0-1.156,0.755-2.002,1.808-2.002c1.358,0,1.778,1.271,1.74,2.204h-2.88c-0.022,0.671,0.357,1.266,1.2,1.266
		c0.518,0,0.884-0.251,0.999-0.753 M77.806,165.257c-0.03-0.6-0.483-1.08-1.113-1.08c-0.663,0-1.053,0.497-1.099,1.08H77.806z"/>
	<path fill="#ED1C24" d="M79.131,163.708h0.592v0.605h0.016c0.268-0.475,0.698-0.698,1.252-0.698c1.012,0,1.323,0.578,1.323,1.407
		v2.531h-0.63v-2.607c0-0.469-0.297-0.77-0.783-0.77c-0.767,0-1.14,0.508-1.14,1.2v2.177h-0.63"/>
	<path fill="#ED1C24" d="M84.145,163.708h0.769v0.557h-0.769v2.389c0,0.29,0.084,0.339,0.477,0.339h0.292v0.562h-0.483
		c-0.654,0-0.917-0.131-0.917-0.84v-2.449h-0.657v-0.557h0.657v-1.156h0.63"/>
	<path fill="#ED1C24" d="M85.999,166.337c0.025,0.567,0.516,0.748,1.037,0.748c0.396,0,0.93-0.093,0.93-0.573
		c0-0.49-0.627-0.572-1.26-0.715c-0.622-0.142-1.254-0.349-1.254-1.091c0-0.769,0.766-1.091,1.437-1.091
		c0.849,0,1.525,0.268,1.574,1.206h-0.63c-0.046-0.491-0.475-0.645-0.895-0.645c-0.376,0-0.818,0.104-0.818,0.486
		c0,0.458,0.671,0.528,1.26,0.676c0.63,0.137,1.257,0.35,1.257,1.091c0,0.917-0.856,1.217-1.637,1.217
		c-0.867,0-1.593-0.354-1.631-1.31"/>
	<path fill="#ED1C24" d="M54.332,172.164h0.783l2.073,5.312H56.41l-0.581-1.598h-2.248l-0.6,1.598h-0.729 M53.805,175.284h1.8
		l-0.889-2.482h-0.011L53.805,175.284z"/>
	<path fill="#ED1C24" d="M60.793,177.477h-0.595v-0.605h-0.017c-0.267,0.475-0.698,0.698-1.249,0.698
		c-1.012,0-1.329-0.578-1.329-1.407v-2.531h0.636v2.603c0,0.469,0.294,0.774,0.78,0.774c0.769,0,1.14-0.508,1.14-1.2v-2.177h0.633"
		/>
	<path fill="#ED1C24" d="M62.626,173.631h0.766v0.562h-0.766v2.384c0,0.294,0.082,0.344,0.475,0.344h0.292v0.556H62.91
		c-0.658,0-0.917-0.131-0.917-0.834v-2.449h-0.655v-0.562h0.655v-1.156h0.633"/>
	<path fill="#ED1C24" d="M64.094,172.164h0.633v2.034h0.011c0.208-0.464,0.756-0.66,1.217-0.66c1.009,0,1.326,0.584,1.326,1.407
		v2.531h-0.633v-2.602c0-0.47-0.3-0.774-0.783-0.774c-0.766,0-1.137,0.513-1.137,1.205v2.171h-0.633"/>
	<path fill="#ED1C24" d="M69.893,173.538c1.217,0,1.869,0.89,1.869,2.024c0,1.118-0.652,2.007-1.869,2.007
		c-1.222,0-1.871-0.889-1.871-2.007C68.021,174.428,68.67,173.538,69.893,173.538 M69.893,177.008c0.66,0,1.197-0.519,1.197-1.445
		c0-0.944-0.537-1.462-1.197-1.462c-0.663,0-1.2,0.518-1.2,1.462C68.692,176.489,69.23,177.008,69.893,177.008"/>
	<path fill="#ED1C24" d="M72.481,173.631h0.598v0.812h0.011c0.308-0.616,0.731-0.927,1.418-0.905v0.671
		c-1.02,0-1.396,0.584-1.396,1.555v1.713h-0.63"/>
	<path fill="#ED1C24" d="M75.653,172.938h-0.636v-0.774h0.636V172.938z M75.021,173.631h0.633v3.846h-0.633V173.631z"/>
	<path fill="#ED1C24" d="M77.022,176.266c0.022,0.567,0.513,0.742,1.037,0.742c0.393,0,0.93-0.087,0.93-0.573
		c0-0.49-0.625-0.572-1.257-0.714c-0.627-0.137-1.26-0.35-1.26-1.08c0-0.78,0.767-1.103,1.435-1.103c0.851,0,1.53,0.272,1.58,1.211
		h-0.63c-0.049-0.496-0.48-0.648-0.895-0.648c-0.379,0-0.818,0.104-0.818,0.49c0,0.453,0.671,0.529,1.257,0.671
		c0.63,0.143,1.257,0.35,1.257,1.092c0,0.916-0.856,1.216-1.636,1.216c-0.865,0-1.593-0.349-1.631-1.304"/>
	<path fill="#ED1C24" d="M83.643,176.261c-0.172,0.846-0.786,1.309-1.645,1.309c-1.233,0-1.813-0.845-1.846-2.023
		c0-1.156,0.755-2.008,1.808-2.008c1.361,0,1.778,1.276,1.74,2.204h-2.88c-0.021,0.671,0.354,1.266,1.2,1.266
		c0.518,0,0.884-0.251,0.993-0.747 M83.029,175.186c-0.027-0.605-0.48-1.085-1.107-1.085c-0.666,0-1.056,0.496-1.102,1.085H83.029z"
		/>
	<path fill="#ED1C24" d="M87.797,177.477h-0.633v-0.518h-0.017c-0.21,0.425-0.698,0.61-1.228,0.61c-1.184,0-1.775-0.938-1.775-2.023
		c0-1.091,0.581-2.008,1.759-2.008c0.396,0,0.96,0.153,1.244,0.605h0.017v-1.979h0.633 M86.007,177.008
		c0.851,0,1.178-0.726,1.178-1.445c0-0.764-0.344-1.462-1.214-1.462c-0.864,0-1.151,0.736-1.151,1.489
		C84.821,176.31,85.187,177.008,86.007,177.008"/>
	<path fill="#ED1C24" d="M90.862,172.164h0.633v1.985h0.017c0.207-0.42,0.698-0.611,1.228-0.611c1.181,0,1.773,0.938,1.773,2.029
		c0,1.086-0.584,2.002-1.762,2.002c-0.39,0-0.958-0.146-1.238-0.6h-0.017v0.507h-0.633 M92.646,174.101
		c-0.846,0-1.176,0.73-1.176,1.45c0,0.759,0.344,1.457,1.214,1.457c0.865,0,1.156-0.731,1.156-1.489
		C93.841,174.799,93.465,174.101,92.646,174.101"/>
	<path fill="#ED1C24" d="M96.765,177.995c-0.292,0.747-0.548,1.025-1.116,1.025c-0.15,0-0.297-0.016-0.439-0.065v-0.578
		c0.12,0.033,0.246,0.082,0.371,0.082c0.262,0,0.404-0.126,0.524-0.35l0.256-0.654l-1.522-3.824h0.715l1.124,3.147h0.014
		l1.077-3.147h0.674"/>
	<path fill="#ED1C24" d="M52.889,182.092h1.822c1.636,0,2.553,0.818,2.553,2.531c0,1.778-0.78,2.782-2.553,2.782h-1.822
		 M53.592,186.811h1.178c0.486,0,1.787-0.136,1.787-2.095c0-1.266-0.466-2.029-1.77-2.029h-1.195V186.811z"/>
	<path fill="#ED1C24" d="M61.434,187.389c-0.112,0.071-0.253,0.104-0.455,0.104c-0.328,0-0.535-0.175-0.535-0.595
		c-0.349,0.409-0.818,0.595-1.356,0.595c-0.698,0-1.271-0.312-1.271-1.075c0-0.873,0.646-1.059,1.298-1.184
		c0.701-0.137,1.296-0.093,1.296-0.567c0-0.551-0.453-0.644-0.854-0.644c-0.537,0-0.93,0.169-0.963,0.736h-0.633
		c0.038-0.96,0.777-1.293,1.631-1.293c0.693,0,1.445,0.158,1.445,1.059v1.979c0,0.295,0,0.432,0.202,0.432
		c0.052,0,0.109-0.006,0.193-0.038 M60.406,185.42c-0.245,0.18-0.72,0.186-1.146,0.256c-0.417,0.077-0.774,0.224-0.774,0.693
		c0,0.42,0.357,0.567,0.745,0.567c0.832,0,1.175-0.519,1.175-0.867V185.42z"/>
	<path fill="#ED1C24" d="M62.899,183.554h0.769v0.562h-0.769v2.389c0,0.29,0.082,0.344,0.478,0.344h0.292v0.557h-0.482
		c-0.658,0-0.919-0.136-0.919-0.84v-2.449h-0.654v-0.562h0.654v-1.15h0.633"/>
	<path fill="#ED1C24" d="M67.65,186.184c-0.172,0.851-0.78,1.31-1.647,1.31c-1.225,0-1.806-0.846-1.844-2.019
		c0-1.157,0.758-2.008,1.809-2.008c1.364,0,1.781,1.271,1.743,2.204h-2.88c-0.024,0.671,0.354,1.266,1.195,1.266
		c0.523,0,0.889-0.251,1.001-0.753 M67.037,185.114c-0.027-0.605-0.48-1.091-1.104-1.091c-0.663,0-1.058,0.502-1.102,1.091H67.037z"
		/>
	<path fill="none" stroke="#ED1C24" stroke-width="0.4972" d="M69.213,187.4h78.012 M99.457,177.472h47.769 M89.062,167.549h58.163"
		/>
	<path fill="#FFFFFF" d="M66.478,91.834h6.443c5.455,0,6.44,3.739,6.44,9.476c0,6.902-1.476,10.018-6.691,10.018h-6.192
		 M70.405,108.436h1.746c2.733,0,3.279-1.723,3.279-7.02c0-4.421-0.354-6.688-3.36-6.688h-1.664V108.436z"/>
	<path fill="#FFFFFF" d="M87.139,96.258c4.534-0.081,5.786,2.622,5.786,7.728c0,5.023-1.47,7.724-5.786,7.724
		c-4.53,0.082-5.788-2.624-5.788-7.724C81.352,98.959,82.827,96.258,87.139,96.258 M87.139,109.145c1.53,0,2.021-1.504,2.021-5.159
		c0-3.66-0.491-5.163-2.021-5.163c-1.854,0-2.021,2.16-2.021,5.163C85.118,106.986,85.285,109.145,87.139,109.145"/>
	<path fill="#FFFFFF" d="M101.495,96.64h3.605v1.719h0.055c0.791-1.442,2.154-2.101,3.739-2.101c2.349,0,3.742,1.282,3.742,4.177
		v10.893h-3.772V101.2c0-1.476-0.49-2.048-1.606-2.048c-1.281,0-1.993,0.794-1.993,2.428v9.747h-3.77"/>
	<path fill="#FFFFFF" d="M120.443,96.258c4.53-0.081,5.785,2.622,5.785,7.728c0,5.023-1.476,7.724-5.785,7.724
		c-4.533,0.082-5.791-2.624-5.791-7.724C114.652,98.959,116.131,96.258,120.443,96.258 M120.443,109.145
		c1.524,0,2.016-1.504,2.016-5.159c0-3.66-0.491-5.163-2.016-5.163c-1.857,0-2.021,2.16-2.021,5.163
		C118.422,106.986,118.586,109.145,120.443,109.145"/>
	<path fill="#FFFFFF" d="M129.065,92.437h3.77v4.203h2.182v2.567h-2.182v7.945c0,1.146,0.245,1.61,1.339,1.61
		c0.298,0,0.598-0.032,0.843-0.06v2.624c-0.817,0.082-1.582,0.163-2.454,0.163c-2.949,0-3.497-0.899-3.497-3.874v-8.409h-1.906
		V96.64h1.906"/>
	<path fill="#FFFFFF" d="M71.513,119.733h3.767v4.206h2.185v2.563H75.28v7.943c0,1.146,0.245,1.609,1.333,1.609
		c0.306,0,0.605-0.027,0.851-0.05v2.619c-0.821,0.082-1.587,0.163-2.46,0.163c-2.946,0-3.492-0.899-3.492-3.878v-8.407h-1.915
		v-2.563h1.915"/>
	<path fill="#FFFFFF" d="M84.065,123.558c4.533-0.087,5.788,2.618,5.788,7.725c0,5.019-1.473,7.725-5.788,7.725
		c-4.528,0.082-5.783-2.624-5.783-7.725C78.283,126.258,79.756,123.558,84.065,123.558 M84.065,136.438
		c1.533,0,2.024-1.5,2.024-5.155s-0.491-5.161-2.024-5.161c-1.855,0-2.019,2.155-2.019,5.161
		C82.047,134.282,82.21,136.438,84.065,136.438"/>
	<path fill="#FFFFFF" d="M99.411,136.901h-0.054c-0.791,1.451-2.161,2.105-3.74,2.105c-2.349,0-3.74-1.287-3.74-4.174v-10.894h3.767
		v10.125c0,1.479,0.488,2.051,1.609,2.051c1.285,0,1.994-0.791,1.994-2.433v-9.743h3.765v14.686h-3.601"/>
	<path fill="#FFFFFF" d="M112.596,129.23c0-1.418-0.277-2.945-1.693-2.945c-1.857,0-2.157,1.637-2.157,5.024
		c0,3.628,0.327,5.128,2.021,5.128c1.255,0,1.83-1.064,1.83-3.437h3.601c0,3.846-1.609,6.006-5.597,6.006
		c-3.767,0-5.624-1.827-5.624-7.725c0-6.033,2.487-7.725,5.951-7.725c3.47,0,5.27,2.209,5.27,5.673"/>
	<path fill="#FFFFFF" d="M118.16,119.134h3.77v6.306h0.055c0.709-1.255,1.991-1.882,3.576-1.882c2.349,0,3.736,1.282,3.736,4.179
		v10.889h-3.764v-10.131c0-1.473-0.494-2.045-1.609-2.045c-1.284,0-1.994,0.791-1.994,2.427v9.749h-3.77"/>
</g>
</svg>
