<?xml version="1.0" encoding="utf-8"?>
<!-- Generator: Adobe Illustrator 16.0.0, SVG Export Plug-In . SVG Version: 6.00 Build 0)  -->
<!DOCTYPE svg PUBLIC "-//W3C//DTD SVG 1.1//EN" "http://www.w3.org/Graphics/SVG/1.1/DTD/svg11.dtd">
<svg version="1.1" id="Layer_1" xmlns="http://www.w3.org/2000/svg" xmlns:xlink="http://www.w3.org/1999/xlink" x="0px" y="0px"
	 width="200px" height="200px" viewBox="0 0 200 200" enable-background="new 0 0 200 200" xml:space="preserve">
<pattern  width="72.749" height="31.375" patternUnits="userSpaceOnUse" id="New_Pattern_Swatch_2" viewBox="0 -31.375 72.749 31.375" overflow="visible">
	<g>
		<polygon fill="none" points="0,0 72.75,0 72.75,-31.375 0,-31.375 		"/>
		<polygon fill="#ED1C24" points="0,0 72.75,0 72.75,-31.375 0,-31.375 		"/>
	</g>
</pattern>
<g>
	<g>
		<rect x="5.001" y="28.75" fill="#FFFFFF" width="189.998" height="142.5"/>
		<path fill="none" stroke="#322F32" d="M194.999,171.25 M5.001,171.25h189.998V28.75H5.001V171.25z"/>
		<rect x="8.813" y="92.519" fill="#ED1C24" width="182.466" height="74.477"/>
		<path fill="#FFFFFF" d="M57.456,110.882c0,2.122,1.656,2.946,3.535,2.946c1.228,0,3.101-0.357,3.101-1.986
			c0-1.724-2.389-2.013-4.731-2.64c-2.373-0.625-4.76-1.538-4.76-4.533c0-3.265,3.082-4.827,5.965-4.827
			c3.33,0,6.388,1.454,6.388,5.141h-3.393c-0.115-1.92-1.476-2.413-3.15-2.413c-1.118,0-2.414,0.469-2.414,1.811
			c0,1.23,0.759,1.383,4.757,2.414c1.162,0.289,4.737,1.028,4.737,4.647c0,2.927-2.299,5.116-6.636,5.116
			c-3.529,0-6.835-1.742-6.791-5.676"/>
		<path fill="#FFFFFF" d="M69.32,104.626h2.995v1.565h0.043c0.827-1.187,2.035-1.88,3.535-1.88c1.451,0,2.743,0.535,3.374,1.923
			c0.665-1.006,1.873-1.923,3.485-1.923c2.454,0,4.219,1.138,4.219,4.135v7.729h-3.169v-6.545c0-1.541-0.139-2.815-1.947-2.815
			c-1.783,0-2.119,1.476-2.119,2.927v6.434h-3.178v-6.478c0-1.342,0.093-2.883-1.92-2.883c-0.622,0-2.146,0.401-2.146,2.657v6.703
			H69.32"/>
		<path fill="#FFFFFF" d="M95.086,104.312c3.639,0,5.982,2.411,5.982,6.099c0,3.666-2.344,6.079-5.982,6.079
			c-3.625,0-5.97-2.413-5.97-6.079C89.116,106.723,91.461,104.312,95.086,104.312 M95.086,114.095c2.163,0,2.812-1.852,2.812-3.685
			c0-1.854-0.648-3.709-2.812-3.709c-2.146,0-2.793,1.854-2.793,3.709C92.293,112.243,92.939,114.095,95.086,114.095"/>
		<polyline fill="#FFFFFF" points="103.414,100.224 106.589,100.224 106.589,108.782 110.587,104.626 114.34,104.626 
			109.986,108.869 114.831,116.176 110.99,116.176 107.815,111.013 106.589,112.199 106.589,116.176 103.414,116.176 		"/>
		<path fill="#FFFFFF" d="M119.211,102.839h-3.169v-2.615h3.169V102.839z M116.042,104.626h3.169v11.55h-3.169V104.626z"/>
		<path fill="#FFFFFF" d="M121.715,104.626h3.017v1.608h0.065c0.807-1.295,2.192-1.923,3.529-1.923c3.376,0,4.227,1.901,4.227,4.76
			v7.104h-3.174v-6.523c0-1.898-0.562-2.837-2.035-2.837c-1.718,0-2.454,0.96-2.454,3.303v6.058h-3.175"/>
		<path fill="#FFFFFF" d="M146.07,115.439c0,1.898-0.671,5.117-5.989,5.117c-2.28,0-4.937-1.072-5.095-3.71h3.152
			c0.289,1.184,1.249,1.588,2.367,1.588c1.762,0,2.569-1.211,2.548-2.861v-1.52h-0.049c-0.693,1.206-2.073,1.787-3.459,1.787
			c-3.464,0-4.941-2.638-4.941-5.807c0-2.997,1.724-5.723,4.964-5.723c1.516,0,2.678,0.514,3.437,1.855h0.049v-1.541h3.017
			 M143.054,110.255c0-1.876-0.649-3.554-2.706-3.554c-1.789,0-2.569,1.562-2.569,3.286c0,1.65,0.628,3.464,2.569,3.464
			C142.159,113.451,143.054,111.91,143.054,110.255"/>
		<path fill="#FFFFFF" d="M67.948,133.369c0.025,1.383,1.187,1.945,2.434,1.945c0.916,0,2.081-0.357,2.081-1.479
			c0-0.96-1.32-1.293-3.601-1.784c-1.827-0.406-3.663-1.05-3.663-3.084c0-2.948,2.55-3.71,5.029-3.71
			c2.525,0,4.85,0.849,5.092,3.688h-3.016c-0.088-1.227-1.026-1.562-2.169-1.562c-0.712,0-1.762,0.134-1.762,1.072
			c0,1.14,1.786,1.295,3.598,1.721c1.854,0.423,3.663,1.094,3.663,3.237c0,3.041-2.638,4.022-5.272,4.022
			c-2.681,0-5.294-1.006-5.431-4.066"/>
		<path fill="#FFFFFF" d="M81.509,125.572h2.324v2.121h-2.324v5.72c0,1.072,0.268,1.339,1.34,1.339c0.335,0,0.651-0.021,0.984-0.087
			v2.481c-0.537,0.085-1.23,0.106-1.854,0.106c-1.945,0-3.639-0.441-3.639-2.743v-6.816h-1.923v-2.121h1.923v-3.464h3.169"/>
		<path fill="#FFFFFF" d="M85.352,125.572h3.017v2.146h0.044c0.581-1.454,2.146-2.461,3.688-2.461c0.224,0,0.493,0.047,0.692,0.112
			v2.951c-0.292-0.071-0.761-0.112-1.137-0.112c-2.324,0-3.131,1.675-3.131,3.71v5.203h-3.173"/>
		<path fill="#FFFFFF" d="M97.309,123.785h-3.175v-2.615h3.175V123.785z M94.132,125.572h3.174v11.55h-3.174V125.572z"/>
		<path fill="#FFFFFF" d="M107.674,129.639c-0.201-1.296-1.031-1.991-2.346-1.991c-2.034,0-2.705,2.06-2.705,3.756
			c0,1.652,0.649,3.638,2.635,3.638c1.478,0,2.323-0.936,2.525-2.343h3.06c-0.397,3.063-2.525,4.737-5.563,4.737
			c-3.485,0-5.831-2.457-5.831-5.921c0-3.6,2.149-6.257,5.902-6.257c2.722,0,5.226,1.43,5.427,4.381"/>
		<path fill="#FFFFFF" d="M116.652,125.572h2.324v2.121h-2.324v5.72c0,1.072,0.268,1.339,1.342,1.339
			c0.333,0,0.649-0.021,0.982-0.087v2.481c-0.535,0.085-1.228,0.106-1.854,0.106c-1.942,0-3.639-0.441-3.639-2.743v-6.816h-1.926
			v-2.121h1.926v-3.464h3.169"/>
		<rect x="120.585" y="121.17" fill="#FFFFFF" width="3.175" height="15.952"/>
		<path fill="#FFFFFF" d="M131.959,138.576c-0.693,1.854-1.79,2.612-3.977,2.612c-0.649,0-1.299-0.043-1.942-0.111v-2.615
			c0.601,0.043,1.228,0.136,1.854,0.114c1.091-0.114,1.451-1.252,1.091-2.168l-4.063-10.836h3.393l2.618,7.909h0.044l2.525-7.909
			h3.284"/>
		<path fill="#FFFFFF" d="M47.294,146.519h3.017v1.473h0.041c0.761-1.228,2.013-1.787,3.442-1.787c3.621,0,5.253,2.93,5.253,6.213
			c0,3.082-1.702,5.965-5.076,5.965c-1.383,0-2.7-0.605-3.458-1.745h-0.047v5.498h-3.172 M55.874,152.325
			c0-1.83-0.741-3.731-2.771-3.731c-2.078,0-2.752,1.854-2.752,3.731c0,1.876,0.718,3.662,2.773,3.662
			C55.203,155.987,55.874,154.201,55.874,152.325"/>
		<path fill="#FFFFFF" d="M60.942,146.519h3.019v2.146h0.047c0.581-1.454,2.144-2.461,3.685-2.461c0.224,0,0.491,0.047,0.692,0.112
			v2.951c-0.289-0.071-0.758-0.112-1.143-0.112c-2.321,0-3.123,1.675-3.123,3.71v5.203h-3.177"/>
		<path fill="#FFFFFF" d="M75.244,146.204c3.639,0,5.989,2.411,5.989,6.099c0,3.666-2.351,6.079-5.989,6.079
			c-3.619,0-5.968-2.413-5.968-6.079C69.276,148.615,71.625,146.204,75.244,146.204 M75.244,155.987
			c2.166,0,2.812-1.852,2.812-3.685c0-1.854-0.646-3.709-2.812-3.709c-2.144,0-2.793,1.854-2.793,3.709
			C72.451,154.136,73.101,155.987,75.244,155.987"/>
		<path fill="#FFFFFF" d="M83.284,142.116h3.173v6.011h0.07c0.802-1.295,2.188-1.923,3.374-1.923c3.374,0,4.219,1.901,4.219,4.76
			v7.104h-3.169v-6.523c0-1.898-0.562-2.837-2.032-2.837c-1.724,0-2.462,0.96-2.462,3.303v6.058h-3.173"/>
		<path fill="#FFFFFF" d="M99.797,144.731h-3.17v-2.615h3.17V144.731z M96.624,146.519h3.173v11.55h-3.173V146.519z"/>
		<path fill="#FFFFFF" d="M102.301,142.116h3.17v5.807h0.043c0.786-1.184,2.215-1.719,3.644-1.719c2.303,0,4.784,1.855,4.784,6.077
			c0,4.246-2.481,6.101-4.784,6.101c-1.696,0-3.104-0.515-3.796-1.786h-0.049v1.473h-3.012 M108.062,148.594
			c-1.877,0-2.7,1.768-2.7,3.709c0,1.923,0.823,3.685,2.7,3.685c1.876,0,2.705-1.762,2.705-3.685
			C110.767,150.361,109.938,148.594,108.062,148.594"/>
		<path fill="#FFFFFF" d="M119.211,144.731h-3.169v-2.615h3.169V144.731z M116.042,146.519h3.169v11.55h-3.169V146.519z"/>
		<path fill="#FFFFFF" d="M125.734,146.519h2.324v2.121h-2.324v5.72c0,1.072,0.268,1.339,1.342,1.339
			c0.333,0,0.649-0.021,0.982-0.087v2.481c-0.535,0.085-1.228,0.106-1.854,0.106c-1.942,0-3.639-0.441-3.639-2.743v-6.816h-1.926
			v-2.121h1.926v-3.464h3.169"/>
		<path fill="#FFFFFF" d="M132.193,153.063c0.087,2.011,1.074,2.924,2.836,2.924c1.276,0,2.302-0.777,2.504-1.494h2.793
			c-0.895,2.728-2.793,3.889-5.405,3.889c-3.645,0-5.902-2.501-5.902-6.079c0-3.461,2.395-6.099,5.902-6.099
			c3.933,0,5.831,3.306,5.607,6.859 M137.354,151.051c-0.289-1.606-0.982-2.457-2.525-2.457c-2.008,0-2.592,1.562-2.635,2.457
			H137.354z"/>
		<path fill="#FFFFFF" d="M150.646,156.596h-0.044c-0.736,1.249-2.034,1.786-3.507,1.786c-3.485,0-5.183-2.997-5.183-6.188
			c0-3.106,1.719-5.989,5.117-5.989c1.363,0,2.7,0.581,3.441,1.719h-0.027h0.05v-5.807h3.169v15.952h-3.017 M147.876,148.594
			c-2.079,0-2.793,1.789-2.793,3.688c0,1.811,0.829,3.706,2.793,3.706c2.1,0,2.727-1.83,2.727-3.728
			C150.603,150.383,149.932,148.594,147.876,148.594"/>
	</g>
	<g>
		<polyline fill="none" stroke="#1B181B" stroke-width="1.8522" stroke-miterlimit="2.6131" points="94.721,75.077 117.438,59.714 
			115.201,56.411 92.486,71.774 		"/>
		<path fill="none" stroke="#1B181B" stroke-width="1.4554" stroke-miterlimit="2.6131" d="M94.208,76.457l-3.222-4.765
			 M92.454,77.646l-3.224-4.771"/>
		<path fill="none" stroke="#1B181B" stroke-width="1.323" stroke-miterlimit="2.6131" d="M84.029,56.697
			c0.595,0.832,0.259,1.975-0.516,2.651c-0.27,0.234-0.245,0.251-0.505,0.472c-1.857,1.576-0.682,3.608,0.371,3.928
			c0.794,0.239,1.211,0.101,2.559-0.117c1.102-0.181,1.778,0.155,2.247,0.91c0.521,0.829-0.213,1.959-0.387,3.273
			c-0.079,0.6-0.205,1.053-0.044,1.734c0.06,0.374,0.488,1.806,1.214,2.837 M88.033,54.125c0.605,0.87,0.42,2.703-0.45,3.249
			c-0.306,0.19-0.283,0.213-0.573,0.387c-2.08,1.266-1.24,3.459-0.248,3.938c0.745,0.36,1.304,0.234,2.665,0.14
			c1.508-0.109,1.999,0.196,2.468,0.949c0.783,1.251,0.068,2.375-0.916,3.423c-0.475,0.507-0.682,0.804-0.875,2.04
			c-0.126,0.895-0.041,1.87,0.685,2.907"/>
		<pattern  id="SVGID_1_" xlink:href="#New_Pattern_Swatch_2" patternTransform="matrix(0.0947 0 0 0.0947 -7350.6401 -7151.9692)">
		</pattern>
		<path fill-rule="evenodd" clip-rule="evenodd" fill="url(#SVGID_1_)" d="M126.291,61.252l-0.038-1.184l-0.076-1.181l-0.137-1.165
			l-0.19-1.159l-0.229-1.164l-0.283-1.14l-0.344-1.126l-0.382-1.104l-0.437-1.102l-0.497-1.069l-0.534-1.047l-0.567-1.03
			l-0.633-0.99l-0.682-0.972l-0.709-0.934l-0.758-0.914l-0.786-0.858l-0.834-0.837l-0.879-0.8l-0.895-0.745l-0.933-0.723
			l-0.971-0.667l-1.01-0.63l-1.009-0.57l-1.053-0.552l-1.085-0.477l-1.086-0.437l-1.124-0.401l-1.123-0.325l-1.141-0.304
			l-1.146-0.229l-1.161-0.191l-1.179-0.133l-1.167-0.077l-1.179-0.019l-1.182,0.019l-1.182,0.077l-1.161,0.133l-1.162,0.191
			l-1.165,0.229l-1.143,0.304l-1.121,0.325l-1.107,0.401l-1.104,0.437l-1.066,0.477l-1.05,0.552l-1.028,0.57l-0.99,0.63
			l-0.971,0.667l-0.936,0.723l-0.913,0.745l-0.856,0.8l-0.838,0.837L80.26,43.97l-0.761,0.914l-0.706,0.934l-0.666,0.972l-0.63,0.99
			l-0.592,1.03l-0.532,1.047l-0.477,1.069l-0.437,1.102l-0.401,1.104l-0.344,1.126l-0.286,1.14L74.2,56.563l-0.191,1.159
			l-0.131,1.165l-0.076,1.181l-0.02,1.184l0.02,1.179l0.076,1.161l0.131,1.185l0.191,1.161l0.229,1.162l0.286,1.124l0.344,1.143
			l0.401,1.104l0.437,1.086l0.477,1.085l0.532,1.05l0.592,1.028l0.63,0.987l0.666,0.974l0.706,0.936l0.761,0.914l0.802,0.859
			l0.838,0.837l0.856,0.799l0.913,0.742l0.936,0.726l0.971,0.665l0.99,0.63l1.028,0.57l1.05,0.554l1.066,0.478l1.104,0.437
			l1.107,0.397l1.121,0.328l1.143,0.283l1.165,0.251l1.162,0.169l1.161,0.134l1.182,0.096l1.182,0.019l1.179-0.019l1.167-0.096
			l1.179-0.134l1.161-0.169l1.146-0.251l1.141-0.283l1.123-0.328l1.124-0.397l1.086-0.437l1.085-0.478l1.053-0.554l1.009-0.57
			l1.01-0.63l0.971-0.665l0.933-0.726l0.895-0.742l0.879-0.799l0.834-0.837l0.786-0.859l0.758-0.914l0.709-0.936l0.682-0.974
			l0.633-0.987l0.567-1.028l0.534-1.05l0.497-1.085l0.437-1.086l0.382-1.104l0.344-1.143l0.283-1.124l0.229-1.162l0.19-1.161
			l0.137-1.185l0.076-1.161L126.291,61.252L126.291,61.252z M116.287,74.548l0.665-0.837l0.611-0.878l0.572-0.917l0.491-0.93
			l0.48-0.955l0.42-0.971l0.382-0.99l0.321-1.028l0.268-1.028l0.207-1.047l0.153-1.05l0.114-1.066l0.06-1.048v-1.068l-0.06-1.066
			l-0.093-1.066l-0.175-1.048l-0.207-1.047l-0.268-1.031l-0.321-1.009l-0.365-1.009l-0.421-0.971l-0.474-0.955l-0.514-0.933
			l-0.556-0.914l-0.605-0.875l-0.666-0.839l-0.688-0.799l-0.747-0.783l-0.758-0.724l-0.818-0.705l-0.84-0.646l-0.878-0.611
			l-0.896-0.552l-0.933-0.534l-0.954-0.456l-0.987-0.42l-0.993-0.381l-1.009-0.305l-1.048-0.268l-1.03-0.226l-1.064-0.153
			l-1.047-0.115l-1.069-0.038h-1.063l-1.07,0.038l-1.066,0.115l-1.047,0.172l-1.048,0.207l-1.03,0.268l-1.01,0.324l-0.99,0.362
			l-0.989,0.439l-0.955,0.456l-0.933,0.515l-0.895,0.572l-0.878,0.611l-0.838,0.646L116.287,74.548L116.287,74.548z M113.336,77.502
			l-29.571-29.55L83.1,48.81l-0.611,0.856l-0.551,0.917l-0.513,0.933l-0.478,0.952l-0.42,0.971l-0.382,1.012l-0.306,1.009
			l-0.265,1.028l-0.229,1.05l-0.153,1.048l-0.114,1.063l-0.058,1.069v1.063l0.058,1.05l0.114,1.066l0.153,1.048l0.229,1.047
			l0.246,1.031l0.324,1.028l0.382,0.99l0.42,0.974l0.458,0.951l0.532,0.949l0.551,0.9l0.611,0.875l0.646,0.838l0.707,0.802
			l0.726,0.78l0.779,0.723l0.8,0.706l0.837,0.646l0.878,0.608l0.914,0.572l0.933,0.516l0.955,0.458l0.971,0.418l1.009,0.382
			l1.01,0.305l1.03,0.268l1.048,0.207l1.047,0.175l1.066,0.114l1.065,0.038h1.068l1.069-0.06l1.048-0.093l1.047-0.175l1.047-0.207
			l1.031-0.268l1.025-0.324l0.993-0.382l0.971-0.417l0.955-0.459l0.933-0.534l0.911-0.551l0.878-0.611L113.336,77.502
			L113.336,77.502z"/>
	</g>
</g>
</svg>
