<?xml version="1.0" encoding="utf-8"?>
<!-- Generator: Adobe Illustrator 16.0.0, SVG Export Plug-In . SVG Version: 6.00 Build 0)  -->
<!DOCTYPE svg PUBLIC "-//W3C//DTD SVG 1.1//EN" "http://www.w3.org/Graphics/SVG/1.1/DTD/svg11.dtd">
<svg version="1.1" id="Layer_1" xmlns="http://www.w3.org/2000/svg" xmlns:xlink="http://www.w3.org/1999/xlink" x="0px" y="0px"
	 width="200px" height="200px" viewBox="0 0 200 200" enable-background="new 0 0 200 200" xml:space="preserve">
<polyline fill="#FFFFFF" points="38.285,102.966 100.511,116.2 162.741,102.966 162.741,102.81 170.167,102.81 170.167,5.175 
	162.572,5.175 162.572,5.188 100.511,8.564 38.285,5.175 30.167,5.175 30.167,102.81 38.103,102.81 "/>
<path fill="none" stroke="#1C181B" stroke-width="0.75" d="M100.511,116.2V8.564 M38.285,102.966l62.226,13.234l62.23-13.234v-0.156
	h7.426V5.175h-7.595v0.014l-62.061,3.376l-62.226-3.39h-8.118v97.635h7.936L38.285,102.966z"/>
<line fill="#FFFFFF" x1="162.741" y1="102.966" x2="162.741" y2="5.175"/>
<line fill="none" stroke="#1C181B" stroke-width="0.75" x1="162.741" y1="102.966" x2="162.741" y2="5.175"/>
<line fill="#FFFFFF" x1="38.103" y1="102.81" x2="38.103" y2="5.175"/>
<line fill="none" stroke="#1C181B" stroke-width="0.75" x1="38.103" y1="102.81" x2="38.103" y2="5.175"/>
<path fill="#FFFFFF" d="M34.079,18.589c1.388,0,2.506-1.123,2.506-2.506c0-1.392-1.118-2.51-2.506-2.51
	c-1.389,0-2.513,1.118-2.513,2.51C31.566,17.466,32.69,18.589,34.079,18.589"/>
<path fill="none" stroke="#1C181B" stroke-width="0.75" d="M34.079,18.589c1.388,0,2.506-1.123,2.506-2.506
	c0-1.392-1.118-2.51-2.506-2.51c-1.389,0-2.513,1.118-2.513,2.51C31.566,17.466,32.69,18.589,34.079,18.589z"/>
<path fill="#FFFFFF" d="M34.079,94.405c1.388,0,2.506-1.12,2.506-2.505c0-1.387-1.118-2.508-2.506-2.508
	c-1.389,0-2.513,1.121-2.513,2.508C31.566,93.285,32.69,94.405,34.079,94.405"/>
<path fill="none" stroke="#1C181B" stroke-width="0.75" d="M34.079,94.405c1.388,0,2.506-1.12,2.506-2.505
	c0-1.387-1.118-2.508-2.506-2.508c-1.389,0-2.513,1.121-2.513,2.508C31.566,93.285,32.69,94.405,34.079,94.405z"/>
<path fill="#FFFFFF" d="M166.486,18.589c1.385,0,2.504-1.123,2.504-2.506c0-1.392-1.119-2.51-2.504-2.51
	c-1.381,0-2.502,1.118-2.502,2.51C163.984,17.466,165.105,18.589,166.486,18.589"/>
<path fill="none" stroke="#1C181B" stroke-width="0.75" d="M166.486,18.589c1.385,0,2.504-1.123,2.504-2.506
	c0-1.392-1.119-2.51-2.504-2.51c-1.381,0-2.502,1.118-2.502,2.51C163.984,17.466,165.105,18.589,166.486,18.589z"/>
<path fill="#FFFFFF" d="M166.486,94.405c1.385,0,2.504-1.12,2.504-2.505c0-1.387-1.119-2.508-2.504-2.508
	c-1.381,0-2.502,1.121-2.502,2.508C163.984,93.285,165.105,94.405,166.486,94.405"/>
<circle fill="none" stroke="#1C181B" stroke-width="0.75" cx="166.486" cy="91.899" r="2.506"/>
<path fill="#E21F26" d="M156.522,51.791c1.074-0.211,1.949-1.268,1.949-2.351V10.898c0-1.087-0.875-1.878-1.949-1.767l-50.311,2.865
	c-1.081,0.108-1.951,1.163-1.951,2.349v44.578c0,1.188,0.87,1.979,1.951,1.765"/>
<path fill="#E21F26" d="M94.265,60.703c1.068,0.212,1.934-0.576,1.934-1.769V14.36c0-1.188-0.866-2.239-1.934-2.353L44.632,9.144
	c-1.068-0.11-1.938,0.685-1.938,1.77v38.541c0,1.087,0.87,2.136,1.938,2.348"/>
<path fill="#E21F26" d="M156.522,99.797c1.074-0.209,1.949-1.268,1.949-2.354V55.345c0-1.087-0.875-1.878-1.949-1.767l-50.311,9.088
	c-1.081,0.111-1.951,1.159-1.951,2.348v43.988c0,1.19,0.87,1.979,1.951,1.767"/>
<path fill="#E21F26" d="M94.265,110.784c1.068,0.215,1.934-0.58,1.934-1.766V65.029c0-1.191-0.866-2.242-1.934-2.354L44.632,53.59
	c-1.068-0.107-1.938,0.683-1.938,1.769v42.099c0,1.086,0.87,2.139,1.938,2.348"/>
<polyline fill="#FFFFFF" points="126.143,64.038 126.143,86.023 115.609,77.996 115.609,90.86 130.818,101.831 146.019,84.465 
	146.019,71.604 135.495,84.049 135.495,62.065 "/>
<polyline fill="#FFFFFF" points="64.424,62.065 64.424,84.053 53.898,71.604 53.898,84.465 69.106,101.831 84.31,90.868 
	84.31,78.004 73.784,86.025 73.784,64.038 "/>
<path fill="#FFFFFF" d="M89.138,24.226c0,0-4.304-2.04-6.618-10.429c-1.087,2.825-2.023,9.858,6.618,15.933"/>
<path fill="#FFFFFF" d="M88.343,32.729c0,0-4.126-1.43-6.858-8.529c-0.845-2.167-2.574-7.762-9.403-8.562
	c2.022,1.896,3.039,3.699,4.315,7.212C80.252,33.498,87.434,33.079,88.343,32.729"/>
<path fill="#FFFFFF" d="M89.138,37.46c0,0-8.416-2.114-15.308-13.379c0,12.986,14.903,18.498,15.308,18.653"/>
<path fill="#FFFFFF" d="M88.343,46.209c0,0-4.327-1.226-8.64-6.813c-4.031-5.162-8.658-4.21-10.223-3.07
	c1.982,0.119,4.263,1.913,7.208,5.558C81.855,48.371,87.867,46.655,88.343,46.209"/>
<path fill="#FFFFFF" d="M89.138,49.981c0,0-9.121-0.127-15.083-7.075c-0.21-0.702,1.142,9.992,15.083,12.028"/>
<path fill="#FFFFFF" d="M50.82,27.165l18.416,2.685c0.292,0.041,0.467-0.068,0.467-0.522L69.7,29.173l-19.299-2.789v0.286
	C50.401,26.91,50.587,27.128,50.82,27.165"/>
<path fill="#FFFFFF" d="M69.688,28.707c0-0.517-0.256-0.591-0.383-0.611c-1.153-0.162-1.88-0.569-2.803-1.553
	c-2.011-2.137-1.58-3.811-2.877-5.835c-0.851-1.321-2.343-2.728-5.083-3.123c-1.592-0.233-2.732,0.117-2.786,0.274
	c-0.087,0.262-0.795,0.593-0.874,0.74c-0.561,1.024-1.227,0.879-1.227,0.879l-1.007,3.746l0.199,0.458c0,0-0.312,1.878-1.708,1.737
	l-0.331-0.075c-0.233-0.031-0.421,0.137-0.421,0.597"/>
<path fill="#FFFFFF" d="M56.722,14.812c4.052,0.51,5.353,1.271,6.96,2.88c2.095,2.118,2.332,5.104,3.264,6.929
	c0.788,1.545,1.648,1.559,1.259,2.011c-0.147,0.169-1.198-0.111-2.082-1.809c-1.179-2.271-0.908-3.982-3.41-6.329
	c-1.491-1.377-3.267-1.613-5.092-1.777c-0.885-0.08-0.688,0.302-1.255,0.235c-0.504-0.064-0.375-0.547-0.342-0.749
	c0.088-0.482,0.066-0.677,0.124-0.993C56.193,14.975,56.234,14.751,56.722,14.812"/>
<polyline fill="#FFFFFF" points="51.147,40.306 49.771,40.064 49.771,33.33 54.459,34.074 54.459,35.276 51.147,34.737 
	51.147,36.268 54.047,36.744 54.047,37.944 51.147,37.462 "/>
<path fill="#FFFFFF" d="M56.601,36.185v5.062l-1.286-0.226v-5.044 M56.601,35.585l-1.286-0.207v-1.232l1.286,0.202V35.585z"/>
<path fill="#FFFFFF" d="M57.815,36.379l1.237,0.201v0.882l0.016,0.004c0.27-0.473,0.563-0.923,1.341-0.798
	c0.084,0.017,0.167,0.037,0.252,0.06v1.359c-0.115-0.035-0.252-0.056-0.367-0.076c-1.007-0.168-1.189,0.453-1.189,1.018v2.648
	l-1.29-0.224"/>
<path fill="#FFFFFF" d="M65.6,41.286c-0.342,1.188-1.314,1.42-2.148,1.276c-1.377-0.24-2.438-1.111-2.438-3.215
	c0-0.614,0.205-2.549,2.346-2.197c0.967,0.153,2.293,0.852,2.293,3.207v0.238l-3.352-0.56c0.039,0.389,0.111,1.265,1.15,1.446
	c0.355,0.06,0.72-0.069,0.828-0.42 M64.331,39.497c-0.073-0.84-0.581-1.181-0.993-1.244c-0.605-0.104-0.925,0.25-0.997,0.912
	L64.331,39.497z"/>
<path fill="#FFFFFF" d="M50.873,44.273l0.013,0.004c0.24-0.354,0.599-0.748,1.461-0.598c1.076,0.197,2.032,1.217,2.032,2.964
	c0,1.383-0.608,2.596-2.059,2.318c-0.898-0.175-1.22-0.732-1.378-1.037h-0.018v2.588l-1.285-0.25v-6.934l1.233,0.221 M52,47.817
	c0.825,0.151,1.059-0.729,1.059-1.326c0-0.79-0.278-1.588-1.097-1.738c-0.881-0.155-1.089,0.614-1.089,1.412
	C50.873,46.905,51.183,47.666,52,47.817"/>
<path fill="#FFFFFF" d="M57.492,49.944c-1.312-0.254-2.499-1.311-2.499-3.13c0-1.824,1.188-2.45,2.499-2.21
	c1.315,0.234,2.499,1.293,2.499,3.132C59.991,49.577,58.807,50.195,57.492,49.944 M57.492,45.73
	c-0.992-0.179-1.173,0.679-1.173,1.325c0,0.647,0.181,1.576,1.173,1.762c0.992,0.185,1.174-0.68,1.174-1.327
	S58.483,45.91,57.492,45.73"/>
<path fill="#FFFFFF" d="M62.214,45.582v5.121l-1.287-0.247v-5.102 M62.214,44.978l-1.287-0.227v-1.25l1.287,0.227V44.978z"/>
<path fill="#FFFFFF" d="M67.855,51.774l-1.279-0.246v-3.135c0-0.375-0.025-1.023-0.842-1.169c-0.566-0.104-1.006,0.222-1.006,1.005
	v2.948l-1.287-0.242v-5.135l1.229,0.228v0.752l0.021,0.004c0.176-0.275,0.543-0.791,1.469-0.625
	c0.958,0.167,1.694,0.895,1.694,2.031"/>
<path fill="#FFFFFF" d="M70.493,47.073l0.801,0.139v0.979l-0.801-0.145v2.831c0,0.301,0.009,0.425,0.538,0.519
	c0.079,0.015,0.167,0.023,0.264,0.03v1.041c-0.204-0.033-0.404-0.058-0.607-0.1l-0.169-0.031c-1.108-0.209-1.312-0.694-1.312-1.37
	v-3.152l-0.66-0.118v-0.975l0.66,0.122v-1.405l1.287,0.223"/>
<path fill="#FFFFFF" d="M151.567,19.397c0,0-4.338-0.835-6.678-8.25c-1.09,2.941-2.03,9.898,6.678,13.355"/>
<path fill="#FFFFFF" d="M150.768,27.509c0,0-4.158-0.19-6.914-6.196c-0.852-1.858-2.592-6.825-9.477-6.023
	c2.037,1.392,3.064,2.915,4.353,6.026C142.608,30.557,149.85,28.09,150.768,27.509"/>
<path fill="#FFFFFF" d="M151.567,31.662c0,0-8.485,0.523-15.43-8.467c0,12.785,15.021,13.346,15.43,13.36"/>
<path fill="#FFFFFF" d="M150.768,40.036c0,0-4.364,0.288-8.711-3.649c-4.06-3.758-8.727-1.4-10.302,0.23
	c1.997-0.504,4.295,0.541,7.265,3.155C144.226,44.273,150.288,40.604,150.768,40.036"/>
<path fill="#FFFFFF" d="M151.567,43.27c0,0-9.189,3.07-15.204-1.617c-0.214-0.626,1.15,9.398,15.204,6.212"/>
<path fill="#FFFFFF" d="M112.944,32.884l18.562-2.68c0.297-0.042,0.474-0.21,0.474-0.666v-0.149l-19.462,2.787v0.307
	C112.519,32.741,112.712,32.919,112.944,32.884"/>
<path fill="#FFFFFF" d="M131.968,28.926c-0.004-0.517-0.257-0.517-0.393-0.498c-1.162,0.166-1.892-0.043-2.825-0.772
	c-2.026-1.613-1.593-3.438-2.897-5.162c-0.855-1.137-2.362-2.206-5.13-1.929c-1.599,0.166-2.749,0.823-2.802,1.006
	c-0.096,0.303-0.804,0.837-0.888,1.014c-0.559,1.235-1.233,1.256-1.233,1.256l-1.012,4.28l0.195,0.432c0,0-0.311,2.104-1.72,2.359
	l-0.338,0.021c-0.229,0.029-0.419,0.273-0.419,0.765"/>
<path fill="#FFFFFF" d="M118.896,18.111c4.086-0.451,5.39,0.014,7.011,1.275c2.112,1.628,2.358,4.598,3.293,6.204
	c0.79,1.335,1.665,1.112,1.272,1.674c-0.15,0.209-1.211,0.227-2.104-1.252c-1.185-1.986-0.913-3.804-3.437-5.554
	c-1.498-1.062-3.29-0.854-5.132-0.57c-0.892,0.139-0.693,0.492-1.264,0.561c-0.506,0.064-0.374-0.477-0.344-0.701
	c0.083-0.528,0.064-0.727,0.126-1.079C118.358,18.416,118.397,18.164,118.896,18.111"/>
<polyline fill="#FFFFFF" points="113.274,46.935 111.885,47.171 111.885,39.88 116.611,39.138 116.611,40.417 113.274,40.95 
	113.274,42.588 116.195,42.109 116.195,43.39 113.274,43.875 "/>
<path fill="#FFFFFF" d="M118.771,40.659v5.334l-1.294,0.222v-5.348 M118.771,40.026l-1.294,0.211v-1.307l1.294-0.207V40.026z"/>
<path fill="#FFFFFF" d="M120.001,40.461l1.239-0.198v0.916h0.019c0.268-0.583,0.562-1.152,1.353-1.275
	c0.089-0.013,0.163-0.018,0.251-0.023v1.412c-0.113,0-0.251,0.025-0.372,0.041c-1.006,0.162-1.188,0.875-1.188,1.463v2.767
	l-1.301,0.222"/>
<path fill="#FFFFFF" d="M127.84,42.9c-0.339,1.321-1.32,1.904-2.161,2.048c-1.395,0.239-2.452-0.292-2.452-2.471
	c0-0.641,0.2-2.709,2.356-3.054c0.973-0.153,2.314,0.121,2.314,2.515v0.244l-3.381,0.566c0.039,0.388,0.115,1.269,1.162,1.092
	c0.357-0.06,0.729-0.321,0.832-0.716 M126.562,41.506c-0.069-0.833-0.583-1.008-0.994-0.939c-0.622,0.095-0.937,0.568-1.013,1.271
	L126.562,41.506z"/>
<path fill="#FFFFFF" d="M112.994,51.311h0.021c0.245-0.473,0.599-1.029,1.475-1.183c1.083-0.194,2.046,0.538,2.046,2.393
	c0,1.47-0.615,2.995-2.074,3.27c-0.907,0.17-1.229-0.303-1.394-0.57l-0.019,0.002v2.791l-1.29,0.25v-7.51l1.235-0.218
	 M114.134,54.685c0.835-0.151,1.063-1.184,1.063-1.815c0-0.853-0.275-1.6-1.101-1.453c-0.891,0.166-1.103,1.071-1.103,1.936
	C112.994,54.15,113.311,54.843,114.134,54.685"/>
<path fill="#FFFFFF" d="M119.676,54.808c-1.33,0.254-2.525-0.409-2.525-2.339c0-1.932,1.195-3.026,2.525-3.263
	c1.314-0.234,2.508,0.427,2.508,2.341S120.99,54.56,119.676,54.808 M119.676,50.385c-1.009,0.18-1.192,1.156-1.192,1.84
	c0,0.683,0.184,1.586,1.192,1.405c0.996-0.187,1.176-1.161,1.176-1.839C120.852,51.108,120.672,50.206,119.676,50.385"/>
<path fill="#FFFFFF" d="M124.425,48.502v5.274l-1.295,0.24v-5.289 M124.425,47.875l-1.295,0.229v-1.293l1.295-0.225V47.875z"/>
<path fill="#FFFFFF" d="M130.116,52.703l-1.294,0.244v-3.175c0-0.384-0.021-1.03-0.849-0.88c-0.569,0.1-1.01,0.598-1.01,1.396v3.007
	l-1.304,0.246v-5.263l1.248-0.222v0.771l0.021-0.004c0.171-0.348,0.544-1.005,1.48-1.171c0.964-0.169,1.707,0.295,1.707,1.445"/>
<path fill="#FFFFFF" d="M132.769,47.018l0.811-0.147v0.972l-0.811,0.148v2.822c0,0.296,0.02,0.417,0.537,0.313
	c0.088-0.01,0.182-0.04,0.273-0.068v1.034c-0.202,0.048-0.407,0.097-0.609,0.133l-0.166,0.035c-1.124,0.209-1.325-0.205-1.325-0.879
	v-3.157l-0.667,0.118v-0.979l0.667-0.12v-1.405l1.29-0.232"/>
<polyline fill="#FFFFFF" points="35.217,182.119 100.061,194.825 164.908,182.119 164.908,182.018 169.833,182.018 169.833,117.275 
	164.8,117.275 164.8,117.285 100.061,123.452 35.217,117.275 29.833,117.275 29.833,182.018 35.096,182.018 "/>
<path fill="none" stroke="#1C181B" stroke-width="0.75" d="M100.061,194.825v-71.373 M35.217,182.119l64.844,12.706l64.847-12.706
	v-0.102h4.925v-64.742H164.8v0.01l-64.739,6.167l-64.844-6.177h-5.384v64.742h5.263L35.217,182.119z"/>
<line fill="#FFFFFF" x1="164.908" y1="182.119" x2="164.908" y2="117.275"/>
<line fill="none" stroke="#1C181B" stroke-width="0.75" x1="164.908" y1="182.119" x2="164.908" y2="117.275"/>
<line fill="#FFFFFF" x1="35.096" y1="182.018" x2="35.096" y2="117.275"/>
<line fill="none" stroke="#1C181B" stroke-width="0.75" x1="35.096" y1="182.018" x2="35.096" y2="117.275"/>
<path fill="#FFFFFF" d="M32.427,126.172c0.919,0,1.665-0.742,1.665-1.662c0-0.921-0.745-1.663-1.665-1.663
	c-0.917,0-1.661,0.742-1.661,1.663C30.766,125.43,31.51,126.172,32.427,126.172"/>
<path fill="none" stroke="#1C181B" stroke-width="0.75" d="M32.427,126.172c0.919,0,1.665-0.742,1.665-1.662
	c0-0.921-0.745-1.663-1.665-1.663c-0.917,0-1.661,0.742-1.661,1.663C30.766,125.43,31.51,126.172,32.427,126.172z"/>
<path fill="#FFFFFF" d="M32.427,176.447c0.919,0,1.665-0.747,1.665-1.664c0-0.92-0.745-1.667-1.665-1.667
	c-0.917,0-1.661,0.747-1.661,1.667C30.766,175.7,31.51,176.447,32.427,176.447"/>
<path fill="none" stroke="#1C181B" stroke-width="0.75" d="M32.427,176.447c0.919,0,1.665-0.747,1.665-1.664
	c0-0.92-0.745-1.667-1.665-1.667c-0.917,0-1.661,0.747-1.661,1.667C30.766,175.7,31.51,176.447,32.427,176.447z"/>
<path fill="#FFFFFF" d="M167.395,126.172c0.92,0,1.663-0.742,1.663-1.662c0-0.921-0.743-1.663-1.663-1.663
	c-0.918,0-1.663,0.742-1.663,1.663C165.731,125.43,166.477,126.172,167.395,126.172"/>
<circle fill="none" stroke="#1C181B" stroke-width="0.75" cx="167.395" cy="124.509" r="1.663"/>
<path fill="#FFFFFF" d="M167.395,176.447c0.92,0,1.663-0.747,1.663-1.664c0-0.92-0.743-1.667-1.663-1.667
	c-0.918,0-1.663,0.747-1.663,1.667C165.731,175.7,166.477,176.447,167.395,176.447"/>
<path fill="none" stroke="#1C181B" stroke-width="0.75" d="M167.395,176.447c0.92,0,1.663-0.747,1.663-1.664
	c0-0.92-0.743-1.667-1.663-1.667c-0.918,0-1.663,0.747-1.663,1.667C165.731,175.7,166.477,176.447,167.395,176.447z"/>
<path fill="#1C181B" d="M160.901,180.113c0.713-0.142,1.292-0.844,1.292-1.563v-57.394c0-0.718-0.579-1.243-1.292-1.167
	l-56.946,5.823c-0.711,0.077-1.293,0.775-1.293,1.564v62.771c0,0.787,0.582,1.313,1.293,1.174"/>
<path fill="#FFFFFF" d="M131.528,183.273l-5.564,1.075v-36.645l-2.026,0.278v17.835c-2.357,0.391-4.209-1.297-4.209-3.658V146.21
	c0-2.542,1.852-4.771,4.209-5.071l17.032-2.184c2.36-0.308,4.218,1.378,4.218,3.816v15.359c0,2.264-1.857,4.493-4.218,4.884v-17.392
	l-2.023,0.28v35.937l-5.564,1.075v-23.806l-1.854,0.291"/>
<path fill="#FFFFFF" d="M137.938,131.399c0-3.175-2.364-5.564-5.566-5.224c-3.034,0.33-5.393,3.271-5.393,6.502
	c0,3.225,2.358,5.622,5.393,5.241C135.573,137.518,137.938,134.581,137.938,131.399"/>
<path fill="#1C181B" d="M96.033,191.331c0.71,0.14,1.284-0.386,1.284-1.176v-62.77c0-0.789-0.574-1.486-1.284-1.557l-56.493-5.831
	c-0.708-0.076-1.284,0.449-1.284,1.168v57.392c0,0.722,0.576,1.422,1.284,1.563"/>
<path fill="#FFFFFF" d="M66.894,182.933l-5.521-1.073v-35.935l-2.005-0.284v17.392c-2.343-0.391-4.182-2.613-4.182-4.886v-15.354
	c0-2.444,1.839-4.129,4.182-3.822l16.895,2.184c2.339,0.301,4.182,2.529,4.182,5.072v15.952c0,2.361-1.842,4.047-4.182,3.656V148
	l-2.007-0.281v36.647l-5.521-1.073v-23.877l-1.84-0.289"/>
<path fill="#FFFFFF" d="M73.25,132.692c0-3.23-2.341-6.172-5.522-6.519c-3.009-0.324-5.352,2.066-5.352,5.243
	c0,3.179,2.342,6.117,5.352,6.497C70.909,138.314,73.25,135.916,73.25,132.692"/>
</svg>
