<?xml version="1.0" encoding="utf-8"?>
<!-- Generator: Adobe Illustrator 16.0.0, SVG Export Plug-In . SVG Version: 6.00 Build 0)  -->
<!DOCTYPE svg PUBLIC "-//W3C//DTD SVG 1.1//EN" "http://www.w3.org/Graphics/SVG/1.1/DTD/svg11.dtd">
<svg version="1.1" id="Layer_1" xmlns="http://www.w3.org/2000/svg" xmlns:xlink="http://www.w3.org/1999/xlink" x="0px" y="0px"
	 width="200px" height="200px" viewBox="0 0 200 200" enable-background="new 0 0 200 200" xml:space="preserve">
<g>
	<rect x="5" y="25.039" fill="#FFFFFF" width="190" height="149.922"/>
	<path fill="none" stroke="#1C181B" d="M195,174.961 M5,174.961h190V25.039H5V174.961z"/>
	<path fill="#ED1C24" d="M19.709,42.502l-1.693-1.541c-0.787,0.451-1.775,0.705-2.898,0.705c-3.703,0-5.882-2.765-5.882-6.217
		c0-3.554,2.179-6.317,5.882-6.317c3.704,0,5.882,2.763,5.882,6.317c0,1.725-0.553,3.266-1.559,4.407l1.491,1.357 M16.273,36.956
		l1.358,1.241c0.436-0.603,0.736-1.507,0.736-2.748c0-2.095-0.888-4.105-3.251-4.105c-2.362,0-3.25,2.011-3.25,4.105
		c0,1.993,0.888,4.003,3.25,4.003c0.386,0,0.872,0,1.056-0.166l-1.123-1.021L16.273,36.956z"/>
	<path fill="#ED1C24" d="M32.947,36.856c0,3.234-1.91,4.81-5.111,4.81c-3.217,0-5.094-1.561-5.094-4.81v-7.441h2.631v7.441
		c0,1.307,0.335,2.596,2.463,2.596c1.877,0,2.479-0.819,2.479-2.596v-7.441h2.632"/>
	<path fill="#ED1C24" d="M38.477,29.415h2.698l4.475,11.966h-2.732l-0.904-2.667h-4.474L36.6,41.381h-2.664 M38.226,36.756h3.101
		l-1.509-4.39h-0.034L38.226,36.756z"/>
	<polyline fill="#ED1C24" points="46.688,29.415 49.319,29.415 49.319,39.168 55.149,39.168 55.149,41.381 46.688,41.381 	"/>
	<rect x="56.625" y="29.415" fill="#ED1C24" width="2.63" height="11.964"/>
	<polyline fill="#ED1C24" points="64.216,31.629 60.63,31.629 60.63,29.415 70.433,29.415 70.433,31.629 66.846,31.629 
		66.846,41.381 64.216,41.381 	"/>
	<polyline fill="#ED1C24" points="74.906,36.722 70.499,29.415 73.466,29.415 76.264,34.142 79.046,29.415 81.978,29.415 
		77.537,36.788 77.537,41.381 74.906,41.381 	"/>
	<path fill="#ED1C24" d="M90.91,29.415h2.698l4.473,11.966h-2.73l-0.905-2.667h-4.475l-0.938,2.667h-2.664 M90.658,36.756h3.1
		l-1.507-4.39h-0.034L90.658,36.756z"/>
	<path fill="#ED1C24" d="M100.914,37.41c0,1.592,1.239,2.21,2.648,2.21c0.921,0,2.328-0.266,2.328-1.489
		c0-1.292-1.792-1.508-3.551-1.978c-1.778-0.468-3.571-1.158-3.571-3.401c0-2.447,2.313-3.62,4.476-3.62
		c2.495,0,4.79,1.089,4.79,3.853h-2.545c-0.086-1.439-1.106-1.808-2.364-1.808c-0.837,0-1.81,0.352-1.81,1.357
		c0,0.922,0.57,1.04,3.568,1.809c0.872,0.218,3.554,0.772,3.554,3.487c0,2.193-1.725,3.837-4.977,3.837
		c-2.647,0-5.128-1.307-5.094-4.256"/>
	<path fill="#ED1C24" d="M111.79,37.41c0,1.592,1.239,2.21,2.646,2.21c0.921,0,2.328-0.266,2.328-1.489
		c0-1.292-1.792-1.508-3.551-1.978c-1.775-0.468-3.569-1.158-3.569-3.401c0-2.447,2.313-3.62,4.474-3.62
		c2.497,0,4.792,1.089,4.792,3.853h-2.546c-0.084-1.439-1.105-1.808-2.363-1.808c-0.836,0-1.811,0.352-1.811,1.357
		c0,0.922,0.571,1.04,3.57,1.809c0.871,0.218,3.553,0.772,3.553,3.487c0,2.193-1.727,3.837-4.977,3.837
		c-2.649,0-5.129-1.307-5.096-4.256"/>
	<path fill="#ED1C24" d="M131.026,36.856c0,3.234-1.911,4.81-5.11,4.81c-3.219,0-5.095-1.561-5.095-4.81v-7.441h2.633v7.441
		c0,1.307,0.333,2.596,2.462,2.596c1.876,0,2.479-0.819,2.479-2.596v-7.441h2.631"/>
	<path fill="#ED1C24" d="M133.289,29.415h6.451c2.144,0,3.502,1.493,3.502,3.303c0,1.406-0.568,2.461-1.895,2.999v0.034
		c1.291,0.333,1.661,1.592,1.743,2.798c0.051,0.754,0.032,2.16,0.503,2.832h-2.63c-0.321-0.756-0.287-1.911-0.42-2.866
		c-0.184-1.256-0.669-1.812-1.996-1.812h-2.629v4.677h-2.63 M135.919,34.827h2.883c1.172,0,1.81-0.501,1.81-1.709
		c0-1.155-0.638-1.659-1.81-1.659h-2.883V34.827z"/>
	<path fill="#ED1C24" d="M148.654,29.415h2.698l4.472,11.966h-2.729l-0.906-2.667h-4.476l-0.937,2.667h-2.664 M148.403,36.756h3.099
		l-1.51-4.39h-0.03L148.403,36.756z"/>
	<polyline fill="#ED1C24" points="156.865,29.415 159.479,29.415 164.471,37.441 164.508,37.441 164.508,29.415 166.969,29.415 
		166.969,41.381 164.336,41.381 159.361,33.371 159.328,33.371 159.328,41.381 156.865,41.381 	"/>
	<path fill="#ED1C24" d="M177.258,33.438c-0.168-1.191-1.308-2.095-2.614-2.095c-2.363,0-3.251,2.011-3.251,4.105
		c0,1.993,0.888,4.003,3.251,4.003c1.607,0,2.514-1.104,2.714-2.68h2.549c-0.268,2.981-2.332,4.894-5.263,4.894
		c-3.705,0-5.881-2.765-5.881-6.217c0-3.554,2.176-6.317,5.881-6.317c2.632,0,4.842,1.54,5.163,4.307"/>
	<polyline fill="#ED1C24" points="181.698,29.415 190.647,29.415 190.647,31.629 184.329,31.629 184.329,34.192 190.126,34.192 
		190.126,36.236 184.329,36.236 184.329,39.168 190.78,39.168 190.78,41.381 181.698,41.381 	"/>
	<path fill="#ED1C24" d="M125.667,66.467c0.008,0.291,0.043,0.575,0.043,0.869c0,14.342-11.629,25.969-25.972,25.969
		c-14.344,0-25.971-11.627-25.971-25.969c0-0.294,0.035-0.578,0.044-0.869H10.937v102.558h178.128V66.467"/>
	<polyline fill="#FFFFFF" points="54.227,108.139 67.894,108.139 67.894,111.733 58.501,111.733 58.501,116.226 66.644,116.226 
		66.644,119.547 58.501,119.547 58.501,127.584 54.227,127.584 	"/>
	<path fill="#FFFFFF" d="M74.187,108.139h4.384l7.271,19.445h-4.438l-1.469-4.332h-7.272l-1.524,4.332h-4.33 M73.779,120.066h5.036
		l-2.45-7.135h-0.054L73.779,120.066z"/>
	<rect x="87.53" y="108.139" fill="#FFFFFF" width="4.275" height="19.443"/>
	<polyline fill="#FFFFFF" points="95.562,108.139 99.837,108.139 99.837,123.986 109.314,123.986 109.314,127.584 95.562,127.584 	
		"/>
	<polyline fill="#FFFFFF" points="111.708,108.139 126.252,108.139 126.252,111.733 115.983,111.733 115.983,115.9 125.405,115.9 
		125.405,119.222 115.983,119.222 115.983,123.986 126.469,123.986 126.469,127.584 111.708,127.584 	"/>
	<path fill="#FFFFFF" d="M129.355,108.139h8.387c5.038,0,8.822,3.159,8.822,9.612c0,5.638-2.887,9.833-8.822,9.833h-8.387
		 M133.63,123.986h3.812c2.479,0,4.848-1.524,4.848-5.824c0-3.923-1.362-6.429-5.609-6.429h-3.05V123.986z"/>
	<rect x="17.928" y="135.369" fill="#FFFFFF" width="4.275" height="19.443"/>
	<polyline fill="#FFFFFF" points="25.961,135.369 30.21,135.369 38.324,148.414 38.378,148.414 38.378,135.369 42.382,135.369 
		42.382,154.814 38.106,154.814 30.019,141.794 29.964,141.794 29.964,154.814 25.961,154.814 	"/>
	<path fill="#FFFFFF" d="M49.053,148.36c0,2.586,2.015,3.592,4.302,3.592c1.499,0,3.785-0.436,3.785-2.424
		c0-2.097-2.913-2.45-5.772-3.213c-2.886-0.762-5.8-1.878-5.8-5.527c0-3.977,3.758-5.883,7.27-5.883
		c4.058,0,7.789,1.771,7.789,6.264h-4.14c-0.136-2.341-1.797-2.938-3.839-2.938c-1.361,0-2.94,0.572-2.94,2.203
		c0,1.497,0.925,1.688,5.8,2.939c1.415,0.357,5.772,1.254,5.772,5.666c0,3.567-2.805,6.234-8.088,6.234
		c-4.302,0-8.332-2.123-8.277-6.914"/>
	<path fill="#FFFFFF" d="M63.812,135.369h8.769c4.847,0,6.726,3.077,6.726,6.237c0,3.158-1.879,6.234-6.726,6.234h-4.493v6.974
		h-4.275 M68.087,144.521h3.322c1.988,0,3.757-0.437,3.757-2.915c0-2.479-1.769-2.915-3.757-2.915h-3.322V144.521z"/>
	<polyline fill="#FFFFFF" points="81.974,135.369 96.515,135.369 96.515,138.963 86.249,138.963 86.249,143.13 95.671,143.13 
		95.671,146.452 86.249,146.452 86.249,151.216 96.732,151.216 96.732,154.814 81.974,154.814 	"/>
	<path fill="#FFFFFF" d="M112.579,141.905c-0.27-1.936-2.123-3.404-4.246-3.404c-3.84,0-5.281,3.269-5.281,6.673
		c0,3.24,1.441,6.507,5.281,6.507c2.614,0,4.085-1.796,4.41-4.357h4.141c-0.437,4.846-3.785,7.951-8.551,7.951
		c-6.018,0-9.558-4.492-9.558-10.101c0-5.774,3.54-10.269,9.558-10.269c4.275,0,7.869,2.508,8.387,7"/>
	<polyline fill="#FFFFFF" points="124.1,138.963 118.272,138.963 118.272,135.369 134.201,135.369 134.201,138.963 128.375,138.963 
		128.375,154.814 124.1,154.814 	"/>
	<rect x="136.435" y="135.369" fill="#FFFFFF" width="4.275" height="19.443"/>
	<path fill="#FFFFFF" d="M153.182,134.905c6.018,0,9.559,4.494,9.559,10.269c0,5.608-3.541,10.101-9.559,10.101
		c-6.019,0-9.559-4.492-9.559-10.101C143.623,139.399,147.163,134.905,153.182,134.905 M153.182,151.681
		c3.839,0,5.283-3.267,5.283-6.507c0-3.404-1.444-6.673-5.283-6.673c-3.84,0-5.284,3.269-5.284,6.673
		C147.897,148.414,149.342,151.681,153.182,151.681"/>
	<polyline fill="#FFFFFF" points="165.651,135.369 169.899,135.369 178.017,148.414 178.069,148.414 178.069,135.369 
		182.072,135.369 182.072,154.814 177.798,154.814 169.707,141.794 169.654,141.794 169.654,154.814 165.651,154.814 	"/>
	<path fill="#ED1C24" d="M99.738,88.978c11.953,0,21.642-9.689,21.642-21.642c0-11.955-9.688-21.642-21.642-21.642
		c-11.952,0-21.642,9.688-21.642,21.642C78.097,79.288,87.786,88.978,99.738,88.978"/>
	<polyline fill="#FFFFFF" points="114.191,78.387 88.686,52.883 85.286,56.283 110.79,81.788 	"/>
	<polyline fill="#FFFFFF" points="114.191,78.387 88.686,52.883 85.286,56.283 110.79,81.788 	"/>
	<polyline fill="#FFFFFF" points="88.686,81.788 114.191,56.283 110.79,52.883 85.286,78.387 	"/>
</g>
</svg>
