<?xml version="1.0" encoding="utf-8"?>
<!-- Generator: Adobe Illustrator 16.0.0, SVG Export Plug-In . SVG Version: 6.00 Build 0)  -->
<!DOCTYPE svg PUBLIC "-//W3C//DTD SVG 1.1//EN" "http://www.w3.org/Graphics/SVG/1.1/DTD/svg11.dtd">
<svg version="1.1" id="Layer_1" xmlns="http://www.w3.org/2000/svg" xmlns:xlink="http://www.w3.org/1999/xlink" x="0px" y="0px"
	 width="200px" height="200px" viewBox="0 0 200 200" enable-background="new 0 0 200 200" xml:space="preserve">
<g>
	<rect x="5" y="25.037" fill="#FFFFFF" width="190" height="149.926"/>
	<path fill="none" stroke="#1C181B" d="M195,174.963 M5,174.963h190V25.037H5V174.963z"/>
	<path fill="#099146" d="M19.709,42.504l-1.693-1.544c-0.788,0.454-1.775,0.706-2.898,0.706c-3.702,0-5.881-2.766-5.881-6.217
		c0-3.553,2.179-6.318,5.881-6.318s5.881,2.766,5.881,6.318c0,1.725-0.553,3.267-1.557,4.406l1.491,1.358 M16.272,36.957l1.358,1.24
		c0.436-0.604,0.736-1.508,0.736-2.748c0-2.094-0.888-4.105-3.25-4.105c-2.363,0-3.251,2.011-3.251,4.105
		c0,1.995,0.888,4.005,3.251,4.005c0.385,0,0.871,0,1.056-0.168l-1.123-1.022L16.272,36.957z"/>
	<path fill="#099146" d="M32.946,36.856c0,3.232-1.911,4.809-5.11,4.809c-3.218,0-5.096-1.559-5.096-4.809v-7.44h2.631v7.44
		c0,1.307,0.336,2.598,2.465,2.598c1.876,0,2.479-0.822,2.479-2.598v-7.44h2.631"/>
	<path fill="#099146" d="M38.478,29.417h2.697l4.474,11.964h-2.73l-0.906-2.665h-4.474L36.6,41.381h-2.664 M38.226,36.756h3.099
		l-1.508-4.392h-0.032L38.226,36.756z"/>
	<polyline fill="#099146" points="46.688,29.417 49.318,29.417 49.318,39.167 55.15,39.167 55.15,41.381 46.688,41.381 	"/>
	<rect x="56.625" y="29.417" fill="#099146" width="2.631" height="11.964"/>
	<polyline fill="#099146" points="64.216,31.628 60.628,31.628 60.628,29.417 70.433,29.417 70.433,31.628 66.847,31.628 
		66.847,41.381 64.216,41.381 	"/>
	<polyline fill="#099146" points="74.906,36.721 70.5,29.417 73.466,29.417 76.265,34.142 79.046,29.417 81.978,29.417 
		77.537,36.789 77.537,41.381 74.906,41.381 	"/>
	<path fill="#099146" d="M90.908,29.417h2.698l4.476,11.964H95.35l-0.904-2.665h-4.474l-0.939,2.665h-2.665 M90.657,36.756h3.101
		l-1.508-4.392h-0.034L90.657,36.756z"/>
	<path fill="#099146" d="M100.913,37.409c0,1.591,1.239,2.211,2.646,2.211c0.923,0,2.33-0.268,2.33-1.491
		c0-1.289-1.794-1.507-3.553-1.976c-1.775-0.47-3.569-1.158-3.569-3.401c0-2.447,2.313-3.621,4.476-3.621
		c2.495,0,4.792,1.09,4.792,3.854h-2.549c-0.081-1.44-1.104-1.808-2.362-1.808c-0.837,0-1.808,0.352-1.808,1.356
		c0,0.923,0.568,1.04,3.569,1.811c0.871,0.217,3.551,0.771,3.551,3.485c0,2.195-1.727,3.838-4.977,3.838
		c-2.647,0-5.128-1.307-5.094-4.257"/>
	<path fill="#099146" d="M111.789,37.409c0,1.591,1.239,2.211,2.646,2.211c0.923,0,2.33-0.268,2.33-1.491
		c0-1.289-1.794-1.507-3.553-1.976c-1.775-0.47-3.569-1.158-3.569-3.401c0-2.447,2.313-3.621,4.474-3.621
		c2.497,0,4.792,1.09,4.792,3.854h-2.546c-0.084-1.44-1.107-1.808-2.363-1.808c-0.839,0-1.811,0.352-1.811,1.356
		c0,0.923,0.571,1.04,3.57,1.811c0.871,0.217,3.553,0.771,3.553,3.485c0,2.195-1.727,3.838-4.977,3.838
		c-2.647,0-5.129-1.307-5.096-4.257"/>
	<path fill="#099146" d="M131.025,36.856c0,3.232-1.911,4.809-5.112,4.809c-3.215,0-5.093-1.559-5.093-4.809v-7.44h2.63v7.44
		c0,1.307,0.336,2.598,2.463,2.598c1.878,0,2.481-0.822,2.481-2.598v-7.44h2.631"/>
	<path fill="#099146" d="M133.288,29.417h6.451c2.146,0,3.502,1.491,3.502,3.299c0,1.41-0.57,2.465-1.895,3.001v0.033
		c1.291,0.335,1.659,1.591,1.741,2.798c0.053,0.755,0.037,2.162,0.505,2.833h-2.63c-0.321-0.755-0.285-1.911-0.42-2.866
		c-0.184-1.258-0.671-1.81-1.996-1.81h-2.629v4.676h-2.63 M135.918,34.829h2.883c1.174,0,1.81-0.503,1.81-1.71
		c0-1.156-0.636-1.659-1.81-1.659h-2.883V34.829z"/>
	<path fill="#099146" d="M148.653,29.417h2.698l4.472,11.964h-2.729l-0.904-2.665h-4.478l-0.935,2.665h-2.666 M148.402,36.756h3.101
		l-1.512-4.392h-0.03L148.402,36.756z"/>
	<polyline fill="#099146" points="156.864,29.417 159.479,29.417 164.47,37.443 164.507,37.443 164.507,29.417 166.968,29.417 
		166.968,41.381 164.337,41.381 159.36,33.371 159.325,33.371 159.325,41.381 156.864,41.381 	"/>
	<path fill="#099146" d="M177.257,33.438c-0.168-1.19-1.308-2.094-2.614-2.094c-2.363,0-3.249,2.011-3.249,4.105
		c0,1.995,0.886,4.005,3.249,4.005c1.607,0,2.516-1.106,2.714-2.684h2.549c-0.268,2.984-2.332,4.895-5.263,4.895
		c-3.705,0-5.881-2.766-5.881-6.217c0-3.553,2.176-6.318,5.881-6.318c2.633,0,4.842,1.542,5.163,4.308"/>
	<polyline fill="#099146" points="181.699,29.417 190.646,29.417 190.646,31.628 184.328,31.628 184.328,34.191 190.125,34.191 
		190.125,36.236 184.328,36.236 184.328,39.167 190.779,39.167 190.779,41.381 181.699,41.381 	"/>
	<path fill="#099146" d="M99.739,88.98c11.949,0,21.642-9.691,21.642-21.646c0-11.95-9.692-21.642-21.642-21.642
		c-11.952,0-21.643,9.692-21.643,21.642C78.097,79.289,87.787,88.98,99.739,88.98"/>
	<path fill="#FFFFFF" d="M93.279,70.46c0.071,0.491,0.147,1.287,0.488,1.661c0.187,0.226,0.717,0.493,1.02,0.493
		c0.3,0,0.603-0.305,0.791-0.493l0.641-0.605l7.692-7.537l5.434-5.247l2.902-2.412c0.489-0.378,0.792-0.527,1.471-0.527
		c1.209,0,1.209,0.227,1.209,1.319v2.45c0,1.093-0.192,1.093-1.021,1.923l-2.639,2.868l-9.164,9.655l-4.905,4.713
		c-0.94,0.867-4.222,4.188-5.507,4.188l-0.867-0.075c-0.564-0.039-2.072-1.129-2.562-1.512c-0.491-0.411-1.093-0.978-1.51-1.469
		c-0.303-0.338-0.34-0.981-0.34-1.396l-0.527-4.565c-0.187-1.618-0.264-2.904-0.187-4.524c0.037-1.017,0.076-1.432,0.187-1.771
		c0.114-0.34,0.417-0.641,1.058-1.396c0.49-0.605,1.206-1.546,1.998-1.812c0.528-0.188,1.396-0.34,1.923-0.34
		c0.452,0,0.792,0.116,1.168,0.378c0.491,0.416,0.528,0.605,0.528,1.207c0,0.755,0.264,2.035,0.38,2.794"/>
	<path fill="#099146" d="M125.666,66.468c0.008,0.29,0.043,0.578,0.043,0.867c0,14.343-11.629,25.977-25.97,25.977
		c-14.346,0-25.971-11.634-25.971-25.977c0-0.289,0.033-0.577,0.041-0.867H10.936v102.555h178.128V66.468"/>
</g>
</svg>
