<?xml version="1.0" encoding="utf-8"?>
<!-- Generator: Adobe Illustrator 16.0.0, SVG Export Plug-In . SVG Version: 6.00 Build 0)  -->
<!DOCTYPE svg PUBLIC "-//W3C//DTD SVG 1.1//EN" "http://www.w3.org/Graphics/SVG/1.1/DTD/svg11.dtd">
<svg version="1.1" id="Layer_1" xmlns="http://www.w3.org/2000/svg" xmlns:xlink="http://www.w3.org/1999/xlink" x="0px" y="0px"
	 width="200px" height="200px" viewBox="0 0 200 200" enable-background="new 0 0 200 200" xml:space="preserve">
<g>
	<path fill="#1C181B" d="M76.814,31.539l-1.537-1.401c-0.718,0.414-1.617,0.64-2.638,0.64c-3.366,0-5.347-2.511-5.347-5.651
		c0-3.229,1.98-5.74,5.347-5.74c3.367,0,5.348,2.511,5.348,5.74c0,1.57-0.503,2.972-1.417,4.007l1.356,1.236 M73.692,26.499
		l1.232,1.125c0.396-0.547,0.672-1.37,0.672-2.498c0-1.904-0.809-3.732-2.957-3.732c-2.147,0-2.953,1.828-2.953,3.732
		c0,1.815,0.806,3.641,2.953,3.641c0.352,0,0.794,0,0.96-0.151l-1.021-0.93L73.692,26.499z"/>
	<path fill="#1C181B" d="M88.849,26.405c0,2.943-1.737,4.372-4.646,4.372c-2.925,0-4.631-1.416-4.631-4.372v-6.761h2.392v6.761
		c0,1.189,0.305,2.361,2.239,2.361c1.706,0,2.254-0.744,2.254-2.361v-6.761h2.393"/>
	<path fill="#1C181B" d="M93.877,19.645h2.451l4.067,10.874h-2.483l-0.822-2.421h-4.067l-0.854,2.421h-2.42 M93.646,26.314h2.818
		l-1.37-3.991h-0.03L93.646,26.314z"/>
	<polyline fill="#1C181B" points="101.341,19.645 103.732,19.645 103.732,28.508 109.033,28.508 109.033,30.519 101.341,30.519 	"/>
	<line fill="none" stroke="#1C181B" stroke-width="2.3917" x1="111.569" y1="30.521" x2="111.569" y2="19.645"/>
	<polyline fill="#1C181B" points="117.273,21.652 114.016,21.652 114.016,19.645 122.927,19.645 122.927,21.652 119.665,21.652 
		119.665,30.519 117.273,30.519 	"/>
	<polyline fill="#1C181B" points="126.994,26.283 122.985,19.645 125.683,19.645 128.229,23.938 130.756,19.645 133.422,19.645 
		129.386,26.345 129.386,30.519 126.994,30.519 	"/>
	<path fill="#1C181B" d="M56.332,33.354h2.452l4.068,10.875h-2.483l-0.823-2.422H55.48l-0.854,2.422h-2.422 M56.105,40.025h2.817
		l-1.37-3.992h-0.031L56.105,40.025z"/>
	<path fill="#1C181B" d="M65.429,40.618c0,1.448,1.125,2.012,2.407,2.012c0.837,0,2.117-0.244,2.117-1.356
		c0-1.173-1.632-1.37-3.231-1.797c-1.613-0.428-3.243-1.05-3.243-3.094c0-2.224,2.101-3.287,4.065-3.287
		c2.272,0,4.358,0.988,4.358,3.502h-2.316c-0.077-1.311-1.006-1.646-2.148-1.646c-0.762,0-1.646,0.319-1.646,1.233
		c0,0.841,0.521,0.944,3.245,1.646c0.792,0.197,3.229,0.7,3.229,3.168c0,1.998-1.567,3.489-4.523,3.489
		c-2.407,0-4.66-1.188-4.632-3.87"/>
	<path fill="#1C181B" d="M75.313,40.618c0,1.448,1.127,2.012,2.406,2.012c0.839,0,2.118-0.244,2.118-1.356
		c0-1.173-1.63-1.37-3.229-1.797c-1.615-0.428-3.246-1.05-3.246-3.094c0-2.224,2.104-3.287,4.069-3.287
		c2.269,0,4.354,0.988,4.354,3.502h-2.313c-0.076-1.311-1.007-1.646-2.149-1.646c-0.762,0-1.645,0.319-1.645,1.233
		c0,0.841,0.518,0.944,3.244,1.646c0.794,0.197,3.229,0.7,3.229,3.168c0,1.998-1.569,3.489-4.523,3.489
		c-2.408,0-4.663-1.188-4.631-3.87"/>
	<path fill="#1C181B" d="M92.803,40.116c0,2.942-1.737,4.372-4.647,4.372c-2.925,0-4.631-1.416-4.631-4.372v-6.762h2.392v6.762
		c0,1.188,0.305,2.36,2.239,2.36c1.706,0,2.255-0.743,2.255-2.36v-6.762h2.393"/>
	<path fill="#1C181B" d="M94.858,33.354h5.864c1.951,0,3.186,1.354,3.186,2.999c0,1.279-0.519,2.239-1.723,2.727v0.03
		c1.172,0.305,1.508,1.447,1.585,2.544c0.046,0.686,0.03,1.965,0.458,2.575h-2.394c-0.289-0.687-0.26-1.735-0.381-2.605
		c-0.167-1.143-0.609-1.646-1.812-1.646h-2.393v4.251h-2.391 M97.249,38.272h2.621c1.066,0,1.646-0.456,1.646-1.552
		c0-1.053-0.579-1.51-1.646-1.51h-2.621V38.272z"/>
	<path fill="#1C181B" d="M108.827,33.354h2.454l4.067,10.875h-2.484l-0.821-2.422h-4.068l-0.853,2.422h-2.423 M108.6,40.025h2.818
		l-1.372-3.992h-0.029L108.6,40.025z"/>
	<polyline fill="#1C181B" points="116.29,33.354 118.669,33.354 123.208,40.651 123.239,40.651 123.239,33.354 125.478,33.354 
		125.478,44.229 123.088,44.229 118.562,36.947 118.532,36.947 118.532,44.229 116.29,44.229 	"/>
	<path fill="#1C181B" d="M134.831,37.008c-0.152-1.081-1.188-1.904-2.376-1.904c-2.148,0-2.956,1.829-2.956,3.733
		c0,1.814,0.808,3.64,2.956,3.64c1.462,0,2.285-1.002,2.468-2.437h2.313c-0.242,2.712-2.116,4.448-4.781,4.448
		c-3.366,0-5.348-2.512-5.348-5.651c0-3.23,1.981-5.741,5.348-5.741c2.391,0,4.4,1.401,4.692,3.912"/>
	<polyline fill="#1C181B" points="138.868,33.354 147.002,33.354 147.002,35.362 141.261,35.362 141.261,37.694 146.529,37.694 
		146.529,39.552 141.261,39.552 141.261,42.218 147.125,42.218 147.125,44.229 138.868,44.229 	"/>
	<path fill="#1C181B" d="M52.817,146.633c-0.057-0.406-0.446-0.715-0.891-0.715c-0.806,0-1.107,0.687-1.107,1.401
		c0,0.679,0.302,1.365,1.107,1.365c0.549,0,0.857-0.378,0.927-0.915h0.868c-0.092,1.018-0.794,1.669-1.795,1.669
		c-1.263,0-2.005-0.941-2.005-2.119c0-1.212,0.742-2.154,2.005-2.154c0.897,0,1.651,0.525,1.76,1.468"/>
	<path fill="#1C181B" d="M55.681,146.308c0.933,0,1.531,0.616,1.531,1.559c0,0.938-0.599,1.554-1.531,1.554
		c-0.924,0-1.526-0.615-1.526-1.554C54.154,146.924,54.757,146.308,55.681,146.308 M55.681,148.811c0.554,0,0.719-0.476,0.719-0.944
		c0-0.474-0.165-0.947-0.719-0.947c-0.549,0-0.714,0.474-0.714,0.947C54.967,148.335,55.132,148.811,55.681,148.811"/>
	<path fill="#1C181B" d="M57.76,146.389h0.766v0.398h0.012c0.211-0.303,0.519-0.479,0.901-0.479c0.372,0,0.704,0.137,0.863,0.491
		c0.172-0.259,0.48-0.491,0.892-0.491c0.629,0,1.08,0.291,1.08,1.056v1.978h-0.812v-1.673c0-0.396-0.033-0.722-0.497-0.722
		c-0.458,0-0.542,0.378-0.542,0.749v1.646h-0.813v-1.657c0-0.341,0.024-0.737-0.49-0.737c-0.159,0-0.547,0.104-0.547,0.681v1.714
		H57.76"/>
	<path fill="#1C181B" d="M62.935,146.389H63.7v0.398h0.013c0.21-0.303,0.52-0.479,0.901-0.479c0.373,0,0.704,0.137,0.862,0.491
		c0.171-0.259,0.48-0.491,0.892-0.491c0.629,0,1.08,0.291,1.08,1.056v1.978h-0.81v-1.673c0-0.396-0.036-0.722-0.498-0.722
		c-0.457,0-0.543,0.378-0.543,0.749v1.646h-0.811v-1.657c0-0.341,0.022-0.737-0.492-0.737c-0.16,0-0.548,0.104-0.548,0.681v1.714
		h-0.812"/>
	<path fill="#1C181B" d="M68.756,148.062c0.023,0.513,0.275,0.749,0.727,0.749c0.326,0,0.588-0.199,0.64-0.382h0.714
		c-0.229,0.695-0.714,0.991-1.383,0.991c-0.931,0-1.508-0.639-1.508-1.554c0-0.885,0.611-1.559,1.508-1.559
		c1.007,0,1.491,0.846,1.436,1.754 M70.076,147.546c-0.074-0.41-0.252-0.627-0.646-0.627c-0.514,0-0.663,0.4-0.675,0.627H70.076z"/>
	<path fill="#1C181B" d="M71.367,146.389h0.77v0.41h0.02c0.205-0.331,0.559-0.491,0.902-0.491c0.862,0,1.08,0.484,1.08,1.217v1.816
		h-0.812v-1.668c0-0.486-0.143-0.727-0.519-0.727c-0.441,0-0.631,0.246-0.631,0.847v1.548h-0.81"/>
	<path fill="#1C181B" d="M75.783,146.389h0.594v0.542h-0.594v1.463c0,0.273,0.068,0.342,0.342,0.342
		c0.086,0,0.166-0.006,0.252-0.022v0.634c-0.138,0.021-0.313,0.029-0.474,0.029c-0.497,0-0.934-0.116-0.934-0.702v-1.743H74.48
		v-0.542h0.489v-0.885h0.813"/>
	<path fill="#1C181B" d="M77.393,148.381c0.007,0.354,0.305,0.497,0.623,0.497c0.235,0,0.532-0.091,0.532-0.377
		c0-0.247-0.338-0.33-0.919-0.456c-0.47-0.104-0.938-0.27-0.938-0.79c0-0.753,0.651-0.947,1.285-0.947
		c0.646,0,1.239,0.219,1.302,0.942h-0.771c-0.023-0.314-0.263-0.399-0.555-0.399c-0.183,0-0.451,0.033-0.451,0.273
		c0,0.293,0.457,0.332,0.919,0.44c0.476,0.108,0.938,0.279,0.938,0.829c0,0.775-0.674,1.026-1.348,1.026
		c-0.687,0-1.354-0.257-1.39-1.039"/>
	<path fill="#1C181B" d="M51.214,172.682h0.919l1.524,4.08h-0.931l-0.308-0.908h-1.524l-0.32,0.908h-0.909 M51.127,175.184h1.058
		l-0.514-1.494h-0.012L51.127,175.184z"/>
	<path fill="#1C181B" d="M56.696,176.762h-0.771v-0.41h-0.017c-0.206,0.329-0.56,0.489-0.902,0.489c-0.862,0-1.08-0.484-1.08-1.217
		v-1.814h0.811v1.666c0,0.485,0.144,0.727,0.52,0.727c0.44,0,0.629-0.246,0.629-0.847v-1.546h0.811"/>
	<path fill="#1C181B" d="M58.342,173.81h0.594v0.541h-0.594v1.462c0,0.274,0.068,0.343,0.343,0.343c0.087,0,0.166-0.006,0.251-0.021
		v0.633c-0.137,0.022-0.313,0.029-0.472,0.029c-0.498,0-0.933-0.115-0.933-0.701v-1.744h-0.492v-0.541h0.492v-0.885h0.811"/>
	<path fill="#1C181B" d="M59.324,172.682h0.812v1.536h0.017c0.207-0.329,0.561-0.491,0.862-0.491c0.863,0,1.08,0.485,1.08,1.218
		v1.817h-0.811v-1.669c0-0.485-0.144-0.726-0.521-0.726c-0.441,0-0.628,0.245-0.628,0.847v1.548h-0.812"/>
	<path fill="#1C181B" d="M64.146,173.727c0.932,0,1.531,0.618,1.531,1.561c0,0.938-0.6,1.554-1.531,1.554
		c-0.925,0-1.524-0.615-1.524-1.554C62.621,174.345,63.221,173.727,64.146,173.727 M64.146,176.231c0.555,0,0.721-0.477,0.721-0.944
		c0-0.474-0.166-0.948-0.721-0.948c-0.547,0-0.714,0.475-0.714,0.948C63.432,175.755,63.599,176.231,64.146,176.231"/>
	<path fill="#1C181B" d="M66.204,173.81h0.769v0.545h0.013c0.149-0.369,0.548-0.628,0.941-0.628c0.06,0,0.126,0.013,0.178,0.031
		v0.753c-0.072-0.017-0.193-0.029-0.291-0.029c-0.594,0-0.799,0.429-0.799,0.947v1.333h-0.811"/>
	<path fill="#1C181B" d="M69.258,173.352h-0.81v-0.668h0.81V173.352z M68.448,173.81h0.81v2.952h-0.81V173.81z"/>
	<path fill="#1C181B" d="M70.527,175.802c0.005,0.354,0.303,0.496,0.623,0.496c0.234,0,0.53-0.091,0.53-0.376
		c0-0.247-0.336-0.331-0.919-0.457c-0.469-0.104-0.938-0.269-0.938-0.789c0-0.754,0.651-0.949,1.285-0.949
		c0.646,0,1.241,0.22,1.304,0.943h-0.772c-0.022-0.315-0.262-0.399-0.553-0.399c-0.184,0-0.451,0.034-0.451,0.273
		c0,0.293,0.457,0.332,0.919,0.44c0.474,0.108,0.937,0.28,0.937,0.828c0,0.777-0.675,1.028-1.348,1.028
		c-0.687,0-1.354-0.257-1.389-1.039"/>
	<path fill="#1C181B" d="M73.634,175.481c0.024,0.513,0.275,0.75,0.726,0.75c0.327,0,0.591-0.199,0.64-0.383h0.716
		c-0.229,0.696-0.716,0.992-1.383,0.992c-0.932,0-1.509-0.639-1.509-1.554c0-0.885,0.612-1.561,1.509-1.561
		c1.006,0,1.49,0.848,1.435,1.755 M74.954,174.967c-0.072-0.411-0.25-0.628-0.645-0.628c-0.515,0-0.664,0.4-0.676,0.628H74.954z"/>
	<path fill="#1C181B" d="M78.353,176.385h-0.01c-0.189,0.319-0.521,0.456-0.898,0.456c-0.89,0-1.324-0.766-1.324-1.582
		c0-0.795,0.438-1.532,1.308-1.532c0.348,0,0.692,0.151,0.881,0.441h-0.007h0.012v-1.486h0.811v4.08h-0.771 M77.645,174.339
		c-0.53,0-0.714,0.457-0.714,0.943c0,0.462,0.211,0.949,0.714,0.949c0.537,0,0.698-0.471,0.698-0.953S78.17,174.339,77.645,174.339"
		/>
	<path fill="#1C181B" d="M81.323,172.682h0.812v1.486h0.011c0.2-0.304,0.565-0.441,0.933-0.441c0.586,0,1.222,0.478,1.222,1.556
		c0,1.084-0.636,1.559-1.222,1.559c-0.435,0-0.795-0.132-0.972-0.456h-0.013v0.377h-0.771 M82.798,174.339
		c-0.479,0-0.691,0.451-0.691,0.948c0,0.493,0.212,0.944,0.691,0.944s0.69-0.451,0.69-0.944
		C83.488,174.79,83.277,174.339,82.798,174.339"/>
	<path fill="#1C181B" d="M86.269,177.133c-0.176,0.473-0.455,0.668-1.016,0.668c-0.164,0-0.33-0.013-0.496-0.028v-0.669
		c0.154,0.013,0.314,0.033,0.476,0.029c0.278-0.029,0.369-0.319,0.278-0.556l-1.039-2.768h0.867l0.67,2.02h0.01l0.646-2.02h0.84"/>
	<path fill="#1C181B" d="M50.099,186.392h1.761c1.057,0,1.85,0.664,1.85,2.019c0,1.182-0.604,2.061-1.85,2.061h-1.761
		 M50.996,189.717h0.8c0.52,0,1.018-0.32,1.018-1.223c0-0.823-0.286-1.347-1.178-1.347h-0.64V189.717z"/>
	<path fill="#1C181B" d="M54.212,188.426c0.046-0.759,0.726-0.988,1.39-0.988c0.586,0,1.296,0.132,1.296,0.839v1.539
		c0,0.268,0.029,0.535,0.104,0.655h-0.822c-0.029-0.089-0.053-0.189-0.06-0.284c-0.256,0.268-0.634,0.364-0.993,0.364
		c-0.559,0-1.005-0.279-1.005-0.885c0-0.67,0.502-0.829,1.005-0.897c0.497-0.073,0.959-0.057,0.959-0.388
		c0-0.349-0.238-0.4-0.524-0.4c-0.309,0-0.509,0.126-0.537,0.445 M56.085,189.027c-0.137,0.118-0.422,0.124-0.673,0.17
		c-0.251,0.051-0.479,0.137-0.479,0.436c0,0.303,0.232,0.375,0.497,0.375c0.634,0,0.655-0.502,0.655-0.68V189.027z"/>
	<path fill="#1C181B" d="M58.554,187.519h0.594v0.543h-0.594v1.462c0,0.273,0.068,0.342,0.343,0.342
		c0.085,0,0.166-0.005,0.251-0.021v0.633c-0.137,0.022-0.313,0.029-0.474,0.029c-0.497,0-0.931-0.115-0.931-0.701v-1.743h-0.49
		v-0.543h0.49v-0.885h0.811"/>
	<path fill="#1C181B" d="M60.205,189.191c0.022,0.514,0.274,0.75,0.725,0.75c0.326,0,0.589-0.2,0.642-0.383h0.713
		c-0.228,0.696-0.713,0.992-1.383,0.992c-0.931,0-1.507-0.639-1.507-1.555c0-0.885,0.609-1.559,1.507-1.559
		c1.005,0,1.492,0.847,1.435,1.754 M61.524,188.677c-0.075-0.41-0.252-0.628-0.646-0.628c-0.514,0-0.662,0.4-0.673,0.628H61.524z"/>
	<path fill="none" stroke="#1C181B" d="M99.999,14.946c1.788,0,3.237-1.452,3.237-3.239c0-1.789-1.449-3.238-3.237-3.238
		s-3.24,1.449-3.24,3.238C96.759,13.494,98.211,14.946,99.999,14.946z M147.499,195c2.384,0,4.319-1.935,4.319-4.319V9.316
		c0-2.383-1.936-4.316-4.319-4.316H52.498c-2.386,0-4.316,1.934-4.316,4.316v181.364c0,2.385,1.931,4.319,4.316,4.319H147.499z"/>
	<path fill="none" stroke="#1C181B" stroke-width="0.5332" d="M63.469,190.414h86.546 M89.366,176.801h60.648 M50.141,163.185
		h99.874 M79.971,149.571h70.044"/>
	<path fill="#FDEB03" d="M119.297,62.615c0.009,0.21,0.034,0.416,0.034,0.631c0,10.43-8.456,18.886-18.889,18.886
		c-10.432,0-18.886-8.456-18.886-18.886c0-0.215,0.022-0.421,0.031-0.631H50.15v72.424h99.295V62.615"/>
	<path fill="#1C181B" d="M65.623,95.107h2.451l4.067,10.874h-2.482l-0.823-2.422h-4.067l-0.852,2.422h-2.422 M65.394,101.778h2.818
		l-1.37-3.992H66.81L65.394,101.778z"/>
	<polyline fill="#1C181B" points="83.445,105.981 81.068,105.981 79.226,98.577 79.195,98.577 77.382,105.981 74.962,105.981 
		72.08,95.107 74.473,95.107 76.193,102.508 76.226,102.508 78.113,95.107 80.354,95.107 82.212,102.602 82.242,102.602 
		84.024,95.107 86.37,95.107 	"/>
	<path fill="#1C181B" d="M90.438,95.107h2.452l4.067,10.874h-2.482l-0.823-2.422h-4.066l-0.854,2.422H86.31 M90.209,101.778h2.817
		l-1.369-3.992h-0.032L90.209,101.778z"/>
	<line fill="none" stroke="#1C181B" stroke-width="2.3917" x1="99.098" y1="105.983" x2="99.098" y2="95.107"/>
	<polyline fill="#1C181B" points="104.803,97.115 101.543,97.115 101.543,95.107 110.454,95.107 110.454,97.115 107.194,97.115 
		107.194,105.981 104.803,105.981 	"/>
	<line fill="none" stroke="#1C181B" stroke-width="2.3917" x1="112.899" y1="105.983" x2="112.899" y2="95.107"/>
	<polyline fill="#1C181B" points="116.198,95.107 118.574,95.107 123.114,102.403 123.144,102.403 123.144,95.107 125.384,95.107 
		125.384,105.981 122.992,105.981 118.467,98.699 118.438,98.699 118.438,105.981 116.198,105.981 	"/>
	<path fill="#1C181B" d="M135.345,104.748c-0.839,1.083-1.934,1.492-2.983,1.492c-3.368,0-5.348-2.513-5.348-5.652
		c0-3.229,1.979-5.741,5.348-5.741c2.223,0,4.326,1.37,4.585,3.838h-2.285c-0.273-1.204-1.174-1.829-2.3-1.829
		c-2.148,0-2.956,1.829-2.956,3.732c0,1.815,0.808,3.642,2.956,3.642c1.553,0,2.452-0.839,2.589-2.347h-2.407v-1.782h4.569v5.881
		h-1.523"/>
	<line fill="none" stroke="#1C181B" stroke-width="2.3901" x1="55.082" y1="122.74" x2="55.082" y2="111.863"/>
	<polyline fill="#1C181B" points="58.379,111.863 60.755,111.863 65.295,119.16 65.325,119.16 65.325,111.863 67.564,111.863 
		67.564,122.738 65.173,122.738 60.647,115.456 60.619,115.456 60.619,122.738 58.379,122.738 	"/>
	<path fill="#1C181B" d="M71.297,119.128c0,1.447,1.128,2.012,2.407,2.012c0.837,0,2.116-0.245,2.116-1.357
		c0-1.172-1.63-1.37-3.229-1.797c-1.615-0.427-3.245-1.051-3.245-3.093c0-2.225,2.103-3.289,4.067-3.289
		c2.27,0,4.356,0.989,4.356,3.505h-2.315c-0.076-1.312-1.004-1.646-2.146-1.646c-0.762,0-1.646,0.319-1.646,1.232
		c0,0.84,0.518,0.945,3.243,1.646c0.792,0.197,3.231,0.701,3.231,3.169c0,1.996-1.57,3.488-4.525,3.488
		c-2.407,0-4.662-1.188-4.631-3.869"/>
	<path fill="#1C181B" d="M79.553,111.863h4.905c2.712,0,3.763,1.722,3.763,3.489c0,1.764-1.051,3.486-3.763,3.486h-2.512v3.899
		h-2.394 M81.946,116.979h1.857c1.111,0,2.102-0.244,2.102-1.627c0-1.387-0.99-1.633-2.102-1.633h-1.857V116.979z"/>
	<polyline fill="#1C181B" points="89.714,111.863 97.848,111.863 97.848,113.872 92.105,113.872 92.105,116.203 97.376,116.203 
		97.376,118.061 92.105,118.061 92.105,120.727 97.97,120.727 97.97,122.738 89.714,122.738 	"/>
	<path fill="#1C181B" d="M106.836,115.517c-0.151-1.081-1.188-1.904-2.375-1.904c-2.148,0-2.956,1.829-2.956,3.732
		c0,1.815,0.808,3.642,2.956,3.642c1.462,0,2.284-1.005,2.467-2.438h2.316c-0.244,2.714-2.118,4.448-4.783,4.448
		c-3.367,0-5.349-2.513-5.349-5.652c0-3.229,1.981-5.741,5.349-5.741c2.39,0,4.401,1.402,4.691,3.913"/>
	<polyline fill="#1C181B" points="113.28,113.872 110.02,113.872 110.02,111.863 118.933,111.863 118.933,113.872 115.673,113.872 
		115.673,122.738 113.28,122.738 	"/>
	<line fill="none" stroke="#1C181B" stroke-width="2.3901" x1="121.377" y1="122.74" x2="121.377" y2="111.863"/>
	<path fill="#1C181B" d="M129.549,111.604c3.367,0,5.347,2.513,5.347,5.741c0,3.14-1.979,5.652-5.347,5.652
		c-3.365,0-5.347-2.513-5.347-5.652C124.202,114.116,126.184,111.604,129.549,111.604 M129.549,120.986
		c2.148,0,2.955-1.826,2.955-3.642c0-1.903-0.807-3.732-2.955-3.732s-2.954,1.829-2.954,3.732
		C126.595,119.16,127.4,120.986,129.549,120.986"/>
	<polyline fill="#1C181B" points="136.526,111.863 138.904,111.863 143.442,119.16 143.474,119.16 143.474,111.863 145.713,111.863 
		145.713,122.738 143.321,122.738 138.797,115.456 138.765,115.456 138.765,122.738 136.526,122.738 	"/>
	<path fill="#FDEB03" d="M100.442,78.985c8.694,0,15.739-7.048,15.739-15.739c0-8.692-7.045-15.739-15.739-15.739
		c-8.693,0-15.739,7.047-15.739,15.739C84.703,71.938,91.749,78.985,100.442,78.985"/>
	<path fill="#1C181B" d="M97.979,70.144h4.857v4.826h-4.857V70.144z M97.911,57.408v-6.537h5.029v6.537l-1.274,10.859h-2.482
		L97.911,57.408z"/>
</g>
</svg>
