<?xml version="1.0" encoding="utf-8"?>
<!-- Generator: Adobe Illustrator 16.0.0, SVG Export Plug-In . SVG Version: 6.00 Build 0)  -->
<!DOCTYPE svg PUBLIC "-//W3C//DTD SVG 1.1//EN" "http://www.w3.org/Graphics/SVG/1.1/DTD/svg11.dtd">
<svg version="1.1" id="Layer_1" xmlns="http://www.w3.org/2000/svg" xmlns:xlink="http://www.w3.org/1999/xlink" x="0px" y="0px"
	 width="200px" height="200px" viewBox="0 -25 200 200" enable-background="new 0 -25 200 200" xml:space="preserve">
<g>
	<rect x="5" y="0.038" fill="#FFFFFE" width="189.995" height="149.924"/>
	<path fill="none" stroke="#1B171A" d="M195,149.962H5H195z M5,149.962h190V0.038H5V149.962z"/>
	<path fill="#089036" d="M19.708,17.504l-1.692-1.544c-0.789,0.457-1.776,0.707-2.9,0.707c-3.702,0-5.879-2.767-5.879-6.218
		c0-3.553,2.178-6.317,5.879-6.317s5.885,2.763,5.885,6.317c0,1.727-0.553,3.268-1.56,4.408l1.492,1.356L19.708,17.504z
		 M16.276,11.957l1.358,1.241c0.434-0.602,0.734-1.508,0.734-2.75c0-2.095-0.889-4.104-3.252-4.104s-3.249,2.008-3.249,4.104
		c0,1.994,0.887,4.005,3.249,4.005c0.388,0,0.871,0,1.057-0.167l-1.121-1.023L16.276,11.957z"/>
	<path fill="#089036" d="M32.949,11.856c0,3.233-1.91,4.81-5.11,4.81c-3.22,0-5.096-1.559-5.096-4.81V4.416h2.631v7.441
		c0,1.309,0.338,2.597,2.465,2.597c1.874,0,2.478-0.819,2.478-2.597V4.416h2.633V11.856z"/>
	<path fill="#089036" d="M38.476,4.416h2.695l4.479,11.966h-2.733l-0.905-2.666H37.54l-0.941,2.666h-2.665L38.476,4.416z
		 M38.228,11.757h3.1l-1.511-4.391h-0.033L38.228,11.757z"/>
	<polygon fill="#089036" points="46.686,4.416 49.321,4.416 49.321,14.17 55.148,14.17 55.148,16.382 46.686,16.382 	"/>
	<rect x="56.623" y="4.416" fill="#089036" width="2.632" height="11.966"/>
	<polygon fill="#089036" points="64.215,6.628 60.627,6.628 60.627,4.416 70.43,4.416 70.43,6.628 66.845,6.628 66.845,16.382 
		64.215,16.382 	"/>
	<polygon fill="#089036" points="74.904,11.723 70.498,4.416 73.464,4.416 76.263,9.142 79.046,4.416 81.976,4.416 77.535,11.79 
		77.535,16.382 74.904,16.382 	"/>
	<path fill="#089036" d="M90.908,4.416h2.698l4.475,11.966H95.35l-0.906-2.666h-4.473l-0.939,2.666h-2.662L90.908,4.416z
		 M90.656,11.757h3.1l-1.509-4.391h-0.032L90.656,11.757z"/>
	<path fill="#089036" d="M100.91,12.41c0,1.591,1.243,2.213,2.651,2.213c0.921,0,2.328-0.27,2.328-1.492
		c0-1.291-1.793-1.51-3.552-1.976c-1.778-0.472-3.572-1.158-3.572-3.402c0-2.447,2.313-3.621,4.477-3.621
		c2.496,0,4.79,1.089,4.79,3.855h-2.548c-0.084-1.44-1.103-1.811-2.36-1.811c-0.841,0-1.81,0.354-1.81,1.359
		c0,0.92,0.572,1.037,3.57,1.808c0.867,0.218,3.552,0.771,3.552,3.486c0,2.196-1.728,3.837-4.978,3.837
		c-2.646,0-5.126-1.308-5.094-4.256H100.91z"/>
	<path fill="#089036" d="M111.789,12.41c0,1.591,1.237,2.213,2.646,2.213c0.924,0,2.327-0.27,2.327-1.492
		c0-1.291-1.793-1.51-3.553-1.976c-1.773-0.472-3.567-1.158-3.567-3.402c0-2.447,2.315-3.621,4.474-3.621
		c2.495,0,4.795,1.089,4.795,3.855h-2.547c-0.085-1.44-1.108-1.811-2.365-1.811c-0.836,0-1.807,0.354-1.807,1.359
		c0,0.92,0.567,1.037,3.566,1.808c0.873,0.218,3.553,0.771,3.553,3.486c0,2.196-1.729,3.837-4.975,3.837
		c-2.651,0-5.129-1.308-5.096-4.256H111.789z"/>
	<path fill="#089036" d="M131.022,11.856c0,3.233-1.91,4.81-5.112,4.81c-3.213,0-5.089-1.559-5.089-4.81V4.416h2.626v7.441
		c0,1.309,0.338,2.597,2.463,2.597c1.878,0,2.482-0.819,2.482-2.597V4.416h2.628v7.441H131.022z"/>
	<path fill="#089036" d="M133.284,4.416h6.452c2.146,0,3.506,1.492,3.506,3.304c0,1.406-0.572,2.461-1.896,2.998v0.033
		c1.29,0.335,1.661,1.591,1.74,2.8c0.053,0.751,0.039,2.161,0.506,2.832h-2.632c-0.317-0.754-0.286-1.909-0.417-2.866
		c-0.188-1.256-0.671-1.81-1.994-1.81h-2.632v4.676h-2.633V4.416L133.284,4.416z M135.917,9.829h2.881
		c1.175,0,1.811-0.502,1.811-1.708c0-1.157-0.637-1.659-1.811-1.659h-2.881V9.829z"/>
	<path fill="#089036" d="M148.652,4.416h2.698l4.474,11.966h-2.731l-0.905-2.666h-4.473l-0.939,2.666h-2.664L148.652,4.416z
		 M148.398,11.757h3.102l-1.51-4.391h-0.029L148.398,11.757z"/>
	<polygon fill="#089036" points="156.864,4.416 159.478,4.416 164.471,12.443 164.505,12.443 164.505,4.416 166.967,4.416 
		166.967,16.382 164.335,16.382 159.36,8.373 159.326,8.373 159.326,16.382 156.864,16.382 	"/>
	<path fill="#089036" d="M177.253,8.439c-0.164-1.191-1.304-2.095-2.61-2.095c-2.365,0-3.25,2.008-3.25,4.104
		c0,1.994,0.886,4.005,3.25,4.005c1.606,0,2.512-1.105,2.714-2.682h2.548c-0.268,2.985-2.331,4.895-5.262,4.895
		c-3.705,0-5.885-2.767-5.885-6.218c0-3.553,2.18-6.317,5.885-6.317c2.628,0,4.838,1.542,5.158,4.308H177.253z"/>
	<polygon fill="#089036" points="181.697,4.416 190.646,4.416 190.646,6.628 184.329,6.628 184.329,9.193 190.123,9.193 
		190.123,11.237 184.329,11.237 184.329,14.17 190.776,14.17 190.776,16.382 181.697,16.382 	"/>
	<path fill="#089036" d="M125.664,41.468c0.009,0.292,0.042,0.58,0.042,0.868c0,14.345-11.624,25.973-25.969,25.973
		c-14.343,0-25.968-11.628-25.968-25.973c0-0.288,0.033-0.576,0.042-0.868H10.938v102.555h178.121V41.468H125.664z"/>
	<path fill="#FFFFFE" d="M46.888,81.047h8.768c4.847,0,6.727,3.074,6.727,6.237c0,3.158-1.879,6.23-6.727,6.23h-4.493v6.974h-4.275
		V81.047L46.888,81.047z M51.163,90.199h3.323c1.989,0,3.758-0.438,3.758-2.915c0-2.477-1.769-2.913-3.758-2.913h-3.323V90.199z"/>
	<path fill="#FFFFFE" d="M70.359,81.047h4.386l7.269,19.441h-4.437l-1.47-4.327h-7.271l-1.525,4.327h-4.33L70.359,81.047z
		 M69.951,92.972h5.038l-2.452-7.134h-0.054L69.951,92.972z"/>
	<path fill="#FFFFFE" d="M86.617,94.037c0,2.584,2.014,3.594,4.3,3.594c1.499,0,3.785-0.437,3.785-2.427
		c0-2.092-2.912-2.449-5.771-3.215c-2.886-0.759-5.8-1.876-5.8-5.522c0-3.974,3.758-5.885,7.271-5.885
		c4.057,0,7.787,1.77,7.787,6.266h-4.139c-0.136-2.342-1.796-2.942-3.838-2.942c-1.363,0-2.942,0.571-2.942,2.21
		c0,1.495,0.927,1.685,5.8,2.938c1.417,0.353,5.774,1.252,5.774,5.664c0,3.565-2.807,6.235-8.09,6.235
		c-4.301,0-8.333-2.126-8.275-6.916L86.617,94.037L86.617,94.037z"/>
	<path fill="#FFFFFE" d="M104.289,94.037c0,2.584,2.014,3.594,4.303,3.594c1.497,0,3.783-0.437,3.783-2.427
		c0-2.092-2.915-2.449-5.773-3.215c-2.885-0.759-5.8-1.876-5.8-5.522c0-3.974,3.76-5.885,7.274-5.885
		c4.056,0,7.784,1.77,7.784,6.266h-4.139c-0.136-2.342-1.798-2.942-3.838-2.942c-1.36,0-2.942,0.571-2.942,2.21
		c0,1.495,0.929,1.685,5.801,2.938c1.416,0.353,5.771,1.252,5.771,5.664c0,3.565-2.803,6.235-8.086,6.235
		c-4.303,0-8.334-2.126-8.278-6.916L104.289,94.037L104.289,94.037z"/>
	<polygon fill="#FFFFFE" points="119.047,81.047 133.585,81.047 133.585,84.642 123.321,84.642 123.321,88.805 132.745,88.805 
		132.745,92.127 123.321,92.127 123.321,96.893 133.805,96.893 133.805,100.49 119.047,100.49 	"/>
	<path fill="#FFFFFE" d="M136.689,81.047h8.391c5.035,0,8.82,3.158,8.82,9.616c0,5.631-2.886,9.827-8.82,9.827h-8.391V81.047z
		 M140.965,96.893h3.815c2.473,0,4.843-1.519,4.843-5.826c0-3.919-1.36-6.425-5.607-6.425h-3.051V96.893z"/>
	<rect x="17.93" y="108.276" fill="#FFFFFE" width="4.275" height="19.442"/>
	<polygon fill="#FFFFFE" points="25.963,108.276 30.208,108.276 38.326,121.319 38.378,121.319 38.378,108.276 42.383,108.276 
		42.383,127.72 38.108,127.72 30.021,114.703 29.966,114.703 29.966,127.72 25.963,127.72 	"/>
	<path fill="#FFFFFE" d="M49.054,121.263c0,2.59,2.016,3.599,4.303,3.599c1.497,0,3.781-0.438,3.781-2.427
		c0-2.092-2.912-2.45-5.769-3.214c-2.886-0.761-5.8-1.878-5.8-5.522c0-3.98,3.754-5.886,7.269-5.886c4.06,0,7.784,1.769,7.784,6.26
		h-4.136c-0.136-2.341-1.795-2.938-3.842-2.938c-1.358,0-2.939,0.572-2.939,2.205c0,1.497,0.927,1.689,5.803,2.938
		c1.415,0.357,5.771,1.257,5.771,5.668c0,3.567-2.804,6.236-8.085,6.236c-4.305,0-8.334-2.125-8.28-6.921L49.054,121.263
		L49.054,121.263z"/>
	<path fill="#FFFFFE" d="M63.81,108.276h8.77c4.844,0,6.725,3.075,6.725,6.232c0,3.163-1.88,6.236-6.725,6.236h-4.491v6.974H63.81
		V108.276L63.81,108.276z M68.089,117.424h3.32c1.987,0,3.756-0.436,3.756-2.914c0-2.473-1.769-2.908-3.756-2.908h-3.32V117.424
		L68.089,117.424z"/>
	<polygon fill="#FFFFFE" points="81.972,108.276 96.514,108.276 96.514,111.874 86.249,111.874 86.249,116.035 95.668,116.035 
		95.668,119.357 86.249,119.357 86.249,124.125 96.732,124.125 96.732,127.72 81.972,127.72 	"/>
	<path fill="#FFFFFE" d="M112.581,114.811c-0.272-1.933-2.128-3.4-4.252-3.4c-3.838,0-5.279,3.266-5.279,6.671
		c0,3.239,1.441,6.505,5.279,6.505c2.613,0,4.086-1.797,4.409-4.354h4.142c-0.433,4.846-3.784,7.952-8.551,7.952
		c-6.017,0-9.557-4.495-9.557-10.104c0-5.771,3.541-10.267,9.557-10.267c4.28,0,7.874,2.506,8.39,6.996H112.581z"/>
	<polygon fill="#FFFFFE" points="124.097,111.874 118.269,111.874 118.269,108.276 134.198,108.276 134.198,111.874 
		128.371,111.874 128.371,127.72 124.097,127.72 	"/>
	<rect x="136.433" y="108.276" fill="#FFFFFE" width="4.275" height="19.442"/>
	<path fill="#FFFFFE" d="M153.175,107.813c6.021,0,9.56,4.495,9.56,10.268c0,5.606-3.539,10.103-9.56,10.103
		c-6.016,0-9.554-4.494-9.554-10.103C143.621,112.311,147.161,107.813,153.175,107.813 M153.175,124.585
		c3.843,0,5.284-3.266,5.284-6.504c0-3.407-1.441-6.674-5.284-6.674c-3.838,0-5.278,3.267-5.278,6.674
		C147.896,121.319,149.337,124.585,153.175,124.585z"/>
	<polygon fill="#FFFFFE" points="165.648,108.276 169.899,108.276 178.013,121.319 178.064,121.319 178.064,108.276 
		182.067,108.276 182.067,127.72 177.793,127.72 169.708,114.703 169.651,114.703 169.651,127.72 165.648,127.72 	"/>
	<path fill="#089036" d="M99.737,63.98c11.954,0,21.642-9.687,21.642-21.642c0-11.949-9.688-21.642-21.642-21.642
		c-11.952,0-21.642,9.691-21.642,21.642C78.095,54.293,87.785,63.98,99.737,63.98"/>
	<path fill="#FFFFFE" d="M93.278,45.464c0.075,0.491,0.149,1.283,0.49,1.661c0.188,0.225,0.716,0.489,1.016,0.489
		c0.302,0,0.604-0.301,0.793-0.489l0.641-0.604l7.694-7.541l5.431-5.244l2.904-2.417c0.488-0.373,0.794-0.523,1.468-0.523
		c1.212,0,1.212,0.222,1.212,1.319v2.452c0,1.091-0.187,1.091-1.019,1.922l-2.642,2.868l-9.164,9.655l-4.904,4.715
		c-0.943,0.866-4.223,4.183-5.504,4.183l-0.871-0.071c-0.565-0.039-2.071-1.133-2.562-1.512c-0.49-0.409-1.096-0.981-1.508-1.47
		c-0.302-0.335-0.341-0.979-0.341-1.394l-0.528-4.563c-0.188-1.618-0.263-2.907-0.188-4.523c0.038-1.021,0.075-1.436,0.188-1.776
		c0.113-0.338,0.416-0.639,1.056-1.395c0.491-0.602,1.207-1.546,1.999-1.81c0.528-0.188,1.396-0.338,1.926-0.338
		c0.448,0,0.789,0.113,1.166,0.375c0.491,0.415,0.528,0.605,0.528,1.208c0,0.752,0.264,2.037,0.377,2.79L93.278,45.464z"/>
</g>
</svg>
