<?xml version="1.0" encoding="utf-8"?>
<!-- Generator: Adobe Illustrator 16.0.0, SVG Export Plug-In . SVG Version: 6.00 Build 0)  -->
<!DOCTYPE svg PUBLIC "-//W3C//DTD SVG 1.1//EN" "http://www.w3.org/Graphics/SVG/1.1/DTD/svg11.dtd">
<svg version="1.1" id="Layer_1" xmlns="http://www.w3.org/2000/svg" xmlns:xlink="http://www.w3.org/1999/xlink" x="0px" y="0px"
	 width="200px" height="200px" viewBox="0 0 200 200" enable-background="new 0 0 200 200" xml:space="preserve">
<g>
	<rect x="5" y="36.667" fill="#FFDE17" stroke="#000000" stroke-miterlimit="10" width="190" height="126.666"/>
	<g>
		<path d="M25.469,75.572v-4.39h11.339v10.379c-1.102,1.066-2.699,2.006-4.79,2.817c-2.092,0.812-4.209,1.218-6.354,1.218
			c-2.725,0-5.101-0.572-7.127-1.716c-2.026-1.143-3.549-2.777-4.568-4.905c-1.019-2.126-1.528-4.439-1.528-6.94
			c0-2.713,0.569-5.124,1.707-7.233c1.137-2.108,2.802-3.726,4.994-4.852c1.671-0.865,3.75-1.298,6.239-1.298
			c3.234,0,5.761,0.679,7.58,2.035c1.818,1.357,2.988,3.232,3.51,5.625l-5.226,0.978c-0.367-1.279-1.058-2.289-2.07-3.03
			c-1.013-0.74-2.278-1.11-3.794-1.11c-2.299,0-4.126,0.729-5.483,2.186c-1.357,1.458-2.035,3.62-2.035,6.487
			c0,3.093,0.687,5.412,2.062,6.958c1.375,1.547,3.175,2.319,5.403,2.319c1.102,0,2.206-0.216,3.314-0.647
			c1.107-0.434,2.059-0.958,2.853-1.574v-3.306H25.469z"/>
		<path d="M41.66,85.152V59.098h19.319v4.407H46.921v5.776h13.081v4.39H46.921v7.092h14.556v4.39H41.66z"/>
		<path d="M65.992,85.152V59.098h5.118l10.664,17.399V59.098h4.888v26.055h-5.28L70.879,68.161v16.991H65.992z"/>
		<path d="M92.225,85.152V59.098h19.319v4.407H97.485v5.776h13.081v4.39H97.485v7.092h14.557v4.39H92.225z"/>
		<path d="M116.52,85.152V59.098h11.074c2.784,0,4.807,0.233,6.068,0.701c1.263,0.469,2.272,1.301,3.03,2.497
			c0.759,1.197,1.138,2.565,1.138,4.106c0,1.954-0.575,3.569-1.724,4.843c-1.149,1.273-2.867,2.077-5.154,2.408
			c1.138,0.664,2.076,1.393,2.817,2.186c0.739,0.794,1.738,2.204,2.995,4.23l3.181,5.083h-6.292l-3.803-5.67
			c-1.351-2.026-2.275-3.303-2.773-3.83c-0.497-0.527-1.025-0.889-1.582-1.084s-1.438-0.293-2.646-0.293h-1.068v10.877H116.52z
			 M121.78,70.116h3.894c2.523,0,4.099-0.106,4.728-0.319c0.628-0.214,1.119-0.581,1.475-1.103c0.356-0.521,0.534-1.173,0.534-1.955
			c0-0.876-0.235-1.584-0.703-2.124c-0.469-0.539-1.128-0.879-1.981-1.021c-0.427-0.06-1.705-0.089-3.839-0.089h-4.106V70.116z"/>
		<path d="M166.285,85.152h-5.724l-2.275-5.918h-10.415l-2.149,5.918h-5.582l10.148-26.055h5.564L166.285,85.152z M156.598,74.844
			l-3.59-9.668l-3.519,9.668H156.598z"/>
		<path d="M169.218,85.152V59.311h5.26v21.452h13.081v4.39H169.218z"/>
		<path d="M40.985,140.886l-6.221-26.056h5.385l3.928,17.897l4.764-17.897h6.256l4.567,18.2l3.998-18.2h5.297l-6.327,26.056h-5.58
			l-5.189-19.479l-5.173,19.479H40.985z"/>
		<path d="M93.131,140.886h-5.724l-2.274-5.919H74.718l-2.15,5.919h-5.581l10.148-26.056h5.563L93.131,140.886z M83.444,130.577
			l-3.59-9.668l-3.52,9.668H83.444z"/>
		<path d="M94.588,132.408l5.119-0.498c0.308,1.718,0.933,2.979,1.875,3.785c0.941,0.807,2.213,1.209,3.812,1.209
			c1.693,0,2.97-0.358,3.83-1.075c0.858-0.717,1.288-1.556,1.288-2.516c0-0.615-0.181-1.14-0.541-1.572
			c-0.363-0.433-0.994-0.809-1.895-1.129c-0.615-0.213-2.02-0.592-4.212-1.138c-2.82-0.698-4.798-1.558-5.936-2.576
			c-1.6-1.434-2.4-3.182-2.4-5.244c0-1.326,0.376-2.567,1.13-3.723c0.752-1.155,1.835-2.035,3.252-2.64
			c1.416-0.604,3.126-0.906,5.127-0.906c3.271,0,5.732,0.718,7.385,2.15c1.654,1.435,2.521,3.348,2.604,5.741l-5.261,0.23
			c-0.225-1.339-0.707-2.302-1.448-2.888c-0.739-0.587-1.851-0.88-3.332-0.88c-1.528,0-2.726,0.314-3.59,0.942
			c-0.557,0.402-0.835,0.941-0.835,1.617c0,0.616,0.26,1.144,0.781,1.581c0.663,0.558,2.275,1.138,4.834,1.742
			c2.56,0.604,4.452,1.229,5.68,1.875c1.226,0.646,2.186,1.528,2.878,2.648c0.694,1.119,1.041,2.503,1.041,4.15
			c0,1.492-0.416,2.891-1.245,4.193c-0.83,1.304-2.002,2.272-3.519,2.906s-3.407,0.951-5.67,0.951c-3.294,0-5.823-0.762-7.589-2.284
			S94.932,135.322,94.588,132.408z"/>
		<path d="M126.064,140.886v-21.648h-7.731v-4.407h20.706v4.407h-7.714v21.648H126.064z"/>
		<path d="M142.434,140.886V114.83h19.319v4.407h-14.059v5.777h13.081v4.389h-13.081v7.092h14.557v4.391H142.434z"/>
	</g>
</g>
</svg>
