<?xml version="1.0" encoding="utf-8"?>
<!-- Generator: Adobe Illustrator 16.0.0, SVG Export Plug-In . SVG Version: 6.00 Build 0)  -->
<!DOCTYPE svg PUBLIC "-//W3C//DTD SVG 1.1//EN" "http://www.w3.org/Graphics/SVG/1.1/DTD/svg11.dtd">
<svg version="1.1" id="Layer_1" xmlns="http://www.w3.org/2000/svg" xmlns:xlink="http://www.w3.org/1999/xlink" x="0px" y="0px"
	 width="200px" height="200px" viewBox="0 0 200 200" enable-background="new 0 0 200 200" xml:space="preserve">
<g>
	<rect x="5.001" y="68.333" fill="#009444" width="189.997" height="63.334"/>
	<path fill="#FFFFFF" d="M57.353,105.411c-3.059,3.476-5.467,6.183-5.641,6.354c-0.172-0.172-2.582-2.879-5.639-6.354
		c-2.756-3.137-3.959-4.723-3.959-6.826c0-2.19,1.764-4.08,4.348-4.08c0.946,0,1.763,0.258,2.496,0.731
		c-2.153-6.741-8.265-11.42-15.369-11.42c-8.867,0-15.883,7.17-15.883,16.186s7.016,16.229,15.883,16.229
		c3.401,0,5.898-0.9,7.406-1.848l3.143,3.953c-2.498,1.975-6.889,3.044-10.549,3.044c-11.923,0-21.565-9.487-21.565-21.378
		c0-11.895,9.643-21.382,21.565-21.382c10.203,0,18.941,7.085,20.88,16.616c0.731-0.474,1.55-0.731,2.496-0.731
		c2.584,0,4.348,1.89,4.348,4.08C61.313,100.688,60.108,102.274,57.353,105.411"/>
	<g>
		<path fill="#FFFFFF" d="M73.729,106.854V93.249h2.77v11.294h6.887v2.312H73.729z"/>
		<path fill="#FFFFFF" d="M97.73,106.854h-3.013l-1.198-3.116h-5.483l-1.132,3.116h-2.938l5.343-13.718h2.929L97.73,106.854z
			 M92.631,101.427l-1.89-5.09l-1.853,5.09H92.631z"/>
		<path fill="#FFFFFF" d="M99.228,106.854V93.137h2.694l5.615,9.161v-9.161h2.572v13.718h-2.779l-5.529-8.946v8.946H99.228z"/>
		<path fill="#FFFFFF" d="M113.029,93.137h5.062c1.143,0,2.012,0.087,2.611,0.262c0.805,0.237,1.494,0.658,2.068,1.263
			c0.574,0.605,1.01,1.347,1.309,2.223c0.301,0.877,0.449,1.957,0.449,3.242c0,1.13-0.139,2.103-0.42,2.92
			c-0.344,0.998-0.834,1.806-1.469,2.424c-0.48,0.468-1.129,0.833-1.947,1.095c-0.611,0.193-1.428,0.29-2.451,0.29h-5.213V93.137z
			 M115.799,95.457v9.086h2.068c0.773,0,1.332-0.043,1.676-0.131c0.449-0.112,0.822-0.303,1.117-0.57
			c0.297-0.269,0.539-0.71,0.727-1.324s0.279-1.452,0.279-2.513s-0.092-1.875-0.279-2.442s-0.449-1.011-0.787-1.329
			c-0.336-0.318-0.764-0.533-1.281-0.646c-0.387-0.087-1.145-0.131-2.273-0.131H115.799z"/>
		<path fill="#FFFFFF" d="M126.178,102.391l2.695-0.262c0.162,0.904,0.49,1.569,0.986,1.993c0.496,0.425,1.166,0.637,2.008,0.637
			c0.891,0,1.564-0.189,2.016-0.566c0.453-0.378,0.68-0.819,0.68-1.324c0-0.324-0.096-0.601-0.287-0.828
			c-0.189-0.228-0.521-0.426-0.996-0.594c-0.324-0.113-1.062-0.312-2.217-0.6c-1.486-0.368-2.527-0.82-3.127-1.356
			c-0.842-0.755-1.262-1.675-1.262-2.761c0-0.698,0.197-1.353,0.594-1.96c0.396-0.608,0.967-1.072,1.713-1.39
			c0.744-0.318,1.645-0.478,2.699-0.478c1.721,0,3.018,0.378,3.889,1.132c0.869,0.755,1.326,1.763,1.369,3.022l-2.77,0.122
			c-0.117-0.705-0.373-1.212-0.762-1.521c-0.391-0.309-0.975-0.463-1.754-0.463c-0.807,0-1.436,0.165-1.891,0.495
			c-0.293,0.213-0.439,0.496-0.439,0.852c0,0.325,0.137,0.603,0.41,0.833c0.35,0.294,1.199,0.599,2.547,0.917
			c1.346,0.318,2.344,0.647,2.988,0.987c0.646,0.34,1.152,0.805,1.516,1.395c0.365,0.589,0.549,1.318,0.549,2.185
			c0,0.786-0.219,1.522-0.656,2.209c-0.436,0.687-1.055,1.196-1.852,1.529c-0.799,0.334-1.795,0.501-2.986,0.501
			c-1.734,0-3.066-0.4-3.994-1.202C126.914,105.094,126.357,103.926,126.178,102.391z"/>
		<path fill="#FFFFFF" d="M148.439,101.812l2.686,0.851c-0.412,1.497-1.098,2.609-2.055,3.336s-2.172,1.091-3.645,1.091
			c-1.822,0-3.318-0.623-4.492-1.867c-1.172-1.244-1.76-2.946-1.76-5.104c0-2.283,0.59-4.057,1.77-5.32
			c1.18-1.263,2.729-1.895,4.65-1.895c1.678,0,3.041,0.496,4.09,1.488c0.623,0.586,1.092,1.428,1.402,2.526l-2.74,0.654
			c-0.162-0.711-0.502-1.272-1.016-1.684c-0.516-0.412-1.141-0.618-1.877-0.618c-1.016,0-1.842,0.365-2.475,1.095
			c-0.633,0.73-0.949,1.912-0.949,3.547c0,1.734,0.311,2.97,0.936,3.706c0.623,0.735,1.434,1.104,2.432,1.104
			c0.736,0,1.371-0.233,1.9-0.701C147.828,103.552,148.207,102.815,148.439,101.812z"/>
		<path fill="#FFFFFF" d="M165.871,106.854h-3.012l-1.199-3.116h-5.482l-1.133,3.116h-2.938l5.342-13.718h2.93L165.871,106.854z
			 M160.771,101.427l-1.891-5.09l-1.852,5.09H160.771z"/>
		<path fill="#FFFFFF" d="M167.342,106.854V93.137h4.443c1.686,0,2.783,0.068,3.295,0.205c0.785,0.206,1.443,0.654,1.975,1.343
			c0.529,0.689,0.795,1.58,0.795,2.672c0,0.842-0.152,1.55-0.459,2.124c-0.305,0.574-0.693,1.024-1.164,1.353
			c-0.473,0.328-0.951,0.545-1.438,0.65c-0.66,0.131-1.619,0.196-2.873,0.196h-1.805v5.175H167.342z M170.111,95.457v3.893h1.516
			c1.092,0,1.82-0.071,2.189-0.215c0.367-0.144,0.656-0.368,0.865-0.674s0.314-0.661,0.314-1.067c0-0.499-0.146-0.91-0.441-1.234
			c-0.293-0.325-0.664-0.527-1.113-0.608c-0.33-0.062-0.994-0.094-1.992-0.094H170.111z"/>
		<path fill="#FFFFFF" d="M180.123,106.854V93.137h10.172v2.32h-7.402v3.041h6.887v2.312h-6.887v3.733h7.664v2.312H180.123z"/>
	</g>
	<line fill="none" stroke="#FFFFFF" stroke-width="2" stroke-miterlimit="10" x1="68.335" y1="68.333" x2="68.335" y2="131.667"/>
	<rect x="5.001" y="68.333" fill="none" stroke="#000000" stroke-miterlimit="10" width="189.997" height="63.334"/>
</g>
</svg>
