<?xml version="1.0" encoding="utf-8"?>
<!-- Generator: Adobe Illustrator 16.0.0, SVG Export Plug-In . SVG Version: 6.00 Build 0)  -->
<!DOCTYPE svg PUBLIC "-//W3C//DTD SVG 1.1//EN" "http://www.w3.org/Graphics/SVG/1.1/DTD/svg11.dtd">
<svg version="1.1" id="Layer_1" xmlns="http://www.w3.org/2000/svg" xmlns:xlink="http://www.w3.org/1999/xlink" x="0px" y="0px"
	 width="200px" height="200px" viewBox="0 0 200 200" enable-background="new 0 0 200 200" xml:space="preserve">
<g>
	<rect x="28.579" y="5" fill="#FFFFFF" width="142.838" height="190"/>
	<path fill="#FFFFFF" d="M170.744,5H28.579v190h142.838V5H170.744z"/>
	<rect x="29.256" y="146.492" fill="#FFFFFF" width="141.492" height="1.35"/>
	<rect x="28.583" y="146.492" fill="#19160F" width="142.837" height="1.35"/>
	<path fill="#19160F" d="M127.601,117.402c0,4.728-10.988,9.991-26.757,9.991c-15.77,0-26.761-5.264-26.761-9.991v-5.915
		c0-0.058,0.013-0.121,0.015-0.184c3.094,4.98,13.736,8.555,26.746,8.555c13.009,0,23.65-3.574,26.74-8.555
		c0.004,0.062,0.017,0.126,0.017,0.184V117.402z M73.611,43.023c0.521-1.954,10.036-5.432,27.233-5.432
		c17.65,0,27.281,3.653,27.281,5.531v1.252c-2.67,2.542-13.13,4.957-27.281,4.957c-14.074,0-24.496-2.39-27.239-4.911l0.004-1.218
		l-0.019-0.082C73.59,43.117,73.601,43.061,73.611,43.023 M128.125,52.944c0,0.16-0.18,0.468-0.642,0.85l-0.039-0.057
		c-3.948,2.664-14.639,4.459-26.601,4.459c-11.966,0-22.651-1.795-26.606-4.459L74.2,53.794c-0.459-0.382-0.639-0.685-0.639-0.85
		l0.033-6.893c4.602,3.023,16.194,4.628,27.25,4.628c11.081,0,22.7-1.611,27.281-4.646V52.944z M74.957,109.119l0.257-0.352v-52.97
		c5.012,2.274,14.847,3.747,25.63,3.747c10.786,0,20.619-1.473,25.629-3.747v52.97l0.255,0.352c0.088,0.123,0.158,0.24,0.228,0.363
		c-1.561,4.999-12.879,9.026-26.111,9.026c-13.234,0-24.548-4.027-26.113-9.026C74.804,109.359,74.869,109.242,74.957,109.119
		 M130.822,52.944v-9.821c0-5.655-15.541-8.232-29.979-8.232c-13.47,0-28.559,2.34-29.856,7.484l-0.038,0.161l-0.036,0.169v0.086
		c-0.023,0.154-0.052,0.332-0.052,0.332s0.027,0.165,0.048,0.315c0,0.18-0.048,9.497-0.048,9.497c0,1.065,0.575,2.041,1.65,2.938
		v52.076c-0.731,1.146-1.126,2.335-1.126,3.538v5.915c0,7.112,12.938,12.688,29.458,12.688c16.519,0,29.456-5.576,29.456-12.688
		v-5.915c0-1.198-0.395-2.386-1.126-3.538V55.873C130.245,54.977,130.822,54.001,130.822,52.944"/>
	<path fill="#FFFFFF" d="M125.479,31l-1.237-3.102c-0.325-0.825-1.274-1.36-2.682-1.648c-4.172-1.903-13.525-3.994-30.139,2.605
		C74.457,35.595,69.5,43.62,68.048,47.733c-0.668,1.049-0.902,1.979-0.608,2.729l1.232,3.104c1.496,3.769,15.432,1.775,31.115-4.454
		C115.479,42.879,126.974,34.771,125.479,31"/>
	<path fill="#19160F" d="M124.089,32.377c-1.418,3.295-10.592,9.836-24.799,15.482c-14.206,5.645-25.369,7.18-28.662,5.76
		c-0.215-0.095-0.598-0.291-0.702-0.552l-0.127-0.324c5.214,1.157,16.719-1.229,29.007-6.11
		c12.284-4.882,22.291-11.041,25.291-15.459c0.077,0.196,0.129,0.324,0.129,0.324C124.325,31.757,124.183,32.16,124.089,32.377
		 M69.184,48.457l0.082-0.13l0.055-0.145c1.389-3.952,6.186-11.552,22.599-18.074c16.207-6.438,25.175-4.414,29.08-2.632
		l0.138,0.064l0.15,0.029c1.105,0.228,1.603,0.574,1.701,0.821c0,0,0.215,0.549,0.472,1.187
		c-1.803,4.084-12.365,10.723-25.156,15.802c-12.792,5.08-25.027,7.501-29.14,5.77l-0.468-1.185
		C68.581,49.681,68.764,49.117,69.184,48.457 M126.731,30.503l-1.236-3.104c-0.468-1.19-1.645-1.994-3.458-2.41
		c-4.332-1.951-14.078-4.155-31.114,2.613C73.54,34.508,68.334,42.879,66.78,47.266c-0.52,0.891-0.815,1.736-0.815,2.512
		c0,0.411,0.075,0.804,0.217,1.182l1.233,3.104c0.355,0.888,1.076,1.569,2.143,2.03c4.675,2.019,17.022-0.283,30.726-5.728
		s24.269-12.242,26.282-16.917c0.262-0.606,0.391-1.191,0.391-1.742C126.957,31.289,126.886,30.884,126.731,30.503"/>
	<path fill="#FFFFFF" d="M83.567,32.607c0,0-3.246,2.124-1.515,2.425c1.74,0.299,5.474-1.746,5.474-1.746s-2.248-4.262-1.857-5.39
		c0.395-1.124,8.281-3.644,8.281-3.644c0-0.004,0.307,3.428,0.679,3.595c0.629,0.28,2.363,0.704,3.284,0.564
		c0.917-0.138,2.628-0.838,2.5-1.258c-0.129-0.42-3.171-0.647-3.171-0.647s0.184-4.542-2.716-4.443
		c-1.97,0.066-11.908,3.917-12.447,5.316S83.567,32.607,83.567,32.607"/>
	<path fill="#19160F" d="M83.935,33.167l0.514-0.332l-0.291-0.544c-0.781-1.489-1.498-3.398-1.498-4.324
		c0-0.138,0.017-0.255,0.05-0.345c0.6-1.009,9.792-4.812,11.839-4.886c0.453-0.013,0.814,0.121,1.107,0.413
		c0.761,0.763,0.917,2.42,0.917,3.172c0,0.059,0,0.116-0.004,0.158l-0.021,0.654l0.647,0.048c0.6,0.046,1.264,0.123,1.801,0.209
		c-0.38,0.154-0.825,0.301-1.187,0.353c-0.691,0.104-2.06-0.202-2.716-0.444c-0.159-0.438-0.363-1.88-0.472-3.108l-0.073-0.84
		l-0.8,0.261c-3.748,1.193-8.3,2.868-8.715,4.065c-0.052,0.146-0.078,0.321-0.078,0.516c0,1.276,0.98,3.445,1.659,4.797
		c-1.297,0.649-3.131,1.404-4.178,1.399C82.749,34.046,83.34,33.56,83.935,33.167 M94.506,21.391
		c-1.722,0.057-12.296,3.777-13.057,5.747c-0.09,0.236-0.127,0.508-0.127,0.811c0,1.436,0.888,3.437,1.383,4.447
		c-1.197,0.857-1.836,1.617-1.836,2.25c0,0.065,0.009,0.128,0.023,0.192c0.054,0.262,0.263,0.723,1.048,0.856
		c1.916,0.33,5.505-1.594,5.912-1.815l0.585-0.319l-0.311-0.587c-1.032-1.949-1.834-4.042-1.834-4.724
		c0-0.054,0.002-0.098,0.013-0.132c0.38-0.512,3.819-1.886,7.061-2.962c0.322,2.979,0.689,3.176,0.99,3.312
		c0.683,0.303,2.544,0.781,3.656,0.614c0.668-0.103,2.465-0.65,2.935-1.394l0.115-0.729c-0.106-0.343-0.28-0.796-3.159-1.067
		c-0.046-0.921-0.257-2.651-1.287-3.688C96.06,21.642,95.329,21.363,94.506,21.391"/>
	<path fill="#19160F" d="M97.299,29.595c-0.01,0.367,0.278,0.679,0.654,0.689c0.103,0.004,10.182,0.361,17.757,5.755
		c0.303,0.218,0.723,0.146,0.939-0.156c0.216-0.306,0.146-0.728-0.158-0.94c-7.918-5.641-18.07-5.993-18.501-6.006
		C97.621,28.926,97.309,29.219,97.299,29.595"/>
	<path fill="#19160F" d="M83.983,35.126c-0.107,0.165-2.56,4.095-2.56,13.297c0,0.374,0.305,0.675,0.673,0.675
		c0.376,0,0.681-0.301,0.681-0.675c0-8.753,2.317-12.532,2.344-12.569c0.196-0.315,0.101-0.729-0.213-0.934
		C84.595,34.724,84.182,34.812,83.983,35.126"/>
	<path fill="#19160F" d="M91.368,32.456c-0.322,0.183-0.435,0.594-0.251,0.92c0.04,0.066,3.932,6.886,5.67,10.261
		c0.171,0.33,0.581,0.462,0.911,0.293c0.328-0.171,0.459-0.581,0.292-0.909c-1.755-3.402-5.664-10.246-5.701-10.313
		C92.104,32.386,91.69,32.271,91.368,32.456"/>
	<path fill="#19160F" d="M122.413,60.77c-0.108,0.351,0.088,0.729,0.438,0.846c0.079,0.025,0.455,0.172,0.455,0.564v44.307
		c0,1.153-0.308,2.035-0.596,2.273c-0.286,0.238-0.325,0.664-0.083,0.95c0.235,0.286,0.662,0.321,0.95,0.088
		c0.796-0.667,1.082-2.142,1.082-3.312V62.18c0-1.13-0.926-1.707-1.412-1.854C122.892,60.218,122.528,60.416,122.413,60.77"/>
	<path fill="#19160F" d="M116.631,61.936c-0.374,0.052-0.624,0.393-0.574,0.765c0.05,0.365,0.391,0.624,0.765,0.572
		c0.075-0.013,0.104,0.006,0.123,0.024c0.099,0.09,0.22,0.374,0.22,0.889v45.978c0,1.425-0.328,2.413-0.882,2.637
		c-0.343,0.138-0.51,0.53-0.372,0.873c0.143,0.351,0.53,0.516,0.882,0.376c0.785-0.317,1.726-1.245,1.726-3.886V64.186
		c0-1.082-0.376-1.636-0.691-1.907C117.5,61.996,117.072,61.87,116.631,61.936"/>
	<path fill="#19160F" d="M105.956,63.696c0,0.374,0.303,0.675,0.675,0.675c0.602,0,0.998,0.203,0.998,1.185v47.378
		c0,1.013-0.474,1.684-1.242,1.748c-0.37,0.033-0.646,0.357-0.617,0.731c0.032,0.365,0.357,0.644,0.731,0.61
		c1.479-0.119,2.482-1.364,2.482-3.09V65.556c0-1.586-0.882-2.532-2.353-2.532C106.259,63.023,105.956,63.326,105.956,63.696"/>
	<path fill="#19160F" d="M102.87,64.307h-1.813l-0.116,0.532c-0.17,0.777-0.765,2.468-1.529,2.743
		c-0.995,0.255-10.924-0.875-16.115-1.72c-0.029-0.002-0.054-0.017-0.088-0.017c-0.004,0-0.006,0.002-0.01,0.002
		c-1.322-0.217-2.335-0.413-2.778-0.56c-0.029-0.244-0.059-0.735-0.059-1.573c0-0.369,0.006-0.806,0.019-1.318l0.015-0.534
		l-0.629-0.165c-1.007-0.278-1.007-0.735-1.007-0.928c0-0.251,0.052-0.435,0.146-0.51c0.125-0.098,0.414-0.101,0.779-0.013
		c0,0,1.063,0.234,1.744,0.381v2.694l0.589,0.075c16.667,2.085,17.222,1.805,17.431,1.698c0.456-0.228,0.79-0.789,1.287-1.684
		c0.18-0.328,0.438-0.796,0.576-0.942c0.224-0.044,0.863,0.017,1.419,0.132l0.069,0.017h0.07c0.435,0,0.893,0.315,0.893,0.895
		C103.763,64.112,103.163,64.307,102.87,64.307 M102.998,61.281c-0.479-0.101-1.628-0.303-2.237-0.062
		c-0.443,0.18-0.736,0.677-1.21,1.542c-0.19,0.353-0.501,0.902-0.677,1.084c-1.327,0.046-10.23-0.981-16.101-1.713v-2.591
		l-2.764-0.604c-0.804-0.2-1.458-0.11-1.935,0.259c-0.307,0.24-0.664,0.704-0.664,1.573c0,0.146,0.015,0.313,0.061,0.493
		c-0.391,0.303-0.585,0.854-0.585,1.696v42.627c0,1.603,0,3.412,1.013,4.176c0.296,0.218,0.721,0.159,0.944-0.136
		c0.09-0.121,0.136-0.267,0.136-0.407c0-0.204-0.092-0.405-0.271-0.539c-0.477-0.354-0.477-2.065-0.477-3.094V62.959
		c0-0.293,0.029-0.438,0.057-0.535c0.2,0.152,0.438,0.293,0.733,0.407c-0.002,0.312-0.01,0.642-0.01,0.893
		c0,1.876,0.15,2.181,0.232,2.34c0.117,0.238,0.255,0.512,3.292,1.04v42.876c0,1.441,0.61,2.544,1.631,2.954
		c0.351,0.14,0.742-0.029,0.879-0.376c0.14-0.347-0.029-0.737-0.372-0.873c-0.752-0.302-0.79-1.474-0.79-1.705V67.325
		c1.346,0.209,3.09,0.451,5.367,0.739c0.844,0.106,2.037,0.253,3.311,0.395v42.1c0,2.252,0.334,5.283,3.211,5.604
		c0.37,0.04,0.702-0.229,0.746-0.598c0.04-0.367-0.229-0.702-0.595-0.743c-0.999-0.111-2.012-0.702-2.012-4.264V68.604
		c2.655,0.271,5.331,0.468,5.952,0.246c1.31-0.468,1.986-2.272,2.256-3.193h0.75c1.104,0,2.244-0.805,2.244-2.144
		C105.114,62.161,104.057,61.342,102.998,61.281"/>
	<path fill="#19160F" d="M71.229,167.35v-4.001c0-0.906,0.046-2.072-1.17-2.072c-1.281,0-1.291,1.429-1.291,2.336v3.737H66.61
		v-11.971h2.158v5.089c0.474-0.629,1.232-0.921,1.999-0.921c2.033,0,2.618,1.28,2.618,3.106v4.696H71.229z"/>
	<path fill="#19160F" d="M78.372,161.454c-1.111,0-1.789,1.082-1.789,2.129c0,1.017,0.677,2.105,1.789,2.105
		c1.107,0,1.784-1.089,1.784-2.105C80.156,162.536,79.479,161.454,78.372,161.454 M78.372,167.596c-2.373,0-3.974-1.673-3.974-4.013
		c0-2.354,1.615-4.036,3.974-4.036c2.354,0,3.971,1.682,3.971,4.036C82.343,165.923,80.741,167.596,78.372,167.596"/>
	<path fill="#19160F" d="M86.743,167.596c-2.248,0-3.384-1.153-3.384-3.355v-4.445h2.154v4.095c0,0.863,0.136,1.893,1.23,1.893
		s1.229-1.029,1.229-1.893v-4.095h2.154v4.445C90.125,166.442,88.989,167.596,86.743,167.596"/>
	<path fill="#19160F" d="M93.649,167.596c-1.583,0-2.632-0.829-2.753-0.919l0.875-1.402c0.08,0.063,0.8,0.663,1.755,0.663
		c0.679,0,1.049-0.264,1.049-0.724c0-0.403-0.245-0.585-1.063-0.939l-0.568-0.249c-0.819-0.351-1.707-0.846-1.707-2.058
		c0-1.421,1.028-2.421,2.787-2.421c1.122,0,1.995,0.403,2.058,0.432v1.678c-0.121-0.092-1.016-0.6-1.891-0.6
		c-0.57,0-0.892,0.245-0.892,0.619c0,0.444,0.505,0.643,0.951,0.824l0.725,0.308c0.833,0.359,1.726,0.805,1.726,2.202
		C96.699,166.595,95.4,167.596,93.649,167.596"/>
	<path fill="#19160F" d="M101.282,161.057c-0.873,0-1.429,0.66-1.458,1.496h2.875C102.653,161.717,102.146,161.057,101.282,161.057
		 M99.762,163.981c0,0.647,0.336,1.83,1.909,1.83c0.953,0,1.722-0.488,1.83-0.568l0.861,1.434c-0.399,0.321-1.54,0.919-3.046,0.919
		c-2.388,0-3.832-1.645-3.832-3.936c0-2.325,1.214-4.113,3.769-4.113c2.383,0,3.538,1.662,3.538,4.113v0.321H99.762z"/>
	<path fill="#19160F" d="M110.393,167.35v-4.001c0-0.906,0.053-2.072-1.165-2.072c-1.28,0-1.293,1.429-1.293,2.336v3.737h-2.154
		v-11.971h2.154v5.089c0.479-0.629,1.229-0.921,1.999-0.921c2.032,0,2.613,1.28,2.613,3.106v4.696H110.393z"/>
	<path fill="#19160F" d="M117.538,161.454c-1.112,0-1.789,1.082-1.789,2.129c0,1.017,0.677,2.105,1.789,2.105
		c1.106,0,1.783-1.089,1.783-2.105C119.321,162.536,118.645,161.454,117.538,161.454 M117.538,167.596
		c-2.374,0-3.976-1.673-3.976-4.013c0-2.354,1.616-4.036,3.976-4.036c2.354,0,3.969,1.682,3.969,4.036
		C121.507,165.923,119.906,167.596,117.538,167.596"/>
	<rect x="122.524" y="155.379" fill="#19160F" width="2.151" height="11.973"/>
	<path fill="#19160F" d="M129.665,161.454c-1.109,0-1.784,1.099-1.784,2.114c0,1.013,0.675,2.12,1.784,2.12
		c1.106,0,1.786-1.107,1.786-2.12C131.451,162.553,130.771,161.454,129.665,161.454 M131.231,167.35v-0.75
		c-0.445,0.662-1.274,0.996-2.062,0.996c-2.215,0-3.477-2.01-3.477-4.057c0-2.004,1.276-3.992,3.447-3.992
		c0.787,0,1.616,0.34,2.091,0.988v-5.156h2.158v11.971H131.231z"/>
	<polygon fill="#19160F" points="89.534,182.896 87.566,182.896 86.012,177.909 84.474,182.896 82.5,182.896 79.713,175.188 
		82.053,175.188 83.643,179.829 85.044,175.188 87.01,175.188 88.427,179.879 90.045,175.188 92.318,175.188 	"/>
	<path fill="#19160F" d="M96.256,176.846c-1.107,0-1.784,1.097-1.784,2.11c0,1.011,0.677,2.127,1.784,2.127
		c1.111,0,1.803-1.116,1.803-2.127C98.059,177.942,97.368,176.846,96.256,176.846 M97.846,182.739v-0.737
		c-0.464,0.649-1.297,0.986-2.079,0.986c-2.216,0-3.479-2.015-3.479-4.062c0-2.003,1.277-3.99,3.449-3.99
		c0.781,0,1.582,0.339,2.108,0.959v-0.708h2.121v7.552H97.846z"/>
	<path fill="#19160F" d="M103.572,182.988c-1.588,0-2.632-0.83-2.758-0.922l0.878-1.403c0.077,0.064,0.802,0.666,1.755,0.666
		c0.677,0,1.046-0.263,1.046-0.725c0-0.403-0.244-0.589-1.061-0.94l-0.57-0.244c-0.815-0.359-1.707-0.849-1.707-2.062
		c0-1.418,1.03-2.421,2.785-2.421c1.119,0,2.001,0.399,2.06,0.433v1.678c-0.121-0.092-1.014-0.602-1.891-0.602
		c-0.57,0-0.896,0.25-0.896,0.616c0,0.446,0.512,0.647,0.959,0.829l0.721,0.31c0.831,0.356,1.726,0.802,1.726,2.199
		C106.618,181.985,105.323,182.988,103.572,182.988"/>
	<path fill="#19160F" d="M110.031,182.988c-1.568,0-2.427-0.907-2.427-2.677v-3.309h-0.742v-1.815h0.742v-2.509h2.153v2.509h1.318
		v1.815h-1.318v3.075c0,0.666,0.201,1.02,0.801,1.02c0.395,0,0.706-0.187,0.771-0.253v1.865
		C111.206,182.774,110.684,182.988,110.031,182.988"/>
	<path fill="#19160F" d="M115.492,176.447c-0.877,0-1.429,0.662-1.458,1.495h2.875C116.865,177.109,116.357,176.447,115.492,176.447
		 M113.97,179.37c0,0.649,0.341,1.834,1.911,1.834c0.955,0,1.726-0.493,1.828-0.57l0.862,1.433
		c-0.398,0.322-1.539,0.922-3.045,0.922c-2.386,0-3.836-1.648-3.836-3.94c0-2.327,1.222-4.111,3.772-4.111
		c2.386,0,3.539,1.667,3.539,4.111v0.322H113.97z"/>
	<rect x="28.583" y="5" fill="none" stroke="#000000" stroke-miterlimit="10" width="142.837" height="190"/>
</g>
</svg>
