<?xml version="1.0" encoding="utf-8"?>
<!-- Generator: Adobe Illustrator 16.0.0, SVG Export Plug-In . SVG Version: 6.00 Build 0)  -->
<!DOCTYPE svg PUBLIC "-//W3C//DTD SVG 1.1//EN" "http://www.w3.org/Graphics/SVG/1.1/DTD/svg11.dtd">
<svg version="1.1" id="Layer_1" xmlns="http://www.w3.org/2000/svg" xmlns:xlink="http://www.w3.org/1999/xlink" x="0px" y="0px"
	 width="200px" height="200px" viewBox="0 0 200 200" enable-background="new 0 0 200 200" xml:space="preserve">
<rect x="36.667" y="5" fill="#009444" width="126.666" height="190"/>
<line fill="none" stroke="#FFFFFF" stroke-width="1.0342" stroke-miterlimit="10" x1="163.333" y1="132.089" x2="36.667" y2="132.089"/>
<path fill="#FFFFFF" d="M136.134,78.208c-5.344,6.072-9.551,10.801-9.854,11.101c-0.3-0.3-4.51-5.029-9.85-11.101
	c-4.814-5.479-6.916-8.25-6.916-11.925c0-3.826,3.081-7.127,7.595-7.127c1.654,0,3.08,0.451,4.36,1.278
	c-3.76-11.776-14.436-19.95-26.849-19.95c-15.49,0-27.745,12.525-27.745,28.275s12.255,28.35,27.745,28.35
	c5.944,0,10.305-1.573,12.938-3.228l5.49,6.906c-4.363,3.449-12.033,5.317-18.428,5.317c-20.828,0-37.673-16.573-37.673-37.345
	c0-20.779,16.845-37.352,37.673-37.352c17.824,0,33.09,12.376,36.478,29.027c1.275-0.827,2.705-1.278,4.36-1.278
	c4.514,0,7.595,3.301,7.595,7.127C143.053,69.958,140.947,72.729,136.134,78.208"/>
<g>
	<path fill="#FFFFFF" d="M46.253,171.83v-15.375h4.981c1.888,0,3.118,0.077,3.691,0.23c0.881,0.23,1.619,0.732,2.213,1.505
		c0.595,0.773,0.892,1.771,0.892,2.995c0,0.943-0.171,1.737-0.514,2.38c-0.343,0.644-0.778,1.149-1.306,1.516
		c-0.528,0.367-1.064,0.61-1.61,0.729c-0.741,0.146-1.814,0.22-3.22,0.22h-2.023v5.8H46.253z M49.357,159.056v4.363h1.698
		c1.224,0,2.042-0.08,2.454-0.241c0.413-0.161,0.736-0.413,0.971-0.756c0.234-0.342,0.352-0.74,0.352-1.195
		c0-0.559-0.165-1.021-0.493-1.384c-0.329-0.364-0.745-0.591-1.248-0.682c-0.371-0.07-1.115-0.105-2.234-0.105H49.357z"/>
	<path fill="#FFFFFF" d="M59.949,164.237c0-1.566,0.234-2.881,0.703-3.944c0.35-0.782,0.827-1.485,1.432-2.107
		s1.268-1.084,1.987-1.385c0.958-0.405,2.062-0.608,3.314-0.608c2.266,0,4.078,0.703,5.438,2.108c1.36,1.405,2.04,3.359,2.04,5.862
		c0,2.482-0.675,4.425-2.024,5.826c-1.35,1.402-3.153,2.104-5.411,2.104c-2.286,0-4.104-0.698-5.454-2.093
		S59.949,166.685,59.949,164.237z M63.148,164.132c0,1.741,0.402,3.061,1.206,3.96c0.804,0.898,1.825,1.348,3.062,1.348
		s2.253-0.446,3.047-1.338c0.793-0.892,1.19-2.229,1.19-4.011c0-1.763-0.387-3.077-1.159-3.944s-1.799-1.301-3.078-1.301
		s-2.311,0.439-3.094,1.316C63.54,161.04,63.148,162.363,63.148,164.132z"/>
	<path fill="#FFFFFF" d="M77.297,171.83v-15.375h6.533c1.644,0,2.837,0.138,3.582,0.414c0.744,0.276,1.341,0.768,1.788,1.474
		s0.671,1.514,0.671,2.423c0,1.154-0.339,2.106-1.017,2.857c-0.679,0.752-1.692,1.226-3.042,1.422
		c0.671,0.392,1.226,0.821,1.662,1.289c0.438,0.469,1.026,1.301,1.768,2.496l1.877,3h-3.713l-2.244-3.346
		c-0.797-1.195-1.342-1.948-1.636-2.26c-0.294-0.311-0.605-0.524-0.934-0.64c-0.329-0.115-0.85-0.174-1.562-0.174h-0.629v6.419
		H77.297z M80.401,162.957h2.296c1.489,0,2.419-0.062,2.79-0.188c0.37-0.125,0.661-0.343,0.87-0.65
		c0.21-0.308,0.315-0.691,0.315-1.153c0-0.518-0.139-0.935-0.414-1.253c-0.277-0.318-0.667-0.52-1.17-0.604
		c-0.252-0.034-1.007-0.053-2.266-0.053h-2.422V162.957z"/>
	<path fill="#FFFFFF" d="M96.259,171.83v-12.774h-4.562v-2.601h12.218v2.601h-4.551v12.774H96.259z"/>
	<path fill="#FFFFFF" d="M105.928,171.83v-15.375h6.534c1.643,0,2.837,0.138,3.582,0.414c0.744,0.276,1.34,0.768,1.788,1.474
		c0.447,0.706,0.671,1.514,0.671,2.423c0,1.154-0.339,2.106-1.018,2.857c-0.678,0.752-1.692,1.226-3.041,1.422
		c0.671,0.392,1.226,0.821,1.662,1.289c0.437,0.469,1.025,1.301,1.768,2.496l1.877,3h-3.713l-2.244-3.346
		c-0.797-1.195-1.343-1.948-1.637-2.26c-0.293-0.311-0.604-0.524-0.933-0.64c-0.329-0.115-0.85-0.174-1.563-0.174h-0.629v6.419
		H105.928z M109.032,162.957h2.297c1.489,0,2.419-0.062,2.79-0.188c0.37-0.125,0.66-0.343,0.87-0.65s0.314-0.691,0.314-1.153
		c0-0.518-0.138-0.935-0.414-1.253s-0.666-0.52-1.169-0.604c-0.252-0.034-1.007-0.053-2.266-0.053h-2.423V162.957z"/>
	<path fill="#FFFFFF" d="M135.294,171.83h-3.377l-1.343-3.492h-6.146l-1.269,3.492h-3.294l5.989-15.375h3.282L135.294,171.83z
		 M129.578,165.747l-2.118-5.705l-2.077,5.705H129.578z"/>
	<path fill="#FFFFFF" d="M136.846,171.83v-15.375h3.104v15.375H136.846z"/>
	<path fill="#FFFFFF" d="M146.369,171.83v-12.774h-4.562v-2.601h12.219v2.601h-4.552v12.774H146.369z"/>
</g>
<rect x="36.667" y="5" fill="none" stroke="#000000" stroke-miterlimit="10" width="126.666" height="190"/>
</svg>
