<?xml version="1.0" encoding="utf-8"?>
<!-- Generator: Adobe Illustrator 16.0.0, SVG Export Plug-In . SVG Version: 6.00 Build 0)  -->
<!DOCTYPE svg PUBLIC "-//W3C//DTD SVG 1.1//EN" "http://www.w3.org/Graphics/SVG/1.1/DTD/svg11.dtd">
<svg version="1.1" id="Layer_1" xmlns="http://www.w3.org/2000/svg" xmlns:xlink="http://www.w3.org/1999/xlink" x="0px" y="0px"
	 width="200px" height="200px" viewBox="0 0 200 200" enable-background="new 0 0 200 200" xml:space="preserve">
<g>
	<circle fill="#ED1C24" cx="100" cy="100" r="95"/>
	<circle fill="#FFFFFF" cx="100" cy="100" r="74.832"/>
	<path d="M36.996,113.926l15.101-2.666c0.493,7.995,7.106,11.746,13.522,11.746c6.81,0,10.758-3.553,10.758-9.476
		c0-5.823-3.355-8.686-10.363-8.686h-6.712V92.211c16.482,0,16.482-7.6,16.482-7.6c0-5.626-4.145-8.883-11.646-8.883
		c-6.712,0-11.055,2.468-12.141,11.153L37.193,84.71c1.776-13.324,13.028-21.418,27.241-21.418c15.298,0,25.464,9.179,25.464,20.53
		c0,4.146-0.197,10.956-7.501,14.607c8.094,4.145,7.698,8.192,7.698,15.497c0,14.015-6.612,22.107-25.957,22.107
		C48.444,136.033,39.266,128.631,36.996,113.926z"/>
	<path d="M135.629,136.429c-19.543,0-29.412-12.634-29.412-36.025c0-24.576,10.265-36.519,29.313-36.519
		c20.036,0,29.512,12.929,29.512,36.42C165.042,123.598,155.369,136.429,135.629,136.429z"/>
	<path fill="#FFFFFF" d="M135.728,77.11c-10.363,0-14.903,7.6-14.903,23.096c0,14.409,4.836,22.997,14.903,22.997
		c10.166,0,14.806-7.699,14.806-22.997C150.533,85.204,145.894,77.11,135.728,77.11z"/>
</g>
</svg>
