<?xml version="1.0" encoding="utf-8"?>
<!-- Generator: Adobe Illustrator 16.0.0, SVG Export Plug-In . SVG Version: 6.00 Build 0)  -->
<!DOCTYPE svg PUBLIC "-//W3C//DTD SVG 1.1//EN" "http://www.w3.org/Graphics/SVG/1.1/DTD/svg11.dtd">
<svg version="1.1" id="Layer_1" xmlns="http://www.w3.org/2000/svg" xmlns:xlink="http://www.w3.org/1999/xlink" x="0px" y="0px"
	 width="200px" height="200px" viewBox="0 0 200 200" enable-background="new 0 0 200 200" xml:space="preserve">
<g>
	<g>
		<g>
			<path d="M195,153.855c0,6.358-5.154,11.514-11.514,11.514H16.513C10.155,165.369,5,160.214,5,153.855V46.145
				c0-6.358,5.155-11.513,11.513-11.513h166.973c6.359,0,11.514,5.155,11.514,11.513V153.855z"/>
			<path fill="#FFFFFF" d="M189.021,153.855c0,3.057-2.478,5.535-5.535,5.535H16.513c-3.056,0-5.535-2.479-5.535-5.535V46.145
				c0-3.056,2.479-5.534,5.535-5.534h166.973c3.058,0,5.535,2.478,5.535,5.534V153.855z"/>
		</g>
	</g>
	<g>
		<polygon points="38.041,60.106 38.041,51.715 42.562,51.715 42.562,73.514 38.041,73.514 38.041,64.379 29.124,64.379 
			29.124,73.514 24.634,73.514 24.634,51.715 29.124,51.715 29.124,60.106 		"/>
		<path d="M56.2,73.42c-0.65,0.31-1.362,0.372-2.105,0.372c-3.406,0-5.945-2.508-5.945-5.667V57.815h4.118v8.948
			c0,1.796,0.867,3.097,2.601,3.097c2.013,0,3.282-1.053,3.282-2.632v-9.413h4.18v15.699h-4.304v-1.146
			C57.253,73.049,56.881,73.173,56.2,73.42z"/>
		<path d="M83.068,61.406c-1.827,0-2.694,1.332-2.694,3.004v9.104h-4.304v-8.979c0-2.137-0.835-3.128-2.198-3.128
			c-1.703,0-2.756,1.425-2.756,3.004v9.104h-4.149V57.846h4.149v1.176c1.301-1.176,2.168-1.61,3.592-1.61
			c2.013,0,2.663,0.279,4.242,1.982c1.672-1.672,2.849-2.044,4.614-2.044c3.375,0,5.883,3.097,5.883,6.379v9.785h-4.211v-8.979
			C85.235,62.397,84.399,61.406,83.068,61.406z"/>
		<path d="M108.968,65.803c0,4.676-2.663,7.989-6.72,7.989c-2.136,0-2.446-0.217-4.365-1.456v5.821h-4.149V57.722h4.149v0.836
			c1.331-1.083,2.167-1.548,3.963-1.548C106.521,57.01,108.968,60.508,108.968,65.803z"/>
		<path fill="#FFFFFF" d="M97.883,67.042c0,1.641,1.827,3.065,3.468,3.065c2.384,0,3.282-1.858,3.282-4.583
			c0-2.973-0.898-4.707-3.438-4.707c-3.034,0-3.312,2.693-3.312,3.777V67.042z"/>
		<path d="M117.723,63.605l2.601,0.372c2.757,0.372,4.397,2.292,4.397,4.737c0,3.159-2.632,5.357-6.379,5.357
			c-3.251,0-5.449-0.805-7.524-2.88l3.097-2.725c1.27,1.3,2.693,2.043,4.211,2.043c1.239,0,2.229-0.526,2.229-1.331
			c0-0.65-0.649-1.27-1.95-1.518l-2.726-0.526c-2.414-0.464-3.839-2.292-3.839-4.428c0-3.159,2.446-5.171,6.471-5.171
			c2.199,0,4.057,0.372,6.225,2.322l-2.663,2.818c-1.084-1.27-2.229-1.672-3.654-1.672c-1.207,0-2.043,0.681-2.043,1.456
			C116.175,62.985,116.453,63.45,117.723,63.605z"/>
		<path d="M143.468,57.753h3.065v3.623h-3.065V73.42h-4.18V61.375h-2.478v-3.623h2.478v-1.92c0-2.384,1.548-4.211,4.118-4.211
			c1.021,0,3.065,0.186,4.118,0.372l-0.743,3.468c-1.207,0-1.61,0-1.61,0c-1.238,0-1.703,0-1.703,1.548V57.753z"/>
		<path d="M149.303,65.865c0-6.348,3.716-8.67,7.432-8.67c3.375,0,7.586,2.322,7.586,8.67c0,4.676-3.065,8.206-7.369,8.206
			C152.213,74.071,149.303,70.819,149.303,65.865z"/>
		<path fill="#FFFFFF" d="M160.078,65.865c0-3.685-1.27-4.831-3.127-4.831c-2.354,0-3.313,1.92-3.313,4.831
			c0,2.539,1.239,4.459,3.313,4.459C158.995,70.324,160.078,68.404,160.078,65.865z"/>
		<path d="M172.325,59.363c0.929-1.239,2.509-1.827,4.119-1.827c0.216,0,0.402,0,0.773,0.031v4.057
			c-1.362,0.062-1.765,0.062-1.765,0.062c-1.765,0.062-3.221,1.3-3.221,3.809v8.02h-4.18V57.753h4.18L172.325,59.363z"/>
		<path d="M23.079,98.007l4.737-0.836c0.155,2.508,2.229,3.685,4.242,3.685c2.136,0,3.375-1.114,3.375-2.972
			c0-1.827-1.053-2.725-3.251-2.725h-2.105v-3.963c5.171,0,5.171-2.384,5.171-2.384c0-1.765-1.301-2.787-3.654-2.787
			c-2.105,0-3.468,0.774-3.809,3.499l-4.645-0.682c0.558-4.18,4.087-6.719,8.546-6.719c4.8,0,7.989,2.88,7.989,6.441
			c0,1.3-0.062,3.437-2.354,4.583c2.539,1.301,2.415,2.57,2.415,4.861c0,4.397-2.074,6.936-8.144,6.936
			C26.67,104.943,23.791,102.621,23.079,98.007z"/>
		<path d="M54.022,105.067c-6.131,0-9.227-3.964-9.227-11.302c0-7.71,3.22-11.457,9.196-11.457c6.286,0,9.258,4.056,9.258,11.426
			C63.25,101.041,60.215,105.067,54.022,105.067z"/>
		<path fill="#FFFFFF" d="M54.053,86.458c-3.251,0-4.675,2.384-4.675,7.246c0,4.521,1.517,7.214,4.675,7.214
			c3.189,0,4.645-2.415,4.645-7.214C58.698,88.997,57.243,86.458,54.053,86.458z"/>
		<path d="M76.634,105.067c-6.131,0-9.227-3.964-9.227-11.302c0-7.71,3.22-11.457,9.196-11.457c6.286,0,9.258,4.056,9.258,11.426
			C85.862,101.041,82.827,105.067,76.634,105.067z"/>
		<path fill="#FFFFFF" d="M76.666,86.458c-3.251,0-4.676,2.384-4.676,7.246c0,4.521,1.517,7.214,4.676,7.214
			c3.189,0,4.645-2.415,4.645-7.214C81.31,88.997,79.854,86.458,76.666,86.458z"/>
		<path d="M107.36,106.615c-0.527,1.58-1.518,3.065-3.623,3.065c0,0-1.115,0-4.304-0.402l0.402-3.685
			c0.464,0.124,1.548,0.217,2.229,0.217c0.743,0,1.456-0.402,1.456-1.27c0-0.279,0.031-0.65-0.124-1.084l-5.109-14.46h4.118
			l3.438,9.382l3.344-9.382h4.211L107.36,106.615z"/>
		<path d="M120.962,104.912c-3.437,0-5.449-1.92-5.449-4.923c0-2.663,1.61-5.48,9.165-5.48v-0.867c0-0.929-0.929-1.517-2.353-1.517
			c-1.208,0-3.252,0.712-4.738,1.61l-2.013-3.065c1.115-0.836,3.809-2.353,6.688-2.353c4.366,0,6.626,1.672,6.626,4.707v6.533
			c0,1.393,0.372,1.796,1.827,2.044l-1.455,3.281c-0.743,0-2.817-0.277-3.871-1.609
			C123.996,104.604,122.696,104.912,120.962,104.912z"/>
		<path fill="#FFFFFF" d="M122.294,101.414c1.733,0,2.508-0.496,2.508-1.796v-1.982l-3.189,0.464
			c-1.394,0.217-1.672,0.96-1.672,1.827C119.94,100.949,120.56,101.414,122.294,101.414z"/>
		<path d="M137.606,90.328c0.929-1.238,2.508-1.827,4.118-1.827c0.217,0,0.402,0,0.774,0.031v4.057
			c-1.362,0.062-1.766,0.062-1.766,0.062c-1.765,0.062-3.22,1.3-3.22,3.809v8.019h-4.18v-15.76h4.18L137.606,90.328z"/>
		<path d="M145.481,96.738c0-4.552,2.26-8.484,6.843-8.484c1.61,0,2.663,0.216,4.335,1.332v-6.967h4.242v21.86h-4.242v-0.959
			c-1.362,1.145-2.663,1.33-4.459,1.33C147.865,104.85,145.481,101.6,145.481,96.738z"/>
		<path fill="#FFFFFF" d="M153.346,101.104c2.168,0,3.345-1.176,3.345-3.312v-2.478c0-1.857-1.27-3.313-3.251-3.313
			c-2.478,0-3.716,1.889-3.716,4.583C149.724,99.37,150.962,101.104,153.346,101.104z"/>
		<path d="M170.503,94.57l2.601,0.372c2.756,0.372,4.396,2.292,4.396,4.738c0,3.158-2.632,5.356-6.378,5.356
			c-3.252,0-5.45-0.805-7.524-2.88l3.097-2.725c1.269,1.301,2.693,2.044,4.211,2.044c1.238,0,2.229-0.527,2.229-1.332
			c0-0.65-0.65-1.27-1.951-1.518l-2.725-0.526c-2.415-0.464-3.839-2.291-3.839-4.428c0-3.158,2.445-5.171,6.471-5.171
			c2.198,0,4.057,0.372,6.224,2.322l-2.662,2.818c-1.084-1.27-2.229-1.672-3.654-1.672c-1.208,0-2.044,0.681-2.044,1.455
			C168.954,93.951,169.233,94.416,170.503,94.57z"/>
		<polygon points="116.196,149.26 100.828,149.26 110.976,139.112 69.681,139.112 69.681,128.612 110.976,128.612 100.828,118.465 
			116.196,118.465 131.623,133.892 		"/>
	</g>
</g>
</svg>
