<?xml version="1.0" encoding="utf-8"?>
<!-- Generator: Adobe Illustrator 16.0.0, SVG Export Plug-In . SVG Version: 6.00 Build 0)  -->
<!DOCTYPE svg PUBLIC "-//W3C//DTD SVG 1.1//EN" "http://www.w3.org/Graphics/SVG/1.1/DTD/svg11.dtd">
<svg version="1.1" id="Layer_1" xmlns="http://www.w3.org/2000/svg" xmlns:xlink="http://www.w3.org/1999/xlink" x="0px" y="0px"
	 width="200px" height="200px" viewBox="0 0 200 200" enable-background="new 0 0 200 200" xml:space="preserve">
<g>
	<path fill-rule="evenodd" clip-rule="evenodd" fill="#ED1C24" d="M100.005,195c52.457,0,95.036-42.598,95.036-95.069
		C195.041,47.462,152.462,5,100.005,5C47.545,5,4.959,47.462,4.959,99.931C4.959,152.402,47.545,195,100.005,195"/>
	<path fill-rule="evenodd" clip-rule="evenodd" fill="#FFFFFF" d="M100.005,176.066c42.043,0,75.978-34.078,75.978-76.136
		c0-41.923-33.935-75.997-75.978-75.997c-41.912,0-75.982,34.074-75.982,75.997C24.023,141.988,58.093,176.066,100.005,176.066"/>
	<path fill-rule="evenodd" clip-rule="evenodd" d="M158.546,75.859v13.929h-5.145V77.349c0-2.028-1.614-3.383-3.24-3.383
		c-1.625,0-3.519,1.489-3.519,4.059v11.764h-5.27V77.213c0-1.893-1.489-3.247-2.972-3.247c-1.49,0-3.655,1.082-3.655,3.923v11.899
		h-5.27V69.372h5.27v1.214c0,0,1.894-1.485,5.273-1.485c3.111,0,5.005,2.025,4.869,2.025c0,0,2.161-2.161,5.68-2.161
		C155.838,68.965,158.546,72.479,158.546,75.859"/>
	<path fill-rule="evenodd" clip-rule="evenodd" d="M113.387,76.538v3.111h3.651v5.134h-3.651v4.869h-5.812v-4.869H92.297v-5.001
		l13.792-18.527h7.298v8.924 M107.574,76.941v2.708h-9.06l9.06-11.899v3.24V76.941z"/>
	<path fill-rule="evenodd" clip-rule="evenodd" d="M69.854,73.291v3.922h4.6v6.359h-4.6v6.08h-7.167v-6.08H43.491v-6.359
		l17.307-22.988h9.056v11.089 M62.687,73.83v3.383H51.332l11.355-15.011v4.058V73.83z"/>
	<path fill-rule="evenodd" clip-rule="evenodd" d="M84.98,83.554c2.015,0,3.653,1.578,3.653,3.52c0,1.94-1.638,3.515-3.653,3.515
		s-3.647-1.574-3.647-3.515C81.333,85.132,82.966,83.554,84.98,83.554"/>
	<rect x="100.005" y="122.383" width="8.924" height="4.19"/>
	<polyline fill-rule="evenodd" clip-rule="evenodd" points="100.68,110.751 96.218,118.457 100.951,118.457 105.409,110.751 
		100.68,110.751 	"/>
	<polyline fill-rule="evenodd" clip-rule="evenodd" points="144.077,110.751 139.611,118.457 144.349,118.457 148.675,110.751 
		144.077,110.751 	"/>
	<polyline fill-rule="evenodd" clip-rule="evenodd" points="151.376,110.751 146.914,118.457 151.647,118.457 156.109,110.751 
		151.376,110.751 	"/>
	<path fill-rule="evenodd" clip-rule="evenodd" d="M57.28,112.373h5.137v28.397h-5.678v-19.741h-4.594v-4.466h0.811
		C54.17,116.563,56.605,116.428,57.28,112.373"/>
	<path fill-rule="evenodd" clip-rule="evenodd" d="M88.919,127.652v3.111h3.647v5.005h-3.647v5.002h-5.818v-5.002H67.828v-5.005
		l13.789-18.391h7.302v8.928 M83.102,128.06v2.704h-9.054l9.054-12.035v3.247V128.06z"/>
	<path fill-rule="evenodd" clip-rule="evenodd" d="M130.152,119.675c1.754-0.675,3.515-1.35,5.272-2.028
		c-1.218-2.841-3.111-5.812-9.463-5.812c-6.491,0-11.089,4.729-11.089,14.736c0,5.276,2.033,9.062,3.516,11.092
		c1.35,2.029,4.733,3.516,7.841,3.516c3.247,0,9.871-1.758,9.871-10.143c0-8.248-6.352-9.87-9.06-9.87
		c-2.837,0-5.27,1.351-6.217,2.165c0-4.466,3.112-6.224,5.138-6.224S129.069,117.918,130.152,119.675 M130.424,131.171
		c0-2.572-1.894-4.865-4.462-4.865s-4.598,2.293-4.598,4.865c0,2.569,1.894,4.87,4.598,4.87
		C127.716,136.041,130.424,134.822,130.424,131.171z"/>
	<polyline fill-rule="evenodd" clip-rule="evenodd" points="86.078,169.711 100.005,145.504 113.926,169.711 86.078,169.711 	"/>
	<polyline fill-rule="evenodd" clip-rule="evenodd" points="86.078,30.286 100.005,54.36 113.926,30.286 86.078,30.286 	"/>
</g>
</svg>
