<?xml version="1.0" encoding="utf-8"?>
<!-- Generator: Adobe Illustrator 16.0.0, SVG Export Plug-In . SVG Version: 6.00 Build 0)  -->
<!DOCTYPE svg PUBLIC "-//W3C//DTD SVG 1.1//EN" "http://www.w3.org/Graphics/SVG/1.1/DTD/svg11.dtd">
<svg version="1.1" id="Layer_1" xmlns="http://www.w3.org/2000/svg" xmlns:xlink="http://www.w3.org/1999/xlink" x="0px" y="0px"
	 width="200px" height="200px" viewBox="0 0 200 200" enable-background="new 0 0 200 200" xml:space="preserve">
<g>
	<path fill="#ED1C24" d="M17.333,16.034c-4.255,0.102-8.356,2.353-10.64,6.309c-2.284,3.955-2.183,8.633-0.144,12.369
		l82.668,143.193c2.216,3.636,6.216,6.062,10.784,6.062s8.567-2.426,10.783-6.062L193.45,34.711
		c2.039-3.736,2.141-8.414-0.144-12.369c-2.283-3.956-6.384-6.207-10.64-6.309H17.333z"/>
	<polygon fill="#FFFFFF" points="100.001,162.764 175.136,32.628 24.866,32.628 	"/>
	<g>
		<path d="M61.307,40.012c0,0,8.837,0,11.896,7.18l-5.608,2.847c-1.572-4.206-6.457-4.206-6.457-4.206
			c-4.928,0-7.86,3.696-7.86,9.771c0,5.99,2.932,9.771,7.689,9.771c4.036,0,6.925-2.761,6.925-6.542v-0.468h-7.477v-5.183H73.67
			V70.26h-5.608v-2.082c-2.932,2.974-7.393,2.974-7.393,2.974c-7.646,0-13.807-6.67-13.807-15.677
			C46.862,46.809,52.258,40.012,61.307,40.012z"/>
		<rect x="82.116" y="40.352" width="6.288" height="29.908"/>
		<polygon points="107.478,62.698 113.85,40.182 120.052,40.182 111.598,70.26 103.059,70.26 94.052,40.182 100.637,40.182 		"/>
		<polygon points="144.978,52.332 144.978,57.728 132.741,57.728 132.741,64.143 147.313,64.143 147.313,70.26 126.752,70.26 
			126.752,40.352 145.954,40.352 145.954,46.044 132.741,46.044 132.741,52.332 		"/>
		<polygon points="69.887,81.958 74.179,81.958 77.16,95.389 80.226,81.958 84.601,81.958 87.666,95.389 90.676,81.958 
			94.967,81.958 90.146,101.687 85.437,101.687 82.399,88.395 79.417,101.687 74.708,101.687 		"/>
		<polygon points="102.857,82.069 108.207,82.069 114.784,101.687 110.382,101.687 109.323,98.204 101.91,98.204 100.852,101.687 
			96.616,101.687 		"/>
		<polygon fill="#FFFFFF" points="105.533,86.221 102.941,94.692 108.18,94.692 		"/>
		<polygon points="120.497,81.958 124.342,88.952 128.216,81.958 132.87,81.958 126.35,93.717 126.35,101.687 122.392,101.687 
			122.392,93.717 115.814,81.958 		"/>
	</g>
</g>
</svg>
