<?xml version="1.0" encoding="utf-8"?>
<!-- Generator: Adobe Illustrator 16.0.0, SVG Export Plug-In . SVG Version: 6.00 Build 0)  -->
<!DOCTYPE svg PUBLIC "-//W3C//DTD SVG 1.1//EN" "http://www.w3.org/Graphics/SVG/1.1/DTD/svg11.dtd">
<svg version="1.1" id="Layer_1" xmlns="http://www.w3.org/2000/svg" xmlns:xlink="http://www.w3.org/1999/xlink" x="0px" y="0px"
	 width="200px" height="200px" viewBox="0 0 200 200" enable-background="new 0 0 200 200" xml:space="preserve">
<g>
	<g>
		<path fill="#ED1C24" d="M188.53,107.191c2.231-0.053,4.384-1.234,5.582-3.311c1.198-2.074,1.145-4.527,0.075-6.488l-43.372-75.126
			c-1.163-1.907-3.262-3.18-5.657-3.18c-2.396,0-4.495,1.273-5.657,3.18L96.129,97.393c-1.07,1.96-1.123,4.414,0.076,6.488
			c1.198,2.076,3.349,3.258,5.582,3.311H188.53z"/>
		<polygon fill="#FFFFFF" points="145.158,30.211 105.738,98.485 184.577,98.485 		"/>
		<polygon points="141.376,88.097 141.376,62.111 146.226,66.959 146.226,59.59 138.92,52.286 131.615,59.59 131.615,66.959 
			136.463,62.111 136.463,88.097 		"/>
		<polygon points="159.347,59.59 159.347,85.576 164.194,80.728 164.194,88.097 156.891,95.401 149.586,88.097 149.586,80.728 
			154.435,85.576 154.435,59.59 		"/>
	</g>
	<g>
		<path fill-rule="evenodd" clip-rule="evenodd" fill="#FFFFFF" d="M148.839,115.303c18.742,0,33.952,15.227,33.952,33.986
			s-15.21,33.986-33.952,33.986s-33.953-15.227-33.953-33.986S130.097,115.303,148.839,115.303"/>
		
			<path fill="none" stroke="#007AC2" stroke-width="0.4075" stroke-linecap="round" stroke-linejoin="round" stroke-miterlimit="10" d="
			M148.839,115.303c18.742,0,33.952,15.227,33.952,33.986s-15.21,33.986-33.952,33.986s-33.953-15.227-33.953-33.986
			S130.097,115.303,148.839,115.303"/>
		<path fill-rule="evenodd" clip-rule="evenodd" fill="#007AC2" d="M148.803,116.359c18.122,0,32.83,14.736,32.83,32.895
			c0,18.156-14.708,32.891-32.83,32.891c-18.123,0-32.831-14.734-32.831-32.891C115.972,131.096,130.68,116.359,148.803,116.359"/>
		<polyline fill-rule="evenodd" clip-rule="evenodd" fill="#FFFFFF" points="157.801,132.418 169.876,153.34 172.088,145.08 
			176.631,152.938 173.325,165.34 160.935,162.002 156.421,154.146 164.644,156.361 152.568,135.441 		"/>
		<polyline fill-rule="evenodd" clip-rule="evenodd" fill="#FFFFFF" points="145.237,135.441 133.163,156.391 141.385,154.176 
			136.872,162.031 124.481,165.34 121.175,152.967 125.718,145.109 127.931,153.369 140.006,132.418 		"/>
	</g>
	<g>
		<path fill-rule="evenodd" clip-rule="evenodd" d="M13.19,77.106c-2.175,0-3.973-1.772-3.973-3.971c0-20.452,0-40.932,0-61.412
			c0-2.172,1.798-3.971,3.973-3.971c29.146,0,58.297,0,87.446,0c2.2,0,3.972,1.799,3.972,3.971c0,20.455,0,40.932,0,61.412
			c0,2.199-1.771,3.971-3.972,3.971C71.488,77.106,42.337,77.106,13.19,77.106"/>
		<path fill-rule="evenodd" clip-rule="evenodd" fill="#FFFFFF" d="M100.637,75.122c1.098,0,1.985-0.886,1.985-1.986
			c0-20.452,0-40.932,0-61.412c0-1.1-0.888-1.983-1.985-1.983c-29.149,0-58.3,0-87.446,0c-1.103,0-1.987,0.883-1.987,1.983
			c0,20.455,0,40.932,0,61.412c0,1.1,0.884,1.986,1.987,1.986C42.337,75.122,71.488,75.122,100.637,75.122"/>
		<polyline fill-rule="evenodd" clip-rule="evenodd" points="56.403,17.817 56.403,20.984 54.952,20.984 54.952,15.562 
			52.726,18.705 50.444,15.562 50.444,20.984 49.048,20.984 49.048,13.578 50.82,13.578 52.726,16.207 54.55,13.578 56.403,13.578 
			56.403,15.697 		"/>
		<path fill-rule="evenodd" clip-rule="evenodd" d="M78.277,19.75l1.101-1.02c1.369,0.94,2.497,1.047,2.764,1.047
			c0.402,0,0.806-0.376,0.806-0.858c0-0.456-0.35-0.724-0.592-0.779c-0.24-0.083-1.261-0.269-1.692-0.375
			c-0.426-0.107-1.77-0.483-1.77-2.122c0-1.635,1.155-2.199,2.497-2.199c1.314,0,2.308,0.376,3.167,1.154l-1.02,0.992
			c-0.537-0.43-1.233-0.751-2.255-0.751c-0.589,0-0.724,0.565-0.724,0.751c0,0.189,0.135,0.617,0.537,0.697
			c0.404,0.082,1.422,0.351,1.583,0.351c0.43,0.08,1.879,0.645,1.879,2.175c0,1.395-0.913,2.335-2.629,2.335
			C80.21,21.147,78.868,20.314,78.277,19.75"/>
		<path fill-rule="evenodd" clip-rule="evenodd" d="M90.41,19.535v-2.736c0-0.726-0.698-1.264-2.147-1.264
			c-1.154,0-1.932,0.51-2.227,0.672l0.589,1.02c0.457-0.294,1.423-0.51,1.826-0.51c0.376,0,0.563,0.321,0.563,0.485v0.294
			c-0.458,0-1.637,0.214-2.093,0.375c-0.431,0.134-1.154,0.458-1.154,1.505c0,1.045,1.073,1.744,2.173,1.744
			c0.913,0,1.234-0.537,1.234-0.537s0.457,0.564,1.263,0.564l0.564-1.075C90.356,19.938,90.41,19.722,90.41,19.535 M89.014,18.571
			v1.017c0,0.379-0.778,0.379-0.884,0.379c-0.134,0-0.969-0.028-0.969-0.645C87.161,18.623,88.154,18.595,89.014,18.571z"/>
		<path fill-rule="evenodd" clip-rule="evenodd" d="M69.151,17.523v3.461h-1.369v-3.326c0-0.403-0.322-0.779-0.911-0.779
			c-0.564,0-1.102,0.482-1.102,1.209v2.896h-1.369v-5.314h1.369v0.403c0,0,0.562-0.507,1.343-0.507
			C68.346,15.565,69.151,16.558,69.151,17.523"/>
		<path fill-rule="evenodd" clip-rule="evenodd" d="M60.588,15.483c-1.287,0-2.603,1.047-2.603,2.872
			c0,1.853,1.289,2.925,2.603,2.925c1.29,0,2.577-1.073,2.577-2.925C63.166,16.53,61.878,15.483,60.588,15.483 M60.588,16.69
			c-0.589,0-1.233,0.537-1.233,1.692c0,1.153,0.645,1.691,1.233,1.691c0.565,0,1.21-0.538,1.21-1.691
			C61.799,17.227,61.153,16.69,60.588,16.69z"/>
		<path fill-rule="evenodd" clip-rule="evenodd" d="M95.349,20.852l-0.243-1.154c-0.966,0.293-1.232,0.024-1.232-0.189v-2.657h1.396
			v-1.182h-1.396v-2.092l-1.37,0.403v1.689h-0.858v1.182h0.858v3.115c0,0.668,0.402,1.181,1.423,1.181
			C94.677,21.147,95.187,20.904,95.349,20.852"/>
		<rect x="72.533" y="17.254" width="2.308" height="1.127"/>
		<path fill-rule="evenodd" clip-rule="evenodd" d="M67.595,29.278v3.598h-1.341v-3.25c0-0.51-0.402-0.883-0.833-0.883
			c-0.429,0-0.913,0.4-0.913,1.072v3.061h-1.369v-3.275c0-0.485-0.403-0.858-0.806-0.858c-0.375,0-0.964,0.32-0.964,1.045v3.088H60
			v-5.314h1.37v0.321c0,0,0.509-0.403,1.394-0.403c0.806,0,1.289,0.564,1.289,0.564s0.563-0.59,1.477-0.59
			C66.872,27.455,67.595,28.395,67.595,29.278"/>
		<path fill-rule="evenodd" clip-rule="evenodd" d="M85.793,27.803v-0.242h-1.37v6.816h1.37v-1.905c0,0,0.457,0.538,1.449,0.538
			c1.852,0,2.416-1.988,2.416-2.847c0-0.671-0.269-1.42-0.671-1.906c-0.402-0.455-0.967-0.885-1.797-0.885
			C86.678,27.348,86.169,27.534,85.793,27.803 M85.793,29.626v0.967c0,0.538,0.376,1.1,1.179,1.1c0.806,0,1.263-0.751,1.263-1.583
			c0-0.861-0.457-1.557-1.263-1.557C86.169,28.555,85.793,29.144,85.793,29.626z"/>
		<polyline fill-rule="evenodd" clip-rule="evenodd" points="78.814,26.81 79.942,26.81 77.499,32.849 79.056,32.849 81.5,26.81 
			81.5,25.467 76.399,25.467 76.399,26.81 77.74,26.81 		"/>
		<path fill-rule="evenodd" clip-rule="evenodd" d="M47.947,25.359c1.235,0,2.711,0.563,2.711,2.229
			c0,1.182-0.886,1.393-0.886,1.393s1.074,0.296,1.074,1.747c0,1.423-1.181,2.282-2.899,2.282c-1.745,0-2.925-0.859-2.925-2.282
			c0-1.451,1.074-1.747,1.074-1.747s-0.859-0.211-0.859-1.393C45.237,25.922,46.713,25.359,47.947,25.359 M47.974,31.642
			c-0.803,0-1.367-0.323-1.367-0.968s0.644-0.94,1.341-0.94c0.698,0,1.37,0.296,1.37,0.94s-0.592,0.968-1.37,0.968H47.974z
			 M47.974,28.447c-0.562,0-1.153-0.269-1.153-0.886c0-0.59,0.591-0.913,1.126-0.913c0.537,0,1.154,0.323,1.154,0.913
			c0,0.617-0.591,0.886-1.154,0.886H47.974z"/>
		<path fill-rule="evenodd" clip-rule="evenodd" d="M58.442,31.425v-2.736c0-0.725-0.669-1.262-2.147-1.262
			c-1.153,0-1.932,0.51-2.227,0.672l0.59,1.017c0.458-0.293,1.423-0.507,1.824-0.507c0.405,0,0.593,0.32,0.593,0.483v0.293
			c-0.484,0-1.665,0.216-2.122,0.379c-0.429,0.131-1.151,0.455-1.151,1.5c0,1.047,1.073,1.747,2.171,1.747
			c0.94,0,1.234-0.538,1.234-0.538s0.485,0.564,1.289,0.564l0.538-1.075C58.389,31.828,58.442,31.614,58.442,31.425 M57.074,30.459
			v1.021c0,0.375-0.78,0.375-0.913,0.375c-0.134,0-0.939-0.027-0.939-0.645C55.222,30.514,56.215,30.459,57.074,30.459z"/>
		<rect x="71.031" y="29.144" width="2.307" height="1.1"/>
		<path fill-rule="evenodd" clip-rule="evenodd" d="M98.435,29.278v3.598h-1.343v-3.25c0-0.51-0.401-0.883-0.83-0.883
			c-0.43,0-0.94,0.4-0.94,1.072v3.061H93.98v-3.275c0-0.485-0.403-0.858-0.806-0.858c-0.376,0-0.966,0.32-0.966,1.045v3.088h-1.369
			v-5.314h1.369v0.321c0,0,0.509-0.403,1.396-0.403c0.804,0,1.289,0.564,1.289,0.564c-0.029,0,0.563-0.59,1.447-0.59
			C97.71,27.455,98.435,28.395,98.435,29.278"/>
		<rect x="77.928" y="40.794" width="1.342" height="5.314"/>
		<path fill-rule="evenodd" clip-rule="evenodd" d="M78.575,38.699c0.431,0,0.779,0.338,0.779,0.754
			c0,0.413-0.348,0.751-0.779,0.751c-0.429,0-0.779-0.339-0.779-0.751C77.796,39.038,78.146,38.699,78.575,38.699"/>
		<path fill-rule="evenodd" clip-rule="evenodd" d="M86.597,45.222l1.047-0.913c0.352,0.456,1.182,0.832,1.53,0.832
			c0.376,0,0.699-0.269,0.699-0.538c0-0.267-0.189-0.401-0.377-0.428c-0.215-0.055-0.912-0.241-1.046-0.269
			c-0.132-0.027-1.395-0.242-1.395-1.529c0-1.342,1.395-1.665,2.2-1.665c0.832,0,1.584,0.241,2.146,0.806l-0.857,0.913v-0.003
			c-0.51-0.427-0.86-0.614-1.263-0.614c-0.402,0-0.751,0.187-0.751,0.51c0,0.293,0.241,0.349,0.375,0.373
			c0.108,0.027,0.994,0.217,1.208,0.271c0.215,0.052,1.263,0.375,1.263,1.582c0,1.234-1.154,1.717-2.255,1.717
			C88.047,46.268,86.948,45.705,86.597,45.222"/>
		<path fill-rule="evenodd" clip-rule="evenodd" d="M53.666,41.464h-1.531c-0.026-1.342,0.726-2.978,3.006-2.978
			c2.2,0,2.685,1.905,2.685,2.575c0,0.672-0.053,1.988-2.819,3.677h2.739v1.344h-5.342v-1.396c2.334-1.612,3.865-2.416,3.865-3.515
			c0-0.619-0.51-1.289-1.37-1.289C54.067,39.881,53.666,40.685,53.666,41.464"/>
		<path fill-rule="evenodd" clip-rule="evenodd" d="M62.279,38.645c1.048,0,3.114,0.592,3.114,3.811
			c0,3.222-1.932,3.867-3.114,3.867c-1.18,0-3.112-0.645-3.112-3.867C59.167,39.236,61.234,38.645,62.279,38.645 M62.279,40.042
			c0.781,0,1.558,0.456,1.585,2.362c0.026,1.932-0.699,2.522-1.585,2.522c-0.885,0-1.609-0.59-1.582-2.522
			C60.724,40.498,61.502,40.042,62.279,40.042z"/>
		<path fill-rule="evenodd" clip-rule="evenodd" d="M76.345,42.483v3.598h-1.37v-3.25c0-0.507-0.402-0.883-0.832-0.883
			s-0.912,0.403-0.912,1.072v3.061h-1.369v-3.274c0-0.483-0.403-0.858-0.779-0.858c-0.403,0-0.966,0.321-0.966,1.044v3.088h-1.37
			v-5.314h1.37v0.321c0,0,0.483-0.403,1.369-0.403c0.832,0,1.314,0.564,1.287,0.564c0,0,0.563-0.592,1.477-0.592
			C75.621,40.658,76.345,41.6,76.345,42.483"/>
		<path fill-rule="evenodd" clip-rule="evenodd" d="M85.579,42.617v3.464H84.21v-3.33c0-0.4-0.322-0.776-0.913-0.776
			s-1.099,0.48-1.099,1.207v2.898h-1.37v-5.287h1.37v0.376c0,0,0.562-0.512,1.314-0.512C84.746,40.658,85.579,41.652,85.579,42.617"
			/>
		<path fill-rule="evenodd" clip-rule="evenodd" fill="#007AC2" d="M14.503,18.892c0-1.048,0.833-1.879,1.879-1.879H39.01
			c1.047,0,1.879,0.831,1.879,1.879v22.626c0,1.045-0.832,1.906-1.879,1.906H16.382c-1.046,0-1.879-0.861-1.879-1.906V18.892"/>
		<path fill-rule="evenodd" clip-rule="evenodd" fill="#FFFFFF" d="M21.429,20.448h10.898l0.002,0.025
			c2.301,0.018,4.159,1.889,4.159,4.19c0,0.01,0,0.017,0,0.027l0.026,3.811c-0.017,2.301-1.888,4.16-4.187,4.16v0.027h-6.684v7.889
			h-4.214V20.448v12.241 M30.313,23.695h-4.67v5.717h4.67c1.086-0.015,1.96-0.913,1.96-2.012l0.053-1.692
			C32.327,24.598,31.423,23.695,30.313,23.695z"/>
		<polyline fill-rule="evenodd" clip-rule="evenodd" points="33.749,52.55 34.339,52.55 37.935,57.649 37.935,52.55 39.385,52.55 
			39.385,59.956 37.693,59.956 34.366,54.91 34.366,59.956 32.917,59.956 32.917,52.55 33.267,52.55 		"/>
		<path fill-rule="evenodd" clip-rule="evenodd" d="M56.215,57.808h3.516c0.054-0.668-0.215-3.326-2.469-3.326
			c-1.959,0-2.389,2.12-2.389,2.792c0,0.668,0.401,2.843,2.549,2.843c1.234,0,1.879-0.724,2.067-0.913L58.63,58.4
			c0,0-0.403,0.483-1.18,0.483C56.671,58.883,56.215,58.318,56.215,57.808 M56.241,56.736h2.12c0-0.483-0.403-1.047-1.073-1.047
			C56.644,55.689,56.241,56.227,56.241,56.736z"/>
		<path fill-rule="evenodd" clip-rule="evenodd" d="M53.801,55.851v-1.316c-1.291-0.027-1.479,0.323-1.8,0.644v-0.537h-1.369v5.289
			H52v-2.629C52,56.522,52.86,55.851,53.801,55.851"/>
		<path fill-rule="evenodd" clip-rule="evenodd" d="M68.937,59.555v0.375h1.369v-5.289h-1.369v2.953c0,0.751-0.672,1.182-1.18,1.182
			c-0.51,0-0.833-0.403-0.833-0.886v-3.249h-1.37v3.542c0,0.968,0.833,1.854,1.958,1.854C68.212,60.038,68.749,59.742,68.937,59.555
			"/>
		<path fill-rule="evenodd" clip-rule="evenodd" d="M43.519,54.455c-1.288,0-2.577,1.047-2.577,2.871
			c0,1.827,1.261,2.899,2.577,2.899c1.315,0,2.577-1.073,2.577-2.899C46.096,55.502,44.807,54.455,43.519,54.455 M43.519,55.664
			c-0.564,0-1.207,0.536-1.207,1.689c0,1.155,0.643,1.665,1.207,1.665c0.564,0,1.208-0.51,1.208-1.665
			C44.727,56.199,44.109,55.664,43.519,55.664z"/>
		<path fill-rule="evenodd" clip-rule="evenodd" d="M64.293,59.821l-0.269-1.152c-0.965,0.294-1.208,0.025-1.208-0.216v-2.629h1.369
			v-1.182h-1.369V52.55l-1.368,0.403v1.689h-0.861v1.182h0.861v3.114c0,0.645,0.403,1.18,1.423,1.18
			C63.596,60.117,64.132,59.876,64.293,59.821"/>
		<path fill-rule="evenodd" clip-rule="evenodd" d="M74.87,55.851v-1.316c-1.289-0.027-1.502,0.323-1.827,0.644v-0.537h-1.368v5.289
			h1.368v-2.629C73.043,56.522,73.93,55.851,74.87,55.851"/>
		<path fill-rule="evenodd" clip-rule="evenodd" d="M80.935,56.468v3.488h-1.369v-3.326c0-0.403-0.322-0.806-0.914-0.806
			c-0.562,0-1.1,0.51-1.1,1.233v2.899h-1.367v-5.314h1.367v0.403c0,0,0.563-0.51,1.316-0.51
			C80.104,54.535,80.935,55.529,80.935,56.468"/>
		<path fill-rule="evenodd" clip-rule="evenodd" d="M37.051,65.51v-2.386h-1.397v7.407h1.397v-3.141c0-0.482,0.43-0.94,0.937-0.94
			c0.486,0,1.021,0.324,1.021,0.94v3.141h1.342v-3.623c0-1.047-0.913-1.771-1.907-1.771C37.561,65.138,37.212,65.406,37.051,65.51"
			/>
		<polyline fill-rule="evenodd" clip-rule="evenodd" points="25.375,70.532 25.831,70.532 27.308,65.19 25.831,65.19 24.999,68.68 
			24.14,65.19 22.719,65.19 21.858,68.707 21.027,65.19 19.55,65.19 21.027,70.532 22.665,70.532 23.468,67.229 24.328,70.532 
			24.892,70.532 		"/>
		<path fill-rule="evenodd" clip-rule="evenodd" d="M59.409,67.095v0.806h0.967v1.316h-0.967v1.286h-1.475v-1.286h-4.001v-1.316
			l3.596-4.804h1.88v2.336 M57.934,67.205v0.696H55.57l2.364-3.14v0.858V67.205z"/>
		<rect x="28.353" y="65.217" width="1.342" height="5.314"/>
		<path fill-rule="evenodd" clip-rule="evenodd" d="M28.969,63.118c0.416,0,0.751,0.348,0.751,0.779c0,0.43-0.336,0.779-0.751,0.779
			c-0.415,0-0.751-0.349-0.751-0.779C28.218,63.466,28.555,63.118,28.969,63.118"/>
		<path fill-rule="evenodd" clip-rule="evenodd" d="M34.607,70.372l-0.241-1.155c-0.967,0.321-1.235,0.053-1.235-0.189v-2.629h1.37
			v-1.182h-1.37v-2.093L31.763,63.5v1.717h-0.858v1.182h0.858v3.085c0,0.672,0.403,1.182,1.423,1.182
			C33.91,70.666,34.446,70.452,34.607,70.372"/>
		<rect x="41.962" y="65.217" width="1.341" height="5.314"/>
		<path fill-rule="evenodd" clip-rule="evenodd" d="M42.607,63.118c0.431,0,0.779,0.348,0.779,0.779c0,0.43-0.348,0.779-0.779,0.779
			c-0.429,0-0.779-0.349-0.779-0.779C41.829,63.466,42.178,63.118,42.607,63.118"/>
		<path fill-rule="evenodd" clip-rule="evenodd" d="M49.612,67.043v3.488h-1.37v-3.354c0-0.403-0.322-0.779-0.911-0.779
			c-0.565,0-1.1,0.51-1.1,1.207v2.926h-1.37v-5.314h1.37v0.403c0,0,0.563-0.51,1.341-0.51C48.779,65.11,49.612,66.103,49.612,67.043
			"/>
		<path fill-rule="evenodd" clip-rule="evenodd" d="M64.883,63.07c1.048,0,3.114,0.617,3.114,3.839c0,3.194-1.932,3.838-3.114,3.838
			c-1.153,0-3.114-0.645-3.114-3.838C61.77,63.687,63.837,63.07,64.883,63.07 M64.883,64.466c0.78,0,1.558,0.458,1.583,2.388
			c0.029,1.906-0.697,2.498-1.583,2.498c-0.885,0-1.61-0.592-1.583-2.498C63.327,64.923,64.106,64.466,64.883,64.466z"/>
		<rect x="80.506" y="65.217" width="1.34" height="5.314"/>
		<path fill-rule="evenodd" clip-rule="evenodd" d="M81.148,63.118c0.431,0,0.779,0.348,0.779,0.779c0,0.43-0.348,0.779-0.779,0.779
			c-0.429,0-0.778-0.349-0.778-0.779C80.371,63.466,80.72,63.118,81.148,63.118"/>
		<path fill-rule="evenodd" clip-rule="evenodd" d="M89.174,69.646l1.021-0.886c0.375,0.43,1.206,0.806,1.557,0.806
			c0.349,0,0.697-0.269,0.697-0.538c0-0.269-0.215-0.375-0.403-0.428c-0.188-0.055-0.887-0.24-1.02-0.269
			c-0.134-0.027-1.396-0.244-1.396-1.529c0-1.316,1.37-1.638,2.202-1.638c0.83,0,1.583,0.242,2.147,0.776l-0.858,0.913
			c-0.512-0.427-0.86-0.589-1.289-0.589c-0.403,0-0.725,0.162-0.725,0.482c0,0.321,0.241,0.349,0.348,0.376
			c0.134,0.055,1.021,0.241,1.235,0.269c0.214,0.053,1.262,0.376,1.262,1.61c0,1.209-1.155,1.719-2.254,1.719
			C90.624,70.72,89.524,70.128,89.174,69.646"/>
		<path fill-rule="evenodd" clip-rule="evenodd" d="M78.922,66.909v3.623H77.58v-3.248c0-0.538-0.403-0.885-0.832-0.885
			c-0.431,0-0.939,0.376-0.939,1.045v3.088h-1.343v-3.275c0-0.51-0.401-0.858-0.805-0.858c-0.375,0-0.965,0.293-0.965,1.02v3.113
			h-1.342v-5.314h1.342v0.293c0,0,0.51-0.373,1.396-0.373c0.805,0,1.289,0.534,1.289,0.534c-0.028,0,0.564-0.589,1.45-0.589
			C78.197,65.083,78.922,66.023,78.922,66.909"/>
		<path fill-rule="evenodd" clip-rule="evenodd" d="M88.154,67.043v3.488h-1.37v-3.354c0-0.403-0.32-0.779-0.91-0.779
			c-0.564,0-1.102,0.51-1.102,1.207v2.926h-1.369v-5.314h1.369v0.403c0,0,0.563-0.51,1.316-0.51
			C87.324,65.11,88.154,66.103,88.154,67.043"/>
	</g>
	<g>
		<circle fill="#ED1C24" cx="54.842" cy="142.405" r="49.841"/>
		<circle fill="#FFFFFF" cx="54.842" cy="142.404" r="39.914"/>
		<path d="M21.235,149.832l8.055-1.422c0.263,4.266,3.79,6.266,7.212,6.266c3.633,0,5.738-1.896,5.738-5.055
			c0-3.104-1.79-4.631-5.527-4.631h-3.58v-6.74c8.792,0,8.792-4.053,8.792-4.053c0-3.002-2.211-4.738-6.212-4.738
			c-3.58,0-5.896,1.316-6.476,5.949l-7.896-1.16c0.947-7.105,6.949-11.422,14.53-11.422c8.16,0,13.583,4.895,13.583,10.949
			c0,2.211-0.105,5.844-4.001,7.793c4.317,2.209,4.106,4.367,4.106,8.264c0,7.477-3.527,11.793-13.846,11.793
			C27.343,161.625,22.447,157.676,21.235,149.832z"/>
		<path d="M73.846,161.836c-10.424,0-15.688-6.738-15.688-19.217c0-13.107,5.476-19.477,15.636-19.477
			c10.687,0,15.741,6.895,15.741,19.424C89.534,154.992,84.375,161.836,73.846,161.836z"/>
		<path fill="#FFFFFF" d="M73.898,130.195c-5.527,0-7.949,4.053-7.949,12.32c0,7.686,2.58,12.266,7.949,12.266
			c5.422,0,7.896-4.105,7.896-12.266C81.795,134.512,79.321,130.195,73.898,130.195z"/>
	</g>
</g>
</svg>
