<?xml version="1.0" encoding="utf-8"?>
<!-- Generator: Adobe Illustrator 16.0.0, SVG Export Plug-In . SVG Version: 6.00 Build 0)  -->
<!DOCTYPE svg PUBLIC "-//W3C//DTD SVG 1.1//EN" "http://www.w3.org/Graphics/SVG/1.1/DTD/svg11.dtd">
<svg version="1.1" id="Layer_1" xmlns="http://www.w3.org/2000/svg" xmlns:xlink="http://www.w3.org/1999/xlink" x="0px" y="0px"
	 width="200px" height="200px" viewBox="0 0 200 200" enable-background="new 0 0 200 200" xml:space="preserve">
<g>
	<rect x="5" y="69.156" fill="#FFFFFF" width="190" height="61.688"/>
	<path fill="none" stroke="#1B181B" d="M5,130.84 M194.998,130.84H5V69.156h189.998V130.84z"/>
	<path fill="#00A14B" d="M191.219,76.988c0-2.073-1.828-3.793-3.789-3.793H12.609c-1.96,0-3.787,1.71-3.787,3.783v46.569
		c0,2.072,1.826,3.787,3.787,3.787h174.829c1.964,0,3.79-1.715,3.79-3.787"/>
	<polyline fill="#FFFFFF" points="24.287,94.493 24.287,118.115 47.908,118.115 57.655,108.369 40.875,108.35 62.467,86.763 
		55.639,79.934 34.049,101.522 34.049,84.73 	"/>
	<polyline fill="#FFFFFF" points="131.601,78.386 145.795,78.386 145.795,82.12 136.039,82.12 136.039,86.785 144.494,86.785 
		144.494,90.235 136.039,90.235 136.039,98.575 131.601,98.575 	"/>
	<path fill="#FFFFFF" d="M152.072,81.694h-4.016v-3.309h4.016V81.694z M148.057,83.958h4.016v14.617h-4.016V83.958z"/>
	<path fill="#FFFFFF" d="M155.238,83.958h3.818v2.715h0.057c0.733-1.84,2.715-3.111,4.666-3.111c0.283,0,0.623,0.058,0.877,0.141
		v3.734c-0.368-0.087-0.962-0.143-1.443-0.143c-2.94,0-3.959,2.121-3.959,4.695v6.586h-4.016"/>
	<path fill="#FFFFFF" d="M169.043,92.244c0.115,2.543,1.356,3.703,3.591,3.703c1.613,0,2.912-0.991,3.168-1.896h3.533
		c-1.13,3.451-3.533,4.922-6.842,4.922c-4.61,0-7.466-3.167-7.466-7.69c0-4.384,3.026-7.721,7.466-7.721
		c4.978,0,7.38,4.185,7.097,8.683 M175.576,89.696c-0.368-2.034-1.246-3.107-3.196-3.107c-2.546,0-3.279,1.979-3.337,3.107H175.576z
		"/>
	<path fill="#FFFFFF" d="M134.484,115.703c0.114,2.543,1.356,3.705,3.59,3.705c1.612,0,2.913-0.991,3.168-1.898h3.533
		c-1.131,3.453-3.533,4.923-6.842,4.923c-4.609,0-7.464-3.168-7.464-7.691c0-4.383,3.024-7.721,7.464-7.721
		c4.978,0,7.38,4.186,7.097,8.683 M141.017,113.157c-0.368-2.036-1.245-3.109-3.196-3.109c-2.546,0-3.279,1.98-3.336,3.109H141.017z
		"/>
	<polyline fill="#FFFFFF" points="151.14,114.345 146.333,107.416 150.912,107.416 153.486,111.235 156.032,107.416 160.47,107.416 
		155.662,114.26 161.064,122.036 156.483,122.036 153.429,117.428 150.377,122.036 145.878,122.036 	"/>
	<path fill="#FFFFFF" d="M166.72,105.155h-4.016v-3.31h4.016V105.155z M162.704,107.416h4.016v14.62h-4.016V107.416z"/>
	<path fill="#FFFFFF" d="M174.976,107.416h2.94v2.688h-2.94v7.239c0,1.355,0.34,1.695,1.696,1.695c0.424,0,0.82-0.026,1.244-0.111
		v3.139c-0.68,0.111-1.555,0.141-2.347,0.141c-2.461,0-4.609-0.565-4.609-3.479v-8.624h-2.431v-2.688h2.431v-4.382h4.016"/>
	<g>
		<polygon fill-rule="evenodd" clip-rule="evenodd" fill="#00A14B" points="125.101,127.335 125.101,73.196 70.961,73.196 
			70.961,127.335 125.101,127.335 		"/>
		<path fill-rule="evenodd" clip-rule="evenodd" fill="#FFFFFF" d="M114.327,116.282v7.037l3.573,3.574H85.362l-3.615-3.617
			l0.014-46.501h32.503v33.459c1.977,0,3.309,0.945,4.14,1.774c0.832,0.831,2.174,4.313,2.174,4.313L114.327,116.282
			L114.327,116.282z"/>
		<path fill-rule="evenodd" clip-rule="evenodd" fill="#00A14B" d="M93.548,89.119c2.134,0,3.865-1.729,3.865-3.865
			c0-2.134-1.731-3.865-3.865-3.865c-2.135,0-3.865,1.731-3.865,3.865C89.683,87.39,91.413,89.119,93.548,89.119L93.548,89.119z"/>
		<path fill-rule="evenodd" clip-rule="evenodd" fill="#00A14B" d="M100.149,104.965c0,0-7.184,14.047-7.927,15.334
			c-0.744,1.286-1.689,1.4-2.29,1.4h-3.72l9.415-19.195l-2.947-6.345c0,0-2.346,3.147-3.148,4.005
			c-0.472,0.471-0.944,0.657-1.458,0.657h-6.913v-3.674h5.768c0,0,2.861-3.607,3.949-5.066c1.204-1.615,2.291-2.1,4.693-2.1h7.907
			c1.46,0,3.643-0.065,4.653,1.432l3.407,5.675V97.08c0.19,0.29,0.302,0.637,0.302,1.01c0,1.021-0.828,1.845-1.847,1.845
			c-0.664,0-1.243-0.347-1.567-0.87l0.092,0.127c0,0-2.988-4.821-3.103-5.165s-0.402-0.514-0.688-0.514h-3.892l3.119,6.16
			c1.116,2.347,1.058,6.781,1.058,6.781l0.373,3.862c0.003,0.461,0.284,0.602,0.487,0.602c0,0,5.207,0,6.064,0
			c3.178,0,4.716,0.651,5.694,1.631c0.979,0.979,1.346,2.72,1.346,2.72h-9.442h-5.665c-2.006,0-2.778-1.031-2.894-1.833l-0.34-3.437
			l-0.487-4.949V104.965L100.149,104.965z"/>
		<path fill-rule="evenodd" clip-rule="evenodd" fill="#00A14B" d="M91.487,127.021l-4.466-4.255h4.041
			c0.601,0,1.816,0.763,3.097,2.043c1.28,1.279,2.263,2.17,2.263,2.17L91.487,127.021L91.487,127.021z"/>
		<polygon fill-rule="evenodd" clip-rule="evenodd" fill="#00A14B" points="121.789,127.109 82.446,127.109 82.446,126.703 
			121.789,126.703 121.789,127.109 		"/>
	</g>
</g>
</svg>
