<?xml version="1.0" encoding="utf-8"?>
<!-- Generator: Adobe Illustrator 16.0.0, SVG Export Plug-In . SVG Version: 6.00 Build 0)  -->
<!DOCTYPE svg PUBLIC "-//W3C//DTD SVG 1.1//EN" "http://www.w3.org/Graphics/SVG/1.1/DTD/svg11.dtd">
<svg version="1.1" id="Layer_1" xmlns="http://www.w3.org/2000/svg" xmlns:xlink="http://www.w3.org/1999/xlink" x="0px" y="0px"
	 width="200px" height="200px" viewBox="0 0 200 200" enable-background="new 0 0 200 200" xml:space="preserve">
<g>
	<polygon fill-rule="evenodd" clip-rule="evenodd" fill="#00A14B" points="5,195 5,5 195,5 195,195 5,195 	"/>
	<path fill-rule="evenodd" clip-rule="evenodd" fill="#FFFFFF" d="M42.811,156.205v24.703l-12.538,12.539H144.46l12.687-12.689
		l-0.05-163.2H43.034v117.427c-6.939,0-11.619,3.316-14.532,6.23c-2.916,2.914-7.632,15.139-7.632,15.139L42.811,156.205
		L42.811,156.205z"/>
	<path fill-rule="evenodd" clip-rule="evenodd" fill="#00A14B" d="M115.734,60.881c-7.492,0-13.566-6.073-13.566-13.564
		s6.074-13.564,13.566-13.564c7.49,0,13.564,6.073,13.564,13.564S123.225,60.881,115.734,60.881L115.734,60.881z"/>
	<path fill-rule="evenodd" clip-rule="evenodd" fill="#00A14B" d="M92.569,116.494c0,0,25.205,49.291,27.816,53.811
		c2.61,4.52,5.924,4.92,8.034,4.92h13.055l-33.039-67.367l10.344-22.275c0,0,8.234,11.046,11.047,14.06
		c1.656,1.656,3.313,2.31,5.12,2.31h24.258V89.055h-20.24c0,0-10.043-12.661-13.858-17.783c-4.225-5.669-8.039-7.364-16.468-7.364
		H80.886c-5.121,0-12.785-0.235-16.335,5.021l-11.95,19.921l0.003-0.032c-0.669,1.019-1.056,2.237-1.056,3.547
		c0,3.576,2.898,6.477,6.476,6.477c2.321,0,4.356-1.221,5.5-3.055l-0.328,0.444c0,0,10.495-16.922,10.896-18.127
		c0.402-1.205,1.405-1.807,2.41-1.807h13.657L79.213,97.917c-3.917,8.233-3.717,23.798-3.717,23.798l-1.305,13.559
		c-0.009,1.619-1.005,2.109-1.707,2.109c0,0-18.277,0-21.29,0c-11.146,0-16.545,2.287-19.981,5.723
		c-3.437,3.438-4.72,9.541-4.72,9.541H59.63h19.884c7.029,0,9.741-3.615,10.144-6.426l1.193-12.062l1.719-17.363V116.494
		L92.569,116.494z"/>
	<path fill-rule="evenodd" clip-rule="evenodd" fill="#00A14B" d="M122.964,193.895l15.674-14.926h-14.181
		c-2.108,0-6.374,2.672-10.866,7.164c-4.493,4.492-7.94,7.611-7.94,7.611L122.964,193.895L122.964,193.895z"/>
	<polygon fill-rule="evenodd" clip-rule="evenodd" fill="#00A14B" points="163.088,193.93 25.018,193.93 25.018,192.5 
		163.088,192.5 163.088,193.93 	"/>
</g>
</svg>
