<?xml version="1.0" encoding="utf-8"?>
<!-- Generator: Adobe Illustrator 16.0.0, SVG Export Plug-In . SVG Version: 6.00 Build 0)  -->
<!DOCTYPE svg PUBLIC "-//W3C//DTD SVG 1.1//EN" "http://www.w3.org/Graphics/SVG/1.1/DTD/svg11.dtd">
<svg version="1.1" id="Layer_1" xmlns="http://www.w3.org/2000/svg" xmlns:xlink="http://www.w3.org/1999/xlink" x="0px" y="0px"
	 width="200px" height="200px" viewBox="0 0 200 200" enable-background="new 0 0 200 200" xml:space="preserve">
<g>
	<rect x="5" y="64.375" fill="#FFFFFF" stroke="#000000" stroke-miterlimit="10" width="190" height="71.25"/>
	<path fill-rule="evenodd" clip-rule="evenodd" fill="#0D9C4A" d="M13.55,68.175h172.899c2.613,0,4.75,2.137,4.75,4.75v54.149
		c0,2.613-2.137,4.75-4.75,4.75H13.55c-2.613,0-4.75-2.137-4.75-4.75V72.925C8.8,70.312,10.937,68.175,13.55,68.175"/>
	<polygon fill="#FFFFFE" points="154.572,98.203 152.12,110.635 140.218,110.635 137.447,115.57 156.14,115.57 158.901,102.199 
		169.167,123.906 174.623,123.906 163.305,99.974 168.107,91.069 173.586,97.187 180.794,97.187 180.794,123.949 175.707,129.01 
		169.054,129.01 173.101,125.338 167.565,125.338 164.315,129.01 137.22,129.01 142.927,124.057 142.927,116.926 134.997,116.926 
		139.175,109.227 142.927,109.227 142.927,71.401 180.794,71.401 180.794,93.309 175.318,93.309 167.329,84.389 150.531,84.389 
		145.049,93.93 148.408,95.86 152.774,88.267 159.831,88.267 	"/>
	<path fill="#0D9C4A" d="M167.873,74.384c-2.567,0-4.65,2.083-4.65,4.651c0,2.571,2.083,4.652,4.65,4.652
		c2.57,0,4.651-2.081,4.651-4.652C172.524,76.467,170.443,74.384,167.873,74.384"/>
	<path fill="#FFFFFE" d="M103.889,85.33c0,0,6.272-1.967,9.653-12.802c1.581,3.954,2.938,13.542-9.653,20.069V85.33z"/>
	<path fill="#FFFFFE" d="M105.044,96.72c0,0,6.021-1.113,10.001-10.094c1.225-2.765,3.748-10.001,13.704-10.001
		c-2.949,2.256-4.428,4.535-6.296,9.075C116.838,99.335,106.369,97.359,105.044,96.72"/>
	<path fill="#FFFFFE" d="M103.889,102.807c0,0,12.268-1.086,22.314-14.977c0,17.663-21.729,21.827-22.314,21.946V102.807z"/>
	<path fill="#FFFFFE" d="M105.044,114.541c0,0,6.308-0.641,12.594-7.174c5.88-6.111,12.63-3.844,14.909-1.947
		c-2.886-0.26-6.22,1.684-10.511,5.973C114.506,118.922,105.739,115.238,105.044,114.541"/>
	<path fill="#FFFFFE" d="M103.889,119.346c0,0,13.291,2.012,21.99-5.961c0.303-0.91-1.667,13.285-21.99,12.498V119.346z"/>
	<polygon fill="#FFFFFE" points="21.137,71.431 35.772,71.431 35.772,74.876 25.439,74.876 25.439,78.871 34.922,78.871 
		34.922,82.055 25.439,82.055 25.439,86.622 35.991,86.622 35.991,90.067 21.137,90.067 	"/>
	<polygon fill="#FFFFFE" points="42.103,82.967 37.444,76.572 41.884,76.572 44.378,80.096 46.845,76.572 51.146,76.572 
		46.487,82.888 51.723,90.067 47.282,90.067 44.323,85.814 41.363,90.067 37.005,90.067 	"/>
	<path fill="#FFFFFE" d="M57.204,74.485h-3.892v-3.053h3.892V74.485z M53.312,76.572h3.892v13.495h-3.892V76.572z"/>
	<path fill="#FFFFFE" d="M65.206,76.572h2.85v2.48h-2.85v6.682c0,1.254,0.329,1.566,1.644,1.566c0.411,0,0.795-0.027,1.206-0.104
		v2.898c-0.656,0.104-1.507,0.13-2.273,0.13c-2.385,0-4.468-0.522-4.468-3.21v-7.962h-2.357v-2.48h2.357v-4.045h3.892V76.572z"/>
	<path fill="#FFFFFE" d="M20.524,96.657h-1.278v-1.359h1.278v-0.572c0-1.304,0.856-2.248,2.6-2.248c0.375,0,0.767,0.044,1.127,0.057
		v1.518c-0.257-0.028-0.513-0.044-0.781-0.044c-0.571,0-0.812,0.23-0.812,0.846v0.444h1.473v1.359h-1.473v6.041h-2.133V96.657z"/>
	<path fill="#FFFFFE" d="M28.834,95.095c2.45,0,4.028,1.546,4.028,3.909c0,2.347-1.578,3.892-4.028,3.892
		c-2.435,0-4.013-1.545-4.013-3.892C24.821,96.641,26.399,95.095,28.834,95.095 M28.834,101.367c1.459,0,1.893-1.189,1.893-2.363
		c0-1.188-0.434-2.377-1.893-2.377c-1.442,0-1.877,1.189-1.877,2.377C26.957,100.178,27.392,101.367,28.834,101.367z"/>
	<path fill="#FFFFFE" d="M34.245,95.297h2.029v1.372h0.03c0.391-0.929,1.441-1.574,2.48-1.574c0.147,0,0.33,0.029,0.465,0.073v1.889
		c-0.195-0.042-0.511-0.072-0.767-0.072c-1.562,0-2.104,1.074-2.104,2.378v3.334h-2.134V95.297z"/>
	<path fill="#FFFFFE" d="M21.815,112.121c0.061,1.287,0.723,1.875,1.91,1.875c0.855,0,1.547-0.502,1.682-0.959h1.88
		c-0.602,1.746-1.88,2.49-3.638,2.49c-2.45,0-3.968-1.604-3.968-3.895c0-2.219,1.608-3.908,3.968-3.908
		c2.646,0,3.922,2.121,3.771,4.396H21.815z M25.288,110.832c-0.195-1.031-0.662-1.574-1.699-1.574c-1.353,0-1.743,1.002-1.773,1.574
		H25.288z"/>
	<path fill="#FFFFFE" d="M28.745,107.928h2.013v1.002h0.031c0.556-0.76,1.368-1.205,2.375-1.205c0.977,0,1.847,0.344,2.269,1.232
		c0.45-0.645,1.263-1.232,2.344-1.232c1.653,0,2.841,0.73,2.841,2.648v4.953h-2.134v-4.193c0-0.988-0.091-1.803-1.309-1.803
		c-1.2,0-1.428,0.945-1.428,1.875v4.121h-2.134v-4.15c0-0.859,0.061-1.846-1.292-1.846c-0.421,0-1.442,0.256-1.442,1.703v4.293
		h-2.134V107.928z"/>
	<path fill="#FFFFFE" d="M44.06,112.121c0.061,1.287,0.722,1.875,1.909,1.875c0.855,0,1.548-0.502,1.683-0.959h1.879
		c-0.603,1.746-1.879,2.49-3.637,2.49c-2.45,0-3.968-1.604-3.968-3.895c0-2.219,1.607-3.908,3.968-3.908
		c2.646,0,3.922,2.121,3.771,4.396H44.06z M47.531,110.832c-0.195-1.031-0.661-1.574-1.698-1.574c-1.353,0-1.744,1.002-1.773,1.574
		H47.531z"/>
	<path fill="#FFFFFE" d="M50.928,107.928h2.029v1.373h0.029c0.392-0.93,1.442-1.576,2.479-1.576c0.15,0,0.33,0.029,0.467,0.072
		v1.891c-0.197-0.043-0.512-0.072-0.767-0.072c-1.563,0-2.104,1.074-2.104,2.377v3.334h-2.134V107.928z"/>
	<path fill="#FFFFFE" d="M64.243,114.855c0,1.215-0.451,3.277-4.028,3.277c-1.532,0-3.32-0.688-3.427-2.377h2.12
		c0.195,0.76,0.842,1.016,1.593,1.016c1.188,0,1.729-0.773,1.713-1.83v-0.975h-0.028c-0.467,0.771-1.399,1.146-2.331,1.146
		c-2.33,0-3.32-1.689-3.32-3.723c0-1.918,1.156-3.666,3.336-3.666c1.022,0,1.803,0.33,2.315,1.189h0.028v-0.986h2.029V114.855z
		 M62.214,111.535c0-1.203-0.437-2.277-1.817-2.277c-1.203,0-1.729,1.002-1.729,2.105c0,1.057,0.421,2.217,1.729,2.217
		C61.612,113.58,62.214,112.594,62.214,111.535z"/>
	<path fill="#FFFFFE" d="M67.716,112.121c0.059,1.287,0.721,1.875,1.907,1.875c0.857,0,1.548-0.502,1.685-0.959h1.877
		c-0.601,1.746-1.877,2.49-3.635,2.49c-2.45,0-3.97-1.604-3.97-3.895c0-2.219,1.608-3.908,3.97-3.908
		c2.644,0,3.922,2.121,3.771,4.396H67.716z M71.187,110.832c-0.194-1.031-0.66-1.574-1.697-1.574c-1.353,0-1.745,1.002-1.773,1.574
		H71.187z"/>
	<path fill="#FFFFFE" d="M74.583,107.928h2.028v1.029h0.046c0.541-0.83,1.474-1.232,2.375-1.232c2.27,0,2.841,1.219,2.841,3.051
		v4.551h-2.136v-4.18c0-1.217-0.376-1.816-1.367-1.816c-1.157,0-1.654,0.615-1.654,2.117v3.879h-2.133V107.928z"/>
	<path fill="#FFFFFE" d="M88.785,110.531c-0.135-0.828-0.69-1.273-1.578-1.273c-1.367,0-1.818,1.316-1.818,2.404
		c0,1.059,0.437,2.334,1.774,2.334c0.991,0,1.563-0.602,1.697-1.504h2.061c-0.271,1.963-1.699,3.035-3.743,3.035
		c-2.345,0-3.923-1.574-3.923-3.793c0-2.305,1.443-4.01,3.968-4.01c1.834,0,3.518,0.916,3.652,2.807H88.785z"/>
	<path fill="#FFFFFE" d="M95.954,116.258c-0.465,1.188-1.202,1.674-2.675,1.674c-0.436,0-0.872-0.029-1.306-0.072v-1.674
		c0.403,0.029,0.824,0.086,1.245,0.072c0.736-0.072,0.977-0.801,0.736-1.389l-2.734-6.941h2.285l1.758,5.064h0.03l1.697-5.064h2.21
		L95.954,116.258z"/>
	<path fill="#FFFFFE" d="M27.348,127.957h-2.031v-1.031h-0.044c-0.54,0.83-1.474,1.23-2.374,1.23c-2.271,0-2.841-1.215-2.841-3.047
		v-4.553h2.136v4.178c0,1.219,0.375,1.818,1.367,1.818c1.156,0,1.651-0.615,1.651-2.117v-3.879h2.136V127.957z"/>
	<path fill="#FFFFFE" d="M30.623,125.551c0.015,0.889,0.796,1.248,1.638,1.248c0.616,0,1.398-0.23,1.398-0.945
		c0-0.617-0.888-0.832-2.42-1.146c-1.232-0.256-2.466-0.672-2.466-1.975c0-1.891,1.715-2.377,3.384-2.377
		c1.697,0,3.26,0.545,3.425,2.361h-2.027c-0.061-0.787-0.692-1.002-1.458-1.002c-0.481,0-1.188,0.086-1.188,0.688
		c0,0.73,1.202,0.83,2.42,1.104c1.248,0.271,2.464,0.701,2.464,2.074c0,1.947-1.773,2.576-3.547,2.576
		c-1.804,0-3.562-0.645-3.652-2.605H30.623z"/>
	<path fill="#FFFFFE" d="M38.799,124.75c0.061,1.289,0.722,1.877,1.909,1.877c0.855,0,1.548-0.502,1.683-0.961h1.879
		c-0.602,1.746-1.879,2.49-3.638,2.49c-2.449,0-3.967-1.604-3.967-3.893c0-2.219,1.607-3.908,3.967-3.908
		c2.646,0,3.923,2.119,3.772,4.395H38.799z M42.271,123.461c-0.195-1.029-0.661-1.574-1.699-1.574c-1.352,0-1.742,1.002-1.772,1.574
		H42.271z"/>
	<path fill="#FFFFFE" d="M53.617,120.355c2.45,0,4.028,1.545,4.028,3.908c0,2.348-1.578,3.893-4.028,3.893
		c-2.435,0-4.013-1.545-4.013-3.893C49.604,121.9,51.183,120.355,53.617,120.355 M53.617,126.627c1.459,0,1.895-1.189,1.895-2.363
		c0-1.188-0.436-2.377-1.895-2.377c-1.443,0-1.879,1.189-1.879,2.377C51.738,125.438,52.174,126.627,53.617,126.627z"/>
	<path fill="#FFFFFE" d="M59.027,120.557h2.029v1.029h0.044c0.543-0.828,1.474-1.23,2.377-1.23c2.268,0,2.84,1.217,2.84,3.049v4.553
		h-2.135v-4.18c0-1.219-0.376-1.816-1.367-1.816c-1.157,0-1.652,0.613-1.652,2.115v3.881h-2.136V120.557z"/>
	<rect x="68" y="117.736" fill="#FFFFFE" width="2.135" height="10.221"/>
	<path fill="#FFFFFE" d="M75.65,128.887c-0.467,1.188-1.202,1.674-2.676,1.674c-0.437,0-0.871-0.027-1.307-0.07v-1.676
		c0.405,0.029,0.827,0.086,1.248,0.072c0.735-0.072,0.977-0.801,0.735-1.389l-2.734-6.941H73.2l1.758,5.066h0.03l1.699-5.066h2.21
		L75.65,128.887z"/>
</g>
</svg>
