<?xml version="1.0" encoding="utf-8"?>
<!-- Generator: Adobe Illustrator 16.0.0, SVG Export Plug-In . SVG Version: 6.00 Build 0)  -->
<!DOCTYPE svg PUBLIC "-//W3C//DTD SVG 1.1//EN" "http://www.w3.org/Graphics/SVG/1.1/DTD/svg11.dtd">
<svg version="1.1" id="Layer_1" xmlns="http://www.w3.org/2000/svg" xmlns:xlink="http://www.w3.org/1999/xlink" x="0px" y="0px"
	 width="200px" height="200px" viewBox="0 0 200 200" enable-background="new 0 0 200 200" xml:space="preserve">
<g>
	<g>
		<path fill="#00A350" d="M14.501,194.998C9.274,194.998,5,190.721,5,185.5V14.499c0-5.221,4.274-9.497,9.501-9.497H185.5
			c5.225,0,9.5,4.276,9.5,9.497V185.5c0,5.221-4.275,9.498-9.5,9.498"/>
		<polyline fill="#FFFFFF" points="45.599,187.876 30.043,172.41 30.043,11.766 170.725,11.766 170.725,172.736 188.171,187.876 		
			"/>
		<path fill="#00A350" d="M121.804,125.576c0.004,0.131,0.007,0.254,0.007,0.385c0,19.933-16.213,36.146-36.143,36.146
			c-9.654,0-18.733-3.76-25.561-10.584c-6.823-6.827-10.584-15.906-10.584-25.562c0-9.65,3.761-18.729,10.584-25.557
			c1.594-1.59,3.306-3.013,5.125-4.26l-1.167-15.337c-16.819,8.082-28.457,25.284-28.457,45.153c0,13.37,5.209,25.944,14.662,35.399
			c9.454,9.459,22.025,14.662,35.397,14.662c13.371,0,25.943-5.203,35.395-14.662c4.221-4.215,7.589-9.06,10.032-14.308"/>
		<path fill="#00A350" d="M141.73,159.632l-20.006-47.743H72.354l-5.131-67.435c-0.727-1.612-1.133-3.394-1.133-5.274
			c0-7.105,5.753-12.856,12.856-12.856c7.102,0,12.862,5.751,12.862,12.856c0,6.8-5.282,12.363-11.965,12.825l2.075,27.468h34.109
			V91.49H82.84l0.645,8.382h46.135l18.954,44.862l14.454-6.062l4.271,10.244"/>
	</g>
</g>
</svg>
