<?xml version="1.0" encoding="utf-8"?>
<!-- Generator: Adobe Illustrator 16.0.0, SVG Export Plug-In . SVG Version: 6.00 Build 0)  -->
<!DOCTYPE svg PUBLIC "-//W3C//DTD SVG 1.1//EN" "http://www.w3.org/Graphics/SVG/1.1/DTD/svg11.dtd">
<svg version="1.1" id="Layer_1" xmlns="http://www.w3.org/2000/svg" xmlns:xlink="http://www.w3.org/1999/xlink" x="0px" y="0px"
	 width="200px" height="200px" viewBox="0 0 200 200" enable-background="new 0 0 200 200" xml:space="preserve">
<g>
	<rect x="5" y="52.5" fill="#FFFFFF" stroke="#231F20" stroke-miterlimit="10" width="190" height="95"/>
	<path fill="#0D9C4A" d="M191.199,140.85c0,1.567-1.282,2.851-2.851,2.851h-176.7c-1.567,0-2.849-1.283-2.849-2.851V59.15
		c0-1.566,1.281-2.851,2.849-2.851h176.7c1.568,0,2.851,1.284,2.851,2.851V140.85z"/>
	<polygon fill="#FFFFFF" points="184.075,93.638 165.551,75.11 147.026,93.638 147.026,108.927 160.196,95.777 160.196,124.895 
		170.908,124.895 170.908,95.777 184.075,108.954 	"/>
	<path fill="#FFFFFF" d="M26.277,78.225L26.277,78.225h3.906l-1.898-5.531h-0.044L26.277,78.225z M26.595,68.977h3.399l5.638,15.076
		h-3.44l-1.141-3.355h-5.637l-1.184,3.355h-3.355L26.595,68.977z"/>
	<rect x="36.71" y="68.977" fill="#FFFFFF" width="2.998" height="15.076"/>
	<rect x="42.157" y="68.977" fill="#FFFFFF" width="2.998" height="15.076"/>
	<path fill="#FFFFFF" d="M54.319,78.711L54.319,78.711c-0.507,0.444-1.562,0.464-2.491,0.633c-0.929,0.191-1.773,0.509-1.773,1.605
		c0,1.118,0.864,1.394,1.836,1.394c2.344,0,2.429-1.857,2.429-2.513V78.711z M47.395,76.493c0.167-2.808,2.681-3.652,5.128-3.652
		c2.177,0,4.795,0.486,4.795,3.105v5.679c0,0.992,0.104,1.983,0.38,2.428h-3.041c-0.104-0.338-0.189-0.697-0.209-1.056
		c-0.952,0.992-2.347,1.351-3.676,1.351c-2.072,0-3.717-1.033-3.717-3.271c0-2.472,1.861-3.063,3.717-3.316
		c1.836-0.274,3.548-0.211,3.548-1.437c0-1.286-0.887-1.478-1.944-1.478c-1.139,0-1.879,0.466-1.982,1.646H47.395z"/>
	<path fill="#FFFFFF" d="M59.638,73.138h2.851v1.521h0.065c0.76-1.226,2.068-1.817,3.335-1.817c3.188,0,3.99,1.795,3.99,4.498v6.714
		h-2.998v-6.165c0-1.794-0.527-2.682-1.922-2.682c-1.626,0-2.32,0.907-2.32,3.124v5.723h-3.001V73.138z"/>
	<path fill="#FFFFFF" d="M72.814,75.144h-1.794v-2.006h1.794v-0.845c0-1.922,1.204-3.316,3.652-3.316
		c0.53,0,1.077,0.063,1.584,0.085v2.239c-0.359-0.044-0.717-0.063-1.1-0.063c-0.799,0-1.139,0.336-1.139,1.244v0.656h2.068v2.006
		h-2.068v8.909h-2.998V75.144z"/>
	<path fill="#FFFFFF" d="M85.991,78.711L85.991,78.711c-0.511,0.444-1.564,0.464-2.494,0.633c-0.927,0.191-1.774,0.509-1.774,1.605
		c0,1.118,0.868,1.394,1.84,1.394c2.34,0,2.429-1.857,2.429-2.513V78.711z M79.062,76.493c0.17-2.808,2.684-3.652,5.132-3.652
		c2.176,0,4.791,0.486,4.791,3.105v5.679c0,0.992,0.107,1.983,0.383,2.428h-3.044c-0.104-0.338-0.187-0.697-0.209-1.056
		c-0.949,0.992-2.344,1.351-3.672,1.351c-2.068,0-3.719-1.033-3.719-3.271c0-2.472,1.859-3.063,3.719-3.316
		c1.836-0.274,3.548-0.211,3.548-1.437c0-1.286-0.888-1.478-1.944-1.478c-1.143,0-1.879,0.466-1.987,1.646H79.062z"/>
	<path fill="#FFFFFF" d="M43.14,97.89L43.14,97.89c-1.964,0-2.64,1.689-2.64,3.486c0,1.708,0.78,3.502,2.64,3.502
		c1.983,0,2.575-1.731,2.575-3.525C45.715,99.579,45.082,97.89,43.14,97.89 M45.756,105.447h-0.041
		c-0.697,1.185-1.921,1.688-3.315,1.688c-3.294,0-4.897-2.827-4.897-5.845c0-2.936,1.625-5.659,4.834-5.659
		c1.288,0,2.554,0.547,3.252,1.627h-0.02h0.04v-5.492h3v15.075h-2.853V105.447z"/>
	<path fill="#FFFFFF" d="M57.668,101.5L57.668,101.5c-0.508,0.445-1.565,0.465-2.494,0.635c-0.93,0.189-1.774,0.508-1.774,1.604
		c0,1.119,0.868,1.395,1.84,1.395c2.343,0,2.429-1.858,2.429-2.513V101.5z M54.438,91.576L54.438,91.576h2.742l2.324,2.998h-2.472
		l-1.309-1.71l-1.352,1.71h-2.281L54.438,91.576z M50.742,99.285c0.167-2.809,2.681-3.653,5.129-3.653
		c2.173,0,4.794,0.484,4.794,3.103v5.679c0,0.995,0.105,1.986,0.38,2.429h-3.04c-0.108-0.338-0.189-0.697-0.213-1.055
		c-0.949,0.992-2.344,1.349-3.672,1.349c-2.072,0-3.718-1.034-3.718-3.27c0-2.471,1.858-3.06,3.718-3.315
		c1.836-0.274,3.548-0.213,3.548-1.437c0-1.286-0.888-1.479-1.944-1.479c-1.14,0-1.879,0.468-1.983,1.65H50.742z"/>
	<path fill="#FFFFFF" d="M62.985,95.927h2.852v1.521h0.064c0.76-1.228,2.065-1.816,3.335-1.816c3.188,0,3.99,1.794,3.99,4.497v6.713
		h-2.998v-6.163c0-1.797-0.526-2.684-1.921-2.684c-1.627,0-2.323,0.906-2.323,3.125v5.722h-2.999V95.927z"/>
	<polygon fill="#FFFFFF" points="17.62,114.559 28.22,114.559 28.22,117.344 20.937,117.344 20.937,120.826 27.248,120.826 
		27.248,123.402 20.937,123.402 20.937,129.63 17.62,129.63 	"/>
	<path fill="#FFFFFF" d="M29.486,118.716L29.486,118.716h2.998v10.914h-2.998V118.716z M32.484,117.026h-2.998v-2.471h2.998V117.026
		z"/>
	<path fill="#FFFFFF" d="M34.005,118.716h2.851v2.025h0.043c0.548-1.368,2.025-2.32,3.482-2.32c0.211,0,0.466,0.042,0.655,0.104
		v2.788c-0.274-0.064-0.718-0.104-1.078-0.104c-2.194,0-2.953,1.584-2.953,3.502v4.919h-3V118.716z"/>
	<path fill="#FFFFFF" d="M49.19,123.003L49.19,123.003c-0.274-1.522-0.93-2.323-2.387-2.323c-1.9,0-2.448,1.479-2.489,2.323H49.19z
		 M44.314,124.904c0.083,1.898,1.012,2.762,2.681,2.762c1.204,0,2.176-0.735,2.365-1.413h2.639c-0.845,2.575-2.639,3.675-5.11,3.675
		c-3.441,0-5.574-2.366-5.574-5.743c0-3.27,2.259-5.764,5.574-5.764c3.716,0,5.51,3.125,5.301,6.483H44.314z"/>
	<path fill="#FFFFFF" d="M67.179,123.003L67.179,123.003c-0.271-1.522-0.927-2.323-2.383-2.323c-1.901,0-2.451,1.479-2.494,2.323
		H67.179z M62.302,124.904c0.085,1.898,1.015,2.762,2.684,2.762c1.201,0,2.173-0.735,2.363-1.413h2.638
		c-0.844,2.575-2.638,3.675-5.108,3.675c-3.44,0-5.574-2.366-5.574-5.743c0-3.27,2.262-5.764,5.574-5.764
		c3.714,0,5.511,3.125,5.302,6.483H62.302z"/>
	<polygon fill="#FFFFFF" points="74.739,123.89 71.148,118.716 74.568,118.716 76.489,121.566 78.391,118.716 81.707,118.716 
		78.116,123.824 82.151,129.63 78.731,129.63 76.45,126.19 74.169,129.63 70.812,129.63 	"/>
	<path fill="#FFFFFF" d="M83.376,118.716L83.376,118.716h2.998v10.914h-2.998V118.716z M86.374,117.026h-2.998v-2.471h2.998V117.026
		z"/>
	<path fill="#FFFFFF" d="M92.536,118.716h2.196v2.006h-2.196v5.403c0,1.015,0.256,1.27,1.267,1.27c0.318,0,0.612-0.022,0.93-0.085
		v2.344c-0.507,0.085-1.162,0.104-1.751,0.104c-1.839,0-3.443-0.422-3.443-2.596v-6.44h-1.816v-2.006h1.816v-3.273h2.998V118.716z"
		/>
	<path fill-rule="evenodd" clip-rule="evenodd" fill="#FFFFFF" d="M105.134,114.549v7.12l-3.615,3.615h32.912l3.657-3.656
		l-0.013-47.04h-32.878v33.844c-1.999,0-3.348,0.959-4.188,1.797c-0.84,0.842-2.201,4.366-2.201,4.366L105.134,114.549z"/>
	<path fill-rule="evenodd" clip-rule="evenodd" fill="#0D9C4A" d="M126.152,87.076c-2.161,0-3.911-1.752-3.911-3.91
		c0-2.16,1.75-3.911,3.911-3.911c2.158,0,3.909,1.751,3.909,3.911C130.062,85.324,128.311,87.076,126.152,87.076"/>
	<path fill-rule="evenodd" clip-rule="evenodd" fill="#0D9C4A" d="M119.476,103.105c0,0,7.264,14.206,8.017,15.507
		c0.753,1.306,1.707,1.418,2.317,1.418h3.762l-9.522-19.416l2.98-6.417c0,0,2.374,3.18,3.185,4.052
		c0.478,0.476,0.955,0.664,1.476,0.664h6.992v-3.716h-5.834c0,0-2.896-3.649-3.996-5.127c-1.217-1.635-2.316-2.122-4.743-2.122
		h-8.001c-1.476,0-3.684-0.069-4.708,1.446l-3.443,5.741v-0.008c-0.192,0.295-0.304,0.645-0.304,1.022
		c0,1.029,0.836,1.864,1.865,1.864c0.67,0,1.257-0.351,1.586-0.879l-0.095,0.128c0,0,3.023-4.877,3.142-5.224
		c0.114-0.35,0.404-0.523,0.693-0.523h3.937l-3.155,6.234c-1.128,2.373-1.07,6.86-1.07,6.86l-0.377,3.907
		c-0.001,0.465-0.289,0.609-0.492,0.609c0,0-5.268,0-6.135,0c-3.214,0-4.771,0.655-5.761,1.647c-0.99,0.988-1.359,2.747-1.359,2.747
		h9.552h5.729c2.026,0,2.809-1.042,2.925-1.849l0.344-3.479l0.496-5.002V103.105z"/>
	<path fill-rule="evenodd" clip-rule="evenodd" fill="#0D9C4A" d="M128.234,125.412l4.519-4.301h-4.087
		c-0.607,0-1.837,0.769-3.133,2.062c-1.295,1.298-2.288,2.197-2.288,2.197L128.234,125.412z"/>
</g>
</svg>
