<?xml version="1.0" encoding="utf-8"?>
<!-- Generator: Adobe Illustrator 16.0.0, SVG Export Plug-In . SVG Version: 6.00 Build 0)  -->
<!DOCTYPE svg PUBLIC "-//W3C//DTD SVG 1.1//EN" "http://www.w3.org/Graphics/SVG/1.1/DTD/svg11.dtd">
<svg version="1.1" id="Layer_1" xmlns="http://www.w3.org/2000/svg" xmlns:xlink="http://www.w3.org/1999/xlink" x="0px" y="0px"
	 width="200px" height="200px" viewBox="0 0 200 200" enable-background="new 0 0 200 200" xml:space="preserve">
<g>
	<rect x="5" y="52.5" fill="#FFFFFF" stroke="#1A1A18" stroke-miterlimit="10" width="190" height="95"/>
	<path fill="#0D9C4A" d="M10.557,64.252c0-3.201,2.823-5.856,5.852-5.856h166.887c3.029,0,5.855,2.646,5.855,5.844v71.937
		c0,3.203-2.826,5.851-5.855,5.851H16.396c-3.033,0-5.854-2.647-5.854-5.851L10.557,64.252z"/>
	<polygon fill="#FFFFFF" points="23.494,64.978 45.42,64.978 45.42,70.745 30.346,70.745 30.346,77.953 43.407,77.953 43.407,83.28 
		30.346,83.28 30.346,96.167 23.494,96.167 	"/>
	<path fill="#FFFFFF" d="M48.911,73.585L48.911,73.585h6.204v22.582h-6.204V73.585z M55.117,70.09h-6.203v-5.112h6.203V70.09z"/>
	<path fill="#FFFFFF" d="M60.006,73.585h5.9v4.192h0.086c1.135-2.839,4.196-4.804,7.209-4.804c0.438,0,0.958,0.086,1.353,0.217
		v5.768c-0.569-0.131-1.487-0.22-2.229-0.22c-4.543,0-6.112,3.277-6.112,7.254v10.175h-6.206V73.585z"/>
	<path fill="#FFFFFF" d="M91.422,82.45L91.422,82.45c-0.569-3.143-1.921-4.804-4.934-4.804c-3.935,0-5.069,3.06-5.155,4.804H91.422z
		 M81.333,86.382c0.175,3.933,2.096,5.724,5.547,5.724c2.489,0,4.499-1.529,4.891-2.927h5.46c-1.746,5.329-5.46,7.603-10.571,7.603
		c-7.118,0-11.532-4.896-11.532-11.883c0-6.771,4.677-11.925,11.532-11.925c7.69,0,11.403,6.464,10.966,13.408H81.333z"/>
	<path fill="#FFFFFF" d="M38.039,118.688L38.039,118.688c-0.571-3.142-1.924-4.806-4.937-4.806c-3.934,0-5.069,3.062-5.155,4.806
		H38.039z M27.947,122.619c0.175,3.934,2.096,5.724,5.546,5.724c2.493,0,4.5-1.527,4.893-2.928h5.459
		c-1.746,5.331-5.459,7.604-10.571,7.604c-7.117,0-11.532-4.895-11.532-11.882c0-6.771,4.677-11.926,11.532-11.926
		c7.69,0,11.403,6.464,10.967,13.407H27.947z"/>
	<polygon fill="#FFFFFF" points="53.676,120.523 46.25,109.823 53.324,109.823 57.301,115.719 61.232,109.823 68.09,109.823 
		60.663,120.396 69.008,132.404 61.929,132.404 57.21,125.286 52.496,132.404 45.549,132.404 	"/>
	<path fill="#FFFFFF" d="M71.537,109.823L71.537,109.823h6.204v22.581h-6.204V109.823z M77.743,106.33h-6.202v-5.113h6.202V106.33z"
		/>
	<path fill="#FFFFFF" d="M90.496,109.823h4.543v4.148h-4.543v11.184c0,2.096,0.524,2.621,2.619,2.621
		c0.655,0,1.27-0.043,1.924-0.177v4.851c-1.05,0.173-2.404,0.22-3.628,0.22c-3.799,0-7.12-0.877-7.12-5.374v-13.324h-3.754v-4.148
		h3.754v-6.771h6.205V109.823z"/>
	<rect x="103.993" y="58.396" fill-rule="evenodd" clip-rule="evenodd" fill="#0D9C4A" width="72.411" height="83.633"/>
	<path fill-rule="evenodd" clip-rule="evenodd" fill="#FFFFFF" d="M120.635,124.956v10.869l-5.521,5.521h50.264l5.585-5.587
		l-0.023-71.835h-50.208v51.688c-3.054,0-5.111,1.461-6.396,2.74c-1.284,1.284-3.357,6.663-3.357,6.663L120.635,124.956z"/>
	<path fill-rule="evenodd" clip-rule="evenodd" fill="#0D9C4A" d="M152.734,82.991c-3.297,0-5.971-2.672-5.971-5.971
		c0-3.296,2.674-5.971,5.971-5.971c3.296,0,5.97,2.675,5.97,5.971C158.704,80.319,156.03,82.991,152.734,82.991"/>
	<path fill-rule="evenodd" clip-rule="evenodd" fill="#0D9C4A" d="M142.537,107.473c0,0,11.097,21.699,12.244,23.686
		c1.148,1.987,2.609,2.164,3.536,2.164h5.746l-14.542-29.651l4.552-9.806c0,0,3.625,4.861,4.864,6.189
		c0.729,0.727,1.458,1.018,2.254,1.018h10.678v-5.68h-8.909c0,0-4.422-5.571-6.101-7.826c-1.86-2.495-3.539-3.243-7.25-3.243
		h-12.215c-2.255,0-5.626-0.102-7.189,2.212l-5.262,8.767v-0.013c-0.294,0.447-0.466,0.983-0.466,1.561
		c0,1.574,1.279,2.851,2.852,2.851c1.026,0,1.921-0.536,2.422-1.345l-0.142,0.197c0,0,4.615-7.449,4.792-7.98
		c0.178-0.531,0.623-0.794,1.062-0.794h6.012l-4.819,9.518c-1.724,3.627-1.632,10.477-1.632,10.477l-0.577,5.967
		c-0.004,0.712-0.439,0.93-0.753,0.93c0,0-8.043,0-9.368,0c-4.909,0-7.286,1.006-8.797,2.518c-1.512,1.512-2.078,4.202-2.078,4.202
		h14.585h8.752c3.1,0,4.292-1.594,4.47-2.832l0.525-5.309l0.754-7.644V107.473z"/>
	<path fill-rule="evenodd" clip-rule="evenodd" fill="#0D9C4A" d="M155.917,141.543l6.897-6.572h-6.241
		c-0.927,0-2.806,1.179-4.784,3.155c-1.977,1.977-3.494,3.352-3.494,3.352L155.917,141.543z"/>
	<rect x="109.108" y="141.053" fill-rule="evenodd" clip-rule="evenodd" fill="#0D9C4A" width="60.774" height="0.627"/>
</g>
</svg>
