<?xml version="1.0" encoding="UTF-8"?>
<!DOCTYPE svg PUBLIC "-//W3C//DTD SVG 1.1//EN" "http://www.w3.org/Graphics/SVG/1.1/DTD/svg11.dtd">
<!-- Creator: CorelDRAW X8 -->
<svg xmlns="http://www.w3.org/2000/svg" xml:space="preserve" width="16.9332mm" height="12.6998mm" version="1.1" style="shape-rendering:geometricPrecision; text-rendering:geometricPrecision; image-rendering:optimizeQuality; fill-rule:evenodd; clip-rule:evenodd"
viewBox="0 0 1693 1270"
 xmlns:xlink="http://www.w3.org/1999/xlink">
 <defs>
  <style type="text/css">
   <![CDATA[
    .str0 {stroke:#2B2A29;stroke-width:20}
    .str1 {stroke:#21251E;stroke-width:41.81}
    .str3 {stroke:#21251E;stroke-width:29.87}
    .str2 {stroke:#21251E;stroke-width:32.85}
    .fil4 {fill:none}
    .fil7 {fill:none;fill-rule:nonzero}
    .fil1 {fill:#FEFEFE}
    .fil8 {fill:#B8292F}
    .fil0 {fill:#009745}
    .fil3 {fill:#FEFEFE;fill-rule:nonzero}
    .fil6 {fill:#2B2A29;fill-rule:nonzero}
    .fil5 {fill:#FFED00;fill-rule:nonzero}
    .fil2 {fill:#006EC7;fill-rule:nonzero}
   ]]>
  </style>
 </defs>
 <g id="Layer_x0020_1">
  <metadata id="CorelCorpID_0Corel-Layer"/>
  <g id="_1338791568">
   <polygon class="fil0" points="1369,85 325,85 325,1185 1369,1185 "/>
   <path class="fil1" d="M1206 961l0 143 73 72 -661 0 -74 -73 0 -946 661 0 0 681c40,0 67,19 84,36 17,17 44,87 44,87l-127 0z"/>
   <path class="fil0" d="M784 408c43,0 78,-35 78,-78 0,-44 -35,-79 -78,-79 -43,0 -79,35 -79,79 0,43 36,78 79,78z"/>
   <path class="fil0" d="M918 731c0,0 -146,285 -161,311 -15,26 -34,29 -47,29l-75 0 191 -390 -60 -130c0,0 -47,64 -64,82 -9,10 -19,13 -29,13l-141 0 0 -74 117 0c0,0 59,-74 81,-103 24,-33 46,-43 95,-43l161 0c29,0 74,-1 94,29l70 115 0 0c4,6 6,13 6,21 0,20 -17,37 -38,37 -13,0 -25,-7 -32,-17l2 2c0,0 -61,-98 -63,-105 -2,-7 -8,-10 -14,-10l-79 0 63 125c23,48 22,138 22,138l8 78c0,10 5,13 9,13l124 0c64,0 96,13 116,33 19,20 27,55 27,55l-192 0 -115 0c-41,0 -57,-21 -59,-37l-7 -70 -10 -101 0 -1z"/>
   <path class="fil0" d="M742 1179l-91 -87 82 0c13,0 37,16 63,42 26,26 46,44 46,44l-100 1z"/>
   <polygon class="fil0" points="1358,1181 558,1181 558,1172 1358,1172 "/>
  </g>
  <g id="_1338822864">
   <path class="fil2" d="M-1245 2780c327,0 593,265 593,593 0,327 -266,592 -593,592 -327,0 -593,-265 -593,-592 0,-328 266,-593 593,-593z"/>
   <path class="fil3" d="M-1369 3001l54 502c0,0 12,62 64,62 60,0 70,-61 70,-61l55 -504c0,0 -7,-122 -121,-122 -121,0 -122,123 -122,123z"/>
   <path class="fil3" d="M-1245 3871c66,0 120,-54 120,-120 0,-66 -54,-120 -120,-120 -67,0 -120,54 -120,120 0,66 53,120 120,120z"/>
  </g>
  <g id="_1338827056">
   <rect class="fil4 str0" x="-2052" y="1388" width="1693" height="1270"/>
   <g>
    <polygon class="fil5" points="-1202,1534 -1777,2536 -636,2536 "/>
    <path class="fil6" d="M-1766 2531l564 -983 554 983 -1118 0zm1224 11l-619 -1088c0,0 -10,-23 -40,-23 -31,0 -45,23 -45,23l-622 1085c0,0 -16,27 -1,52 0,0 15,25 39,25l1241 0c0,0 33,1 47,-25 11,-22 5,-39 0,-49z"/>
    <path class="fil6" d="M-1297 1839l40 378c0,0 9,47 48,47 46,0 53,-46 53,-46l41 -380c0,0 -5,-91 -91,-91 -91,0 -91,92 -91,92z"/>
    <path class="fil6" d="M-1204 2494c50,0 90,-40 90,-90 0,-50 -40,-90 -90,-90 -50,0 -91,40 -91,90 0,50 41,90 91,90z"/>
   </g>
  </g>
  <rect class="fil4 str0" x="-2048" y="-22" width="1693" height="1270"/>
  <g id="ISO_7010_2011-P002.eps">
   <polyline class="fil7 str1" points="-1322,926 -809,579 -859,504 -1372,851 "/>
   <path class="fil7 str2" d="M-1373 984l-73 -108m113 81l-73 -108"/>
   <path class="fil7 str3" d="M-1473 453c14,19 10,61 -10,73 -7,4 -6,5 -13,9 -47,28 -28,78 -5,88 16,9 29,6 60,4 34,-3 45,4 55,21 18,28 2,54 -20,77 -11,12 -16,19 -20,46 -3,21 -1,43 15,66m-152 -326c13,18 6,44 -12,59 -6,6 -5,6 -11,11 -42,36 -16,82 8,89 18,5 28,2 58,-3 25,-4 40,4 51,21 11,18 -5,44 -9,74 -2,13 -5,23 -1,39 1,8 11,40 27,64"/>
   <path class="fil8" d="M-902 980l-667 -667 -15 20 -14 19 -12 21 -12 21 -11 21 -9 22 -9 23 -7 23 -6 23 -5 23 -3 24 -3 24 -1 24 0 24 1 24 3 24 3 24 5 23 6 24 7 23 9 22 9 22 11 22 12 21 12 20 14 20 15 19 15 18 17 18 17 16 18 16 19 15 20 13 21 13 21 12 21 10 22 10 23 8 23 7 23 6 24 5 23 4 25 2 24 1 24 0 24 -1 23 -2 24 -4 24 -5 23 -6 23 -7 23 -9 22 -9 21 -10 21 -12 21 -13 20 -14 18 -15 0 0zm293 -366l0 -1 -1 -26 -2 -27 -3 -26 -4 -26 -5 -27 -7 -25 -7 -26 -9 -25 -10 -25 -11 -24 -12 -23 -13 -24 -14 -22 -16 -22 -16 -21 -17 -21 -17 -19 -19 -19 -20 -18 -20 -17 -21 -16 -22 -15 -23 -14 -23 -13 -24 -13 -24 -11 -25 -9 -25 -9 -25 -8 -26 -7 -26 -5 -26 -4 -27 -3 -26 -2 -26 0 -1 0 -26 0 -27 2 -26 3 -27 4 -26 5 -26 7 -25 8 -25 9 -25 9 -24 11 -24 13 -23 13 -22 14 -22 15 -21 16 -21 17 -19 18 -19 19 -18 19 -17 21 -16 21 -15 22 -15 22 -13 24 -12 23 -11 24 -10 25 -9 25 -7 26 -7 25 -5 27 -4 26 -3 26 -2 27 0 26 0 27 2 26 3 27 4 26 5 26 7 26 7 26 9 25 10 24 11 25 12 23 13 23 15 23 15 22 16 21 17 20 18 20 19 19 19 18 21 17 21 16 22 15 22 14 23 13 24 13 24 10 25 10 25 9 25 8 26 6 26 6 27 3 26 3 27 3 26 0 27 0 26 -3 27 -3 26 -3 26 -6 26 -6 25 -8 25 -9 25 -10 24 -10 24 -13 23 -13 23 -14 22 -15 21 -16 20 -17 20 -18 19 -19 17 -20 17 -20 16 -21 16 -22 14 -23 13 -23 12 -23 11 -25 10 -24 9 -25 7 -26 7 -26 5 -26 4 -26 3 -27 2 -26 1 -26zm-226 300l15 -19 14 -20 13 -21 11 -21 11 -21 9 -22 9 -23 7 -23 6 -23 5 -24 3 -23 3 -25 1 -23 0 -24 -1 -24 -2 -24 -4 -24 -5 -24 -6 -23 -7 -23 -8 -23 -10 -21 -11 -22 -11 -21 -13 -21 -13 -19 -15 -19 -16 -18 -17 -18 -17 -16 -18 -16 -19 -15 -20 -14 -20 -12 -21 -12 -22 -11 -22 -9 -23 -9 -22 -7 -24 -6 -23 -5 -24 -3 -24 -3 -24 -1 -24 0 -24 1 -24 3 -24 4 -24 4 -23 6 -23 8 -22 8 -22 10 -22 10 -21 12 -20 13 -20 13 -19 15 667 668 0 0z"/>
  </g>
 </g>
</svg>
