<?xml version="1.0" encoding="utf-8"?>
<!-- Generator: Adobe Illustrator 16.0.0, SVG Export Plug-In . SVG Version: 6.00 Build 0)  -->
<!DOCTYPE svg PUBLIC "-//W3C//DTD SVG 1.1//EN" "http://www.w3.org/Graphics/SVG/1.1/DTD/svg11.dtd">
<svg version="1.1" id="Layer_1" xmlns="http://www.w3.org/2000/svg" xmlns:xlink="http://www.w3.org/1999/xlink" x="0px" y="0px"
	 width="200px" height="200px" viewBox="0 0 200 200" enable-background="new 0 0 200 200" xml:space="preserve">
<g>
	<rect x="5.268" y="41.89" fill="#0D9C4A" width="173.942" height="104.372"/>
	<polyline fill="#1B171A" points="179.21,146.261 178.943,146.261 178.943,42.156 5.533,42.156 5.533,145.994 179.21,145.994 
		179.21,146.261 178.943,146.261 179.21,146.261 179.21,146.527 5,146.527 5,41.623 179.477,41.623 179.477,146.527 179.21,146.527 
		179.21,146.261 	"/>
	<polyline fill="#FFFFFE" points="120.168,55.306 133.388,68.525 120.168,81.746 109.262,81.746 118.642,72.345 94.477,72.345 
		94.477,64.705 118.642,64.705 109.242,55.306 	"/>
	<polyline fill="#FFFFFE" points="170.771,63.588 170.771,82.283 152.076,82.283 144.364,74.569 157.643,74.556 140.557,57.47 
		145.96,52.066 163.045,69.152 163.046,55.863 	"/>
	<polyline fill="#FFFFFE" points="100.713,113.971 113.933,100.752 127.152,113.971 127.152,124.879 117.753,115.5 117.753,139.663 
		110.112,139.663 110.112,115.5 100.713,124.897 	"/>
	<polyline fill="#FFFFFE" points="159.251,133.964 140.557,133.964 140.557,115.269 148.27,107.555 148.282,120.834 
		165.369,103.748 170.771,109.15 153.686,126.238 166.977,126.238 	"/>
	<polyline fill="#FFFFFE" points="67.863,67.169 66.377,74.698 59.171,74.698 57.492,77.688 68.811,77.688 70.484,69.591 
		76.702,82.738 80.006,82.738 73.152,68.242 76.061,62.849 79.378,66.554 83.745,66.554 83.745,82.764 80.663,85.829 76.635,85.829 
		79.086,83.606 75.732,83.606 73.763,85.829 57.354,85.829 60.811,82.829 60.811,78.51 56.008,78.51 58.539,73.846 60.811,73.846 
		60.811,50.938 83.745,50.938 83.745,64.204 80.428,64.204 75.59,58.804 65.417,58.804 62.095,64.582 64.129,65.75 66.776,61.152 
		71.047,61.152 	"/>
	<path fill="#0D9C4A" d="M75.918,52.744c-1.556,0-2.816,1.262-2.816,2.819c0,1.555,1.261,2.815,2.816,2.815s2.818-1.26,2.818-2.815
		C78.737,54.005,77.474,52.744,75.918,52.744"/>
	<polyline fill="#FFFFFE" points="29.063,119.141 30.546,126.674 37.754,126.674 39.432,129.661 28.114,129.661 26.442,121.562 
		20.224,134.713 16.918,134.713 23.773,120.214 20.863,114.822 17.546,118.526 13.181,118.526 13.181,134.737 16.261,137.801 
		20.291,137.801 17.842,135.578 21.193,135.578 23.163,137.801 39.571,137.801 36.115,134.803 36.115,130.483 40.917,130.483 
		38.387,125.817 36.115,125.817 36.115,102.908 13.181,102.908 13.181,116.178 16.498,116.178 21.335,110.775 31.508,110.775 
		34.831,116.556 32.796,117.724 30.149,113.124 25.877,113.124 	"/>
	<path fill="#0D9C4A" d="M21.005,104.715c1.557,0,2.818,1.262,2.818,2.82c0,1.555-1.262,2.814-2.818,2.814
		c-1.555,0-2.816-1.26-2.816-2.814C18.189,105.977,19.451,104.715,21.005,104.715"/>
	<line fill="#0D9C4A" x1="5.274" y1="93.82" x2="179.105" y2="93.82"/>
	<rect x="5.274" y="93.554" fill="#1B171A" width="173.832" height="0.533"/>
	<line fill="#0D9C4A" x1="91.982" y1="41.657" x2="91.982" y2="146.045"/>
	<rect x="91.716" y="41.657" fill="#1B171A" width="0.532" height="104.388"/>
	<line fill="#0D9C4A" x1="135.416" y1="41.657" x2="135.416" y2="146.045"/>
	<rect x="135.149" y="41.657" fill="#1B171A" width="0.533" height="104.388"/>
	<path fill="#1B171A" d="M182.657,123.222l0.978-4.603h-1.298l0.185-0.864h0.119c0.865,0,1.471-0.332,1.752-1.05h0.976l-1.386,6.517
		"/>
	<path fill="#1B171A" d="M189.577,123.222h-4.013c0.247-1.16,0.887-1.96,2.044-2.853l0.64-0.496c0.69-0.525,0.854-0.821,0.997-1.493
		c0.116-0.542-0.059-0.809-0.473-0.809c-0.662,0-0.851,0.58-1.005,1.27h-1.271l0.053-0.247c0.256-1.206,1.036-1.889,2.425-1.889
		c1.309,0,1.813,0.653,1.574,1.777c-0.179,0.847-0.563,1.399-1.452,2.07l-0.881,0.681c-0.461,0.35-0.759,0.709-0.876,0.959h2.458"/>
	<path fill="#1B171A" d="M193.412,116.705c1.573,0,1.861,0.856,1.37,3.168c-0.386,1.812-0.841,3.478-2.783,3.478
		c-1.575,0-1.86-0.854-1.37-3.165C191.012,118.38,191.47,116.705,193.412,116.705 M191.894,120.471
		c-0.348,1.637-0.281,2.015,0.289,2.015c0.579,0,0.828-0.514,1.184-2.189l0.151-0.71c0.349-1.639,0.281-2.015-0.289-2.015
		c-0.58,0-0.828,0.515-1.185,2.189L191.894,120.471z"/>
	<rect x="187.424" y="132.99" fill="#1B171A" width="0.533" height="4.65"/>
	<path fill="#1B171A" d="M188.63,141.375c0.459-1.521,0.883-2.511,1.373-3.732h-4.644c0.207,0.438,0.914,2.211,1.372,3.732
		c0.493,1.631,0.83,3.104,0.949,4.065C187.801,144.479,188.138,143.006,188.63,141.375"/>
	<rect x="187.424" y="103.073" fill="#1B171A" width="0.533" height="5.372"/>
	<path fill="#1B171A" d="M188.63,99.338c0.459,1.523,0.883,2.512,1.373,3.733h-4.644c0.207-0.437,0.914-2.21,1.372-3.733
		c0.493-1.629,0.83-3.106,0.949-4.065C187.801,96.232,188.138,97.709,188.63,99.338"/>
	<path fill="#1B171A" d="M182.657,70.626l0.978-4.603h-1.298l0.185-0.866h0.119c0.865,0,1.471-0.331,1.752-1.049h0.976l-1.386,6.517
		"/>
	<path fill="#1B171A" d="M189.577,70.626h-4.013c0.247-1.16,0.887-1.96,2.044-2.853l0.64-0.497c0.69-0.525,0.854-0.821,0.997-1.493
		c0.116-0.542-0.059-0.809-0.473-0.809c-0.662,0-0.851,0.579-1.005,1.268h-1.271l0.053-0.248c0.256-1.206,1.036-1.887,2.425-1.887
		c1.309,0,1.813,0.653,1.574,1.777c-0.179,0.847-0.563,1.398-1.452,2.071l-0.881,0.681c-0.461,0.35-0.759,0.708-0.876,0.957h2.458"
		/>
	<path fill="#1B171A" d="M193.412,64.109c1.573,0,1.861,0.857,1.37,3.168c-0.386,1.812-0.841,3.478-2.783,3.478
		c-1.575,0-1.86-0.855-1.37-3.166C191.012,65.785,191.47,64.109,193.412,64.109 M191.894,67.874
		c-0.348,1.64-0.281,2.017,0.289,2.017c0.579,0,0.828-0.516,1.184-2.192l0.151-0.708c0.349-1.64,0.281-2.015-0.289-2.015
		c-0.58,0-0.828,0.514-1.185,2.19L191.894,67.874z"/>
	<rect x="187.424" y="80.394" fill="#1B171A" width="0.533" height="4.652"/>
	<path fill="#1B171A" d="M188.63,88.779c0.459-1.522,0.883-2.512,1.373-3.733h-4.644c0.207,0.438,0.914,2.211,1.372,3.733
		c0.493,1.631,0.83,3.105,0.949,4.065C187.801,91.884,188.138,90.41,188.63,88.779"/>
	<rect x="187.424" y="50.478" fill="#1B171A" width="0.533" height="5.37"/>
	<path fill="#1B171A" d="M188.63,46.744c0.459,1.522,0.883,2.512,1.373,3.732h-4.644c0.207-0.437,0.914-2.21,1.372-3.732
		c0.493-1.629,0.83-3.104,0.949-4.062C187.801,43.639,188.138,45.115,188.63,46.744"/>
	<path fill="#1B171A" d="M46.071,158.248h-4.014c0.246-1.16,0.887-1.96,2.043-2.853l0.64-0.496c0.69-0.525,0.854-0.821,0.997-1.493
		c0.116-0.542-0.057-0.809-0.471-0.809c-0.664,0-0.853,0.579-1.007,1.27h-1.271l0.053-0.248c0.256-1.205,1.036-1.888,2.426-1.888
		c1.308,0,1.812,0.653,1.573,1.776c-0.179,0.847-0.563,1.399-1.452,2.07l-0.881,0.682c-0.461,0.35-0.758,0.709-0.875,0.957h2.457"/>
	<path fill="#1B171A" d="M49.904,151.731c1.573,0,1.861,0.856,1.37,3.168c-0.385,1.811-0.841,3.478-2.783,3.478
		c-1.572,0-1.861-0.855-1.37-3.166C47.504,153.406,47.961,151.731,49.904,151.731 M48.385,155.496
		c-0.348,1.638-0.281,2.016,0.29,2.016c0.579,0,0.827-0.516,1.184-2.19l0.151-0.709c0.348-1.639,0.28-2.015-0.291-2.015
		c-0.579,0-0.826,0.514-1.183,2.189L48.385,155.496z"/>
	<path fill="#1B171A" d="M54.321,151.731c1.575,0,1.862,0.856,1.372,3.168c-0.386,1.811-0.841,3.478-2.784,3.478
		c-1.573,0-1.86-0.855-1.369-3.166C51.922,153.406,52.38,151.731,54.321,151.731 M52.803,155.496
		c-0.349,1.638-0.281,2.016,0.29,2.016c0.58,0,0.826-0.516,1.185-2.19l0.149-0.709c0.348-1.639,0.281-2.015-0.289-2.015
		c-0.581,0-0.828,0.514-1.184,2.189L52.803,155.496z"/>
	<path fill="#1B171A" d="M108.292,158.248l0.978-4.603h-1.297l0.184-0.864h0.12c0.864,0,1.47-0.332,1.751-1.05h0.976l-1.385,6.517"
		/>
	<path fill="#1B171A" d="M114.63,151.731c1.572,0,1.861,0.856,1.37,3.168c-0.387,1.811-0.841,3.478-2.784,3.478
		c-1.573,0-1.861-0.855-1.37-3.166C112.229,153.406,112.687,151.731,114.63,151.731 M113.11,155.496
		c-0.348,1.638-0.28,2.016,0.289,2.016c0.581,0,0.828-0.516,1.185-2.19l0.151-0.709c0.348-1.639,0.28-2.015-0.29-2.015
		c-0.58,0-0.827,0.514-1.184,2.189L113.11,155.496z"/>
	<path fill="#1B171A" d="M119.047,151.731c1.574,0,1.862,0.856,1.371,3.168c-0.386,1.811-0.841,3.478-2.784,3.478
		c-1.572,0-1.861-0.855-1.37-3.166C116.647,153.406,117.104,151.731,119.047,151.731 M117.528,155.496
		c-0.348,1.638-0.28,2.016,0.29,2.016c0.579,0,0.827-0.516,1.183-2.19l0.152-0.709c0.348-1.639,0.28-2.015-0.289-2.015
		c-0.581,0-0.828,0.514-1.185,2.189L117.528,155.496z"/>
	<rect x="76.64" y="154.663" fill="#1B171A" width="6.569" height="0.532"/>
	<path fill="#1B171A" d="M86.943,153.991c-1.52-0.459-2.51-0.885-3.73-1.374v4.644c0.438-0.209,2.211-0.917,3.73-1.372
		c1.63-0.492,3.106-0.83,4.064-0.948C90.049,154.817,88.573,154.481,86.943,153.991"/>
	<rect x="13.679" y="154.663" fill="#1B171A" width="5.433" height="0.532"/>
	<path fill="#1B171A" d="M9.946,153.991c1.521-0.459,2.509-0.885,3.731-1.374v4.644c-0.436-0.209-2.21-0.917-3.731-1.372
		c-1.629-0.492-3.105-0.83-4.063-0.948C6.84,154.817,8.317,154.481,9.946,153.991"/>
	<rect x="122.92" y="154.663" fill="#1B171A" width="4.651" height="0.532"/>
	<rect x="100.166" y="154.663" fill="#1B171A" width="4.653" height="0.532"/>
	<path fill="#1B171A" d="M131.305,153.991c-1.521-0.459-2.511-0.885-3.73-1.374v4.644c0.437-0.209,2.209-0.917,3.73-1.372
		c1.629-0.492,3.106-0.83,4.062-0.948C134.411,154.817,132.934,154.481,131.305,153.991"/>
	<path fill="#1B171A" d="M96.685,153.991c1.521-0.459,2.512-0.885,3.731-1.374v4.644c-0.437-0.209-2.21-0.917-3.731-1.372
		c-1.628-0.492-3.105-0.83-4.064-0.948C93.58,154.817,95.057,154.481,96.685,153.991"/>
	<path fill="#1B171A" d="M152.193,158.248l0.978-4.603h-1.297l0.183-0.864h0.121c0.864,0,1.469-0.332,1.751-1.05h0.976l-1.386,6.517
		"/>
	<path fill="#1B171A" d="M158.53,151.731c1.573,0,1.86,0.856,1.37,3.168c-0.387,1.811-0.841,3.478-2.783,3.478
		c-1.574,0-1.861-0.855-1.37-3.166C156.131,153.406,156.588,151.731,158.53,151.731 M157.012,155.496
		c-0.349,1.638-0.28,2.016,0.289,2.016c0.581,0,0.827-0.516,1.185-2.19l0.149-0.709c0.35-1.639,0.282-2.015-0.289-2.015
		c-0.579,0-0.828,0.514-1.184,2.189L157.012,155.496z"/>
	<path fill="#1B171A" d="M162.948,151.731c1.574,0,1.86,0.856,1.369,3.168c-0.385,1.811-0.841,3.478-2.782,3.478
		c-1.575,0-1.861-0.855-1.37-3.166C160.549,153.406,161.006,151.731,162.948,151.731 M161.43,155.496
		c-0.348,1.638-0.281,2.016,0.29,2.016c0.579,0,0.827-0.516,1.183-2.19l0.151-0.709c0.349-1.639,0.281-2.015-0.291-2.015
		c-0.578,0-0.827,0.514-1.183,2.189L161.43,155.496z"/>
	<rect x="166.347" y="154.663" fill="#1B171A" width="4.652" height="0.532"/>
	<path fill="#1B171A" d="M174.732,153.991c-1.522-0.459-2.511-0.885-3.731-1.374v4.644c0.437-0.209,2.209-0.917,3.731-1.372
		c1.628-0.492,3.105-0.83,4.062-0.948C177.838,154.817,176.36,154.481,174.732,153.991"/>
	<rect x="143.848" y="154.663" fill="#1B171A" width="5.368" height="0.532"/>
	<path fill="#1B171A" d="M140.112,153.991c1.521-0.459,2.512-0.885,3.73-1.374v4.644c-0.437-0.209-2.21-0.917-3.73-1.372
		c-1.629-0.492-3.105-0.83-4.063-0.948C137.007,154.817,138.483,154.481,140.112,153.991"/>
	<polyline fill="#FFFFFE" points="15.939,50.782 27.167,50.782 27.167,53.737 19.452,53.737 19.452,57.428 26.14,57.428 
		26.14,60.156 19.452,60.156 19.452,66.756 15.939,66.756 	"/>
	<path fill="#FFFFFE" d="M32.136,53.4h-3.177v-2.618h3.177V53.4z M28.958,55.189h3.176v11.567h-3.176V55.189z"/>
	<path fill="#FFFFFE" d="M34.193,55.189h3.021v2.149h0.045c0.582-1.456,2.148-2.462,3.691-2.462c0.224,0,0.492,0.044,0.693,0.112
		v2.953c-0.291-0.067-0.762-0.111-1.14-0.111c-2.329,0-3.132,1.679-3.132,3.715v5.211h-3.179"/>
	<path fill="#FFFFFE" d="M45.737,61.745c0.09,2.013,1.074,2.931,2.842,2.931c1.275,0,2.304-0.783,2.505-1.499h2.797
		c-0.895,2.731-2.797,3.893-5.414,3.893c-3.646,0-5.905-2.504-5.905-6.085c0-3.467,2.393-6.108,5.905-6.108
		c3.938,0,5.839,3.312,5.615,6.868 M50.905,59.733c-0.29-1.613-0.984-2.463-2.528-2.463c-2.012,0-2.595,1.568-2.64,2.463H50.905z"/>
	<path fill="#FFFFFE" d="M18.22,80.921c0.09,2.013,1.074,2.931,2.842,2.931c1.275,0,2.305-0.784,2.506-1.499h2.797
		c-0.895,2.731-2.797,3.893-5.414,3.893c-3.647,0-5.907-2.504-5.907-6.085c0-3.466,2.395-6.108,5.907-6.108
		c3.937,0,5.838,3.312,5.614,6.869 M23.389,78.909c-0.291-1.612-0.984-2.462-2.528-2.462c-2.014,0-2.596,1.568-2.641,2.462H23.389z"
		/>
	<polyline fill="#FFFFFE" points="30.95,79.847 27.146,74.365 30.77,74.365 32.806,77.386 34.821,74.365 38.332,74.365 
		34.53,79.779 38.802,85.932 35.178,85.932 32.76,82.287 30.345,85.932 26.789,85.932 	"/>
	<path fill="#FFFFFE" d="M43.277,72.576H40.1v-2.618h3.177V72.576z M40.099,74.365h3.178v11.567h-3.178V74.365z"/>
	<path fill="#FFFFFE" d="M49.809,74.365h2.326v2.125h-2.326v5.728c0,1.075,0.269,1.344,1.342,1.344c0.336,0,0.65-0.024,0.984-0.09
		v2.481c-0.537,0.09-1.23,0.112-1.856,0.112c-1.946,0-3.646-0.447-3.646-2.752v-6.824h-1.924v-2.125h1.924v-3.467h3.177"/>
	<polyline fill="#FFFFFE" points="43.461,102.629 54.692,102.629 54.692,105.584 46.974,105.584 46.974,109.275 53.664,109.275 
		53.664,112.003 46.974,112.003 46.974,118.603 43.461,118.603 	"/>
	<path fill="#FFFFFE" d="M59.659,105.246h-3.177v-2.617h3.177V105.246z M56.481,107.036h3.178v11.566h-3.178V107.036z"/>
	<path fill="#FFFFFE" d="M61.716,107.036h3.02v2.149h0.045c0.583-1.455,2.147-2.463,3.691-2.463c0.225,0,0.493,0.045,0.694,0.113
		v2.951c-0.291-0.066-0.761-0.111-1.141-0.111c-2.327,0-3.133,1.68-3.133,3.716v5.211h-3.177"/>
	<path fill="#FFFFFE" d="M73.26,113.592c0.089,2.013,1.073,2.931,2.841,2.931c1.275,0,2.305-0.784,2.507-1.499h2.796
		c-0.895,2.73-2.796,3.893-5.414,3.893c-3.647,0-5.907-2.504-5.907-6.085c0-3.467,2.396-6.108,5.907-6.108
		c3.937,0,5.839,3.312,5.615,6.869 M78.428,111.579c-0.291-1.612-0.983-2.462-2.527-2.462c-2.015,0-2.596,1.567-2.641,2.462H78.428z
		"/>
	<path fill="#FFFFFE" d="M45.744,132.768c0.088,2.013,1.074,2.931,2.841,2.931c1.275,0,2.305-0.783,2.505-1.499h2.797
		c-0.895,2.73-2.797,3.893-5.414,3.893c-3.646,0-5.905-2.504-5.905-6.085c0-3.467,2.394-6.108,5.905-6.108
		c3.938,0,5.839,3.312,5.616,6.869 M50.911,130.755c-0.29-1.612-0.984-2.462-2.527-2.462c-2.013,0-2.595,1.567-2.64,2.462H50.911z"
		/>
	<polyline fill="#FFFFFE" points="58.472,131.693 54.668,126.212 58.293,126.212 60.33,129.232 62.343,126.212 65.855,126.212 
		62.053,131.626 66.325,137.778 62.701,137.778 60.285,134.134 57.869,137.778 54.311,137.778 	"/>
	<path fill="#FFFFFE" d="M70.8,124.423h-3.177v-2.618H70.8V124.423z M67.623,126.212h3.176v11.566h-3.176V126.212z"/>
	<path fill="#FFFFFE" d="M77.332,126.212h2.327v2.126h-2.327v5.727c0,1.075,0.269,1.345,1.343,1.345c0.335,0,0.649-0.024,0.984-0.09
		v2.481c-0.537,0.091-1.23,0.112-1.856,0.112c-1.947,0-3.647-0.447-3.647-2.752v-6.823h-1.924v-2.126h1.924v-3.468h3.177"/>
</g>
</svg>
