<?xml version="1.0" encoding="utf-8"?>
<!-- Generator: Adobe Illustrator 16.0.0, SVG Export Plug-In . SVG Version: 6.00 Build 0)  -->
<!DOCTYPE svg PUBLIC "-//W3C//DTD SVG 1.1//EN" "http://www.w3.org/Graphics/SVG/1.1/DTD/svg11.dtd">
<svg version="1.1" id="Layer_1" xmlns="http://www.w3.org/2000/svg" xmlns:xlink="http://www.w3.org/1999/xlink" x="0px" y="0px"
	 width="200px" height="200px" viewBox="0 0 200 200" enable-background="new 0 0 200 200" xml:space="preserve">
<g>
	<rect x="28.75" y="5" fill="#FFFFFF" stroke="#231F20" stroke-miterlimit="10" width="142.5" height="190"/>
	<g>
		<g>
			<path fill="#00A14B" d="M38.25,190.25c-2.612,0-4.75-2.138-4.75-4.75v-171c0-2.612,2.138-4.75,4.75-4.75h123.5
				c2.612,0,4.75,2.138,4.75,4.75v171c0,2.612-2.138,4.75-4.75,4.75H38.25z"/>
		</g>
		<polyline fill="#FFFFFF" points="46.633,99.218 44.691,99.218 44.691,98.018 50.001,98.018 50.001,99.218 48.06,99.218 
			48.06,104.5 46.633,104.5 		"/>
		<polyline fill="#FFFFFF" points="50.747,98.018 52.167,98.018 52.167,100.505 54.794,100.505 54.794,98.018 56.217,98.018 
			56.217,104.5 54.794,104.5 54.794,101.705 52.167,101.705 52.167,104.5 50.747,104.5 		"/>
		<polyline fill="#FFFFFF" points="57.472,98.018 62.316,98.018 62.316,99.218 58.896,99.218 58.896,100.603 62.038,100.603 
			62.038,101.713 58.896,101.713 58.896,103.297 62.389,103.297 62.389,104.5 57.472,104.5 		"/>
		<polyline fill="#FFFFFF" points="65.875,98.018 67.291,98.018 69.997,102.364 70.015,102.364 70.015,98.018 71.349,98.018 
			71.349,104.5 69.925,104.5 67.228,100.161 67.211,100.161 67.211,104.5 65.875,104.5 		"/>
		<polyline fill="#FFFFFF" points="72.601,98.018 77.45,98.018 77.45,99.218 74.027,99.218 74.027,100.603 77.167,100.603 
			77.167,101.713 74.027,101.713 74.027,103.297 77.521,103.297 77.521,104.5 72.601,104.5 		"/>
		<path fill="#FFFFFF" d="M80.253,98.018h1.46l2.424,6.482h-1.48l-0.488-1.448h-2.428l-0.505,1.448h-1.445 M80.115,101.994h1.683
			l-0.818-2.379H80.96L80.115,101.994z"/>
		<path fill="#FFFFFF" d="M84.702,98.018h3.494c1.162,0,1.896,0.807,1.896,1.789c0,0.761-0.308,1.333-1.028,1.625v0.017
			c0.701,0.18,0.903,0.862,0.944,1.517c0.029,0.406,0.021,1.167,0.274,1.535h-1.423c-0.172-0.412-0.158-1.036-0.227-1.558
			c-0.102-0.676-0.368-0.976-1.083-0.976h-1.424v2.533h-1.424 M86.125,100.949h1.561c0.636,0,0.981-0.272,0.981-0.925
			c0-0.627-0.346-0.9-0.981-0.9h-1.561V100.949z"/>
		<polyline fill="#FFFFFF" points="91.253,98.018 96.1,98.018 96.1,99.218 92.677,99.218 92.677,100.603 95.817,100.603 
			95.817,101.713 92.677,101.713 92.677,103.297 96.17,103.297 96.17,104.5 91.253,104.5 		"/>
		<path fill="#FFFFFF" d="M98.108,102.346c0,0.864,0.671,1.197,1.431,1.197c0.503,0,1.261-0.142,1.261-0.808
			c0-0.698-0.969-0.818-1.92-1.069c-0.966-0.253-1.934-0.627-1.934-1.843c0-1.326,1.251-1.959,2.425-1.959
			c1.347,0,2.59,0.589,2.59,2.084h-1.379c-0.042-0.777-0.598-0.979-1.279-0.979c-0.453,0-0.977,0.191-0.977,0.734
			c0,0.501,0.308,0.566,1.934,0.981c0.472,0.12,1.922,0.42,1.922,1.89c0,1.187-0.936,2.078-2.694,2.078
			c-1.436,0-2.779-0.709-2.764-2.307"/>
		<polyline fill="#FFFFFF" points="104.459,99.218 102.518,99.218 102.518,98.018 107.828,98.018 107.828,99.218 105.885,99.218 
			105.885,104.5 104.459,104.5 		"/>
		<polyline fill="#FFFFFF" points="111.096,98.018 115.652,98.018 115.652,99.218 112.521,99.218 112.521,100.712 115.232,100.712 
			115.232,101.822 112.521,101.822 112.521,104.5 111.096,104.5 		"/>
		<rect x="116.479" y="98.018" fill="#FFFFFF" width="1.424" height="6.482"/>
		<path fill="#FFFFFF" d="M119.154,98.018h3.496c1.162,0,1.893,0.807,1.893,1.789c0,0.761-0.305,1.333-1.025,1.625v0.017
			c0.699,0.18,0.904,0.862,0.947,1.517c0.027,0.406,0.02,1.167,0.273,1.535h-1.424c-0.176-0.412-0.16-1.036-0.23-1.558
			c-0.098-0.676-0.361-0.976-1.082-0.976h-1.422v2.533h-1.426 M120.58,100.949h1.561c0.635,0,0.982-0.272,0.982-0.925
			c0-0.627-0.348-0.9-0.982-0.9h-1.561V100.949z"/>
		<path fill="#FFFFFF" d="M126.68,102.346c0,0.864,0.67,1.197,1.434,1.197c0.498,0,1.264-0.142,1.264-0.808
			c0-0.698-0.975-0.818-1.928-1.069c-0.961-0.253-1.932-0.627-1.932-1.843c0-1.326,1.252-1.959,2.422-1.959
			c1.355,0,2.6,0.589,2.6,2.084h-1.381c-0.049-0.777-0.6-0.979-1.279-0.979c-0.455,0-0.984,0.191-0.984,0.734
			c0,0.501,0.311,0.566,1.936,0.981c0.473,0.12,1.926,0.42,1.926,1.89c0,1.187-0.934,2.078-2.699,2.078
			c-1.432,0-2.773-0.709-2.758-2.307"/>
		<polyline fill="#FFFFFF" points="133.031,99.218 131.09,99.218 131.09,98.018 136.402,98.018 136.402,99.218 134.455,99.218 
			134.455,104.5 133.031,104.5 		"/>
		<path fill="#FFFFFF" d="M141.438,98.018h1.461l2.426,6.482h-1.48l-0.488-1.448h-2.426l-0.508,1.448h-1.445 M141.301,101.994h1.68
			l-0.814-2.379h-0.02L141.301,101.994z"/>
		<rect x="145.887" y="98.018" fill="#FFFFFF" width="1.426" height="6.482"/>
		<path fill="#FFFFFF" d="M148.564,98.018h2.795c1.68,0,2.939,1.053,2.939,3.201c0,1.882-0.959,3.281-2.939,3.281h-2.795
			 M149.986,103.297h1.271c0.826,0,1.617-0.507,1.617-1.938c0-1.307-0.455-2.141-1.871-2.141h-1.018V103.297z"/>
		<path fill="#FFFFFF" d="M56.725,109.188h3.054c1.23,0,2.064,0.398,2.064,1.606c0,0.636-0.313,1.08-0.875,1.35
			c0.788,0.229,1.189,0.835,1.189,1.647c0,1.315-1.118,1.88-2.291,1.88h-3.142 M58.154,111.812h1.442
			c0.496,0,0.873-0.229,0.873-0.772c0-0.619-0.475-0.744-0.982-0.744h-1.333V111.812z M58.154,114.562h1.524
			c0.562,0,1.053-0.18,1.053-0.854c0-0.663-0.42-0.925-1.025-0.925h-1.552V114.562z"/>
		<path fill="#FFFFFF" d="M66.02,109.036c2.01,0,3.188,1.494,3.188,3.42c0,1.871-1.178,3.368-3.188,3.368
			c-2.003,0-3.184-1.497-3.184-3.368C62.836,110.53,64.017,109.036,66.02,109.036 M66.02,114.627c1.279,0,1.762-1.091,1.762-2.171
			c0-1.135-0.482-2.223-1.762-2.223c-1.28,0-1.76,1.088-1.76,2.223C64.26,113.536,64.74,114.627,66.02,114.627"/>
		<polyline fill="#FFFFFF" points="71.769,112.276 69.679,109.188 71.333,109.188 72.603,111.259 73.917,109.188 75.481,109.188 
			73.403,112.281 75.661,115.672 73.964,115.672 72.546,113.427 71.106,115.672 69.497,115.672 		"/>
		<rect x="78.756" y="109.188" fill="#FFFFFF" width="1.427" height="6.483"/>
		<path fill="#FFFFFF" d="M82.406,113.517c0,0.865,0.671,1.197,1.432,1.197c0.502,0,1.263-0.142,1.263-0.807
			c0-0.698-0.968-0.818-1.923-1.069c-0.963-0.254-1.934-0.627-1.934-1.844c0-1.325,1.252-1.958,2.425-1.958
			c1.353,0,2.594,0.589,2.594,2.084h-1.38c-0.044-0.777-0.6-0.979-1.282-0.979c-0.45,0-0.977,0.19-0.977,0.733
			c0,0.502,0.309,0.567,1.935,0.982c0.471,0.119,1.922,0.42,1.922,1.89c0,1.187-0.933,2.078-2.694,2.078
			c-1.435,0-2.776-0.709-2.763-2.308"/>
		<path fill="#FFFFFF" d="M90.817,113.517c0,0.865,0.671,1.197,1.438,1.197c0.499,0,1.263-0.142,1.263-0.807
			c0-0.698-0.974-0.818-1.926-1.069c-0.962-0.254-1.937-0.627-1.937-1.844c0-1.325,1.253-1.958,2.425-1.958
			c1.355,0,2.6,0.589,2.6,2.084h-1.38c-0.05-0.777-0.601-0.979-1.282-0.979c-0.453,0-0.982,0.19-0.982,0.733
			c0,0.502,0.312,0.567,1.938,0.982c0.472,0.119,1.919,0.42,1.919,1.89c0,1.187-0.933,2.078-2.694,2.078
			c-1.432,0-2.776-0.709-2.757-2.308"/>
		<rect x="95.74" y="109.188" fill="#FFFFFF" width="1.424" height="6.483"/>
		<polyline fill="#FFFFFF" points="99.853,110.389 97.905,110.389 97.905,109.188 103.219,109.188 103.219,110.389 101.273,110.389 
			101.273,115.672 99.853,115.672 		"/>
		<path fill="#FFFFFF" d="M109.465,113.22c0,1.751-1.037,2.604-2.77,2.604c-1.742,0-2.76-0.843-2.76-2.604v-4.031h1.424v4.031
			c0,0.709,0.184,1.407,1.336,1.407c1.018,0,1.34-0.447,1.34-1.407v-4.031h1.43"/>
		<path fill="#FFFFFF" d="M112.455,109.188h1.465l2.422,6.483h-1.477l-0.492-1.448h-2.422l-0.51,1.448h-1.445 M112.32,113.165h1.682
			l-0.818-2.378h-0.018L112.32,113.165z"/>
		<polyline fill="#FFFFFF" points="118.342,110.389 116.395,110.389 116.395,109.188 121.707,109.188 121.707,110.389 
			119.766,110.389 119.766,115.672 118.342,115.672 		"/>
		<polyline fill="#FFFFFF" points="122.449,109.188 127.299,109.188 127.299,110.389 123.879,110.389 123.879,111.774 
			127.014,111.774 127.014,112.884 123.879,112.884 123.879,114.469 127.371,114.469 127.371,115.672 122.449,115.672 		"/>
		<path fill="#FFFFFF" d="M128.334,109.188h2.797c1.674,0,2.939,1.053,2.939,3.202c0,1.882-0.963,3.281-2.939,3.281h-2.797
			 M129.758,114.469h1.271c0.826,0,1.615-0.507,1.615-1.939c0-1.307-0.453-2.141-1.869-2.141h-1.018V114.469z"/>
		<path fill="#FFFFFF" d="M139.354,109.188h1.463l2.422,6.483h-1.48l-0.49-1.448h-2.424l-0.508,1.448h-1.445 M139.215,113.165h1.682
			l-0.818-2.378h-0.02L139.215,113.165z"/>
		<polyline fill="#FFFFFF" points="145.234,110.389 143.289,110.389 143.289,109.188 148.602,109.188 148.602,110.389 
			146.658,110.389 146.658,115.672 145.234,115.672 		"/>
		<polyline fill="#FFFFFF" points="53.578,149.789 57.434,149.789 57.434,150.804 54.786,150.804 54.786,152.069 57.08,152.069 
			57.08,153.005 54.786,153.005 54.786,155.273 53.578,155.273 		"/>
		<rect x="58.135" y="149.789" fill="#FFFFFF" width="1.205" height="5.484"/>
		<path fill="#FFFFFF" d="M60.398,149.789h2.954c0.987,0,1.606,0.682,1.606,1.511c0,0.646-0.259,1.129-0.864,1.375v0.017
			c0.592,0.152,0.758,0.728,0.799,1.281c0.021,0.344,0.014,0.99,0.229,1.301h-1.208c-0.146-0.346-0.129-0.878-0.188-1.316
			c-0.085-0.573-0.309-0.829-0.917-0.829h-1.208v2.146h-1.203 M61.601,152.269h1.326c0.534,0,0.828-0.229,0.828-0.783
			c0-0.529-0.294-0.758-0.828-0.758h-1.326V152.269z"/>
		<path fill="#FFFFFF" d="M66.767,153.452c0,0.728,0.567,1.015,1.213,1.015c0.421,0,1.064-0.123,1.064-0.685
			c0-0.592-0.821-0.693-1.628-0.908c-0.813-0.21-1.637-0.526-1.637-1.558c0-1.121,1.061-1.658,2.054-1.658
			c1.145,0,2.195,0.499,2.195,1.768h-1.167c-0.041-0.663-0.508-0.829-1.086-0.829c-0.379,0-0.829,0.158-0.829,0.619
			c0,0.423,0.265,0.477,1.637,0.829c0.401,0.101,1.628,0.354,1.628,1.601c0,1.004-0.788,1.757-2.277,1.757
			c-1.217,0-2.351-0.601-2.334-1.95"/>
		<polyline fill="#FFFFFF" points="72.143,150.804 70.498,150.804 70.498,149.789 74.99,149.789 74.99,150.804 73.345,150.804 
			73.345,155.273 72.143,155.273 		"/>
		<path fill="#FFFFFF" d="M79.252,149.789h1.238l2.049,5.484h-1.249l-0.415-1.225h-2.054l-0.428,1.225h-1.223 M79.138,153.149h1.418
			l-0.689-2.01H79.85L79.138,153.149z"/>
		<rect x="83.014" y="149.789" fill="#FFFFFF" width="1.208" height="5.484"/>
		<path fill="#FFFFFF" d="M85.283,149.789h2.365c1.418,0,2.49,0.889,2.49,2.709c0,1.59-0.815,2.775-2.49,2.775h-2.365
			 M86.486,154.257h1.074c0.701,0,1.37-0.431,1.37-1.643c0-1.106-0.383-1.811-1.582-1.811h-0.862V154.257z"/>
		<polyline fill="#FFFFFF" points="90.975,149.789 95.074,149.789 95.074,150.804 92.18,150.804 92.18,151.977 94.837,151.977 
			94.837,152.915 92.18,152.915 92.18,154.257 95.137,154.257 95.137,155.273 90.975,155.273 		"/>
		<path fill="#FFFFFF" d="M95.95,149.789h2.96c0.979,0,1.604,0.682,1.604,1.511c0,0.646-0.266,1.129-0.871,1.375v0.017
			c0.593,0.152,0.765,0.728,0.802,1.281c0.021,0.344,0.012,0.99,0.229,1.301h-1.205c-0.147-0.346-0.131-0.878-0.191-1.316
			c-0.087-0.573-0.311-0.829-0.916-0.829h-1.206v2.146H95.95 M97.155,152.269h1.32c0.54,0,0.829-0.229,0.829-0.783
			c0-0.529-0.289-0.758-0.829-0.758h-1.32V152.269z"/>
		<rect x="103.631" y="149.789" fill="#FFFFFF" width="1.205" height="5.484"/>
		<polyline fill="#FFFFFF" points="105.896,149.789 107.092,149.789 109.383,153.466 109.398,153.466 109.398,149.789 
			110.527,149.789 110.527,155.273 109.32,155.273 107.043,151.601 107.025,151.601 107.025,155.273 105.896,155.273 		"/>
		<path fill="#FFFFFF" d="M117.379,151.633c-0.076-0.546-0.602-0.963-1.199-0.963c-1.08,0-1.49,0.922-1.49,1.885
			c0,0.911,0.41,1.833,1.49,1.833c0.738,0,1.15-0.505,1.246-1.228h1.168c-0.123,1.363-1.07,2.242-2.414,2.242
			c-1.697,0-2.699-1.269-2.699-2.848c0-1.631,1.002-2.896,2.699-2.896c1.207,0,2.217,0.704,2.367,1.975"/>
		<polyline fill="#FFFFFF" points="119.414,149.789 120.615,149.789 120.615,151.895 122.84,151.895 122.84,149.789 
			124.045,149.789 124.045,155.273 122.84,155.273 122.84,152.903 120.615,152.903 120.615,155.273 119.414,155.273 		"/>
		<path fill="#FFFFFF" d="M126.604,149.789h1.234l2.051,5.484h-1.254l-0.412-1.225h-2.053l-0.43,1.225h-1.219 M126.488,153.149
			h1.422l-0.697-2.01h-0.01L126.488,153.149z"/>
		<path fill="#FFFFFF" d="M130.363,149.789h2.961c0.98,0,1.6,0.682,1.6,1.511c0,0.646-0.258,1.129-0.863,1.375v0.017
			c0.592,0.152,0.76,0.728,0.799,1.281c0.023,0.344,0.016,0.99,0.23,1.301h-1.207c-0.148-0.346-0.131-0.878-0.191-1.316
			c-0.084-0.573-0.311-0.829-0.914-0.829h-1.205v2.146h-1.209 M131.572,152.269h1.32c0.537,0,0.828-0.229,0.828-0.783
			c0-0.529-0.291-0.758-0.828-0.758h-1.32V152.269z"/>
		<path fill="#FFFFFF" d="M139.875,154.649c-0.426,0.545-0.977,0.753-1.506,0.753c-1.699,0-2.695-1.269-2.695-2.848
			c0-1.631,0.996-2.896,2.695-2.896c1.121,0,2.182,0.692,2.312,1.934h-1.154c-0.139-0.605-0.592-0.922-1.158-0.922
			c-1.084,0-1.492,0.922-1.492,1.885c0,0.911,0.408,1.833,1.492,1.833c0.783,0,1.236-0.42,1.303-1.182h-1.211v-0.899h2.305v2.967
			h-0.768"/>
		<polyline fill="#FFFFFF" points="141.74,149.789 145.84,149.789 145.84,150.804 142.943,150.804 142.943,151.977 145.602,151.977 
			145.602,152.915 142.943,152.915 142.943,154.257 145.902,154.257 145.902,155.273 141.74,155.273 		"/>
		<rect x="43.019" y="119.034" fill="#FFFFFF" width="113.11" height="22.692"/>
		<rect x="43.019" y="159.335" fill="#FFFFFF" width="113.11" height="22.691"/>
		<g>
			<polyline fill="#FFFFFF" points="126.297,30.79 108.016,30.79 108.016,12.708 92.146,12.708 92.146,30.79 73.864,30.79 
				73.864,46.484 92.146,46.484 92.146,64.563 108.016,64.563 108.016,46.484 126.297,46.484 			"/>
			<polyline fill="#FFFFFF" points="48.539,78.961 55.255,78.961 55.255,81.96 48.539,81.96 48.539,86.993 44.147,86.993 
				44.147,73.272 55.828,73.272 55.828,76.271 48.539,76.271 			"/>
			<rect x="57.824" y="73.275" fill="#FFFFFF" width="4.389" height="13.718"/>
			<path fill="#FFFFFF" d="M64.827,73.272h8.472c3.799,0.056,5.664,0.734,5.664,4.154c0,2.285,0,3.621-3.118,4.224v0.148
				c1.799,0.055,2.965,0.876,2.965,2.432v2.763h-4.394V85.07c0.049-1.024-0.48-1.718-1.796-1.718h-3.407v3.641h-4.386 M72.62,80.169
				c1.887,0,1.821-0.584,1.821-2.139c0-1.226-0.374-1.573-1.821-1.573h-3.407v3.712H72.62z"/>
			<path fill="#FFFFFF" d="M88.708,78.653c4.872,0.289,6.084,0.803,6.084,3.948c0,2.266,0.108,4.501-7.136,4.501
				c-4.192,0-6.98-0.075-6.98-4.574h4.215c0,1.425,0.611,1.57,2.766,1.57c2.061,0,2.743-0.109,2.743-1.261
				c0-1.188-0.241-1.172-2.302-1.281l-0.967-0.052c-4.064-0.239-6.435-0.221-6.435-4.151c0-3.936,2.656-4.19,6.96-4.19
				c3.599,0,6.673,0.057,6.673,3.843v0.566h-4.215c0-1.41-0.701-1.41-2.458-1.41c-2.373,0-2.568,0.404-2.568,1.171
				c0,1.099,0.635,1.137,1.799,1.208"/>
			<polyline fill="#FFFFFF" points="104.203,86.993 99.812,86.993 99.812,76.457 95.596,76.457 95.596,73.272 108.639,73.272 
				108.639,76.457 104.203,76.457 			"/>
			<path fill="#FFFFFF" d="M121.652,84.634l-0.811,2.359h-4.566l4.936-13.721h6.676l5.006,13.721h-4.479l-0.854-2.359
				 M124.637,76.019h-0.039l-2.002,5.941h4.086L124.637,76.019z"/>
			<rect x="133.988" y="73.275" fill="#FFFFFF" width="4.389" height="13.718"/>
			<path fill="#FFFFFF" d="M140.883,73.272h8.342c4.584,0,6.629,1.43,6.629,5.322v2.874c0,3.747-1.447,5.524-6.039,5.524h-8.932
				 M145.27,83.808h3.846c1.625,0,2.217-0.894,2.217-2.339v-2.874c0-1.772-0.682-2.138-2.217-2.138h-3.846V83.808z"/>
		</g>
	</g>
</g>
</svg>
