<?xml version="1.0" encoding="utf-8"?>
<!-- Generator: Adobe Illustrator 16.0.0, SVG Export Plug-In . SVG Version: 6.00 Build 0)  -->
<!DOCTYPE svg PUBLIC "-//W3C//DTD SVG 1.1//EN" "http://www.w3.org/Graphics/SVG/1.1/DTD/svg11.dtd">
<svg version="1.1" id="Layer_1" xmlns="http://www.w3.org/2000/svg" xmlns:xlink="http://www.w3.org/1999/xlink" x="0px" y="0px"
	 width="200px" height="200px" viewBox="0 0 200 200" enable-background="new 0 0 200 200" xml:space="preserve">
<g>
	<rect x="5" y="52.5" fill="#FFFFFF" stroke="#000000" stroke-miterlimit="10" width="190" height="95"/>
	<path fill="#0D9C4A" d="M188.995,64.395c0-3.189-2.812-5.842-5.832-5.842H16.782c-3.019,0-5.833,2.636-5.833,5.825v71.719
		c0,3.192,2.814,5.835,5.833,5.835h166.393c3.022,0,5.837-2.643,5.837-5.835L188.995,64.395z"/>
	<path fill="#FFFFFE" d="M21.271,114.357h15.895v-13.143l10.637-16.731H38.6l-6.336,9.442l-4.422-3.108l8.484-12.07h15.3
		c-0.24-0.719-0.36-1.434-0.36-2.15c0-3.946,3.348-7.173,7.289-7.173c3.943,0,7.172,3.227,7.172,7.173
		c0,3.463-2.511,6.331-5.854,7.049v10.995h12.545v5.736H54.254v-5.139l-5.499,7.885l11.593,7.292v18.641h-5.734v-14.458
		l-11.712-6.932v12.429H21.271V114.357z"/>
	<rect x="141.788" y="71.134" fill="#FFFFFE" width="32.386" height="59.872"/>
	<polygon fill="#FFFFFE" points="83.171,97.464 124.627,97.464 124.627,94.596 136.935,100.452 124.506,106.31 124.627,103.438 
		83.171,103.438 	"/>
</g>
</svg>
