<?xml version="1.0" encoding="utf-8"?>
<!-- Generator: Adobe Illustrator 16.0.0, SVG Export Plug-In . SVG Version: 6.00 Build 0)  -->
<!DOCTYPE svg PUBLIC "-//W3C//DTD SVG 1.1//EN" "http://www.w3.org/Graphics/SVG/1.1/DTD/svg11.dtd">
<svg version="1.1" id="Layer_1" xmlns="http://www.w3.org/2000/svg" xmlns:xlink="http://www.w3.org/1999/xlink" x="0px" y="0px"
	 width="200px" height="200px" viewBox="0 -25 200 200" enable-background="new 0 -25 200 200" xml:space="preserve">
<g>
	<g>
		<path fill="#EC1C24" d="M162.104,106.156c3.195-0.076,6.277-1.768,7.992-4.739c1.717-2.97,1.641-6.484,0.108-9.291L108.101-15.447
			c-1.664-2.73-4.67-4.553-8.102-4.553c-3.431,0-6.436,1.822-8.101,4.553L29.795,92.126c-1.532,2.807-1.607,6.321,0.107,9.291
			c1.716,2.972,4.797,4.663,7.994,4.739H162.104z"/>
		<polygon fill="#FFFFFF" points="99.999,-4.072 43.555,93.691 156.444,93.691 		"/>
		<g>
			<path d="M114.491,41.605c1.899-0.819,2.006-3.644,2.006-4.414c0-1.76-0.646-6.678-5.307-6.678c-4.659,0-5.229,5.461-5.229,6.445
				c0,0.818-0.315,3.863,3.127,4.81c0.16,0.044,0.536,0.303,0.445,0.587c-0.09,0.286-0.206,0.376-0.62,0.324
				c-0.415-0.052-1.229-0.181-1.541-0.219c-0.311-0.039-0.815-0.233-1.631,0.271c-0.381,0.236-5.781,2.997-9.28,7.663
				c-0.156,0.207-0.648,0.751-0.312,1.735l2.64,7.636c0,0,0.39,0.777-0.155,1.14c-0.543,0.362-2.459,1.14-2.769,1.217
				c-0.312,0.077-0.907,0.311-1.502-0.57c1.365,2.019-4.767-7.951-6.938-10.121c-0.207-0.208-0.387-0.699,0.096-1.071
				c0.483-0.37,2.812-2.071,2.812-4.936s-2.019-4.78-4.607-4.78c-2.589,0-4.712,1.984-4.712,5.039c0,2.089,1.381,3.711,1.691,4.039
				c0.311,0.328,0.311,1.155-0.587,1.13c-0.897-0.025-2.226-0.146-3.132,0.061c-1.991,0.455-4.905,1.479-6.602,3.418
				c-0.757,0.865-2.729,3.896-3.236,5.099c-0.789,1.877-0.91,5.115-0.724,6.965c0.025,0.258,0,0.544-0.091,0.737
				c-0.09,0.193-0.375,0.388-0.375,1.19c0,0.804,0.725,1.761,2.109,1.761c0.867,0,2.446-0.751,2.446-2.33
				c0-0.728-0.452-1.215-0.698-1.514c-0.244-0.298-0.551-1.146-0.091-2.227c0.875-2.055,2.47-4.793,5.812-6.11
				c0,0,0.009,1.019,0.009,1.278c0,2.819-2.624,11.382-6.817,13.064l-8.595,3.882c0,0,1.605,7.353,1.708,7.793
				c0.104,0.44,0.415,0.829,0.803,0.829c0.388,0,0.75-0.519,0.777-0.934c0.025-0.414,0.284-2.925,0.31-3.157
				c0.026-0.232,0.155-1.009,1.294-1.397c1.139-0.389,7.274-2.435,7.689-2.589c0.415-0.156,1.993-0.623,3.339-2.072
				c1.346-1.45,3.701-4.167,3.883-4.504c0,0,4.823,10.589,5.859,19.01l6.592-1.5c0,0,0.242-0.121,0.501,0.068
				c0.258,0.189,1.363,0.759,1.588,0.88c0.225,0.12,0.829,0.225,1.019-0.034c0.189-0.26,0.173-0.656,0.12-1.035l-0.88-4.919
				c0,0-0.255-0.734,0.449-1.156c2.168-1.301,8.771-7.02,10.251-8.906c0.381-0.482,1.382-1.621,2.899-1.621
				c1.52,0,3.417,0.033,4.591-0.276c1.174-0.311,1.933,0.38,1.968,1.449c0.197,6.126,2.21,9.343,3.073,10.458
				c1.575,2.041,1.75,3.617,1.932,4.799c0.068,0.448,0.241,1.967,1.614,1.967c0.568,0,0.673-0.154,1.113-0.259
				c0.439-0.104,5.876-1.397,6.135-1.449c0.259-0.053,0.751-0.362,0.674-0.725c-0.079-0.363-0.441-0.649-0.854-0.673
				c-0.415-0.026-3.159-0.286-3.47-0.339c-1.059-0.177-1.512-0.278-1.916-1.604c-0.181-0.595-3.779-13.521-3.883-14.799
				c0,0,1.588-0.208,2.451-1.001c0,0-4.453-6.144-6.214-15.05c0,0,3.142,6.731,10.7,10.147c0.492,0.223,0.805,0.325,1.122,0.553
				c0.363,0.26,0.948,0.587,1.467,0.587c0.518,0,1.95-0.552,1.95-1.897c0-1.347-1.226-1.743-1.466-1.848
				c-1.379-0.59-3.032-1.702-4.229-2.743c-2.832-2.463-4.444-4.571-5.988-8.319c-0.241-0.587-2.278-4.694-2.692-5.144
				c-0.898-0.973-2.128-1.702-3.197-1.945c-0.284-0.064-1.152-0.22-1.152-0.543C114.063,41.761,114.326,41.677,114.491,41.605z"/>
			<path fill="#FFFFFF" d="M106.229,49.445l-4.314,2.036c0,0-1.65,0.389-1.035,2.692c0.138,0.519,0.483,1.761,0.587,2.174
				c0.103,0.415,0.655,1.692,0.863,2.003c0.206,0.312,0.862,1.588,0.758,2.521c-0.103,0.932-0.896,2.45-1.933,2.795
				c-1.035,0.346-6.144,1.968-6.454,2.037c-0.311,0.067-2.45,0.794-3.659-0.518c-1.208-1.312-3.728-4.385-3.728-4.385l-0.034,1.796
				c0,0,0.103,2.312,0.622,4.038c0.518,1.725,2.848,11.363,3.313,16.017c0.138,1.379,0.829,2.795,1.346,2.795
				s0.673-0.501,0.551-0.846c-0.12-0.346-0.914-2.484-0.982-2.709c-0.069-0.226-0.415-0.983,0.569-1.623
				c0.984-0.637,1.691-1.172,2.796-3.071c1.104-1.898,3.038-5.316,8.939-8.284c0,0-0.932-0.173-2.277-1.484
				C102.156,67.429,106.47,60.181,106.229,49.445z"/>
		</g>
	</g>
	<g>
		<g>
			<g>
				<path d="M171.368,158.188c0,6.523-5.288,11.812-11.812,11.812H40.444c-6.523,0-11.812-5.289-11.812-11.812v-37.601
					c0-6.523,5.289-11.812,11.812-11.812h119.113c6.523,0,11.812,5.288,11.812,11.812V158.188z"/>
				<path fill="#FFFFFF" d="M165.234,158.188c0,3.137-2.542,5.679-5.678,5.679H40.444c-3.136,0-5.679-2.542-5.679-5.679v-37.601
					c0-3.136,2.543-5.679,5.679-5.679h119.113c3.136,0,5.678,2.543,5.678,5.679V158.188z"/>
			</g>
		</g>
		<g>
			<path d="M61.665,142.959c0-1.239-0.521-2.055-2.969-2.544l-3.915-0.815c-2.316-0.458-5.351-2.447-5.351-6.297
				c0-3.687,3.36-7.243,8.744-7.243c0,0,6.036,0,9.07,3.589l-3.328,3.295c-2.708-2.315-5.905-2.315-5.905-2.315
				c-2.088,0-3.328,1.011-3.328,2.512c0,1.207,0.881,1.989,4.829,2.545c4.372,0.587,7.34,3.295,7.373,7.112
				c0.033,3.196-1.761,7.243-9.722,7.243c-4.534,0-6.655-1.208-9.787-4.373l3.915-2.969c2.153,2.088,3.654,2.74,6.133,2.74
				C60.001,145.438,61.665,144.656,61.665,142.959z"/>
			<path d="M70.536,141.459c0-5.188,2.708-8.907,8.025-8.907c3.133,0,6.232,2.056,7.374,5.417l-4.241,1.598
				c-0.555-1.827-1.665-3.034-3.36-3.034c-2.284,0-3.198,2.219-3.198,4.927c0,2.871,0.849,4.763,3.263,4.763
				c1.664,0,2.544-0.913,3.295-3.001l4.371,1.599c-1.468,3.719-3.719,5.317-7.602,5.317
				C73.243,150.137,70.536,146.712,70.536,141.459z"/>
			<path d="M97.751,132.585c3.393,0,6.265,3.002,6.265,6.917v10.016h-4.47v-10.114c0-1.729-0.913-2.676-2.871-2.676
				c-2.056,0-3.099,1.632-3.099,3.459v9.331H89.17v-23.034h4.405v7.635C95.337,132.813,96.283,132.585,97.751,132.585z"/>
			<path d="M107.41,141.459c0-6.688,3.914-9.135,7.83-9.135c3.556,0,7.992,2.446,7.992,9.135c0,4.927-3.229,8.646-7.765,8.646
				C110.477,150.104,107.41,146.679,107.41,141.459z"/>
			<path fill="#FFFFFF" d="M118.763,141.459c0-3.883-1.337-5.09-3.295-5.09c-2.479,0-3.49,2.022-3.49,5.09
				c0,2.675,1.305,4.698,3.49,4.698C117.621,146.157,118.763,144.134,118.763,141.459z"/>
			<path d="M126.088,141.459c0-6.688,3.915-9.135,7.83-9.135c3.555,0,7.992,2.446,7.992,9.135c0,4.927-3.229,8.646-7.765,8.646
				C129.154,150.104,126.088,146.679,126.088,141.459z"/>
			<path fill="#FFFFFF" d="M137.441,141.459c0-3.883-1.338-5.09-3.296-5.09c-2.479,0-3.49,2.022-3.49,5.09
				c0,2.675,1.305,4.698,3.49,4.698C136.3,146.157,137.441,144.134,137.441,141.459z"/>
			<path d="M145.973,126.418h4.372v16.934c0,1.761,0.293,2.185,1.239,2.251c0.555,0.032,1.011,0,1.631-0.164l0.424,3.851
				c-1.533,0.391-3.001,0.652-4.045,0.652c-1.077,0-3.621-0.359-3.621-4.209V126.418z"/>
		</g>
	</g>
</g>
</svg>
