<?xml version="1.0" encoding="utf-8"?>
<!-- Generator: Adobe Illustrator 16.0.0, SVG Export Plug-In . SVG Version: 6.00 Build 0)  -->
<!DOCTYPE svg PUBLIC "-//W3C//DTD SVG 1.1//EN" "http://www.w3.org/Graphics/SVG/1.1/DTD/svg11.dtd">
<svg version="1.1" id="Layer_1" xmlns="http://www.w3.org/2000/svg" xmlns:xlink="http://www.w3.org/1999/xlink" x="0px" y="0px"
	 width="200px" height="200px" viewBox="0 0 200 200" enable-background="new 0 0 200 200" xml:space="preserve">
<g>
	<rect x="5" y="33.017" fill="#FFFFFF" stroke="#000000" stroke-miterlimit="10" width="190" height="133.967"/>
	<g>
		<polyline fill="none" stroke="#000000" stroke-width="1.704" stroke-miterlimit="2.6131" points="37.146,83.738 58.044,69.605 
			55.988,66.564 35.089,80.697 		"/>
		<path fill="none" stroke="#000000" stroke-width="1.3389" stroke-miterlimit="2.6131" d="M36.673,85.009l-2.966-4.386
			 M35.058,86.101l-2.966-4.385"/>
		<path fill="none" stroke="#000000" stroke-width="1.2172" stroke-miterlimit="2.6131" d="M27.308,66.828
			c0.546,0.767,0.239,1.817-0.474,2.438c-0.25,0.218-0.227,0.233-0.464,0.435c-1.709,1.451-0.628,3.321,0.341,3.613
			c0.731,0.221,1.115,0.096,2.353-0.107c1.016-0.166,1.637,0.142,2.069,0.836c0.478,0.766-0.196,1.802-0.357,3.012
			c-0.073,0.555-0.187,0.968-0.041,1.598c0.056,0.345,0.449,1.659,1.118,2.608 M30.992,64.463c0.556,0.802,0.387,2.487-0.414,2.988
			c-0.282,0.176-0.262,0.195-0.526,0.357c-1.916,1.164-1.142,3.181-0.23,3.621c0.688,0.332,1.2,0.218,2.451,0.129
			c1.39-0.1,1.839,0.181,2.272,0.873c0.72,1.151,0.062,2.185-0.842,3.148c-0.438,0.468-0.63,0.741-0.807,1.876
			c-0.116,0.822-0.04,1.724,0.629,2.674"/>
		<g>
			<path fill-rule="evenodd" clip-rule="evenodd" fill="#ED1C24" d="M66.187,71.017l-0.035-1.087l-0.07-1.086l-0.122-1.069
				l-0.176-1.069l-0.21-1.069l-0.263-1.052l-0.316-1.034l-0.35-1.017l-0.403-1.017l-0.456-0.981l-0.49-0.964l-0.526-0.946
				l-0.578-0.911L61.56,56.82l-0.648-0.859L60.21,55.12l-0.719-0.789L58.72,53.56l-0.806-0.736L57.09,52.14l-0.859-0.666
				l-0.894-0.613l-0.929-0.578l-0.929-0.526l-0.964-0.508l-0.999-0.438l-0.999-0.402l-1.034-0.368l-1.034-0.299l-1.052-0.28
				l-1.052-0.21l-1.069-0.176l-1.087-0.122l-1.069-0.07l-1.086-0.018l-1.087,0.018l-1.087,0.07l-1.068,0.122l-1.069,0.176
				l-1.069,0.21l-1.052,0.28l-1.034,0.299l-1.017,0.368l-1.017,0.402l-0.981,0.438l-0.964,0.508l-0.946,0.526L28.73,50.86
				l-0.894,0.613l-0.859,0.666l-0.841,0.684l-0.789,0.736l-0.771,0.771l-0.736,0.789l-0.701,0.841l-0.648,0.859l-0.613,0.894
				L21.3,58.625l-0.544,0.946l-0.491,0.964l-0.438,0.981l-0.403,1.017l-0.368,1.017l-0.315,1.034l-0.263,1.052l-0.211,1.069
				l-0.175,1.069l-0.123,1.069l-0.07,1.086l-0.017,1.087l0.017,1.087l0.07,1.069l0.123,1.087l0.175,1.068l0.211,1.069l0.263,1.034
				l0.315,1.052l0.368,1.017l0.403,0.999l0.438,0.999l0.491,0.964l0.544,0.946l0.578,0.912l0.613,0.894l0.648,0.858l0.701,0.842
				l0.736,0.789l0.771,0.771l0.789,0.736l0.841,0.684l0.859,0.666l0.894,0.613l0.912,0.579l0.946,0.525l0.964,0.508l0.981,0.438
				l1.017,0.403l1.017,0.368l1.034,0.298l1.052,0.263l1.069,0.229l1.069,0.157l1.068,0.122l1.087,0.088l1.087,0.018l1.086-0.018
				l1.069-0.088l1.087-0.122l1.069-0.157l1.052-0.229l1.052-0.263l1.034-0.298l1.034-0.368l0.999-0.403l0.999-0.438l0.964-0.508
				l0.929-0.525l0.929-0.579l0.894-0.613l0.859-0.666l0.824-0.684l0.806-0.736l0.771-0.771l0.719-0.789l0.701-0.842l0.648-0.858
				l0.631-0.894l0.578-0.912l0.526-0.946l0.49-0.964l0.456-0.999l0.403-0.999l0.35-1.017l0.316-1.052l0.263-1.034l0.21-1.069
				l0.176-1.068l0.122-1.087l0.07-1.069L66.187,71.017L66.187,71.017z M56.985,83.251l0.613-0.771l0.561-0.807l0.525-0.841
				l0.456-0.858l0.438-0.877l0.385-0.894l0.352-0.912l0.297-0.946l0.246-0.946l0.192-0.964l0.141-0.964l0.105-0.981l0.052-0.964
				v-0.981l-0.052-0.982l-0.088-0.981l-0.158-0.964l-0.192-0.964l-0.246-0.946l-0.297-0.929l-0.334-0.93l-0.386-0.894l-0.438-0.876
				l-0.474-0.859l-0.508-0.841l-0.561-0.807l-0.614-0.771l-0.631-0.736l-0.684-0.719l-0.701-0.666l-0.754-0.648l-0.771-0.597
				l-0.807-0.561l-0.823-0.508l-0.859-0.491l-0.876-0.421l-0.911-0.386l-0.912-0.35l-0.929-0.28l-0.964-0.246l-0.946-0.21
				l-0.981-0.141l-0.965-0.104l-0.981-0.035h-0.981l-0.981,0.035l-0.981,0.104L38.599,52l-0.964,0.192l-0.946,0.246l-0.93,0.298
				l-0.911,0.332l-0.911,0.403l-0.876,0.421l-0.859,0.474l-0.824,0.525l-0.806,0.561L29.8,56.049L56.985,83.251L56.985,83.251z
				 M54.269,85.968L27.065,58.783l-0.613,0.788l-0.561,0.789l-0.509,0.842l-0.473,0.858l-0.438,0.876l-0.386,0.895l-0.351,0.929
				l-0.28,0.929l-0.245,0.946l-0.211,0.964l-0.14,0.965l-0.105,0.981l-0.053,0.981v0.981l0.053,0.964l0.105,0.981l0.14,0.964
				l0.211,0.964l0.228,0.946l0.298,0.947l0.351,0.911l0.386,0.894l0.421,0.877l0.49,0.876l0.509,0.824l0.561,0.806l0.596,0.771
				l0.648,0.736l0.667,0.719l0.718,0.666l0.736,0.648l0.771,0.596l0.806,0.561l0.842,0.526l0.859,0.473l0.876,0.421l0.894,0.386
				l0.929,0.351l0.929,0.28l0.947,0.245l0.964,0.193l0.964,0.157l0.981,0.105l0.981,0.035h0.982l0.98-0.053l0.965-0.088l0.964-0.157
				l0.964-0.193l0.946-0.245l0.946-0.298l0.912-0.351l0.894-0.386l0.876-0.421l0.859-0.49l0.841-0.509l0.807-0.561L54.269,85.968
				L54.269,85.968z"/>
		</g>
	</g>
	<g>
		<polyline fill="none" stroke="#000000" stroke-width="1.704" stroke-miterlimit="2.6131" points="95.111,83.738 116.011,69.605 
			113.954,66.564 93.055,80.697 		"/>
		<path fill="none" stroke="#000000" stroke-width="1.3389" stroke-miterlimit="2.6131" d="M94.64,85.009l-2.966-4.386
			 M93.023,86.101l-2.966-4.385"/>
		<path fill="none" stroke="#000000" stroke-width="1.2172" stroke-miterlimit="2.6131" d="M85.273,66.828
			c0.547,0.767,0.24,1.817-0.473,2.438c-0.251,0.218-0.228,0.233-0.464,0.435c-1.709,1.451-0.629,3.321,0.341,3.613
			c0.73,0.221,1.114,0.096,2.353-0.107c1.016-0.166,1.637,0.142,2.069,0.836c0.478,0.766-0.197,1.802-0.357,3.012
			c-0.074,0.555-0.188,0.968-0.042,1.598c0.057,0.345,0.449,1.659,1.118,2.608 M88.958,64.463c0.556,0.802,0.388,2.487-0.414,2.988
			c-0.281,0.176-0.261,0.195-0.525,0.357c-1.916,1.164-1.142,3.181-0.231,3.621c0.688,0.332,1.2,0.218,2.451,0.129
			c1.391-0.1,1.84,0.181,2.272,0.873c0.721,1.151,0.062,2.185-0.842,3.148c-0.438,0.468-0.629,0.741-0.806,1.876
			c-0.117,0.822-0.04,1.724,0.629,2.674"/>
		<g>
			<path fill-rule="evenodd" clip-rule="evenodd" fill="#ED1C24" d="M124.153,71.017l-0.035-1.087l-0.07-1.086l-0.122-1.069
				l-0.176-1.069l-0.21-1.069l-0.264-1.052l-0.315-1.034l-0.351-1.017l-0.402-1.017l-0.456-0.981l-0.49-0.964l-0.526-0.946
				l-0.578-0.911l-0.632-0.894l-0.647-0.859l-0.701-0.841l-0.72-0.789l-0.771-0.771l-0.807-0.736l-0.823-0.684l-0.859-0.666
				l-0.894-0.613l-0.929-0.578l-0.929-0.526l-0.965-0.508l-0.999-0.438l-0.999-0.402l-1.033-0.368l-1.035-0.299l-1.051-0.28
				l-1.052-0.21l-1.069-0.176l-1.087-0.122l-1.069-0.07L100,46.864l-1.086,0.018l-1.087,0.07l-1.069,0.122l-1.069,0.176l-1.069,0.21
				l-1.051,0.28l-1.034,0.299l-1.018,0.368l-1.016,0.402l-0.982,0.438l-0.964,0.508l-0.946,0.526l-0.911,0.578l-0.895,0.613
				l-0.858,0.666l-0.841,0.684l-0.789,0.736l-0.771,0.771l-0.736,0.789l-0.701,0.841l-0.648,0.859l-0.613,0.894l-0.578,0.911
				l-0.543,0.946l-0.491,0.964l-0.438,0.981l-0.403,1.017l-0.367,1.017l-0.315,1.034l-0.264,1.052l-0.21,1.069l-0.176,1.069
				l-0.122,1.069l-0.07,1.086l-0.018,1.087l0.018,1.087l0.07,1.069l0.122,1.087l0.176,1.068l0.21,1.069l0.264,1.034l0.315,1.052
				L77.39,79.5l0.403,0.999l0.438,0.999l0.491,0.964l0.543,0.946l0.578,0.912l0.613,0.894l0.648,0.858l0.701,0.842l0.736,0.789
				l0.771,0.771l0.789,0.736l0.841,0.684l0.858,0.666l0.895,0.613l0.911,0.579l0.946,0.525l0.964,0.508l0.982,0.438l1.016,0.403
				l1.018,0.368l1.034,0.298l1.051,0.263l1.069,0.229l1.069,0.157l1.069,0.122l1.087,0.088L100,95.169l1.087-0.018l1.069-0.088
				l1.087-0.122l1.069-0.157l1.052-0.229l1.051-0.263l1.035-0.298l1.033-0.368l0.999-0.403l0.999-0.438l0.965-0.508l0.929-0.525
				l0.929-0.579l0.894-0.613l0.859-0.666l0.823-0.684l0.807-0.736l0.771-0.771l0.72-0.789l0.701-0.842l0.647-0.858l0.632-0.894
				l0.578-0.912l0.526-0.946l0.49-0.964l0.456-0.999l0.402-0.999l0.351-1.017l0.315-1.052l0.264-1.034l0.21-1.069l0.176-1.068
				l0.122-1.087l0.07-1.069L124.153,71.017L124.153,71.017z M114.951,83.251l0.613-0.771l0.561-0.807l0.526-0.841l0.456-0.858
				l0.438-0.877l0.386-0.894l0.351-0.912l0.298-0.946l0.245-0.946l0.193-0.964l0.141-0.964l0.104-0.981l0.053-0.964v-0.981
				l-0.053-0.982l-0.088-0.981l-0.157-0.964l-0.193-0.964l-0.245-0.946l-0.298-0.929l-0.333-0.93l-0.386-0.894l-0.438-0.876
				l-0.474-0.859l-0.509-0.841l-0.561-0.807l-0.613-0.771l-0.631-0.736l-0.684-0.719l-0.701-0.666l-0.754-0.648l-0.771-0.597
				l-0.807-0.561l-0.824-0.508l-0.858-0.491l-0.876-0.421l-0.912-0.386l-0.911-0.35l-0.929-0.28l-0.964-0.246l-0.947-0.21
				l-0.981-0.141l-0.964-0.104l-0.981-0.035h-0.981l-0.981,0.035l-0.981,0.104L96.565,52l-0.965,0.192l-0.946,0.246l-0.929,0.298
				l-0.911,0.332l-0.911,0.403l-0.877,0.421l-0.859,0.474l-0.823,0.525l-0.807,0.561l-0.771,0.597L114.951,83.251L114.951,83.251z
				 M112.234,85.968L85.032,58.783l-0.613,0.788l-0.562,0.789l-0.508,0.842l-0.474,0.858l-0.438,0.876l-0.385,0.895l-0.351,0.929
				l-0.281,0.929l-0.245,0.946l-0.21,0.964l-0.141,0.965l-0.104,0.981l-0.053,0.981v0.981l0.053,0.964l0.104,0.981l0.141,0.964
				l0.21,0.964l0.229,0.946l0.298,0.947l0.351,0.911l0.385,0.894l0.421,0.877l0.491,0.876l0.508,0.824l0.562,0.806l0.596,0.771
				l0.648,0.736l0.666,0.719l0.719,0.666l0.736,0.648l0.771,0.596l0.807,0.561l0.841,0.526l0.859,0.473l0.876,0.421l0.895,0.386
				l0.929,0.351l0.929,0.28l0.946,0.245l0.964,0.193l0.965,0.157l0.98,0.105l0.982,0.035h0.981l0.981-0.053l0.965-0.088l0.963-0.157
				l0.965-0.193l0.945-0.245l0.947-0.298l0.911-0.351l0.894-0.386l0.877-0.421l0.858-0.49l0.842-0.509l0.806-0.561L112.234,85.968
				L112.234,85.968z"/>
		</g>
	</g>
	<g>
		<polyline fill="none" stroke="#000000" stroke-width="1.704" stroke-miterlimit="2.6131" points="153.078,83.738 173.977,69.605 
			171.92,66.564 151.021,80.697 		"/>
		<path fill="none" stroke="#000000" stroke-width="1.3389" stroke-miterlimit="2.6131" d="M152.605,85.009l-2.966-4.386
			 M150.989,86.101l-2.965-4.385"/>
		<path fill="none" stroke="#000000" stroke-width="1.2172" stroke-miterlimit="2.6131" d="M143.24,66.828
			c0.546,0.767,0.239,1.817-0.474,2.438c-0.25,0.218-0.227,0.233-0.464,0.435c-1.709,1.451-0.628,3.321,0.341,3.613
			c0.731,0.221,1.115,0.096,2.353-0.107c1.016-0.166,1.637,0.142,2.069,0.836c0.478,0.766-0.196,1.802-0.357,3.012
			c-0.073,0.555-0.187,0.968-0.041,1.598c0.056,0.345,0.449,1.659,1.118,2.608 M146.924,64.463c0.557,0.802,0.388,2.487-0.414,2.988
			c-0.281,0.176-0.261,0.195-0.525,0.357c-1.916,1.164-1.142,3.181-0.23,3.621c0.688,0.332,1.2,0.218,2.451,0.129
			c1.39-0.1,1.839,0.181,2.272,0.873c0.72,1.151,0.062,2.185-0.842,3.148c-0.438,0.468-0.63,0.741-0.807,1.876
			c-0.116,0.822-0.04,1.724,0.629,2.674"/>
		<g>
			<path fill-rule="evenodd" clip-rule="evenodd" fill="#ED1C24" d="M182.119,71.017l-0.035-1.087l-0.07-1.086l-0.122-1.069
				l-0.176-1.069l-0.21-1.069l-0.263-1.052l-0.316-1.034l-0.35-1.017l-0.403-1.017l-0.456-0.981l-0.49-0.964l-0.526-0.946
				l-0.578-0.911l-0.631-0.894l-0.648-0.859l-0.701-0.841l-0.719-0.789l-0.771-0.771l-0.807-0.736l-0.823-0.684l-0.859-0.666
				l-0.894-0.613l-0.929-0.578l-0.929-0.526l-0.964-0.508l-0.999-0.438l-0.999-0.402l-1.034-0.368l-1.034-0.299l-1.052-0.28
				l-1.052-0.21l-1.069-0.176l-1.087-0.122l-1.069-0.07l-1.086-0.018l-1.087,0.018l-1.087,0.07l-1.069,0.122l-1.068,0.176
				l-1.069,0.21l-1.052,0.28l-1.034,0.299l-1.017,0.368l-1.017,0.402l-0.981,0.438l-0.964,0.508l-0.946,0.526l-0.912,0.578
				l-0.894,0.613l-0.859,0.666l-0.841,0.684l-0.789,0.736l-0.771,0.771l-0.736,0.789l-0.701,0.841l-0.648,0.859l-0.613,0.894
				l-0.578,0.911l-0.544,0.946l-0.491,0.964l-0.438,0.981l-0.403,1.017l-0.368,1.017l-0.315,1.034l-0.263,1.052l-0.211,1.069
				l-0.175,1.069l-0.123,1.069l-0.07,1.086l-0.017,1.087l0.017,1.087l0.07,1.069l0.123,1.087l0.175,1.068l0.211,1.069l0.263,1.034
				l0.315,1.052l0.368,1.017l0.403,0.999l0.438,0.999l0.491,0.964l0.544,0.946l0.578,0.912l0.613,0.894l0.648,0.858l0.701,0.842
				l0.736,0.789l0.771,0.771l0.789,0.736l0.841,0.684l0.859,0.666l0.894,0.613l0.912,0.579l0.946,0.525l0.964,0.508l0.981,0.438
				l1.017,0.403l1.017,0.368l1.034,0.298l1.052,0.263l1.069,0.229l1.068,0.157l1.069,0.122l1.087,0.088l1.087,0.018l1.086-0.018
				l1.069-0.088l1.087-0.122l1.069-0.157l1.052-0.229l1.052-0.263l1.034-0.298l1.034-0.368l0.999-0.403l0.999-0.438l0.964-0.508
				l0.929-0.525l0.929-0.579l0.894-0.613l0.859-0.666l0.823-0.684l0.807-0.736l0.771-0.771l0.719-0.789l0.701-0.842l0.648-0.858
				l0.631-0.894l0.578-0.912l0.526-0.946l0.49-0.964l0.456-0.999l0.403-0.999l0.35-1.017l0.316-1.052l0.263-1.034l0.21-1.069
				l0.176-1.068l0.122-1.087l0.07-1.069L182.119,71.017L182.119,71.017z M172.918,83.251l0.613-0.771l0.561-0.807l0.525-0.841
				l0.456-0.858l0.438-0.877l0.386-0.894l0.352-0.912l0.297-0.946l0.246-0.946l0.192-0.964l0.141-0.964l0.105-0.981l0.052-0.964
				v-0.981l-0.052-0.982l-0.088-0.981l-0.158-0.964l-0.192-0.964l-0.246-0.946l-0.297-0.929l-0.334-0.93l-0.386-0.894l-0.438-0.876
				l-0.474-0.859l-0.508-0.841l-0.561-0.807l-0.614-0.771l-0.631-0.736l-0.684-0.719l-0.701-0.666l-0.754-0.648l-0.771-0.597
				l-0.807-0.561l-0.823-0.508l-0.859-0.491l-0.876-0.421l-0.911-0.386l-0.912-0.35l-0.929-0.28l-0.964-0.246l-0.946-0.21
				l-0.981-0.141l-0.965-0.104l-0.981-0.035h-0.981l-0.981,0.035l-0.981,0.104L154.531,52l-0.964,0.192l-0.946,0.246l-0.93,0.298
				l-0.911,0.332l-0.911,0.403l-0.876,0.421l-0.859,0.474l-0.824,0.525l-0.806,0.561l-0.771,0.597L172.918,83.251L172.918,83.251z
				 M170.201,85.968l-27.203-27.185l-0.613,0.788l-0.561,0.789l-0.509,0.842l-0.473,0.858l-0.438,0.876l-0.386,0.895l-0.351,0.929
				l-0.28,0.929l-0.245,0.946l-0.211,0.964l-0.14,0.965l-0.105,0.981l-0.053,0.981v0.981l0.053,0.964l0.105,0.981l0.14,0.964
				l0.211,0.964l0.228,0.946l0.298,0.947l0.351,0.911l0.386,0.894l0.421,0.877l0.49,0.876l0.509,0.824l0.561,0.806l0.596,0.771
				l0.648,0.736l0.666,0.719l0.719,0.666l0.736,0.648l0.771,0.596l0.806,0.561l0.842,0.526l0.858,0.473l0.877,0.421l0.894,0.386
				l0.929,0.351l0.929,0.28l0.947,0.245l0.964,0.193l0.964,0.157l0.981,0.105l0.981,0.035h0.981l0.981-0.053l0.965-0.088
				l0.964-0.157l0.964-0.193l0.946-0.245l0.946-0.298l0.911-0.351l0.895-0.386l0.876-0.421l0.858-0.49l0.842-0.509l0.807-0.561
				L170.201,85.968L170.201,85.968z"/>
		</g>
	</g>
	<g>
		<polyline fill="none" stroke="#000000" stroke-width="1.704" stroke-miterlimit="2.6131" points="37.146,141.704 58.045,127.571 
			55.988,124.53 35.089,138.663 		"/>
		<path fill="none" stroke="#000000" stroke-width="1.3389" stroke-miterlimit="2.6131" d="M36.673,142.975l-2.966-4.386
			 M35.058,144.067l-2.966-4.386"/>
		<path fill="none" stroke="#000000" stroke-width="1.2172" stroke-miterlimit="2.6131" d="M27.308,124.794
			c0.546,0.767,0.24,1.817-0.474,2.438c-0.25,0.218-0.227,0.233-0.463,0.435c-1.709,1.451-0.629,3.321,0.34,3.613
			c0.731,0.221,1.115,0.096,2.353-0.107c1.016-0.166,1.637,0.142,2.069,0.836c0.479,0.766-0.196,1.802-0.357,3.013
			c-0.073,0.554-0.187,0.967-0.041,1.598c0.057,0.344,0.449,1.658,1.118,2.608 M30.992,122.429c0.556,0.802,0.388,2.487-0.414,2.989
			c-0.281,0.176-0.261,0.195-0.526,0.356c-1.915,1.164-1.142,3.181-0.23,3.621c0.688,0.333,1.2,0.218,2.451,0.129
			c1.39-0.1,1.839,0.181,2.272,0.873c0.72,1.152,0.062,2.185-0.842,3.148c-0.438,0.468-0.63,0.741-0.806,1.877
			c-0.117,0.821-0.04,1.723,0.629,2.673"/>
		<g>
			<path fill-rule="evenodd" clip-rule="evenodd" fill="#ED1C24" d="M66.187,128.982l-0.035-1.086l-0.069-1.087l-0.123-1.069
				l-0.176-1.069l-0.21-1.069l-0.263-1.051l-0.315-1.035l-0.351-1.016l-0.403-1.017l-0.456-0.981l-0.49-0.964l-0.525-0.947
				l-0.579-0.911l-0.631-0.894l-0.648-0.859l-0.701-0.841l-0.719-0.789l-0.771-0.771l-0.806-0.735l-0.824-0.685l-0.858-0.666
				l-0.895-0.613l-0.929-0.578l-0.929-0.525l-0.964-0.509l-0.999-0.438l-0.999-0.402l-1.034-0.368l-1.034-0.298l-1.052-0.281
				l-1.052-0.21l-1.069-0.176l-1.086-0.122l-1.069-0.07l-1.087-0.018l-1.087,0.018l-1.087,0.07l-1.068,0.122l-1.069,0.176
				l-1.069,0.21l-1.052,0.281l-1.034,0.298l-1.017,0.368l-1.017,0.402l-0.981,0.438l-0.964,0.509l-0.946,0.525l-0.911,0.578
				l-0.895,0.613l-0.858,0.666l-0.842,0.685l-0.788,0.735l-0.771,0.771l-0.736,0.789l-0.701,0.841l-0.648,0.859l-0.613,0.894
				l-0.578,0.911l-0.544,0.947l-0.49,0.964l-0.438,0.981l-0.403,1.017l-0.368,1.016l-0.315,1.035l-0.263,1.051l-0.21,1.069
				l-0.176,1.069l-0.122,1.069l-0.07,1.087l-0.018,1.086l0.018,1.087l0.07,1.069l0.122,1.087l0.176,1.069l0.21,1.068l0.263,1.034
				l0.315,1.052l0.368,1.017l0.403,0.999l0.438,0.999l0.49,0.964l0.544,0.946l0.578,0.912l0.613,0.894l0.648,0.859l0.701,0.841
				l0.736,0.789l0.771,0.771l0.788,0.736l0.842,0.684l0.858,0.666l0.895,0.613l0.911,0.579l0.946,0.525l0.964,0.509l0.981,0.438
				l1.017,0.403l1.017,0.368l1.034,0.298l1.052,0.263l1.069,0.229l1.069,0.157l1.068,0.123l1.087,0.088l1.087,0.018l1.087-0.018
				l1.069-0.088l1.086-0.123l1.069-0.157l1.052-0.229l1.052-0.263l1.034-0.298l1.034-0.368l0.999-0.403l0.999-0.438l0.964-0.509
				l0.929-0.525l0.929-0.579l0.895-0.613l0.858-0.666l0.824-0.684l0.806-0.736l0.771-0.771l0.719-0.789l0.701-0.841l0.648-0.859
				l0.631-0.894l0.579-0.912l0.525-0.946l0.49-0.964l0.456-0.999l0.403-0.999l0.351-1.017l0.315-1.052l0.263-1.034l0.21-1.068
				l0.176-1.069l0.123-1.087l0.069-1.069L66.187,128.982L66.187,128.982z M56.985,141.217l0.613-0.771l0.561-0.806l0.525-0.842
				l0.456-0.858l0.438-0.877l0.386-0.894l0.351-0.911l0.298-0.947l0.245-0.946l0.193-0.964l0.14-0.964l0.105-0.981l0.053-0.964
				v-0.981l-0.053-0.981l-0.088-0.981l-0.157-0.964l-0.193-0.965l-0.245-0.946l-0.298-0.929l-0.333-0.929l-0.386-0.895l-0.438-0.876
				l-0.474-0.858l-0.508-0.842l-0.561-0.806l-0.614-0.771l-0.631-0.736l-0.683-0.719l-0.701-0.666l-0.754-0.648l-0.771-0.596
				l-0.807-0.562l-0.823-0.508l-0.859-0.491l-0.876-0.42l-0.911-0.386l-0.912-0.351l-0.929-0.28l-0.964-0.246l-0.946-0.21
				l-0.981-0.141l-0.964-0.104l-0.981-0.035h-0.982l-0.981,0.035l-0.98,0.104l-0.965,0.158l-0.964,0.192l-0.946,0.246l-0.929,0.298
				l-0.912,0.333l-0.911,0.402l-0.876,0.421l-0.859,0.474l-0.823,0.525l-0.807,0.562l-0.771,0.596L56.985,141.217L56.985,141.217z
				 M54.269,143.934l-27.202-27.185l-0.614,0.789l-0.561,0.788l-0.509,0.842l-0.473,0.858l-0.438,0.876l-0.386,0.895l-0.351,0.929
				l-0.28,0.929l-0.245,0.946L23,125.564l-0.141,0.965l-0.105,0.981l-0.052,0.981v0.981l0.052,0.964l0.105,0.981L23,132.383
				l0.21,0.964l0.228,0.947l0.298,0.946l0.351,0.911l0.386,0.894l0.421,0.877l0.49,0.876l0.509,0.824l0.561,0.806l0.596,0.771
				l0.649,0.736l0.666,0.719l0.718,0.666l0.736,0.648l0.771,0.596l0.807,0.561l0.841,0.526l0.859,0.474l0.876,0.42l0.894,0.386
				l0.93,0.351l0.929,0.28l0.946,0.245L38.634,148l0.964,0.157l0.981,0.105l0.981,0.035h0.982l0.981-0.053l0.964-0.088L45.452,148
				l0.964-0.193l0.946-0.245l0.946-0.298l0.912-0.351l0.894-0.386l0.876-0.42l0.859-0.491l0.841-0.509l0.807-0.561L54.269,143.934
				L54.269,143.934z"/>
		</g>
	</g>
	<g>
		<polyline fill="none" stroke="#000000" stroke-width="1.704" stroke-miterlimit="2.6131" points="95.111,141.704 116.011,127.571 
			113.954,124.531 93.055,138.664 		"/>
		<path fill="none" stroke="#000000" stroke-width="1.3389" stroke-miterlimit="2.6131" d="M94.64,142.975l-2.966-4.386
			 M93.023,144.067l-2.966-4.386"/>
		<path fill="none" stroke="#000000" stroke-width="1.2172" stroke-miterlimit="2.6131" d="M85.273,124.795
			c0.547,0.766,0.24,1.817-0.473,2.438c-0.25,0.218-0.228,0.234-0.464,0.435c-1.709,1.451-0.629,3.321,0.341,3.613
			c0.73,0.221,1.114,0.096,2.353-0.106c1.016-0.167,1.637,0.142,2.069,0.835c0.478,0.766-0.197,1.803-0.357,3.013
			c-0.074,0.554-0.188,0.967-0.041,1.598c0.056,0.344,0.448,1.658,1.117,2.608 M88.958,122.429c0.557,0.802,0.388,2.487-0.414,2.989
			c-0.281,0.176-0.261,0.195-0.525,0.356c-1.916,1.165-1.142,3.181-0.23,3.621c0.687,0.333,1.2,0.218,2.45,0.129
			c1.391-0.1,1.84,0.181,2.272,0.874c0.721,1.151,0.062,2.184-0.842,3.148c-0.438,0.467-0.629,0.741-0.806,1.876
			c-0.117,0.822-0.04,1.723,0.629,2.673"/>
		<g>
			<path fill-rule="evenodd" clip-rule="evenodd" fill="#ED1C24" d="M124.153,128.983l-0.035-1.087l-0.07-1.087l-0.122-1.069
				l-0.176-1.069l-0.21-1.068l-0.264-1.052l-0.315-1.034l-0.351-1.017l-0.402-1.017l-0.456-0.981l-0.49-0.964l-0.526-0.947
				l-0.578-0.911l-0.631-0.894l-0.648-0.859l-0.701-0.841l-0.719-0.789l-0.771-0.771l-0.807-0.735l-0.823-0.684l-0.859-0.666
				l-0.894-0.613l-0.929-0.579l-0.929-0.525l-0.965-0.509l-0.998-0.438l-0.999-0.403l-1.034-0.368l-1.034-0.298l-1.052-0.28
				l-1.052-0.211l-1.069-0.175l-1.087-0.123l-1.069-0.07L100,104.831l-1.086,0.017l-1.087,0.07l-1.069,0.123l-1.069,0.175
				l-1.069,0.211l-1.051,0.28l-1.034,0.298l-1.017,0.368l-1.017,0.403l-0.981,0.438l-0.965,0.509l-0.946,0.525l-0.911,0.579
				l-0.894,0.613l-0.859,0.666l-0.841,0.684l-0.789,0.735l-0.771,0.771l-0.736,0.789l-0.701,0.841l-0.648,0.859l-0.613,0.894
				l-0.578,0.911l-0.543,0.947l-0.491,0.964l-0.438,0.981l-0.402,1.017l-0.368,1.017l-0.315,1.034l-0.264,1.052l-0.21,1.068
				l-0.176,1.069l-0.122,1.069l-0.07,1.087l-0.018,1.087l0.018,1.086l0.07,1.069l0.122,1.087l0.176,1.069l0.21,1.069l0.264,1.033
				l0.315,1.052l0.368,1.017l0.402,1l0.438,0.999l0.491,0.964l0.543,0.946l0.578,0.911l0.613,0.894l0.648,0.859l0.701,0.841
				l0.736,0.789l0.771,0.771l0.789,0.736l0.841,0.684l0.859,0.665l0.894,0.614l0.911,0.578l0.946,0.526l0.965,0.508l0.981,0.438
				l1.017,0.402l1.017,0.368l1.034,0.298l1.051,0.264l1.069,0.228l1.069,0.157l1.069,0.123l1.087,0.088l1.086,0.018l1.087-0.018
				l1.069-0.088l1.087-0.123l1.069-0.157l1.052-0.228l1.052-0.264l1.034-0.298l1.034-0.368l0.999-0.402l0.998-0.438l0.965-0.508
				l0.929-0.526l0.929-0.578l0.894-0.614l0.859-0.665l0.823-0.684l0.807-0.736l0.771-0.771l0.719-0.789l0.701-0.841l0.648-0.859
				l0.631-0.894l0.578-0.911l0.526-0.946l0.49-0.964l0.456-0.999l0.402-1l0.351-1.017l0.315-1.052l0.264-1.033l0.21-1.069
				l0.176-1.069l0.122-1.087l0.07-1.069L124.153,128.983L124.153,128.983z M114.951,141.217l0.613-0.771l0.561-0.806l0.526-0.842
				l0.456-0.858l0.438-0.877l0.386-0.894l0.351-0.911l0.298-0.946l0.245-0.946l0.193-0.965l0.141-0.964l0.104-0.981l0.053-0.964
				v-0.981l-0.053-0.981l-0.087-0.981l-0.158-0.964l-0.193-0.964l-0.245-0.947l-0.298-0.929l-0.333-0.929l-0.386-0.894l-0.438-0.877
				l-0.474-0.858l-0.508-0.842l-0.562-0.806l-0.613-0.771l-0.631-0.736l-0.684-0.719l-0.701-0.666l-0.754-0.648l-0.771-0.596
				l-0.807-0.561l-0.823-0.509l-0.859-0.49l-0.876-0.421l-0.912-0.386l-0.911-0.351l-0.929-0.28l-0.964-0.245l-0.947-0.211
				l-0.981-0.14l-0.964-0.105l-0.981-0.035h-0.981l-0.981,0.035l-0.981,0.105l-0.964,0.157l-0.965,0.193l-0.946,0.245l-0.929,0.298
				l-0.911,0.333l-0.911,0.403l-0.877,0.42l-0.859,0.474l-0.823,0.526l-0.807,0.561l-0.771,0.596L114.951,141.217L114.951,141.217z
				 M112.234,143.934l-27.202-27.185l-0.613,0.789l-0.562,0.788l-0.508,0.842l-0.474,0.858l-0.438,0.877l-0.385,0.894l-0.351,0.929
				l-0.28,0.93l-0.246,0.946l-0.21,0.964l-0.141,0.964l-0.104,0.981l-0.053,0.981v0.981l0.053,0.964l0.104,0.981l0.141,0.964
				l0.21,0.965l0.229,0.946l0.298,0.946l0.351,0.911l0.385,0.895l0.421,0.876l0.491,0.876l0.508,0.824l0.562,0.807l0.596,0.771
				l0.648,0.736l0.666,0.719l0.719,0.666l0.736,0.648l0.771,0.596l0.807,0.562l0.841,0.525l0.859,0.474l0.876,0.42l0.895,0.386
				l0.929,0.351l0.929,0.28l0.946,0.246L96.601,148l0.964,0.157l0.981,0.105l0.981,0.035h0.981l0.981-0.053l0.965-0.088l0.963-0.157
				l0.965-0.192l0.946-0.246l0.946-0.298l0.911-0.351l0.895-0.386l0.876-0.42l0.858-0.491l0.842-0.509l0.807-0.561L112.234,143.934
				L112.234,143.934z"/>
		</g>
	</g>
	<g>
		<polyline fill="none" stroke="#000000" stroke-width="1.704" stroke-miterlimit="2.6131" points="153.078,141.704 
			173.977,127.571 171.92,124.531 151.021,138.664 		"/>
		<path fill="none" stroke="#000000" stroke-width="1.3389" stroke-miterlimit="2.6131" d="M152.605,142.975l-2.966-4.386
			 M150.989,144.067l-2.965-4.386"/>
		<path fill="none" stroke="#000000" stroke-width="1.2172" stroke-miterlimit="2.6131" d="M143.24,124.795
			c0.546,0.766,0.239,1.817-0.474,2.438c-0.25,0.218-0.227,0.234-0.464,0.435c-1.709,1.451-0.628,3.321,0.341,3.613
			c0.731,0.221,1.115,0.096,2.353-0.106c1.016-0.167,1.637,0.142,2.069,0.835c0.478,0.766-0.196,1.803-0.357,3.013
			c-0.073,0.554-0.187,0.967-0.041,1.598c0.056,0.344,0.449,1.658,1.118,2.608 M146.924,122.429
			c0.557,0.802,0.388,2.487-0.414,2.989c-0.281,0.176-0.261,0.195-0.525,0.356c-1.916,1.165-1.142,3.181-0.23,3.621
			c0.688,0.333,1.2,0.218,2.451,0.129c1.39-0.1,1.839,0.181,2.272,0.874c0.72,1.151,0.062,2.184-0.842,3.148
			c-0.438,0.467-0.63,0.741-0.807,1.876c-0.116,0.822-0.04,1.723,0.629,2.673"/>
		<g>
			<path fill-rule="evenodd" clip-rule="evenodd" fill="#ED1C24" d="M182.119,128.983l-0.035-1.087l-0.07-1.087l-0.122-1.069
				l-0.176-1.069l-0.21-1.068l-0.263-1.052l-0.316-1.034l-0.35-1.017l-0.403-1.017l-0.456-0.981l-0.49-0.964l-0.526-0.947
				l-0.578-0.911l-0.631-0.894l-0.648-0.859l-0.701-0.841l-0.719-0.789l-0.771-0.771l-0.807-0.735l-0.823-0.684l-0.859-0.666
				l-0.894-0.613l-0.929-0.579l-0.929-0.525l-0.964-0.509l-0.999-0.438l-0.999-0.403l-1.034-0.368l-1.034-0.298l-1.052-0.28
				l-1.052-0.211l-1.069-0.175l-1.087-0.123l-1.069-0.07l-1.086-0.017l-1.087,0.017l-1.087,0.07l-1.069,0.123l-1.068,0.175
				l-1.069,0.211l-1.052,0.28l-1.034,0.298l-1.017,0.368l-1.017,0.403l-0.981,0.438l-0.964,0.509l-0.946,0.525l-0.912,0.579
				l-0.894,0.613l-0.859,0.666l-0.841,0.684l-0.789,0.735l-0.771,0.771l-0.736,0.789l-0.701,0.841l-0.648,0.859l-0.613,0.894
				l-0.578,0.911l-0.544,0.947l-0.491,0.964l-0.438,0.981l-0.403,1.017l-0.368,1.017l-0.315,1.034l-0.263,1.052l-0.211,1.068
				l-0.175,1.069l-0.123,1.069l-0.07,1.087l-0.017,1.087l0.017,1.086l0.07,1.069l0.123,1.087l0.175,1.069l0.211,1.069l0.263,1.033
				l0.315,1.052l0.368,1.017l0.403,1l0.438,0.999l0.491,0.964l0.544,0.946l0.578,0.911l0.613,0.894l0.648,0.859l0.701,0.841
				l0.736,0.789l0.771,0.771l0.789,0.736l0.841,0.684l0.859,0.665l0.894,0.614l0.912,0.578l0.946,0.526l0.964,0.508l0.981,0.438
				l1.017,0.402l1.017,0.368l1.034,0.298l1.052,0.264l1.069,0.228l1.068,0.157l1.069,0.123l1.087,0.088l1.087,0.018l1.086-0.018
				l1.069-0.088l1.087-0.123l1.069-0.157l1.052-0.228l1.052-0.264l1.034-0.298l1.034-0.368l0.999-0.402l0.999-0.438l0.964-0.508
				l0.929-0.526l0.929-0.578l0.894-0.614l0.859-0.665l0.823-0.684l0.807-0.736l0.771-0.771l0.719-0.789l0.701-0.841l0.648-0.859
				l0.631-0.894l0.578-0.911l0.526-0.946l0.49-0.964l0.456-0.999l0.403-1l0.35-1.017l0.316-1.052l0.263-1.033l0.21-1.069
				l0.176-1.069l0.122-1.087l0.07-1.069L182.119,128.983L182.119,128.983z M172.918,141.217l0.613-0.771l0.561-0.806l0.525-0.842
				l0.456-0.858l0.438-0.877l0.386-0.894l0.352-0.911l0.297-0.946l0.246-0.946l0.192-0.965l0.141-0.964l0.105-0.981l0.052-0.964
				v-0.981l-0.052-0.981l-0.088-0.981l-0.158-0.964l-0.192-0.964l-0.246-0.947l-0.297-0.929l-0.334-0.929l-0.386-0.894l-0.438-0.877
				l-0.474-0.858l-0.508-0.842l-0.561-0.806l-0.614-0.771l-0.631-0.736l-0.684-0.719l-0.701-0.666l-0.754-0.648l-0.771-0.596
				l-0.807-0.561l-0.823-0.509l-0.859-0.49l-0.876-0.421l-0.911-0.386l-0.912-0.351l-0.929-0.28l-0.964-0.245l-0.946-0.211
				l-0.981-0.14l-0.965-0.105l-0.981-0.035h-0.981l-0.981,0.035l-0.981,0.105l-0.964,0.157l-0.964,0.193l-0.946,0.245l-0.93,0.298
				l-0.911,0.333l-0.911,0.403l-0.876,0.42l-0.859,0.474l-0.824,0.526l-0.806,0.561l-0.771,0.596L172.918,141.217L172.918,141.217z
				 M170.201,143.934l-27.203-27.185l-0.613,0.789l-0.561,0.788l-0.509,0.842l-0.473,0.858l-0.438,0.877l-0.386,0.894l-0.351,0.929
				l-0.28,0.93l-0.245,0.946l-0.211,0.964l-0.14,0.964l-0.105,0.981l-0.053,0.981v0.981l0.053,0.964l0.105,0.981l0.14,0.964
				l0.211,0.965l0.228,0.946l0.298,0.946l0.351,0.911l0.386,0.895l0.421,0.876l0.49,0.876l0.509,0.824l0.561,0.807l0.596,0.771
				l0.648,0.736l0.666,0.719l0.719,0.666l0.736,0.648l0.771,0.596l0.806,0.562l0.842,0.525l0.858,0.474l0.877,0.42l0.894,0.386
				l0.929,0.351l0.929,0.28l0.947,0.246l0.964,0.192l0.964,0.157l0.981,0.105l0.981,0.035h0.981l0.981-0.053l0.965-0.088
				l0.964-0.157l0.964-0.192l0.946-0.246l0.946-0.298l0.911-0.351l0.895-0.386l0.876-0.42l0.858-0.491l0.842-0.509l0.807-0.561
				L170.201,143.934L170.201,143.934z"/>
		</g>
	</g>
</g>
</svg>
