<?xml version="1.0" encoding="utf-8"?>
<!-- Generator: Adobe Illustrator 16.0.0, SVG Export Plug-In . SVG Version: 6.00 Build 0)  -->
<!DOCTYPE svg PUBLIC "-//W3C//DTD SVG 1.1//EN" "http://www.w3.org/Graphics/SVG/1.1/DTD/svg11.dtd">
<svg version="1.1" id="Layer_1" xmlns="http://www.w3.org/2000/svg" xmlns:xlink="http://www.w3.org/1999/xlink" x="0px" y="0px"
	 width="200px" height="200px" viewBox="0 -25 200 200" enable-background="new 0 -25 200 200" xml:space="preserve">
<polygon fill="#FFFFFE" points="17.6,100.649 33.781,98.922 34.729,102.512 16.886,104.312 "/>
<polygon fill="#FFFFFE" points="17.635,100.719 24.462,68.84 20.683,56.065 5,132.067 7.436,133.066 7.646,133.066 9.491,132.433 
	9.704,132.433 10.051,130.802 9.978,130.889 11.338,130.201 16.886,104.312 "/>
<polygon fill="#FFFFFE" points="181.406,94.553 195,131.854 191.071,132.722 189.429,132.575 189.024,131.445 189.039,131.488 
	187.055,131.321 173.861,95.286 "/>
<polygon fill="#FFFFFE" points="144.025,98.172 141.691,114.799 143.003,115.174 145.408,114.421 147.296,115.317 148.741,114.852 
	151.332,97.515 150.878,97.355 144.49,97.942 "/>
<polygon fill="#FFFFFE" points="22.086,50.437 20.031,53.797 49.802,150.681 53.446,151.618 57.895,151.123 44.496,107.646 
	39.751,107.254 22.188,50.336 "/>
<polygon fill="#FFFFFE" points="151.304,97.355 181.771,94.516 185.673,91.438 152.271,-1.618 11.109,2.527 8.355,5.508 
	39.751,107.254 39.831,107.559 44.368,107.143 144.063,97.942 144.49,97.942 150.878,97.355 "/>
<line fill="none" stroke="#1B171A" stroke-width="0.7829" stroke-linecap="round" x1="39.831" y1="107.559" x2="44.368" y2="107.143"/>
<line fill="none" stroke="#1B171A" stroke-width="1.5026" stroke-linecap="round" x1="44.368" y1="107.143" x2="144.063" y2="97.942"/>
<line fill="none" stroke="#1B171A" stroke-width="0.7829" stroke-linecap="round" x1="144.489" y1="97.942" x2="150.878" y2="97.355"/>
<polyline fill="none" stroke="#1B171A" stroke-width="1.5026" stroke-linecap="round" stroke-linejoin="round" points="
	151.304,97.355 181.771,94.516 185.673,91.438 152.271,-1.618 11.109,2.527 8.355,5.508 22.188,50.336 "/>
<path fill="none" stroke="#1B171A" stroke-width="0.7829" stroke-linecap="round" d="M11.109,2.527L43.005,104.05l142.482-12.663
	 M39.816,107.403l3.1-3.054 M22.188,50.336l17.564,56.918"/>
<polyline fill="none" stroke="#1B171A" stroke-width="0.7829" stroke-linecap="round" stroke-linejoin="round" points="13.095,2.54 
	44.546,102.42 183.486,90.126 151.032,-0.082 13.706,4.324 "/>
<polyline fill="none" stroke="#1B171A" stroke-width="1.5026" stroke-linecap="round" points="22.085,50.437 20.031,53.797 
	33.889,98.891 "/>
<line fill="none" stroke="#1B171A" stroke-width="0.7829" stroke-linecap="round" x1="33.889" y1="98.891" x2="34.964" y2="102.395"/>
<path fill="none" stroke="#1B171A" stroke-width="1.5026" stroke-linecap="round" d="M44.496,107.646l13.399,43.48l-4.449,0.492
	 M34.964,102.395l14.838,48.286l3.644,0.938"/>
<line fill="none" stroke="#1B171A" stroke-width="0.7829" stroke-linecap="round" x1="53.446" y1="151.618" x2="39.831" y2="107.559"/>
<polyline fill="none" stroke="#1B171A" stroke-width="0.7829" stroke-linecap="round" stroke-linejoin="round" points="
	180.276,90.478 148.598,2.271 14.362,6.343 "/>
<line fill="none" stroke="#1B171A" stroke-width="0.7829" stroke-linecap="round" x1="24.983" y1="60.125" x2="22.716" y2="63.696"/>
<line fill="none" stroke="#1B171A" stroke-width="1.5026" stroke-linecap="round" x1="20.683" y1="56.065" x2="5" y2="132.067"/>
<line fill="none" stroke="#1B171A" stroke-width="0.7829" stroke-linecap="round" stroke-linejoin="round" x1="23.613" y1="64.905" x2="9.624" y2="130.802"/>
<path fill="none" stroke="#1B171A" stroke-width="1.5026" stroke-linecap="round" stroke-linejoin="round" d="M9.491,132.433
	l-1.845,0.634 M10.05,130.802l-0.346,1.631"/>
<line fill="none" stroke="#1B171A" stroke-width="1.5026" stroke-linecap="round" x1="7.436" y1="133.066" x2="5" y2="132.067"/>
<line fill="none" stroke="#1B171A" stroke-width="0.7829" stroke-linecap="round" x1="22.859" y1="62.497" x2="7.93" y2="132.965"/>
<path fill="none" stroke="#1B171A" stroke-width="1.5026" stroke-linecap="round" stroke-linejoin="round" d="M173.861,95.287
	l13.193,36.034 M16.886,104.312l-5.547,25.889l-1.362,0.689 M24.462,68.84l-6.829,31.879"/>
<path fill="none" stroke="#1B171A" stroke-width="0.7829" stroke-linecap="round" d="M147.853,97.706l-2.444,16.718 M145.511,97.985
	l-2.508,17.189"/>
<polyline fill="none" stroke="#1B171A" stroke-width="1.5026" stroke-linecap="round" stroke-linejoin="round" points="
	151.332,97.515 148.741,114.852 147.296,115.317 "/>
<line fill="none" stroke="#1B171A" stroke-width="1.5026" stroke-linecap="round" x1="187.055" y1="131.321" x2="189.039" y2="131.488"/>
<line fill="none" stroke="#1B171A" stroke-width="0.7829" stroke-linecap="round" stroke-linejoin="round" x1="149.926" y1="97.515" x2="147.296" y2="115.317"/>
<polyline fill="none" stroke="#1B171A" stroke-width="1.5026" stroke-linecap="round" stroke-linejoin="round" points="
	147.296,115.317 145.408,114.424 143.003,115.175 141.689,114.799 144.025,98.172 "/>
<line fill="none" stroke="#1B171A" stroke-width="0.7829" stroke-linecap="round" stroke-linejoin="round" x1="177.264" y1="94.995" x2="190.858" y2="132.722"/>
<polyline fill="none" stroke="#1B171A" stroke-width="1.5026" stroke-linecap="round" stroke-linejoin="round" points="
	191.071,132.722 195,131.854 181.406,94.553 "/>
<line fill="none" stroke="#1B171A" stroke-width="0.7829" stroke-linecap="round" stroke-linejoin="round" x1="176.047" y1="95.274" x2="189.024" y2="131.445"/>
<polyline fill="none" stroke="#1B171A" stroke-width="1.5026" stroke-linecap="round" stroke-linejoin="round" points="
	189.024,131.445 189.429,132.575 191.071,132.722 "/>
<line fill="none" stroke="#1B171A" stroke-width="0.7829" stroke-linecap="round" x1="15.508" y1="104.451" x2="16.886" y2="104.312"/>
<line fill="none" stroke="#1B171A" stroke-width="1.5026" stroke-linecap="round" x1="16.886" y1="104.312" x2="34.729" y2="102.512"/>
<line fill="none" stroke="#1B171A" stroke-width="0.7829" stroke-linecap="round" x1="16.043" y1="100.993" x2="17.387" y2="100.863"/>
<line fill="none" stroke="#1B171A" stroke-width="1.5026" stroke-linecap="round" x1="17.6" y1="100.649" x2="33.781" y2="98.922"/>
<path fill="none" stroke="#1B171A" stroke-width="0.7829" stroke-linecap="round" d="M15.65,103.159l18.939-1.933 M15.827,102.276
	l18.463-1.871"/>
<line fill="none" stroke="#1B171A" stroke-width="0.7829" stroke-linecap="round" x1="39.831" y1="107.559" x2="44.368" y2="107.143"/>
<path fill="none" stroke="#1B171A" stroke-width="1.5026" stroke-linecap="round" d="M33.781,98.922L17.6,100.651 M34.729,102.512
	l-17.842,1.801"/>
</svg>
