<?xml version="1.0" encoding="utf-8"?>
<!-- Generator: Adobe Illustrator 16.0.0, SVG Export Plug-In . SVG Version: 6.00 Build 0)  -->
<!DOCTYPE svg PUBLIC "-//W3C//DTD SVG 1.1//EN" "http://www.w3.org/Graphics/SVG/1.1/DTD/svg11.dtd">
<svg version="1.1" id="Layer_1" xmlns="http://www.w3.org/2000/svg" xmlns:xlink="http://www.w3.org/1999/xlink" x="0px" y="0px"
	 width="200px" height="200px" viewBox="0 0 200 200" enable-background="new 0 0 200 200" xml:space="preserve">
<g id="Layer_1_1_">
	<g>
		<polyline fill="#FFFFFF" stroke="#000000" stroke-width="0.75" stroke-miterlimit="10" points="17.601,125.65 33.781,123.922 
			34.729,127.514 16.886,129.312 		"/>
		<polyline fill="#FFFFFF" stroke="#000000" stroke-width="0.75" stroke-miterlimit="10" points="17.634,125.718 24.462,93.841 
			20.683,81.065 5,157.066 7.435,158.066 7.646,158.066 9.491,157.434 9.704,157.434 10.051,155.801 9.978,155.889 11.339,155.201 
			16.886,129.312 		"/>
		<polyline fill="#FFFFFF" stroke="#000000" stroke-width="0.75" stroke-miterlimit="10" points="181.407,119.553 195,156.854 
			191.072,157.723 189.427,157.573 189.021,156.443 189.039,156.488 187.055,156.322 173.861,120.286 		"/>
		<polyline fill="#FFFFFF" stroke="#000000" stroke-width="0.75" stroke-miterlimit="10" points="144.025,123.172 141.691,139.799 
			143.003,140.175 145.409,139.423 147.297,140.318 148.74,139.854 151.333,122.516 150.878,122.355 144.488,122.941 		"/>
		<polyline fill="#FFFFFF" stroke="#000000" stroke-width="0.75" stroke-miterlimit="10" points="22.086,75.438 20.031,78.798 
			49.802,175.68 53.445,176.617 57.896,176.124 44.496,132.645 39.751,132.253 22.188,75.337 		"/>
		<polyline fill="#FFFFFF" stroke="#000000" stroke-width="0.75" stroke-miterlimit="10" points="151.305,122.355 181.771,119.518 
			185.674,116.438 152.273,23.383 11.109,27.528 8.355,30.509 39.751,132.253 39.83,132.559 44.368,132.145 144.062,122.941 
			144.488,122.941 150.878,122.355 		"/>
		
			<line fill="none" stroke="#000000" stroke-width="0.75" stroke-miterlimit="10" x1="151.032" y1="24.919" x2="148.598" y2="27.271"/>
		
			<line fill="none" stroke="#000000" stroke-width="0.75" stroke-miterlimit="10" x1="39.83" y1="132.559" x2="44.368" y2="132.145"/>
		
			<line fill="none" stroke="#000000" stroke-width="0.75" stroke-miterlimit="10" x1="44.368" y1="132.145" x2="144.062" y2="122.941"/>
		
			<line fill="none" stroke="#000000" stroke-width="0.75" stroke-miterlimit="10" x1="144.488" y1="122.941" x2="150.878" y2="122.355"/>
		<polyline fill="none" stroke="#000000" stroke-width="0.75" stroke-miterlimit="10" points="151.305,122.355 181.771,119.518 
			185.674,116.438 152.273,23.383 11.109,27.528 8.355,30.509 22.188,75.337 		"/>
		<path fill="none" stroke="#000000" stroke-width="0.75" stroke-miterlimit="10" d="M11.109,27.528L43.005,129.05l142.483-12.661
			 M39.816,132.404l3.1-3.055 M22.188,75.337l17.562,56.916"/>
		<polyline fill="none" stroke="#000000" stroke-width="0.75" stroke-miterlimit="10" points="13.096,27.54 44.546,127.42 
			183.486,115.126 151.032,24.919 13.706,29.324 		"/>
		<polyline fill="none" stroke="#000000" stroke-width="0.75" stroke-miterlimit="10" points="22.086,75.438 20.031,78.798 
			33.888,123.893 		"/>
		
			<line fill="none" stroke="#000000" stroke-width="0.75" stroke-miterlimit="10" x1="33.888" y1="123.893" x2="34.964" y2="127.395"/>
		<path fill="none" stroke="#000000" stroke-width="0.75" stroke-miterlimit="10" d="M44.496,132.645l13.399,43.479l-4.45,0.493
			 M34.964,127.395l14.838,48.285l3.644,0.938"/>
		
			<line fill="none" stroke="#000000" stroke-width="0.75" stroke-miterlimit="10" x1="53.445" y1="176.617" x2="39.83" y2="132.559"/>
		<polyline fill="none" stroke="#000000" stroke-width="0.75" stroke-miterlimit="10" points="180.275,115.479 148.598,27.271 
			14.363,31.344 		"/>
		
			<line fill="none" stroke="#000000" stroke-width="0.75" stroke-miterlimit="10" x1="24.982" y1="85.125" x2="22.717" y2="88.697"/>
		<line fill="none" stroke="#000000" stroke-width="0.75" stroke-miterlimit="10" x1="20.683" y1="81.065" x2="5" y2="157.066"/>
		
			<line fill="none" stroke="#000000" stroke-width="0.75" stroke-miterlimit="10" x1="23.612" y1="89.906" x2="9.624" y2="155.801"/>
		<path fill="none" stroke="#000000" stroke-width="0.75" stroke-miterlimit="10" d="M9.491,157.434l-1.845,0.633 M10.051,155.801
			l-0.347,1.633"/>
		<line fill="none" stroke="#000000" stroke-width="0.75" stroke-miterlimit="10" x1="7.435" y1="158.066" x2="5" y2="157.066"/>
		<line fill="none" stroke="#000000" stroke-width="0.75" stroke-miterlimit="10" x1="22.86" y1="87.497" x2="7.931" y2="157.965"/>
		<path fill="none" stroke="#000000" stroke-width="0.75" stroke-miterlimit="10" d="M173.861,120.286l13.193,36.036
			 M16.886,129.312l-5.547,25.89l-1.361,0.688 M24.462,93.841l-6.828,31.877"/>
		<path fill="none" stroke="#000000" stroke-width="0.75" stroke-miterlimit="10" d="M147.854,122.707l-2.443,16.716
			 M145.51,122.986l-2.507,17.188"/>
		<polyline fill="none" stroke="#000000" stroke-width="0.75" stroke-miterlimit="10" points="151.333,122.516 148.74,139.854 
			147.297,140.318 		"/>
		
			<line fill="none" stroke="#000000" stroke-width="0.75" stroke-miterlimit="10" x1="187.055" y1="156.322" x2="189.039" y2="156.488"/>
		
			<line fill="none" stroke="#000000" stroke-width="0.75" stroke-miterlimit="10" x1="149.925" y1="122.516" x2="147.297" y2="140.318"/>
		<polyline fill="none" stroke="#000000" stroke-width="0.75" stroke-miterlimit="10" points="147.297,140.318 145.409,139.423 
			143.003,140.175 141.691,139.799 144.025,123.172 		"/>
		
			<line fill="none" stroke="#000000" stroke-width="0.75" stroke-miterlimit="10" x1="177.266" y1="119.995" x2="190.857" y2="157.723"/>
		<polyline fill="none" stroke="#000000" stroke-width="0.75" stroke-miterlimit="10" points="191.072,157.723 195,156.854 
			181.407,119.553 		"/>
		
			<line fill="none" stroke="#000000" stroke-width="0.75" stroke-miterlimit="10" x1="176.047" y1="120.273" x2="189.021" y2="156.443"/>
		<polyline fill="none" stroke="#000000" stroke-width="0.75" stroke-miterlimit="10" points="189.021,156.443 189.427,157.573 
			191.072,157.723 		"/>
		
			<line fill="none" stroke="#000000" stroke-width="0.75" stroke-miterlimit="10" x1="15.507" y1="129.453" x2="16.886" y2="129.312"/>
		
			<line fill="none" stroke="#000000" stroke-width="0.75" stroke-miterlimit="10" x1="16.886" y1="129.312" x2="34.729" y2="127.514"/>
		
			<line fill="none" stroke="#000000" stroke-width="0.75" stroke-miterlimit="10" x1="16.044" y1="125.995" x2="17.387" y2="125.863"/>
		
			<line fill="none" stroke="#000000" stroke-width="0.75" stroke-miterlimit="10" x1="17.601" y1="125.65" x2="33.781" y2="123.922"/>
		<path fill="none" stroke="#000000" stroke-width="0.75" stroke-miterlimit="10" d="M15.649,128.16l18.939-1.934 M15.826,127.275
			l18.464-1.871"/>
		
			<line fill="none" stroke="#000000" stroke-width="0.75" stroke-miterlimit="10" x1="39.83" y1="132.559" x2="44.368" y2="132.145"/>
		<path fill="none" stroke="#000000" stroke-width="0.75" stroke-miterlimit="10" d="M33.781,123.922L17.6,125.65 M34.729,127.514
			l-17.843,1.799"/>
	</g>
</g>
<g id="Layer_2">
	<g>
		<g>
			<path fill="none" d="M178.516,110.493c0.965,2.692-0.793,5.125-3.902,5.401c-41.463,3.686-82.923,7.367-124.385,11.053
				c-3.109,0.275-6.412-1.898-7.338-4.836c-8.98-28.479-17.969-56.955-26.95-85.435c-0.926-2.936,0.836-5.417,3.917-5.511
				c41.089-1.255,82.177-2.509,123.266-3.764c3.082-0.094,6.391,2.033,7.354,4.726C159.824,58.25,169.168,84.373,178.516,110.493z"
				/>
			<path fill="#005CB9" d="M49.383,124.289c-1.554,0.136-3.204-0.956-3.668-2.423c-8.993-28.427-17.984-56.854-26.973-85.283
				c-0.463-1.465,0.417-2.708,1.958-2.757c41.099-1.32,82.198-2.647,123.298-3.965c1.542-0.05,3.195,1.012,3.677,2.361
				c9.339,26.172,18.675,52.344,28.015,78.514c0.481,1.352-0.396,2.562-1.953,2.697C132.286,117.059,90.834,120.667,49.383,124.289z
				"/>
		</g>
		<path fill="#FFFFFF" d="M80.108,104.686c11.571-0.893,23.143-1.783,34.714-2.677c-2.418,3.402-3.625,5.112-6.049,8.55
			c5.217-0.428,7.824-0.644,13.039-1.07c3.608-5.114,5.41-7.65,9.006-12.687c-6.793-4.259-10.188-6.407-16.969-10.745
			c-5.203,0.349-7.808,0.524-13.011,0.873c4.531,2.917,6.798,4.365,11.333,7.247c-11.562,0.835-23.126,1.669-34.689,2.502
			C78.534,99.881,79.059,101.482,80.108,104.686"/>
		<g>
			<path fill="#FFFFFF" d="M38.042,49.168c0.163,0.506,0.226,1.016,0.191,1.532c-0.035,0.516-0.182,0.985-0.441,1.408
				c-0.26,0.422-0.631,0.772-1.113,1.052c-0.482,0.278-1.088,0.436-1.818,0.468c-1.179,0.052-1.768,0.08-2.947,0.132
				c0.593,1.86,0.888,2.791,1.48,4.651c-1.15,0.055-1.725,0.082-2.875,0.137c-1.686-5.306-2.527-7.96-4.213-13.266
				c2.391-0.094,3.586-0.142,5.977-0.235c0.754-0.03,1.452,0.085,2.093,0.346c0.641,0.26,1.209,0.599,1.706,1.012
				c0.497,0.415,0.911,0.868,1.246,1.362C37.662,48.261,37.901,48.729,38.042,49.168z M35.164,49.279
				c-0.188-0.589-0.528-1.037-1.02-1.345c-0.493-0.307-1.039-0.448-1.638-0.424c-1.018,0.048-1.525,0.071-2.543,0.119
				c0.463,1.453,0.693,2.181,1.156,3.634c1.078-0.046,1.617-0.069,2.695-0.116c0.324-0.014,0.585-0.086,0.787-0.215
				c0.201-0.13,0.354-0.285,0.46-0.467c0.105-0.183,0.163-0.382,0.174-0.594C35.246,49.658,35.222,49.461,35.164,49.279z"/>
			<path fill="#FFFFFF" d="M52.575,57.502c-3.883,0.184-5.825,0.276-9.708,0.46c-1.692-5.266-2.536-7.898-4.228-13.164
				c3.663-0.144,5.492-0.217,9.155-0.361c0.335,1.034,0.502,1.551,0.837,2.585c-2.514,0.103-3.771,0.154-6.285,0.256
				c0.341,1.058,0.511,1.587,0.852,2.645c2.277-0.097,3.417-0.145,5.694-0.241c0.313,0.967,0.469,1.451,0.782,2.417
				c-2.278,0.1-3.416,0.15-5.694,0.25c0.371,1.152,0.556,1.728,0.927,2.88c2.731-0.125,4.096-0.186,6.828-0.311
				C52.072,55.953,52.24,56.469,52.575,57.502z"/>
			<path fill="#FFFFFF" d="M64.28,50.446c0.288,0.876,0.412,1.707,0.374,2.496c-0.038,0.79-0.24,1.49-0.605,2.098
				c-0.365,0.609-0.895,1.102-1.592,1.479c-0.697,0.377-1.561,0.589-2.59,0.638c-2.018,0.096-3.026,0.142-5.043,0.238
				c-1.698-5.227-2.546-7.837-4.244-13.064c2.015-0.079,3.022-0.119,5.037-0.198c1.076-0.042,2.079,0.098,3.007,0.422
				c0.929,0.324,1.764,0.775,2.506,1.358c0.742,0.583,1.38,1.265,1.915,2.046C63.58,48.741,63.992,49.57,64.28,50.446z
				 M61.408,50.579c-0.182-0.557-0.427-1.074-0.735-1.552c-0.309-0.478-0.667-0.886-1.075-1.225c-0.409-0.339-0.87-0.6-1.384-0.782
				c-0.514-0.182-1.078-0.26-1.688-0.235c-0.898,0.037-1.346,0.055-2.244,0.091c1.011,3.104,1.516,4.655,2.527,7.758
				c0.898-0.041,1.348-0.06,2.247-0.101c0.575-0.026,1.053-0.146,1.435-0.355c0.381-0.21,0.668-0.492,0.863-0.846
				s0.298-0.763,0.308-1.232C61.671,51.632,61.587,51.125,61.408,50.579z"/>
			<path fill="#FFFFFF" d="M78.354,56.282c-3.883,0.184-5.825,0.275-9.708,0.459c-1.705-5.182-2.558-7.772-4.263-12.953
				c3.663-0.144,5.494-0.216,9.157-0.359c0.337,1.017,0.507,1.523,0.844,2.54c-2.514,0.103-3.771,0.155-6.285,0.258
				c0.343,1.041,0.514,1.562,0.857,2.604c2.278-0.097,3.417-0.145,5.695-0.242c0.315,0.952,0.472,1.428,0.787,2.379
				c-2.278,0.1-3.417,0.149-5.695,0.249c0.374,1.134,0.562,1.7,0.936,2.834c2.732-0.125,4.098-0.187,6.83-0.312
				C77.848,54.756,78.017,55.265,78.354,56.282z"/>
			<path fill="#FFFFFF" d="M90.464,51.884c0.25,0.742,0.302,1.38,0.159,1.913c-0.144,0.533-0.422,0.976-0.833,1.328
				c-0.412,0.352-0.932,0.62-1.563,0.805s-1.314,0.295-2.045,0.33c-0.624,0.03-1.234-0.001-1.832-0.096
				c-0.598-0.095-1.179-0.233-1.746-0.418s-1.117-0.41-1.65-0.675c-0.533-0.265-1.053-0.559-1.561-0.881
				c0.648-0.773,0.971-1.159,1.618-1.93c0.632,0.473,1.327,0.841,2.085,1.107c0.757,0.266,1.479,0.383,2.162,0.352
				c0.312-0.014,0.603-0.053,0.874-0.115s0.499-0.153,0.684-0.273s0.316-0.266,0.391-0.441c0.075-0.175,0.072-0.384-0.009-0.625
				c-0.084-0.251-0.229-0.464-0.433-0.638c-0.205-0.174-0.457-0.322-0.758-0.442c-0.302-0.12-0.645-0.217-1.029-0.295
				c-0.385-0.078-0.803-0.143-1.245-0.204c-0.292-0.041-0.633-0.101-1.015-0.173c-0.383-0.072-0.778-0.168-1.189-0.29
				c-0.411-0.121-0.83-0.273-1.255-0.456c-0.425-0.182-0.82-0.397-1.183-0.649c-0.363-0.252-0.686-0.543-0.966-0.877
				c-0.281-0.333-0.495-0.72-0.641-1.16c-0.252-0.758-0.315-1.402-0.188-1.931c0.127-0.528,0.394-0.961,0.797-1.299
				c0.402-0.338,0.922-0.589,1.559-0.753c0.636-0.164,1.343-0.263,2.121-0.293c1.089-0.042,2.132,0.078,3.13,0.36
				c0.998,0.282,1.91,0.712,2.734,1.287c-0.631,0.742-0.946,1.113-1.578,1.857c-0.583-0.364-1.165-0.621-1.743-0.77
				s-1.171-0.209-1.782-0.185c-0.276,0.011-0.538,0.045-0.786,0.099c-0.249,0.055-0.462,0.142-0.642,0.26
				c-0.179,0.119-0.306,0.265-0.381,0.44c-0.075,0.175-0.072,0.385,0.009,0.626c0.073,0.219,0.215,0.398,0.426,0.54
				c0.211,0.141,0.464,0.261,0.758,0.359c0.294,0.099,0.622,0.183,0.985,0.251c0.363,0.068,0.737,0.132,1.121,0.194
				c0.59,0.096,1.22,0.224,1.885,0.378c0.665,0.155,1.297,0.371,1.895,0.649c0.598,0.279,1.136,0.641,1.614,1.085
				C89.896,50.679,90.244,51.229,90.464,51.884z"/>
			<path fill="#FFFFFF" d="M100.281,44.912c-1.573,0.064-2.358,0.097-3.932,0.161c1.381,4.077,2.07,6.116,3.451,10.192
				c-1.151,0.055-1.726,0.081-2.877,0.136c-1.379-4.084-2.069-6.127-3.449-10.211c-1.573,0.064-2.36,0.096-3.933,0.161
				c-0.339-1.007-0.509-1.51-0.848-2.517c4.294-0.168,6.443-0.254,10.737-0.423C99.771,43.412,99.941,43.912,100.281,44.912z"/>
			<path fill="#FFFFFF" d="M116.374,54.48c-1.401,0.066-2.103,0.1-3.505,0.166c-1.715-1.907-2.57-2.864-4.283-4.777
				c-0.732,0.032-1.1,0.049-1.832,0.081c0.67,1.962,1.005,2.943,1.676,4.906c-1.15,0.055-1.728,0.083-2.877,0.137
				c-1.725-5.061-2.586-7.591-4.31-12.651c2.456-0.096,3.688-0.145,6.144-0.241c0.682-0.027,1.34,0.049,1.971,0.226
				c0.629,0.177,1.203,0.436,1.723,0.78c0.52,0.345,0.975,0.759,1.365,1.244c0.393,0.485,0.688,1.017,0.889,1.597
				c0.288,0.838,0.279,1.571-0.021,2.201c-0.301,0.629-0.813,1.09-1.539,1.384C113.611,51.515,114.532,52.505,116.374,54.48z
				 M110.339,45.828c-0.062-0.183-0.172-0.359-0.327-0.528c-0.154-0.168-0.334-0.315-0.535-0.443
				c-0.203-0.128-0.41-0.229-0.629-0.303c-0.221-0.073-0.434-0.104-0.637-0.096c-1.314,0.054-1.973,0.081-3.287,0.135
				c0.409,1.198,0.614,1.796,1.023,2.995c1.33-0.057,1.994-0.084,3.324-0.141c0.25-0.011,0.459-0.065,0.629-0.159
				c0.168-0.095,0.295-0.217,0.383-0.368s0.138-0.323,0.146-0.514C110.436,46.214,110.404,46.021,110.339,45.828z"/>
			<path fill="#FFFFFF" d="M121.264,54.249c-1.166,0.055-1.746,0.083-2.91,0.139c-1.729-5.019-2.596-7.529-4.324-12.548
				c1.162-0.045,1.744-0.069,2.908-0.114C118.668,46.735,119.531,49.24,121.264,54.249z"/>
			<path fill="#FFFFFF" d="M136.059,53.547c-1.271,0.06-1.908,0.091-3.182,0.151c-0.604-0.865-0.902-1.298-1.506-2.164
				c-2.077,0.095-3.115,0.143-5.191,0.238c0.012,0.896,0.016,1.344,0.027,2.242c-1.258,0.06-1.889,0.089-3.146,0.149
				c0.108-5.091,0.162-7.628,0.267-12.689c1.501-0.059,2.252-0.088,3.753-0.147C130.669,46.23,132.465,48.674,136.059,53.547z
				 M129.833,49.367c-1.479-2.104-2.22-3.156-3.698-5.266c0.014,2.17,0.021,3.254,0.032,5.429
				C127.634,49.464,128.366,49.432,129.833,49.367z"/>
			<path fill="#FFFFFF" d="M150.188,52.879c-1.312,0.062-1.971,0.093-3.283,0.155c-3.637-3.179-5.451-4.776-9.084-7.982
				c1.166,3.31,1.746,4.964,2.912,8.274c-1.15,0.055-1.727,0.083-2.877,0.137c-1.738-4.955-2.607-7.433-4.348-12.388
				c1.314-0.052,1.971-0.077,3.285-0.129c3.631,3.219,5.449,4.822,9.084,8.013c-1.17-3.302-1.756-4.953-2.926-8.255
				c1.148-0.045,1.724-0.067,2.872-0.112C147.568,45.507,148.441,47.964,150.188,52.879z"/>
			<path fill="#FFFFFF" d="M77.208,78.685c-1.405,0.086-2.109,0.127-3.515,0.213c-1.707-1.952-2.559-2.93-4.265-4.888
				c-0.735,0.042-1.101,0.066-1.836,0.108c0.661,2.021,0.991,3.032,1.651,5.053c-1.153,0.07-1.729,0.107-2.882,0.178
				c-1.7-5.213-2.549-7.82-4.25-13.033c2.461-0.13,3.691-0.196,6.153-0.327c0.684-0.036,1.341,0.033,1.973,0.208
				c0.632,0.175,1.205,0.437,1.723,0.787s0.972,0.772,1.362,1.27c0.39,0.498,0.682,1.045,0.879,1.642
				c0.284,0.863,0.274,1.62-0.03,2.274c-0.304,0.655-0.821,1.14-1.55,1.454C74.455,75.651,75.374,76.664,77.208,78.685z
				 M71.204,69.807c-0.062-0.187-0.17-0.366-0.325-0.539c-0.154-0.171-0.332-0.323-0.533-0.453c-0.202-0.13-0.413-0.231-0.632-0.305
				c-0.218-0.073-0.431-0.102-0.635-0.091c-1.317,0.072-1.976,0.108-3.293,0.18c0.403,1.234,0.604,1.851,1.008,3.085
				c1.332-0.075,1.998-0.114,3.33-0.189c0.252-0.014,0.464-0.071,0.633-0.17c0.169-0.099,0.297-0.229,0.386-0.387
				s0.139-0.334,0.147-0.532C71.298,70.208,71.27,70.007,71.204,69.807z"/>
			<path fill="#FFFFFF" d="M89.742,71.409c0.34,1.001,0.469,1.937,0.396,2.785c-0.072,0.85-0.312,1.587-0.72,2.216
				c-0.409,0.63-0.969,1.131-1.678,1.505c-0.709,0.374-1.524,0.589-2.449,0.646s-1.853-0.055-2.778-0.335
				c-0.926-0.281-1.792-0.703-2.595-1.262c-0.802-0.558-1.516-1.245-2.139-2.06c-0.624-0.813-1.102-1.723-1.433-2.729
				c-0.35-1.062-0.49-2.022-0.419-2.882c0.071-0.859,0.312-1.6,0.722-2.223s0.973-1.112,1.686-1.464s1.533-0.552,2.457-0.601
				c0.887-0.047,1.784,0.061,2.688,0.32c0.903,0.259,1.757,0.661,2.561,1.203c0.804,0.543,1.529,1.223,2.176,2.042
				C88.862,69.389,89.378,70.338,89.742,71.409z M86.573,71.591c-0.227-0.682-0.518-1.278-0.871-1.79
				c-0.354-0.511-0.745-0.935-1.174-1.27c-0.429-0.334-0.887-0.581-1.373-0.739c-0.486-0.158-0.98-0.224-1.484-0.196
				c-0.492,0.027-0.935,0.142-1.326,0.342c-0.391,0.2-0.699,0.485-0.924,0.857c-0.225,0.373-0.354,0.825-0.384,1.361
				c-0.031,0.535,0.068,1.152,0.298,1.848c0.219,0.661,0.514,1.248,0.886,1.761c0.372,0.513,0.787,0.934,1.246,1.267
				s0.949,0.58,1.465,0.74c0.518,0.16,1.023,0.226,1.516,0.196c0.504-0.03,0.938-0.154,1.301-0.372
				c0.362-0.218,0.64-0.514,0.833-0.891c0.193-0.375,0.295-0.826,0.303-1.354C86.893,72.825,86.789,72.238,86.573,71.591z"/>
			<path fill="#FFFFFF" d="M103.895,71.48c0.351,1.033,0.482,1.919,0.396,2.661c-0.087,0.743-0.32,1.363-0.704,1.864
				c-0.383,0.501-0.888,0.881-1.513,1.142s-1.309,0.408-2.036,0.458c-0.713,0.049-1.466-0.021-2.241-0.229
				c-0.776-0.209-1.52-0.544-2.231-1.002c-0.712-0.459-1.358-1.046-1.934-1.76c-0.576-0.713-1.024-1.551-1.346-2.514
				c-0.979-2.903-1.468-4.353-2.447-7.256c1.173-0.062,1.76-0.093,2.933-0.155c1.029,3.088,1.543,4.631,2.572,7.72
				c0.154,0.458,0.384,0.853,0.692,1.186c0.308,0.333,0.64,0.604,0.998,0.81c0.357,0.207,0.723,0.355,1.095,0.444
				c0.372,0.089,0.703,0.125,0.991,0.108c0.36-0.021,0.698-0.103,1.012-0.244c0.313-0.141,0.573-0.337,0.776-0.588
				s0.328-0.553,0.381-0.904c0.053-0.353,0.003-0.759-0.15-1.216c-0.146-0.435-0.283-0.833-0.404-1.191
				c-0.121-0.36-0.257-0.767-0.413-1.224c-0.154-0.458-0.312-0.929-0.474-1.408c-0.378-1.121-0.799-2.387-1.265-3.803
				c1.144-0.061,1.717-0.092,2.86-0.152C102.425,67.128,102.913,68.58,103.895,71.48z"/>
			<path fill="#FFFFFF" d="M114.746,66.058c-1.576,0.086-2.365,0.13-3.941,0.216c1.385,4.058,2.075,6.086,3.459,10.144
				c-1.152,0.07-1.729,0.106-2.883,0.177c-1.383-4.065-2.072-6.098-3.455-10.163c-1.576,0.086-2.365,0.129-3.941,0.215
				c-0.34-1.003-0.51-1.504-0.85-2.507c4.305-0.229,6.456-0.343,10.76-0.571C114.234,64.564,114.404,65.062,114.746,66.058z"/>
			<path fill="#FFFFFF" d="M129.76,75.471c-3.892,0.238-5.84,0.357-9.73,0.595c-1.728-5.038-2.592-7.557-4.317-12.594
				c3.671-0.195,5.506-0.291,9.177-0.486c0.342,0.989,0.514,1.482,0.854,2.472c-2.521,0.138-3.779,0.207-6.3,0.344
				c0.349,1.012,0.521,1.519,0.869,2.53c2.283-0.128,3.426-0.193,5.709-0.322c0.318,0.925,0.479,1.388,0.799,2.313
				c-2.282,0.132-3.424,0.198-5.707,0.33c0.379,1.102,0.568,1.653,0.947,2.755c2.736-0.163,4.105-0.244,6.844-0.407
				C129.245,73.989,129.418,74.482,129.76,75.471z"/>
		</g>
	</g>
</g>
</svg>
