<?xml version="1.0" encoding="utf-8"?>
<!-- Generator: Adobe Illustrator 16.0.0, SVG Export Plug-In . SVG Version: 6.00 Build 0)  -->
<!DOCTYPE svg PUBLIC "-//W3C//DTD SVG 1.1//EN" "http://www.w3.org/Graphics/SVG/1.1/DTD/svg11.dtd">
<svg version="1.1" xmlns="http://www.w3.org/2000/svg" xmlns:xlink="http://www.w3.org/1999/xlink" x="0px" y="0px" width="200px"
	 height="200px" viewBox="0 0 200 200" enable-background="new 0 0 200 200" xml:space="preserve">
<g id="Layer_1">
	<g>
		<polyline fill="#FFFFFF" points="17.601,125.65 33.781,123.922 34.729,127.513 16.886,129.312 		"/>
		<polyline fill="#FFFFFF" points="17.634,125.718 24.462,93.841 20.683,81.065 5,157.066 7.435,158.066 7.646,158.066 
			9.491,157.434 9.704,157.434 10.051,155.801 9.978,155.889 11.339,155.201 16.886,129.312 		"/>
		<polyline fill="#FFFFFF" points="181.407,119.553 195,156.853 191.072,157.722 189.427,157.573 189.022,156.443 189.039,156.488 
			187.055,156.322 173.861,120.286 		"/>
		<polyline fill="#FFFFFF" points="144.025,123.172 141.691,139.799 143.003,140.175 145.409,139.423 147.297,140.318 
			148.74,139.853 151.333,122.516 150.878,122.355 144.489,122.942 		"/>
		<polyline fill="#FFFFFF" points="22.086,75.438 20.031,78.798 49.802,175.68 53.445,176.617 57.896,176.124 44.496,132.645 
			39.751,132.253 22.188,75.337 		"/>
		<polyline fill="#FFFFFF" points="151.304,122.355 181.771,119.517 185.674,116.438 152.273,23.383 11.109,27.528 8.355,30.509 
			39.751,132.253 39.83,132.559 44.368,132.144 144.063,122.942 144.489,122.942 150.878,122.355 		"/>
		
			<line fill="none" stroke="#1C181B" stroke-width="0.75" stroke-linecap="round" stroke-linejoin="round" x1="151.032" y1="24.919" x2="148.598" y2="27.271"/>
		
			<line fill="none" stroke="#1C181B" stroke-width="0.75" stroke-linecap="round" x1="39.83" y1="132.559" x2="44.368" y2="132.144"/>
		
			<line fill="none" stroke="#1C181B" stroke-width="0.75" stroke-linecap="round" x1="44.368" y1="132.144" x2="144.063" y2="122.942"/>
		
			<line fill="none" stroke="#1C181B" stroke-width="0.75" stroke-linecap="round" x1="144.489" y1="122.942" x2="150.878" y2="122.355"/>
		<polyline fill="none" stroke="#1C181B" stroke-width="0.75" stroke-linecap="round" stroke-linejoin="round" points="
			151.304,122.355 181.771,119.517 185.674,116.438 152.273,23.383 11.109,27.528 8.355,30.509 22.188,75.337 		"/>
		<path fill="none" stroke="#1C181B" stroke-width="0.75" stroke-linecap="round" d="M11.109,27.528L43.005,129.05l142.484-12.661
			 M39.816,132.404l3.1-3.054 M22.188,75.337l17.562,56.916"/>
		<polyline fill="none" stroke="#1C181B" stroke-width="0.75" stroke-linecap="round" stroke-linejoin="round" points="
			13.096,27.54 44.546,127.42 183.486,115.126 151.032,24.919 13.706,29.324 		"/>
		<polyline fill="none" stroke="#1C181B" stroke-width="0.75" stroke-linecap="round" points="22.086,75.438 20.031,78.798 
			33.888,123.892 		"/>
		
			<line fill="none" stroke="#1C181B" stroke-width="0.75" stroke-linecap="round" x1="33.888" y1="123.892" x2="34.964" y2="127.395"/>
		<path fill="none" stroke="#1C181B" stroke-width="0.75" stroke-linecap="round" d="M44.496,132.645l13.399,43.479l-4.45,0.493
			 M34.964,127.395l14.838,48.285l3.644,0.938"/>
		
			<line fill="none" stroke="#1C181B" stroke-width="0.75" stroke-linecap="round" x1="53.445" y1="176.617" x2="39.83" y2="132.559"/>
		<polyline fill="none" stroke="#1C181B" stroke-width="0.75" stroke-linecap="round" stroke-linejoin="round" points="
			180.275,115.479 148.598,27.271 14.363,31.344 		"/>
		
			<line fill="none" stroke="#1C181B" stroke-width="0.75" stroke-linecap="round" x1="24.982" y1="85.125" x2="22.717" y2="88.697"/>
		<line fill="none" stroke="#1C181B" stroke-width="0.75" stroke-linecap="round" x1="20.683" y1="81.065" x2="5" y2="157.066"/>
		
			<line fill="none" stroke="#1C181B" stroke-width="0.75" stroke-linecap="round" stroke-linejoin="round" x1="23.612" y1="89.906" x2="9.624" y2="155.801"/>
		<path fill="none" stroke="#1C181B" stroke-width="0.75" stroke-linecap="round" stroke-linejoin="round" d="M9.491,157.434
			l-1.845,0.633 M10.051,155.801l-0.347,1.633"/>
		<line fill="none" stroke="#1C181B" stroke-width="0.75" stroke-linecap="round" x1="7.435" y1="158.066" x2="5" y2="157.066"/>
		<line fill="none" stroke="#1C181B" stroke-width="0.75" stroke-linecap="round" x1="22.86" y1="87.497" x2="7.931" y2="157.965"/>
		<path fill="none" stroke="#1C181B" stroke-width="0.75" stroke-linecap="round" stroke-linejoin="round" d="M173.861,120.286
			l13.193,36.036 M16.886,129.312l-5.547,25.89l-1.361,0.688 M24.462,93.841l-6.828,31.877"/>
		<path fill="none" stroke="#1C181B" stroke-width="0.75" stroke-linecap="round" d="M147.853,122.707l-2.443,16.716
			 M145.51,122.986l-2.507,17.188"/>
		<polyline fill="none" stroke="#1C181B" stroke-width="0.75" stroke-linecap="round" stroke-linejoin="round" points="
			151.333,122.516 148.74,139.853 147.297,140.318 		"/>
		
			<line fill="none" stroke="#1C181B" stroke-width="0.75" stroke-linecap="round" x1="187.055" y1="156.322" x2="189.039" y2="156.488"/>
		
			<line fill="none" stroke="#1C181B" stroke-width="0.75" stroke-linecap="round" stroke-linejoin="round" x1="149.925" y1="122.516" x2="147.297" y2="140.318"/>
		<polyline fill="none" stroke="#1C181B" stroke-width="0.75" stroke-linecap="round" stroke-linejoin="round" points="
			147.297,140.318 145.409,139.423 143.003,140.175 141.691,139.799 144.025,123.172 		"/>
		
			<line fill="none" stroke="#1C181B" stroke-width="0.75" stroke-linecap="round" stroke-linejoin="round" x1="177.266" y1="119.995" x2="190.857" y2="157.722"/>
		<polyline fill="none" stroke="#1C181B" stroke-width="0.75" stroke-linecap="round" stroke-linejoin="round" points="
			191.072,157.722 195,156.853 181.407,119.553 		"/>
		
			<line fill="none" stroke="#1C181B" stroke-width="0.75" stroke-linecap="round" stroke-linejoin="round" x1="176.047" y1="120.273" x2="189.022" y2="156.443"/>
		<polyline fill="none" stroke="#1C181B" stroke-width="0.75" stroke-linecap="round" stroke-linejoin="round" points="
			189.022,156.443 189.427,157.573 191.072,157.722 		"/>
		
			<line fill="none" stroke="#1C181B" stroke-width="0.75" stroke-linecap="round" x1="15.507" y1="129.453" x2="16.886" y2="129.312"/>
		
			<line fill="none" stroke="#1C181B" stroke-width="0.75" stroke-linecap="round" x1="16.886" y1="129.312" x2="34.729" y2="127.513"/>
		
			<line fill="none" stroke="#1C181B" stroke-width="0.75" stroke-linecap="round" x1="16.044" y1="125.995" x2="17.387" y2="125.863"/>
		
			<line fill="none" stroke="#1C181B" stroke-width="0.75" stroke-linecap="round" x1="17.601" y1="125.65" x2="33.781" y2="123.922"/>
		<path fill="none" stroke="#1C181B" stroke-width="0.75" stroke-linecap="round" d="M15.649,128.16l18.939-1.933 M15.826,127.276
			l18.464-1.872"/>
		
			<line fill="none" stroke="#1C181B" stroke-width="0.75" stroke-linecap="round" x1="39.83" y1="132.559" x2="44.368" y2="132.144"/>
		<path fill="none" stroke="#1C181B" stroke-width="0.75" stroke-linecap="round" d="M33.781,123.922l-16.181,1.729 M34.729,127.513
			l-17.843,1.799"/>
	</g>
</g>
<g id="Layer_2">
	<g>
		<path fill-rule="evenodd" clip-rule="evenodd" d="M141.032,27.466c4.239-0.129,8.828,2.942,10.215,6.818
			c8.831,24.682,17.662,49.364,26.493,74.046c1.391,3.886-0.959,7.371-5.236,7.751c-40.068,3.56-80.137,7.118-120.205,10.684
			c-4.274,0.38-8.817-2.777-10.153-7.014c-8.489-26.908-16.978-53.816-25.465-80.725c-1.333-4.226,0.995-7.794,5.23-7.923
			C61.619,29.894,101.325,28.683,141.032,27.466"/>
		<path fill-rule="evenodd" clip-rule="evenodd" fill="#FFD520" d="M142.285,30.995c2.118-0.07,4.444,1.484,5.136,3.424
			c8.822,24.746,17.643,49.492,26.465,74.238c0.693,1.946-0.501,3.713-2.637,3.897c-40.053,3.467-80.105,6.932-120.158,10.401
			c-2.136,0.185-4.414-1.417-5.083-3.528c-8.501-26.845-16.996-53.692-25.496-80.537c-0.002-0.008-0.006-0.018-0.01-0.029
			c-0.668-2.111,0.503-3.88,2.618-3.95C62.842,33.605,102.563,32.301,142.285,30.995"/>
		<g>
			<path fill-rule="evenodd" clip-rule="evenodd" d="M45.744,55.255c-0.945,0.043-1.418,0.065-2.363,0.108
				c1.252,3.894,1.878,5.841,3.13,9.735c0.946-0.049,1.419-0.073,2.366-0.122c2.009-0.104,4.072-1.423,2.89-5.075
				C50.583,56.247,47.751,55.163,45.744,55.255 M44.917,52.438c-2.267,0.1-3.4,0.15-5.667,0.25
				c1.971,6.145,2.955,9.218,4.926,15.364c2.27-0.122,3.406-0.182,5.676-0.304c4.337-0.232,6.733-3.09,5.139-8.003
				C53.307,54.558,48.672,52.272,44.917,52.438z"/>
			<path fill-rule="evenodd" clip-rule="evenodd" d="M79.461,59.586c1.843-0.091,2.765-0.138,4.608-0.229
				c-0.34-1.019-1.576-2.104-3.006-2.036C79.595,57.392,79.097,58.489,79.461,59.586 M80.117,61.701
				c3.073-0.156,4.608-0.232,7.681-0.389c-0.32-1.321-2.687-6.672-7.629-6.442c-4.325,0.201-3.83,4.561-3.378,5.926
				s2.763,5.713,7.538,5.457c2.702-0.145,3.65-1.66,3.895-2.052c-0.972-0.622-1.458-0.934-2.43-1.558c0,0-0.52,1.062-2.238,1.152
				C81.795,63.887,80.469,62.764,80.117,61.701z"/>
			<path d="M59.977,56.198c-1.192,0.056-1.79,0.085-2.982,0.141c1.417,4.351,2.125,6.525,3.542,10.876
				c1.194-0.064,1.79-0.096,2.984-0.16C62.102,62.713,61.395,60.541,59.977,56.198z"/>
			<path fill-rule="evenodd" clip-rule="evenodd" d="M57.029,51.967c0.926-0.041,1.91,0.632,2.192,1.497
				c0.282,0.864-0.242,1.603-1.168,1.645c-0.924,0.042-1.9-0.627-2.182-1.494C55.59,52.749,56.105,52.008,57.029,51.967"/>
			<path fill-rule="evenodd" clip-rule="evenodd" d="M140.681,56.006c0.95,2.703,1.427,4.054,2.377,6.757
				c-1.21,0.065-1.816,0.096-3.026,0.161c-0.909-2.592-1.361-3.887-2.271-6.479c-0.282-0.803-1.233-1.495-2.498-1.434
				s-2.11,1.102-1.626,2.489c0.791,2.264,1.186,3.397,1.977,5.661c-1.191,0.064-1.784,0.095-2.976,0.159
				c-1.446-4.154-2.172-6.232-3.618-10.386c1.189-0.056,1.784-0.083,2.974-0.139c0.106,0.305,0.16,0.458,0.267,0.763
				c0,0,0.884-1.045,2.559-1.123C137.511,52.31,140.028,54.15,140.681,56.006"/>
			<path fill-rule="evenodd" clip-rule="evenodd" d="M121.387,55.345c-1.223,0.059-2.294,1.159-1.507,3.442
				c0.774,2.247,2.57,3.242,3.794,3.178c1.274-0.067,2.33-1.206,1.555-3.445C124.44,56.244,122.661,55.284,121.387,55.345
				 M120.561,52.953c-2.807,0.13-4.916,2.33-3.672,5.951c1.242,3.615,4.752,5.606,7.611,5.452c2.901-0.156,4.944-2.432,3.698-6.02
				C126.949,54.741,123.422,52.82,120.561,52.953z"/>
			<path fill-rule="evenodd" clip-rule="evenodd" d="M96.116,56.902c-0.354-1.048-0.531-1.573-0.885-2.621
				c-2.87,0.1-3.049,0.79-3.563,1.5c-0.146-0.434-0.22-0.65-0.366-1.084c-1.189,0.056-1.784,0.083-2.974,0.139
				c1.43,4.265,2.144,6.398,3.574,10.664c1.191-0.064,1.787-0.095,2.978-0.159c-0.715-2.128-1.074-3.194-1.79-5.322
				C92.562,58.446,94.029,57.003,96.116,56.902"/>
			<path fill-rule="evenodd" clip-rule="evenodd" d="M99.94,63.324c0.656-0.765,0.985-1.146,1.641-1.909
				c1.082,0.854,3.17,1.505,3.95,1.464c0.812-0.042,1.323-0.633,1.145-1.158c-0.177-0.52-0.708-0.745-1.154-0.812
				c-0.422-0.064-2.104-0.363-2.422-0.404c-0.295-0.038-3.24-0.373-4.098-2.908c-0.909-2.687,1.937-3.464,3.732-3.548
				s3.6,0.326,5.227,1.338c-0.514,0.78-0.769,1.169-1.282,1.951c-1.41-0.835-2.301-1.133-3.196-1.09
				c-0.9,0.043-1.472,0.412-1.258,1.042c0.214,0.631,0.796,0.704,1.031,0.741c0.26,0.041,2.369,0.333,2.838,0.396
				c0.513,0.068,3.033,0.597,3.87,3.05c0.836,2.45-1.382,3.549-3.748,3.677C103.807,65.282,101.046,64.255,99.94,63.324"/>
			<path fill-rule="evenodd" clip-rule="evenodd" d="M72.09,66.595c0.46-0.024,0.69-0.035,1.15-0.06
				c0.187-4.387,0.279-6.576,0.463-10.941c-1.39,0.065-2.085,0.097-3.475,0.162c-0.008,2.946-0.013,4.422-0.022,7.377
				c-1.918-2.856-2.876-4.286-4.793-7.151c-1.289,0.061-1.933,0.089-3.222,0.15c3.028,4.246,4.542,6.364,7.574,10.588
				C70.695,66.67,71.161,66.645,72.09,66.595"/>
			<path d="M112.503,53.74c-1.177,0.055-1.765,0.083-2.941,0.138c1.438,4.208,2.156,6.31,3.595,10.518
				c1.178-0.063,1.768-0.094,2.945-0.157C114.662,60.039,113.942,57.939,112.503,53.74z"/>
			<path fill-rule="evenodd" clip-rule="evenodd" d="M109.527,49.653c0.922-0.041,1.898,0.608,2.186,1.444
				c0.286,0.836-0.225,1.55-1.147,1.593c-0.927,0.042-1.906-0.604-2.192-1.442S108.602,49.694,109.527,49.653"/>
			<path fill-rule="evenodd" clip-rule="evenodd" d="M77.673,97.818c11.46-0.834,22.919-1.669,34.379-2.504
				c-2.382,3.386-3.574,5.086-5.961,8.507c5.169-0.402,7.753-0.601,12.922-1.003c3.558-5.091,5.333-7.617,8.878-12.631
				c-6.742-4.288-10.109-6.452-16.84-10.817c-5.157,0.324-7.737,0.486-12.894,0.811c4.495,2.935,6.743,4.394,11.243,7.293
				c-11.451,0.777-22.901,1.554-34.352,2.33C76.099,93.01,76.623,94.614,77.673,97.818"/>
		</g>
	</g>
</g>
</svg>
