<?xml version="1.0" encoding="utf-8"?>
<!-- Generator: Adobe Illustrator 16.0.0, SVG Export Plug-In . SVG Version: 6.00 Build 0)  -->
<!DOCTYPE svg PUBLIC "-//W3C//DTD SVG 1.1//EN" "http://www.w3.org/Graphics/SVG/1.1/DTD/svg11.dtd">
<svg version="1.1" xmlns="http://www.w3.org/2000/svg" xmlns:xlink="http://www.w3.org/1999/xlink" x="0px" y="0px" width="200px"
	 height="200px" viewBox="0 0 200 200" enable-background="new 0 0 200 200" xml:space="preserve">
<g id="Layer_1">
	<g>
		<polyline fill="#FFFFFF" points="17.601,125.65 33.781,123.922 34.729,127.513 16.886,129.312 		"/>
		<polyline fill="#FFFFFF" points="17.634,125.718 24.462,93.841 20.683,81.065 5,157.066 7.435,158.066 7.646,158.066 
			9.491,157.434 9.704,157.434 10.051,155.801 9.978,155.889 11.339,155.201 16.886,129.312 		"/>
		<polyline fill="#FFFFFF" points="181.407,119.553 195,156.853 191.072,157.722 189.427,157.573 189.022,156.443 189.039,156.488 
			187.055,156.322 173.861,120.286 		"/>
		<polyline fill="#FFFFFF" points="144.025,123.172 141.691,139.799 143.003,140.175 145.409,139.423 147.297,140.318 
			148.74,139.853 151.333,122.516 150.878,122.355 144.489,122.942 		"/>
		<polyline fill="#FFFFFF" points="22.086,75.438 20.031,78.798 49.802,175.68 53.445,176.617 57.896,176.124 44.496,132.645 
			39.751,132.253 22.188,75.337 		"/>
		<polyline fill="#FFFFFF" points="151.304,122.355 181.771,119.517 185.674,116.438 152.273,23.383 11.109,27.528 8.355,30.509 
			39.751,132.253 39.83,132.559 44.368,132.144 144.063,122.942 144.489,122.942 150.878,122.355 		"/>
		
			<line fill="none" stroke="#1C181B" stroke-width="0.75" stroke-linecap="round" stroke-linejoin="round" x1="151.032" y1="24.919" x2="148.598" y2="27.271"/>
		
			<line fill="none" stroke="#1C181B" stroke-width="0.75" stroke-linecap="round" x1="39.83" y1="132.559" x2="44.368" y2="132.144"/>
		
			<line fill="none" stroke="#1C181B" stroke-width="0.75" stroke-linecap="round" x1="44.368" y1="132.144" x2="144.063" y2="122.942"/>
		
			<line fill="none" stroke="#1C181B" stroke-width="0.75" stroke-linecap="round" x1="144.489" y1="122.942" x2="150.878" y2="122.355"/>
		<polyline fill="none" stroke="#1C181B" stroke-width="0.75" stroke-linecap="round" stroke-linejoin="round" points="
			151.304,122.355 181.771,119.517 185.674,116.438 152.273,23.383 11.109,27.528 8.355,30.509 22.188,75.337 		"/>
		<path fill="none" stroke="#1C181B" stroke-width="0.75" stroke-linecap="round" d="M11.109,27.528L43.005,129.05l142.484-12.661
			 M39.816,132.404l3.1-3.054 M22.188,75.337l17.562,56.916"/>
		<polyline fill="none" stroke="#1C181B" stroke-width="0.75" stroke-linecap="round" stroke-linejoin="round" points="
			13.096,27.54 44.546,127.42 183.486,115.126 151.032,24.919 13.706,29.324 		"/>
		<polyline fill="none" stroke="#1C181B" stroke-width="0.75" stroke-linecap="round" points="22.086,75.438 20.031,78.798 
			33.888,123.892 		"/>
		
			<line fill="none" stroke="#1C181B" stroke-width="0.75" stroke-linecap="round" x1="33.888" y1="123.892" x2="34.964" y2="127.395"/>
		<path fill="none" stroke="#1C181B" stroke-width="0.75" stroke-linecap="round" d="M44.496,132.645l13.399,43.479l-4.45,0.493
			 M34.964,127.395l14.838,48.285l3.644,0.938"/>
		
			<line fill="none" stroke="#1C181B" stroke-width="0.75" stroke-linecap="round" x1="53.445" y1="176.617" x2="39.83" y2="132.559"/>
		<polyline fill="none" stroke="#1C181B" stroke-width="0.75" stroke-linecap="round" stroke-linejoin="round" points="
			180.275,115.479 148.598,27.271 14.363,31.344 		"/>
		
			<line fill="none" stroke="#1C181B" stroke-width="0.75" stroke-linecap="round" x1="24.982" y1="85.125" x2="22.717" y2="88.697"/>
		<line fill="none" stroke="#1C181B" stroke-width="0.75" stroke-linecap="round" x1="20.683" y1="81.065" x2="5" y2="157.066"/>
		
			<line fill="none" stroke="#1C181B" stroke-width="0.75" stroke-linecap="round" stroke-linejoin="round" x1="23.612" y1="89.906" x2="9.624" y2="155.801"/>
		<path fill="none" stroke="#1C181B" stroke-width="0.75" stroke-linecap="round" stroke-linejoin="round" d="M9.491,157.434
			l-1.845,0.633 M10.051,155.801l-0.347,1.633"/>
		<line fill="none" stroke="#1C181B" stroke-width="0.75" stroke-linecap="round" x1="7.435" y1="158.066" x2="5" y2="157.066"/>
		<line fill="none" stroke="#1C181B" stroke-width="0.75" stroke-linecap="round" x1="22.86" y1="87.497" x2="7.931" y2="157.965"/>
		<path fill="none" stroke="#1C181B" stroke-width="0.75" stroke-linecap="round" stroke-linejoin="round" d="M173.861,120.286
			l13.193,36.036 M16.886,129.312l-5.547,25.89l-1.361,0.688 M24.462,93.841l-6.828,31.877"/>
		<path fill="none" stroke="#1C181B" stroke-width="0.75" stroke-linecap="round" d="M147.853,122.707l-2.443,16.716
			 M145.51,122.986l-2.507,17.188"/>
		<polyline fill="none" stroke="#1C181B" stroke-width="0.75" stroke-linecap="round" stroke-linejoin="round" points="
			151.333,122.516 148.74,139.853 147.297,140.318 		"/>
		
			<line fill="none" stroke="#1C181B" stroke-width="0.75" stroke-linecap="round" x1="187.055" y1="156.322" x2="189.039" y2="156.488"/>
		
			<line fill="none" stroke="#1C181B" stroke-width="0.75" stroke-linecap="round" stroke-linejoin="round" x1="149.925" y1="122.516" x2="147.297" y2="140.318"/>
		<polyline fill="none" stroke="#1C181B" stroke-width="0.75" stroke-linecap="round" stroke-linejoin="round" points="
			147.297,140.318 145.409,139.423 143.003,140.175 141.691,139.799 144.025,123.172 		"/>
		
			<line fill="none" stroke="#1C181B" stroke-width="0.75" stroke-linecap="round" stroke-linejoin="round" x1="177.266" y1="119.995" x2="190.857" y2="157.722"/>
		<polyline fill="none" stroke="#1C181B" stroke-width="0.75" stroke-linecap="round" stroke-linejoin="round" points="
			191.072,157.722 195,156.853 181.407,119.553 		"/>
		
			<line fill="none" stroke="#1C181B" stroke-width="0.75" stroke-linecap="round" stroke-linejoin="round" x1="176.047" y1="120.273" x2="189.022" y2="156.443"/>
		<polyline fill="none" stroke="#1C181B" stroke-width="0.75" stroke-linecap="round" stroke-linejoin="round" points="
			189.022,156.443 189.427,157.573 191.072,157.722 		"/>
		
			<line fill="none" stroke="#1C181B" stroke-width="0.75" stroke-linecap="round" x1="15.507" y1="129.453" x2="16.886" y2="129.312"/>
		
			<line fill="none" stroke="#1C181B" stroke-width="0.75" stroke-linecap="round" x1="16.886" y1="129.312" x2="34.729" y2="127.513"/>
		
			<line fill="none" stroke="#1C181B" stroke-width="0.75" stroke-linecap="round" x1="16.044" y1="125.995" x2="17.387" y2="125.863"/>
		
			<line fill="none" stroke="#1C181B" stroke-width="0.75" stroke-linecap="round" x1="17.601" y1="125.65" x2="33.781" y2="123.922"/>
		<path fill="none" stroke="#1C181B" stroke-width="0.75" stroke-linecap="round" d="M15.649,128.16l18.939-1.933 M15.826,127.276
			l18.464-1.872"/>
		
			<line fill="none" stroke="#1C181B" stroke-width="0.75" stroke-linecap="round" x1="39.83" y1="132.559" x2="44.368" y2="132.144"/>
		<path fill="none" stroke="#1C181B" stroke-width="0.75" stroke-linecap="round" d="M33.781,123.922l-16.181,1.729 M34.729,127.513
			l-17.843,1.799"/>
	</g>
</g>
<g id="Layer_2">
	<g>
		<g>
			<g>
				<path fill="none" d="M178.516,110.493c0.964,2.693-0.793,5.125-3.902,5.401c-41.462,3.686-82.924,7.366-124.386,11.054
					c-3.109,0.276-6.412-1.899-7.338-4.836c-8.98-28.479-17.967-56.957-26.95-85.435c-0.926-2.937,0.836-5.416,3.918-5.51
					c41.089-1.256,82.178-2.509,123.267-3.765c3.081-0.094,6.39,2.032,7.354,4.726C159.823,58.25,169.168,84.372,178.516,110.493z"
					/>
				<path fill="#ED1C24" d="M49.383,124.288c-1.554,0.136-3.206-0.954-3.669-2.42c-8.989-28.429-17.982-56.856-26.972-85.284
					c-0.463-1.466,0.418-2.707,1.959-2.757c41.099-1.325,82.198-2.645,123.298-3.966c1.541-0.05,3.196,1.013,3.678,2.362
					c9.335,26.171,18.675,52.341,28.012,78.512c0.481,1.35-0.396,2.565-1.951,2.701C132.286,117.053,90.835,120.672,49.383,124.288z
					"/>
			</g>
			<g>
				<path fill="#FFFFFF" d="M53.759,56.346c-0.098,1.601-0.605,2.83-1.521,3.688s-2.279,1.333-4.09,1.423
					c-1.189,0.059-2.322-0.097-3.402-0.465s-2.065-0.889-2.956-1.565c-0.89-0.676-1.667-1.48-2.331-2.413
					c-0.664-0.932-1.169-1.936-1.515-3.015c-0.346-1.079-0.5-2.112-0.464-3.095c0.035-0.983,0.263-1.852,0.686-2.606
					c0.422-0.754,1.032-1.365,1.826-1.83s1.775-0.718,2.93-0.768c1.894-0.082,3.572,0.251,5.015,1.016s2.709,1.895,3.796,3.389
					c-1.261,0.438-1.891,0.658-3.152,1.097c-0.241-0.356-0.505-0.692-0.789-1.007c-0.284-0.315-0.609-0.59-0.979-0.823
					c-0.369-0.233-0.791-0.411-1.265-0.535c-0.474-0.124-1.026-0.177-1.644-0.147c-1.135,0.054-1.941,0.518-2.401,1.372
					s-0.453,2.047,0.025,3.579c0.503,1.609,1.257,2.833,2.262,3.667c1.004,0.834,2.142,1.22,3.414,1.159
					c0.483-0.023,0.904-0.108,1.263-0.257s0.657-0.346,0.893-0.593c0.236-0.248,0.409-0.535,0.521-0.861
					c0.112-0.326,0.163-0.679,0.152-1.059C51.525,55.956,52.27,56.086,53.759,56.346z"/>
				<path fill="#FFFFFF" d="M71.527,59.944c-1.468,0.073-2.202,0.109-3.67,0.182c-0.688-1.042-1.031-1.562-1.719-2.604
					c-2.396,0.114-3.595,0.172-5.991,0.286c0.007,1.079,0.011,1.619,0.018,2.699c-1.451,0.072-2.176,0.107-3.627,0.179
					c0.165-6.129,0.245-9.183,0.404-15.272c1.731-0.069,2.596-0.104,4.327-0.174C65.369,51.143,67.421,54.082,71.527,59.944z
					 M64.379,54.916c-1.689-2.533-2.533-3.801-4.221-6.34c-0.002,2.611-0.003,3.917-0.006,6.535
					C61.843,55.033,62.688,54.994,64.379,54.916z"/>
				<path fill="#FFFFFF" d="M84.749,52.841c0.401,1.2,0.552,2.229,0.452,3.087c-0.1,0.858-0.371,1.573-0.812,2.147
					c-0.441,0.574-1.022,1.008-1.741,1.301c-0.719,0.293-1.507,0.455-2.344,0.502c-0.821,0.047-1.687-0.045-2.579-0.298
					s-1.75-0.65-2.568-1.191c-0.819-0.542-1.56-1.23-2.222-2.065c-0.663-0.835-1.179-1.813-1.549-2.934
					c-1.124-3.377-1.686-5.065-2.809-8.442c1.35-0.054,2.024-0.081,3.375-0.135c1.181,3.592,1.773,5.387,2.954,8.979
					c0.177,0.534,0.442,0.995,0.796,1.385c0.354,0.39,0.734,0.708,1.146,0.953s0.833,0.423,1.262,0.531
					c0.429,0.108,0.809,0.153,1.14,0.138c0.415-0.02,0.802-0.108,1.164-0.267c0.361-0.159,0.66-0.382,0.895-0.669
					c0.234-0.288,0.38-0.635,0.441-1.043c0.061-0.408,0.003-0.878-0.174-1.41c-0.168-0.506-0.324-0.966-0.463-1.384
					s-0.296-0.893-0.474-1.424s-0.359-1.076-0.545-1.633c-0.434-1.303-0.918-2.777-1.453-4.423c1.317-0.053,1.975-0.08,3.292-0.133
					C83.058,47.784,83.622,49.469,84.749,52.841z"/>
				<path fill="#FFFFFF" d="M97.237,46.729c-1.814,0.076-2.721,0.113-4.536,0.189c1.59,4.713,2.385,7.069,3.975,11.783
					c-1.327,0.065-1.99,0.1-3.316,0.165c-1.588-4.723-2.383-7.086-3.972-11.809c-1.814,0.076-2.721,0.114-4.535,0.19
					c-0.39-1.166-0.585-1.748-0.976-2.914c4.953-0.198,7.427-0.297,12.38-0.495C96.649,44.995,96.846,45.573,97.237,46.729z"/>
				<path fill="#FFFFFF" d="M106.671,58.208c-1.344,0.066-2.015,0.1-3.358,0.166c-1.985-5.848-2.978-8.771-4.963-14.619
					c1.342-0.054,2.012-0.081,3.354-0.135C103.69,49.455,104.684,52.372,106.671,58.208z"/>
				<path fill="#FFFFFF" d="M122.309,50.141c0.396,1.125,0.55,2.174,0.472,3.123c-0.078,0.95-0.355,1.774-0.822,2.475
					c-0.468,0.7-1.106,1.256-1.921,1.667s-1.752,0.644-2.816,0.696s-2.132-0.083-3.199-0.408s-2.064-0.809-2.991-1.446
					c-0.928-0.638-1.754-1.415-2.476-2.335c-0.722-0.92-1.275-1.949-1.662-3.082c-0.408-1.195-0.57-2.273-0.492-3.236
					c0.077-0.962,0.349-1.792,0.818-2.485c0.469-0.693,1.112-1.232,1.932-1.618c0.819-0.385,1.762-0.598,2.824-0.641
					c1.021-0.041,2.055,0.09,3.097,0.393s2.027,0.765,2.955,1.384c0.928,0.619,1.764,1.391,2.512,2.316
					C121.285,47.869,121.885,48.938,122.309,50.141z M118.663,50.303c-0.265-0.766-0.602-1.437-1.012-2.015
					c-0.409-0.578-0.863-1.057-1.358-1.437c-0.496-0.38-1.023-0.662-1.584-0.845s-1.131-0.264-1.711-0.24
					c-0.566,0.023-1.073,0.146-1.523,0.366c-0.449,0.22-0.802,0.537-1.06,0.951c-0.257,0.414-0.401,0.921-0.434,1.521
					c-0.033,0.6,0.085,1.291,0.353,2.073c0.255,0.745,0.597,1.407,1.026,1.986c0.43,0.58,0.911,1.059,1.441,1.438
					c0.53,0.379,1.092,0.66,1.689,0.846c0.598,0.186,1.181,0.265,1.747,0.238c0.58-0.028,1.079-0.161,1.495-0.401
					s0.734-0.569,0.955-0.988c0.221-0.418,0.334-0.922,0.341-1.513C119.036,51.692,118.915,51.032,118.663,50.303z"/>
				<path fill="#FFFFFF" d="M141.712,56.476c-1.515,0.075-2.272,0.113-3.787,0.188c-4.189-3.686-6.283-5.538-10.467-9.259
					c1.339,3.844,2.008,5.766,3.347,9.61c-1.327,0.065-1.988,0.099-3.315,0.164c-1.999-5.757-3.001-8.635-5-14.391
					c1.516-0.061,2.273-0.092,3.789-0.153c4.183,3.736,6.276,5.595,10.464,9.296c-1.345-3.833-2.019-5.748-3.363-9.58
					c1.325-0.053,1.987-0.08,3.312-0.133C138.699,47.921,139.704,50.772,141.712,56.476z"/>
				<path fill="#FFFFFF" d="M70.209,85.447c-1.347,0.087-2.021,0.131-3.368,0.219c-1.396-4.312-2.093-6.469-3.489-10.781
					c-1.098,2.736-1.646,4.109-2.747,6.862c-2.783-2.518-4.173-3.782-6.954-6.316c1.402,4.345,2.104,6.519,3.506,10.864
					c-1.313,0.085-1.971,0.127-3.284,0.213c-1.952-6.065-2.928-9.096-4.88-15.161c1.702-0.095,2.554-0.142,4.255-0.237
					c2.217,2.024,3.326,3.034,5.544,5.047c0.888-2.197,1.332-3.294,2.217-5.48c1.718-0.096,2.578-0.143,4.296-0.239
					C67.268,76.442,68.248,79.444,70.209,85.447z"/>
				<path fill="#FFFFFF" d="M85.136,77.962c0.4,1.206,0.55,2.243,0.448,3.111s-0.375,1.596-0.818,2.182
					c-0.443,0.587-1.025,1.034-1.746,1.341s-1.513,0.481-2.352,0.543c-0.823,0.06-1.69-0.021-2.584-0.262s-1.752-0.629-2.572-1.165
					c-0.82-0.534-1.562-1.218-2.224-2.052c-0.663-0.833-1.18-1.812-1.549-2.938c-1.121-3.394-1.679-5.091-2.8-8.485
					c1.353-0.075,2.03-0.114,3.383-0.189c1.178,3.61,1.766,5.415,2.944,9.025c0.176,0.537,0.441,1,0.795,1.388
					c0.354,0.388,0.737,0.703,1.149,0.944c0.412,0.242,0.832,0.414,1.262,0.517c0.43,0.103,0.812,0.144,1.145,0.123
					c0.416-0.026,0.804-0.124,1.166-0.29c0.362-0.166,0.661-0.395,0.896-0.688c0.235-0.294,0.383-0.647,0.445-1.06
					c0.061-0.413,0.003-0.886-0.173-1.42c-0.168-0.508-0.323-0.973-0.461-1.393c-0.139-0.419-0.296-0.896-0.473-1.431
					s-0.358-1.081-0.543-1.641c-0.433-1.31-0.916-2.791-1.449-4.445c1.32-0.073,1.981-0.111,3.301-0.185
					C83.449,72.88,84.011,74.573,85.136,77.962z"/>
				<path fill="#FFFFFF" d="M101.577,75.997c0.335,0.993,0.483,1.938,0.44,2.838c-0.043,0.9-0.274,1.703-0.695,2.403
					c-0.421,0.701-1.034,1.272-1.839,1.717c-0.805,0.444-1.802,0.707-2.992,0.784c-2.333,0.151-3.5,0.227-5.832,0.378
					c-1.973-5.927-2.958-8.89-4.932-14.816c2.329-0.13,3.494-0.194,5.823-0.324c1.243-0.069,2.401,0.072,3.476,0.422
					c1.075,0.351,2.042,0.851,2.901,1.5s1.6,1.412,2.22,2.291C100.768,74.07,101.243,75.005,101.577,75.997z M98.261,76.209
					c-0.212-0.63-0.497-1.215-0.854-1.753c-0.358-0.539-0.774-0.997-1.246-1.375c-0.473-0.378-1.006-0.664-1.602-0.861
					c-0.595-0.198-1.245-0.276-1.951-0.236c-1.038,0.06-1.558,0.089-2.596,0.149c1.175,3.519,1.763,5.277,2.938,8.795
					c1.039-0.065,1.559-0.098,2.598-0.163c0.665-0.042,1.218-0.188,1.658-0.435c0.44-0.247,0.771-0.573,0.996-0.98
					c0.224-0.407,0.343-0.878,0.354-1.413C98.566,77.402,98.468,76.827,98.261,76.209z"/>
				<path fill="#FFFFFF" d="M126.068,74.463c0.396,1.129,0.55,2.184,0.47,3.143s-0.355,1.794-0.825,2.507s-1.113,1.283-1.93,1.709
					c-0.816,0.426-1.758,0.677-2.824,0.747c-1.067,0.07-2.138-0.052-3.207-0.364s-2.069-0.783-2.998-1.412s-1.754-1.399-2.477-2.317
					c-0.722-0.917-1.275-1.944-1.661-3.08c-0.407-1.198-0.572-2.284-0.493-3.255s0.355-1.812,0.827-2.518s1.116-1.26,1.938-1.661
					c0.822-0.4,1.768-0.63,2.833-0.689c1.023-0.057,2.056,0.061,3.1,0.35s2.031,0.737,2.96,1.347c0.929,0.61,1.771,1.376,2.52,2.297
					S125.645,73.256,126.068,74.463z M122.412,74.684c-0.264-0.768-0.6-1.439-1.009-2.016c-0.41-0.576-0.863-1.054-1.359-1.43
					s-1.023-0.651-1.585-0.828s-1.136-0.25-1.717-0.216c-0.568,0.033-1.075,0.165-1.526,0.394c-0.451,0.229-0.806,0.555-1.064,0.976
					c-0.259,0.422-0.402,0.934-0.437,1.539c-0.034,0.605,0.079,1.3,0.347,2.085c0.255,0.747,0.601,1.412,1.031,1.989
					c0.43,0.578,0.911,1.052,1.441,1.425c0.53,0.374,1.093,0.65,1.692,0.828c0.599,0.178,1.182,0.248,1.75,0.211
					c0.581-0.037,1.081-0.178,1.498-0.426c0.418-0.248,0.737-0.585,0.959-1.011c0.222-0.425,0.336-0.936,0.344-1.531
					C122.785,76.077,122.663,75.415,122.412,74.684z"/>
				<path fill="#FFFFFF" d="M145.509,80.552c-1.519,0.099-2.279,0.149-3.798,0.248c-4.194-3.652-6.289-5.489-10.478-9.177
					c1.337,3.855,2.007,5.786,3.344,9.641c-1.33,0.086-1.997,0.129-3.327,0.215c-1.996-5.774-2.993-8.661-4.989-14.435
					c1.52-0.084,2.277-0.126,3.796-0.21c4.188,3.703,6.284,5.545,10.478,9.212c-1.343-3.844-2.015-5.766-3.357-9.609
					c1.328-0.074,1.991-0.111,3.319-0.185C142.501,71.973,143.504,74.832,145.509,80.552z"/>
				<path fill="#FFFFFF" d="M90.302,109.52c-1.625,0.131-2.437,0.199-4.062,0.33c-1.972-2.224-2.957-3.34-4.927-5.572
					c-0.85,0.065-1.276,0.1-2.125,0.165c0.762,2.328,1.144,3.493,1.906,5.821c-1.333,0.107-2,0.158-3.333,0.266
					c-1.96-6.005-2.941-9.008-4.901-15.014c2.846-0.203,4.269-0.304,7.115-0.507c0.791-0.056,1.55,0.012,2.28,0.201
					c0.729,0.189,1.395,0.48,1.993,0.874c0.599,0.395,1.124,0.875,1.574,1.442c0.45,0.567,0.788,1.195,1.015,1.883
					c0.328,0.993,0.315,1.87-0.038,2.634c-0.353,0.765-0.95,1.34-1.793,1.718C87.122,106.07,88.182,107.22,90.302,109.52z
					 M83.368,99.371c-0.071-0.216-0.196-0.424-0.375-0.62c-0.178-0.195-0.383-0.367-0.616-0.514
					c-0.233-0.146-0.477-0.259-0.73-0.339s-0.498-0.11-0.733-0.093c-1.523,0.111-2.283,0.167-3.807,0.278
					c0.465,1.421,0.697,2.133,1.162,3.555c1.541-0.116,2.311-0.174,3.852-0.29c0.292-0.021,0.534-0.093,0.729-0.212
					s0.343-0.272,0.446-0.457c0.103-0.184,0.161-0.392,0.17-0.621C83.478,99.83,83.444,99.601,83.368,99.371z"/>
				<path fill="#FFFFFF" d="M104.801,100.824c0.393,1.151,0.543,2.23,0.459,3.213c-0.084,0.983-0.364,1.841-0.837,2.578
					c-0.474,0.737-1.118,1.332-1.938,1.78s-1.765,0.716-2.834,0.802c-1.07,0.086-2.14-0.023-3.211-0.328s-2.071-0.771-3-1.402
					c-0.929-0.631-1.753-1.408-2.473-2.337c-0.72-0.928-1.272-1.973-1.655-3.13c-0.404-1.221-0.563-2.331-0.48-3.327
					s0.361-1.859,0.837-2.589c0.475-0.73,1.124-1.307,1.949-1.729c0.825-0.422,1.773-0.668,2.842-0.744
					c1.026-0.073,2.06,0.03,3.105,0.312s2.034,0.727,2.963,1.338c0.93,0.612,1.768,1.384,2.515,2.316
					C103.788,98.509,104.382,99.595,104.801,100.824z M101.139,101.104c-0.262-0.783-0.597-1.467-1.006-2.052
					c-0.408-0.583-0.862-1.064-1.357-1.442c-0.496-0.377-1.024-0.653-1.586-0.826c-0.562-0.172-1.135-0.238-1.718-0.195
					c-0.569,0.042-1.08,0.182-1.533,0.423s-0.809,0.579-1.07,1.013c-0.26,0.436-0.408,0.962-0.444,1.582
					c-0.036,0.621,0.077,1.331,0.343,2.131c0.252,0.762,0.594,1.436,1.023,2.021s0.91,1.065,1.44,1.44s1.094,0.648,1.694,0.822
					c0.599,0.174,1.184,0.24,1.753,0.195c0.583-0.046,1.086-0.2,1.505-0.46s0.739-0.61,0.963-1.05c0.224-0.438,0.34-0.96,0.35-1.57
					C101.506,102.527,101.388,101.85,101.139,101.104z"/>
				<path fill="#FFFFFF" d="M123.574,106.842c-1.475,0.119-2.213,0.178-3.688,0.297c-0.692-1.007-1.037-1.509-1.729-2.517
					c-2.408,0.189-3.613,0.285-6.021,0.475c0.009,1.066,0.014,1.599,0.022,2.666c-1.458,0.117-2.188,0.176-3.646,0.293
					c0.155-6.062,0.229-9.083,0.379-15.105c1.739-0.124,2.607-0.186,4.347-0.31C117.368,98.342,119.438,101.182,123.574,106.842z
					 M116.381,102.103c-1.702-2.449-2.551-3.674-4.252-6.13c0.002,2.58,0.003,3.871,0.004,6.458
					C113.832,102.3,114.682,102.233,116.381,102.103z"/>
				<path fill="#FFFFFF" d="M136.592,98.471c0.337,0.976,0.486,1.907,0.445,2.797c-0.041,0.891-0.273,1.686-0.694,2.385
					c-0.421,0.7-1.037,1.276-1.843,1.729c-0.807,0.452-1.806,0.729-2.998,0.824c-2.338,0.188-3.505,0.282-5.843,0.471
					c-1.988-5.826-2.982-8.739-4.971-14.565c2.335-0.166,3.5-0.249,5.835-0.415c1.246-0.089,2.408,0.031,3.486,0.359
					c1.078,0.329,2.048,0.808,2.91,1.436s1.607,1.37,2.23,2.229C135.774,96.579,136.255,97.496,136.592,98.471z M133.265,98.733
					c-0.214-0.62-0.5-1.193-0.859-1.72c-0.359-0.526-0.776-0.972-1.25-1.337c-0.475-0.366-1.01-0.642-1.606-0.827
					c-0.597-0.186-1.251-0.252-1.958-0.2c-1.041,0.076-1.561,0.114-2.602,0.19c1.184,3.458,1.774,5.186,2.958,8.645
					c1.041-0.082,1.562-0.121,2.604-0.203c0.667-0.053,1.222-0.205,1.663-0.457c0.441-0.251,0.774-0.58,0.998-0.986
					c0.224-0.405,0.339-0.872,0.35-1.4S133.474,99.341,133.265,98.733z"/>
			</g>
		</g>
	</g>
</g>
</svg>
