<?xml version="1.0" encoding="utf-8"?>
<!-- Generator: Adobe Illustrator 16.0.0, SVG Export Plug-In . SVG Version: 6.00 Build 0)  -->
<!DOCTYPE svg PUBLIC "-//W3C//DTD SVG 1.1//EN" "http://www.w3.org/Graphics/SVG/1.1/DTD/svg11.dtd">
<svg version="1.1" xmlns="http://www.w3.org/2000/svg" xmlns:xlink="http://www.w3.org/1999/xlink" x="0px" y="0px" width="200px"
	 height="200px" viewBox="0 0 200 200" enable-background="new 0 0 200 200" xml:space="preserve">
<g id="Layer_1">
</g>
<g id="Layer_2">
	<rect x="12.892" y="143.483" fill="#FFFFFF" width="8.926" height="51.182"/>
	<path fill="none" stroke="#1C181B" stroke-width="0.75" stroke-linejoin="round" d="M21.817,194.671 M12.892,194.671h8.926v-51.188
		h-8.926V194.671z"/>
	<rect x="178.499" y="143.483" fill="#FFFFFF" width="8.926" height="51.188"/>
	<path fill="none" stroke="#1C181B" stroke-width="0.75" stroke-linejoin="round" d="M178.499,143.483 M187.425,143.483h-8.926
		v51.188h8.926V143.483z"/>
	<polyline fill="#FFFFFF" points="59.802,162.664 59.802,143.483 50.876,143.483 50.876,182.023 59.802,182.023 59.802,169.361 	"/>
	<polyline fill="none" stroke="#1C181B" stroke-width="0.75" stroke-linecap="round" stroke-linejoin="round" points="
		59.802,162.664 59.802,143.483 50.876,143.483 50.876,182.023 59.802,182.023 59.802,169.361 	"/>
	<polyline fill="#FFFFFF" points="139.781,169.361 139.781,182.023 148.707,182.023 148.707,143.483 139.781,143.483 
		139.781,162.664 	"/>
	<polyline fill="none" stroke="#1C181B" stroke-width="0.75" stroke-linecap="round" stroke-linejoin="round" points="
		139.781,169.361 139.781,182.023 148.707,182.023 148.707,143.483 139.781,143.483 139.781,162.664 	"/>
	<path fill="none" stroke="#1C181B" stroke-width="0.75" stroke-linejoin="round" d="M139.816,169.382v-6.697 M59.767,162.685v6.697
		"/>
	<rect x="59.767" y="162.685" fill="#FFFFFF" width="80.05" height="6.697"/>
	
		<rect x="59.767" y="162.685" fill="none" stroke="#1C181B" stroke-width="0.75" stroke-linejoin="round" width="80.05" height="6.697"/>
	<polyline fill="#FFFFFF" points="11.479,143.352 11.479,132.309 94.834,5 104.795,5 188.521,132.304 188.521,143.352 	"/>
	<polygon fill="none" stroke="#1C181B" stroke-width="0.9688" stroke-linecap="round" stroke-linejoin="round" points="
		11.479,143.352 11.479,132.309 94.834,5 104.795,5 188.521,132.304 188.521,143.352 	"/>
	<polyline fill="#FFFFFF" points="14.377,140.777 14.377,133.116 96.062,8.047 103.612,8.047 185.668,133.11 185.668,140.777 	"/>
	<polygon fill="none" stroke="#1C181B" stroke-width="0.9688" stroke-linecap="round" stroke-linejoin="round" points="
		14.377,140.777 14.377,133.116 96.062,8.047 103.612,8.047 185.668,133.11 185.668,140.777 	"/>
	
		<line fill="none" stroke="#1C181B" stroke-width="0.75" stroke-linejoin="round" x1="16.959" y1="194.26" x2="16.959" y2="143.062"/>
	
		<line fill="none" stroke="#1C181B" stroke-width="0.75" stroke-linecap="round" stroke-linejoin="round" x1="54.194" y1="143.813" x2="54.194" y2="182.354"/>
	
		<line fill="none" stroke="#1C181B" stroke-width="0.75" stroke-linejoin="round" x1="183.571" y1="195" x2="183.571" y2="143.813"/>
	
		<line fill="none" stroke="#1C181B" stroke-width="0.75" stroke-linecap="round" stroke-linejoin="round" x1="144.543" y1="143.458" x2="144.543" y2="182.003"/>
	<polyline fill="#FFFFFF" points="98.524,11.697 101.17,11.697 181.784,134.283 181.733,136.654 18.124,136.654 18.172,134.283 	"/>
	<g>
		<g>
			<path fill="#ED1C24" d="M26.372,136.654c-5.719,0-7.796-3.889-4.617-8.643l72.42-108.261c3.18-4.753,8.366-4.743,11.526,0.024
				l71.733,108.212c3.16,4.767,1.066,8.667-4.652,8.667H26.372z"/>
		</g>
		<polygon fill="#FFFFFF" points="40.306,123.657 99.905,34.56 158.973,123.657 		"/>
	</g>
	<path d="M84.938,102.521c0,0-0.624-1.442-2.188-1.879c-1.554-0.441-2.853-0.229-4.133-2.67l-1.167-1.904
		c0,0-0.239-0.681-1.412-0.924c-1.167-0.244-2.721-0.681-3.355-0.63c-0.854,0.066-1.533-0.162-2.671,1.163
		c-0.878,1.03-15.226,25.929-15.226,25.929H89.27c0,0,0.878-0.097,0.64-0.879c-0.254-0.776-4.417-15.581-4.417-15.581l4.782-3.001
		c0,0,0.401,0.625,1.792-0.021c1.392-0.649,1.899-0.97,1.899-0.97s0.797-0.076,0.695-1.767c0.543-0.34,5.671-3.559,5.671-3.559
		s-1.803,4.473-1.965,6.447c-0.168,1.98-0.848,15.277-0.848,15.277s0.071,1.005-0.609,1.198c-0.681,0.192-3.762,1.041-3.762,1.041
		s-0.879,0.157-0.879,0.843c0,0.68,0.325,0.938,0.711,0.938c0.391,0,10.088,0,10.088,0s1.006,0.127,1.168-1.173
		c0.162-1.289,1.975-14.556,1.975-14.556s-0.776-0.192-0.776-1.005s0-1.422,0.264-1.752c0.254-0.325,3.168-3.696,5.184-8.397
		c0.29-0.681,0.519-0.061,0.584,0.097c0.071,0.162,3.858,10.504,4.315,10.9c0.452,0.386,10.698,8.687,10.926,8.85
		c0.229,0.162,0.874,0.614,0.874,2.076c0,1.457-0.579,2.625-0.97,3.082c-0.392,0.451-1.041,1.102-1.041,1.396
		c0,0.289,0.295,0.481,0.522,0.481c0.229,0,1.554,0,1.687,0c0.132,0,1.878,0.127,3.117-2.016c1.224-2.137,3.498-5.965,3.498-5.965
		s0.482-0.741-0.229-1.193c-0.711-0.457-1.849-0.716-2.528-1.432c-0.681-0.711-7.235-8.266-7.332-8.397
		c-0.096-0.132-0.934-1.036-2.005-0.549c-0.325-0.426-0.716-1.005-0.716-1.005s-1.843-11.302-3.823-16.084
		c0.452-0.295,1.036-0.752,1.036-0.752s1.589,1.361,2.914-0.061c1.33-1.432,1.238-1.396,1.01-2.041
		c-0.223-0.65-0.324-0.848-0.781-1.102c-0.452-0.265-1.203-1.011-1.203-2.306c0-1.3-0.544-4.833-1.163-6.326
		c-0.619-1.492-0.812-3.143-3.147-4.178c-3.646-1.62-8.556-2.595-12.16-1.66c-0.97,0.254-4.147,2.6-4.442,2.757
		c-0.294,0.167-1.538,0.68-1.422-0.417c0.244-2.447-1.878-6.777-5.676-6.777c-4.62,0-5.32,4.463-5.32,4.96
		c0,2.356,1.686,5.28,6.392,5.707c0,0,0.939,0.162,0.939,0.746s0,0.391-0.29,0.711c-0.294,0.325-2.741,2.6-2.792,3.178
		c-0.264,2.854,0.376,6.529,0.939,8.626c0,0,0.711,1.787,0.162,3.052c-0.553,1.265-2.949,7.296-3.143,7.656
		c-0.573,1.046-0.802,1.909-0.432,3.153C88.944,100.008,84.938,102.521,84.938,102.521z"/>
	<path fill="#FFFFFF" d="M116.686,82.629l0.979-0.619l-2.568-9.108c0,0-0.355-0.711-0.939-0.782
		c-0.579-0.061-3.301-0.061-3.301-0.061s-0.979,0.046-0.365,0.909C111.466,74.328,116.178,81.507,116.686,82.629z"/>
	<path fill="#FFFFFF" d="M101.673,92.021l1.396-2.939c0,0,0.208-0.792,0.036-1.035c-1.655-2.301-3.585-3.966-4.59-4.55
		c-0.279-0.157-0.731-0.152-0.635,0.396c0.624,3.533-0.386,7.945-3.117,11.642c-0.478,0.65-0.193,0.929,0.294,0.63
		C95.544,95.875,101.673,92.021,101.673,92.021z"/>
	<polygon fill="none" stroke="#1C181B" stroke-width="0.9688" stroke-linecap="round" stroke-linejoin="round" points="
		98.524,11.697 101.17,11.697 181.784,134.283 181.733,136.654 18.124,136.654 18.172,134.283 	"/>
</g>
</svg>
