<?xml version="1.0" encoding="utf-8"?>
<!-- Generator: Adobe Illustrator 16.0.0, SVG Export Plug-In . SVG Version: 6.00 Build 0)  -->
<!DOCTYPE svg PUBLIC "-//W3C//DTD SVG 1.1//EN" "http://www.w3.org/Graphics/SVG/1.1/DTD/svg11.dtd">
<svg version="1.1" xmlns="http://www.w3.org/2000/svg" xmlns:xlink="http://www.w3.org/1999/xlink" x="0px" y="0px" width="200px"
	 height="200px" viewBox="0 0 200 200" enable-background="new 0 0 200 200" xml:space="preserve">
<g id="Layer_1">
	<g id="Layer_1_1_">
		<g>
			<polyline fill="#FFFFFF" points="24.548,128.701 43.227,126.705 44.321,130.852 23.723,132.928 			"/>
			<polyline fill="#FFFFFF" points="24.585,128.779 32.468,91.978 28.105,77.229 10,164.969 12.812,166.123 13.055,166.123 
				15.186,165.393 15.431,165.393 15.831,163.508 15.747,163.609 17.318,162.816 23.723,132.928 			"/>
			<polyline fill="#FFFFFF" points="174.309,123.482 190,166.545 185.467,167.549 183.566,167.377 183.098,166.072 183.119,166.123 
				180.828,165.932 165.598,124.33 			"/>
			<polyline fill="#FFFFFF" points="131.152,127.662 128.459,146.855 129.973,147.291 132.75,146.422 134.93,147.455 
				136.596,146.92 139.59,126.904 139.064,126.719 131.688,127.395 			"/>
			<polyline fill="#FFFFFF" points="29.726,70.733 27.354,74.612 61.722,186.457 65.928,187.539 71.066,186.971 55.597,136.775 
				50.118,136.322 29.843,70.616 			"/>
			<polyline fill="#FFFFFF" points="139.557,126.719 174.729,123.443 179.234,119.887 140.674,12.459 17.053,15.423 13.873,18.864 
				50.118,136.322 50.21,136.676 55.449,136.197 131.195,127.395 131.688,127.395 139.064,126.719 			"/>
			
				<line fill="none" stroke="#1C181B" stroke-width="0.75" stroke-linecap="round" stroke-linejoin="round" x1="139.242" y1="14.233" x2="136.432" y2="16.948"/>
			
				<line fill="none" stroke="#1C181B" stroke-width="0.75" stroke-linecap="round" x1="50.21" y1="136.676" x2="55.449" y2="136.197"/>
			
				<line fill="none" stroke="#1C181B" stroke-width="0.75" stroke-linecap="round" x1="55.449" y1="136.197" x2="131.195" y2="127.395"/>
			
				<line fill="none" stroke="#1C181B" stroke-width="0.75" stroke-linecap="round" x1="131.688" y1="127.395" x2="139.064" y2="126.719"/>
			<polyline fill="none" stroke="#1C181B" stroke-width="0.75" stroke-linecap="round" stroke-linejoin="round" points="
				139.557,126.719 174.729,123.443 179.234,119.887 140.674,12.459 17.053,15.423 13.873,18.864 29.843,70.616 			"/>
			<path fill="none" stroke="#1C181B" stroke-width="0.75" stroke-linecap="round" d="M17.053,15.423l36.822,117.202L179.02,119.83
				 M50.193,136.498l3.579-3.527 M29.843,70.616l20.274,65.706"/>
			<polyline fill="none" stroke="#1C181B" stroke-width="0.75" stroke-linecap="round" stroke-linejoin="round" points="
				19.347,15.437 55.654,130.744 176.709,118.373 139.242,14.233 20.051,17.497 			"/>
			<polyline fill="none" stroke="#1C181B" stroke-width="0.75" stroke-linecap="round" points="29.726,70.733 27.354,74.612 
				43.351,126.672 			"/>
			
				<line fill="none" stroke="#1C181B" stroke-width="0.75" stroke-linecap="round" x1="43.351" y1="126.672" x2="44.592" y2="130.715"/>
			<path fill="none" stroke="#1C181B" stroke-width="0.75" stroke-linecap="round" d="M55.597,136.775l15.469,50.195l-5.138,0.568
				 M44.592,130.715l17.13,55.742l4.207,1.084"/>
			
				<line fill="none" stroke="#1C181B" stroke-width="0.75" stroke-linecap="round" x1="65.928" y1="187.539" x2="50.21" y2="136.676"/>
			<polyline fill="none" stroke="#1C181B" stroke-width="0.75" stroke-linecap="round" stroke-linejoin="round" points="
				173.002,118.779 136.432,16.948 20.81,19.828 			"/>
			
				<line fill="none" stroke="#1C181B" stroke-width="0.75" stroke-linecap="round" x1="33.068" y1="81.916" x2="30.453" y2="86.04"/>
			<line fill="none" stroke="#1C181B" stroke-width="0.75" stroke-linecap="round" x1="28.105" y1="77.229" x2="10" y2="164.969"/>
			
				<line fill="none" stroke="#1C181B" stroke-width="0.75" stroke-linecap="round" stroke-linejoin="round" x1="31.486" y1="87.436" x2="15.339" y2="163.508"/>
			<path fill="none" stroke="#1C181B" stroke-width="0.75" stroke-linecap="round" stroke-linejoin="round" d="M15.186,165.393
				l-2.131,0.73 M15.831,163.508l-0.4,1.885"/>
			<line fill="none" stroke="#1C181B" stroke-width="0.75" stroke-linecap="round" x1="12.812" y1="166.123" x2="10" y2="164.969"/>
			
				<line fill="none" stroke="#1C181B" stroke-width="0.75" stroke-linecap="round" x1="30.618" y1="84.654" x2="13.384" y2="166.006"/>
			<path fill="none" stroke="#1C181B" stroke-width="0.75" stroke-linecap="round" stroke-linejoin="round" d="M165.598,124.33
				l15.23,41.602 M23.723,132.928l-6.404,29.889l-1.571,0.795 M32.468,91.978l-7.883,36.801"/>
			<path fill="none" stroke="#1C181B" stroke-width="0.75" stroke-linecap="round" d="M135.572,127.125l-2.82,19.297
				 M132.867,127.447l-2.895,19.842"/>
			<polyline fill="none" stroke="#1C181B" stroke-width="0.75" stroke-linecap="round" stroke-linejoin="round" points="
				139.59,126.904 136.596,146.92 134.93,147.455 			"/>
			
				<line fill="none" stroke="#1C181B" stroke-width="0.75" stroke-linecap="round" x1="180.828" y1="165.932" x2="183.119" y2="166.123"/>
			
				<line fill="none" stroke="#1C181B" stroke-width="0.75" stroke-linecap="round" stroke-linejoin="round" x1="137.963" y1="126.904" x2="134.93" y2="147.455"/>
			<polyline fill="none" stroke="#1C181B" stroke-width="0.75" stroke-linecap="round" stroke-linejoin="round" points="
				134.93,147.455 132.75,146.422 129.973,147.291 128.459,146.855 131.152,127.662 			"/>
			
				<line fill="none" stroke="#1C181B" stroke-width="0.75" stroke-linecap="round" stroke-linejoin="round" x1="169.527" y1="123.994" x2="185.219" y2="167.549"/>
			<polyline fill="none" stroke="#1C181B" stroke-width="0.75" stroke-linecap="round" stroke-linejoin="round" points="
				185.467,167.549 190,166.545 174.309,123.482 			"/>
			
				<line fill="none" stroke="#1C181B" stroke-width="0.75" stroke-linecap="round" stroke-linejoin="round" x1="168.119" y1="124.314" x2="183.098" y2="166.072"/>
			<polyline fill="none" stroke="#1C181B" stroke-width="0.75" stroke-linecap="round" stroke-linejoin="round" points="
				183.098,166.072 183.566,167.377 185.467,167.549 			"/>
			
				<line fill="none" stroke="#1C181B" stroke-width="0.75" stroke-linecap="round" x1="22.13" y1="133.09" x2="23.723" y2="132.928"/>
			
				<line fill="none" stroke="#1C181B" stroke-width="0.75" stroke-linecap="round" x1="23.723" y1="132.928" x2="44.321" y2="130.852"/>
			
				<line fill="none" stroke="#1C181B" stroke-width="0.75" stroke-linecap="round" x1="22.75" y1="129.1" x2="24.301" y2="128.947"/>
			
				<line fill="none" stroke="#1C181B" stroke-width="0.75" stroke-linecap="round" x1="24.548" y1="128.701" x2="43.227" y2="126.705"/>
			<path fill="none" stroke="#1C181B" stroke-width="0.75" stroke-linecap="round" d="M22.294,131.598l21.864-2.232 M22.499,130.576
				l21.315-2.16"/>
			
				<line fill="none" stroke="#1C181B" stroke-width="0.75" stroke-linecap="round" x1="50.21" y1="136.676" x2="55.449" y2="136.197"/>
			<path fill="none" stroke="#1C181B" stroke-width="0.75" stroke-linecap="round" d="M43.227,126.705l-18.68,1.996 M44.321,130.852
				l-20.599,2.076"/>
		</g>
	</g>
</g>
<g id="Layer_2">
	<g>
		<g>
			<g>
				<path fill-rule="evenodd" clip-rule="evenodd" fill="#FFFFFF" d="M69.14,110.848c23.274,15.111,60.854,17.565,78.653-7.293
					c17.768-24.814-2.582-55.258-24.285-69.293c-22.112-14.299-60.141-22.049-77.903,3.013
					C27.835,62.347,46.442,96.155,69.14,110.848z"/>
				<path fill="none" stroke="#007AC1" stroke-width="0.5003" stroke-miterlimit="10" d="M69.14,110.848
					c23.274,15.111,60.854,17.565,78.653-7.293c17.768-24.814-2.582-55.258-24.285-69.293
					c-22.112-14.299-60.141-22.049-77.903,3.013C27.835,62.347,46.442,96.155,69.14,110.848z"/>
				<path fill-rule="evenodd" clip-rule="evenodd" fill="#007AC1" d="M69.959,109.546c22.514,14.631,58.877,17.047,76.101-6.99
					c17.188-23.987-2.468-53.515-23.479-67.09c-21.418-13.837-58.212-21.261-75.397,2.985
					C30.016,62.672,48.042,95.353,69.959,109.546"/>
				<path fill-rule="evenodd" clip-rule="evenodd" fill="#FFFFFF" d="M115.545,86.506c-8.369,0.652-12.554,0.98-20.923,1.633
					c10.14-14.379,20.391-28.669,30.786-42.865c-5.456-3.505-8.182-5.272-13.627-8.838C101.396,50.63,91.156,64.918,81.028,79.296
					c-2.533-7.725-3.799-11.587-6.333-19.312c-4.363,6.14-6.55,9.244-10.937,15.521c3.141,9.78,6.273,19.563,9.414,29.343
					c10.49-0.941,20.98-1.883,31.471-2.827C109.017,95.747,111.196,92.645,115.545,86.506"/>
			</g>
			<path fill="none" d="M172.801,118.35c-39.021,4.124-78.043,8.245-117.064,12.369C44.174,93.78,32.615,56.84,21.05,19.902
				c38.469-0.979,76.938-1.957,115.407-2.933C148.573,50.762,160.685,84.557,172.801,118.35z"/>
		</g>
	</g>
</g>
</svg>
