<?xml version="1.0" encoding="utf-8"?>
<!-- Generator: Adobe Illustrator 16.0.0, SVG Export Plug-In . SVG Version: 6.00 Build 0)  -->
<!DOCTYPE svg PUBLIC "-//W3C//DTD SVG 1.1//EN" "http://www.w3.org/Graphics/SVG/1.1/DTD/svg11.dtd">
<svg version="1.1" id="Layer_1" xmlns="http://www.w3.org/2000/svg" xmlns:xlink="http://www.w3.org/1999/xlink" x="0px" y="0px"
	 width="200px" height="200px" viewBox="0 0 200 200" enable-background="new 0 0 200 200" xml:space="preserve">
<rect x="5.002" y="5.005" fill="#FFFFFF" width="189.998" height="189.988"/>
<path fill="none" stroke="#1C181B" d="M195,194.995 M5,194.995h190V5.005H5V194.995z"/>
<path fill="#4D2480" d="M190.249,187.09c0,1.739-1.425,3.16-3.17,3.16H12.922c-1.747,0-3.168-1.421-3.168-3.16V12.926
	c0-1.747,1.421-3.169,3.168-3.169h174.157c1.745,0,3.17,1.422,3.17,3.169"/>
<path fill="#FFFFFF" d="M180.752,176.003c0,2.61-2.142,4.752-4.754,4.752H24.005c-2.613,0-4.748-2.142-4.748-4.752V90.509
	c0-2.613,2.135-4.751,4.748-4.751h151.993c2.612,0,4.754,2.138,4.754,4.751"/>
<path fill="#FFFFFF" d="M38.782,23.192h23.141c9.367,0,15.7,3.03,15.7,12.188c0,4.822-2.408,8.195-6.679,10.263
	c5.991,1.72,9.02,6.335,9.02,12.464c0,9.985-8.468,14.255-17.351,14.255H38.782 M49.594,43.094h10.95
	c3.79,0,6.614-1.721,6.614-5.853c0-4.684-3.582-5.646-7.439-5.646H49.594V43.094z M49.594,63.96h11.57c4.27,0,7.99-1.377,7.99-6.473
	c0-5.026-3.167-7.024-7.782-7.024H49.594V63.96z"/>
<path fill="#FFFFFF" d="M100.695,23.192h11.089l18.389,49.17h-11.227l-3.719-10.95H96.84l-3.855,10.95h-10.95 M99.662,53.355h12.743
	l-6.201-18.043h-0.137L99.662,53.355z"/>
<polyline fill="#FFFFFF" points="137.539,53.217 119.426,23.192 131.617,23.192 143.117,42.613 154.551,23.192 166.604,23.192 
	148.353,53.493 148.353,72.362 137.539,72.362 "/>
<path d="M122.788,173.885v-55.809h-12.414v-13.433c10.561-0.114,15.008-2.775,17.229-12.735h12.414v81.977"/>
<path d="M73.865,112.979c-0.094-2.78-0.463-4.745-1.3-6.021c-0.739-1.157-1.85-1.62-3.425-1.62c-2.5,0-4.723,2.547-4.723,7.756
	v13.085h0.186c1.481-3.937,6.019-6.484,11.02-6.484c9.358,0,15.657,5.674,15.657,24.896c0,22.228-7.875,30.914-21.954,30.914
	c-15.006,0-22.696-8.106-22.696-34.853v-9.146c0-25.241,3.06-39.6,22.604-39.6c16.951,0,20.655,10.19,20.745,21.073 M69.234,162.073
	c3.241,0,4.814-2.895,4.814-13.433c0-10.536-1.204-13.43-4.814-13.43c-3.243,0-4.816,2.894-4.816,13.43
	C64.418,159.179,65.62,162.073,69.234,162.073"/>
</svg>
