<?xml version="1.0" encoding="utf-8"?>
<!-- Generator: Adobe Illustrator 16.0.0, SVG Export Plug-In . SVG Version: 6.00 Build 0)  -->
<!DOCTYPE svg PUBLIC "-//W3C//DTD SVG 1.1//EN" "http://www.w3.org/Graphics/SVG/1.1/DTD/svg11.dtd">
<svg version="1.1" id="Layer_1" xmlns="http://www.w3.org/2000/svg" xmlns:xlink="http://www.w3.org/1999/xlink" x="0px" y="0px"
	 width="200px" height="200px" viewBox="0 0 200 200" enable-background="new 0 0 200 200" xml:space="preserve">
<g>
	<path fill="#FFFFFF" stroke="#1C181B" d="M163.324,195 M36.676,195h126.648V5H36.676V195z"/>
	<rect x="43.502" y="82.269" fill="#FDEB03" width="112.631" height="105.503"/>
	<path fill="#1C181B" d="M71.767,93.574c-0.211-1.498-1.646-2.638-3.292-2.638c-2.977,0-4.092,2.533-4.092,5.171
		c0,2.514,1.115,5.042,4.092,5.042c2.026,0,3.161-1.39,3.418-3.377H75.1c-0.337,3.757-2.934,6.162-6.625,6.162
		c-4.664,0-7.408-3.481-7.408-7.827c0-4.476,2.744-7.954,7.408-7.954c3.312,0,6.097,1.939,6.499,5.421"/>
	<path fill="#1C181B" d="M76.91,96.024c0.17-2.81,2.681-3.653,5.129-3.653c2.172,0,4.79,0.485,4.79,3.104v5.675
		c0,0.993,0.106,1.982,0.378,2.429h-3.034c-0.107-0.34-0.191-0.698-0.214-1.058c-0.95,0.992-2.342,1.351-3.67,1.351
		c-2.07,0-3.714-1.035-3.714-3.27c0-2.471,1.857-3.06,3.714-3.312c1.835-0.276,3.544-0.211,3.544-1.438
		c0-1.285-0.885-1.474-1.941-1.474c-1.14,0-1.879,0.463-1.98,1.646 M83.833,98.237c-0.509,0.444-1.561,0.466-2.487,0.633
		c-0.931,0.189-1.774,0.507-1.774,1.604c0,1.118,0.866,1.392,1.836,1.392c2.341,0,2.426-1.856,2.426-2.509V98.237z"/>
	<path fill="#1C181B" d="M99.384,103.578h-2.849v-1.522h-0.063c-0.761,1.227-2.067,1.815-3.335,1.815
		c-3.186,0-3.985-1.794-3.985-4.494v-6.71h2.996v6.165c0,1.788,0.526,2.678,1.92,2.678c1.622,0,2.32-0.908,2.32-3.124v-5.719h2.996"
		/>
	<path fill="#1C181B" d="M105.461,92.667h2.193v2.008h-2.193v5.4c0,1.013,0.252,1.263,1.265,1.263c0.315,0,0.611-0.017,0.929-0.082
		v2.342c-0.507,0.087-1.161,0.104-1.753,0.104c-1.835,0-3.437-0.419-3.437-2.591v-6.436h-1.816v-2.008h1.816v-3.268h2.996"/>
	<path fill="#1C181B" d="M112.17,90.98h-2.996V88.51h2.996V90.98z M109.174,92.667h2.996v10.911h-2.996V92.667z"/>
	<path fill="#1C181B" d="M119.825,92.371c3.442,0,5.658,2.279,5.658,5.76c0,3.462-2.216,5.74-5.658,5.74
		c-3.418,0-5.631-2.278-5.631-5.74C114.194,94.65,116.407,92.371,119.825,92.371 M119.825,101.617c2.051,0,2.662-1.753,2.662-3.486
		c0-1.75-0.611-3.503-2.662-3.503c-2.023,0-2.635,1.753-2.635,3.503C117.19,99.864,117.802,101.617,119.825,101.617"/>
	<path fill="#1C181B" d="M127.422,92.667h2.851v1.521h0.062c0.758-1.225,2.067-1.816,3.333-1.816c3.189,0,3.989,1.797,3.989,4.497
		v6.71h-2.996v-6.165c0-1.788-0.528-2.678-1.92-2.678c-1.626,0-2.322,0.906-2.322,3.122v5.721h-2.996"/>
	<polyline fill="#1C181B" points="57.627,113.332 68.223,113.332 68.223,116.117 60.94,116.117 60.94,119.601 67.253,119.601 
		67.253,122.173 60.94,122.173 60.94,128.399 57.627,128.399 	"/>
	<path fill="#1C181B" d="M75.121,117.193c3.438,0,5.653,2.279,5.653,5.76c0,3.462-2.216,5.74-5.653,5.74
		c-3.418,0-5.636-2.278-5.636-5.74C69.485,119.473,71.703,117.193,75.121,117.193 M75.121,126.438c2.046,0,2.657-1.752,2.657-3.485
		c0-1.75-0.611-3.503-2.657-3.503c-2.026,0-2.64,1.753-2.64,3.503C72.481,124.687,73.095,126.438,75.121,126.438"/>
	<path fill="#1C181B" d="M82.716,117.489h2.848v2.029h0.039c0.553-1.375,2.026-2.325,3.486-2.325c0.208,0,0.463,0.046,0.649,0.106
		v2.786c-0.271-0.063-0.715-0.107-1.071-0.107c-2.196,0-2.955,1.586-2.955,3.503v4.918h-2.996"/>
	<polyline fill="#1C181B" points="91.197,113.332 94.193,113.332 94.193,121.414 97.97,117.489 101.515,117.489 97.4,121.499 
		101.979,128.399 98.349,128.399 95.353,123.525 94.193,124.643 94.193,128.399 91.197,128.399 	"/>
	<line fill="none" stroke="#1C181B" stroke-width="6.352" x1="106.188" y1="123.925" x2="106.188" y2="121.354"/>
	<polyline fill="#1C181B" points="111.938,113.332 115.249,113.332 115.249,125.614 122.594,125.614 122.594,128.399 
		111.938,128.399 	"/>
	<path fill="#1C181B" d="M127.211,115.802h-2.996v-2.47h2.996V115.802z M124.215,117.489h2.996v10.91h-2.996V117.489z"/>
	<path fill="#1C181B" d="M130.229,119.496h-1.794v-2.007h1.794v-0.844c0-1.92,1.202-3.313,3.65-3.313
		c0.528,0,1.076,0.065,1.583,0.087v2.235c-0.361-0.044-0.718-0.061-1.099-0.061c-0.8,0-1.139,0.335-1.139,1.243v0.652h2.067v2.007
		h-2.067v8.903h-2.996"/>
	<path fill="#1C181B" d="M140.4,117.489h2.191v2.007H140.4v5.401c0,1.013,0.252,1.263,1.263,1.263c0.318,0,0.613-0.017,0.929-0.082
		v2.341c-0.507,0.088-1.158,0.104-1.75,0.104c-1.835,0-3.438-0.419-3.438-2.591v-6.437h-1.815v-2.007h1.815v-3.268h2.996"/>
	<polyline fill="#1C181B" points="69.74,140.939 65.227,140.939 65.227,138.154 77.567,138.154 77.567,140.939 73.051,140.939 
		73.051,153.222 69.74,153.222 	"/>
	<path fill="#1C181B" d="M78.98,142.312h2.848v2.028h0.042c0.55-1.374,2.026-2.324,3.48-2.324c0.213,0,0.466,0.046,0.654,0.106
		v2.785c-0.271-0.062-0.717-0.106-1.076-0.106c-2.191,0-2.952,1.585-2.952,3.503v4.918H78.98"/>
	<path fill="#1C181B" d="M97.422,153.222h-2.851v-1.522h-0.062c-0.757,1.227-2.067,1.816-3.331,1.816
		c-3.188,0-3.989-1.794-3.989-4.494v-6.71h2.996v6.164c0,1.789,0.528,2.679,1.919,2.679c1.625,0,2.322-0.909,2.322-3.125v-5.718
		h2.996"/>
	<path fill="#1C181B" d="M107.126,146.151c-0.189-1.225-0.972-1.879-2.213-1.879c-1.923,0-2.556,1.941-2.556,3.546
		c0,1.562,0.611,3.442,2.49,3.442c1.391,0,2.193-0.89,2.385-2.218h2.89c-0.378,2.89-2.383,4.473-5.253,4.473
		c-3.292,0-5.508-2.322-5.508-5.593c0-3.394,2.027-5.907,5.571-5.907c2.574,0,4.935,1.351,5.126,4.136"/>
	<polyline fill="#1C181B" points="112.086,138.154 115.079,138.154 115.079,146.236 118.855,142.312 122.399,142.312 
		118.288,146.32 122.865,153.222 119.236,153.222 116.24,148.348 115.079,149.465 115.079,153.222 112.086,153.222 	"/>
	<path fill="#1C181B" d="M126.239,149.676c0.024,1.307,1.12,1.835,2.303,1.835c0.863,0,1.961-0.337,1.961-1.392
		c0-0.909-1.243-1.222-3.396-1.689c-1.731-0.378-3.462-0.989-3.462-2.911c0-2.785,2.407-3.503,4.746-3.503
		c2.386,0,4.577,0.803,4.812,3.48h-2.848c-0.083-1.156-0.97-1.474-2.046-1.474c-0.677,0-1.668,0.124-1.668,1.011
		c0,1.076,1.689,1.225,3.398,1.624c1.75,0.4,3.459,1.035,3.459,3.062c0,2.87-2.489,3.797-4.981,3.797c-2.53,0-4.998-0.95-5.124-3.84
		"/>
	<path fill="#1C181B" d="M57.724,166.838c3.44,0,5.655,2.278,5.655,5.759c0,3.462-2.215,5.74-5.655,5.74
		c-3.418,0-5.636-2.278-5.636-5.74C52.088,169.116,54.306,166.838,57.724,166.838 M57.724,176.083c2.046,0,2.659-1.753,2.659-3.486
		c0-1.75-0.613-3.502-2.659-3.502c-2.023,0-2.635,1.752-2.635,3.502C55.089,174.33,55.7,176.083,57.724,176.083"/>
	<path fill="#1C181B" d="M65.318,167.134h2.851v1.394h0.039c0.718-1.161,1.9-1.689,3.251-1.689c3.417,0,4.959,2.763,4.959,5.866
		c0,2.911-1.603,5.633-4.787,5.633c-1.312,0-2.555-0.569-3.272-1.644h-0.044v5.19h-2.996 M73.422,172.619
		c0-1.73-0.698-3.524-2.615-3.524c-1.964,0-2.599,1.752-2.599,3.524c0,1.771,0.676,3.464,2.618,3.464
		C72.789,176.083,73.422,174.391,73.422,172.619"/>
	<path fill="#1C181B" d="M80.68,173.314c0.085,1.9,1.013,2.769,2.679,2.769c1.202,0,2.174-0.742,2.363-1.418h2.64
		c-0.846,2.574-2.64,3.672-5.107,3.672c-3.439,0-5.57-2.36-5.57-5.74c0-3.27,2.257-5.759,5.57-5.759
		c3.714,0,5.505,3.122,5.294,6.477 M85.552,171.419c-0.273-1.522-0.929-2.324-2.383-2.324c-1.897,0-2.448,1.479-2.489,2.324H85.552z
		"/>
	<path fill="#1C181B" d="M90.32,167.134h2.851v2.028h0.043c0.548-1.374,2.024-2.324,3.479-2.324c0.211,0,0.463,0.046,0.657,0.106
		v2.785c-0.276-0.063-0.718-0.106-1.079-0.106c-2.193,0-2.954,1.585-2.954,3.503v4.918H90.32"/>
	<path fill="#1C181B" d="M98.401,170.49c0.17-2.809,2.682-3.652,5.127-3.652c2.175,0,4.793,0.484,4.793,3.103v5.675
		c0,0.994,0.102,1.982,0.378,2.429h-3.04c-0.106-0.34-0.188-0.698-0.208-1.057c-0.95,0.991-2.345,1.35-3.673,1.35
		c-2.067,0-3.716-1.035-3.716-3.27c0-2.471,1.859-3.06,3.716-3.312c1.835-0.276,3.547-0.211,3.547-1.438
		c0-1.284-0.89-1.474-1.944-1.474c-1.14,0-1.876,0.463-1.983,1.646 M105.325,172.704c-0.51,0.443-1.566,0.465-2.492,0.633
		c-0.926,0.188-1.772,0.506-1.772,1.604c0,1.117,0.866,1.392,1.835,1.392c2.342,0,2.43-1.857,2.43-2.51V172.704z"/>
	<path fill="#1C181B" d="M114.439,167.134h2.191v2.007h-2.191v5.4c0,1.014,0.252,1.263,1.26,1.263c0.32,0,0.616-0.017,0.932-0.082
		v2.342c-0.507,0.087-1.159,0.104-1.751,0.104c-1.835,0-3.437-0.42-3.437-2.592v-6.436h-1.815v-2.007h1.815v-3.268h2.996"/>
	<path fill="#1C181B" d="M121.145,165.446h-2.996v-2.47h2.996V165.446z M118.148,167.134h2.996v10.91h-2.996V167.134z"/>
	<path fill="#1C181B" d="M123.508,167.134h2.851v1.52h0.061c0.761-1.225,2.07-1.815,3.335-1.815c3.186,0,3.988,1.796,3.988,4.496
		v6.71h-2.996v-6.164c0-1.789-0.526-2.679-1.918-2.679c-1.626,0-2.322,0.906-2.322,3.122v5.721h-2.998"/>
	<path fill="#1C181B" d="M146.504,177.346c0,1.794-0.63,4.834-5.652,4.834c-2.152,0-4.661-1.014-4.81-3.503h2.975
		c0.273,1.117,1.181,1.495,2.237,1.495c1.665,0,2.424-1.139,2.404-2.7v-1.435h-0.043c-0.655,1.139-1.959,1.689-3.271,1.689
		c-3.27,0-4.661-2.492-4.661-5.488c0-2.826,1.624-5.4,4.683-5.4c1.436,0,2.531,0.484,3.249,1.752h0.043v-1.456h2.846
		 M143.658,172.452c0-1.774-0.613-3.357-2.555-3.357c-1.688,0-2.424,1.479-2.424,3.103c0,1.561,0.591,3.272,2.424,3.272
		C142.814,175.47,143.658,174.016,143.658,172.452"/>
	<g>
		<polygon fill-rule="evenodd" clip-rule="evenodd" fill="#FDEB03" points="130.465,72.312 98.792,17.457 67.119,72.312 
			130.465,72.312 		"/>
		<path fill-rule="evenodd" clip-rule="evenodd" d="M130.465,72.312L98.792,17.457L67.119,72.312H130.465L130.465,72.312z
			 M134.6,76.862c1.212,0,2.177-0.965,2.177-2.149c0-0.441-0.138-0.856-0.358-1.215l-35.835-62.021
			c-0.385-0.608-1.076-0.965-1.791-0.965c-0.718,0-1.406,0.356-1.82,0.965L61.164,73.498c-0.221,0.358-0.359,0.773-0.359,1.215
			c0,1.185,0.965,2.149,2.18,2.149H134.6L134.6,76.862z"/>
		<polygon fill-rule="evenodd" clip-rule="evenodd" points="99.696,52.838 98.283,57.507 96.586,56.99 98.002,52.322 99.696,52.838 
					"/>
		<polygon fill-rule="evenodd" clip-rule="evenodd" points="102.3,46.914 102.3,52.043 102.312,52.213 102.344,52.383 
			102.395,52.547 102.465,52.707 102.554,52.851 102.658,52.988 102.784,53.107 102.915,53.219 103.063,53.306 103.224,53.379 
			103.388,53.427 103.558,53.459 103.729,53.471 103.899,53.459 104.069,53.427 104.234,53.379 104.394,53.306 104.542,53.219 
			104.675,53.107 104.797,52.988 104.905,52.851 104.993,52.707 105.065,52.547 105.114,52.383 105.147,52.213 105.157,52.043 
			105.157,46.914 105.147,46.744 105.114,46.572 105.065,46.407 104.993,46.25 104.905,46.1 104.797,45.969 104.675,45.843 
			104.542,45.738 104.394,45.651 104.234,45.578 104.069,45.529 103.899,45.496 103.729,45.486 103.558,45.496 103.388,45.529 
			103.224,45.578 103.063,45.651 102.915,45.738 102.784,45.843 102.658,45.969 102.554,46.1 102.465,46.25 102.395,46.407 
			102.344,46.572 102.312,46.744 102.3,46.914 		"/>
		<polygon fill-rule="evenodd" clip-rule="evenodd" points="97.922,48.126 101.602,49.292 101.129,50.775 97.454,49.609 
			97.922,48.126 		"/>
		<polygon fill-rule="evenodd" clip-rule="evenodd" points="102.46,46.255 103.839,46.975 102.053,50.395 100.681,49.677 
			102.46,46.255 		"/>
		<polygon fill-rule="evenodd" clip-rule="evenodd" points="103.729,53.471 98.85,53.471 98.85,51.696 103.729,51.696 
			103.729,53.471 		"/>
		<polygon fill-rule="evenodd" clip-rule="evenodd" points="98.321,57.25 98.31,57.111 98.278,56.976 98.223,56.848 98.152,56.729 
			98.058,56.624 97.953,56.535 97.832,56.46 97.706,56.409 97.567,56.377 97.432,56.365 97.294,56.377 97.155,56.409 97.029,56.46 
			96.908,56.535 96.804,56.624 96.712,56.729 96.64,56.848 96.591,56.976 96.557,57.111 96.547,57.25 96.557,57.393 96.591,57.523 
			96.64,57.654 96.712,57.771 96.804,57.88 96.908,57.97 97.029,58.04 97.155,58.096 97.294,58.127 97.432,58.14 97.567,58.127 
			97.706,58.096 97.832,58.04 97.953,57.97 98.058,57.88 98.152,57.771 98.223,57.654 98.278,57.523 98.31,57.393 98.321,57.25 		
			"/>
		<polygon fill-rule="evenodd" clip-rule="evenodd" points="99.734,52.581 99.723,52.443 99.696,52.308 99.641,52.179 99.567,52.06 
			99.476,51.956 99.371,51.866 99.25,51.791 99.124,51.74 98.985,51.709 98.85,51.696 98.712,51.709 98.573,51.74 98.447,51.791 
			98.326,51.866 98.223,51.956 98.13,52.06 98.058,52.179 98.009,52.308 97.975,52.443 97.965,52.581 97.975,52.725 98.009,52.855 
			98.058,52.988 98.13,53.103 98.223,53.207 98.326,53.301 98.447,53.371 98.573,53.427 98.712,53.459 98.85,53.471 98.985,53.459 
			99.124,53.427 99.25,53.371 99.371,53.301 99.476,53.207 99.567,53.103 99.641,52.988 99.696,52.855 99.723,52.725 99.734,52.581 
					"/>
		<polygon fill-rule="evenodd" clip-rule="evenodd" points="104.614,52.581 104.603,52.443 104.568,52.308 104.521,52.179 
			104.445,52.06 104.355,51.956 104.251,51.866 104.13,51.791 104.004,51.74 103.865,51.709 103.729,51.696 103.592,51.709 
			103.453,51.74 103.327,51.791 103.206,51.866 103.102,51.956 103.01,52.06 102.938,52.179 102.884,52.308 102.85,52.443 
			102.838,52.581 102.85,52.725 102.884,52.855 102.938,52.988 103.01,53.103 103.102,53.207 103.206,53.301 103.327,53.371 
			103.453,53.427 103.592,53.459 103.729,53.471 103.865,53.459 104.004,53.427 104.13,53.371 104.251,53.301 104.355,53.207 
			104.445,53.103 104.521,52.988 104.568,52.855 104.603,52.725 104.614,52.581 		"/>
		<polygon fill-rule="evenodd" clip-rule="evenodd" points="105.278,43.491 105.274,43.316 105.24,43.147 105.196,42.975 
			105.126,42.817 105.044,42.662 104.944,42.519 104.828,42.393 104.697,42.279 104.554,42.175 104.398,42.092 104.241,42.024 
			104.074,41.976 103.899,41.949 103.729,41.938 103.553,41.949 103.383,41.976 103.219,42.024 103.054,42.092 102.905,42.175 
			102.763,42.279 102.629,42.393 102.516,42.519 102.416,42.662 102.326,42.817 102.261,42.975 102.212,43.147 102.186,43.316 
			102.174,43.491 102.186,43.661 102.212,43.838 102.261,44.002 102.326,44.163 102.416,44.315 102.516,44.458 102.629,44.589 
			102.763,44.706 102.905,44.805 103.054,44.888 103.219,44.953 103.383,45.001 103.553,45.035 103.729,45.04 103.899,45.035 
			104.074,45.001 104.241,44.953 104.398,44.888 104.554,44.805 104.697,44.706 104.828,44.589 104.944,44.458 105.044,44.315 
			105.126,44.163 105.196,44.002 105.24,43.838 105.274,43.661 105.278,43.491 		"/>
		<polygon fill-rule="evenodd" clip-rule="evenodd" points="103.926,46.61 103.917,46.489 103.888,46.376 103.844,46.26 
			103.778,46.155 103.701,46.062 103.608,45.985 103.505,45.92 103.388,45.876 103.271,45.848 103.153,45.838 103.031,45.848 
			102.91,45.876 102.799,45.92 102.697,45.985 102.603,46.062 102.521,46.155 102.46,46.26 102.411,46.376 102.382,46.489 
			102.372,46.61 102.382,46.732 102.411,46.854 102.46,46.962 102.521,47.066 102.603,47.161 102.697,47.243 102.799,47.304 
			102.91,47.353 103.031,47.379 103.153,47.392 103.271,47.379 103.388,47.353 103.505,47.304 103.608,47.243 103.701,47.161 
			103.778,47.066 103.844,46.962 103.888,46.854 103.917,46.732 103.926,46.61 		"/>
		<polygon fill-rule="evenodd" clip-rule="evenodd" points="102.143,50.033 102.13,49.912 102.104,49.791 102.058,49.682 
			101.992,49.578 101.917,49.483 101.822,49.405 101.718,49.34 101.602,49.297 101.487,49.27 101.366,49.258 101.245,49.27 
			101.124,49.297 101.015,49.34 100.911,49.405 100.816,49.483 100.741,49.578 100.673,49.682 100.63,49.791 100.598,49.912 
			100.591,50.033 100.598,50.154 100.63,50.273 100.673,50.385 100.741,50.489 100.816,50.581 100.911,50.659 101.015,50.725 
			101.124,50.775 101.245,50.802 101.366,50.807 101.487,50.802 101.602,50.775 101.718,50.725 101.822,50.659 101.917,50.581 
			101.992,50.489 102.058,50.385 102.104,50.273 102.13,50.154 102.143,50.033 		"/>
		<polygon fill-rule="evenodd" clip-rule="evenodd" points="98.465,48.867 98.452,48.749 98.426,48.628 98.377,48.516 
			98.316,48.412 98.234,48.319 98.14,48.242 98.04,48.177 97.927,48.126 97.811,48.1 97.685,48.095 97.562,48.1 97.449,48.126 
			97.333,48.177 97.229,48.242 97.139,48.319 97.059,48.412 96.998,48.516 96.947,48.628 96.921,48.749 96.908,48.867 
			96.921,48.989 96.947,49.11 96.998,49.219 97.059,49.326 97.139,49.418 97.229,49.495 97.333,49.561 97.449,49.604 97.562,49.631 
			97.685,49.644 97.811,49.631 97.927,49.604 98.04,49.561 98.14,49.495 98.234,49.418 98.316,49.326 98.377,49.219 98.426,49.11 
			98.452,48.989 98.465,48.867 		"/>
		<path fill-rule="evenodd" clip-rule="evenodd" d="M108.515,64.91l-0.005-0.214l-0.033-0.221l-0.049-0.208l-0.065-0.209
			l-0.095-0.196l-0.104-0.193l-0.121-0.182l-0.143-0.163l-0.153-0.155l-0.164-0.143l-0.183-0.121l-0.187-0.104l-0.203-0.087
			l-0.204-0.07l-0.213-0.051l-0.216-0.027l-0.218-0.012l-0.216,0.012l-0.219,0.027l-0.211,0.051l-0.208,0.07l-0.196,0.087
			l-0.194,0.104l-0.175,0.121l-0.172,0.143l-0.152,0.155l-0.139,0.163l-0.126,0.182l-0.104,0.193l-0.088,0.196l-0.072,0.209
			l-0.049,0.208l-0.026,0.221L103.8,64.91l0.013,0.221l0.026,0.213l0.049,0.216l0.072,0.201l0.088,0.203l0.104,0.188l0.126,0.182
			l0.139,0.169l0.152,0.155l0.172,0.136l0.175,0.121l0.194,0.112l0.196,0.087l0.208,0.065l0.211,0.049l0.219,0.033l0.216,0.013
			l0.218-0.013l0.216-0.033l0.213-0.049l0.204-0.065l0.203-0.087l0.187-0.112l0.183-0.121l0.164-0.136l0.153-0.155l0.143-0.169
			l0.121-0.182l0.104-0.188l0.095-0.203l0.065-0.201l0.049-0.216l0.033-0.213L108.515,64.91L108.515,64.91z M92.267,65.516
			l-0.013-0.187l-0.026-0.182l-0.051-0.177l-0.065-0.17l-0.082-0.165l-0.098-0.152l-0.116-0.144l-0.133-0.133l-0.144-0.114
			l-0.152-0.1l-0.165-0.087l-0.17-0.068l-0.177-0.043l-0.187-0.031l-0.182-0.005l-0.18,0.005l-0.182,0.031l-0.182,0.043l-0.17,0.068
			l-0.165,0.087l-0.155,0.1l-0.143,0.114L89.2,64.34l-0.116,0.144l-0.1,0.152l-0.083,0.165l-0.065,0.17l-0.048,0.177l-0.026,0.182
			l-0.013,0.187l0.013,0.18l0.026,0.182l0.048,0.182l0.065,0.17l0.083,0.165l0.1,0.155l0.116,0.141l0.131,0.128l0.143,0.119
			l0.155,0.1l0.165,0.082l0.17,0.065l0.182,0.051l0.182,0.026l0.18,0.013l0.182-0.013l0.187-0.026l0.177-0.051l0.17-0.065
			l0.165-0.082l0.152-0.1l0.144-0.119l0.133-0.128l0.116-0.141l0.098-0.155l0.082-0.165l0.065-0.17l0.051-0.182l0.026-0.182
			L92.267,65.516L92.267,65.516z M114.994,55.129v10.357h-4.748l-0.049,0.291l-0.073,0.286l-0.092,0.281l-0.109,0.274l-0.133,0.264
			l-0.153,0.252l-0.164,0.243l-0.187,0.229l-0.199,0.219l-0.221,0.203l-0.226,0.182l-0.247,0.17l-0.252,0.155l-0.265,0.131
			l-0.269,0.109l-0.286,0.095l-0.286,0.077l-0.291,0.049l-0.291,0.033l-0.295,0.01l-0.291-0.01l-0.299-0.033l-0.291-0.049
			l-0.285-0.077l-0.279-0.095l-0.276-0.109l-0.264-0.131l-0.253-0.155l-0.242-0.17l-0.23-0.182l-0.213-0.203l-0.204-0.219
			l-0.182-0.229l-0.169-0.243l-0.15-0.252l-0.131-0.264l-0.114-0.274l-0.09-0.281l-0.077-0.286l-0.049-0.291h-8.033l-0.008,0.265
			l-0.026,0.265l-0.049,0.257l-0.065,0.259l-0.089,0.252l-0.104,0.243l-0.121,0.234l-0.144,0.226L93.277,67.7l-0.177,0.203
			l-0.18,0.187l-0.204,0.177l-0.215,0.153l-0.219,0.143l-0.237,0.126l-0.242,0.104l-0.252,0.087l-0.253,0.073l-0.264,0.049
			l-0.265,0.028l-0.264,0.01l-0.262-0.01l-0.265-0.028l-0.264-0.049l-0.253-0.073l-0.254-0.087l-0.24-0.104l-0.232-0.126
			l-0.226-0.143l-0.214-0.153L88.1,68.09l-0.187-0.187L87.738,67.7l-0.155-0.214l-0.143-0.226l-0.119-0.234l-0.106-0.243
			l-0.087-0.252l-0.066-0.259l-0.043-0.257l-0.034-0.265l-0.005-0.265h-3.227l-1.042,2.698l-7.563-2.308l0.643-2.072l5.624,1.716
			l12.159-31.512l2.028,0.778l-9.654,25.011h1.774l7.495-19.419l0.099-0.23l0.117-0.216l0.131-0.213l0.152-0.199l0.165-0.182
			l0.182-0.175l0.193-0.152l0.202-0.143l0.215-0.122l0.226-0.104l0.23-0.09l0.242-0.07l0.24-0.048l0.25-0.029l0.247-0.009h7.34
			l0.238,0.009l0.234,0.029l0.23,0.048l0.23,0.065l0.221,0.087l0.216,0.106l0.203,0.119L107.218,39l0.182,0.155l0.165,0.17
			l0.153,0.182l0.138,0.191l0.121,0.204l0.104,0.213l0.087,0.226l0.073,0.226l0.043,0.235l0.034,0.238l0.01,0.235v11.199h4.007
			l0.23,0.01l0.23,0.034l0.226,0.049l0.221,0.072l0.213,0.088l0.208,0.104l0.194,0.126l0.187,0.144l0.17,0.152l0.155,0.172
			l0.141,0.188l0.128,0.191l0.104,0.208l0.087,0.214l0.07,0.22l0.051,0.226l0.032,0.23L114.994,55.129L114.994,55.129z
			 M106.467,41.273v11.199h-5.907v4.783h-8.519l4.697-6.908l0.693,0.862l0.07,0.07l0.083,0.049l0.095,0.034l0.099,0.01l0.098-0.01
			l0.094-0.034l0.083-0.049l0.07-0.07l0.056-0.082l0.034-0.095l0.01-0.1l-0.01-0.097l-0.034-0.095l-0.056-0.087l-1.935-2.417
			l-0.07-0.072l-0.087-0.049l-0.095-0.034l-0.1-0.01l-0.092,0.01l-0.095,0.034l-0.087,0.049l-0.065,0.072l-0.057,0.082l-0.033,0.093
			l-0.01,0.1l0.01,0.099l0.033,0.093l0.057,0.089l0.69,0.861l-5.171,7.602h-0.416l6.268-16.239l0.068-0.143l0.082-0.138l0.1-0.126
			l0.109-0.109l0.126-0.1l0.138-0.083l0.148-0.065l0.147-0.051l0.16-0.027l0.16-0.012h7.253l0.143,0.012l0.144,0.027l0.138,0.051
			l0.126,0.058l0.119,0.083l0.111,0.095l0.092,0.109l0.083,0.121l0.065,0.134l0.046,0.136l0.026,0.143L106.467,41.273
			L106.467,41.273z"/>
	</g>
</g>
</svg>
