<?xml version="1.0" encoding="utf-8"?>
<!-- Generator: Adobe Illustrator 16.0.0, SVG Export Plug-In . SVG Version: 6.00 Build 0)  -->
<!DOCTYPE svg PUBLIC "-//W3C//DTD SVG 1.1//EN" "http://www.w3.org/Graphics/SVG/1.1/DTD/svg11.dtd">
<svg version="1.1" id="Layer_1" xmlns="http://www.w3.org/2000/svg" xmlns:xlink="http://www.w3.org/1999/xlink" x="0px" y="0px"
	 width="200px" height="200px" viewBox="0 0 200 200" enable-background="new 0 0 200 200" xml:space="preserve">
<g>
	<g>
		<rect x="6.057" y="28.524" fill="#FFFFFF" width="187.887" height="61"/>
		<path fill="none" stroke="#1C181B" d="M193.939,89.524H6.057v-61h187.883V89.524z"/>
		<path fill="#0D9C4A" d="M190.27,36.247c0-2.048-1.809-3.751-3.746-3.751H13.653c-1.938,0-3.746,1.693-3.746,3.742v46.051
			c0,2.049,1.808,3.744,3.746,3.744h172.878c1.939,0,3.744-1.695,3.744-3.744"/>
		<polyline fill="#FFFFFF" points="33.896,44.896 17.376,61.415 33.894,77.933 47.522,77.933 35.804,66.188 65.997,66.188 
			65.997,56.639 35.804,56.64 47.548,44.896 		"/>
		<polyline fill="#FFFFFF" points="128.441,37.649 142.479,37.649 142.479,41.341 132.83,41.341 132.83,45.957 141.193,45.957 
			141.193,49.366 132.83,49.366 132.83,57.615 128.441,57.615 		"/>
		<path fill="#FFFFFF" d="M148.688,40.922h-3.97V37.65h3.97V40.922z M144.714,43.159h3.972v14.456h-3.972V43.159z"/>
		<path fill="#FFFFFF" d="M151.816,43.159h3.776v2.685h0.054c0.729-1.818,2.687-3.076,4.614-3.076c0.282,0,0.615,0.057,0.868,0.139
			V46.6c-0.363-0.085-0.952-0.141-1.428-0.141c-2.906,0-3.912,2.098-3.912,4.643v6.514h-3.975"/>
		<path fill="#FFFFFF" d="M165.471,51.354c0.109,2.516,1.344,3.662,3.549,3.662c1.597,0,2.881-0.979,3.131-1.874h3.498
			c-1.119,3.412-3.498,4.866-6.768,4.866c-4.558,0-7.382-3.131-7.382-7.605c0-4.335,2.991-7.634,7.382-7.634
			c4.919,0,7.299,4.138,7.018,8.585 M171.93,48.835c-0.365-2.013-1.232-3.074-3.162-3.074c-2.515,0-3.242,1.957-3.297,3.074H171.93z
			"/>
		<path fill="#FFFFFF" d="M131.295,74.552c0.111,2.516,1.342,3.66,3.553,3.66c1.592,0,2.879-0.977,3.129-1.873h3.494
			c-1.117,3.41-3.494,4.867-6.767,4.867c-4.558,0-7.384-3.134-7.384-7.606c0-4.333,2.994-7.636,7.384-7.636
			c4.923,0,7.3,4.141,7.021,8.588 M137.753,72.034c-0.364-2.012-1.229-3.074-3.157-3.074c-2.52,0-3.246,1.955-3.301,3.074H137.753z"
			/>
		<polyline fill="#FFFFFF" points="147.764,73.21 143.009,66.357 147.54,66.357 150.085,70.132 152.602,66.357 156.992,66.357 
			152.238,73.126 157.579,80.815 153.048,80.815 150.027,76.259 147.01,80.815 142.562,80.815 		"/>
		<path fill="#FFFFFF" d="M163.171,64.12H159.2v-3.271h3.971V64.12L163.171,64.12z M159.198,66.357h3.971v14.458h-3.971V66.357z"/>
		<path fill="#FFFFFF" d="M171.335,66.357h2.908v2.657h-2.908v7.16c0,1.339,0.336,1.676,1.677,1.676c0.42,0,0.812-0.029,1.231-0.114
			v3.104c-0.669,0.113-1.54,0.139-2.32,0.139c-2.435,0-4.562-0.557-4.562-3.438v-8.527h-2.403v-2.657h2.403v-4.334h3.974"/>
		<g>
			<polygon fill="#0D9C4A" points="124.82,86.032 124.82,32.496 71.282,32.496 71.282,86.032 			"/>
			<path fill="#FFFFFF" d="M114.166,75.103v6.958l3.534,3.534H85.522l-3.573-3.576l0.013-45.984h32.142v33.088
				c1.955,0,3.271,0.936,4.095,1.754c0.821,0.822,2.149,4.267,2.149,4.267L114.166,75.103L114.166,75.103z"/>
			<path fill="#0D9C4A" d="M93.618,48.24c2.11,0,3.821-1.71,3.821-3.822c0-2.11-1.711-3.822-3.821-3.822
				c-2.111,0-3.822,1.712-3.822,3.822C89.795,46.53,91.507,48.24,93.618,48.24L93.618,48.24z"/>
			<path fill="#0D9C4A" d="M100.145,63.911c0,0-7.103,13.891-7.838,15.163c-0.736,1.272-1.67,1.386-2.264,1.386h-3.68l9.312-18.981
				l-2.915-6.276c0,0-2.321,3.111-3.114,3.961c-0.467,0.466-0.934,0.651-1.441,0.651h-6.835v-3.635h5.704
				c0,0,2.829-3.566,3.904-5.01c1.19-1.597,2.267-2.076,4.642-2.076h7.818c1.443,0,3.603-0.065,4.603,1.416l3.37,5.612v-0.008
				c0.188,0.286,0.297,0.629,0.297,0.998c0,1.008-0.818,1.826-1.825,1.826c-0.657,0-1.229-0.343-1.551-0.861l0.091,0.126
				c0,0-2.955-4.769-3.068-5.108c-0.111-0.34-0.396-0.508-0.68-0.508h-3.848l3.084,6.092c1.104,2.323,1.046,6.706,1.046,6.706
				l0.369,3.82c0.003,0.455,0.28,0.596,0.481,0.596c0,0,5.148,0,5.996,0c3.145,0,4.664,0.643,5.633,1.611
				c0.967,0.967,1.33,2.688,1.33,2.688h-9.338h-5.603c-1.983,0-2.746-1.019-2.86-1.812l-0.336-3.398l-0.484-4.895V63.911
				L100.145,63.911z"/>
			<path fill="#0D9C4A" d="M91.581,85.722l-4.417-4.208h3.997c0.593,0,1.796,0.754,3.062,2.02c1.266,1.265,2.237,2.146,2.237,2.146
				L91.581,85.722L91.581,85.722z"/>
			<polygon fill="#0D9C4A" points="121.545,85.81 82.64,85.81 82.64,85.407 121.545,85.407 			"/>
		</g>
	</g>
	<g>
		<rect x="6.057" y="110.476" fill="#FFFFFF" width="187.887" height="61"/>
		<path fill="none" stroke="#1C181B" d="M6.061,110.476h187.883v61H6.061V110.476z"/>
		<path fill="#0D9C4A" d="M9.725,164.239c0,2.049,1.805,3.744,3.744,3.744h172.878c1.938,0,3.746-1.695,3.746-3.744v-46.051
			c0-2.049-1.808-3.741-3.746-3.741H13.477c-1.938,0-3.746,1.702-3.746,3.751"/>
		<polyline fill="#FFFFFF" points="143.365,146.359 153.994,135.73 153.994,163.054 162.633,163.054 162.633,135.73 
			173.262,146.335 173.262,134.001 158.314,119.054 143.365,134.003 		"/>
		<g>
			<polyline fill="#FFFFFF" points="25.2,119.601 39.237,119.601 39.237,123.292 29.589,123.292 29.589,127.907 37.952,127.907 
				37.952,131.317 29.589,131.317 29.589,139.566 25.2,139.566 			"/>
			<path fill="#FFFFFF" d="M45.446,122.874h-3.97v-3.272h3.97V122.874z M41.473,125.11h3.972v14.456h-3.972V125.11z"/>
			<path fill="#FFFFFF" d="M48.575,125.11h3.776v2.686h0.054c0.729-1.818,2.687-3.076,4.614-3.076c0.282,0,0.615,0.057,0.868,0.139
				v3.692c-0.363-0.085-0.952-0.142-1.428-0.142c-2.906,0-3.912,2.099-3.912,4.644v6.514h-3.975"/>
			<path fill="#FFFFFF" d="M62.229,133.306c0.109,2.516,1.344,3.662,3.549,3.662c1.597,0,2.881-0.979,3.131-1.874h3.498
				c-1.119,3.411-3.498,4.866-6.768,4.866c-4.558,0-7.382-3.131-7.382-7.605c0-4.335,2.991-7.634,7.382-7.634
				c4.919,0,7.299,4.138,7.018,8.585 M68.688,130.786c-0.365-2.013-1.232-3.074-3.162-3.074c-2.515,0-3.242,1.957-3.297,3.074
				H68.688z"/>
			<path fill="#FFFFFF" d="M28.054,156.503c0.111,2.516,1.342,3.66,3.553,3.66c1.592,0,2.879-0.977,3.129-1.873h3.494
				c-1.117,3.41-3.494,4.867-6.767,4.867c-4.558,0-7.384-3.134-7.384-7.606c0-4.333,2.994-7.636,7.384-7.636
				c4.923,0,7.3,4.141,7.021,8.588 M34.512,153.985c-0.364-2.012-1.229-3.074-3.157-3.074c-2.52,0-3.246,1.955-3.301,3.074H34.512z"
				/>
			<polyline fill="#FFFFFF" points="44.522,155.161 39.768,148.309 44.299,148.309 46.844,152.083 49.36,148.309 53.751,148.309 
				48.997,155.077 54.338,162.767 49.807,162.767 46.786,158.21 43.769,162.767 39.321,162.767 			"/>
			<path fill="#FFFFFF" d="M59.93,146.071h-3.971V142.8h3.971V146.071L59.93,146.071z M55.957,148.309h3.971v14.458h-3.971V148.309z
				"/>
			<path fill="#FFFFFF" d="M68.094,148.309h2.908v2.657h-2.908v7.16c0,1.339,0.336,1.676,1.677,1.676
				c0.42,0,0.812-0.029,1.231-0.114v3.104c-0.669,0.113-1.54,0.139-2.32,0.139c-2.435,0-4.562-0.557-4.562-3.438v-8.527h-2.403
				v-2.657h2.403v-4.334h3.974"/>
		</g>
		<g>
			<polygon fill="#0D9C4A" points="128.718,167.983 128.718,114.447 75.18,114.447 75.18,167.983 			"/>
			<path fill="#FFFFFF" d="M85.834,157.054l-6.182,0.04c0,0,1.328-3.444,2.149-4.267c0.823-0.818,2.14-1.754,4.095-1.754v-33.088
				h32.142l0.013,45.984l-3.573,3.576H82.3l3.534-3.534V157.054L85.834,157.054z"/>
			<path fill="#0D9C4A" d="M106.382,130.191c2.111,0,3.823-1.71,3.822-3.821c0-2.11-1.711-3.822-3.822-3.822
				c-2.11,0-3.821,1.712-3.821,3.822C102.561,128.481,104.271,130.191,106.382,130.191L106.382,130.191z"/>
			<path fill="#0D9C4A" d="M99.855,145.862v0.084l-0.484,4.895l-0.336,3.398c-0.114,0.793-0.877,1.812-2.86,1.812h-5.603h-9.338
				c0,0,0.363-1.722,1.33-2.688c0.969-0.969,2.488-1.611,5.633-1.611c0.848,0,5.996,0,5.996,0c0.201,0,0.479-0.141,0.481-0.596
				l0.369-3.82c0,0-0.058-4.383,1.046-6.705l3.084-6.092h-3.848c-0.283,0-0.568,0.168-0.68,0.508
				c-0.113,0.339-3.068,5.107-3.068,5.107l0.091-0.126c-0.321,0.519-0.894,0.861-1.551,0.861c-1.007,0-1.825-0.817-1.825-1.826
				c0-0.369,0.109-0.712,0.297-0.998v0.009l3.37-5.613c1-1.48,3.159-1.416,4.603-1.416h7.818c2.375,0,3.451,0.479,4.642,2.076
				c1.075,1.444,3.904,5.01,3.904,5.01h5.704v3.636h-6.835c-0.508,0-0.975-0.185-1.441-0.651c-0.793-0.85-3.114-3.961-3.114-3.961
				l-2.915,6.276l9.312,18.981h-3.68c-0.594,0-1.527-0.113-2.264-1.386C106.958,159.753,99.855,145.862,99.855,145.862
				L99.855,145.862z"/>
			<path fill="#0D9C4A" d="M108.419,167.673l-4.879-0.043c0,0,0.972-0.881,2.237-2.146c1.266-1.266,2.469-2.02,3.062-2.02h3.997
				L108.419,167.673L108.419,167.673z"/>
			<polygon fill="#0D9C4A" points="78.455,167.358 117.36,167.358 117.36,167.761 78.455,167.761 			"/>
		</g>
	</g>
</g>
</svg>
