<?xml version="1.0" encoding="utf-8"?>
<!-- Generator: Adobe Illustrator 16.0.0, SVG Export Plug-In . SVG Version: 6.00 Build 0)  -->
<!DOCTYPE svg PUBLIC "-//W3C//DTD SVG 1.1//EN" "http://www.w3.org/Graphics/SVG/1.1/DTD/svg11.dtd">
<svg version="1.1" id="Layer_1" xmlns="http://www.w3.org/2000/svg" xmlns:xlink="http://www.w3.org/1999/xlink" x="0px" y="0px"
	 width="200px" height="200px" viewBox="0 0 200 200" enable-background="new 0 0 200 200" xml:space="preserve">
<g>
	<path fill="#FFFFFF" stroke="#1C181B" d="M195,28.753c0-13.069-10.688-23.758-23.75-23.758H28.748C15.687,4.995,5,15.684,5,28.753
		v142.502c0,13.064,10.687,23.75,23.748,23.75H171.25c13.062,0,23.75-10.686,23.75-23.75V28.753z"/>
	<path fill="#ED1C24" d="M187.876,166.509c0,11.755-9.622,21.372-21.377,21.372h-133c-11.76,0-21.375-9.617-21.375-21.372v-42.754
		c0-11.755,9.615-21.371,21.375-21.371h133c11.755,0,21.377,9.616,21.377,21.371"/>
	<polyline fill="#FFFFFF" points="84.002,117.428 88.046,117.428 95.768,129.843 95.825,129.843 95.825,117.428 99.632,117.428 
		99.632,135.941 95.563,135.941 87.864,123.542 87.812,123.542 87.812,135.941 84.002,135.941 	"/>
	<path fill="#FFFFFF" d="M109.847,122.168c4.225,0,6.946,2.804,6.946,7.08c0,4.255-2.722,7.053-6.946,7.053
		c-4.2,0-6.92-2.798-6.92-7.053C102.927,124.972,105.646,122.168,109.847,122.168 M109.847,133.524c2.517,0,3.267-2.154,3.267-4.276
		c0-2.149-0.75-4.304-3.267-4.304c-2.485,0-3.24,2.154-3.24,4.304C106.606,131.37,107.361,133.524,109.847,133.524"/>
	<path fill="#FFFFFF" d="M26.092,151.051h3.497v1.707h0.054c0.884-1.424,2.335-2.072,3.993-2.072c4.2,0,6.093,3.397,6.093,7.205
		c0,3.578-1.975,6.922-5.886,6.922c-1.609,0-3.139-0.698-4.02-2.023h-0.052v6.377h-3.679 M36.046,157.787
		c0-2.127-0.856-4.331-3.212-4.331c-2.411,0-3.191,2.16-3.191,4.331c0,2.177,0.827,4.249,3.213,4.249
		C35.267,162.036,36.046,159.964,36.046,157.787"/>
	<path fill="#FFFFFF" d="M45.478,158.644c0.104,2.335,1.249,3.393,3.294,3.393c1.478,0,2.667-0.905,2.902-1.734h3.237
		c-1.034,3.164-3.237,4.511-6.27,4.511c-4.222,0-6.84-2.901-6.84-7.053c0-4.015,2.771-7.074,6.84-7.074
		c4.565,0,6.769,3.834,6.507,7.958 M51.467,156.314c-0.338-1.865-1.14-2.858-2.929-2.858c-2.335,0-3.006,1.816-3.06,2.858H51.467z"
		/>
	<path fill="#FFFFFF" d="M67.411,162.74h-0.052c-0.854,1.456-2.359,2.072-4.075,2.072c-4.039,0-6.008-3.475-6.008-7.184
		c0-3.6,1.997-6.943,5.935-6.943c1.582,0,3.137,0.671,3.993,2.001h-0.027h0.055v-6.741h3.682v18.508h-3.502 M64.198,153.456
		c-2.411,0-3.243,2.078-3.243,4.276c0,2.101,0.963,4.304,3.243,4.304c2.433,0,3.161-2.122,3.161-4.325
		C67.359,155.534,66.582,153.456,64.198,153.456"/>
	<path fill="#FFFFFF" d="M77.235,158.644c0.104,2.335,1.244,3.393,3.286,3.393c1.481,0,2.673-0.905,2.908-1.734h3.243
		c-1.039,3.164-3.243,4.511-6.276,4.511c-4.225,0-6.846-2.901-6.846-7.053c0-4.015,2.777-7.074,6.846-7.074
		c4.561,0,6.764,3.834,6.51,7.958 M83.225,156.314c-0.338-1.865-1.14-2.858-2.932-2.858c-2.334,0-3.011,1.816-3.057,2.858H83.225z"
		/>
	<path fill="#FFFFFF" d="M92.454,160.095c0.022,1.609,1.375,2.258,2.826,2.258c1.061,0,2.411-0.42,2.411-1.713
		c0-1.118-1.533-1.505-4.178-2.072c-2.122-0.47-4.252-1.217-4.252-3.578c0-3.426,2.959-4.304,5.833-4.304
		c2.929,0,5.629,0.981,5.91,4.276h-3.502c-0.104-1.424-1.186-1.812-2.512-1.812c-0.829,0-2.045,0.153-2.045,1.238
		c0,1.331,2.073,1.506,4.173,1.997c2.152,0.496,4.247,1.271,4.247,3.764c0,3.523-3.055,4.663-6.112,4.663
		c-3.109,0-6.142-1.161-6.3-4.718"/>
	<path fill="#FFFFFF" d="M108.7,151.051h2.703v2.465H108.7v6.634c0,1.243,0.314,1.555,1.558,1.555c0.391,0,0.75-0.027,1.146-0.104
		v2.875c-0.624,0.104-1.432,0.131-2.154,0.131c-2.253,0-4.228-0.513-4.228-3.186v-7.904h-2.226v-2.465h2.226v-4.021h3.679"/>
	<path fill="#FFFFFF" d="M113.681,151.051h3.502v2.487h0.052c0.677-1.686,2.49-2.853,4.282-2.853c0.256,0,0.564,0.049,0.799,0.131
		v3.42c-0.335-0.076-0.881-0.131-1.317-0.131c-2.7,0-3.633,1.947-3.633,4.309v6.039h-3.685"/>
	<path fill="#FFFFFF" d="M128.073,148.978h-3.682v-3.032h3.682V148.978z M124.389,151.051h3.682v13.402h-3.682V151.051z"/>
	<path fill="#FFFFFF" d="M131.335,155.169c0.207-3.447,3.292-4.483,6.3-4.483c2.673,0,5.886,0.6,5.886,3.807v6.977
		c0,1.222,0.131,2.438,0.47,2.984h-3.736c-0.134-0.42-0.235-0.856-0.26-1.299c-1.167,1.217-2.877,1.658-4.508,1.658
		c-2.542,0-4.568-1.271-4.568-4.02c0-3.033,2.288-3.759,4.568-4.069c2.253-0.338,4.353-0.257,4.353-1.762
		c0-1.577-1.085-1.812-2.384-1.812c-1.401,0-2.308,0.573-2.438,2.019 M139.839,157.891c-0.622,0.546-1.92,0.573-3.06,0.78
		c-1.141,0.229-2.177,0.622-2.177,1.969c0,1.375,1.061,1.713,2.256,1.713c2.877,0,2.98-2.285,2.98-3.087V157.891z"/>
	<path fill="#FFFFFF" d="M146.892,151.051h3.497v1.865h0.079c0.933-1.5,2.536-2.23,4.099-2.23c3.908,0,4.898,2.203,4.898,5.52v8.248
		h-3.682v-7.571c0-2.204-0.652-3.295-2.362-3.295c-1.99,0-2.85,1.113-2.85,3.835v7.031h-3.68"/>
	<path fill="#FFFFFF" d="M165.634,160.095c0.022,1.609,1.375,2.258,2.826,2.258c1.063,0,2.411-0.42,2.411-1.713
		c0-1.118-1.533-1.505-4.179-2.072c-2.122-0.47-4.252-1.217-4.252-3.578c0-3.426,2.959-4.304,5.831-4.304
		c2.932,0,5.632,0.981,5.913,4.276h-3.499c-0.106-1.424-1.189-1.812-2.515-1.812c-0.832,0-2.046,0.153-2.046,1.238
		c0,1.331,2.073,1.506,4.173,1.997c2.152,0.496,4.247,1.271,4.247,3.764c0,3.523-3.053,4.663-6.112,4.663
		c-3.109,0-6.142-1.161-6.3-4.718"/>
	<g>
		<polygon fill-rule="evenodd" clip-rule="evenodd" fill="#1C181B" points="89.216,43.783 90.828,47.676 81.157,51.675 
			79.548,47.787 89.216,43.783 		"/>
		<polygon fill-rule="evenodd" clip-rule="evenodd" fill="#1C181B" points="96.733,37.43 99.417,40.669 91.368,47.351 
			88.679,44.108 96.733,37.43 		"/>
		<polygon fill-rule="evenodd" clip-rule="evenodd" fill="#1C181B" points="100.183,39.054 100.169,38.827 100.137,38.611 
			100.08,38.398 100.003,38.192 99.899,37.998 99.777,37.816 99.643,37.646 99.479,37.486 99.311,37.351 99.128,37.227 
			98.934,37.126 98.729,37.051 98.517,36.991 98.296,36.954 98.078,36.945 97.854,36.954 97.636,36.991 97.423,37.051 
			97.216,37.126 97.022,37.227 96.839,37.351 96.67,37.486 96.509,37.646 96.376,37.816 96.25,37.998 96.158,38.192 96.073,38.398 
			96.016,38.611 95.988,38.827 95.972,39.054 95.988,39.272 96.016,39.491 96.073,39.701 96.158,39.908 96.25,40.103 96.376,40.29 
			96.509,40.462 96.67,40.614 96.839,40.758 97.022,40.875 97.216,40.973 97.423,41.051 97.636,41.11 97.854,41.146 98.078,41.157 
			98.296,41.146 98.517,41.11 98.729,41.051 98.934,40.973 99.128,40.875 99.311,40.758 99.479,40.614 99.643,40.462 99.777,40.29 
			99.899,40.103 100.003,39.908 100.08,39.701 100.137,39.491 100.169,39.272 100.183,39.054 		"/>
		<polygon fill-rule="evenodd" clip-rule="evenodd" fill="#1C181B" points="92.132,45.73 92.118,45.513 92.08,45.295 92.023,45.082 
			91.949,44.875 91.846,44.674 91.723,44.493 91.586,44.321 91.434,44.168 91.259,44.027 91.074,43.909 90.88,43.81 90.673,43.729 
			90.46,43.673 90.242,43.639 90.024,43.625 89.8,43.639 89.582,43.673 89.369,43.729 89.162,43.81 88.971,43.909 88.788,44.027 
			88.616,44.168 88.456,44.321 88.319,44.493 88.202,44.674 88.101,44.875 88.022,45.082 87.967,45.295 87.932,45.513 87.921,45.73 
			87.932,45.949 87.967,46.167 88.022,46.377 88.101,46.585 88.202,46.785 88.319,46.967 88.456,47.139 88.616,47.291 
			88.788,47.435 88.971,47.55 89.162,47.649 89.369,47.732 89.582,47.787 89.8,47.823 90.024,47.834 90.242,47.823 90.46,47.787 
			90.673,47.732 90.88,47.649 91.074,47.55 91.259,47.435 91.434,47.291 91.586,47.139 91.723,46.967 91.846,46.785 91.949,46.585 
			92.023,46.377 92.08,46.167 92.118,45.949 92.132,45.73 		"/>
		<polygon fill-rule="evenodd" clip-rule="evenodd" fill="#1C181B" points="82.458,49.73 82.45,49.509 82.412,49.29 82.352,49.077 
			82.278,48.871 82.174,48.678 82.06,48.492 81.916,48.322 81.763,48.164 81.594,48.028 81.405,47.903 81.209,47.805 81.001,47.728 
			80.789,47.667 80.571,47.633 80.353,47.621 80.137,47.633 79.919,47.667 79.706,47.728 79.499,47.805 79.303,47.903 
			79.117,48.028 78.945,48.164 78.792,48.322 78.651,48.492 78.531,48.678 78.433,48.871 78.351,49.077 78.296,49.29 78.261,49.509 
			78.25,49.73 78.261,49.949 78.296,50.167 78.351,50.38 78.433,50.586 78.531,50.779 78.651,50.969 78.792,51.138 78.945,51.293 
			79.117,51.434 79.303,51.551 79.499,51.652 79.706,51.729 79.919,51.787 80.137,51.824 80.353,51.833 80.571,51.824 
			80.789,51.787 81.001,51.729 81.209,51.652 81.405,51.551 81.594,51.434 81.763,51.293 81.916,51.138 82.06,50.969 82.174,50.779 
			82.278,50.586 82.352,50.38 82.412,50.167 82.45,49.949 82.458,49.73 		"/>
		<polygon fill-rule="evenodd" clip-rule="evenodd" fill="#1C181B" points="121.751,55.767 121.74,55.543 121.705,55.323 
			121.65,55.111 121.568,54.904 121.47,54.709 121.351,54.528 121.214,54.359 121.056,54.198 120.884,54.063 120.701,53.938 
			120.502,53.838 120.303,53.765 120.085,53.703 119.869,53.666 119.648,53.661 119.43,53.666 119.212,53.703 118.999,53.765 
			118.792,53.838 118.599,53.938 118.407,54.063 118.238,54.198 118.086,54.359 117.943,54.528 117.823,54.709 117.726,54.904 
			117.649,55.111 117.589,55.323 117.551,55.543 117.54,55.767 117.551,55.981 117.589,56.2 117.649,56.413 117.726,56.62 
			117.823,56.814 117.943,57.002 118.086,57.174 118.238,57.326 118.407,57.47 118.599,57.588 118.792,57.688 118.999,57.763 
			119.212,57.822 119.43,57.855 119.648,57.869 119.869,57.855 120.085,57.822 120.303,57.763 120.502,57.688 120.701,57.588 
			120.884,57.47 121.056,57.326 121.214,57.174 121.351,57.002 121.47,56.814 121.568,56.62 121.65,56.413 121.705,56.2 
			121.74,55.981 121.751,55.767 		"/>
		<polygon fill-rule="evenodd" clip-rule="evenodd" fill="#1C181B" points="117.393,46.253 117.385,46.029 117.344,45.812 
			117.286,45.602 117.213,45.395 117.112,45.199 116.994,45.018 116.85,44.846 116.697,44.688 116.528,44.553 116.34,44.426 
			116.144,44.326 115.937,44.251 115.724,44.191 115.506,44.156 115.287,44.145 115.069,44.156 114.851,44.191 114.641,44.251 
			114.434,44.326 114.237,44.426 114.052,44.553 113.88,44.688 113.725,44.846 113.588,45.018 113.466,45.199 113.37,45.395 
			113.285,45.602 113.23,45.812 113.195,46.029 113.185,46.253 113.195,46.472 113.23,46.691 113.285,46.902 113.37,47.109 
			113.466,47.305 113.588,47.491 113.725,47.662 113.88,47.816 114.052,47.958 114.237,48.075 114.434,48.176 114.641,48.251 
			114.851,48.311 115.069,48.345 115.287,48.357 115.506,48.345 115.724,48.311 115.937,48.251 116.144,48.176 116.34,48.075 
			116.528,47.958 116.697,47.816 116.85,47.662 116.994,47.491 117.112,47.305 117.213,47.109 117.286,46.902 117.344,46.691 
			117.385,46.472 117.393,46.253 		"/>
		<polygon fill-rule="evenodd" clip-rule="evenodd" fill="#1C181B" points="109.8,39.054 109.789,38.827 109.762,38.611 
			109.699,38.398 109.617,38.192 109.524,37.998 109.398,37.816 109.263,37.646 109.104,37.486 108.933,37.351 108.75,37.227 
			108.556,37.126 108.349,37.051 108.136,36.991 107.918,36.954 107.697,36.945 107.479,36.954 107.261,36.991 107.048,37.051 
			106.841,37.126 106.647,37.227 106.462,37.351 106.29,37.486 106.134,37.646 105.998,37.816 105.872,37.998 105.771,38.192 
			105.698,38.398 105.638,38.611 105.6,38.827 105.589,39.054 105.6,39.272 105.638,39.491 105.698,39.701 105.771,39.908 
			105.872,40.103 105.998,40.29 106.134,40.462 106.29,40.614 106.462,40.758 106.647,40.875 106.841,40.973 107.048,41.051 
			107.261,41.11 107.479,41.146 107.697,41.157 107.918,41.146 108.136,41.11 108.349,41.051 108.556,40.973 108.75,40.875 
			108.933,40.758 109.104,40.614 109.263,40.462 109.398,40.29 109.524,40.103 109.617,39.908 109.699,39.701 109.762,39.491 
			109.789,39.272 109.8,39.054 		"/>
		<polygon fill-rule="evenodd" clip-rule="evenodd" fill="#1C181B" points="107.095,31.535 107.089,31.234 107.054,30.932 
			106.999,30.639 106.923,30.349 106.83,30.06 106.715,29.786 106.581,29.518 106.429,29.26 106.254,29.011 106.068,28.775 
			105.861,28.557 105.644,28.352 105.406,28.163 105.16,27.994 104.904,27.838 104.634,27.703 104.358,27.591 104.075,27.499 
			103.778,27.418 103.486,27.366 103.186,27.332 102.883,27.327 102.589,27.332 102.291,27.366 101.991,27.418 101.699,27.499 
			101.416,27.591 101.138,27.703 100.868,27.838 100.614,27.994 100.366,28.163 100.131,28.352 99.911,28.557 99.706,28.775 
			99.515,29.011 99.349,29.26 99.193,29.518 99.057,29.786 98.948,30.06 98.85,30.349 98.773,30.639 98.721,30.932 98.688,31.234 
			98.683,31.535 98.688,31.833 98.721,32.136 98.773,32.43 98.85,32.719 98.948,33.006 99.057,33.285 99.193,33.549 99.349,33.808 
			99.515,34.055 99.706,34.291 99.911,34.509 100.131,34.716 100.366,34.903 100.614,35.075 100.868,35.228 101.138,35.366 
			101.416,35.478 101.699,35.571 101.991,35.646 102.291,35.701 102.589,35.729 102.883,35.742 103.186,35.729 103.486,35.701 
			103.778,35.646 104.075,35.571 104.358,35.478 104.634,35.366 104.904,35.228 105.16,35.075 105.406,34.903 105.644,34.716 
			105.861,34.509 106.068,34.291 106.254,34.055 106.429,33.808 106.581,33.549 106.715,33.285 106.83,33.006 106.923,32.719 
			106.999,32.43 107.054,32.136 107.089,31.833 107.095,31.535 		"/>
		<polygon fill-rule="evenodd" clip-rule="evenodd" fill="#1C181B" points="92.206,79.448 92.195,79.227 92.167,79.009 
			92.113,78.791 92.039,78.578 91.955,78.376 91.846,78.181 91.717,78 91.576,77.828 91.423,77.67 91.254,77.529 91.068,77.402 
			90.875,77.291 90.667,77.2 90.455,77.133 90.242,77.08 90.019,77.049 89.8,77.044 89.574,77.049 89.355,77.08 89.137,77.133 
			88.927,77.2 88.729,77.291 88.535,77.402 88.352,77.529 88.177,77.67 88.022,77.828 87.88,78 87.754,78.181 87.651,78.376 
			87.553,78.578 87.484,78.791 87.438,79.009 87.408,79.227 87.397,79.448 87.408,79.666 87.438,79.89 87.484,80.103 87.553,80.315 
			87.651,80.52 87.754,80.715 87.88,80.898 88.022,81.068 88.177,81.221 88.352,81.364 88.535,81.493 88.729,81.6 88.927,81.688 
			89.137,81.758 89.355,81.81 89.574,81.841 89.8,81.853 90.019,81.841 90.242,81.81 90.455,81.758 90.667,81.688 90.875,81.6 
			91.068,81.493 91.254,81.364 91.423,81.221 91.576,81.068 91.717,80.898 91.846,80.715 91.955,80.52 92.039,80.315 92.113,80.103 
			92.167,79.89 92.195,79.666 92.206,79.448 		"/>
		<polygon fill-rule="evenodd" clip-rule="evenodd" fill="#1C181B" points="117.862,80.031 117.849,79.807 117.821,79.591 
			117.767,79.373 117.695,79.167 117.605,78.96 117.494,78.768 117.374,78.581 117.229,78.41 117.068,78.253 116.899,78.111 
			116.719,77.986 116.522,77.88 116.321,77.787 116.111,77.719 115.898,77.67 115.672,77.639 115.454,77.626 115.229,77.639 
			115.012,77.67 114.794,77.719 114.581,77.787 114.379,77.88 114.186,77.986 114.003,78.111 113.834,78.253 113.673,78.41 
			113.533,78.581 113.408,78.768 113.296,78.96 113.209,79.167 113.138,79.373 113.089,79.591 113.057,79.807 113.048,80.031 
			113.057,80.255 113.089,80.474 113.138,80.691 113.209,80.898 113.296,81.106 113.408,81.299 113.533,81.482 113.673,81.651 
			113.834,81.81 114.003,81.953 114.186,82.077 114.379,82.184 114.581,82.277 114.794,82.347 115.012,82.396 115.229,82.425 
			115.454,82.436 115.672,82.425 115.898,82.396 116.111,82.347 116.321,82.277 116.522,82.184 116.719,82.077 116.899,81.953 
			117.068,81.81 117.229,81.651 117.374,81.482 117.494,81.299 117.605,81.106 117.695,80.898 117.767,80.691 117.821,80.474 
			117.849,80.255 117.862,80.031 		"/>
		<polygon fill-rule="evenodd" clip-rule="evenodd" fill="#1C181B" points="107.697,56.189 107.688,55.967 107.653,55.748 
			107.604,55.53 107.536,55.317 107.449,55.117 107.334,54.925 107.209,54.741 107.072,54.571 106.911,54.411 106.737,54.269 
			106.557,54.144 106.363,54.034 106.164,53.944 105.951,53.873 105.733,53.827 105.515,53.793 105.289,53.786 105.07,53.793 
			104.847,53.827 104.634,53.873 104.422,53.944 104.223,54.034 104.026,54.144 103.846,54.269 103.674,54.411 103.514,54.571 
			103.374,54.741 103.251,54.925 103.137,55.117 103.05,55.317 102.981,55.53 102.927,55.748 102.895,55.967 102.883,56.189 
			102.895,56.413 102.927,56.631 102.981,56.849 103.05,57.057 103.137,57.264 103.251,57.456 103.374,57.64 103.514,57.809 
			103.674,57.97 103.846,58.11 104.026,58.237 104.223,58.341 104.422,58.435 104.634,58.498 104.847,58.55 105.07,58.585 
			105.289,58.593 105.515,58.585 105.733,58.55 105.951,58.498 106.164,58.435 106.363,58.341 106.557,58.237 106.737,58.11 
			106.911,57.97 107.072,57.809 107.209,57.64 107.334,57.456 107.449,57.264 107.536,57.057 107.604,56.849 107.653,56.631 
			107.688,56.413 107.697,56.189 		"/>
		<polygon fill-rule="evenodd" clip-rule="evenodd" fill="#1C181B" points="102.883,56.189 102.878,55.967 102.848,55.748 
			102.796,55.53 102.725,55.317 102.635,55.117 102.526,54.925 102.4,54.741 102.259,54.571 102.101,54.411 101.929,54.269 
			101.746,54.144 101.55,54.034 101.351,53.944 101.138,53.873 100.925,53.827 100.704,53.793 100.486,53.786 100.26,53.793 
			100.044,53.827 99.826,53.873 99.613,53.944 99.411,54.034 99.218,54.144 99.032,54.269 98.863,54.411 98.705,54.571 
			98.561,54.741 98.44,54.925 98.326,55.117 98.239,55.317 98.165,55.53 98.119,55.748 98.086,55.967 98.078,56.189 98.086,56.413 
			98.119,56.631 98.165,56.849 98.239,57.057 98.326,57.264 98.44,57.456 98.561,57.64 98.705,57.809 98.863,57.97 99.032,58.11 
			99.218,58.237 99.411,58.341 99.613,58.435 99.826,58.498 100.044,58.55 100.26,58.585 100.486,58.593 100.704,58.585 
			100.925,58.55 101.138,58.498 101.351,58.435 101.55,58.341 101.746,58.237 101.929,58.11 102.101,57.97 102.259,57.809 
			102.4,57.64 102.526,57.456 102.635,57.264 102.725,57.057 102.796,56.849 102.848,56.631 102.878,56.413 102.883,56.189 		"/>
		<polygon fill-rule="evenodd" clip-rule="evenodd" fill="#1C181B" points="94.5,66.419 94.488,66.198 94.458,65.979 94.407,65.761 
			94.333,65.548 94.246,65.348 94.134,65.155 94.011,64.969 93.867,64.799 93.708,64.639 93.539,64.499 93.356,64.374 93.16,64.265 
			92.958,64.175 92.746,64.104 92.536,64.049 92.309,64.021 92.091,64.009 91.87,64.021 91.652,64.049 91.434,64.104 91.224,64.175 
			91.019,64.265 90.828,64.374 90.643,64.499 90.471,64.639 90.313,64.799 90.174,64.969 90.045,65.155 89.937,65.348 
			89.847,65.548 89.775,65.761 89.729,65.979 89.696,66.198 89.691,66.419 89.696,66.638 89.729,66.861 89.775,67.074 
			89.847,67.286 89.937,67.494 90.045,67.687 90.174,67.867 90.313,68.039 90.471,68.192 90.643,68.335 90.828,68.465 
			91.019,68.571 91.224,68.657 91.434,68.729 91.652,68.781 91.87,68.812 92.091,68.823 92.309,68.812 92.536,68.781 92.746,68.729 
			92.958,68.657 93.16,68.571 93.356,68.465 93.539,68.335 93.708,68.192 93.867,68.039 94.011,67.867 94.134,67.687 94.246,67.494 
			94.333,67.286 94.407,67.074 94.458,66.861 94.488,66.638 94.5,66.419 		"/>
		<polygon fill-rule="evenodd" clip-rule="evenodd" fill="#1C181B" points="110.329,69.153 110.318,68.93 110.288,68.712 
			110.236,68.493 110.168,68.286 110.075,68.083 109.972,67.887 109.841,67.707 109.699,67.533 109.549,67.375 109.374,67.232 
			109.187,67.108 108.998,67.002 108.793,66.907 108.581,66.838 108.368,66.79 108.147,66.76 107.926,66.749 107.702,66.76 
			107.484,66.79 107.264,66.838 107.054,66.907 106.854,67.002 106.658,67.108 106.473,67.232 106.301,67.375 106.146,67.533 
			106.003,67.707 105.878,67.887 105.771,68.083 105.682,68.286 105.607,68.493 105.559,68.712 105.526,68.93 105.521,69.153 
			105.526,69.379 105.559,69.594 105.607,69.812 105.682,70.024 105.771,70.226 105.878,70.42 106.003,70.604 106.146,70.774 
			106.301,70.936 106.473,71.073 106.658,71.199 106.854,71.306 107.054,71.398 107.264,71.466 107.484,71.516 107.702,71.547 
			107.926,71.557 108.147,71.547 108.368,71.516 108.581,71.466 108.793,71.398 108.998,71.306 109.187,71.199 109.374,71.073 
			109.549,70.936 109.699,70.774 109.841,70.604 109.972,70.42 110.075,70.226 110.168,70.024 110.236,69.812 110.288,69.594 
			110.318,69.379 110.329,69.153 		"/>
		<polygon fill-rule="evenodd" clip-rule="evenodd" fill="#1C181B" points="94.458,66.832 89.724,66.002 87.433,79.03 
			92.173,79.861 94.458,66.832 		"/>
		<polygon fill-rule="evenodd" clip-rule="evenodd" fill="#1C181B" points="117.431,78.664 113.471,81.397 105.946,70.521 
			109.898,67.787 117.431,78.664 		"/>
		<polygon fill-rule="evenodd" clip-rule="evenodd" fill="#1C181B" points="121.562,54.887 117.736,56.646 113.299,47.161 
			117.202,45.375 121.562,54.887 		"/>
		<polygon fill-rule="evenodd" clip-rule="evenodd" fill="#1C181B" points="107.697,36.945 98.078,36.945 98.078,56.189 
			107.697,56.189 107.697,36.945 		"/>
		<polygon fill-rule="evenodd" clip-rule="evenodd" fill="#1C181B" points="116.735,44.724 113.839,47.782 106.249,40.58 
			109.146,37.52 116.735,44.724 		"/>
		<polygon fill-rule="evenodd" clip-rule="evenodd" fill="#1C181B" points="102.343,57.716 93.951,67.948 90.231,64.894 
			98.618,54.663 102.343,57.716 		"/>
		<polygon fill-rule="evenodd" clip-rule="evenodd" fill="#1C181B" points="107.647,55.712 102.938,56.668 105.567,69.631 
			110.277,68.675 107.647,55.712 		"/>
	</g>
	<path fill="#ED1C24" d="M100,12.125c-23.608,0-42.751,19.141-42.751,42.759c0,23.611,19.144,42.756,42.751,42.756
		s42.749-19.145,42.749-42.756C142.749,31.265,123.608,12.125,100,12.125 M100,89.03c-18.857,0-34.144-15.287-34.144-34.146
		c0-7.833,2.662-15.024,7.097-20.782l47.813,47.841C115.012,86.371,107.822,89.03,100,89.03 M127.034,75.68L79.202,27.845
		c5.757-4.437,12.958-7.107,20.799-7.107c18.857,0,34.141,15.29,34.141,34.146C134.142,62.723,131.474,69.92,127.034,75.68"/>
</g>
</svg>
