<?xml version="1.0" encoding="utf-8"?>
<!-- Generator: Adobe Illustrator 16.0.0, SVG Export Plug-In . SVG Version: 6.00 Build 0)  -->
<!DOCTYPE svg PUBLIC "-//W3C//DTD SVG 1.1//EN" "http://www.w3.org/Graphics/SVG/1.1/DTD/svg11.dtd">
<svg version="1.1" id="Layer_1" xmlns="http://www.w3.org/2000/svg" xmlns:xlink="http://www.w3.org/1999/xlink" x="0px" y="0px"
	 width="200px" height="200px" viewBox="0 -25 200 200" enable-background="new 0 -25 200 200" xml:space="preserve">
<g>
	<polygon fill="#FEFEFE" points="102,121.5 195,121.5 195,28.5 102,28.5 	"/>
	<path fill="none" stroke="#19171A" stroke-width="0.9947" d="M102,121.5h93v-93h-93V121.5z M195,121.5h-93H195z"/>
	<path fill="#009846" d="M193,117.543c0,0-1,0.989-2,0.989h-85c-1,0-2-0.989-2-0.989V32.458c0,0,1-0.989,2-0.989h85
		c1,0,2,0.989,2,0.989V117.543z"/>
	<path fill="#FEFEFE" d="M188,112c0,1-1,3-2,3h-75c-1,0-2-2-2-3V70c0-1,1-2,2-2h75c1,0,2,1,2,2V112z"/>
	<path fill="#FEFEFE" d="M117,52h5l-2-9l0,0L117,52z M118,37h4l7,24h-4l-2-5h-7l-1,5h-5L118,37z"/>
	<polygon fill="#FEFEFE" points="131,61.149 135,61.149 135,37.404 131,37.404 	"/>
	<path fill="#FEFEFE" d="M141,53.234c0,3.958,2,4.947,5,4.947c1,0,3-0.989,3-2.968c0-2.968-3-2.968-5-3.958
		c-3-0.989-6-1.979-6-6.926s4-6.925,7-6.925c4,0,8,1.979,8,7.915h-4c-1-2.968-2-3.958-4-3.958c-1,0-3,0.989-3,2.968
		c0,0.99,1,1.979,6,2.968c1,0.989,5,1.979,5,6.926c0,4.947-2,7.915-8,7.915c-4,0-8-2.968-8-8.904H141z"/>
	<polygon fill="#FEFEFE" points="155,37.404 159,37.404 159,57.191 169,57.191 169,61.149 155,61.149 	"/>
	<polygon fill="#FEFEFE" points="171,37 185,37 185,42 175,42 175,47 184,47 184,51 175,51 175,57 185,57 185,61 171,61 	"/>
	<path fill="#E4E4E4" d="M123,84c0-4,0-7,2-10c1-2,4-3,8-3c9,0,10,5,10,11c0,5-1,8-4,11l-5,7c0,0-1,2-2,3h11v8h-21c0-6,1-11,5-16
		l6-7c1-2,2-3,2-6c0-4-1-5-2-5s-3,1-3,6v1H123z"/>
	<path fill="#E4E4E4" d="M163,105c2,0,3-1,3-7c0-5-1-6-3-6c-1,0-2,1-2,6C161,104,162,105,163,105z M166,81c0-1-1-2-1-3s-1-1-2-1
		s-2,1-2,4v6l0,0c1-2,3-3,5-3c5,0,8,3,8,12c0,11-4,16-11,16s-11-4-11-18v-4c0-12,2-19,11-19s10,5,10,10H166z"/>
</g>
<g>
	<polygon fill="#FEFEFE" stroke="#000000" stroke-width="1.0054" stroke-miterlimit="10" points="5,121.5 98,121.5 98,28.5 5,28.5 	
		"/>
	<path fill="#FFED00" d="M95,118.468c0,0,0,1.011-1,1.011H9c-1,0-2-1.011-2-1.011V32.543c0-1.011,1-2.021,2-2.021h85
		c1,0,1,1.011,1,2.021V118.468z"/>
	<path fill="#FEFEFE" d="M91,112.402c0,1.011-1,2.021-3,2.021H14c-1,0-2-1.011-2-2.021V69.946c0-1.011,1-2.022,2-2.022h74
		c2,0,3,1.011,3,2.022V112.402z"/>
	<path fill="#FEFEFE" d="M27,56.804h5c2,0,4,0,4-3.032c0-2.022-1-3.033-4-3.033h-5V56.804z M27,46.696h5c2,0,3-1.011,3-3.033
		c0-2.022-1-2.022-3-2.022h-5V46.696z M21,37.598h12c4,0,7,1.011,7,6.065c0,2.021-1,4.043-3,5.054c3,0,5,3.033,5,6.065
		c0,5.054-5,7.076-9,7.076H21V37.598z"/>
	<path fill="#FEFEFE" d="M51,51.75h6l-3-8.087l0,0L51,51.75z M52,37.598h5l9,24.261h-5l-2-6.065h-9l-2,6.065h-5L52,37.598z"/>
	<polygon fill="#FEFEFE" points="70,51.75 61,37.598 67,37.598 72,46.696 78,37.598 84,37.598 75,51.75 75,61.859 70,61.859 	"/>
	<path fill="#E4E4E4" d="M62,111.392V84.098h-6v-7.076c6,0,8-1.011,9-6.065h6v40.435H62z"/>
	<path fill="#E4E4E4" d="M36,105.326c2,0,3-1.011,3-6.065s-1-7.076-3-7.076c-1,0-2,2.021-2,7.076S35,105.326,36,105.326z M39,81.065
		c0-1.011-1-2.021-1-3.033c0,0-1,0-2,0s-2,1.012-2,3.033v7.076l0,0c1-2.022,3-3.033,5-3.033c5,0,8,2.022,8,12.131
		c0,11.119-4,15.163-11,15.163s-11-4.044-11-17.185v-5.055c0-12.131,2-19.207,11-19.207s10,5.054,10,10.109H39z"/>
</g>
</svg>
