<?xml version="1.0" encoding="utf-8"?>
<!-- Generator: Adobe Illustrator 16.0.0, SVG Export Plug-In . SVG Version: 6.00 Build 0)  -->
<!DOCTYPE svg PUBLIC "-//W3C//DTD SVG 1.1//EN" "http://www.w3.org/Graphics/SVG/1.1/DTD/svg11.dtd">
<svg version="1.1" id="Layer_1" xmlns="http://www.w3.org/2000/svg" xmlns:xlink="http://www.w3.org/1999/xlink" x="0px" y="0px"
	 width="200px" height="200px" viewBox="0 0 200 200" enable-background="new 0 0 200 200" xml:space="preserve">
<g>
	<polygon fill-rule="evenodd" clip-rule="evenodd" stroke="#000000" stroke-width="0.1221" stroke-miterlimit="2.6131" points="
		194.242,174.801 104.757,19.684 104.205,18.857 103.517,18.236 102.758,17.685 101.861,17.271 100.966,16.995 100,16.927 
		99.035,16.995 98.069,17.271 97.243,17.685 96.416,18.236 95.794,18.857 95.243,19.684 5.758,174.801 5.345,175.696 5.069,176.592 
		5,177.559 5.069,178.523 5.345,179.488 5.758,180.315 6.31,181.144 6.931,181.763 7.757,182.314 8.585,182.729 9.55,183.004 
		10.515,183.073 189.485,183.073 190.45,183.004 191.346,182.729 192.243,182.314 193.001,181.763 193.69,181.144 194.242,180.315 
		194.656,179.488 194.931,178.523 195,177.559 194.931,176.592 194.656,175.696 194.242,174.801 	"/>
	
		<polygon fill-rule="evenodd" clip-rule="evenodd" fill="#FFF200" stroke="#000000" stroke-width="0.1221" stroke-miterlimit="2.6131" points="
		100,34.23 179.281,171.698 20.718,171.698 100,34.23 	"/>
	<path fill-rule="evenodd" clip-rule="evenodd" stroke="#000000" stroke-width="0.2068" stroke-miterlimit="2.6131" d="
		M96.496,112.903L70.8,110.165l-0.723,6.502H99.48l0.035-0.443l-0.035-0.442l-0.093-0.443l-0.14-0.419l-0.209-0.396l-0.256-0.373
		l-0.292-0.325l-0.338-0.292l-0.385-0.232l-0.396-0.188l-0.432-0.14L96.496,112.903L96.496,112.903z M69.902,118.344l25.661,2.995
		l0.537,0.035l0.536-0.023l0.536-0.082l0.525-0.14l0.501-0.187l0.489-0.232l0.455-0.292l0.419-0.338l0.385-0.384l0.337-0.408
		l0.304-0.454l0.245-0.478l0.199-0.501l0.139-0.525l0.094-0.535l0.023-0.536l-0.023-0.536l-0.081-0.536l-0.14-0.523l-0.188-0.502
		l-0.245-0.478l-0.292-0.454l-0.338-0.42l-0.385-0.385l-0.42-0.337l-0.455-0.292l-0.478-0.244l-0.502-0.198l-0.524-0.141
		l-0.536-0.081l-25.696-2.646l-0.012-0.279l-0.059-0.279l-0.116-0.244l-0.187-0.222l-0.21-0.175l-0.256-0.116l-0.28-0.07h-0.28
		l-0.269,0.07l-0.256,0.116l-0.21,0.175l-0.175,0.222l-0.128,0.256l-0.058,0.268l-1.084,9.857v0.292l0.07,0.268l0.117,0.256
		l0.174,0.21l0.222,0.176l0.257,0.128l0.268,0.058h0.28l0.28-0.058l0.245-0.128l0.222-0.176l0.175-0.221l0.117-0.257L69.902,118.344
		L69.902,118.344z"/>
	<polygon fill-rule="evenodd" clip-rule="evenodd" stroke="#000000" stroke-width="0.2068" stroke-miterlimit="2.6131" points="
		61.077,153.124 61.228,153.136 61.298,153.158 61.368,153.182 61.507,153.252 61.636,153.322 61.752,153.416 61.869,153.508 
		62.056,153.742 62.16,153.847 62.254,153.963 62.405,154.219 62.732,154.72 63.035,155.222 63.338,155.733 63.653,156.246 
		63.991,156.736 64.364,157.202 64.457,157.318 64.562,157.424 64.796,157.61 65.017,157.808 65.134,157.901 65.262,157.972 
		65.53,158.1 65.81,158.216 65.95,158.262 66.102,158.285 66.393,158.321 66.544,158.321 66.696,158.321 66.987,158.274 
		67.127,158.238 67.267,158.192 67.418,158.146 67.489,158.123 67.559,158.088 67.815,157.948 68.06,157.773 68.293,157.599 
		68.503,157.389 68.922,156.958 69.132,156.747 69.342,156.538 69.576,156.351 69.82,156.177 69.949,156.106 70.077,156.049 
		70.356,155.943 70.648,155.885 70.8,155.874 70.951,155.874 71.243,155.851 71.395,155.839 71.546,155.804 71.686,155.757 
		71.826,155.71 71.954,155.642 72.024,155.605 72.082,155.559 72.269,155.326 72.338,155.198 72.374,155.128 72.409,155.058 
		72.502,154.779 72.63,154.511 72.677,154.37 72.747,154.242 72.817,154.114 72.91,153.986 73.003,153.87 73.108,153.776 
		73.225,153.672 73.341,153.591 73.609,153.463 73.889,153.356 74.029,153.311 74.169,153.265 74.472,153.218 74.764,153.171 
		74.916,153.158 75.055,153.147 75.649,153.124 86.691,153.124 86.691,163.458 40.872,163.458 40.872,153.124 61.077,153.124 	"/>
	<polygon fill-rule="evenodd" clip-rule="evenodd" stroke="#000000" stroke-width="0.2068" stroke-miterlimit="2.6131" points="
		64.446,148.626 64.527,148.813 64.609,148.999 64.702,149.186 64.796,149.349 64.9,149.523 65.029,149.699 65.134,149.85 
		65.273,149.989 65.401,150.13 65.53,150.27 65.67,150.397 65.833,150.502 65.984,150.607 66.137,150.7 66.3,150.794 
		66.451,150.875 66.603,150.934 66.777,151.003 66.929,151.026 67.104,151.062 67.255,151.097 67.43,151.097 67.605,151.097 
		67.768,151.062 67.943,151.026 68.095,151.003 68.27,150.934 68.433,150.875 68.607,150.794 68.759,150.7 68.922,150.607 
		69.074,150.502 69.226,150.397 69.365,150.27 69.506,150.13 69.646,149.989 69.774,149.85 69.902,149.699 70.019,149.523 
		70.124,149.349 70.217,149.186 70.31,148.999 70.392,148.813 70.474,148.626 70.532,148.429 70.59,148.219 70.625,148.009 
		70.66,147.799 70.671,147.589 70.671,147.367 70.671,147.146 70.637,146.914 70.613,146.704 70.567,146.471 68.433,138.805 
		68.375,138.571 68.293,138.35 68.2,138.164 68.083,138.013 68.013,137.954 67.943,137.884 67.874,137.826 67.803,137.779 
		67.71,137.744 67.617,137.721 67.524,137.697 67.43,137.697 67.325,137.697 67.232,137.721 67.139,137.744 67.057,137.779 
		66.976,137.826 66.906,137.884 66.835,137.954 66.777,138.013 66.649,138.164 66.556,138.35 66.462,138.571 66.404,138.805 
		64.376,146.471 64.33,146.704 64.283,146.914 64.259,147.146 64.248,147.367 64.248,147.589 64.283,147.799 64.294,148.009 
		64.341,148.219 64.388,148.429 64.446,148.626 	"/>
	<polygon fill-rule="evenodd" clip-rule="evenodd" stroke="#000000" stroke-width="0.207" stroke-miterlimit="2.6131" points="
		67.43,121.874 67.524,121.886 67.617,121.898 67.71,121.921 67.803,121.968 67.874,122.015 67.943,122.061 68.013,122.119 
		68.083,122.178 68.2,122.352 68.293,122.539 68.375,122.737 68.433,122.97 70.567,130.66 70.613,130.869 70.637,131.104 
		70.671,131.324 70.671,131.545 70.671,131.755 70.66,131.977 70.625,132.186 70.59,132.396 70.532,132.595 70.474,132.792 
		70.392,132.979 70.31,133.188 70.217,133.351 70.124,133.538 70.019,133.713 69.902,133.864 69.774,134.027 69.646,134.179 
		69.506,134.318 69.365,134.447 69.226,134.562 69.074,134.691 68.922,134.797 68.759,134.89 68.607,134.972 68.433,135.053 
		68.27,135.122 68.095,135.169 67.943,135.216 67.768,135.251 67.605,135.263 67.43,135.263 67.255,135.263 67.104,135.251 
		66.929,135.216 66.777,135.169 66.603,135.122 66.451,135.053 66.3,134.972 66.137,134.89 65.984,134.797 65.833,134.691 
		65.67,134.562 65.53,134.447 65.401,134.318 65.273,134.179 65.134,134.027 65.029,133.864 64.9,133.713 64.796,133.538 
		64.702,133.351 64.609,133.188 64.527,132.979 64.446,132.792 64.388,132.595 64.341,132.396 64.294,132.186 64.283,131.977 
		64.248,131.755 64.248,131.545 64.259,131.324 64.283,131.104 64.33,130.869 64.376,130.66 66.404,122.97 66.462,122.737 
		66.556,122.539 66.649,122.352 66.777,122.178 66.835,122.119 66.906,122.061 66.976,122.015 67.057,121.968 67.139,121.921 
		67.232,121.898 67.325,121.886 67.43,121.874 	"/>
	<path fill-rule="evenodd" clip-rule="evenodd" stroke="#000000" stroke-width="0.2068" stroke-miterlimit="2.6131" d="
		M112.783,87.55l-25.242,5.627l-0.431,0.117l-0.408,0.187l-0.385,0.232l-0.338,0.292l-0.314,0.326l-0.257,0.36l-0.209,0.396
		l-0.151,0.431h22.257l6.912-1.596L112.783,87.55L112.783,87.55z M117.038,95.019l-2.192-9.671l-0.093-0.269l-0.152-0.232
		l-0.197-0.198l-0.234-0.151l-0.268-0.094l-0.268-0.034l-0.28,0.034l-0.268,0.094l-0.233,0.14l-0.21,0.198l-0.14,0.244l-0.094,0.269
		l-0.035,0.268l0.035,0.28L87.168,91.43l-0.524,0.151l-0.502,0.198l-0.478,0.245l-0.455,0.291l-0.408,0.35l-0.385,0.384l-0.338,0.42
		l-0.28,0.454l-0.244,0.489l-0.187,0.501l-0.14,0.524l-0.07,0.536l-0.023,0.536l0.035,0.536l0.093,0.536l0.14,0.523l0.198,0.502
		l0.257,0.478l0.303,0.442l0.338,0.42l0.396,0.372l0.42,0.326l0.455,0.292l0.489,0.232l0.501,0.188l0.525,0.128l0.536,0.081
		l0.548,0.012l0.536-0.035l0.525-0.094l25.16-5.884l0.094,0.269l0.151,0.244l0.198,0.198l0.231,0.151l0.27,0.094l0.278,0.022
		l0.281-0.022l0.268-0.094l0.233-0.151l0.198-0.198l0.151-0.232l0.094-0.269l0.035-0.279L117.038,95.019L117.038,95.019z"/>
	<polygon fill-rule="evenodd" clip-rule="evenodd" stroke="#000000" stroke-width="0.207" stroke-miterlimit="2.6131" points="
		118.007,100.063 118.099,100.063 118.205,100.075 118.274,100.109 118.367,100.156 118.448,100.203 118.53,100.262 
		118.588,100.331 118.646,100.401 118.775,100.553 118.869,100.739 118.949,100.948 119.021,101.146 121.061,108.906 
		121.118,109.128 121.154,109.338 121.177,109.56 121.201,109.78 121.201,109.99 121.177,110.2 121.165,110.41 121.13,110.608 
		121.071,110.794 121.025,111.004 120.942,111.189 120.873,111.377 120.78,111.563 120.687,111.727 120.57,111.901 120.466,112.053 
		120.35,112.216 120.221,112.367 120.081,112.508 119.94,112.636 119.8,112.752 119.65,112.868 119.486,112.973 119.334,113.065 
		119.183,113.159 119.009,113.24 118.833,113.3 118.682,113.346 118.506,113.392 118.343,113.428 118.169,113.438 118.007,113.451 
		117.831,113.438 117.655,113.428 117.492,113.392 117.318,113.346 117.167,113.3 116.991,113.24 116.815,113.159 116.664,113.065 
		116.513,112.973 116.35,112.868 116.198,112.752 116.058,112.636 115.918,112.508 115.779,112.367 115.661,112.216 
		115.534,112.053 115.43,111.901 115.312,111.727 115.218,111.563 115.127,111.377 115.056,111.189 114.976,111.004 
		114.915,110.794 114.868,110.608 114.835,110.41 114.799,110.2 114.799,109.99 114.799,109.78 114.823,109.56 114.846,109.338 
		114.882,109.128 114.939,108.906 116.979,101.146 117.049,100.948 117.132,100.739 117.225,100.553 117.352,100.401 
		117.412,100.331 117.47,100.262 117.55,100.203 117.633,100.156 117.726,100.109 117.795,100.075 117.913,100.063 118.007,100.063 
			"/>
	<polygon fill-rule="evenodd" clip-rule="evenodd" stroke="#000000" stroke-width="0.2068" stroke-miterlimit="2.6131" points="
		118.007,120.814 118.099,120.826 118.205,120.838 118.274,120.861 118.367,120.896 118.448,120.932 118.53,120.989 118.588,121.06 
		118.646,121.117 118.775,121.292 118.869,121.479 118.949,121.677 119.021,121.909 121.061,129.576 121.118,129.809 
		121.154,130.043 121.177,130.264 121.201,130.473 121.201,130.695 121.177,130.916 121.165,131.127 121.13,131.324 
		121.071,131.534 121.025,131.731 120.942,131.919 120.873,132.104 120.78,132.292 120.687,132.478 120.57,132.652 120.466,132.804 
		120.35,132.955 120.221,133.118 120.081,133.259 119.94,133.374 119.8,133.503 119.65,133.631 119.486,133.736 119.334,133.829 
		119.183,133.91 119.009,133.98 118.833,134.051 118.682,134.108 118.506,134.155 118.343,134.19 118.169,134.202 118.007,134.202 
		117.831,134.202 117.655,134.19 117.492,134.155 117.318,134.108 117.167,134.051 116.991,133.98 116.815,133.91 116.664,133.829 
		116.513,133.736 116.35,133.631 116.198,133.503 116.058,133.374 115.918,133.259 115.779,133.118 115.661,132.955 
		115.534,132.804 115.43,132.652 115.312,132.478 115.218,132.292 115.127,132.104 115.056,131.919 114.976,131.731 
		114.915,131.534 114.868,131.324 114.835,131.127 114.799,130.916 114.799,130.695 114.799,130.473 114.823,130.264 
		114.846,130.043 114.882,129.809 114.939,129.576 116.979,121.909 117.049,121.677 117.132,121.479 117.225,121.292 
		117.352,121.117 117.412,121.06 117.47,120.989 117.55,120.932 117.633,120.896 117.726,120.861 117.795,120.838 117.913,120.826 
		118.007,120.814 	"/>
	<polygon fill-rule="evenodd" clip-rule="evenodd" stroke="#000000" stroke-width="0.2068" stroke-miterlimit="2.6131" points="
		122.25,139.725 122.109,139.585 121.97,139.41 121.854,139.259 121.725,139.084 121.62,138.921 121.504,138.746 121.41,138.56 
		121.339,138.373 121.259,138.175 121.177,137.966 121.13,137.768 121.083,137.569 121.036,137.359 121.014,137.149 
		120.989,136.929 120.989,136.707 121.025,136.626 120.909,136.684 120.582,136.848 120.243,137.01 119.998,137.091 119.72,137.208 
		119.229,137.336 118.786,137.418 118.32,137.465 118.007,137.465 117.68,137.465 117.214,137.418 116.769,137.336 116.28,137.208 
		116,137.091 115.755,137.01 115.416,136.848 115.091,136.684 114.73,136.475 114.403,136.241 114.1,135.996 113.891,135.821 
		113.681,135.623 113.343,135.297 113.108,134.994 112.922,134.761 112.712,134.458 112.467,134.085 112.305,133.747 
		112.164,133.468 112.037,133.177 111.896,132.839 111.757,132.384 111.663,131.941 111.605,131.604 111.559,131.278 
		103.116,129.879 102.803,129.798 102.488,129.728 102.323,129.693 102.161,129.657 102.01,129.646 101.869,129.646 80.243,129.646 
		80.045,129.646 79.847,129.657 79.625,129.693 79.427,129.728 79.241,129.774 79.031,129.832 78.844,129.892 78.658,129.973 
		78.471,130.054 78.308,130.147 78.133,130.252 77.97,130.346 77.795,130.473 77.644,130.591 77.504,130.719 77.34,130.858 
		77.224,130.998 77.084,131.149 76.955,131.312 76.851,131.464 76.734,131.639 76.629,131.802 76.547,131.988 76.455,132.162 
		76.384,132.35 76.314,132.548 76.268,132.733 76.221,132.943 76.174,133.142 76.163,133.34 76.151,133.538 76.128,133.76 
		76.151,133.98 76.163,134.179 76.174,134.377 76.221,134.586 76.268,134.784 76.314,134.972 76.384,135.169 76.455,135.355 
		76.547,135.529 76.629,135.717 76.734,135.892 76.851,136.055 76.955,136.218 77.084,136.369 77.224,136.521 77.34,136.66 
		77.504,136.801 77.644,136.929 77.795,137.057 77.97,137.173 78.133,137.289 78.308,137.383 78.471,137.477 78.658,137.546 
		78.844,137.628 79.031,137.686 79.241,137.756 79.427,137.803 79.625,137.826 79.847,137.86 80.045,137.872 80.243,137.872 
		101.019,137.872 115.149,147.753 115.452,147.985 115.708,148.207 115.965,148.429 116.176,148.626 116.361,148.824 
		116.537,149.012 116.677,149.221 116.804,149.407 116.909,149.593 116.991,149.78 117.049,149.979 117.096,150.164 
		117.132,150.352 117.132,150.537 117.132,150.735 117.107,150.945 117.085,151.086 117.049,151.201 117.016,151.342 
		116.969,151.481 116.909,151.621 116.851,151.749 116.769,151.878 116.688,151.994 116.617,152.122 116.525,152.228 
		116.443,152.319 116.339,152.413 116.245,152.494 116.151,152.553 116.035,152.623 115.942,152.646 108.865,153.893 
		108.505,153.975 108.166,154.044 107.816,154.161 107.489,154.266 107.163,154.406 106.836,154.558 106.533,154.72 
		106.241,154.907 105.938,155.093 105.66,155.303 105.38,155.524 105.135,155.757 104.89,156.002 104.633,156.258 104.424,156.515 
		104.201,156.794 104.003,157.086 103.818,157.389 103.642,157.68 103.466,158.006 103.328,158.321 103.188,158.647 
		103.083,158.985 102.979,159.322 102.896,159.672 102.838,160.021 102.791,160.383 102.744,160.744 102.72,161.094 
		102.744,161.467 102.756,161.839 102.803,162.212 102.803,162.329 102.803,162.445 102.838,162.562 102.885,162.666 
		102.932,162.771 102.989,162.864 103.048,162.958 103.116,163.039 103.188,163.121 103.268,163.179 103.361,163.237 
		103.455,163.307 103.549,163.354 103.642,163.377 103.735,163.412 103.84,163.447 103.934,163.447 104.05,163.458 104.097,163.447 
		104.236,163.424 104.446,163.4 104.761,163.354 105.17,163.284 105.646,163.19 106.241,163.098 106.919,162.992 107.712,162.854 
		108.598,162.702 109.611,162.527 110.707,162.341 111.931,162.119 113.271,161.886 114.753,161.642 116.339,161.362 
		116.724,161.279 117.143,161.175 117.586,161.047 118.076,160.907 118.565,160.756 119.101,160.581 119.638,160.383 
		120.186,160.185 121.353,159.73 122.528,159.229 123.742,158.705 124.966,158.157 126.166,157.622 127.344,157.073 
		128.463,156.549 129.524,156.049 130.505,155.582 131.367,155.163 132.113,154.813 132.706,154.526 132.758,154.502 
		154.193,144.577 144.237,127.316 134.991,132.595 134.875,132.641 134.597,132.804 134.187,133.002 133.639,133.246 
		133.35,133.374 133.033,133.491 132.696,133.619 132.369,133.747 132.02,133.853 131.681,133.945 131.343,134.004 131.018,134.074 
		130.795,134.12 130.55,134.144 130.271,134.167 129.968,134.167 129.665,134.144 129.338,134.132 129.011,134.098 128.685,134.074 
		128.919,134.609 129.058,134.844 129.175,135.1 129.291,135.344 129.385,135.612 129.442,135.868 129.5,136.147 129.536,136.428 
		129.536,136.707 129.536,136.929 129.524,137.149 129.489,137.359 129.454,137.569 129.407,137.768 129.349,137.966 
		129.269,138.175 129.197,138.373 129.115,138.56 129.023,138.746 128.919,138.921 128.801,139.084 128.685,139.259 128.556,139.41 
		128.416,139.585 128.277,139.725 128.126,139.864 127.975,140.005 127.81,140.133 127.647,140.249 127.474,140.366 
		127.286,140.471 127.11,140.563 126.912,140.656 126.727,140.738 126.528,140.797 126.317,140.854 126.119,140.901 
		125.921,140.937 125.7,140.972 125.479,140.983 125.269,140.983 125.048,140.983 124.825,140.972 124.627,140.937 124.406,140.901 
		124.208,140.854 124.01,140.797 123.8,140.738 123.613,140.656 123.426,140.563 123.239,140.471 123.054,140.366 122.89,140.249 
		122.716,140.133 122.564,140.005 122.413,139.864 122.25,139.725 	"/>
	<polygon fill-rule="evenodd" clip-rule="evenodd" stroke="#000000" stroke-width="0.207" stroke-miterlimit="2.6131" points="
		92.38,149.932 92.298,149.804 92.228,149.687 92.146,149.546 92.1,149.418 91.995,149.139 91.925,148.86 91.878,148.58 
		91.867,148.289 91.878,148.009 91.925,147.729 91.995,147.45 92.088,147.182 92.205,146.914 92.345,146.669 92.52,146.424 
		92.706,146.202 92.928,146.005 93.161,145.818 94.327,145.038 104.518,142.3 106.533,143.64 96.496,150.712 96.367,150.781 
		96.25,150.864 96.122,150.945 95.982,151.003 95.703,151.097 95.422,151.154 95.143,151.201 94.863,151.225 94.583,151.201 
		94.292,151.154 94.023,151.097 93.744,151.003 93.487,150.875 93.231,150.735 92.998,150.572 92.765,150.386 92.567,150.164 
		92.38,149.932 	"/>
	<polygon fill-rule="evenodd" clip-rule="evenodd" stroke="#000000" stroke-width="0.2068" stroke-miterlimit="2.6131" points="
		102.954,141.216 100.401,139.504 85.315,139.504 85.082,139.643 84.872,139.807 84.674,139.993 84.499,140.179 84.335,140.377 
		84.195,140.575 84.067,140.809 83.962,141.041 83.869,141.274 83.811,141.531 83.741,141.775 83.729,142.043 83.718,142.3 
		83.729,142.568 83.776,142.835 83.834,143.092 83.916,143.396 84.032,143.675 84.172,143.932 84.335,144.188 84.522,144.42 
		84.72,144.618 84.953,144.805 85.187,144.979 85.455,145.12 85.711,145.225 85.991,145.318 86.271,145.376 86.574,145.423 
		86.877,145.423 87.017,145.41 87.18,145.399 87.332,145.376 87.483,145.353 102.954,141.216 	"/>
</g>
</svg>
