<?xml version="1.0" encoding="utf-8"?>
<!-- Generator: Adobe Illustrator 16.0.0, SVG Export Plug-In . SVG Version: 6.00 Build 0)  -->
<!DOCTYPE svg PUBLIC "-//W3C//DTD SVG 1.1//EN" "http://www.w3.org/Graphics/SVG/1.1/DTD/svg11.dtd">
<svg version="1.1" id="Layer_1" xmlns="http://www.w3.org/2000/svg" xmlns:xlink="http://www.w3.org/1999/xlink" x="0px" y="0px"
	 width="200px" height="200px" viewBox="0 0 200 200" enable-background="new 0 0 200 200" xml:space="preserve">
<g>
	<polygon fill-rule="evenodd" clip-rule="evenodd" fill="#FFF200" points="179.214,171.595 100,34.402 20.787,171.595 
		179.214,171.595 	"/>
	<path fill-rule="evenodd" clip-rule="evenodd" d="M179.214,171.595L100,34.402L20.787,171.595H179.214L179.214,171.595z
		 M189.554,182.971c3.033,0,5.446-2.414,5.446-5.378c0-1.103-0.345-2.137-0.896-3.033L104.481,19.442
		c-0.965-1.517-2.688-2.413-4.481-2.413c-1.792,0-3.516,0.896-4.55,2.413L5.896,174.56C5.344,175.456,5,176.49,5,177.593
		c0,2.964,2.413,5.378,5.446,5.378H189.554L189.554,182.971z"/>
	<polygon fill-rule="evenodd" clip-rule="evenodd" points="102.26,122.89 98.729,134.565 94.482,133.273 98.028,121.598 
		102.26,122.89 	"/>
	<polygon fill-rule="evenodd" clip-rule="evenodd" points="108.776,108.069 108.776,120.897 108.802,121.324 108.885,121.749 
		109.01,122.162 109.188,122.561 109.408,122.917 109.668,123.261 109.984,123.562 110.315,123.838 110.686,124.058 
		111.084,124.236 111.497,124.359 111.922,124.441 112.348,124.469 112.774,124.441 113.201,124.359 113.612,124.236 
		114.011,124.058 114.383,123.838 114.712,123.562 115.015,123.261 115.29,122.917 115.509,122.561 115.688,122.162 
		115.812,121.749 115.894,121.324 115.922,120.897 115.922,108.069 115.894,107.644 115.812,107.217 115.688,106.806 
		115.509,106.407 115.29,106.036 115.015,105.707 114.712,105.391 114.383,105.13 114.011,104.91 113.612,104.731 113.201,104.608 
		112.774,104.526 112.348,104.498 111.922,104.526 111.497,104.608 111.084,104.731 110.686,104.91 110.315,105.13 109.984,105.391 
		109.668,105.707 109.408,106.036 109.188,106.407 109.01,106.806 108.885,107.217 108.802,107.644 108.776,108.069 	"/>
	<polygon fill-rule="evenodd" clip-rule="evenodd" points="97.822,111.104 107.029,114.017 105.848,117.725 96.654,114.812 
		97.822,111.104 	"/>
	<polygon fill-rule="evenodd" clip-rule="evenodd" points="109.174,106.421 112.623,108.221 108.157,116.777 104.722,114.979 
		109.174,106.421 	"/>
	<polygon fill-rule="evenodd" clip-rule="evenodd" points="112.348,124.469 100.145,124.469 100.145,120.032 112.348,120.032 
		112.348,124.469 	"/>
	<polygon fill-rule="evenodd" clip-rule="evenodd" points="98.825,133.919 98.797,133.575 98.715,133.232 98.578,132.916 
		98.399,132.614 98.166,132.354 97.904,132.134 97.602,131.941 97.286,131.817 96.942,131.735 96.599,131.707 96.255,131.735 
		95.912,131.817 95.595,131.941 95.293,132.134 95.032,132.354 94.798,132.614 94.62,132.916 94.496,133.232 94.414,133.575 
		94.386,133.919 94.414,134.276 94.496,134.606 94.62,134.936 94.798,135.225 95.032,135.498 95.293,135.718 95.595,135.896 
		95.912,136.034 96.255,136.116 96.599,136.145 96.942,136.116 97.286,136.034 97.602,135.896 97.904,135.718 98.166,135.498 
		98.399,135.225 98.578,134.936 98.715,134.606 98.797,134.276 98.825,133.919 	"/>
	<polygon fill-rule="evenodd" clip-rule="evenodd" points="102.357,122.244 102.329,121.901 102.26,121.557 102.124,121.241 
		101.944,120.938 101.71,120.678 101.45,120.458 101.147,120.267 100.832,120.142 100.488,120.06 100.145,120.032 99.801,120.06 
		99.457,120.142 99.141,120.267 98.838,120.458 98.578,120.678 98.344,120.938 98.166,121.241 98.042,121.557 97.959,121.901 
		97.932,122.244 97.959,122.602 98.042,122.931 98.166,123.261 98.344,123.549 98.578,123.81 98.838,124.043 99.141,124.222 
		99.457,124.359 99.801,124.441 100.145,124.469 100.488,124.441 100.832,124.359 101.147,124.222 101.45,124.043 101.71,123.81 
		101.944,123.549 102.124,123.261 102.26,122.931 102.329,122.602 102.357,122.244 	"/>
	<polygon fill-rule="evenodd" clip-rule="evenodd" points="114.561,122.244 114.534,121.901 114.45,121.557 114.327,121.241 
		114.136,120.938 113.915,120.678 113.653,120.458 113.353,120.267 113.036,120.142 112.692,120.06 112.348,120.032 112.006,120.06 
		111.662,120.142 111.346,120.267 111.043,120.458 110.781,120.678 110.549,120.938 110.369,121.241 110.232,121.557 
		110.148,121.901 110.122,122.244 110.148,122.602 110.232,122.931 110.369,123.261 110.549,123.549 110.781,123.81 
		111.043,124.043 111.346,124.222 111.662,124.359 112.006,124.441 112.348,124.469 112.692,124.441 113.036,124.359 
		113.353,124.222 113.653,124.043 113.915,123.81 114.136,123.549 114.327,123.261 114.45,122.931 114.534,122.602 114.561,122.244 
			"/>
	<polygon fill-rule="evenodd" clip-rule="evenodd" points="116.223,99.513 116.21,99.072 116.128,98.647 116.018,98.221 
		115.84,97.822 115.634,97.438 115.385,97.081 115.098,96.766 114.768,96.477 114.409,96.216 114.025,96.01 113.627,95.845 
		113.214,95.721 112.774,95.653 112.348,95.625 111.908,95.653 111.482,95.721 111.07,95.845 110.657,96.01 110.287,96.216 
		109.93,96.477 109.599,96.766 109.311,97.081 109.063,97.438 108.843,97.822 108.679,98.221 108.556,98.647 108.486,99.072 
		108.458,99.513 108.486,99.938 108.556,100.378 108.679,100.79 108.843,101.188 109.063,101.572 109.311,101.93 109.599,102.26 
		109.93,102.547 110.287,102.795 110.657,103.001 111.07,103.165 111.482,103.29 111.908,103.372 112.348,103.385 112.774,103.372 
		113.214,103.29 113.627,103.165 114.025,103.001 114.409,102.795 114.768,102.547 115.098,102.26 115.385,101.93 115.634,101.572 
		115.84,101.188 116.018,100.79 116.128,100.378 116.21,99.938 116.223,99.513 	"/>
	<polygon fill-rule="evenodd" clip-rule="evenodd" points="112.844,107.314 112.815,107.012 112.746,106.724 112.638,106.435 
		112.472,106.174 112.278,105.94 112.045,105.748 111.785,105.583 111.497,105.473 111.207,105.404 110.906,105.377 
		110.604,105.404 110.3,105.473 110.025,105.583 109.766,105.748 109.531,105.94 109.324,106.174 109.174,106.435 109.051,106.724 
		108.981,107.012 108.953,107.314 108.981,107.616 109.051,107.918 109.174,108.192 109.324,108.453 109.531,108.687 
		109.766,108.894 110.025,109.044 110.3,109.168 110.604,109.237 110.906,109.264 111.207,109.237 111.497,109.168 111.785,109.044 
		112.045,108.894 112.278,108.687 112.472,108.453 112.638,108.192 112.746,107.918 112.815,107.616 112.844,107.314 	"/>
	<polygon fill-rule="evenodd" clip-rule="evenodd" points="108.378,115.87 108.35,115.568 108.28,115.267 108.17,114.991 
		108.006,114.73 107.812,114.497 107.579,114.305 107.319,114.14 107.029,114.03 106.741,113.962 106.438,113.934 106.137,113.962 
		105.834,114.03 105.56,114.14 105.297,114.305 105.063,114.497 104.873,114.73 104.706,114.991 104.598,115.267 104.516,115.568 
		104.501,115.87 104.516,116.174 104.598,116.476 104.706,116.749 104.873,117.011 105.063,117.244 105.297,117.437 105.56,117.602 
		105.834,117.725 106.137,117.794 106.438,117.807 106.741,117.794 107.029,117.725 107.319,117.602 107.579,117.437 
		107.812,117.244 108.006,117.011 108.17,116.749 108.28,116.476 108.35,116.174 108.378,115.87 	"/>
	<polygon fill-rule="evenodd" clip-rule="evenodd" points="99.182,112.959 99.155,112.656 99.086,112.354 98.962,112.079 
		98.811,111.818 98.605,111.585 98.372,111.394 98.124,111.228 97.835,111.104 97.547,111.036 97.231,111.021 96.929,111.036 
		96.64,111.104 96.351,111.228 96.09,111.394 95.87,111.585 95.664,111.818 95.513,112.079 95.39,112.354 95.321,112.656 
		95.293,112.959 95.321,113.262 95.39,113.563 95.513,113.838 95.664,114.1 95.87,114.332 96.09,114.524 96.351,114.689 
		96.64,114.8 96.929,114.868 97.231,114.896 97.547,114.868 97.835,114.8 98.124,114.689 98.372,114.524 98.605,114.332 
		98.811,114.1 98.962,113.838 99.086,113.563 99.155,113.262 99.182,112.959 	"/>
	<path fill-rule="evenodd" clip-rule="evenodd" d="M124.319,153.08l-0.015-0.536l-0.083-0.55l-0.123-0.521l-0.165-0.521
		l-0.233-0.495l-0.262-0.48l-0.301-0.454l-0.357-0.411l-0.386-0.385l-0.413-0.357l-0.452-0.302l-0.468-0.262l-0.509-0.22
		l-0.509-0.179l-0.535-0.123l-0.536-0.069l-0.55-0.027l-0.535,0.027l-0.55,0.069l-0.523,0.123l-0.522,0.179l-0.493,0.22
		l-0.482,0.262l-0.439,0.302l-0.427,0.357l-0.384,0.385l-0.344,0.411l-0.316,0.454l-0.262,0.48l-0.219,0.495l-0.18,0.521
		l-0.123,0.521l-0.069,0.55l-0.026,0.536l0.026,0.549l0.069,0.536l0.123,0.535l0.18,0.508l0.219,0.509l0.262,0.467l0.316,0.453
		l0.344,0.427l0.384,0.385l0.427,0.343l0.439,0.302l0.482,0.275l0.493,0.22l0.522,0.164l0.523,0.124l0.55,0.082l0.535,0.028
		l0.55-0.028l0.536-0.082l0.535-0.124l0.509-0.164l0.509-0.22l0.468-0.275l0.452-0.302l0.413-0.343l0.386-0.385l0.357-0.427
		l0.301-0.453l0.262-0.467l0.233-0.509l0.165-0.508l0.123-0.535l0.083-0.536L124.319,153.08L124.319,153.08z M83.68,154.59
		l-0.028-0.466l-0.068-0.454l-0.124-0.439l-0.165-0.426l-0.207-0.412l-0.247-0.384l-0.289-0.357l-0.33-0.33l-0.357-0.288
		l-0.385-0.247l-0.412-0.22l-0.426-0.165l-0.44-0.109l-0.467-0.083l-0.454-0.014l-0.454,0.014l-0.453,0.083l-0.454,0.109
		l-0.426,0.165l-0.412,0.22l-0.385,0.247l-0.357,0.288l-0.33,0.33l-0.288,0.357l-0.248,0.384l-0.206,0.412l-0.165,0.426
		l-0.124,0.439l-0.069,0.454l-0.027,0.466l0.027,0.454l0.069,0.453l0.124,0.454l0.165,0.425l0.206,0.412l0.248,0.385l0.288,0.357
		l0.33,0.316l0.357,0.302l0.385,0.247l0.412,0.206l0.426,0.165l0.454,0.123l0.453,0.068l0.454,0.028l0.454-0.028l0.467-0.068
		l0.44-0.123l0.426-0.165l0.412-0.206l0.385-0.247l0.357-0.302l0.33-0.316l0.289-0.357l0.247-0.385l0.207-0.412l0.165-0.425
		l0.124-0.454l0.068-0.453L83.68,154.59L83.68,154.59z M140.522,128.617v25.904h-11.874l-0.125,0.729l-0.178,0.714l-0.233,0.7
		l-0.275,0.688l-0.329,0.659l-0.385,0.632l-0.414,0.604l-0.466,0.577l-0.495,0.549l-0.55,0.509l-0.563,0.452l-0.618,0.427
		l-0.633,0.384l-0.66,0.33l-0.673,0.274l-0.715,0.233l-0.714,0.193l-0.728,0.123l-0.729,0.082l-0.742,0.027l-0.728-0.027
		l-0.743-0.082l-0.729-0.123l-0.714-0.193l-0.699-0.233l-0.688-0.274l-0.66-0.33l-0.632-0.384l-0.604-0.427l-0.578-0.452
		l-0.535-0.509l-0.508-0.549l-0.455-0.577l-0.425-0.604l-0.372-0.632l-0.329-0.659l-0.288-0.688l-0.221-0.7l-0.192-0.714
		l-0.123-0.729H88.105l-0.014,0.66l-0.068,0.659l-0.124,0.645l-0.165,0.646l-0.22,0.631l-0.261,0.605l-0.302,0.59l-0.357,0.563
		l-0.385,0.535l-0.439,0.509l-0.454,0.467l-0.508,0.439l-0.536,0.385l-0.55,0.357l-0.591,0.315l-0.605,0.261l-0.632,0.221
		l-0.632,0.178l-0.66,0.124l-0.66,0.068l-0.66,0.027l-0.659-0.027l-0.66-0.068l-0.66-0.124l-0.632-0.178l-0.632-0.221l-0.605-0.261
		l-0.578-0.315l-0.563-0.357l-0.536-0.385l-0.495-0.439l-0.468-0.467l-0.439-0.509l-0.385-0.535l-0.357-0.563l-0.303-0.59
		l-0.261-0.605l-0.22-0.631l-0.165-0.646l-0.11-0.645l-0.083-0.659l-0.014-0.66h-8.067l-2.611,6.744l-18.911-5.769l1.608-5.185
		l14.06,4.292l30.414-78.813l5.071,1.951l-24.147,62.551h4.439L91.06,91.724l0.248-0.576l0.289-0.536l0.33-0.535l0.385-0.494
		l0.413-0.454l0.454-0.439l0.481-0.384l0.508-0.357l0.536-0.303l0.563-0.261l0.577-0.22l0.605-0.179l0.604-0.123l0.619-0.069
		l0.618-0.027h18.36l0.591,0.027l0.591,0.069l0.578,0.123l0.576,0.165l0.552,0.22l0.535,0.262l0.509,0.302l0.495,0.343l0.453,0.385
		l0.411,0.427l0.385,0.453l0.345,0.479l0.303,0.509l0.26,0.535l0.221,0.563l0.178,0.563l0.11,0.591l0.082,0.591l0.028,0.59v28.006
		h10.019l0.578,0.027l0.576,0.082l0.564,0.125l0.55,0.179l0.535,0.22l0.521,0.261l0.482,0.316l0.466,0.356l0.427,0.385l0.385,0.426
		l0.357,0.466l0.316,0.481l0.262,0.522l0.219,0.535l0.18,0.55l0.123,0.563l0.082,0.576L140.522,128.617L140.522,128.617z
		 M119.193,93.963v28.006h-14.775v11.964H83.117l11.75-17.278l1.731,2.156l0.179,0.179l0.206,0.123l0.234,0.082l0.247,0.027
		l0.248-0.027l0.234-0.082l0.206-0.123l0.179-0.179l0.137-0.207l0.083-0.232l0.027-0.248l-0.027-0.247l-0.083-0.233l-0.137-0.22
		l-4.838-6.044l-0.179-0.179l-0.22-0.123l-0.234-0.082l-0.247-0.027l-0.234,0.027l-0.234,0.082l-0.22,0.123l-0.165,0.179
		l-0.138,0.206l-0.083,0.233l-0.027,0.248l0.027,0.247l0.083,0.233l0.138,0.22l1.731,2.156l-12.933,19.01h-1.044l15.681-40.614
		l0.165-0.357l0.207-0.344l0.247-0.315l0.275-0.275l0.316-0.247l0.343-0.206l0.371-0.165l0.371-0.123l0.399-0.069l0.398-0.027
		h18.142l0.357,0.027l0.357,0.069l0.344,0.123l0.316,0.151l0.301,0.206l0.274,0.233l0.234,0.274l0.205,0.303l0.165,0.329l0.11,0.344
		l0.069,0.356L119.193,93.963L119.193,93.963z"/>
</g>
</svg>
