<?xml version="1.0" encoding="utf-8"?>
<!-- Generator: Adobe Illustrator 16.0.0, SVG Export Plug-In . SVG Version: 6.00 Build 0)  -->
<!DOCTYPE svg PUBLIC "-//W3C//DTD SVG 1.1//EN" "http://www.w3.org/Graphics/SVG/1.1/DTD/svg11.dtd">
<svg version="1.1" id="Layer_1" xmlns="http://www.w3.org/2000/svg" xmlns:xlink="http://www.w3.org/1999/xlink" x="0px" y="0px"
	 width="200px" height="200px" viewBox="0 0 200 200" enable-background="new 0 0 200 200" xml:space="preserve">
<g>
	
		<polygon fill-rule="evenodd" clip-rule="evenodd" fill="#231F20" stroke="#231F20" stroke-width="0.1221" stroke-miterlimit="2.6131" points="
		194.242,174.801 104.757,19.684 104.205,18.857 103.517,18.236 102.758,17.685 101.861,17.271 100.966,16.996 100,16.927 
		99.035,16.996 98.069,17.271 97.243,17.685 96.416,18.236 95.794,18.857 95.243,19.684 5.758,174.801 5.345,175.696 5.069,176.593 
		5,177.559 5.069,178.523 5.345,179.488 5.758,180.315 6.31,181.144 6.931,181.763 7.757,182.314 8.585,182.729 9.55,183.004 
		10.515,183.073 189.485,183.073 190.45,183.004 191.346,182.729 192.243,182.314 193.001,181.763 193.69,181.144 194.242,180.315 
		194.656,179.488 194.931,178.523 195,177.559 194.931,176.593 194.656,175.696 194.242,174.801 	"/>
	
		<polygon fill-rule="evenodd" clip-rule="evenodd" fill="#FFF200" stroke="#231F20" stroke-width="0.1221" stroke-miterlimit="2.6131" points="
		100,34.23 179.281,171.698 20.718,171.698 100,34.23 	"/>
	
		<polygon fill-rule="evenodd" clip-rule="evenodd" fill="#231F20" stroke="#403C3D" stroke-width="0.2068" stroke-miterlimit="2.6131" points="
		92.659,66.73 108.689,66.73 89.363,110.029 115.73,95.347 101.198,148.534 108.689,143.739 94.307,164.715 90.262,140.593 
		95.355,147.635 100.6,109.88 76.627,123.214 92.659,66.73 	"/>
</g>
</svg>
