<?xml version="1.0" encoding="UTF-8"?>
<!DOCTYPE svg PUBLIC "-//W3C//DTD SVG 1.1//EN" "http://www.w3.org/Graphics/SVG/1.1/DTD/svg11.dtd">
<!-- Creator: CorelDRAW X8 -->
<svg xmlns="http://www.w3.org/2000/svg" xml:space="preserve" width="16.9332mm" height="12.6998mm" version="1.1" style="shape-rendering:geometricPrecision; text-rendering:geometricPrecision; image-rendering:optimizeQuality; fill-rule:evenodd; clip-rule:evenodd"
viewBox="0 0 1693 1270"
 xmlns:xlink="http://www.w3.org/1999/xlink">
 <defs>
  <style type="text/css">
   <![CDATA[
    .str0 {stroke:#2B2A29;stroke-width:20}
    .str1 {stroke:#21251E;stroke-width:41.81}
    .str3 {stroke:#21251E;stroke-width:29.87}
    .str2 {stroke:#21251E;stroke-width:32.85}
    .fil2 {fill:none}
    .fil3 {fill:none;fill-rule:nonzero}
    .fil4 {fill:#B8292F}
    .fil1 {fill:#2B2A29;fill-rule:nonzero}
    .fil0 {fill:#FFED00;fill-rule:nonzero}
   ]]>
  </style>
 </defs>
 <g id="Layer_x0020_1">
  <metadata id="CorelCorpID_0Corel-Layer"/>
  <g id="_1361251440">
   <polygon class="fil0" points="851,146 275,1148 1416,1148 "/>
   <path class="fil1" d="M286 1142l564 -983 555 983 -1119 0zm1224 12l-619 -1088c0,0 -9,-24 -40,-24 -30,0 -44,24 -44,24l-623 1085c0,0 -15,27 -1,52 0,0 15,25 40,25l1240 0c0,0 34,1 47,-25 11,-22 6,-39 0,-49z"/>
   <path class="fil1" d="M755 451l40 378c0,0 9,47 49,47 45,0 52,-46 52,-46l42 -380c0,0 -6,-92 -91,-92 -92,0 -92,93 -92,93z"/>
   <path class="fil1" d="M848 1106c50,0 90,-40 90,-90 0,-50 -40,-90 -90,-90 -50,0 -90,40 -90,90 0,50 40,90 90,90z"/>
  </g>
  <rect class="fil2 str0" x="-2048" y="-22" width="1693" height="1270"/>
  <g id="ISO_7010_2011-P002.eps">
   <polyline class="fil3 str1" points="-1322,926 -809,579 -859,504 -1372,851 "/>
   <path class="fil3 str2" d="M-1373 984l-73 -108m113 81l-73 -108"/>
   <path class="fil3 str3" d="M-1473 453c14,19 10,61 -10,73 -7,4 -6,5 -13,9 -47,28 -28,78 -5,88 16,9 29,6 60,4 34,-3 45,4 55,21 18,28 2,54 -20,77 -11,12 -16,19 -20,46 -3,21 -1,43 15,66m-152 -326c13,18 6,44 -12,59 -6,6 -5,6 -11,11 -42,36 -16,82 8,89 18,5 28,2 58,-3 25,-4 40,4 51,21 11,18 -5,44 -9,74 -2,13 -5,23 -1,39 1,8 11,40 27,64"/>
   <path class="fil4" d="M-902 980l-667 -667 -15 20 -14 19 -12 21 -12 21 -11 21 -9 22 -9 23 -7 23 -6 23 -5 23 -3 24 -3 24 -1 24 0 24 1 24 3 24 3 24 5 23 6 24 7 23 9 22 9 22 11 22 12 21 12 20 14 20 15 19 15 18 17 18 17 16 18 16 19 15 20 13 21 13 21 12 21 10 22 10 23 8 23 7 23 6 24 5 23 4 25 2 24 1 24 0 24 -1 23 -2 24 -4 24 -5 23 -6 23 -7 23 -9 22 -9 21 -10 21 -12 21 -13 20 -14 18 -15 0 0zm293 -366l0 -1 -1 -26 -2 -27 -3 -26 -4 -26 -5 -27 -7 -25 -7 -26 -9 -25 -10 -25 -11 -24 -12 -23 -13 -24 -14 -22 -16 -22 -16 -21 -17 -21 -17 -19 -19 -19 -20 -18 -20 -17 -21 -16 -22 -15 -23 -14 -23 -13 -24 -13 -24 -11 -25 -9 -25 -9 -25 -8 -26 -7 -26 -5 -26 -4 -27 -3 -26 -2 -26 0 -1 0 -26 0 -27 2 -26 3 -27 4 -26 5 -26 7 -25 8 -25 9 -25 9 -24 11 -24 13 -23 13 -22 14 -22 15 -21 16 -21 17 -19 18 -19 19 -18 19 -17 21 -16 21 -15 22 -15 22 -13 24 -12 23 -11 24 -10 25 -9 25 -7 26 -7 25 -5 27 -4 26 -3 26 -2 27 0 26 0 27 2 26 3 27 4 26 5 26 7 26 7 26 9 25 10 24 11 25 12 23 13 23 15 23 15 22 16 21 17 20 18 20 19 19 19 18 21 17 21 16 22 15 22 14 23 13 24 13 24 10 25 10 25 9 25 8 26 6 26 6 27 3 26 3 27 3 26 0 27 0 26 -3 27 -3 26 -3 26 -6 26 -6 25 -8 25 -9 25 -10 24 -10 24 -13 23 -13 23 -14 22 -15 21 -16 20 -17 20 -18 19 -19 17 -20 17 -20 16 -21 16 -22 14 -23 13 -23 12 -23 11 -25 10 -24 9 -25 7 -26 7 -26 5 -26 4 -26 3 -27 2 -26 1 -26zm-226 300l15 -19 14 -20 13 -21 11 -21 11 -21 9 -22 9 -23 7 -23 6 -23 5 -24 3 -23 3 -25 1 -23 0 -24 -1 -24 -2 -24 -4 -24 -5 -24 -6 -23 -7 -23 -8 -23 -10 -21 -11 -22 -11 -21 -13 -21 -13 -19 -15 -19 -16 -18 -17 -18 -17 -16 -18 -16 -19 -15 -20 -14 -20 -12 -21 -12 -22 -11 -22 -9 -23 -9 -22 -7 -24 -6 -23 -5 -24 -3 -24 -3 -24 -1 -24 0 -24 1 -24 3 -24 4 -24 4 -23 6 -23 8 -22 8 -22 10 -22 10 -21 12 -20 13 -20 13 -19 15 667 668 0 0z"/>
  </g>
 </g>
</svg>
