<?xml version="1.0" encoding="utf-8"?>
<!-- Generator: Adobe Illustrator 16.0.0, SVG Export Plug-In . SVG Version: 6.00 Build 0)  -->
<!DOCTYPE svg PUBLIC "-//W3C//DTD SVG 1.1//EN" "http://www.w3.org/Graphics/SVG/1.1/DTD/svg11.dtd">
<svg version="1.1" id="Layer_1" xmlns="http://www.w3.org/2000/svg" xmlns:xlink="http://www.w3.org/1999/xlink" x="0px" y="0px"
	 width="200px" height="200px" viewBox="0 0 200 200" enable-background="new 0 0 200 200" xml:space="preserve">
<g>
	<rect x="28.75" y="5" fill="#FFFFFF" stroke="#231F20" stroke-miterlimit="10" width="142.5" height="190"/>
	<rect x="36.432" y="82.272" fill="#FFF100" width="126.725" height="105.501"/>
	<polyline fill="#FFF100" points="99.651,16.317 67.204,72.854 131.529,72.854 	"/>
	<path fill="#231F20" d="M136.86,73.181l-34.917-61.363c0,0-0.533-1.328-2.255-1.328c-1.721,0-2.517,1.328-2.517,1.328l-35.094,61.2
		c0,0-0.888,1.511-0.07,2.926c0,0,0.84,1.394,2.231,1.394h69.971c0,0,1.876,0.052,2.631-1.413
		C137.468,74.697,137.163,73.751,136.86,73.181 M67.838,72.524l31.806-55.427L130.9,72.524H67.838z"/>
	<path fill="#231F20" d="M94.267,33.521l2.254,21.344c0,0,0.533,2.65,2.742,2.65c2.566,0,2.958-2.609,2.958-2.609l2.342-21.428
		c0,0-0.29-5.165-5.126-5.165C94.27,28.312,94.267,33.521,94.267,33.521"/>
	<path fill="#231F20" d="M99.5,70.487c2.815,0,5.096-2.277,5.096-5.091c0-2.812-2.281-5.088-5.096-5.088
		c-2.806,0-5.084,2.277-5.084,5.088C94.416,68.209,96.694,70.487,99.5,70.487"/>
</g>
</svg>
