<?xml version="1.0" encoding="utf-8"?>
<!-- Generator: Adobe Illustrator 16.0.0, SVG Export Plug-In . SVG Version: 6.00 Build 0)  -->
<!DOCTYPE svg PUBLIC "-//W3C//DTD SVG 1.1//EN" "http://www.w3.org/Graphics/SVG/1.1/DTD/svg11.dtd">
<svg version="1.1" id="Layer_1" xmlns="http://www.w3.org/2000/svg" xmlns:xlink="http://www.w3.org/1999/xlink" x="0px" y="0px"
	 width="200px" height="200px" viewBox="0 0 200 200" enable-background="new 0 0 200 200" xml:space="preserve">
<g>
	<g>
		<g>
			<rect x="5" y="114.997" fill="#FFF200" width="190" height="61.754"/>
			<path fill="none" stroke="#231F20" d="M195,176.751 M5.002,176.751H195v-61.754H5.002V176.751z"/>
			<path fill="#231F20" d="M81.905,122.84h9.29c5.58,0,9.772,3.498,9.772,10.646c0,6.241-3.199,10.889-9.772,10.889h-9.29
				 M86.639,140.396h4.222c2.746,0,5.369-1.689,5.369-6.456c0-4.344-1.507-7.119-6.213-7.119h-3.378V140.396z"/>
			<path fill="#231F20" d="M103.623,133.578c0.239-4.013,3.829-5.219,7.327-5.219c3.109,0,6.848,0.693,6.848,4.433v8.113
				c0,1.417,0.15,2.838,0.543,3.47h-4.343c-0.15-0.484-0.272-0.995-0.305-1.509c-1.355,1.417-3.345,1.931-5.246,1.931
				c-2.955,0-5.309-1.476-5.309-4.677c0-3.528,2.654-4.373,5.309-4.732c2.625-0.393,5.066-0.303,5.066-2.052
				c0-1.84-1.267-2.111-2.772-2.111c-1.63,0-2.684,0.664-2.838,2.354 M113.514,136.742c-0.724,0.636-2.232,0.665-3.558,0.907
				c-1.329,0.271-2.533,0.723-2.533,2.291c0,1.597,1.233,1.993,2.624,1.993c3.349,0,3.467-2.654,3.467-3.591V136.742z"/>
			<path fill="#231F20" d="M121.116,128.781h4.071v2.172h0.089c1.086-1.75,2.958-2.594,4.769-2.594c4.552,0,5.697,2.564,5.697,6.425
				v9.591h-4.281v-8.808c0-2.562-0.755-3.829-2.745-3.829c-2.324,0-3.319,1.296-3.319,4.464v8.173h-4.28"/>
			<path fill="#231F20" d="M153.992,143.38c0,2.562-0.903,6.906-8.085,6.906c-3.076,0-6.666-1.446-6.876-5.005h4.252
				c0.393,1.598,1.688,2.141,3.197,2.141c2.383,0,3.47-1.63,3.439-3.862v-2.049h-0.062c-0.933,1.627-2.806,2.412-4.674,2.412
				c-4.674,0-6.667-3.561-6.667-7.845c0-4.039,2.324-7.719,6.696-7.719c2.053,0,3.62,0.693,4.645,2.502h0.062v-2.08h4.072
				 M149.92,136.379c0-2.529-0.873-4.793-3.648-4.793c-2.416,0-3.47,2.113-3.47,4.434c0,2.231,0.845,4.673,3.47,4.673
				C148.713,140.692,149.92,138.611,149.92,136.379"/>
			<path fill="#231F20" d="M160.96,137.616c0.121,2.717,1.446,3.954,3.829,3.954c1.721,0,3.108-1.058,3.381-2.02h3.77
				c-1.207,3.679-3.77,5.246-7.302,5.246c-4.915,0-7.962-3.378-7.962-8.205c0-4.674,3.227-8.232,7.962-8.232
				c5.309,0,7.875,4.464,7.574,9.257 M167.928,134.903c-0.393-2.17-1.329-3.317-3.41-3.317c-2.714,0-3.499,2.113-3.558,3.317
				H167.928z"/>
			<path fill="#231F20" d="M174.741,128.781h4.075v2.895h0.059c0.782-1.959,2.896-3.316,4.975-3.316c0.305,0,0.664,0.06,0.939,0.15
				v3.981c-0.393-0.092-1.027-0.151-1.538-0.151c-3.139,0-4.226,2.262-4.226,5.005v7.03h-4.284"/>
			<polyline fill="#231F20" points="82.576,154.892 85.908,154.892 88.428,162.295 88.458,162.295 90.84,154.892 94.173,154.892 
				94.173,165.659 91.956,165.659 91.956,158.026 91.927,158.026 89.287,165.659 87.462,165.659 84.823,158.102 84.793,158.102 
				84.793,165.659 82.576,165.659 			"/>
			<path fill="#231F20" d="M95.938,160.259c0.121-2.003,1.916-2.608,3.666-2.608c1.553,0,3.424,0.347,3.424,2.219v4.055
				c0,0.707,0.075,1.418,0.271,1.735h-2.174c-0.076-0.242-0.136-0.498-0.151-0.753c-0.677,0.707-1.673,0.965-2.622,0.965
				c-1.479,0-2.655-0.742-2.655-2.34c0-1.764,1.327-2.187,2.655-2.366c1.311-0.196,2.532-0.153,2.532-1.024
				c0-0.923-0.633-1.057-1.388-1.057c-0.814,0-1.342,0.33-1.416,1.175 M100.884,161.843c-0.361,0.317-1.115,0.334-1.78,0.452
				c-0.662,0.137-1.266,0.362-1.266,1.148c0,0.798,0.618,0.991,1.312,0.991c1.673,0,1.733-1.325,1.733-1.793V161.843z"/>
			<path fill="#231F20" d="M106.886,156.655h-2.141v-1.764h2.141V156.655z M104.745,157.859h2.141v7.8h-2.141V157.859z"/>
			<path fill="#231F20" d="M108.574,157.859h2.036v1.087h0.046c0.543-0.874,1.479-1.296,2.383-1.296c2.277,0,2.851,1.283,2.851,3.21
				v4.799h-2.141v-4.402c0-1.283-0.376-1.918-1.371-1.918c-1.162,0-1.659,0.648-1.659,2.232v4.088h-2.145"/>
			<path fill="#231F20" d="M119.179,163.126c0.013,0.936,0.799,1.309,1.643,1.309c0.619,0,1.404-0.238,1.404-0.991
				c0-0.648-0.89-0.877-2.432-1.208c-1.233-0.271-2.471-0.71-2.471-2.081c0-1.99,1.718-2.504,3.394-2.504
				c1.702,0,3.272,0.572,3.437,2.49h-2.036c-0.062-0.831-0.693-1.057-1.463-1.057c-0.484,0-1.191,0.092-1.191,0.723
				c0,0.77,1.205,0.874,2.429,1.162c1.251,0.288,2.472,0.736,2.472,2.187c0,2.052-1.777,2.716-3.559,2.716
				c-1.81,0-3.573-0.681-3.665-2.745"/>
			<polyline fill="#231F20" points="134.122,165.659 131.74,165.659 129.072,157.859 131.317,157.859 132.961,163.185 
				132.99,163.185 134.633,157.859 136.761,157.859 			"/>
			<path fill="#231F20" d="M141.438,157.65c2.458,0,4.042,1.63,4.042,4.117c0,2.474-1.584,4.104-4.042,4.104
				c-2.445,0-4.026-1.63-4.026-4.104C137.411,159.28,138.992,157.65,141.438,157.65 M141.438,164.258
				c1.463,0,1.898-1.253,1.898-2.49c0-1.254-0.436-2.504-1.898-2.504c-1.45,0-1.886,1.25-1.886,2.504
				C139.552,163.005,139.987,164.258,141.438,164.258"/>
			<line fill="none" stroke="#231F20" stroke-width="2.1415" x1="147.996" y1="165.659" x2="147.996" y2="154.892"/>
			<path fill="#231F20" d="M153.472,157.859h1.567v1.434h-1.567v3.862c0,0.723,0.18,0.906,0.903,0.906
				c0.226,0,0.438-0.017,0.664-0.062v1.675c-0.363,0.06-0.828,0.072-1.25,0.072c-1.312,0-2.462-0.298-2.462-1.853v-4.602h-1.296
				v-1.434h1.296v-2.337h2.145"/>
			<path fill="#231F20" d="M155.976,160.259c0.12-2.003,1.914-2.608,3.662-2.608c1.554,0,3.426,0.347,3.426,2.219v4.055
				c0,0.707,0.076,1.418,0.269,1.735h-2.17c-0.075-0.242-0.137-0.498-0.15-0.753c-0.681,0.707-1.676,0.965-2.625,0.965
				c-1.479,0-2.653-0.742-2.653-2.34c0-1.764,1.328-2.187,2.653-2.366c1.312-0.196,2.533-0.153,2.533-1.024
				c0-0.923-0.632-1.057-1.388-1.057c-0.814,0-1.342,0.33-1.417,1.175 M160.92,161.843c-0.359,0.317-1.115,0.334-1.78,0.452
				c-0.661,0.137-1.267,0.362-1.267,1.148c0,0.798,0.619,0.991,1.312,0.991c1.676,0,1.734-1.325,1.734-1.793V161.843z"/>
			<path fill="#231F20" d="M172.218,165.161c0,1.283-0.455,3.453-4.042,3.453c-1.538,0-3.335-0.724-3.439-2.504h2.127
				c0.197,0.802,0.845,1.07,1.598,1.07c1.191,0,1.734-0.812,1.719-1.928v-1.027h-0.03c-0.468,0.814-1.4,1.207-2.337,1.207
				c-2.336,0-3.331-1.78-3.331-3.921c0-2.022,1.158-3.861,3.348-3.861c1.024,0,1.81,0.347,2.32,1.253h0.03v-1.044h2.038
				 M170.18,161.663c0-1.267-0.436-2.399-1.823-2.399c-1.208,0-1.735,1.054-1.735,2.219c0,1.116,0.423,2.337,1.735,2.337
				C169.577,163.819,170.18,162.779,170.18,161.663"/>
			<path fill="#231F20" d="M175.7,162.281c0.06,1.358,0.724,1.977,1.915,1.977c0.86,0,1.555-0.53,1.688-1.015h1.885
				c-0.602,1.843-1.885,2.628-3.648,2.628c-2.458,0-3.98-1.691-3.98-4.104c0-2.337,1.614-4.117,3.98-4.117
				c2.654,0,3.937,2.231,3.786,4.631 M179.183,160.923c-0.193-1.086-0.661-1.659-1.702-1.659c-1.358,0-1.751,1.054-1.78,1.659
				H179.183z"/>
		</g>
		<g>
			
				<polygon fill-rule="evenodd" clip-rule="evenodd" fill="#231F20" stroke="#231F20" stroke-width="0.0364" stroke-miterlimit="2.6131" points="
				68.132,169.515 41.473,123.304 41.308,123.057 41.104,122.871 40.877,122.708 40.61,122.585 40.344,122.503 40.056,122.482 
				39.769,122.503 39.48,122.585 39.234,122.708 38.988,122.871 38.803,123.057 38.638,123.304 11.979,169.515 11.856,169.782 
				11.773,170.048 11.753,170.336 11.773,170.624 11.856,170.912 11.979,171.157 12.143,171.406 12.328,171.589 12.574,171.753 
				12.821,171.877 13.109,171.959 13.396,171.979 66.715,171.979 67.002,171.959 67.269,171.877 67.537,171.753 67.762,171.589 
				67.968,171.406 68.132,171.157 68.255,170.912 68.338,170.624 68.358,170.336 68.338,170.048 68.255,169.782 68.132,169.515 			
				"/>
			
				<polygon fill-rule="evenodd" clip-rule="evenodd" fill="#FFF200" stroke="#231F20" stroke-width="0.0364" stroke-miterlimit="2.6131" points="
				40.056,127.637 63.675,168.591 16.437,168.591 40.056,127.637 			"/>
			
				<polygon fill-rule="evenodd" clip-rule="evenodd" fill="#231F20" stroke="#231F20" stroke-width="0.0616" stroke-miterlimit="2.6131" points="
				37.869,137.318 42.645,137.318 36.887,150.218 44.742,145.844 40.412,161.688 42.645,160.262 38.359,166.51 37.154,159.322 
				38.672,161.421 40.234,150.175 33.093,154.145 37.869,137.318 			"/>
		</g>
	</g>
	<g>
		<g>
			<rect x="5" y="28.249" fill="#FFF200" width="190" height="61.748"/>
			<path fill="none" stroke="#231F20" d="M195,89.997 M5,89.997h190V28.249H5V89.997z"/>
			<path fill="#231F20" d="M81.473,35.174h9.29c5.58,0,9.772,3.499,9.772,10.648c0,6.243-3.198,10.889-9.772,10.889h-9.29
				 M86.208,52.729h4.222c2.744,0,5.369-1.69,5.369-6.455c0-4.344-1.509-7.117-6.213-7.117h-3.377V52.729z"/>
			<path fill="#231F20" d="M103.189,45.912c0.238-4.012,3.831-5.217,7.329-5.217c3.106,0,6.847,0.694,6.847,4.434v8.113
				c0,1.417,0.15,2.834,0.544,3.469h-4.345c-0.15-0.484-0.271-0.995-0.302-1.509c-1.356,1.417-3.348,1.931-5.248,1.931
				c-2.955,0-5.308-1.479-5.308-4.675c0-3.529,2.654-4.374,5.308-4.735c2.624-0.392,5.066-0.303,5.066-2.051
				c0-1.839-1.267-2.111-2.773-2.111c-1.63,0-2.686,0.663-2.836,2.352 M113.081,49.079c-0.723,0.635-2.23,0.664-3.559,0.906
				c-1.326,0.271-2.533,0.724-2.533,2.291c0,1.599,1.237,1.991,2.625,1.991c3.348,0,3.467-2.654,3.467-3.588V49.079z"/>
			<path fill="#231F20" d="M120.681,41.118h4.075v2.171h0.09c1.087-1.749,2.953-2.594,4.765-2.594c4.555,0,5.702,2.562,5.702,6.423
				v9.593h-4.284v-8.807c0-2.564-0.753-3.831-2.745-3.831c-2.321,0-3.316,1.298-3.316,4.462v8.176h-4.286"/>
			<path fill="#231F20" d="M153.56,55.716c0,2.562-0.906,6.904-8.085,6.904c-3.077,0-6.666-1.445-6.877-5.006h4.253
				c0.392,1.601,1.689,2.144,3.199,2.144c2.381,0,3.466-1.63,3.437-3.861v-2.053h-0.061c-0.933,1.63-2.805,2.416-4.675,2.416
				c-4.676,0-6.665-3.562-6.665-7.844c0-4.042,2.322-7.721,6.694-7.721c2.052,0,3.62,0.694,4.646,2.502h0.061v-2.079h4.073
				 M149.486,48.719c0-2.535-0.875-4.798-3.648-4.798c-2.414,0-3.47,2.112-3.47,4.435c0,2.232,0.845,4.676,3.47,4.676
				C148.28,53.031,149.486,50.949,149.486,48.719"/>
			<path fill="#231F20" d="M160.525,49.954c0.121,2.715,1.448,3.952,3.831,3.952c1.719,0,3.106-1.057,3.378-2.022h3.771
				c-1.206,3.682-3.771,5.249-7.299,5.249c-4.917,0-7.963-3.377-7.963-8.204c0-4.674,3.228-8.233,7.963-8.233
				c5.309,0,7.871,4.463,7.57,9.259 M167.493,47.239c-0.393-2.171-1.327-3.318-3.408-3.318c-2.715,0-3.499,2.112-3.56,3.318H167.493
				z"/>
			<path fill="#231F20" d="M174.31,41.118h4.072v2.895h0.061c0.784-1.961,2.896-3.317,4.977-3.317c0.302,0,0.663,0.06,0.935,0.15
				v3.981c-0.391-0.092-1.024-0.15-1.538-0.15c-3.137,0-4.222,2.262-4.222,5.006v7.028h-4.284"/>
			<path fill="#231F20" d="M82.492,72.707c-0.116-3.754,2.018-6.641,5.959-6.641c3.003,0,5.629,1.925,5.629,5.139
				c0,2.464-1.312,3.822-2.933,4.975c-1.618,1.148-3.541,2.088-4.739,3.776h7.766v2.86H82.117c0.023-3.8,2.347-5.42,5.184-7.341
				c1.455-0.985,3.425-1.996,3.45-4.013c0-1.548-1.033-2.533-2.464-2.533c-1.97,0-2.604,2.039-2.604,3.777"/>
			<path fill="#231F20" d="M101.988,79.017h-6.945v-3.05l7.131-9.57h2.979v9.875h2.182v2.745h-2.182v3.8h-3.166 M101.988,70.573
				h-0.07l-4.247,5.698h4.317V70.573z"/>
			<path fill="#231F20" d="M114.211,66.066c3.284,0,6.051,2.065,6.051,8.47c0,6.546-2.767,8.611-6.051,8.611
				c-3.239,0-6.006-2.065-6.006-8.611C108.205,68.132,110.972,66.066,114.211,66.066 M114.211,80.401
				c2.721,0,2.721-4.013,2.721-5.865c0-1.711,0-5.724-2.721-5.724c-2.676,0-2.676,4.013-2.676,5.724
				C111.535,76.389,111.535,80.401,114.211,80.401"/>
			<polyline fill="#231F20" points="136.684,82.816 132.532,82.816 127.089,66.066 130.891,66.066 134.62,77.846 134.667,77.846 
				138.444,66.066 142.244,66.066 			"/>
			<path fill="#231F20" d="M149.212,70.36c3.824,0,6.287,2.533,6.287,6.405c0,3.845-2.463,6.382-6.287,6.382
				c-3.8,0-6.265-2.537-6.265-6.382C142.947,72.894,145.412,70.36,149.212,70.36 M149.212,80.637c2.274,0,2.955-1.947,2.955-3.871
				c0-1.947-0.681-3.896-2.955-3.896c-2.252,0-2.933,1.948-2.933,3.896C146.279,78.689,146.96,80.637,149.212,80.637"/>
			<line fill="none" stroke="#231F20" stroke-width="3.3313" x1="159.416" y1="82.816" x2="159.416" y2="66.066"/>
			<path fill="#231F20" d="M167.933,70.688h2.439v2.229h-2.439v6.006c0,1.126,0.281,1.407,1.407,1.407
				c0.352,0,0.681-0.022,1.032-0.092v2.603c-0.562,0.095-1.291,0.117-1.947,0.117c-2.041,0-3.824-0.468-3.824-2.883v-7.158h-2.018
				v-2.229h2.018v-3.636h3.332"/>
			<path fill="#231F20" d="M174.548,78.876c0.023,1.453,1.244,2.042,2.557,2.042c0.962,0,2.183-0.376,2.183-1.548
				c0-1.011-1.385-1.361-3.776-1.878c-1.925-0.423-3.848-1.104-3.848-3.237c0-3.096,2.674-3.895,5.277-3.895
				c2.651,0,5.091,0.891,5.35,3.872h-3.168c-0.094-1.293-1.078-1.644-2.274-1.644c-0.751,0-1.854,0.141-1.854,1.126
				c0,1.198,1.877,1.361,3.777,1.807c1.947,0.445,3.847,1.148,3.847,3.4c0,3.191-2.767,4.226-5.536,4.226
				c-2.814,0-5.561-1.058-5.701-4.271"/>
		</g>
		<g>
			
				<polygon fill-rule="evenodd" clip-rule="evenodd" fill="#231F20" stroke="#231F20" stroke-width="0.0364" stroke-miterlimit="2.6131" points="
				68.133,82.765 41.473,36.556 41.309,36.307 41.104,36.123 40.877,35.96 40.611,35.835 40.344,35.754 40.056,35.734 
				39.769,35.754 39.481,35.835 39.234,35.96 38.988,36.123 38.803,36.307 38.639,36.556 11.979,82.765 11.856,83.032 
				11.774,83.298 11.753,83.586 11.774,83.874 11.856,84.162 11.979,84.407 12.144,84.656 12.329,84.839 12.575,85.003 
				12.822,85.127 13.109,85.209 13.396,85.229 66.715,85.229 67.002,85.209 67.27,85.127 67.537,85.003 67.763,84.839 
				67.968,84.656 68.133,84.407 68.255,84.162 68.338,83.874 68.358,83.586 68.338,83.298 68.255,83.032 68.133,82.765 			"/>
			
				<polygon fill-rule="evenodd" clip-rule="evenodd" fill="#FFF200" stroke="#231F20" stroke-width="0.0364" stroke-miterlimit="2.6131" points="
				40.056,40.889 63.675,81.842 16.437,81.842 40.056,40.889 			"/>
			
				<polygon fill-rule="evenodd" clip-rule="evenodd" fill="#231F20" stroke="#231F20" stroke-width="0.0616" stroke-miterlimit="2.6131" points="
				37.869,50.569 42.645,50.569 36.887,63.468 44.743,59.096 40.413,74.939 42.645,73.512 38.36,79.76 37.155,72.573 38.672,74.671 
				40.234,63.425 33.093,67.396 37.869,50.569 			"/>
		</g>
	</g>
</g>
</svg>
