<?xml version="1.0" encoding="utf-8"?>
<!-- Generator: Adobe Illustrator 16.0.0, SVG Export Plug-In . SVG Version: 6.00 Build 0)  -->
<!DOCTYPE svg PUBLIC "-//W3C//DTD SVG 1.1//EN" "http://www.w3.org/Graphics/SVG/1.1/DTD/svg11.dtd">
<svg version="1.1" id="Layer_1" xmlns="http://www.w3.org/2000/svg" xmlns:xlink="http://www.w3.org/1999/xlink" x="0px" y="0px"
	 width="200px" height="200px" viewBox="0 0 200 200" enable-background="new 0 0 200 200" xml:space="preserve">
<g>
	<polygon fill-rule="evenodd" clip-rule="evenodd" stroke="#000000" stroke-width="0.1221" stroke-miterlimit="2.6131" points="
		194.242,174.801 104.757,19.684 104.205,18.857 103.517,18.236 102.758,17.685 101.861,17.271 100.966,16.995 100,16.927 
		99.035,16.995 98.069,17.271 97.243,17.685 96.416,18.236 95.794,18.857 95.243,19.684 5.758,174.801 5.345,175.696 5.069,176.592 
		5,177.559 5.069,178.523 5.345,179.488 5.758,180.315 6.31,181.144 6.931,181.763 7.757,182.314 8.585,182.729 9.55,183.004 
		10.515,183.073 189.485,183.073 190.45,183.004 191.346,182.729 192.243,182.314 193.001,181.763 193.69,181.144 194.242,180.315 
		194.656,179.488 194.931,178.523 195,177.559 194.931,176.592 194.656,175.696 194.242,174.801 	"/>
	
		<polygon fill-rule="evenodd" clip-rule="evenodd" fill="#FFF200" stroke="#000000" stroke-width="0.1221" stroke-miterlimit="2.6131" points="
		100,34.23 179.281,171.698 20.718,171.698 100,34.23 	"/>
	<path fill-rule="evenodd" clip-rule="evenodd" stroke="#FFF200" stroke-width="1.5623" stroke-miterlimit="2.6131" d="M100,161.936
		c5.482,0,9.925-4.441,9.925-9.919S105.482,142.1,100,142.1c-5.482,0-9.929,4.439-9.929,9.917S94.518,161.936,100,161.936
		L100,161.936z"/>
	<path fill-rule="evenodd" clip-rule="evenodd" stroke="#FFF200" stroke-width="2.6035" stroke-miterlimit="2.6131" d="M100,67.453
		c7.917,0,15.199,7.229,14.336,14.324l-6.78,49.883c-0.658,4.361-3.386,7.548-7.556,7.548c-4.174,0-6.899-3.187-7.556-7.548
		l-6.782-49.883C84.802,74.682,92.082,67.453,100,67.453L100,67.453z"/>
</g>
</svg>
