<?xml version="1.0" encoding="utf-8"?>
<!-- Generator: Adobe Illustrator 16.0.0, SVG Export Plug-In . SVG Version: 6.00 Build 0)  -->
<!DOCTYPE svg PUBLIC "-//W3C//DTD SVG 1.1//EN" "http://www.w3.org/Graphics/SVG/1.1/DTD/svg11.dtd">
<svg version="1.1" id="Layer_1" xmlns="http://www.w3.org/2000/svg" xmlns:xlink="http://www.w3.org/1999/xlink" x="0px" y="0px"
	 width="200px" height="200px" viewBox="0 0 200 200" enable-background="new 0 0 200 200" xml:space="preserve">
<g>
	<path fill="#FFFFFE" d="M140.462,195c7.774,0,14.075-6.301,14.075-14.073V19.076c0-7.775-6.301-14.076-14.075-14.076H59.534
		c-7.772,0-14.071,6.301-14.071,14.076v161.851c0,7.772,6.298,14.073,14.071,14.073"/>
	<path fill="none" stroke="#1B171A" stroke-width="1.2413" d="M140.462,195c7.774,0,14.075-6.301,14.075-14.073V19.076
		c0-7.775-6.301-14.076-14.075-14.076H59.534c-7.772,0-14.071,6.301-14.071,14.076v161.851c0,7.772,6.298,14.073,14.071,14.073
		H140.462z"/>
	<path fill="#FFFFFE" d="M99.619,16.903c1.94,0,3.518-1.576,3.518-3.52c0-1.943-1.577-3.518-3.518-3.518
		c-1.944,0-3.52,1.575-3.52,3.518C96.099,15.328,97.675,16.903,99.619,16.903"/>
	<circle fill="none" stroke="#1B171A" stroke-width="1.2413" cx="99.619" cy="13.385" r="3.519"/>
	<rect x="52.29" y="77.1" fill="#FFF200" width="94.957" height="79.44"/>
	<path fill="#1B171A" d="M56.611,163.894c-0.151-0.752-0.754-1.13-1.491-1.13c-1.267,0-1.802,1.042-1.802,2.15
		c0,1.215,0.536,2.228,1.81,2.228c0.931,0,1.469-0.654,1.534-1.534h0.708c-0.135,1.326-0.961,2.131-2.301,2.131
		c-1.653,0-2.458-1.222-2.458-2.773c0-1.542,0.881-2.798,2.518-2.798c1.109,0,2.026,0.597,2.192,1.727"/>
	<path fill="#1B171A" d="M59.807,163.67c1.219,0,1.869,0.888,1.869,2.018c0,1.125-0.65,2.012-1.869,2.012
		c-1.224,0-1.869-0.887-1.869-2.012C57.938,164.558,58.583,163.67,59.807,163.67 M59.807,167.142c0.661,0,1.196-0.523,1.196-1.454
		c0-0.936-0.536-1.46-1.196-1.46c-0.666,0-1.201,0.524-1.201,1.46C58.605,166.618,59.141,167.142,59.807,167.142"/>
	<path fill="#1B171A" d="M62.419,163.76h0.598v0.565h0.012c0.284-0.432,0.718-0.655,1.244-0.655c0.47,0,0.901,0.188,1.058,0.655
		c0.263-0.407,0.715-0.655,1.208-0.655c0.765,0,1.279,0.32,1.279,1.118v2.822h-0.633v-2.524c0-0.478-0.127-0.858-0.746-0.858
		c-0.609,0-1.005,0.389-1.005,0.984v2.398h-0.633v-2.524c0-0.499-0.156-0.858-0.722-0.858c-0.75,0-1.028,0.693-1.028,0.984v2.398
		h-0.633"/>
	<path fill="#1B171A" d="M68.772,163.76h0.595v0.565h0.014c0.284-0.432,0.715-0.655,1.244-0.655c0.469,0,0.902,0.188,1.059,0.655
		c0.26-0.407,0.715-0.655,1.206-0.655c0.767,0,1.281,0.32,1.281,1.118v2.822h-0.633v-2.524c0-0.478-0.127-0.858-0.746-0.858
		c-0.611,0-1.005,0.389-1.005,0.984v2.398h-0.633v-2.524c0-0.499-0.156-0.858-0.722-0.858c-0.753,0-1.028,0.693-1.028,0.984v2.398
		h-0.632"/>
	<path fill="#1B171A" d="M78.409,166.391c-0.172,0.849-0.782,1.309-1.644,1.309c-1.229,0-1.812-0.849-1.847-2.026
		c0-1.154,0.758-2.003,1.807-2.003c1.364,0,1.781,1.275,1.743,2.206h-2.882c-0.022,0.67,0.36,1.266,1.199,1.266
		c0.521,0,0.887-0.254,0.999-0.751 M77.797,165.316c-0.03-0.604-0.483-1.089-1.109-1.089c-0.663,0-1.056,0.5-1.103,1.089H77.797z"/>
	<path fill="#1B171A" d="M79.124,163.76h0.595v0.611h0.015c0.269-0.478,0.701-0.701,1.252-0.701c1.012,0,1.325,0.582,1.325,1.406
		v2.534h-0.633v-2.606c0-0.471-0.298-0.776-0.782-0.776c-0.768,0-1.14,0.515-1.14,1.208v2.175h-0.633"/>
	<path fill="#1B171A" d="M84.143,163.76h0.768v0.561h-0.768v2.39c0,0.289,0.084,0.342,0.477,0.342h0.291v0.559h-0.482
		c-0.657,0-0.919-0.134-0.919-0.842v-2.448h-0.655v-0.561h0.655v-1.153h0.634"/>
	<path fill="#1B171A" d="M85.998,166.396c0.021,0.567,0.513,0.746,1.035,0.746c0.396,0,0.931-0.09,0.931-0.574
		c0-0.492-0.626-0.574-1.257-0.715c-0.628-0.141-1.261-0.35-1.261-1.086c0-0.776,0.768-1.097,1.438-1.097
		c0.849,0,1.526,0.267,1.581,1.208H87.83c-0.045-0.492-0.477-0.65-0.894-0.65c-0.38,0-0.819,0.107-0.819,0.492
		c0,0.454,0.67,0.531,1.258,0.672c0.633,0.141,1.259,0.349,1.259,1.096c0,0.914-0.857,1.212-1.639,1.212
		c-0.864,0-1.594-0.349-1.629-1.304"/>
	<path fill="#1B171A" d="M54.318,172.224h0.779l2.078,5.316h-0.779l-0.583-1.603h-2.25l-0.593,1.603h-0.732 M53.787,175.344h1.802
		l-0.887-2.48h-0.015L53.787,175.344z"/>
	<path fill="#1B171A" d="M60.78,177.54h-0.596v-0.611h-0.015c-0.266,0.478-0.699,0.701-1.251,0.701
		c-1.013,0-1.326-0.582-1.326-1.406v-2.533h0.634v2.605c0,0.471,0.297,0.776,0.782,0.776c0.767,0,1.139-0.515,1.139-1.208v-2.174
		h0.633"/>
	<path fill="#1B171A" d="M62.611,173.69h0.768v0.56h-0.768v2.391c0,0.288,0.085,0.342,0.478,0.342h0.29v0.558h-0.481
		c-0.658,0-0.916-0.134-0.916-0.842v-2.448h-0.657v-0.56h0.657v-1.154h0.63"/>
	<path fill="#1B171A" d="M64.08,172.224h0.633v2.031h0.014c0.208-0.461,0.753-0.654,1.215-0.654c1.015,0,1.325,0.582,1.325,1.406
		v2.533h-0.63v-2.606c0-0.47-0.3-0.775-0.784-0.775c-0.765,0-1.139,0.514-1.139,1.207v2.175H64.08"/>
	<path fill="#1B171A" d="M69.881,173.601c1.222,0,1.869,0.887,1.869,2.017c0,1.125-0.647,2.013-1.869,2.013
		s-1.869-0.888-1.869-2.013C68.012,174.487,68.659,173.601,69.881,173.601 M69.881,177.072c0.663,0,1.201-0.523,1.201-1.455
		c0-0.936-0.538-1.459-1.201-1.459c-0.661,0-1.199,0.523-1.199,1.459C68.682,176.549,69.22,177.072,69.881,177.072"/>
	<path fill="#1B171A" d="M72.473,173.69h0.596v0.812h0.015c0.306-0.618,0.729-0.924,1.417-0.901v0.669
		c-1.023,0-1.395,0.582-1.395,1.557v1.714h-0.633"/>
	<path fill="#1B171A" d="M75.645,172.997h-0.632v-0.773h0.632V172.997z M75.015,173.69h0.632v3.85h-0.632V173.69z"/>
	<path fill="#1B171A" d="M77.016,176.325c0.022,0.567,0.514,0.747,1.035,0.747c0.396,0,0.931-0.09,0.931-0.575
		c0-0.492-0.625-0.574-1.258-0.715c-0.626-0.141-1.257-0.349-1.257-1.086c0-0.775,0.765-1.096,1.435-1.096
		c0.849,0,1.527,0.267,1.58,1.207H78.85c-0.047-0.492-0.479-0.649-0.896-0.649c-0.379,0-0.819,0.106-0.819,0.492
		c0,0.453,0.672,0.53,1.259,0.671c0.633,0.141,1.258,0.35,1.258,1.096c0,0.914-0.857,1.213-1.637,1.213
		c-0.865,0-1.596-0.35-1.633-1.305"/>
	<path fill="#1B171A" d="M83.637,176.32c-0.171,0.849-0.782,1.31-1.646,1.31c-1.229,0-1.81-0.849-1.847-2.027
		c0-1.153,0.76-2.002,1.81-2.002c1.363,0,1.78,1.275,1.743,2.206h-2.88c-0.024,0.669,0.355,1.266,1.198,1.266
		c0.521,0,0.886-0.255,0.998-0.752 M83.026,175.246c-0.029-0.604-0.484-1.088-1.109-1.088c-0.663,0-1.058,0.499-1.101,1.088H83.026z
		"/>
	<path fill="#1B171A" d="M87.792,177.54h-0.633v-0.521h-0.015c-0.208,0.425-0.701,0.611-1.229,0.611
		c-1.185,0-1.772-0.938-1.772-2.027c0-1.086,0.581-2.002,1.758-2.002c0.396,0,0.96,0.15,1.244,0.604h0.015v-1.98h0.633
		 M86.005,177.072c0.848,0,1.176-0.732,1.176-1.455c0-0.759-0.342-1.459-1.213-1.459c-0.864,0-1.154,0.736-1.154,1.491
		C84.813,176.371,85.186,177.072,86.005,177.072"/>
	<path fill="#1B171A" d="M90.861,172.224h0.632v1.987h0.015c0.208-0.424,0.701-0.61,1.229-0.61c1.185,0,1.772,0.938,1.772,2.026
		c0,1.086-0.581,2.003-1.758,2.003c-0.394,0-0.96-0.15-1.244-0.604h-0.015v0.514h-0.632 M92.648,174.158
		c-0.849,0-1.177,0.731-1.177,1.454c0,0.759,0.343,1.46,1.215,1.46c0.864,0,1.154-0.737,1.154-1.491
		C93.839,174.858,93.467,174.158,92.648,174.158"/>
	<path fill="#1B171A" d="M96.767,178.054c-0.291,0.754-0.551,1.028-1.117,1.028c-0.149,0-0.298-0.015-0.439-0.065v-0.582
		c0.119,0.036,0.245,0.087,0.372,0.087c0.261,0,0.402-0.126,0.521-0.349l0.261-0.654l-1.526-3.828h0.714l1.125,3.148h0.014
		l1.08-3.148h0.67"/>
	<path fill="#1B171A" d="M52.873,182.153h1.822c1.639,0,2.555,0.819,2.555,2.531c0,1.779-0.782,2.785-2.555,2.785h-1.822
		 M53.579,186.876h1.176c0.487,0,1.788-0.136,1.788-2.095c0-1.266-0.466-2.031-1.772-2.031h-1.191V186.876z"/>
	<path fill="#1B171A" d="M61.42,187.455c-0.111,0.065-0.253,0.104-0.453,0.104c-0.326,0-0.535-0.18-0.535-0.597
		c-0.353,0.41-0.822,0.597-1.355,0.597c-0.703,0-1.276-0.312-1.276-1.081c0-0.87,0.651-1.057,1.305-1.184
		c0.702-0.133,1.295-0.087,1.295-0.566c0-0.548-0.455-0.641-0.857-0.641c-0.536,0-0.931,0.165-0.961,0.732h-0.63
		c0.035-0.955,0.772-1.29,1.629-1.29c0.692,0,1.445,0.155,1.445,1.058v1.982c0,0.296,0,0.432,0.201,0.432
		c0.052,0,0.112-0.01,0.193-0.039 M60.393,185.482c-0.246,0.177-0.722,0.187-1.148,0.259c-0.417,0.075-0.772,0.224-0.772,0.693
		c0,0.417,0.355,0.567,0.743,0.567c0.834,0,1.177-0.523,1.177-0.873V185.482z"/>
	<path fill="#1B171A" d="M62.888,183.62h0.768v0.561h-0.768v2.39c0,0.289,0.082,0.342,0.477,0.342h0.291v0.558H63.17
		c-0.655,0-0.915-0.133-0.915-0.841v-2.448H61.6v-0.561h0.656v-1.154h0.632"/>
	<path fill="#1B171A" d="M67.64,186.251c-0.17,0.848-0.783,1.309-1.646,1.309c-1.229,0-1.81-0.849-1.845-2.026
		c0-1.154,0.758-2.003,1.808-2.003c1.362,0,1.779,1.275,1.743,2.206h-2.883c-0.022,0.669,0.357,1.266,1.201,1.266
		c0.521,0,0.884-0.255,0.997-0.751 M67.029,185.177c-0.03-0.604-0.485-1.089-1.108-1.089c-0.665,0-1.06,0.5-1.104,1.089H67.029z"/>
	<path fill="none" stroke="#1B171A" stroke-width="0.4965" d="M69.203,187.465h78.044 M99.458,177.535h47.789 M89.063,167.605
		h58.184"/>
	<path fill="#1B171A" d="M66.025,92.037h5.857c4.965,0,5.858,3.401,5.858,8.615c0,6.279-1.341,9.11-6.083,9.11h-5.633
		 M69.597,107.13h1.592c2.482,0,2.977-1.562,2.977-6.378c0-4.022-0.323-6.083-3.054-6.083h-1.515V107.13z"/>
	<path fill="#1B171A" d="M79.975,100.503v-0.32c0-3.081,2.11-4.123,4.692-4.123c4.072,0,4.84,1.69,4.84,4.096v7.025
		c0,1.241,0.075,1.812,0.423,2.582h-3.278c-0.223-0.422-0.322-0.943-0.422-1.392h-0.049c-0.794,1.392-1.763,1.741-3.399,1.741
		c-2.383,0-3.229-2.037-3.229-3.826c0-2.507,1.018-3.522,3.376-4.17l1.937-0.521c1.02-0.272,1.365-0.67,1.365-1.563
		c0-1.018-0.447-1.639-1.586-1.639c-1.042,0-1.59,0.698-1.59,1.738v0.372 M86.23,103.086c-0.471,0.35-1.042,0.57-1.464,0.669
		c-1.39,0.301-1.937,0.97-1.937,2.163c0,1.014,0.372,1.861,1.293,1.861c0.917,0,2.108-0.599,2.108-2.062V103.086z"/>
	<path fill="#1B171A" d="M91.94,96.407h3.278v1.563h0.05c0.72-1.313,1.961-1.911,3.401-1.911c2.135,0,3.4,1.169,3.4,3.798v9.905
		h-3.425v-9.21c0-1.341-0.447-1.862-1.464-1.862c-1.167,0-1.812,0.721-1.812,2.211v8.861H91.94"/>
	<path fill="#1B171A" d="M114.359,96.407v12.687c0,3.524-1.566,5.236-5.562,5.236c-2.904,0-4.544-1.29-4.544-3.573h3.278
		c0,0.446,0.198,0.795,0.519,1.019c0.325,0.223,0.723,0.37,1.145,0.37c1.389,0,1.886-1.042,1.886-2.407v-1.765h-0.048
		c-0.698,0.996-1.766,1.639-2.856,1.639c-2.729,0-4.097-1.861-4.097-6.749c0-3.13,0.47-6.804,4.193-6.804
		c0.946,0,2.112,0.449,2.76,1.839h0.048v-1.491 M109.22,106.982c1.439,0,1.861-1.564,1.861-3.823c0-3.253-0.422-4.469-1.789-4.469
		c-1.513,0-1.786,1.216-1.786,4.817C107.506,105.346,107.779,106.982,109.22,106.982"/>
	<path fill="#1B171A" d="M119.695,103.604v1.072c0,1.562,0.422,3.103,1.689,3.103c1.14,0,1.612-0.872,1.811-2.511h3.077
		c-0.121,3.103-1.612,4.844-4.839,4.844c-4.966,0-5.164-3.826-5.164-7.152c0-3.574,0.693-6.9,5.314-6.9
		c3.995,0,4.887,2.681,4.887,6.777v0.768 M123.195,101.573c-0.075-2.039-0.322-3.181-1.738-3.181c-1.364,0-1.762,1.417-1.762,2.658
		v0.522H123.195z"/>
	<path fill="#1B171A" d="M128.26,96.407h3.278v1.787h0.048c0.693-1.291,1.663-2.135,3.079-2.135c0.199,0,0.422,0.026,0.621,0.05
		v3.276c-0.35-0.024-0.721-0.05-1.067-0.05c-1.192,0-2.533,0.62-2.533,2.407v8.02h-3.426"/>
	<polyline fill="#1B171A" points="86.712,121.118 86.712,123.754 83.229,123.754 83.229,137.07 80.01,137.07 80.01,123.754 
		76.526,123.754 76.526,121.118 	"/>
	<path fill="#1B171A" d="M92.345,124.735c3.709-0.065,4.735,2.148,4.735,6.325c0,4.109-1.204,6.322-4.735,6.322
		c-3.708,0.065-4.736-2.143-4.736-6.322C87.609,126.949,88.812,124.735,92.345,124.735 M92.345,135.281
		c1.252,0,1.653-1.225,1.653-4.221c0-2.994-0.401-4.224-1.653-4.224c-1.519,0-1.653,1.766-1.653,4.224
		C90.691,133.517,90.826,135.281,92.345,135.281"/>
	<polyline fill="#1B171A" points="104.521,125.053 107.735,125.053 104.608,130.881 107.874,137.07 104.657,137.07 102.867,133.139 
		101.081,137.07 97.864,137.07 101.123,130.881 97.996,125.053 101.213,125.053 102.867,128.673 	"/>
	<path fill="#1B171A" d="M109.166,120.939h3.084v2.638h-3.084V120.939z M109.166,125.053h3.084v12.021h-3.084V125.053z"/>
	<path fill="#1B171A" d="M120.206,129.386c0-1.164-0.223-2.41-1.387-2.41c-1.518,0-1.765,1.338-1.765,4.106
		c0,2.975,0.27,4.199,1.653,4.199c1.028,0,1.498-0.868,1.498-2.812h2.948c0,3.149-1.316,4.914-4.582,4.914
		c-3.084,0-4.602-1.495-4.602-6.322c0-4.938,2.032-6.325,4.873-6.325c2.834,0,4.311,1.812,4.311,4.65"/>
	<polyline fill="#FFF200" points="99.487,23.739 73.818,68.466 124.716,68.466 	"/>
	<path fill="#1B171A" d="M128.934,68.724l-27.632-48.547c0,0-0.419-1.048-1.78-1.048c-1.362,0-1.993,1.048-1.993,1.048
		L69.762,68.595c0,0-0.701,1.194-0.055,2.314c0,0,0.662,1.1,1.765,1.1h55.364c0,0,1.481,0.045,2.078-1.118
		C129.414,69.924,129.172,69.174,128.934,68.724 M74.322,68.2l25.165-43.847l24.73,43.847H74.322z"/>
	<path fill="#1B171A" d="M112.312,56.5c-0.179-0.142-0.305-0.655-0.286-0.889c0.018-0.229-0.286-1.385-1.524-1.368
		c-0.89,0.016-1.738,0.985-1.891,1.101c-0.158,0.124-1.419,0.766-3.537,1.445c0.131-0.189,0.285-0.4,0.479-0.64
		c1.246-1.575,0.762-3.03,0.762-3.03c-0.103-0.636,0.174-1.269,0.986-2.676c1.268-2.188,0.885-3.066,0.885-3.066
		c0-2.801-3.117-4.86-3.951-5.335c-0.834-0.477-3.067-1.851-5.251-1.851c-2.186,0-4.422,1.375-5.251,1.851
		c-0.834,0.475-3.952,2.535-3.952,5.335c0,0-0.383,0.879,0.881,3.066c0.813,1.407,1.092,2.04,0.991,2.676c0,0-0.487,1.455,0.76,3.03
		c0.29,0.363,0.5,0.656,0.655,0.907c-0.891-0.164-3.637-1.083-4.181-1.781c-0.245-0.319-1.142-0.59-1.588-0.568
		c0,0-0.819-0.036-1.092,0.55c-0.204,0.438-0.115,1.03-0.231,1.35c-0.253,0.678-0.413,0.304-0.396,1.244
		c0.018,0.94,0.914,1.227,1.271,1.261c0.358,0.037,0.998,0.09,1.679-0.406c0.183-0.137,0.382-0.063,0.431-0.037
		c0.159,0.089,4.747,1.615,5.278,1.944l0.069,0.116c-1.479,0.493-4.079,1.113-5.973,1.137c-0.752,0.01-1.253,0.709-1.253,1.137
		c0,0.144,0.052,0.425,0.215,0.676c0.159,0.251,0.695,1.066,0.768,1.333c0.071,0.263,0.821,0.638,1.268,0.638
		c0.45,0,1.222-0.49,1.684-1.028c0,0,1.673-1.444,4.324-2.343c0.99,0.744,2.657,1.728,3.643,1.728c1.012,0,2.478-0.896,3.468-1.653
		c0.9,0.296,4.241,1.409,4.619,1.77c0.432,0.409,1.091,1.101,1.683,1.172c0.589,0.074,1.091-0.319,1.217-0.479
		c0.121-0.161,0.32-0.748,0.626-0.979c0.303-0.229,0.499-0.869,0.479-1.1c-0.02-0.231-0.267-1.067-1.178-1.103
		c-0.757-0.029-1.273,0.111-1.717-0.055c-0.482-0.173-4.049-0.921-4.281-1.156l0.162-0.4c0,0,4.386-1.497,4.706-1.583
		c0.325-0.092,0.592-0.092,0.878,0.069c0.286,0.159,1.037,0.248,1.197,0.248c0.162,0,1.627-0.104,1.627-1.473
		C112.471,57.203,112.538,56.682,112.312,56.5 M92.574,59.139c-0.227-0.073-0.99-0.459-1.16-0.523
		c-0.618-0.236-1.226-0.517-1.857-0.705c-0.315-0.095-0.657-0.282-0.983-0.161c-0.367,0.139-0.742,0.184-1.111,0.427
		c-0.331,0.217-0.76,0.037-0.941-0.32c-0.139-0.277,0.109-0.526,0.29-0.794c0.211-0.315,0.04-0.746,0.147-1.1
		c0.066-0.234,0.325-0.405,0.601-0.346c0.863,0.179,1.171,1.085,2.073,1.286c0.109,0.024,0.244,0.154,0.365,0.188
		c0.339,0.092,1.601,0.469,1.891,0.653c0.279,0.176,1.241,0.213,1.795,0.66c0,0,0.164,1.149,0.234,1.244
		C93.979,59.731,92.643,59.161,92.574,59.139 M92.636,62.688c-1.812,0.87-1.386,0.26-2.987,1.871
		c-0.502,0.507-0.872-0.417-1.189-0.836c-0.079-0.104-0.188-0.236-0.301-0.336c-0.271-0.241,0.038-0.566,0.263-0.559
		c1.873,0.065,4.429-0.996,6.234-1.325c0.09,0.126,0.185,0.28,0.185,0.28C94.579,62.043,92.83,62.59,92.636,62.688 M98.984,62.947
		c-1.721,0-3.128-1.281-3.484-1.693c-0.555-0.633-0.865-1.546-0.938-2.214c-0.047-0.465-0.206-0.849-0.244-1.201
		c0.209,0.106,0.626,0.601,0.731,0.881c0.104,0.28,0.312,0.563,0.415,0.881c0.106,0.315,0.19,2.043,3.52,2.043
		c3.326,0,3.414-1.728,3.52-2.043c0.102-0.317,0.311-0.601,0.415-0.881c0.104-0.28,0.521-0.774,0.727-0.881
		c-0.036,0.353-0.193,0.736-0.244,1.201c-0.068,0.668-0.379,1.581-0.935,2.214C102.111,61.666,100.704,62.947,98.984,62.947
		 M94.793,57.088c-0.092-0.211,0.233-0.047,0.578,0.095c0.348,0.14,0.397,0.375,0.417,0.822c0.045,1.151-0.301,0.094-0.556-0.261
		C94.979,57.394,94.884,57.299,94.793,57.088 M96.528,59.895c0.064,0,0.114,0.052,0.114,0.113v0.266c0,0.064-0.05,0.116-0.114,0.116
		c-0.066,0-0.114-0.052-0.114-0.116v-0.266C96.414,59.946,96.461,59.895,96.528,59.895 M96.414,59.378v-0.261
		c0-0.063,0.047-0.117,0.114-0.117c0.064,0,0.114,0.054,0.114,0.117v0.261c0,0.069-0.05,0.119-0.114,0.119
		C96.461,59.497,96.414,59.447,96.414,59.378 M97.013,60.193c0.069,0,0.129,0.058,0.129,0.13v0.293c0,0.072-0.06,0.129-0.129,0.129
		c-0.07,0-0.129-0.057-0.129-0.129v-0.293C96.883,60.251,96.942,60.193,97.013,60.193 M96.883,59.722v-0.289
		c0-0.073,0.059-0.133,0.129-0.133c0.069,0,0.129,0.06,0.129,0.133v0.289c0,0.073-0.06,0.133-0.129,0.133
		C96.942,59.854,96.883,59.795,96.883,59.722 M97.591,60.373c0.079,0,0.141,0.064,0.141,0.145v0.324
		c0,0.083-0.062,0.147-0.141,0.147c-0.08,0-0.142-0.064-0.142-0.147v-0.324C97.449,60.438,97.511,60.373,97.591,60.373
		 M97.449,59.951v-0.326c0-0.079,0.062-0.146,0.142-0.146c0.079,0,0.141,0.066,0.141,0.146v0.326c0,0.081-0.062,0.146-0.141,0.146
		C97.511,60.098,97.449,60.032,97.449,59.951 M98.214,60.479c0.086,0,0.159,0.071,0.159,0.161v0.362
		c0,0.088-0.073,0.159-0.159,0.159c-0.087,0-0.156-0.071-0.156-0.159v-0.362C98.058,60.551,98.127,60.479,98.214,60.479
		 M98.058,60.11v-0.36c0-0.09,0.069-0.164,0.156-0.164c0.086,0,0.159,0.074,0.159,0.164v0.36c0,0.089-0.073,0.161-0.159,0.161
		C98.127,60.271,98.058,60.199,98.058,60.11 M98.837,60.537c0.097,0,0.178,0.079,0.178,0.182v0.398c0,0.1-0.081,0.18-0.178,0.18
		c-0.097,0-0.175-0.08-0.175-0.18v-0.398C98.663,60.616,98.74,60.537,98.837,60.537 M98.663,60.224v-0.399
		c0-0.103,0.078-0.179,0.175-0.179c0.097,0,0.178,0.076,0.178,0.179v0.399c0,0.1-0.081,0.179-0.178,0.179
		C98.74,60.402,98.663,60.323,98.663,60.224 M99.467,60.537c0.097,0,0.173,0.079,0.173,0.182v0.398c0,0.1-0.076,0.18-0.173,0.18
		c-0.097,0-0.173-0.08-0.173-0.18v-0.398C99.294,60.616,99.371,60.537,99.467,60.537 M99.294,60.224v-0.399
		c0-0.103,0.077-0.179,0.173-0.179c0.097,0,0.173,0.076,0.173,0.179v0.399c0,0.1-0.076,0.179-0.173,0.179
		C99.371,60.402,99.294,60.323,99.294,60.224 M100.093,60.479c0.087,0,0.157,0.071,0.157,0.161v0.362
		c0,0.088-0.069,0.159-0.157,0.159c-0.087,0-0.159-0.071-0.159-0.159v-0.362C99.934,60.551,100.006,60.479,100.093,60.479
		 M99.934,60.11v-0.36c0-0.09,0.072-0.164,0.159-0.164c0.087,0,0.157,0.074,0.157,0.164v0.36c0,0.089-0.069,0.161-0.157,0.161
		C100.006,60.271,99.934,60.199,99.934,60.11 M100.716,60.373c0.08,0,0.145,0.064,0.145,0.145v0.324
		c0,0.083-0.064,0.147-0.145,0.147c-0.079,0-0.144-0.064-0.144-0.147v-0.324C100.572,60.438,100.637,60.373,100.716,60.373
		 M100.572,59.951v-0.326c0-0.079,0.065-0.146,0.144-0.146c0.08,0,0.145,0.066,0.145,0.146v0.326c0,0.081-0.064,0.146-0.145,0.146
		C100.637,60.098,100.572,60.032,100.572,59.951 M101.294,60.193c0.07,0,0.128,0.058,0.128,0.13v0.293
		c0,0.072-0.058,0.129-0.128,0.129c-0.071,0-0.128-0.057-0.128-0.129v-0.293C101.166,60.251,101.223,60.193,101.294,60.193
		 M101.166,59.722v-0.289c0-0.073,0.057-0.133,0.128-0.133c0.07,0,0.128,0.06,0.128,0.133v0.289c0,0.073-0.058,0.133-0.128,0.133
		C101.223,59.854,101.166,59.795,101.166,59.722 M101.781,59.895c0.062,0,0.114,0.052,0.114,0.113v0.266
		c0,0.064-0.052,0.116-0.114,0.116c-0.067,0-0.116-0.052-0.116-0.116v-0.266C101.665,59.946,101.714,59.895,101.781,59.895
		 M101.665,59.378v-0.261c0-0.063,0.049-0.117,0.116-0.117c0.062,0,0.114,0.054,0.114,0.117v0.261c0,0.069-0.052,0.119-0.114,0.119
		C101.714,59.497,101.665,59.447,101.665,59.378 M102.329,58.005c0.016-0.447,0.068-0.683,0.415-0.822
		c0.347-0.142,0.671-0.306,0.579-0.095s-0.184,0.306-0.441,0.656C102.63,58.099,102.282,59.156,102.329,58.005 M108.521,62.564
		c0.497,0.111,0.97-0.208,1.42,0.016c0.219,0.109,0.229,0.446,0.059,0.596c-0.349,0.308-0.407,0.753-0.718,1.062
		c-0.237,0.238-0.657,0.25-0.868-0.002c-1.112-1.346-3.82-1.755-5.207-2.615c0.232-0.329,0.393-0.565,0.393-0.565
		C104.72,61.624,107.271,62.287,108.521,62.564 M102.779,56.465c-0.312,0.14-1.317,0.246-1.562,1.093
		c-0.268,0.939-0.27,1.482-2.234,1.482s-1.966-0.543-2.238-1.482c-0.24-0.847-1.246-0.953-1.559-1.093
		c-0.311-0.141-0.903-0.208-1.907-0.844c-1.005-0.635-1.005-2.326-1.005-2.326c0.049-0.308-0.022-0.767,0.128-0.985
		c0.378-0.531,0.599-2.89,0.527-3.418c-0.068-0.528,0.071-1.653,0.28-1.934c0.208-0.283,0.104-0.814,0.241-1.096
		c-0.312,0.142-0.589,0.774-0.832,1.338c-0.241,0.566-0.345,1.518-0.312,1.974c0.036,0.459,0.071,1.727-0.104,2.044
		c-0.139-0.315-0.48-0.877-0.729-1.304c-1.012-1.75-0.519-2.503-0.519-2.503c0-2.238,3.159-4.409,3.823-4.791
		c0.667-0.378,2.456-1.478,4.204-1.478c1.744,0,3.535,1.1,4.199,1.478c0.669,0.382,3.826,2.552,3.826,4.791
		c0,0,0.492,0.753-0.52,2.503c-0.247,0.427-0.586,0.988-0.727,1.304c-0.175-0.317-0.141-1.585-0.107-2.044
		c0.034-0.456-0.067-1.407-0.31-1.974c-0.243-0.563-0.52-1.196-0.837-1.338c0.144,0.281,0.036,0.812,0.245,1.096
		c0.208,0.28,0.349,1.405,0.276,1.934c-0.068,0.528,0.155,2.887,0.528,3.418c0.155,0.219,0.082,0.678,0.131,0.985
		c0,0,0,1.691-1.004,2.326C103.68,56.257,103.091,56.324,102.779,56.465 M111.506,57.436c-0.148,0.479-0.618,0.524-1.045,0.41
		c-0.209-0.057-0.345-0.209-0.582-0.209c-0.049,0.003-0.087-0.092-0.146-0.116c-0.621-0.261-1.22,0.141-1.794,0.325
		c-0.868,0.286-2.803,1.164-3.694,1.236l0.232-1.196c0.831-0.85,2.892-0.768,3.954-1.262c0.322-0.148,0.662-0.32,0.921-0.558
		c0.317-0.296,0.611-0.571,0.973-0.8c0.126-0.077,0.334-0.067,0.475-0.008c0.078,0.033,0.185,0.124,0.199,0.199
		c0.067,0.357-0.049,0.729,0.123,1.045C111.29,56.803,111.614,57.086,111.506,57.436"/>
	<path fill="#1B171A" d="M104.409,52.416c0-0.424-0.8-1.233-1.978-1.233c-1.179,0-2.045,0.243-2.045,0.774
		c0,0.526,1.35,1.937,2.428,1.937C103.889,53.894,104.409,52.59,104.409,52.416"/>
	<path fill="#1B171A" d="M93.799,52.416c0-0.424,0.798-1.233,1.977-1.233c1.178,0,2.045,0.243,2.045,0.774
		c0,0.526-1.353,1.937-2.425,1.937C94.318,53.894,93.799,52.59,93.799,52.416"/>
	<path fill="#1B171A" d="M99.209,56.827c0.228,0,0.137,0,0.322,0.379c0.184,0.374,0.718,0.398,0.718,0.398
		c0.435,0,0.417-0.649,0.417-0.82c0-1.741-0.926-2.444-1.251-2.444c-0.323,0-1.502,0.658-1.502,2.396
		c0,0.169-0.02,0.821,0.415,0.821c0,0,0.372,0.022,0.559-0.352C99.07,56.827,98.979,56.827,99.209,56.827"/>
</g>
</svg>
