<?xml version="1.0" encoding="utf-8"?>
<!-- Generator: Adobe Illustrator 16.0.0, SVG Export Plug-In . SVG Version: 6.00 Build 0)  -->
<!DOCTYPE svg PUBLIC "-//W3C//DTD SVG 1.1//EN" "http://www.w3.org/Graphics/SVG/1.1/DTD/svg11.dtd">
<svg version="1.1" id="Layer_1" xmlns="http://www.w3.org/2000/svg" xmlns:xlink="http://www.w3.org/1999/xlink" x="0px" y="0px"
	 width="200px" height="200px" viewBox="0 0 200 200" enable-background="new 0 0 200 200" xml:space="preserve">
<g>
	
		<rect x="9.413" y="33.57" transform="matrix(-0.9976 -0.0698 0.0698 -0.9976 192.7804 206.7329)" fill-rule="evenodd" clip-rule="evenodd" fill="#FFFFFF" stroke="#1A1A18" stroke-width="0.8522" stroke-miterlimit="22.9256" width="181.174" height="132.86"/>
	
		<rect x="9.414" y="33.57" transform="matrix(-0.9994 -0.0349 0.0349 -0.9994 196.4505 203.4292)" fill-rule="evenodd" clip-rule="evenodd" fill="#FFFFFF" stroke="#1A1A18" stroke-width="0.8522" stroke-miterlimit="22.9256" width="181.174" height="132.86"/>
	<g>
		
			<rect x="9.413" y="33.57" fill-rule="evenodd" clip-rule="evenodd" fill="#FFFFFF" stroke="#1A1A18" stroke-width="0.8522" stroke-miterlimit="22.9256" width="181.174" height="132.86"/>
		<rect x="17.903" y="94.28" fill-rule="evenodd" clip-rule="evenodd" fill="#FFEC00" width="164.964" height="65.414"/>
		<g>
			<path fill="#1A1A18" d="M63.924,115.029l-3.389-14.194h2.935l2.14,9.75l2.595-9.75h3.408l2.488,9.913l2.178-9.913h2.886
				l-3.446,14.194h-3.04l-2.828-10.611l-2.817,10.611H63.924z"/>
			<path fill="#1A1A18" d="M81.904,107.883l-2.469-0.445c0.277-0.994,0.755-1.729,1.434-2.207c0.677-0.479,1.684-0.717,3.02-0.717
				c1.214,0,2.118,0.145,2.711,0.43c0.594,0.289,1.013,0.654,1.255,1.094c0.241,0.443,0.363,1.256,0.363,2.436l-0.03,3.176
				c0,0.904,0.044,1.572,0.132,2c0.087,0.43,0.249,0.889,0.487,1.381h-2.69c-0.071-0.182-0.158-0.449-0.262-0.805
				c-0.045-0.16-0.077-0.268-0.097-0.32c-0.465,0.453-0.962,0.791-1.491,1.02c-0.529,0.225-1.094,0.336-1.694,0.336
				c-1.059,0-1.893-0.285-2.502-0.859c-0.61-0.576-0.916-1.303-0.916-2.18c0-0.58,0.139-1.1,0.417-1.553
				c0.277-0.455,0.666-0.805,1.166-1.047c0.5-0.244,1.222-0.453,2.164-0.635c1.272-0.24,2.152-0.459,2.644-0.668v-0.27
				c0-0.525-0.129-0.898-0.388-1.119c-0.258-0.223-0.745-0.334-1.461-0.334c-0.485,0-0.862,0.096-1.135,0.287
				C82.291,107.072,82.072,107.406,81.904,107.883z M85.545,110.09c-0.349,0.117-0.9,0.256-1.656,0.418
				c-0.755,0.16-1.248,0.318-1.481,0.473c-0.354,0.252-0.532,0.572-0.532,0.959c0,0.381,0.143,0.711,0.426,0.986
				c0.284,0.279,0.646,0.418,1.084,0.418c0.491,0,0.959-0.16,1.404-0.484c0.329-0.244,0.546-0.545,0.649-0.9
				c0.071-0.232,0.106-0.674,0.106-1.326V110.09z"/>
			<path fill="#1A1A18" d="M93.503,115.029h-2.72v-10.283h2.526v1.461c0.433-0.691,0.821-1.145,1.167-1.365
				c0.346-0.219,0.737-0.328,1.177-0.328c0.619,0,1.216,0.17,1.791,0.514l-0.843,2.371c-0.458-0.297-0.885-0.445-1.278-0.445
				c-0.381,0-0.703,0.105-0.968,0.314s-0.474,0.59-0.625,1.139c-0.151,0.547-0.228,1.697-0.228,3.447V115.029z"/>
			<path fill="#1A1A18" d="M107.967,115.029h-2.719v-5.248c0-1.109-0.059-1.83-0.175-2.156c-0.116-0.324-0.305-0.578-0.565-0.758
				c-0.264-0.182-0.578-0.271-0.946-0.271c-0.471,0-0.895,0.131-1.268,0.387c-0.375,0.258-0.631,0.6-0.77,1.025
				c-0.141,0.428-0.208,1.213-0.208,2.363v4.658h-2.721v-10.283h2.526v1.51c0.896-1.162,2.027-1.742,3.389-1.742
				c0.601,0,1.149,0.107,1.646,0.324s0.873,0.492,1.128,0.828s0.433,0.717,0.532,1.143c0.101,0.426,0.149,1.035,0.149,1.83V115.029z
				"/>
			<path fill="#1A1A18" d="M110.727,103.352v-2.516h2.72v2.516H110.727z M110.727,115.029v-10.283h2.72v10.283H110.727z"/>
			<path fill="#1A1A18" d="M125.589,115.029h-2.72v-5.248c0-1.109-0.06-1.83-0.175-2.156c-0.116-0.324-0.305-0.578-0.565-0.758
				c-0.264-0.182-0.578-0.271-0.946-0.271c-0.471,0-0.894,0.131-1.268,0.387c-0.375,0.258-0.631,0.6-0.769,1.025
				c-0.141,0.428-0.209,1.213-0.209,2.363v4.658h-2.721v-10.283h2.526v1.51c0.896-1.162,2.027-1.742,3.389-1.742
				c0.601,0,1.149,0.107,1.646,0.324s0.873,0.492,1.129,0.828c0.254,0.336,0.433,0.717,0.532,1.143s0.149,1.035,0.149,1.83V115.029z
				"/>
			<path fill="#1A1A18" d="M128.097,115.707l3.108,0.377c0.052,0.363,0.17,0.609,0.357,0.746c0.259,0.193,0.664,0.289,1.22,0.289
				c0.711,0,1.244-0.107,1.599-0.318c0.237-0.143,0.419-0.371,0.541-0.688c0.085-0.227,0.125-0.643,0.125-1.248v-1.502
				c-0.812,1.109-1.839,1.666-3.078,1.666c-1.38,0-2.475-0.586-3.282-1.752c-0.632-0.926-0.948-2.072-0.948-3.447
				c0-1.725,0.415-3.041,1.244-3.951s1.86-1.365,3.093-1.365c1.271,0,2.322,0.559,3.146,1.676v-1.443h2.548v9.229
				c0,1.213-0.1,2.121-0.301,2.719c-0.2,0.6-0.479,1.072-0.843,1.414c-0.361,0.342-0.844,0.609-1.446,0.803
				c-0.604,0.195-1.367,0.291-2.291,0.291c-1.742,0-2.979-0.299-3.708-0.895c-0.729-0.598-1.093-1.354-1.093-2.27
				C128.088,115.945,128.091,115.834,128.097,115.707z M130.527,109.674c0,1.09,0.211,1.889,0.634,2.396
				c0.424,0.508,0.943,0.76,1.563,0.76c0.666,0,1.227-0.26,1.684-0.777c0.46-0.521,0.688-1.291,0.688-2.311
				c0-1.064-0.219-1.855-0.657-2.373c-0.439-0.516-0.994-0.773-1.666-0.773c-0.65,0-1.188,0.254-1.611,0.762
				C130.738,107.863,130.527,108.635,130.527,109.674z"/>
			<path fill="#1A1A18" d="M49.24,126.85v-7.48h-2.671v-1.521h7.153v1.521h-2.666v7.48H49.24z"/>
			<path fill="#1A1A18" d="M56.604,117.848v3.311c0.556-0.652,1.222-0.977,1.995-0.977c0.396,0,0.755,0.074,1.074,0.219
				c0.32,0.15,0.561,0.338,0.722,0.566c0.161,0.23,0.272,0.484,0.331,0.762c0.061,0.277,0.09,0.711,0.09,1.295v3.826H59.09v-3.445
				c0-0.684-0.032-1.117-0.099-1.301c-0.065-0.186-0.182-0.332-0.347-0.439c-0.166-0.109-0.374-0.164-0.623-0.164
				c-0.286,0-0.543,0.07-0.768,0.209c-0.226,0.141-0.391,0.35-0.494,0.631c-0.105,0.281-0.156,0.695-0.156,1.242v3.268h-1.727
				v-9.002H56.604z"/>
			<path fill="#1A1A18" d="M66.341,124.775l1.721,0.287c-0.222,0.631-0.571,1.109-1.048,1.439c-0.478,0.33-1.074,0.494-1.79,0.494
				c-1.134,0-1.973-0.369-2.519-1.109c-0.429-0.594-0.644-1.344-0.644-2.248c0-1.08,0.282-1.928,0.848-2.539
				c0.565-0.613,1.278-0.918,2.143-0.918c0.971,0,1.736,0.32,2.297,0.961s0.829,1.621,0.804,2.945H63.83
				c0.012,0.51,0.151,0.908,0.417,1.193c0.267,0.285,0.599,0.428,0.995,0.428c0.27,0,0.497-0.076,0.682-0.221
				C66.107,125.338,66.247,125.102,66.341,124.775z M66.439,123.031c-0.012-0.5-0.142-0.879-0.387-1.139
				c-0.246-0.262-0.545-0.393-0.896-0.393c-0.377,0-0.688,0.139-0.934,0.414c-0.245,0.271-0.366,0.645-0.362,1.117H66.439z"/>
			<path fill="#1A1A18" d="M73.004,120.33h1.608v0.955c0.21-0.326,0.491-0.592,0.849-0.797c0.355-0.205,0.751-0.307,1.185-0.307
				c0.757,0,1.399,0.297,1.928,0.891s0.793,1.42,0.793,2.48c0,1.088-0.267,1.936-0.799,2.539s-1.177,0.904-1.935,0.904
				c-0.36,0-0.687-0.072-0.979-0.215c-0.292-0.143-0.6-0.387-0.924-0.736v3.285h-1.726V120.33z M74.711,123.479
				c0,0.734,0.146,1.273,0.437,1.623c0.29,0.352,0.645,0.527,1.062,0.527c0.401,0,0.735-0.162,1.002-0.484
				c0.266-0.32,0.398-0.848,0.398-1.58c0-0.684-0.137-1.191-0.411-1.523s-0.614-0.498-1.02-0.498c-0.421,0-0.771,0.164-1.05,0.49
				C74.85,122.357,74.711,122.842,74.711,123.479z"/>
			<path fill="#1A1A18" d="M80.336,123.498c0-0.574,0.142-1.129,0.424-1.664c0.283-0.537,0.683-0.947,1.2-1.23
				c0.519-0.283,1.097-0.422,1.735-0.422c0.986,0,1.794,0.32,2.426,0.961c0.629,0.641,0.945,1.449,0.945,2.428
				c0,0.988-0.319,1.805-0.954,2.455c-0.638,0.648-1.438,0.971-2.405,0.971c-0.597,0-1.167-0.135-1.71-0.404
				c-0.542-0.27-0.954-0.666-1.237-1.189C80.478,124.881,80.336,124.246,80.336,123.498z M82.104,123.59
				c0,0.646,0.154,1.141,0.461,1.486c0.307,0.342,0.686,0.516,1.136,0.516s0.828-0.174,1.133-0.516
				c0.305-0.346,0.458-0.846,0.458-1.5c0-0.637-0.153-1.129-0.458-1.473c-0.305-0.346-0.683-0.518-1.133-0.518
				s-0.829,0.172-1.136,0.518C82.259,122.447,82.104,122.941,82.104,123.59z"/>
			<path fill="#1A1A18" d="M89.633,126.85l-2.064-6.52h1.678l1.222,4.273l1.123-4.273h1.665l1.086,4.273l1.247-4.273h1.701
				l-2.094,6.52h-1.658l-1.124-4.193l-1.105,4.193H89.633z"/>
			<path fill="#1A1A18" d="M101.975,124.775l1.72,0.287c-0.222,0.631-0.57,1.109-1.048,1.439c-0.476,0.33-1.074,0.494-1.79,0.494
				c-1.133,0-1.972-0.369-2.518-1.109c-0.429-0.594-0.644-1.344-0.644-2.248c0-1.08,0.282-1.928,0.847-2.539
				c0.565-0.613,1.279-0.918,2.145-0.918c0.97,0,1.735,0.32,2.296,0.961s0.829,1.621,0.804,2.945h-4.322
				c0.012,0.51,0.151,0.908,0.417,1.193s0.599,0.428,0.994,0.428c0.271,0,0.499-0.076,0.683-0.221
				C101.741,125.338,101.881,125.102,101.975,124.775z M102.074,123.031c-0.014-0.5-0.142-0.879-0.389-1.139
				c-0.244-0.262-0.544-0.393-0.896-0.393c-0.376,0-0.688,0.139-0.933,0.414c-0.245,0.271-0.366,0.645-0.362,1.117H102.074z"/>
			<path fill="#1A1A18" d="M106.844,126.85h-1.727v-6.52h1.604v0.926c0.274-0.438,0.521-0.727,0.741-0.865
				c0.218-0.141,0.468-0.209,0.745-0.209c0.394,0,0.772,0.107,1.137,0.324l-0.534,1.506c-0.291-0.188-0.561-0.283-0.811-0.283
				c-0.243,0-0.448,0.066-0.614,0.199c-0.168,0.133-0.302,0.375-0.396,0.721c-0.096,0.348-0.145,1.078-0.145,2.188V126.85z"/>
			<path fill="#1A1A18" d="M112.973,124.988l1.733-0.264c0.071,0.336,0.223,0.592,0.447,0.766s0.54,0.26,0.945,0.26
				c0.446,0,0.782-0.082,1.006-0.244c0.152-0.115,0.229-0.268,0.229-0.461c0-0.131-0.043-0.24-0.123-0.326
				c-0.088-0.08-0.279-0.158-0.578-0.227c-1.393-0.307-2.273-0.588-2.646-0.842c-0.517-0.354-0.774-0.842-0.774-1.467
				c0-0.564,0.223-1.041,0.67-1.426c0.445-0.383,1.139-0.576,2.075-0.576c0.892,0,1.556,0.146,1.99,0.436
				c0.433,0.291,0.732,0.721,0.896,1.289l-1.626,0.303c-0.069-0.256-0.203-0.451-0.396-0.586c-0.195-0.135-0.474-0.201-0.832-0.201
				c-0.455,0-0.781,0.064-0.978,0.191c-0.132,0.088-0.196,0.205-0.196,0.348c0,0.123,0.058,0.229,0.171,0.314
				c0.156,0.113,0.693,0.275,1.613,0.484c0.918,0.209,1.561,0.465,1.924,0.768c0.361,0.307,0.541,0.734,0.541,1.283
				c0,0.598-0.25,1.111-0.748,1.541c-0.501,0.43-1.239,0.645-2.218,0.645c-0.89,0-1.592-0.18-2.109-0.539
				C113.472,126.096,113.132,125.605,112.973,124.988z"/>
			<path fill="#1A1A18" d="M124.866,126.85v-0.977c-0.236,0.348-0.549,0.623-0.936,0.824c-0.387,0.199-0.795,0.299-1.225,0.299
				c-0.438,0-0.833-0.094-1.18-0.287c-0.349-0.193-0.6-0.463-0.754-0.811c-0.156-0.348-0.235-0.83-0.235-1.443v-4.125h1.726v2.994
				c0,0.918,0.032,1.48,0.096,1.688c0.062,0.205,0.179,0.369,0.348,0.49c0.167,0.121,0.381,0.182,0.637,0.182
				c0.298,0,0.56-0.082,0.793-0.242c0.234-0.164,0.393-0.361,0.479-0.602c0.088-0.24,0.131-0.828,0.131-1.76v-2.75h1.725v6.52
				H124.866z"/>
			<path fill="#1A1A18" d="M128.206,120.33h1.61v0.955c0.208-0.326,0.491-0.592,0.847-0.797c0.356-0.205,0.752-0.307,1.186-0.307
				c0.757,0,1.4,0.297,1.928,0.891c0.528,0.594,0.792,1.42,0.792,2.48c0,1.088-0.267,1.936-0.797,2.539
				c-0.532,0.604-1.179,0.904-1.937,0.904c-0.358,0-0.686-0.072-0.978-0.215c-0.294-0.143-0.601-0.387-0.925-0.736v3.285h-1.727
				V120.33z M129.914,123.479c0,0.734,0.146,1.273,0.437,1.623c0.289,0.352,0.644,0.527,1.062,0.527c0.401,0,0.733-0.162,1-0.484
				c0.267-0.32,0.399-0.848,0.399-1.58c0-0.684-0.137-1.191-0.412-1.523c-0.273-0.332-0.613-0.498-1.019-0.498
				c-0.422,0-0.771,0.164-1.049,0.49C130.053,122.357,129.914,122.842,129.914,123.479z"/>
			<path fill="#1A1A18" d="M135.891,120.33h1.607v0.955c0.209-0.326,0.491-0.592,0.846-0.797c0.357-0.205,0.753-0.307,1.186-0.307
				c0.758,0,1.4,0.297,1.93,0.891c0.528,0.594,0.792,1.42,0.792,2.48c0,1.088-0.267,1.936-0.799,2.539
				c-0.533,0.604-1.177,0.904-1.934,0.904c-0.36,0-0.688-0.072-0.979-0.215s-0.601-0.387-0.925-0.736v3.285h-1.724V120.33z
				 M137.596,123.479c0,0.734,0.145,1.273,0.437,1.623c0.291,0.352,0.646,0.527,1.062,0.527c0.399,0,0.735-0.162,1.001-0.484
				c0.267-0.32,0.399-0.848,0.399-1.58c0-0.684-0.138-1.191-0.413-1.523c-0.272-0.332-0.613-0.498-1.019-0.498
				c-0.421,0-0.772,0.164-1.049,0.49C137.735,122.357,137.596,122.842,137.596,123.479z"/>
			<path fill="#1A1A18" d="M143.621,126.85v-9.002h1.725v9.002H143.621z"/>
			<path fill="#1A1A18" d="M146.298,120.33h1.836l1.56,4.629l1.522-4.629h1.787l-2.303,6.273l-0.411,1.137
				c-0.152,0.381-0.296,0.67-0.434,0.873c-0.137,0.199-0.294,0.361-0.472,0.486c-0.179,0.125-0.397,0.223-0.658,0.291
				c-0.259,0.07-0.554,0.105-0.88,0.105c-0.334,0-0.657-0.035-0.977-0.105l-0.154-1.35c0.271,0.055,0.514,0.08,0.731,0.08
				c0.401,0,0.697-0.117,0.891-0.354c0.191-0.236,0.34-0.535,0.44-0.9L146.298,120.33z"/>
			<path fill="#1A1A18" d="M43.674,129.67v3.309c0.557-0.65,1.222-0.977,1.996-0.977c0.396,0,0.754,0.074,1.073,0.221
				c0.32,0.146,0.561,0.336,0.723,0.566c0.161,0.229,0.271,0.482,0.33,0.76c0.061,0.279,0.09,0.711,0.09,1.297v3.824H46.16v-3.443
				c0-0.684-0.032-1.117-0.099-1.303c-0.065-0.184-0.181-0.33-0.346-0.438c-0.166-0.109-0.375-0.162-0.624-0.162
				c-0.286,0-0.543,0.068-0.768,0.207c-0.226,0.139-0.39,0.35-0.494,0.629c-0.104,0.281-0.156,0.695-0.156,1.244v3.266h-1.726v-9
				H43.674z"/>
			<path fill="#1A1A18" d="M50.926,134.139l-1.565-0.281c0.176-0.631,0.479-1.098,0.909-1.4c0.429-0.303,1.068-0.455,1.915-0.455
				c0.771,0,1.343,0.092,1.72,0.273c0.376,0.182,0.642,0.412,0.795,0.695c0.154,0.279,0.23,0.793,0.23,1.543l-0.019,2.014
				c0,0.574,0.027,0.996,0.082,1.268c0.056,0.273,0.159,0.564,0.312,0.875h-1.707c-0.046-0.115-0.102-0.285-0.166-0.508
				c-0.029-0.104-0.05-0.17-0.062-0.203c-0.295,0.285-0.61,0.5-0.945,0.645c-0.337,0.145-0.694,0.215-1.075,0.215
				c-0.672,0-1.2-0.184-1.587-0.547c-0.388-0.365-0.581-0.824-0.581-1.381c0-0.369,0.088-0.699,0.265-0.986
				c0.176-0.289,0.423-0.51,0.739-0.662c0.317-0.154,0.775-0.287,1.373-0.404c0.806-0.15,1.365-0.291,1.677-0.424v-0.17
				c0-0.332-0.083-0.568-0.247-0.709c-0.162-0.143-0.472-0.211-0.927-0.211c-0.308,0-0.546,0.059-0.719,0.18
				C51.171,133.625,51.032,133.836,50.926,134.139z M53.235,135.541c-0.222,0.072-0.572,0.16-1.051,0.262
				c-0.479,0.104-0.792,0.203-0.939,0.301c-0.226,0.16-0.338,0.363-0.338,0.609c0,0.24,0.091,0.449,0.271,0.627
				c0.179,0.174,0.408,0.262,0.687,0.262c0.312,0,0.608-0.102,0.891-0.307c0.209-0.156,0.347-0.344,0.411-0.57
				c0.045-0.148,0.068-0.428,0.068-0.842V135.541z"/>
			<path fill="#1A1A18" d="M56.022,136.811l1.731-0.264c0.073,0.334,0.224,0.59,0.449,0.764c0.225,0.174,0.539,0.262,0.945,0.262
				c0.446,0,0.781-0.08,1.006-0.246c0.152-0.115,0.228-0.268,0.228-0.463c0-0.129-0.04-0.236-0.122-0.322
				c-0.086-0.082-0.279-0.158-0.577-0.229c-1.393-0.307-2.275-0.586-2.647-0.842c-0.516-0.352-0.773-0.84-0.773-1.467
				c0-0.564,0.224-1.039,0.669-1.424c0.446-0.387,1.139-0.578,2.076-0.578c0.892,0,1.555,0.146,1.989,0.436
				c0.434,0.291,0.732,0.721,0.896,1.289l-1.627,0.303c-0.069-0.254-0.202-0.447-0.396-0.584c-0.194-0.135-0.472-0.203-0.832-0.203
				c-0.454,0-0.779,0.064-0.976,0.189c-0.132,0.09-0.197,0.207-0.197,0.352c0,0.121,0.058,0.227,0.172,0.312
				c0.155,0.115,0.693,0.277,1.612,0.486c0.918,0.207,1.562,0.463,1.925,0.766c0.36,0.309,0.541,0.736,0.541,1.283
				c0,0.598-0.25,1.113-0.749,1.543c-0.5,0.43-1.239,0.645-2.217,0.645c-0.889,0-1.592-0.182-2.11-0.541
				C56.521,137.918,56.182,137.43,56.022,136.811z"/>
			<path fill="#1A1A18" d="M67.045,138.67v-9h1.725v3.242c0.532-0.605,1.162-0.91,1.892-0.91c0.794,0,1.451,0.287,1.971,0.863
				c0.52,0.574,0.78,1.4,0.78,2.479c0,1.113-0.266,1.971-0.796,2.572s-1.173,0.902-1.931,0.902c-0.373,0-0.74-0.092-1.103-0.279
				s-0.674-0.461-0.937-0.826v0.957H67.045z M68.758,135.268c0,0.676,0.106,1.176,0.318,1.498c0.299,0.461,0.696,0.691,1.192,0.691
				c0.38,0,0.704-0.164,0.973-0.49c0.269-0.324,0.402-0.838,0.402-1.537c0-0.744-0.136-1.281-0.405-1.611
				c-0.271-0.33-0.616-0.494-1.038-0.494c-0.413,0-0.757,0.158-1.031,0.479C68.894,134.125,68.758,134.615,68.758,135.268z"/>
			<path fill="#1A1A18" d="M78.576,136.596l1.72,0.289c-0.221,0.629-0.57,1.111-1.048,1.439c-0.477,0.33-1.073,0.494-1.789,0.494
				c-1.134,0-1.973-0.371-2.519-1.111c-0.429-0.594-0.644-1.344-0.644-2.248c0-1.082,0.282-1.926,0.847-2.539
				c0.565-0.613,1.279-0.918,2.144-0.918c0.971,0,1.735,0.32,2.297,0.961c0.56,0.641,0.828,1.623,0.804,2.945h-4.322
				c0.012,0.51,0.151,0.91,0.417,1.193c0.267,0.283,0.599,0.428,0.995,0.428c0.27,0,0.497-0.072,0.682-0.223
				C78.343,137.162,78.482,136.924,78.576,136.596z M78.675,134.852c-0.012-0.5-0.141-0.881-0.387-1.139
				c-0.245-0.26-0.545-0.389-0.897-0.389c-0.376,0-0.687,0.135-0.933,0.408c-0.246,0.275-0.366,0.648-0.362,1.119H78.675z"/>
			<path fill="#1A1A18" d="M85.569,136.596l1.721,0.289c-0.222,0.629-0.57,1.111-1.048,1.439c-0.477,0.33-1.073,0.494-1.789,0.494
				c-1.135,0-1.974-0.371-2.519-1.111c-0.43-0.594-0.644-1.344-0.644-2.248c0-1.082,0.282-1.926,0.847-2.539
				c0.565-0.613,1.279-0.918,2.144-0.918c0.97,0,1.735,0.32,2.297,0.961c0.56,0.641,0.828,1.623,0.804,2.945h-4.323
				c0.012,0.51,0.152,0.91,0.418,1.193s0.598,0.428,0.995,0.428c0.27,0,0.496-0.072,0.682-0.223
				C85.337,137.162,85.477,136.924,85.569,136.596z M85.669,134.852c-0.013-0.5-0.142-0.881-0.387-1.139
				c-0.246-0.26-0.545-0.389-0.897-0.389c-0.376,0-0.688,0.135-0.933,0.408c-0.245,0.275-0.366,0.648-0.362,1.119H85.669z"/>
			<path fill="#1A1A18" d="M94.721,138.67h-1.726v-3.326c0-0.703-0.036-1.16-0.11-1.367s-0.193-0.367-0.359-0.482
				s-0.365-0.17-0.6-0.17c-0.298,0-0.566,0.08-0.803,0.244c-0.238,0.164-0.401,0.381-0.489,0.65c-0.088,0.271-0.133,0.77-0.133,1.5
				v2.951h-1.725v-6.521h1.603v0.959c0.569-0.738,1.285-1.105,2.149-1.105c0.381,0,0.729,0.068,1.044,0.205
				c0.314,0.139,0.554,0.312,0.715,0.525c0.162,0.213,0.274,0.455,0.338,0.725s0.096,0.658,0.096,1.16V138.67z"/>
			<path fill="#1A1A18" d="M99.965,138.67v-9h1.725v9H99.965z"/>
			<path fill="#1A1A18" d="M103.059,135.318c0-0.574,0.142-1.129,0.423-1.664c0.283-0.535,0.683-0.945,1.203-1.229
				c0.517-0.283,1.095-0.424,1.733-0.424c0.987,0,1.795,0.32,2.424,0.961c0.632,0.641,0.946,1.449,0.946,2.43
				c0,0.986-0.318,1.803-0.953,2.453c-0.638,0.648-1.438,0.973-2.405,0.973c-0.598,0-1.167-0.135-1.71-0.406
				c-0.542-0.27-0.955-0.664-1.238-1.188C103.2,136.703,103.059,136.068,103.059,135.318z M104.826,135.41
				c0,0.648,0.156,1.141,0.462,1.486c0.306,0.344,0.686,0.516,1.137,0.516c0.449,0,0.827-0.172,1.132-0.516
				c0.304-0.346,0.457-0.844,0.457-1.498c0-0.641-0.153-1.131-0.457-1.475c-0.305-0.342-0.683-0.516-1.132-0.516
				c-0.451,0-0.831,0.174-1.137,0.516C104.982,134.268,104.826,134.766,104.826,135.41z"/>
			<path fill="#1A1A18" d="M116.826,134.078l-1.702,0.307c-0.056-0.34-0.187-0.596-0.389-0.768
				c-0.203-0.172-0.467-0.258-0.789-0.258c-0.429,0-0.772,0.148-1.028,0.443c-0.256,0.299-0.383,0.795-0.383,1.49
				c0,0.775,0.129,1.32,0.389,1.641c0.261,0.32,0.609,0.479,1.047,0.479c0.329,0,0.596-0.094,0.805-0.279
				c0.209-0.188,0.356-0.506,0.442-0.961l1.694,0.289c-0.177,0.777-0.514,1.365-1.014,1.762s-1.168,0.596-2.007,0.596
				c-0.954,0-1.715-0.301-2.282-0.902c-0.566-0.602-0.851-1.436-0.851-2.5c0-1.076,0.284-1.914,0.854-2.514s1.339-0.9,2.309-0.9
				c0.794,0,1.427,0.172,1.895,0.514C116.284,132.855,116.621,133.379,116.826,134.078z"/>
			<path fill="#1A1A18" d="M118.072,138.67v-9h1.726v4.775l2.021-2.297h2.123l-2.229,2.385l2.388,4.137h-1.859l-1.64-2.93
				l-0.805,0.842v2.088H118.072z"/>
			<path fill="#1A1A18" d="M128.904,136.596l1.72,0.289c-0.222,0.629-0.571,1.111-1.047,1.439c-0.478,0.33-1.074,0.494-1.789,0.494
				c-1.136,0-1.975-0.371-2.519-1.111c-0.43-0.594-0.645-1.344-0.645-2.248c0-1.082,0.282-1.926,0.848-2.539
				c0.563-0.613,1.277-0.918,2.142-0.918c0.971,0,1.735,0.32,2.298,0.961c0.56,0.641,0.828,1.623,0.804,2.945h-4.322
				c0.01,0.51,0.15,0.91,0.417,1.193s0.598,0.428,0.995,0.428c0.27,0,0.496-0.072,0.682-0.223
				C128.672,137.162,128.809,136.924,128.904,136.596z M129.003,134.852c-0.012-0.5-0.142-0.881-0.387-1.139
				c-0.246-0.26-0.545-0.389-0.896-0.389c-0.377,0-0.689,0.135-0.935,0.408c-0.245,0.275-0.367,0.648-0.361,1.119H129.003z"/>
			<path fill="#1A1A18" d="M138.102,138.67h-1.601v-0.957c-0.267,0.371-0.581,0.65-0.944,0.832c-0.36,0.184-0.727,0.273-1.096,0.273
				c-0.748,0-1.391-0.301-1.925-0.906c-0.534-0.604-0.8-1.445-0.8-2.527c0-1.104,0.258-1.945,0.778-2.52
				c0.521-0.576,1.177-0.863,1.971-0.863c0.729,0,1.36,0.305,1.893,0.91v-3.242h1.724V138.67z M133.496,135.268
				c0,0.697,0.097,1.201,0.291,1.512c0.276,0.449,0.666,0.678,1.166,0.678c0.396,0,0.734-0.17,1.013-0.51
				c0.279-0.338,0.417-0.842,0.417-1.512c0-0.748-0.135-1.287-0.404-1.617c-0.271-0.33-0.616-0.494-1.04-0.494
				c-0.407,0-0.75,0.162-1.025,0.486C133.635,134.137,133.496,134.623,133.496,135.268z"/>
			<path fill="#1A1A18" d="M142.899,135.318c0-0.574,0.142-1.129,0.423-1.664c0.283-0.535,0.683-0.945,1.201-1.229
				c0.518-0.283,1.095-0.424,1.734-0.424c0.987,0,1.794,0.32,2.425,0.961s0.945,1.449,0.945,2.43c0,0.986-0.317,1.803-0.953,2.453
				c-0.638,0.648-1.438,0.973-2.405,0.973c-0.599,0-1.167-0.135-1.709-0.406c-0.543-0.27-0.955-0.664-1.238-1.188
				C143.041,136.703,142.899,136.068,142.899,135.318z M144.667,135.41c0,0.648,0.154,1.141,0.461,1.486
				c0.306,0.344,0.685,0.516,1.137,0.516c0.448,0,0.827-0.172,1.131-0.516c0.305-0.346,0.459-0.844,0.459-1.498
				c0-0.641-0.154-1.131-0.459-1.475c-0.304-0.342-0.683-0.516-1.131-0.516c-0.452,0-0.831,0.174-1.137,0.516
				C144.821,134.268,144.667,134.766,144.667,135.41z"/>
			<path fill="#1A1A18" d="M150.225,132.148h0.958v-0.49c0-0.549,0.059-0.959,0.175-1.229s0.331-0.488,0.645-0.66
				c0.312-0.17,0.709-0.256,1.188-0.256c0.492,0,0.972,0.076,1.443,0.223l-0.231,1.203c-0.275-0.064-0.54-0.098-0.794-0.098
				c-0.249,0-0.429,0.057-0.536,0.174c-0.109,0.117-0.163,0.342-0.163,0.672v0.461h1.289v1.357h-1.289v5.164h-1.726v-5.164h-0.958
				V132.148z"/>
			<path fill="#1A1A18" d="M154.411,132.148h0.96v-0.49c0-0.549,0.057-0.959,0.174-1.229s0.332-0.488,0.644-0.66
				c0.313-0.17,0.71-0.256,1.188-0.256c0.492,0,0.973,0.076,1.444,0.223l-0.233,1.203c-0.274-0.064-0.538-0.098-0.792-0.098
				c-0.25,0-0.43,0.057-0.538,0.174s-0.161,0.342-0.161,0.672v0.461h1.288v1.357h-1.288v5.164h-1.726v-5.164h-0.96V132.148z"/>
			<path fill="#1A1A18" d="M43.658,143.971h0.958v-0.49c0-0.549,0.058-0.959,0.175-1.23c0.117-0.27,0.332-0.488,0.645-0.658
				s0.709-0.254,1.188-0.254c0.49,0,0.972,0.072,1.443,0.219l-0.233,1.205c-0.274-0.066-0.539-0.098-0.792-0.098
				c-0.25,0-0.43,0.057-0.538,0.174c-0.107,0.117-0.162,0.34-0.162,0.674v0.459h1.29v1.357h-1.29v5.164h-1.726v-5.164h-0.958
				V143.971z"/>
			<path fill="#1A1A18" d="M48.202,147.139c0-0.572,0.142-1.127,0.424-1.664c0.282-0.535,0.682-0.945,1.2-1.229
				c0.518-0.279,1.096-0.422,1.734-0.422c0.987,0,1.795,0.32,2.426,0.959c0.63,0.643,0.946,1.451,0.946,2.43
				c0,0.986-0.319,1.805-0.955,2.453c-0.637,0.65-1.438,0.973-2.404,0.973c-0.598,0-1.168-0.133-1.711-0.406
				c-0.542-0.27-0.954-0.666-1.236-1.188S48.202,147.887,48.202,147.139z M49.971,147.23c0,0.648,0.153,1.143,0.46,1.488
				c0.307,0.344,0.686,0.514,1.137,0.514c0.45,0,0.827-0.17,1.133-0.514c0.305-0.346,0.458-0.846,0.458-1.5
				c0-0.639-0.153-1.129-0.458-1.475c-0.306-0.344-0.683-0.514-1.133-0.514c-0.451,0-0.83,0.17-1.137,0.514
				C50.124,146.09,49.971,146.586,49.971,147.23z"/>
			<path fill="#1A1A18" d="M57.935,150.492h-1.726v-6.521h1.604v0.926c0.273-0.438,0.521-0.725,0.74-0.865
				c0.219-0.137,0.467-0.207,0.746-0.207c0.393,0,0.771,0.107,1.136,0.324l-0.534,1.504c-0.291-0.188-0.561-0.283-0.811-0.283
				c-0.242,0-0.447,0.068-0.614,0.201c-0.168,0.133-0.301,0.375-0.396,0.723c-0.097,0.348-0.145,1.076-0.145,2.186V150.492z"/>
			<path fill="#1A1A18" d="M63.854,143.971h1.837l1.56,4.631l1.522-4.631h1.787l-2.303,6.275l-0.412,1.135
				c-0.151,0.383-0.296,0.672-0.434,0.873c-0.137,0.201-0.294,0.363-0.473,0.488c-0.178,0.125-0.396,0.223-0.656,0.293
				c-0.261,0.068-0.555,0.104-0.881,0.104c-0.332,0-0.657-0.035-0.977-0.104l-0.154-1.352c0.271,0.053,0.514,0.08,0.731,0.08
				c0.4,0,0.698-0.117,0.891-0.354c0.191-0.236,0.339-0.535,0.441-0.9L63.854,143.971z"/>
			<path fill="#1A1A18" d="M71.266,147.139c0-0.572,0.142-1.127,0.424-1.664c0.283-0.535,0.683-0.945,1.201-1.229
				c0.518-0.279,1.096-0.422,1.734-0.422c0.987,0,1.795,0.32,2.425,0.959c0.631,0.643,0.946,1.451,0.946,2.43
				c0,0.986-0.319,1.805-0.955,2.453c-0.637,0.65-1.438,0.973-2.403,0.973c-0.598,0-1.168-0.133-1.71-0.406
				c-0.544-0.27-0.955-0.666-1.238-1.188C71.407,148.523,71.266,147.887,71.266,147.139z M73.034,147.23
				c0,0.648,0.154,1.143,0.46,1.488c0.308,0.344,0.687,0.514,1.137,0.514c0.451,0,0.827-0.17,1.133-0.514
				c0.305-0.346,0.458-0.846,0.458-1.5c0-0.639-0.153-1.129-0.458-1.475c-0.306-0.344-0.682-0.514-1.133-0.514
				c-0.45,0-0.829,0.17-1.137,0.514C73.188,146.09,73.034,146.586,73.034,147.23z"/>
			<path fill="#1A1A18" d="M83.64,150.492v-0.977c-0.237,0.348-0.55,0.623-0.937,0.822c-0.388,0.201-0.795,0.301-1.226,0.301
				c-0.438,0-0.831-0.096-1.179-0.289c-0.348-0.189-0.6-0.463-0.755-0.809c-0.155-0.35-0.233-0.832-0.233-1.443v-4.127h1.726v2.996
				c0,0.918,0.031,1.479,0.095,1.686s0.179,0.371,0.347,0.49c0.168,0.123,0.382,0.182,0.639,0.182c0.295,0,0.56-0.08,0.792-0.24
				c0.234-0.162,0.394-0.363,0.479-0.604s0.129-0.824,0.129-1.758v-2.752h1.726v6.521H83.64z"/>
			<path fill="#1A1A18" d="M88.68,150.492h-1.726v-6.521h1.604v0.926c0.273-0.438,0.521-0.725,0.74-0.865
				c0.219-0.137,0.467-0.207,0.746-0.207c0.393,0,0.771,0.107,1.136,0.324l-0.534,1.504c-0.291-0.188-0.561-0.283-0.811-0.283
				c-0.242,0-0.446,0.068-0.614,0.201s-0.3,0.375-0.396,0.723s-0.145,1.076-0.145,2.186V150.492z"/>
			<path fill="#1A1A18" d="M95.368,143.971h1.608v0.957c0.21-0.326,0.491-0.594,0.848-0.797c0.356-0.205,0.752-0.307,1.186-0.307
				c0.757,0,1.399,0.295,1.927,0.891c0.53,0.592,0.793,1.42,0.793,2.48c0,1.088-0.267,1.936-0.798,2.539
				c-0.532,0.602-1.178,0.904-1.935,0.904c-0.36,0-0.687-0.07-0.979-0.213c-0.292-0.143-0.6-0.391-0.924-0.738v3.285h-1.726V143.971
				z M97.075,147.121c0,0.732,0.145,1.273,0.437,1.623c0.29,0.352,0.645,0.525,1.062,0.525c0.401,0,0.735-0.16,1.001-0.482
				c0.267-0.32,0.4-0.848,0.4-1.582c0-0.682-0.138-1.189-0.412-1.521s-0.614-0.496-1.021-0.496c-0.42,0-0.771,0.16-1.049,0.488
				C97.214,146.002,97.075,146.482,97.075,147.121z"/>
			<path fill="#1A1A18" d="M104.75,150.492h-1.726v-6.521h1.603v0.926c0.275-0.438,0.521-0.725,0.74-0.865
				c0.22-0.137,0.468-0.207,0.746-0.207c0.394,0,0.772,0.107,1.137,0.324l-0.534,1.504c-0.291-0.188-0.561-0.283-0.811-0.283
				c-0.242,0-0.447,0.068-0.614,0.201s-0.301,0.375-0.396,0.723c-0.097,0.348-0.146,1.076-0.146,2.186V150.492z"/>
			<path fill="#1A1A18" d="M107.594,147.139c0-0.572,0.141-1.127,0.424-1.664c0.283-0.535,0.683-0.945,1.2-1.229
				c0.518-0.279,1.097-0.422,1.734-0.422c0.986,0,1.796,0.32,2.427,0.959c0.63,0.643,0.945,1.451,0.945,2.43
				c0,0.986-0.32,1.805-0.956,2.453c-0.635,0.65-1.438,0.973-2.403,0.973c-0.597,0-1.167-0.133-1.711-0.406
				c-0.543-0.27-0.953-0.666-1.236-1.188S107.594,147.887,107.594,147.139z M109.362,147.23c0,0.648,0.153,1.143,0.459,1.488
				c0.309,0.344,0.687,0.514,1.137,0.514c0.452,0,0.828-0.17,1.135-0.514c0.305-0.346,0.456-0.846,0.456-1.5
				c0-0.639-0.151-1.129-0.456-1.475c-0.307-0.344-0.683-0.514-1.135-0.514c-0.45,0-0.828,0.17-1.137,0.514
				C109.516,146.09,109.362,146.586,109.362,147.23z"/>
			<path fill="#1A1A18" d="M118.665,143.971v1.377h-1.18v2.627c0,0.531,0.013,0.842,0.034,0.932
				c0.023,0.086,0.073,0.158,0.153,0.217c0.079,0.057,0.178,0.086,0.293,0.086c0.16,0,0.391-0.057,0.694-0.166l0.146,1.338
				c-0.402,0.172-0.855,0.258-1.363,0.258c-0.312,0-0.591-0.053-0.842-0.156c-0.249-0.104-0.432-0.238-0.55-0.404
				c-0.116-0.166-0.196-0.391-0.241-0.674c-0.037-0.201-0.055-0.605-0.055-1.215v-2.842h-0.792v-1.377h0.792v-1.295l1.729-1.008
				v2.303H118.665z"/>
			<path fill="#1A1A18" d="M123.639,148.416l1.72,0.289c-0.222,0.631-0.57,1.109-1.048,1.439c-0.476,0.33-1.074,0.494-1.79,0.494
				c-1.133,0-1.972-0.371-2.518-1.111c-0.43-0.594-0.644-1.342-0.644-2.246c0-1.082,0.282-1.928,0.847-2.539
				c0.566-0.611,1.28-0.918,2.144-0.918c0.971,0,1.736,0.32,2.297,0.959c0.561,0.643,0.829,1.625,0.804,2.945h-4.322
				c0.012,0.512,0.152,0.91,0.417,1.195c0.266,0.285,0.599,0.426,0.994,0.426c0.271,0,0.499-0.074,0.684-0.221
				C123.405,148.982,123.545,148.744,123.639,148.416z M123.738,146.674c-0.014-0.502-0.142-0.881-0.388-1.141
				c-0.245-0.26-0.545-0.389-0.897-0.389c-0.377,0-0.687,0.137-0.933,0.41c-0.245,0.273-0.365,0.648-0.362,1.119H123.738z"/>
			<path fill="#1A1A18" d="M132.542,145.9l-1.699,0.305c-0.06-0.338-0.188-0.596-0.391-0.768c-0.203-0.17-0.466-0.258-0.789-0.258
				c-0.431,0-0.774,0.148-1.028,0.445c-0.257,0.297-0.384,0.793-0.384,1.488c0,0.773,0.129,1.322,0.39,1.641
				c0.259,0.318,0.608,0.479,1.046,0.479c0.327,0,0.596-0.092,0.806-0.279c0.209-0.186,0.356-0.506,0.44-0.961l1.697,0.289
				c-0.178,0.777-0.515,1.365-1.014,1.762c-0.499,0.398-1.169,0.596-2.01,0.596c-0.954,0-1.715-0.301-2.279-0.902
				c-0.568-0.602-0.852-1.436-0.852-2.498c0-1.078,0.285-1.918,0.854-2.516c0.567-0.6,1.337-0.898,2.309-0.898
				c0.794,0,1.425,0.17,1.894,0.512C132.002,144.678,132.338,145.197,132.542,145.9z"/>
			<path fill="#1A1A18" d="M136.841,143.971v1.377h-1.179v2.627c0,0.531,0.012,0.842,0.033,0.932
				c0.023,0.086,0.073,0.158,0.153,0.217c0.08,0.057,0.178,0.086,0.293,0.086c0.159,0,0.391-0.057,0.693-0.166l0.146,1.338
				c-0.4,0.172-0.855,0.258-1.362,0.258c-0.312,0-0.592-0.053-0.841-0.156s-0.433-0.238-0.552-0.404
				c-0.116-0.166-0.196-0.391-0.241-0.674c-0.036-0.201-0.055-0.605-0.055-1.215v-2.842h-0.792v-1.377h0.792v-1.295l1.731-1.008
				v2.303H136.841z"/>
			<path fill="#1A1A18" d="M138.038,143.086v-1.596h1.725v1.596H138.038z M138.038,150.492v-6.521h1.725v6.521H138.038z"/>
			<path fill="#1A1A18" d="M141.133,147.139c0-0.572,0.142-1.127,0.424-1.664c0.283-0.535,0.684-0.945,1.201-1.229
				c0.518-0.279,1.098-0.422,1.734-0.422c0.986,0,1.796,0.32,2.426,0.959c0.63,0.643,0.946,1.451,0.946,2.43
				c0,0.986-0.319,1.805-0.956,2.453c-0.636,0.65-1.438,0.973-2.402,0.973c-0.598,0-1.169-0.133-1.711-0.406
				c-0.544-0.27-0.955-0.666-1.238-1.188C141.274,148.523,141.133,147.887,141.133,147.139z M142.901,147.23
				c0,0.648,0.154,1.143,0.46,1.488c0.309,0.344,0.687,0.514,1.137,0.514c0.452,0,0.827-0.17,1.135-0.514
				c0.304-0.346,0.457-0.846,0.457-1.5c0-0.639-0.153-1.129-0.457-1.475c-0.308-0.344-0.683-0.514-1.135-0.514
				c-0.45,0-0.828,0.17-1.137,0.514C143.056,146.09,142.901,146.586,142.901,147.23z"/>
			<path fill="#1A1A18" d="M155.146,150.492h-1.726v-3.328c0-0.703-0.037-1.16-0.109-1.365c-0.074-0.207-0.193-0.369-0.36-0.484
				c-0.167-0.113-0.364-0.17-0.6-0.17c-0.298,0-0.565,0.08-0.804,0.244s-0.399,0.381-0.488,0.652
				c-0.087,0.27-0.133,0.768-0.133,1.498v2.953h-1.724v-6.521h1.603v0.957c0.567-0.736,1.286-1.104,2.148-1.104
				c0.382,0,0.729,0.068,1.044,0.205c0.315,0.137,0.554,0.312,0.716,0.525c0.161,0.213,0.275,0.455,0.339,0.725
				c0.062,0.27,0.094,0.656,0.094,1.16V150.492z"/>
		</g>
		<g>
			<polygon fill-rule="evenodd" clip-rule="evenodd" fill="#FFEC00" points="100.173,41.785 74.113,87.185 125.78,87.185 			"/>
			<path fill-rule="evenodd" clip-rule="evenodd" fill="#1A1A18" d="M74.624,86.917l25.545-44.509l25.102,44.509H74.624
				L74.624,86.917z M130.061,87.447l-28.045-49.28c0,0-0.428-1.063-1.811-1.063c-1.382,0-2.022,1.063-2.022,1.063L69.997,87.317
				c0,0-0.714,1.214-0.056,2.35c0,0,0.674,1.115,1.793,1.115h56.198c0,0,1.504,0.048,2.108-1.133
				C130.547,88.666,130.304,87.905,130.061,87.447z"/>
			<path fill-rule="evenodd" clip-rule="evenodd" fill="#1A1A18" d="M95.849,55.596l1.812,17.137c0,0,0.427,2.13,2.2,2.13
				c2.063,0,2.374-2.092,2.374-2.092l1.885-17.208c0,0-0.23-4.152-4.116-4.152C95.854,51.411,95.849,55.596,95.849,55.596z"/>
			<path fill-rule="evenodd" clip-rule="evenodd" fill="#1A1A18" d="M100.055,85.285c2.26,0,4.091-1.829,4.091-4.091
				c0-2.257-1.831-4.088-4.091-4.088c-2.257,0-4.087,1.831-4.087,4.088C95.968,83.456,97.798,85.285,100.055,85.285z"/>
		</g>
	</g>
</g>
</svg>
