<?xml version="1.0" encoding="utf-8"?>
<!-- Generator: Adobe Illustrator 16.0.0, SVG Export Plug-In . SVG Version: 6.00 Build 0)  -->
<!DOCTYPE svg PUBLIC "-//W3C//DTD SVG 1.1//EN" "http://www.w3.org/Graphics/SVG/1.1/DTD/svg11.dtd">
<svg version="1.1" id="Layer_1" xmlns="http://www.w3.org/2000/svg" xmlns:xlink="http://www.w3.org/1999/xlink" x="0px" y="0px"
	 width="200px" height="200px" viewBox="0 0 200 200" enable-background="new 0 0 200 200" xml:space="preserve">
<g>
	<polygon fill-rule="evenodd" clip-rule="evenodd" stroke="#000000" stroke-width="0.1221" stroke-miterlimit="2.6131" points="
		194.242,174.801 104.757,19.684 104.205,18.857 103.517,18.236 102.758,17.685 101.861,17.271 100.966,16.995 100,16.927 
		99.035,16.995 98.069,17.271 97.243,17.685 96.416,18.236 95.794,18.857 95.243,19.684 5.758,174.801 5.345,175.696 5.069,176.592 
		5,177.559 5.069,178.523 5.345,179.488 5.758,180.315 6.31,181.144 6.931,181.763 7.757,182.314 8.585,182.729 9.55,183.004 
		10.515,183.073 189.485,183.073 190.45,183.004 191.346,182.729 192.243,182.314 193.001,181.763 193.69,181.144 194.242,180.315 
		194.656,179.488 194.931,178.523 195,177.559 194.931,176.592 194.656,175.696 194.242,174.801 	"/>
	
		<polygon fill-rule="evenodd" clip-rule="evenodd" fill="#FFF200" stroke="#000000" stroke-width="0.1221" stroke-miterlimit="2.6131" points="
		100,34.23 179.281,171.698 20.718,171.698 100,34.23 	"/>
	<path fill-rule="evenodd" clip-rule="evenodd" d="M128.747,151.498l-0.137-0.068l-0.277-0.139l-0.205-0.138l-0.277-0.068
		l-0.552-0.207l-0.413-0.069l-0.274-0.069l-0.139-0.068l-0.139-0.069l-0.274-0.068l-0.69-0.276l-0.757-0.413l-0.829-0.345
		l-0.826-0.345l-0.76-0.345l-1.586-0.62l-1.584-0.69l-1.586-0.619l-1.586-0.69l0.621-1.517l0.619-1.517l0.277-0.896l0.205-0.966
		l0.208-0.896l0.069-0.896l7.17-3.379l3.516-1.723l1.86-0.759l0.896-0.345l0.482-0.138l0.482-0.069h0.967l1.032,0.069l0.967,0.207
		l0.896,0.275l1.931,0.482l0.482,0.139l0.413,0.207l0.482,0.206l0.482,0.138l0.965,0.139h0.484l0.482-0.069l0.482-0.207l0.414-0.206
		l0.413-0.276l0.344-0.414l0.208-0.413l0.205-0.414l0.139-0.482v-0.483v-1.033l-0.205-0.966l-0.069-0.482l-0.277-0.413l-0.274-0.413
		l-0.277-0.414l-0.482-0.828l0.069-1.033l-0.206-1.931l-0.068-0.482l-0.139-0.482l-0.552-0.828l-0.275-0.482l-0.346-0.345
		l-0.413-0.207l-0.482-0.206l-0.413-0.207l-0.482-0.139h-0.483l-0.482,0.069l-0.965,0.276l-0.415,0.206l-0.482,0.207l-0.344,0.345
		l-0.345,0.346l-0.346,0.344l-0.344,0.345l-0.896,0.413l-0.965,0.415l-1.793,0.688l-3.585,1.586l-1.792,0.896l-0.896,0.414
		l-0.896,0.344l-0.968,0.345l-0.896,0.346l-1.791,0.758l0.344-0.414l0.413-0.552l0.413-0.62l0.277-0.688l0.205-0.759l0.208-0.621
		l0.208-1.24v-1.241l-0.139-1.173l-0.208-1.171l-0.344-1.104l0.069-0.138l0.069-0.139l0.069-0.137l0.136-0.138l0.208-0.414
		l0.413-0.689l0.69-1.447l0.344-0.759l0.277-0.758l0.274-0.759l0.275-0.827l0.276-0.828l0.206-0.896l0.138-0.896l0.069-0.759
		l0.208-1.378l0.137-0.759l0.068-0.896l0.069-0.896v-0.828l-0.069-1.586l-0.068-0.896l-0.069-0.827l-0.137-0.759l-0.069-0.62
		l-0.139-1.517l-0.138-0.827l-0.137-0.896l-0.277-0.965l-0.344-0.896l-0.413-0.896l-0.413-0.758l-0.898-1.379l-0.965-1.379
		l-0.621-0.689l-0.55-0.621l-0.62-0.551l-0.482-0.552l-0.483-0.414l-0.482-0.552l-0.552-0.619l-0.689-0.621l-0.758-0.621
		l-0.828-0.482l-0.896-0.482l-0.76-0.344l-0.688-0.276l-0.62-0.276l-0.552-0.275l-0.621-0.414l-0.758-0.344l-0.759-0.345
		l-0.896-0.345l-0.827-0.276l-0.828-0.207l-0.827-0.138l-1.517-0.345l-1.517-0.206l-1.655-0.207l-1.723-0.138l-1.586,0.068
		l-1.585,0.069l-1.585,0.138l-1.724,0.275l-1.585,0.414l-1.517,0.414l-1.517,0.551l-1.517,0.62l-1.517,0.759l-1.379,0.759
		l-1.517,0.965l-0.621,0.551l-0.62,0.483l-1.103,0.965L79.662,88.9l-0.62,0.482l-0.621,0.62l-0.758,0.759l-0.621,0.827l-0.483,0.827
		l-0.413,0.759l-0.621,1.31l-0.689,1.448l-0.621,1.586l-0.551,1.584l-0.345,1.655l-0.345,1.655l-0.069,1.723v1.725l0.069,0.896
		l0.207,0.965l0.207,0.896l0.276,0.827l0.275,0.758l0.207,0.69l0.276,0.759l0.276,0.758l0.414,0.827l0.413,0.827l0.414,0.758
		l0.138,0.207l0.207,0.276l0.207,0.345l0.207,0.345l-0.345,0.965l-0.345,0.965l-0.344,1.034l-0.207,1.172l-0.138,1.241l0.069,1.24
		l0.207,1.311l0.414,1.104l0.483,1.034l0.482,0.965l0.62,0.965l0.621,0.827l0.552,0.689l0.482,0.621l0.828,1.378l-3.792-1.447
		l-3.723-1.586l-1.931-0.62l-1.93-0.688l-1.861-0.621l-0.965-0.345l-0.896-0.483l-0.896-0.551l-0.758-0.62l-1.585-1.241
		l-0.483-0.275l-0.482-0.207l-0.482-0.069h-0.482l-0.483,0.069l-0.482,0.138l-0.482,0.138l-0.483,0.345l-0.344,0.345l-0.276,0.413
		l-0.276,0.966l-0.207,0.966l-0.069,1.034v2.067l-0.069,0.207l-0.207,0.138l-0.345,0.413l-0.276,0.414l-0.276,0.414l-0.207,0.482
		l-0.069,0.482l-0.068,0.552l0.068,0.482l0.069,0.482l0.138,0.482l0.207,0.483l0.345,0.344l0.345,0.346l0.482,0.275l0.482,0.207
		l0.483,0.069l0.552,0.067l0.482-0.067l0.482-0.139l0.483-0.207l0.896-0.345l0.483-0.138l0.551-0.069h0.483l0.551,0.069l0.965,0.207
		l3.86,1.31l3.861,1.241l3.792,1.379l3.861,1.31l1.93,0.62l1.931,0.552l0.207,1.034l0.345,1.103l0.344,0.966l0.345,0.896
		l-0.621,0.275l-0.552,0.276l-0.482,0.137l-0.276,0.069l-0.344,0.138l-0.828,0.345l-0.758,0.346l-1.103,0.552l-1.172,0.413
		l-1.379,0.552l-1.31,0.552l-1.241,0.62l-1.172,0.482l-1.379,0.62l-0.621,0.345l-0.551,0.207l-1.241,0.551l-0.414,0.139
		l-0.344,0.138l-0.414,0.069h-0.482h-1.104l-0.758-0.069h-0.413h-0.207h-0.138l-0.138-0.068h-0.207l-0.276-0.069h-0.276h-0.414
		l-0.414,0.069l-0.276,0.068l-0.276,0.138l-0.413,0.207l-0.208,0.207l-0.275,0.206l-0.275,0.346l-0.208,0.345l-0.138,0.413
		l-0.069,0.345l-0.069,0.345l0.069,0.275v0.482l0.138,0.276l0.068,0.206l0.069,0.139v0.138l0.069,0.069l0.069,0.069l0.068,0.137
		l0.069,0.207l0.276,0.414l0.207,0.276l0.069,0.137l0.138,0.207l0.069,0.275l0.069,0.346l0.069,0.482l0.069,0.413l0.069,0.276v0.414
		v0.274v0.276l0.069,0.414l0.069,0.275l0.138,0.276l0.138,0.344l0.207,0.345l0.276,0.276l0.344,0.344l0.207,0.139l0.276,0.207
		l0.483,0.138l0.344,0.138l0.414,0.069l0.482,0.068l0.552-0.068l0.551-0.139l0.62-0.275l0.414-0.276l0.275-0.274l0.138-0.139
		l0.207-0.207l0.138-0.138l0.138-0.068l0.207-0.207l0.275-0.207l0.552-0.276l0.276-0.138l0.207-0.137l0.276-0.139l0.621-0.275
		l0.276-0.207l0.207-0.069l0.621-0.344l0.827-0.346l0.965-0.413l0.896-0.482l0.828-0.414l0.896-0.413l0.965-0.415l0.827-0.413
		l0.689-0.275l0.414-0.138l0.482-0.207l0.552-0.207l0.621-0.276l0.551-0.275l0.483-0.275l0.345-0.207l0.344-0.138l0.276-0.139
		l0.414-0.137l0.413-0.207l0.552-0.139l0.965-0.413l0.896-0.413l1.792-0.69l1.103,1.034l0.621,0.482l0.621,0.552l0.758,0.414
		l0.758,0.414l0.758,0.345l0.758,0.275l1.517,0.414l1.517,0.275l1.448,0.138h0.689h0.827l0.896-0.069l0.829-0.068l0.757-0.206
		l0.621-0.139l0.69-0.138l0.688-0.207l1.448-0.414l1.241-0.552l0.69-0.275l0.688-0.344l0.689-0.415l0.69-0.413l0.688-0.482
		l0.689-0.482l1.586,0.62l0.827,0.275l0.689,0.276l0.688,0.345l0.759,0.413l0.896,0.414l0.965,0.414l0.482,0.137l0.413,0.139
		l0.621,0.207l0.344,0.138l0.347,0.207l0.826,0.344l3.241,1.449l3.239,1.378l0.759,0.345l0.69,0.345l0.619,0.275l0.552,0.345
		l0.276,0.207l0.344,0.207l0.69,0.552l0.344,0.275l0.482,0.413l0.345,0.208l0.346,0.138l0.413,0.206l0.552,0.139l0.758,0.138
		l0.621-0.069l0.759-0.138l0.688-0.275l0.344-0.276l0.346-0.275l0.345-0.414l0.276-0.345l0.206-0.413l0.069-0.345l0.207-0.552
		v-0.414l0.067-0.345v-0.275v-0.207v-0.207v-0.068l0.069-0.068l0.139-0.139l0.138-0.275l0.139-0.276l0.137-0.275l0.139-0.207
		l0.069-0.138l0.068-0.139l0.069-0.137l0.137-0.139l0.139-0.274l0.139-0.208l0.068-0.138l0.067-0.275l0.069-0.207l0.069-0.275
		l0.069-0.346v-0.413l-0.139-0.621l-0.069-0.344l-0.205-0.275l-0.208-0.276l-0.206-0.275l-0.413-0.346l-0.415-0.206l-0.274-0.069
		l-0.208-0.068l-0.137-0.069h-0.276h-0.139h-0.619h-0.346l-0.275,0.069l-0.138,0.068h-0.139h-0.137v0.069h-0.069h-0.138h-0.275
		l-0.828,0.069l-0.758,0.068l-0.276,0.068h-0.275l-0.344-0.068h-0.139l-0.276-0.068l-0.619-0.276l-0.76-0.207l-0.896-0.345
		l-0.828-0.206l-0.345-0.069L128.747,151.498L128.747,151.498z M59.669,125.508l0.207-0.069h0.207h0.069v0.069l0.138,0.069
		l0.138,0.137l0.275,0.139l0.551,0.482l0.621,0.482l0.689,0.552l0.758,0.552l0.896,0.482l0.827,0.413l0.965,0.276l0.758,0.207
		l0.621,0.206l0.551,0.207l0.689,0.275l0.758,0.276l0.827,0.275l0.758,0.207l0.621,0.207l0.483,0.207l0.62,0.275l1.448,0.62
		l2.827,1.104l0.758,0.276l0.345,0.137l0.483,0.207l0.551,0.139l0.62,0.275l0.414,0.138l0.414,0.139l0.551,0.137l0.552,0.207
		l0.207,0.758l0.138,0.897l0.345,1.86l-1.448-0.482l-1.517-0.482l-1.585-0.552l-1.517-0.413l-1.378-0.552l-1.586-0.552l-1.586-0.62
		l-1.585-0.482l-3.033-0.965l-1.517-0.482l-0.828-0.276l-0.896-0.275l-0.551-0.139l-0.551-0.069l-0.689-0.068l-0.689,0.068
		l-0.689,0.069l-0.621,0.139l-0.621,0.207l-0.413,0.206l-0.345,0.069l-0.138,0.138h-0.207H58.29h-0.345l-0.069-0.138v-0.139v-0.206
		v-0.138v-0.069l0.138-0.207l0.207-0.275l0.069-0.069l0.069-0.069l0.207-0.137l0.207-0.346l0.207-0.344l0.276-0.552l0.138-0.621
		l0.068-0.275v-0.276v-0.274l-0.068-0.069v-0.069v-0.069v-0.138v-0.206v-0.346V127.3v-0.413v-0.207l0.068-0.207v-0.275
		L59.669,125.508L59.669,125.508z M95.311,126.129l0.896-2.138l0.483-1.104l0.275-0.482l0.345-0.413l0.414-0.414l0.483-0.345
		l0.482-0.345l0.482-0.207l0.276-0.069l0.345,0.069l0.551,0.139l0.482,0.274l0.483,0.346l0.827,0.758l0.344,0.482l0.277,0.552
		l0.482,1.034l0.344,1.104l0.275,1.103l0.138,1.173l0.139,1.103l0.208,1.103v0.62l-0.069,0.552l-0.139,0.552l-0.208,0.552
		l-0.413,0.413l-0.552,0.276l-0.482,0.206l-0.552,0.139h-0.619l-0.552-0.139l-0.482-0.274l-0.483-0.276l-0.345-0.068l-0.276-0.069
		h-0.138l-0.138,0.069l-0.207,0.206l-0.207,0.139l-0.275,0.138l-0.552,0.068l-0.552,0.068h-0.62l-0.551-0.206l-0.552-0.207
		l-0.414-0.413l-0.138-0.208l-0.138-0.274l-0.138-0.552l-0.069-0.621l-0.068-0.552v-0.551l0.137-0.552l0.138-0.552l0.275-1.103
		l0.069-0.62L95.311,126.129L95.311,126.129z M84.833,119.992l-0.621-1.172l-0.138-0.551l-0.138-0.621l-0.138-0.689v-0.62
		l0.138-0.62l0.138-0.621l0.276-0.62l0.276-0.552l0.414-0.482l0.414-0.482l0.552-0.275l0.621-0.276l1.172-0.345l1.31-0.413
		l0.621-0.069l0.621-0.069l1.241,0.069h1.31l0.621,0.137l0.621,0.139l0.62,0.207l0.551,0.275l0.414,0.482l0.414,0.482l0.345,0.552
		l0.276,0.552l0.138,0.62v0.69v1.24v0.689l-0.138,0.621l-0.552,1.172l-0.275,0.551l-0.345,0.552l-0.276,0.551l-0.207,0.276
		l-0.207,0.207l-0.552,0.275l-0.414,0.552l-0.413,0.414l-0.483,0.482l-0.551,0.344l-0.552,0.276l-0.62,0.207l-0.621,0.068h-0.621
		l-0.689-0.068l-0.551-0.207l-0.621-0.207l-1.103-0.758l-0.482-0.346l-0.483-0.413l-0.414-0.482l-0.345-0.552L84.833,119.992
		L84.833,119.992z M116.2,117.441l-0.069,0.689l-0.137,0.621l-0.069,0.689l-0.138,0.62l-0.208,0.62l-0.274,0.621l-0.621,1.172
		l-0.206,0.275l-0.276,0.207l-0.552,0.413l-0.552,0.345l-0.275,0.207l-0.276,0.069l-1.31,0.275l-0.689,0.069l-0.619-0.069
		l-0.621-0.206l-0.621-0.276l-0.62-0.275l-0.552-0.414l-0.482-0.483l-0.414-0.482l-0.826-1.034l-0.76-1.103l-0.62-1.172
		l-0.345-0.551l-0.274-0.621l-0.208-0.62l-0.069-0.621v-0.688l0.208-0.69l0.344-0.551l0.413-0.483l0.347-0.551l0.274-0.621
		l0.208-0.206l0.274-0.207l0.621-0.275l0.621-0.207l0.619-0.345l0.276-0.138l0.275-0.208l0.689-0.137l1.242-0.276l1.309-0.275
		l0.69-0.069h0.619l0.69,0.069l0.62,0.138l0.621,0.207l0.55,0.344l0.552,0.482l0.208,0.208l0.207,0.275l0.137,0.275l0.069,0.345
		l0.069,0.689l0.069,0.621l0.068,0.688l-0.207,1.311v0.689V117.441L116.2,117.441z M139.227,123.991l0.206,0.345l0.139,0.207
		l0.069,0.069v0.137v0.276l0.069,0.552l0.068,0.413v0.345l0.067,0.413l0,0l-0.067,0.139v0.276v0.206v0.276l0.067,0.275l0.069,0.345
		l0.139,0.345l0.139,0.206l0.068,0.207l0.137,0.139l0.069,0.138l0.069,0.068l0.069,0.138l0.069,0.207l0.138,0.207l0.275,0.414
		l0.207,0.206l0.069,0.276v0.413l0.067,0.275v0.208l-0.067,0.344v0.207h-0.138h-0.139h-0.344h-0.208l-0.139-0.068h-0.067
		l-0.138-0.069l-0.139-0.069l-0.275-0.138l-0.482-0.206l-0.482-0.139l-0.346-0.069l-0.344-0.137l-0.621-0.139l-0.621-0.207
		l-0.758-0.206l-0.759-0.207l-0.827-0.139l-1.585-0.137h-0.552l-0.552,0.068l-0.621,0.068l-0.55,0.208l-0.482,0.138l-0.415,0.138
		l-0.619,0.345l-1.242,0.482l-4.963,2.274l-2.481,1.241l-1.242,0.621l-1.173,0.552l0.069-0.828l0.139-0.896l0.139-0.896l0.205-0.828
		l0.277-0.068l0.274-0.138l0.346-0.068l0.206-0.139l0.139-0.069l0.552-0.206l0.552-0.207l0.757-0.275l1.447-0.552l0.552-0.345
		l0.552-0.207l0.621-0.207l0.621-0.275l0.826-0.276l0.76-0.344l0.688-0.345l0.551-0.276l1.173-0.552l2.551-1.103l1.24-0.482
		l1.311-0.552l0.688-0.275l0.415-0.207l0.552-0.275l0.55-0.414l0.277-0.276l0.207-0.207l0.137-0.137l0.208-0.139l0.138-0.207
		l0.067-0.068l0.069-0.068l0.139-0.069l0.344-0.069l0.415-0.138l0.206,0.138L139.227,123.991L139.227,123.991z M114.614,148.603
		l3.103,1.241l3.172,1.379l3.103,1.379l0.757,0.345l0.829,0.275l0.826,0.207l0.413,0.069l0.414,0.207l0.346,0.206l0.413,0.138
		l0.827,0.275l0.759,0.208l0.826,0.274l1.655,0.552l0.827,0.139l0.896-0.069l1.655-0.138l0.828-0.068l0.413-0.139h0.414h0.207
		l0.067,0.069v0.138l-0.274,0.345l-0.345,0.758l-0.897,1.448l-0.137,0.414l-0.069,0.413v0.896l-0.068,0.413l-0.139,0.346
		l-0.139,0.206l-0.206,0.138l-0.413,0.139l-0.415-0.069l-0.344-0.138l-0.758-0.414l-1.38-1.034l-0.688-0.482l-0.69-0.482
		l-1.585-0.689l-3.172-1.379l-6.203-2.688l-1.586-0.621l-1.517-0.758l-1.586-0.689l-1.586-0.552l0.759-1.103L114.614,148.603
		L114.614,148.603z M86.901,150.602l-3.103,1.311l-1.517,0.552l-1.517,0.758l-0.689,0.414l-0.828,0.275l-0.758,0.276l-0.758,0.275
		l-2.964,1.447l-1.586,0.689l-1.448,0.69l-0.758,0.344l-0.689,0.414l-1.517,0.759l-0.689,0.413l-0.689,0.552l-0.552,0.552
		l-0.345,0.275l-0.138,0.068l-0.207,0.069l-0.414-0.138l-0.276-0.069l-0.069-0.138l-0.069-0.414l-0.069-0.482l-0.069-0.758
		l-0.138-0.896l-0.138-0.759l-0.344-0.758l-0.414-0.759l-0.207-0.275l-0.207-0.414v-0.137v-0.069l0.207-0.069l0.345,0.069
		l0.414,0.069h0.414l1.724,0.067h0.828l0.758-0.067l0.827-0.139l0.827-0.276l1.517-0.688l1.448-0.689l3.033-1.31l1.586-0.689
		l1.517-0.621l1.517-0.62l1.517-0.689l1.517-0.552l1.585-0.689l0.276,0.689l0.414,0.689L86.901,150.602L86.901,150.602z
		 M77.938,112.892l-0.345-0.552l-0.276-0.688l-0.551-1.38l-0.483-1.31l-0.414-1.379l-0.207-1.448l-0.069-1.378v-1.447l0.207-1.449
		l0.276-1.378l0.414-1.38l0.482-1.378l0.62-1.241l1.241-2.619l0.345-0.621l0.414-0.551l0.483-0.553l0.482-0.551l4.481-3.585
		l1.172-0.759l1.31-0.689l1.31-0.62l1.31-0.552l1.31-0.482l1.379-0.345l1.378-0.345l1.448-0.275l2.826-0.206l1.448-0.069
		l1.447,0.069l1.381,0.206l1.447,0.207l2.826,0.551l1.378,0.414l1.311,0.551l1.24,0.69l1.311,0.552l1.31,0.62l0.621,0.345
		l0.62,0.414l0.621,0.413l0.482,0.483l0.965,1.033l2.068,2.068l0.896,1.034l0.826,1.172l0.76,1.241l0.344,0.689l0.277,0.62
		l0.205,0.689l0.208,0.689l0.205,1.447l0.347,2.827l0.136,1.447v1.379v1.448l-0.205,1.448l-0.413,2.825l-0.347,1.38l-0.482,1.378
		l-0.482,1.311l-0.621,1.31l-0.205-0.965l-0.208-1.034l-0.069-1.034l-0.067-0.965l0.067-0.897l0.069-0.482l0.139-0.482l0.482-2.205
		l0.139-0.483l0.205-0.688l0.139-0.69l0.139-0.758l0.138-0.759v-0.759l-0.068-1.447l-0.139-1.379l-0.208-1.379l-0.413-1.379
		l-0.206-0.758l-0.276-0.621l-0.275-0.413l-0.415-0.276l-0.55-0.137l-0.552,0.137l-0.415,0.276l-0.274,0.413l-0.069,0.553
		l0.069,0.482l0.344,0.827l0.208,0.896l0.413,1.793l0.139,0.896v0.896v0.896l-0.069,0.896l-0.208,0.896l-0.205,0.827l-0.483,1.792
		l-0.413,1.724l-0.069,0.965l-0.068,0.897l0.138,1.792l0.275,1.792l0.138,0.896l0.275,0.827l0.69,1.724l0.344,0.827l0.276,0.827
		l0.206,0.896l0.069,0.896l0.069,0.897l-0.069,0.896l-0.208,0.896l-0.413,0.827l-0.552,0.483l-0.688,0.413l-1.38,0.62l-0.688,0.345
		l-0.276,0.207l-0.274,0.275l-0.277,0.276l-0.274,0.275l-0.621,0.482l-0.275,0.207l-0.276,0.345l-0.413,0.62l-0.345,0.689
		l-0.276,0.689l-0.552,1.379l-0.275,0.759l-0.138,0.759l-1.586,0.067l-0.413,0.069l-0.206,0.139l-0.139,0.138l-0.138,0.345
		l-0.069,0.138l-0.137,0.139h-0.415l-0.345-0.069l-0.207-0.069h-0.206l-0.344,0.139l-0.346,0.206l-0.206,0.345l-0.139,0.138
		l-0.139,0.069l-0.344,0.138h-0.276h-0.206v-0.069v-0.138l-0.069-0.069h-0.069h-0.207l-0.206,0.069l-0.344,0.138l-0.76,0.207
		l-0.139,0.138l-0.136,0.138l-0.069,0.208l-0.139,0.068l-0.207,0.068h-0.206l-0.208-0.068l-0.136-0.207l-0.139-0.069l-0.208,0.069
		l-0.413,0.069l-0.139,0.069l-0.136,0.137l-0.347,0.207l-0.344,0.069h-0.414h-0.413l-0.345-0.207l-0.414,0.068l-0.345,0.139
		l-0.207,0.069h-0.138l-0.414-0.139l-0.138-0.069l-0.138-0.206L98,138.056h-0.207h-0.414h-0.345h-0.207l-0.137,0.137l-0.207,0.069
		h-0.207l-0.758-0.069l-0.207-0.068l-0.069-0.207l-0.138-0.138l-0.138-0.069l-0.758-0.138H93.45l-0.207-0.414l-0.276-0.206
		l-0.207-0.139l-0.138-0.068h-0.414h-0.828l-0.068-0.139l-0.138-0.137l-0.138-0.139l-0.207-0.068l-0.345-0.069l-0.414,0.069
		l-0.345,0.138l-0.345,0.275l-0.138-0.896l-0.276-0.896l-0.414-1.793l-0.414-0.827l-0.345-0.827l-0.482-0.827l-0.552-0.759
		l-0.345-0.275l-0.345-0.345l-0.758-0.414l-1.724-0.688l-0.828-0.276l-0.896-0.275l-0.896-0.276l-0.414-0.137l-0.414-0.276
		l-0.483-0.689l-0.482-0.759l-0.414-0.759l-0.345-0.758l-0.207-0.896l-0.138-0.828l-0.069-0.896l0.138-0.827l0.138-0.828
		l0.276-0.896l0.62-1.586l0.689-1.586l0.345-0.827l0.275-0.827l0.276-1.655l0.138-0.896l0.069-0.896l-0.069-1.724l0.069-0.827
		l-0.069-0.896l-0.345-1.723l-0.207-1.724l-0.069-0.896v-0.414l0.138-0.414l0.345-0.758l0.138-0.414v-0.482v-0.482l-0.207-0.482
		l-0.414-0.414L79.8,98.69h-0.482l-0.483,0.206l-0.345,0.345l-0.207,0.552l-0.069,0.345l-0.138,0.345l-0.207,0.482l-0.138,0.413
		l-0.069,0.482v0.346l-0.069,0.345l0.069,0.551l0.138,1.725l0.275,1.654l0.069,0.345l0.069,0.344v0.208l0.069,0.206v0.276v0.275
		l-0.069,0.345v0.482v0.758l0.069,0.69l-0.069,1.172L77.938,112.892L77.938,112.892z M87.483,139.709l0.106,0.552l0.069,0.62
		l0.344,1.034l0.207,0.552l0.345,0.482l0.207,0.207l0.207,0.139l0.551,0.206l0.345,0.413l0.276,0.208l0.138,0.207v0.275l0.138,0.068
		h0.138h0.276l0.276,0.069l0.275,0.069h0.276l0.138,0.069l0.138,0.067l0.138,0.276l0.276,0.482l0.207,0.208l0.276,0.137l0.276,0.069
		l0.276-0.069l0.551-0.137l0.276,0.067l0.208,0.139l0.207,0.207l0.207,0.206l0.552,0.139H96l0.207-0.139h0.276l0.551,0.276
		l1.035,0.345l0.344,0.068h0.276l0.207-0.207l0.207-0.206l0.207-0.138h0.344l0.552,0.138l0.207,0.206l0.276,0.139l0.275-0.069
		l0.277-0.069l0.274-0.068l0.277-0.068l0.136-0.346l0.069-0.069h0.139h0.344h0.277l0.136,0.069v0.139l0.069,0.138l0.139,0.069h0.621
		l0.552-0.207l0.274-0.069l0.139-0.069l0.069-0.069l0.069-0.137l0.067-0.139l0.276,0.069l0.552-0.069h0.552l0.552-0.274l0.274-0.069
		l0.277-0.139l0.067-0.068l0.069-0.139l-0.069-0.137l0.069-0.139l0.138-0.068h0.139h0.344l0.552-0.069l0.552-0.139l0.482-0.275
		l0.139-0.207l0.069-0.275l0.067-0.276l0.207-0.206l0.139-0.068h0.137h0.276l0.275-0.069l0.276-0.069l0.275-0.138l0.138-0.275
		l0.275-1.104l0.276,0.069l0.275-0.069l0.552-0.275l0.207-0.207l0.139-0.207v-0.62l0.067-0.552l-0.067-0.276v-0.138v-0.137
		l0.275-0.139l0.068-0.138v-0.138v-0.62l0.139-0.966l0.137-1.033l0.139-0.552v-0.207v-0.139l0.069-0.137l0.138-0.346l0.137-0.482
		l0.276-0.482l0.206-0.621l0.139-0.275v-0.138l0.069-0.139l0.069-0.137l0.138-0.138l0.275-0.414l0.069-0.138l0.138-0.139
		l0.206-0.138l-0.413,1.931l-0.275,1.999l-0.138,1.931l-0.139,1.999l-0.206,0.965l-0.276,0.966l-0.621,1.861l-0.758,1.793
		l-0.965,1.792l-1.034,1.654l-0.621,0.759l-0.62,0.758l-0.758,0.689l-0.759,0.621l-0.827,0.482l-0.896,0.482l-1.794,0.758
		l-0.965,0.276l-0.965,0.275l-1.93,0.413l-0.966,0.139h-1.034l-1.93-0.139l-0.965-0.206l-0.965-0.207l-0.965-0.345l-0.896-0.345
		l-0.827-0.551l-0.827-0.552l-0.758-0.689l-0.621-0.759l-0.689-0.688l-0.551-0.828l-0.552-0.827l-0.482-0.828l-0.827-1.86
		l-0.758-1.793l-0.621-1.861l-0.482-1.93l-0.414-1.931l-0.345-1.931l-0.413-1.93l-0.345-0.966l-0.345-0.896l-0.896-1.793l0.62,0.207
		l0.69,0.345l0.276,0.138l0.207,0.138l0.207,0.138l0.069,0.139l0.138,0.138l0.345,0.482l0.276,0.552l0.276,0.619l0.137,0.276
		l0.069,0.139l0.069,0.275l0.069,0.344l0.069,0.415l0.138,0.552l0.138,0.551l0.069,0.207l0.069,0.207l0.068,0.206v0.069v0.138
		l0.069,0.207l0.069,0.275l0.138,0.69l0.207,0.482l0.138,0.482L87.483,139.709L87.483,139.709z"/>
</g>
</svg>
