<?xml version="1.0" encoding="utf-8"?>
<!-- Generator: Adobe Illustrator 16.0.0, SVG Export Plug-In . SVG Version: 6.00 Build 0)  -->
<!DOCTYPE svg PUBLIC "-//W3C//DTD SVG 1.1//EN" "http://www.w3.org/Graphics/SVG/1.1/DTD/svg11.dtd">
<svg version="1.1" id="Layer_1" xmlns="http://www.w3.org/2000/svg" xmlns:xlink="http://www.w3.org/1999/xlink" x="0px" y="0px"
	 width="20px" height="20px" viewBox="0 0 20 20" enable-background="new 0 0 20 20" xml:space="preserve">
<path fill-rule="evenodd" clip-rule="evenodd" fill="#ED1C24" d="M19.5,10l-0.014-0.428l-0.027-0.427l-0.048-0.421l-0.069-0.42
	l-0.083-0.42L19.155,7.47L19.03,7.063l-0.137-0.4l-0.159-0.4l-0.179-0.386l-0.193-0.378l-0.207-0.373l-0.227-0.358L17.68,4.416
	l-0.254-0.338l-0.276-0.331l-0.282-0.31l-0.305-0.303l-0.317-0.29l-0.322-0.269l-0.339-0.262l-0.352-0.241l-0.365-0.228
	l-0.366-0.207l-0.378-0.199l-0.394-0.172l-0.394-0.159L12.93,0.962l-0.406-0.117l-0.414-0.11l-0.413-0.083l-0.421-0.069
	l-0.427-0.048l-0.421-0.028L10,0.5L9.573,0.506L9.145,0.534l-0.42,0.048l-0.42,0.069L7.883,0.735L7.47,0.845L7.063,0.962l-0.4,0.145
	l-0.4,0.159L5.877,1.438L5.498,1.637L5.125,1.844L4.768,2.072L4.416,2.313L4.078,2.575L3.747,2.844l-0.311,0.29L3.133,3.437
	l-0.29,0.31L2.568,4.078L2.313,4.416L2.072,4.768L1.844,5.125L1.63,5.499L1.438,5.877L1.266,6.263l-0.159,0.4l-0.145,0.4L0.838,7.47
	L0.734,7.884l-0.083,0.42l-0.069,0.42L0.534,9.146L0.507,9.572L0.5,10l0.007,0.428l0.027,0.42l0.048,0.426l0.069,0.422l0.083,0.42
	l0.104,0.407l0.124,0.413l0.145,0.399l0.159,0.394l0.172,0.394l0.193,0.378l0.214,0.372l0.228,0.359l0.241,0.352l0.255,0.338
	l0.275,0.331l0.29,0.31l0.303,0.304l0.311,0.289l0.331,0.27l0.338,0.262l0.352,0.241l0.358,0.228l0.373,0.207l0.379,0.2l0.387,0.172
	l0.4,0.159l0.4,0.145l0.407,0.117l0.413,0.104l0.421,0.089l0.42,0.062l0.42,0.048l0.428,0.034L10,19.5l0.427-0.008l0.421-0.034
	l0.427-0.048l0.421-0.062l0.413-0.089l0.414-0.104l0.406-0.117l0.406-0.145l0.394-0.159l0.394-0.172l0.378-0.2l0.366-0.207
	l0.365-0.228l0.352-0.241l0.339-0.262l0.322-0.27l0.317-0.289l0.305-0.304l0.282-0.31l0.276-0.331l0.254-0.338l0.249-0.352
	l0.227-0.359l0.207-0.372l0.193-0.378l0.179-0.394l0.159-0.394l0.137-0.399l0.125-0.413l0.104-0.407l0.083-0.42l0.069-0.422
	l0.048-0.426l0.027-0.42L19.5,10L19.5,10z M15.881,14.812l0.241-0.304l0.22-0.317l0.208-0.331l0.179-0.338l0.172-0.345l0.152-0.352
	l0.137-0.358l0.118-0.372l0.097-0.372l0.075-0.379l0.056-0.38l0.041-0.386l0.021-0.379V9.813l-0.021-0.386l-0.033-0.386
	l-0.063-0.379l-0.075-0.378l-0.097-0.373l-0.118-0.365l-0.129-0.365l-0.152-0.352l-0.173-0.345L16.55,6.146l-0.2-0.331l-0.221-0.316
	l-0.241-0.303l-0.249-0.291l-0.268-0.282L15.095,4.36l-0.297-0.255l-0.303-0.233L14.178,3.65l-0.324-0.2l-0.338-0.193l-0.345-0.165
	l-0.358-0.151l-0.357-0.138l-0.366-0.11L11.71,2.596l-0.372-0.083l-0.386-0.056l-0.38-0.041l-0.386-0.014H9.8L9.414,2.417
	L9.028,2.458L8.649,2.52L8.27,2.596L7.897,2.692L7.532,2.809L7.174,2.941L6.815,3.099L6.47,3.265L6.132,3.45L5.809,3.657
	L5.491,3.878L5.188,4.113L15.881,14.812L15.881,14.812z M14.812,15.88L4.113,5.188L3.872,5.499L3.65,5.809l-0.2,0.331L3.265,6.478
	L3.092,6.822L2.94,7.173L2.803,7.539l-0.11,0.366L2.596,8.276L2.513,8.656L2.458,9.035L2.417,9.421L2.396,9.807v0.386l0.021,0.379
	l0.042,0.386l0.055,0.378l0.083,0.38l0.089,0.371l0.118,0.373l0.138,0.358l0.152,0.352l0.166,0.345l0.193,0.345l0.2,0.323
	l0.221,0.317l0.234,0.304l0.255,0.289l0.262,0.283l0.282,0.262l0.29,0.255l0.303,0.235l0.317,0.221l0.331,0.207l0.338,0.186
	l0.345,0.166L7.18,17.06l0.366,0.138l0.365,0.11l0.372,0.097l0.379,0.076l0.379,0.062l0.386,0.041l0.386,0.015H10.2l0.386-0.021
	l0.379-0.035l0.379-0.062l0.38-0.076l0.372-0.097l0.372-0.118l0.359-0.137l0.352-0.152l0.345-0.165l0.338-0.193l0.33-0.2l0.317-0.22
	L14.812,15.88L14.812,15.88z"/>
</svg>
