<?xml version="1.0" encoding="utf-8"?>
<!-- Generator: Adobe Illustrator 16.0.0, SVG Export Plug-In . SVG Version: 6.00 Build 0)  -->
<!DOCTYPE svg PUBLIC "-//W3C//DTD SVG 1.1//EN" "http://www.w3.org/Graphics/SVG/1.1/DTD/svg11.dtd">
<svg version="1.1" id="Layer_1" xmlns="http://www.w3.org/2000/svg" xmlns:xlink="http://www.w3.org/1999/xlink" x="0px" y="0px"
	 width="20px" height="20px" viewBox="0 0 20 20" enable-background="new 0 0 20 20" xml:space="preserve">
<g>
	<polyline fill="none" stroke="#000000" stroke-width="0.6702" stroke-miterlimit="2.6131" points="8.077,15.004 16.297,9.444 
		15.488,8.249 7.268,13.808 	"/>
	<path fill="none" stroke="#000000" stroke-width="0.5266" stroke-miterlimit="2.6131" d="M7.891,15.503l-1.167-1.725 M7.256,15.933
		l-1.167-1.725"/>
	<path fill="none" stroke="#000000" stroke-width="0.4788" stroke-miterlimit="2.6131" d="M4.208,8.353
		c0.215,0.302,0.094,0.715-0.186,0.959C3.923,9.397,3.932,9.403,3.839,9.482c-0.672,0.57-0.247,1.307,0.134,1.421
		c0.287,0.087,0.438,0.038,0.925-0.042c0.399-0.065,0.644,0.056,0.814,0.328c0.188,0.302-0.078,0.709-0.141,1.186
		c-0.029,0.218-0.074,0.38-0.016,0.628c0.022,0.136,0.176,0.652,0.439,1.026 M5.657,7.422C5.875,7.737,5.809,8.4,5.494,8.598
		c-0.11,0.069-0.103,0.077-0.207,0.141c-0.753,0.458-0.449,1.251-0.091,1.424c0.271,0.131,0.472,0.086,0.964,0.051
		c0.547-0.039,0.724,0.071,0.894,0.344c0.283,0.452,0.024,0.859-0.331,1.238c-0.172,0.184-0.248,0.291-0.317,0.737
		C6.36,12.856,6.39,13.21,6.653,13.584"/>
	<g>
		<path fill-rule="evenodd" clip-rule="evenodd" fill="#ED1C24" d="M19.5,10l-0.014-0.428l-0.027-0.427L19.41,8.725l-0.068-0.421
			l-0.083-0.42L19.155,7.47l-0.124-0.406l-0.138-0.4l-0.159-0.399l-0.179-0.387l-0.192-0.379l-0.207-0.372l-0.229-0.358L17.68,4.416
			l-0.255-0.338l-0.275-0.331l-0.282-0.311l-0.305-0.303l-0.316-0.29l-0.324-0.269l-0.338-0.262l-0.352-0.241l-0.365-0.228
			l-0.365-0.207l-0.379-0.2l-0.394-0.172l-0.393-0.159L12.93,0.962l-0.406-0.117l-0.414-0.11l-0.414-0.083l-0.42-0.068l-0.427-0.049
			l-0.421-0.027L10,0.5L9.573,0.507L9.145,0.534l-0.42,0.049l-0.42,0.068L7.883,0.734L7.47,0.845L7.063,0.962l-0.4,0.145
			L6.264,1.266L5.877,1.438l-0.379,0.2L5.126,1.845L4.768,2.072L4.416,2.313L4.078,2.575L3.747,2.844l-0.31,0.29L3.133,3.437
			l-0.29,0.311L2.568,4.078L2.313,4.416L2.072,4.768L1.844,5.126L1.631,5.498L1.438,5.877L1.265,6.264L1.106,6.663l-0.145,0.4
			L0.838,7.47L0.734,7.884l-0.083,0.42L0.583,8.725L0.535,9.146L0.507,9.572L0.5,10l0.007,0.428l0.028,0.42l0.048,0.428l0.069,0.42
			l0.083,0.421l0.104,0.407l0.124,0.413l0.145,0.4l0.159,0.393l0.172,0.393l0.193,0.38l0.213,0.372l0.228,0.358l0.241,0.352
			l0.255,0.338l0.275,0.331l0.29,0.31l0.304,0.304l0.31,0.289l0.331,0.27l0.338,0.262l0.352,0.241l0.358,0.228l0.372,0.207
			l0.379,0.2l0.386,0.172l0.399,0.159l0.4,0.145l0.407,0.117l0.414,0.104l0.421,0.089l0.42,0.062l0.42,0.048l0.428,0.035L10,19.5
			l0.427-0.007l0.421-0.035l0.427-0.048l0.42-0.062l0.414-0.089l0.414-0.104l0.406-0.117l0.407-0.145l0.393-0.159l0.394-0.172
			l0.379-0.2l0.365-0.207l0.365-0.228l0.352-0.241l0.338-0.262l0.324-0.27l0.316-0.289l0.305-0.304l0.282-0.31l0.275-0.331
			l0.255-0.338l0.248-0.352l0.229-0.358l0.207-0.372l0.192-0.38l0.179-0.393l0.159-0.393l0.138-0.4l0.124-0.413l0.104-0.407
			l0.083-0.421l0.068-0.42l0.049-0.428l0.027-0.42L19.5,10L19.5,10z M15.881,14.812l0.241-0.303l0.22-0.317l0.207-0.331l0.18-0.338
			l0.172-0.345l0.152-0.352l0.138-0.358l0.117-0.372l0.097-0.372l0.076-0.38l0.055-0.379l0.041-0.386l0.021-0.379V9.813
			l-0.021-0.386l-0.034-0.386l-0.062-0.38l-0.076-0.379l-0.097-0.372L17.19,7.546L17.06,7.181l-0.151-0.352l-0.173-0.345
			l-0.187-0.338L16.35,5.815l-0.221-0.317l-0.241-0.303l-0.249-0.29l-0.268-0.282L15.095,4.36l-0.296-0.255l-0.304-0.234
			L14.178,3.65l-0.324-0.2l-0.338-0.192l-0.344-0.166L12.812,2.94l-0.358-0.138l-0.365-0.11L11.71,2.596l-0.372-0.083l-0.386-0.055
			l-0.379-0.041l-0.386-0.015H9.8L9.414,2.417L9.028,2.458L8.649,2.52L8.27,2.596L7.897,2.692L7.532,2.81L7.173,2.94L6.815,3.099
			L6.47,3.265L6.132,3.45L5.809,3.657L5.491,3.878L5.188,4.112L15.881,14.812L15.881,14.812z M14.812,15.881L4.112,5.188
			L3.871,5.498L3.65,5.809l-0.2,0.331L3.265,6.478L3.092,6.822L2.94,7.174L2.803,7.539l-0.11,0.365L2.596,8.276L2.513,8.655
			l-0.055,0.38L2.417,9.421L2.396,9.807v0.387l0.021,0.379l0.042,0.386l0.055,0.379l0.083,0.38l0.09,0.372l0.117,0.372l0.138,0.358
			l0.152,0.352l0.166,0.345l0.193,0.345l0.2,0.324l0.221,0.317l0.234,0.303l0.255,0.29l0.262,0.282l0.283,0.262l0.29,0.256
			l0.303,0.234l0.317,0.221l0.331,0.206l0.338,0.187l0.345,0.165L7.18,17.06l0.366,0.138l0.365,0.11l0.372,0.097l0.379,0.075
			l0.379,0.062l0.386,0.041l0.386,0.014H10.2l0.386-0.021l0.379-0.034l0.378-0.062l0.38-0.075l0.372-0.097l0.373-0.117l0.357-0.138
			l0.352-0.152l0.346-0.165l0.338-0.193l0.33-0.2l0.317-0.22L14.812,15.881L14.812,15.881z"/>
	</g>
</g>
</svg>
