<svg id="Layer_1" data-name="Layer 1" xmlns="http://www.w3.org/2000/svg" viewBox="0 0 100.07 88.07"><defs><style>.cls-1,.cls-2{stroke:#000;stroke-width:0.07px;}.cls-1,.cls-2,.cls-3,.cls-4{stroke-miterlimit:2.61;}.cls-2{fill:#f3c736;}.cls-3,.cls-4{stroke:#f3c736;}.cls-3{stroke-width:0.82px;}.cls-4{stroke-width:1.38px;}</style></defs><title>W001</title><polygon class="cls-1" points="99.64 83.66 52.55 1.5 52.24 1.06 51.88 0.73 51.48 0.45 51.02 0.23 50.55 0.07 50.03 0.04 49.52 0.07 49.02 0.23 48.59 0.45 48.16 0.73 47.83 1.06 47.53 1.5 0.45 83.66 0.21 84.14 0.07 84.61 0.04 85.11 0.07 85.63 0.21 86.14 0.45 86.58 0.72 87.02 1.05 87.34 1.49 87.64 1.93 87.86 2.44 88 2.94 88.03 97.14 88.03 97.64 88 98.11 87.86 98.58 87.64 98.98 87.34 99.34 87.02 99.64 86.58 99.86 86.14 100 85.63 100.03 85.11 100 84.61 99.86 84.14 99.64 83.66 99.64 83.66"/><polygon class="cls-2" points="50.03 9.21 91.77 82.02 8.31 82.02 50.03 9.21 50.03 9.21"/><path class="cls-3" d="M50,76.84a5.25,5.25,0,1,0-5.23-5.27v0A5.24,5.24,0,0,0,50,76.84Z" transform="translate(0.01 0.01)"/><path class="cls-4" d="M50,26.78c4.17,0,8,3.83,7.56,7.61L54,60.8c-.35,2.31-1.78,4-4,4s-3.63-1.69-4-4L42.49,34.39C42,30.63,45.87,26.78,50,26.78Z" transform="translate(0.01 0.01)"/></svg>