<svg id="Layer_1" data-name="Layer 1" xmlns="http://www.w3.org/2000/svg" viewBox="0 0 100 88"><defs><style>.cls-1{fill:#f3c736;}.cls-1,.cls-2{fill-rule:evenodd;}</style></defs><title>W007</title><polygon class="cls-1" points="91.69 81.97 50 9.21 8.31 81.97 91.69 81.97 91.69 81.97"/><path class="cls-2" d="M91.69,82,50,9.21,8.31,82Zm5.44,6A2.85,2.85,0,0,0,100,85.15a3.09,3.09,0,0,0-.47-1.61L52.36,1.28A2.8,2.8,0,0,0,50,0a2.91,2.91,0,0,0-2.39,1.28L.47,83.54A3.09,3.09,0,0,0,0,85.15,2.85,2.85,0,0,0,2.87,88Z"/><polygon class="cls-2" points="40.59 72.41 40.59 77.62 60.74 77.62 60.74 72.41 40.59 72.41 40.59 72.41"/><polygon class="cls-2" points="55.36 57.87 60.93 63.93 58.51 66.2 52.94 60.14 55.36 57.87 55.36 57.87"/><polygon class="cls-2" points="59.79 52.78 55.56 59.87 52.73 58.15 56.96 51.07 59.79 52.78 59.79 52.78"/><polygon class="cls-2" points="59.9 51.3 45.95 57.07 43.08 50.05 57.03 44.26 59.9 51.3 59.9 51.3"/><polygon class="cls-2" points="46.09 67.24 38.02 73.79 35.65 70.83 43.73 64.28 46.09 67.24 46.09 67.24"/><polygon class="cls-2" points="38.45 58.79 28.1 58.21 27.89 62.01 38.24 62.59 38.45 58.79 38.45 58.79"/><polygon class="cls-2" points="46.79 65.82 47.12 55.37 43.35 55.26 43.02 65.7 46.79 65.82 46.79 65.82"/><polygon class="cls-2" points="45.4 52.8 39.95 61.68 36.74 59.69 42.2 50.8 45.4 52.8 45.4 52.8"/><polygon class="cls-2" points="56.34 43.46 54.67 46.33 47.6 42.15 49.27 39.28 56.34 43.46 56.34 43.46"/><polygon class="cls-2" points="47.77 39.19 40.25 42.48 41.57 45.52 49.09 42.24 47.77 39.19 47.77 39.19"/><polygon class="cls-2" points="57.16 44.9 57.14 44.68 57.1 44.47 57.03 44.26 56.93 44.07 56.81 43.89 56.67 43.72 56.51 43.58 56.33 43.45 56.14 43.36 55.93 43.29 55.72 43.25 55.51 43.23 55.29 43.25 55.08 43.29 54.87 43.36 54.68 43.45 54.5 43.58 54.34 43.72 54.2 43.89 54.07 44.07 53.98 44.26 53.91 44.47 53.87 44.68 53.85 44.9 53.87 45.12 53.91 45.33 53.98 45.53 54.07 45.73 54.2 45.91 54.34 46.07 54.5 46.22 54.68 46.34 54.87 46.43 55.08 46.51 55.29 46.54 55.51 46.56 55.72 46.54 55.93 46.51 56.14 46.43 56.33 46.34 56.51 46.22 56.67 46.07 56.81 45.91 56.93 45.73 57.03 45.53 57.1 45.33 57.14 45.12 57.16 44.9 57.16 44.9"/><polygon class="cls-2" points="50.09 40.71 50.07 40.49 50.02 40.28 49.96 40.08 49.86 39.88 49.74 39.7 49.6 39.53 49.44 39.39 49.26 39.28 49.07 39.17 48.86 39.1 48.65 39.06 48.44 39.05 48.22 39.06 48.01 39.1 47.8 39.17 47.61 39.28 47.43 39.39 47.27 39.53 47.13 39.7 47 39.88 46.91 40.08 46.84 40.28 46.8 40.49 46.78 40.71 46.8 40.93 46.84 41.14 46.91 41.35 47 41.54 47.13 41.72 47.27 41.89 47.43 42.03 47.61 42.15 47.8 42.25 48.01 42.32 48.22 42.36 48.44 42.37 48.65 42.36 48.86 42.32 49.07 42.25 49.26 42.15 49.44 42.03 49.6 41.89 49.74 41.72 49.86 41.54 49.96 41.35 50.02 41.14 50.07 40.93 50.09 40.71 50.09 40.71"/><polygon class="cls-2" points="42.56 44 42.55 43.78 42.5 43.57 42.43 43.37 42.34 43.17 42.22 42.99 42.08 42.83 41.92 42.69 41.74 42.56 41.55 42.47 41.34 42.4 41.13 42.36 40.91 42.34 40.7 42.36 40.49 42.4 40.28 42.47 40.09 42.56 39.91 42.69 39.75 42.83 39.61 42.99 39.48 43.17 39.39 43.37 39.32 43.57 39.28 43.78 39.26 44 39.28 44.22 39.32 44.44 39.39 44.64 39.48 44.84 39.61 45.02 39.75 45.18 39.91 45.32 40.09 45.45 40.28 45.54 40.49 45.61 40.7 45.65 40.91 45.67 41.13 45.65 41.34 45.61 41.55 45.54 41.74 45.45 41.92 45.32 42.08 45.18 42.22 45.02 42.34 44.84 42.43 44.64 42.5 44.44 42.55 44.22 42.56 44 42.56 44"/><polygon class="cls-2" points="61.37 65.06 61.35 64.85 61.31 64.64 61.24 64.43 61.15 64.23 61.02 64.05 60.88 63.9 60.72 63.75 60.54 63.63 60.35 63.53 60.15 63.46 59.94 63.42 59.72 63.4 59.51 63.42 59.29 63.46 59.09 63.53 58.89 63.63 58.71 63.75 58.56 63.9 58.41 64.05 58.29 64.23 58.2 64.43 58.13 64.64 58.08 64.85 58.07 65.06 58.08 65.28 58.13 65.5 58.2 65.71 58.29 65.89 58.41 66.08 58.56 66.24 58.71 66.39 58.89 66.51 59.09 66.6 59.29 66.67 59.51 66.72 59.72 66.73 59.94 66.72 60.15 66.67 60.35 66.6 60.54 66.51 60.72 66.39 60.88 66.24 61.02 66.08 61.15 65.89 61.24 65.71 61.31 65.5 61.35 65.28 61.37 65.06 61.37 65.06"/><polygon class="cls-2" points="55.79 59 55.78 58.79 55.74 58.58 55.67 58.37 55.58 58.17 55.45 57.99 55.31 57.84 55.15 57.69 54.97 57.57 54.77 57.47 54.57 57.4 54.36 57.36 54.14 57.34 53.93 57.36 53.71 57.4 53.51 57.47 53.32 57.57 53.14 57.69 52.98 57.84 52.83 57.99 52.72 58.17 52.62 58.37 52.55 58.58 52.51 58.79 52.49 59 52.51 59.22 52.55 59.43 52.62 59.65 52.72 59.83 52.83 60.02 52.98 60.18 53.14 60.33 53.32 60.45 53.51 60.54 53.71 60.61 53.93 60.66 54.14 60.66 54.36 60.66 54.57 60.61 54.77 60.54 54.97 60.45 55.15 60.33 55.31 60.18 55.45 60.02 55.58 59.83 55.67 59.65 55.74 59.43 55.78 59.22 55.79 59 55.79 59"/><polygon class="cls-2" points="60.02 51.92 60.01 51.71 59.97 51.5 59.9 51.29 59.8 51.09 59.68 50.91 59.54 50.75 59.37 50.6 59.2 50.49 59 50.39 58.8 50.32 58.59 50.28 58.37 50.26 58.16 50.28 57.94 50.32 57.74 50.39 57.54 50.49 57.37 50.6 57.2 50.75 57.06 50.91 56.95 51.09 56.85 51.29 56.78 51.5 56.73 51.71 56.72 51.92 56.73 52.14 56.78 52.35 56.85 52.57 56.95 52.75 57.06 52.93 57.2 53.1 57.37 53.25 57.54 53.37 57.74 53.46 57.94 53.53 58.16 53.58 58.37 53.59 58.59 53.58 58.8 53.53 59 53.46 59.2 53.37 59.37 53.25 59.54 53.1 59.68 52.93 59.8 52.75 59.9 52.57 59.97 52.35 60.01 52.14 60.02 51.92 60.02 51.92"/><polygon class="cls-2" points="65.69 46.15 65.67 45.85 65.63 45.54 65.56 45.24 65.46 44.95 65.34 44.67 65.19 44.4 65.02 44.15 64.82 43.92 64.61 43.7 64.37 43.5 64.12 43.33 63.86 43.18 63.58 43.05 63.29 42.95 62.99 42.89 62.69 42.84 62.39 42.83 62.08 42.84 61.78 42.89 61.48 42.95 61.2 43.05 60.92 43.18 60.65 43.33 60.4 43.5 60.16 43.7 59.95 43.92 59.76 44.15 59.59 44.4 59.44 44.67 59.31 44.95 59.21 45.24 59.14 45.54 59.1 45.85 59.09 46.15 59.1 46.46 59.14 46.76 59.21 47.06 59.31 47.35 59.44 47.63 59.59 47.9 59.76 48.16 59.95 48.4 60.16 48.61 60.4 48.81 60.65 48.98 60.92 49.13 61.2 49.26 61.48 49.35 61.78 49.42 62.08 49.46 62.39 49.48 62.69 49.46 62.99 49.42 63.29 49.35 63.58 49.26 63.86 49.13 64.12 48.98 64.37 48.81 64.61 48.61 64.82 48.4 65.02 48.16 65.19 47.9 65.34 47.63 65.46 47.35 65.56 47.06 65.63 46.76 65.67 46.46 65.69 46.15 65.69 46.15"/><polygon class="cls-2" points="29.87 60.11 29.86 59.88 29.82 59.65 29.76 59.43 29.66 59.23 29.54 59.03 29.4 58.85 29.24 58.69 29.06 58.55 28.87 58.43 28.66 58.34 28.44 58.27 28.22 58.23 27.99 58.21 27.76 58.23 27.54 58.27 27.32 58.34 27.12 58.43 26.92 58.55 26.74 58.69 26.58 58.85 26.44 59.03 26.32 59.23 26.23 59.43 26.16 59.65 26.12 59.88 26.11 60.11 26.12 60.34 26.16 60.56 26.23 60.78 26.32 60.99 26.44 61.19 26.58 61.37 26.74 61.53 26.92 61.68 27.12 61.79 27.32 61.89 27.54 61.95 27.76 62 27.99 62.01 28.22 62 28.44 61.95 28.66 61.89 28.87 61.79 29.06 61.68 29.24 61.53 29.4 61.37 29.54 61.19 29.66 60.99 29.76 60.78 29.82 60.56 29.86 60.34 29.87 60.11 29.87 60.11"/><polygon class="cls-2" points="38.72 72.31 38.7 72.08 38.66 71.85 38.59 71.63 38.5 71.42 38.38 71.23 38.24 71.05 38.08 70.89 37.9 70.75 37.71 70.63 37.5 70.54 37.29 70.47 37.06 70.43 36.84 70.41 36.61 70.43 36.38 70.47 36.16 70.54 35.95 70.63 35.76 70.75 35.58 70.89 35.42 71.05 35.28 71.23 35.16 71.42 35.07 71.63 35.01 71.85 34.96 72.08 34.95 72.31 34.96 72.54 35.01 72.76 35.07 72.98 35.16 73.19 35.28 73.39 35.42 73.57 35.58 73.73 35.76 73.87 35.95 73.99 36.16 74.09 36.38 74.15 36.61 74.2 36.84 74.2 37.06 74.2 37.29 74.15 37.5 74.09 37.71 73.99 37.9 73.87 38.08 73.73 38.24 73.57 38.38 73.39 38.5 73.19 38.59 72.98 38.66 72.76 38.7 72.54 38.72 72.31 38.72 72.31"/><polygon class="cls-2" points="47.12 55.32 47.1 55.09 47.06 54.86 46.99 54.64 46.9 54.43 46.78 54.24 46.65 54.05 46.48 53.89 46.3 53.75 46.11 53.63 45.9 53.54 45.69 53.48 45.46 53.43 45.24 53.42 45 53.43 44.78 53.48 44.57 53.54 44.36 53.63 44.16 53.75 43.98 53.89 43.82 54.05 43.68 54.24 43.56 54.43 43.47 54.64 43.41 54.86 43.36 55.09 43.34 55.32 43.36 55.55 43.41 55.77 43.47 55.99 43.56 56.2 43.68 56.39 43.82 56.57 43.98 56.74 44.16 56.88 44.36 56.99 44.57 57.09 44.78 57.16 45 57.2 45.24 57.22 45.46 57.2 45.69 57.16 45.9 57.09 46.11 56.99 46.3 56.88 46.48 56.74 46.65 56.57 46.78 56.39 46.9 56.2 46.99 55.99 47.06 55.77 47.1 55.55 47.12 55.32 47.12 55.32"/><polygon class="cls-2" points="45.69 51.8 45.67 51.57 45.63 51.35 45.56 51.13 45.47 50.92 45.35 50.72 45.21 50.54 45.05 50.38 44.87 50.24 44.67 50.12 44.47 50.02 44.25 49.95 44.03 49.92 43.8 49.9 43.57 49.92 43.35 49.95 43.13 50.02 42.92 50.12 42.73 50.24 42.55 50.38 42.39 50.54 42.25 50.72 42.13 50.92 42.04 51.13 41.97 51.35 41.93 51.57 41.91 51.8 41.93 52.03 41.97 52.26 42.04 52.48 42.13 52.68 42.25 52.88 42.39 53.06 42.55 53.22 42.73 53.37 42.92 53.48 43.13 53.58 43.35 53.65 43.57 53.69 43.8 53.7 44.03 53.69 44.25 53.65 44.47 53.58 44.67 53.48 44.87 53.37 45.05 53.22 45.21 53.06 45.35 52.88 45.47 52.68 45.56 52.48 45.63 52.26 45.67 52.03 45.69 51.8 45.69 51.8"/><polygon class="cls-2" points="40.23 60.69 40.21 60.46 40.17 60.23 40.1 60.01 40.01 59.8 39.89 59.61 39.75 59.43 39.59 59.27 39.41 59.12 39.22 59 39.02 58.91 38.8 58.85 38.57 58.8 38.34 58.79 38.12 58.8 37.89 58.85 37.67 58.91 37.47 59 37.27 59.12 37.09 59.27 36.94 59.43 36.8 59.61 36.67 59.8 36.58 60.01 36.52 60.23 36.47 60.46 36.46 60.69 36.47 60.92 36.52 61.14 36.58 61.36 36.67 61.57 36.8 61.76 36.94 61.95 37.09 62.11 37.27 62.25 37.47 62.37 37.67 62.46 37.89 62.53 38.12 62.57 38.34 62.59 38.57 62.57 38.8 62.53 39.02 62.46 39.22 62.37 39.41 62.25 39.59 62.11 39.75 61.95 39.89 61.76 40.01 61.57 40.1 61.36 40.17 61.14 40.21 60.92 40.23 60.69 40.23 60.69"/><polygon class="cls-2" points="46.8 65.76 46.78 65.53 46.74 65.31 46.68 65.09 46.58 64.88 46.47 64.68 46.33 64.5 46.16 64.33 45.98 64.19 45.79 64.08 45.58 63.98 45.36 63.91 45.14 63.87 44.91 63.86 44.68 63.87 44.46 63.91 44.25 63.98 44.04 64.08 43.84 64.19 43.66 64.33 43.5 64.5 43.36 64.68 43.24 64.88 43.15 65.09 43.08 65.31 43.04 65.53 43.02 65.76 43.04 65.99 43.08 66.22 43.15 66.44 43.24 66.64 43.36 66.83 43.5 67.02 43.66 67.18 43.84 67.32 44.04 67.44 44.25 67.53 44.46 67.6 44.68 67.64 44.91 67.66 45.14 67.64 45.36 67.6 45.58 67.53 45.79 67.44 45.98 67.32 46.16 67.18 46.33 67.02 46.47 66.83 46.58 66.64 46.68 66.44 46.74 66.22 46.78 65.99 46.8 65.76 46.8 65.76"/></svg>