<svg id="Layer_1" data-name="Layer 1" xmlns="http://www.w3.org/2000/svg" viewBox="0 0 100 88"><defs><style>.cls-1{fill:#f3c736;}.cls-1,.cls-2{fill-rule:evenodd;}</style></defs><title>W020</title><polygon class="cls-1" points="91.69 81.97 50 9.21 8.31 81.97 91.69 81.97 91.69 81.97"/><path class="cls-2" d="M91.69,82,50,9.21,8.31,82Zm5.44,6A2.85,2.85,0,0,0,100,85.15a3.09,3.09,0,0,0-.47-1.61L52.36,1.28A2.8,2.8,0,0,0,50,0a2.91,2.91,0,0,0-2.39,1.28L.47,83.54A3.09,3.09,0,0,0,0,85.15,2.85,2.85,0,0,0,2.87,88Z"/><polygon class="cls-2" points="44.2 77.63 43.02 66.25 53.79 65.12 55.08 77.63 44.2 77.63 44.2 77.63"/><polygon class="cls-2" points="67.8 64.3 63.74 53.16 59.29 54.8 63.36 65.94 67.8 64.3 67.8 64.3"/><polygon class="cls-2" points="53.56 65.16 65.1 62.78 66.06 67.45 54.52 69.83 53.56 65.16 53.56 65.16"/><polygon class="cls-2" points="31.08 77.63 41.59 66.94 44.95 70.31 37.75 77.63 31.08 77.63 31.08 77.63"/><polygon class="cls-2" points="61.52 37.96 47.11 37.96 47.11 34.41 40.5 34.41 42.41 31.08 57.59 31.08 61.52 37.96 61.52 37.96"/><polygon class="cls-2" points="59.52 50.82 59.68 42.41 62.62 39.86 61.1 38.76 58.7 38.76 59.95 39.67 57.55 41.33 57.51 45.83 54.07 42.37 50.29 48.42 50 42.15 40.82 43.13 45.66 38.01 45.66 35.26 33.52 46.73 47.96 44.73 48.53 54.87 54.42 45.75 59.52 50.82 59.52 50.82"/><polygon class="cls-2" points="45.63 68.62 45.62 68.36 45.58 68.09 45.51 67.84 45.41 67.59 45.28 67.36 45.12 67.13 44.94 66.93 44.75 66.76 44.53 66.61 44.29 66.47 44.05 66.37 43.79 66.29 43.53 66.25 43.27 66.24 43 66.25 42.74 66.29 42.48 66.37 42.24 66.47 42.01 66.61 41.79 66.76 41.59 66.93 41.42 67.13 41.26 67.36 41.13 67.59 41.03 67.84 40.96 68.09 40.91 68.36 40.9 68.62 40.91 68.89 40.96 69.16 41.03 69.41 41.13 69.66 41.26 69.89 41.42 70.11 41.59 70.31 41.79 70.49 42.01 70.64 42.24 70.77 42.48 70.87 42.74 70.95 43 70.99 43.27 71.01 43.53 70.99 43.79 70.95 44.05 70.87 44.29 70.77 44.53 70.64 44.75 70.49 44.94 70.31 45.12 70.11 45.28 69.89 45.41 69.66 45.51 69.41 45.58 69.16 45.62 68.89 45.63 68.62 45.63 68.62"/><polygon class="cls-2" points="63.88 53.98 63.87 53.72 63.82 53.45 63.75 53.2 63.64 52.95 63.52 52.71 63.37 52.49 63.18 52.29 62.99 52.12 62.77 51.96 62.54 51.83 62.29 51.73 62.04 51.65 61.78 51.61 61.51 51.6 61.24 51.61 60.98 51.65 60.73 51.73 60.48 51.83 60.25 51.96 60.03 52.12 59.83 52.29 59.66 52.49 59.51 52.71 59.38 52.95 59.28 53.2 59.2 53.45 59.16 53.72 59.14 53.98 59.16 54.25 59.2 54.51 59.28 54.77 59.38 55.02 59.51 55.25 59.66 55.47 59.83 55.67 60.03 55.85 60.25 56 60.48 56.13 60.73 56.23 60.98 56.31 61.24 56.35 61.51 56.37 61.78 56.35 62.04 56.31 62.29 56.23 62.54 56.13 62.77 56 62.99 55.85 63.18 55.67 63.37 55.47 63.52 55.25 63.64 55.02 63.75 54.77 63.82 54.51 63.87 54.25 63.88 53.98 63.88 53.98"/><polygon class="cls-2" points="67.94 65.12 67.93 64.85 67.89 64.58 67.81 64.33 67.71 64.08 67.58 63.85 67.43 63.63 67.25 63.43 67.06 63.25 66.83 63.1 66.6 62.97 66.36 62.87 66.1 62.79 65.84 62.75 65.58 62.73 65.31 62.75 65.05 62.79 64.79 62.87 64.55 62.97 64.32 63.1 64.1 63.25 63.91 63.43 63.72 63.63 63.57 63.85 63.44 64.08 63.34 64.33 63.27 64.58 63.22 64.85 63.21 65.12 63.22 65.38 63.27 65.65 63.34 65.9 63.44 66.15 63.57 66.39 63.72 66.61 63.91 66.81 64.1 66.98 64.32 67.14 64.55 67.27 64.79 67.37 65.05 67.44 65.31 67.49 65.58 67.5 65.84 67.49 66.1 67.44 66.36 67.37 66.6 67.27 66.83 67.14 67.06 66.98 67.25 66.81 67.43 66.61 67.58 66.39 67.71 66.15 67.81 65.9 67.89 65.65 67.93 65.38 67.94 65.12 67.94 65.12"/><polygon class="cls-2" points="56.41 67.49 56.4 67.23 56.35 66.97 56.28 66.71 56.17 66.46 56.05 66.23 55.89 66.01 55.72 65.81 55.52 65.63 55.3 65.48 55.07 65.34 54.83 65.25 54.56 65.17 54.3 65.13 54.04 65.11 53.78 65.13 53.52 65.17 53.25 65.25 53.02 65.34 52.78 65.48 52.56 65.63 52.37 65.81 52.19 66.01 52.03 66.23 51.9 66.46 51.8 66.71 51.73 66.97 51.68 67.23 51.67 67.49 51.68 67.77 51.73 68.03 51.8 68.28 51.9 68.53 52.03 68.76 52.19 68.99 52.37 69.19 52.56 69.36 52.78 69.52 53.02 69.64 53.25 69.75 53.52 69.83 53.78 69.87 54.04 69.88 54.3 69.87 54.56 69.83 54.83 69.75 55.07 69.64 55.3 69.52 55.52 69.36 55.72 69.19 55.89 68.99 56.05 68.76 56.17 68.53 56.28 68.28 56.35 68.03 56.4 67.77 56.41 67.49 56.41 67.49"/><polygon class="cls-2" points="52.52 59.58 52.5 59.2 52.46 58.84 52.39 58.47 52.28 58.1 52.16 57.75 52 57.41 51.82 57.09 51.61 56.78 51.38 56.48 51.13 56.21 50.86 55.95 50.56 55.72 50.25 55.51 49.93 55.33 49.59 55.17 49.25 55.04 48.89 54.94 48.52 54.87 48.15 54.83 47.78 54.81 47.41 54.83 47.04 54.87 46.67 54.94 46.32 55.04 45.97 55.17 45.63 55.33 45.3 55.51 44.99 55.72 44.71 55.95 44.43 56.21 44.17 56.48 43.94 56.78 43.74 57.09 43.56 57.41 43.41 57.75 43.28 58.1 43.17 58.47 43.1 58.84 43.06 59.2 43.04 59.58 43.06 59.96 43.1 60.32 43.17 60.69 43.28 61.06 43.41 61.41 43.56 61.75 43.74 62.07 43.94 62.39 44.17 62.68 44.43 62.95 44.71 63.21 44.99 63.44 45.3 63.65 45.63 63.83 45.97 63.99 46.32 64.12 46.67 64.22 47.04 64.3 47.41 64.34 47.78 64.35 48.15 64.34 48.52 64.3 48.89 64.22 49.25 64.12 49.59 63.99 49.93 63.83 50.25 63.65 50.56 63.44 50.86 63.21 51.13 62.95 51.38 62.68 51.61 62.39 51.82 62.07 52 61.75 52.16 61.41 52.28 61.06 52.39 60.69 52.46 60.32 52.5 59.96 52.52 59.58 52.52 59.58"/></svg>