<?xml version="1.0" encoding="utf-8"?>
<!-- Generator: Adobe Illustrator 25.2.2, SVG Export Plug-In . SVG Version: 6.00 Build 0)  -->
<svg version="1.1" id="Layer_1" xmlns="http://www.w3.org/2000/svg" xmlns:xlink="http://www.w3.org/1999/xlink" x="0px" y="0px"
	 width="204.7px" height="168.66px" viewBox="0 0 204.7 168.66" enable-background="new 0 0 204.7 168.66" xml:space="preserve">
<g>
	<path fill="#FFFFFF" d="M123.7,63.4c-0.1-8.7-7.3-15.7-16-15.7c-8.3,0-15.2,6.4-15.9,14.6c0,0.5-0.1,1-0.1,1.4c0,8.8,7.2,16,16,16
		s16-7.2,16-16C123.7,63.6,123.7,63.5,123.7,63.4z"/>
	<path fill="#FDCF17" d="M13.3,46.5c-2.3,0-4.6-0.3-6.9-1c-2.1-0.6-4.3-1.6-6.4-2.8l3.6-9.3c1.6,1.1,3.1,2,4.4,2.5
		c1.5,0.7,3,1,4.4,1c1.1,0,1.9-0.2,2.5-0.7c0.7-0.5,1.1-1.2,1.1-2.1c0-2.2-3.3-2.9-4.4-3.1l-2-0.4c-2-0.5-3.6-1.4-4.9-2.5L4.6,28
		l-0.2-0.2c-0.2-0.2-0.4-0.4-0.6-0.7c-1.3-1.6-2-3.7-2-6.2c0-3.9,1.3-7.1,3.9-9.6s6.2-3.7,10.5-3.7c2,0,4,0.3,5.9,0.8
		c1.8,0.5,3.6,1.3,5.4,2.2l-3.4,8.6c-1.1-0.7-2.1-1.3-3.2-1.8c-1.3-0.5-2.7-0.8-3.9-0.8c-1.1,0-1.9,0.2-2.5,0.6
		c-0.7,0.5-1.1,1.1-1.1,2c0,1.5,1.9,2.6,6,3.6l1.3,0.3c2.3,0.5,4.2,1.7,5.5,3.4c0.7,0.9,1.3,2,1.6,3.2l0.1,0.3
		c0.2,0.9,0.3,1.8,0.3,2.7c0,4-1.4,7.4-4.1,9.9C21.3,45.2,17.7,46.5,13.3,46.5L13.3,46.5L13.3,46.5z"/>
	<path fill="#FDCF17" d="M74.7,8.3h22.8v8.9c-2.6,0-11.2,0-11.2,0v6h10.1v8.4c-2.4,0-10.1,0-10.1,0s0,10.7,0,13.7H74.7L74.7,8.3z"/>
	<path fill="#FDCF17" d="M100.7,8.2h22.8v8.9c-2.6,0-11.5,0-11.5,0v5.2c0,0,7.9,0,10.4,0v8.4H112v5.6c0,0,9.1,0,11.8,0v8.9h-23.1
		L100.7,8.2z"/>
	<path fill="#FDCF17" d="M133.8,19.3h-7.2V8.1l26-0.1v11.2c-1.9,0-7.2,0-7.2,0v25.9h-11.5L133.8,19.3z"/>
	<path fill="#FDCF17" d="M167.5,28.6L155.9,8.1H169l2.9,7c0.3,0.6,0.6,1.5,0.9,2.6l0.8,2.7l0.9-2.7c0.2-0.6,0.4-1.3,0.8-2.2l0.2-0.4
		l2.8-7h13c-2.8,4.7-12,20.6-12,20.6v16.5h-11.6L167.5,28.6z"/>
	<path fill="#FFFFFF" d="M63.3,31.1c-5-8.6-10.7-18.6-12.4-21.6c-2.1,3.7-10.2,17.8-10.2,17.8S40,28.5,39,30.2
		c-2.5,4.3-7,12.2-8.5,14.8c4.2,0,36.7,0,40.8,0C70.4,43.4,67.1,37.6,63.3,31.1z"/>
	<path fill="#1D1D1B" d="M35.9,64h4.5l-1,5c-0.1,0.5,0.2,0.7,0.8,0.7s1-0.2,1.1-0.8l0.5-2.6c0.2-0.8-0.2-1.7-1.1-2.8
		c-1.7-2-2.8-3.3-3.2-4s-0.5-1.4-0.3-2.2l0.5-2.3c0.6-2.8,2.8-4.2,6.6-4.2c3.4,0,4.9,1.3,4.4,3.8l-0.8,3.7h-4.5l0.8-4
		c0.1-0.4-0.1-0.6-0.6-0.6c-0.6,0-1,0.4-1.2,1.2l-0.2,1.4c-0.2,0.8,0.2,1.7,1.1,2.8c1.7,1.9,2.8,3.2,3.2,4s0.5,1.6,0.3,2.6l-0.6,2.8
		c-0.6,2.9-2.8,4.3-6.6,4.3c-3.7,0-5.3-1.3-4.8-3.9L35.9,64z"/>
	<polygon fill="#1D1D1B" points="50.9,72.6 46.4,72.6 50,55.1 54.5,55.1 	"/>
	<path fill="#E50004" d="M79.6,43.3l-6.7-11.7L56.5,3.3c-1.2-2-3.3-3.3-5.6-3.3s-4.5,1.2-5.6,3.3c0,0-11.9,20.6-12,20.9l-3.6,6
		l-7.6,13.1c-0.6,1-0.9,2.1-0.9,3.3c0,1.1,0.3,2.3,0.9,3.3c1.2,2,3.3,3.3,5.6,3.3h9.6c0.9-1.7,2.9-3.2,7-3.2c2.3,0,3.8,0.5,4.7,1.6
		c0.2,0.3,0.4,0.5,0.5,0.9l0.5-2.2h6.5l-0.6,3h1.3H74c2.3,0,4.5-1.2,5.6-3.3C80.8,47.8,80.8,45.3,79.6,43.3z M34.6,23.8L34.6,23.8
		C34.6,23.7,34.6,23.7,34.6,23.8C34.6,23.7,34.6,23.7,34.6,23.8L34.6,23.8L34.6,23.8L34.6,23.8z M30.5,45c1.5-2.6,6-10.4,8.5-14.8
		c1-1.8,1.7-2.9,1.7-2.9s8.1-14.1,10.2-17.7c1.7,3,7.5,12.9,12.4,21.6c3.7,6.5,7.1,12.3,8,13.8C67.1,45,34.6,45,30.5,45z"/>
	<polygon fill="#1D1D1B" points="54.7,54.1 50.2,54.1 50.8,51 55.3,51 	"/>
	<path fill="#1D1D1B" d="M51.9,76.3l0.5-2.6h3.7c1.1,0,1.7-0.5,1.9-1.5c-0.7,0.4-1.6,0.6-2.9,0.6c-0.9,0-1.6-0.2-2.2-0.7
		c-0.6-0.4-0.8-1-0.6-1.8l2.5-12.6c0.4-1.9,1.8-2.9,4.2-2.9c0.6,0,1.4,0.3,2.3,0.8l0.7-0.7h3.9l-3.5,17.3c-0.2,1.1-0.7,2.1-1.3,2.8
		c-0.6,0.8-2.2,1.1-4.6,1.1L51.9,76.3L51.9,76.3z M58.5,69.5l2.2-11c0.1-0.5-0.1-0.8-0.6-0.8s-0.8,0.3-1,0.8l-2.2,11
		c-0.1,0.5,0.1,0.8,0.6,0.8C58.1,70.3,58.4,70,58.5,69.5z"/>
	<path fill="#1D1D1B" d="M73.9,72.6h-4.5l2.8-14.1c0.1-0.5-0.1-0.8-0.6-0.8s-0.9,0.3-1,0.9l-2.8,14.1h-4.5l3.5-17.5h4.5l-0.1,0.6
		c0.7-0.5,1.7-0.7,2.9-0.7c0.8,0,1.5,0.2,2.1,0.6c0.6,0.4,0.8,1,0.7,1.9L73.9,72.6z"/>
	<path fill="#1D1D1B" d="M76.2,65.6h4.5L80,69.3c-0.1,0.6,0.1,0.9,0.6,0.9s0.9-0.6,1.1-1.7c0.3-1.5,0.2-2.4-0.4-2.9
		c-2.1-1.2-3.3-2-3.7-2.5c-0.4-0.5-0.5-1.2-0.3-2.1l0.5-2.4c0.5-2.5,2.5-3.7,6-3.7c3.4,0,4.8,1.2,4.4,3.6L87.4,62H83l0.5-2.1
		c0.3-1.5,0.2-2.2-0.4-2.2s-0.9,0.5-1.1,1.4s-0.2,1.7-0.1,2.1c0.1,0.5,1.3,1.3,3.6,2.5c0.9,0.7,1.2,1.7,1,2.8L86,69.1
		c-0.5,2.5-2.5,3.7-6.1,3.7c-3.5,0-5-1.2-4.5-3.6L76.2,65.6z"/>
	<path fill="#1D1D1B" d="M139.2,72.6h-5.1L133,61.1l-2.3,11.5h-4.1l4.4-21.7h5.6l0.9,9.9l2-9.9h4.1L139.2,72.6z"/>
	<path fill="#1D1D1B" d="M140.8,69.2l2.1-10.5c0.5-2.5,2.5-3.7,6.1-3.7c1.4,0,2.5,0.3,3.5,0.9c0.9,0.6,1.3,1.5,1,2.7l-2.2,10.8
		c-0.5,2.4-2.5,3.5-5.9,3.5C141.8,72.9,140.3,71.7,140.8,69.2z M146.9,69.3l2.2-10.7c0.1-0.6-0.1-0.9-0.6-0.9s-0.9,0.3-1,0.9
		l-2.1,10.7c-0.1,0.6,0.1,0.9,0.6,0.9C146.4,70.2,146.8,69.9,146.9,69.3z"/>
	<path fill="#1D1D1B" d="M160.4,72.6h-2.8c-2,0-3.2-0.3-3.5-0.9s-0.3-1.7,0.1-3.4l2.2-10.7h-2l0.5-2.6h2l0.7-3.6h4.5l-0.7,3.6h2.4
		l-0.5,2.6h-2.4l-2.2,10.8c-0.1,0.5,0,0.9,0.3,1c0.3,0.2,1,0.3,2,0.3L160.4,72.6z"/>
	<path fill="#1D1D1B" d="M165.7,72.6h-4.5l3.5-17.5h4.5L165.7,72.6z M169.4,54.1h-4.5l0.6-3.1h4.5L169.4,54.1z"/>
	<path fill="#1D1D1B" d="M179.1,62.9h-4.5l0.9-4.3c0.1-0.6-0.1-0.9-0.6-0.9s-0.8,0.3-0.9,0.9l-2.2,10.7c-0.1,0.6,0.1,0.9,0.6,0.9
		s0.8-0.3,0.9-0.9l0.8-4.2h4.5l-0.9,4.3c-0.5,2.4-2.4,3.6-5.9,3.6s-5.1-1.2-4.6-3.7l2.1-10.5c0.5-2.5,2.5-3.7,6.1-3.7
		c3.4,0,4.9,1.2,4.5,3.6L179.1,62.9z"/>
	<path fill="#1D1D1B" d="M190.1,65.2h-6l-0.8,4c-0.1,0.6,0.1,0.9,0.6,0.9s0.8-0.3,0.9-0.9l0.7-3.5h4.5l-0.7,3.6
		c-0.5,2.4-2.5,3.5-6,3.5s-5-1.2-4.5-3.7l2.1-10.5c0.5-2.5,2.5-3.7,6-3.7s5,1.2,4.6,3.6L190.1,65.2z M186.2,62.6l0.8-4
		c0.1-0.6-0.1-0.9-0.6-0.9s-0.8,0.3-0.9,0.9l-0.8,4H186.2z"/>
	<path fill="#1D1D1B" d="M191,65.6h4.5l-0.7,3.7c-0.1,0.6,0.1,0.9,0.6,0.9s0.9-0.6,1.1-1.7c0.3-1.5,0.2-2.4-0.4-2.9
		c-2.1-1.2-3.3-2-3.7-2.5s-0.5-1.2-0.3-2.1l0.5-2.4c0.5-2.5,2.5-3.7,6-3.7c3.4,0,4.8,1.2,4.4,3.6l-0.7,3.5h-4.4l0.5-2.1
		c0.3-1.5,0.2-2.2-0.4-2.2c-0.6,0-0.9,0.5-1.1,1.4c-0.2,0.9-0.2,1.7-0.1,2.1c0.1,0.5,1.4,1.3,3.6,2.5c0.9,0.7,1.2,1.7,1,2.8
		l-0.5,2.6c-0.5,2.5-2.5,3.7-6.1,3.7c-3.5,0-5-1.2-4.5-3.6L191,65.6z"/>
	<path fill="#E50004" d="M124,63.4c-0.2-8.9-7.4-16-16.3-16c-8.5,0-15.5,6.5-16.2,14.8c0,0.5-0.1,1-0.1,1.5c0,9,7.3,16.3,16.3,16.3
		S124,72.7,124,63.7C124,63.6,124,63.5,124,63.4z M107.7,75.5c-6.5,0-11.8-5.3-11.8-11.8v-0.1c0-6.5,5.3-11.7,11.8-11.7
		c2.3,0,4.4,0.6,6.2,1.8l-11.6,11.6l-4.6,4.6c1,1.6,2.3,2.9,3.9,3.9l9.3-9.3l6.9-6.9c1.1,1.8,1.8,3.9,1.8,6.2c0,0.2,0,0.3,0,0.5
		C119.2,70.5,114,75.5,107.7,75.5z"/>
	<path fill="#1D1D1B" d="M105.6,71.1c-1.4,0-2.4-0.4-3.2-1.2c-0.7-0.8-1.1-1.8-1.1-3c0-0.9,0.2-1.6,0.6-2.1s1.1-0.9,2-1.3l0.9-0.4
		l-0.8-0.5c-1.3-0.8-1.9-1.9-1.9-3.2c0-1.2,0.4-2.1,1.3-2.8s2.2-1.1,3.8-1.1c1.4,0,2.6,0.4,3.4,1.1c0.8,0.7,1.2,1.6,1.2,2.6
		c0,1.1-0.5,2.1-1.5,3.1l-0.3,0.3l2.3,3.8l2.6-1.5V67l-1.7,1l1.7,2.8h-3.7l-0.8-1.2l-0.4,0.2C108.5,70.6,107,71.1,105.6,71.1z
		 M106.5,65.1c-0.8,0.6-1.2,1.3-1.2,2.1c0,0.6,0.1,1,0.4,1.3s0.7,0.5,1.3,0.5c0.5,0,1.1-0.2,1.7-0.6l0.4-0.3l-2.3-3.4L106.5,65.1z
		 M107.2,57c-0.5,0-0.9,0.2-1,0.4c-0.2,0.3-0.3,0.6-0.3,1.1c0,0.9,0.4,1.7,1.1,2.4l0.4,0.4l0.3-0.3c0.7-0.8,1-1.6,1-2.3
		c0-0.4-0.1-0.7-0.4-1.1C108.1,57.2,107.7,57,107.2,57z"/>
	<g>
		<path fill="#1D1D1B" d="M195.7,8.2V3.5H194v-1h4.5v1h-1.7v4.7H195.7z"/>
		<path fill="#1D1D1B" d="M199.3,8.2V2.5h1.7l1,3.9l1-3.9h1.7v5.7h-1V3.7l-1.1,4.5h-1.1l-1-4.5v4.5H199.3z"/>
	</g>
</g>
<g>
	<g>
		<g>
			<g>
				<path fill="#567B91" d="M73.88,98.12h-0.41c-0.08,0-0.14-0.03-0.17-0.1l-0.66-0.95c-0.02-0.03-0.05-0.06-0.07-0.07
					c-0.02-0.02-0.06-0.02-0.12-0.02h-0.25v1.14h-0.46v-2.84h0.83c0.18,0,0.35,0.02,0.48,0.06c0.14,0.04,0.25,0.1,0.33,0.16
					c0.09,0.07,0.15,0.15,0.19,0.25c0.04,0.1,0.06,0.21,0.06,0.33c0,0.1-0.02,0.19-0.05,0.28s-0.07,0.16-0.13,0.23
					c-0.06,0.07-0.13,0.13-0.21,0.18c-0.08,0.05-0.17,0.09-0.28,0.12c0.06,0.03,0.1,0.08,0.14,0.14L73.88,98.12z M72.54,96.65
					c0.1,0,0.2-0.02,0.28-0.04s0.14-0.06,0.2-0.11c0.06-0.05,0.1-0.1,0.12-0.17c0.02-0.06,0.04-0.14,0.04-0.21
					c0-0.16-0.05-0.27-0.15-0.36c-0.1-0.08-0.25-0.12-0.47-0.12h-0.37v1L72.54,96.65L72.54,96.65z"/>
			</g>
			<path fill="#567B91" d="M72.7,93.66c-1.74,0-3.15,1.41-3.15,3.15c0,1.74,1.41,3.15,3.15,3.15s3.15-1.41,3.15-3.15
				C75.85,95.06,74.44,93.66,72.7,93.66z M72.7,99.54c-1.51,0-2.73-1.22-2.73-2.73c0-1.51,1.22-2.73,2.73-2.73
				c1.51,0,2.73,1.22,2.73,2.73C75.44,98.32,74.21,99.54,72.7,99.54z"/>
		</g>
		<g>
			<g>
				<polygon fill="#567A91" points="49.83,127.49 49.83,145.94 31.38,145.94 				"/>
				<polygon fill="#567A91" points="15.12,111.23 33.57,111.23 15.12,129.68 				"/>
				<polygon fill="#ED1A38" points="15.12,93.88 67.18,93.88 67.18,145.94 54.17,145.94 54.17,117.02 25.24,145.94 15.12,145.94 
					15.12,135.82 44.04,106.89 15.12,106.89 				"/>
			</g>
			<path fill="#567A91" d="M22.22,150.49c0.15-0.19,0.21-0.21,0.46-0.21h1.69v8.27h-2.13v-5.1h-0.02l-1.76,2.19h-1.24
				c-0.19,0-0.27-0.04-0.37-0.16l-1.6-2.02h-0.01v5.1h-2.12v-8.27h1.8c0.25,0,0.31,0.02,0.46,0.21l2.41,3h0.04L22.22,150.49z
				 M28.27,150.28h2.21c0.15,0,0.2,0.02,0.26,0.19l3.29,8.08h-2.12c-0.15,0-0.21-0.02-0.28-0.19l-0.45-1.18h-3.31l-0.4,1.18
				c-0.05,0.16-0.11,0.19-0.26,0.19h-2.04L28.27,150.28z M29.45,152.39c-0.09,0.45-0.33,1.21-0.74,2.36l-0.22,0.7h2.02l-0.25-0.7
				c-0.46-1.22-0.7-1.89-0.79-2.36H29.45z M34.84,158.55v-8.27h3.02c1.69,0,3.02,0.37,3.9,1.23c0.66,0.66,1.05,1.64,1.05,2.91
				c0,1.27-0.39,2.23-1.05,2.89c-0.87,0.87-2.19,1.23-3.9,1.23C37.86,158.55,34.84,158.55,34.84,158.55z M37.8,156.64
				c0.96,0,1.64-0.1,2.08-0.5c0.39-0.33,0.61-0.87,0.61-1.72c0-0.85-0.22-1.4-0.61-1.73c-0.45-0.4-1.12-0.5-2.08-0.5h-0.74v4.45
				L37.8,156.64L37.8,156.64z M50.45,150.28v1.84h-4.21v1.36h3.83v1.8h-3.83v1.45h4.32v1.84h-6.53v-8.27L50.45,150.28L50.45,150.28z
				 M57.18,158.55h-2.22v-8.27h2.22V158.55z M60.98,150.28c0.2,0,0.28,0.02,0.39,0.16l2.38,2.97c0.57,0.72,1.14,1.45,1.36,1.77h0.02
				v-4.9h2.07v8.27h-1.58c-0.2,0-0.28-0.02-0.39-0.16l-2.41-3c-0.52-0.65-1.14-1.41-1.38-1.77h-0.02v4.93h-2.07v-8.27L60.98,150.28
				L60.98,150.28z M15.12,160.38H19c1.21,0,1.9,0.19,2.38,0.66c0.37,0.35,0.56,0.88,0.56,1.43c0,0.66-0.33,1.29-0.76,1.69
				c0.76,0.33,1.29,0.99,1.29,1.95c0,0.76-0.25,1.34-0.68,1.76c-0.55,0.53-1.43,0.79-2.66,0.79h-4.02V160.38z M19.29,163.68
				c0.15,0,0.25-0.02,0.33-0.15c0.09-0.14,0.14-0.44,0.14-0.64c0-0.25-0.05-0.42-0.16-0.53c-0.14-0.14-0.35-0.17-0.7-0.17h-1.56
				v1.49C17.34,163.68,19.29,163.68,19.29,163.68z M17.34,166.84h1.95c0.37,0,0.6-0.05,0.74-0.19c0.11-0.11,0.19-0.33,0.19-0.62
				c0-0.26-0.06-0.42-0.17-0.53c-0.14-0.14-0.35-0.19-0.75-0.19h-1.96V166.84z M26.49,168.65h-2.22v-8.27h3.62
				c1.38,0,2.3,0.22,2.87,0.79c0.45,0.45,0.71,1.11,0.71,1.93c0,1.18-0.61,2.07-1.38,2.56l1.86,3h-2.21c-0.2,0-0.26-0.02-0.37-0.21
				l-1.26-2.15c-0.14-0.22-0.16-0.25-0.4-0.25h-1.22L26.49,168.65L26.49,168.65z M28.59,164.29c0.21,0,0.33-0.04,0.45-0.22
				c0.14-0.21,0.19-0.6,0.19-0.85c0-0.3-0.1-0.6-0.24-0.74c-0.2-0.19-0.51-0.24-1.06-0.24h-1.43v2.04L28.59,164.29L28.59,164.29z
				 M35.76,168.65h-2.22v-8.27h2.22C35.76,160.38,35.76,168.65,35.76,168.65z M39.92,162.21h-2.77v-1.84h7.76v1.84h-2.77v6.44h-2.22
				L39.92,162.21L39.92,162.21z M47.82,160.38h2.21c0.15,0,0.2,0.02,0.26,0.19l3.29,8.08h-2.12c-0.15,0-0.21-0.02-0.28-0.19
				l-0.45-1.18h-3.3l-0.4,1.18c-0.05,0.16-0.11,0.19-0.26,0.19h-2.04L47.82,160.38z M49.01,162.49c-0.09,0.45-0.33,1.21-0.74,2.36
				l-0.22,0.7h2.02l-0.25-0.7c-0.46-1.22-0.7-1.89-0.79-2.36H49.01z M57.18,168.65h-2.22v-8.27h2.22V168.65z M60.98,160.38
				c0.2,0,0.28,0.02,0.39,0.16l2.38,2.97c0.57,0.72,1.14,1.45,1.36,1.77h0.02v-4.9h2.07v8.27h-1.58c-0.2,0-0.28-0.02-0.39-0.16
				l-2.41-3c-0.52-0.65-1.14-1.41-1.38-1.77h-0.02v4.93h-2.07v-8.27L60.98,160.38L60.98,160.38z"/>
		</g>
	</g>
	<g>
		<g>
			<path fill="#FFD913" d="M169.03,116.84c-0.76,0-1.52,0.04-2.26,0.12c1.79,4.38,2.78,9.17,2.78,14.19c0,5.4-1.14,10.54-3.2,15.18
				c3.72,2.39,5.87,6.83,5.11,11.46c10.2-1.2,18.12-9.88,18.12-20.41C189.58,126.04,180.38,116.84,169.03,116.84"/>
			<path fill="#32BDED" d="M132.05,93.66c-20.71,0-37.5,16.79-37.5,37.5s16.79,37.5,37.5,37.5c7.09,0,13.71-1.97,19.37-5.38
				c-2.06-2.47-3.07-5.8-2.49-9.23c0.37-2.2,1.35-4.14,2.73-5.69c-2.01-3.17-3.17-6.94-3.17-10.97c0-10.58,8-19.3,18.29-20.43
				C161.17,103.29,147.74,93.66,132.05,93.66"/>
			<path fill="#27A637" d="M166.77,116.96c-10.28,1.13-18.29,9.84-18.29,20.43c0,4.03,1.16,7.8,3.17,10.97
				c2.12-2.38,5.2-3.83,8.52-3.83c0.63,0,1.28,0.05,1.92,0.16c1.56,0.26,3,0.84,4.26,1.64c2.06-4.64,3.2-9.77,3.2-15.18
				C169.55,126.13,168.56,121.34,166.77,116.96"/>
			<path fill="#F2932F" d="M160.19,155.94c-2.53,2.87-5.49,5.35-8.78,7.33c1.68,2.02,4.07,3.47,6.86,3.94
				c0.64,0.11,1.29,0.16,1.92,0.16c5.47,0,10.31-3.94,11.25-9.52c0-0.02,0.01-0.05,0.01-0.07c-0.8,0.09-1.61,0.14-2.43,0.14
				C165.87,157.94,162.87,157.22,160.19,155.94"/>
			<path fill="#EF7F13" d="M166.35,146.33c-1.56,3.52-3.65,6.76-6.16,9.61c2.68,1.28,5.68,1.99,8.84,1.99
				c0.82,0,1.63-0.05,2.43-0.14C172.22,153.16,170.07,148.72,166.35,146.33"/>
			<path fill="#207332" d="M151.65,148.36c-1.38,1.55-2.36,3.49-2.73,5.69c-0.58,3.43,0.43,6.75,2.49,9.23
				c3.29-1.99,6.25-4.47,8.78-7.33C156.68,154.27,153.72,151.62,151.65,148.36"/>
			<path fill="#21632C" d="M160.17,144.53c-3.31,0-6.4,1.45-8.52,3.83c2.07,3.27,5.03,5.91,8.54,7.58c2.51-2.85,4.6-6.09,6.16-9.61
				c-1.26-0.81-2.69-1.38-4.26-1.64C161.45,144.58,160.81,144.53,160.17,144.53"/>
		</g>
		<g>
			<path fill="#FFFFFF" d="M103.99,126.18h1.63l2.49-10.75h-1.84l0.39-1.76h5.68l-0.41,1.76h-1.84l-2.51,10.77h4.44l0.5-2.1h1.89
				l-0.89,3.84h-9.93L103.99,126.18z"/>
			<path fill="#FFFFFF" d="M115.09,126.2c0-0.28,0.07-0.69,0.15-1.02l1.3-4.99h-1.76l0.41-1.6h3.66l-1.73,6.61
				c-0.11,0.37-0.15,0.74-0.15,0.95c0,0.41,0.22,0.65,0.56,0.65c0.43,0,0.82-0.33,1.28-1.52l0.84,0.3
				c-0.56,1.86-1.47,2.49-2.62,2.49C115.78,128.09,115.09,127.33,115.09,126.2z M116.91,115.75c0-0.69,0.56-1.26,1.26-1.26
				c0.67,0,1.26,0.56,1.26,1.26c0,0.69-0.59,1.26-1.26,1.26C117.48,117.01,116.91,116.45,116.91,115.75z"/>
			<path fill="#FFFFFF" d="M121.14,120.2h-1.63l0.41-1.6h2.86l1.08,7.44c1.67-1.8,2.88-3.64,3.25-5.07
				c-0.48-0.17-0.91-0.59-0.91-1.24c0-0.72,0.56-1.3,1.3-1.3c0.82,0,1.43,0.63,1.43,1.67c0,1.97-2.04,5.09-5.07,8.11h-1.24
				L121.14,120.2z"/>
			<path fill="#FFFFFF" d="M130.05,126.2c0-0.28,0.06-0.69,0.15-1.02l1.3-4.99h-1.76l0.41-1.6h3.66l-1.73,6.61
				c-0.11,0.37-0.15,0.74-0.15,0.95c0,0.41,0.22,0.65,0.56,0.65c0.43,0,0.82-0.33,1.28-1.52l0.85,0.3
				c-0.56,1.86-1.47,2.49-2.62,2.49C130.74,128.09,130.05,127.33,130.05,126.2z M131.87,115.75c0-0.69,0.56-1.26,1.26-1.26
				c0.67,0,1.26,0.56,1.26,1.26c0,0.69-0.58,1.26-1.26,1.26C132.43,117.01,131.87,116.45,131.87,115.75z"/>
			<path fill="#FFFFFF" d="M141.06,126.22c0-0.3,0.07-0.71,0.15-1.06l0.8-2.82c0.11-0.37,0.15-0.65,0.15-0.95
				c0-0.82-0.56-1.37-1.41-1.37c-1.15,0-2.23,0.98-2.71,2.84l-1.26,5.07h-1.91l1.95-7.74h-1.73l0.41-1.6h3.34l-0.5,2.19
				c0.74-1.3,1.95-2.34,3.23-2.34c1.43,0,2.54,0.98,2.54,2.65c0,0.46-0.09,0.98-0.24,1.52l-0.8,2.75c-0.07,0.28-0.13,0.59-0.13,0.76
				c0,0.43,0.22,0.69,0.59,0.69c0.37,0,0.78-0.33,1.21-1.52l0.85,0.3c-0.5,1.69-1.39,2.49-2.54,2.49
				C141.78,128.09,141.06,127.31,141.06,126.22z"/>
			<path fill="#FFFFFF" d="M145.48,131.19c-0.41-0.41-0.54-0.76-0.54-1.21c0-0.76,0.52-1.28,1.19-1.28c0.67,0,1.15,0.54,1.15,1.17
				c0,0.19-0.04,0.41-0.13,0.56c0.28,0.17,0.85,0.35,1.56,0.35c0.89,0,1.52-0.24,2.06-0.78c0.5-0.48,0.8-1.24,1.04-2.25l0.41-1.76
				c-0.8,1.13-1.93,1.84-3.21,1.84c-2.1,0-3.4-1.5-3.4-3.75c0-3.03,2.1-5.66,4.94-5.66c1.6,0,2.56,1.08,2.88,2.12l0.59-1.99h1.76
				l-2.23,9.62c-0.28,1.26-0.67,2.19-1.37,2.9c-0.82,0.8-1.91,1.19-3.43,1.19C147.46,132.27,146.05,131.75,145.48,131.19z
				 M153.05,122.32c0-1.39-0.91-2.23-2.25-2.23c-1.82,0-3.21,1.73-3.21,3.86c0,1.39,0.91,2.25,2.21,2.25
				C151.66,126.2,153.05,124.34,153.05,122.32z"/>
			<path fill="#FFFFFF" d="M115.96,131.72h-1.54l0.41-1.76h5.25l-0.39,1.76h-1.8l0.43,8.97l5.29-9.17h0.93l1.58,9.21l4.38-9.02
				h-1.73l0.39-1.76h5.27l-0.41,1.76h-1.37l-6.48,12.66h-1.06l-1.71-9.08l-5.48,9.08l-1.04,0.02L115.96,131.72z"/>
			<path fill="#FFFFFF" d="M130.57,140.68c0-3.19,2.21-5.96,4.92-5.96c1.41,0,2.47,1.02,2.8,2.21l0.61-2.08h1.78l-1.65,6.66
				c-0.11,0.39-0.17,0.74-0.17,0.95c0,0.41,0.2,0.65,0.56,0.65c0.35,0,0.78-0.32,1.21-1.52l0.85,0.3c-0.56,1.86-1.54,2.49-2.58,2.49
				c-1.11,0-1.8-0.76-1.8-1.89v-0.11c-0.8,1.11-1.93,2.02-3.34,2.02C131.89,144.4,130.57,142.95,130.57,140.68z M137.85,138.68
				c0-1.39-0.69-2.3-2.12-2.3c-1.82,0-3.19,1.97-3.19,4.08c0,1.37,0.67,2.32,1.97,2.32C136.42,142.78,137.85,140.72,137.85,138.68z"
				/>
			<path fill="#FFFFFF" d="M141.69,147.48c-0.41-0.41-0.54-0.76-0.54-1.21c0-0.76,0.52-1.28,1.19-1.28c0.67,0,1.15,0.54,1.15,1.17
				c0,0.2-0.04,0.41-0.13,0.56c0.28,0.17,0.85,0.35,1.56,0.35c0.89,0,1.52-0.24,2.06-0.78c0.5-0.48,0.8-1.24,1.04-2.25l0.41-1.76
				c-0.8,1.13-1.93,1.84-3.21,1.84c-2.1,0-3.4-1.5-3.4-3.75c0-3.03,2.1-5.66,4.94-5.66c1.6,0,2.56,1.08,2.88,2.12l0.59-2h1.76
				l-2.23,9.63c-0.28,1.26-0.67,2.19-1.37,2.9c-0.82,0.8-1.91,1.19-3.43,1.19C143.66,148.57,142.25,148.05,141.69,147.48z
				 M149.26,138.62c0-1.39-0.91-2.23-2.25-2.23c-1.82,0-3.21,1.73-3.21,3.86c0,1.39,0.91,2.25,2.21,2.25
				C147.87,142.5,149.26,140.63,149.26,138.62z"/>
			<path fill="#FFFFFF" d="M153.83,140.16v0.32c0,1.41,1.13,2.34,2.82,2.34c1,0,1.91-0.22,3.08-0.85l-0.37,1.78
				c-0.98,0.48-1.78,0.65-3.1,0.65c-2.23,0-4.29-1.41-4.29-3.97c0-3.16,2.34-5.72,5.12-5.72c2.28,0,3.77,1.3,3.77,3.49
				c0,0.59-0.11,1.24-0.35,1.95H153.83z M154.09,138.79h4.86c0.09-0.26,0.13-0.54,0.13-0.8c0-0.98-0.65-1.69-1.99-1.69
				C155.74,136.3,154.59,137.32,154.09,138.79z"/>
		</g>
		<g>
			<path fill="#FFFFFF" d="M126.88,156.86h0.88l1.37-5.91h-0.98l0.13-0.53h5l-0.37,1.58h-0.58l0.24-1.05h-2.83l-0.6,2.61h2.31
				l-0.12,0.53h-2.31l-0.65,2.76h2.83l0.24-1.05h0.58l-0.36,1.58h-4.9L126.88,156.86z"/>
			<path fill="#FFFFFF" d="M133.81,153.44h-0.85l0.13-0.49h1.37l-0.29,1.07c0.43-0.7,0.98-1.15,1.59-1.15
				c0.69,0,1.13,0.41,1.15,1.11c0.43-0.68,1.02-1.11,1.6-1.11c0.7,0,1.17,0.5,1.17,1.15c0,0.22-0.06,0.47-0.13,0.7l-0.45,1.56
				c-0.04,0.15-0.07,0.35-0.07,0.43c0,0.21,0.14,0.35,0.33,0.35c0.23,0,0.41-0.21,0.61-0.7l0.33,0.11
				c-0.21,0.62-0.53,0.99-1.02,0.99c-0.47,0-0.8-0.31-0.8-0.75c0-0.12,0.04-0.34,0.08-0.49l0.45-1.58c0.06-0.23,0.11-0.41,0.11-0.6
				c0-0.4-0.26-0.7-0.7-0.7c-0.64,0-1.43,0.69-1.76,1.95l-0.55,2.11h-0.55l0.71-2.75c0.06-0.23,0.11-0.41,0.11-0.6
				c0-0.4-0.28-0.7-0.71-0.7c-0.62,0-1.47,0.7-1.78,1.94l-0.53,2.12h-0.55L133.81,153.44z"/>
			<path fill="#FFFFFF" d="M139.63,158.98h0.69l1.33-5.55h-0.85l0.12-0.49h1.36l-0.2,0.86c0.36-0.51,0.89-0.94,1.59-0.94
				c0.96,0,1.71,0.73,1.71,1.87c0,1.56-1.15,2.74-2.37,2.74c-0.74,0-1.34-0.41-1.53-1.07l-0.6,2.57h0.97l-0.12,0.49h-2.22
				L139.63,158.98z M144.8,154.8c0-0.88-0.45-1.44-1.22-1.44c-1.06,0-1.89,1.25-1.89,2.29c0,0.77,0.5,1.33,1.32,1.33
				C144.06,156.98,144.8,155.9,144.8,154.8z"/>
			<path fill="#FFFFFF" d="M146.05,156.71c0-0.12,0.04-0.29,0.07-0.44l1.43-6.13h-0.84l0.12-0.49h1.39l-1.55,6.61
				c-0.03,0.16-0.07,0.36-0.07,0.44c0,0.21,0.14,0.35,0.33,0.35c0.23,0,0.41-0.21,0.61-0.7l0.33,0.11
				c-0.21,0.62-0.53,0.99-1.02,0.99C146.38,157.46,146.05,157.15,146.05,156.71z"/>
			<path fill="#FFFFFF" d="M148.32,155.57c0-1.41,1.09-2.71,2.52-2.71c1.17,0,1.86,0.87,1.86,1.9c0,1.41-1.09,2.71-2.52,2.71
				C149.01,157.48,148.32,156.61,148.32,155.57z M152.14,154.76c0-0.85-0.57-1.4-1.33-1.4c-1.08,0-1.93,1.04-1.93,2.22
				c0,0.85,0.57,1.4,1.33,1.4C151.29,156.98,152.14,155.94,152.14,154.76z"/>
			<path fill="#FFFFFF" d="M151.82,158.98c0-0.24,0.18-0.48,0.44-0.48c0.26,0,0.42,0.19,0.44,0.49h0.05c0.25,0,0.83-0.4,1.81-1.61
				l-0.79-3.95h-0.83l0.12-0.49h1.21l0.71,3.91c0.85-1.1,1.69-2.3,1.84-3.01c-0.21-0.06-0.43-0.24-0.43-0.53
				c0-0.23,0.2-0.45,0.48-0.45c0.29,0,0.52,0.21,0.52,0.62c0,0.77-0.65,1.81-2.28,3.88c-1.33,1.7-2.03,2.14-2.66,2.14
				C152.14,159.51,151.82,159.29,151.82,158.98z"/>
			<path fill="#FFFFFF" d="M158.16,155.32c-0.01,0.1-0.01,0.19-0.01,0.29c0,0.92,0.75,1.39,1.5,1.39c0.52,0,0.89-0.11,1.46-0.41
				l-0.13,0.57c-0.47,0.23-0.85,0.33-1.43,0.33c-1.03,0-1.96-0.67-1.96-1.86c0-1.5,1.17-2.75,2.49-2.75c1.01,0,1.62,0.64,1.62,1.58
				c0,0.27-0.06,0.56-0.18,0.88H158.16z M158.27,154.85h2.84c0.05-0.16,0.08-0.34,0.08-0.51c0-0.5-0.34-0.98-1.14-0.98
				C159.26,153.36,158.54,154,158.27,154.85z"/>
			<path fill="#FFFFFF" d="M163.2,153.44h-0.85l0.13-0.49h1.37l-0.3,1.21c0.59-0.81,1.09-1.29,1.5-1.29c0.35,0,0.54,0.2,0.54,0.47
				c0,0.29-0.23,0.52-0.5,0.52c-0.24,0-0.41-0.15-0.47-0.36c-0.36,0.21-1.13,0.91-1.39,1.96l-0.49,1.95h-0.55L163.2,153.44z"/>
		</g>
		<g>
			<path fill="#FFFFFF" d="M114.63,105.19h-0.74l0.13-0.53h2.14l-0.13,0.53h-0.87l0.15,5.46l2.89-5.09h0.25l0.58,5.1l2.88-5.47
				h-0.85l0.13-0.53h2.13l-0.13,0.53h-0.7l-3.48,6.55h-0.34l-0.61-4.94l-2.86,4.94h-0.34L114.63,105.19z"/>
			<path fill="#FFFFFF" d="M122.4,109.55c-0.01,0.1-0.01,0.19-0.01,0.29c0,0.92,0.75,1.39,1.5,1.39c0.52,0,0.89-0.11,1.46-0.41
				l-0.13,0.57c-0.47,0.23-0.85,0.33-1.43,0.33c-1.03,0-1.96-0.67-1.96-1.86c0-1.5,1.17-2.75,2.49-2.75c1.01,0,1.62,0.63,1.62,1.58
				c0,0.28-0.06,0.56-0.18,0.88H122.4z M122.5,109.08h2.84c0.05-0.16,0.08-0.34,0.08-0.51c0-0.5-0.34-0.98-1.14-0.98
				C123.5,107.59,122.78,108.23,122.5,109.08z"/>
			<path fill="#FFFFFF" d="M128.23,109.87c0-1.51,1.1-2.77,2.38-2.77c0.8,0,1.33,0.44,1.46,1.15l0.26-1.12h0.55l-0.83,3.39
				c-0.04,0.17-0.07,0.34-0.07,0.42c0,0.21,0.14,0.35,0.33,0.35c0.23,0,0.41-0.21,0.61-0.7l0.33,0.11
				c-0.21,0.62-0.53,0.99-1.02,0.99c-0.47,0-0.78-0.3-0.78-0.71v-0.18c-0.39,0.52-0.94,0.91-1.59,0.91
				C128.9,111.71,128.23,111.01,128.23,109.87z M131.86,108.93c0-0.79-0.42-1.33-1.23-1.33c-1.07,0-1.81,1.11-1.81,2.26
				c0,0.83,0.4,1.35,1.16,1.35C131.14,111.21,131.86,109.92,131.86,108.93z"/>
			<path fill="#FFFFFF" d="M134.67,107.67h-0.85l0.13-0.49h1.37l-0.3,1.21c0.59-0.81,1.09-1.29,1.5-1.29c0.35,0,0.54,0.2,0.54,0.47
				c0,0.29-0.23,0.52-0.5,0.52c-0.24,0-0.41-0.15-0.47-0.36c-0.36,0.21-1.13,0.91-1.39,1.96l-0.49,1.95h-0.55L134.67,107.67z"/>
			<path fill="#FFFFFF" d="M137.41,109.55c-0.01,0.1-0.01,0.19-0.01,0.29c0,0.92,0.75,1.39,1.5,1.39c0.52,0,0.89-0.11,1.46-0.41
				l-0.13,0.57c-0.47,0.23-0.85,0.33-1.43,0.33c-1.03,0-1.96-0.67-1.96-1.86c0-1.5,1.17-2.75,2.49-2.75c1.01,0,1.62,0.63,1.62,1.58
				c0,0.28-0.06,0.56-0.18,0.88H137.41z M137.52,109.08h2.84c0.05-0.16,0.08-0.34,0.08-0.51c0-0.5-0.34-0.98-1.14-0.98
				C138.51,107.59,137.79,108.23,137.52,109.08z"/>
			<path fill="#FFFFFF" d="M143.24,109.87c0-1.51,1.1-2.77,2.38-2.77c0.8,0,1.33,0.44,1.46,1.15l0.26-1.12h0.55l-0.83,3.39
				c-0.04,0.17-0.07,0.34-0.07,0.42c0,0.21,0.14,0.35,0.33,0.35c0.23,0,0.41-0.21,0.61-0.7l0.33,0.11
				c-0.21,0.62-0.53,0.99-1.02,0.99c-0.47,0-0.78-0.3-0.78-0.71v-0.18c-0.39,0.52-0.94,0.91-1.59,0.91
				C143.92,111.71,143.24,111.01,143.24,109.87z M146.87,108.93c0-0.79-0.42-1.33-1.23-1.33c-1.07,0-1.81,1.11-1.81,2.26
				c0,0.83,0.4,1.35,1.16,1.35C146.15,111.21,146.87,109.92,146.87,108.93z"/>
		</g>
	</g>
</g>
</svg>
